<?xml version="1.0" encoding="UTF-8" standalone="no"?>
<!-- Created with Inkscape (http://www.inkscape.org/) -->
<svg
   xmlns:dc="http://purl.org/dc/elements/1.1/"
   xmlns:cc="http://creativecommons.org/ns#"
   xmlns:rdf="http://www.w3.org/1999/02/22-rdf-syntax-ns#"
   xmlns:svg="http://www.w3.org/2000/svg"
   xmlns="http://www.w3.org/2000/svg"
   xmlns:xlink="http://www.w3.org/1999/xlink"
   xmlns:sodipodi="http://sodipodi.sourceforge.net/DTD/sodipodi-0.dtd"
   xmlns:inkscape="http://www.inkscape.org/namespaces/inkscape"
   width="240.00000px"
   height="240.00000px"
   id="svg2"
   sodipodi:version="0.32"
   inkscape:version="0.46"
   sodipodi:docbase="/home/nicu/Desktop/clipart"
   sodipodi:docname="nicubunu_Rectangular_border.svg"
   inkscape:output_extension="org.inkscape.output.svg.inkscape"
   sodipodi:modified="true">
  <defs
     id="defs3">
    <inkscape:perspective
       sodipodi:type="inkscape:persp3d"
       inkscape:vp_x="0 : 120 : 1"
       inkscape:vp_y="0 : 1000 : 0"
       inkscape:vp_z="240 : 120 : 1"
       inkscape:persp3d-origin="120 : 80 : 1"
       id="perspective58" />
    <linearGradient
       id="linearGradient7508">
      <stop
         style="stop-color: rgb(123, 0, 0); stop-opacity: 1;"
         offset="0"
         id="stop7510" />
      <stop
         style="stop-color: rgb(160, 0, 0); stop-opacity: 1;"
         offset="1.0000000"
         id="stop7512" />
    </linearGradient>
    <linearGradient
       id="linearGradient2376">
      <stop
         style="stop-color: rgb(255, 201, 0); stop-opacity: 1;"
         offset="0"
         id="stop2378" />
      <stop
         style="stop-color: rgb(255, 234, 0); stop-opacity: 1;"
         offset="1.0000000"
         id="stop2380" />
    </linearGradient>
    <linearGradient
       inkscape:collect="always"
       xlink:href="#linearGradient2376"
       id="linearGradient9126"
       gradientUnits="userSpaceOnUse"
       gradientTransform="matrix(-1,0,0,1,752.8,23.5398)"
       x1="673.79962"
       y1="218.50667"
       x2="737.22089"
       y2="192.40924" />
    <linearGradient
       inkscape:collect="always"
       xlink:href="#linearGradient2376"
       id="linearGradient9128"
       gradientUnits="userSpaceOnUse"
       gradientTransform="matrix(-1,0,0,1,752.8,23.5398)"
       x1="739.78912"
       y1="225.79610"
       x2="673.79962"
       y2="248.16855" />
    <linearGradient
       inkscape:collect="always"
       xlink:href="#linearGradient2376"
       id="linearGradient9130"
       gradientUnits="userSpaceOnUse"
       gradientTransform="matrix(0,1,-1,0,411.822,-653.898)"
       x1="747.26038"
       y1="163.28998"
       x2="673.79932"
       y2="239.37019" />
    <linearGradient
       inkscape:collect="always"
       xlink:href="#linearGradient2376"
       id="linearGradient9132"
       gradientUnits="userSpaceOnUse"
       gradientTransform="matrix(0,1,-1,0,411.822,-653.898)"
       x1="690.99298"
       y1="269.45581"
       x2="747.26038"
       y2="182.67899" />
    <linearGradient
       inkscape:collect="always"
       xlink:href="#linearGradient2376"
       id="linearGradient9134"
       gradientUnits="userSpaceOnUse"
       gradientTransform="matrix(0.606133,0,0,0.606133,208.374,34.2119)"
       x1="339.81781"
       y1="62.270416"
       x2="281.08194"
       y2="6.5466456" />
    <linearGradient
       inkscape:collect="always"
       xlink:href="#linearGradient2376"
       id="linearGradient9136"
       gradientUnits="userSpaceOnUse"
       gradientTransform="matrix(0.606133,0,0,0.606133,208.374,34.2119)"
       x1="272.02756"
       y1="23.115671"
       x2="353.41162"
       y2="77.362137" />
    <linearGradient
       inkscape:collect="always"
       xlink:href="#linearGradient2376"
       id="linearGradient9138"
       gradientUnits="userSpaceOnUse"
       gradientTransform="matrix(0.606133,0,0,0.606133,-147.473,373.059)"
       x1="353.83850"
       y1="62.270416"
       x2="281.08194"
       y2="6.5466456" />
    <linearGradient
       inkscape:collect="always"
       xlink:href="#linearGradient2376"
       id="linearGradient9140"
       gradientUnits="userSpaceOnUse"
       gradientTransform="matrix(0.606133,0,0,0.606133,-147.473,373.059)"
       x1="272.02756"
       y1="23.115671"
       x2="353.41162"
       y2="77.362137" />
    <linearGradient
       inkscape:collect="always"
       xlink:href="#linearGradient2376"
       id="linearGradient9142"
       gradientUnits="userSpaceOnUse"
       gradientTransform="translate(43.7394,24.0008)"
       x1="737.45551"
       y1="227.49544"
       x2="674.29956"
       y2="220.10855" />
    <linearGradient
       inkscape:collect="always"
       xlink:href="#linearGradient2376"
       id="linearGradient9144"
       gradientUnits="userSpaceOnUse"
       gradientTransform="translate(43.7394,24.0008)"
       x1="674.29956"
       y1="192.40926"
       x2="746.76062"
       y2="209.64528" />
    <linearGradient
       inkscape:collect="always"
       xlink:href="#linearGradient2376"
       id="linearGradient9146"
       gradientUnits="userSpaceOnUse"
       gradientTransform="matrix(0,1,1,0,384.717,-653.437)"
       x1="737.45551"
       y1="227.49544"
       x2="674.29956"
       y2="220.10855" />
    <linearGradient
       inkscape:collect="always"
       xlink:href="#linearGradient2376"
       id="linearGradient9148"
       gradientUnits="userSpaceOnUse"
       gradientTransform="matrix(0,1,1,0,384.717,-653.437)"
       x1="674.29956"
       y1="192.40926"
       x2="746.76062"
       y2="209.64528" />
    <linearGradient
       inkscape:collect="always"
       xlink:href="#linearGradient2376"
       id="linearGradient9150"
       gradientUnits="userSpaceOnUse"
       gradientTransform="matrix(-0.606133,0,0,0.606133,944.012,373.52)"
       x1="271.60132"
       y1="77.788849"
       x2="353.83850"
       y2="8.6651726" />
    <linearGradient
       inkscape:collect="always"
       xlink:href="#linearGradient2376"
       id="linearGradient9152"
       gradientUnits="userSpaceOnUse"
       gradientTransform="matrix(-0.606133,0,0,0.606133,944.012,373.52)"
       x1="353.83850"
       y1="36.670269"
       x2="271.60132"
       y2="77.788849" />
    <linearGradient
       inkscape:collect="always"
       xlink:href="#linearGradient2376"
       id="linearGradient9154"
       gradientUnits="userSpaceOnUse"
       gradientTransform="matrix(-1,0,0,-1,751.953,766.724)"
       x1="673.79956"
       y1="170.99463"
       x2="739.78912"
       y2="201.39803" />
    <linearGradient
       inkscape:collect="always"
       xlink:href="#linearGradient2376"
       id="linearGradient9156"
       gradientUnits="userSpaceOnUse"
       gradientTransform="matrix(-1,0,0,-1,751.953,766.724)"
       x1="739.78912"
       y1="201.39803"
       x2="681.27106"
       y2="153.14447" />
    <linearGradient
       inkscape:collect="always"
       xlink:href="#linearGradient2376"
       id="linearGradient9158"
       gradientUnits="userSpaceOnUse"
       gradientTransform="matrix(0,-1,-1,0,410.976,1444.16)"
       x1="673.79883"
       y1="178.69930"
       x2="747.25989"
       y2="209.83568" />
    <linearGradient
       inkscape:collect="always"
       xlink:href="#linearGradient2376"
       id="linearGradient9160"
       gradientUnits="userSpaceOnUse"
       gradientTransform="matrix(0,-1,-1,0,410.976,1444.16)"
       x1="740.57251"
       y1="180.85222"
       x2="673.79883"
       y2="148.00804" />
    <linearGradient
       inkscape:collect="always"
       xlink:href="#linearGradient2376"
       id="linearGradient9162"
       gradientUnits="userSpaceOnUse"
       gradientTransform="matrix(0.606133,0,0,-0.606133,207.527,756.051)"
       x1="335.58075"
       y1="-4.4484949"
       x2="271.60132"
       y2="36.670086" />
    <linearGradient
       inkscape:collect="always"
       xlink:href="#linearGradient2376"
       id="linearGradient9164"
       gradientUnits="userSpaceOnUse"
       gradientTransform="matrix(0.606133,0,0,-0.606133,207.527,756.051)"
       x1="271.60132"
       y1="63.367683"
       x2="353.83850"
       y2="-4.4484949" />
    <linearGradient
       inkscape:collect="always"
       xlink:href="#linearGradient2376"
       id="linearGradient9166"
       gradientUnits="userSpaceOnUse"
       gradientTransform="matrix(1,0,0,-1,42.7394,766.724)"
       x1="747.26062"
       y1="177.41518"
       x2="682.78833"
       y2="214.97211" />
    <linearGradient
       inkscape:collect="always"
       xlink:href="#linearGradient2376"
       id="linearGradient9168"
       gradientUnits="userSpaceOnUse"
       gradientTransform="matrix(1,0,0,-1,42.7394,766.724)"
       x1="682.78833"
       y1="214.97211"
       x2="747.26062"
       y2="192.40921" />
    <linearGradient
       inkscape:collect="always"
       xlink:href="#linearGradient2376"
       id="linearGradient9170"
       gradientUnits="userSpaceOnUse"
       gradientTransform="matrix(0,-1,1,0,383.717,1444.16)"
       x1="673.79883"
       y1="259.59818"
       x2="747.25989"
       y2="232.94965" />
    <linearGradient
       inkscape:collect="always"
       xlink:href="#linearGradient2376"
       id="linearGradient9172"
       gradientUnits="userSpaceOnUse"
       gradientTransform="matrix(0,-1,1,0,383.717,1444.16)"
       x1="747.25989"
       y1="176.99994"
       x2="673.79883"
       y2="230.19102" />
    <linearGradient
       gradientTransform="scale(0.3)"
       y2="30.768328"
       x2="186.76956"
       y1="702.92181"
       x1="658.21710"
       gradientUnits="userSpaceOnUse"
       id="linearGradient1402"
       xlink:href="#linearGradient7508"
       inkscape:collect="always" />
    <linearGradient
       y2="296.53998"
       x2="309.71277"
       y1="470.48825"
       x1="557.20013"
       gradientTransform="scale(0.3)"
       gradientUnits="userSpaceOnUse"
       id="linearGradient1410"
       xlink:href="#linearGradient2376"
       inkscape:collect="always" />
    <linearGradient
       y2="484.07162"
       x2="524.56952"
       y1="318.60864"
       x1="272.69220"
       gradientTransform="scale(0.3)"
       gradientUnits="userSpaceOnUse"
       id="linearGradient1412"
       xlink:href="#linearGradient2376"
       inkscape:collect="always" />
    <linearGradient
       y2="48.876568"
       x2="80.781555"
       y1="89.663742"
       x1="86.606789"
       gradientTransform="matrix(0.993716, -0.111929, 0.111929, 0.993716, -0.385233, -0.770465)"
       gradientUnits="userSpaceOnUse"
       id="linearGradient4068"
       xlink:href="#linearGradient2376"
       inkscape:collect="always" />
    <linearGradient
       y2="87.251747"
       x2="65.192856"
       y1="45.784847"
       x1="53.332958"
       gradientTransform="matrix(0.993716, -0.111929, 0.111929, 0.993716, -0.385233, -0.770465)"
       gradientUnits="userSpaceOnUse"
       id="linearGradient4070"
       xlink:href="#linearGradient2376"
       inkscape:collect="always" />
  </defs>
  <sodipodi:namedview
     id="base"
     pagecolor="#ffffff"
     bordercolor="#666666"
     borderopacity="1.0"
     inkscape:pageopacity="0.0"
     inkscape:pageshadow="2"
     inkscape:zoom="2.8284271"
     inkscape:cx="120"
     inkscape:cy="120"
     inkscape:document-units="px"
     inkscape:current-layer="layer1"
     showgrid="false"
     inkscape:window-width="1920"
     inkscape:window-height="992"
     inkscape:window-x="-5"
     inkscape:window-y="0" />
  <metadata
     id="metadata4">
    <rdf:RDF>
      <cc:Work
         rdf:about="">
        <dc:format>image/svg+xml</dc:format>
        <dc:type
           rdf:resource="http://purl.org/dc/dcmitype/StillImage" />
      </cc:Work>
    </rdf:RDF>
  </metadata>
  <g
     inkscape:label="Layer 1"
     inkscape:groupmode="layer"
     id="layer1">
    <rect
       style="opacity:1;fill:#ffffff;fill-opacity:1;stroke:none;stroke-width:4;stroke-linejoin:round;stroke-miterlimit:4;stroke-dasharray:none;stroke-dashoffset:0;stroke-opacity:1"
       id="rect2431"
       width="294.15643"
       height="265.16504"
       x="-28.991379"
       y="-7.8409271"
       ry="25.911074" />
    <path
       style="fill:#000000;fill-opacity:0.09411771;fill-rule:evenodd;stroke:none;stroke-width:2;stroke-linecap:butt;stroke-linejoin:miter;stroke-miterlimit:4;stroke-opacity:1"
       d="M 103.25046,22.144265 C 102.64598,22.084883 102.02689,22.095397 101.40359,22.179495 C 98.225406,22.475573 95.379225,24.927555 95.047335,27.948398 C 94.759992,30.362511 96.601308,33.109488 99.359835,33.180044 C 101.19538,33.414635 103.01192,31.793264 102.66921,30.053387 C 102.40687,28.966836 100.42697,27.840462 100.44733,29.595397 C 99.376395,31.733685 97.272672,29.580108 97.81296,27.983628 C 98.292948,25.306637 101.87902,23.92216 104.39421,25.024313 C 107.98317,26.214645 109.39585,30.39103 108.33171,33.61161 C 107.2733,36.96271 103.6276,39.173155 100.00671,39.345283 C 97.672191,39.551188 95.397,38.899111 93.21921,38.20031 C 80.333874,34.800573 67.573845,31.016756 54.85671,27.102879 C 49.194162,25.454592 43.541928,23.741537 37.766085,22.478949 C 31.535475,21.661048 24.740434,26.099967 24.247336,32.158375 C 23.690341,36.556196 26.917954,41.20396 31.60671,42.110832 C 34.588641,42.652939 37.9761,41.5641 39.584835,39.054636 C 41.107833,36.991886 40.916157,33.929573 38.90046,32.21122 C 37.39473,30.886166 34.478187,30.672734 33.35046,32.545905 C 32.199858,33.564047 33.439284,36.075152 34.58796,35.698984 C 34.885437,34.196492 37.210941,32.877038 37.68171,35.029615 C 38.535306,37.311284 36.171546,39.42061 33.89421,39.679967 C 30.73581,40.088292 27.781459,37.669724 27.181711,34.827043 C 26.417365,31.945028 27.54967,28.668887 30.16296,26.935537 C 33.398475,24.438865 38.044263,24.633909 41.76921,25.957906 C 50.282079,28.40225 58.775406,30.943123 67.25046,33.50592 C 75.582618,36.026964 83.959989,38.41446 92.39421,40.61356 C 96.026406,41.706657 100.13332,42.702875 103.79421,41.159624 C 108.51325,39.624988 111.92463,34.981787 111.37859,30.255959 C 111.06525,26.27404 107.48179,22.559941 103.25046,22.144265 z M 139.68171,22.276377 C 135.45038,22.692053 131.86692,26.406152 131.55358,30.388071 C 131.00754,35.113899 134.41893,39.757101 139.13796,41.291736 C 142.79885,42.834988 146.90576,41.838769 150.53796,40.745672 C 158.97218,38.546572 167.34956,36.159076 175.68171,33.638033 C 184.15676,31.075235 192.65008,28.534362 201.16296,26.090018 C 204.88791,24.766021 209.53369,24.570977 212.76921,27.067649 C 215.3825,28.800999 216.51481,32.068332 215.75046,34.950348 C 215.15071,37.793029 212.19636,40.220405 209.03796,39.812079 C 206.76062,39.552722 204.39686,37.443396 205.25046,35.161728 C 205.72123,33.00915 208.04674,34.328604 208.34421,35.831096 C 209.49289,36.207265 210.73231,33.696159 209.58171,32.678017 C 208.45398,30.804847 205.53744,31.018278 204.03171,32.343332 C 202.01601,34.061685 201.83371,37.123998 203.35671,39.186748 C 204.96545,41.696212 208.34353,42.785051 211.32546,42.242944 C 216.01422,41.336075 219.24184,36.688308 218.68483,32.290488 C 218.19174,26.23208 211.3967,21.784353 205.16608,22.602254 C 199.39024,23.864842 193.73801,25.586704 188.07546,27.234991 C 175.35832,31.148868 162.59829,34.932684 149.71296,38.332422 C 147.53517,39.031223 145.25998,39.683301 142.92546,39.477395 C 139.30457,39.305267 135.65887,37.094822 134.60046,33.743723 C 133.53632,30.523143 134.94901,26.346757 138.53796,25.156425 C 141.05315,24.054272 144.63922,25.438749 145.11921,28.11574 C 145.6595,29.71222 143.55578,31.865798 142.48484,29.72751 C 142.5052,27.972574 140.5253,29.098948 140.26296,30.185499 C 139.92025,31.925376 141.73678,33.546748 143.57234,33.312156 C 146.33086,33.2416 148.17217,30.485816 147.88484,28.071702 C 147.55294,25.050859 144.70677,22.607685 141.52858,22.311607 C 140.90528,22.227509 140.28619,22.216995 139.68171,22.276377 z M 121.36296,25.376612 C 117.41088,25.376611 114.18171,28.410295 114.18171,32.123145 C 114.18171,35.835995 117.41088,38.869679 121.36296,38.869679 C 125.31505,38.869679 128.53483,35.835995 128.53483,32.123145 C 128.53484,28.410295 125.31505,25.376613 121.36296,25.376612 z M 121.36296,27.085264 C 124.33118,27.085264 126.72546,29.334606 126.72546,32.123145 C 126.72546,34.911684 124.33118,37.161027 121.36296,37.161027 C 118.39475,37.161026 116.00046,34.911684 116.00046,32.123145 C 116.00046,29.334606 118.39475,27.085264 121.36296,27.085264 z M 14.834836,36.130551 C 10.496977,36.460703 6.5329152,39.394225 5.1035862,43.27342 C 3.4608942,46.712696 4.5213072,50.571 5.6848362,53.983321 C 8.0256372,61.906977 10.566973,69.777226 13.250461,77.604995 C 15.978394,85.567011 18.68299,93.546195 21.284836,101.54374 C 22.694146,105.04319 22.901758,109.40775 20.244211,112.4474 C 18.399172,114.9025 14.921302,115.96626 11.853586,115.24818 C 8.8277352,114.68475 6.2439492,111.90924 6.6785862,108.94202 C 6.9546552,106.80255 9.1998972,104.58188 11.628586,105.3838 C 13.919866,105.82607 12.515392,108.00199 10.916086,108.28147 C 10.515679,109.3606 13.188586,110.53381 14.272336,109.45286 C 16.266205,108.3934 16.039021,105.65341 14.628586,104.23883 C 12.79951,102.34515 9.5398752,102.16508 7.3442112,103.59588 C 4.6730502,105.10723 3.5140482,108.28963 4.0910862,111.09105 C 5.0563932,115.49597 10.003639,118.52821 14.684836,118.00493 C 21.133621,117.54168 25.867939,111.15798 24.997336,105.30453 C 23.653393,99.878331 21.820582,94.568258 20.066086,89.248489 C 15.900016,77.301186 11.872387,65.313582 8.2535862,53.208262 C 7.5097572,51.162305 6.8156622,49.024848 7.0348362,46.831644 C 7.2180552,43.429948 9.5709312,40.004938 13.137961,39.010598 C 16.566061,38.010872 21.011554,39.338041 22.278586,42.709741 C 23.451757,45.072678 21.978067,48.441657 19.128586,48.892595 C 17.429236,49.400177 15.136891,47.423808 17.412961,46.417692 C 19.280977,46.436826 18.082021,44.576778 16.925461,44.330318 C 15.073474,44.00835 13.347628,45.714928 13.597336,47.43936 C 13.672438,50.030902 16.605793,51.760749 19.175461,51.490803 C 22.390954,51.179004 24.991555,48.505116 25.306711,45.519328 C 26.022844,40.834758 21.553831,36.484589 16.709836,36.148166 C 16.081042,36.084042 15.454528,36.083386 14.834836,36.130551 z M 228.09733,36.253856 C 227.47764,36.206691 226.85113,36.216154 226.22233,36.280278 C 221.37834,36.616701 216.90933,40.966874 217.62546,45.651441 C 217.94061,48.637229 220.54122,51.302309 223.75671,51.614108 C 226.32638,51.884054 229.25973,50.154207 229.33483,47.562665 C 229.58454,45.838233 227.8587,44.131655 226.00671,44.453623 C 224.85014,44.700086 223.65119,46.560128 225.51921,46.540997 C 227.79527,47.547107 225.50294,49.532289 223.80358,49.024707 C 220.9541,48.573767 219.48041,45.204793 220.65358,42.841853 C 221.92062,39.470155 226.36611,38.134177 229.79421,39.133903 C 233.36125,40.128243 235.71412,43.56206 235.89733,46.963756 C 236.11651,49.15696 235.42241,51.28561 234.67858,53.331567 C 231.05979,65.436887 227.03216,77.433298 222.86608,89.380601 C 221.11158,94.70037 219.27878,100.01045 217.93483,105.43665 C 217.06424,111.29008 221.79855,117.67379 228.24733,118.13704 C 232.92853,118.66032 237.87578,115.61928 238.84108,111.21435 C 239.41813,108.41293 238.25912,105.23934 235.58796,103.72799 C 233.39229,102.29719 230.13266,102.47726 228.30358,104.37094 C 226.89314,105.78553 226.66597,108.52551 228.65983,109.58497 C 229.74358,110.66592 232.41649,109.49272 232.01608,108.41357 C 230.41677,108.13411 229.0123,105.94938 231.30358,105.50711 C 233.73228,104.70519 235.97752,106.92585 236.25358,109.06533 C 236.68822,112.03253 234.10444,114.81685 231.07858,115.3803 C 228.01087,116.09838 224.533,115.03461 222.68796,112.57952 C 220.03041,109.53986 220.23802,105.1665 221.64733,101.66704 C 224.24918,93.669497 226.95378,85.699124 229.68171,77.737107 C 232.3652,69.909336 234.90653,62.039089 237.24733,54.115433 C 238.41087,50.703115 239.47128,46.844806 237.82858,43.405532 C 236.39925,39.526336 232.43519,36.584008 228.09733,36.253856 z M 14.609836,120.88497 C 10.65775,120.88498 7.4285862,123.90985 7.4285862,127.6227 C 7.4285862,131.33555 10.657753,134.36923 14.609836,134.36923 C 18.561925,134.36922 21.781711,131.33555 21.781711,127.6227 C 21.781711,123.90985 18.561928,120.88498 14.609836,120.88497 z M 228.32233,121.00828 C 224.37024,121.00829 221.15046,124.04196 221.15046,127.75481 C 221.15046,131.46766 224.37024,134.49254 228.32233,134.49254 C 232.27442,134.49254 235.50358,131.46766 235.50358,127.75481 C 235.50358,124.04196 232.27442,121.00828 228.32233,121.00828 z M 14.609836,122.59362 C 17.578057,122.59362 19.962961,124.83416 19.962961,127.6227 C 19.962961,130.41124 17.57806,132.66058 14.609836,132.66058 C 11.641618,132.66058 9.2473362,130.41124 9.2473362,127.6227 C 9.2473362,124.83416 11.641621,122.59362 14.609836,122.59362 z M 228.32233,122.71693 C 231.29055,122.71693 233.68483,124.96627 233.68483,127.75481 C 233.68483,130.54335 231.29055,132.78388 228.32233,132.78389 C 225.35411,132.78389 222.96921,130.54335 222.96921,127.75481 C 222.96921,124.96627 225.35411,122.71693 228.32233,122.71693 z M 12.669211,137.12597 C 8.5732662,137.41635 4.6826052,140.22078 3.8379612,144.07508 C 3.2609232,146.87649 4.4199252,150.05009 7.0910862,151.56144 C 9.2867502,152.99225 12.546385,152.81217 14.375461,150.91849 C 15.785893,149.50391 16.01308,146.76393 14.019211,145.70446 C 12.935464,144.62351 10.262554,145.79672 10.662961,146.87586 C 12.262267,147.15533 13.666741,149.34006 11.375461,149.78233 C 8.9467722,150.58425 6.7015302,148.36358 6.4254612,146.22411 C 5.9908242,143.2569 8.5746102,140.47258 11.600461,139.90914 C 14.66818,139.19106 18.146047,140.26364 19.991086,142.71873 C 22.648633,145.75838 22.441021,150.12294 21.031711,153.6224 C 18.429862,161.61994 15.725269,169.59031 12.997336,177.55233 C 10.313848,185.3801 7.7725122,193.25035 5.4317112,201.174 C 4.2681822,204.58632 3.2077692,208.44463 4.8504612,211.8839 C 6.4839822,216.31727 11.426371,219.52215 16.456711,219.00916 C 21.300706,218.67274 25.769719,214.32256 25.053586,209.638 C 24.73843,206.6522 22.137829,203.98712 18.922336,203.67533 C 16.352668,203.40539 13.419313,205.13523 13.344211,207.72677 C 13.0945,209.45121 14.820349,211.15778 16.672336,210.83582 C 17.828899,210.58936 19.027852,208.72931 17.159836,208.74844 C 14.883766,207.74232 17.176111,205.75715 18.875461,206.26473 C 21.724945,206.71566 23.198632,210.09345 22.025461,212.45639 C 20.758429,215.82809 16.312936,217.15526 12.884836,216.15554 C 9.3178032,215.1612 6.9649302,211.72738 6.7817112,208.32568 C 6.5625372,206.13248 7.2566322,204.00383 8.0004612,201.95787 C 11.619262,189.85255 15.646891,177.85614 19.812961,165.90883 C 21.567457,160.58906 23.400268,155.27899 24.744211,149.85279 C 25.614814,143.99935 20.880496,137.61565 14.431711,137.1524 C 13.846561,137.08698 13.254346,137.08449 12.669211,137.12597 z M 229.70983,137.12597 C 229.1247,137.08449 228.53248,137.08698 227.94733,137.1524 C 221.49855,137.61565 216.76424,143.99935 217.63483,149.85279 C 218.97878,155.27899 220.81158,160.58906 222.56608,165.90883 C 226.73216,177.85614 230.75979,189.85255 234.37858,201.95787 C 235.12241,204.00383 235.81651,206.13248 235.59733,208.32568 C 235.41412,211.72738 233.06125,215.1612 229.49421,216.15554 C 226.06611,217.15526 221.62062,215.82809 220.35358,212.45639 C 219.18041,210.09345 220.6541,206.71566 223.50358,206.26473 C 225.20293,205.75715 227.49527,207.74232 225.21921,208.74844 C 223.35119,208.72931 224.55014,210.58936 225.70671,210.83582 C 227.5587,211.15778 229.28454,209.45121 229.03483,207.72677 C 228.95973,205.13523 226.02638,203.40539 223.45671,203.67533 C 220.24122,203.98712 217.64061,206.6522 217.32546,209.638 C 216.60933,214.32256 221.07834,218.67274 225.92233,219.00916 C 230.95267,219.52215 235.89506,216.31727 237.52858,211.8839 C 239.17128,208.44463 238.11087,204.58632 236.94733,201.174 C 234.60653,193.25035 232.0652,185.3801 229.38171,177.55233 C 226.65378,169.59031 223.94918,161.61994 221.34733,153.6224 C 219.93803,150.12294 219.73041,145.75838 222.38796,142.71873 C 224.233,140.26364 227.71087,139.19106 230.77858,139.90914 C 233.80444,140.47258 236.38822,143.2569 235.95358,146.22411 C 235.67752,148.36358 233.43228,150.58425 231.00358,149.78233 C 228.71231,149.34006 230.11677,147.15533 231.71608,146.87586 C 232.11649,145.79672 229.44358,144.62351 228.35983,145.70446 C 226.36597,146.76393 226.59314,149.50391 228.00358,150.91849 C 229.83266,152.81217 233.09229,152.99225 235.28796,151.56144 C 237.95912,150.05009 239.11813,146.87649 238.54108,144.07508 C 237.69644,140.22078 233.80578,137.41635 229.70983,137.12597 z M 32.48796,212.92318 C 32.107002,212.94037 31.726326,212.97873 31.353585,213.04649 C 26.664829,213.95336 23.437216,218.60112 23.994211,222.99895 C 24.487309,229.05736 31.282347,233.50508 37.51296,232.68718 C 43.288803,231.42459 48.941034,229.71154 54.603585,228.06325 C 67.32072,224.14938 80.080752,220.35675 92.966085,216.95701 C 95.143875,216.25821 97.41906,215.61495 99.753585,215.82085 C 103.37447,215.99298 107.02018,218.19462 108.07859,221.54572 C 109.14273,224.7663 107.73004,228.94268 104.14109,230.13301 C 101.62589,231.23516 98.039826,229.8595 97.559835,227.18251 C 97.019547,225.58603 99.123273,223.42365 100.19421,225.56193 C 100.17384,227.31686 102.15374,226.19048 102.41608,225.10394 C 102.7588,223.36406 100.94226,221.75151 99.10671,221.98609 C 96.348183,222.05664 94.50687,224.80362 94.79421,227.21774 C 95.1261,230.23858 97.972284,232.68174 101.15046,232.97783 C 106.13688,233.65061 110.76736,229.45213 111.12546,224.90136 C 111.67151,220.17553 108.26011,215.53233 103.54108,213.9977 C 99.880197,212.45445 95.773284,213.45067 92.141085,214.54376 C 83.706864,216.74286 75.320115,219.13036 66.98796,221.65141 C 58.512906,224.2142 50.028957,226.75508 41.516085,229.19942 C 37.791138,230.52341 33.14535,230.71846 29.909836,228.22179 C 27.296545,226.48844 26.16424,223.2211 26.928586,220.33909 C 27.528334,217.49641 30.482682,215.07785 33.641085,215.48617 C 35.918421,215.74553 38.282178,217.84604 37.428585,220.12771 C 36.957816,222.28028 34.632312,220.96084 34.334835,219.45834 C 33.186159,219.08218 31.94673,221.59328 33.097335,222.61142 C 34.225062,224.48459 37.141602,224.27115 38.647335,222.9461 C 40.663032,221.22775 40.845333,218.16543 39.322335,216.10269 C 37.914693,213.90691 35.154672,212.80295 32.48796,212.92318 z M 209.89108,212.92318 C 207.22437,212.80295 204.46435,213.90691 203.05671,216.10269 C 201.53371,218.16543 201.71601,221.22775 203.73171,222.9461 C 205.23744,224.27115 208.15398,224.48459 209.28171,222.61142 C 210.43231,221.59328 209.19289,219.08218 208.04421,219.45834 C 207.74674,220.96084 205.42123,222.28028 204.95046,220.12771 C 204.09686,217.84604 206.46062,215.74553 208.73796,215.48617 C 211.89636,215.07785 214.85071,217.49641 215.45046,220.33909 C 216.21481,223.2211 215.0825,226.48844 212.46921,228.22179 C 209.23369,230.71846 204.58791,230.52341 200.86296,229.19942 C 192.35008,226.75508 183.85676,224.2142 175.38171,221.65141 C 167.04956,219.13036 158.67218,216.74286 150.23796,214.54376 C 146.60576,213.45067 142.49885,212.45445 138.83796,213.9977 C 134.11893,215.53233 130.70754,220.17553 131.25358,224.90136 C 131.61169,229.45213 136.24216,233.65061 141.22859,232.97783 C 144.40677,232.68174 147.25294,230.23858 147.58483,227.21774 C 147.87217,224.80362 146.03086,222.05664 143.27233,221.98609 C 141.43678,221.75151 139.62025,223.36406 139.96296,225.10394 C 140.2253,226.19048 142.2052,227.31686 142.18483,225.56193 C 143.25578,223.42365 145.3595,225.58603 144.81921,227.18251 C 144.33922,229.8595 140.75315,231.23516 138.23796,230.13301 C 134.64901,228.94268 133.23632,224.7663 134.30046,221.54572 C 135.35888,218.19462 139.00457,215.99298 142.62546,215.82085 C 144.95998,215.61495 147.23517,216.25821 149.41296,216.95701 C 162.29829,220.35675 175.05832,224.14938 187.77546,228.06325 C 193.43801,229.71154 199.09024,231.42459 204.86608,232.68718 C 211.0967,233.50508 217.89174,229.05736 218.38483,222.99895 C 218.94184,218.60112 215.71422,213.95336 211.02546,213.04649 C 210.65272,212.97873 210.27204,212.94037 209.89108,212.92318 z M 121.10984,216.29646 C 117.15775,216.29646 113.92858,219.32134 113.92858,223.03418 C 113.92858,226.74703 117.15775,229.78072 121.10984,229.78071 C 125.06193,229.78071 128.28171,226.74704 128.28171,223.03418 C 128.28171,219.32133 125.06193,216.29645 121.10984,216.29646 z M 121.10984,218.00511 C 124.07806,218.00511 126.46296,220.24565 126.46296,223.03418 C 126.46296,225.82272 124.07806,228.07207 121.10984,228.07206 C 118.14162,228.07206 115.74733,225.82272 115.74733,223.03418 C 115.74733,220.24564 118.14162,218.00511 121.10984,218.00511 z"
       id="path6746" />
    <path
       style="fill:#000000;fill-opacity:0.09411771;fill-rule:evenodd;stroke:none;stroke-width:2;stroke-linecap:butt;stroke-linejoin:miter;stroke-miterlimit:4;stroke-opacity:1"
       d="M 102.8262,21.347104 C 102.22172,21.28772 101.60263,21.298236 100.97932,21.382334 C 97.801143,21.678412 94.954962,24.130393 94.623072,27.151236 C 94.335729,29.565349 96.177045,32.312326 98.935572,32.382882 C 100.77112,32.617474 102.58766,30.996102 102.24495,29.256225 C 101.9826,28.169675 100.00271,27.0433 100.02307,28.798236 C 98.952132,30.936524 96.848409,28.782946 97.388697,27.186466 C 97.868685,24.509476 101.45475,23.124998 103.96995,24.227151 C 107.55891,25.417484 108.97159,29.593869 107.90745,32.814449 C 106.84904,36.165549 103.20333,38.375993 99.582447,38.548121 C 97.247928,38.754025 94.972737,38.10195 92.794947,37.403148 C 79.909611,34.003411 67.149582,30.219595 54.432447,26.305718 C 48.769899,24.65743 43.117665,22.944376 37.341822,21.681788 C 31.111212,20.863884 24.31617,25.302806 23.823072,31.361214 C 23.266077,35.759035 26.49369,40.406799 31.182447,41.313671 C 34.164378,41.855777 37.551837,40.766937 39.160572,38.257474 C 40.68357,36.194725 40.491894,33.132412 38.476197,31.414059 C 36.970467,30.089004 34.053924,29.875573 32.926197,31.748743 C 31.775595,32.766886 33.015021,35.277991 34.163697,34.901823 C 34.461174,33.399331 36.786678,32.079876 37.257447,34.232454 C 38.111043,36.514122 35.747283,38.623449 33.469947,38.882806 C 30.311547,39.291132 27.357195,36.872563 26.757447,34.029882 C 25.993101,31.147867 27.125406,27.871725 29.738697,26.138376 C 32.974212,23.641703 37.62,23.836747 41.344947,25.160745 C 49.857816,27.605088 58.351143,30.145961 66.826197,32.708759 C 75.158355,35.229802 83.535726,37.617298 91.969947,39.816399 C 95.602143,40.909494 99.709059,41.905714 103.36995,40.362463 C 108.08898,38.827824 111.50037,34.184626 110.95432,29.458797 C 110.64099,25.476879 107.05752,21.762777 102.8262,21.347104 z M 139.25745,21.479216 C 135.02612,21.89489 131.44266,25.608991 131.12932,29.590909 C 130.58328,34.316738 133.99466,38.95994 138.7137,40.494575 C 142.37458,42.037826 146.4815,41.041606 150.1137,39.948511 C 158.54792,37.749411 166.9253,35.361914 175.25745,32.840871 C 183.7325,30.278074 192.22582,27.7372 200.7387,25.292857 C 204.46364,23.96886 209.10943,23.773815 212.34495,26.270488 C 214.95824,28.003837 216.09054,31.271169 215.3262,34.153186 C 214.72645,36.995868 211.7721,39.423244 208.6137,39.014918 C 206.33636,38.755561 203.9726,36.646234 204.8262,34.364566 C 205.29697,32.211989 207.62248,33.531443 207.91995,35.033935 C 209.06862,35.410103 210.30804,32.898998 209.15745,31.880855 C 208.02972,30.007685 205.11318,30.221117 203.60745,31.546171 C 201.59175,33.264524 201.40944,36.326834 202.93245,38.389587 C 204.54118,40.899049 207.91927,41.987889 210.9012,41.445784 C 215.58995,40.538914 218.81757,35.891147 218.26057,31.493326 C 217.76747,25.434918 210.97243,20.987192 204.74182,21.805093 C 198.96598,23.06768 193.31375,24.789542 187.6512,26.43783 C 174.93406,30.351707 162.17403,34.135521 149.2887,37.535261 C 147.11091,38.234062 144.83572,38.88614 142.5012,38.680234 C 138.88031,38.508106 135.23461,36.297661 134.1762,32.946561 C 133.11205,29.725981 134.52474,25.549596 138.1137,24.359264 C 140.62889,23.25711 144.21495,24.641588 144.69495,27.318578 C 145.23523,28.915058 143.13152,31.068636 142.06057,28.930348 C 142.08094,27.175412 140.10103,28.301787 139.8387,29.388337 C 139.49598,31.128214 141.31252,32.749586 143.14807,32.514994 C 145.9066,32.444439 147.74791,29.688654 147.46057,27.274541 C 147.12868,24.253698 144.2825,21.810521 141.10432,21.514446 C 140.48102,21.430348 139.86192,21.419832 139.25745,21.479216 z M 120.9387,24.579451 C 116.98661,24.579448 113.75745,27.613132 113.75745,31.325984 C 113.75744,35.038833 116.98661,38.072517 120.9387,38.072517 C 124.89079,38.072517 128.11057,35.038833 128.11057,31.325984 C 128.11058,27.613132 124.89079,24.579451 120.9387,24.579451 z M 120.9387,26.288103 C 123.90692,26.288103 126.3012,28.537444 126.3012,31.325984 C 126.3012,34.114521 123.90692,36.363865 120.9387,36.363865 C 117.97048,36.363862 115.5762,34.114521 115.5762,31.325984 C 115.5762,28.537444 117.97048,26.288103 120.9387,26.288103 z M 14.410572,35.333389 C 10.072713,35.663542 6.1086507,38.597063 4.6793217,42.476257 C 3.0366297,45.915533 4.0970427,49.773837 5.2605717,53.186158 C 7.6013727,61.109813 10.142709,68.980063 12.826197,76.807831 C 15.55413,84.769848 18.258726,92.749032 20.860572,100.74658 C 22.269882,104.24603 22.477494,108.6106 19.819947,111.65025 C 17.974908,114.10534 14.497038,115.1691 11.429322,114.45103 C 8.4034707,113.88758 5.8196847,111.11207 6.2543217,108.14487 C 6.5303907,106.00539 8.7756327,103.78472 11.204322,104.58664 C 13.495602,105.02891 12.091128,107.20483 10.491822,107.4843 C 10.091415,108.56345 12.764322,109.73665 13.848072,108.6557 C 15.841941,107.59624 15.614757,104.85625 14.204322,103.44167 C 12.375246,101.54799 9.1156107,101.36792 6.9199467,102.79872 C 4.2487857,104.31007 3.0897837,107.49247 3.6668217,110.29389 C 4.6321287,114.69881 9.5793747,117.73105 14.260572,117.20776 C 20.709357,116.74451 25.443675,110.36081 24.573072,104.50737 C 23.229129,99.081171 21.396318,93.771094 19.641822,88.451326 C 15.475752,76.504022 11.448123,64.516419 7.8293217,52.411099 C 7.0854927,50.365142 6.3913977,48.227685 6.6105717,46.03448 C 6.7937907,42.632785 9.1466667,39.207775 12.713697,38.213437 C 16.141797,37.21371 20.58729,38.540878 21.854322,41.912578 C 23.027493,44.275514 21.553803,47.644497 18.704322,48.095432 C 17.004972,48.603013 14.712627,46.626645 16.988697,45.620529 C 18.856713,45.639663 17.65776,43.779615 16.501197,43.533155 C 14.64921,43.211187 12.923364,44.917765 13.173072,46.642197 C 13.248174,49.233739 16.181529,50.963586 18.751197,50.69364 C 21.96669,50.381841 24.567291,47.707953 24.882447,44.722165 C 25.59858,40.037595 21.129567,35.687428 16.285572,35.351004 C 15.656778,35.28688 15.030264,35.286224 14.410572,35.333389 z M 227.67307,35.456694 C 227.05338,35.409528 226.42686,35.418993 225.79807,35.483117 C 220.95407,35.81954 216.48506,40.16971 217.2012,44.854277 C 217.51634,47.840065 220.11695,50.505145 223.33245,50.816944 C 225.90212,51.08689 228.83547,49.357044 228.91057,46.765502 C 229.16028,45.041069 227.43443,43.334492 225.58245,43.656459 C 224.42587,43.902923 223.22693,45.762965 225.09495,45.743833 C 227.37101,46.749944 225.07867,48.735126 223.37932,48.227544 C 220.52984,47.776604 219.05615,44.407629 220.22932,42.044691 C 221.49636,38.672993 225.94185,37.337015 229.36995,38.336742 C 232.93698,39.33108 235.28985,42.764897 235.47307,46.166593 C 235.69224,48.359797 234.99815,50.488446 234.25432,52.534404 C 230.63553,64.639724 226.60789,76.636135 222.44182,88.583438 C 220.68732,93.903207 218.85451,99.213286 217.51057,104.63949 C 216.63997,110.49293 221.37429,116.87663 227.82307,117.33988 C 232.50427,117.86315 237.45151,114.82211 238.41682,110.4172 C 238.99387,107.61578 237.83486,104.44218 235.1637,102.93083 C 232.96802,101.50003 229.7084,101.6801 227.87932,103.57378 C 226.46888,104.98837 226.2417,107.72835 228.23557,108.78781 C 229.31932,109.86876 231.99223,108.69555 231.59182,107.61642 C 229.99251,107.33695 228.58804,105.15222 230.87932,104.70995 C 233.30801,103.90803 235.55325,106.12869 235.82932,108.26817 C 236.26396,111.23537 233.68017,114.01969 230.65432,114.58313 C 227.58661,115.30121 224.10874,114.23745 222.2637,111.78235 C 219.60614,108.7427 219.81376,104.36934 221.22307,100.86988 C 223.82491,92.872334 226.52951,84.90196 229.25745,76.939944 C 231.94093,69.112173 234.48227,61.241926 236.82307,53.31827 C 237.98661,49.905952 239.04701,46.047642 237.40432,42.608369 C 235.97498,38.729175 232.01093,35.786847 227.67307,35.456694 z M 14.185572,120.08782 C 10.233486,120.08782 7.0043217,123.11269 7.0043217,126.82554 C 7.0043217,130.53839 10.233489,133.57207 14.185572,133.57207 C 18.137661,133.57207 21.357447,130.53839 21.357447,126.82554 C 21.357447,123.11269 18.137664,120.08782 14.185572,120.08782 z M 227.89807,120.21112 C 223.94598,120.21112 220.72619,123.24479 220.7262,126.95765 C 220.7262,130.6705 223.94598,133.69537 227.89807,133.69537 C 231.85015,133.69537 235.07932,130.67049 235.07932,126.95765 C 235.07932,123.24479 231.85015,120.21112 227.89807,120.21112 z M 14.185572,121.79647 C 17.153793,121.79647 19.538697,124.037 19.538697,126.82554 C 19.538697,129.61408 17.153796,131.86342 14.185572,131.86342 C 11.217354,131.86342 8.8230717,129.61408 8.8230717,126.82554 C 8.8230717,124.037 11.217357,121.79647 14.185572,121.79647 z M 227.89807,121.91977 C 230.86629,121.91977 233.26057,124.16911 233.26057,126.95765 C 233.26057,129.74618 230.86629,131.98672 227.89807,131.98672 C 224.92985,131.98672 222.54494,129.74618 222.54495,126.95765 C 222.54495,124.16912 224.92985,121.91977 227.89807,121.91977 z M 12.244947,136.32882 C 8.1490017,136.6192 4.2583407,139.42361 3.4136967,143.27792 C 2.8366588,146.07934 3.9956607,149.25293 6.6668217,150.76428 C 8.8624857,152.19509 12.122121,152.01501 13.951197,150.12134 C 15.361632,148.70675 15.588816,145.96676 13.594947,144.90731 C 12.5112,143.82636 9.8382897,144.99956 10.238697,146.0787 C 11.838003,146.35817 13.242477,148.5429 10.951197,148.98517 C 8.5225077,149.7871 6.2772657,147.56643 6.0011967,145.42694 C 5.5665597,142.45974 8.1503457,139.67542 11.176197,139.11198 C 14.243916,138.3939 17.721783,139.46647 19.566822,141.92157 C 22.224369,144.96122 22.016757,149.32578 20.607447,152.82523 C 18.005601,160.82277 15.301005,168.79315 12.573072,176.75517 C 9.8895837,184.58293 7.3482477,192.45319 5.0074467,200.37685 C 3.8439177,203.78917 2.7835048,207.64747 4.4261967,211.08675 C 6.0597177,215.52011 11.002107,218.72499 16.032447,218.212 C 20.876442,217.87558 25.345455,213.5254 24.629322,208.84083 C 24.314166,205.85503 21.713565,203.18997 18.498072,202.87817 C 15.928404,202.60822 12.995049,204.33807 12.919947,206.92961 C 12.670236,208.65405 14.396085,210.36062 16.248072,210.03865 C 17.404635,209.79219 18.603588,207.93214 16.735572,207.95128 C 14.459502,206.94516 16.751847,204.95999 18.451197,205.46757 C 21.300681,205.9185 22.774368,209.2963 21.601197,211.65923 C 20.334165,215.03092 15.888672,216.35809 12.460572,215.35837 C 8.8935387,214.36403 6.5406657,210.93021 6.3574467,207.52852 C 6.1382727,205.33532 6.8323677,203.20666 7.5761967,201.16071 C 11.194998,189.0554 15.222627,177.05898 19.388697,165.11168 C 21.143193,159.79191 22.976004,154.48183 24.319947,149.05563 C 25.19055,143.20219 20.456232,136.81849 14.007447,136.35524 C 13.422297,136.28983 12.830082,136.28733 12.244947,136.32882 z M 229.28557,136.32882 C 228.70044,136.28733 228.10822,136.28983 227.52307,136.35524 C 221.07429,136.81849 216.33997,143.20219 217.21057,149.05563 C 218.55451,154.48183 220.38732,159.79191 222.14182,165.11168 C 226.30789,177.05898 230.33553,189.0554 233.95432,201.16071 C 234.69815,203.20666 235.39224,205.33532 235.17307,207.52852 C 234.98985,210.93021 232.63698,214.36403 229.06995,215.35837 C 225.64185,216.35809 221.19636,215.03092 219.92932,211.65923 C 218.75615,209.2963 220.22984,205.9185 223.07932,205.46757 C 224.77867,204.95999 227.07101,206.94516 224.79495,207.95128 C 222.92693,207.93214 224.12587,209.79219 225.28245,210.03865 C 227.13443,210.36062 228.86028,208.65405 228.61057,206.92961 C 228.53547,204.33807 225.60211,202.60822 223.03245,202.87817 C 219.81695,203.18997 217.21634,205.85503 216.9012,208.84083 C 216.18506,213.5254 220.65407,217.87558 225.49807,218.212 C 230.52841,218.72499 235.47079,215.52011 237.10432,211.08675 C 238.74701,207.64747 237.68661,203.78917 236.52307,200.37685 C 234.18227,192.45319 231.64093,184.58293 228.95745,176.75517 C 226.22951,168.79315 223.52491,160.82277 220.92307,152.82523 C 219.51376,149.32578 219.30614,144.96122 221.9637,141.92157 C 223.80874,139.46647 227.28661,138.3939 230.35432,139.11198 C 233.38017,139.67542 235.96396,142.45974 235.52932,145.42694 C 235.25325,147.56643 233.00801,149.7871 230.57932,148.98517 C 228.28804,148.5429 229.69251,146.35817 231.29182,146.0787 C 231.69223,144.99956 229.01932,143.82636 227.93557,144.90731 C 225.9417,145.96676 226.16888,148.70675 227.57932,150.12134 C 229.4084,152.01501 232.66802,152.19509 234.8637,150.76428 C 237.53486,149.25293 238.69387,146.07934 238.11682,143.27792 C 237.27218,139.42361 233.38152,136.6192 229.28557,136.32882 z M 32.063697,212.12603 C 31.682739,212.1432 31.302063,212.18157 30.929322,212.24933 C 26.240565,213.1562 23.012952,217.80397 23.569947,222.20179 C 24.063045,228.26019 30.858084,232.70792 37.088697,231.89002 C 42.86454,230.62743 48.516771,228.91437 54.179322,227.26609 C 66.896457,223.35221 79.656489,219.55958 92.541822,216.15986 C 94.719612,215.46106 96.994797,214.81778 99.329322,215.02369 C 102.95021,215.19582 106.59591,217.39745 107.65432,220.74855 C 108.71846,223.96913 107.30578,228.14551 103.71682,229.33585 C 101.20163,230.43801 97.615563,229.06234 97.135572,226.38534 C 96.595284,224.78886 98.69901,222.62649 99.769947,224.76477 C 99.74958,226.5197 101.72948,225.39332 101.99182,224.30678 C 102.33454,222.5669 100.51799,220.95434 98.682447,221.18893 C 95.92392,221.25948 94.082607,224.00647 94.369947,226.42057 C 94.701837,229.44142 97.548021,231.88459 100.7262,232.18067 C 105.71262,232.85346 110.34309,228.65498 110.7012,224.10421 C 111.24724,219.37838 107.83585,214.73517 103.11682,213.20054 C 99.455934,211.65729 95.349021,212.6535 91.716822,213.74661 C 83.282601,215.94571 74.895852,218.33321 66.563697,220.85424 C 58.088643,223.41704 49.604694,225.95792 41.091822,228.40226 C 37.366875,229.72626 32.721087,229.9213 29.485572,227.42463 C 26.872281,225.69127 25.739976,222.42394 26.504322,219.54193 C 27.10407,216.69925 30.058419,214.28068 33.216822,214.689 C 35.494158,214.94836 37.857915,217.04888 37.004322,219.33055 C 36.533553,221.48313 34.208049,220.16368 33.910572,218.66118 C 32.761896,218.28501 31.522467,220.79612 32.673072,221.81426 C 33.800799,223.68743 36.717339,223.47399 38.223072,222.14895 C 40.238769,220.43059 40.42107,217.36827 38.898072,215.30553 C 37.49043,213.10975 34.730409,212.00579 32.063697,212.12603 z M 209.46682,212.12603 C 206.80011,212.00579 204.04009,213.10975 202.63245,215.30553 C 201.10944,217.36827 201.29175,220.43059 203.30745,222.14895 C 204.81318,223.47399 207.72972,223.68743 208.85745,221.81426 C 210.00804,220.79612 208.76862,218.28501 207.61995,218.66118 C 207.32248,220.16368 204.99697,221.48313 204.5262,219.33055 C 203.6726,217.04888 206.03636,214.94836 208.3137,214.689 C 211.4721,214.28068 214.42645,216.69925 215.0262,219.54193 C 215.79054,222.42394 214.65824,225.69127 212.04495,227.42463 C 208.80943,229.9213 204.16364,229.72626 200.4387,228.40226 C 191.92582,225.95792 183.4325,223.41704 174.95745,220.85424 C 166.6253,218.33321 158.24792,215.94571 149.8137,213.74661 C 146.1815,212.6535 142.07458,211.65729 138.4137,213.20054 C 133.69466,214.73517 130.28328,219.37838 130.82932,224.10421 C 131.18742,228.65498 135.8179,232.85346 140.80432,232.18067 C 143.9825,231.88459 146.82868,229.44142 147.16057,226.42057 C 147.44791,224.00647 145.6066,221.25948 142.84807,221.18893 C 141.01252,220.95434 139.19598,222.5669 139.5387,224.30678 C 139.80103,225.39332 141.78094,226.5197 141.76057,224.76477 C 142.83152,222.62649 144.93524,224.78886 144.39495,226.38534 C 143.91495,229.06234 140.32889,230.43801 137.8137,229.33585 C 134.22474,228.14551 132.81205,223.96913 133.8762,220.74855 C 134.93461,217.39745 138.58031,215.19582 142.2012,215.02369 C 144.53572,214.81778 146.81091,215.46106 148.9887,216.15986 C 161.87403,219.55958 174.63406,223.35221 187.3512,227.26609 C 193.01375,228.91437 198.66598,230.62743 204.44182,231.89002 C 210.67243,232.70792 217.46747,228.26019 217.96057,222.20179 C 218.51757,217.80397 215.28995,213.1562 210.6012,212.24933 C 210.22846,212.18157 209.84778,212.1432 209.46682,212.12603 z M 120.68557,215.49929 C 116.73349,215.49929 113.50432,218.52417 113.50432,222.23702 C 113.50432,225.94987 116.73349,228.98355 120.68557,228.98355 C 124.63766,228.98355 127.85744,225.94987 127.85745,222.23702 C 127.85745,218.52416 124.63767,215.49928 120.68557,215.49929 z M 120.68557,217.20794 C 123.6538,217.20794 126.03869,219.44848 126.0387,222.23702 C 126.0387,225.02556 123.6538,227.2749 120.68557,227.2749 C 117.71736,227.2749 115.32307,225.02556 115.32307,222.23702 C 115.32307,219.44848 117.71736,217.20795 120.68557,217.20794 z"
       id="path6744" />
    <path
       style="fill:#000000;fill-opacity:0.09411771;fill-rule:evenodd;stroke:none;stroke-width:2;stroke-linecap:butt;stroke-linejoin:miter;stroke-miterlimit:4;stroke-opacity:1"
       d="M 101.97796,21.344589 C 101.37348,21.285206 100.75438,21.295721 100.13108,21.379818 C 96.952902,21.675897 94.106721,24.127877 93.774831,27.148721 C 93.487488,29.562835 95.328804,32.309811 98.087331,32.380367 C 99.922875,32.614958 101.73942,30.993586 101.39671,29.25371 C 101.13436,28.167159 99.154464,27.040785 99.174831,28.795721 C 98.103891,30.934009 96.000168,28.78043 96.540456,27.18395 C 97.020444,24.50696 100.60651,23.122483 103.12171,24.224636 C 106.71067,25.414968 108.12335,29.591353 107.05921,32.811933 C 106.00079,36.163034 102.35509,38.373478 98.734206,38.545606 C 96.399687,38.751512 94.124496,38.099434 91.946706,37.400633 C 79.06137,34.000896 66.301341,30.217079 53.584206,26.303202 C 47.921658,24.654915 42.269424,22.94186 36.493581,21.679273 C 30.262971,20.861372 23.467928,25.300291 22.974829,31.358698 C 22.417834,35.75652 25.645447,40.404284 30.334206,41.311156 C 33.316137,41.853263 36.703596,40.764422 38.312331,38.254958 C 39.835329,36.192209 39.643653,33.129896 37.627956,31.411544 C 36.122226,30.086489 33.205683,29.873058 32.077956,31.746228 C 30.927354,32.76437 32.16678,35.275475 33.315456,34.899308 C 33.612933,33.396815 35.938437,32.077361 36.409206,34.229939 C 37.262802,36.511607 34.899042,38.620933 32.621706,38.880291 C 29.463304,39.288616 26.508952,36.870047 25.909204,34.027366 C 25.144858,31.145352 26.277164,27.86921 28.890454,26.135861 C 32.125971,23.639187 36.771759,23.834231 40.496706,25.158229 C 49.009575,27.602572 57.502902,30.143446 65.977956,32.706243 C 74.310114,35.227286 82.687485,37.614783 91.121706,39.813883 C 94.753902,40.90698 98.860818,41.9032 102.52171,40.359948 C 107.24074,38.825311 110.65213,34.18211 110.10608,29.456282 C 109.79275,25.474364 106.20928,21.760264 101.97796,21.344589 z M 138.40921,21.476701 C 134.17788,21.892377 130.59442,25.606476 130.28108,29.588395 C 129.73504,34.314222 133.14642,38.957425 137.86546,40.49206 C 141.52634,42.035312 145.63326,41.039092 149.26546,39.945995 C 157.69968,37.746895 166.07706,35.359399 174.40921,32.838355 C 182.88426,30.275558 191.37758,27.734684 199.89046,25.290341 C 203.6154,23.966344 208.26119,23.771299 211.49671,26.267973 C 214.11,28.001322 215.2423,31.268656 214.47796,34.150672 C 213.87821,36.993352 210.92386,39.420729 207.76546,39.012403 C 205.48812,38.753045 203.12436,36.64372 203.97796,34.362051 C 204.44872,32.209473 206.77424,33.528928 207.07171,35.03142 C 208.22038,35.407587 209.4598,32.896482 208.30921,31.878341 C 207.18148,30.00517 204.26494,30.218601 202.75921,31.543656 C 200.74351,33.262008 200.5612,36.324321 202.08421,38.387071 C 203.69294,40.896536 207.07102,41.985375 210.05296,41.443268 C 214.74171,40.536398 217.96933,35.888632 217.41233,31.49081 C 216.91923,25.432403 210.12419,20.984677 203.89358,21.802578 C 198.11774,23.065165 192.46551,24.787027 186.80296,26.435314 C 174.08582,30.349191 161.32579,34.133008 148.44046,37.532746 C 146.26267,38.231546 143.98748,38.883625 141.65296,38.677719 C 138.03207,38.505591 134.38637,36.295146 133.32796,32.944045 C 132.26381,29.723465 133.6765,25.54708 137.26546,24.356749 C 139.78065,23.254595 143.36671,24.639072 143.84671,27.316063 C 144.38699,28.912542 142.28328,31.066121 141.21233,28.927833 C 141.2327,27.172898 139.25279,28.299271 138.99046,29.385822 C 138.64774,31.125698 140.46428,32.74707 142.29983,32.512479 C 145.05836,32.441923 146.89967,29.686138 146.61233,27.272025 C 146.28044,24.251182 143.43426,21.808009 140.25608,21.511931 C 139.63278,21.427833 139.01368,21.417319 138.40921,21.476701 z M 120.09046,24.576936 C 116.13837,24.576935 112.90921,27.610619 112.90921,31.323469 C 112.9092,35.036318 116.13837,38.070002 120.09046,38.070002 C 124.04255,38.070002 127.26233,35.036318 127.26233,31.323469 C 127.26233,27.610619 124.04255,24.576937 120.09046,24.576936 z M 120.09046,26.285588 C 123.05868,26.285588 125.45296,28.534929 125.45296,31.323469 C 125.45296,34.112008 123.05868,36.361349 120.09046,36.361349 C 117.12224,36.361349 114.72796,34.112008 114.72796,31.323469 C 114.72796,28.534929 117.12224,26.285588 120.09046,26.285588 z M 13.56233,35.330874 C 9.2244717,35.661027 5.26041,38.594549 3.8310795,42.473745 C 2.1883873,45.913022 3.2488011,49.771323 4.4123295,53.183647 C 6.7531305,61.107302 9.2944665,68.977552 11.977955,76.80532 C 14.705887,84.767337 17.410484,92.74652 20.012329,100.74406 C 21.42164,104.24352 21.629251,108.60808 18.971705,111.64773 C 17.126665,114.10282 13.648798,115.16658 10.581079,114.44851 C 7.5552285,113.88506 4.9714425,111.10956 5.4060795,108.14235 C 5.6821485,106.00287 7.9273908,103.78221 10.356079,104.58413 C 12.64736,105.0264 11.242886,107.20232 9.6435795,107.48179 C 9.2431725,108.56093 11.916082,109.73414 12.99983,108.65318 C 14.993698,107.59372 14.766516,104.85373 13.356079,103.43915 C 11.527003,101.54548 8.2673691,101.3654 6.0717045,102.79621 C 3.4005435,104.30756 2.2415413,107.48995 2.8185796,110.29138 C 3.7838865,114.6963 8.7311331,117.72853 13.41233,117.20526 C 19.861114,116.74201 24.595432,110.3583 23.724829,104.50486 C 22.380886,99.078657 20.548076,93.768583 18.793579,88.448815 C 14.627509,76.501511 10.599881,64.513908 6.9810795,52.408588 C 6.2372505,50.36263 5.5431558,48.225174 5.7623295,46.031969 C 5.9455485,42.630273 8.2984251,39.205262 11.865455,38.210921 C 15.293554,37.211196 19.739047,38.538365 21.006079,41.910064 C 22.17925,44.273003 20.705563,47.641983 17.856079,48.092921 C 16.156729,48.600502 13.864384,46.624131 16.140455,45.618017 C 18.008471,45.637151 16.809517,43.777101 15.652954,43.530644 C 13.800968,43.208676 12.075122,44.915253 12.324829,46.639686 C 12.399932,49.231228 15.333286,50.961072 17.902954,50.691128 C 21.118447,50.379329 23.719048,47.705442 24.034204,44.719654 C 24.750338,40.035082 20.281325,35.684913 15.43733,35.348488 C 14.808537,35.284365 14.182024,35.28371 13.56233,35.330874 z M 226.82483,35.454178 C 226.20514,35.407014 225.57862,35.416478 224.94983,35.480601 C 220.10583,35.817025 215.63682,40.167195 216.35296,44.851766 C 216.6681,47.837554 219.26871,50.502634 222.48421,50.814433 C 225.05387,51.084376 227.98723,49.354533 228.06233,46.76299 C 228.31204,45.038555 226.58619,43.33198 224.73421,43.653948 C 223.57763,43.900408 222.37869,45.760453 224.24671,45.741322 C 226.52277,46.747433 224.23043,48.732614 222.53108,48.225033 C 219.68159,47.77409 218.20791,44.405118 219.38108,42.042177 C 220.64812,38.670478 225.09361,37.334501 228.52171,38.334227 C 232.08874,39.328566 234.44161,42.762386 234.62483,46.164081 C 234.844,48.357283 234.14991,50.485935 233.40608,52.531893 C 229.78729,64.637212 225.75965,76.633623 221.59358,88.580927 C 219.83908,93.900696 218.00627,99.210772 216.66233,104.63697 C 215.79173,110.49041 220.52605,116.87411 226.97483,117.33736 C 231.65603,117.86065 236.60327,114.81961 237.56858,110.41468 C 238.14562,107.61326 236.98662,104.43967 234.31546,102.92832 C 232.11978,101.49751 228.86016,101.67759 227.03108,103.57127 C 225.62064,104.98585 225.39346,107.72584 227.38733,108.7853 C 228.47108,109.86624 231.14399,108.69304 230.74358,107.6139 C 229.14427,107.33443 227.7398,105.1497 230.03108,104.70743 C 232.45977,103.90552 234.70501,106.12617 234.98108,108.26565 C 235.41572,111.23286 232.83193,114.01718 229.80608,114.58063 C 226.73837,115.29871 223.26049,114.23493 221.41546,111.77984 C 218.7579,108.74019 218.96552,104.36683 220.37483,100.86737 C 222.97667,92.869822 225.68127,84.899449 228.40921,76.937432 C 231.09269,69.109661 233.63403,61.239414 235.97483,53.315759 C 237.13837,49.903438 238.19877,46.045131 236.55608,42.605858 C 235.12674,38.72666 231.16269,35.784332 226.82483,35.454178 z M 13.33733,120.0853 C 9.3852456,120.0853 6.1560795,123.11018 6.1560795,126.82303 C 6.1560801,130.53587 9.3852465,133.56956 13.33733,133.56956 C 17.289421,133.56955 20.509204,130.53587 20.509204,126.82303 C 20.509204,123.11018 17.289421,120.0853 13.33733,120.0853 z M 227.04983,120.2086 C 223.09774,120.2086 219.87795,123.24229 219.87796,126.95514 C 219.87796,130.66799 223.09774,133.69287 227.04983,133.69287 C 231.00191,133.69287 234.23108,130.66799 234.23108,126.95514 C 234.23108,123.24229 231.00191,120.2086 227.04983,120.2086 z M 13.33733,121.79395 C 16.305553,121.79395 18.690455,124.03448 18.690455,126.82303 C 18.690455,129.61157 16.305553,131.86091 13.33733,131.86091 C 10.369114,131.86091 7.9748295,129.61157 7.9748295,126.82303 C 7.9748292,124.03448 10.369115,121.79395 13.33733,121.79395 z M 227.04983,121.91725 C 230.01805,121.91725 232.41233,124.1666 232.41233,126.95514 C 232.41233,129.74368 230.01805,131.98421 227.04983,131.98421 C 224.08161,131.98421 221.6967,129.74368 221.69671,126.95514 C 221.69671,124.1666 224.08161,121.91725 227.04983,121.91725 z M 11.396705,136.3263 C 7.3007604,136.61668 3.4100982,139.42109 2.5654546,143.27541 C 1.9884169,146.07682 3.1474185,149.25042 5.8185795,150.76177 C 8.0142435,152.19258 11.273878,152.0125 13.102955,150.11882 C 14.513389,148.70423 14.740573,145.96425 12.746704,144.90479 C 11.662957,143.82384 8.9900475,144.99705 9.3904545,146.07619 C 10.98976,146.35565 12.394234,148.54039 10.102955,148.98266 C 7.6742652,149.78458 5.4290235,147.56391 5.1529545,145.42444 C 4.7183181,142.45723 7.3021035,139.67291 10.327955,139.10946 C 13.395673,138.39138 16.87354,139.46395 18.71858,141.91906 C 21.376126,144.95871 21.168515,149.32326 19.759204,152.82272 C 17.157358,160.82027 14.452762,168.79064 11.72483,176.75265 C 9.0413421,184.58043 6.5000055,192.45067 4.1592045,200.37433 C 2.9956756,203.78665 1.9352623,207.64495 3.5779545,211.08423 C 5.2114758,215.5176 10.153864,218.72247 15.184204,218.20949 C 20.0282,217.87307 24.497212,213.52289 23.781079,208.83832 C 23.465923,205.85253 20.865322,203.18745 17.649829,202.87565 C 15.080162,202.60572 12.146807,204.33555 12.071705,206.9271 C 11.821996,208.65154 13.547842,210.35811 15.399829,210.03614 C 16.556393,209.78967 17.755346,207.92963 15.887329,207.94876 C 13.61126,206.94264 15.903604,204.95747 17.602954,205.46505 C 20.452438,205.91599 21.926126,209.29378 20.752954,211.65672 C 19.485923,215.02841 15.04043,216.35559 11.612329,215.35586 C 8.0452983,214.36152 5.6924235,210.9277 5.5092045,207.526 C 5.2900302,205.3328 5.9841255,203.20416 6.7279545,201.1582 C 10.346755,189.05288 14.374384,177.05647 18.540454,165.10916 C 20.294951,159.78939 22.127761,154.47932 23.471704,149.05312 C 24.342308,143.19968 19.607989,136.81597 13.159204,136.35273 C 12.574055,136.28731 11.981839,136.28481 11.396705,136.3263 z M 228.43733,136.3263 C 227.8522,136.28481 227.25998,136.28731 226.67483,136.35273 C 220.22605,136.81597 215.49173,143.19968 216.36233,149.05312 C 217.70627,154.47932 219.53908,159.78939 221.29358,165.10916 C 225.45965,177.05647 229.48729,189.05288 233.10608,201.1582 C 233.84991,203.20416 234.544,205.3328 234.32483,207.526 C 234.14161,210.9277 231.78874,214.36152 228.22171,215.35586 C 224.79361,216.35559 220.34812,215.02841 219.08108,211.65672 C 217.90791,209.29378 219.38159,205.91599 222.23108,205.46505 C 223.93043,204.95747 226.22277,206.94264 223.94671,207.94876 C 222.07869,207.92963 223.27763,209.78967 224.43421,210.03614 C 226.28619,210.35811 228.01204,208.65154 227.76233,206.9271 C 227.68723,204.33555 224.75387,202.60572 222.18421,202.87565 C 218.96871,203.18745 216.3681,205.85253 216.05296,208.83832 C 215.33682,213.52289 219.80583,217.87307 224.64983,218.20949 C 229.68017,218.72247 234.62255,215.5176 236.25608,211.08423 C 237.89877,207.64495 236.83837,203.78665 235.67483,200.37433 C 233.33403,192.45067 230.79269,184.58043 228.10921,176.75265 C 225.38127,168.79064 222.67667,160.82027 220.07483,152.82272 C 218.66552,149.32326 218.4579,144.95871 221.11546,141.91906 C 222.96049,139.46395 226.43837,138.39138 229.50608,139.10946 C 232.53193,139.67291 235.11571,142.45723 234.68108,145.42444 C 234.40501,147.56391 232.15977,149.78458 229.73108,148.98266 C 227.4398,148.54039 228.84427,146.35565 230.44358,146.07619 C 230.84399,144.99705 228.17108,143.82384 227.08733,144.90479 C 225.09346,145.96425 225.32064,148.70423 226.73108,150.11882 C 228.56016,152.0125 231.81978,152.19258 234.01546,150.76177 C 236.68662,149.25042 237.84562,146.07682 237.26858,143.27541 C 236.42394,139.42109 232.53328,136.61668 228.43733,136.3263 z M 31.215456,212.12351 C 30.834498,212.14069 30.453822,212.17905 30.081081,212.24682 C 25.392322,213.15369 22.164709,217.80145 22.721704,222.19927 C 23.214803,228.25769 30.009843,232.70541 36.240456,231.88751 C 42.016299,230.62492 47.66853,228.91185 53.331081,227.26358 C 66.048216,223.34971 78.808248,219.55708 91.693581,216.15734 C 93.871371,215.45854 96.146556,214.81528 98.481081,215.02118 C 102.10197,215.1933 105.74767,217.39493 106.80608,220.74604 C 107.87022,223.96662 106.45753,228.143 102.86858,229.33334 C 100.35339,230.43549 96.767322,229.05983 96.287331,226.38283 C 95.747043,224.78635 97.850769,222.62397 98.921706,224.76226 C 98.901339,226.51719 100.88124,225.39081 101.14358,224.30427 C 101.48629,222.56439 99.669753,220.95182 97.834206,221.18642 C 95.075679,221.25697 93.234366,224.00395 93.521706,226.41806 C 93.853596,229.4389 96.69978,231.88207 99.877956,232.17816 C 104.86438,232.85094 109.49485,228.65246 109.85296,224.10169 C 110.399,219.37586 106.98761,214.73265 102.26858,213.19802 C 98.607693,211.65477 94.50078,212.65099 90.868581,213.74409 C 82.43436,215.94319 74.047611,218.33069 65.715456,220.85173 C 57.240402,223.41453 48.756453,225.95541 40.243581,228.39974 C 36.518634,229.72374 31.872846,229.91879 28.637329,227.42212 C 26.024038,225.68877 24.891733,222.42143 25.656079,219.53941 C 26.255827,216.69673 29.210176,214.27817 32.368581,214.68649 C 34.645917,214.94584 37.009674,217.04636 36.156081,219.32803 C 35.685312,221.48061 33.359808,220.16117 33.062331,218.65867 C 31.913655,218.28249 30.674226,220.7936 31.824831,221.81174 C 32.952558,223.68492 35.869098,223.47148 37.374831,222.14643 C 39.390528,220.42807 39.572829,217.36575 38.049831,215.30302 C 36.642189,213.10723 33.882168,212.00327 31.215456,212.12351 z M 208.61858,212.12351 C 205.95187,212.00327 203.19185,213.10723 201.78421,215.30302 C 200.2612,217.36575 200.44351,220.42807 202.45921,222.14643 C 203.96494,223.47148 206.88148,223.68492 208.00921,221.81174 C 209.1598,220.7936 207.92038,218.28249 206.77171,218.65867 C 206.47424,220.16117 204.14873,221.48061 203.67796,219.32803 C 202.82436,217.04636 205.18812,214.94584 207.46546,214.68649 C 210.62386,214.27817 213.57821,216.69673 214.17796,219.53941 C 214.9423,222.42143 213.81,225.68877 211.19671,227.42212 C 207.96119,229.91879 203.3154,229.72374 199.59046,228.39974 C 191.07758,225.95541 182.58426,223.41453 174.10921,220.85173 C 165.77706,218.33069 157.39968,215.94319 148.96546,213.74409 C 145.33326,212.65099 141.22634,211.65477 137.56546,213.19802 C 132.84642,214.73265 129.43504,219.37586 129.98108,224.10169 C 130.33918,228.65246 134.96966,232.85094 139.95608,232.17816 C 143.13426,231.88207 145.98044,229.4389 146.31233,226.41806 C 146.59967,224.00395 144.75836,221.25697 141.99983,221.18642 C 140.16428,220.95182 138.34774,222.56439 138.69046,224.30427 C 138.95279,225.39081 140.9327,226.51719 140.91233,224.76226 C 141.98328,222.62397 144.08699,224.78635 143.54671,226.38283 C 143.06671,229.05983 139.48065,230.43549 136.96546,229.33334 C 133.3765,228.143 131.96381,223.96662 133.02796,220.74604 C 134.08637,217.39493 137.73207,215.1933 141.35296,215.02118 C 143.68748,214.81528 145.96267,215.45854 148.14046,216.15734 C 161.02579,219.55708 173.78582,223.34971 186.50296,227.26358 C 192.16551,228.91185 197.81774,230.62492 203.59358,231.88751 C 209.82419,232.70541 216.61923,228.25769 217.11233,222.19927 C 217.66933,217.80145 214.44171,213.15369 209.75296,212.24682 C 209.38021,212.17905 208.99954,212.14069 208.61858,212.12351 z M 119.83733,215.49678 C 115.88525,215.49678 112.65608,218.52166 112.65608,222.2345 C 112.65608,225.94735 115.88525,228.98105 119.83733,228.98104 C 123.78942,228.98104 127.0092,225.94736 127.00921,222.2345 C 127.00921,218.52165 123.78943,215.49677 119.83733,215.49678 z M 119.83733,217.20543 C 122.80555,217.20543 125.19045,219.44597 125.19046,222.2345 C 125.19046,225.02304 122.80556,227.27239 119.83733,227.27239 C 116.86912,227.27239 114.47483,225.02305 114.47483,222.2345 C 114.47483,219.44597 116.86912,217.20543 119.83733,217.20543 z"
       id="path5853" />
    <g
       transform="matrix(0.3,0,0,0.2818395,0,14.107622)"
       id="g5837">
      <path
         id="path1288"
         d="M 49.080811,70.727246 C 65.227461,71.920916 80.134441,87.349108 77.747331,103.97052 C 76.696811,114.56445 68.006511,124.03501 57.288201,125.14131 C 48.722641,126.09911 38.968971,119.96531 38.718631,110.77021 C 37.886271,104.65172 43.633311,98.59764 49.806601,99.74002 C 53.661811,100.61449 57.660451,107.21211 51.433731,107.14422 C 43.846831,110.71403 51.491511,117.74168 57.156011,115.94072 C 66.654291,114.34074 71.556841,102.37793 67.646271,93.99395 C 63.422831,82.030758 48.609711,77.320375 37.182711,80.867521 C 25.292611,84.395558 17.454481,96.56193 16.843751,108.63155 C 16.113171,116.4133 18.417151,123.97685 20.896581,131.23615 C 32.959251,174.18726 46.396381,216.73549 60.283281,259.12594 C 66.131601,278.00111 72.215171,296.84982 76.694981,316.10263 C 79.596991,336.87133 63.826191,359.51049 42.330241,361.15415 C 26.726251,363.0108 10.239331,352.24608 7.021641,336.61689 C 5.09818,326.67713 8.965471,315.40865 17.869341,310.0462 C 25.188221,304.96954 36.042931,305.59657 42.139851,312.31556 C 46.841301,317.33467 47.598551,327.05109 40.952321,330.81018 C 37.339831,334.64552 28.434061,330.5009 29.768751,326.67198 C 35.099771,325.68039 39.782171,317.93519 32.144571,316.36596 C 24.048941,313.52065 16.576911,321.40061 15.656681,328.99173 C 14.207891,339.51973 22.796251,349.38684 32.882421,351.386 C 43.108151,353.93382 54.708521,350.14536 60.858651,341.43439 C 69.717141,330.64934 69.030101,315.15244 64.332401,302.73595 C 55.659581,274.35972 46.641931,246.07542 37.548821,217.82524 C 28.603861,190.05138 20.138461,162.11982 12.335791,134.00575 C 8.457361,121.89843 4.92489,108.20719 10.400531,96.00423 C 15.845601,80.274122 32.313011,68.907095 49.080811,70.727246 z"
         style="fill:url(#linearGradient9126);fill-opacity:1;fill-rule:evenodd;stroke:url(#linearGradient9128);stroke-width:6.66666985;stroke-linecap:butt;stroke-linejoin:miter;stroke-miterlimit:4;stroke-opacity:1" />
      <path
         id="path4701"
         d="M 364.63494,49.820327 C 363.44127,33.673677 348.01308,18.766697 331.39167,21.153807 C 320.79774,22.204327 311.32718,30.894627 310.22088,41.612937 C 309.26308,50.178497 315.39689,59.932167 324.59198,60.182507 C 330.71047,61.014867 336.76454,55.267827 335.62216,49.094537 C 334.74769,45.239327 328.15008,41.240687 328.21797,47.467407 C 324.64816,55.054307 317.62052,47.409627 319.42148,41.745127 C 321.02145,32.246847 332.98426,27.344297 341.36824,31.254867 C 353.33143,35.478307 358.04181,50.291427 354.49467,61.718427 C 350.96663,73.608527 338.80026,81.446657 326.73064,82.057387 C 318.9489,82.787967 311.38534,80.483987 304.12604,78.004557 C 261.17493,65.941887 218.6267,52.504757 176.23625,38.617857 C 157.36108,32.769537 138.51237,26.685967 119.25956,22.206157 C 98.49086,19.304147 75.851696,35.074947 74.208036,56.570897 C 72.351386,72.174887 83.116106,88.66181 98.7453,91.8795 C 108.68506,93.80296 119.95354,89.93567 125.31599,81.031797 C 130.39265,73.712917 129.76562,62.858207 123.04663,56.761287 C 118.02752,52.059837 108.3111,51.302587 104.55201,57.948817 C 100.71667,61.561307 104.86129,70.467077 108.69021,69.132387 C 109.6818,63.801367 117.427,59.118967 118.99623,66.756567 C 121.84154,74.852197 113.96158,82.324227 106.37046,83.244457 C 95.84246,84.693247 85.975346,76.104887 83.976186,66.018717 C 81.428366,55.792987 85.216826,44.192617 93.927796,38.042487 C 104.71285,29.183997 120.20975,29.871037 132.62624,34.568737 C 161.00247,43.241557 189.28677,52.259207 217.53695,61.352317 C 245.31081,70.297277 273.24237,78.762677 301.35644,86.565347 C 313.46377,90.44378 327.155,93.97625 339.35796,88.50061 C 355.08807,83.055537 366.45509,66.588127 364.63494,49.820327 z"
         style="fill:url(#linearGradient9130);fill-opacity:1;fill-rule:evenodd;stroke:url(#linearGradient9132);stroke-width:6.66666985;stroke-linecap:butt;stroke-linejoin:miter;stroke-miterlimit:4;stroke-opacity:1" />
      <path
         id="path4709"
         d="M 397.92332,32.515523 C 384.74971,32.515523 374,43.265221 374,56.438854 C 374,69.612486 384.74971,80.362183 397.92332,80.362183 C 411.09696,80.362183 421.84667,69.612486 421.84667,56.438854 C 421.84667,43.265221 411.09696,32.515527 397.92332,32.515523 z M 397.92332,38.576858 C 407.8174,38.57686 415.78533,46.544786 415.78533,56.438854 C 415.78533,66.332922 407.8174,74.300849 397.92332,74.300849 C 388.02927,74.300849 380.06133,66.332922 380.06133,56.438854 C 380.06133,46.544786 388.02927,38.576858 397.92332,38.576858 z"
         style="fill:url(#linearGradient9134);fill-opacity:1;fill-rule:evenodd;stroke:url(#linearGradient9136);stroke-width:6.66665983;stroke-miterlimit:4;stroke-opacity:1" />
      <path
         id="path5503"
         d="M 42.07665,371.36218 C 28.90304,371.36218 18.15333,382.11188 18.15333,395.28551 C 18.15333,408.45914 28.90304,419.20884 42.07665,419.20884 C 55.25029,419.20884 66,408.45914 66,395.28551 C 66,382.11188 55.25029,371.36219 42.07665,371.36218 z M 42.07665,377.42352 C 51.97073,377.42352 59.93866,385.39144 59.93866,395.28551 C 59.93866,405.17958 51.97073,413.14751 42.07665,413.14751 C 32.1826,413.14751 24.21466,405.17958 24.21466,395.28551 C 24.21466,385.39144 32.1826,377.42352 42.07665,377.42352 z"
         style="fill:url(#linearGradient9138);fill-opacity:1;fill-rule:evenodd;stroke:url(#linearGradient9140);stroke-width:6.66665983;stroke-miterlimit:4;stroke-opacity:1" />
      <path
         id="path5517"
         d="M 747.45819,71.188291 C 731.31154,72.381961 716.40456,87.810153 718.79167,104.43156 C 719.84219,115.02549 728.53249,124.49606 739.2508,125.60236 C 747.81636,126.56016 757.57003,120.42636 757.82037,111.23126 C 758.65273,105.11276 752.90569,99.05868 746.7324,100.20106 C 742.87719,101.07554 738.87855,107.67315 745.10527,107.60527 C 752.69217,111.17507 745.04749,118.20273 739.38299,116.40177 C 729.88471,114.80178 724.98216,102.83898 728.89273,94.45499 C 733.11617,82.491803 747.92929,77.78142 759.35629,81.328566 C 771.24639,84.856603 779.08452,97.02298 779.69525,109.0926 C 780.42583,116.87435 778.12185,124.4379 775.64242,131.6972 C 763.57975,174.64831 750.14262,217.19654 736.25572,259.58699 C 730.4074,278.46215 724.32383,297.31087 719.84402,316.56367 C 716.94201,337.33238 732.71281,359.97154 754.20876,361.6152 C 769.81275,363.47185 786.29967,352.70713 789.51736,337.07794 C 791.44082,327.13817 787.57353,315.8697 778.66966,310.50725 C 771.35078,305.43059 760.49607,306.05761 754.39915,312.77661 C 749.6977,317.79572 748.94045,327.51214 755.58668,331.27123 C 759.19917,335.10656 768.10494,330.96195 766.77025,327.13303 C 761.43923,326.14144 756.75683,318.39623 764.39443,316.827 C 772.49006,313.9817 779.96209,321.86165 780.88232,329.45278 C 782.33111,339.98077 773.74275,349.84789 763.65658,351.84705 C 753.43085,354.39487 741.83048,350.6064 735.68035,341.89544 C 726.82186,331.11039 727.5089,315.61349 732.2066,303.197 C 740.87942,274.82076 749.89707,246.53647 758.99018,218.28629 C 767.93514,190.51243 776.40054,162.58087 784.20321,134.4668 C 788.08164,122.35948 791.61411,108.66823 786.13847,96.46528 C 780.6934,80.735167 764.22599,69.36814 747.45819,71.188291 z"
         style="fill:url(#linearGradient9142);fill-opacity:1;fill-rule:evenodd;stroke:url(#linearGradient9144);stroke-width:6.66666985;stroke-linecap:butt;stroke-linejoin:miter;stroke-miterlimit:4;stroke-opacity:1" />
      <path
         id="path5519"
         d="M 431.90406,50.281372 C 433.09773,34.134722 448.52592,19.227742 465.14733,21.614852 C 475.74126,22.665372 485.21182,31.355672 486.31812,42.073982 C 487.27592,50.639542 481.14211,60.393212 471.94702,60.643552 C 465.82853,61.475912 459.77446,55.728872 460.91684,49.555582 C 461.79131,45.700372 468.38892,41.701732 468.32103,47.928452 C 471.89084,55.515352 478.91848,47.870672 477.11752,42.206172 C 475.51755,32.707892 463.55474,27.805342 455.17076,31.715912 C 443.20757,35.939352 438.49719,50.752472 442.04433,62.179472 C 445.57237,74.069572 457.73874,81.907702 469.80836,82.518432 C 477.5901,83.249012 485.15366,80.945032 492.41296,78.465602 C 535.36407,66.402932 577.9123,52.965802 620.30275,39.078902 C 639.17792,33.230582 658.02663,27.147012 677.27944,22.667202 C 698.04814,19.765192 720.6873,35.535992 722.33096,57.031942 C 724.18761,72.635932 713.42289,89.12286 697.7937,92.34054 C 687.85394,94.264 676.58546,90.39672 671.22301,81.492842 C 666.14635,74.173962 666.77338,63.319252 673.49237,57.222332 C 678.51148,52.520882 688.2279,51.763632 691.98699,58.409862 C 695.82233,62.022352 691.67771,70.928122 687.84879,69.593432 C 686.8572,64.262412 679.112,59.580012 677.54277,67.217612 C 674.69746,75.313242 682.57742,82.785272 690.16854,83.705502 C 700.69654,85.154292 710.56365,76.565932 712.56281,66.479762 C 715.11063,56.254032 711.32217,44.653662 702.6112,38.503532 C 691.82615,29.645042 676.32925,30.332082 663.91276,35.029782 C 635.53653,43.702602 607.25223,52.720252 579.00205,61.813362 C 551.22819,70.758322 523.29663,79.223722 495.18256,87.026392 C 483.07523,90.90483 469.384,94.43729 457.18104,88.96165 C 441.45093,83.516582 430.08391,67.049172 431.90406,50.281372 z"
         style="fill:url(#linearGradient9146);fill-opacity:1;fill-rule:evenodd;stroke:url(#linearGradient9148);stroke-width:6.66666985;stroke-linecap:butt;stroke-linejoin:miter;stroke-miterlimit:4;stroke-opacity:1" />
      <path
         id="path5523"
         d="M 754.46235,371.82323 C 767.63596,371.82323 778.38567,382.57292 778.38567,395.74656 C 778.38567,408.92019 767.63596,419.66989 754.46235,419.66989 C 741.28871,419.66989 730.539,408.92019 730.539,395.74656 C 730.539,382.57292 741.28871,371.82324 754.46235,371.82323 z M 754.46235,377.88457 C 744.56827,377.88457 736.60034,385.85249 736.60034,395.74656 C 736.60034,405.64062 744.56827,413.60856 754.46235,413.60856 C 764.3564,413.60856 772.32434,405.64062 772.32434,395.74656 C 772.32434,385.85249 764.3564,377.88457 754.46235,377.88457 z"
         style="fill:url(#linearGradient9150);fill-opacity:1;fill-rule:evenodd;stroke:url(#linearGradient9152);stroke-width:6.66665983;stroke-miterlimit:4;stroke-opacity:1" />
      <path
         id="path5543"
         d="M 48.234141,719.53605 C 64.380791,718.34238 79.287771,702.91419 76.900661,686.29278 C 75.850141,675.69885 67.159841,666.22829 56.441531,665.12199 C 47.875971,664.16419 38.122301,670.29799 37.871961,679.49309 C 37.039601,685.61158 42.786641,691.66566 48.959931,690.52328 C 52.815141,689.64881 56.813781,683.05119 50.587061,683.11908 C 43.000161,679.54927 50.644841,672.52162 56.309341,674.32258 C 65.807621,675.92256 70.710171,687.88537 66.799601,696.26935 C 62.576161,708.23254 47.763041,712.94292 36.336041,709.39578 C 24.445941,705.86774 16.607811,693.70137 15.997081,681.63175 C 15.266501,673.85 17.570481,666.28645 20.049911,659.02715 C 32.112581,616.07604 45.549711,573.52781 59.436611,531.13736 C 65.284931,512.26219 71.368501,493.41348 75.848311,474.16067 C 78.750321,453.39197 62.979521,430.75281 41.483571,429.10915 C 25.879581,427.2525 9.392661,438.01722 6.174971,453.64641 C 4.25151,463.58617 8.118801,474.85465 17.022671,480.2171 C 24.341551,485.29376 35.196261,484.66673 41.293181,477.94774 C 45.994631,472.92863 46.751881,463.21221 40.105651,459.45312 C 36.493161,455.61778 27.587391,459.7624 28.922081,463.59132 C 34.253101,464.58291 38.935501,472.32811 31.297901,473.89734 C 23.202271,476.74265 15.730241,468.86269 14.810011,461.27157 C 13.361221,450.74357 21.949581,440.87646 32.035751,438.8773 C 42.261481,436.32948 53.861851,440.11794 60.011981,448.82891 C 68.870471,459.61396 68.183431,475.11086 63.485731,487.52735 C 54.812911,515.90358 45.795261,544.18788 36.702151,572.43806 C 27.757191,600.21192 19.291791,628.14348 11.489121,656.25755 C 7.610691,668.36487 4.07822,682.05611 9.553861,694.25907 C 14.998931,709.98918 31.466341,721.3562 48.234141,719.53605 z"
         style="fill:url(#linearGradient9154);fill-opacity:1;fill-rule:evenodd;stroke:url(#linearGradient9156);stroke-width:6.66666985;stroke-linecap:butt;stroke-linejoin:miter;stroke-miterlimit:4;stroke-opacity:1" />
      <path
         id="path5545"
         d="M 363.78827,740.44297 C 362.5946,756.58962 347.16641,771.4966 330.545,769.10949 C 319.95107,768.05897 310.48051,759.36867 309.37421,748.65036 C 308.41641,740.0848 314.55022,730.33113 323.74531,730.08079 C 329.8638,729.24843 335.91787,734.99547 334.77549,741.16876 C 333.90102,745.02397 327.30341,749.02261 327.3713,742.79589 C 323.80149,735.20899 316.77385,742.85367 318.57481,748.51817 C 320.17478,758.01645 332.13759,762.919 340.52157,759.00843 C 352.48476,754.78499 357.19514,739.97187 353.648,728.54487 C 350.11996,716.65477 337.95359,708.81664 325.88397,708.20591 C 318.10223,707.47533 310.53867,709.77931 303.27937,712.25874 C 260.32826,724.32141 217.78003,737.75854 175.38958,751.64544 C 156.51441,757.49376 137.6657,763.57733 118.41289,768.05714 C 97.64419,770.95915 75.005026,755.18835 73.361366,733.6924 C 71.504716,718.08841 82.269436,701.60149 97.89863,698.3838 C 107.83839,696.46034 119.10687,700.32763 124.46932,709.2315 C 129.54598,716.55038 128.91895,727.40509 122.19996,733.50201 C 117.18085,738.20346 107.46443,738.96071 103.70534,732.31448 C 99.87,728.70199 104.01462,719.79622 107.84354,721.13091 C 108.83513,726.46193 116.58033,731.14433 118.14956,723.50673 C 120.99487,715.4111 113.11491,707.93907 105.52379,707.01884 C 94.99579,705.57005 85.128676,714.15841 83.129516,724.24458 C 80.581696,734.47031 84.370156,746.07068 93.081126,752.22081 C 103.86618,761.0793 119.36308,760.39226 131.77957,755.69456 C 160.1558,747.02174 188.4401,738.00409 216.69028,728.91098 C 244.46414,719.96602 272.3957,711.50062 300.50977,703.69795 C 312.6171,699.81952 326.30833,696.28705 338.51129,701.76269 C 354.2414,707.20776 365.60842,723.67517 363.78827,740.44297 z"
         style="fill:url(#linearGradient9158);fill-opacity:1;fill-rule:evenodd;stroke:url(#linearGradient9160);stroke-width:6.66666985;stroke-linecap:butt;stroke-linejoin:miter;stroke-miterlimit:4;stroke-opacity:1" />
      <path
         id="path5547"
         d="M 397.07665,757.74778 C 383.90304,757.74778 373.15333,746.99808 373.15333,733.82445 C 373.15333,720.65081 383.90304,709.90112 397.07665,709.90112 C 410.25029,709.90112 421,720.65081 421,733.82445 C 421,746.99808 410.25029,757.74777 397.07665,757.74778 z M 397.07665,751.68644 C 406.97073,751.68644 414.93866,743.71851 414.93866,733.82445 C 414.93866,723.93038 406.97073,715.96245 397.07665,715.96245 C 387.1826,715.96245 379.21466,723.93038 379.21466,733.82445 C 379.21466,743.71851 387.1826,751.68644 397.07665,751.68644 z"
         style="fill:url(#linearGradient9162);fill-opacity:1;fill-rule:evenodd;stroke:url(#linearGradient9164);stroke-width:6.66665983;stroke-miterlimit:4;stroke-opacity:1" />
      <path
         id="path5569"
         d="M 746.45819,719.53605 C 730.31154,718.34238 715.40456,702.91419 717.79167,686.29278 C 718.84219,675.69885 727.53249,666.22829 738.2508,665.12199 C 746.81636,664.16419 756.57003,670.29799 756.82037,679.49309 C 757.65273,685.61158 751.90569,691.66566 745.7324,690.52328 C 741.87719,689.64881 737.87855,683.05119 744.10527,683.11908 C 751.69217,679.54927 744.04749,672.52162 738.38299,674.32258 C 728.88471,675.92256 723.98216,687.88537 727.89273,696.26935 C 732.11617,708.23254 746.92929,712.94292 758.35629,709.39578 C 770.24639,705.86774 778.08452,693.70137 778.69525,681.63175 C 779.42583,673.85 777.12185,666.28645 774.64242,659.02715 C 762.57975,616.07604 749.14262,573.52781 735.25572,531.13736 C 729.4074,512.26219 723.32383,493.41348 718.84402,474.16067 C 715.94201,453.39197 731.71281,430.75281 753.20876,429.10915 C 768.81275,427.2525 785.29967,438.01722 788.51736,453.64641 C 790.44082,463.58617 786.57353,474.85465 777.66966,480.2171 C 770.35078,485.29376 759.49607,484.66673 753.39915,477.94774 C 748.6977,472.92863 747.94045,463.21221 754.58668,459.45312 C 758.19917,455.61778 767.10494,459.7624 765.77025,463.59132 C 760.43923,464.58291 755.75683,472.32811 763.39443,473.89734 C 771.49006,476.74265 778.96209,468.86269 779.88232,461.27157 C 781.33111,450.74357 772.74275,440.87646 762.65658,438.8773 C 752.43085,436.32948 740.83048,440.11794 734.68035,448.82891 C 725.82186,459.61396 726.5089,475.11086 731.2066,487.52735 C 739.87942,515.90358 748.89707,544.18788 757.99018,572.43806 C 766.93514,600.21192 775.40054,628.14348 783.20321,656.25755 C 787.08164,668.36487 790.61411,682.05611 785.13847,694.25907 C 779.6934,709.98918 763.22599,721.3562 746.45819,719.53605 z"
         style="fill:url(#linearGradient9166);fill-opacity:1;fill-rule:evenodd;stroke:url(#linearGradient9168);stroke-width:6.66666985;stroke-linecap:butt;stroke-linejoin:miter;stroke-miterlimit:4;stroke-opacity:1" />
      <path
         id="path5571"
         d="M 430.90406,740.44297 C 432.09773,756.58962 447.52592,771.4966 464.14733,769.10949 C 474.74126,768.05897 484.21182,759.36867 485.31812,748.65036 C 486.27592,740.0848 480.14211,730.33113 470.94702,730.08079 C 464.82853,729.24843 458.77446,734.99547 459.91684,741.16876 C 460.79131,745.02397 467.38892,749.02261 467.32103,742.79589 C 470.89084,735.20899 477.91848,742.85367 476.11752,748.51817 C 474.51755,758.01645 462.55474,762.919 454.17076,759.00843 C 442.20757,754.78499 437.49719,739.97187 441.04433,728.54487 C 444.57237,716.65477 456.73874,708.81664 468.80836,708.20591 C 476.5901,707.47533 484.15366,709.77931 491.41296,712.25874 C 534.36407,724.32141 576.9123,737.75854 619.30275,751.64544 C 638.17792,757.49376 657.02663,763.57733 676.27944,768.05714 C 697.04814,770.95915 719.6873,755.18835 721.33096,733.6924 C 723.18761,718.08841 712.42289,701.60149 696.7937,698.3838 C 686.85394,696.46034 675.58546,700.32763 670.22301,709.2315 C 665.14635,716.55038 665.77338,727.40509 672.49237,733.50201 C 677.51148,738.20346 687.2279,738.96071 690.98699,732.31448 C 694.82233,728.70199 690.67771,719.79622 686.84879,721.13091 C 685.8572,726.46193 678.112,731.14433 676.54277,723.50673 C 673.69746,715.4111 681.57742,707.93907 689.16854,707.01884 C 699.69654,705.57005 709.56365,714.15841 711.56281,724.24458 C 714.11063,734.47031 710.32217,746.07068 701.6112,752.22081 C 690.82615,761.0793 675.32925,760.39226 662.91276,755.69456 C 634.53653,747.02174 606.25223,738.00409 578.00205,728.91098 C 550.22819,719.96602 522.29663,711.50062 494.18256,703.69795 C 482.07523,699.81952 468.384,696.28705 456.18104,701.76269 C 440.45093,707.20776 429.08391,723.67517 430.90406,740.44297 z"
         style="fill:url(#linearGradient9170);fill-opacity:1;fill-rule:evenodd;stroke:url(#linearGradient9172);stroke-width:6.66666985;stroke-linecap:butt;stroke-linejoin:miter;stroke-miterlimit:4;stroke-opacity:1" />
    </g>
  </g>
</svg>
