<?xml version="1.0" encoding="UTF-8" standalone="no"?>
<!-- Created with Inkscape (http://www.inkscape.org/) -->
<svg xmlns:dc="http://purl.org/dc/elements/1.1/" xmlns:cc="http://creativecommons.org/ns#" xmlns:rdf="http://www.w3.org/1999/02/22-rdf-syntax-ns#" xmlns:svg="http://www.w3.org/2000/svg" xmlns="http://www.w3.org/2000/svg" xmlns:sodipodi="http://sodipodi.sourceforge.net/DTD/sodipodi-0.dtd" xmlns:inkscape="http://www.inkscape.org/namespaces/inkscape" width="325.87332" height="237.33934" id="svg2438" sodipodi:version="0.32" inkscape:version="0.46" sodipodi:docname="bratac_bird.svg" inkscape:output_extension="org.inkscape.output.svg.inkscape" version="1.0">
  <defs id="defs2440">
    <inkscape:perspective sodipodi:type="inkscape:persp3d" inkscape:vp_x="0 : 526.18109 : 1" inkscape:vp_y="0 : 1000 : 0" inkscape:vp_z="744.09448 : 526.18109 : 1" inkscape:persp3d-origin="372.04724 : 350.78739 : 1" id="perspective2446"/>
  </defs>
  <sodipodi:namedview id="base" pagecolor="#ffffff" bordercolor="#666666" borderopacity="1.0" gridtolerance="10000" guidetolerance="10" objecttolerance="10" inkscape:pageopacity="0.0" inkscape:pageshadow="2" inkscape:zoom="0.34565895" inkscape:cx="1205.036" inkscape:cy="543.11893" inkscape:document-units="px" inkscape:current-layer="capa1" showgrid="false" inkscape:window-width="1144" inkscape:window-height="800" inkscape:window-x="-5" inkscape:window-y="25" showguides="true" inkscape:guide-bbox="true"/>
  <metadata id="metadata2443">
    <rdf:RDF>
      <cc:Work rdf:about="">
        <dc:format>image/svg+xml</dc:format>
        <dc:type rdf:resource="http://purl.org/dc/dcmitype/StillImage"/>
      </cc:Work>
    </rdf:RDF>
  </metadata>
  <g inkscape:label="Capa 1" inkscape:groupmode="layer" id="capa1" transform="translate(-170.657, -509.641)">
    <g id="g11118">
      <path id="path11109" d="M 392.87953,702.9453 L 394.59517,746.97984 L 409.46397,746.40796 L 404.88895,694.36715 L 391.73578,694.93902 L 392.87953,702.9453 z" style="fill: rgb(255, 153, 85); fill-opacity: 1; fill-rule: evenodd; stroke: none; stroke-width: 1px; stroke-linecap: butt; stroke-linejoin: miter; stroke-opacity: 1;"/>
      <path sodipodi:nodetypes="cccc" id="path11073" d="M 462.90878,537.75321 C 479.04417,532.09363 485.08746,540.67035 496.18461,542.3307 C 480.93028,551.38883 473.15507,548.95654 458.08486,553.1324 L 462.90878,537.75321 z" style="fill: rgb(212, 85, 0); fill-rule: evenodd; stroke: none; stroke-width: 1px; stroke-linecap: butt; stroke-linejoin: miter; stroke-opacity: 1;"/>
      <path sodipodi:nodetypes="cccc" id="path11075" d="M 496.53013,542.19206 C 488.99068,550.17443 481.63843,555.51141 469.73268,563.12052 L 456.76545,550.60701 C 471.92338,548.43472 483.2197,549.31621 496.53013,542.19206 z" style="fill: rgb(255, 127, 42); fill-rule: evenodd; stroke: none; stroke-width: 1px; stroke-linecap: butt; stroke-linejoin: miter; stroke-opacity: 1;"/>
      <path sodipodi:nodetypes="ccccccscccc" id="path11069" d="M 374.38289,554.75027 C 367.2271,498.99263 463.66973,491.48375 466.98043,551.69956 C 498.52165,559.6954 524.74681,680.67893 398.02475,701.52723 C 335.35849,712.83213 316.2365,679.10191 281.045,666.52399 C 264.76204,663.47903 235.51427,719.98835 199.08033,729.92131 C 190.50009,732.80509 161.79587,729.03241 209.93414,695.31815 C 154.86669,719.97832 170.45328,702.56054 181.88534,695.68179 C 194.84819,687.88196 212.11914,677.46622 223.82677,673.91505 C 238.5535,667.90584 255.79618,660.82794 270.94943,643.50893 L 241.94032,639.05516 C 299.16003,616.33034 269.94244,587.69059 374.38289,554.75027 z" style="fill: rgb(255, 179, 128); fill-rule: evenodd; stroke: none; stroke-width: 1px; stroke-linecap: butt; stroke-linejoin: miter; stroke-opacity: 1;"/>
      <path transform="matrix(0.987275, -0.159024, 0.159024, 0.987275, -93.9725, 60.7377)" sodipodi:open="true" sodipodi:end="6.2008288" sodipodi:start="0" d="M 460.42274,555.448 A 6.7576723,7.6586957 0 1 1 460.39984,554.81797" sodipodi:ry="7.6586957" sodipodi:rx="6.7576723" sodipodi:cy="555.448" sodipodi:cx="453.66507" id="path11071" style="fill: rgb(0, 0, 0); fill-opacity: 1; stroke: none; stroke-width: 3; stroke-linecap: round; stroke-linejoin: round; stroke-miterlimit: 4; stroke-dasharray: none; stroke-dashoffset: 0pt; stroke-opacity: 1;" sodipodi:type="arc"/>
      <path id="path11082" d="M 484.58059,569.33111 C 479.32262,582.28601 443.73288,599.93426 422.23898,602.8274 C 469.15237,640.69813 468.24396,650.81749 472.67485,664.02314 C 498.66825,633.26226 496.23846,592.47034 484.58059,569.33111 z" style="fill: rgb(212, 85, 0); fill-opacity: 1; fill-rule: evenodd; stroke: none; stroke-width: 1px; stroke-linecap: butt; stroke-linejoin: miter; stroke-opacity: 1;"/>
      <path sodipodi:nodetypes="ccccccccc" id="path11087" d="M 374.28557,553.703 C 374.32293,554.0559 374.34703,554.40507 374.39283,554.76192 C 369.89352,556.181 365.64428,557.59978 361.62348,559.00277 L 326.8092,573.56816 C 278.0741,598.66409 287.98541,620.77059 241.95531,639.05147 L 263.82816,642.39699 C 266.58555,642.26344 269.26178,642.54742 271.79055,643.48842 C 320.58453,613.69068 364.13972,633.44725 406.13249,604.91528 C 392.99654,588.26633 368.4081,591.17571 374.28557,553.703 z" style="fill: rgb(255, 153, 85); fill-rule: evenodd; stroke: none; stroke-width: 1px; stroke-linecap: butt; stroke-linejoin: miter; stroke-opacity: 1;"/>
      <path sodipodi:nodetypes="cccccccc" id="path11079" d="M 410.14988,510.48097 C 390.00732,513.97304 372.61974,528.26544 374.10141,551.7284 C 374.39028,553.39923 372.62355,555.05707 371.7186,555.61391 C 360.56352,559.20406 350.98811,562.74642 342.68822,566.2309 L 341.56345,567.10843 C 397.13086,569.17789 413.09739,506.06463 459.1705,529.67985 C 459.11834,528.87219 458.88472,528.05873 458.52115,527.22056 C 447.54746,512.6499 427.79609,507.42169 410.14988,510.48097 z" style="fill: rgb(212, 85, 0); fill-rule: evenodd; stroke: none; stroke-width: 1px; stroke-linecap: butt; stroke-linejoin: miter; stroke-opacity: 1;"/>
      <path sodipodi:nodetypes="cccc" id="path11111" d="M 206.76097,697.70875 C 191.16919,705.04387 164.41937,735.40663 199.09375,729.90625 C 211.44633,726.86318 211.43521,723.82011 217.60265,720.77704 C 189.37744,732.0911 183.95126,717.99594 206.76097,697.70875 z" style="fill: rgb(212, 85, 0); fill-opacity: 1; fill-rule: evenodd; stroke: none; stroke-width: 1px; stroke-linecap: butt; stroke-linejoin: miter; stroke-opacity: 1;"/>
      <path sodipodi:nodetypes="cccc" id="path11116" d="M 186.04953,693.09904 C 174.95425,701.29927 167.01977,708.90575 190.63272,703.00538 C 189.99837,704.06113 173.0248,709.39173 171.94046,708.20297 C 171.34861,707.71206 165.2482,705.68361 186.04953,693.09904 z" style="fill: rgb(212, 85, 0); fill-opacity: 1; fill-rule: evenodd; stroke: none; stroke-width: 1px; stroke-linecap: butt; stroke-linejoin: miter; stroke-opacity: 1;"/>
    </g>
  </g>
</svg>