<?xml version="1.0" encoding="UTF-8" standalone="no"?>
<!-- Created with Inkscape (http://www.inkscape.org/) -->
<svg xmlns:dc="http://purl.org/dc/elements/1.1/" xmlns:cc="http://creativecommons.org/ns#" xmlns:rdf="http://www.w3.org/1999/02/22-rdf-syntax-ns#" xmlns:svg="http://www.w3.org/2000/svg" xmlns="http://www.w3.org/2000/svg" xmlns:sodipodi="http://sodipodi.sourceforge.net/DTD/sodipodi-0.dtd" xmlns:inkscape="http://www.inkscape.org/namespaces/inkscape" width="259.61392" height="400.00006" id="svg2" sodipodi:version="0.32" inkscape:version="0.45+devel" sodipodi:docname="chicken.svg" inkscape:output_extension="org.inkscape.output.svg.inkscape" version="1.0">
  <defs id="defs4">
    <inkscape:perspective sodipodi:type="inkscape:persp3d" inkscape:vp_x="-50 : 600 : 1" inkscape:vp_y="0 : 1000 : 0" inkscape:vp_z="700 : 600 : 1" inkscape:persp3d-origin="300 : 400 : 1" id="perspective2458"/>
    <filter inkscape:collect="always" id="filter3307" x="-0.036511704" width="1.0730234" y="-0.44118312" height="1.8823662">
      <feGaussianBlur inkscape:collect="always" stdDeviation="4.4566226" id="feGaussianBlur3309"/>
    </filter>
  </defs>
  <sodipodi:namedview id="base" pagecolor="#ffffff" bordercolor="#666666" borderopacity="1.0" gridtolerance="10000" guidetolerance="10" objecttolerance="10" inkscape:pageopacity="0.0" inkscape:pageshadow="2" inkscape:zoom="0.35355339" inkscape:cx="460.34613" inkscape:cy="637.06545" inkscape:document-units="px" inkscape:current-layer="layer1" showgrid="false" inkscape:window-width="1280" inkscape:window-height="727" inkscape:window-x="0" inkscape:window-y="47"/>
  <metadata id="metadata7">
    <rdf:RDF>
      <cc:Work rdf:about="">
        <dc:format>image/svg+xml</dc:format>
        <dc:type rdf:resource="http://purl.org/dc/dcmitype/StillImage"/>
      </cc:Work>
    </rdf:RDF>
  </metadata>
  <g inkscape:label="Layer 1" inkscape:groupmode="layer" id="layer1" transform="translate(-80.7349, -470.085)">
    <path sodipodi:type="arc" style="opacity: 0.55; fill: rgb(0, 0, 0); fill-opacity: 1; fill-rule: nonzero; stroke: none; stroke-width: 0.803966; stroke-linecap: round; stroke-linejoin: round; stroke-miterlimit: 4; stroke-dasharray: none; stroke-opacity: 1; filter: url(#filter3307);" id="path3293" sodipodi:cx="364.66507" sodipodi:cy="675.57526" sodipodi:rx="146.47212" sodipodi:ry="12.121831" d="M 511.13719,675.57526 A 146.47212,12.121831 0 1 1 218.19295,675.57526 A 146.47212,12.121831 0 1 1 511.13719,675.57526 z" transform="matrix(0.850449, 0, 0, 3.88117, -103.947, -1798.99)"/>
    <path style="fill: rgb(176, 90, 46); fill-opacity: 1; fill-rule: evenodd; stroke: rgb(0, 0, 0); stroke-width: 7.00151; stroke-linecap: round; stroke-linejoin: round; stroke-miterlimit: 4; stroke-dasharray: none; stroke-opacity: 1;" d="M 184.87485,473.59644 C 181.15691,473.80885 177.74253,477.0438 177.96086,482.07119 C 176.30742,494.75824 177.04095,507.60683 178.38387,520.28777 C 173.71253,511.44436 169.0376,502.59837 164.36626,493.75496 C 165.93286,517.46004 167.4965,541.15899 169.06311,564.86406 C 164.12051,564.65407 156.64847,558.66699 153.39723,562.29684 C 155.59428,584.10187 157.79326,605.91219 159.99032,627.71721 C 222.72631,557.87767 194.07763,578.80285 258.15734,630.35737 C 260.3544,608.55234 262.53878,586.74202 264.73584,564.937 C 261.4846,561.30715 254.01256,567.29423 249.06996,567.50422 C 250.63657,543.79914 252.20021,520.10019 253.76681,496.39511 C 249.09547,505.23853 244.42054,514.08451 239.7492,522.92793 C 241.09212,510.24698 241.84023,497.39839 240.18679,484.71134 C 240.55452,476.24416 230.60475,472.87677 226.28588,480.45209 C 219.20862,488.79504 213.21086,498.34947 209.51142,508.69152 C 205.93003,497.33611 199.5368,486.84496 191.86178,477.79735 C 190.10723,474.71988 187.41871,473.45111 184.87485,473.59644 z" id="path3185" sodipodi:nodetypes="ccccccccccccccccc"/>
    <path sodipodi:type="arc" style="opacity: 1; fill: rgb(134, 46, 0); fill-opacity: 1; fill-rule: nonzero; stroke: rgb(0, 0, 0); stroke-width: 15; stroke-miterlimit: 4; stroke-dasharray: none; stroke-opacity: 1;" id="path2388" sodipodi:cx="355.71429" sodipodi:cy="372.36218" sodipodi:rx="238.57143" sodipodi:ry="215.71429" d="M 594.28572,372.36218 A 238.57143,215.71429 0 1 1 117.14287,372.36218 A 238.57143,215.71429 0 1 1 594.28572,372.36218 z" transform="matrix(0.466767, 0, 0, 0.466767, 43.0505, 496.856)"/>
    <path style="fill: rgb(255, 184, 21); fill-opacity: 1; fill-rule: evenodd; stroke: rgb(0, 0, 0); stroke-width: 7.00151; stroke-linecap: round; stroke-linejoin: round; stroke-miterlimit: 4; stroke-dasharray: none; stroke-opacity: 1;" d="M 158.80529,760.85806 L 165.40638,814.1288 L 149.15008,856.67452 L 169.36808,838.59727 L 176.43233,865.9269 L 181.83837,838.108 L 200.07754,858.55514 L 182.85211,813.43101 L 185.44539,770.75969 L 158.80529,760.85806 z" id="path3269" sodipodi:nodetypes="cccccccccc"/>
    <path sodipodi:nodetypes="ccccccccccccccccc" id="path3190" d="M 204.06763,616.95919 C 202.99501,617.04336 202.00997,618.32529 202.07296,620.31751 C 201.59595,625.34507 201.80757,630.43664 202.195,635.46178 C 200.84733,631.95735 199.49862,628.45192 198.15096,624.94749 C 198.60291,634.34121 199.05402,643.73251 199.50598,653.12623 C 198.08006,653.04301 195.92439,650.67048 194.98642,652.1089 C 195.62026,660.74968 196.25466,669.39256 196.88851,678.03333 C 214.98767,650.35769 206.7226,658.64981 225.20942,679.07956 C 225.84327,670.43878 226.47346,661.79591 227.1073,653.15512 C 226.16933,651.71671 224.01367,654.08924 222.58774,654.17245 C 223.0397,644.77874 223.49081,635.38744 223.94277,625.99372 C 222.5951,629.49814 221.24639,633.00358 219.89873,636.508 C 220.28616,631.48287 220.50198,626.3913 220.02497,621.36374 C 220.13106,618.00841 217.26058,616.674 216.01459,619.6759 C 213.97283,622.98201 212.24249,626.76818 211.17521,630.86648 C 210.14199,626.36661 208.29756,622.20924 206.08334,618.6239 C 205.57716,617.40438 204.80152,616.90159 204.06763,616.95919 z" style="fill: rgb(243, 0, 0); fill-opacity: 1; fill-rule: evenodd; stroke: rgb(0, 0, 0); stroke-width: 7.96645; stroke-linecap: round; stroke-linejoin: round; stroke-miterlimit: 4; stroke-dasharray: none; stroke-opacity: 1;"/>
    <path style="opacity: 1; fill: rgb(134, 46, 0); fill-opacity: 1; fill-rule: nonzero; stroke: rgb(0, 0, 0); stroke-width: 9.79798; stroke-miterlimit: 4; stroke-dasharray: none; stroke-opacity: 1;" d="M 210.25533,661.50253 C 183.59923,661.50253 161.95946,680.61944 161.95945,704.18499 C 161.95945,711.1397 163.86394,717.71176 167.20545,723.51559 C 179.72077,719.07406 193.97141,716.55494 209.09182,716.55494 C 224.99379,716.55494 239.9262,719.35104 252.89696,724.23002 C 256.49956,718.25386 258.55122,711.4253 258.55122,704.18499 C 258.55122,680.61944 236.91144,661.50254 210.25533,661.50253 z" id="path3195"/>
    <path sodipodi:nodetypes="cccccccccc" id="path3192" d="M 263.70482,760.85806 L 257.10373,814.1288 L 273.36003,856.67452 L 253.14203,838.59727 L 246.07777,865.9269 L 240.67174,838.108 L 222.43256,858.55514 L 239.658,813.43101 L 237.06471,770.75969 L 263.70482,760.85806 z" style="fill: rgb(255, 184, 21); fill-opacity: 1; fill-rule: evenodd; stroke: rgb(0, 0, 0); stroke-width: 7.00151; stroke-linecap: round; stroke-linejoin: round; stroke-miterlimit: 4; stroke-dasharray: none; stroke-opacity: 1;"/>
    <path style="fill: rgb(255, 184, 21); fill-opacity: 1; fill-rule: nonzero; stroke: rgb(0, 0, 0); stroke-width: 7.00151; stroke-miterlimit: 4; stroke-dasharray: none; stroke-opacity: 1;" d="M 262.27422,741.59982 C 262.27422,757.82371 238.59541,808.59153 209.41974,808.59153 C 180.24405,808.59153 156.56524,757.82371 156.56524,741.59982 C 156.56524,725.37593 180.24405,712.20872 209.41974,712.20872 C 238.59541,712.20872 262.27422,725.37593 262.27422,741.59982 z" id="path3160" sodipodi:nodetypes="csssc"/>
    <path style="fill: rgb(255, 255, 255); fill-opacity: 1; fill-rule: nonzero; stroke: rgb(0, 0, 0); stroke-width: 2.11353; stroke-miterlimit: 4; stroke-opacity: 1;" d="M 191.42919,676.88884 C 183.5125,676.88884 177.09679,686.68385 177.09678,698.76723 C 177.09678,705.81212 179.28755,712.08345 182.67784,716.08831 C 188.87304,714.45607 195.47594,713.39844 202.36014,712.96754 C 204.49411,709.14573 205.77811,704.17843 205.77811,698.76723 C 205.77811,686.68385 199.3459,676.88885 191.42919,676.88884 z M 227.67302,676.88884 C 219.75631,676.88884 213.3241,686.68385 213.3241,698.76723 C 213.3241,704.20423 214.63938,709.18791 216.79161,713.01708 C 223.617,713.49513 230.15802,714.5935 236.29227,716.25344 C 239.75961,712.2566 242.00542,705.90537 242.00542,698.76723 C 242.00542,686.68385 235.58972,676.88885 227.67302,676.88884 z" id="path3181"/>
    <path sodipodi:type="arc" style="opacity: 1; fill: rgb(0, 0, 0); fill-opacity: 1; fill-rule: nonzero; stroke: rgb(0, 0, 0); stroke-width: 4; stroke-miterlimit: 4; stroke-dasharray: none; stroke-opacity: 1;" id="path3191" sodipodi:cx="330.35715" sodipodi:cy="367.00504" sodipodi:rx="8.2142859" sodipodi:ry="16.428572" d="M 338.57143,367.00504 A 8.2142859,16.428572 0 1 1 322.14286,367.00504 A 8.2142859,16.428572 0 1 1 338.57143,367.00504 z" transform="matrix(0.653199, 0, 0, 0.653199, -23.7327, 462.134)"/>
    <path sodipodi:type="arc" style="opacity: 1; fill: rgb(0, 0, 0); fill-opacity: 1; fill-rule: nonzero; stroke: rgb(0, 0, 0); stroke-width: 4; stroke-miterlimit: 4; stroke-dasharray: none; stroke-opacity: 1;" id="path3193" sodipodi:cx="330.35715" sodipodi:cy="367.00504" sodipodi:rx="8.2142859" sodipodi:ry="16.428572" d="M 338.57143,367.00504 A 8.2142859,16.428572 0 1 1 322.14286,367.00504 A 8.2142859,16.428572 0 1 1 338.57143,367.00504 z" transform="matrix(0.653199, 0, 0, 0.653199, 11.9599, 463.3)"/>
    <path style="fill: rgb(176, 90, 46); fill-opacity: 1; fill-rule: evenodd; stroke: rgb(0, 0, 0); stroke-width: 7.00151; stroke-linecap: round; stroke-linejoin: round; stroke-miterlimit: 4; stroke-dasharray: none; stroke-opacity: 1;" d="M 136.84505,751.81291 C 126.10972,744.2673 118.47009,733.29528 110.54373,723.04114 C 95.033855,701.37007 82.856402,675.40817 84.361651,648.18074 C 85.521425,630.89594 93.93487,614.9199 104.97452,601.90593 C 109.29339,594.33061 119.24303,597.71131 118.87531,606.17849 C 120.52874,618.86554 119.79182,631.70577 118.4489,644.38671 C 123.12024,635.54329 127.79158,626.69988 132.46292,617.85647 C 130.89632,641.56154 129.32971,665.26662 127.76311,688.97169 C 132.7057,688.7617 140.18496,682.76796 143.4362,686.39781 C 141.23915,708.20284 139.0421,730.00788 136.84505,751.81291 z" id="path3177"/>
    <path id="path3183" d="M 284.23872,751.81291 C 294.97404,744.2673 302.61367,733.29528 310.54003,723.04114 C 326.04991,701.37007 338.22736,675.40817 336.72211,648.18074 C 335.56234,630.89594 327.14889,614.9199 316.10924,601.90593 C 311.79037,594.33061 301.84073,597.71131 302.20846,606.17849 C 300.55502,618.86554 301.29194,631.70577 302.63487,644.38671 C 297.96353,635.54329 293.29218,626.69988 288.62085,617.85647 C 290.18745,641.56154 291.75405,665.26662 293.32066,688.97169 C 288.37806,688.7617 280.8988,682.76796 277.64756,686.39781 C 279.84462,708.20284 282.04166,730.00788 284.23872,751.81291 z" style="fill: rgb(176, 90, 46); fill-opacity: 1; fill-rule: evenodd; stroke: rgb(0, 0, 0); stroke-width: 7.00151; stroke-linecap: round; stroke-linejoin: round; stroke-miterlimit: 4; stroke-dasharray: none; stroke-opacity: 1;"/>
  </g>
</svg>