<?xml version="1.0" encoding="UTF-8" standalone="no"?>
<!-- Created with Inkscape (http://www.inkscape.org/) -->
<svg xmlns:dc="http://purl.org/dc/elements/1.1/" xmlns:cc="http://web.resource.org/cc/" xmlns:rdf="http://www.w3.org/1999/02/22-rdf-syntax-ns#" xmlns:svg="http://www.w3.org/2000/svg" xmlns="http://www.w3.org/2000/svg" xmlns:xlink="http://www.w3.org/1999/xlink" xmlns:sodipodi="http://sodipodi.sourceforge.net/DTD/sodipodi-0.dtd" xmlns:inkscape="http://www.inkscape.org/namespaces/inkscape" width="284.04092" height="236.87546" id="svg2" sodipodi:version="0.32" inkscape:version="0.45.1" sodipodi:docbase="C:\Documents and Settings\Molumen\Desktop" sodipodi:docname="bugmenot_Happy_Pig.svg" inkscape:export-filename="/home/elian2/Desktop/mad/pigbutter.png" inkscape:export-xdpi="600.13000" inkscape:export-ydpi="600.13000" inkscape:output_extension="org.inkscape.output.svg.inkscape" version="1.0">
  <defs id="defs4">
    <linearGradient id="linearGradient24083">
      <stop id="stop24085" offset="0.0000000" style="stop-color: rgb(243, 143, 108); stop-opacity: 1;"/>
      <stop style="stop-color: rgb(244, 159, 141); stop-opacity: 1;" offset="0.11013216" id="stop24087"/>
      <stop style="stop-color: rgb(245, 176, 174); stop-opacity: 1;" offset="1.0000000" id="stop24089"/>
    </linearGradient>
    <linearGradient id="linearGradient24047">
      <stop style="stop-color: rgb(243, 143, 108); stop-opacity: 1;" offset="0.0000000" id="stop24053"/>
      <stop id="stop24065" offset="0.62995595" style="stop-color: rgb(244, 159, 141); stop-opacity: 1;"/>
      <stop id="stop24055" offset="1.0000000" style="stop-color: rgb(245, 176, 174); stop-opacity: 1;"/>
    </linearGradient>
    <linearGradient inkscape:collect="always" id="linearGradient23289">
      <stop style="stop-color: rgb(0, 0, 0); stop-opacity: 1;" offset="0" id="stop23291"/>
      <stop style="stop-color: rgb(0, 0, 0); stop-opacity: 0;" offset="1" id="stop23293"/>
    </linearGradient>
    <linearGradient id="linearGradient22548">
      <stop id="stop22550" offset="0.0000000" style="stop-color: rgb(255, 184, 181); stop-opacity: 1;"/>
      <stop style="stop-color: rgb(230, 152, 150); stop-opacity: 1;" offset="0.92511016" id="stop24069"/>
      <stop id="stop22554" offset="1.0000000" style="stop-color: rgb(156, 56, 57); stop-opacity: 1;"/>
    </linearGradient>
    <linearGradient id="linearGradient21070">
      <stop style="stop-color: rgb(249, 245, 14); stop-opacity: 1;" offset="0.0000000" id="stop21072"/>
      <stop id="stop21812" offset="0.86343610" style="stop-color: rgb(252, 249, 14); stop-opacity: 0.933333;"/>
      <stop style="stop-color: rgb(255, 253, 15); stop-opacity: 0.34902;" offset="1.0000000" id="stop21074"/>
    </linearGradient>
    <linearGradient id="linearGradient20322">
      <stop id="stop20330" offset="0.0000000" style="stop-color: rgb(245, 177, 174); stop-opacity: 1;"/>
      <stop style="stop-color: rgb(245, 177, 174); stop-opacity: 1;" offset="0.64807737" id="stop20336"/>
      <stop id="stop20338" offset="0.98604715" style="stop-color: rgb(243, 143, 108); stop-opacity: 1;"/>
      <stop style="stop-color: rgb(220, 102, 40); stop-opacity: 1;" offset="1.0000000" id="stop20326"/>
    </linearGradient>
    <linearGradient id="linearGradient18120">
      <stop style="stop-color: rgb(245, 176, 173); stop-opacity: 1;" offset="0.0000000" id="stop18122"/>
      <stop id="stop18128" offset="0.64317179" style="stop-color: rgb(242, 174, 162); stop-opacity: 1;"/>
      <stop style="stop-color: rgb(243, 143, 107); stop-opacity: 0.27;" offset="1.0000000" id="stop18124"/>
    </linearGradient>
    <linearGradient id="linearGradient17376">
      <stop style="stop-color: rgb(245, 184, 165); stop-opacity: 1;" offset="0" id="stop17378"/>
      <stop style="stop-color: rgb(245, 184, 220); stop-opacity: 1;" offset="1.0000000" id="stop17380"/>
    </linearGradient>
    <linearGradient id="linearGradient17350">
      <stop id="stop17362" offset="1.0000000" style="stop-color: rgb(244, 179, 53); stop-opacity: 1;"/>
      <stop style="stop-color: rgb(243, 182, 163); stop-opacity: 0;" offset="1.0000000" id="stop17354"/>
    </linearGradient>
    <linearGradient id="linearGradient15826">
      <stop style="stop-color: rgb(0, 0, 0); stop-opacity: 1;" offset="0" id="stop15828"/>
      <stop id="stop15854" offset="0" style="stop-color: rgb(0, 0, 0); stop-opacity: 0.74902;"/>
      <stop id="stop15850" offset="1.0000000" style="stop-color: rgb(0, 0, 0); stop-opacity: 0.34902;"/>
    </linearGradient>
    <linearGradient id="linearGradient12170">
      <stop style="stop-color: rgb(255, 111, 46); stop-opacity: 1;" offset="0" id="stop12172"/>
      <stop id="stop12178" offset="0.50000000" style="stop-color: rgb(255, 0, 46); stop-opacity: 0.498039;"/>
      <stop style="stop-color: rgb(255, 111, 46); stop-opacity: 0;" offset="1" id="stop12174"/>
    </linearGradient>
    <linearGradient inkscape:collect="always" xlink:href="#linearGradient12170" id="linearGradient12176" x1="212.96182" y1="536.83069" x2="219.0732" y2="536.83069" gradientUnits="userSpaceOnUse"/>
    <linearGradient inkscape:collect="always" xlink:href="#linearGradient15826" id="linearGradient15832" x1="286.5441" y1="639.59955" x2="311.31305" y2="639.59955" gradientUnits="userSpaceOnUse" gradientTransform="matrix(1.41851, 0.299965, 0.455281, 0.947819, -395.183, -54.6259)"/>
    <linearGradient inkscape:collect="always" xlink:href="#linearGradient15826" id="linearGradient15862" gradientUnits="userSpaceOnUse" gradientTransform="matrix(-1.19354, -0.697477, -0.992764, 0.421622, 1274.36, 569.81)" x1="286.5441" y1="639.59955" x2="311.31305" y2="639.59955"/>
    <linearGradient inkscape:collect="always" xlink:href="#linearGradient15826" id="linearGradient15889" gradientUnits="userSpaceOnUse" gradientTransform="matrix(1.2897, -0.636493, 0.936391, 0.459452, -561.005, 528.72)" x1="286.5441" y1="639.59955" x2="311.31305" y2="639.59955"/>
    <linearGradient inkscape:collect="always" xlink:href="#linearGradient15826" id="linearGradient15895" gradientUnits="userSpaceOnUse" gradientTransform="matrix(-1.16825, -0.682699, -0.971728, 0.412689, 1351.19, 565.399)" x1="286.5441" y1="639.59955" x2="311.31305" y2="639.59955"/>
    <linearGradient inkscape:collect="always" xlink:href="#linearGradient18120" id="linearGradient18126" x1="119.6676" y1="437.03427" x2="217.91327" y2="437.03427" gradientUnits="userSpaceOnUse"/>
    <linearGradient inkscape:collect="always" xlink:href="#linearGradient18120" id="linearGradient18132" gradientUnits="userSpaceOnUse" x1="119.6676" y1="437.03427" x2="217.91327" y2="437.03427"/>
    <linearGradient inkscape:collect="always" xlink:href="#linearGradient20322" id="linearGradient20342" x1="126.92191" y1="602.5658" x2="262.28278" y2="602.5658" gradientUnits="userSpaceOnUse"/>
    <linearGradient inkscape:collect="always" xlink:href="#linearGradient21070" id="linearGradient21810" x1="278.88065" y1="565.56744" x2="338.02869" y2="565.56744" gradientUnits="userSpaceOnUse" gradientTransform="matrix(0.5, 0.866025, -0.866025, 0.5, 638.242, 9.71562)"/>
    <linearGradient inkscape:collect="always" xlink:href="#linearGradient23289" id="linearGradient23295" x1="189.59737" y1="613.44348" x2="233.41673" y2="613.44348" gradientUnits="userSpaceOnUse" gradientTransform="translate(-2.25771, 8.07568)"/>
    <linearGradient inkscape:collect="always" xlink:href="#linearGradient23289" id="linearGradient23301" gradientUnits="userSpaceOnUse" gradientTransform="translate(-8.94403, -6.59948)" x1="189.59737" y1="613.44348" x2="233.41673" y2="613.44348"/>
    <linearGradient inkscape:collect="always" xlink:href="#linearGradient23289" id="linearGradient23303" gradientUnits="userSpaceOnUse" gradientTransform="translate(-8.94403, -6.59948)" x1="189.59737" y1="613.44348" x2="233.41673" y2="613.44348"/>
    <linearGradient inkscape:collect="always" xlink:href="#linearGradient24047" id="linearGradient24063" x1="234.81104" y1="561.24573" x2="267.43561" y2="561.24573" gradientUnits="userSpaceOnUse" gradientTransform="matrix(1.32729, -0.266763, 0.195923, 0.974821, -186.375, 78.2015)"/>
    <radialGradient inkscape:collect="always" xlink:href="#linearGradient24083" id="radialGradient24081" cx="289.81702" cy="634.52655" fx="289.81702" fy="634.52655" r="20.439953" gradientTransform="matrix(1, 0, 0, 0.996057, 0, 2.50218)" gradientUnits="userSpaceOnUse"/>
  </defs>
  <sodipodi:namedview id="base" pagecolor="#ffffff" bordercolor="#666666" borderopacity="1.0" inkscape:pageopacity="0.0" inkscape:pageshadow="2" inkscape:zoom="2" inkscape:cx="228.89123" inkscape:cy="49.760364" inkscape:document-units="px" inkscape:current-layer="layer1" showguides="true" inkscape:guide-bbox="true" inkscape:window-width="1590" inkscape:window-height="1167" inkscape:window-x="2" inkscape:window-y="0"/>
  <metadata id="metadata7">
    <rdf:RDF>
      <cc:Work rdf:about="">
        <dc:format>image/svg+xml</dc:format>
        <dc:type rdf:resource="http://purl.org/dc/dcmitype/StillImage"/>
      </cc:Work>
    </rdf:RDF>
  </metadata>
  <g inkscape:label="Layer 1" inkscape:groupmode="layer" id="layer1" transform="translate(-192.427, -415.387)">
    <path style="fill: url(#linearGradient15895) rgb(0, 0, 0); fill-opacity: 1; fill-rule: evenodd; stroke: none; stroke-width: 1; stroke-linecap: butt; stroke-linejoin: miter; stroke-miterlimit: 4; stroke-dasharray: none; stroke-opacity: 0.00392157;" d="M 393.88085,621.63108 C 390.69727,630.17206 388.91699,635.77465 388.91699,635.77465 L 380.76163,627.68736 L 369.49856,630.3706 L 371.63442,614.92405 L 393.88085,621.63108 z " id="path15891"/>
    <path style="fill: rgb(244, 180, 169); fill-opacity: 1; fill-rule: evenodd; stroke: rgb(168, 22, 12); stroke-width: 2.44688; stroke-linecap: butt; stroke-linejoin: miter; stroke-miterlimit: 4; stroke-dasharray: none; stroke-opacity: 1;" d="M 405.81634,582.47015 C 405.81634,582.47015 393.37955,607.91101 392.93156,620.56728 C 392.48351,633.22354 372.62255,614.55726 372.62255,614.55726 C 372.62255,614.55726 367.4537,600.60336 371.62018,590.65157 C 375.78668,580.69978 377.81042,570.46384 377.81042,570.46384 L 405.81634,582.47015 z " id="path15893"/>
    <path style="fill: url(#linearGradient15862) rgb(0, 0, 0); fill-opacity: 1; fill-rule: evenodd; stroke: none; stroke-width: 1; stroke-linecap: butt; stroke-linejoin: miter; stroke-miterlimit: 4; stroke-dasharray: none; stroke-opacity: 0.00392157;" d="M 296.32585,627.25937 C 293.07335,635.98525 291.25454,641.70911 291.25454,641.70911 L 282.92263,633.44675 L 271.41574,636.18808 L 273.59783,620.40715 L 296.32585,627.25937 z " id="path15856"/>
    <path style="fill: rgb(244, 176, 173); fill-opacity: 1; fill-rule: evenodd; stroke: rgb(168, 15, 15); stroke-width: 2.44688; stroke-linecap: butt; stroke-linejoin: miter; stroke-miterlimit: 4; stroke-dasharray: none; stroke-opacity: 1;" d="M 308.0662,588.44003 C 308.0662,588.44003 295.62941,613.88089 295.18142,626.53716 C 294.73337,639.19342 274.87241,620.52714 274.87241,620.52714 C 274.87241,620.52714 269.70356,606.57324 273.87004,596.62145 C 278.03654,586.66966 280.06028,576.43372 280.06028,576.43372 L 308.0662,588.44003 z " id="path15858"/>
    <path sodipodi:type="arc" style="opacity: 1; fill: rgb(244, 183, 164); fill-opacity: 1; fill-rule: nonzero; stroke: none; stroke-width: 2; stroke-linecap: butt; stroke-linejoin: miter; stroke-miterlimit: 4; stroke-dasharray: none; stroke-dashoffset: 0pt; stroke-opacity: 1;" id="path15860" sodipodi:cx="330.36264" sodipodi:cy="595.70709" sodipodi:rx="5.7368035" sodipodi:ry="11.004733" d="M 330.39736,584.70256 A 5.7368035,11.004733 0 1 1 330.36264,584.70236" sodipodi:start="4.7184409" sodipodi:end="10.995574" sodipodi:open="true" transform="matrix(-1.43994, -1.12496, -0.431041, 1.30177, 1017.71, 166.972)"/>
    <path style="fill: url(#linearGradient15832) rgb(0, 0, 0); fill-opacity: 1; fill-rule: evenodd; stroke: none; stroke-width: 1; stroke-linecap: butt; stroke-linejoin: miter; stroke-miterlimit: 4; stroke-dasharray: none; stroke-opacity: 0.00392157;" d="M 312.23334,629.63088 C 308.41247,637.85587 305.66509,643.04389 305.66509,643.04389 L 318.02196,642.77244 L 324.85099,652.26272 L 334.59469,639.82484 L 312.23334,629.63088 z " id="path15098"/>
    <path sodipodi:type="arc" style="opacity: 1; fill: rgb(244, 176, 174); fill-opacity: 1; fill-rule: nonzero; stroke: rgb(168, 15, 15); stroke-width: 1.43023; stroke-linecap: butt; stroke-linejoin: miter; stroke-miterlimit: 4; stroke-dasharray: none; stroke-dashoffset: 0pt; stroke-opacity: 1;" id="path7796" sodipodi:cx="416.91446" sodipodi:cy="515.63068" sodipodi:rx="37.901314" sodipodi:ry="44.320084" d="M 454.81577 515.63068 A 37.901314 44.320084 0 1 1  379.01315,515.63068 A 37.901314 44.320084 0 1 1  454.81577 515.63068 z" transform="matrix(2.14499, -0.301948, 0.0968188, 1.5184, -566.868, -119.37)"/>
    <path style="fill: rgb(244, 176, 174); fill-opacity: 1; stroke: rgb(169, 15, 15); stroke-width: 2.5; stroke-miterlimit: 4; stroke-dasharray: none; stroke-opacity: 1;" d="M 303.54861,591.79642 C 297.80244,593.16894 287.68991,591.51743 282.79235,588.87096 C 280.06181,587.39547 276.9341,585.46434 275.84189,584.57956 C 272.78787,582.10556 270.25764,581.80362 261.5076,582.869 C 250.49399,584.20998 234.62775,583.62031 231.03115,581.73634 C 226.81388,579.52726 224.17833,576.15092 222.35813,570.62552 C 219.87522,563.08847 220.25416,557.88084 223.73788,551.66402 C 226.29397,547.10261 227.59826,545.91728 232.49829,543.7026 C 238.04975,541.19349 238.29726,540.91821 239.42476,535.99876 C 240.06788,533.19279 240.86509,528.34475 241.19633,525.22533 C 241.52758,522.10591 242.9528,516.03311 244.36346,511.73021 C 246.54789,505.06714 246.71622,503.76531 245.49833,502.95308 C 243.15993,501.39355 238.5794,502.83575 234.0815,506.54771 C 226.40352,512.88407 221.9583,513.52483 216.15482,509.13176 C 209.56457,504.14314 207.69858,501.81204 203.7302,493.61024 C 201.61633,489.24135 198.79207,484.516 197.45405,483.10945 C 196.07168,481.65629 194.73101,478.72393 194.34902,476.31805 L 193.67676,472.08401 L 198.51764,472.16833 C 201.18012,472.21471 204.69896,471.72654 206.33728,471.08351 C 212.33294,468.73028 224.23783,462.54184 225.22693,461.26424 C 225.8075,460.51432 228.44309,459.90012 231.36849,459.83301 C 239.35595,459.64977 247.34198,464.13089 257.01027,474.22111 C 263.15108,480.6299 265.58583,482.51862 267.8985,482.66749 C 269.53683,482.77295 271.32409,482.49137 271.8702,482.04176 C 272.4163,481.59215 275.99083,480.01394 279.81358,478.53462 C 285.7013,476.25621 288.43406,475.82268 297.68619,475.69931 C 306.49445,475.58185 309.2372,475.89957 311.85754,477.3409 L 315.10673,479.12814 L 318.0998,475.8409 C 322.29932,471.22864 322.58135,468.95202 320.03508,460.21922 C 317.58558,451.81834 317.04488,438.68279 318.94506,433.73856 C 319.5401,432.19026 320.02696,427.87776 320.02696,424.15523 C 320.02696,420.4327 320.27146,417.14074 320.5703,416.83977 C 321.53269,415.87052 328.32678,418.51895 333.37758,421.83223 C 336.07851,423.60402 338.59892,425.05366 338.9785,425.05366 C 339.35807,425.05366 343.07102,429.31397 347.22948,434.52101 C 351.38795,439.72805 356.75606,446.02537 359.15861,448.51504 C 365.12781,454.70066 367.70011,462.82684 366.77353,472.57133 C 366.40836,476.41161 365.57659,480.52594 364.92514,481.71428 C 363.35079,484.58613 358.29083,487.61566 352.79341,488.97787 C 344.87707,490.93946 340.44272,492.43463 337.71653,494.06148 L 335.05119,495.65201 L 337.44779,499.60284 C 341.55056,506.36633 344.83021,513.46499 344.84033,515.60366 C 344.84566,516.73116 345.23684,518.08116 345.70961,518.60366 C 347.82694,520.9437 348.8079,534.48586 347.55562,544.08788 C 346.48153,552.32365 345.71083,554.68063 341.89658,561.3946 C 339.468,565.66947 335.56449,571.42831 333.22212,574.19203 C 333.22212,574.19203 324.56224,582.19964 318.83675,585.39616 C 311.30995,589.59835 303.74674,591.74909 303.54861,591.79642 z " id="path1729" sodipodi:nodetypes="cssssssssssssssscccsssssssscccssssssssssscccsssssss"/>
    <path sodipodi:type="arc" style="opacity: 1; fill: url(#linearGradient20342) rgb(0, 0, 0); fill-opacity: 1; fill-rule: nonzero; stroke: none; stroke-width: 1; stroke-linecap: butt; stroke-linejoin: miter; stroke-miterlimit: 4; stroke-dasharray: none; stroke-dashoffset: 0pt; stroke-opacity: 1;" id="path19592" sodipodi:cx="194.60234" sodipodi:cy="602.5658" sodipodi:rx="67.680435" sodipodi:ry="67.680435" d="M 194.60234,534.88536 A 67.680435,67.680435 0 1 1 194.60232,534.88536" sodipodi:start="4.712389" sodipodi:end="10.995574" sodipodi:open="true" transform="matrix(0.675707, 0.317262, -0.305306, 0.746557, 353.03, 22.9662)"/>
    <path style="fill: url(#linearGradient24063) rgb(0, 0, 0); fill-opacity: 1; fill-rule: evenodd; stroke: none; stroke-width: 0.997221px; stroke-linecap: butt; stroke-linejoin: miter; stroke-opacity: 1;" d="M 232.99689,543.58181 L 252.08939,537.40957 C 252.08939,537.40957 288.33188,537.32034 280.83361,558.7117 C 273.33534,580.10305 252.78124,582.58282 252.78124,582.58282 C 252.78124,582.58282 260.5799,551.56028 233.90504,548.95175" id="path24037" sodipodi:nodetypes="cczcc"/>
    <path transform="matrix(1.12179, 0, 0, 1.0097, -84.1554, -77.4758)" sodipodi:type="arc" style="opacity: 1; fill: url(#radialGradient24081) rgb(0, 0, 0); fill-opacity: 1; fill-rule: nonzero; stroke: rgb(168, 14, 15); stroke-width: 2.20717; stroke-linecap: butt; stroke-linejoin: miter; stroke-miterlimit: 4; stroke-dasharray: none; stroke-dashoffset: 0pt; stroke-opacity: 1;" id="path3396" sodipodi:cx="289.81702" sodipodi:cy="634.52655" sodipodi:rx="20.439953" sodipodi:ry="20.35935" d="M 289.81702,614.1672 A 20.439953,20.35935 0 1 1 289.81701,614.1672" sodipodi:start="4.712389" sodipodi:end="10.995574" sodipodi:open="true"/>
    <path sodipodi:type="arc" style="opacity: 1; fill: rgb(236, 139, 168); fill-opacity: 1; fill-rule: nonzero; stroke: rgb(160, 96, 12); stroke-width: 2.16393; stroke-linecap: butt; stroke-linejoin: miter; stroke-miterlimit: 4; stroke-dasharray: none; stroke-dashoffset: 0pt; stroke-opacity: 1;" id="path3401" sodipodi:cx="125.49496" sodipodi:cy="534.17078" sodipodi:rx="3.9081476" sodipodi:ry="3.4739091" d="M 129.4031 534.17078 A 3.9081476 3.4739091 0 1 1  121.58681,534.17078 A 3.9081476 3.4739091 0 1 1  129.4031 534.17078 z" transform="translate(107.691, 29.8177)"/>
    <path sodipodi:type="arc" style="opacity: 1; fill: rgb(236, 138, 169); fill-opacity: 1; fill-rule: nonzero; stroke: rgb(160, 96, 12); stroke-width: 2.16393; stroke-linecap: butt; stroke-linejoin: miter; stroke-miterlimit: 4; stroke-dasharray: none; stroke-dashoffset: 0pt; stroke-opacity: 1;" id="path3403" sodipodi:cx="125.49496" sodipodi:cy="534.17078" sodipodi:rx="3.9081476" sodipodi:ry="3.4739091" d="M 129.4031 534.17078 A 3.9081476 3.4739091 0 1 1  121.58681,534.17078 A 3.9081476 3.4739091 0 1 1  129.4031 534.17078 z" transform="translate(122.6, 30.6862)"/>
    <path style="fill: url(#linearGradient21810) rgb(0, 0, 0); fill-opacity: 1; fill-rule: evenodd; stroke: none; stroke-width: 1px; stroke-linecap: butt; stroke-linejoin: miter; stroke-opacity: 1;" d="M 287.44389,575.65946 C 279.23329,586.65856 279.5933,585.1531 281.14247,586.54735 C 282.69164,587.9416 293.02973,593.22643 304.12033,590.74882 C 316.19715,588.05089 331.67989,577.61694 333.38397,573.27926 C 335.08806,568.94158 340.05561,560.85842 332.74909,562.17932 C 326.251,563.35407 309.96177,572.77238 320.45122,563.10114 C 324.19192,559.65222 330.64807,561.46275 330.51056,553.313 C 330.45356,549.93481 326.63764,546.03191 320.90571,550.5245 C 315.17378,555.01709 310.37136,554.08758 310.68119,550.67942 C 310.99103,547.27124 326.94747,538.13114 322.91963,530.23038 C 318.89179,522.32961 306.49781,522.38082 299.06242,527.59679 C 291.19999,533.11233 290.38707,540.29998 291.16166,549.28516 C 291.93624,558.27035 292.71083,566.32603 292.71083,566.32603 L 294.20228,570.36609 L 287.44389,575.65946 z " id="path18134" sodipodi:nodetypes="csssssssssssccc"/>
    <path sodipodi:type="arc" style="opacity: 1; fill: url(#linearGradient12176) rgb(0, 0, 0); fill-opacity: 1; fill-rule: nonzero; stroke: rgb(191, 1, 0); stroke-width: 0.385873; stroke-linecap: butt; stroke-linejoin: miter; stroke-miterlimit: 4; stroke-dasharray: none; stroke-dashoffset: 0pt; stroke-opacity: 1;" id="path5616" sodipodi:cx="213.15477" sodipodi:cy="536.83063" sodipodi:rx="5.7254782" sodipodi:ry="5.2483549" d="M 213.18942,531.58237 A 5.7254782,5.2483549 0 0 1 213.15477,542.07898 L 213.15477,536.83063 z" sodipodi:start="4.7184409" sodipodi:end="7.8539816" transform="matrix(-0.837991, -3.67116, 1.24973, -0.710135, -204.374, 1738.33)"/>
    <path style="fill: none; fill-opacity: 0.75; fill-rule: evenodd; stroke: rgb(168, 15, 15); stroke-width: 2.1; stroke-linecap: butt; stroke-linejoin: miter; stroke-miterlimit: 4; stroke-dasharray: none; stroke-opacity: 1;" d="M 270.31118,582.26387 C 299.54991,572.42113 307.07672,562.86788 301.28687,548.97224" id="path3409"/>
    <path sodipodi:type="arc" style="opacity: 1; fill: rgb(0, 0, 0); fill-opacity: 1; fill-rule: nonzero; stroke: rgb(0, 0, 0); stroke-width: 0.9; stroke-linecap: butt; stroke-linejoin: miter; stroke-miterlimit: 4; stroke-dasharray: none; stroke-dashoffset: 0pt; stroke-opacity: 1;" id="path4137" sodipodi:cx="127.37666" sodipodi:cy="485.53604" sodipodi:rx="4.3423862" sodipodi:ry="4.3423862" d="M 127.40294,481.19373 A 4.3423862,4.3423862 0 1 1 127.38983,481.19367" sodipodi:start="4.7184409" sodipodi:end="10.998606" sodipodi:open="true" transform="matrix(0.577153, 0, 0, 0.577153, 181.238, 249.6)"/>
    <path sodipodi:type="arc" style="opacity: 1; fill: rgb(0, 0, 0); fill-opacity: 1; fill-rule: nonzero; stroke: rgb(0, 0, 0); stroke-width: 0.9; stroke-linecap: butt; stroke-linejoin: miter; stroke-miterlimit: 4; stroke-dasharray: none; stroke-dashoffset: 0pt; stroke-opacity: 1;" id="path5596" sodipodi:cx="127.37666" sodipodi:cy="485.53604" sodipodi:rx="4.3423862" sodipodi:ry="4.3423862" d="M 127.40294,481.19373 A 4.3423862,4.3423862 0 1 1 127.38983,481.19367" sodipodi:start="4.7184409" sodipodi:end="10.998606" sodipodi:open="true" transform="matrix(0.577153, 0, 0, 0.577153, 205.844, 252.784)"/>
    <path style="fill: rgb(245, 177, 174); fill-opacity: 1; fill-rule: evenodd; stroke: rgb(169, 15, 15); stroke-width: 2.51345; stroke-linecap: butt; stroke-linejoin: miter; stroke-miterlimit: 4; stroke-dasharray: none; stroke-opacity: 1;" d="M 332.02368,593.52356 C 332.02368,593.52356 322.95055,620.01963 313.94539,629.33757 C 304.94021,638.65552 334.28247,638.7272 334.28247,638.7272 C 334.28247,638.7272 348.64279,632.26584 352.73858,622.37146 C 356.83438,612.47708 362.81717,603.82268 362.81717,603.82268 L 332.02368,593.52356 z " id="path12910"/>
    <path style="fill: url(#linearGradient15889) rgb(0, 0, 0); fill-opacity: 1; fill-rule: evenodd; stroke: none; stroke-width: 1; stroke-linecap: butt; stroke-linejoin: miter; stroke-miterlimit: 4; stroke-dasharray: none; stroke-opacity: 0.00392157;" d="M 410.20895,628.04455 C 412.27706,636.79981 413.31863,642.52924 413.31863,642.52924 L 422.78372,634.7363 L 433.92926,637.94372 L 433.89299,622.27087 L 410.20895,628.04455 z " id="path15883"/>
    <path style="fill: rgb(244, 176, 173); fill-opacity: 1; fill-rule: evenodd; stroke: rgb(168, 15, 15); stroke-width: 2.51345; stroke-linecap: butt; stroke-linejoin: miter; stroke-miterlimit: 4; stroke-dasharray: none; stroke-opacity: 1;" d="M 403.24543,588.01918 C 403.24543,588.01918 412.50403,614.45101 411.19122,627.34261 C 409.87839,640.23423 432.97921,622.14209 432.97921,622.14209 C 432.97921,622.14209 439.51621,608.36524 437.36542,597.87484 C 435.23978,587.5071 433.63334,577.09577 433.63334,577.09577 L 403.24543,588.01918 z " id="path15885" sodipodi:nodetypes="cscscc"/>
    <path sodipodi:type="arc" style="opacity: 1; fill: url(#linearGradient18126) rgb(0, 0, 0); fill-opacity: 1; fill-rule: nonzero; stroke: none; stroke-width: 1; stroke-linecap: butt; stroke-linejoin: miter; stroke-miterlimit: 4; stroke-dasharray: none; stroke-dashoffset: 0pt; stroke-opacity: 1;" id="path17392" sodipodi:cx="168.79044" sodipodi:cy="437.03427" sodipodi:rx="49.122818" sodipodi:ry="19.575258" d="M 169.08772,417.45937 A 49.122818,19.575258 0 1 1 168.79042,417.45901" sodipodi:start="4.7184409" sodipodi:end="10.995574" sodipodi:open="true" transform="matrix(0.287557, -0.436857, 0.61528, 0.424247, 30.6883, 485.868)"/>
    <path sodipodi:type="arc" style="opacity: 1; fill: url(#linearGradient18132) rgb(0, 0, 0); fill-opacity: 1; fill-rule: nonzero; stroke: none; stroke-width: 1; stroke-linecap: butt; stroke-linejoin: miter; stroke-miterlimit: 4; stroke-dasharray: none; stroke-dashoffset: 0pt; stroke-opacity: 1;" id="path18130" sodipodi:cx="168.79044" sodipodi:cy="437.03427" sodipodi:rx="49.122818" sodipodi:ry="19.575258" d="M 169.08772,417.45937 A 49.122818,19.575258 0 1 1 168.79042,417.45901" sodipodi:start="4.7184409" sodipodi:end="10.995574" sodipodi:open="true" transform="matrix(-0.0986672, -0.513631, -0.731496, 0.156609, 755.037, 601.916)"/>
    <path style="fill: none; fill-opacity: 1; fill-rule: evenodd; stroke: rgb(168, 15, 15); stroke-width: 8; stroke-linecap: butt; stroke-linejoin: miter; stroke-miterlimit: 4; stroke-dasharray: none; stroke-opacity: 1;" d="M 442.9727,496.55789 C 457.32931,481.63826 460.37937,470.13948 451.49783,464.87633 C 443.89727,460.37229 430.13762,469.22192 441.5038,479.27248" id="path1392" sodipodi:nodetypes="csz"/>
    <path style="fill: none; fill-opacity: 1; fill-rule: evenodd; stroke: rgb(245, 177, 174); stroke-width: 4.25; stroke-linecap: butt; stroke-linejoin: miter; stroke-miterlimit: 4; stroke-dasharray: none; stroke-opacity: 1;" d="M 442.88808,496.78169 C 457.24469,481.86206 460.36799,470.21681 451.48645,464.95366 C 443.88589,460.44962 430.12624,469.29925 441.49242,479.34981" id="path6494" sodipodi:nodetypes="csz"/>
    <path style="fill: none; fill-opacity: 1; fill-rule: evenodd; stroke: rgb(168, 15, 15); stroke-width: 8; stroke-linecap: butt; stroke-linejoin: miter; stroke-miterlimit: 4; stroke-dasharray: none; stroke-opacity: 1;" d="M 441.23433,479.03613 C 456.41806,493.11314 467.37041,478.26779 472.46768,469.29001" id="path10126" sodipodi:nodetypes="cs"/>
    <path style="fill: none; fill-opacity: 1; fill-rule: evenodd; stroke: rgb(245, 176, 175); stroke-width: 4.25; stroke-linecap: butt; stroke-linejoin: miter; stroke-miterlimit: 4; stroke-dasharray: none; stroke-opacity: 1;" d="M 441.04804,479.04778 C 456.23177,493.12479 467.18412,478.27944 472.28139,469.30166" id="path2862" sodipodi:nodetypes="cs"/>
    <path style="fill: rgb(0, 0, 0); fill-opacity: 1; fill-rule: evenodd; stroke: rgb(168, 15, 15); stroke-width: 1.875; stroke-linecap: butt; stroke-linejoin: miter; stroke-miterlimit: 4; stroke-dasharray: none; stroke-opacity: 1;" d="M 468.98554,468.42508 L 475.00632,471.89244" id="path13768"/>
  </g>
</svg>