<?xml version="1.0" encoding="UTF-8" standalone="no"?>
<!-- Created with Inkscape (http://www.inkscape.org/) -->
<svg xmlns:svg="http://www.w3.org/2000/svg" xmlns="http://www.w3.org/2000/svg" xmlns:inkscape="http://www.inkscape.org/namespaces/inkscape" version="1.0" width="389.172" height="438.07901" viewBox="0 0 389.172 438.079" id="Layer_1" xml:space="preserve"><defs id="defs118"><filter id="filter3349" height="1.915313" y="-0.45765647" width="1.8181349" x="-0.40906745"><feGaussianBlur id="feGaussianBlur3351" stdDeviation="3.85137" inkscape:collect="always"/></filter></defs>




























<g transform="matrix(1.20814, 0, 0, 1.20814, -39.5064, -43.9291)" id="g3353"><path d="M 80.55804,67.686452 C 76.45204,66.025452 73.49804,64.364452 71.69904,62.195452 C 70.03804,59.980452 68.79204,57.811452 69.90004,54.951452 C 71.23804,51.859452 74.79104,47.199452 78.62104,44.891452 C 82.58904,42.631452 88.77204,41.892452 92.87904,41.985452 C 97.07804,42.077452 100.53904,43.277452 103.07704,45.214452 C 105.70704,47.014452 107.59804,49.597452 108.56804,52.966452 L 108.56804,52.966452 C 113.87404,51.350452 118.76504,50.981452 123.93304,51.674452 C 129.14704,52.459452 136.16104,56.381452 139.11404,57.212452 C 142.11304,57.719452 141.55904,56.981452 141.37404,55.735452 C 141.37404,54.489452 140.63604,51.582452 138.65204,50.060452 C 136.76004,48.399452 133.66904,47.061452 129.56204,46.046452 L 129.56204,46.046452 C 132.79204,44.292452 135.92904,43.969452 138.97504,45.076452 C 142.11304,46.138452 145.85004,49.737452 147.88104,52.321452 C 150.05004,54.813452 150.51104,58.827452 151.57204,59.935452 C 152.91004,60.858452 153.87904,59.796452 154.66404,57.997452 C 155.44804,56.013452 156.23304,51.814452 155.95604,48.769452 C 155.72604,45.631452 155.03404,42.632452 153.51104,39.586452 L 153.51104,39.586452 C 156.78604,42.539452 158.72404,45.815452 159.32404,49.414452 C 159.97004,52.921452 157.01704,59.657452 157.38604,60.903452 C 157.98604,61.965452 159.60104,60.349452 162.41504,56.058452 L 162.41504,56.058452 C 160.75404,59.796452 160.15404,62.288452 160.61604,63.349452 C 161.26204,64.272452 163.84504,63.995452 165.32204,62.518452 C 166.79904,60.903452 168.87504,57.212452 169.05904,54.628452 C 169.33604,52.090452 168.41304,49.598452 166.47504,47.337452 L 166.47504,47.337452 C 169.70504,49.275452 171.41304,51.490452 171.96604,53.797452 C 172.47404,56.057452 170.58104,59.195452 169.52104,61.226452 C 168.55204,63.164452 167.30604,64.456452 165.96704,65.287452 L 165.96704,65.287452 C 168.41304,66.533452 170.07404,68.147452 171.13604,69.948452 C 172.28904,71.701452 172.65804,73.823452 172.42704,76.131452 L 172.42704,76.131452 C 174.22804,76.916452 175.51904,77.653452 176.48804,78.530452 C 177.45804,79.314452 178.05704,80.238452 178.28904,81.114452 L 178.28904,81.114452 C 183.96404,78.899452 189.45504,77.608452 194.76204,77.422452 C 200.39004,77.192452 205.65304,76.822452 210.31104,79.683452 C 214.65004,82.452452 218.43204,87.066452 221.29304,93.895452 L 221.29304,93.895452 C 224.89304,94.126452 227.84504,95.049452 230.66104,97.218452 C 233.38204,99.248452 235.64204,102.15545 237.44204,106.12345 C 239.05604,109.95345 241.08704,115.12145 240.53404,120.19645 C 239.84304,125.17945 237.99604,132.84045 233.75204,135.88445 C 229.32104,138.74545 220.51004,139.16045 215.15704,137.49945 C 209.71204,135.70045 204.86604,130.16345 202.05204,125.68745 C 199.37604,121.07345 198.54504,114.75145 198.31504,110.64545 C 197.99204,106.49245 198.86904,103.58545 200.43804,101.41645 L 200.43804,101.41645 C 198.31504,99.063452 196.09904,97.447452 193.60904,96.756452 C 191.20804,95.971452 188.62504,95.971452 185.85604,96.756452 L 185.85604,96.756452 C 190.28604,98.740452 192.22404,102.70945 192.17604,108.84545 C 192.17604,114.98245 186.17904,126.28745 185.21004,133.30145 C 184.33304,140.08445 184.93304,145.57545 186.82404,149.77445 L 186.82404,149.77445 C 192.59204,150.14345 197.99104,152.03545 202.83604,155.26545 C 207.72804,158.54045 212.98604,164.12445 216.12604,169.33845 C 219.17004,174.36745 220.60304,179.58145 220.78504,185.34945 L 220.78504,185.34945 L 218.71004,183.36545 L 218.71004,183.36545 C 219.67904,187.24045 219.44804,190.79445 218.20104,194.20845 C 216.81704,197.48445 214.46404,200.89945 210.77304,203.76045 C 206.94304,206.62145 202.00404,209.15845 195.59004,211.37345 L 195.59004,211.37345 C 203.94404,209.43545 209.38904,209.38945 211.74104,211.05045 C 214.04704,212.75745 208.83304,218.34145 209.80204,221.38645 C 210.68104,224.15545 218.20004,224.15545 217.23204,228.49145 C 216.17004,232.78245 211.65004,239.15145 203.48104,247.40945 L 203.48104,247.40945 C 205.97404,253.77645 209.20404,259.63745 213.35704,265.49745 C 217.41804,271.31145 221.61604,276.98645 228.07704,282.01645 C 234.53604,286.76945 244.36404,290.69245 251.51604,294.47645 C 258.48304,298.07545 264.75904,300.10545 269.65104,304.30445 C 274.26404,308.50245 277.35604,315.23945 279.66204,319.53145 C 281.97104,323.63845 282.93904,326.86745 283.07704,329.22045 L 283.07704,329.22045 C 286.90704,325.85245 288.84504,322.20745 288.89204,317.73145 C 288.84404,313.25545 287.13604,307.76445 283.07704,302.68845 C 278.69304,297.61345 269.78904,293.09145 263.83604,287.18545 C 257.79304,281.09445 251.14804,274.31145 247.64204,266.32845 C 244.04104,258.20745 242.65804,249.25645 242.98004,238.96645 L 242.98004,238.96645 C 243.67404,241.87445 244.13404,243.81145 244.73304,245.47245 C 245.14804,246.94945 245.70404,247.87245 246.02704,248.05545 L 246.02704,248.05545 C 247.27104,241.18145 249.16404,234.95145 251.70304,229.18345 C 254.28604,223.23045 258.11604,217.46345 261.25304,213.49445 C 264.30004,209.48045 266.97604,207.12745 269.65204,205.88145 L 269.65204,205.88145 C 266.79104,213.54145 266.09704,220.87745 267.39104,228.07545 C 268.63504,235.22745 273.52704,243.90345 277.26404,248.93245 C 280.81704,253.91545 284.69504,256.86845 288.89304,257.97545 L 288.89304,257.97545 L 287.73904,254.60745 L 287.73904,254.60745 C 294.66104,257.51345 300.42804,260.19145 305.22704,262.82145 C 309.88604,265.35845 313.07104,267.66645 316.20904,270.11145 C 319.25304,272.41945 321.79204,274.67945 323.82204,276.89345 L 323.82204,276.89345 C 323.68404,275.14045 323.36104,273.57245 323.03804,272.55645 C 322.66804,271.49445 322.30004,270.61845 321.74404,270.29545 L 321.74404,270.29545 C 326.03704,273.94145 329.31104,278.46345 331.75804,284.36845 C 334.20304,290.18245 336.18904,297.28845 336.28104,304.94845 C 336.23304,312.51445 335.03404,321.60645 331.24904,329.17345 C 327.05104,336.46445 320.68604,345.64745 312.51704,349.06145 C 304.35104,352.29045 294.66104,352.24545 282.89404,348.92245 L 282.89404,348.92245 C 281.83204,355.10645 279.61804,360.55045 276.43304,365.44145 C 273.15904,370.28745 268.91204,374.53245 263.51304,378.17745 L 263.51304,378.17745 C 265.95904,380.20745 266.65304,382.32945 265.59104,384.54445 C 264.48204,386.66745 262.40604,389.29745 256.68404,391.18845 C 250.64104,392.89645 240.90504,395.48045 230.33804,395.38745 C 219.67904,395.20345 207.68204,393.58745 193.60904,390.35845 L 193.60904,390.35845 C 186.96304,393.31145 180.22704,394.92645 173.39704,395.20445 C 166.47604,395.43445 159.83204,394.18945 152.72604,391.65045 L 152.72604,391.65045 C 152.49604,392.75845 151.25004,393.31145 148.98904,392.80445 C 146.68204,392.29645 142.02104,391.83545 139.29904,388.92745 C 136.71604,385.74445 135.05404,381.17645 133.80804,374.53145 L 133.80804,374.53145 C 133.34704,374.48545 132.47004,374.25445 131.68504,374.02345 C 130.90104,373.70045 129.93204,373.33145 128.77804,372.91545 L 128.77804,372.91545 C 122.73404,372.17945 118.48804,370.88545 115.16604,368.85545 C 112.16604,366.68745 110.69004,363.68745 109.85904,360.91845 C 109.07504,358.19645 109.12104,355.56445 110.18204,352.84345 L 110.18204,352.84345 C 107.82804,353.58145 106.81304,352.93545 106.62904,350.72145 C 106.58304,348.32245 108.01404,343.01445 109.67404,339.60145 C 111.47304,336.23245 113.59604,332.77245 117.47204,330.83345 C 121.71704,328.75645 128.82304,327.51145 133.80604,327.78745 C 138.74404,327.97345 143.21904,329.54145 147.04904,332.30945 L 147.04904,332.30945 C 149.67904,331.66345 151.94004,330.00245 153.83204,327.14145 C 155.81604,324.18845 157.24704,318.19045 158.67704,315.00545 C 160.29204,311.77645 161.63004,309.51445 163.06104,308.03845 L 163.06104,308.03845 C 162.46104,306.23845 161.90704,304.39245 161.58404,302.50145 C 161.26104,300.56345 161.16904,298.62445 161.12204,296.50345 L 161.12204,296.50345 L 158.67704,298.62445 L 158.67704,298.62445 C 157.80004,295.81145 157.20004,292.94945 157.24704,290.22745 C 157.20104,287.50445 157.80004,284.73645 158.67704,282.10645 L 158.67704,282.10645 L 156.41604,280.16845 L 156.41604,280.16845 C 156.50804,277.39945 157.15404,274.77045 158.53804,272.09245 C 159.96904,269.41645 163.43004,267.24845 164.67604,264.15645 C 166.06004,260.83445 166.47504,257.23445 166.29004,252.85145 L 166.29004,252.85145 C 162.36804,251.92945 160.06104,250.36045 158.86104,248.33045 C 157.84604,246.02145 160.84504,243.20845 159.64504,240.25445 C 158.49204,237.30145 152.35404,233.33445 151.89304,231.02645 C 151.61704,228.62745 155.63104,227.84245 157.89204,226.18145 C 160.24604,224.38145 162.83004,222.72045 165.64404,220.82945 L 165.64404,220.82945 C 159.92204,218.29045 154.43104,216.39845 149.17104,215.33845 C 143.95704,214.18445 138.51204,214.27645 134.26704,214.18445 C 130.11404,213.99945 126.83804,213.99945 124.25404,214.36945 L 124.25404,214.36945 C 122.77804,216.90745 119.54704,218.80045 114.37904,220.22945 C 109.21204,221.56745 101.13604,223.73645 93.33804,222.49145 C 85.67804,220.92245 75.25004,217.46145 68.79004,212.10945 C 62.46904,206.57145 57.67004,197.57345 55.82404,190.79145 C 54.16304,184.10145 55.08604,177.96345 58.59304,172.19645 L 58.59304,172.19645 C 54.57904,168.32045 52.96404,163.84445 53.74804,158.58445 C 54.71704,153.18645 59.60804,144.88045 63.43804,140.63545 C 67.40604,136.25245 73.12704,134.36045 76.68104,133.02245 C 80.23404,131.59145 83.00204,131.49945 84.80204,132.56145 L 84.80204,132.56145 L 89.46204,128.36245 L 89.46204,128.36245 C 91.95404,122.40945 93.80004,115.76545 94.81504,108.24445 C 95.92204,100.67745 96.24504,92.556452 95.78404,83.512452 L 95.78404,83.512452 C 91.63104,87.480452 88.40104,91.356452 86.09404,95.647452 C 84.01704,99.800452 83.14004,107.13645 82.21804,108.56745 C 81.38704,109.90545 80.55704,107.22945 80.41904,103.72345 C 80.28004,99.985452 79.77304,91.772452 81.38804,86.743452 C 83.18704,81.528452 86.09504,77.283452 90.61604,73.315452 L 90.61604,73.315452 L 85.91004,71.238452 L 85.91004,71.238452 C 83.64904,73.084452 81.61804,75.437452 79.45004,78.482452 C 77.32704,81.482452 75.38904,84.988452 73.45204,89.187452 L 73.45204,89.187452 C 75.02004,83.050452 76.31204,78.437452 77.51204,74.791452 C 78.71304,71.147452 79.72804,68.839452 80.55804,67.686452 L 80.55804,67.686452 z M 200.53004,352.06245 C 202.14404,353.53845 204.26704,355.24645 207.08104,356.99945 C 209.85004,358.66045 213.26504,360.55345 217.32504,362.49045 L 217.32504,362.49045 L 217.51104,364.84445 L 217.51104,364.84445 C 214.69504,362.76845 211.28004,361.79945 207.26704,361.56945 C 203.11404,361.42945 198.77604,362.02945 193.42304,363.73745 L 193.42304,363.73745 C 195.77704,360.73845 197.29804,358.43045 198.54504,356.44745 C 199.79104,354.41545 200.38904,353.07745 200.53004,352.06245 L 200.53004,352.06245 z " style="fill-rule: evenodd; stroke: rgb(0, 0, 0); stroke-width: 0.036; stroke-miterlimit: 10;" id="path5"/><path d="M 83.74204,64.917452 C 86.04904,62.610452 89.09404,60.718452 92.87804,58.734452 C 96.70904,56.750452 101.27604,55.042452 106.58204,53.427452 L 106.58204,53.427452 C 104.32204,49.320452 101.46104,46.875452 97.81504,45.398452 C 94.35404,43.921452 89.09404,44.152452 85.21804,45.029452 C 81.43504,45.813452 76.95904,47.935452 74.65204,50.150452 C 72.43704,52.273452 71.32904,55.595452 71.69804,57.810452 C 72.25204,59.840452 75.38904,61.548452 77.37304,62.748452 C 79.40504,63.856452 81.52704,64.640452 83.74204,64.917452 L 83.74204,64.917452 z " style="fill: rgb(200, 113, 55); fill-rule: evenodd; stroke: rgb(0, 0, 0); stroke-width: 0.036; stroke-miterlimit: 10;" id="path7"/><path d="M 88.31004,69.854452 C 89.04804,68.331452 90.57104,67.224452 92.87804,66.024452 C 95.32404,64.824452 98.55404,63.855452 102.56804,62.932452 L 102.56804,62.932452 C 99.84604,63.440452 97.76904,64.224452 96.15404,65.101452 C 94.67704,65.977452 93.70804,66.946452 93.24704,68.192452 L 93.24704,68.192452 C 94.40004,67.361452 95.73804,66.577452 97.07604,66.208452 C 98.41404,65.792452 99.93704,65.423452 101.46004,65.470452 L 101.46004,65.470452 C 98.55304,67.177452 96.43004,68.515452 94.90704,69.484452 C 93.52304,70.407452 92.78504,70.961452 92.69204,71.146452 L 92.69204,71.146452 C 91.26304,70.731452 89.78704,70.316452 88.31004,69.854452 L 88.31004,69.854452 z " style="fill: rgb(200, 113, 55); fill-rule: evenodd; stroke: rgb(0, 0, 0); stroke-width: 0.036; stroke-miterlimit: 10;" id="path9"/><path d="M 79.91204,74.422452 C 80.55804,70.869452 82.81904,67.870452 86.51104,64.917452 C 90.38704,61.872452 96.98504,58.965452 102.38404,57.073452 C 108.01404,55.135452 113.73504,53.751452 119.18004,53.798452 C 124.57804,53.798452 130.57704,55.782452 134.50004,57.258452 C 138.42204,58.550452 141.51304,62.334452 142.89704,61.826452 C 144.46604,61.134452 144.51204,55.966452 143.58904,53.613452 C 142.71304,51.122452 140.96004,49.183452 137.96004,47.430452 L 137.96004,47.430452 C 141.32904,48.814452 143.82004,50.383452 145.43504,52.321452 C 147.05004,54.305452 147.00404,56.567452 147.97304,58.735452 C 149.21904,60.719452 150.74204,63.303452 151.98804,63.995452 C 153.18804,64.503452 154.34104,63.902452 155.26404,62.011452 L 155.26404,62.011452 C 155.63304,63.857452 156.00204,64.780452 156.55604,65.287452 C 157.11004,65.563452 157.66204,65.425452 158.40204,64.364452 L 158.40204,64.364452 C 158.35504,65.886452 158.77104,66.809452 159.64704,67.132452 C 160.57004,67.363452 161.90804,67.178452 163.84604,66.210452 L 163.84604,66.210452 C 166.15304,67.640452 167.67604,69.163452 168.59904,70.963452 C 169.56804,72.809452 169.93704,74.516452 169.52204,76.776452 L 169.52204,76.776452 C 171.69104,77.514452 173.67404,78.483452 174.96604,79.868452 C 176.30404,81.160452 177.45804,82.867452 177.91904,84.805452 L 177.91904,84.805452 C 185.30204,80.837452 191.62304,78.945452 197.06704,78.622452 C 202.56004,78.391452 206.98804,81.159452 210.54104,83.189452 C 213.68104,84.989452 215.57004,86.696452 216.95504,89.742452 C 218.33904,92.787452 218.10804,99.939452 218.93904,101.23145 C 219.58504,102.38445 220.32404,100.86145 221.15504,96.663452 L 221.15504,96.663452 C 224.84504,97.033452 227.89104,98.555452 230.47504,101.23145 C 233.01304,103.86145 235.36704,108.10645 236.28804,112.53645 C 237.07404,116.78145 237.30504,123.19545 235.55304,126.97845 C 233.70504,130.67045 229.41404,133.76145 225.53904,134.82345 C 221.57104,135.51545 215.75604,134.77745 212.01804,132.42345 C 208.05004,130.07045 205.00604,124.81045 203.06604,121.11845 C 201.22104,117.38145 200.85304,114.56645 201.08404,110.18245 C 201.35904,105.61445 204.77404,96.109452 204.91404,94.309452 C 205.00704,92.556452 203.62304,94.033452 201.26904,99.247452 L 201.26904,99.247452 C 199.51404,96.940452 197.80704,95.417452 195.96104,94.494452 C 194.25404,93.525452 192.91504,93.571452 190.51604,93.756452 C 188.25504,93.848452 185.16304,94.402452 181.74904,95.417452 L 181.74904,95.417452 C 185.34804,98.093452 187.65504,101.00045 188.67004,104.32245 C 189.68604,107.55245 189.31604,110.73645 188.11704,114.93545 C 187.10104,118.95045 183.68704,124.62545 182.48704,128.77845 C 181.38004,132.74645 181.24104,135.60745 181.38004,139.16045 C 181.70204,142.62045 182.48704,146.03545 183.91704,149.58845 L 183.91704,149.58845 C 181.10404,150.23445 179.16504,151.01945 178.10404,151.75645 C 176.95104,152.54145 176.58204,153.87945 177.73504,154.15545 C 179.21204,154.20145 183.54904,152.40245 186.50304,152.49445 C 189.68704,152.54045 192.77804,153.04845 195.96204,154.52445 C 199.23904,155.95545 202.19104,157.43145 205.46804,160.70845 C 208.60504,163.93745 212.94304,169.79845 214.92604,173.12045 C 216.91004,176.25845 217.41904,178.19645 216.95604,179.30445 L 216.95604,179.30445 C 214.83504,177.68945 213.49604,177.32045 213.12804,178.01245 C 212.62004,178.75045 214.23404,180.64245 214.42004,183.68745 C 214.65004,186.54845 215.48204,191.39345 213.68204,194.99245 C 211.55904,198.40645 206.48204,201.86745 202.19104,204.49745 C 197.90004,207.08145 190.24104,208.41945 187.93404,210.49645 C 185.76504,212.48045 186.13404,214.37245 189.04004,216.35745 L 189.04004,216.35745 C 189.31704,218.80345 189.50204,220.92445 189.77804,222.54045 C 190.10204,224.15545 190.51604,225.30845 190.84004,226.00045 L 190.84004,226.00045 C 190.47104,226.96945 188.90204,227.89345 186.13404,228.76945 C 183.36504,229.64645 179.53504,230.43045 174.45904,231.30845 L 174.45904,231.30845 C 173.85904,229.32445 173.49004,227.61745 173.35304,225.81745 C 173.21404,223.97145 173.39804,222.40245 173.72204,220.74145 L 173.72204,220.74145 C 176.30504,220.37245 178.24304,218.84845 179.35104,216.17345 C 180.55004,213.45145 180.91904,205.05245 180.64304,204.49945 C 180.45804,204.03845 179.67304,210.22145 178.10504,212.71245 C 176.67404,215.06645 174.59804,217.60345 171.87604,218.34245 C 169.15304,218.71145 165.87804,216.86545 162.41704,215.98845 C 159.23304,215.06545 156.64904,213.68145 152.17404,213.08145 C 147.74404,212.43545 142.39104,211.83545 135.93104,211.78945 L 135.93104,211.78945 C 135.88604,210.31245 136.43904,209.34445 137.77704,208.88345 C 139.16104,208.37545 140.45404,208.37545 143.96104,208.88345 C 147.65204,209.25245 155.72804,211.69745 159.28004,211.78945 C 162.92604,211.92845 164.77104,211.14345 165.32504,209.43645 C 165.97104,207.40645 165.18604,203.11545 162.60204,200.30045 C 160.01804,197.43945 152.72704,195.40945 150.00504,192.27245 C 147.46704,188.85745 146.49804,185.02745 147.09804,180.41345 L 147.09804,180.41345 C 148.06704,179.72145 149.45204,180.09045 151.62004,181.33645 C 153.88104,182.58245 158.21904,187.19645 159.83304,187.88845 C 161.58704,188.30445 162.60204,186.50445 161.12504,184.79745 C 159.51004,183.18145 153.97304,179.25945 150.55904,178.19845 C 147.32904,176.95245 144.46804,177.13745 141.79204,177.69145 C 139.25404,178.10645 137.17704,179.49045 135.37804,181.33645 C 133.67104,183.22845 132.33304,185.71945 131.36304,188.99645 L 131.36304,188.99645 C 134.54704,191.48745 137.03904,193.79545 139.02304,195.91745 C 141.14604,197.90145 143.31504,200.20945 143.03704,201.59345 C 142.71404,202.83845 139.11604,202.37745 137.22404,203.94645 C 135.47104,205.51545 133.94804,207.82245 132.47204,211.05245 L 132.47204,211.05245 C 131.22604,211.37545 129.70304,211.55945 128.08804,211.42145 C 126.42604,211.28345 124.67304,210.91345 122.64304,210.31345 L 122.64304,210.31345 C 121.07404,213.45145 118.02904,215.71145 113.50604,217.28145 C 109.03004,218.84945 102.70904,220.28045 95.78804,219.63445 C 89.05104,218.71245 79.26904,216.40445 73.17804,212.34345 C 67.08704,208.00645 62.51904,200.02345 59.84304,194.80945 C 57.39704,189.45645 58.41204,185.21145 58.41204,181.70545 C 58.55004,178.33745 59.15004,175.89145 60.39604,174.55345 L 60.39604,174.55345 C 62.97904,180.04445 66.99404,184.24345 72.43904,187.33545 C 78.11404,190.38045 86.83504,193.51845 93.06404,193.01045 C 99.33904,192.31845 105.70704,188.21245 109.49104,183.68945 C 113.36704,179.07545 116.73604,171.87645 116.04404,166.01645 C 115.49004,159.87945 110.96804,153.55845 106.03104,148.11345 C 101.13904,142.53045 94.63404,137.96245 86.51304,133.53245 L 86.51304,133.53245 L 88.86604,131.87145 L 88.86604,131.87145 C 94.35704,132.42445 98.87904,133.76345 102.94004,135.70145 C 106.86204,137.45545 109.95304,139.34745 112.76804,143.36145 C 115.86004,147.56045 119.18204,157.01945 120.98104,159.97245 C 122.82704,162.46445 124.21104,161.63345 123.51904,159.41845 C 122.87304,157.25045 120.93604,153.05145 117.33604,147.00545 L 117.33604,147.00545 C 118.85904,145.66745 120.38104,145.43745 122.08904,146.12945 C 123.79604,146.86745 126.38104,148.62045 127.34904,151.38945 C 128.50204,153.88145 128.45604,157.89545 128.45604,161.63345 C 128.50204,165.41745 127.30304,172.10745 127.53404,173.67645 C 128.04104,174.92245 129.79504,171.73845 130.48704,169.84645 C 131.13304,167.90845 131.31804,165.69345 131.04104,162.69445 L 131.04104,162.69445 C 135.00904,161.03345 138.83904,157.75645 142.71504,153.05045 C 146.86804,148.15945 151.52804,141.19145 154.20504,134.08545 C 156.83504,126.74945 158.77304,116.27445 158.03504,110.32245 C 157.25004,104.46245 153.74304,100.40145 150.00604,99.201452 C 146.36104,97.955452 141.14704,99.755452 136.67104,102.84745 C 132.42604,105.75445 127.39704,112.21445 124.25804,117.05945 C 121.16604,121.90345 119.45904,126.70345 118.25904,131.27045 C 117.19804,135.60845 117.01304,139.43745 117.70604,142.94445 L 117.70604,142.94445 L 114.24504,141.88345 L 114.24504,141.88345 C 113.50604,140.12945 112.58404,138.79145 111.29204,137.68445 C 110.09204,136.57745 108.70804,135.83845 106.95504,135.46945 L 106.95504,135.46945 C 109.21604,130.16345 111.01604,124.81045 111.84604,119.59645 C 112.72304,114.15145 113.32304,107.73845 112.58504,103.90845 C 112.16904,100.12445 110.23204,96.756452 108.38604,97.356452 C 106.58604,97.956452 103.03304,102.89345 101.28004,107.18445 C 99.71104,111.19845 98.74204,117.98245 98.18804,121.99645 C 97.72704,126.05745 97.54204,128.91745 98.00304,131.08645 L 98.00304,131.08645 C 96.94104,130.90145 95.78804,130.67145 94.54204,130.57945 C 93.29604,130.44045 92.14304,130.44045 90.71204,130.39445 L 90.71204,130.39445 C 93.48104,124.11945 95.41904,117.84445 96.71104,111.38345 C 98.00304,104.92345 98.14104,96.941452 98.18704,91.865452 C 98.37204,86.651452 98.18704,82.822452 97.63304,80.191452 L 97.63304,80.191452 C 93.66404,82.960452 90.43404,85.820452 87.94304,88.774452 C 85.45104,91.727452 83.69804,94.773452 82.68304,97.910452 L 82.68304,97.910452 C 82.17504,93.895452 82.77504,89.881452 84.66704,85.682452 C 86.74404,81.344452 90.20504,76.315452 93.98804,72.900452 C 97.77104,69.532452 102.80104,67.271452 106.76904,65.609452 C 110.78404,63.856452 114.24404,62.702452 117.52004,62.333452 L 117.52004,62.333452 C 111.10604,61.364452 105.61504,61.364452 100.54004,62.148452 C 95.55704,62.932452 91.35804,64.870452 87.75904,67.086452 C 84.25004,69.070452 81.80404,71.515452 79.91204,74.422452 L 79.91204,74.422452 z " style="fill: rgb(200, 113, 55); fill-rule: evenodd; stroke: rgb(0, 0, 0); stroke-width: 0.036; stroke-miterlimit: 10;" id="path11"/><path d="M 100.53804,92.603452 C 101.09204,85.635452 102.43004,81.990452 104.36804,81.483452 C 106.44504,80.929452 109.12104,83.605452 112.58204,89.511452 L 112.58204,89.511452 C 110.04404,88.265452 107.73704,88.126452 105.66104,88.588452 C 103.72204,89.050452 102.01404,90.387452 100.53804,92.603452 L 100.53804,92.603452 z " style="fill-rule: evenodd; stroke: rgb(0, 0, 0); stroke-width: 0.036; stroke-miterlimit: 10;" id="path13"/><path d="M 102.19904,88.404452 C 102.52204,85.128452 103.30704,83.421452 104.55304,83.282452 C 105.84504,83.051452 107.55304,84.389452 109.85904,87.296452 L 109.85904,87.296452 C 107.41304,86.696452 105.75304,86.650452 104.36804,86.788452 C 103.02904,87.019452 102.47604,87.435452 102.19904,88.404452 L 102.19904,88.404452 z " style="fill: rgb(233, 198, 175); fill-rule: evenodd; stroke: rgb(0, 0, 0); stroke-width: 0.036; stroke-miterlimit: 10;" id="path15"/><path d="M 144.32704,88.588452 C 145.48004,84.527452 147.37204,81.483452 150.00204,79.452452 C 152.72404,77.237452 157.66104,75.022452 160.19904,76.176452 C 162.83004,77.329452 164.76704,81.990452 165.32104,86.604452 C 165.92204,91.080452 165.36704,96.479452 163.66004,102.98545 L 163.66004,102.98545 C 161.21504,96.663452 158.58504,92.234452 155.26204,89.881452 C 152.07904,87.435452 148.43404,87.066452 144.32704,88.588452 L 144.32704,88.588452 z " style="fill-rule: evenodd; stroke: rgb(0, 0, 0); stroke-width: 0.036; stroke-miterlimit: 10;" id="path17"/><path d="M 147.41904,86.050452 C 148.11004,83.789452 149.44904,82.082452 151.43304,80.743452 C 153.51004,79.267452 157.61604,77.052452 159.64604,78.021452 C 161.76904,79.036452 163.29204,83.558452 163.84504,86.972452 C 164.44504,90.202452 164.44504,93.847452 163.47604,97.723452 L 163.47604,97.723452 C 161.40004,92.971452 159.09204,89.556452 156.37004,87.664452 C 153.74004,85.728452 150.69404,85.127452 147.41904,86.050452 L 147.41904,86.050452 z " style="fill: rgb(233, 198, 175); fill-rule: evenodd; stroke: rgb(0, 0, 0); stroke-width: 0.036; stroke-miterlimit: 10;" id="path19"/><path d="M 79.35904,168.92245 C 79.35904,174.45945 84.38804,178.93545 90.61704,178.93545 C 96.80104,178.93545 101.83004,174.45945 101.83004,168.92245 C 101.83004,163.38545 96.80104,158.86345 90.61704,158.86345 C 84.38804,158.86345 79.35904,163.38545 79.35904,168.92245 L 79.35904,168.92245 z " style="fill: rgb(255, 255, 255); fill-rule: evenodd; stroke: rgb(0, 0, 0); stroke-width: 0.036; stroke-miterlimit: 10; filter: url(#filter3349);" id="path21"/><path d="M 99.29204,130.99345 C 98.96904,127.02445 99.01504,123.19545 99.43004,119.31945 C 99.89204,115.16645 100.63004,111.33645 102.01404,107.82945 C 103.62904,104.32245 106.58204,99.385452 108.19804,99.062452 C 109.99704,98.785452 110.96704,102.10745 111.47304,105.84545 C 111.98104,109.49145 111.51904,114.28945 110.59704,120.61145 L 110.59704,120.61145 C 108.88904,119.27345 107.36704,118.90345 106.02904,119.31945 C 104.69104,119.73445 103.35204,121.07245 102.56804,123.33345 C 101.87604,125.54845 101.69204,128.36345 101.83004,132.28545 L 101.83004,132.28545 C 100.99904,131.87045 100.16904,131.45445 99.29204,130.99345 L 99.29204,130.99345 z " style="fill: rgb(255, 255, 255); fill-rule: evenodd; stroke: rgb(0, 0, 0); stroke-width: 0.036; stroke-miterlimit: 10;" id="path23"/><path d="M 120.24104,130.48645 C 120.65604,127.11845 121.99404,123.75045 124.25504,119.87345 C 126.56304,115.99845 130.80704,110.73745 133.94504,107.64545 C 137.31304,104.41545 140.82004,101.87745 143.77404,101.09345 C 146.95804,100.35445 149.81804,100.95445 151.98704,103.07745 C 154.15504,105.01545 156.74004,107.36945 156.37004,113.50545 C 156.13904,119.68845 154.24704,131.82345 150.00204,139.76045 C 145.71104,147.51245 139.62004,154.20345 131.03804,160.01745 L 131.03804,160.01745 C 130.85304,157.38745 130.48404,155.31045 129.93104,153.28045 C 129.42404,151.25045 128.86904,149.54345 128.08504,148.15945 L 128.08504,148.15945 C 130.76104,145.02145 132.46904,141.79145 133.57604,138.65445 C 134.72904,135.33145 135.51404,131.22445 134.49904,129.00945 C 133.52904,126.79545 130.20704,125.22645 127.71604,125.54945 C 125.40804,125.73345 122.91704,127.44045 120.24104,130.48645 L 120.24104,130.48645 z " style="fill: rgb(255, 255, 255); fill-rule: evenodd; stroke: rgb(0, 0, 0); stroke-width: 0.036; stroke-miterlimit: 10;" id="path25"/><path d="M 124.80904,132.46945 C 124.80904,134.63745 126.79304,136.39145 129.19304,136.39145 C 131.59304,136.39145 133.57604,134.63745 133.57604,132.46945 C 133.57604,130.34645 131.59204,128.59445 129.19304,128.59445 C 126.79404,128.59445 124.80904,130.34745 124.80904,132.46945 L 124.80904,132.46945 z " style="fill: rgb(255, 255, 255); fill-rule: evenodd; stroke: rgb(0, 0, 0); stroke-width: 0.036; stroke-miterlimit: 10;" id="path27"/><path d="M 103.44504,122.73345 C 103.44504,124.02545 104.64504,125.08745 106.12104,125.08745 C 107.55204,125.08745 108.75104,124.02545 108.75104,122.73345 C 108.75104,121.44145 107.55204,120.38045 106.12104,120.38045 C 104.64504,120.38045 103.44504,121.44245 103.44504,122.73345 L 103.44504,122.73345 z " style="fill: rgb(255, 255, 255); fill-rule: evenodd; stroke: rgb(0, 0, 0); stroke-width: 0.036; stroke-miterlimit: 10;" id="path29"/><path d="M 133.94504,188.11745 C 134.22204,185.53345 135.42204,183.59645 137.03704,182.11845 C 138.88304,180.59545 141.14404,179.67345 144.32804,179.35045 L 144.32804,179.35045 C 144.55804,181.97945 144.74304,184.24145 144.88204,186.13345 C 145.15904,187.88645 145.34304,189.27045 145.62004,190.28545 L 145.62004,190.28545 C 144.32804,190.47045 143.35904,191.02445 142.52904,191.76245 C 141.79104,192.50045 141.23704,193.47045 140.86804,194.66945 L 140.86804,194.66945 C 139.34504,193.00845 138.00704,191.66945 136.85404,190.65545 C 135.69904,189.50245 134.72904,188.71745 133.94504,188.11745 L 133.94504,188.11745 z " style="fill: rgb(255, 255, 255); fill-rule: evenodd; stroke: rgb(0, 0, 0); stroke-width: 0.036; stroke-miterlimit: 10;" id="path31"/><path d="M 141.97404,196.33145 C 142.06604,195.13145 142.66604,194.34645 143.40404,193.79345 C 144.32704,193.05545 145.48104,192.63945 146.86504,193.05545 C 148.38804,193.47045 150.92604,195.27045 151.80304,196.70045 C 152.77204,198.13145 152.77204,200.25345 152.17204,201.63745 C 151.75604,202.83745 149.35704,203.80645 148.71104,204.72945 C 148.20404,205.74445 147.97304,206.52945 148.52604,207.45145 L 148.52604,207.45145 C 147.09504,207.08245 145.38904,206.89745 143.58804,206.89745 C 141.74304,206.80545 139.80504,206.99045 137.58904,207.26645 L 137.58904,207.26645 C 139.02004,206.25145 140.17304,205.28245 141.60404,204.35945 C 143.03404,203.43645 145.80304,202.88245 145.80304,201.63645 C 145.94204,200.25345 144.60404,198.54545 141.97404,196.33145 L 141.97404,196.33145 z " style="fill: rgb(255, 82, 0); fill-rule: evenodd; stroke: rgb(0, 0, 0); stroke-width: 0.036; stroke-miterlimit: 10;" id="path33"/><path d="M 155.26304,197.43845 C 156.41704,197.66945 160.15404,199.42245 161.30804,201.26845 C 162.73804,203.06845 163.47604,206.43645 162.96804,208.00545 C 162.50704,209.29745 160.56904,209.85145 158.40104,209.85145 C 156.27804,209.80545 151.94104,209.06645 150.55604,208.19045 C 149.44904,207.08245 150.09504,204.49845 151.06404,204.17545 C 152.31004,203.89845 156.04704,206.34445 156.74004,206.34445 C 157.34004,205.97545 155.49404,204.22145 154.94004,203.06845 C 154.57104,201.73045 154.38704,200.57745 154.38704,199.60745 C 154.43204,198.59145 154.24804,197.16145 155.26304,197.43845 L 155.26304,197.43845 z " style="fill: rgb(255, 82, 0); fill-rule: evenodd; stroke: rgb(0, 0, 0); stroke-width: 0.036; stroke-miterlimit: 10;" id="path35"/><path d="M 167.49104,221.52545 L 170.95204,223.37045 L 170.95204,223.37045 C 166.38404,225.67745 163.84604,227.80045 162.96904,229.55345 C 162.23104,231.35345 162.96904,233.47545 166.24504,233.93645 C 169.75204,234.12045 177.59704,233.15145 183.36404,231.21445 C 189.31604,229.09145 197.71404,225.21645 200.71304,222.44745 C 203.66704,219.58645 202.19004,216.26445 201.08304,214.97245 C 199.92904,213.68045 193.51604,215.34245 193.60804,214.97245 C 193.97604,214.41845 199.74404,212.38845 202.37504,211.88145 C 204.95804,211.18945 208.09504,210.17345 208.92704,211.32745 C 209.66504,212.43545 206.15704,216.58745 206.38804,218.61845 C 206.48104,220.51145 207.86604,221.61745 209.29704,223.18745 C 210.45104,224.61645 214.04804,224.70945 213.86304,227.38545 C 213.54004,229.87745 211.65004,234.58345 208.18704,238.32145 C 204.49804,241.87545 199.37504,246.99545 193.23704,249.07145 C 187.33204,251.05645 178.38104,250.77945 172.98204,250.54845 C 167.67504,250.13245 163.20004,248.98045 161.49304,247.27345 C 160.01504,245.56545 164.76804,243.02745 163.66104,240.35145 C 162.59904,237.44445 155.81704,232.78345 155.26304,230.47645 C 155.07804,228.12345 159.46304,228.03145 161.49304,226.64645 C 163.56804,225.12445 165.50704,223.41745 167.49104,221.52545 L 167.49104,221.52545 z " style="fill: rgb(255, 0, 0); fill-rule: evenodd; stroke: rgb(0, 0, 0); stroke-width: 0.036; stroke-miterlimit: 10;" id="path37"/><path d="M 171.69004,226.64645 C 168.78304,227.57045 167.02904,228.53945 166.42904,229.55445 C 166.01404,230.38445 167.26004,231.90845 168.22904,232.32345 C 169.24404,232.59945 170.58204,232.41445 172.24304,231.58445 L 172.24304,231.58445 C 172.05804,229.96945 171.87404,228.30845 171.69004,226.64645 L 171.69004,226.64645 z " style="fill: rgb(128, 0, 0); fill-rule: evenodd; stroke: rgb(0, 0, 0); stroke-width: 0.036; stroke-miterlimit: 10;" id="path39"/><path d="M 191.20704,218.43345 C 193.10004,217.51045 194.57704,217.09545 196.14604,217.00245 C 197.85304,216.77145 199.79104,217.23245 200.34404,217.87945 C 200.85204,218.52445 200.48204,219.86245 199.05204,221.20045 C 197.62004,222.35445 195.50004,223.69245 192.13004,225.21645 L 192.13004,225.21645 C 191.52904,223.13945 190.93104,221.61645 190.83804,220.46345 C 190.79204,219.35645 190.74704,218.61745 191.20704,218.43345 L 191.20704,218.43345 z " style="fill: rgb(128, 0, 0); fill-rule: evenodd; stroke: rgb(0, 0, 0); stroke-width: 0.036; stroke-miterlimit: 10;" id="path41"/><path d="M 168.78304,252.90245 C 171.18104,253.31845 173.30404,253.68745 175.33504,253.82445 C 177.31904,253.87045 179.21104,253.87045 180.82604,253.64045 L 180.82604,253.64045 C 184.19404,259.77745 186.31704,266.46745 187.37804,274.45145 C 188.57804,282.29545 188.39404,292.12345 187.00904,300.70645 C 185.57904,309.14945 182.67204,317.36345 178.47404,325.34745 L 178.47404,325.34745 C 175.52004,321.88645 173.07504,318.24045 171.13704,314.41045 C 169.29104,310.53445 167.95304,306.51945 167.12104,302.18245 L 167.12104,302.18245 L 165.32204,305.82745 L 165.32204,305.82745 C 164.26004,302.78245 163.70804,300.10645 163.29204,297.61445 C 162.96904,295.07745 162.96904,292.76945 163.29204,290.69345 L 163.29204,290.69345 L 159.64604,294.89145 L 159.64604,294.89145 C 159.50704,292.03145 159.50704,289.35545 160.01504,286.86345 C 160.43104,284.27945 161.35304,281.97145 162.41404,279.75745 L 162.41404,279.75745 L 158.58504,278.28045 L 158.58504,278.28045 C 159.50704,275.97345 160.66004,273.66745 162.04504,271.17545 C 163.70704,268.72945 165.87504,266.46845 167.12004,263.51645 C 168.27504,260.37645 168.82904,256.96245 168.78304,252.90245 L 168.78304,252.90245 z " style="fill: rgb(233, 198, 175); fill-rule: evenodd; stroke: rgb(0, 0, 0); stroke-width: 0.036; stroke-miterlimit: 10;" id="path43"/><path d="M 210.54104,318.14845 C 210.95704,319.30045 212.24804,320.08645 214.41904,320.68545 C 216.54204,321.19345 219.44804,321.37645 223.32304,321.23945 L 223.32304,321.23945 C 220.60204,325.20845 218.66204,329.03845 217.32504,332.54445 C 215.94004,335.95845 215.20204,337.94245 215.10904,342.41845 C 215.01604,346.89545 215.38704,352.66245 216.58704,359.72245 L 216.58704,359.72245 C 213.63304,358.24645 210.72704,356.67745 208.37304,355.20145 C 205.97504,353.58645 203.62204,352.06345 201.82104,350.44945 L 201.82104,350.44945 C 200.71304,348.51045 200.89804,346.61945 202.18904,344.95845 C 203.52904,343.20445 208.74304,341.91245 209.84904,340.02045 C 210.63304,337.94445 208.41704,335.45345 208.37204,333.10045 C 208.41704,330.70145 209.80204,328.39345 210.21704,325.99445 C 210.58904,323.40645 210.63304,320.96145 210.54104,318.14845 L 210.54104,318.14845 z " style="fill: rgb(255, 255, 255); fill-rule: evenodd; stroke: rgb(0, 0, 0); stroke-width: 0.036; stroke-miterlimit: 10;" id="path45"/><path d="M 151.80204,344.58745 C 150.64904,343.29545 149.49404,341.77245 148.52604,340.01845 C 147.55704,338.12745 146.58804,336.23545 145.80404,333.83645 L 145.80404,333.83645 C 141.14404,331.34445 136.57504,330.00645 132.09904,329.82045 C 127.66904,329.68245 122.82504,330.46645 119.31804,332.35845 C 115.90304,334.06645 113.41204,337.57345 111.65804,340.20345 C 110.13604,342.74045 109.35104,345.83245 109.30504,347.67945 C 109.21304,349.33945 109.76604,350.26245 110.96704,350.44845 L 110.96704,350.44845 C 111.56704,348.78645 112.16604,347.63345 113.13504,346.98745 C 114.24204,346.15645 116.64204,345.32645 116.59504,346.43245 C 116.64104,347.63245 113.22704,350.95445 112.76504,353.90745 C 112.34904,356.76945 111.05704,360.27645 113.68704,363.18245 C 116.45604,365.95145 121.62404,368.39745 129.19104,370.51845 L 129.19104,370.51845 C 128.86804,365.72145 129.83704,361.75145 132.28204,357.92245 C 134.95804,353.99945 140.63404,350.35545 143.95604,348.04845 C 147.28004,345.69545 149.77204,344.72545 151.80204,344.58745 L 151.80204,344.58745 z " style="fill: rgb(233, 198, 175); fill-rule: evenodd; stroke: rgb(0, 0, 0); stroke-width: 0.036; stroke-miterlimit: 10;" id="path47"/><path d="M 190.33204,365.02945 C 189.27004,360.59945 186.40904,356.95345 181.19504,354.09245 C 176.11904,351.18545 166.15204,348.27845 159.83104,347.67945 C 153.78704,346.94045 148.61904,347.86345 144.32804,350.07845 C 140.03604,352.33845 136.39104,357.64445 134.13004,360.82845 C 132.05404,363.96745 131.36104,366.45745 131.36104,368.48745 C 131.45404,370.24145 132.37604,371.39545 134.31404,371.76445 L 134.31404,371.76445 C 134.36004,370.97945 134.77504,369.82645 135.56004,368.67245 C 136.57504,367.19545 138.97504,364.01245 139.20604,364.28845 C 139.34404,364.65845 136.94504,368.21045 136.48404,371.02545 C 136.20704,373.74845 135.79204,377.57845 137.03804,380.71445 C 138.46804,383.75945 142.39004,387.45145 144.32904,389.11245 C 146.49704,390.58845 147.60504,389.94245 148.89704,389.84945 C 150.09704,389.75745 151.06604,389.20345 151.62004,388.37345 L 151.62004,388.37345 C 149.86604,386.15745 148.89704,384.45045 148.71304,383.06545 C 148.80504,381.49745 149.54404,379.09745 150.74304,380.15945 C 151.85004,381.31345 152.40404,387.45045 155.26504,389.66545 C 158.35604,391.69545 164.58604,392.47945 168.78504,392.75745 C 173.16904,392.84945 176.99804,391.87945 180.82804,391.09645 C 184.84304,390.17245 188.44104,389.01945 192.13304,387.63545 L 192.13304,387.63545 C 190.33404,386.66645 189.18004,385.69745 188.67204,384.54345 C 188.16404,383.38945 188.58004,382.23645 189.41004,380.89745 L 189.41004,380.89745 C 187.14904,379.37445 185.81104,377.66745 185.21204,375.77645 C 184.84304,373.83845 185.44204,371.06945 186.31904,369.40845 C 187.19304,367.51945 188.53204,366.18145 190.33204,365.02945 L 190.33204,365.02945 z " style="fill: rgb(233, 198, 175); fill-rule: evenodd; stroke: rgb(0, 0, 0); stroke-width: 0.036; stroke-miterlimit: 10;" id="path49"/><path d="M 260.00604,379.79345 C 255.02404,381.17845 250.03904,381.36145 244.87204,380.53145 C 239.56504,379.46945 233.79804,376.74845 228.99804,374.34745 C 224.10604,371.85645 220.74004,367.93445 216.21904,366.31945 C 211.60304,364.70545 206.15704,364.56645 202.19004,364.65945 C 198.22204,364.70545 195.17804,365.25945 192.68504,366.50445 C 190.24004,367.65845 188.30204,369.64245 187.74804,371.76545 C 187.37804,373.70345 188.11704,375.96345 190.14604,378.54845 L 190.14604,378.54845 C 192.73104,376.37845 194.29804,375.27145 194.66904,375.40945 C 195.12904,375.40945 193.51504,377.62445 192.86804,379.05545 C 192.40804,380.53245 190.79104,382.05445 191.57704,383.80845 C 192.49804,385.33045 193.74504,386.62245 197.99004,388.19145 C 202.41904,389.76045 209.34104,391.88245 217.32404,392.76045 C 225.16704,393.45145 237.30304,393.26745 244.50104,392.39045 C 251.56104,391.19045 255.89904,389.06945 259.26904,387.26945 C 262.36104,385.56145 263.46704,383.57845 263.65304,382.37745 C 263.74304,381.13145 262.59104,380.20945 260.00604,379.79345 L 260.00604,379.79345 z " style="fill: rgb(233, 198, 175); fill-rule: evenodd; stroke: rgb(0, 0, 0); stroke-width: 0.036; stroke-miterlimit: 10;" id="path51"/><path d="M 333.88104,299.50645 C 333.60604,296.46045 332.81904,293.04645 331.52704,289.44545 C 330.23504,285.80045 328.34204,281.78645 326.03704,277.58745 L 326.03704,277.58745 L 324.79104,281.60245 L 324.79104,281.60245 C 318.97804,275.55745 313.25504,270.57545 307.62504,266.65345 C 301.95004,262.68445 296.41204,259.82445 290.83004,257.88445 L 290.83004,257.88445 L 290.83004,260.60745 L 290.83004,260.60745 C 287.46304,260.74645 284.23004,259.36245 280.63404,256.08645 C 277.07804,252.71845 272.19004,246.53445 269.69604,241.27345 C 267.06704,235.87545 265.54304,229.46145 264.94404,224.52445 C 264.15804,219.58645 264.34304,215.38745 265.31204,211.92745 L 265.31204,211.92745 C 261.29904,217.46445 257.88404,222.81745 255.25304,228.16945 C 252.39204,233.38345 250.08604,238.96645 249.06904,243.67245 C 248.00704,248.33445 248.00704,252.53145 249.06904,256.26945 L 249.06904,256.26945 L 245.42404,252.76245 L 245.42404,252.76245 C 246.20704,258.02345 248.14504,263.19145 251.60804,268.45145 C 255.02204,273.61945 260.18904,278.74145 265.68204,283.81645 C 270.94104,288.84545 279.38504,294.84345 283.35304,298.76645 C 287.13504,302.55045 288.01404,303.56645 289.21304,306.42545 C 290.41204,309.14845 290.82804,312.10245 290.64304,315.28545 L 290.64304,315.28545 C 291.24404,312.74745 291.98204,310.85445 292.49104,309.60945 C 292.81304,308.17845 292.99704,307.07145 293.92104,307.53345 C 294.84404,307.94845 296.59704,309.51645 298.67204,312.23945 L 298.67204,312.23945 C 298.53404,309.97845 298.90404,308.59445 299.78104,308.08645 C 300.61204,307.44045 301.94904,307.67245 303.79404,308.77845 L 303.79404,308.77845 C 304.48704,304.30345 304.11704,300.28845 303.05804,296.73545 C 301.81204,293.09045 299.87304,289.99945 296.87404,287.27645 L 296.87404,287.27645 C 304.48704,291.56745 310.25504,295.58245 314.36004,300.01145 C 318.37604,304.25645 320.63604,308.64045 321.14404,312.97745 L 321.14404,312.97745 C 321.74304,308.96345 321.92804,305.13345 321.51204,301.48845 C 321.09704,297.75145 320.17504,294.29045 318.74304,290.92245 L 318.74304,290.92245 C 320.77304,292.49045 322.29804,294.01445 323.49704,295.49045 C 324.55904,296.92045 325.29704,298.25845 325.52704,299.68845 L 325.52704,299.68845 C 325.57204,298.16745 325.57204,296.82845 325.52704,295.67445 C 325.38904,294.38245 325.20404,293.27445 324.97304,292.35245 L 324.97304,292.35245 C 327.32704,295.07545 329.07804,297.15145 330.23304,298.95045 C 331.38704,300.70445 331.75504,301.85745 331.71104,302.59645 L 331.71104,302.59645 C 332.40304,301.58245 333.14104,300.56845 333.88104,299.50645 L 333.88104,299.50645 z " style="fill: rgb(233, 198, 175); fill-rule: evenodd; stroke: rgb(0, 0, 0); stroke-width: 0.036; stroke-miterlimit: 10;" id="path53"/><path d="M 165.50704,308.59645 C 163.47704,311.54845 161.77004,314.59445 160.20004,317.73245 C 158.86204,320.87045 158.35404,324.33145 156.37004,327.23845 C 154.24704,330.00745 151.57104,332.31345 147.78704,334.34345 L 147.78704,334.34345 C 148.15604,335.91145 148.66304,337.43545 149.81704,339.09645 C 150.97104,340.75745 152.49404,342.32545 154.38504,344.17145 L 154.38504,344.17145 C 156.46104,344.12545 158.58404,344.31045 160.75204,344.54045 C 163.01404,344.68045 165.32004,345.04745 167.67404,345.46345 L 167.67404,345.46345 C 170.25804,342.32545 172.15004,339.46545 173.71904,336.69645 C 175.19604,333.92645 176.34904,331.43645 176.81004,329.03745 L 176.81004,329.03745 C 173.53504,324.19145 170.85804,319.99245 168.96604,316.62445 C 167.07604,313.07145 165.92304,310.62645 165.50704,308.59645 L 165.50704,308.59645 z " style="fill: rgb(200, 113, 55); fill-rule: evenodd; stroke: rgb(0, 0, 0); stroke-width: 0.036; stroke-miterlimit: 10;" id="path55"/><path d="M 170.95204,345.23345 C 174.82804,346.84745 177.87304,348.37145 180.64104,349.98645 C 183.45504,351.46345 185.39404,352.56945 187.19304,354.55345 C 189.08604,356.49145 190.42404,358.79945 191.57804,361.65845 L 191.57804,361.65845 C 193.79304,359.44445 195.50104,357.32145 196.70004,355.29145 C 197.99104,353.12345 198.59004,351.23045 198.86804,349.24745 L 198.86804,349.24745 C 197.20804,348.13945 196.79204,346.80145 197.99104,345.23245 C 199.32804,343.47845 204.45004,341.54145 205.83504,339.60345 C 206.94304,337.71045 205.28104,335.58745 205.46704,333.74345 C 205.51204,331.75945 206.11304,330.28245 206.71304,327.88345 C 207.35904,325.39145 208.51104,322.71545 208.92704,318.60845 C 209.06704,314.08745 208.88104,307.07345 208.37304,302.18245 C 207.91204,297.38345 207.12604,294.01545 206.20504,289.95445 C 205.09604,285.52445 202.28204,277.40345 202.56004,276.98745 C 202.88204,276.75745 205.88104,286.35345 207.82004,287.96945 C 209.47904,289.21545 212.24804,285.38445 213.12704,285.57045 C 213.95604,285.84645 213.54004,288.43045 212.94104,289.58545 C 212.11004,290.50745 209.71204,289.58545 209.29604,291.98445 C 208.97304,294.42945 210.40204,299.92045 210.91004,304.16645 C 211.18504,308.22745 211.60104,312.42645 211.64904,316.57745 L 211.64904,316.57745 C 213.40104,317.82445 215.47904,318.79345 217.87804,318.97645 C 220.23104,319.11645 222.90704,318.97645 225.90604,318.05445 L 225.90604,318.05445 C 226.59904,315.65545 228.16604,313.76345 230.79804,312.19445 C 233.28804,310.53345 238.36504,309.14845 241.22704,308.73445 C 243.99604,308.17945 248.84004,308.59545 247.77904,309.47145 C 246.62504,310.30245 238.45904,310.99445 234.49104,313.85545 C 230.33804,316.53245 225.90704,320.50045 223.32304,326.26745 C 220.55404,331.98945 218.98504,341.77145 218.61704,348.13845 C 218.20104,354.27645 218.15604,358.98245 221.15504,363.50445 C 224.15404,368.02645 230.38304,372.73345 236.47304,375.13245 C 242.51904,377.39345 250.87004,377.99245 256.73104,376.74745 C 262.36104,375.22545 266.55904,371.34845 270.38904,366.91845 C 274.03404,362.35045 277.72404,357.04445 279.15604,349.93845 C 280.40004,342.64945 282.29304,332.21945 278.78604,324.00545 C 275.18804,315.65445 266.65204,306.56545 258.53104,300.65745 C 250.22404,294.65945 237.25704,293.13645 230.10704,288.79945 C 223.04504,284.36945 220.78504,281.23345 216.03304,274.58745 C 211.09604,267.75845 206.11204,259.40645 200.89804,248.84045 L 200.89804,248.84045 C 199.09704,250.22445 197.02204,251.37845 193.97604,252.30145 C 191.06904,253.08645 187.65504,253.86945 183.54804,254.14645 L 183.54804,254.14645 C 187.23904,261.39145 189.50004,269.23545 190.33104,278.04845 C 191.25404,286.90745 190.51504,297.28945 188.66904,306.51845 C 186.77804,315.70145 182.48604,325.57645 179.34904,332.21945 C 176.35004,338.72745 173.72004,342.87945 170.95204,345.23345 L 170.95204,345.23345 z " style="fill: rgb(200, 113, 55); fill-rule: evenodd; stroke: rgb(0, 0, 0); stroke-width: 0.036; stroke-miterlimit: 10;" id="path57"/><path d="M 284.09204,331.66745 C 286.86204,328.62145 288.70604,326.12945 290.13804,324.00645 C 291.38204,321.88545 291.98304,320.31645 291.93604,319.11645 L 291.93604,319.11645 C 292.99804,314.31645 294.15104,311.87145 295.39804,311.27145 C 296.64204,310.71745 297.79604,312.28645 299.22804,315.97745 L 299.22804,315.97745 C 299.18004,312.65645 299.73404,310.71745 300.88804,309.97945 C 301.99604,309.24145 303.70404,309.84045 306.00904,311.77945 L 306.00904,311.77945 C 307.16304,307.16545 307.57904,303.33445 307.07104,300.10545 C 306.47004,296.82945 305.13304,294.33645 302.87304,292.44445 L 302.87304,292.44445 C 307.90204,295.95245 311.73304,299.96545 314.73204,304.67345 C 317.63804,309.38045 319.53104,314.54745 320.40704,320.54745 L 320.40704,320.54745 C 322.15904,316.94645 323.12904,313.30245 323.49904,309.42545 C 323.72904,305.50445 323.36104,301.48945 322.20704,297.38345 L 322.20704,297.38345 C 323.36104,299.04445 324.28204,300.33545 324.97604,301.76645 C 325.66704,303.01245 325.85304,304.16645 326.03804,305.22745 L 326.03804,305.22745 C 326.72904,303.75045 327.28204,302.41345 327.51304,301.02845 C 327.74604,299.59745 327.74604,298.44545 327.51304,297.19945 L 327.51304,297.19945 C 328.99104,298.76745 329.95904,300.29045 330.60504,301.76645 C 331.11304,303.15145 331.29804,304.48945 330.97504,305.78145 L 330.97504,305.78145 L 334.62104,301.58345 L 334.62104,301.58345 C 333.93004,311.45645 332.77604,318.88745 330.97504,324.37645 C 329.08204,329.73045 327.19004,330.46745 323.86904,334.06745 C 320.36404,337.61945 315.51704,342.88045 311.08904,345.37245 C 306.65804,347.58745 302.23004,347.90945 297.61604,348.09445 C 292.90704,348.27945 288.15504,347.68045 283.17104,346.47945 L 283.17104,346.47945 C 283.72704,343.94245 284.09504,341.45045 284.28004,339.00445 C 284.46104,336.51245 284.27804,334.06745 284.09204,331.66745 L 284.09204,331.66745 z " style="fill: rgb(200, 113, 55); fill-rule: evenodd; stroke: rgb(0, 0, 0); stroke-width: 0.036; stroke-miterlimit: 10;" id="path59"/></g>


</svg>