<?xml version="1.0" encoding="UTF-8" standalone="no"?>
<!-- Created with Inkscape (http://www.inkscape.org/) -->
<svg xmlns:dc="http://purl.org/dc/elements/1.1/" xmlns:cc="http://creativecommons.org/ns#" xmlns:rdf="http://www.w3.org/1999/02/22-rdf-syntax-ns#" xmlns:svg="http://www.w3.org/2000/svg" xmlns="http://www.w3.org/2000/svg" xmlns:xlink="http://www.w3.org/1999/xlink" xmlns:sodipodi="http://sodipodi.sourceforge.net/DTD/sodipodi-0.dtd" xmlns:inkscape="http://www.inkscape.org/namespaces/inkscape" width="371.83322" height="443.17529" id="svg2" version="1.1" inkscape:version="0.47 r22583" sodipodi:docname="kogut.svg">
  <defs id="defs4">
    <linearGradient inkscape:collect="always" id="linearGradient3828">
      <stop style="stop-color: rgb(186, 185, 255); stop-opacity: 1;" offset="0" id="stop3830"/>
      <stop style="stop-color: rgb(186, 185, 255); stop-opacity: 0;" offset="1" id="stop3832"/>
    </linearGradient>
    <inkscape:perspective sodipodi:type="inkscape:persp3d" inkscape:vp_x="0 : 526.18109 : 1" inkscape:vp_y="0 : 1000 : 0" inkscape:vp_z="744.09448 : 526.18109 : 1" inkscape:persp3d-origin="372.04724 : 350.78739 : 1" id="perspective10"/>
    <radialGradient r="17.762894" fy="755.89709" fx="357.27307" cy="755.89709" cx="357.27307" gradientTransform="matrix(-1.34486, -1.73313, 1.73501, -1.34632, -548.576, 2401.62)" gradientUnits="userSpaceOnUse" id="radialGradient4000" xlink:href="#linearGradient3961" inkscape:collect="always"/>
    <linearGradient gradientTransform="translate(-0.125218, -0.125218)" y2="709.34381" x2="268.11246" y1="727.99298" x1="266.30829" gradientUnits="userSpaceOnUse" id="linearGradient3971" xlink:href="#linearGradient3919" inkscape:collect="always"/>
    <linearGradient y2="542.42816" x2="367.87439" y1="537.79114" x1="379.51331" gradientTransform="matrix(0.586006, 0, 0, 0.564588, 70.3252, 366.937)" gradientUnits="userSpaceOnUse" id="linearGradient3969" xlink:href="#linearGradient3799" inkscape:collect="always"/>
    <linearGradient y2="817.84351" x2="321.60953" y1="860.68597" x1="321.60718" gradientTransform="translate(-54.1397, -43.1112)" gradientUnits="userSpaceOnUse" id="linearGradient3888" xlink:href="#linearGradient3871" inkscape:collect="always"/>
    <linearGradient y2="817.84351" x2="321.60953" y1="860.68597" x1="321.60718" gradientTransform="translate(-54.1397, -43.1112)" gradientUnits="userSpaceOnUse" id="linearGradient3886" xlink:href="#linearGradient3871" inkscape:collect="always"/>
    <linearGradient gradientUnits="userSpaceOnUse" y2="817.84351" x2="321.60953" y1="860.68597" x1="321.60718" id="linearGradient3877" xlink:href="#linearGradient3871" inkscape:collect="always"/>
    <inkscape:perspective sodipodi:type="inkscape:persp3d" inkscape:vp_x="0 : 0.5 : 1" inkscape:vp_y="0 : 1000 : 0" inkscape:vp_z="1 : 0.5 : 1" inkscape:persp3d-origin="0.5 : 0.33333333 : 1" id="perspective3049"/>
    <inkscape:perspective id="perspective2941" inkscape:persp3d-origin="0.5 : 0.33333333 : 1" inkscape:vp_z="1 : 0.5 : 1" inkscape:vp_y="0 : 1000 : 0" inkscape:vp_x="0 : 0.5 : 1" sodipodi:type="inkscape:persp3d"/>
    <linearGradient id="linearGradient3871">
      <stop id="stop3873" offset="0" style="stop-color: rgb(255, 255, 0); stop-opacity: 1;"/>
      <stop id="stop3875" offset="1" style="stop-color: rgb(255, 255, 0); stop-opacity: 0;"/>
    </linearGradient>
    <linearGradient id="linearGradient3799">
      <stop id="stop3801" offset="0" style="stop-color: rgb(255, 0, 0); stop-opacity: 1;"/>
      <stop id="stop3803" offset="1" style="stop-color: rgb(255, 0, 0); stop-opacity: 0;"/>
    </linearGradient>
    <linearGradient id="linearGradient3919" inkscape:collect="always">
      <stop id="stop3921" offset="0" style="stop-color: rgb(186, 185, 255); stop-opacity: 1;"/>
      <stop id="stop3923" offset="1" style="stop-color: rgb(186, 185, 255); stop-opacity: 0;"/>
    </linearGradient>
    <linearGradient id="linearGradient3961" inkscape:collect="always">
      <stop id="stop3963" offset="0" style="stop-color: rgb(186, 185, 255); stop-opacity: 1;"/>
      <stop id="stop3965" offset="1" style="stop-color: rgb(186, 185, 255); stop-opacity: 0;"/>
    </linearGradient>
    <radialGradient inkscape:collect="always" xlink:href="#linearGradient3828" id="radialGradient3836" cx="240.0703" cy="566.08606" fx="240.0703" fy="566.08606" r="22.030525" gradientTransform="matrix(1.37148e-07, -0.584788, 1.58433, 3.71561e-07, -676.104, 723.94)" gradientUnits="userSpaceOnUse"/>
    <radialGradient inkscape:collect="always" xlink:href="#linearGradient3828" id="radialGradient3847" gradientUnits="userSpaceOnUse" gradientTransform="matrix(0.0194777, -1.01329, 1.58403, 0.0304485, -680.614, 809.575)" cx="240.0703" cy="566.08606" fx="240.0703" fy="566.08606" r="22.030525"/>
    <radialGradient inkscape:collect="always" xlink:href="#linearGradient3828" id="radialGradient3858" gradientUnits="userSpaceOnUse" gradientTransform="matrix(0.0194777, -1.01329, 1.58403, 0.0304485, -680.614, 809.575)" cx="240.0703" cy="566.08606" fx="240.0703" fy="566.08606" r="22.030525"/>
    <linearGradient inkscape:collect="always" xlink:href="#linearGradient3871" id="linearGradient3974" gradientUnits="userSpaceOnUse" gradientTransform="translate(-54.1397, -43.1112)" x1="321.60718" y1="860.68597" x2="321.60953" y2="817.84351"/>
    <radialGradient inkscape:collect="always" xlink:href="#linearGradient3961" id="radialGradient3976" gradientUnits="userSpaceOnUse" gradientTransform="matrix(-1.34486, -1.73313, 1.73501, -1.34632, -548.576, 2401.62)" cx="357.27307" cy="755.89709" fx="357.27307" fy="755.89709" r="17.762894"/>
    <linearGradient inkscape:collect="always" xlink:href="#linearGradient3799" id="linearGradient3978" gradientUnits="userSpaceOnUse" gradientTransform="matrix(0.586006, 0, 0, 0.564588, 70.3252, 366.937)" x1="379.51331" y1="537.79114" x2="367.87439" y2="542.42816"/>
    <linearGradient inkscape:collect="always" xlink:href="#linearGradient3919" id="linearGradient3980" gradientUnits="userSpaceOnUse" gradientTransform="translate(-0.125218, -0.125218)" x1="266.30829" y1="727.99298" x2="268.11246" y2="709.34381"/>
    <linearGradient inkscape:collect="always" xlink:href="#linearGradient3871" id="linearGradient3982" gradientUnits="userSpaceOnUse" gradientTransform="translate(-54.1397, -43.1112)" x1="321.60718" y1="860.68597" x2="321.60953" y2="817.84351"/>
    <radialGradient inkscape:collect="always" xlink:href="#linearGradient3828" id="radialGradient22404" gradientUnits="userSpaceOnUse" gradientTransform="matrix(0.0619802, -2.82846, 5.04058, 0.0849924, -2347.71, 1083.14)" cx="240.0703" cy="566.08606" fx="240.0703" fy="566.08606" r="22.030525"/>
    <linearGradient inkscape:collect="always" xlink:href="#linearGradient3871" id="linearGradient22441" gradientUnits="userSpaceOnUse" gradientTransform="translate(-54.1397, -43.1112)" x1="321.60718" y1="860.68597" x2="321.60953" y2="817.84351"/>
    <radialGradient inkscape:collect="always" xlink:href="#linearGradient3961" id="radialGradient22443" gradientUnits="userSpaceOnUse" gradientTransform="matrix(-1.34486, -1.73313, 1.73501, -1.34632, -548.576, 2401.62)" cx="357.27307" cy="755.89709" fx="357.27307" fy="755.89709" r="17.762894"/>
    <linearGradient inkscape:collect="always" xlink:href="#linearGradient3799" id="linearGradient22445" gradientUnits="userSpaceOnUse" gradientTransform="matrix(0.586006, 0, 0, 0.564588, 70.3252, 366.937)" x1="379.51331" y1="537.79114" x2="367.87439" y2="542.42816"/>
    <linearGradient inkscape:collect="always" xlink:href="#linearGradient3919" id="linearGradient22447" gradientUnits="userSpaceOnUse" gradientTransform="translate(-0.125218, -0.125218)" x1="266.30829" y1="727.99298" x2="268.11246" y2="709.34381"/>
    <linearGradient inkscape:collect="always" xlink:href="#linearGradient3871" id="linearGradient22449" gradientUnits="userSpaceOnUse" gradientTransform="translate(-54.1397, -43.1112)" x1="321.60718" y1="860.68597" x2="321.60953" y2="817.84351"/>
  </defs>
  <sodipodi:namedview id="base" pagecolor="#ffffff" bordercolor="#666666" borderopacity="1.0" inkscape:pageopacity="0.0" inkscape:pageshadow="2" inkscape:zoom="0.47702208" inkscape:cx="68.713346" inkscape:cy="103.68039" inkscape:document-units="px" inkscape:current-layer="layer1" showgrid="false" inkscape:snap-grids="false" inkscape:snap-to-guides="false" inkscape:window-width="1280" inkscape:window-height="752" inkscape:window-x="0" inkscape:window-y="0" inkscape:window-maximized="1"/>
  <metadata id="metadata7">
    <rdf:RDF>
      <cc:Work rdf:about="">
        <dc:format>image/svg+xml</dc:format>
        <dc:type rdf:resource="http://purl.org/dc/dcmitype/StillImage"/>
        <dc:title/>
      </cc:Work>
    </rdf:RDF>
  </metadata>
  <g inkscape:label="Layer 1" inkscape:groupmode="layer" id="layer1" transform="translate(-303.334, -186.686)">
    <g id="g3875" transform="matrix(1.54464, -0.206896, 0.257938, 1.23898, -107.468, -367.344)" inkscape:export-filename="/Users/grzegorz/Sites/img/cliparty/kogut.png" inkscape:export-xdpi="90" inkscape:export-ydpi="90">
      <g id="g3877" transform="translate(-83.2147, -79.2044)">
        <path sodipodi:nodetypes="ccsccscsscssssssscssssssssssscsssssssssssscssssscsscssssssscsscc" id="path3879" d="m 356.74663,823.78901 c -0.40762,1.44825 -0.72726,3.02484 -0.9375,4.71875 -0.53836,1.18325 -0.98391,2.77373 -1.4375,4.5625 -0.45359,1.78877 -0.91358,3.77276 -1.46875,5.75 2.76724,9.81092 -12.63999,17.05108 -12.59375,20.78125 0.33276,0.58177 0.78341,1.21757 1.25,1.8125 0.93319,1.18986 1.9125,2.20504 2.1875,2.375 0.39711,2.2579 0.5236,4.37125 0.46875,6.40625 -0.0548,2.035 -0.28994,4.00285 -0.59375,5.96875 -0.60762,3.9318 -1.48953,7.89048 -1.875,12.46875 -1.07947,1.56348 -1.90562,3.24652 -2.46875,5 -0.56313,1.75348 -0.87243,3.57161 -0.96875,5.40625 -0.0963,1.83464 0.0228,3.66178 0.34375,5.46875 0.32096,1.80697 0.84255,3.57954 1.53125,5.25 0.6887,1.67046 1.5556,3.26238 2.5625,4.6875 1.0069,1.42512 2.16192,2.67906 3.4375,3.75 1.27558,1.07094 2.66154,1.95458 4.15625,2.5625 1.49471,0.60792 3.08568,0.96393 4.75,1 0.56463,-0.57121 0.93453,-1.22078 1.15625,-1.875 0.22172,-0.65422 0.30966,-1.33894 0.28125,-2.03125 -0.0568,-1.38461 -0.53062,-2.79501 -1.03125,-4.0625 -0.50063,-1.26749 -1.04786,-2.3652 -1.25,-3.15625 -0.10107,-0.39553 -0.11274,-0.72845 0,-0.9375 0.11274,-0.20905 0.36192,-0.3036 0.78125,-0.28125 1.07191,0.0571 2.02431,0.2086 2.875,0.40625 0.85069,0.19765 1.61002,0.429 2.3125,0.71875 1.40496,0.57951 2.56243,1.31135 3.8125,1.96875 1.25007,0.6574 2.57085,1.24579 4.25,1.59375 0.83957,0.17398 1.78741,0.28851 2.84375,0.3125 1.05634,0.024 2.21641,-0.0443 3.5625,-0.21875 0.3441,-0.44169 0.59967,-0.86663 0.75,-1.3125 0.15033,-0.44587 0.20605,-0.89767 0.1875,-1.34375 -0.0371,-0.89215 -0.3742,-1.78715 -0.9375,-2.65625 -0.5633,-0.8691 -1.35961,-1.71704 -2.25,-2.53125 -0.89039,-0.81421 -1.88788,-1.58501 -2.90625,-2.3125 -2.03674,-1.45498 -4.11472,-2.70788 -5.46875,-3.625 -0.67701,-0.45856 -1.16733,-0.84865 -1.375,-1.125 -0.10384,-0.13817 -0.14458,-0.2571 -0.0937,-0.34375 0.0508,-0.0866 0.17586,-0.1251 0.40625,-0.15625 1.61724,-0.21867 2.71406,-0.19226 3.59375,-0.0625 0.87969,0.12976 1.54645,0.3449 2.3125,0.53125 0.76605,0.18635 1.62994,0.33016 2.90625,0.28125 1.27631,-0.0489 2.96452,-0.26772 5.375,-0.84375 0.23645,-0.67503 0.17854,-1.36778 -0.125,-2.03125 -0.30354,-0.66347 -0.83719,-1.30741 -1.5625,-1.9375 -0.72531,-0.63009 -1.65865,-1.23761 -2.6875,-1.8125 -1.02885,-0.57489 -2.16083,-1.12711 -3.375,-1.625 -2.42833,-0.99577 -5.10225,-1.81813 -7.5625,-2.375 -2.46025,-0.55687 -4.70364,-0.83778 -6.25,-0.78125 -0.006,-2.99969 -0.59974,-6.80822 -0.84375,-10.8125 -0.122,-2.00214 -0.16728,-4.07299 0,-6.09375 0.16728,-2.02076 0.52961,-3.99063 1.21875,-5.875 1.32057,-0.27478 2.76031,-0.74318 4.25,-1.375 1.48969,-0.63182 3.04762,-1.44074 4.625,-2.375 1.57738,-0.93426 3.16636,-2.00539 4.75,-3.1875 1.58364,-1.18211 3.14777,-2.46838 4.65625,-3.84375 1.50848,-1.37537 2.9606,-2.82972 4.3125,-4.34375 1.3519,-1.51403 2.60486,-3.08941 3.71875,-4.6875 1.11389,-1.59809 2.08055,-3.21619 2.875,-4.84375 0.79445,-1.62756 1.41891,-3.27256 1.8125,-4.875 0.1676,-1.86785 0.20201,-3.64421 0.125,-5.3125 -0.077,-1.66829 -0.27034,-3.22184 -0.5625,-4.6875 -0.29216,-1.46566 -0.67842,-2.83379 -1.15625,-4.09375 -11.79217,-17.88536 -31.3409,-12.78363 -28.6563,2.0625 z" style="fill: rgb(255, 255, 255); fill-opacity: 1; fill-rule: evenodd; stroke: none;"/>
        <path sodipodi:nodetypes="cssccccssssssssssssssccssscccscscccscc" id="path3881" d="m 376.40251,817.20178 c -0.0256,-0.59027 10.51492,7.15124 6.40113,18.06176 -1.57856,4.18663 -4.17089,10.53673 -8.73009,14.9194 -5.23257,5.02997 -12.73789,8.02498 -18.92032,11.55401 -2.30502,1.94648 -2.3607,2.36124 -2.08075,15.49999 l 0.28765,13.5 6,0.583 c 6.52071,0.6336 15.5,4.0964 15.5,5.9774 0,1.1746 -0.38876,1.1322 -8.35943,-0.9102 -3.91417,-1.0029 -10.64057,-0.481 -10.64057,0.8257 0,1.1225 2.98408,3.399 9.75,7.43805 6.10499,3.6444 7.72608,6.0825 4.79268,7.2081 -0.80153,0.3076 -5.55418,-1.6009 -10.56145,-4.241 -7.51356,-3.9615 -9.26083,-4.5466 -10.00107,-3.3489 -1.23023,1.9906 -0.17646,5.851 2.62511,9.6171 1.91206,2.5703 2.09773,3.3524 1.01007,4.2551 -1.81127,1.5032 -5.86788,-1.7479 -9.01801,-7.2274 -3.89167,-6.7694 -4.11868,-9.88195 -1.17462,-16.10515 1.65771,-3.5041 2.57735,-7.1648 2.57746,-10.2599 9e-5,-2.6465 0.68093,-8.36947 1.51297,-12.71763 1.35044,-7.05729 1.35042,-8.15355 -1.8e-4,-10.21481 -2.28387,-3.48563 -1.83521,-6.0138 1.48704,-8.37945 5.6709,-4.72952 7.54786,-13.62314 9.16645,-20.5228 1.02555,-6.59028 0.39499,-14.10271 -2.49564,-12.53009 -0.7421,0.40373 -1.23022,21.84685 -7.7711,28.90401 -3.72859,4.0229 -7.89972,7.41997 -7.89972,9.19562 0,1.55937 3.45776,5.36916 4.00776,5.70908 1.58842,9.0316 -1.25078,15.66473 -2.02172,24.82128 -8.63574,12.50782 0.044,32.83708 13.35855,33.1256 4.51707,-4.56967 -3.42382,-12.51418 -0.0692,-12.33537 8.57524,0.45706 8.90381,6.18543 19.67257,4.7901 5.50561,-7.06704 -15.38421,-14.92417 -11.69803,-15.42259 6.46896,-0.87468 4.54191,2.2055 14.18382,-0.0986 1.89159,-5.40028 -15.38816,-10.77937 -21.57359,-10.55326 -0.0113,-5.99939 -2.35995,-15.24806 0.39659,-22.78555 10.56459,-2.19825 28.59902,-16.53302 30.99238,-29.51478 2.64948,-14.37097 -8.22026,-27.7129 -10.70671,-18.81782 l -3e-5,0 z" style="fill: rgb(0, 0, 0);"/>
      </g>
      <path style="fill: url(&quot;#linearGradient22441&quot;) rgb(0, 0, 0); fill-opacity: 1; fill-rule: evenodd; stroke: none;" d="m 271.8444,782.58527 c -0.57626,0.48662 -1.01876,0.88835 -1.34375,1.40625 -0.32499,0.5179 -0.55397,1.16158 -0.6875,2.15625 -0.26705,1.98934 -0.20247,5.36812 -0.0625,11.9375 l 0.28125,13.5 6,0.59375 c 1.63018,0.1584 3.42872,0.49437 5.1875,0.9375 1.75878,0.44313 3.47004,0.97249 5,1.5625 1.52996,0.59001 2.86881,1.2447 3.8125,1.84375 0.94369,0.59905 1.5,1.15475 1.5,1.625 0,0.29365 -0.0265,0.52696 -0.1875,0.65625 -0.16099,0.12929 -0.45324,0.15329 -1,0.0937 -1.09352,-0.11908 -3.17092,-0.63505 -7.15625,-1.65625 -0.97854,-0.25072 -2.13147,-0.39706 -3.3125,-0.46875 -1.18103,-0.0717 -2.41456,-0.0842 -3.5,0 -1.08544,0.0842 -2.02699,0.25174 -2.71875,0.46875 -0.69176,0.21701 -1.125,0.48582 -1.125,0.8125 0,0.28062 0.17703,0.65937 0.5625,1.09375 0.38547,0.43438 0.98537,0.92409 1.78125,1.53125 1.59176,1.21432 4.02329,2.79298 7.40625,4.8125 1.52625,0.9111 2.78534,1.7726 3.75,2.53125 0.96466,0.75865 1.63039,1.42836 2.03125,2.03125 0.40086,0.60289 0.54014,1.1187 0.375,1.5625 -0.16514,0.4438 -0.64165,0.81235 -1.375,1.09375 -0.40076,0.1538 -1.77324,-0.23131 -3.6875,-1 -1.91426,-0.76869 -4.34012,-1.92995 -6.84375,-3.25 -3.75678,-1.98075 -6.09396,-3.102 -7.5625,-3.59375 -0.73427,-0.24587 -1.2397,-0.33293 -1.625,-0.28125 -0.3853,0.0517 -0.65869,0.23182 -0.84375,0.53125 -0.30756,0.49765 -0.46956,1.11181 -0.5,1.8125 -0.0304,0.70069 0.0826,1.50141 0.3125,2.34375 0.22993,0.84234 0.58896,1.73363 1.0625,2.65625 0.47354,0.92262 1.04961,1.87097 1.75,2.8125 0.95603,1.28515 1.50678,2.12035 1.65625,2.75 0.0747,0.31483 0.0432,0.57207 -0.0625,0.8125 -0.10567,0.24043 -0.29059,0.46182 -0.5625,0.6875 -0.45282,0.3758 -1.06576,0.46027 -1.75,0.28125 -0.68424,-0.17902 -1.43284,-0.62634 -2.25,-1.28125 -0.81716,-0.65491 -1.67965,-1.51064 -2.53125,-2.5625 -0.8516,-1.05186 -1.71247,-2.28637 -2.5,-3.65625 -0.97292,-1.69235 -1.6962,-3.15901 -2.21875,-4.5 -0.52255,-1.34099 -0.8499,-2.54889 -0.9375,-3.75 -0.0876,-1.20111 0.0431,-2.38354 0.375,-3.65625 0.33192,-1.27271 0.88898,-2.66295 1.625,-4.21875 0.82885,-1.75205 1.46911,-3.54118 1.90625,-5.28125 0.43714,-1.74007 0.6562,-3.4212 0.65625,-4.96875 9e-5,-2.6465 0.69921,-8.37059 1.53125,-12.71875 0.67522,-3.52864 1.00002,-5.55487 1,-6.96875 -1e-5,-0.70694 -0.0812,-1.27834 -0.25,-1.78125 -0.16883,-0.50291 -0.41235,-0.95343 -0.75,-1.46875 -0.57097,-0.87141 -0.99155,-1.67335 -1.21875,-2.4375 -0.2272,-0.76415 -0.27723,-1.47452 -0.15625,-2.15625 0.12098,-0.68173 0.43268,-1.3446 0.90625,-1.96875 0.68674,-3.15172 13.85591,0.42588 8.25,6.68755 z" id="path3883" sodipodi:nodetypes="csscccsssssssssssssssssssssssssssssssssssssssssssssscc"/>
    </g>
    <g id="g4012" transform="matrix(2.67238, 0, 0, 2.22487, -150.622, -1245.12)" inkscape:export-filename="/Users/grzegorz/Sites/img/cliparty/kogut.png" inkscape:export-xdpi="90" inkscape:export-ydpi="90">
      <path id="path3833" d="m 204.30914,704.32423 c 0.67504,0.0242 1.32625,0.10999 1.97777,0.24701 0.65153,0.13701 1.29923,0.3312 1.92283,0.58223 0.58126,0.23399 1.17025,0.55161 1.77633,0.95274 0.60609,0.40114 1.22142,0.87112 1.83127,1.41147 1.21971,1.0807 2.42592,2.41156 3.53435,3.88155 1.10843,1.46999 2.11966,3.09256 2.94834,4.72842 0.41434,0.81793 0.78594,1.63492 1.09876,2.45243 0.31282,0.81751 0.5789,1.62799 0.76913,2.41715 0.41493,1.72129 0.73142,3.88839 0.95226,6.21047 0.22084,2.32207 0.34481,4.80321 0.36625,7.14556 0.0214,2.34236 -0.0731,4.55182 -0.25637,6.33398 -0.0916,0.89108 -0.20413,1.66909 -0.34794,2.31128 -0.14382,0.64219 -0.31611,1.14367 -0.51276,1.4644 -0.3262,0.53203 -0.51666,1.01997 -0.60432,1.44676 -0.0877,0.42679 -0.0594,0.79348 0.0733,1.07625 0.13268,0.28276 0.36107,0.48228 0.69589,0.58223 0.33481,0.0999 0.76313,0.10401 1.28188,-0.0176 0.73607,-0.17262 1.90132,-0.72572 3.24135,-1.55262 1.34003,-0.82689 2.86092,-1.92726 4.30348,-3.22873 0.98999,-0.89318 2.0783,-1.73527 3.20471,-2.50536 1.12642,-0.7701 2.28267,-1.46717 3.42447,-2.09957 2.28363,-1.26479 4.47903,-2.24947 6.09813,-2.87587 0.66496,-0.25726 2.17481,-0.55315 4.17529,-0.74102 1.00023,-0.0939 2.13194,-0.15427 3.3329,-0.17643 1.20097,-0.0221 2.4778,0.002 3.79073,0.0882 4.06884,0.26621 6.04923,0.42238 8.2407,0.72338 2.19147,0.301 4.59907,0.75058 9.50428,1.60555 1.12627,0.19631 2.00939,0.27015 2.72859,0.59987 0.6355,1.93095 1.18361,3.85779 1.64814,5.75175 0.46453,1.89396 0.83468,3.76101 1.11707,5.61059 0.28239,1.84959 0.4786,3.67163 0.56769,5.46945 0.0891,1.79782 0.0788,3.572 -0.0366,5.31066 -0.11537,1.73866 -0.32826,3.44448 -0.65926,5.11658 -0.33099,1.6721 -0.77905,3.30671 -1.33682,4.90486 -0.55777,1.59815 -1.237,3.15868 -2.03271,4.6755 -0.79571,1.51681 -1.70208,3.00041 -2.7469,4.42848 -0.98912,1.35194 -2.2524,2.83178 -3.66254,4.32263 -1.41013,1.49085 -2.96406,2.98344 -4.59648,4.35792 -1.63241,1.37447 -3.34341,2.63174 -4.99936,3.63453 -0.82797,0.5014 -1.63899,0.94501 -2.43558,1.30561 -0.7966,0.36061 -1.56703,0.64133 -2.3074,0.82924 -1.122,0.28477 -2.31875,0.39949 -3.55266,0.4058 -1.23391,0.006 -2.51551,-0.0933 -3.82735,-0.26465 -2.62368,-0.34274 -5.36256,-0.94501 -8.0942,-1.39383 -1.36582,-0.2244 -2.72356,-0.41189 -4.06542,-0.51165 -1.34186,-0.0998 -2.67161,-0.10802 -3.95553,0.0176 -1.28393,0.12566 -2.52545,0.37738 -3.71748,0.82924 -0.59601,0.22593 -1.17303,0.50287 -1.7397,0.82924 -0.56667,0.32637 -1.11506,0.7074 -1.64814,1.14682 -0.2437,0.20087 -0.47568,0.23813 -0.69588,0.14115 -0.22021,-0.097 -0.43688,-0.32841 -0.64095,-0.65281 -0.40814,-0.64881 -0.78426,-1.68708 -1.17201,-2.82294 -0.38775,-1.13586 -0.78239,-2.36341 -1.20864,-3.42282 -0.21312,-0.5297 -0.44378,-1.02418 -0.67756,-1.42911 -0.23379,-0.40493 -0.47071,-0.72538 -0.73251,-0.9351 -0.26354,-0.13589 -0.48001,-0.22479 -0.65926,-0.26465 -0.17925,-0.0399 -0.32579,-0.0251 -0.45781,0.0529 -0.26404,0.15615 -0.4716,0.56381 -0.76914,1.32325 -0.23184,0.59177 -0.46055,1.01949 -0.71419,1.28797 -0.25364,0.26848 -0.52908,0.37994 -0.84238,0.31758 -0.31331,-0.0624 -0.66962,-0.28737 -1.08045,-0.68809 -0.41083,-0.40072 -0.88216,-0.98243 -1.42839,-1.72905 -0.53081,-0.72554 -1.01113,-1.28687 -1.42839,-1.69377 -0.41726,-0.40689 -0.77064,-0.65631 -1.06214,-0.74102 -0.29149,-0.0847 -0.50575,-0.0117 -0.65925,0.22937 -0.15351,0.24104 -0.23477,0.64705 -0.23807,1.21739 -0.005,0.85394 -0.26999,1.92842 -0.56769,2.38186 -0.10539,0.16053 -0.22888,0.27519 -0.36625,0.33522 -0.13737,0.06 -0.2796,0.066 -0.43951,0.0353 -0.3198,-0.0614 -0.6723,-0.28724 -1.02551,-0.65281 -0.35321,-0.36557 -0.7145,-0.8729 -1.02551,-1.4644 -0.311,-0.59149 -0.57595,-1.27218 -0.76913,-2.01134 -0.20101,-0.76909 -0.39589,-1.37692 -0.586,-1.81727 -0.19012,-0.44035 -0.37772,-0.71093 -0.5677,-0.82924 -0.18998,-0.11831 -0.38544,-0.0912 -0.586,0.10586 -0.20057,0.19705 -0.40073,0.55288 -0.62263,1.0586 -0.16729,0.38126 -0.29858,0.67221 -0.40288,0.82924 -0.10431,0.15703 -0.18449,0.1875 -0.25638,0.0706 -0.14378,-0.23385 -0.26022,-1.07139 -0.45782,-2.69943 -0.22613,-1.86314 -0.44114,-4.8484 -0.47613,-6.63391 -0.0203,-1.03416 -0.11744,-1.82334 -0.27469,-2.38186 -0.15724,-0.55852 -0.36306,-0.88478 -0.60432,-0.95274 -0.12062,-0.034 -0.25286,-0.003 -0.38456,0.0882 -0.1317,0.0915 -0.26673,0.23997 -0.40288,0.45873 -0.27229,0.43752 -0.53709,1.14164 -0.78745,2.09956 -0.31375,1.20049 -0.59627,2.01017 -0.82407,2.45243 -0.11389,0.22114 -0.21908,0.35619 -0.31131,0.38816 -0.0922,0.0319 -0.16762,-0.0371 -0.23807,-0.19408 -0.14089,-0.31387 -0.23995,-0.99636 -0.293,-2.06427 -0.053,-1.06792 -0.054,-2.5204 -0.0183,-4.34028 0.0829,-4.22301 0.13043,-6.26148 0.0183,-7.12792 -0.0561,-0.43323 -0.15715,-0.57147 -0.31131,-0.54695 -0.15417,0.0245 -0.35578,0.21307 -0.64095,0.44109 -0.48119,0.38475 -0.96451,0.97922 -1.42839,1.72905 -0.46387,0.74982 -0.92421,1.6693 -1.33682,2.69944 -0.41261,1.03013 -0.78967,2.17948 -1.11708,3.40517 -0.3274,1.22569 -0.59751,2.52741 -0.80575,3.8639 -0.31845,2.0438 -0.59522,3.56615 -0.84239,4.56963 -0.24717,1.00349 -0.4687,1.48666 -0.65925,1.44676 -0.19056,-0.0399 -0.34585,-0.60741 -0.49445,-1.69376 -0.14859,-1.08635 -0.28157,-2.69841 -0.40287,-4.83429 -0.12171,-2.14285 -0.14187,-3.94832 -0.0366,-5.68117 0.10524,-1.73285 0.33106,-3.39747 0.69588,-5.25773 0.54809,-2.79471 1.13613,-5.84451 1.31851,-6.77505 0.0256,-0.59558 -0.0334,-0.94832 -0.16481,-1.11154 -0.13141,-0.16321 -0.31952,-0.13074 -0.56769,0.0529 -0.49633,0.36736 -1.20062,1.35141 -1.92283,2.59358 -0.72222,1.24217 -1.46104,2.74819 -2.08765,4.18148 -0.6266,1.4333 -1.12732,2.78202 -1.33682,3.72276 -0.34943,1.14624 -0.58975,2.4776 -0.75082,3.79332 -0.16107,1.31573 -0.25192,2.62156 -0.31132,3.7404 -0.0594,1.11884 -0.0838,2.03798 -0.12819,2.59358 -0.0222,0.27779 -0.0568,0.47865 -0.0916,0.54694 -0.0347,0.0683 -0.0701,0.0106 -0.12819,-0.17643 -0.24142,-0.5859 -0.38024,-1.44862 -0.4395,-2.47007 -0.0593,-1.02146 -0.0365,-2.19421 0.0366,-3.42282 0.1463,-2.45721 0.50151,-5.1067 0.87901,-7.02207 0.10549,-0.79464 0.72785,-2.31491 1.53826,-4.16383 0.81042,-1.84893 1.80168,-4.03434 2.65534,-6.12226 0.42683,-1.04396 0.82182,-2.06618 1.13539,-3.01702 0.31357,-0.95084 0.55996,-1.82012 0.67757,-2.57593 0.1176,-0.75581 0.10613,-1.39369 -0.0549,-1.85255 -0.0805,-0.22944 -0.20054,-0.41086 -0.36625,-0.54695 -0.16572,-0.13609 -0.37972,-0.217 -0.64095,-0.24701 -0.47816,-0.0284 -0.92868,0.10454 -1.37345,0.37051 -0.44477,0.26598 -0.87529,0.65063 -1.28189,1.12918 -0.40659,0.47855 -0.79005,1.04917 -1.15369,1.65848 -0.36364,0.6093 -0.70962,1.26488 -1.02551,1.92313 -0.63181,1.31648 -1.16273,2.64851 -1.57489,3.66982 -0.41217,1.02131 -0.70642,1.72802 -0.8607,1.79963 -0.13896,0.0645 -0.11081,-0.28643 -0.0183,-0.95275 0.0925,-0.66632 0.2507,-1.64034 0.40287,-2.8053 0.15218,-1.16496 0.28954,-2.52071 0.32963,-3.95211 0.0401,-1.43141 -0.0126,-2.94517 -0.25637,-4.41085 -0.6607,0.83659 -1.2261,1.73183 -1.70308,2.6818 -0.47699,0.94996 -0.86509,1.96238 -1.19033,2.99937 -0.32524,1.03699 -0.58198,2.11343 -0.78744,3.2111 -0.20547,1.09766 -0.35846,2.22025 -0.47613,3.35224 -0.23534,2.26398 -0.3269,4.56717 -0.40288,6.81034 -0.076,2.24318 -0.13892,4.41062 -0.31132,6.4222 -0.1487,0.0657 -0.28177,0.0786 -0.40287,0.0353 -0.12111,-0.0433 -0.23336,-0.14449 -0.32963,-0.28229 -0.19255,-0.2756 -0.32977,-0.7208 -0.43951,-1.28797 -0.21947,-1.13434 -0.3092,-2.73167 -0.32963,-4.34027 -0.0205,-1.6086 0.0159,-3.23306 0.0183,-4.3932 0.002,-1.16015 -0.032,-1.85187 -0.18313,-1.64084 -0.30382,0.42425 -0.58129,1.39657 -0.82407,2.62887 -0.24278,1.23229 -0.44006,2.71917 -0.60432,4.16383 -0.32851,2.88933 -0.49328,5.60463 -0.40288,5.76939 -0.32164,-2.13725 -0.45662,-4.40862 -0.4395,-6.7927 0.0171,-2.38409 0.19953,-4.87813 0.53107,-7.42787 0.33154,-2.54973 0.80677,-5.16417 1.42839,-7.79837 0.62161,-2.6342 1.38343,-5.2844 2.27077,-7.92188 0.88734,-2.63747 1.91117,-5.25646 3.0399,-7.81602 1.12873,-2.55955 2.3717,-5.0627 3.71747,-7.46315 1.34578,-2.40045 2.78333,-4.70312 4.3218,-6.86327 1.53847,-2.16016 3.16434,-4.17773 4.87117,-6.0164 1.44697,-1.2534 2.90846,-2.29358 4.35842,-3.12287 0.72497,-0.41465 1.44178,-0.78712 2.16089,-1.09389 0.71911,-0.30678 1.43376,-0.54335 2.14258,-0.74103 0.70883,-0.19767 1.41182,-0.35374 2.10596,-0.44108 0.69414,-0.0873 1.3943,-0.11244 2.06933,-0.0882 z" style="fill: rgb(255, 255, 255); fill-opacity: 1; fill-rule: evenodd; stroke: none;"/>
      <path style="fill: rgb(0, 255, 0); fill-opacity: 1;" d="m 197.78191,717.69915 c 2.18456,-0.90882 5.43709,-1.1586 7.47921,-0.91034 3.17083,0.38549 5.01349,1.97172 7.69027,4.15605 1.71918,1.82053 3.09558,6.56762 3.08471,8.13325 -0.0239,3.4486 -2.86586,2.36623 -4.64885,-1.1423 -1.25638,-2.47228 -4.54476,-4.89779 -7.66493,-5.45047 -3.6352,-0.64391 -6.01594,0.84451 -8.92076,2.17501 -1.21008,0.74813 -6.19308,7.70638 -10.70546,16.26716 -1.78505,2.34968 -4.70812,5.22515 -5.86195,8.79923 -2.61911,8.11293 -2.36176,17.74561 -3.37878,18.20118 -1.09736,-1.31641 -1.13116,-4.06157 -1.38587,-5.63287 -0.23193,-1.43074 -0.2975,-2.65037 -0.24725,-4.16381 0.10534,-3.17276 0.71967,-6.73506 1.37733,-9.9132 3.65371,-9.57372 9.02909,-19.36049 16.56479,-26.47829 1.9203,-1.74431 4.28435,-2.51043 6.61758,-4.0406 l -4e-5,0 z" id="path4004" sodipodi:nodetypes="cscsssccscsscccc"/>
      <path sodipodi:nodetypes="cscsssscccccssscc" id="path3997" d="m 198.03235,705.42781 c 2.18456,-0.90882 5.43709,-1.1586 7.47921,-0.91034 3.17083,0.38549 5.01349,1.97172 7.69027,4.15605 1.71918,1.82053 3.981,5.6822 3.97013,7.24783 -0.0239,3.4486 -1.8252,1.75833 -3.67488,-0.78813 -0.9119,-1.25541 -1.8899,-1.67999 -2.9056,-2.3039 -1.12715,-0.69237 -3.02956,-1.52772 -4.67079,-1.81844 -3.6352,-0.6439 -7.6097,1.11014 -10.51452,2.44064 -1.21008,0.74813 -6.39535,7.74565 -10.90773,16.30643 -5.94087,8.82641 -9.19201,15.41131 -10.82871,25.03495 -0.71329,4.20551 -1.25166,8.05329 -2.01707,12.63981 -0.64461,0 -0.31073,-9.69517 -0.18543,-12.99136 0.94884,-6.6821 2.34478,-13.11422 4.52708,-19.11885 1.51868,-4.17868 3.92298,-8.08575 6.03287,-11.99625 2.58471,-4.79056 5.19931,-10.05336 9.38763,-13.85784 1.9203,-1.74431 4.28435,-2.51043 6.61758,-4.0406 l -4e-5,0 z" style="fill: rgb(0, 0, 128); fill-opacity: 1;"/>
      <path sodipodi:nodetypes="ccsscscc" id="path4006" d="m 201.25415,726.43058 c 3.17083,0.38549 4.76305,1.97172 6.81375,4.78214 1.34352,2.69705 3.47123,7.44414 3.46036,9.00977 -0.0239,3.4486 -2.36499,0.86362 -4.14798,-2.64491 -1.25638,-2.47228 -4.54476,-4.89779 -7.66493,-5.45047 -5.13066,0.96363 -7.10187,7.37352 -11.81928,10.74193 -4.17832,2.98348 -5.16197,7.96281 -7.4059,11.53537 -1.76623,-10.33632 9.83843,-29.79272 20.76398,-27.97383 z" style="fill: rgb(255, 0, 0); fill-opacity: 1;"/>
      <path style="fill: rgb(255, 127, 42); fill-opacity: 1;" d="m 198.77496,735.4619 c 3.17083,0.38549 4.88826,0.84476 6.93896,3.65518 1.34352,2.69705 2.71993,6.4424 2.70906,8.00803 -0.0239,3.4486 -2.56736,1.4602 -5.14972,-1.26751 -1.79334,-1.89427 -2.02143,-4.30966 -5.66145,-3.82265 -6.82904,1.28261 -8.65086,13.30557 -14.18753,22.82016 -1.97967,3.40199 -1.06697,7.95119 -2.0487,10.09113 -0.89866,-1.54033 -0.62455,-8.3939 -0.50025,-12.93761 0.13014,-4.76015 5.82349,-8.50657 5.92347,-13.57503 0.16689,-8.46043 5.42695,-14.85114 11.97619,-12.9717 l -3e-5,0 z" id="path4008" sodipodi:nodetypes="ccsscscsscc"/>
      <path sodipodi:nodetypes="cczsscsscc" id="path4010" d="m 203.23473,749.12237 c 1.34352,2.69705 2.71993,2.9007 1.82364,7.03406 -1.82587,2.22137 -3.29668,-1.69267 -6.11843,-0.92868 -2.82174,0.76399 -3.58383,1.92908 -3.90685,4.45437 -0.43151,3.37338 -3.02082,6.15727 -4.33233,9.58205 -1.879,4.90671 -2.09511,10.09438 -2.77304,9.75501 -1.09199,1.58359 -1.54191,-4.96144 -1.25255,-10.96081 0.13573,-2.81424 0.84849,-5.43934 0.97613,-7.17534 0.58825,-8.00063 2.30394,-13.98206 6.25386,-16.5669 3.32136,-1.21869 7.60144,2.3526 9.32957,4.80624 z" style="fill: rgb(255, 242, 42); fill-opacity: 1;"/>
      <path sodipodi:nodetypes="ccsccccsssssssssssssssccccccssscccsssccsscssccccccsccsssssssscssscssssssssssssssccccccccscccsccsscccsccsssssccccscccssccsssssccssccc" id="path3822" d="m 186.45972,744.74681 c 0.15638,3.56542 -4.09022,8.83047 -4.38152,9.54817 -1.89243,4.99437 -2.87062,5.06833 -2.91469,14.7796 -0.0247,5.43416 1.08912,10.50689 1.32073,11.05031 0.67673,1.58776 1.52888,1.14739 2.18511,-1.12918 0.8386,-2.90932 1.99219,-11.23692 2.51323,-13.25141 5.8e-4,1.79619 -0.14215,2.9705 -0.14557,4.32213 -0.002,10.43853 2.05242,21.12054 3.88613,19.35384 0.65188,-0.62805 1.28774,-6.09611 1.34564,-11.57187 0.049,-4.6375 1.13686,-8.59183 2.36357,-8.59183 0.39865,0 0.61591,2.56458 0.61591,7.27051 0,5.67671 0.18706,7.42009 0.85333,7.95284 1.13891,0.91066 1.90461,0.36691 2.3723,-1.68464 0.494,-2.167 1.46241,-1.62332 1.46241,0.82103 0,1.02969 0.16482,2.66612 0.36626,3.6365 0.48475,2.33519 2.22803,2.37537 3.06196,0.0706 0.33708,-0.93157 0.89314,-1.69377 1.23571,-1.69377 0.34257,0 1.33418,1.39736 2.20358,3.10524 1.98266,3.8948 3.6806,4.01909 3.6806,0.26944 0,-2.04258 1.22857,-1.73021 3.77544,0.95992 2.32133,2.45191 3.45406,3.2016 3.78825,2.01702 0.72094,-2.55544 1.13657,-1.74265 2.68001,1.69377 0.58579,1.30424 1.26735,2.71708 1.6004,3.10523 0.33303,0.38815 1.06705,0.70574 1.63115,0.70574 8.16096,-5.26975 9.50759,0.79557 30.95352,-1.1749 8.85389,-3.53832 17.69516,-11.29909 23.14778,-20.31885 4.59326,-6.54135 7.22263,-25.07744 0.15184,-39.30067 l 0,3e-5 c -0.3013,-0.63565 -2.16185,-2.00227 -3.7275,-2.44254 -3.85354,-1.08364 -16.17321,-1.65086 -20.88771,-1.96129 -7.42566,-0.48893 -13.31743,1.98561 -14.85695,2.63827 -4.3009,1.82332 -8.04055,5.25424 -9.10631,5.25424 l -2.23926,0 -0.26203,-6.77506 c -0.47144,-12.18953 -3.0197,-22.51991 -6.98782,-28.32793 -5.91589,-8.65891 -17.52257,-9.80296 -27.73553,-2.73385 -11.83985,8.1952 -19.17511,28.02134 -20.38228,55.09027 -0.21544,4.83153 -0.20916,9.72228 0.014,10.86832 l -3e-5,0 c 0.44832,2.30241 1.16483,3.02481 2.18663,1.47996 1.59595,-2.41292 0.89635,-1.95638 2.00503,0.0632 1.79824,3.27562 2.60703,0.20896 2.60703,-3.93577 -0.0734,-5.38613 0.78863,-12.21432 3.19159,-17.60739 0.23068,-0.51774 -1.37808,4.7364 -1.93213,9.98797 -0.5171,4.90119 -1.23471,11.65534 -0.0973,11.50374 0.6039,-8.47284 3.59999,-17.6621 8.4575,-25.04688 l 0,-6e-5 -1e-5,0 z m 0.45969,-1.40239 c -3.82529,-0.22727 -5.78197,10.52543 -6.3991,10.81186 -0.55584,0.25798 1.05138,-5.13236 2.07983,-10.99505 -6.16213,2.81094 -6.68507,16.05765 -7.37464,24.10393 -2.37914,1.05056 -1.05074,-12.76562 -1.65526,-11.92149 -1.21528,1.69697 -2.01211,12.24103 -1.83131,12.57056 -2.57312,-17.09797 6.08362,-43.39386 19.73822,-58.10319 5.78788,-5.01362 11.74078,-6.67372 16.72962,-4.66543 4.65009,1.87192 10.43155,9.53925 11.95341,15.8525 1.65971,6.88518 1.78798,20.89852 0.21477,23.46441 -1.30479,2.1281 -0.62848,3.56944 1.44652,3.08282 1.47212,-0.34524 4.65364,-2.17871 7.53874,-4.78166 3.95998,-3.57273 9.49537,-6.21915 12.73358,-7.47193 1.32993,-0.51453 6.04098,-1.18054 11.2927,-0.83695 8.13768,0.53241 7.92949,0.61523 17.73992,2.32517 1.12627,0.19631 2.0133,0.28636 2.7325,0.61608 5.08403,15.44753 4.87536,29.82999 -3.48319,41.2546 -3.95647,5.40776 -12.07605,12.94801 -17.99902,14.45129 -8.97596,2.27814 -22.07644,-5.96673 -30.60577,1.06388 -1.94958,1.60703 -3.02964,-7.44449 -5.12405,-9.12224 -1.05416,-0.54355 -1.28569,-0.40662 -1.88076,1.11227 -0.92736,2.36707 -1.87766,2.17795 -4.06257,-0.80852 -2.12322,-2.90214 -3.38694,-3.26936 -3.40013,-0.98803 -0.005,0.85394 -0.25253,1.92361 -0.55023,2.37705 -0.84312,1.28423 -2.86087,-0.80414 -3.6336,-3.76077 -0.80402,-3.07633 -1.47801,-3.49607 -2.36562,-1.47319 -0.66915,1.52502 -0.71212,1.45514 -1.10731,-1.80094 -0.22613,-1.86314 -0.43976,-4.8484 -0.47475,-6.63391 -0.081,-4.13662 -1.46983,-4.52784 -2.47126,-0.69614 -1.25501,4.80195 -1.82607,3.52976 -1.68319,-3.74975 0.16579,-8.44603 0.20476,-8.14484 -0.93591,-7.23277 -1.92476,1.53903 -3.84678,6.33763 -4.67974,11.68361 -1.27379,8.17521 -1.91874,8.04017 -2.40396,-0.50335 -0.2434,-4.28572 -0.0656,-7.214 0.66409,-10.93452 0.54809,-2.79471 1.14575,-5.84264 1.32813,-6.77319 0.2042,-4.76459 -5.25661,5.67359 -6.09463,9.43652 -1.39771,4.58495 -0.94181,11.99124 -1.40631,10.49516 -0.96565,-2.34358 -0.27514,-9.08528 0.47987,-12.91602 0.42195,-3.17859 9.13008,-18.05256 4.95041,-18.53267 z m 15.80804,5.34623 c -1.50314,-2.45452 -3.52598,-3.73106 -6.52684,-4.11885 -2.68536,-0.34702 -2.93443,-0.8389 -1.06395,-2.10116 1.67172,-1.12812 4.51853,-1.12477 6.19609,0.007 1.39055,0.93839 4.22163,5.8215 4.22163,7.28159 0,1.53115 -1.60673,0.92365 -2.82693,-1.06886 l 0,2.8e-4 z m 4.53575,-5.264 c -1.97379,-4.5817 -2.55647,-5.43939 -4.59408,-6.76234 -2.15685,-1.40039 -6.3649,-1.73053 -9.13306,-0.71655 -1.32037,0.48366 -1.51815,0.42465 -1.3526,-0.40358 0.31421,-1.57197 3.90782,-3.55044 6.44885,-3.55044 2.89754,0 6.45776,1.73811 8.09342,3.95123 1.43126,1.93655 3.5167,7.28562 3.5167,9.0202 0,2.14204 -1.79242,1.21642 -2.97923,-1.53852 z m 6.20852,-0.70573 c -0.31886,-0.46579 -1.3113,-2.58743 -2.20541,-4.71477 -2.10712,-5.0134 -5.41963,-9.7899 -7.51241,-10.83256 -2.24031,-1.11617 -5.61024,-1.01988 -8.49564,0.24274 -2.27467,0.99538 -4.04493,3.04909 -6.81729,7.90884 -0.99889,1.75098 -2.81078,2.40264 -2.81078,1.01092 0,-1.10968 3.93059,-7.20039 5.95016,-9.22016 0.97482,-0.97492 3.09212,-2.46461 4.70509,-3.31042 2.46671,-1.29348 3.46546,-1.5007 6.28564,-1.30417 5.33037,0.37148 8.69951,3.42821 10.88987,9.88009 1.05695,3.11334 1.06608,11.88107 0.0108,10.33949 l -2e-5,0 -1e-5,0 z m 3.24758,-8.89226 c -0.719,-2.49439 -0.79945,-5.04706 -0.17085,-5.42136 0.93392,-0.55609 2.60229,1.32684 2.7673,3.1232 0.40629,4.42291 -1.49811,6.10852 -2.59645,2.29816 z m -32.84713,-5.41456 c 0,-1.80384 3.94167,-8.10918 7.1078,-11.37009 2.67628,-2.7564 4.19038,-3.8038 6.81037,-4.71121 5.70182,-1.97476 7.83124,-2.06658 11.07195,-0.47743 1.56484,0.76735 3.40872,1.99198 4.09753,2.72139 1.71918,1.82053 3.73056,5.80742 3.71969,7.37305 -0.0239,3.4486 -2.81346,3.40458 -4.65514,-0.0735 -1.32047,-2.49376 -2.82501,-3.53376 -6.52907,-4.51318 -3.31039,-0.87533 -5.83156,-0.30754 -9.95549,2.24207 -2.76912,1.712 -9.32362,8.10732 -9.32362,9.09719 0,0.25761 -0.5274,0.46837 -1.17201,0.46837 -0.64461,0 -1.17201,-0.34051 -1.17201,-0.7567 l 0,4e-5 z" style="fill: rgb(0, 0, 0);"/>
      <path sodipodi:nodetypes="cssssscsssssssssssssscc" style="fill: url(&quot;#radialGradient22443&quot;) rgb(0, 0, 0); fill-opacity: 1; fill-rule: evenodd; stroke: none;" d="m 242.08813,736.08522 c 0.66497,-0.25726 2.17482,-0.55315 4.17529,-0.74102 1.00024,-0.0939 2.13195,-0.15427 3.33291,-0.17643 1.20097,-0.0221 2.4778,0.002 3.79073,0.0882 4.06884,0.26621 6.04923,0.42238 8.2407,0.72338 2.19147,0.301 4.59907,0.75058 9.50428,1.60555 1.12627,0.19631 2.00939,0.27015 2.72859,0.59987 0.6355,1.93095 1.18361,3.85779 1.64814,5.75175 0.46452,1.89396 0.83468,3.76101 1.11707,5.61059 0.28239,1.84959 0.4786,3.67163 0.56769,5.46945 0.0891,1.79782 0.0788,3.572 -0.0366,5.31066 -0.11537,1.73866 -0.32826,3.44448 -0.65926,5.11658 -0.33099,1.6721 -0.77905,3.30671 -1.33682,4.90486 -0.55777,1.59815 -1.237,3.15868 -2.03271,4.6755 -0.79571,1.51681 -1.70208,3.00041 -2.7469,4.42848 -0.98912,1.35194 -2.2524,2.83178 -3.66254,4.32263 -1.41013,1.49085 -2.96407,2.98344 -4.59648,4.35792 -1.63241,1.37447 -3.34341,2.63174 -4.99936,3.63453 -0.82797,0.5014 -1.63899,0.94501 -2.43558,1.30561 -0.7966,0.36061 -1.56703,0.64133 -2.3074,0.82924 -1.122,0.28477 -2.31876,0.39949 -3.55266,0.4058 -1.23391,0.006 -2.51551,-0.0933 -3.82735,-0.26465 12.6177,-51.7006 -6.04651,-39.4676 -2.91174,-57.9585 z" id="path3955"/>
    </g>
    <g id="g3938" transform="matrix(2.67238, 0, 0, 2.22487, -151.676, -1243.32)" inkscape:export-filename="/Users/grzegorz/Sites/img/cliparty/kogut.png" inkscape:export-xdpi="90" inkscape:export-ydpi="90">
      <path sodipodi:nodetypes="cssssssssssssscccccccssssssssssscc" id="path2830" d="m 266.55185,642.73526 c -2.4932,0 -3.73579,0.95127 -3.73579,2.89352 0,0.39401 2.16286,2.70557 4.79793,5.13422 3.80042,3.50273 4.64226,4.54999 4.06541,5.09894 -0.57536,0.54752 -1.81532,0.1296 -5.96993,-2.01135 -2.88812,-1.4883 -5.51275,-2.5492 -5.82343,-2.36421 -0.32796,0.19528 0.023,1.45922 0.84238,3.01702 2.52405,4.79892 2.68563,9.02903 0.38457,10.21552 -1.59659,0.82323 -5.17942,-0.51375 -11.28061,-4.23441 -8.16859,-4.98142 -10.56903,-5.21853 -11.37217,-1.09389 -0.64502,3.31257 1.85545,5.8347 7.9477,7.99245 3.19899,1.13302 4.85474,2.51563 4.39504,3.66982 -0.18816,0.4724 -2.14737,2.17383 -4.35842,3.79333 -5.68024,4.16052 -6.17701,7.09529 -1.57489,9.17456 2.83122,1.27916 6.32484,1.15388 12.15962,-0.42344 12.10866,-5.35345 25.05063,-8.77876 28.24014,-20.25996 1.15794,-10.82115 -8.37316,-19.20342 -18.71755,-20.60206 l 0,-6e-5 z m 3.95554,4.51671 c 3.75257,0 9.26162,4.96931 12.30612,11.11533 0.26844,13.52598 -15.85877,16.60244 -21.27933,18.84313 -6.22878,2.37093 -13.95426,2.48906 -13.95426,0.21172 0,-0.45433 1.32896,-1.73734 2.94834,-2.85823 1.61938,-1.12088 3.21033,-2.52192 3.53435,-3.10523 0.84161,-1.5151 -0.62255,-3.39855 -4.57817,-5.92818 -5.29753,-3.38778 -6.77626,-5.29301 -4.12036,-5.29301 0.71068,0 3.90151,1.71493 7.08701,3.81097 5.24733,3.45269 6.06237,3.81097 8.71683,3.81097 2.37214,0 3.14013,-0.26176 4.04711,-1.3409 1.28389,-1.52759 1.50693,-5.41773 0.4395,-7.67487 -1.00298,-2.12086 -0.19879,-2.35574 2.14258,-0.63516 4.3166,3.1721 7.07031,3.11725 8.47877,-0.15879 0.96569,-2.24617 -0.13552,-4.21235 -3.99216,-7.14557 -3.16528,-2.40739 -3.77121,-3.65218 -1.77633,-3.65218 z" style="fill: rgb(0, 0, 0);"/>
      <path id="path2972" d="m 270.50352,647.25985 c 0.46907,0 0.9676,0.0638 1.48332,0.21172 0.51572,0.14788 1.04733,0.37186 1.5932,0.65281 1.09176,0.5619 2.23778,1.37656 3.35122,2.38185 1.11345,1.00529 2.20148,2.19852 3.20472,3.52868 1.00324,1.33016 1.91253,2.80377 2.67365,4.34027 0.0168,0.84538 -0.0235,1.63342 -0.12819,2.3995 -0.10469,0.76609 -0.26319,1.49629 -0.47613,2.18778 -0.21293,0.69149 -0.47949,1.35447 -0.78744,1.97606 -0.30795,0.62159 -0.67242,1.20796 -1.06214,1.76434 -0.77943,1.11276 -1.70146,2.10163 -2.72858,2.98173 -1.02713,0.8801 -2.14565,1.64394 -3.3146,2.32893 -1.16895,0.68498 -2.38437,1.28983 -3.58928,1.81726 -1.20491,0.52744 -2.39935,0.9864 -3.53435,1.39383 -2.27,0.81486 -4.30348,1.43353 -5.65862,1.9937 -1.55719,0.59274 -3.19773,1.032 -4.79792,1.3409 -1.60019,0.3089 -3.14993,0.4734 -4.50492,0.49401 -1.35498,0.0206 -2.52963,-0.0984 -3.35122,-0.37051 -0.41079,-0.13606 -0.72885,-0.30157 -0.95225,-0.51165 -0.22341,-0.21009 -0.34795,-0.45636 -0.34795,-0.74103 0,-0.22716 0.34435,-0.66445 0.87901,-1.1821 0.53466,-0.51766 1.25965,-1.11568 2.06934,-1.67612 0.80969,-0.56045 1.61179,-1.20106 2.25245,-1.76434 0.64067,-0.56329 1.11988,-1.04924 1.28189,-1.3409 0.21041,-0.37877 0.28216,-0.78823 0.20144,-1.21739 -0.0807,-0.42916 -0.31823,-0.88796 -0.69588,-1.37619 -0.37765,-0.48822 -0.89451,-1.01428 -1.57489,-1.57026 -0.68038,-0.55598 -1.51993,-1.13193 -2.50884,-1.76434 -1.32438,-0.84694 -2.39924,-1.60332 -3.24134,-2.25835 -0.8421,-0.65502 -1.4447,-1.20858 -1.79464,-1.65848 -0.17497,-0.22494 -0.29786,-0.42869 -0.34794,-0.59987 -0.0501,-0.17118 -0.0211,-0.32531 0.0549,-0.44109 0.15208,-0.23155 0.54465,-0.33522 1.20863,-0.33522 0.35534,0 1.33398,0.42079 2.61871,1.11153 1.28473,0.69074 2.87555,1.65142 4.4683,2.69944 2.62366,1.72635 4.1375,2.6723 5.32899,3.19345 0.59574,0.26058 1.11645,0.40648 1.64814,0.49402 0.53168,0.0875 1.07608,0.1235 1.7397,0.1235 1.18607,0 1.9802,-0.082 2.58209,-0.28229 0.30094,-0.10017 0.55084,-0.22951 0.78744,-0.4058 0.23661,-0.17629 0.45083,-0.38302 0.67757,-0.65281 0.32098,-0.3819 0.58436,-0.92019 0.76913,-1.53497 0.18478,-0.61479 0.28823,-1.30618 0.32963,-2.02899 0.0414,-0.72281 0.0176,-1.4818 -0.0916,-2.18778 -0.10914,-0.70598 -0.30084,-1.35884 -0.56769,-1.92313 -0.25075,-0.53021 -0.39213,-0.94165 -0.42119,-1.23503 -0.0291,-0.29339 0.0539,-0.47493 0.23806,-0.52931 0.18418,-0.0544 0.47172,0.007 0.8607,0.19408 0.38897,0.1868 0.87967,0.50495 1.46501,0.9351 1.07915,0.79303 2.06115,1.37459 2.94834,1.76434 0.88719,0.38975 1.67862,0.57794 2.38065,0.56459 0.35102,-0.007 0.68288,-0.069 0.98888,-0.17644 0.306,-0.10742 0.59887,-0.25059 0.8607,-0.45872 0.52367,-0.41628 0.94809,-1.03355 1.3002,-1.85256 0.24142,-0.56154 0.35733,-1.11245 0.32963,-1.65848 -0.0277,-0.54603 -0.19442,-1.08899 -0.51276,-1.65848 -0.31833,-0.56948 -0.77958,-1.16771 -1.41007,-1.79962 -0.63049,-0.63191 -1.4348,-1.29569 -2.39896,-2.02899 -0.79132,-0.60184 -1.41546,-1.13266 -1.88621,-1.5879 -0.47075,-0.45524 -0.78505,-0.84076 -0.93395,-1.14682 -0.14889,-0.30607 -0.13764,-0.53378 0.0366,-0.6881 0.17426,-0.15431 0.50848,-0.22936 1.0072,-0.22936 z" style="fill: rgb(255, 0, 0); fill-opacity: 1; fill-rule: evenodd; stroke: none;"/>
      <path id="path2993" d="m 293.25503,681.85617 c 0.26425,0 0.53727,0.10071 0.76913,0.24701 0.23187,0.14629 0.42258,0.33817 0.51276,0.56458 0.0731,0.18359 0.36992,0.46515 0.73251,0.77631 1.07779,0.55797 2.05763,1.13363 2.94834,1.71141 0.89071,0.57778 1.69952,1.16027 2.41727,1.74669 0.71775,0.58643 1.34559,1.18045 1.90452,1.76434 0.55892,0.58389 1.05078,1.15887 1.46501,1.72905 0.41423,0.57019 0.76016,1.13081 1.04382,1.67613 0.28367,0.54531 0.49204,1.07863 0.65926,1.5879 0.33444,1.01854 0.44943,1.94504 0.40288,2.75237 -0.0465,0.80732 -0.25317,1.48696 -0.56769,1.9937 -0.15726,0.25337 -0.32801,0.47369 -0.53107,0.63516 -0.20306,0.16147 -0.42453,0.27684 -0.65926,0.33523 -0.23473,0.0584 -0.49855,0.0558 -0.75082,0 -0.25227,-0.0558 -0.49513,-0.1716 -0.75082,-0.35287 -0.25568,-0.18127 -0.52416,-0.42316 -0.76913,-0.74102 -0.24497,-0.31787 -0.47575,-0.71648 -0.69588,-1.18211 -0.0679,-0.65754 -0.27186,-1.348 -0.58601,-2.08192 -0.31414,-0.73392 -0.73066,-1.50353 -1.20863,-2.276 -0.95594,-1.54493 -2.16103,-3.13281 -3.27797,-4.60492 -1.11694,-1.47211 -2.14633,-2.83786 -2.76522,-3.93447 -0.30944,-0.54831 -0.52465,-1.03144 -0.586,-1.42912 -0.0614,-0.39767 0.0239,-0.70824 0.293,-0.91745 z" style="fill: rgb(255, 0, 0); fill-opacity: 1; fill-rule: evenodd; stroke: none;"/>
      <path style="fill: rgb(0, 0, 0);" d="m 295.59309,658.1549 c -11.53136,4.62258 -5.56645,6.40501 -17.98305,7.37493 -5.05407,1.31119 -7.5534,5.52284 -12.45262,20.85448 -4.08506,12.7838 -6.98042,19.70486 -10.47485,25.10653 -6.25732,10.69105 -15.11436,11.77723 -20.03407,22.03659 1.62259,5.60588 4.12627,-0.21749 6.11644,0.19407 0.94968,0.1964 0.10192,2.7641 0.86069,2.69944 1.71104,-0.24261 3.34798,-2.4942 3.9006,-2.29364 1.26141,0.45779 -0.45643,3.17516 1.06214,4.11091 1.72791,1.06474 3.79072,-2.49692 3.79072,-1.76434 0,3.3259 1.41197,5.60194 3.25966,3.15817 1.66179,-2.1979 3.0651,-1.4429 3.07653,1.64083 0.0158,4.26226 1.93473,5.2043 3.20472,1.57026 1.21648,-3.48093 2.05102,-2.73539 2.05102,1.85256 0,3.23185 0.24868,4.51925 1.06213,5.48707 1.55407,1.84908 3.46997,1.04516 4.88948,-2.04661 1.31299,-2.85974 2.09177,-3.12583 2.58209,-0.91746 0.63222,2.84748 1.40402,4.09324 2.52715,4.09324 1.51755,0 2.12162,-0.8772 3.24135,-4.64018 0.52659,-1.76971 1.24704,-3.3755 1.5932,-3.58161 1.39376,-0.82991 1.85386,0.64121 3.42447,10.93887 0.0158,0.10355 0.34794,0.0934 0.75082,-0.035 1.2499,-0.39916 2.08391,-5.47679 2.14258,-13.05608 0.0474,-6.12713 -0.20119,-8.45355 -1.66645,-14.76751 -3.24029,-13.96272 -3.58552,-21.62215 -1.3002,-29.74674 1.21786,-4.32963 2.19001,-4.77835 2.58208,-1.18211 0.51736,4.74528 2.65156,9.22413 5.7685,12.08572 3.57915,3.28594 7.14648,4.42531 9.76065,3.12288 1.75469,-0.87422 2.69995,-2.50413 3.36954,-5.78703 0.29407,-1.44179 0.77232,-1.86832 2.67365,-2.41715 4.19623,-1.21127 5.23196,-5.51559 2.56377,-10.67424 -1.57083,-3.03703 -4.80424,-6.10275 -8.60696,-8.16889 -2.50266,-1.35977 -2.74494,-2.16278 -0.91563,-2.96409 1.86722,-0.8179 4.80882,-4.57171 4.39504,-5.61059 -0.24467,-0.61431 -1.15335,-0.86453 -2.98496,-0.86453 -1.44146,0 -2.76438,-0.24252 -2.94834,-0.5293 -0.40368,-0.62928 2.12578,-2.38141 4.94442,-3.42281 1.12806,-0.41679 2.3969,-1.01047 2.82015,-1.32326 2.36991,-1.75142 -5.13807,-1.76852 -7.96601,-0.0176 -0.74484,0.46115 -1.59406,0.76765 -1.88621,0.67045 -0.29215,-0.0972 0.36431,-2.3306 1.46501,-4.95779 2.14832,-5.12767 2.03619,-6.22812 -0.65925,-6.22812 l 0,-3e-5 z m -1.37345,3.52868 c 0.25415,0.0124 0.45562,0.0801 0.60432,0.22936 0.25317,0.25413 -0.70062,3.08449 -2.12427,6.28105 -1.42365,3.19655 -2.6004,6.16135 -2.6004,6.59862 0,0.57684 0.979,0.84843 3.53434,0.97039 1.9371,0.0924 3.52014,0.43049 3.51604,0.74102 -0.008,0.61776 -2.51339,2.01139 -6.17138,3.4581 l -2.34402,0.9351 1.55658,0.56459 c 1.3589,0.50235 1.50868,0.80564 1.26357,2.59358 -0.24298,1.77242 0.19432,2.72823 3.49772,7.48079 3.85402,5.54472 4.27834,8.24279 4.23023,11.25648 1.98802,7.92369 -8.72016,4.90782 -11.34324,-1.97099 -2.03514,-5.33697 -1.82894,-12.35758 -2.16816,-13.18929 -1.9901,2.10482 -4.25977,3.0411 -5.34064,4.53098 -2.2569,3.11093 -2.10757,6.49517 -2.8851,12.95822 -0.4572,6.81322 0.20293,12.11349 2.7469,22.17773 1.0883,4.30546 1.70308,8.25264 1.70308,10.86833 0,4.1587 -0.76378,5.46575 -1.4467,2.47007 -0.20503,-0.89937 -0.8995,-2.10888 -1.55658,-2.68179 -1.16641,-1.01701 -1.23221,-1.00113 -2.32571,0.29993 -0.61601,0.73294 -1.52733,2.70064 -2.03271,4.37556 -1.02066,3.38264 -1.773,3.47744 -2.32571,0.31758 -0.61358,-3.50785 -0.89227,-4.05797 -1.97777,-4.05797 -1.05365,0 -2.54285,2.65867 -3.24134,5.78702 -0.38681,1.73239 -1.84016,2.09128 -2.28909,0.56459 -0.15979,-0.54341 -0.47794,-3.09996 -0.69588,-5.66352 -0.21793,-2.56356 -0.63642,-4.79828 -0.93394,-4.97544 -0.29752,-0.17715 -1.28969,0.45626 -2.21584,1.41147 -2.01651,2.07979 -2.39896,2.15473 -2.39896,0.44109 0,-0.71696 -0.35717,-1.79081 -0.80576,-2.38186 -0.69132,-0.91089 -0.96274,-0.95347 -1.75801,-0.31758 -0.51602,0.4126 -1.21393,1.73808 -1.55658,2.96409 -0.89369,3.1976 -2.07262,2.47731 -1.86789,-1.14682 0.0483,-0.85499 0.99193,-2.42798 -0.12819,-2.8053 -0.72243,-0.24335 -2.7165,2.65529 -4.19361,2.43479 -1.39049,-0.20757 1.35243,-2.74452 -1.66645,-4.12855 -1.27437,-0.58425 -2.76379,2.87664 -3.93722,3.70511 -0.53948,0.38088 1.82326,-2.14582 1.09876,-2.9288 -0.89516,-0.96741 -3.99357,0.62528 -5.0543,1.41147 -0.0988,0.13125 -0.2272,0.24712 -0.40288,0.35286 -5.1e-4,-0.0618 0.1801,-0.18774 0.40288,-0.35286 0.29653,-0.39376 0.41096,-0.89812 1.31851,-1.57026 14.14065,-11.98457 21.8249,-20.49317 25.89412,-38.81544 2.8028,-10.53477 5.04637,-17.05954 6.84895,-19.91938 1.33413,-2.11665 5.46526,-4.64021 7.58144,-4.64021 2.38113,-0.64166 4.37024,0.13381 6.40944,-0.68809 1.75598,-2.99764 5.80236,-6.03237 7.58145,-5.94582 z m -13.13019,10.58603 c -1.19494,0 -2.29295,1.54402 -1.86789,2.61122 0.33953,0.85246 0.4579,0.83779 1.51995,-0.0882 1.33952,-1.16795 1.52472,-2.523 0.34794,-2.523 z m 12.19624,9.598 c 0.52851,0 1.10153,0.35875 1.28189,0.81159 0.0731,0.18359 0.36992,0.46515 0.73251,0.77631 17.24466,8.92747 9.63848,21.10599 6.11643,13.65598 -0.54355,-5.26029 -10.28371,-13.5702 -8.13083,-15.24388 z" id="path2959" sodipodi:nodetypes="ccsccscsssssssssssssssssssssssssssssssssscccssssscccsscscscssssssssssssssssssssssscccccsccccssccsccc"/>
      <path id="path2985" d="m 294.14845,661.73553 c 0.25416,0.0124 0.45562,0.0801 0.60432,0.22937 0.12659,0.12706 -0.0365,0.9077 -0.42119,2.04663 -0.38476,1.13892 -0.99126,2.63613 -1.70308,4.23441 -1.42365,3.19656 -2.6004,6.16135 -2.6004,6.59862 0,0.14422 0.0697,0.27967 0.20144,0.38816 0.13171,0.10848 0.32223,0.20467 0.60432,0.28229 0.56417,0.15525 1.45092,0.23896 2.72858,0.29994 0.96855,0.0462 1.85314,0.16505 2.49053,0.29994 0.63738,0.13488 1.02756,0.28582 1.02551,0.44108 -0.002,0.15444 -0.16465,0.35975 -0.45782,0.59988 -0.29317,0.24013 -0.72129,0.526 -1.26357,0.82924 -1.08457,0.60646 -2.62099,1.30563 -4.44998,2.02898 l -2.34403,0.9351 1.55658,0.56459 c 0.33973,0.12559 0.60445,0.2435 0.80576,0.37051 0.20131,0.12702 0.35117,0.27768 0.4395,0.45873 0.17667,0.36211 0.14087,0.87037 0.0183,1.76434 -0.0608,0.4431 -0.0768,0.83956 -0.0183,1.25268 0.0584,0.41311 0.19357,0.8489 0.43951,1.37618 0.49187,1.05458 1.42482,2.47565 3.07653,4.85193 0.9635,1.38619 1.70808,2.60771 2.28908,3.68747 0.581,1.07976 1.00929,2.02136 1.3002,2.89351 0.29091,0.87216 0.45615,1.67141 0.54938,2.43479 0.0932,0.76338 0.10359,1.48729 0.0916,2.24071 0.24851,0.99046 0.30911,1.80765 0.20144,2.47007 -0.0538,0.33121 -0.14703,0.62779 -0.27469,0.88217 -0.12765,0.25439 -0.30311,0.4718 -0.49444,0.65281 -0.38265,0.36202 -0.87023,0.58117 -1.4467,0.67045 -0.57647,0.0893 -1.23372,0.05 -1.92283,-0.10586 -0.68911,-0.15584 -1.42202,-0.42065 -2.14258,-0.79396 -0.72057,-0.3733 -1.43511,-0.84834 -2.10596,-1.41147 -0.67085,-0.56313 -1.29131,-1.21545 -1.83127,-1.94077 -0.53996,-0.72531 -0.99062,-1.522 -1.31851,-2.38186 -0.50878,-1.33424 -0.88154,-2.77743 -1.1537,-4.19912 -0.27216,-1.42169 -0.44507,-2.83015 -0.56769,-4.09326 -0.24525,-2.52624 -0.28821,-4.48901 -0.45782,-4.90486 -0.99505,1.0524 -2.05199,1.82195 -3.00328,2.50536 -0.47564,0.3417 -0.92264,0.65785 -1.31851,0.98802 -0.39588,0.33018 -0.73698,0.66849 -1.0072,1.04096 -0.56422,0.77774 -0.98468,1.57906 -1.3002,2.43479 -0.31552,0.85574 -0.5249,1.76625 -0.69588,2.78766 -0.34197,2.04281 -0.50855,4.49627 -0.89732,7.7278 -0.1143,1.7033 -0.14722,3.31024 -0.10988,4.9225 0.0373,1.61226 0.15332,3.24041 0.36626,4.95779 0.21293,1.71738 0.52145,3.53903 0.93394,5.55767 0.41249,2.01864 0.92059,4.22371 1.55658,6.73977 0.54415,2.15273 0.97384,4.21738 1.26357,6.06932 0.28974,1.85194 0.43951,3.49115 0.43951,4.799 0,1.03968 -0.0459,1.91539 -0.12819,2.57593 -0.0823,0.66055 -0.19147,1.10483 -0.32963,1.3409 -0.0691,0.11803 -0.14165,0.19066 -0.21975,0.19408 -0.0781,0.003 -0.17256,-0.0596 -0.25638,-0.17644 -0.16764,-0.23375 -0.34202,-0.71548 -0.51275,-1.4644 -0.10252,-0.44968 -0.32294,-0.97798 -0.60432,-1.4644 -0.28138,-0.48641 -0.62372,-0.93093 -0.95226,-1.21739 -0.5832,-0.5085 -0.89139,-0.74521 -1.19032,-0.70574 -0.29894,0.0395 -0.58864,0.35515 -1.13539,1.00568 -0.308,0.36647 -0.69413,1.042 -1.06214,1.83491 -0.368,0.79291 -0.71788,1.70319 -0.97057,2.54065 -0.25516,0.84565 -0.49149,1.48793 -0.71419,1.92312 -0.2227,0.4352 -0.43025,0.66232 -0.62263,0.6881 -0.19238,0.0258 -0.36687,-0.14669 -0.53107,-0.52931 -0.1642,-0.38261 -0.31964,-0.97437 -0.45782,-1.76433 -0.30679,-1.75393 -0.5237,-2.75859 -0.80575,-3.3346 -0.14103,-0.28801 -0.30609,-0.47585 -0.49445,-0.58223 -0.18836,-0.10639 -0.40619,-0.14115 -0.67757,-0.14115 -0.26341,0 -0.54368,0.17824 -0.84238,0.47637 -0.2987,0.29813 -0.61998,0.72482 -0.91563,1.25268 -0.29566,0.52786 -0.56977,1.14574 -0.82407,1.83491 -0.25431,0.68918 -0.48464,1.44098 -0.65926,2.22307 -0.0967,0.43309 -0.26016,0.78755 -0.45782,1.04096 -0.19766,0.25341 -0.42535,0.41863 -0.65925,0.47639 -0.23391,0.0577 -0.47215,0.013 -0.67757,-0.14117 -0.20543,-0.15397 -0.38221,-0.42992 -0.49444,-0.81159 -0.1598,-0.54342 -0.47795,-3.09997 -0.69589,-5.66353 -0.10896,-1.28178 -0.27044,-2.46862 -0.4395,-3.36989 -0.16906,-0.90126 -0.34568,-1.51696 -0.49444,-1.60554 -0.14876,-0.0886 -0.45969,0.0267 -0.8607,0.28229 -0.401,0.25561 -0.89206,0.65157 -1.35514,1.12918 -1.00825,1.03989 -1.61178,1.57633 -1.95945,1.64083 -0.17384,0.0322 -0.28058,-0.0456 -0.34794,-0.24701 -0.0674,-0.20145 -0.0916,-0.52433 -0.0916,-0.95274 0,-0.35848 -0.0927,-0.80307 -0.23806,-1.23503 -0.14537,-0.43197 -0.34341,-0.8513 -0.56769,-1.14682 -0.34567,-0.45545 -0.58871,-0.69601 -0.84239,-0.74103 -0.25368,-0.045 -0.518,0.1055 -0.91563,0.42344 -0.25801,0.20631 -0.56057,0.64592 -0.84238,1.18211 -0.28181,0.5362 -0.54287,1.16898 -0.7142,1.78198 -0.22342,0.7994 -0.46288,1.36826 -0.69588,1.69377 -0.1165,0.16275 -0.22051,0.26736 -0.32963,0.31758 -0.10911,0.0503 -0.2161,0.0407 -0.31131,-0.0176 -0.19043,-0.11669 -0.34381,-0.44318 -0.43951,-0.97038 -0.0957,-0.52721 -0.14274,-1.2641 -0.0916,-2.17014 0.0241,-0.42749 0.28263,-1.02298 0.38456,-1.57026 0.051,-0.27364 0.05,-0.54478 -0.0183,-0.75867 -0.0683,-0.21388 -0.21441,-0.38203 -0.49444,-0.47637 -0.18061,-0.0608 -0.43921,0.0835 -0.75082,0.31758 -0.31162,0.23408 -0.67541,0.56648 -1.06214,0.89982 -0.38672,0.33334 -0.80268,0.66287 -1.20863,0.89981 -0.40595,0.23693 -0.80274,0.37271 -1.17201,0.31758 -0.17381,-0.026 -0.28398,-0.0845 -0.34794,-0.17643 -0.064,-0.0919 -0.0805,-0.20855 -0.0733,-0.35287 0.0144,-0.28865 0.13416,-0.6773 0.20144,-1.09389 0.0673,-0.41659 0.0792,-0.8699 -0.10987,-1.30561 -0.0945,-0.21786 -0.24119,-0.43293 -0.45782,-0.63516 -0.21663,-0.20223 -0.50165,-0.39159 -0.87901,-0.56459 -0.15929,-0.073 -0.31115,-0.0756 -0.47613,-0.0353 -0.16498,0.0404 -0.34416,0.13703 -0.51275,0.26465 -0.33718,0.25525 -0.66803,0.64602 -1.0072,1.09389 -0.33917,0.44788 -0.68264,0.94436 -1.0072,1.37619 -0.32456,0.43183 -0.64059,0.79855 -0.93394,1.00567 -0.26974,0.19044 0.18994,-0.34138 0.62263,-1.02332 0.21634,-0.34097 0.41987,-0.71757 0.53107,-1.0586 0.11119,-0.34103 0.12619,-0.65113 -0.0549,-0.84688 -0.22379,-0.24185 -0.57427,-0.3255 -1.0072,-0.29994 -0.43293,0.0256 -0.93716,0.16511 -1.4467,0.35287 -1.01909,0.37552 -2.07004,0.96544 -2.6004,1.35854 0,0 0,0 0,0 0.14827,-0.19688 0.26038,-0.41112 0.4395,-0.67045 0.17912,-0.25933 0.42524,-0.56374 0.87901,-0.89981 1.76758,-1.49808 3.44631,-2.94251 5.01767,-4.35792 1.57137,-1.4154 3.04542,-2.79683 4.43167,-4.18148 1.38626,-1.38465 2.67005,-2.75803 3.88229,-4.16384 1.21224,-1.40581 2.33852,-2.84375 3.38784,-4.32263 1.04933,-1.47887 2.03252,-3.00106 2.93003,-4.60492 0.89751,-1.60386 1.71542,-3.28289 2.47221,-5.06365 0.7568,-1.78076 1.44216,-3.67161 2.06934,-5.68117 0.62717,-2.00956 1.19442,-4.14955 1.70308,-6.43983 1.40139,-5.26738 2.67247,-9.52122 3.80903,-12.82674 0.56829,-1.65276 1.1039,-3.07358 1.61152,-4.25206 0.50761,-1.17847 0.97774,-2.12562 1.42839,-2.84058 0.33353,-0.52917 0.83873,-1.07131 1.4467,-1.60555 0.60797,-0.53423 1.31898,-1.05195 2.05102,-1.49968 0.73204,-0.44774 1.49179,-0.82424 2.19752,-1.09389 0.70572,-0.26966 1.35716,-0.44109 1.8862,-0.44109 0.59529,-0.16042 1.16821,-0.23428 1.7214,-0.26465 0.55318,-0.0304 1.0866,-0.006 1.61151,0 0.52491,0.006 1.04613,-2e-5 1.55658,-0.0529 0.51044,-0.0529 1.01015,-0.16504 1.51995,-0.37051 0.43899,-0.74941 1.03068,-1.50073 1.68477,-2.20543 0.65408,-0.70469 1.37921,-1.36184 2.10595,-1.92312 0.72675,-0.56129 1.44899,-1.02173 2.10596,-1.3409 0.65697,-0.31917 1.24,-0.49801 1.68477,-0.47637 z" style="fill: rgb(255, 255, 255); fill-opacity: 1; fill-rule: evenodd; stroke: none;"/>
      <path sodipodi:nodetypes="cssssssssssscssssscc" id="path2987" d="m 285.62244,687.62917 c 0.1696,0.41586 0.21257,2.37862 0.45781,4.90486 0.12263,1.26312 0.29554,2.67158 0.5677,4.09327 0.27216,1.42169 0.64491,2.86488 1.1537,4.19912 0.32788,0.85985 0.77855,1.65654 1.31851,2.38186 0.53996,0.72531 1.16042,1.37764 1.83127,1.94077 0.67084,0.56313 1.38539,1.03817 2.10595,1.41147 0.72057,0.37331 1.45348,0.63812 2.14259,0.79395 0.6891,0.15584 1.34636,0.19514 1.92283,0.10586 0.57647,-0.0893 1.06404,-0.30842 1.4467,-0.67045 0.19133,-0.18101 0.36679,-0.39841 0.49444,-0.6528 0.12766,-0.25439 0.22086,-0.55096 0.27469,-0.88217 0.10767,-0.66242 0.0471,-1.47961 -0.20144,-2.47007 0.012,-0.75342 0.002,-1.47733 -0.0916,-2.24071 -0.0932,-0.76338 -0.25847,-1.56263 -0.54938,-2.43479 -0.29091,-0.87216 -0.7192,-1.81376 -1.3002,-2.89351 -0.581,-1.07976 -1.32558,-2.30129 -2.28909,-3.68747 -1.6517,-2.37628 -2.58465,-3.79735 -3.07653,-4.85193 -0.24594,-0.52729 -0.38106,-1.96371 -0.4395,-2.37683 -0.3975,1.1 -3.0552,4.29025 -5.76849,3.32957 z" style="fill: rgb(255, 0, 0); fill-opacity: 1; fill-rule: evenodd; stroke: none;"/>
      <path sodipodi:nodetypes="csssccccssssssssssscc" style="fill: url(&quot;#linearGradient22445&quot;) rgb(0, 0, 0); fill-opacity: 1; fill-rule: evenodd; stroke: none;" d="m 294.28144,661.66906 c -0.44477,-0.0216 -1.0278,0.15719 -1.68477,0.47637 -0.65697,0.31917 -1.37922,0.77961 -2.10596,1.34089 -0.72674,0.56129 -1.45187,1.21844 -2.10595,1.92313 -0.65409,0.7047 -1.24578,1.45601 -1.68477,2.20543 2.18608,2.37347 2.70029,4.92593 3.16096,7.48412 0.57784,2.50965 -0.19715,4.20469 -1.16494,5.78364 l 2.34403,-0.9351 c 1.82899,-0.72335 3.36541,-1.42252 4.44998,-2.02899 0.54228,-0.30323 0.9704,-0.5891 1.26357,-0.82923 0.29317,-0.24014 0.45575,-0.44544 0.45782,-0.59988 0.002,-0.15526 -0.38813,-0.3062 -1.02551,-0.44108 -0.63739,-0.13489 -1.52198,-0.25372 -2.49053,-0.29994 -1.27766,-0.061 -2.16441,-0.14469 -2.72859,-0.29994 -0.28208,-0.0776 -0.4726,-0.17381 -0.60431,-0.28229 -0.13171,-0.10849 -0.20144,-0.24394 -0.20144,-0.38816 0,-0.43727 1.17675,-3.40206 2.6004,-6.59862 0.71182,-1.59828 1.31832,-3.09549 1.70308,-4.23441 0.38476,-1.13893 0.54778,-1.91957 0.42119,-2.04664 -0.1487,-0.14926 -0.35016,-0.217 -0.60432,-0.22936 l 6e-5,6e-5 z" id="path3012"/>
      <path sodipodi:nodetypes="csssssssssssssssssssssssssssssssssssssssssssssssssssssssssssssssssssssssccscsscc" style="fill: url(&quot;#linearGradient22447&quot;) rgb(0, 0, 0); fill-opacity: 1; fill-rule: evenodd; stroke: none;" d="m 278.43916,720.85686 c 0.41249,2.01864 0.92059,4.22371 1.55658,6.73977 0.54415,2.15273 0.97384,4.21738 1.26358,6.06932 0.28973,1.85194 0.4395,3.49115 0.4395,4.799 0,1.03968 -0.0459,1.91539 -0.12819,2.57593 -0.0823,0.66055 -0.19147,1.10483 -0.32963,1.3409 -0.0691,0.11803 -0.14165,0.19066 -0.21975,0.19408 -0.0781,0.003 -0.17255,-0.0596 -0.25638,-0.17644 -0.16763,-0.23375 -0.34202,-0.71548 -0.51275,-1.4644 -0.10252,-0.44968 -0.32294,-0.97798 -0.60432,-1.4644 -0.28138,-0.48641 -0.62371,-0.93093 -0.95226,-1.21739 -0.5832,-0.5085 -0.89138,-0.74521 -1.19032,-0.70574 -0.29894,0.0395 -0.58864,0.35515 -1.13539,1.00568 -0.308,0.36647 -0.69413,1.042 -1.06213,1.83491 -0.36801,0.79291 -0.71788,1.70319 -0.97058,2.54065 -0.25516,0.84565 -0.49149,1.48793 -0.71419,1.92312 -0.2227,0.4352 -0.43025,0.66232 -0.62263,0.6881 -0.19238,0.0258 -0.36686,-0.14669 -0.53107,-0.52931 -0.1642,-0.38261 -0.31963,-0.97437 -0.45781,-1.76433 -0.3068,-1.75393 -0.52371,-2.75859 -0.80576,-3.3346 -0.14103,-0.28801 -0.30609,-0.47585 -0.49444,-0.58223 -0.18836,-0.10639 -0.4062,-0.14115 -0.67757,-0.14115 -0.26342,0 -0.54369,0.17824 -0.84239,0.47637 -0.2987,0.29813 -0.61997,0.72482 -0.91563,1.25268 -0.29566,0.52786 -0.56977,1.14574 -0.82407,1.83491 -0.2543,0.68918 -0.48463,1.44098 -0.65926,2.22307 -0.0967,0.43309 -0.26015,0.78755 -0.45781,1.04096 -0.19766,0.25341 -0.42536,0.41863 -0.65926,0.47639 -0.2339,0.0577 -0.47215,0.013 -0.67757,-0.14117 -0.20542,-0.15397 -0.38221,-0.42992 -0.49444,-0.81159 -0.15979,-0.54342 -0.47795,-3.09997 -0.69588,-5.66353 -0.10897,-1.28178 -0.27045,-2.46862 -0.43951,-3.36989 -0.16905,-0.90126 -0.34568,-1.51696 -0.49444,-1.60554 -0.14876,-0.0886 -0.45969,0.0267 -0.8607,0.28229 -0.401,0.25561 -0.89206,0.65157 -1.35513,1.12918 -1.00826,1.03989 -1.61178,1.57633 -1.95946,1.64083 -0.17384,0.0322 -0.28058,-0.0456 -0.34794,-0.24701 -0.0674,-0.20145 -0.0916,-0.52433 -0.0916,-0.95274 0,-0.35848 -0.0927,-0.80307 -0.23807,-1.23503 -0.14536,-0.43197 -0.3434,-0.8513 -0.56769,-1.14682 -0.34566,-0.45545 -0.5887,-0.69601 -0.84239,-0.74103 -0.25368,-0.045 -0.518,0.1055 -0.91563,0.42344 -0.25801,0.20631 -0.56057,0.64592 -0.84238,1.18211 -0.28181,0.5362 -0.54287,1.16898 -0.7142,1.78198 -0.22342,0.7994 -0.46288,1.36826 -0.69588,1.69377 -0.1165,0.16275 -0.22051,0.26736 -0.32963,0.31758 -0.10911,0.0503 -0.2161,0.0407 -0.31131,-0.0176 -0.19043,-0.11669 -0.34381,-0.44318 -0.43951,-0.97038 -0.0957,-0.52721 -0.14274,-1.2641 -0.0916,-2.17014 0.0241,-0.42749 0.28263,-1.02298 0.38457,-1.57026 0.051,-0.27364 0.05,-0.54478 -0.0183,-0.75867 -0.0683,-0.21388 -0.2144,-0.38203 -0.49444,-0.47637 -0.18061,-0.0608 -0.4392,0.0835 -0.75082,0.31758 -0.31161,0.23408 -0.67541,0.56648 -1.06213,0.89982 -0.38673,0.33334 -0.80269,0.66287 -1.20864,0.89981 -0.40595,0.23693 -0.80273,0.37271 -1.17201,0.31758 -0.17381,-0.026 -0.28397,-0.0845 -0.34794,-0.17643 -0.064,-0.0919 -0.0805,-0.20855 -0.0733,-0.35287 0.0144,-0.28865 0.13416,-0.6773 0.20144,-1.09389 0.0673,-0.41659 0.0792,-0.8699 -0.10988,-1.30561 -0.0946,-0.21786 -0.24119,-0.43293 -0.45782,-0.63516 -0.21663,-0.20223 -0.50165,-0.39159 -0.87901,-0.56459 -0.15929,-0.073 -0.31115,-0.0756 -0.47612,-0.0353 -0.16498,0.0404 -0.34417,0.13703 -0.51276,0.26465 -0.33718,0.25525 -0.66803,0.64602 -1.0072,1.09389 -0.33917,0.44788 -0.68263,0.94436 -1.00719,1.37619 -0.32456,0.43183 -0.6406,0.79855 -0.93395,1.00567 -0.26974,0.19044 0.18994,-0.34138 0.62263,-1.02332 0.21634,-0.34097 0.41987,-0.71757 0.53107,-1.0586 0.11119,-0.34103 0.12619,-0.65113 -0.0549,-0.84688 -0.22379,-0.24185 -0.57427,-0.3255 -1.0072,-0.29994 -0.43293,0.0256 -0.93716,0.16511 -1.4467,0.35287 -1.01909,0.37552 -2.07003,0.96544 -2.6004,1.35854 0,0 0,0 0,0 0.14827,-0.19688 0.26039,-0.41112 0.4395,-0.67045 0.17912,-0.25933 0.42524,-0.56374 0.87901,-0.89981 1.76758,-1.49808 3.44631,-2.94251 5.01768,-4.35792 1.57136,-1.4154 3.04541,-2.79683 4.43166,-4.18148 1.38626,-1.38465 2.67005,-2.75803 3.88229,-4.16384 11.12173,-13.45978 25.30188,-13.90078 25.39975,1.57023 z" id="path3902"/>
      <path style="fill: rgb(0, 0, 0);" d="m 280.34829,673.38136 c -1.19494,0 -2.29295,1.54402 -1.86789,2.61122 0.33953,0.85246 0.4579,0.83779 1.51995,-0.0882 1.33953,-1.16795 1.52472,-2.523 0.34794,-2.523 l 0,-2e-5 z" id="path3927" sodipodi:nodetypes="csccs"/>
    </g>
    <g id="g3869" transform="matrix(1.56603, 0, 0, 1.25614, 37.3131, -428.73)" inkscape:export-filename="/Users/grzegorz/Sites/img/cliparty/kogut.png" inkscape:export-xdpi="90" inkscape:export-ydpi="90">
      <g transform="translate(-83.2147, -79.2044)" id="g3095">
        <path style="fill: rgb(255, 255, 255); fill-opacity: 1; fill-rule: evenodd; stroke: none;" d="m 356.74663,823.78901 c -0.40762,1.44825 -0.72726,3.02484 -0.9375,4.71875 -0.53836,1.18325 -0.98391,2.77373 -1.4375,4.5625 -0.45359,1.78877 -0.91358,3.77276 -1.46875,5.75 2.76724,9.81092 -12.63999,17.05108 -12.59375,20.78125 0.33276,0.58177 0.78341,1.21757 1.25,1.8125 0.93319,1.18986 1.9125,2.20504 2.1875,2.375 0.39711,2.2579 0.5236,4.37125 0.46875,6.40625 -0.0548,2.035 -0.28994,4.00285 -0.59375,5.96875 -0.60762,3.9318 -1.48953,7.89048 -1.875,12.46875 -1.07947,1.56348 -1.90562,3.24652 -2.46875,5 -0.56313,1.75348 -0.87243,3.57161 -0.96875,5.40625 -0.0963,1.83464 0.0228,3.66178 0.34375,5.46875 0.32096,1.80697 0.84255,3.57954 1.53125,5.25 0.6887,1.67046 1.5556,3.26238 2.5625,4.6875 1.0069,1.42512 2.16192,2.67906 3.4375,3.75 1.27558,1.07094 2.66154,1.95458 4.15625,2.5625 1.49471,0.60792 3.08568,0.96393 4.75,1 0.56463,-0.57121 0.93453,-1.22078 1.15625,-1.875 0.22172,-0.65422 0.30966,-1.33894 0.28125,-2.03125 -0.0568,-1.38461 -0.53062,-2.79501 -1.03125,-4.0625 -0.50063,-1.26749 -1.04786,-2.3652 -1.25,-3.15625 -0.10107,-0.39553 -0.11274,-0.72845 0,-0.9375 0.11274,-0.20905 0.36192,-0.3036 0.78125,-0.28125 1.07191,0.0571 2.02431,0.2086 2.875,0.40625 0.85069,0.19765 1.61002,0.429 2.3125,0.71875 1.40496,0.57951 2.56243,1.31135 3.8125,1.96875 1.25007,0.6574 2.57085,1.24579 4.25,1.59375 0.83957,0.17398 1.78741,0.28851 2.84375,0.3125 1.05634,0.024 2.21641,-0.0443 3.5625,-0.21875 0.3441,-0.44169 0.59967,-0.86663 0.75,-1.3125 0.15033,-0.44587 0.20605,-0.89767 0.1875,-1.34375 -0.0371,-0.89215 -0.3742,-1.78715 -0.9375,-2.65625 -0.5633,-0.8691 -1.35961,-1.71704 -2.25,-2.53125 -0.89039,-0.81421 -1.88788,-1.58501 -2.90625,-2.3125 -2.03674,-1.45498 -4.11472,-2.70788 -5.46875,-3.625 -0.67701,-0.45856 -1.16733,-0.84865 -1.375,-1.125 -0.10384,-0.13817 -0.14458,-0.2571 -0.0937,-0.34375 0.0508,-0.0866 0.17586,-0.1251 0.40625,-0.15625 1.61724,-0.21867 2.71406,-0.19226 3.59375,-0.0625 0.87969,0.12976 1.54645,0.3449 2.3125,0.53125 0.76605,0.18635 1.62994,0.33016 2.90625,0.28125 1.27631,-0.0489 2.96452,-0.26772 5.375,-0.84375 0.23645,-0.67503 0.17854,-1.36778 -0.125,-2.03125 -0.30354,-0.66347 -0.83719,-1.30741 -1.5625,-1.9375 -0.72531,-0.63009 -1.65865,-1.23761 -2.6875,-1.8125 -1.02885,-0.57489 -2.16083,-1.12711 -3.375,-1.625 -2.42833,-0.99577 -5.10225,-1.81813 -7.5625,-2.375 -2.46025,-0.55687 -4.70364,-0.83778 -6.25,-0.78125 -0.006,-2.99969 -0.59974,-6.80822 -0.84375,-10.8125 -0.122,-2.00214 -0.16728,-4.07299 0,-6.09375 0.16728,-2.02076 0.52961,-3.99063 1.21875,-5.875 1.32057,-0.27478 2.76031,-0.74318 4.25,-1.375 1.48969,-0.63182 3.04762,-1.44074 4.625,-2.375 1.57738,-0.93426 3.16636,-2.00539 4.75,-3.1875 1.58364,-1.18211 3.14777,-2.46838 4.65625,-3.84375 1.50848,-1.37537 2.9606,-2.82972 4.3125,-4.34375 1.3519,-1.51403 2.60486,-3.08941 3.71875,-4.6875 1.11389,-1.59809 2.08055,-3.21619 2.875,-4.84375 0.79445,-1.62756 1.41891,-3.27256 1.8125,-4.875 0.1676,-1.86785 0.20201,-3.64421 0.125,-5.3125 -0.077,-1.66829 -0.27034,-3.22184 -0.5625,-4.6875 -0.29216,-1.46566 -0.67842,-2.83379 -1.15625,-4.09375 -11.79217,-17.88536 -31.3409,-12.78363 -28.6563,2.0625 z" id="path3087" sodipodi:nodetypes="ccsccscsscssssssscssssssssssscsssssssssssscssssscsscssssssscsscc"/>
        <path style="fill: rgb(0, 0, 0);" d="m 376.40251,817.20178 c -0.0256,-0.59027 10.51492,7.15124 6.40113,18.06176 -1.57856,4.18663 -4.17089,10.53673 -8.73009,14.9194 -5.23257,5.02997 -12.73789,8.02498 -18.92032,11.55401 -2.30502,1.94648 -2.3607,2.36124 -2.08075,15.49999 l 0.28765,13.5 6,0.583 c 6.52071,0.6336 15.5,4.0964 15.5,5.9774 0,1.1746 -0.38876,1.1322 -8.35943,-0.9102 -3.91417,-1.0029 -10.64057,-0.481 -10.64057,0.8257 0,1.1225 2.98408,3.399 9.75,7.43805 6.10499,3.6444 7.72608,6.0825 4.79268,7.2081 -0.80153,0.3076 -5.55418,-1.6009 -10.56145,-4.241 -7.51356,-3.9615 -9.26083,-4.5466 -10.00107,-3.3489 -1.23023,1.9906 -0.17646,5.851 2.62511,9.6171 1.91206,2.5703 2.09773,3.3524 1.01007,4.2551 -1.81127,1.5032 -5.86788,-1.7479 -9.01801,-7.2274 -3.89167,-6.7694 -4.11868,-9.88195 -1.17462,-16.10515 1.65771,-3.5041 2.57735,-7.1648 2.57746,-10.2599 9e-5,-2.6465 0.68093,-8.36947 1.51297,-12.71763 1.35044,-7.05729 1.35042,-8.15355 -1.8e-4,-10.21481 -2.28387,-3.48563 -1.83521,-6.0138 1.48704,-8.37945 5.6709,-4.72952 7.54786,-13.62314 9.16645,-20.5228 1.02555,-6.59028 0.39499,-14.10271 -2.49564,-12.53009 -0.7421,0.40373 -1.23022,21.84685 -7.7711,28.90401 -3.72859,4.0229 -7.89972,7.41997 -7.89972,9.19562 0,1.55937 3.45776,5.36916 4.00776,5.70908 1.58842,9.0316 -1.25078,15.66473 -2.02172,24.82128 -8.63574,12.50782 0.044,32.83708 13.35855,33.1256 4.51707,-4.56967 -3.42382,-12.51418 -0.0692,-12.33537 8.57524,0.45706 8.90381,6.18543 19.67257,4.7901 5.50561,-7.06704 -15.38421,-14.92417 -11.69803,-15.42259 6.46896,-0.87468 4.54191,2.2055 14.18382,-0.0986 1.89159,-5.40028 -15.38816,-10.77937 -21.57359,-10.55326 -0.0113,-5.99939 -2.35995,-15.24806 0.39659,-22.78555 10.56459,-2.19825 28.59902,-16.53302 30.99238,-29.51478 2.64948,-14.37097 -8.22026,-27.7129 -10.70671,-18.81782 l -3e-5,0 z" id="path3055" sodipodi:nodetypes="cssccccssssssssssssssccssscccscscccscc"/>
      </g>
      <path sodipodi:nodetypes="csscccsssssssssssssssssssssssssssssssssssssssssssssscc" id="path3089" d="m 271.8444,782.58527 c -0.57626,0.48662 -1.01876,0.88835 -1.34375,1.40625 -0.32499,0.5179 -0.55397,1.16158 -0.6875,2.15625 -0.26705,1.98934 -0.20247,5.36812 -0.0625,11.9375 l 0.28125,13.5 6,0.59375 c 1.63018,0.1584 3.42872,0.49437 5.1875,0.9375 1.75878,0.44313 3.47004,0.97249 5,1.5625 1.52996,0.59001 2.86881,1.2447 3.8125,1.84375 0.94369,0.59905 1.5,1.15475 1.5,1.625 0,0.29365 -0.0265,0.52696 -0.1875,0.65625 -0.16099,0.12929 -0.45324,0.15329 -1,0.0937 -1.09352,-0.11908 -3.17092,-0.63505 -7.15625,-1.65625 -0.97854,-0.25072 -2.13147,-0.39706 -3.3125,-0.46875 -1.18103,-0.0717 -2.41456,-0.0842 -3.5,0 -1.08544,0.0842 -2.02699,0.25174 -2.71875,0.46875 -0.69176,0.21701 -1.125,0.48582 -1.125,0.8125 0,0.28062 0.17703,0.65937 0.5625,1.09375 0.38547,0.43438 0.98537,0.92409 1.78125,1.53125 1.59176,1.21432 4.02329,2.79298 7.40625,4.8125 1.52625,0.9111 2.78534,1.7726 3.75,2.53125 0.96466,0.75865 1.63039,1.42836 2.03125,2.03125 0.40086,0.60289 0.54014,1.1187 0.375,1.5625 -0.16514,0.4438 -0.64165,0.81235 -1.375,1.09375 -0.40076,0.1538 -1.77324,-0.23131 -3.6875,-1 -1.91426,-0.76869 -4.34012,-1.92995 -6.84375,-3.25 -3.75678,-1.98075 -6.09396,-3.102 -7.5625,-3.59375 -0.73427,-0.24587 -1.2397,-0.33293 -1.625,-0.28125 -0.3853,0.0517 -0.65869,0.23182 -0.84375,0.53125 -0.30756,0.49765 -0.46956,1.11181 -0.5,1.8125 -0.0304,0.70069 0.0826,1.50141 0.3125,2.34375 0.22993,0.84234 0.58896,1.73363 1.0625,2.65625 0.47354,0.92262 1.04961,1.87097 1.75,2.8125 0.95603,1.28515 1.50678,2.12035 1.65625,2.75 0.0747,0.31483 0.0432,0.57207 -0.0625,0.8125 -0.10567,0.24043 -0.29059,0.46182 -0.5625,0.6875 -0.45282,0.3758 -1.06576,0.46027 -1.75,0.28125 -0.68424,-0.17902 -1.43284,-0.62634 -2.25,-1.28125 -0.81716,-0.65491 -1.67965,-1.51064 -2.53125,-2.5625 -0.8516,-1.05186 -1.71247,-2.28637 -2.5,-3.65625 -0.97292,-1.69235 -1.6962,-3.15901 -2.21875,-4.5 -0.52255,-1.34099 -0.8499,-2.54889 -0.9375,-3.75 -0.0876,-1.20111 0.0431,-2.38354 0.375,-3.65625 0.33192,-1.27271 0.88898,-2.66295 1.625,-4.21875 0.82885,-1.75205 1.46911,-3.54118 1.90625,-5.28125 0.43714,-1.74007 0.6562,-3.4212 0.65625,-4.96875 9e-5,-2.6465 0.69921,-8.37059 1.53125,-12.71875 0.67522,-3.52864 1.00002,-5.55487 1,-6.96875 -1e-5,-0.70694 -0.0812,-1.27834 -0.25,-1.78125 -0.16883,-0.50291 -0.41235,-0.95343 -0.75,-1.46875 -0.57097,-0.87141 -0.99155,-1.67335 -1.21875,-2.4375 -0.2272,-0.76415 -0.27723,-1.47452 -0.15625,-2.15625 0.12098,-0.68173 0.43268,-1.3446 0.90625,-1.96875 0.68674,-3.15172 13.85591,0.42588 8.25,6.68755 z" style="fill: url(&quot;#linearGradient22449&quot;) rgb(0, 0, 0); fill-opacity: 1; fill-rule: evenodd; stroke: none;"/>
    </g>
    <path style="fill: rgb(0, 0, 0); fill-opacity: 1; fill-rule: evenodd; stroke: none;" d="m 504.70748,411.1662 c -45.55113,0.79797 -125.34524,10.77002 -139.91377,61.2353 0,17.44157 -0.34574,13.10755 7.55753,5.93162 0.0525,-0.27495 0.11074,-0.43207 0.19888,-0.78507 -0.043,0.48497 -0.057,0.37988 -0.0993,0.69784 1.75411,-1.58337 3.90898,-3.3214 6.56312,-4.9721 -0.30835,2.97422 -0.27843,6.05224 0.29817,9.24636 3.99343,22.11002 0.99539,8.9548 16.20891,-2.61689 -0.01,4.72073 1.14661,9.50067 3.48044,14.30568 7.80507,16.06948 5.45724,12.22752 9.54636,2.87858 -0.0127,-0.0469 0.0127,-0.038 0,-0.0871 -0.0573,-0.22303 -0.14161,-0.42828 -0.19888,-0.69784 -0.55665,-1.4484 -1.53875,-3.62521 -3.08268,-6.80392 -2.28619,-4.70695 -3.23068,-9.36409 -3.08268,-13.86953 4.95424,-2.58075 11.30002,-4.73288 19.19215,-6.01886 -14.76977,8.5931 -14.1111,21.59756 -13.02679,26.69231 4.43972,-9.61425 17.24861,-18.67027 29.53403,-24.3371 0.16325,-0.0609 0.33219,-0.11528 0.49721,-0.17446 55.9987,34.30985 134.59212,46.26971 117.24118,-36.11312 -8.69816,-17.90823 -27.4655,-25.38817 -50.9139,-24.51157 l 0,-1.4e-4 z m -65.37624,50.4765 c -9.59431,-6.01307 -21.97425,1.16542 -31.19329,3.60026 3.2028,-11.87706 19.75144,-32.4426 37.68417,-39.1157 33.19657,-8.62692 59.20208,-12.10765 76.64282,-4.51719 37.29154,16.22977 34.52456,66.02141 -10.23273,67.72564 -17.80052,0.6778 -42.32243,-13.98928 -72.90097,-27.69301 z m -11.19348,-30.67534 c -22.61048,7.02393 -40.02272,18.18072 -46.53849,32.71116 -5.91759,4.72623 -8.24092,10.60315 -9.04915,13.7823 0.1327,-1.52639 -0.51731,-3.89399 0.19889,-7.24007 4.37843,-20.45595 28.5177,-33.15995 55.38875,-39.25339 z m -23.86589,25.82001 c -0.0627,-3.1e-4 -0.13652,0 -0.19889,0 -5.3702,0 -9.78116,0.82775 -13.524,2.09351 33.00856,-21.266 44.54947,-38.29428 13.72289,-2.09351 z m -5.66815,9.42081 c -0.36451,0.81525 -0.6923,1.61963 -0.99441,2.44244 -7.83594,6.07532 -9.49529,14.14691 -9.74524,17.96933 -0.13842,-1.52366 -0.47748,-3.91468 -1.09385,-7.3273 -0.62211,-3.44428 -0.67509,-6.74346 -0.19889,-9.85696 3.42724,-1.36369 7.44247,-2.48392 12.03239,-3.22751 z" id="path3017" sodipodi:nodetypes="cccsccscscssscccccccccccssccsccscccccscccc" inkscape:export-filename="/Users/grzegorz/Sites/img/cliparty/kogut.png" inkscape:export-xdpi="90" inkscape:export-ydpi="90"/>
    <path style="fill: rgb(255, 102, 0); fill-opacity: 1; fill-rule: evenodd; stroke: none;" d="m 398.63252,466.27822 c -0.36452,0.81524 -0.69231,1.61963 -0.99442,2.44243 -1.95897,1.51883 -3.51178,3.12685 -4.77317,4.79764 -1.26139,1.67079 -2.171,3.34454 -2.8838,4.9721 -1.42556,3.2551 -1.96327,6.28838 -2.08826,8.19959 -0.13843,-1.52366 -0.47748,-3.91467 -1.09386,-7.3273 -0.6221,-3.44427 -0.67508,-6.74346 -0.19888,-9.85696 3.42724,-1.36369 7.44247,-2.48391 12.03239,-3.2275 z" id="path3050" inkscape:export-filename="/Users/grzegorz/Sites/img/cliparty/kogut.png" inkscape:export-xdpi="90" inkscape:export-ydpi="90"/>
    <path style="fill: rgb(255, 0, 0); fill-opacity: 1; fill-rule: evenodd; stroke: none;" d="m 421.23584,436.2201 c 3.15796,-2.39024 -1.6906,2.39861 -17.10389,20.49899 -0.0627,-3e-4 -0.13651,0 -0.19888,0 -5.37021,0 -9.78117,0.82775 -13.52401,2.09352 8.25216,-5.3165 15.14332,-10.37161 20.38545,-14.39291 5.24213,-4.02131 8.86233,-7.00448 10.44133,-8.1996 z" id="path3046" inkscape:export-filename="/Users/grzegorz/Sites/img/cliparty/kogut.png" inkscape:export-xdpi="90" inkscape:export-ydpi="90"/>
    <path style="fill: rgb(0, 0, 255); fill-opacity: 1; fill-rule: evenodd; stroke: none;" d="m 427.99784,431.03753 c -5.65262,1.75599 -10.9968,3.75814 -15.91059,6.01886 -4.9138,2.26071 -9.42764,4.76001 -13.42457,7.50176 -3.99693,2.74175 -7.43992,5.6984 -10.34188,8.89743 -2.90197,3.19903 -5.23249,6.6605 -6.86145,10.29312 -2.95879,2.36313 -5.04213,4.95713 -6.46367,7.41453 -1.42155,2.45739 -2.18138,4.77818 -2.58547,6.36777 0.13269,-1.5264 -0.51732,-3.89399 0.19888,-7.24007 0.54729,-2.55699 1.45391,-5.01034 2.58547,-7.3273 1.13156,-2.31696 2.52721,-4.54804 4.17653,-6.62946 3.29865,-4.16283 7.55909,-7.83084 12.52959,-11.07819 4.9705,-3.24734 10.59591,-6.09377 16.70612,-8.46128 6.11021,-2.36752 12.67327,-4.23381 19.39104,-5.75717 z" id="path3042" inkscape:export-filename="/Users/grzegorz/Sites/img/cliparty/kogut.png" inkscape:export-xdpi="90" inkscape:export-ydpi="90"/>
    <path style="fill: rgb(255, 255, 255); fill-opacity: 1; fill-rule: evenodd; stroke: none;" d="m 490.0782,417.82927 c 6.41553,-0.49987 12.29122,-0.51905 17.70054,0.0871 5.40931,0.60628 10.35709,1.76603 14.71729,3.66365 4.66146,2.02873 8.62654,4.58371 12.03239,7.50176 3.40585,2.91805 6.21038,6.19404 8.35306,9.68251 2.14268,3.48846 3.7023,7.25104 4.5743,10.99095 0.87199,3.73991 1.10231,7.49299 0.69608,11.16541 -0.40623,3.67241 -1.49009,7.26882 -3.18211,10.5548 -1.69203,3.28598 -4.07496,6.2296 -7.06033,8.8102 -2.98537,2.58061 -6.55284,4.72426 -10.83909,6.28055 -4.28625,1.55629 -9.22207,2.57831 -14.81674,2.79135 -4.45013,0.16944 -9.33793,-0.59967 -14.61786,-2.09351 -5.27993,-1.49385 -11.01496,-3.72026 -17.10388,-6.36778 -12.17788,-5.295 -25.87941,-12.4259 -41.16866,-19.27778 -2.39859,-1.50325 -5.00312,-2.1334 -7.65697,-2.26797 -2.65386,-0.13454 -5.43086,0.28586 -8.15418,0.95953 -5.44664,1.34736 -10.80387,3.75467 -15.41339,4.97209 0.80068,-2.96927 2.39171,-6.50337 4.67374,-10.20588 2.28202,-3.7025 5.26182,-7.60978 8.65138,-11.33987 3.38956,-3.73008 7.21304,-7.32833 11.3363,-10.38034 4.12326,-3.05201 8.5436,-5.57179 13.0268,-7.24007 8.29915,-2.15674 16.18877,-3.98736 23.56756,-5.40825 7.37879,-1.42088 14.26824,-2.3787 20.68377,-2.87858 z" id="path3038" inkscape:export-filename="/Users/grzegorz/Sites/img/cliparty/kogut.png" inkscape:export-xdpi="90" inkscape:export-ydpi="90"/>
    <path style="fill: rgb(255, 255, 0); fill-opacity: 1; fill-rule: evenodd; stroke: none;" d="m 408.37775,496.42002 c -0.27111,-1.27369 -0.51375,-3.07668 -0.4972,-5.14655 0.0159,-2.06987 0.32085,-4.41012 1.09385,-6.89115 0.773,-2.48104 1.97934,-5.08183 3.97765,-7.58899 1.99831,-2.50717 4.76007,-4.91733 8.4525,-7.06561 -3.94605,0.64298 -7.44797,1.50828 -10.64021,2.52966 -3.19223,1.02138 -6.07482,2.19883 -8.55194,3.48919 -0.0741,2.25273 0.0932,4.48808 0.59665,6.80392 0.50341,2.31585 1.34295,4.71214 2.48603,7.06561 1.54393,3.17871 2.52603,5.35552 3.08267,6.80392 z" id="path3036" inkscape:export-filename="/Users/grzegorz/Sites/img/cliparty/kogut.png" inkscape:export-xdpi="90" inkscape:export-ydpi="90"/>
    <path id="path3054" d="m 491.44365,416.6315 c 6.41553,-0.49987 12.29122,-0.51905 17.70053,0.0871 5.40932,0.60628 10.3571,1.76604 14.7173,3.66365 4.66145,2.02873 8.62653,4.58371 12.03239,7.50176 3.40585,2.91805 6.21038,6.19404 8.35306,9.68251 2.14268,3.48846 3.7023,7.25104 4.57429,10.99095 0.872,3.73991 1.10232,7.49299 0.69609,11.16541 -0.40623,3.67241 -1.49009,7.26882 -3.18212,10.5548 -1.69203,3.28598 -4.07495,6.2296 -7.06032,8.81021 -2.98537,2.5806 -6.55284,4.72425 -10.83909,6.28054 -4.28625,1.55629 -9.22207,2.57831 -14.81674,2.79135 -4.45013,0.16944 -9.33793,-0.59967 -14.61786,-2.09351 -5.27993,-1.49385 -11.01497,-3.72026 -17.10389,-6.36778 -12.17787,-5.295 -25.8794,-12.4259 -41.16865,-19.27777 -2.39859,-1.50326 -5.00312,-2.13341 -7.65698,-2.26798 -2.65385,-0.13454 -5.43086,0.28586 -8.15418,0.95953 -5.44664,1.34736 -10.80386,3.75467 -15.41338,4.9721 0.80068,-2.96928 2.39171,-6.50338 4.67373,-10.20589 2.28203,-3.7025 5.26183,-7.60978 8.65139,-11.33987 3.38956,-3.73008 7.21303,-7.32833 11.3363,-10.38034 4.12326,-3.05201 8.5436,-5.57179 13.02679,-7.24007 8.29916,-2.15674 16.18878,-3.98736 23.56757,-5.40824 7.37879,-1.42089 14.26824,-2.37871 20.68377,-2.87859 z" style="fill: url(&quot;#radialGradient22404&quot;) rgb(0, 0, 0); fill-opacity: 1; fill-rule: evenodd; stroke: none;" inkscape:export-filename="/Users/grzegorz/Sites/img/cliparty/kogut.png" inkscape:export-xdpi="90" inkscape:export-ydpi="90"/>
  </g>
</svg>