<?xml version="1.0" encoding="UTF-8" standalone="no"?>
<!-- Created with Inkscape (http://www.inkscape.org/) -->
<svg
   xmlns:dc="http://purl.org/dc/elements/1.1/"
   xmlns:cc="http://creativecommons.org/ns#"
   xmlns:rdf="http://www.w3.org/1999/02/22-rdf-syntax-ns#"
   xmlns:svg="http://www.w3.org/2000/svg"
   xmlns="http://www.w3.org/2000/svg"
   xmlns:xlink="http://www.w3.org/1999/xlink"
   xmlns:sodipodi="http://sodipodi.sourceforge.net/DTD/sodipodi-0.dtd"
   xmlns:inkscape="http://www.inkscape.org/namespaces/inkscape"
   width="235.52646"
   height="188.77332"
   id="svg2"
   sodipodi:version="0.32"
   inkscape:version="0.46"
   sodipodi:docbase="/home/nicu/Desktop/clipart"
   sodipodi:docname="nicubunu_Donkey_on_a_plate.svg"
   inkscape:export-filename="/home/nicu/Desktop/donkey.png"
   inkscape:export-xdpi="90.000000"
   inkscape:export-ydpi="90.000000"
   inkscape:output_extension="org.inkscape.output.svg.inkscape"
   sodipodi:modified="true"
   version="1.0">
  <defs
     id="defs4">
    <inkscape:perspective
       sodipodi:type="inkscape:persp3d"
       inkscape:vp_x="0 : 160 : 1"
       inkscape:vp_y="0 : 1000 : 0"
       inkscape:vp_z="320 : 160 : 1"
       inkscape:persp3d-origin="160 : 106.66667 : 1"
       id="perspective76" />
    <linearGradient
       id="linearGradient3781">
      <stop
         style="stop-color: rgb(56, 193, 44); stop-opacity: 1;"
         offset="0.0000000"
         id="stop3783" />
      <stop
         style="stop-color: rgb(22, 255, 0); stop-opacity: 1;"
         offset="1.0000000"
         id="stop3785" />
    </linearGradient>
    <linearGradient
       id="linearGradient3163">
      <stop
         style="stop-color: rgb(56, 81, 131); stop-opacity: 1;"
         offset="0"
         id="stop3165" />
      <stop
         style="stop-color: rgb(72, 104, 168); stop-opacity: 1;"
         offset="1.0000000"
         id="stop3167" />
    </linearGradient>
    <linearGradient
       id="linearGradient3072">
      <stop
         style="stop-color: rgb(225, 0, 0); stop-opacity: 1;"
         offset="0.0000000"
         id="stop3074" />
      <stop
         style="stop-color: rgb(255, 79, 79); stop-opacity: 1;"
         offset="1.0000000"
         id="stop3076" />
    </linearGradient>
    <linearGradient
       id="linearGradient3010">
      <stop
         style="stop-color: rgb(73, 73, 73); stop-opacity: 1;"
         offset="0"
         id="stop3012" />
      <stop
         style="stop-color: rgb(156, 156, 156); stop-opacity: 1;"
         offset="1.0000000"
         id="stop3014" />
    </linearGradient>
    <linearGradient
       id="linearGradient3000">
      <stop
         style="stop-color: rgb(234, 234, 234); stop-opacity: 1;"
         offset="0"
         id="stop3002" />
      <stop
         style="stop-color: rgb(255, 255, 255); stop-opacity: 1;"
         offset="1.0000000"
         id="stop3004" />
    </linearGradient>
    <linearGradient
       id="linearGradient2986">
      <stop
         style="stop-color: rgb(101, 101, 101); stop-opacity: 1;"
         offset="0"
         id="stop2988" />
      <stop
         style="stop-color: rgb(152, 152, 152); stop-opacity: 1;"
         offset="1.0000000"
         id="stop2990" />
    </linearGradient>
    <linearGradient
       id="linearGradient2968">
      <stop
         style="stop-color: rgb(159, 164, 167); stop-opacity: 1;"
         offset="0"
         id="stop2970" />
      <stop
         style="stop-color: rgb(197, 200, 201); stop-opacity: 1;"
         offset="1.0000000"
         id="stop2972" />
    </linearGradient>
    <linearGradient
       id="linearGradient2956">
      <stop
         style="stop-color: rgb(0, 0, 0); stop-opacity: 0.669118;"
         offset="0.0000000"
         id="stop2958" />
      <stop
         style="stop-color: rgb(0, 0, 0); stop-opacity: 0;"
         offset="1"
         id="stop2960" />
    </linearGradient>
    <linearGradient
       inkscape:collect="always"
       xlink:href="#linearGradient3781"
       id="linearGradient5422"
       gradientUnits="userSpaceOnUse"
       gradientTransform="matrix(1,0,-0.528182,1,169.776,0)"
       x1="130.10765"
       y1="370.96945"
       x2="132.93608"
       y2="326.26703" />
    <linearGradient
       inkscape:collect="always"
       xlink:href="#linearGradient3781"
       id="linearGradient5424"
       gradientUnits="userSpaceOnUse"
       x1="347.89651"
       y1="295.15433"
       x2="79.903069"
       y2="338.99496" />
    <linearGradient
       inkscape:collect="always"
       xlink:href="#linearGradient3010"
       id="linearGradient2318"
       gradientUnits="userSpaceOnUse"
       gradientTransform="matrix(0.964775,0,0,0.964775,5.97866,15.0737)"
       x1="213.19652"
       y1="202.11934"
       x2="244.07664"
       y2="178.29134" />
    <linearGradient
       inkscape:collect="always"
       xlink:href="#linearGradient3000"
       id="linearGradient2321"
       gradientUnits="userSpaceOnUse"
       gradientTransform="matrix(0.8879,0,0,0.8879,-12.7449,-9.30622)"
       x1="173.71292"
       y1="102.98176"
       x2="165.43414"
       y2="94.120323" />
    <linearGradient
       inkscape:collect="always"
       xlink:href="#linearGradient3072"
       id="linearGradient2324"
       gradientUnits="userSpaceOnUse"
       gradientTransform="matrix(0.964775,0,0,0.964775,-2.73994,20.7477)"
       x1="79.715439"
       y1="149.05193"
       x2="84.765816"
       y2="148.68959" />
    <linearGradient
       inkscape:collect="always"
       xlink:href="#linearGradient3010"
       id="linearGradient2330"
       gradientUnits="userSpaceOnUse"
       gradientTransform="matrix(0.8879,0,0,0.8879,-12.7449,-9.30622)"
       x1="121.50361"
       y1="249.00771"
       x2="151.19272"
       y2="239.30232" />
    <linearGradient
       inkscape:collect="always"
       xlink:href="#linearGradient3010"
       id="linearGradient2333"
       gradientUnits="userSpaceOnUse"
       gradientTransform="matrix(0.8879,0,0,0.8879,-12.7449,-9.30622)"
       x1="157.38478"
       y1="252.36961"
       x2="196.20633"
       y2="219.84213" />
    <linearGradient
       inkscape:collect="always"
       xlink:href="#linearGradient3010"
       id="linearGradient2336"
       gradientUnits="userSpaceOnUse"
       gradientTransform="matrix(0.964775,0,0,0.964775,5.97866,15.0737)"
       x1="189.31229"
       y1="201.77264"
       x2="218.95021"
       y2="183.06894" />
    <linearGradient
       inkscape:collect="always"
       xlink:href="#linearGradient2986"
       id="linearGradient2339"
       gradientUnits="userSpaceOnUse"
       gradientTransform="matrix(0.8879,0,0,0.8879,-12.7449,-9.30622)"
       x1="303.95071"
       y1="124.03152"
       x2="279.60266"
       y2="97.447205" />
    <linearGradient
       inkscape:collect="always"
       xlink:href="#linearGradient2986"
       id="linearGradient2342"
       gradientUnits="userSpaceOnUse"
       gradientTransform="matrix(0.8879,0,0,0.8879,-12.7449,-9.30622)"
       x1="125.31483"
       y1="113.11847"
       x2="85.227371"
       y2="86.112183" />
    <linearGradient
       inkscape:collect="always"
       xlink:href="#linearGradient2986"
       id="linearGradient2345"
       gradientUnits="userSpaceOnUse"
       gradientTransform="matrix(0.8879,0,0,0.8879,-12.7449,-9.30622)"
       x1="165.14684"
       y1="147.77379"
       x2="145.3141"
       y2="125.04402" />
    <linearGradient
       inkscape:collect="always"
       xlink:href="#linearGradient3000"
       id="linearGradient2348"
       gradientUnits="userSpaceOnUse"
       gradientTransform="matrix(0.8879,0,0,0.8879,-12.7449,-9.30622)"
       x1="207.17763"
       y1="205.10863"
       x2="195.36237"
       y2="196.24719" />
    <linearGradient
       inkscape:collect="always"
       xlink:href="#linearGradient2968"
       id="linearGradient2351"
       gradientUnits="userSpaceOnUse"
       gradientTransform="matrix(0.8879,0,0,0.8879,-12.7449,-9.30622)"
       x1="257.9621"
       y1="220.86932"
       x2="-4.9904923"
       y2="-37.736946" />
    <radialGradient
       inkscape:collect="always"
       xlink:href="#linearGradient2956"
       id="radialGradient2355"
       gradientUnits="userSpaceOnUse"
       gradientTransform="matrix(-1,-1.62316e-8,1.66688e-8,-0.246154,110.434,252.775)"
       cx="15.434325"
       cy="194.08774"
       fx="15.434325"
       fy="194.08774"
       r="65" />
    <radialGradient
       inkscape:collect="always"
       xlink:href="#linearGradient2956"
       id="radialGradient2357"
       gradientUnits="userSpaceOnUse"
       gradientTransform="matrix(-1,-1.62316e-8,1.66688e-8,-0.246154,110.434,252.775)"
       cx="15.434325"
       cy="194.08774"
       fx="15.434325"
       fy="194.08774"
       r="65" />
    <radialGradient
       inkscape:collect="always"
       xlink:href="#linearGradient2956"
       id="radialGradient2477"
       gradientUnits="userSpaceOnUse"
       gradientTransform="matrix(-1,-1.62316e-8,1.66688e-8,-0.246154,110.434,252.775)"
       cx="15.434325"
       cy="194.08774"
       fx="15.434325"
       fy="194.08774"
       r="65" />
    <radialGradient
       inkscape:collect="always"
       xlink:href="#linearGradient2956"
       id="radialGradient2479"
       gradientUnits="userSpaceOnUse"
       gradientTransform="matrix(-1,-1.62316e-8,1.66688e-8,-0.246154,110.434,252.775)"
       cx="15.434325"
       cy="194.08774"
       fx="15.434325"
       fy="194.08774"
       r="65" />
    <linearGradient
       inkscape:collect="always"
       xlink:href="#linearGradient2968"
       id="linearGradient2481"
       gradientUnits="userSpaceOnUse"
       gradientTransform="matrix(0.8879,0,0,0.8879,-12.7449,-9.30622)"
       x1="257.9621"
       y1="220.86932"
       x2="-4.9904923"
       y2="-37.736946" />
    <linearGradient
       inkscape:collect="always"
       xlink:href="#linearGradient3000"
       id="linearGradient2483"
       gradientUnits="userSpaceOnUse"
       gradientTransform="matrix(0.8879,0,0,0.8879,-12.7449,-9.30622)"
       x1="207.17763"
       y1="205.10863"
       x2="195.36237"
       y2="196.24719" />
    <linearGradient
       inkscape:collect="always"
       xlink:href="#linearGradient2986"
       id="linearGradient2485"
       gradientUnits="userSpaceOnUse"
       gradientTransform="matrix(0.8879,0,0,0.8879,-12.7449,-9.30622)"
       x1="165.14684"
       y1="147.77379"
       x2="145.3141"
       y2="125.04402" />
    <linearGradient
       inkscape:collect="always"
       xlink:href="#linearGradient2986"
       id="linearGradient2487"
       gradientUnits="userSpaceOnUse"
       gradientTransform="matrix(0.8879,0,0,0.8879,-12.7449,-9.30622)"
       x1="125.31483"
       y1="113.11847"
       x2="85.227371"
       y2="86.112183" />
    <linearGradient
       inkscape:collect="always"
       xlink:href="#linearGradient2986"
       id="linearGradient2489"
       gradientUnits="userSpaceOnUse"
       gradientTransform="matrix(0.8879,0,0,0.8879,-12.7449,-9.30622)"
       x1="303.95071"
       y1="124.03152"
       x2="279.60266"
       y2="97.447205" />
    <linearGradient
       inkscape:collect="always"
       xlink:href="#linearGradient3010"
       id="linearGradient2491"
       gradientUnits="userSpaceOnUse"
       gradientTransform="matrix(0.964775,0,0,0.964775,5.97866,15.0737)"
       x1="189.31229"
       y1="201.77264"
       x2="218.95021"
       y2="183.06894" />
    <linearGradient
       inkscape:collect="always"
       xlink:href="#linearGradient3010"
       id="linearGradient2493"
       gradientUnits="userSpaceOnUse"
       gradientTransform="matrix(0.8879,0,0,0.8879,-12.7449,-9.30622)"
       x1="157.38478"
       y1="252.36961"
       x2="196.20633"
       y2="219.84213" />
    <linearGradient
       inkscape:collect="always"
       xlink:href="#linearGradient3010"
       id="linearGradient2495"
       gradientUnits="userSpaceOnUse"
       gradientTransform="matrix(0.8879,0,0,0.8879,-12.7449,-9.30622)"
       x1="121.50361"
       y1="249.00771"
       x2="151.19272"
       y2="239.30232" />
    <linearGradient
       inkscape:collect="always"
       xlink:href="#linearGradient3072"
       id="linearGradient2497"
       gradientUnits="userSpaceOnUse"
       gradientTransform="matrix(0.964775,0,0,0.964775,-2.73994,20.7477)"
       x1="79.715439"
       y1="149.05193"
       x2="84.765816"
       y2="148.68959" />
    <linearGradient
       inkscape:collect="always"
       xlink:href="#linearGradient3000"
       id="linearGradient2499"
       gradientUnits="userSpaceOnUse"
       gradientTransform="matrix(0.8879,0,0,0.8879,-12.7449,-9.30622)"
       x1="173.71292"
       y1="102.98176"
       x2="165.43414"
       y2="94.120323" />
    <linearGradient
       inkscape:collect="always"
       xlink:href="#linearGradient3010"
       id="linearGradient2501"
       gradientUnits="userSpaceOnUse"
       gradientTransform="matrix(0.964775,0,0,0.964775,5.97866,15.0737)"
       x1="213.19652"
       y1="202.11934"
       x2="244.07664"
       y2="178.29134" />
  </defs>
  <sodipodi:namedview
     id="base"
     pagecolor="#ffffff"
     bordercolor="#666666"
     borderopacity="1.0"
     inkscape:pageopacity="0.0"
     inkscape:pageshadow="2"
     inkscape:zoom="1"
     inkscape:cx="238.03038"
     inkscape:cy="89.25833"
     inkscape:document-units="px"
     inkscape:current-layer="layer1"
     inkscape:window-width="1019"
     inkscape:window-height="785"
     inkscape:window-x="36"
     inkscape:window-y="24"
     showgrid="false"
     showguides="true"
     inkscape:guide-bbox="true"
     height="320px"
     width="320px" />
  <metadata
     id="metadata7">
    <rdf:RDF>
      <cc:Work
         rdf:about="">
        <dc:format>image/svg+xml</dc:format>
        <dc:type
           rdf:resource="http://purl.org/dc/dcmitype/StillImage" />
      </cc:Work>
    </rdf:RDF>
  </metadata>
  <g
     inkscape:label="Layer 1"
     inkscape:groupmode="layer"
     id="layer1"
     transform="translate(-37.7653,-37.585984)">
    <g
       id="g2449">
      <path
         transform="matrix(0.860876,0,0,0.860876,32.2502,36.1057)"
         d="M 160,205 A 65,16 0 1 1 30,205 A 65,16 0 1 1 160,205 z"
         sodipodi:ry="16"
         sodipodi:rx="65"
         sodipodi:cy="205"
         sodipodi:cx="95"
         id="path2226"
         style="fill:url(#radialGradient2477);fill-opacity:1;stroke:none;stroke-width:1;stroke-miterlimit:4;stroke-dasharray:none;stroke-dashoffset:0;stroke-opacity:1"
         sodipodi:type="arc" />
      <path
         sodipodi:type="arc"
         style="fill:url(#radialGradient2479);fill-opacity:1;stroke:none;stroke-width:1;stroke-miterlimit:4;stroke-dasharray:none;stroke-dashoffset:0;stroke-opacity:1"
         id="path2964"
         sodipodi:cx="95"
         sodipodi:cy="205"
         sodipodi:rx="65"
         sodipodi:ry="16"
         d="M 160,205 A 65,16 0 1 1 30,205 A 65,16 0 1 1 160,205 z"
         transform="matrix(0.860876,0,0,0.860876,125.833,35.141)" />
      <path
         style="fill:url(#linearGradient2481);fill-opacity:1;fill-rule:evenodd;stroke:none;stroke-width:1px;stroke-linecap:butt;stroke-linejoin:miter;stroke-opacity:1"
         d="M 66.028479,37.585984 L 66.416934,39.139809 C 66.466241,39.337022 66.401102,40.023911 66.222706,40.943356 C 66.044311,41.862801 65.794809,43.063878 65.556782,44.439461 C 65.080718,47.190627 64.714927,50.708644 65.362553,54.567068 C 66.206592,59.595679 70.090228,65.282959 74.047323,70.965468 C 77.988906,76.625701 81.977485,82.277044 83.176043,86.975411 C 83.129597,87.120618 83.070996,87.233674 83.037308,87.391613 C 81.646848,91.543389 76.229008,89.318623 73.714361,92.053089 C 74.721489,93.362527 77.25646,94.480899 73.742108,94.383825 C 70.635579,94.564904 67.038189,99.847321 71.106155,101.43153 C 71.778101,101.60653 72.5761,101.62396 73.325904,101.76449 C 64.531499,120.59113 57.083009,124.36205 50.737813,129.49741 C 47.057119,132.4763 43.895216,134.35535 40.507924,137.69182 C 37.487795,140.66663 39.644055,145.92401 40.057409,147.99078 C 41.201744,153.71244 46.830816,157.44187 53.181677,159.45023 C 59.532542,161.4586 66.664116,161.76877 71.189396,160.44913 C 83.693519,156.8027 90.288059,150.669 96.8275,140.85983 C 97.2924,140.16246 97.99632,138.62014 98.49231,137.86317 C 101.55642,155.54454 98.20242,173.5986 95.19044,184.56115 C 93.93357,189.1357 91.491749,194.07906 89.197113,198.93403 L 87.920758,200.18264 C 88.597364,200.7916 84.973179,208.21785 84.313664,211.97505 C 84.313664,211.97505 87.76613,214.60142 89.030633,214.97171 C 89.205576,215.02295 99.79204,217.44845 100.54559,217.52443 L 112.97618,216.19258 C 113.7005,213.38839 114.16953,210.44957 114.5855,207.00837 C 114.5855,207.00836 114.28028,206.67144 114.28028,205.84301 C 114.28028,205.82882 115.38741,195.00773 116.27805,190.55447 C 116.45812,189.65419 117.33186,185.57657 118.16485,181.67547 C 118.78834,178.75549 119.15021,177.10594 119.4412,175.73764 C 120.3617,179.13573 122.09295,187.26579 122.1049,189.52783 C 122.11684,191.78988 122.27109,194.68227 121.96617,197.7964 L 121.07826,206.81413 L 120.77305,208.00725 C 120.77305,208.00725 121.22484,214.70917 120.96728,217.3857 C 120.96729,217.3857 129.59651,218.46741 131.31686,218.30134 C 131.38394,218.33636 139.32682,217.60499 141.97166,216.55329 L 151.57207,212.75197 C 151.57207,212.75197 149.89934,204.88224 148.65866,200.9873 C 148.65865,200.9873 147.77448,200.8901 147.3823,199.65545 C 145.63491,194.15454 143.5826,187.14972 143.08153,184.64439 C 142.79899,183.23165 141.9597,177.23078 141.33347,170.65996 C 145.44879,175.91826 152.7556,179.18418 162.92054,179.5667 C 169.80018,179.8256 178.08273,178.64468 187.44878,176.04286 C 187.44013,176.12899 187.24117,178.10678 187.08806,179.45572 C 186.78185,182.15362 185.24508,197.98712 183.70295,199.57221 L 180.51205,211.30912 C 180.51205,211.30912 188.07587,213.06486 189.58528,213.3624 C 191.43907,212.47325 200.98494,213.09111 202.90378,213.11268 C 204.06042,212.13225 204.67716,212.72993 205.53973,212.53 C 209.90249,213.06985 212.52878,212.89288 213.72506,213.05718 C 214.95374,212.6357 224.69625,210.32182 225.82269,210.5877 L 233.42535,207.11935 C 231.82364,203.41003 232.16681,197.87859 230.87263,195.77088 C 229.18604,193.74166 229.6258,174.58531 229.56852,166.52568 C 229.51124,158.46607 229.21587,150.42954 227.95921,143.46804 C 226.8894,137.54161 225.04317,132.4649 222.04912,128.73445 C 222.13869,128.58307 219.92591,127.05123 215.19565,122.99084 C 212.88636,121.85305 210.37646,121.15048 207.70399,120.85434 C 202.80862,120.31187 197.42336,120.9706 191.97151,122.0197 C 181.06781,124.11791 169.84712,127.84167 161.83842,127.29161 C 150.44744,126.0629 145.14948,124.07715 140.83403,120.16067 C 137.01379,116.69361 137.79929,117.20925 133.1759,111.28167 C 133.17019,111.2609 133.15285,111.18947 133.14815,111.17068 C 132.84769,109.96884 132.30295,109.13804 131.73306,108.36825 C 131.16318,107.59846 130.54866,106.85959 129.98502,105.73229 C 129.0824,103.92705 126.07184,101.5763 125.6565,101.51477 C 125.24115,101.45324 123.04637,101.93222 122.65321,102.03669 C 121.90665,102.23505 134.14267,93.66119 141.08376,88.834452 C 150.58988,82.224019 159.67081,75.045792 161.25573,67.080907 C 161.80245,64.333396 165.08033,55.488288 165.30677,53.817902 C 162.22809,54.159692 156.44181,55.399882 151.84955,56.315121 C 147.2474,57.232329 142.72389,58.3551 139.72417,60.033202 C 127.06013,67.117647 119.1052,81.236879 109.14711,92.802254 C 108.04377,91.537902 102.55376,87.358362 100.43459,84.866649 C 98.76194,84.227858 96.98381,83.911109 95.19044,83.673534 L 94.85748,81.980974 L 94.82973,81.980974 C 91.888116,67.609752 83.081969,52.658372 79.346975,48.074301 C 78.229891,46.703265 75.569939,44.771679 72.965196,42.94113 C 71.662826,42.025855 70.404297,41.159381 69.358102,40.416165 C 68.31191,39.672949 67.47975,39.037251 67.1661,38.723606 L 66.028479,37.585984 z M 92.388,84.283964 C 96.18117,84.271286 100.11444,84.937556 102.40462,88.085286 C 103.90814,87.609753 107.34482,92.455537 108.67542,93.357191 C 108.25112,93.843192 107.80366,94.296749 107.37131,94.772281 C 107.39254,94.721484 98.79144,97.367363 95.74538,95.576941 C 91.605692,98.207832 86.407723,93.829633 82.593358,97.574715 C 79.481279,100.75869 73.68197,103.15031 70.162761,99.406008 C 69.761051,95.052405 75.543913,96.232308 76.65553,93.745647 C 72.520324,91.066054 80.403815,90.840332 82.537865,90.915466 C 85.313039,91.354942 85.023051,88.722132 82.454625,89.722352 C 84.059867,88.54607 84.533855,82.977198 86.47792,87.086398 C 87.487196,89.753818 93.66197,89.826981 89.335848,87.058651 C 87.492053,86.061682 84.89888,84.639134 88.69767,84.450446 C 89.866429,84.365935 91.123616,84.288191 92.388,84.283964 z M 230.67839,197.29695 C 231.20246,200.74472 230.72951,203.95692 231.92701,206.34244 C 231.28314,206.9137 226.26548,209.14159 225.37874,209.3946 C 225.50647,209.01267 223.60295,201.51449 223.60295,201.51449 L 223.18675,202.34689 C 223.18675,202.34689 224.61098,209.23371 224.29662,209.42234 C 224.11022,209.53417 216.1508,211.34861 214.00253,211.55885 C 213.94979,211.41486 212.86173,205.99322 212.4487,202.06942 L 211.86601,202.54112 C 212.28142,206.4875 213.03002,211.42462 213.11463,211.66983 C 209.86096,211.93786 206.75836,211.97483 204.31887,211.50336 C 204.2792,210.98655 203.82413,203.6979 204.59634,202.15266 C 207.36009,201.75885 228.53106,197.18473 230.67839,197.29695 z M 88.947391,200.34912 C 90.972896,199.67621 113.18756,204.87886 113.25365,206.86963 C 112.83023,210.41552 112.94591,212.51664 112.22701,215.36017 C 112.04207,215.49698 101.29829,216.7788 100.82305,216.30357 C 100.78108,216.26158 103.01506,208.14599 103.01506,208.14599 L 102.26588,207.67429 C 102.26588,207.67429 99.20211,215.71337 99.40797,215.9706 C 99.09078,215.93301 91.017077,214.68292 90.917419,214.58326 C 90.911666,214.53144 94.35803,205.20482 94.35803,205.20482 L 93.55337,205.31581 C 93.55337,205.31581 89.692562,214.04066 89.696557,214.13931 C 88.54504,213.79434 85.519583,212.28485 85.257057,211.94731 C 85.910721,208.42125 87.012284,204.48976 88.947391,200.34912 z M 184.31339,200.40462 C 192.792,200.4097 201.85347,201.17977 203.51421,201.95843 C 203.59972,201.99854 203.34883,211.33125 203.43096,211.94731 C 203.43096,211.94731 192.64113,212.08547 190.61192,212.14154 C 190.60483,212.12071 193.35886,203.1238 193.35886,203.1238 L 192.85942,202.84633 C 192.85942,202.84633 189.34115,212.28283 189.41879,212.44675 C 189.42382,212.45732 181.61394,210.80527 181.4832,210.6987 C 182.58866,208.33467 183.45455,204.52016 184.31339,200.40462 z M 147.96498,201.32026 C 149.11286,202.30947 149.84761,209.9778 150.57318,212.53 C 150.33174,212.79373 142.86885,215.14129 141.19474,215.49891 C 140.64299,213.28997 136.97721,207.23034 136.97721,207.23034 L 136.67201,207.84077 C 136.672,207.84078 140.60153,215.94813 140.55656,215.9706 C 139.72812,216.38483 131.82682,217.8835 131.26137,217.08048 C 130.04056,215.34681 129.59655,207.53555 129.59655,207.53555 L 129.29134,208.11824 C 129.29134,208.11825 129.4319,214.80375 130.20699,217.35795 C 130.02462,217.90523 121.94291,216.99495 121.71644,216.77526 C 121.97383,214.0554 121.66648,210.93345 121.85519,207.78528 C 121.85519,207.78529 143.57068,201.37667 147.96498,201.32026 z"
         id="path2224"
         sodipodi:nodetypes="ccssssccccccsssssscscccsccsssscscccscccssscscscccccccccssccsscscssssssscsscccccssscccccccccccccccccccccsccccccccccscccsccccccsccccscccccccssccccsc" />
      <path
         id="path2961"
         d="M 202.33881,169.23818 L 195.91839,166.44219 L 186.39134,163.6462 L 172.51496,162.19645 L 162.88435,163.43911 L 154.18573,166.64931 L 147.24756,171.20573 L 144.65868,173.58749 L 150.87199,177.10835 L 159.98481,178.97234 L 174.89673,178.45458 L 194.26152,173.89815 L 202.23524,170.68794 L 202.33881,169.23818 z"
         style="fill:url(#linearGradient2483);fill-opacity:1;fill-rule:evenodd;stroke:none;stroke-width:1px;stroke-linecap:butt;stroke-linejoin:miter;stroke-opacity:1" />
      <path
         id="path3697"
         d="M 128.50411,104.51632 L 131.92142,109.27985 L 133.37119,112.90427 L 133.88896,115.80381 L 132.33564,119.946 L 129.53966,125.84864 L 128.19344,130.0944 L 126.433,128.33396 L 124.98323,123.15622 L 122.49792,122.53488 L 122.91213,117.04647 L 122.60146,114.45759 L 121.46236,112.80072 L 122.08369,102.963 L 125.50101,101.72034 L 128.50411,104.51632 z"
         style="fill:url(#linearGradient2485);fill-opacity:1;fill-rule:evenodd;stroke:none;stroke-width:1px;stroke-linecap:butt;stroke-linejoin:miter;stroke-opacity:1" />
      <path
         sodipodi:nodetypes="cccccccccccccccccccccc"
         id="path4425"
         d="M 108.82865,93.125272 L 104.68646,89.190179 L 101.26914,86.187089 L 95.47006,83.805324 L 85.839458,84.530206 L 83.56125,86.601313 L 82.215034,89.500846 L 76.933726,91.054174 L 74.655518,91.882612 L 75.898177,93.64305 L 75.898177,94.367932 L 72.066644,95.817703 L 69.891988,97.681689 L 69.788434,99.64924 L 72.170198,101.20256 L 75.794622,101.72034 L 80.247483,100.06346 L 84.182576,96.853252 L 91.742093,96.749696 L 96.29851,96.335482 C 96.29851,96.335482 104.47934,96.231927 106.75756,95.610592 C 108.10378,94.575043 108.93221,93.125272 108.82865,93.125272 z"
         style="fill:url(#linearGradient2487);fill-opacity:1;fill-rule:evenodd;stroke:none;stroke-width:1px;stroke-linecap:butt;stroke-linejoin:miter;stroke-opacity:1" />
      <path
         id="path4427"
         d="M 215.16989,123.22088 L 221.35547,117.39216 L 229.56326,108.23274 L 234.08349,102.52298 L 240.74487,92.174028 L 244.43244,83.728335 L 247.52522,69.453923 L 248.00103,62.435671 L 247.76314,58.986021 L 248.71476,59.104975 L 250.97487,63.387297 L 256.20882,61.127183 L 257.0415,62.554625 L 259.06371,67.074854 L 261.79963,68.145436 L 265.24928,66.242181 L 267.03358,69.691829 L 270.00742,70.524504 L 272.98125,74.093107 L 271.91068,75.520549 L 263.94079,78.851244 L 254.78138,86.583216 L 245.50301,96.813217 L 239.55535,104.18833 L 231.58546,115.13204 L 226.11361,122.86401 L 221.71233,129.16854 L 215.16989,123.22088 z"
         style="fill:url(#linearGradient2489);fill-opacity:1;fill-rule:evenodd;stroke:none;stroke-width:1px;stroke-linecap:butt;stroke-linejoin:miter;stroke-opacity:1" />
      <path
         sodipodi:nodetypes="ccccccc"
         id="path4439"
         d="M 204.36248,201.75479 L 197.16157,200.67465 L 183.83989,200.13459 L 180.95954,210.5759 L 189.24058,212.91619 L 204.00244,212.37613 L 204.36248,201.75479 z"
         style="fill:url(#linearGradient2491);fill-opacity:1;fill-rule:evenodd;stroke:none;stroke-width:1px;stroke-linecap:butt;stroke-linejoin:miter;stroke-opacity:1" />
      <path
         id="path4441"
         d="M 121.55204,207.15547 L 133.25352,204.09509 L 141.17452,202.29486 L 148.01538,201.0347 L 149.45556,204.27511 L 150.89574,212.19611 L 150.89574,212.73618 L 142.43467,215.43651 L 140.81447,216.69667 L 131.09324,217.95683 L 121.55204,217.23674 C 121.55204,217.23674 121.37203,208.41563 121.55204,207.15547 z"
         style="fill:url(#linearGradient2493);fill-opacity:1;fill-rule:evenodd;stroke:none;stroke-width:1px;stroke-linecap:butt;stroke-linejoin:miter;stroke-opacity:1" />
      <path
         id="path4443"
         d="M 113.63104,206.43537 L 100.12935,201.21472 L 88.787917,199.95456 L 86.267595,205.7153 L 84.64739,211.83606 L 89.508003,214.71642 L 99.94932,216.8767 L 112.55091,215.79655 L 113.63104,206.43537 z"
         style="fill:url(#linearGradient2495);fill-opacity:1;fill-rule:evenodd;stroke:none;stroke-width:1px;stroke-linecap:butt;stroke-linejoin:miter;stroke-opacity:1" />
      <path
         id="path4429"
         d="M 79.91984,106.56739 L 83.607394,105.73472 L 88.365534,106.8053 L 91.696232,110.25496 L 92.05309,112.99088 L 89.792975,117.0353 C 89.792975,117.0353 86.343323,120.00913 85.153787,120.00913 C 83.964258,120.00913 79.91984,120.72285 78.730302,119.89017 C 77.540774,119.05751 75.875424,118.93855 75.756469,117.39216 C 75.637516,115.84576 75.875424,110.84971 76.827054,109.66018 C 77.778678,108.47065 80.038791,106.68634 79.91984,106.56739 z"
         style="fill:#ffffff;fill-opacity:1;fill-rule:evenodd;stroke:none;stroke-width:1px;stroke-linecap:butt;stroke-linejoin:miter;stroke-opacity:1" />
      <path
         id="path4431"
         d="M 79.235987,111.0042 C 78.213314,110.99758 77.188278,111.22915 76.183833,111.4759 C 75.777614,113.45114 75.68252,116.27958 75.76763,117.38598 C 75.886583,118.93237 77.547016,119.05052 78.736544,119.8832 C 79.926081,120.71587 83.956542,120.02193 85.14607,120.02193 C 86.06035,120.02193 87.929059,118.53821 88.919645,117.71894 C 87.761255,113.38037 83.603195,111.03243 79.235987,111.0042 z"
         style="fill:#000000;fill-opacity:1;fill-rule:evenodd;stroke:none;stroke-width:1px;stroke-linecap:butt;stroke-linejoin:miter;stroke-opacity:1" />
      <path
         style="fill:#eaeaea;fill-opacity:1;fill-rule:evenodd;stroke:none;stroke-width:1px;stroke-linecap:butt;stroke-linejoin:miter;stroke-opacity:1"
         d="M 60.816882,121.70435 C 65.027572,123.42725 66.893749,123.84526 70.203997,126.53787 L 75.736683,137.61784 C 79.180016,142.14734 82.272601,147.27067 82.256382,155.18997 C 74.9305,161.05449 69.547273,161.47997 58.415654,160.28659 L 45.517104,155.69923 C 45.517104,155.69923 41.405302,154.64552 41.072573,154.05669 C 40.19388,152.50164 38.367208,147.48651 38.367208,147.48651 C 38.367208,147.48651 38.560449,140.43324 38.657069,140.04676 C 38.753689,139.66027 43.991096,134.70909 43.991096,134.70909 C 51.363988,129.13126 55.044706,126.81221 60.816882,121.70435 z"
         id="path1566"
         sodipodi:nodetypes="ccccccscscc" />
      <path
         id="path5940"
         d="M 74.863581,152.03983 C 75.05653,152.18455 76.551842,153.53514 76.551842,153.53514 L 79.253047,157.53873 L 82.05073,164.33998 L 81.80955,167.95767 L 79.638936,170.70712 C 79.638936,170.70712 76.744783,171.81655 76.503603,171.67183 C 76.262422,171.52712 73.898869,170.03181 73.898869,170.03181 C 73.898869,170.03181 72.451788,166.8 72.451788,166.46235 C 72.451788,166.12471 72.065906,160.81875 72.114137,160.43287 C 72.162376,160.04698 71.631777,156.91165 71.921196,156.67047 C 72.210607,156.42929 74.91182,152.1363 74.863581,152.03983 z"
         style="fill:url(#linearGradient2497);fill-opacity:1;fill-rule:evenodd;stroke:none;stroke-width:1px;stroke-linecap:butt;stroke-linejoin:miter;stroke-opacity:1" />
      <path
         id="path7416"
         d="M 118.51328,99.133095 L 133.47817,86.512113 L 147.72184,75.513832 L 156.37623,63.433752 L 159.62162,58.385361 L 149.88544,62.351955 L 139.06745,67.580645 L 132.39636,74.432033 C 132.39636,74.432033 117.79209,90.839302 116.89059,92.281705 C 115.98909,93.724098 115.26789,94.6256 115.26789,94.6256 L 118.51328,99.133095 z"
         style="fill:url(#linearGradient2499);fill-opacity:1;fill-rule:evenodd;stroke:none;stroke-width:1px;stroke-linecap:butt;stroke-linejoin:miter;stroke-opacity:1" />
      <path
         sodipodi:nodetypes="cccccccc"
         style="fill:url(#linearGradient2501);fill-opacity:1;fill-rule:evenodd;stroke:none;stroke-width:1px;stroke-linecap:butt;stroke-linejoin:miter;stroke-opacity:1"
         d="M 230.6458,196.71416 L 209.40311,200.3146 L 204.36248,201.75479 L 204.00244,212.37613 L 213.72366,212.55615 L 225.24512,210.21586 L 232.80606,206.97546 L 230.6458,196.71416 z"
         id="path3058" />
      <path
         sodipodi:nodetypes="ccssssccccccscsssscsccsssscscsccssccsssscscccscccssscscscccccccccsscsssssssssssssssssssscscsscscsssssssscsscccccssscccsscccsssccssccsssssscssssssscsssscssssccsscccsccccssccsssccssssscssccscccscccccsscccccssssccscccccssccssssccsssscssssccssssccssssssssssssssccsccccccccccccccccsssssssssssssscccssssssccssssssccssssccssssscccccccccscccsccsscccccccsccccccccccscccsccccccsscccscccccccssccccsc"
         id="path1308"
         d="M 66.035905,37.595117 L 66.427844,39.132727 C 66.47715,39.329939 66.395196,40.022235 66.2168,40.94168 C 66.038408,41.861124 65.791545,43.063406 65.553517,44.438989 C 65.077451,47.190156 64.724996,50.710703 65.372621,54.569127 C 66.216662,59.597736 70.098503,65.287794 74.055596,70.970302 C 77.997179,76.630537 81.992252,82.281171 83.19081,86.979537 C 83.144363,87.124748 83.073751,87.243686 83.040064,87.401626 C 81.649601,91.5534 76.238602,89.310141 73.723955,92.044606 C 74.731087,93.354048 77.268457,94.49332 73.754105,94.396245 C 70.647577,94.577321 67.033007,99.836804 71.100973,101.42101 C 71.77292,101.59601 72.582211,101.61213 73.332016,101.75266 C 64.537607,120.57929 56.5286,124.52802 50.117117,129.58038 C 49.346849,130.18737 47.573769,131.699 47.132344,132.14307 C 41.442674,136.08767 38.323128,137.70241 37.846385,142.99679 C 37.577003,145.98835 37.991479,148.81987 38.901607,151.04663 C 39.805751,153.25875 41.207823,154.88505 43.03205,155.44841 C 43.038084,155.45028 43.058284,155.44239 43.0622,155.44841 C 44.154831,155.92942 45.19673,156.70092 46.167569,156.64832 C 48.253274,158.04485 50.619546,158.64466 53.192337,159.45826 C 59.5432,161.46662 68.32092,161.91639 71.191421,160.45319 C 71.338116,160.59797 71.549116,161.01114 71.643659,162.32244 C 71.663816,162.93387 71.605094,163.44161 71.673808,164.10124 C 71.919217,166.45712 72.517147,169.00294 73.874701,170.67376 C 75.270022,172.39109 77.501468,172.41885 79.301561,171.4275 C 81.10165,170.43613 82.557676,168.4283 82.557676,165.94034 C 82.557679,163.42155 79.337081,157.57791 79.271411,157.46842 C 84.809814,155.08233 94.12709,147.2235 96.81826,140.85619 C 97.14455,140.08419 98.01062,138.62839 98.50661,137.87141 C 101.57072,155.55278 98.20218,173.61001 95.1902,184.57256 C 93.93334,189.14711 91.48514,194.06863 89.190505,198.92359 L 87.924237,200.18985 C 88.600845,200.79881 84.965845,208.221 84.306331,211.9782 C 84.306333,211.97821 87.775255,214.59268 89.039758,214.96297 C 89.214702,215.01421 99.80322,217.44967 100.55676,217.52566 L 112.97823,216.19909 C 113.70255,213.3949 114.16018,210.44478 114.57615,207.00358 C 114.57615,207.00357 114.27465,206.68635 114.27465,205.85791 C 114.27465,205.84373 115.37386,194.99536 116.2645,190.5421 C 116.44456,189.64182 117.33091,185.57933 118.1639,181.67824 C 118.78739,178.75824 119.13917,177.10713 119.43017,175.73884 C 120.35067,179.13693 122.10151,187.25499 122.11345,189.51703 C 122.12538,191.77908 122.26763,194.69393 121.96271,197.80807 L 121.08838,206.82269 L 120.78689,207.9985 C 120.78689,207.99851 121.22534,214.69839 120.96778,217.37491 C 120.96779,217.37491 129.58861,218.4756 131.30896,218.30953 C 131.37603,218.34454 139.33695,217.61258 141.98178,216.56088 L 151.56924,212.76208 C 151.56924,212.76208 149.88545,204.86867 148.64476,200.97374 C 148.64475,200.97375 147.77069,200.88183 147.3785,199.64717 C 145.63111,194.14627 143.56822,187.1382 143.06716,184.63286 C 142.78462,183.22012 141.94473,177.24459 141.3185,170.67376 C 145.43381,175.93206 152.77056,179.18526 162.9355,179.56779 C 169.81514,179.82667 178.08076,178.64215 187.44681,176.04033 C 187.43817,176.12646 187.23812,178.09825 187.08502,179.44719 C 186.77881,182.14509 185.25044,198.00179 183.70831,199.58687 L 180.51249,211.31492 C 180.51248,211.31492 188.07799,213.06753 189.5874,213.36507 C 191.4412,212.47591 200.99453,213.1023 202.91335,213.12386 C 204.06999,212.14344 204.67377,212.72083 205.53634,212.52088 C 209.8991,213.06073 212.54064,212.89927 213.73693,213.06357 C 214.9656,212.64209 224.70032,210.32545 225.82676,210.59133 L 233.42436,207.12418 C 231.82266,203.41486 232.15587,197.86562 230.86168,195.75791 C 229.17509,193.72869 229.62254,174.5728 229.56526,166.51317 C 229.508,158.45357 229.22402,150.44068 227.96736,143.47917 C 226.89755,137.55275 225.32351,132.79829 222.32945,129.06785 C 222.41904,128.91646 235.23151,110.21438 242.43898,101.17982 C 250.15208,91.511471 258.58105,83.774659 263.0912,80.135665 C 265.6596,78.063349 267.4363,77.652656 268.7894,77.181041 C 270.1425,76.709423 271.35333,76.212025 272.19626,75.70373 C 272.61773,75.449579 272.96146,75.216617 273.16104,74.859551 C 273.26083,74.68102 273.31572,74.448876 273.28164,74.226418 C 273.24948,74.016623 273.12371,73.835768 272.98014,73.683731 C 272.99761,73.714976 272.73707,73.205376 272.61836,72.9903 C 272.38092,72.560146 272.04875,71.98246 271.59328,71.422541 C 270.68235,70.3027 269.27757,69.191498 267.31209,69.191498 C 267.0464,69.191496 265.52234,65.776714 265.23179,65.754487 C 264.94125,65.732261 261.24246,67.743648 260.31747,67.352395 C 259.3925,66.96114 258.38726,64.925477 258.20702,64.337474 C 258.02681,63.74947 257.79776,63.016825 257.51359,62.377775 C 257.22943,61.738722 255.88148,60.507225 255.5539,60.538672 C 255.22631,60.570119 254.88708,60.72309 254.61927,60.99091 C 253.25418,62.356004 251.23736,62.915272 251.2727,62.95061 C 251.32361,63.001504 250.04253,60.663777 249.67479,60.026135 C 249.30706,59.388493 248.97924,58.833704 248.58943,58.488525 C 248.49197,58.402231 247.26268,58.871037 247.23271,59.031211 C 247.2327,59.031211 247.53422,61.00573 247.53421,62.769715 C 246.63407,71.104529 246.80121,80.006282 239.51451,93.642515 C 233.10652,105.63438 222.25825,116.03979 215.18409,122.97771 C 212.87481,121.83991 210.37956,121.1634 207.70708,120.86726 C 202.81171,120.32479 197.42103,120.96382 191.96919,122.01293 C 181.06549,124.11114 169.85882,127.83911 161.85012,127.28904 C 150.45914,126.06033 145.15156,124.09031 140.83612,120.17383 C 137.01588,116.70676 137.8016,117.20739 133.17822,111.27981 C 133.17251,111.25904 133.15276,111.17799 133.14806,111.15921 C 132.8476,109.95737 132.30095,109.12512 131.73105,108.35533 C 131.16117,107.58554 130.54605,106.85965 129.9824,105.73235 C 129.07977,103.92711 126.08639,101.57299 125.67106,101.51146 C 125.25572,101.44993 124.79796,101.49744 124.40479,101.60191 C 123.65823,101.80028 123.64986,101.49654 123.10837,101.72251 C 123.10837,101.7225 134.13623,93.675527 141.07731,88.848789 C 150.58343,82.238358 159.66221,75.045939 161.24714,67.081053 C 161.79385,64.333544 165.09084,55.485782 165.31728,53.815396 C 162.2386,54.157186 156.43284,55.402543 151.84058,56.317781 C 147.23844,57.234989 142.72032,58.348034 139.7206,60.026135 C 127.05657,67.110582 119.10737,81.232962 109.14929,92.798336 C 108.04594,91.533986 102.55533,87.360805 100.43616,84.869092 C 98.76351,84.230302 96.98357,83.900698 95.1902,83.663123 L 94.85856,81.974767 L 94.82841,81.974767 C 91.886798,67.603546 83.428495,52.550521 79.693501,47.966448 C 78.576416,46.595414 75.574968,44.762078 72.970225,42.931528 C 71.667853,42.016253 70.398513,41.172359 69.352318,40.429143 C 68.306124,39.685928 67.465076,39.024282 67.151426,38.710638 L 66.035905,37.595117 z M 67.121276,39.40407 C 67.575631,39.776971 71.16021,42.743277 72.457688,43.65511 C 75.052643,45.478777 78.015857,47.314893 78.93977,48.448835 C 86.994597,58.334734 92.03175,72.517029 94.28572,83.572676 C 93.94572,83.431587 93.25234,83.407101 92.74811,83.36163 C 89.720424,83.53783 85.450901,83.393842 83.703346,85.864016 C 82.204294,81.098433 78.483007,75.776582 74.779178,70.457766 C 70.826144,64.781082 67.184836,59.108011 66.397695,54.41838 C 65.773848,50.701636 65.960453,47.290793 66.427844,44.589735 C 66.66154,43.239209 67.088326,39.792557 67.121276,39.40407 z M 164.68415,54.41838 C 164.68417,54.418381 160.98204,63.989995 160.40296,66.900157 C 158.9269,74.317903 150.06809,81.537692 140.59493,88.125207 C 131.12176,94.712722 121.49201,100.79076 117.74182,106.30519 L 118.07345,106.63683 C 118.89157,105.43383 119.97971,104.49866 121.42002,103.19982 C 121.42001,103.19981 122.09279,107.86519 121.60092,109.83264 C 121.34289,110.8647 120.68311,112.71905 120.84719,112.99831 C 121.17531,113.55683 122.12911,113.84484 122.50539,115.34995 C 122.82192,116.61607 122.1659,118.80678 121.93255,120.53562 C 121.81589,121.40003 121.76764,122.19065 122.23405,122.79681 C 122.46724,123.09988 124.11989,123.38419 124.61583,123.2792 C 124.62695,123.30323 124.60314,123.2681 124.61583,123.30935 C 124.6772,123.50869 125.06409,126.25602 125.21882,126.56546 C 125.60524,127.33831 125.93863,128.09871 126.27405,128.73621 C 126.60945,129.3737 127.81473,130.48411 128.11314,130.42456 C 128.41156,130.36501 129.33465,128.62831 129.59045,127.34934 C 129.70693,126.76698 131.48317,122.68959 131.7612,122.13353 C 132.68005,120.29582 133.09296,119.04791 133.99225,117.24935 C 134.46828,116.29732 134.28867,115.12636 134.02239,114.05354 C 138.64089,119.91361 136.22837,117.17522 140.26328,120.83711 C 144.73807,124.89821 150.41603,127.00858 161.91042,127.83173 C 174.85164,128.75848 179.81461,124.71729 192.15008,122.88726 C 197.60043,122.07868 202.83829,121.21543 207.58648,121.74159 C 210.0827,122.0182 213.59157,122.66652 215.36498,124.09323 C 217.51193,125.65346 221.12088,129.22429 221.27423,129.39949 C 224.84244,133.4757 226.22545,138.79368 227.09303,143.59977 C 228.33253,150.46619 228.63378,158.47001 228.69094,166.51317 C 228.74813,174.55635 228.54719,182.65871 228.90199,189.75823 C 229.02172,192.15405 229.32014,194.23606 229.59542,196.36091 C 221.81883,197.72466 208.6187,199.74582 204.60171,201.54656 C 204.76338,197.61171 204.92734,192.90851 204.78261,187.94927 C 204.61767,182.29836 204.13343,176.31636 202.91335,170.82451 C 201.96715,166.56541 199.67977,159.64393 196.55188,155.78006 L 196.25038,156.05139 C 198.83184,159.24026 200.11154,163.86593 201.3456,168.59347 C 193.99902,164.73221 183.9668,161.94946 173.84951,161.8099 C 163.50925,161.66728 152.78969,165.18284 144.96656,173.11585 L 141.3185,169.95019 C 140.76881,163.99673 139.81494,157.67397 140.20298,154.00125 L 139.87134,153.94095 C 139.00108,162.17739 141.5923,181.81114 142.19283,184.81375 C 142.71906,187.44486 144.36351,192.72503 146.11223,198.23016 C 146.41547,199.18477 146.59325,199.81382 146.89611,200.76269 C 146.65525,200.76433 127.74771,204.78073 121.99285,206.40059 C 122.12588,204.74007 122.77229,200.72964 122.86718,197.83822 C 122.9701,194.70262 123.01729,190.87115 122.83703,187.91912 C 122.69811,185.64418 121.01515,178.01949 119.85226,173.80929 C 119.85278,173.80672 119.85181,173.75125 119.85226,173.74899 L 119.82211,173.74899 C 119.18197,171.43239 118.89995,170.09226 118.2242,167.71915 C 117.26824,164.36194 115.26142,158.4897 115.20928,158.31259 C 115.1834,158.2247 113.72243,155.33809 113.70182,155.29766 C 113.70516,155.30896 113.69512,155.33528 113.70182,155.35796 C 113.7152,155.40332 116.39458,164.60552 117.34987,167.96034 C 118.01504,170.2963 118.31748,171.57939 118.94778,173.86959 C 118.84687,174.35318 118.12082,177.71538 117.31972,181.46719 C 116.48668,185.36859 115.60682,189.4288 115.42032,190.36121 C 114.54861,194.71986 114.05147,200.03515 113.46062,205.13433 C 113.29495,205.06419 96.30351,199.01027 90.064831,199.31552 C 92.33894,194.48918 94.7769,189.50024 96.06453,184.81375 C 99.10266,173.756 102.35201,155.3409 99.16989,137.35889 C 100.85315,134.81725 102.60176,132.26881 104.35556,130.51501 L 103.72243,130.30397 C 101.00721,133.01917 97.74837,136.69785 96.06453,140.3738 C 92.65269,147.82213 84.656847,153.96777 78.728726,156.56393 C 77.44954,154.53917 76.105743,152.55409 76.105743,152.55409 L 75.924848,152.34304 C 78.10431,147.21829 81.185744,143.3358 82.648124,140.79589 L 81.743647,140.85619 C 80.081327,143.48669 69.710354,159.73809 61.392925,160.12154 C 59.788031,160.19553 59.303674,160.46089 53.46368,158.61408 C 51.187157,157.89417 49.147135,156.85722 47.28309,155.68961 C 47.71928,155.5592 49.233659,155.0423 49.363386,152.94603 C 49.861963,150.16896 47.333958,147.31417 46.619807,144.05201 L 45.986674,143.69022 C 45.898234,147.53926 48.052562,151.61991 47.861986,153.8307 C 47.012746,154.12153 45.922625,155.82143 43.635035,154.84543 C 41.508118,153.93797 40.530349,152.78206 39.685487,150.71499 C 38.840623,148.64791 38.594114,145.95906 38.720712,143.08724 C 38.963571,137.57805 42.712448,136.60473 43.78578,135.51978 C 44.910596,134.38278 47.783104,132.5095 48.416918,132.14899 L 50.217524,130.31823 C 56.35514,125.91795 65.658734,120.3749 74.176193,102.05415 C 74.176194,102.05415 78.9141,102.34901 80.266336,100.33564 C 83.736412,96.408593 88.569186,96.53516 93.2305,97.381018 C 95.99762,96.26751 103.75254,96.330201 105.80273,96.386093 C 105.206,97.007778 104.66974,97.658836 104.05407,98.255345 L 104.8078,98.07445 C 117.54874,85.73032 125.74945,68.861806 140.14269,60.810015 C 142.95229,59.238269 147.44618,58.103964 152.02148,57.192109 C 156.59676,56.280253 161.42785,55.232456 164.68415,54.41838 z M 160.34266,57.825242 C 158.92932,58.01955 150.83203,61.640063 147.3785,62.980759 C 143.92496,64.321452 138.52574,67.669988 138.21314,67.98553 C 137.58794,68.61661 130.9637,75.528394 128.17344,78.567906 C 125.38319,81.607415 122.50558,84.870036 120.1236,87.763417 C 117.74163,90.656796 115.8778,93.164334 115.02838,94.908781 L 115.72181,94.456543 C 116.49021,92.878501 118.45152,91.179499 120.81703,88.306103 C 123.18255,85.432711 126.02306,82.203058 128.80658,79.17089 C 131.5901,76.138713 138.07358,69.005258 138.69552,68.377469 C 139.00648,68.063572 144.28381,65.124912 147.71014,63.794788 C 150.80423,62.593634 156.53507,59.978923 158.8955,59.242255 C 158.25256,60.934884 154.40699,64.80493 152.9561,67.111202 C 151.28066,69.774402 149.49279,72.321879 148.49402,73.653582 C 147.86057,74.498163 145.61278,76.486788 142.67522,78.869397 C 139.73766,81.252003 136.05851,84.105551 132.45463,86.88909 C 128.85075,89.672626 118.37383,98.770115 118.25435,99.009076 L 118.43525,99.310568 C 118.44104,99.299002 129.39244,90.366842 132.99732,87.582521 C 136.6022,84.798202 140.26816,81.955328 143.2179,79.56283 C 146.16764,77.170328 148.70356,75.374096 149.51909,74.286716 C 150.53709,72.929385 152.01781,70.283128 153.70983,67.59359 C 155.40185,64.904049 160.07375,59.64964 160.34266,57.825242 z M 248.10703,59.302555 C 248.31493,59.529083 248.61216,59.942734 248.92106,60.478374 C 249.27312,61.088817 250.51322,63.427244 250.66972,63.583743 C 250.86321,63.777199 251.30632,64.0139 252.05659,63.824937 C 252.80687,63.635975 256.26649,61.600739 256.33777,61.593895 C 256.40908,61.587048 257.63656,65.599235 257.75478,65.875084 C 258.03421,66.527083 258.70784,67.638612 259.95568,68.166425 C 261.20352,68.694235 262.93786,68.504593 265.02075,66.719262 C 265.10972,66.643 266.68218,70.065825 267.31209,70.065825 C 268.93507,70.065823 270.0829,70.991091 270.89984,71.995376 C 271.30833,72.497515 271.64267,73.040426 271.86462,73.442538 C 271.9756,73.643594 272.6164,74.733016 272.25656,74.949999 C 271.53689,75.383963 269.79128,75.872071 268.45776,76.336863 C 267.12425,76.801654 263.7284,77.953611 262.21687,79.261337 C 257.62004,83.238358 248.24491,92.176826 240.50943,101.87325 C 233.80332,110.27937 222.2936,127.57157 221.84706,128.19352 C 220.14654,126.31306 216.71053,123.84134 215.96797,123.42994 C 223.12224,116.35864 235.70043,102.94076 241.95659,90.898936 C 248.41683,78.464328 248.42589,67.570362 248.10703,59.302555 z M 92.38632,84.296256 C 96.17949,84.283578 100.10568,84.947328 102.39586,88.095058 C 103.89938,87.619528 107.3363,92.469518 108.6669,93.371171 C 108.24261,93.857169 107.80283,94.282503 107.37048,94.758036 C 107.39171,94.707241 98.77895,97.362488 95.73288,95.572065 C 91.593201,98.202958 86.40219,93.816832 82.587826,97.561913 C 79.475744,100.74589 73.685556,103.14532 70.166347,99.401016 C 69.764636,95.047414 75.536813,96.219624 76.64843,93.732962 C 72.513222,91.053372 80.393477,90.853951 82.527527,90.929085 C 85.302705,91.368558 85.035655,88.722898 82.467229,89.723116 C 84.072469,88.546835 84.53301,82.990934 86.477075,87.100134 C 87.48635,89.767553 93.66738,89.838314 89.341251,87.069985 C 87.497455,86.073017 84.909327,84.635691 88.708117,84.447003 C 89.876874,84.36249 91.121935,84.300483 92.38632,84.296256 z M 125.49016,102.35564 C 125.74281,102.38788 130.20575,106.55779 131.00747,108.89802 C 131.30671,109.77151 132.00881,110.31054 132.27373,111.37026 C 132.43114,111.99984 132.86555,112.99414 133.14806,114.05354 C 133.43059,115.11295 133.53359,116.17683 133.20836,116.82726 C 132.28332,118.67735 131.87022,119.92563 130.97732,121.71144 C 130.69519,122.27569 128.86679,126.385 128.71613,127.1383 C 128.46892,128.37439 128.20928,129.14339 128.0227,129.42964 C 127.92942,129.57276 127.37747,128.9215 127.05792,128.31412 C 126.73835,127.70673 125.37722,122.76349 125.24897,122.61591 C 125.12072,122.46835 123.66696,122.53427 123.40987,122.49532 C 123.15279,122.45638 122.73002,121.44912 122.83703,120.65622 C 123.05107,119.07038 123.80929,116.88731 123.37972,115.16906 C 122.96912,113.52667 122.34818,113.02389 122.17375,112.72697 C 122.08652,112.57851 122.25272,111.05439 122.50539,110.04369 C 123.03335,107.93187 123.05351,104.49256 122.92748,103.10937 C 123.48408,102.86933 125.23752,102.3234 125.49016,102.35564 z M 84.577674,105.21981 C 81.958103,104.90746 79.632344,105.74737 78.005144,107.6619 C 76.377944,109.57644 75.402793,112.47589 75.201267,116.34488 C 75.137483,117.56941 75.851435,118.69629 76.980071,119.4804 C 78.108707,120.2645 79.688597,120.78047 81.442156,120.83711 C 84.949267,120.95038 92.3637,118.49789 92.56722,112.24458 C 92.59679,111.34832 91.902137,110.35666 91.240652,109.38041 C 89.91768,107.4279 87.707166,105.59297 84.577674,105.21981 z M 84.457077,106.06399 C 87.289036,106.40168 89.275791,108.1055 90.486921,109.89294 C 91.092488,110.78666 91.798043,111.68967 91.69289,112.45563 C 90.954769,117.83197 84.645519,120.0361 81.442156,119.93263 C 79.840475,119.88089 78.479575,119.42155 77.522756,118.75681 C 76.565938,118.09208 76.061517,117.25422 76.105743,116.40517 C 76.300692,112.66246 77.219206,109.93986 78.668427,108.23474 C 80.117658,106.52962 82.077683,105.78027 84.457077,106.06399 z M 75.804251,153.66961 C 76.063958,154.02212 80.236276,158.81195 81.683349,165.94034 C 82.109625,168.04019 80.437804,169.83217 78.909621,170.67376 C 77.381441,171.51538 75.650931,171.47072 74.537984,170.10094 C 73.38727,168.68467 72.815238,166.31569 72.578285,164.04094 C 72.488662,163.18051 72.483855,159.51702 72.517986,159.09646 C 72.064385,157.6042 73.043825,156.62112 74.206342,156.05139 C 74.443589,156.55803 74.689064,157.04514 75.201267,158.34274 C 75.301958,158.59782 76.828806,161.51024 77.552906,166.96541 C 77.568077,167.07975 78.035338,167.05592 78.035293,167.05587 C 78.035248,167.0558 77.926644,165.71624 77.733801,163.98064 C 77.581012,162.60551 76.079829,158.17458 76.015296,158.0111 C 75.367301,156.36949 74.908492,155.38451 74.779178,155.11677 C 74.811269,154.35216 75.066308,153.87516 75.804251,153.66961 z M 70.920078,158.61408 C 70.920158,158.16111 71.085427,159.89749 71.100973,159.51856 C 70.379253,160.52857 69.124738,160.20935 68.086051,160.45319 C 69.427951,159.51362 70.118669,159.05826 70.920078,158.61408 z M 173.81936,162.68423 C 184.11575,163.06666 190.54445,163.85732 201.61694,169.49795 C 201.68317,169.77089 201.82558,170.00606 201.88829,170.28183 C 192.10818,175.12243 169.81859,178.95248 162.9355,178.69347 C 155.23381,178.40363 149.27414,176.45288 145.14745,173.29675 C 152.36861,166.45257 163.72794,162.30943 173.81936,162.68423 z M 202.03903,171.12601 C 203.18781,176.53495 203.7455,182.40232 203.90828,187.97942 C 204.05083,192.86375 203.88042,197.18924 203.72738,201.09433 C 201.25127,200.30365 187.11135,199.36306 184.88412,199.58687 C 185.51698,196.44517 186.12439,193.17977 186.60263,189.96926 C 187.19508,185.99206 187.68228,182.2745 187.98949,179.56779 C 188.1431,178.21444 188.33488,175.96685 188.35128,175.79914 C 192.68263,174.55846 197.21237,173.05353 202.03903,171.12601 z M 230.68079,197.29553 C 231.20486,200.74329 230.7194,203.95478 231.9169,206.34029 C 231.27304,206.91157 226.26127,209.13236 225.37453,209.38537 C 225.50226,209.00344 223.59572,201.51642 223.59572,201.51642 L 223.17363,202.36059 C 223.17362,202.36059 224.60351,209.22688 224.28915,209.41552 C 224.10275,209.52734 216.15655,211.34587 214.00827,211.55611 C 213.95552,211.41212 212.85354,205.98291 212.44051,202.0591 L 211.86768,202.54149 C 212.28308,206.48788 213.01918,211.43149 213.1038,211.67671 C 209.85013,211.94474 206.76986,211.96728 204.33037,211.49582 C 204.2907,210.97902 203.82951,203.69479 204.60171,202.14956 C 207.36547,201.75574 228.53346,197.18329 230.68079,197.29553 z M 88.949311,200.3406 C 90.974816,199.6677 113.18349,204.89221 113.24958,206.88298 C 112.82616,210.42888 112.94341,212.51138 112.2245,215.35492 C 112.03956,215.49173 101.30334,216.76478 100.8281,216.28954 C 100.78613,216.24756 103.02899,208.14924 103.02899,208.14924 L 102.27526,207.66686 C 102.27526,207.66685 99.20524,215.70067 99.41109,215.9579 C 99.09391,215.92031 91.008668,214.67068 90.90901,214.57103 C 90.90326,214.51921 94.34602,205.19463 94.34602,205.19463 L 93.56214,205.31522 C 93.56214,205.31522 89.699046,214.05028 89.703042,214.14894 C 88.551524,213.80397 85.533632,212.2856 85.271106,211.94805 C 85.924773,208.42198 87.014204,204.48123 88.949311,200.3406 z M 184.31129,200.4009 C 192.78991,200.40598 201.85561,201.18999 203.51634,201.96866 C 203.60186,202.00876 203.34375,211.33199 203.42589,211.94805 C 203.42589,211.94804 192.64169,212.07287 190.61248,212.12894 C 190.60539,212.10812 193.35606,203.11433 193.35606,203.11433 L 192.87367,202.84299 C 192.87367,202.843 189.32886,212.29666 189.4065,212.46059 C 189.41153,212.47115 181.60801,210.8185 181.47727,210.71193 C 182.58272,208.3479 183.45246,204.51645 184.31129,200.4009 z M 147.95133,201.30537 C 149.09922,202.29458 149.84874,209.96868 150.57431,212.52088 C 150.33287,212.78462 142.87202,215.14805 141.19791,215.50566 C 140.64616,213.29672 136.97702,207.24477 136.97702,207.24477 L 136.67553,207.84775 C 136.67552,207.84775 140.60974,215.93541 140.56477,215.9579 C 139.73633,216.37213 131.81412,217.87644 131.24867,217.07342 C 130.02784,215.33976 129.59045,207.54626 129.59045,207.54626 L 129.28896,208.1191 C 129.28896,208.11911 129.41836,214.79055 130.19344,217.34476 C 130.01107,217.89204 121.94797,216.99162 121.72151,216.77193 C 121.97889,214.05206 121.65341,210.93563 121.84211,207.78746 C 121.84211,207.78747 143.55703,201.36178 147.95133,201.30537 z"
         style="fill:#000000;fill-opacity:1;fill-rule:evenodd;stroke:none;stroke-width:1px;stroke-linecap:butt;stroke-linejoin:miter;stroke-opacity:1" />
      <path
         id="path6668"
         d="M 106.75737,204.70406 C 106.75737,204.70406 90.940904,200.74994 90.062212,201.33573 C 89.183519,201.92152 86.254543,209.53687 86.840335,211.00135 C 87.426135,212.46584 103.82841,210.562 106.75737,204.70406 z"
         style="fill:#ffffff;fill-opacity:0.50196084;fill-rule:evenodd;stroke:none;stroke-width:1px;stroke-linecap:butt;stroke-linejoin:miter;stroke-opacity:1" />
      <path
         sodipodi:nodetypes="cssc"
         style="fill:#ffffff;fill-opacity:0.50196084;fill-rule:evenodd;stroke:none;stroke-width:1px;stroke-linecap:butt;stroke-linejoin:miter;stroke-opacity:1"
         d="M 134.57836,205.36226 C 134.57836,205.36226 123.09786,207.50734 122.54474,208.40695 C 121.99163,209.30656 122.22347,214.66634 123.36808,215.75155 C 124.51271,216.83678 134.36804,211.90827 134.57836,205.36226 z"
         id="path7396" />
      <path
         sodipodi:nodetypes="cssc"
         style="fill:#ffffff;fill-opacity:0.50196084;fill-rule:evenodd;stroke:none;stroke-width:1px;stroke-linecap:butt;stroke-linejoin:miter;stroke-opacity:1"
         d="M 220.05283,200.414 C 220.05283,200.414 206.78562,202.13273 206.16929,202.99028 C 205.55297,203.84784 205.19857,208.34559 206.26229,209.51021 C 207.32601,210.67486 219.37285,206.928 220.05283,200.414 z"
         id="path7398" />
      <path
         sodipodi:nodetypes="cssc"
         id="path7400"
         d="M 196.61147,201.68173 C 196.61147,201.68173 186.34147,200.32244 185.52445,200.99154 C 184.70742,201.66068 183.27141,206.5975 183.99795,207.99751 C 184.72451,209.39751 194.27092,207.79861 196.61147,201.68173 z"
         style="fill:#ffffff;fill-opacity:0.50196084;fill-rule:evenodd;stroke:none;stroke-width:1px;stroke-linecap:butt;stroke-linejoin:miter;stroke-opacity:1" />
      <path
         sodipodi:nodetypes="cssc"
         id="path7404"
         d="M 47.337185,134.29893 C 47.337185,134.29893 40.123152,137.76299 39.537358,143.90812 C 38.854117,151.0755 41.208484,152.78374 42.612783,152.27536 C 49.12074,149.91932 41.772129,143.96454 47.337185,134.29893 z"
         style="fill:#ffffff;fill-opacity:0.50196084;fill-rule:evenodd;stroke:none;stroke-width:1px;stroke-linecap:butt;stroke-linejoin:miter;stroke-opacity:1" />
      <path
         sodipodi:nodetypes="cssc"
         id="path7406"
         d="M 78.053402,112.44127 C 78.053402,112.44127 76.003121,114.0522 77.760511,117.12764 C 78.691004,118.75598 80.250138,115.5167 84.204258,115.66315 C 85.553528,115.71311 81.12883,111.56258 78.053402,112.44127 z"
         style="fill:#ffffff;fill-opacity:0.50196084;fill-rule:evenodd;stroke:none;stroke-width:1px;stroke-linecap:butt;stroke-linejoin:miter;stroke-opacity:1" />
      <path
         sodipodi:nodetypes="csc"
         id="path7408"
         d="M 72.727304,157.59534 C 72.727304,157.59534 72.066539,169.0343 75.802731,169.60414 C 80.011066,170.24599 74.338248,162.42814 72.727304,157.59534 z"
         style="fill:#ffffff;fill-opacity:0.50196084;fill-rule:evenodd;stroke:none;stroke-width:1px;stroke-linecap:butt;stroke-linejoin:miter;stroke-opacity:1" />
      <path
         sodipodi:nodetypes="csccc"
         id="path7412"
         d="M 249.25211,68.653066 C 248.08053,87.642606 234.46076,106.63214 219.37654,121.37465 C 216.75818,123.9337 220.84104,125.47522 220.84104,125.47522 C 236.99923,104.24013 246.71366,90.473941 253.35268,71.728492 C 253.93847,68.506616 252.91333,70.849799 249.25211,68.653066 z"
         style="fill:#ffffff;fill-opacity:0.50196084;fill-rule:evenodd;stroke:none;stroke-width:1px;stroke-linecap:butt;stroke-linejoin:miter;stroke-opacity:1" />
      <path
         sodipodi:nodetypes="ccssccssc"
         id="path1570"
         d="M 60.880823,121.68288 L 60.58932,121.81515 C 71.216531,125.23747 72.633616,130.64886 73.995298,135.27859 C 74.727723,137.76883 76.791598,139.61848 78.484282,142.34246 C 80.176965,145.06645 81.563045,148.94873 81.834095,155.27323 L 82.79887,154.96603 C 82.521547,148.49518 80.778743,145.00454 79.021251,142.17625 C 77.263759,139.34798 75.568427,137.17815 74.929924,135.00724 C 73.549747,130.31464 71.822909,125.20659 60.880823,121.68288 z"
         style="fill:#000000;fill-opacity:1;fill-rule:evenodd;stroke:none;stroke-width:1px;stroke-linecap:butt;stroke-linejoin:miter;stroke-opacity:1" />
    </g>
  </g>
</svg>
