<?xml version="1.0" encoding="UTF-8" standalone="no"?>
<!-- Created with Inkscape (http://www.inkscape.org/) -->
<svg
   xmlns:dc="http://purl.org/dc/elements/1.1/"
   xmlns:cc="http://creativecommons.org/ns#"
   xmlns:rdf="http://www.w3.org/1999/02/22-rdf-syntax-ns#"
   xmlns:svg="http://www.w3.org/2000/svg"
   xmlns="http://www.w3.org/2000/svg"
   xmlns:xlink="http://www.w3.org/1999/xlink"
   xmlns:sodipodi="http://sodipodi.sourceforge.net/DTD/sodipodi-0.dtd"
   xmlns:inkscape="http://www.inkscape.org/namespaces/inkscape"
   width="67.219353"
   height="81.295494"
   id="svg2"
   sodipodi:version="0.32"
   inkscape:version="0.46"
   version="1.0"
   sodipodi:docbase="/var/www/html/svg_gallery/svg/game_elements"
   sodipodi:docname="2.svg"
   inkscape:output_extension="org.inkscape.output.svg.inkscape"
   sodipodi:modified="true">
  <defs
     id="defs4">
    <inkscape:perspective
       sodipodi:type="inkscape:persp3d"
       inkscape:vp_x="0 : 180 : 1"
       inkscape:vp_y="0 : 1000 : 0"
       inkscape:vp_z="360 : 180 : 1"
       inkscape:persp3d-origin="180 : 120 : 1"
       id="perspective93" />
    <linearGradient
       id="linearGradient3960">
      <stop
         style="stop-color: rgb(255, 255, 255); stop-opacity: 1;"
         offset="0"
         id="stop3962" />
      <stop
         style="stop-color: rgb(255, 255, 255); stop-opacity: 0;"
         offset="1"
         id="stop3964" />
    </linearGradient>
    <linearGradient
       id="linearGradient3057">
      <stop
         style="stop-color: rgb(255, 255, 255); stop-opacity: 0;"
         offset="0"
         id="stop3059" />
      <stop
         style="stop-color: rgb(0, 0, 0); stop-opacity: 0.335766;"
         offset="1"
         id="stop3061" />
    </linearGradient>
    <linearGradient
       inkscape:collect="always"
       xlink:href="#linearGradient3960"
       id="linearGradient1556"
       x1="-226.28354"
       y1="-31.806149"
       x2="-163.15625"
       y2="33.193851"
       gradientUnits="userSpaceOnUse"
       gradientTransform="matrix(0.668131,0,0,0.668131,172.356,31.338)" />
    <linearGradient
       inkscape:collect="always"
       xlink:href="#linearGradient3960"
       id="linearGradient1558"
       x1="-129"
       y1="-33"
       x2="-65.038452"
       y2="52"
       gradientUnits="userSpaceOnUse"
       gradientTransform="matrix(0.668131,0,0,0.668131,182.356,32.338)" />
    <linearGradient
       inkscape:collect="always"
       xlink:href="#linearGradient3960"
       id="linearGradient1560"
       x1="-0.82425618"
       y1="-39.163792"
       x2="84.278427"
       y2="41.909534"
       gradientUnits="userSpaceOnUse"
       gradientTransform="matrix(0.668131,0,0,0.668131,196.356,31.338)" />
    <linearGradient
       inkscape:collect="always"
       xlink:href="#linearGradient3960"
       id="linearGradient1562"
       x1="-224.90912"
       y1="104.9375"
       x2="-153.90912"
       y2="177.9375"
       gradientUnits="userSpaceOnUse"
       gradientTransform="matrix(0.668131,0,0,0.668131,172.356,31.338)" />
    <linearGradient
       inkscape:collect="always"
       xlink:href="#linearGradient3960"
       id="linearGradient1570"
       x1="-124.9375"
       y1="87.856873"
       x2="-56.431316"
       y2="170.85687"
       gradientUnits="userSpaceOnUse"
       gradientTransform="matrix(0.668131,0,0,0.668131,182.356,32.338)" />
    <linearGradient
       inkscape:collect="always"
       xlink:href="#linearGradient3960"
       id="linearGradient1572"
       x1="-1.3993299"
       y1="110"
       x2="45.27784"
       y2="171"
       gradientUnits="userSpaceOnUse"
       gradientTransform="matrix(0.668131,0,0,0.668131,196.356,31.338)" />
    <linearGradient
       inkscape:collect="always"
       xlink:href="#linearGradient3960"
       id="linearGradient1574"
       x1="-235.07037"
       y1="221.88599"
       x2="-172.99287"
       y2="309.88599"
       gradientUnits="userSpaceOnUse"
       gradientTransform="matrix(0.668131,0,0,0.668131,172.356,31.338)" />
    <linearGradient
       inkscape:collect="always"
       xlink:href="#linearGradient3960"
       id="linearGradient1576"
       x1="-131.37732"
       y1="227.36664"
       x2="-42.878731"
       y2="335.36664"
       gradientUnits="userSpaceOnUse"
       gradientTransform="matrix(0.668131,0,0,0.668131,182.356,32.338)" />
    <linearGradient
       inkscape:collect="always"
       xlink:href="#linearGradient3960"
       id="linearGradient1578"
       x1="-25.177177"
       y1="237.45419"
       x2="66.380318"
       y2="321.45419"
       gradientUnits="userSpaceOnUse"
       gradientTransform="matrix(0.668131,0,0,0.668131,196.356,31.338)" />
    <linearGradient
       inkscape:collect="always"
       xlink:href="#linearGradient3057"
       id="linearGradient1582"
       gradientUnits="userSpaceOnUse"
       x1="36.822823"
       y1="300.45419"
       x2="94.380318"
       y2="367.45419"
       gradientTransform="matrix(0.668131,0,0,0.668131,196.356,31.338)" />
    <linearGradient
       inkscape:collect="always"
       xlink:href="#linearGradient3057"
       id="linearGradient1586"
       gradientUnits="userSpaceOnUse"
       x1="-83.377296"
       y1="283.27292"
       x2="-20.878733"
       y2="368.36664"
       gradientTransform="matrix(0.668131,0,0,0.668131,182.356,32.338)" />
    <linearGradient
       inkscape:collect="always"
       xlink:href="#linearGradient3057"
       id="linearGradient1590"
       gradientUnits="userSpaceOnUse"
       x1="-209.07037"
       y1="284.88599"
       x2="-163.99287"
       y2="361.88599"
       gradientTransform="matrix(0.668131,0,0,0.668131,172.356,31.338)" />
    <linearGradient
       inkscape:collect="always"
       xlink:href="#linearGradient3057"
       id="linearGradient1594"
       gradientUnits="userSpaceOnUse"
       x1="51.60067"
       y1="165"
       x2="91.955009"
       y2="216.78331"
       gradientTransform="matrix(0.668131,0,0,0.668131,196.356,31.338)" />
    <linearGradient
       inkscape:collect="always"
       xlink:href="#linearGradient3057"
       id="linearGradient1598"
       gradientUnits="userSpaceOnUse"
       x1="-83.9375"
       y1="149.85687"
       x2="-19.431318"
       y2="222.85687"
       gradientTransform="matrix(0.668131,0,0,0.668131,182.356,32.338)" />
    <linearGradient
       inkscape:collect="always"
       xlink:href="#linearGradient3057"
       id="linearGradient1602"
       gradientUnits="userSpaceOnUse"
       x1="-177.0728"
       y1="167.9375"
       x2="-129.23648"
       y2="219.9375"
       gradientTransform="matrix(0.668131,0,0,0.668131,172.356,31.338)" />
    <linearGradient
       inkscape:collect="always"
       xlink:href="#linearGradient3057"
       id="linearGradient1606"
       gradientUnits="userSpaceOnUse"
       x1="39.175743"
       y1="17.909534"
       x2="92.278427"
       y2="74.982857"
       gradientTransform="matrix(0.668131,0,0,0.668131,196.356,31.338)" />
    <linearGradient
       inkscape:collect="always"
       xlink:href="#linearGradient3057"
       id="linearGradient1610"
       gradientUnits="userSpaceOnUse"
       x1="-78"
       y1="16.088024"
       x2="-18.701904"
       y2="86"
       gradientTransform="matrix(0.668131,0,0,0.668131,182.356,32.338)" />
    <linearGradient
       inkscape:collect="always"
       xlink:href="#linearGradient3057"
       id="linearGradient1614"
       gradientUnits="userSpaceOnUse"
       x1="-186.21989"
       y1="23.193851"
       x2="-144.15625"
       y2="71.34375"
       gradientTransform="matrix(0.668131,0,0,0.668131,172.356,31.338)" />
    <linearGradient
       inkscape:collect="always"
       xlink:href="#linearGradient3960"
       id="linearGradient2264"
       x1="269.71805"
       y1="98.93708"
       x2="309.56558"
       y2="149.96216"
       gradientUnits="userSpaceOnUse"
       gradientTransform="translate(-165,178.996)" />
    <linearGradient
       inkscape:collect="always"
       xlink:href="#linearGradient3057"
       id="linearGradient4217"
       gradientUnits="userSpaceOnUse"
       gradientTransform="translate(-165,178.996)"
       x1="299.33032"
       y1="137.17392"
       x2="326.46994"
       y2="178.76216" />
  </defs>
  <sodipodi:namedview
     id="base"
     pagecolor="#ffffff"
     bordercolor="#666666"
     borderopacity="1.0"
     inkscape:pageopacity="0.0"
     inkscape:pageshadow="2"
     inkscape:zoom="1.6083333"
     inkscape:cx="140"
     inkscape:cy="-44.145082"
     inkscape:document-units="px"
     inkscape:current-layer="layer1"
     inkscape:window-width="1306"
     inkscape:window-height="902"
     inkscape:window-x="0"
     inkscape:window-y="0"
     height="360px"
     width="360px"
     showgrid="false" />
  <metadata
     id="metadata7">
    <rdf:RDF>
      <cc:Work
         rdf:about="">
        <dc:format>image/svg+xml</dc:format>
        <dc:type
           rdf:resource="http://purl.org/dc/dcmitype/StillImage" />
      </cc:Work>
    </rdf:RDF>
  </metadata>
  <g
     inkscape:label="Layer 1"
     inkscape:groupmode="layer"
     id="layer1"
     transform="translate(-237.3458,-184.45894)">
    <g
       id="g2532"
       transform="translate(131.05595,180.89488)">
      <path
         id="path2509"
         d="M 172.9155,70.3803 L 132.96455,70.3803 C 135.36161,66.36438 138.29136,64.25072 152.14101,56.21888 C 168.52088,46.70748 173.31501,41.00062 173.31501,30.85513 C 173.31501,16.37667 160.79702,7.0766097 140.95474,7.0766097 C 121.3788,7.0766097 109.92618,16.27099 109.92618,32.12331 C 109.92618,32.75741 109.92618,33.60287 110.05935,34.76537 L 127.9041,34.76537 L 127.9041,32.33468 C 127.9041,23.98578 132.8314,19.12439 141.35425,19.12439 C 149.61078,19.12439 154.67124,23.66874 154.67124,31.17217 C 154.67124,39.41538 151.34196,42.69155 130.5675,54.42228 C 114.58713,63.08822 109.65983,69.74622 108.72765,83.59059 L 172.9155,83.59059 L 172.9155,70.3803"
         style="font-size:177.55900574px;font-style:normal;font-variant:normal;font-weight:bold;font-stretch:normal;text-align:start;line-height:125%;text-anchor:start;fill:#000000;fill-opacity:0.37647101;stroke:none;stroke-width:1px;stroke-linecap:butt;stroke-linejoin:miter;stroke-opacity:1;font-family:Nimbus Sans L" />
      <path
         style="font-size:177.55900574px;font-style:normal;font-variant:normal;font-weight:bold;font-stretch:normal;text-align:start;line-height:125%;text-anchor:start;fill:#000000;fill-opacity:0.37647101;stroke:none;stroke-width:1px;stroke-linecap:butt;stroke-linejoin:miter;stroke-opacity:1;font-family:Nimbus Sans L"
         d="M 172.01806,69.482864 L 132.06711,69.482864 C 134.46417,65.466944 137.39392,63.353284 151.24357,55.321444 C 167.62344,45.810044 172.41757,40.103184 172.41757,29.957694 C 172.41757,15.479234 159.89958,6.1791738 140.0573,6.1791738 C 120.48136,6.1791738 109.02874,15.373554 109.02874,31.225874 C 109.02874,31.859974 109.02874,32.705434 109.16191,33.867934 L 127.00666,33.867934 L 127.00666,31.437244 C 127.00666,23.088344 131.93396,18.226954 140.45681,18.226954 C 148.71334,18.226954 153.7738,22.771304 153.7738,30.274734 C 153.7738,38.517944 150.44452,41.794114 129.67006,53.524844 C 113.68969,62.190784 108.76239,68.848784 107.83021,82.693154 L 172.01806,82.693154 L 172.01806,69.482864"
         id="path1618" />
      <path
         id="path1436"
         d="M 170.6719,68.13671 L 130.72095,68.13671 C 133.11801,64.12079 136.04776,62.00713 149.89741,53.97529 C 166.27728,44.46389 171.07141,38.75703 171.07141,28.61154 C 171.07141,14.13308 158.55342,4.83302 138.71114,4.83302 C 119.1352,4.83302 107.68258,14.0274 107.68258,29.87972 C 107.68258,30.51382 107.68258,31.35928 107.81575,32.52178 L 125.6605,32.52178 L 125.6605,30.09109 C 125.6605,21.74219 130.5878,16.8808 139.11065,16.8808 C 147.36718,16.8808 152.42764,21.42515 152.42764,28.92858 C 152.42764,37.17179 149.09836,40.44796 128.3239,52.17869 C 112.34353,60.84463 107.41623,67.50263 106.48405,81.347 L 170.6719,81.347 L 170.6719,68.13671"
         style="font-size:177.55900574px;font-style:normal;font-variant:normal;font-weight:bold;font-stretch:normal;text-align:start;line-height:125%;text-anchor:start;fill:#969696;fill-opacity:1;stroke:none;stroke-width:1px;stroke-linecap:butt;stroke-linejoin:miter;stroke-opacity:1;font-family:Nimbus Sans L" />
      <path
         id="path1504"
         d="M 136.94389,6.19733 C 125.82097,6.032466 112.5006,11.349595 109.82194,23.23467 C 109.17475,25.79553 108.92201,28.51481 109.04941,31.18961 C 114.12304,31.18961 119.19666,31.18961 124.27028,31.18961 C 123.3648,23.48491 129.30211,15.58307 137.25708,15.55117 C 144.70687,14.55419 153.38433,19.18034 153.73068,27.26434 C 154.94133,34.96359 149.29915,41.41433 143.06146,44.9907 C 132.02545,52.79065 116.95324,56.95735 110.42743,69.64891 C 108.93697,72.90022 108.25016,76.45722 107.94282,80.00494 C 128.38346,80.00494 148.8241,80.00494 169.26473,80.00494 C 168.94986,76.51509 170.07187,72.82812 168.93067,69.48188 C 155.40797,69.48188 141.88528,69.48188 128.36258,69.48188 C 134.16727,58.71205 146.96729,55.3999 156.2903,48.47784 C 163.50588,44.09322 170.54295,37.12579 169.80759,27.97423 C 169.7502,16.90715 159.48308,8.554886 149.11113,7.160367 C 145.15714,6.392615 141.00977,6.065266 136.94389,6.19733 z"
         style="font-size:177.55900574px;font-style:normal;font-variant:normal;font-weight:bold;font-stretch:normal;text-align:start;line-height:125%;text-anchor:start;fill:url(#linearGradient1558);fill-opacity:1;stroke:none;stroke-width:1px;stroke-linecap:butt;stroke-linejoin:miter;stroke-opacity:1;font-family:Nimbus Sans L" />
      <path
         style="font-size:177.55900574px;font-style:normal;font-variant:normal;font-weight:bold;font-stretch:normal;text-align:start;line-height:125%;text-anchor:start;fill:url(#linearGradient1610);fill-opacity:1;stroke:none;stroke-width:1px;stroke-linecap:butt;stroke-linejoin:miter;stroke-opacity:1;font-family:Nimbus Sans L"
         d="M 136.94389,6.19733 C 125.82097,6.032466 112.5006,11.349595 109.82194,23.23467 C 109.17475,25.79553 108.92201,28.51481 109.04941,31.18961 C 114.12304,31.18961 119.19666,31.18961 124.27028,31.18961 C 123.3648,23.48491 129.30211,15.58307 137.25708,15.55117 C 144.70687,14.55419 153.38433,19.18034 153.73068,27.26434 C 154.94133,34.96359 149.29915,41.41433 143.06146,44.9907 C 132.02545,52.79065 116.95324,56.95735 110.42743,69.64891 C 108.93697,72.90022 108.25016,76.45722 107.94282,80.00494 C 128.38346,80.00494 148.8241,80.00494 169.26473,80.00494 C 168.94986,76.51509 170.07187,72.82812 168.93067,69.48188 C 155.40797,69.48188 141.88528,69.48188 128.36258,69.48188 C 134.16727,58.71205 146.96729,55.3999 156.2903,48.47784 C 163.50588,44.09322 170.54295,37.12579 169.80759,27.97423 C 169.7502,16.90715 159.48308,8.554886 149.11113,7.160367 C 145.15714,6.392615 141.00977,6.065266 136.94389,6.19733 z"
         id="path1608" />
    </g>
  </g>
</svg>
