<?xml version="1.0" encoding="UTF-8" standalone="no"?>
<!-- Created with Inkscape (http://www.inkscape.org/) -->
<svg
   xmlns:dc="http://purl.org/dc/elements/1.1/"
   xmlns:cc="http://creativecommons.org/ns#"
   xmlns:rdf="http://www.w3.org/1999/02/22-rdf-syntax-ns#"
   xmlns:svg="http://www.w3.org/2000/svg"
   xmlns="http://www.w3.org/2000/svg"
   xmlns:xlink="http://www.w3.org/1999/xlink"
   xmlns:sodipodi="http://sodipodi.sourceforge.net/DTD/sodipodi-0.dtd"
   xmlns:inkscape="http://www.inkscape.org/namespaces/inkscape"
   width="68.555603"
   height="77.157799"
   id="svg2"
   sodipodi:version="0.32"
   inkscape:version="0.46"
   version="1.0"
   sodipodi:docbase="/var/www/html/svg_gallery/svg/game_elements"
   sodipodi:docname="4.svg"
   inkscape:output_extension="org.inkscape.output.svg.inkscape"
   sodipodi:modified="true">
  <defs
     id="defs4">
    <inkscape:perspective
       sodipodi:type="inkscape:persp3d"
       inkscape:vp_x="0 : 180 : 1"
       inkscape:vp_y="0 : 1000 : 0"
       inkscape:vp_z="360 : 180 : 1"
       inkscape:persp3d-origin="180 : 120 : 1"
       id="perspective93" />
    <linearGradient
       id="linearGradient3960">
      <stop
         style="stop-color: rgb(255, 255, 255); stop-opacity: 1;"
         offset="0"
         id="stop3962" />
      <stop
         style="stop-color: rgb(255, 255, 255); stop-opacity: 0;"
         offset="1"
         id="stop3964" />
    </linearGradient>
    <linearGradient
       id="linearGradient3057">
      <stop
         style="stop-color: rgb(255, 255, 255); stop-opacity: 0;"
         offset="0"
         id="stop3059" />
      <stop
         style="stop-color: rgb(0, 0, 0); stop-opacity: 0.335766;"
         offset="1"
         id="stop3061" />
    </linearGradient>
    <linearGradient
       inkscape:collect="always"
       xlink:href="#linearGradient3960"
       id="linearGradient1556"
       x1="-226.28354"
       y1="-31.806149"
       x2="-163.15625"
       y2="33.193851"
       gradientUnits="userSpaceOnUse"
       gradientTransform="matrix(0.668131,0,0,0.668131,172.356,31.338)" />
    <linearGradient
       inkscape:collect="always"
       xlink:href="#linearGradient3960"
       id="linearGradient1558"
       x1="-129"
       y1="-33"
       x2="-65.038452"
       y2="52"
       gradientUnits="userSpaceOnUse"
       gradientTransform="matrix(0.668131,0,0,0.668131,182.356,32.338)" />
    <linearGradient
       inkscape:collect="always"
       xlink:href="#linearGradient3960"
       id="linearGradient1560"
       x1="-0.82425618"
       y1="-39.163792"
       x2="84.278427"
       y2="41.909534"
       gradientUnits="userSpaceOnUse"
       gradientTransform="matrix(0.668131,0,0,0.668131,196.356,31.338)" />
    <linearGradient
       inkscape:collect="always"
       xlink:href="#linearGradient3960"
       id="linearGradient1562"
       x1="-224.90912"
       y1="104.9375"
       x2="-153.90912"
       y2="177.9375"
       gradientUnits="userSpaceOnUse"
       gradientTransform="matrix(0.668131,0,0,0.668131,172.356,31.338)" />
    <linearGradient
       inkscape:collect="always"
       xlink:href="#linearGradient3960"
       id="linearGradient1570"
       x1="-124.9375"
       y1="87.856873"
       x2="-56.431316"
       y2="170.85687"
       gradientUnits="userSpaceOnUse"
       gradientTransform="matrix(0.668131,0,0,0.668131,182.356,32.338)" />
    <linearGradient
       inkscape:collect="always"
       xlink:href="#linearGradient3960"
       id="linearGradient1572"
       x1="-1.3993299"
       y1="110"
       x2="45.27784"
       y2="171"
       gradientUnits="userSpaceOnUse"
       gradientTransform="matrix(0.668131,0,0,0.668131,196.356,31.338)" />
    <linearGradient
       inkscape:collect="always"
       xlink:href="#linearGradient3960"
       id="linearGradient1574"
       x1="-235.07037"
       y1="221.88599"
       x2="-172.99287"
       y2="309.88599"
       gradientUnits="userSpaceOnUse"
       gradientTransform="matrix(0.668131,0,0,0.668131,172.356,31.338)" />
    <linearGradient
       inkscape:collect="always"
       xlink:href="#linearGradient3960"
       id="linearGradient1576"
       x1="-131.37732"
       y1="227.36664"
       x2="-42.878731"
       y2="335.36664"
       gradientUnits="userSpaceOnUse"
       gradientTransform="matrix(0.668131,0,0,0.668131,182.356,32.338)" />
    <linearGradient
       inkscape:collect="always"
       xlink:href="#linearGradient3960"
       id="linearGradient1578"
       x1="-25.177177"
       y1="237.45419"
       x2="66.380318"
       y2="321.45419"
       gradientUnits="userSpaceOnUse"
       gradientTransform="matrix(0.668131,0,0,0.668131,196.356,31.338)" />
    <linearGradient
       inkscape:collect="always"
       xlink:href="#linearGradient3057"
       id="linearGradient1582"
       gradientUnits="userSpaceOnUse"
       x1="36.822823"
       y1="300.45419"
       x2="94.380318"
       y2="367.45419"
       gradientTransform="matrix(0.668131,0,0,0.668131,196.356,31.338)" />
    <linearGradient
       inkscape:collect="always"
       xlink:href="#linearGradient3057"
       id="linearGradient1586"
       gradientUnits="userSpaceOnUse"
       x1="-83.377296"
       y1="283.27292"
       x2="-20.878733"
       y2="368.36664"
       gradientTransform="matrix(0.668131,0,0,0.668131,182.356,32.338)" />
    <linearGradient
       inkscape:collect="always"
       xlink:href="#linearGradient3057"
       id="linearGradient1590"
       gradientUnits="userSpaceOnUse"
       x1="-209.07037"
       y1="284.88599"
       x2="-163.99287"
       y2="361.88599"
       gradientTransform="matrix(0.668131,0,0,0.668131,172.356,31.338)" />
    <linearGradient
       inkscape:collect="always"
       xlink:href="#linearGradient3057"
       id="linearGradient1594"
       gradientUnits="userSpaceOnUse"
       x1="51.60067"
       y1="165"
       x2="91.955009"
       y2="216.78331"
       gradientTransform="matrix(0.668131,0,0,0.668131,196.356,31.338)" />
    <linearGradient
       inkscape:collect="always"
       xlink:href="#linearGradient3057"
       id="linearGradient1598"
       gradientUnits="userSpaceOnUse"
       x1="-83.9375"
       y1="149.85687"
       x2="-19.431318"
       y2="222.85687"
       gradientTransform="matrix(0.668131,0,0,0.668131,182.356,32.338)" />
    <linearGradient
       inkscape:collect="always"
       xlink:href="#linearGradient3057"
       id="linearGradient1602"
       gradientUnits="userSpaceOnUse"
       x1="-177.0728"
       y1="167.9375"
       x2="-129.23648"
       y2="219.9375"
       gradientTransform="matrix(0.668131,0,0,0.668131,172.356,31.338)" />
    <linearGradient
       inkscape:collect="always"
       xlink:href="#linearGradient3057"
       id="linearGradient1606"
       gradientUnits="userSpaceOnUse"
       x1="39.175743"
       y1="17.909534"
       x2="92.278427"
       y2="74.982857"
       gradientTransform="matrix(0.668131,0,0,0.668131,196.356,31.338)" />
    <linearGradient
       inkscape:collect="always"
       xlink:href="#linearGradient3057"
       id="linearGradient1610"
       gradientUnits="userSpaceOnUse"
       x1="-78"
       y1="16.088024"
       x2="-18.701904"
       y2="86"
       gradientTransform="matrix(0.668131,0,0,0.668131,182.356,32.338)" />
    <linearGradient
       inkscape:collect="always"
       xlink:href="#linearGradient3057"
       id="linearGradient1614"
       gradientUnits="userSpaceOnUse"
       x1="-186.21989"
       y1="23.193851"
       x2="-144.15625"
       y2="71.34375"
       gradientTransform="matrix(0.668131,0,0,0.668131,172.356,31.338)" />
    <linearGradient
       inkscape:collect="always"
       xlink:href="#linearGradient3960"
       id="linearGradient2264"
       x1="269.71805"
       y1="98.93708"
       x2="309.56558"
       y2="149.96216"
       gradientUnits="userSpaceOnUse"
       gradientTransform="translate(-165,178.996)" />
    <linearGradient
       inkscape:collect="always"
       xlink:href="#linearGradient3057"
       id="linearGradient4217"
       gradientUnits="userSpaceOnUse"
       gradientTransform="translate(-165,178.996)"
       x1="299.33032"
       y1="137.17392"
       x2="326.46994"
       y2="178.76216" />
  </defs>
  <sodipodi:namedview
     id="base"
     pagecolor="#ffffff"
     bordercolor="#666666"
     borderopacity="1.0"
     inkscape:pageopacity="0.0"
     inkscape:pageshadow="2"
     inkscape:zoom="1.6083333"
     inkscape:cx="140"
     inkscape:cy="-44.145082"
     inkscape:document-units="px"
     inkscape:current-layer="layer1"
     inkscape:window-width="1306"
     inkscape:window-height="902"
     inkscape:window-x="0"
     inkscape:window-y="0"
     height="360px"
     width="360px"
     showgrid="false" />
  <metadata
     id="metadata7">
    <rdf:RDF>
      <cc:Work
         rdf:about="">
        <dc:format>image/svg+xml</dc:format>
        <dc:type
           rdf:resource="http://purl.org/dc/dcmitype/StillImage" />
      </cc:Work>
    </rdf:RDF>
  </metadata>
  <g
     inkscape:label="Layer 1"
     inkscape:groupmode="layer"
     id="layer1"
     transform="translate(-236.67768,-186.52779)">
    <g
       id="g2546"
       transform="translate(215.77873,86.414077)">
      <path
         id="path2513"
         d="M 57.61393,102.3573 L 23.14254,148.2078 L 23.14254,160.6935 L 60.95458,160.6935 L 60.95458,177.27151 L 79.59962,177.27151 L 79.59962,160.6935 L 89.45455,160.6935 L 89.45455,148.41659 L 79.59962,148.41659 L 79.59962,102.3573 L 57.61393,102.3573 z M 60.95458,116.40894 L 60.95458,148.41659 L 36.31725,148.41659 L 60.95458,116.40894 z"
         style="font-size:177.55900574px;font-style:normal;font-variant:normal;font-weight:bold;font-stretch:normal;text-align:start;line-height:125%;text-anchor:start;fill:#000000;fill-opacity:0.37647101;stroke:none;stroke-width:1px;stroke-linecap:butt;stroke-linejoin:miter;stroke-opacity:1;font-family:Nimbus Sans L" />
      <path
         style="font-size:177.55900574px;font-style:normal;font-variant:normal;font-weight:bold;font-stretch:normal;text-align:start;line-height:125%;text-anchor:start;fill:#000000;fill-opacity:0.37647101;stroke:none;stroke-width:1px;stroke-linecap:butt;stroke-linejoin:miter;stroke-opacity:1;font-family:Nimbus Sans L"
         d="M 56.716494,101.45986 L 22.245104,147.31036 L 22.245104,159.79606 L 60.057144,159.79606 L 60.057144,176.37407 L 78.702184,176.37407 L 78.702184,159.79606 L 88.557114,159.79606 L 88.557114,147.51915 L 78.702184,147.51915 L 78.702184,101.45986 L 56.716494,101.45986 z M 60.057144,115.5115 L 60.057144,147.51915 L 35.419814,147.51915 L 60.057144,115.5115 z"
         id="path1622" />
      <path
         id="path1432"
         d="M 55.37034,100.11371 L 20.89895,145.96421 L 20.89895,158.44991 L 58.71099,158.44991 L 58.71099,175.02792 L 77.35603,175.02792 L 77.35603,158.44991 L 87.21096,158.44991 L 87.21096,146.173 L 77.35603,146.173 L 77.35603,100.11371 L 55.37034,100.11371 z M 58.71099,114.16535 L 58.71099,146.173 L 34.07366,146.173 L 58.71099,114.16535 z"
         style="font-size:177.55900574px;font-style:normal;font-variant:normal;font-weight:bold;font-stretch:normal;text-align:start;line-height:125%;text-anchor:start;fill:#ffb300;fill-opacity:1;stroke:none;stroke-width:1px;stroke-linecap:butt;stroke-linejoin:miter;stroke-opacity:1;font-family:Nimbus Sans L" />
      <path
         id="path1508"
         d="M 22.27697,146.3818 C 22.69432,149.93965 21.40508,153.67841 22.63191,157.11365 C 35.1037,157.11365 47.57547,157.11365 60.04726,157.11365 C 60.04726,162.63965 60.04726,168.16566 60.04726,173.69166 C 65.37143,173.69166 70.6956,173.69166 76.01977,173.69166 C 76.01977,168.21437 76.01977,162.73709 76.01977,157.25981 C 79.12087,155.95908 83.07355,158.56663 85.79119,156.63343 C 85.74959,153.7794 86.4159,150.55095 85.60327,147.73894 C 83.49269,146.00434 80.3157,149.07712 77.89889,147.42575 C 73.88612,144.87424 76.84298,139.20866 76.01977,135.48291 C 76.01977,124.13859 76.01977,112.79429 76.01977,101.44998 C 69.35934,101.44998 62.6989,101.44998 56.03847,101.44998 C 44.78464,116.42725 33.5308,131.40452 22.27697,146.3818 z M 60.04726,112.20271 C 60.04726,123.97156 60.04726,135.74042 60.04726,147.50927 C 50.48463,147.50927 40.922,147.50927 31.35938,147.50927 C 40.92148,135.0858 50.48372,122.66244 60.04726,110.24008 C 60.04726,110.89429 60.04726,111.5485 60.04726,112.20271 z"
         style="font-size:177.55900574px;font-style:normal;font-variant:normal;font-weight:bold;font-stretch:normal;text-align:start;line-height:125%;text-anchor:start;fill:url(#linearGradient1562);fill-opacity:1;stroke:none;stroke-width:1px;stroke-linecap:butt;stroke-linejoin:miter;stroke-opacity:1;font-family:Nimbus Sans L" />
      <path
         style="font-size:177.55900574px;font-style:normal;font-variant:normal;font-weight:bold;font-stretch:normal;text-align:start;line-height:125%;text-anchor:start;fill:url(#linearGradient1602);fill-opacity:1;stroke:none;stroke-width:1px;stroke-linecap:butt;stroke-linejoin:miter;stroke-opacity:1;font-family:Nimbus Sans L"
         d="M 22.27697,146.3818 C 22.69432,149.93965 21.40508,153.67841 22.63191,157.11365 C 35.1037,157.11365 47.57547,157.11365 60.04726,157.11365 C 60.04726,162.63965 60.04726,168.16566 60.04726,173.69166 C 65.37143,173.69166 70.6956,173.69166 76.01977,173.69166 C 76.01977,168.21437 76.01977,162.73709 76.01977,157.25981 C 79.12087,155.95908 83.07355,158.56663 85.79119,156.63343 C 85.74959,153.7794 86.4159,150.55095 85.60327,147.73894 C 83.49269,146.00434 80.3157,149.07712 77.89889,147.42575 C 73.88612,144.87424 76.84298,139.20866 76.01977,135.48291 C 76.01977,124.13859 76.01977,112.79429 76.01977,101.44998 C 69.35934,101.44998 62.6989,101.44998 56.03847,101.44998 C 44.78464,116.42725 33.5308,131.40452 22.27697,146.3818 z M 60.04726,112.20271 C 60.04726,123.97156 60.04726,135.74042 60.04726,147.50927 C 50.48463,147.50927 40.922,147.50927 31.35938,147.50927 C 40.92148,135.0858 50.48372,122.66244 60.04726,110.24008 C 60.04726,110.89429 60.04726,111.5485 60.04726,112.20271 z"
         id="path1600" />
    </g>
  </g>
</svg>
