<?xml version="1.0" encoding="UTF-8" standalone="no"?>
<!-- Created with Inkscape (http://www.inkscape.org/) -->
<svg
   xmlns:dc="http://purl.org/dc/elements/1.1/"
   xmlns:cc="http://creativecommons.org/ns#"
   xmlns:rdf="http://www.w3.org/1999/02/22-rdf-syntax-ns#"
   xmlns:svg="http://www.w3.org/2000/svg"
   xmlns="http://www.w3.org/2000/svg"
   xmlns:xlink="http://www.w3.org/1999/xlink"
   xmlns:sodipodi="http://sodipodi.sourceforge.net/DTD/sodipodi-0.dtd"
   xmlns:inkscape="http://www.inkscape.org/namespaces/inkscape"
   width="67.219353"
   height="81.295494"
   id="svg2"
   sodipodi:version="0.32"
   inkscape:version="0.46"
   version="1.0"
   sodipodi:docbase="/var/www/html/svg_gallery/svg/game_elements"
   sodipodi:docname="5.svg"
   inkscape:output_extension="org.inkscape.output.svg.inkscape"
   sodipodi:modified="true">
  <defs
     id="defs4">
    <inkscape:perspective
       sodipodi:type="inkscape:persp3d"
       inkscape:vp_x="0 : 180 : 1"
       inkscape:vp_y="0 : 1000 : 0"
       inkscape:vp_z="360 : 180 : 1"
       inkscape:persp3d-origin="180 : 120 : 1"
       id="perspective93" />
    <linearGradient
       id="linearGradient3960">
      <stop
         style="stop-color: rgb(255, 255, 255); stop-opacity: 1;"
         offset="0"
         id="stop3962" />
      <stop
         style="stop-color: rgb(255, 255, 255); stop-opacity: 0;"
         offset="1"
         id="stop3964" />
    </linearGradient>
    <linearGradient
       id="linearGradient3057">
      <stop
         style="stop-color: rgb(255, 255, 255); stop-opacity: 0;"
         offset="0"
         id="stop3059" />
      <stop
         style="stop-color: rgb(0, 0, 0); stop-opacity: 0.335766;"
         offset="1"
         id="stop3061" />
    </linearGradient>
    <linearGradient
       inkscape:collect="always"
       xlink:href="#linearGradient3960"
       id="linearGradient1556"
       x1="-226.28354"
       y1="-31.806149"
       x2="-163.15625"
       y2="33.193851"
       gradientUnits="userSpaceOnUse"
       gradientTransform="matrix(0.668131,0,0,0.668131,172.356,31.338)" />
    <linearGradient
       inkscape:collect="always"
       xlink:href="#linearGradient3960"
       id="linearGradient1558"
       x1="-129"
       y1="-33"
       x2="-65.038452"
       y2="52"
       gradientUnits="userSpaceOnUse"
       gradientTransform="matrix(0.668131,0,0,0.668131,182.356,32.338)" />
    <linearGradient
       inkscape:collect="always"
       xlink:href="#linearGradient3960"
       id="linearGradient1560"
       x1="-0.82425618"
       y1="-39.163792"
       x2="84.278427"
       y2="41.909534"
       gradientUnits="userSpaceOnUse"
       gradientTransform="matrix(0.668131,0,0,0.668131,196.356,31.338)" />
    <linearGradient
       inkscape:collect="always"
       xlink:href="#linearGradient3960"
       id="linearGradient1562"
       x1="-224.90912"
       y1="104.9375"
       x2="-153.90912"
       y2="177.9375"
       gradientUnits="userSpaceOnUse"
       gradientTransform="matrix(0.668131,0,0,0.668131,172.356,31.338)" />
    <linearGradient
       inkscape:collect="always"
       xlink:href="#linearGradient3960"
       id="linearGradient1570"
       x1="-124.9375"
       y1="87.856873"
       x2="-56.431316"
       y2="170.85687"
       gradientUnits="userSpaceOnUse"
       gradientTransform="matrix(0.668131,0,0,0.668131,182.356,32.338)" />
    <linearGradient
       inkscape:collect="always"
       xlink:href="#linearGradient3960"
       id="linearGradient1572"
       x1="-1.3993299"
       y1="110"
       x2="45.27784"
       y2="171"
       gradientUnits="userSpaceOnUse"
       gradientTransform="matrix(0.668131,0,0,0.668131,196.356,31.338)" />
    <linearGradient
       inkscape:collect="always"
       xlink:href="#linearGradient3960"
       id="linearGradient1574"
       x1="-235.07037"
       y1="221.88599"
       x2="-172.99287"
       y2="309.88599"
       gradientUnits="userSpaceOnUse"
       gradientTransform="matrix(0.668131,0,0,0.668131,172.356,31.338)" />
    <linearGradient
       inkscape:collect="always"
       xlink:href="#linearGradient3960"
       id="linearGradient1576"
       x1="-131.37732"
       y1="227.36664"
       x2="-42.878731"
       y2="335.36664"
       gradientUnits="userSpaceOnUse"
       gradientTransform="matrix(0.668131,0,0,0.668131,182.356,32.338)" />
    <linearGradient
       inkscape:collect="always"
       xlink:href="#linearGradient3960"
       id="linearGradient1578"
       x1="-25.177177"
       y1="237.45419"
       x2="66.380318"
       y2="321.45419"
       gradientUnits="userSpaceOnUse"
       gradientTransform="matrix(0.668131,0,0,0.668131,196.356,31.338)" />
    <linearGradient
       inkscape:collect="always"
       xlink:href="#linearGradient3057"
       id="linearGradient1582"
       gradientUnits="userSpaceOnUse"
       x1="36.822823"
       y1="300.45419"
       x2="94.380318"
       y2="367.45419"
       gradientTransform="matrix(0.668131,0,0,0.668131,196.356,31.338)" />
    <linearGradient
       inkscape:collect="always"
       xlink:href="#linearGradient3057"
       id="linearGradient1586"
       gradientUnits="userSpaceOnUse"
       x1="-83.377296"
       y1="283.27292"
       x2="-20.878733"
       y2="368.36664"
       gradientTransform="matrix(0.668131,0,0,0.668131,182.356,32.338)" />
    <linearGradient
       inkscape:collect="always"
       xlink:href="#linearGradient3057"
       id="linearGradient1590"
       gradientUnits="userSpaceOnUse"
       x1="-209.07037"
       y1="284.88599"
       x2="-163.99287"
       y2="361.88599"
       gradientTransform="matrix(0.668131,0,0,0.668131,172.356,31.338)" />
    <linearGradient
       inkscape:collect="always"
       xlink:href="#linearGradient3057"
       id="linearGradient1594"
       gradientUnits="userSpaceOnUse"
       x1="51.60067"
       y1="165"
       x2="91.955009"
       y2="216.78331"
       gradientTransform="matrix(0.668131,0,0,0.668131,196.356,31.338)" />
    <linearGradient
       inkscape:collect="always"
       xlink:href="#linearGradient3057"
       id="linearGradient1598"
       gradientUnits="userSpaceOnUse"
       x1="-83.9375"
       y1="149.85687"
       x2="-19.431318"
       y2="222.85687"
       gradientTransform="matrix(0.668131,0,0,0.668131,182.356,32.338)" />
    <linearGradient
       inkscape:collect="always"
       xlink:href="#linearGradient3057"
       id="linearGradient1602"
       gradientUnits="userSpaceOnUse"
       x1="-177.0728"
       y1="167.9375"
       x2="-129.23648"
       y2="219.9375"
       gradientTransform="matrix(0.668131,0,0,0.668131,172.356,31.338)" />
    <linearGradient
       inkscape:collect="always"
       xlink:href="#linearGradient3057"
       id="linearGradient1606"
       gradientUnits="userSpaceOnUse"
       x1="39.175743"
       y1="17.909534"
       x2="92.278427"
       y2="74.982857"
       gradientTransform="matrix(0.668131,0,0,0.668131,196.356,31.338)" />
    <linearGradient
       inkscape:collect="always"
       xlink:href="#linearGradient3057"
       id="linearGradient1610"
       gradientUnits="userSpaceOnUse"
       x1="-78"
       y1="16.088024"
       x2="-18.701904"
       y2="86"
       gradientTransform="matrix(0.668131,0,0,0.668131,182.356,32.338)" />
    <linearGradient
       inkscape:collect="always"
       xlink:href="#linearGradient3057"
       id="linearGradient1614"
       gradientUnits="userSpaceOnUse"
       x1="-186.21989"
       y1="23.193851"
       x2="-144.15625"
       y2="71.34375"
       gradientTransform="matrix(0.668131,0,0,0.668131,172.356,31.338)" />
    <linearGradient
       inkscape:collect="always"
       xlink:href="#linearGradient3960"
       id="linearGradient2264"
       x1="269.71805"
       y1="98.93708"
       x2="309.56558"
       y2="149.96216"
       gradientUnits="userSpaceOnUse"
       gradientTransform="translate(-165,178.996)" />
    <linearGradient
       inkscape:collect="always"
       xlink:href="#linearGradient3057"
       id="linearGradient4217"
       gradientUnits="userSpaceOnUse"
       gradientTransform="translate(-165,178.996)"
       x1="299.33032"
       y1="137.17392"
       x2="326.46994"
       y2="178.76216" />
  </defs>
  <sodipodi:namedview
     id="base"
     pagecolor="#ffffff"
     bordercolor="#666666"
     borderopacity="1.0"
     inkscape:pageopacity="0.0"
     inkscape:pageshadow="2"
     inkscape:zoom="1.6083333"
     inkscape:cx="140"
     inkscape:cy="-44.145082"
     inkscape:document-units="px"
     inkscape:current-layer="layer1"
     inkscape:window-width="1306"
     inkscape:window-height="902"
     inkscape:window-x="0"
     inkscape:window-y="0"
     height="360px"
     width="360px"
     showgrid="false" />
  <metadata
     id="metadata7">
    <rdf:RDF>
      <cc:Work
         rdf:about="">
        <dc:format>image/svg+xml</dc:format>
        <dc:type
           rdf:resource="http://purl.org/dc/dcmitype/StillImage" />
      </cc:Work>
    </rdf:RDF>
  </metadata>
  <g
     inkscape:label="Layer 1"
     inkscape:groupmode="layer"
     id="layer1"
     transform="translate(-237.3458,-184.45894)">
    <g
       id="g2585"
       transform="translate(131.79067,84.199397)">
      <path
         id="path2515"
         d="M 169.18447,103.34937 L 118.7131,103.34937 L 110.3234,145.09387 L 127.1028,145.09387 C 129.10035,141.39499 133.36179,139.38703 139.08808,139.38703 C 148.54314,139.38703 154.26944,144.77683 154.26944,153.86551 C 154.26944,162.63712 148.40996,168.02693 139.08808,168.02693 C 130.96473,168.02693 126.43695,164.75077 126.03744,158.72689 L 107.66,158.72689 C 107.92635,171.83148 120.44433,180.7088 138.82175,180.7088 C 159.06354,180.7088 172.91322,169.71783 172.91322,153.54846 C 172.91322,138.22454 160.92792,127.6563 143.48269,127.6563 C 137.22371,127.6563 132.56276,128.92448 127.1028,132.20063 L 130.1657,116.55965 L 169.18447,116.55965 L 169.18447,103.34937"
         style="font-size:177.55900574px;font-style:normal;font-variant:normal;font-weight:bold;font-stretch:normal;text-align:start;line-height:125%;text-anchor:start;fill:#000000;fill-opacity:0.37647101;stroke:none;stroke-width:1px;stroke-linecap:butt;stroke-linejoin:miter;stroke-opacity:1;font-family:Nimbus Sans L" />
      <path
         style="font-size:177.55900574px;font-style:normal;font-variant:normal;font-weight:bold;font-stretch:normal;text-align:start;line-height:125%;text-anchor:start;fill:#000000;fill-opacity:0.37647101;stroke:none;stroke-width:1px;stroke-linecap:butt;stroke-linejoin:miter;stroke-opacity:1;font-family:Nimbus Sans L"
         d="M 168.28703,102.45193 L 117.81566,102.45193 L 109.42596,144.19643 L 126.20536,144.19643 C 128.20291,140.49755 132.46435,138.48959 138.19064,138.48959 C 147.6457,138.48959 153.372,143.87939 153.372,152.96807 C 153.372,161.73968 147.51252,167.12949 138.19064,167.12949 C 130.06729,167.12949 125.53951,163.85333 125.14,157.82945 L 106.76256,157.82945 C 107.02891,170.93404 119.54689,179.81136 137.92431,179.81136 C 158.1661,179.81136 172.01578,168.82039 172.01578,152.65102 C 172.01578,137.3271 160.03048,126.75886 142.58525,126.75886 C 136.32627,126.75886 131.66532,128.02704 126.20536,131.30319 L 129.26826,115.66221 L 168.28703,115.66221 L 168.28703,102.45193"
         id="path1624" />
      <path
         id="path1428"
         d="M 166.94087,101.10578 L 116.4695,101.10578 L 108.0798,142.85028 L 124.8592,142.85028 C 126.85675,139.1514 131.11819,137.14344 136.84448,137.14344 C 146.29954,137.14344 152.02584,142.53324 152.02584,151.62192 C 152.02584,160.39353 146.16636,165.78334 136.84448,165.78334 C 128.72113,165.78334 124.19335,162.50718 123.79384,156.4833 L 105.4164,156.4833 C 105.68275,169.58789 118.20073,178.46521 136.57815,178.46521 C 156.81994,178.46521 170.66962,167.47424 170.66962,151.30487 C 170.66962,135.98095 158.68432,125.41271 141.23909,125.41271 C 134.98011,125.41271 130.31916,126.68089 124.8592,129.95704 L 127.9221,114.31606 L 166.94087,114.31606 L 166.94087,101.10578"
         style="font-size:177.55900574px;font-style:normal;font-variant:normal;font-weight:bold;font-stretch:normal;text-align:start;line-height:125%;text-anchor:start;fill:#00ff00;fill-opacity:1;stroke:none;stroke-width:1px;stroke-linecap:butt;stroke-linejoin:miter;stroke-opacity:1;font-family:Nimbus Sans L" />
      <path
         id="path1510"
         d="M 109.71755,141.47301 C 114.58549,141.22334 119.7547,142.17152 124.43731,141.05543 C 130.82887,133.21701 145.16136,134.15676 150.82849,142.37081 C 156.61972,150.7824 152.46659,165.13963 141.57905,166.56969 C 134.63653,168.33713 124.60721,166.57433 122.80874,158.57299 C 121.6008,156.33498 118.36265,158.73937 116.50325,157.82134 C 113.72751,158.48833 108.08798,156.55298 106.89887,158.65651 C 108.60792,170.29074 121.09302,176.36247 131.80432,176.8878 C 145.08263,178.38422 161.08259,174.10505 167.26034,161.32903 C 173.04056,149.02221 166.51955,132.41062 153.08343,128.71588 C 143.15425,125.12579 131.42645,126.32614 122.93401,132.72467 C 124.28175,126.15009 125.53354,119.55622 126.83841,112.97304 C 139.74169,112.97304 152.64497,112.97304 165.54825,112.97304 C 165.23338,109.48318 166.35539,105.79621 165.21419,102.44998 C 149.3252,102.44998 133.4362,102.44998 117.54721,102.44998 C 114.93732,115.45765 112.32743,128.46533 109.71755,141.47301 z"
         style="font-size:177.55900574px;font-style:normal;font-variant:normal;font-weight:bold;font-stretch:normal;text-align:start;line-height:125%;text-anchor:start;fill:url(#linearGradient1570);fill-opacity:1;stroke:none;stroke-width:1px;stroke-linecap:butt;stroke-linejoin:miter;stroke-opacity:1;font-family:Nimbus Sans L" />
      <path
         style="font-size:177.55900574px;font-style:normal;font-variant:normal;font-weight:bold;font-stretch:normal;text-align:start;line-height:125%;text-anchor:start;fill:url(#linearGradient1598);fill-opacity:1;stroke:none;stroke-width:1px;stroke-linecap:butt;stroke-linejoin:miter;stroke-opacity:1;font-family:Nimbus Sans L"
         d="M 109.71755,141.47301 C 114.58549,141.22334 119.7547,142.17152 124.43731,141.05543 C 130.82887,133.21701 145.16136,134.15676 150.82849,142.37081 C 156.61972,150.7824 152.46659,165.13963 141.57905,166.56969 C 134.63653,168.33713 124.60721,166.57433 122.80874,158.57299 C 121.6008,156.33498 118.36265,158.73937 116.50325,157.82134 C 113.72751,158.48833 108.08798,156.55298 106.89887,158.65651 C 108.60792,170.29074 121.09302,176.36247 131.80432,176.8878 C 145.08263,178.38422 161.08259,174.10505 167.26034,161.32903 C 173.04056,149.02221 166.51955,132.41062 153.08343,128.71588 C 143.15425,125.12579 131.42645,126.32614 122.93401,132.72467 C 124.28175,126.15009 125.53354,119.55622 126.83841,112.97304 C 139.74169,112.97304 152.64497,112.97304 165.54825,112.97304 C 165.23338,109.48318 166.35539,105.79621 165.21419,102.44998 C 149.3252,102.44998 133.4362,102.44998 117.54721,102.44998 C 114.93732,115.45765 112.32743,128.46533 109.71755,141.47301 z"
         id="path1596" />
    </g>
  </g>
</svg>
