<?xml version="1.0" encoding="UTF-8" standalone="no"?>
<!-- Created with Inkscape (http://www.inkscape.org/) -->
<svg xmlns:dc="http://purl.org/dc/elements/1.1/" xmlns:cc="http://creativecommons.org/ns#" xmlns:rdf="http://www.w3.org/1999/02/22-rdf-syntax-ns#" xmlns:svg="http://www.w3.org/2000/svg" xmlns="http://www.w3.org/2000/svg" xmlns:xlink="http://www.w3.org/1999/xlink" xmlns:sodipodi="http://sodipodi.sourceforge.net/DTD/sodipodi-0.dtd" xmlns:inkscape="http://www.inkscape.org/namespaces/inkscape" id="svg2" height="603.302" width="959.44196" y="0.00000000" x="0.00000000" version="1.0" sodipodi:version="0.32" inkscape:version="0.46" sodipodi:docname="Jarno_Business_jet.svg" inkscape:output_extension="org.inkscape.output.svg.inkscape">
  <metadata id="metadata51">
    <rdf:RDF>
      <cc:Work rdf:about="">
        <dc:format>image/svg+xml</dc:format>
        <dc:type rdf:resource="http://purl.org/dc/dcmitype/StillImage"/>
      </cc:Work>
    </rdf:RDF>
  </metadata>
  <sodipodi:namedview inkscape:window-height="480" inkscape:window-width="640" inkscape:pageshadow="2" inkscape:pageopacity="0.0" guidetolerance="10.0" gridtolerance="10.0" objecttolerance="10.0" borderopacity="1.0" bordercolor="#666666" pagecolor="#ffffff" id="base" showgrid="false"/>
  <defs id="defs3">
    <inkscape:perspective sodipodi:type="inkscape:persp3d" inkscape:vp_x="0 : 372.04724 : 1" inkscape:vp_y="0 : 1000 : 0" inkscape:vp_z="1052.3622 : 372.04724 : 1" inkscape:persp3d-origin="526.18109 : 248.03149 : 1" id="perspective53"/>
    <linearGradient id="linearGradient2215">
      <stop id="stop2217" offset="0.00000000" style="stop-color: rgb(0, 0, 45); stop-opacity: 0.632653;"/>
      <stop id="stop2226" offset="1.0000000" style="stop-color: rgb(0, 0, 45); stop-opacity: 0.183673;"/>
      <stop id="stop2219" offset="1.0000000" style="stop-color: rgb(0, 0, 45); stop-opacity: 0;"/>
    </linearGradient>
    <linearGradient id="linearGradient2185">
      <stop id="stop2187" offset="0.00000000" style="stop-color: rgb(172, 211, 253); stop-opacity: 0.27551;"/>
      <stop id="stop2193" offset="1.0000000" style="stop-color: rgb(219, 242, 255); stop-opacity: 0.846939;"/>
      <stop id="stop2189" offset="1.0000000" style="stop-color: rgb(0, 0, 0); stop-opacity: 0;"/>
    </linearGradient>
    <linearGradient id="linearGradient2159">
      <stop id="stop2161" offset="0.00000000" style="stop-color: rgb(44, 0, 0); stop-opacity: 1;"/>
      <stop id="stop2167" offset="1.0000000" style="stop-color: rgb(137, 119, 127); stop-opacity: 1;"/>
      <stop id="stop2163" offset="1.0000000" style="stop-color: rgb(231, 238, 255); stop-opacity: 0;"/>
    </linearGradient>
    <linearGradient gradientTransform="scale(0.938094, 1.06599)" gradientUnits="userSpaceOnUse" xlink:href="#linearGradient2159" id="linearGradient2165" y2="250.00461" x2="555.12183" y1="225.81165" x1="582.92505"/>
    <linearGradient gradientTransform="scale(0.972602, 1.02817)" gradientUnits="userSpaceOnUse" xlink:href="#linearGradient2159" id="linearGradient2175" y2="341.26501" x2="380.66125" y1="326.70706" x1="401.73929"/>
    <linearGradient spreadMethod="reflect" gradientTransform="matrix(0.699593, 0, 0, 1.4294, -4, 0)" gradientUnits="userSpaceOnUse" xlink:href="#linearGradient2215" id="linearGradient2224" y2="256.84357" x2="822.30072" y1="232.17516" x1="823.25671"/>
    <linearGradient gradientTransform="scale(1.12056, 0.892408)" gradientUnits="userSpaceOnUse" xlink:href="#linearGradient2215" id="linearGradient2249" y2="457.04785" x2="626.54456" y1="344.90945" x1="642.22052"/>
    <linearGradient gradientTransform="scale(1.12056, 0.892408)" gradientUnits="userSpaceOnUse" xlink:href="#linearGradient2215" id="linearGradient2281" y2="457.04785" x2="626.54456" y1="344.90945" x1="642.22052"/>
    <linearGradient spreadMethod="reflect" gradientTransform="matrix(0.699593, 0, 0, 1.4294, -4, 0)" gradientUnits="userSpaceOnUse" xlink:href="#linearGradient2215" id="linearGradient2283" y2="256.84357" x2="822.30072" y1="232.17516" x1="823.25671"/>
    <linearGradient gradientTransform="scale(0.972602, 1.02817)" gradientUnits="userSpaceOnUse" xlink:href="#linearGradient2159" id="linearGradient2285" y2="341.26501" x2="380.66125" y1="326.70706" x1="401.73929"/>
    <linearGradient gradientTransform="scale(0.938094, 1.06599)" gradientUnits="userSpaceOnUse" xlink:href="#linearGradient2159" id="linearGradient2287" y2="250.00461" x2="555.12183" y1="225.81165" x1="582.92505"/>
  </defs>
  <g id="layer1" transform="translate(-46.454, -65.5452)">
    <g id="g2255" transform="matrix(1.15089, 0, 0, 1.15089, -79.3961, -32.3895)">
      <path id="path1372" style="fill: rgb(231, 238, 255); fill-opacity: 1; fill-rule: evenodd; stroke: rgb(0, 0, 0); stroke-width: 1.9; stroke-linecap: butt; stroke-linejoin: miter; stroke-miterlimit: 4; stroke-opacity: 1;" d="M 487.74576,235.99279 L 523.49153,233.09448 C 523.49153,233.09448 531.22034,232.12838 537.01695,235.99279 C 542.81356,239.85719 547.64407,242.7555 548.61017,247.58601 C 549.57627,252.41652 552.47458,261.11143 550.54237,265.94194 C 548.61017,270.77245 548.61017,276.56906 543.77966,278.50126 C 538.94915,280.43347 535.08475,282.36567 530.25424,283.33177 C 525.42373,284.29787 441.37288,279.46736 441.37288,279.46736 C 441.37288,279.46736 445.23729,274.63686 448.13559,272.70465 C 451.0339,270.77245 451.0339,269.80635 451.0339,269.80635 C 451.0339,269.80635 450.0678,273.67075 449.10169,265.94194 C 448.13559,258.21313 449.10169,256.28092 453.9322,250.48431 C 458.76271,244.6877 459.72881,240.8233 469.38983,238.89109 C 479.05085,236.95889 487.74576,235.99279 487.74576,235.99279 z"/>
      <path id="path1362" style="fill: rgb(231, 238, 255); fill-opacity: 1; fill-rule: evenodd; stroke: rgb(0, 0, 0); stroke-width: 2; stroke-linecap: butt; stroke-linejoin: miter; stroke-miterlimit: 4; stroke-opacity: 1;" d="M 268,174.09448 L 382,106.09448 L 412,90.094482 L 434,86.094482 L 288,186.09448 L 268,174.09448 z"/>
      <path id="path2209" style="fill: rgb(0, 0, 0); fill-opacity: 0.0918919; fill-rule: evenodd; stroke: none; stroke-width: 1; stroke-linecap: butt; stroke-linejoin: miter; stroke-miterlimit: 4; stroke-opacity: 1;" d="M 274.69019,173.08496 L 376.34719,112.52334 L 276.8531,186.06245 L 274.69019,173.08496 z"/>
      <path id="path1360" style="fill: rgb(231, 238, 255); fill-opacity: 1; fill-rule: evenodd; stroke: rgb(0, 0, 0); stroke-width: 2; stroke-linecap: butt; stroke-linejoin: miter; stroke-miterlimit: 4; stroke-opacity: 1;" d="M 636,290.09448 L 908,102.09448 C 908,102.09448 922,94.094482 932,96.094482 C 942,98.094482 942,98.094482 942,98.094482 L 704,296.09448 L 636,290.09448 z"/>
      <path id="path2205" style="fill: rgb(0, 0, 0); fill-opacity: 0.0918919; fill-rule: evenodd; stroke: none; stroke-width: 1; stroke-linecap: butt; stroke-linejoin: miter; stroke-miterlimit: 4; stroke-opacity: 1;" d="M 692.13275,294.20819 L 919.23881,110.36043 L 668.34069,300.69694 L 692.13275,294.20819 z"/>
      <path id="path1358" style="fill: rgb(231, 238, 255); fill-opacity: 1; fill-rule: evenodd; stroke: rgb(0, 0, 0); stroke-width: 2; stroke-linecap: butt; stroke-linejoin: miter; stroke-miterlimit: 4; stroke-opacity: 1;" d="M 386,276.09448 C 386,276.09448 426,274.09448 470,276.09448 C 514,278.09448 692,290.09448 706,292.09448 C 716.72202,292.04574 732.31228,297.27499 747.95126,302.86524 C 761.95126,308.86524 786,326.09448 788,326.09448 C 790,326.09448 818.31228,334.45549 825.59025,338.45549 C 840.65342,345.73347 877.18051,370.91397 889.22924,396.09448 C 896.77076,409.39232 898,418.09448 894,428.09448 C 890,438.09448 874,450.09448 864,452.09448 C 854,454.09448 806,454.09448 784,452.09448 C 762,450.09448 598,418.09448 598,418.09448 L 530,430.09448 L 143.66102,608.29787 C 132.32203,607.6199 124.27119,604.50126 116.62712,602.09448 C 110.62712,592.09448 118,592.09448 118,592.09448 L 448,414.09448 C 448,414.09448 426.89831,401.12838 420.89831,391.12838 C 414.89831,381.12838 406,374.09448 406,374.09448 L 394,366.09448 L 348.73037,340.91727 L 320,294.09448 L 321.03544,284.98815 L 238,174.09448 C 238,174.09448 260,168.09448 268,170.09448 C 276,172.09448 386,276.09448 386,276.09448 z"/>
      <path id="path2253" style="fill: rgb(0, 0, 0); fill-opacity: 0.0432432; fill-rule: nonzero; stroke: none; stroke-width: 5.8; stroke-linecap: round; stroke-linejoin: miter; stroke-miterlimit: 4; stroke-dashoffset: 0pt; stroke-opacity: 0.167568;" transform="matrix(1.22768, 0.0970742, -0.119742, 0.995277, -41.5306, -36.8244)" d="M 430.42005,338.54794 C 430.42465,347.50855 414.92938,354.7737 395.81341,354.7737 C 376.69745,354.7737 361.20218,347.50855 361.20678,338.54794 C 361.20218,329.58733 376.69745,322.32218 395.81341,322.32218 C 414.92938,322.32218 430.42465,329.58733 430.42005,338.54794 z"/>
      <path id="path2251" style="fill: none; fill-opacity: 0.75; fill-rule: evenodd; stroke: rgb(0, 0, 88); stroke-width: 5.8; stroke-linecap: round; stroke-linejoin: miter; stroke-miterlimit: 4; stroke-opacity: 0.167568;" d="M 402.30216,356.93272 L 683.4811,419.65725 C 683.4811,419.65725 696.45858,421.82017 720.25065,426.146"/>
      <path id="path1374" style="fill: rgb(0, 0, 0); fill-opacity: 0.118919; fill-rule: evenodd; stroke: none; stroke-width: 1; stroke-linecap: butt; stroke-linejoin: miter; stroke-miterlimit: 4; stroke-opacity: 1;" d="M 393,352.26397 L 408.45763,345.95368 C 408.45763,345.95368 421.98305,341.74682 414.25424,333.33309 C 406.52542,324.91935 389.13559,335.43652 389.13559,335.43652 L 393,352.26397 z"/>
      <path id="path1364" style="fill: rgb(231, 238, 255); fill-opacity: 1; fill-rule: evenodd; stroke: rgb(0, 0, 0); stroke-width: 1.3; stroke-linecap: butt; stroke-linejoin: miter; stroke-miterlimit: 4; stroke-opacity: 1;" d="M 244,186.09448 L 110,260.09448 C 110,260.09448 116,262.09448 124,262.09448 C 132,260.09448 280,192.09448 276,190.09448 C 272,188.09448 266,186.09448 266,186.09448 L 244,186.09448 z"/>
      <path id="path1370" style="fill: rgb(231, 238, 255); fill-opacity: 1; fill-rule: evenodd; stroke: rgb(0, 0, 0); stroke-width: 1.8; stroke-linecap: butt; stroke-linejoin: miter; stroke-miterlimit: 4; stroke-opacity: 1;" d="M 333.30508,316.11143 L 373.88136,315.14533 C 373.88136,315.14533 379.67797,315.14533 385.47458,318.04363 C 391.27119,320.94194 399.9661,330.60296 400.9322,334.46736 C 401.89831,338.33177 404.79661,352.8233 399,359.58601 C 393.20339,366.34872 387.40678,372.14533 381.61017,374.07753 C 375.81356,376.00974 358.42373,376.00974 358.42373,376.00974 C 358.42373,376.00974 342,371.17923 333.30508,366.34872 C 324.61017,361.51821 315.91525,350.89109 314.94915,345.09448 C 313.98305,339.29787 313.98305,331.56906 317.84746,327.70465 C 321.71186,323.84025 333.30508,316.11143 333.30508,316.11143 z"/>
      <path id="path1376" style="fill: url(&quot;#linearGradient2281&quot;) rgb(0, 0, 0); fill-opacity: 1; fill-rule: evenodd; stroke: rgb(0, 0, 0); stroke-width: 1.8; stroke-linecap: butt; stroke-linejoin: miter; stroke-miterlimit: 4; stroke-opacity: 1;" d="M 717.8125,294.84375 C 717.8125,294.84375 719.74472,295.8284 717.8125,301.625 C 713.42182,307.42161 708.15626,309.34375 708.15625,309.34375 L 749.09375,343.9375 L 781.375,324.0625 C 781.375,324.0625 757.41628,309.33316 749.6875,305.46875 C 741.95868,301.60435 717.81252,294.84376 717.8125,294.84375 z M 700.4375,313.21875 C 700.4375,313.21875 690.74947,319.97935 679.15625,323.84375 C 667.56303,327.70815 663.71876,325.78124 663.71875,325.78125 C 663.71875,325.78125 657.91153,339.30031 659.84375,357.65625 C 661.77595,376.01219 664.67742,387.60171 672.40625,390.5 C 680.13506,393.39831 680.12497,389.53125 680.125,389.53125 L 742.9375,348.96875 L 700.4375,313.21875 z"/>
      <path id="path1380" style="fill: url(&quot;#linearGradient2283&quot;) rgb(0, 0, 0); fill-opacity: 1; fill-rule: evenodd; stroke: rgb(0, 0, 0); stroke-width: 1.8; stroke-linecap: butt; stroke-linejoin: miter; stroke-miterlimit: 4; stroke-opacity: 1;" d="M 469.25,325.71875 C 469.25,325.71875 467.7046,328.08613 466.5625,332.3125 C 465.42039,336.53887 465.43751,340.75001 465.4375,340.75 C 465.4375,340.75 465.4261,343.58783 466.1875,346.875 C 466.94891,350.16218 468.46875,354.37501 468.46875,354.375 C 468.46875,354.375 474.18177,355.78293 474.5625,354.84375 C 474.94318,353.90457 474.56249,347.79226 474.5625,341.6875 C 474.5625,335.58275 474.56249,326.18749 474.5625,326.1875 L 469.25,325.71875 z M 487.59375,327.3125 C 487.59375,327.3125 485.98179,329.72276 484.78125,334.09375 C 483.58069,338.46473 483.56249,342.84374 483.5625,342.84375 C 483.5625,342.84375 483.57464,345.7566 484.375,349.15625 C 485.17537,352.55591 486.78124,356.93751 486.78125,356.9375 C 486.78125,356.9375 492.78731,358.37759 493.1875,357.40625 C 493.58767,356.43493 493.18751,350.12616 493.1875,343.8125 C 493.1875,337.49887 493.18751,327.78126 493.1875,327.78125 L 487.59375,327.3125 z M 507.46875,330.9375 C 507.46875,330.9375 505.79036,333.34776 504.53125,337.71875 C 503.27213,342.08973 503.28126,346.46874 503.28125,346.46875 C 503.28125,346.46875 503.28559,349.3816 504.125,352.78125 C 504.96441,356.18091 506.62501,360.56251 506.625,360.5625 C 506.625,360.5625 512.92404,362.00259 513.34375,361.03125 C 513.76344,360.05993 513.34376,353.75115 513.34375,347.4375 C 513.34375,341.12387 513.34376,331.40626 513.34375,331.40625 L 507.46875,330.9375 z M 640.875,333.875 C 639.42585,333.75424 637.4947,333.98834 635.5625,335.4375 C 631.6981,338.3358 631.68485,346.05243 630.71875,353.78125 C 629.75265,361.51006 629.84639,371.04714 630.8125,376.84375 C 630.22544,379.53403 634.59377,381.81251 634.59375,381.8125 C 634.59375,381.8125 650.23322,386.10214 654.375,384.03125 C 653.85728,380.4072 651.02861,371.70022 650.0625,364.9375 C 649.0964,358.17478 648.12499,346.0625 648.125,346.0625 C 648.125,346.0625 650.55453,340.2055 647.65625,335.375 C 646.82883,335.20398 643.28124,334.46876 643.28125,334.46875 C 643.28125,334.46875 642.32415,333.99576 640.875,333.875 z M 526.84375,334.03125 C 526.84375,334.03125 525.06776,336.44152 523.75,340.8125 C 522.43222,345.18348 522.43751,349.56249 522.4375,349.5625 C 522.4375,349.5625 522.43397,352.47535 523.3125,355.875 C 524.19102,359.27466 525.96874,363.65626 525.96875,363.65625 C 525.96875,363.65625 532.56075,365.09632 533,364.125 C 533.43925,363.15368 533.00002,356.84491 533,350.53125 C 533,344.21762 533.00002,334.49999 533,334.5 L 526.84375,334.03125 z M 547.25,336.625 C 547.25,336.625 545.40778,339.08807 544.03125,343.53125 C 542.65475,347.97442 542.65623,352.4375 542.65625,352.4375 C 542.65625,352.4375 542.64482,355.38796 543.5625,358.84375 C 544.48017,362.29955 546.31251,366.74999 546.3125,366.75 C 546.3125,366.75 553.19742,368.20613 553.65625,367.21875 C 554.11508,366.23139 553.65626,359.82418 553.65625,353.40625 C 553.65625,346.98835 553.65626,337.12499 553.65625,337.125 L 547.25,336.625 z M 569.125,339.25 C 569.125,339.25 567.05319,341.84052 565.5,346.5 C 563.94684,351.15949 563.93753,355.81249 563.9375,355.8125 C 563.9375,355.8125 563.93332,358.90722 564.96875,362.53125 C 566.00419,366.1553 568.09375,370.81251 568.09375,370.8125 C 568.09375,370.8125 575.85725,372.37919 576.375,371.34375 C 576.89272,370.30831 576.37497,363.57413 576.375,356.84375 C 576.375,350.11338 576.37497,339.74999 576.375,339.75 L 569.125,339.25 z M 593.96875,342.34375 C 593.96875,342.34375 591.8969,344.93425 590.34375,349.59375 C 588.79059,354.25324 588.78124,358.90625 588.78125,358.90625 C 588.78125,358.90625 588.77709,362.00095 589.8125,365.625 C 590.84794,369.24905 592.93753,373.93749 592.9375,373.9375 C 592.9375,373.9375 600.70103,375.47295 601.21875,374.4375 C 601.73647,373.40206 601.21875,366.66789 601.21875,359.9375 C 601.21875,353.20713 601.21875,342.87499 601.21875,342.875 L 593.96875,342.34375 z"/>
      <path id="path1396" style="fill: url(&quot;#linearGradient2285&quot;) rgb(0, 0, 0); fill-opacity: 1; fill-rule: nonzero; stroke: rgb(0, 0, 0); stroke-width: 1; stroke-linejoin: miter; stroke-miterlimit: 4; stroke-dashoffset: 0pt; stroke-opacity: 1;" d="M 399.16296,345.1904 C 399.16756,355.34434 391.4012,363.57833 381.81931,363.57833 C 372.23741,363.57833 364.47105,355.34434 364.47565,345.1904 C 364.47105,335.03646 372.23741,326.80247 381.81931,326.80247 C 391.4012,326.80247 399.16756,335.03646 399.16296,345.1904 z"/>
      <path id="path2157" style="fill: url(&quot;#linearGradient2287&quot;) rgb(0, 0, 0); fill-opacity: 1; fill-rule: nonzero; stroke: rgb(0, 0, 0); stroke-width: 1.03323; stroke-linejoin: miter; stroke-miterlimit: 4; stroke-dashoffset: 0pt; stroke-opacity: 1;" transform="matrix(0.936713, 0, 0, 1, 29.7837, 1.48228)" d="M 550.85521,255.8835 C 550.85521,266.17696 543.55377,274.52146 534.54699,274.52146 C 525.54022,274.52146 518.23878,266.17696 518.23878,255.8835 C 518.23878,245.59004 525.54022,237.24554 534.54699,237.24554 C 543.55377,237.24554 550.85521,245.59004 550.85521,255.8835 L 550.85521,255.8835 z"/>
      <path id="path2177" style="fill: rgb(0, 0, 0); fill-opacity: 0.162162; fill-rule: evenodd; stroke: none; stroke-width: 1; stroke-linecap: butt; stroke-linejoin: miter; stroke-miterlimit: 4; stroke-opacity: 1;" d="M 874,428.09448 C 874,428.09448 870,434.09448 836,434.09448 C 802,434.09448 774,428.09448 746,422.09448 C 718,416.09448 680,396.09448 680,396.09448 C 680,396.09448 652,392.09448 644,396.09448 C 636,400.09448 644,406.09448 664,408.09448 C 684,410.09448 748,430.09448 776,434.09448 C 804,438.09448 830,440.09448 846,438.09448 C 862,436.09448 874,428.09448 874,428.09448 z"/>
      <path id="path2179" style="fill: rgb(0, 0, 0); fill-opacity: 0.189189; fill-rule: evenodd; stroke: none; stroke-width: 1; stroke-linecap: butt; stroke-linejoin: miter; stroke-miterlimit: 4; stroke-opacity: 1;" d="M 324,284.09448 L 374,278.09448 C 374,278.09448 374,276.09448 372.33333,292.09448 C 370.66667,308.09448 365.66667,288.09448 357.33333,286.09448 C 349,284.09448 324,284.09448 324,284.09448 z"/>
      <path id="path2181" style="fill: rgb(0, 0, 0); fill-opacity: 0.0864865; fill-rule: evenodd; stroke: none; stroke-width: 1; stroke-linecap: butt; stroke-linejoin: miter; stroke-miterlimit: 4; stroke-opacity: 1;" d="M 328.48649,282.09448 L 382,280.09448 L 292,200.09448 C 292,200.09448 347.94595,252.09448 350.37838,264.09448 C 352.81081,276.09448 328.48649,282.09448 328.48649,282.09448 z"/>
      <path id="path2183" style="fill: rgb(89, 91, 94); fill-opacity: 0.0432432; fill-rule: evenodd; stroke: none; stroke-width: 1; stroke-linecap: butt; stroke-linejoin: miter; stroke-miterlimit: 4; stroke-opacity: 1;" d="M 382,282.09448 C 382,282.09448 440,280.09448 532,286.09448 C 624,292.09448 669.82353,293.32977 669.82353,293.32977 C 698.11765,294.85919 719.82352,294.85918 692.11765,307.91801 C 672.05882,321.74154 664.58824,318.68272 656.58824,324.68272 C 648.58824,330.68272 638,334.09448 628,334.09448 C 618,334.09448 581.02251,331.23488 555.02251,327.23488 C 529.02251,323.23488 430,311.07197 414,311.07197 C 398,311.07197 379.02251,303.93157 371.02251,295.93157 C 363.02251,287.93157 382,282.09448 382,282.09448 z"/>
      <path id="path2201" style="fill: rgb(0, 0, 0); fill-opacity: 0.0918919; fill-rule: evenodd; stroke: none; stroke-width: 1; stroke-linecap: butt; stroke-linejoin: miter; stroke-miterlimit: 4; stroke-opacity: 1;" d="M 421.7684,372.07313 L 579.66118,408.84268 C 579.66118,408.84268 478.00418,389.37645 462.86378,395.86519 C 447.72338,402.35393 445.56046,404.51685 434.74589,393.70228 C 423.93131,382.8877 421.7684,372.07313 421.7684,372.07313 z"/>
      <path id="path2203" style="fill: rgb(0, 0, 0); fill-opacity: 0.0918919; fill-rule: evenodd; stroke: none; stroke-width: 1; stroke-linecap: butt; stroke-linejoin: miter; stroke-miterlimit: 4; stroke-opacity: 1;" d="M 140.58947,601.3421 L 547.21746,413.16851 L 499.63333,421.82017 L 140.58947,601.3421 z"/>
      <path id="path2207" style="fill: rgb(0, 0, 0); fill-opacity: 0.0648648; fill-rule: evenodd; stroke: none; stroke-width: 1; stroke-linecap: butt; stroke-linejoin: miter; stroke-miterlimit: 4; stroke-opacity: 1;" d="M 238.46483,186.06245 L 281.17893,186.06245 C 281.17893,186.06245 259.82188,186.06245 190.41147,218.10062 C 121.00106,250.13881 238.46483,186.06245 238.46483,186.06245 z"/>
      <path id="path2211" style="fill: rgb(0, 0, 0); fill-opacity: 0.145946; fill-rule: evenodd; stroke: none; stroke-width: 1; stroke-linecap: butt; stroke-linejoin: miter; stroke-miterlimit: 4; stroke-opacity: 1;" d="M 448.04921,272.41613 C 448.04921,272.41613 493.47042,274.57904 497.79625,265.92738 C 502.12208,257.27572 497.79625,255.11281 504.28499,246.46115 C 510.77374,237.80949 517.26248,233.48366 517.26248,233.48366 C 517.26248,233.48366 508.61082,244.29824 508.61082,252.94989 C 508.61082,261.60155 510.77374,274.57904 510.77374,274.57904 L 448.04921,272.41613 z"/>
      <path id="path2213" style="fill: rgb(0, 0, 0); fill-opacity: 0.145946; fill-rule: evenodd; stroke: none; stroke-width: 1; stroke-linecap: butt; stroke-linejoin: miter; stroke-miterlimit: 4; stroke-opacity: 1;" d="M 365.53261,320.16317 C 365.53261,320.16317 356.88095,322.32609 356.88095,337.46649 C 356.88095,352.60689 354.71804,356.93272 359.04387,361.25855 C 363.3697,365.58438 376.34719,367.7473 376.34719,367.7473 C 376.34719,367.7473 372.02136,374.23604 356.88095,369.91021 C 341.74055,365.58438 326.60014,359.09564 326.60014,359.09564 C 326.60014,359.09564 350.39221,369.91021 350.39221,363.42147 C 350.39221,356.93272 348.22929,348.28106 350.39221,337.46649 C 352.55512,326.65191 365.53261,320.16317 365.53261,320.16317 z"/>
    </g>
  </g>
</svg>