<?xml version="1.0" encoding="UTF-8" standalone="no"?>
<!-- Created with Inkscape (http://www.inkscape.org/) -->
<svg xmlns:dc="http://purl.org/dc/elements/1.1/" xmlns:cc="http://creativecommons.org/ns#" xmlns:rdf="http://www.w3.org/1999/02/22-rdf-syntax-ns#" xmlns:svg="http://www.w3.org/2000/svg" xmlns="http://www.w3.org/2000/svg" xmlns:xlink="http://www.w3.org/1999/xlink" xmlns:sodipodi="http://sodipodi.sourceforge.net/DTD/sodipodi-0.dtd" xmlns:inkscape="http://www.inkscape.org/namespaces/inkscape" id="svg2153" height="415.02414" width="986.69714" y="0.00000000" x="0.00000000" version="1.0" sodipodi:version="0.32" inkscape:version="0.46" sodipodi:docname="Jarno_Aircraft_1.svg" inkscape:output_extension="org.inkscape.output.svg.inkscape">
  <metadata id="metadata43">
    <rdf:RDF>
      <cc:Work rdf:about="">
        <dc:format>image/svg+xml</dc:format>
        <dc:type rdf:resource="http://purl.org/dc/dcmitype/StillImage"/>
      </cc:Work>
    </rdf:RDF>
  </metadata>
  <sodipodi:namedview inkscape:window-height="480" inkscape:window-width="640" inkscape:pageshadow="2" inkscape:pageopacity="0.0" guidetolerance="10.0" gridtolerance="10.0" objecttolerance="10.0" borderopacity="1.0" bordercolor="#666666" pagecolor="#ffffff" id="base" showgrid="false"/>
  <defs id="defs3">
    <inkscape:perspective sodipodi:type="inkscape:persp3d" inkscape:vp_x="0 : 372.04724 : 1" inkscape:vp_y="0 : 1000 : 0" inkscape:vp_z="1052.3622 : 372.04724 : 1" inkscape:persp3d-origin="526.18109 : 248.03149 : 1" id="perspective45"/>
    <linearGradient id="linearGradient2234">
      <stop id="stop2236" offset="0.00000000" style="stop-color: rgb(199, 233, 255); stop-opacity: 1;"/>
      <stop id="stop2242" offset="1.0000000" style="stop-color: rgb(125, 156, 195); stop-opacity: 1;"/>
      <stop id="stop2238" offset="1.0000000" style="stop-color: rgb(199, 233, 255); stop-opacity: 0;"/>
    </linearGradient>
    <linearGradient gradientTransform="scale(1.5881, 0.629682)" gradientUnits="userSpaceOnUse" xlink:href="#linearGradient2234" id="linearGradient2240" y2="469.2569" x2="248.28288" y1="440.9628" x1="245.63799"/>
    <linearGradient gradientTransform="scale(1.29908, 0.769775)" gradientUnits="userSpaceOnUse" xlink:href="#linearGradient2234" id="linearGradient2250" y2="296.04565" x2="157.02548" y1="366.64093" x1="303.69617"/>
    <linearGradient gradientTransform="scale(0.78238, 1.27815)" gradientUnits="userSpaceOnUse" xlink:href="#linearGradient2234" id="linearGradient2258" y2="131.06137" x2="327.76645" y1="141.39658" x1="592.34766"/>
    <linearGradient gradientTransform="scale(2.1814, 0.458421)" gradientUnits="userSpaceOnUse" xlink:href="#linearGradient2234" id="linearGradient2266" y2="-95.821327" x2="144.29811" y1="608.97015" x1="164.09859"/>
    <linearGradient gradientTransform="scale(1.61885, 0.617723)" gradientUnits="userSpaceOnUse" xlink:href="#linearGradient2234" id="linearGradient2274" y2="350.34622" x2="94.635979" y1="371.78345" x1="129.47664"/>
    <linearGradient gradientTransform="scale(0.968308, 1.03273)" gradientUnits="userSpaceOnUse" xlink:href="#linearGradient2234" id="linearGradient2290" y2="182.43005" x2="205.29095" y1="184.19492" x1="237.0161"/>
    <linearGradient gradientTransform="scale(0.968308, 1.03273)" gradientUnits="userSpaceOnUse" xlink:href="#linearGradient2234" id="linearGradient2324" y2="182.43005" x2="205.29095" y1="184.19492" x1="237.0161"/>
    <linearGradient gradientTransform="scale(0.78238, 1.27815)" gradientUnits="userSpaceOnUse" xlink:href="#linearGradient2234" id="linearGradient2326" y2="131.06137" x2="327.76645" y1="141.39658" x1="592.34766"/>
    <linearGradient gradientTransform="scale(2.1814, 0.458421)" gradientUnits="userSpaceOnUse" xlink:href="#linearGradient2234" id="linearGradient2328" y2="-95.821327" x2="144.29811" y1="608.97015" x1="164.09859"/>
    <linearGradient gradientTransform="scale(1.61885, 0.617723)" gradientUnits="userSpaceOnUse" xlink:href="#linearGradient2234" id="linearGradient2330" y2="350.34622" x2="94.635979" y1="371.78345" x1="129.47664"/>
    <linearGradient gradientTransform="scale(1.5881, 0.629682)" gradientUnits="userSpaceOnUse" xlink:href="#linearGradient2234" id="linearGradient2332" y2="469.2569" x2="248.28288" y1="440.9628" x1="245.63799"/>
    <linearGradient gradientTransform="scale(1.29908, 0.769775)" gradientUnits="userSpaceOnUse" xlink:href="#linearGradient2234" id="linearGradient2334" y2="296.04565" x2="157.02548" y1="366.64093" x1="303.69617"/>
  </defs>
  <g id="layer1" transform="translate(-31.8938, -177.866)">
    <g id="g2302" transform="matrix(1.99514, 0, 0, 1.99514, -257.463, -103.641)">
      <path id="path2212" style="fill: url(&quot;#linearGradient2324&quot;) rgb(0, 0, 0); fill-opacity: 1; fill-rule: evenodd; stroke: rgb(0, 0, 0); stroke-width: 1px; stroke-linecap: butt; stroke-linejoin: miter; stroke-opacity: 1;" d="M 223.14744,199.80877 L 221.20703,186.22588 L 210.53476,185.25567 L 209.56455,191.07691 L 223.14744,199.80877 z"/>
      <path id="path2210" style="fill: url(&quot;#linearGradient2326&quot;) rgb(0, 0, 0); fill-opacity: 1; fill-rule: evenodd; stroke: rgb(0, 0, 0); stroke-width: 1px; stroke-linecap: butt; stroke-linejoin: miter; stroke-opacity: 1;" d="M 437.56303,200.77897 L 416.21849,144.50701 L 399.72498,141.59639 C 399.72498,141.59639 400.69519,175.55361 399.72498,190.10671 C 398.75477,204.6598 398.75477,205.63001 398.75477,205.63001 L 437.56303,200.77897 z"/>
      <path id="path2204" style="fill: url(&quot;#linearGradient2328&quot;) rgb(0, 0, 0); fill-opacity: 1; fill-rule: evenodd; stroke: rgb(0, 0, 0); stroke-width: 1px; stroke-linecap: butt; stroke-linejoin: miter; stroke-opacity: 1;" d="M 169.7861,217.27248 C 174.63713,214.36186 184.33919,214.36186 184.33919,214.36186 L 149.41176,156.14949 L 167.84568,154.20907 L 236.73033,209.51083 L 558.83881,194.95774 C 558.83881,194.95774 587.945,195.92794 599.58747,198.83856 C 611.22995,201.74918 618.02139,209.51083 622.87242,211.45124 C 627.72345,213.39166 637.42552,216.30227 638.39572,222.12351 C 639.36593,227.94475 640.33613,228.91496 633.54469,232.79578 C 626.75325,236.67661 599.58747,243.46805 591.82582,244.43826 C 584.06417,245.40846 463.75859,247.34888 458.90756,249.28929 C 454.05653,251.2297 433.6822,256.08073 427.86096,256.08073 C 422.03972,256.08073 360.91673,257.05094 354.12529,255.11053 C 347.33384,253.17011 260.98549,250.25949 251.28342,248.31908 C 241.58136,246.37867 205.68373,238.61702 199.86249,236.67661 C 194.04125,234.73619 175.60733,230.85537 171.72651,226.97454 C 167.84568,223.09372 169.7861,217.27248 169.7861,217.27248 z"/>
      <path id="path2298" style="fill: rgb(0, 0, 0); fill-opacity: 0.286487; fill-rule: evenodd; stroke: none; stroke-width: 1px; stroke-linecap: butt; stroke-linejoin: miter; stroke-opacity: 1;" d="M 205.57996,238.37403 C 205.57996,238.37403 241.19224,245.39945 256.57027,246.102 C 271.9483,246.80454 322.9386,246.80454 382.02261,247.50708 C 441.10661,248.20962 647.49594,232.05114 619.97737,239.07657 C 592.45879,246.102 595.69627,245.39945 585.17446,246.102 L 458.10338,250.31724 C 458.10338,250.31724 445.96283,253.82995 438.6785,254.5325 C 431.39417,255.23504 358.55088,255.23504 358.55088,255.23504 L 318.89175,252.42487 C 318.89175,252.42487 261.42649,251.01978 253.33279,249.6147 C 245.23909,248.20962 205.57996,238.37403 205.57996,238.37403 z"/>
      <path id="path2206" style="fill: url(&quot;#linearGradient2330&quot;) rgb(0, 0, 0); fill-opacity: 1; fill-rule: evenodd; stroke: rgb(0, 0, 0); stroke-width: 1px; stroke-linecap: butt; stroke-linejoin: miter; stroke-opacity: 1;" d="M 182.39878,227.94475 L 145.53094,251.2297 L 163.96486,249.28929 C 163.96486,249.28929 213.44538,229.88516 214.41558,228.91496 C 215.38579,227.94475 225.08785,226.00434 214.41558,224.06392 C 203.74332,222.12351 182.39878,227.94475 182.39878,227.94475 z"/>
      <path id="path2214" style="fill: url(&quot;#linearGradient2332&quot;) rgb(0, 0, 0); fill-opacity: 1; fill-rule: evenodd; stroke: rgb(0, 0, 0); stroke-width: 1px; stroke-linecap: butt; stroke-linejoin: miter; stroke-opacity: 1;" d="M 380.36558,278.04665 C 382.94098,276.90202 391.22048,274.75174 400.2385,273.43271 C 399.81337,273.8306 425.1068,268.00937 428.01742,273.37003 C 430.92804,276.7276 431.43767,277.63513 431.84919,284.88715 C 431.11607,289.84992 430.08319,297.05288 425.29483,297.91134 C 418.50339,297.91134 399.54622,297.7996 384.02292,294.88898 C 368.49962,291.97836 362.67838,291.00816 362.67838,291.00816 L 363.64859,282.2763 L 380.36558,278.04665 z"/>
      <path id="path2208" style="fill: url(&quot;#linearGradient2334&quot;) rgb(0, 0, 0); fill-opacity: 1; fill-rule: evenodd; stroke: rgb(0, 0, 0); stroke-width: 1px; stroke-linecap: butt; stroke-linejoin: miter; stroke-opacity: 1;" d="M 365.76776,252.19991 C 358.00611,263.84238 348.30405,274.51465 348.30405,274.51465 L 254.19404,345.33971 C 254.19404,345.33971 257.10466,351.16095 266.80672,347.28012 C 276.50879,343.3993 387.1123,278.39548 387.1123,278.39548 L 430.77158,249.28929 C 430.77158,249.28929 437.56303,247.34888 430.77158,244.43826 C 423.98014,241.52764 410.39725,242.49784 396.81436,244.43826 C 383.23147,246.37867 365.76776,252.19991 365.76776,252.19991 z"/>
      <path id="path2216" style="fill: none; fill-opacity: 0.75; fill-rule: evenodd; stroke: rgb(0, 0, 0); stroke-width: 4.3; stroke-linecap: butt; stroke-linejoin: miter; stroke-miterlimit: 4; stroke-dasharray: 4.3, 4.3; stroke-dashoffset: 0pt; stroke-opacity: 1;" d="M 255.16425,230.85537 L 341.51261,229.88516"/>
      <path id="path2218" style="fill: none; fill-opacity: 0.75; fill-rule: evenodd; stroke: rgb(0, 0, 0); stroke-width: 4.5; stroke-linecap: butt; stroke-linejoin: miter; stroke-miterlimit: 4; stroke-dasharray: 4.5, 4.5; stroke-dashoffset: 0pt; stroke-opacity: 1;" d="M 362.85714,228.91496 L 461.81818,227.94475"/>
      <path id="path2220" style="fill: none; fill-opacity: 0.75; fill-rule: evenodd; stroke: rgb(0, 0, 0); stroke-width: 4.9; stroke-linecap: butt; stroke-linejoin: miter; stroke-miterlimit: 4; stroke-dasharray: 4.9, 4.9; stroke-dashoffset: 0pt; stroke-opacity: 1;" d="M 486.07334,226.00434 L 562.71963,225.03413"/>
      <path id="path2222" style="fill: none; fill-opacity: 0.75; fill-rule: evenodd; stroke: rgb(0, 0, 0); stroke-width: 1px; stroke-linecap: butt; stroke-linejoin: miter; stroke-opacity: 0.47027;" d="M 234.78992,234.49235 C 234.08172,231.25487 234.67058,235.30172 233.70038,229.48048 C 233.43837,225.58149 233.77821,224.59313 234.38524,221.96268 L 241.98604,222.32585 C 241.98604,222.32585 241.58136,223.09372 241.58136,227.94475 C 241.58136,232.79578 242.51006,233.01628 243.21826,235.24205 L 234.78992,234.49235 z"/>
      <path id="path2224" style="fill: none; fill-opacity: 0.75; fill-rule: evenodd; stroke: rgb(0, 0, 0); stroke-width: 1px; stroke-linecap: butt; stroke-linejoin: miter; stroke-opacity: 0.47027;" d="M 349.07192,238.51585 C 349.07192,238.51585 347.73852,236.95677 346.76832,230.16533 C 345.79811,223.37389 347.33384,220.99247 347.63735,220.58778 L 357.07741,220.34394 C 357.07741,220.34394 356.1072,225.01597 356.87507,230.0875 C 357.44059,233.84382 358.73247,237.24213 359.33949,238.55735 L 349.07192,238.51585 z"/>
      <path id="path2226" style="fill: none; fill-opacity: 0.75; fill-rule: evenodd; stroke: rgb(0, 0, 0); stroke-width: 1px; stroke-linecap: butt; stroke-linejoin: miter; stroke-opacity: 0.47027;" d="M 468.60963,237.64681 C 468.60963,237.64681 466.50838,232.75428 466.50838,227.90325 C 466.50838,223.05221 467.37741,218.44503 467.37741,218.44503 L 477.68651,218.34386 C 477.48416,219.86143 477.18065,223.41539 477.18065,227.29622 C 477.18065,231.17704 479.28189,237.38481 479.28189,237.38481 L 468.60963,237.64681 z"/>
      <path id="path2228" style="fill: none; fill-opacity: 0.75; fill-rule: evenodd; stroke: rgb(0, 0, 0); stroke-width: 1px; stroke-linecap: butt; stroke-linejoin: miter; stroke-opacity: 0.47027;" d="M 572.32053,235.6649 C 572.32053,235.6649 570.84446,232.63494 570.01694,225.23647 C 569.8976,218.44503 569.97542,213.49283 570.48128,213.39166 L 580.28452,212.82613 C 580.89155,215.15307 580.32602,217.67716 581.29623,224.4686 C 581.45706,231.26005 583.43899,235.90874 582.12376,235.7064 L 572.32053,235.6649 z"/>
      <path id="path2230" style="fill: rgb(0, 0, 0); fill-opacity: 0.264865; fill-rule: evenodd; stroke: rgb(0, 0, 0); stroke-width: 1px; stroke-linecap: butt; stroke-linejoin: miter; stroke-opacity: 1;" d="M 593.77263,215.5653 L 594.05878,225.29459 C 594.05878,225.29459 597.49265,225.58075 604.64654,223.2915 C 611.80042,221.00226 621.52971,211.84528 621.52971,211.27297 C 621.52971,210.70066 613.80351,206.12217 613.80351,206.12217 C 613.80351,206.12217 614.37582,207.83911 610.6558,210.12835 C 606.93578,212.41759 593.77263,215.5653 593.77263,215.5653 z"/>
      <path id="path2232" style="fill: rgb(0, 0, 0); fill-opacity: 0.681081; fill-rule: evenodd; stroke: rgb(0, 0, 0); stroke-width: 1px; stroke-linecap: butt; stroke-linejoin: miter; stroke-opacity: 1;" d="M 425.80862,295.975 C 422.0886,292.54113 422.0886,289.96573 422.0886,285.95955 C 422.0886,281.95338 422.37476,275.65796 424.37785,274.51333 C 426.38094,273.36871 425.80862,272.7964 427.81171,274.79949 C 429.8148,276.80258 430.67327,280.5226 430.67327,282.81184 C 430.67327,285.10109 430.38711,289.10726 429.24249,291.68266 C 428.09787,294.25806 426.95325,295.975 425.80862,295.975 z"/>
      <path id="path2292" style="fill: rgb(0, 0, 0); fill-opacity: 0.286487; fill-rule: evenodd; stroke: none; stroke-width: 1px; stroke-linecap: butt; stroke-linejoin: miter; stroke-opacity: 1;" d="M 186.15508,213.14781 L 173.20517,190.48545 C 173.20517,190.48545 183.72697,206.67285 190.20193,209.10096 C 196.67689,211.52907 233.09854,209.91033 233.09854,209.91033 L 186.15508,213.14781 z"/>
      <path id="path2294" style="fill: rgb(0, 0, 0); fill-opacity: 0.286487; fill-rule: evenodd; stroke: none; stroke-width: 1px; stroke-linecap: butt; stroke-linejoin: miter; stroke-opacity: 1;" d="M 420.87236,247.95072 C 420.87236,247.95072 391.73505,269.8037 335.07915,302.98787 C 278.42326,336.17204 268.71082,344.26574 263.8546,344.26574 C 258.99838,344.26574 263.8546,340.21889 263.8546,340.21889 C 263.8546,340.21889 378.78513,273.85055 420.87236,247.95072 z"/>
      <path id="path2296" style="fill: rgb(0, 0, 0); fill-opacity: 0.286487; fill-rule: evenodd; stroke: none; stroke-width: 1px; stroke-linecap: butt; stroke-linejoin: miter; stroke-opacity: 1;" d="M 416.3974,151.20758 L 433.39417,200.57915 L 402.63812,202.19789 C 402.63812,202.19789 408.30371,203.00726 423.68173,198.15104 C 439.05976,193.29482 416.3974,151.20758 416.3974,151.20758 z"/>
      <path id="path2300" style="fill: rgb(0, 0, 0); fill-opacity: 0.286487; fill-rule: evenodd; stroke: none; stroke-width: 1px; stroke-linecap: butt; stroke-linejoin: miter; stroke-opacity: 1;" d="M 368.07721,290.71964 C 391.70258,296.71201 422.13619,297.39369 423.95403,296.71201 C 422.36342,293.07633 420.23395,291.92504 420.58886,285.49336 C 421.39823,274.97155 422.36342,275.66839 423.27234,272.7144 C 421.22727,274.30501 419.77949,277.74159 418.16075,282.59781 C 418.58708,288.59017 420.84423,290.40801 413.5599,292.83612 C 406.27558,295.26423 368.07721,290.71964 368.07721,290.71964 z"/>
    </g>
  </g>
</svg>