<?xml version="1.0" encoding="UTF-8" standalone="no"?>
<!-- Created with Inkscape (http://www.inkscape.org/) -->
<svg xmlns:dc="http://purl.org/dc/elements/1.1/" xmlns:cc="http://creativecommons.org/ns#" xmlns:rdf="http://www.w3.org/1999/02/22-rdf-syntax-ns#" xmlns:svg="http://www.w3.org/2000/svg" xmlns="http://www.w3.org/2000/svg" xmlns:xlink="http://www.w3.org/1999/xlink" xmlns:sodipodi="http://sodipodi.sourceforge.net/DTD/sodipodi-0.dtd" xmlns:inkscape="http://www.inkscape.org/namespaces/inkscape" id="svg2" height="406.10141" width="1014.9619" y="0.00000000" x="0.00000000" version="1.0" sodipodi:version="0.32" inkscape:version="0.46" sodipodi:docname="Jarno_Aircraft.svg" inkscape:output_extension="org.inkscape.output.svg.inkscape" sodipodi:docbase="C:\Documents and Settings\windows\Omat tiedostot\vanha\Jarno\vanhasta\opencliparts\omat\aircrafts">
  <metadata id="metadata33">
    <rdf:RDF>
      <cc:Work rdf:about="">
        <dc:format>image/svg+xml</dc:format>
        <dc:type rdf:resource="http://purl.org/dc/dcmitype/StillImage"/>
      </cc:Work>
    </rdf:RDF>
  </metadata>
  <sodipodi:namedview inkscape:window-height="573" inkscape:window-width="739" inkscape:pageshadow="2" inkscape:pageopacity="0.0" guidetolerance="10.0" gridtolerance="10.0" objecttolerance="10.0" borderopacity="1.0" bordercolor="#666666" pagecolor="#ffffff" id="base" width="1052.3622px" height="744.09448px" inkscape:zoom="0.35824168" inkscape:cx="372.04724" inkscape:cy="526.18109" inkscape:window-x="154" inkscape:window-y="154" inkscape:current-layer="svg2" showgrid="false"/>
  <defs id="defs3">
    <inkscape:perspective sodipodi:type="inkscape:persp3d" inkscape:vp_x="0 : 372.04724 : 1" inkscape:vp_y="0 : 1000 : 0" inkscape:vp_z="1052.3622 : 372.04724 : 1" inkscape:persp3d-origin="526.18109 : 248.03149 : 1" id="perspective34"/>
    <linearGradient id="linearGradient2187">
      <stop id="stop2189" offset="0.00000000" style="stop-color: rgb(0, 0, 0); stop-opacity: 1;"/>
      <stop id="stop2191" offset="1.0000000" style="stop-color: rgb(0, 0, 0); stop-opacity: 0;"/>
    </linearGradient>
    <linearGradient id="linearGradient2135">
      <stop id="stop2137" offset="0.00000000" style="stop-color: rgb(0, 0, 215); stop-opacity: 1;"/>
      <stop id="stop2143" offset="1.0000000" style="stop-color: rgb(202, 206, 255); stop-opacity: 1;"/>
      <stop id="stop2139" offset="1.0000000" style="stop-color: rgb(0, 0, 215); stop-opacity: 0;"/>
    </linearGradient>
    <linearGradient gradientTransform="matrix(1.50727, 0, 0, 1.9946, -104.177, -208.928)" gradientUnits="userSpaceOnUse" xlink:href="#linearGradient2187" id="linearGradient2364" y2="328.44955" x2="372.08038" y1="325.17239" x1="353.4772"/>
    <linearGradient gradientTransform="matrix(1.35965, 0, 0, 0.735486, 4, 0)" gradientUnits="userSpaceOnUse" xlink:href="#linearGradient2135" id="linearGradient2385" y2="518.46753" x2="332.24326" y1="562.76233" x1="341.07626"/>
    <linearGradient gradientTransform="matrix(1.50727, 0, 0, 1.9946, -104.177, -208.928)" gradientUnits="userSpaceOnUse" xlink:href="#linearGradient2187" id="linearGradient2451" y2="328.44955" x2="372.08038" y1="325.17239" x1="353.4772"/>
  </defs>
  <g id="layer1" transform="matrix(1.45673, 0, 0, 1.45673, -26.2568, -341.868)">
    <g id="g2463">
      <path id="path1366" style="fill: rgb(228, 228, 255); fill-opacity: 1; fill-rule: evenodd; stroke: rgb(0, 0, 0); stroke-width: 3.875; stroke-linecap: butt; stroke-linejoin: miter; stroke-miterlimit: 4; stroke-opacity: 1;" d="M 197.70226,342.35407 L 200.76701,327.03025 L 190.04035,327.03025 L 182.37844,337.75691 L 197.70226,342.35407 z"/>
      <path id="path1370" style="fill: rgb(113, 113, 175); fill-opacity: 1; fill-rule: evenodd; stroke: rgb(0, 0, 0); stroke-width: 1.7339px; stroke-linecap: butt; stroke-linejoin: miter; stroke-opacity: 0.275676;" d="M 373.92601,452.68546 C 373.92601,452.68546 361.66696,458.81499 364.73173,451.15308 C 367.79649,443.49117 376.99076,441.9588 366.2641,443.49117 C 355.53744,445.02355 364.73173,452.68546 355.53744,445.02355 C 346.34316,437.36166 363.19935,432.76451 363.19935,432.76451 L 384.65267,431.23214 L 373.92601,452.68546 z"/>
      <path id="path1368" style="fill: rgb(228, 228, 255); fill-opacity: 1; fill-rule: evenodd; stroke: rgb(0, 0, 0); stroke-width: 3.875; stroke-linecap: butt; stroke-linejoin: miter; stroke-miterlimit: 4; stroke-opacity: 1;" d="M 372.39362,449.62069 C 375.45839,466.47688 390.7822,464.94451 390.7822,464.94451 C 390.7822,464.94451 401.50886,466.47688 415.30027,464.94451 C 429.09171,463.41212 436.75361,466.47688 442.88312,461.87974 C 449.01264,457.2826 450.54503,458.81499 453.6098,452.68546 C 456.67455,446.55594 458.20694,441.9588 456.67455,437.36166 C 455.14217,432.76451 455.14217,426.63498 449.01264,423.57023 C 442.88312,420.50548 435.22123,420.50548 435.22123,420.50548 L 384.65267,425.10261 C 384.65267,425.10261 378.52315,423.57023 375.45839,432.76451 C 372.39362,441.9588 372.39362,449.62069 372.39362,449.62069 z"/>
      <path id="path1358" style="fill: rgb(228, 228, 255); fill-opacity: 1; fill-rule: evenodd; stroke: rgb(0, 0, 0); stroke-width: 3.875; stroke-linecap: butt; stroke-linejoin: miter; stroke-miterlimit: 4; stroke-opacity: 1;" d="M 141.00418,392.92263 C 154.79559,400.58452 222.22034,423.57023 228.34986,423.57023 C 234.47938,423.57023 268.19176,428.16737 275.85366,428.16737 C 283.51556,428.16737 361.66696,425.10261 399.97647,422.03784 C 438.28598,418.97309 484.2574,412.84357 510.30786,411.31118 C 536.35834,409.7788 628.30116,402.1169 657.4164,397.51977 C 686.53163,392.92263 707.98496,373.00167 707.98496,373.00167 C 707.98496,373.00167 714.11448,368.40453 712.58209,362.27501 C 711.04971,356.14549 684.99925,343.88644 684.99925,343.88644 C 684.99925,343.88644 680.40211,337.75691 662.01354,333.15978 C 643.62497,328.56264 639.02783,327.03025 625.23641,325.49788 C 611.44498,323.9655 530.22882,330.09502 498.04883,333.15978 C 465.86883,336.22455 298.83936,351.54835 298.83936,351.54835 C 298.83936,351.54835 268.19176,354.6131 240.60891,351.54835 C 213.02606,348.48359 211.49367,348.48359 193.1051,339.2893 C 174.71655,330.09502 96.565145,255.00837 96.565145,255.00837 L 76.644188,259.60553 L 141.00418,374.53406 L 133.34227,376.06644 C 133.34227,376.06644 134.87465,383.72833 141.00418,392.92263 z"/>
      <path id="path2209" style="fill: rgb(0, 0, 0); fill-opacity: 0.275676; fill-rule: evenodd; stroke: none; stroke-width: 1px; stroke-linecap: butt; stroke-linejoin: miter; stroke-opacity: 1;" d="M 373.92601,413.24659 C 373.92601,413.24659 462.80408,391.79327 487.32215,393.32565 C 511.84025,394.85804 493.45168,405.5847 493.45168,405.5847 C 493.45168,405.5847 478.12788,413.24659 461.27169,411.71423 C 441.35075,419.37612 373.92601,413.24659 373.92601,413.24659 z"/>
      <path id="path1360" style="fill: rgb(228, 228, 255); fill-opacity: 1; fill-rule: evenodd; stroke: rgb(0, 0, 0); stroke-width: 3.875; stroke-linecap: butt; stroke-linejoin: miter; stroke-miterlimit: 4; stroke-opacity: 1;" d="M 335.6165,420.50548 C 341.74602,415.90832 436.75361,402.1169 442.88312,402.1169 C 449.01264,402.1169 459.73931,405.18166 453.6098,409.7788 C 447.48028,414.37595 121.08322,510.91591 121.08322,510.91591 C 121.08322,510.91591 96.565145,513.98068 91.968006,506.31877 C 87.37085,498.65686 65.917533,480.26831 65.917533,480.26831 L 84.306097,478.73592 L 105.75942,495.59211 L 335.6165,420.50548 z"/>
      <path id="path1362" style="fill: rgb(228, 228, 255); fill-opacity: 1; fill-rule: evenodd; stroke: rgb(0, 0, 0); stroke-width: 3.875; stroke-linecap: butt; stroke-linejoin: miter; stroke-miterlimit: 4; stroke-opacity: 1;" d="M 494.98406,331.62741 L 517.96977,267.26742 L 494.98406,236.61982 L 479.66026,236.61982 L 491.91931,267.26742 L 436.75361,337.75691 L 494.98406,331.62741 z"/>
      <path id="path1364" style="fill: rgb(228, 228, 255); fill-opacity: 1; fill-rule: evenodd; stroke: rgb(0, 0, 0); stroke-width: 3.875; stroke-linecap: butt; stroke-linejoin: miter; stroke-miterlimit: 4; stroke-opacity: 1;" d="M 173.18416,389.85786 L 41.399445,422.03784 L 24.543259,420.50548 C 24.543259,420.50548 15.348977,417.4407 23.010879,414.37595 C 30.672781,411.31118 128.74513,386.7931 128.74513,386.7931 C 128.74513,386.7931 145.60132,380.66358 156.32798,383.72833 C 167.05464,386.7931 173.18416,389.85786 173.18416,389.85786 z"/>
      <path id="path1372" style="fill: none; fill-opacity: 0.75; fill-rule: evenodd; stroke: rgb(0, 0, 0); stroke-width: 8.875; stroke-linecap: butt; stroke-linejoin: miter; stroke-miterlimit: 4; stroke-dasharray: 8.875, 8.875; stroke-dashoffset: 0pt; stroke-opacity: 1;" d="M 219.15558,397.51977 C 219.15558,397.51977 551.68214,371.46929 591.52404,368.40453"/>
      <path id="path1374" style="fill: rgb(0, 0, 0); fill-opacity: 0.221622; fill-rule: evenodd; stroke: rgb(0, 0, 0); stroke-width: 2.625; stroke-linecap: butt; stroke-linejoin: miter; stroke-miterlimit: 4; stroke-opacity: 1;" d="M 635.96307,351.54835 L 637.49544,360.74262 L 654.35163,359.21026 C 654.35163,359.21026 657.4164,360.74262 669.67545,354.6131 C 681.93448,348.48359 683.46686,343.88644 683.46686,343.88644 L 674.27258,337.75691 C 674.27258,337.75691 675.80497,343.88644 666.61067,345.41882 C 657.4164,346.95121 635.96307,351.54835 635.96307,351.54835 z"/>
      <path id="path2185" style="fill: url(&quot;#linearGradient2451&quot;) rgb(0, 0, 0); fill-opacity: 1; fill-rule: evenodd; stroke: none; stroke-width: 1px; stroke-linecap: butt; stroke-linejoin: miter; stroke-opacity: 1;" d="M 436.75361,459.00088 C 436.75361,459.00088 431.52173,454.66667 430.62409,446.55594 C 427.55932,437.36166 429.18466,436.37105 433.68884,429.69975 C 439.81837,423.57023 439.81837,422.03784 444.41551,425.10261 C 449.01264,428.16737 452.71214,429.69975 452.07741,437.36166 C 453.6098,445.02355 454.15157,450.16247 448.02205,453.22724 C 444.60141,458.4591 436.75361,459.00088 436.75361,459.00088 z"/>
      <path id="path2199" style="fill: rgb(0, 0, 0); fill-opacity: 0.275676; fill-rule: evenodd; stroke: none; stroke-width: 1px; stroke-linecap: butt; stroke-linejoin: miter; stroke-opacity: 1;" d="M 105.75942,497.1245 L 113.42133,504.78639 L 312.63079,434.29687 C 312.63079,434.29687 130.27752,490.99497 121.08322,494.05972 C 111.88895,497.1245 105.75942,497.1245 105.75942,497.1245 z"/>
      <path id="path2201" style="fill: rgb(0, 0, 0); fill-opacity: 0.275676; fill-rule: evenodd; stroke: none; stroke-width: 1px; stroke-linecap: butt; stroke-linejoin: miter; stroke-opacity: 1;" d="M 493.45168,268.7998 L 513.37263,267.26742 C 513.37263,267.26742 510.30786,264.20266 494.98406,281.05885 C 479.66026,297.91504 461.27169,316.30359 461.27169,316.30359 L 493.45168,268.7998 z"/>
      <path id="path2203" style="fill: rgb(0, 0, 0); fill-opacity: 0.275676; fill-rule: evenodd; stroke: none; stroke-width: 1px; stroke-linecap: butt; stroke-linejoin: miter; stroke-opacity: 1;" d="M 145.60132,371.46929 L 228.34986,354.6131 C 228.34986,354.6131 193.1051,363.80739 179.31369,371.46929 C 165.52226,379.13119 145.60132,371.46929 145.60132,371.46929 z"/>
      <path id="path2205" style="fill: rgb(0, 0, 0); fill-opacity: 0.275676; fill-rule: evenodd; stroke: none; stroke-width: 1px; stroke-linecap: butt; stroke-linejoin: miter; stroke-opacity: 1;" d="M 196.16987,353.08073 C 196.16987,353.08073 197.70226,356.14549 177.7813,340.82168 C 157.86036,325.49788 101.16228,267.26742 101.16228,267.26742 L 176.24892,351.54835 C 176.24892,351.54835 179.31369,359.21026 186.9756,357.67787 C 194.63749,356.14549 196.16987,353.08073 196.16987,353.08073 z"/>
      <path id="path2207" style="fill: rgb(0, 0, 0); fill-opacity: 0.275676; fill-rule: evenodd; stroke: none; stroke-width: 1px; stroke-linecap: butt; stroke-linejoin: miter; stroke-opacity: 1;" d="M 376.99076,441.9588 C 376.99076,451.15308 376.99076,454.21783 380.05553,457.2826 C 383.12029,460.34735 422.96218,449.62069 422.96218,449.62069 C 422.96218,449.62069 407.63838,448.08832 393.84695,445.02355 C 380.05553,441.9588 376.99076,441.9588 376.99076,441.9588 z"/>
    </g>
  </g>
</svg>