<?xml version="1.0" encoding="UTF-8" standalone="no"?>
<svg
   xmlns:dc="http://purl.org/dc/elements/1.1/"
   xmlns:cc="http://creativecommons.org/ns#"
   xmlns:rdf="http://www.w3.org/1999/02/22-rdf-syntax-ns#"
   xmlns:svg="http://www.w3.org/2000/svg"
   xmlns="http://www.w3.org/2000/svg"
   xmlns:sodipodi="http://sodipodi.sourceforge.net/DTD/sodipodi-0.dtd"
   xmlns:inkscape="http://www.inkscape.org/namespaces/inkscape"
   version="1.0"
   baseProfile="full"
   id="body"
   width="500"
   height="500"
   viewBox="0 0 1 1"
   preserveAspectRatio="none"
   sodipodi:version="0.32"
   inkscape:version="0.46"
   sodipodi:docname="02.svg"
   inkscape:output_extension="org.inkscape.output.svg.inkscape">
  <metadata
     id="metadata80">
    <rdf:RDF>
      <cc:Work
         rdf:about="">
        <dc:format>image/svg+xml</dc:format>
        <dc:type
           rdf:resource="http://purl.org/dc/dcmitype/StillImage" />
      </cc:Work>
    </rdf:RDF>
  </metadata>
  <defs
     id="defs78">
    <inkscape:perspective
       sodipodi:type="inkscape:persp3d"
       inkscape:vp_x="0 : 384 : 1"
       inkscape:vp_y="0 : 1000 : 0"
       inkscape:vp_z="1024 : 384 : 1"
       inkscape:persp3d-origin="512 : 256 : 1"
       id="perspective32" />
  </defs>
  <sodipodi:namedview
     inkscape:window-height="992"
     inkscape:window-width="1920"
     inkscape:pageshadow="2"
     inkscape:pageopacity="0.0"
     guidetolerance="10.0"
     gridtolerance="10.0"
     objecttolerance="10.0"
     borderopacity="1.0"
     bordercolor="#666666"
     pagecolor="#ffffff"
     id="base"
     showgrid="false"
     inkscape:zoom="1.0091146"
     inkscape:cx="512.00001"
     inkscape:cy="265.08388"
     inkscape:window-x="-5"
     inkscape:window-y="0"
     inkscape:current-layer="body"
     units="px"
     borderlayer="false" />
  <title
     id="title3">SVG drawing</title>
  <desc
     id="desc5">This was produced by version 4.2 of GNU libplot, a free library for exporting 2-D vector graphics.</desc>
  <path
     style="font-style:normal;font-variant:normal;font-weight:normal;font-stretch:normal;letter-spacing:normal;word-spacing:normal;text-anchor:start;fill:#000000;fill-opacity:1;stroke:#000000;stroke-width:0;stroke-linecap:butt;stroke-linejoin:miter;stroke-miterlimit:10.43299961;stroke-dasharray:none;stroke-dashoffset:0;stroke-opacity:1"
     id="path13"
     d="M 0.65543293,0.17666312 L 0.65530269,0.17623981 L 0.65520501,0.17584907 L 0.65507476,0.17542578 L 0.65497708,0.17503504 L 0.65491196,0.17483967 L 0.65484684,0.17464429 L 0.6547817,0.17444893 L 0.65474914,0.17425356 L 0.65468402,0.17409076 L 0.65465146,0.17392794 L 0.65458634,0.17373258 L 0.65455378,0.17360232 L 0.65448865,0.17343953 L 0.65445609,0.17327671 L 0.65442353,0.17314647 L 0.65435841,0.17301621 L 0.65432585,0.17288598 L 0.65429329,0.1727883 L 0.65426073,0.17265804 L 0.65422817,0.17256036 L 0.65422817,0.17249524 L 0.65419561,0.17239754 L 0.65416305,0.17233242 L 0.65416305,0.17229986 L 0.65413047,0.17223475 L 0.65413047,0.17220219 L 0.65413047,0.17220219 L 0.65413047,0.17216963 C 0.65413047,0.17216963 0.65357694,0.16936933 0.65331644,0.16660161 C 0.65305595,0.16389899 0.65315363,0.16126151 0.65315363,0.16126151 C 0.65315363,0.16126151 0.65380486,0.16087078 0.65439097,0.16070798 C 0.65500964,0.16057772 0.65559575,0.1606754 0.65559575,0.1606754 C 0.65559575,0.1606754 0.65575855,0.16494097 0.65595392,0.16933677 C 0.65618186,0.17425356 0.65640978,0.18044024 0.65640978,0.18044024 C 0.65640978,0.18044024 0.65595392,0.17851911 0.65543293,0.17666312 z" />
  <path
     style="font-style:normal;font-variant:normal;font-weight:normal;font-stretch:normal;letter-spacing:normal;word-spacing:normal;text-anchor:start;fill:#000000;fill-opacity:1;stroke:#000000;stroke-width:0;stroke-linecap:butt;stroke-linejoin:miter;stroke-miterlimit:10.43299961;stroke-dasharray:none;stroke-dashoffset:0;stroke-opacity:1"
     id="path15"
     d="M 0.78720801,0.45352954 L 0.78687899,0.45122625 L 0.78638548,0.44875861 L 0.78589186,0.44629087 L 0.78539834,0.44398768 L 0.78474036,0.44168444 L 0.78408224,0.43938131 L 0.78325971,0.43707812 L 0.78260168,0.43477489 L 0.78177905,0.43263626 L 0.78095657,0.43049758 L 0.77996944,0.42835885 L 0.7791468,0.42638472 L 0.77815982,0.42441055 L 0.77733719,0.42243642 L 0.77635015,0.42062676 L 0.77552752,0.41881714 L 0.77454053,0.41700747 L 0.7737179,0.41552687 L 0.77289537,0.4138817 L 0.77207274,0.4124011 L 0.77125026,0.41108495 L 0.77042763,0.40976885 L 0.7697696,0.40861721 L 0.76911148,0.40763017 L 0.76845345,0.40664308 L 0.76795999,0.40582055 L 0.76746637,0.40516243 L 0.76713736,0.4045044 L 0.76680834,0.40401088 L 0.76647933,0.40368177 L 0.76647933,0.40351732 L 0.76631482,0.40351732 L 0.76631482,0.40335281 L 0.76631482,0.40335281 C 0.76631482,0.40335281 0.76105033,0.39743034 0.75792466,0.38805304 C 0.75463439,0.37834672 0.7523311,0.36189536 0.74953435,0.35153102 C 0.74657319,0.34067306 0.74328291,0.3362312 0.74328291,0.3362312 C 0.74328291,0.3362312 0.73917001,0.32389268 0.72683155,0.31533801 C 0.71350595,0.30612522 0.69179003,0.30069627 0.69179003,0.30069627 C 0.69179003,0.30069627 0.6802741,0.29608989 0.6682646,0.2896738 C 0.65641965,0.28358677 0.64441015,0.27585474 0.63289422,0.27272897 C 0.62351692,0.27009667 0.61282347,0.2789805 0.61282347,0.2789805 C 0.61282347,0.2789805 0.60213012,0.28523194 0.58633678,0.29197699 C 0.56412745,0.3015188 0.5346795,0.31254126 0.5346795,0.31254126 C 0.5346795,0.31254126 0.53040214,0.31599604 0.52382154,0.31665401 C 0.51543138,0.31764115 0.50292841,0.31599604 0.49124782,0.31945082 C 0.47134167,0.32537334 0.4532452,0.3362312 0.4532452,0.3362312 C 0.4532452,0.3362312 0.44699371,0.3375473 0.4414002,0.33804081 C 0.43547778,0.33869894 0.43004873,0.33853443 0.42231659,0.33721828 C 0.4091556,0.33491515 0.397146,0.32685395 0.38447852,0.3243862 C 0.37115282,0.32191856 0.3611175,0.31829928 0.3611175,0.31829928 C 0.3611175,0.31829928 0.37691084,0.30036725 0.38332688,0.27930952 C 0.38842682,0.26236463 0.38447852,0.24130684 0.38447852,0.24130684 C 0.38447852,0.24130684 0.38349139,0.22880377 0.37493672,0.20593632 C 0.37296249,0.20050741 0.35963684,0.17895611 0.35667568,0.17319809 C 0.3425275,0.14654689 0.33183415,0.073502857 0.33183415,0.073502857 C 0.33183415,0.073502857 0.32953086,0.05277408 0.32870838,0.036322715 C 0.32837927,0.026287389 0.3292019,0.017074594 0.3292019,0.017074594 C 0.3292019,0.017074594 0.32607609,0.016581075 0.32443097,0.021022992 C 0.32245685,0.026780907 0.32179872,0.039119469 0.32064718,0.051457981 C 0.31817944,0.075476981 0.32031817,0.10870873 0.32031817,0.10870873 C 0.32031817,0.10870873 0.32179872,0.13420843 0.32574712,0.15954348 C 0.32936636,0.18339792 0.33545344,0.20708796 0.33545344,0.20708796 C 0.33545344,0.20708796 0.32295032,0.19047209 0.31373752,0.16645304 C 0.30551197,0.14523079 0.30024742,0.1161119 0.30024742,0.1161119 C 0.30024742,0.1161119 0.29893137,0.097192798 0.2997539,0.079260772 C 0.30041192,0.064454568 0.30304417,0.050306439 0.30304417,0.050306439 C 0.30304417,0.050306439 0.30419582,0.046029028 0.30320868,0.045206498 C 0.30205709,0.044054905 0.29860231,0.046193534 0.29860231,0.046193534 C 0.29860231,0.046193534 0.28083489,0.090283235 0.28034127,0.13239876 C 0.27984775,0.17138847 0.29646363,0.20856862 0.29646363,0.20856862 C 0.29646363,0.20856862 0.31488917,0.24755838 0.31916653,0.27338694 C 0.32163422,0.2881932 0.31077636,0.29608989 0.31077636,0.29608989 C 0.31077636,0.29608989 0.30600543,0.30201242 0.30353769,0.30974445 C 0.30123456,0.31714763 0.30123456,0.32636038 0.29481851,0.33656026 C 0.28478319,0.35235355 0.26931891,0.36962755 0.25648683,0.38772402 C 0.22983563,0.4257267 0.20614559,0.46224871 0.20614559,0.46224871 C 0.20614559,0.46224871 0.19331351,0.47162602 0.19183291,0.48050975 C 0.19035235,0.48988705 0.20038768,0.49909974 0.20038768,0.49909974 C 0.20038768,0.49909974 0.22095185,0.51143831 0.23608706,0.5140705 C 0.24349024,0.5153866 0.25155144,0.50814803 0.25155144,0.50814803 C 0.25155144,0.50814803 0.26504155,0.5018965 0.27968324,0.50683193 C 0.30057653,0.51374149 0.32475999,0.53233159 0.32475999,0.53233159 C 0.32475999,0.53233159 0.32837927,0.53512824 0.33907272,0.53710237 C 0.34614674,0.53841852 0.3517403,0.53710237 0.35930788,0.537925 C 0.36884969,0.53891214 0.37954309,0.54220241 0.37954309,0.54220241 C 0.37954309,0.54220241 0.38628814,0.54861845 0.39434934,0.55306026 C 0.39994275,0.55635054 0.40783945,0.55799565 0.40783945,0.55799565 C 0.40783945,0.55799565 0.41080071,0.5645762 0.4186973,0.5765857 C 0.42132955,0.58053404 0.42610048,0.58431783 0.42922625,0.58974689 C 0.43679378,0.60290788 0.43926157,0.62561078 0.44600663,0.63893638 C 0.45390327,0.6542362 0.46591277,0.65950065 0.46591277,0.65950065 C 0.46591277,0.65950065 0.47331585,0.68154543 0.47989639,0.70424838 C 0.48598342,0.72612864 0.49124782,0.74883154 0.49124782,0.74883154 C 0.49124782,0.74883154 0.49124782,0.76873769 0.49453809,0.78930196 C 0.49766386,0.80822102 0.50440891,0.82812716 0.50440891,0.82812716 C 0.50440891,0.82812716 0.50539605,0.85214616 0.50473803,0.87517813 C 0.5040799,0.89574225 0.50194127,0.91531943 0.50194127,0.91531943 C 0.50194127,0.91531943 0.49239946,0.9293031 0.49124782,0.93868045 C 0.49009628,0.94624799 0.49733485,0.94970277 0.49733485,0.94970277 C 0.49733485,0.94970277 0.50885083,0.94937375 0.52069577,0.94937375 C 0.52760543,0.94953826 0.53451499,0.9505254 0.53945043,0.94970277 C 0.54504383,0.94871578 0.5440568,0.94197073 0.5440568,0.94197073 C 0.5440568,0.94197073 0.54093103,0.93604815 0.53994394,0.92848052 C 0.53912131,0.92157096 0.54027296,0.91301624 0.53912131,0.90594218 C 0.53698268,0.89360362 0.5346795,0.88702307 0.5346795,0.88702307 C 0.5346795,0.88702307 0.52809895,0.86612989 0.52760543,0.84540111 C 0.52727632,0.8263175 0.53303438,0.80723398 0.53303438,0.80723398 C 0.53303438,0.80723398 0.53632466,0.78930196 0.53402137,0.77252158 C 0.53204725,0.75787988 0.52447966,0.74422517 0.52447966,0.74422517 C 0.52447966,0.74422517 0.52069577,0.73172215 0.51970879,0.72086425 C 0.51888615,0.71329667 0.52069577,0.7062225 0.52069577,0.7062225 C 0.52069577,0.7062225 0.53254087,0.71049991 0.54784059,0.7022742 C 0.56133069,0.69503553 0.57844008,0.67512939 0.57844008,0.67512939 C 0.57844008,0.67512939 0.58386909,0.6754585 0.5883109,0.69766783 C 0.59160118,0.7142837 0.59193029,0.74258001 0.59193029,0.74258001 C 0.59193029,0.74258001 0.58551425,0.76347329 0.58929804,0.78551817 C 0.59406892,0.81348542 0.60459776,0.83553029 0.60459776,0.83553029 C 0.60459776,0.83553029 0.60673654,0.83832705 0.60755902,0.84951391 C 0.60838166,0.86037187 0.60788804,0.8797845 0.60788804,0.8797845 C 0.60788804,0.8797845 0.60525589,0.88883274 0.60492688,0.89853905 C 0.60426875,0.91153564 0.60624293,0.92601283 0.60624293,0.92601283 C 0.60624293,0.92601283 0.59933337,0.93539018 0.59801722,0.94559001 C 0.59686573,0.95529633 0.601472,0.96566066 0.601472,0.96566066 C 0.601472,0.96566066 0.61298798,0.96993802 0.62549105,0.96779929 C 0.63355225,0.96648325 0.64473917,0.95825759 0.64473917,0.95825759 C 0.64473917,0.95825759 0.64770043,0.94410936 0.64671334,0.92765799 C 0.6455617,0.90692921 0.64062631,0.88307477 0.64062631,0.88307477 C 0.64062631,0.88307477 0.63733604,0.8610299 0.63766505,0.83750447 C 0.63799411,0.81628217 0.64194241,0.79341476 0.64194241,0.79341476 C 0.64194241,0.79341476 0.64260044,0.7651184 0.63996829,0.74258001 C 0.63865214,0.72941892 0.63322324,0.71642243 0.63322324,0.71642243 C 0.63322324,0.71642243 0.63338774,0.69256789 0.63355225,0.67068762 C 0.63371675,0.65736197 0.63371675,0.64156863 0.63371675,0.64156863 C 0.63371675,0.64156863 0.63865214,0.64140412 0.64276504,0.64025253 C 0.6457262,0.63943 0.64852296,0.63745583 0.64852296,0.63745583 C 0.64852296,0.63745583 0.64934559,0.64156863 0.64983911,0.65999417 C 0.65033263,0.68105191 0.65049713,0.71691595 0.65049713,0.71691595 C 0.65049713,0.71691595 0.65049713,0.73501243 0.65395191,0.74998319 C 0.65740669,0.7649539 0.66398724,0.77663439 0.66398724,0.77663439 C 0.66398724,0.77663439 0.66777108,0.78403756 0.67188389,0.7944019 C 0.6761613,0.80493075 0.68076772,0.81842085 0.68076772,0.81842085 C 0.68076772,0.81842085 0.68043861,0.84753979 0.67846443,0.87402648 C 0.67714834,0.8931101 0.67385806,0.91219366 0.67385806,0.91219366 C 0.67385806,0.91219366 0.6708969,0.9159775 0.67040328,0.92107744 C 0.66990976,0.92699997 0.67171938,0.93423854 0.67171938,0.93423854 C 0.67171938,0.93423854 0.66744202,0.94443837 0.6682646,0.95151243 C 0.66925174,0.95792847 0.67550317,0.96121875 0.67550317,0.96121875 C 0.67550317,0.96121875 0.68488047,0.95973809 0.69327069,0.95891561 C 0.69787711,0.9585866 0.70412865,0.95875111 0.70412865,0.95875111 C 0.70412865,0.95875111 0.70922854,0.95875111 0.71070919,0.95447369 C 0.71268332,0.94888029 0.71153167,0.93868045 0.71153167,0.93868045 C 0.71153167,0.93868045 0.70840591,0.91219366 0.70593826,0.88833922 C 0.70379963,0.87007819 0.70198997,0.8531333 0.70198997,0.8531333 C 0.70198997,0.8531333 0.70050936,0.83092392 0.70248348,0.80476624 C 0.70330601,0.79259223 0.70840591,0.77992466 0.70988656,0.76840868 C 0.7121898,0.75047671 0.71070919,0.73616407 0.71070919,0.73616407 C 0.71070919,0.73616407 0.70972206,0.72333199 0.71301233,0.70539997 C 0.7161381,0.6889486 0.72337677,0.66821983 0.72716056,0.64897181 C 0.7337411,0.61573996 0.73999264,0.58678563 0.73999264,0.58678563 C 0.73999264,0.58678563 0.7562795,0.56490521 0.76812449,0.54516357 C 0.77635015,0.53117995 0.78145009,0.51719627 0.78145009,0.51719627 C 0.78145009,0.51719627 0.79132091,0.48429349 0.78720801,0.45352954 z" />
</svg>
