<?xml version="1.0" encoding="UTF-8" standalone="no"?>
<svg
   xmlns:dc="http://purl.org/dc/elements/1.1/"
   xmlns:cc="http://creativecommons.org/ns#"
   xmlns:rdf="http://www.w3.org/1999/02/22-rdf-syntax-ns#"
   xmlns:svg="http://www.w3.org/2000/svg"
   xmlns="http://www.w3.org/2000/svg"
   xmlns:sodipodi="http://sodipodi.sourceforge.net/DTD/sodipodi-0.dtd"
   xmlns:inkscape="http://www.inkscape.org/namespaces/inkscape"
   version="1.0"
   baseProfile="full"
   id="body"
   width="500"
   height="500"
   viewBox="0 0 1 1"
   preserveAspectRatio="none"
   sodipodi:version="0.32"
   inkscape:version="0.46"
   sodipodi:docname="03.svg"
   inkscape:output_extension="org.inkscape.output.svg.inkscape">
  <metadata
     id="metadata80">
    <rdf:RDF>
      <cc:Work
         rdf:about="">
        <dc:format>image/svg+xml</dc:format>
        <dc:type
           rdf:resource="http://purl.org/dc/dcmitype/StillImage" />
      </cc:Work>
    </rdf:RDF>
  </metadata>
  <defs
     id="defs78">
    <inkscape:perspective
       sodipodi:type="inkscape:persp3d"
       inkscape:vp_x="0 : 384 : 1"
       inkscape:vp_y="0 : 1000 : 0"
       inkscape:vp_z="1024 : 384 : 1"
       inkscape:persp3d-origin="512 : 256 : 1"
       id="perspective32" />
  </defs>
  <sodipodi:namedview
     inkscape:window-height="992"
     inkscape:window-width="1920"
     inkscape:pageshadow="2"
     inkscape:pageopacity="0.0"
     guidetolerance="10.0"
     gridtolerance="10.0"
     objecttolerance="10.0"
     borderopacity="1.0"
     bordercolor="#666666"
     pagecolor="#ffffff"
     id="base"
     showgrid="false"
     inkscape:zoom="1.0091146"
     inkscape:cx="512.00001"
     inkscape:cy="265.08388"
     inkscape:window-x="-5"
     inkscape:window-y="0"
     inkscape:current-layer="body"
     units="px"
     borderlayer="false" />
  <title
     id="title3">SVG drawing</title>
  <desc
     id="desc5">This was produced by version 4.2 of GNU libplot, a free library for exporting 2-D vector graphics.</desc>
  <path
     style="font-style:normal;font-variant:normal;font-weight:normal;font-stretch:normal;letter-spacing:normal;word-spacing:normal;text-anchor:start;fill:#000000;fill-opacity:1;stroke:#000000;stroke-width:0;stroke-linecap:butt;stroke-linejoin:miter;stroke-miterlimit:10.43299961;stroke-dasharray:none;stroke-dashoffset:0;stroke-opacity:1"
     id="path17"
     d="M 0.056651497,0.54775611 L 0.056616168,0.54775611 L 0.056492822,0.54757987 L 0.056281356,0.54722739 L 0.056017002,0.54687481 L 0.055664425,0.54634609 L 0.055259058,0.54564113 L 0.05476557,0.54493612 L 0.054219195,0.54405492 L 0.053620029,0.54299737 L 0.052967867,0.54193993 L 0.052245252,0.5407062 L 0.051487411,0.53929618 L 0.050676676,0.53788621 L 0.049830612,0.53629994 L 0.048949425,0.53471373 L 0.048015344,0.53277499 L 0.047045939,0.53101254 L 0.046058965,0.52907379 L 0.04503677,0.52695886 L 0.043996902,0.52466764 L 0.04292171,0.52237636 L 0.041846621,0.52008519 L 0.040753865,0.51761773 L 0.039625888,0.51497397 L 0.038515568,0.51233032 L 0.037387586,0.50951027 L 0.036259603,0.50669038 L 0.035131621,0.50387039 L 0.034021203,0.50069791 L 0.032893221,0.49770168 L 0.031782906,0.49435307 L 0.03069015,0.49118059 C 0.021683861,0.46280466 0.01507454,0.42438264 0.013699865,0.38631309 C 0.012325093,0.3482436 0.032840333,0.29977543 0.041917177,0.26840332 C 0.055065259,0.22310768 0.15792347,0.19984291 0.15792347,0.19984291 C 0.15792347,0.19984291 0.22650143,0.17816446 0.27304847,0.17763574 C 0.34044567,0.17675443 0.39358435,0.19702297 0.39358435,0.19702297 C 0.39358435,0.19702297 0.44645868,0.21552894 0.49513837,0.22504642 C 0.50973167,0.22786631 0.52467745,0.22522266 0.53685623,0.22575138 C 0.55248937,0.22663263 0.56357531,0.23015759 0.56357531,0.23015759 C 0.56357531,0.23015759 0.63566067,0.23967496 0.69287068,0.26593585 C 0.73390116,0.28461817 0.76564346,0.32251142 0.76564346,0.32251142 C 0.76564346,0.32251142 0.77547802,0.33273381 0.79407222,0.34806736 C 0.81115063,0.36199089 0.83633644,0.38049691 0.85307996,0.40094174 C 0.88364135,0.43848246 0.89707145,0.48360186 0.89707145,0.48360186 C 0.89707145,0.48360186 0.89982087,0.48571689 0.90368065,0.48800806 C 0.90581328,0.48924185 0.91021949,0.49118059 0.91021949,0.49118059 C 0.91021949,0.49118059 0.91028997,0.48871302 0.91228159,0.48659809 C 0.91400881,0.48501183 0.9175867,0.4837782 0.91931391,0.48166311 C 0.92137601,0.47901946 0.9215699,0.47655195 0.92350859,0.47496579 C 0.92542963,0.47337953 0.92943053,0.47496579 0.92943053,0.47496579 C 0.92943053,0.47496579 0.93376621,0.47549451 0.93452405,0.47937194 C 0.93514089,0.48254442 0.93218,0.48924185 0.93218,0.48924185 C 0.93218,0.48924185 0.92881358,0.49805426 0.92680442,0.50915785 C 0.92440748,0.52184764 0.92322658,0.53718125 0.92322658,0.53718125 C 0.92322658,0.53718125 0.93507047,0.55057611 0.94134484,0.56185593 C 0.94587446,0.56978704 0.94553951,0.5770133 0.94553951,0.5770133 C 0.94553951,0.5770133 0.95124998,0.58723557 0.95035114,0.59340429 C 0.94966377,0.59851551 0.94229662,0.59974913 0.94229662,0.59974913 C 0.94229662,0.59974913 0.94139772,0.60274542 0.93975863,0.60503659 C 0.93727352,0.6083853 0.93369568,0.61138154 0.93369568,0.61138154 C 0.93369568,0.61138154 0.93568725,0.65808715 0.9363042,0.66108339 C 0.93940615,0.67765078 0.94869434,0.69227932 0.94869434,0.69227932 C 0.94869434,0.69227932 0.95373509,0.70109168 0.96274139,0.71325281 C 0.96660112,0.71854021 0.9747967,0.72329884 0.97768717,0.72999627 C 0.98353853,0.74356737 0.98161749,0.76859454 0.98161749,0.76859454 C 0.98161749,0.76859454 0.98360911,0.79256432 0.9801017,0.81159906 C 0.97692933,0.82869506 0.96825792,0.8406799 0.96825792,0.8406799 C 0.96825792,0.8406799 0.96186008,0.85812843 0.94767214,0.86182963 C 0.93011784,0.86641213 0.90401554,0.85777596 0.90401554,0.85777596 C 0.90401554,0.85777596 0.89747681,0.8597147 0.8897043,0.85936222 C 0.87826578,0.85883339 0.86421884,0.85583727 0.86421884,0.85583727 C 0.86421884,0.85583727 0.82285346,0.86412085 0.79883091,0.86147715 C 0.77713481,0.85900963 0.77258755,0.84596736 0.77258755,0.84596736 C 0.77258755,0.84596736 0.76666566,0.83803625 0.76178356,0.82534635 C 0.75827625,0.81635769 0.75661957,0.80437291 0.75200188,0.79379794 C 0.74683778,0.78216569 0.73982311,0.77247197 0.73596332,0.76295465 C 0.73122228,0.751146 0.73108128,0.74321489 0.73108128,0.74321489 C 0.73108128,0.74321489 0.71262808,0.73792749 0.69748841,0.72929131 C 0.68742468,0.72365143 0.67847126,0.71325281 0.67847126,0.71325281 C 0.67847126,0.71325281 0.67517548,0.716954 0.67076922,0.71959765 C 0.66766727,0.72153634 0.66312012,0.72294636 0.66312012,0.72294636 C 0.66312012,0.72294636 0.66726191,0.72911508 0.66972937,0.73545997 C 0.67200295,0.7412762 0.67276079,0.74744481 0.67276079,0.74744481 C 0.67276079,0.74744481 0.67716705,0.760311 0.68564453,0.76718457 C 0.69493283,0.7747633 0.70836293,0.77652575 0.70836293,0.77652575 C 0.70836293,0.77652575 0.71696376,0.77740695 0.72205739,0.78533817 C 0.72612865,0.79150677 0.72667502,0.80437291 0.7280498,0.80860283 C 0.72914253,0.81195154 0.71971323,0.81124648 0.71971323,0.81124648 C 0.71971323,0.81124648 0.71104187,0.81142282 0.70023783,0.81195154 C 0.69190136,0.81230402 0.68254263,0.81300898 0.67401222,0.81318522 C 0.66188639,0.81336157 0.6522456,0.81230402 0.6522456,0.81230402 C 0.6522456,0.81230402 0.65354981,0.81917769 0.6500425,0.82252641 C 0.64750451,0.82499387 0.64096578,0.82376019 0.63627762,0.82534635 C 0.62829352,0.82781387 0.61348874,0.82499387 0.61348874,0.82499387 C 0.61348874,0.82499387 0.61052769,0.82376019 0.60880059,0.82393643 C 0.60694996,0.82428891 0.60633301,0.82605136 0.60633301,0.82605136 C 0.60633301,0.82605136 0.59304392,0.83133882 0.58285688,0.82940008 C 0.57610657,0.82799011 0.57101305,0.81935393 0.57101305,0.81935393 C 0.57101305,0.81935393 0.56769951,0.82464139 0.56177762,0.82640384 C 0.55634916,0.82781387 0.5482947,0.82552259 0.5482947,0.82552259 C 0.5482947,0.82552259 0.53912975,0.82569888 0.53837191,0.81653393 C 0.53816043,0.81389029 0.53891827,0.80684038 0.54092754,0.80172916 C 0.54277817,0.79697042 0.54573906,0.79415053 0.54573906,0.79415053 C 0.54573906,0.79415053 0.54478733,0.77987447 0.54491064,0.76912336 C 0.54498122,0.76277841 0.54628542,0.75749095 0.54628542,0.75749095 C 0.54628542,0.75749095 0.54760733,0.73986618 0.54202022,0.71959765 C 0.53941175,0.70972785 0.53280244,0.70003413 0.52908371,0.69210308 C 0.52536482,0.68399562 0.52460698,0.67765078 0.52460698,0.67765078 C 0.52460698,0.67765078 0.52330277,0.67306828 0.51558303,0.67412582 C 0.5124282,0.67465449 0.50828641,0.67800326 0.50423279,0.68011819 C 0.50051389,0.68188064 0.49665405,0.68223312 0.49665405,0.68223312 C 0.49665405,0.68223312 0.49148995,0.68452445 0.47220849,0.68452445 C 0.4578972,0.68452445 0.42795265,0.68188064 0.42795265,0.68188064 C 0.42795265,0.68188064 0.41397624,0.68152821 0.39806109,0.68293818 C 0.39275599,0.6834669 0.38815595,0.68540559 0.3832562,0.6862869 C 0.3769289,0.6871681 0.37086606,0.68681562 0.37086606,0.68681562 C 0.37086606,0.68681562 0.32232742,0.68487693 0.29335224,0.68099938 C 0.2802042,0.67923688 0.27283701,0.67377323 0.27283701,0.67377323 C 0.27283701,0.67377323 0.26615724,0.67042452 0.25988273,0.66531341 C 0.24914929,0.65650099 0.23628323,0.64363485 0.23628323,0.64363485 C 0.23628323,0.64363485 0.23325176,0.64169616 0.23455598,0.6446924 C 0.23640658,0.64927479 0.24294534,0.65791091 0.24329782,0.66637085 C 0.24365039,0.673597 0.2384863,0.67853192 0.2384863,0.67853192 C 0.2384863,0.67853192 0.24412621,0.68082314 0.24900828,0.68505317 C 0.25348498,0.68893055 0.25727429,0.69474672 0.25727429,0.69474672 C 0.25727429,0.69474672 0.26857178,0.69598051 0.27579793,0.70232546 C 0.28067998,0.70655537 0.28247772,0.71677776 0.28247772,0.71677776 C 0.28247772,0.71677776 0.28425782,0.71906893 0.27800109,0.71924517 C 0.27172659,0.71959765 0.264571,0.71959765 0.25879008,0.71924517 C 0.25514167,0.71889269 0.25107034,0.71818773 0.25107034,0.71818773 C 0.25107034,0.71818773 0.24391475,0.72083143 0.23531382,0.72136015 C 0.22884552,0.72171269 0.22022703,0.71995024 0.22022703,0.71995024 C 0.22022703,0.71995024 0.20674404,0.72047895 0.19572858,0.71554397 C 0.18497747,0.71078523 0.17672902,0.7007392 0.17672902,0.7007392 C 0.17672902,0.7007392 0.16976733,0.69333681 0.1638454,0.68505317 C 0.15868131,0.67765078 0.15448663,0.66936708 0.15448663,0.66936708 C 0.15448663,0.66936708 0.15676016,0.67800326 0.15765901,0.68522941 C 0.15827595,0.68945927 0.15772957,0.69404177 0.15772957,0.69404177 C 0.15772957,0.69404177 0.17493132,0.70320666 0.18251004,0.71342904 C 0.18636981,0.71854021 0.18340889,0.72841006 0.18340889,0.72841006 C 0.18340889,0.72841006 0.18222802,0.73105382 0.17623553,0.73123006 C 0.16907994,0.7314063 0.15697172,0.72911508 0.15697172,0.72911508 C 0.15697172,0.72911508 0.14766585,0.73211126 0.13920594,0.73246379 C 0.13197979,0.73281627 0.12537047,0.73034875 0.12537047,0.73034875 C 0.12537047,0.73034875 0.10561307,0.73211126 0.094861969,0.72629508 C 0.085362193,0.72118391 0.084815818,0.70831783 0.084815818,0.70831783 C 0.084815818,0.70831783 0.083705497,0.69739048 0.08040967,0.6834669 C 0.078277057,0.6744783 0.074346729,0.66425586 0.072214116,0.65438596 C 0.067525947,0.63270751 0.064564932,0.61525897 0.064564932,0.61525897 C 0.064564932,0.61525897 0.061128097,0.593933 0.058925026,0.57525079 C 0.057197775,0.56062215 0.056651497,0.54775611 0.056651497,0.54775611 z" />
</svg>
