<?xml version="1.0" encoding="UTF-8" standalone="no"?>
<svg
   xmlns:dc="http://purl.org/dc/elements/1.1/"
   xmlns:cc="http://creativecommons.org/ns#"
   xmlns:rdf="http://www.w3.org/1999/02/22-rdf-syntax-ns#"
   xmlns:svg="http://www.w3.org/2000/svg"
   xmlns="http://www.w3.org/2000/svg"
   xmlns:sodipodi="http://sodipodi.sourceforge.net/DTD/sodipodi-0.dtd"
   xmlns:inkscape="http://www.inkscape.org/namespaces/inkscape"
   version="1.0"
   baseProfile="full"
   id="body"
   width="500"
   height="500"
   viewBox="0 0 1 1"
   preserveAspectRatio="none"
   sodipodi:version="0.32"
   inkscape:version="0.46"
   sodipodi:docname="04.svg"
   inkscape:output_extension="org.inkscape.output.svg.inkscape">
  <metadata
     id="metadata80">
    <rdf:RDF>
      <cc:Work
         rdf:about="">
        <dc:format>image/svg+xml</dc:format>
        <dc:type
           rdf:resource="http://purl.org/dc/dcmitype/StillImage" />
      </cc:Work>
    </rdf:RDF>
  </metadata>
  <defs
     id="defs78">
    <inkscape:perspective
       sodipodi:type="inkscape:persp3d"
       inkscape:vp_x="0 : 384 : 1"
       inkscape:vp_y="0 : 1000 : 0"
       inkscape:vp_z="1024 : 384 : 1"
       inkscape:persp3d-origin="512 : 256 : 1"
       id="perspective32" />
  </defs>
  <sodipodi:namedview
     inkscape:window-height="992"
     inkscape:window-width="1920"
     inkscape:pageshadow="2"
     inkscape:pageopacity="0.0"
     guidetolerance="10.0"
     gridtolerance="10.0"
     objecttolerance="10.0"
     borderopacity="1.0"
     bordercolor="#666666"
     pagecolor="#ffffff"
     id="base"
     showgrid="false"
     inkscape:zoom="1.0091146"
     inkscape:cx="512.00001"
     inkscape:cy="265.08388"
     inkscape:window-x="-5"
     inkscape:window-y="0"
     inkscape:current-layer="body"
     units="px"
     borderlayer="false" />
  <title
     id="title3">SVG drawing</title>
  <desc
     id="desc5">This was produced by version 4.2 of GNU libplot, a free library for exporting 2-D vector graphics.</desc>
  <path
     style="font-style:normal;font-variant:normal;font-weight:normal;font-stretch:normal;letter-spacing:normal;word-spacing:normal;text-anchor:start;fill:#000000;fill-opacity:1;stroke:#000000;stroke-width:0;stroke-linecap:butt;stroke-linejoin:miter;stroke-miterlimit:10.43299961;stroke-dasharray:none;stroke-dashoffset:0;stroke-opacity:1"
     id="path19"
     d="M 0.98104599,0.557929 L 0.98148489,0.55207682 L 0.98177748,0.54607834 L 0.98192378,0.54022616 L 0.98207008,0.53730006 L 0.98192378,0.53452027 L 0.98192378,0.53174048 L 0.98192378,0.52896069 L 0.98177748,0.52632719 L 0.98177748,0.5235474 L 0.98163118,0.52106025 L 0.98148489,0.51857305 L 0.98133859,0.51608585 L 0.98119229,0.51374504 L 0.9808996,0.51155044 L 0.98075331,0.50935588 L 0.98060701,0.50745388 L 0.98046071,0.50540566 L 0.98016812,0.50365 L 0.98002182,0.50204068 L 0.97987552,0.50043131 L 0.97972922,0.49896829 L 0.97958297,0.49779782 L 0.97943658,0.49662739 L 0.97929028,0.49560322 L 0.97914399,0.49487173 L 0.97914399,0.49414015 L 0.97899769,0.4937013 L 0.97899769,0.49340871 L 0.97899769,0.49340871 L 0.97899769,0.49340871 C 0.97899769,0.49340871 0.97870509,0.45785664 0.95836876,0.43035144 C 0.93013198,0.39201967 0.87921797,0.35778432 0.87921797,0.35778432 C 0.87921797,0.35778432 0.81060112,0.29223986 0.76831908,0.27951141 C 0.71491796,0.26356423 0.65551827,0.26297895 0.6149919,0.26327155 C 0.58456056,0.26356423 0.56466312,0.26312525 0.56583359,0.26327155 C 0.56758921,0.26341793 0.5168215,0.25961397 0.46166467,0.24908008 C 0.37622281,0.23284026 0.27176138,0.20738323 0.27176138,0.20738323 C 0.27176138,0.20738323 0.23723348,0.19172869 0.21067922,0.20123845 C 0.18782644,0.20943153 0.13392783,0.2182098 0.108266,0.23166979 C 0.058493219,0.25785835 0.040600181,0.29019164 0.040600181,0.29019164 C 0.040600181,0.29019164 0.016884213,0.31667275 0.012319507,0.3364239 C 0.0064234266,0.36188088 0.019400661,0.38221722 0.019400661,0.38221722 C 0.019400661,0.38221722 0.023804377,0.38733782 0.029919903,0.39099549 C 0.037410746,0.3955309 0.041741313,0.38997132 0.049524751,0.39392158 C 0.056269366,0.39728657 0.066949599,0.41060025 0.066949599,0.41060025 C 0.066949599,0.41060025 0.083013824,0.43415532 0.092099384,0.45727144 C 0.10078981,0.4793634 0.10261862,0.50101651 0.10261862,0.50101651 C 0.10261862,0.50101651 0.10193103,0.51096525 0.095639964,0.52120654 C 0.090270572,0.52998482 0.079473247,0.53847049 0.075347434,0.54739506 C 0.070841363,0.55719742 0.07267013,0.56670727 0.07267013,0.56670727 C 0.07267013,0.56670727 0.072318989,0.58543428 0.077234792,0.6067947 C 0.081463005,0.62537538 0.091587342,0.64717478 0.096781094,0.66502392 C 0.10256012,0.68506766 0.10313075,0.70013701 0.10313075,0.70013701 C 0.10313075,0.70013701 0.1059837,0.71023205 0.11272831,0.72325318 C 0.11695648,0.73129987 0.12318905,0.73715206 0.12765136,0.74446726 C 0.13302075,0.75339183 0.13626869,0.76319427 0.13626869,0.76319427 C 0.13626869,0.76319427 0.13164552,0.77826371 0.13929722,0.78484738 C 0.14918737,0.79333306 0.17187921,0.79362565 0.17187921,0.79362565 C 0.17187921,0.79362565 0.18255954,0.79816106 0.19250814,0.79889264 C 0.20194485,0.79962413 0.21067922,0.79669804 0.21067922,0.79669804 C 0.21067922,0.79669804 0.22959643,0.79757592 0.22760667,0.78865135 C 0.226407,0.78338431 0.22342231,0.7768006 0.21771643,0.77021693 C 0.21439535,0.76655926 0.20845537,0.76494994 0.20525133,0.76202385 C 0.2018863,0.75895146 0.20137426,0.7548549 0.20137426,0.7548549 C 0.20137426,0.7548549 0.20080362,0.7472471 0.19730695,0.74198015 C 0.19421995,0.73729844 0.18851407,0.73583529 0.18479795,0.73173886 C 0.18005765,0.72632552 0.17759979,0.71871772 0.17759979,0.71871772 C 0.17759979,0.71871772 0.17942856,0.70906158 0.17856537,0.7032094 C 0.1772486,0.69428483 0.17296189,0.68770116 0.17296189,0.68770116 C 0.17296189,0.68770116 0.16422752,0.66648699 0.16381787,0.6489304 C 0.16348133,0.63342212 0.17142567,0.62157146 0.17142567,0.62157146 C 0.17142567,0.62157146 0.17787769,0.60869671 0.18674381,0.59816273 C 0.19622432,0.58675101 0.20811887,0.57753375 0.20811887,0.57753375 C 0.20811887,0.57753375 0.25976437,0.62522908 0.30204637,0.64615061 C 0.34901016,0.66912048 0.38704943,0.66546281 0.38704943,0.66546281 C 0.38704943,0.66546281 0.43620769,0.66019591 0.47336903,0.64600431 C 0.5115546,0.63122756 0.53788941,0.60767254 0.53788941,0.60767254 C 0.53788941,0.60767254 0.54886224,0.59933316 0.55983511,0.59801643 C 0.58031775,0.59552928 0.6072378,0.59933316 0.6072378,0.59933316 C 0.6072378,0.59933316 0.6122121,0.60811143 0.61660122,0.61557298 C 0.62142936,0.62332716 0.62581847,0.62976454 0.62581847,0.62976454 C 0.62581847,0.62976454 0.62918346,0.63444624 0.63050023,0.64044472 C 0.63152435,0.64556546 0.63035393,0.65171024 0.63196325,0.65697723 C 0.63869322,0.67892288 0.64849566,0.70364829 0.64849566,0.70364829 C 0.64849566,0.70364829 0.64586217,0.72310688 0.6492272,0.73568899 C 0.65390895,0.75324558 0.66517442,0.76582777 0.66517442,0.76582777 C 0.66517442,0.76582777 0.67263597,0.77460604 0.67936589,0.77606911 C 0.68580335,0.77738583 0.69150923,0.77138736 0.69150923,0.77138736 C 0.69150923,0.77138736 0.70262836,0.77387451 0.71374753,0.77445974 C 0.72764641,0.77504493 0.74213056,0.77358191 0.74213056,0.77358191 C 0.74213056,0.77358191 0.75910196,0.77270413 0.7520793,0.75851257 C 0.74637342,0.74739335 0.71886813,0.73832248 0.71886813,0.73832248 C 0.71886813,0.73832248 0.71345494,0.7250088 0.71023616,0.71154877 C 0.70628598,0.69457742 0.70453037,0.67687458 0.70453037,0.67687458 C 0.70453037,0.67687458 0.70379879,0.65609935 0.70613969,0.64322452 C 0.70891939,0.62698474 0.71477166,0.61791388 0.71477166,0.61791388 C 0.71477166,0.61791388 0.73525434,0.63327582 0.7520793,0.64015213 C 0.76451525,0.64512657 0.77475645,0.64220039 0.77475645,0.64220039 C 0.77475645,0.64220039 0.78807027,0.64834525 0.79567807,0.65726982 C 0.80109135,0.6637072 0.80021352,0.67248547 0.80533413,0.67789875 C 0.81981828,0.6929681 0.82859655,0.69808879 0.82859655,0.69808879 C 0.82859655,0.69808879 0.85390733,0.71696211 0.87482886,0.72398463 C 0.89575038,0.73115358 0.90935675,0.73978555 0.92559657,0.74256534 C 0.93861766,0.74475994 0.95675939,0.74139487 0.95675939,0.74139487 C 0.95675939,0.74139487 0.97768092,0.73685946 0.97972922,0.72661812 C 0.98221637,0.71374333 0.96597656,0.69443112 0.96597656,0.69443112 C 0.96597656,0.69443112 0.95661309,0.67380219 0.95690569,0.65668454 C 0.95719828,0.63400735 0.96758592,0.61323212 0.96758592,0.61323212 C 0.96758592,0.61323212 0.9784125,0.58616577 0.98104599,0.557929 z" />
</svg>
