<?xml version="1.0" encoding="UTF-8" standalone="no"?>
<!-- Created with Inkscape (http://www.inkscape.org/) -->
<svg
   xmlns:svg="http://www.w3.org/2000/svg"
   xmlns="http://www.w3.org/2000/svg"
   xmlns:xlink="http://www.w3.org/1999/xlink"
   version="1.0"
   width="208"
   height="303"
   viewBox="0 0 167.086 242.667"
   id="svg2"
   xml:space="preserve"><defs
   id="defs88" />
	<path
   d="M 166.83643,235.89281 C 166.83643,239.68452 163.75049,242.78371 159.96632,242.78371 L 7.1113279,242.78371 C 3.3359375,242.78371 0.25,239.68452 0.25,235.89281 L 0.25,6.7746656 C 0.25,2.9883456 3.3359375,-0.11623093 7.1113279,-0.11623093 L 159.96632,-0.11623093 C 163.75049,-0.11623093 166.83643,2.9883456 166.83643,6.7746656 L 166.83643,235.89281 L 166.83643,235.89281 z"
   id="path5"
   style="fill:#ffffff;fill-rule:nonzero;stroke:#000000;stroke-width:0.5;stroke-miterlimit:4" /><use
   transform="matrix(-1,0,0,-1,167.086,242.667)"
   id="use2368"
   x="0"
   y="0"
   width="167.08643"
   height="242.66748"
   xlink:href="#g31" /><use
   transform="matrix(1,0,0,-1,134.342,242.362)"
   id="use2352"
   x="0"
   y="0"
   width="167.08643"
   height="242.66748"
   xlink:href="#use2349" /><path
   d="M 16.349907,29.321991 C 15.207981,29.321991 14.282704,30.247268 14.282704,31.389194 C 14.282704,31.978582 14.533242,32.508183 14.929175,32.885097 C 15.235134,33.176357 15.671013,33.83653 15.816193,34.365965 C 15.533001,34.1953 15.277913,34.000797 15.124619,33.839768 C 14.747706,33.443834 14.218103,33.200815 13.628717,33.200815 C 12.486791,33.200815 11.561514,34.126092 11.561514,35.268017 C 11.561514,36.409943 12.486791,37.33522 13.628717,37.33522 C 14.218105,37.33522 14.747706,37.084684 15.124619,36.688749 C 15.286253,36.518956 15.55949,36.304114 15.861295,36.124967 C 15.818961,38.020824 15.168308,39.259597 13.98202,39.259597 C 13.98202,39.259597 18.72531,39.259597 18.72531,39.259597 C 17.535862,39.259597 16.877677,38.014336 16.838518,36.109932 C 17.15669,36.292553 17.452443,36.512422 17.620297,36.688749 C 17.997205,37.084684 18.526818,37.33522 19.1162,37.33522 C 20.258113,37.33522 21.183402,36.409943 21.183402,35.268017 C 21.183402,34.126092 20.258113,33.200815 19.1162,33.200815 C 18.52682,33.200815 17.997205,33.443834 17.620297,33.839768 C 17.460686,34.007433 17.183475,34.206269 16.883621,34.380999 C 17.024262,33.84896 17.469144,33.179268 17.778156,32.885097 C 18.174089,32.508183 18.417109,31.978579 18.417109,31.389194 C 18.417109,30.247268 17.491832,29.321991 16.349907,29.321991 z"
   id="use2349"
   style="fill:#000000;fill-opacity:1;stroke:none;stroke-width:1.5;stroke-linecap:round;stroke-linejoin:round;stroke-miterlimit:4;stroke-opacity:1" /><g
   transform="translate(1.32166,0.215821)"
   id="g31"
   style="fill-rule:nonzero;stroke:#000000;stroke-miterlimit:4">
			<path
   d="M 12.613281,25.827148 L 12.613281,24.358398 L 14.113281,24.358398 L 14.113281,9.7602539 L 12.425781,11.983887 L 12.425781,10.183105 L 14.454102,7.4521484 L 16.144531,7.4521484 L 16.144531,24.358398 L 17.675781,24.358398 L 17.675781,25.827148 L 12.613281,25.827148 z"
   id="path33"
   style="stroke:none" />
		</g>
</svg>