<?xml version="1.0" encoding="UTF-8" standalone="no"?>
<!-- Created with Inkscape (http://www.inkscape.org/) -->
<svg
   xmlns:svg="http://www.w3.org/2000/svg"
   xmlns="http://www.w3.org/2000/svg"
   xmlns:xlink="http://www.w3.org/1999/xlink"
   version="1.0"
   width="208"
   height="303"
   viewBox="0 0 167.08643 242.66748"
   id="svg2"
   xml:space="preserve"><defs
   id="defs88" />
	<path
   d="M 166.83643,235.89281 C 166.83643,239.68452 163.75049,242.78371 159.96632,242.78371 L 7.1113279,242.78371 C 3.3359375,242.78371 0.25,239.68452 0.25,235.89281 L 0.25,6.7746656 C 0.25,2.9883456 3.3359375,-0.11623093 7.1113279,-0.11623093 L 159.96632,-0.11623093 C 163.75049,-0.11623093 166.83643,2.9883456 166.83643,6.7746656 L 166.83643,235.89281 L 166.83643,235.89281 z"
   id="path5"
   style="fill:#ffffff;fill-rule:nonzero;stroke:#000000;stroke-width:0.5;stroke-miterlimit:4" /><use
   transform="matrix(-1,0,0,-1,167.08643,242.66748)"
   id="use2368"
   x="0"
   y="0"
   width="167.08643"
   height="242.66748"
   xlink:href="#g31" /><g
   transform="translate(1.3216589,0.2158208)"
   id="g31"
   style="fill:#e61408;fill-opacity:1;fill-rule:nonzero;stroke:#000000;stroke-miterlimit:4">
			<path
   d="M 12.613281,25.827148 L 12.613281,24.358398 L 14.113281,24.358398 L 14.113281,9.7602539 L 12.425781,11.983887 L 12.425781,10.183105 L 14.454102,7.4521484 L 16.144531,7.4521484 L 16.144531,24.358398 L 17.675781,24.358398 L 17.675781,25.827148 L 12.613281,25.827148 z"
   id="path33"
   style="fill:#e61408;fill-opacity:1;stroke:none" />
		</g>
<path
   d="M 16.37244,29.520359 C 16.364587,29.789715 16.204734,30.799865 14.462764,32.471674 C 12.786248,34.080674 12.003369,34.27383 11.768084,34.290774 C 12.003369,34.307715 12.786248,34.500877 14.462764,36.109871 C 16.204734,37.78168 16.364587,38.791827 16.37244,39.061186 C 16.380294,38.79183 16.540146,37.781683 18.282115,36.109871 C 19.958634,34.500874 20.741511,34.307712 20.976795,34.290774 C 20.741511,34.273833 19.958634,34.080671 18.282115,32.471674 C 16.540146,30.799868 16.380294,29.789718 16.37244,29.520359 z"
   id="path3230"
   style="opacity:1;fill:#e61408;fill-opacity:1;stroke:none;stroke-width:1.49999988;stroke-linecap:round;stroke-linejoin:round;stroke-miterlimit:4;stroke-dasharray:none;stroke-opacity:1" /><use
   transform="translate(134.34155,173.78051)"
   id="use3238"
   x="0"
   y="0"
   width="167.08643"
   height="242.66748"
   xlink:href="#path3230" /></svg>