<?xml version="1.0" encoding="UTF-8" standalone="no"?>
<!-- Created with Inkscape (http://www.inkscape.org/) -->
<svg
   xmlns:svg="http://www.w3.org/2000/svg"
   xmlns="http://www.w3.org/2000/svg"
   xmlns:xlink="http://www.w3.org/1999/xlink"
   version="1.0"
   width="208"
   height="303"
   viewBox="0 0 167.08643 242.66748"
   id="svg2"
   xml:space="preserve"><defs
   id="defs88" />
	<path
   d="M 166.83643,235.89281 C 166.83643,239.68452 163.75049,242.78371 159.96632,242.78371 L 7.1113279,242.78371 C 3.3359375,242.78371 0.25,239.68452 0.25,235.89281 L 0.25,6.7746656 C 0.25,2.9883456 3.3359375,-0.11623093 7.1113279,-0.11623093 L 159.96632,-0.11623093 C 163.75049,-0.11623093 166.83643,2.9883456 166.83643,6.7746656 L 166.83643,235.89281 L 166.83643,235.89281 z"
   id="path5"
   style="fill:#ffffff;fill-rule:nonzero;stroke:#000000;stroke-width:0.5;stroke-miterlimit:4" /><use
   transform="matrix(-1,0,0,-1,167.08643,242.66748)"
   id="use2368"
   x="0"
   y="0"
   width="167.08643"
   height="242.66748"
   xlink:href="#g31" /><g
   transform="translate(1.3216589,0.2158208)"
   id="g31"
   style="fill:#e61408;fill-opacity:1;fill-rule:nonzero;stroke:#000000;stroke-miterlimit:4">
			<path
   d="M 12.613281,25.827148 L 12.613281,24.358398 L 14.113281,24.358398 L 14.113281,9.7602539 L 12.425781,11.983887 L 12.425781,10.183105 L 14.454102,7.4521484 L 16.144531,7.4521484 L 16.144531,24.358398 L 17.675781,24.358398 L 17.675781,25.827148 L 12.613281,25.827148 z"
   id="path33"
   style="fill:#e61408;fill-opacity:1;stroke:none" />
		</g>
<path
   d="M 14.006104,29.437331 C 12.71087,29.440118 11.65762,30.547203 11.666185,31.905566 C 11.684344,34.786005 15.302176,36.86912 16.368667,39.144217 C 17.435157,36.86912 21.060538,34.786005 21.078696,31.905566 C 21.08726,30.547203 20.034011,29.440118 18.738778,29.437331 C 17.443544,29.434685 16.372483,30.537009 16.368667,31.898019 C 16.36485,30.537009 15.301338,29.434685 14.006104,29.437331 z"
   id="path2225"
   style="fill:#e61408;fill-rule:nonzero;stroke:none;stroke-miterlimit:4" /><use
   transform="matrix(1,0,0,-1,134.34155,242.36206)"
   id="use2231"
   x="0"
   y="0"
   width="167.08643"
   height="242.66748"
   xlink:href="#path2225" /></svg>