<?xml version="1.0" encoding="UTF-8" standalone="no"?>
<!-- Created with Inkscape (http://www.inkscape.org/) -->
<svg
   xmlns:svg="http://www.w3.org/2000/svg"
   xmlns="http://www.w3.org/2000/svg"
   xmlns:xlink="http://www.w3.org/1999/xlink"
   version="1.0"
   width="208"
   height="303"
   viewBox="0 0 167.08643 242.66748"
   id="svg2"
   xml:space="preserve"><defs
   id="defs88" />
	<path
   d="M 166.83643,235.89281 C 166.83643,239.68452 163.75049,242.78371 159.96632,242.78371 L 7.1113279,242.78371 C 3.3359375,242.78371 0.25,239.68452 0.25,235.89281 L 0.25,6.7746656 C 0.25,2.9883456 3.3359375,-0.11623093 7.1113279,-0.11623093 L 159.96632,-0.11623093 C 163.75049,-0.11623093 166.83643,2.9883456 166.83643,6.7746656 L 166.83643,235.89281 L 166.83643,235.89281 z"
   id="path5"
   style="fill:#ffffff;fill-rule:nonzero;stroke:#000000;stroke-width:0.5;stroke-miterlimit:4" /><use
   transform="matrix(-1,0,0,-1,167.08643,242.66748)"
   id="use2368"
   x="0"
   y="0"
   width="167.08643"
   height="242.66748"
   xlink:href="#g31" /><g
   transform="translate(1.3216589,0.2158208)"
   id="g31"
   style="fill-rule:nonzero;stroke:#000000;stroke-miterlimit:4">
			<path
   d="M 12.613281,25.827148 L 12.613281,24.358398 L 14.113281,24.358398 L 14.113281,9.7602539 L 12.425781,11.983887 L 12.425781,10.183105 L 14.454102,7.4521484 L 16.144531,7.4521484 L 16.144531,24.358398 L 17.675781,24.358398 L 17.675781,25.827148 L 12.613281,25.827148 z"
   id="path33"
   style="stroke:none" />
		</g>
<path
   d="M 16.372445,29.321959 C 15.415205,31.044753 12.155985,32.623058 12.146875,34.800104 C 12.146875,35.828088 13.092545,36.656335 14.259665,36.656335 C 15.003165,36.656335 15.663835,36.322657 16.040435,35.811222 C 15.883095,37.291419 15.461085,38.945692 13.920105,39.259585 L 16.372445,39.259585 L 18.824785,39.259585 C 17.283805,38.945692 16.861785,37.291419 16.704455,35.811222 C 17.081055,36.322657 17.741725,36.656335 18.485225,36.656335 C 19.652345,36.656335 20.598005,35.828088 20.598005,34.800104 C 20.588905,32.623058 17.329685,31.044753 16.372445,29.321959 z"
   id="path2273"
   style="fill-rule:nonzero;stroke:none;stroke-miterlimit:4" /><use
   transform="matrix(1,0,0,-1,134.34155,242.36206)"
   id="use2277"
   x="0"
   y="0"
   width="167.08643"
   height="242.66748"
   xlink:href="#path2273" /></svg>