<?xml version="1.0" encoding="UTF-8" standalone="no"?>
<!-- Created with Inkscape (http://www.inkscape.org/) -->
<svg
   xmlns:svg="http://www.w3.org/2000/svg"
   xmlns="http://www.w3.org/2000/svg"
   xmlns:xlink="http://www.w3.org/1999/xlink"
   version="1.0"
   width="208"
   height="303"
   viewBox="0 0 167.08643 242.66748"
   id="svg2"
   xml:space="preserve"><defs
   id="defs88" />
	<path
   d="M 166.83643,235.89281 C 166.83643,239.68452 163.75049,242.78371 159.96632,242.78371 L 7.1113279,242.78371 C 3.3359375,242.78371 0.25,239.68452 0.25,235.89281 L 0.25,6.7746663 C 0.25,2.9883463 3.3359375,-0.11623023 7.1113279,-0.11623023 L 159.96632,-0.11623023 C 163.75049,-0.11623023 166.83643,2.9883463 166.83643,6.7746663 L 166.83643,235.89281 L 166.83643,235.89281 z"
   id="path5"
   style="fill:#ffffff;fill-rule:nonzero;stroke:#000000;stroke-width:0.5;stroke-miterlimit:4" /><g
   transform="translate(1.6190219,4.44338e-2)"
   id="g2429"
   style="fill:#e61408;fill-opacity:1;fill-rule:nonzero;stroke:#000000;stroke-miterlimit:4">
			<path
   d="M 12.487793,12.404785 L 11.831543,12.404785 L 11.831543,8.5297852 C 12.274902,8.2280274 12.711914,8.0014649 13.143066,7.8500977 C 13.574219,7.6992188 14.007324,7.6235352 14.442871,7.6235352 C 15.466309,7.6235352 16.266113,8.09375 16.842285,9.0332032 C 17.418457,9.9731446 17.706543,11.281738 17.706543,12.959473 C 17.706543,14.153809 17.547852,15.224609 17.231445,16.172363 C 16.915039,17.120117 16.311523,18.243164 15.421875,19.541992 L 13.178711,22.842285 L 16.987793,22.842285 L 16.987793,20.717285 L 17.737793,20.717285 L 17.737793,25.998535 L 11.769043,25.998535 L 11.769043,23.057129 L 12.960449,21.212402 C 13.986816,19.638183 14.669922,18.29834 15.009766,17.191894 C 15.349121,16.085937 15.519043,14.794434 15.519043,13.316894 C 15.519043,11.92041 15.389648,10.856445 15.130859,10.125976 C 14.87207,9.3955077 14.496582,9.0297852 14.003418,9.0297852 C 13.574707,9.0297852 13.233399,9.3183594 12.978516,9.8950196 C 12.723633,10.47168 12.560059,11.308106 12.487793,12.404785 z"
   id="path2431"
   style="fill:#e61408;fill-opacity:1;stroke:none" />
		</g><g
   transform="translate(-0.9061249,4.54112e-2)"
   id="g2433"
   style="fill:#e61408;fill-opacity:1;fill-rule:nonzero;stroke:#000000;stroke-miterlimit:4">
			<path
   d="M 153.88574,230.17285 L 154.54199,230.17285 L 154.54199,234.04785 C 154.09863,234.35059 153.66113,234.57715 153.23047,234.72754 C 152.7998,234.87891 152.36621,234.9541 151.93066,234.9541 C 150.90723,234.9541 150.10742,234.48438 149.53125,233.54492 C 148.95508,232.60449 148.66699,231.2959 148.66699,229.61816 C 148.66699,228.4248 148.8252,227.35352 149.1416,226.40527 C 149.45801,225.45801 150.06152,224.33496 150.95215,223.03613 L 153.19434,219.73535 L 149.38574,219.73535 L 149.38574,221.86035 L 148.63574,221.86035 L 148.63574,216.5791 L 154.60449,216.5791 L 154.60449,219.52051 L 153.41309,221.36621 C 152.38672,222.94043 151.7041,224.28027 151.36426,225.38574 C 151.02441,226.49219 150.85449,227.78418 150.85449,229.26074 C 150.85449,230.65723 150.9834,231.72168 151.24316,232.45215 C 151.50098,233.18262 151.87695,233.54785 152.37012,233.54785 C 152.79883,233.54785 153.13965,233.25977 153.39551,232.68262 C 153.64941,232.10645 153.81348,231.27051 153.88574,230.17285 L 153.88574,230.17285 z"
   id="path2435"
   style="fill:#e61408;fill-opacity:1;stroke:none" />
		</g>
<path
   d="M 14.006095,29.437331 C 12.710865,29.440118 11.657615,30.547203 11.666185,31.905566 C 11.684335,34.786005 15.302175,36.86912 16.368665,39.144217 C 17.435155,36.86912 21.060535,34.786005 21.078695,31.905566 C 21.087255,30.547203 20.034005,29.440118 18.738775,29.437331 C 17.443535,29.434685 16.372475,30.537009 16.368665,31.898019 C 16.364845,30.537009 15.301335,29.434685 14.006095,29.437331 z"
   id="path2225"
   style="fill:#e61408;fill-rule:nonzero;stroke:none;stroke-miterlimit:4" /><use
   transform="matrix(1,0,0,-1,134.34155,242.36206)"
   id="use2231"
   x="0"
   y="0"
   width="167.08643"
   height="242.66748"
   xlink:href="#path2225" /></svg>