<?xml version="1.0" encoding="UTF-8" standalone="no"?>
<!-- Created with Inkscape (http://www.inkscape.org/) -->
<svg
   xmlns:svg="http://www.w3.org/2000/svg"
   xmlns="http://www.w3.org/2000/svg"
   xmlns:xlink="http://www.w3.org/1999/xlink"
   version="1.0"
   width="208"
   height="303"
   viewBox="0 0 167.08643 242.66748"
   id="svg2"
   xml:space="preserve"><defs
   id="defs88" />
	<path
   d="M 166.83643,235.89281 C 166.83643,239.68452 163.75049,242.78371 159.96632,242.78371 L 7.1113279,242.78371 C 3.3359375,242.78371 0.25,239.68452 0.25,235.89281 L 0.25,6.7746664 C 0.25,2.9883464 3.3359375,-0.11623011 7.1113279,-0.11623011 L 159.96632,-0.11623011 C 163.75049,-0.11623011 166.83643,2.9883464 166.83643,6.7746664 L 166.83643,235.89281 L 166.83643,235.89281 z"
   id="path5"
   style="fill:#ffffff;fill-rule:nonzero;stroke:#000000;stroke-width:0.5;stroke-miterlimit:4" /><g
   transform="translate(1.3519319,4.44338e-2)"
   id="g3075"
   style="fill:#e61408;fill-opacity:1;fill-rule:nonzero;stroke:#000000;stroke-miterlimit:4">
			<path
   d="M 18.223633,25.998535 L 13.817383,25.998535 L 13.817383,24.529785 L 15.004883,24.529785 L 15.004883,21.248535 L 11.629883,21.248535 L 11.629883,19.858399 L 15.004395,7.6235352 L 17.036133,7.6235352 L 17.036133,19.686035 L 18.411133,19.686035 L 18.411133,21.248535 L 17.036133,21.248535 L 17.036133,24.529785 L 18.223633,24.529785 L 18.223633,25.998535 z M 15.004883,19.686035 L 15.004883,10.92334 L 12.595215,19.686035 L 15.004883,19.686035 z"
   id="path3077"
   style="fill:#e61408;fill-opacity:1;stroke:none" />
		</g><g
   transform="translate(-0.9862049,4.54112e-2)"
   id="g3079"
   style="fill:#e61408;fill-opacity:1;fill-rule:nonzero;stroke:#000000;stroke-miterlimit:4">
			<path
   d="M 148.49707,216.5791 L 152.90332,216.5791 L 152.90332,218.04785 L 151.71582,218.04785 L 151.71582,221.3291 L 155.09082,221.3291 L 155.09082,222.71973 L 151.71582,234.9541 L 149.68457,234.9541 L 149.68457,222.8916 L 148.30957,222.8916 L 148.30957,221.3291 L 149.68457,221.3291 L 149.68457,218.04785 L 148.49707,218.04785 L 148.49707,216.5791 z M 151.71582,222.8916 L 151.71582,231.65527 L 154.125,222.8916 L 151.71582,222.8916 z"
   id="path3081"
   style="fill:#e61408;fill-opacity:1;stroke:none" />
		</g>
<path
   d="M 16.37244,29.520358 C 16.36459,29.789714 16.20473,30.799864 14.46276,32.471673 C 12.78625,34.080673 12.00337,34.273829 11.76808,34.290773 C 12.00337,34.307714 12.78625,34.500876 14.46276,36.10987 C 16.20473,37.781679 16.36459,38.791826 16.37244,39.061185 C 16.38029,38.791829 16.54015,37.781682 18.28212,36.10987 C 19.95863,34.500873 20.74151,34.307711 20.9768,34.290773 C 20.74151,34.273832 19.95863,34.08067 18.28212,32.471673 C 16.54015,30.799867 16.38029,29.789717 16.37244,29.520358 z"
   id="path3230"
   style="fill:#e61408;fill-opacity:1;stroke:none;stroke-width:1.49999988;stroke-linecap:round;stroke-linejoin:round;stroke-miterlimit:4;stroke-dasharray:none;stroke-opacity:1" /><use
   transform="translate(134.34155,173.78052)"
   id="use3238"
   x="0"
   y="0"
   width="167.08643"
   height="242.66748"
   xlink:href="#path3230" /></svg>