<?xml version="1.0" encoding="UTF-8" standalone="no"?>
<!-- Created with Inkscape (http://www.inkscape.org/) -->
<svg
   xmlns:svg="http://www.w3.org/2000/svg"
   xmlns="http://www.w3.org/2000/svg"
   xmlns:xlink="http://www.w3.org/1999/xlink"
   version="1.0"
   width="208"
   height="303"
   viewBox="0 0 167.08643 242.66748"
   id="svg2"
   xml:space="preserve"><defs
   id="defs88" />
	<path
   d="M 166.83643,235.89281 C 166.83643,239.68452 163.75049,242.78371 159.96632,242.78371 L 7.1113279,242.78371 C 3.3359375,242.78371 0.25,239.68452 0.25,235.89281 L 0.25,6.7746664 C 0.25,2.9883464 3.3359375,-0.11623011 7.1113279,-0.11623011 L 159.96632,-0.11623011 C 163.75049,-0.11623011 166.83643,2.9883464 166.83643,6.7746664 L 166.83643,235.89281 L 166.83643,235.89281 z"
   id="path5"
   style="fill:#ffffff;fill-rule:nonzero;stroke:#000000;stroke-width:0.5;stroke-miterlimit:4" /><g
   transform="translate(1.3519319,4.44338e-2)"
   id="g3075"
   style="fill:#e61408;fill-opacity:1;fill-rule:nonzero;stroke:#000000;stroke-miterlimit:4">
			<path
   d="M 18.223633,25.998535 L 13.817383,25.998535 L 13.817383,24.529785 L 15.004883,24.529785 L 15.004883,21.248535 L 11.629883,21.248535 L 11.629883,19.858399 L 15.004395,7.6235352 L 17.036133,7.6235352 L 17.036133,19.686035 L 18.411133,19.686035 L 18.411133,21.248535 L 17.036133,21.248535 L 17.036133,24.529785 L 18.223633,24.529785 L 18.223633,25.998535 z M 15.004883,19.686035 L 15.004883,10.92334 L 12.595215,19.686035 L 15.004883,19.686035 z"
   id="path3077"
   style="fill:#e61408;fill-opacity:1;stroke:none" />
		</g><g
   transform="translate(-0.9862049,4.54112e-2)"
   id="g3079"
   style="fill:#e61408;fill-opacity:1;fill-rule:nonzero;stroke:#000000;stroke-miterlimit:4">
			<path
   d="M 148.49707,216.5791 L 152.90332,216.5791 L 152.90332,218.04785 L 151.71582,218.04785 L 151.71582,221.3291 L 155.09082,221.3291 L 155.09082,222.71973 L 151.71582,234.9541 L 149.68457,234.9541 L 149.68457,222.8916 L 148.30957,222.8916 L 148.30957,221.3291 L 149.68457,221.3291 L 149.68457,218.04785 L 148.49707,218.04785 L 148.49707,216.5791 z M 151.71582,222.8916 L 151.71582,231.65527 L 154.125,222.8916 L 151.71582,222.8916 z"
   id="path3081"
   style="fill:#e61408;fill-opacity:1;stroke:none" />
		</g>
<path
   d="M 14.006095,29.437331 C 12.710865,29.440118 11.657615,30.547203 11.666185,31.905566 C 11.684335,34.786005 15.302175,36.86912 16.368665,39.144217 C 17.435155,36.86912 21.060535,34.786005 21.078695,31.905566 C 21.087255,30.547203 20.034005,29.440118 18.738775,29.437331 C 17.443535,29.434685 16.372475,30.537009 16.368665,31.898019 C 16.364845,30.537009 15.301335,29.434685 14.006095,29.437331 z"
   id="path2225"
   style="fill:#e61408;fill-rule:nonzero;stroke:none;stroke-miterlimit:4" /><use
   transform="matrix(1,0,0,-1,134.34155,242.36206)"
   id="use2231"
   x="0"
   y="0"
   width="167.08643"
   height="242.66748"
   xlink:href="#path2225" /></svg>