<?xml version="1.0" encoding="UTF-8" standalone="no"?>
<!-- Created with Inkscape (http://www.inkscape.org/) -->
<svg
   xmlns:svg="http://www.w3.org/2000/svg"
   xmlns="http://www.w3.org/2000/svg"
   version="1.0"
   width="208"
   height="303"
   viewBox="0 0 167.08643 242.66748"
   id="svg2"
   xml:space="preserve"><defs
   id="defs88" />
	<path
   d="M 166.83643,235.89281 C 166.83643,239.68452 163.75049,242.78371 159.96632,242.78371 L 7.1113279,242.78371 C 3.3359375,242.78371 0.25,239.68452 0.25,235.89281 L 0.25,6.7746664 C 0.25,2.9883464 3.3359375,-0.11623011 7.1113279,-0.11623011 L 159.96632,-0.11623011 C 163.75049,-0.11623011 166.83643,2.9883464 166.83643,6.7746664 L 166.83643,235.89281 L 166.83643,235.89281 z"
   id="path5"
   style="fill:#ffffff;fill-rule:nonzero;stroke:#000000;stroke-width:0.5;stroke-miterlimit:4" /><g
   transform="translate(1.3421669,-0.133789)"
   id="g3420"
   style="fill-rule:nonzero;stroke:#000000;stroke-miterlimit:4">
			<path
   d="M 17.374023,7.8017578 L 17.374023,10.958008 L 13.092773,10.958008 L 13.092773,14.932617 C 13.333008,14.518066 13.597656,14.205078 13.88623,13.993652 C 14.174805,13.782715 14.479492,13.676758 14.800293,13.676758 C 15.794433,13.676758 16.575684,14.23877 17.14502,15.361817 C 17.714356,16.484863 17.999023,18.012695 17.999023,19.944824 C 17.999023,21.909668 17.713379,23.439453 17.14209,24.53418 C 16.570801,25.629395 15.766113,26.176758 14.728516,26.176758 C 14.293945,26.176758 13.859375,26.095215 13.424805,25.933106 C 12.990234,25.770508 12.536133,25.518555 12.061523,25.176758 L 12.061523,21.239258 L 12.717773,21.239258 C 12.741699,22.428711 12.880859,23.314453 13.134766,23.896973 C 13.388672,24.479492 13.76123,24.770508 14.252441,24.770508 C 14.78418,24.770508 15.176758,24.374512 15.430664,23.582031 C 15.68457,22.789551 15.811523,21.580567 15.811523,19.955567 C 15.811523,18.354981 15.687012,17.158203 15.437988,16.365723 C 15.188965,15.573242 14.811523,15.176758 14.305664,15.176758 C 14.032227,15.176758 13.789551,15.303223 13.57666,15.555664 C 13.36377,15.808594 13.165039,16.199219 12.980469,16.728516 L 12.436523,16.728516 L 12.436523,7.8017578 L 17.374024,7.8017578 L 17.374023,7.8017578 z"
   id="path3422"
   style="stroke:none" />
		</g><g
   transform="translate(-0.9022199,0.5546912)"
   id="g3424"
   style="fill-rule:nonzero;stroke:#000000;stroke-miterlimit:4">
			<path
   d="M 149.27246,234.44482 L 149.27246,231.28857 L 153.55371,231.28857 L 153.55371,227.31396 C 153.31348,227.729 153.04785,228.04248 152.75977,228.25342 C 152.47168,228.46436 152.16699,228.56982 151.8457,228.56982 C 150.85156,228.56982 150.07031,228.0083 149.50098,226.88525 C 148.93164,225.76221 148.64746,224.23389 148.64746,222.30225 C 148.64746,220.3374 148.93262,218.80811 149.50391,217.7124 C 150.0752,216.61768 150.87988,216.06982 151.91699,216.06982 C 152.35254,216.06982 152.78613,216.15186 153.22168,216.31396 C 153.65527,216.47607 154.11035,216.72803 154.58496,217.06982 L 154.58496,221.00732 L 153.92871,221.00732 C 153.9043,219.81787 153.76465,218.93311 153.51074,218.3501 C 153.25684,217.76709 152.88477,217.47607 152.39355,217.47607 C 151.8623,217.47607 151.46973,217.87256 151.21582,218.66553 C 150.96191,219.45752 150.83496,220.6665 150.83496,222.2915 C 150.83496,223.89209 150.95898,225.08936 151.20801,225.88135 C 151.45703,226.67334 151.83496,227.06982 152.34082,227.06982 C 152.61426,227.06982 152.85645,226.94385 153.06934,226.69092 C 153.28223,226.43896 153.48145,226.04834 153.66504,225.51904 L 154.20996,225.51904 L 154.20996,234.44482 L 149.27246,234.44482 L 149.27246,234.44482 z"
   id="path3426"
   style="stroke:none" />
		</g>
<g
   transform="translate(1.0142748e-2,0.2128908)"
   id="g2189"
   style="fill-rule:nonzero;stroke:none;stroke-miterlimit:4">
			<g
   id="g2191">
				<path
   d="M 18.934082,39.283691 C 17.838867,39.285156 17.262695,38.116699 16.959961,36.948731 C 16.657715,35.780274 16.628906,34.611816 16.628906,34.611816 L 16.070312,34.605957 C 16.070312,34.605957 15.965332,39.280762 13.774902,39.282715 L 18.934082,39.283691 L 18.934082,39.283691 z"
   id="path2193" />
			</g>
			<path
   d="M 20.788086,34.61084 C 20.77832,32.330566 17.364258,30.676758 16.361816,28.87207 C 15.359863,30.676758 11.946289,32.330566 11.936523,34.61084 C 11.932129,35.6875 12.927246,36.55957 14.149414,36.55957 C 15.371582,36.55957 16.361816,35.6875 16.361816,34.61084 C 16.361816,35.6875 17.353027,36.55957 18.575195,36.55957 C 19.797363,36.55957 20.788086,35.6875 20.788086,34.61084 L 20.788086,34.61084 z"
   id="path2195" />
		</g><g
   transform="translate(0.2217961,-8.5443782e-2)"
   id="g2197"
   style="fill-rule:nonzero;stroke:none;stroke-miterlimit:4">
			<g
   id="g2199">
				<path
   d="M 147.92041,202.95068 C 149.01514,202.94873 149.59229,204.11768 149.89404,205.28564 C 150.1958,206.45459 150.2251,207.62256 150.2251,207.62256 L 150.78369,207.62842 C 150.78369,207.62842 150.88916,202.95361 153.07861,202.95166 L 147.92041,202.95068 L 147.92041,202.95068 z"
   id="path2201" />
			</g>
			<path
   d="M 146.06689,207.62354 C 146.07666,209.90381 149.48975,211.55811 150.49268,213.36279 C 151.49463,211.55811 154.90771,209.90381 154.91748,207.62354 C 154.92236,206.54639 153.92627,205.67529 152.70459,205.67529 C 151.48291,205.67529 150.49268,206.54639 150.49268,207.62354 C 150.49268,206.54639 149.50049,205.67529 148.27979,205.67529 C 147.05713,205.67529 146.06689,206.54639 146.06689,207.62354 L 146.06689,207.62354 z"
   id="path2203" />
		</g></svg>