<?xml version="1.0" encoding="UTF-8" standalone="no"?>
<!-- Created with Inkscape (http://www.inkscape.org/) -->
<svg
   xmlns:svg="http://www.w3.org/2000/svg"
   xmlns="http://www.w3.org/2000/svg"
   xmlns:xlink="http://www.w3.org/1999/xlink"
   version="1.0"
   width="208"
   height="303"
   viewBox="0 0 167.08643 242.66748"
   id="svg2"
   xml:space="preserve"><defs
   id="defs88" />
	<path
   d="M 166.83643,235.89281 C 166.83643,239.68452 163.75049,242.78371 159.96632,242.78371 L 7.1113279,242.78371 C 3.3359375,242.78371 0.25,239.68452 0.25,235.89281 L 0.25,6.7746664 C 0.25,2.9883464 3.3359375,-0.11623011 7.1113279,-0.11623011 L 159.96632,-0.11623011 C 163.75049,-0.11623011 166.83643,2.9883464 166.83643,6.7746664 L 166.83643,235.89281 L 166.83643,235.89281 z"
   id="path5"
   style="fill:#ffffff;fill-rule:nonzero;stroke:#000000;stroke-width:0.5;stroke-miterlimit:4" /><g
   transform="translate(1.3421669,-0.133789)"
   id="g3420"
   style="fill:#e61408;fill-opacity:1;fill-rule:nonzero;stroke:#000000;stroke-miterlimit:4">
			<path
   d="M 17.374023,7.8017578 L 17.374023,10.958008 L 13.092773,10.958008 L 13.092773,14.932617 C 13.333008,14.518066 13.597656,14.205078 13.88623,13.993652 C 14.174805,13.782715 14.479492,13.676758 14.800293,13.676758 C 15.794433,13.676758 16.575684,14.23877 17.14502,15.361817 C 17.714356,16.484863 17.999023,18.012695 17.999023,19.944824 C 17.999023,21.909668 17.713379,23.439453 17.14209,24.53418 C 16.570801,25.629395 15.766113,26.176758 14.728516,26.176758 C 14.293945,26.176758 13.859375,26.095215 13.424805,25.933106 C 12.990234,25.770508 12.536133,25.518555 12.061523,25.176758 L 12.061523,21.239258 L 12.717773,21.239258 C 12.741699,22.428711 12.880859,23.314453 13.134766,23.896973 C 13.388672,24.479492 13.76123,24.770508 14.252441,24.770508 C 14.78418,24.770508 15.176758,24.374512 15.430664,23.582031 C 15.68457,22.789551 15.811523,21.580567 15.811523,19.955567 C 15.811523,18.354981 15.687012,17.158203 15.437988,16.365723 C 15.188965,15.573242 14.811523,15.176758 14.305664,15.176758 C 14.032227,15.176758 13.789551,15.303223 13.57666,15.555664 C 13.36377,15.808594 13.165039,16.199219 12.980469,16.728516 L 12.436523,16.728516 L 12.436523,7.8017578 L 17.374024,7.8017578 L 17.374023,7.8017578 z"
   id="path3422"
   style="fill:#e61408;fill-opacity:1;stroke:none" />
		</g><g
   transform="translate(-0.9022199,0.5546912)"
   id="g3424"
   style="fill:#e61408;fill-opacity:1;fill-rule:nonzero;stroke:#000000;stroke-miterlimit:4">
			<path
   d="M 149.27246,234.44482 L 149.27246,231.28857 L 153.55371,231.28857 L 153.55371,227.31396 C 153.31348,227.729 153.04785,228.04248 152.75977,228.25342 C 152.47168,228.46436 152.16699,228.56982 151.8457,228.56982 C 150.85156,228.56982 150.07031,228.0083 149.50098,226.88525 C 148.93164,225.76221 148.64746,224.23389 148.64746,222.30225 C 148.64746,220.3374 148.93262,218.80811 149.50391,217.7124 C 150.0752,216.61768 150.87988,216.06982 151.91699,216.06982 C 152.35254,216.06982 152.78613,216.15186 153.22168,216.31396 C 153.65527,216.47607 154.11035,216.72803 154.58496,217.06982 L 154.58496,221.00732 L 153.92871,221.00732 C 153.9043,219.81787 153.76465,218.93311 153.51074,218.3501 C 153.25684,217.76709 152.88477,217.47607 152.39355,217.47607 C 151.8623,217.47607 151.46973,217.87256 151.21582,218.66553 C 150.96191,219.45752 150.83496,220.6665 150.83496,222.2915 C 150.83496,223.89209 150.95898,225.08936 151.20801,225.88135 C 151.45703,226.67334 151.83496,227.06982 152.34082,227.06982 C 152.61426,227.06982 152.85645,226.94385 153.06934,226.69092 C 153.28223,226.43896 153.48145,226.04834 153.66504,225.51904 L 154.20996,225.51904 L 154.20996,234.44482 L 149.27246,234.44482 L 149.27246,234.44482 z"
   id="path3426"
   style="fill:#e61408;fill-opacity:1;stroke:none" />
		</g>
<path
   d="M 14.006095,29.437331 C 12.710865,29.440118 11.657615,30.547203 11.666185,31.905566 C 11.684335,34.786005 15.302175,36.86912 16.368665,39.144217 C 17.435155,36.86912 21.060535,34.786005 21.078695,31.905566 C 21.087255,30.547203 20.034005,29.440118 18.738775,29.437331 C 17.443535,29.434685 16.372475,30.537009 16.368665,31.898019 C 16.364845,30.537009 15.301335,29.434685 14.006095,29.437331 z"
   id="path2225"
   style="fill:#e61408;fill-rule:nonzero;stroke:none;stroke-miterlimit:4" /><use
   transform="matrix(1,0,0,-1,134.34155,242.36206)"
   id="use2231"
   x="0"
   y="0"
   width="167.08643"
   height="242.66748"
   xlink:href="#path2225" /></svg>