<?xml version="1.0" encoding="UTF-8" standalone="no"?>
<!-- Created with Inkscape (http://www.inkscape.org/) -->
<svg
   xmlns:svg="http://www.w3.org/2000/svg"
   xmlns="http://www.w3.org/2000/svg"
   xmlns:xlink="http://www.w3.org/1999/xlink"
   version="1.0"
   width="208"
   height="303"
   viewBox="0 0 167.08643 242.66748"
   id="svg2"
   xml:space="preserve"><defs
   id="defs88" />
	<path
   d="M 166.83643,235.89281 C 166.83643,239.68452 163.75049,242.78371 159.96632,242.78371 L 7.1113279,242.78371 C 3.3359375,242.78371 0.25,239.68452 0.25,235.89281 L 0.25,6.7746664 C 0.25,2.9883464 3.3359375,-0.11623011 7.1113279,-0.11623011 L 159.96632,-0.11623011 C 163.75049,-0.11623011 166.83643,2.9883464 166.83643,6.7746664 L 166.83643,235.89281 L 166.83643,235.89281 z"
   id="path5"
   style="fill:#ffffff;fill-rule:nonzero;stroke:#000000;stroke-width:0.5;stroke-miterlimit:4" /><g
   transform="translate(1.4666779,3.808595e-2)"
   id="g4248"
   style="fill:#e61408;fill-opacity:1;fill-rule:nonzero;stroke:#000000;stroke-miterlimit:4">
			<path
   d="M 17.858887,10.869629 L 14.538086,25.833008 L 13.439453,25.833008 L 16.675293,11.208008 L 12.702637,11.208008 L 12.702637,13.645508 L 11.952637,13.645508 L 11.952637,7.8017578 L 17.858887,7.8017578 L 17.858887,10.869629 L 17.858887,10.869629 z"
   id="path4250"
   style="fill:#e61408;fill-opacity:1;stroke:none" />
		</g><g
   transform="translate(-0.8709749,0.3828162)"
   id="g4252"
   style="fill:#e61408;fill-opacity:1;fill-rule:nonzero;stroke:#000000;stroke-miterlimit:4">
			<path
   d="M 148.63184,231.37744 L 151.95215,216.41357 L 153.05176,216.41357 L 149.81543,231.03857 L 153.78809,231.03857 L 153.78809,228.60107 L 154.53809,228.60107 L 154.53809,234.44482 L 148.63184,234.44482 L 148.63184,231.37744 L 148.63184,231.37744 z"
   id="path4254"
   style="fill:#e61408;fill-opacity:1;stroke:none" />
		</g>
<path
   d="M 14.0061,29.437331 C 12.71087,29.440118 11.65762,30.547203 11.66618,31.905566 C 11.68434,34.786005 15.30218,36.86912 16.36867,39.144217 C 17.43516,36.86912 21.06054,34.786005 21.0787,31.905566 C 21.08726,30.547203 20.03401,29.440118 18.73878,29.437331 C 17.44354,29.434685 16.37248,30.537009 16.36867,31.898019 C 16.36485,30.537009 15.30134,29.434685 14.0061,29.437331 z"
   id="path2225"
   style="fill:#e61408;fill-rule:nonzero;stroke:none;stroke-miterlimit:4" /><use
   transform="matrix(1,0,0,-1,134.34155,242.36206)"
   id="use2231"
   x="0"
   y="0"
   width="167.08643"
   height="242.66748"
   xlink:href="#path2225" /></svg>