<?xml version="1.0" encoding="UTF-8" standalone="no"?>
<!-- Created with Inkscape (http://www.inkscape.org/) -->
<svg
   xmlns:svg="http://www.w3.org/2000/svg"
   xmlns="http://www.w3.org/2000/svg"
   version="1.0"
   width="208"
   height="303"
   viewBox="0 0 167.08643 242.66748"
   id="svg2"
   xml:space="preserve"><defs
   id="defs88" />
	<path
   d="M 166.83643,235.89281 C 166.83643,239.68452 163.75049,242.78371 159.96632,242.78371 L 7.1113279,242.78371 C 3.3359375,242.78371 0.25,239.68452 0.25,235.89281 L 0.25,6.7746664 C 0.25,2.9883464 3.3359375,-0.11623011 7.1113279,-0.11623011 L 159.96632,-0.11623011 C 163.75049,-0.11623011 166.83643,2.9883464 166.83643,6.7746664 L 166.83643,235.89281 L 166.83643,235.89281 z"
   id="path5"
   style="fill:#ffffff;fill-rule:nonzero;stroke:#000000;stroke-width:0.5;stroke-miterlimit:4" /><g
   transform="translate(1.4666779,3.808595e-2)"
   id="g4248"
   style="fill-rule:nonzero;stroke:#000000;stroke-miterlimit:4">
			<path
   d="M 17.858887,10.869629 L 14.538086,25.833008 L 13.439453,25.833008 L 16.675293,11.208008 L 12.702637,11.208008 L 12.702637,13.645508 L 11.952637,13.645508 L 11.952637,7.8017578 L 17.858887,7.8017578 L 17.858887,10.869629 L 17.858887,10.869629 z"
   id="path4250"
   style="stroke:none" />
		</g><g
   transform="translate(-0.8709749,0.3828162)"
   id="g4252"
   style="fill-rule:nonzero;stroke:#000000;stroke-miterlimit:4">
			<path
   d="M 148.63184,231.37744 L 151.95215,216.41357 L 153.05176,216.41357 L 149.81543,231.03857 L 153.78809,231.03857 L 153.78809,228.60107 L 154.53809,228.60107 L 154.53809,234.44482 L 148.63184,234.44482 L 148.63184,231.37744 L 148.63184,231.37744 z"
   id="path4254"
   style="stroke:none" />
		</g><path
   d="M 150.73654,213.0401 C 151.87847,213.0401 152.80375,212.11482 152.80375,210.97289 C 152.80375,210.3835 152.55321,209.8539 152.15728,209.47699 C 151.85132,209.18573 151.41544,208.52555 151.27026,207.99612 C 151.55345,208.16678 151.80854,208.36129 151.96183,208.52232 C 152.33875,208.91825 152.86835,209.16127 153.45774,209.16127 C 154.59967,209.16127 155.52494,208.23599 155.52494,207.09406 C 155.52494,205.95214 154.59966,205.02686 153.45774,205.02686 C 152.86835,205.02686 152.33875,205.27739 151.96183,205.67333 C 151.8002,205.84312 151.52696,206.05796 151.22515,206.23711 C 151.26749,204.34125 151.91814,203.10248 153.10443,203.10248 C 153.10443,203.10248 148.36113,203.10248 148.36113,203.10248 C 149.55058,203.10248 150.20877,204.34774 150.24793,206.25215 C 149.92976,206.06953 149.634,205.84966 149.46615,205.67333 C 149.08924,205.27739 148.55963,205.02686 147.97024,205.02686 C 146.82833,205.02686 145.90304,205.95214 145.90304,207.09406 C 145.90304,208.23599 146.82833,209.16127 147.97024,209.16127 C 148.55962,209.16127 149.08924,208.91825 149.46615,208.52232 C 149.62576,208.35465 149.90297,208.15581 150.20283,207.98108 C 150.06219,208.51312 149.6173,209.18282 149.30829,209.47699 C 148.91236,209.8539 148.66933,210.38351 148.66933,210.97289 C 148.66933,212.11482 149.59461,213.0401 150.73654,213.0401 z"
   id="use2374"
   style="fill:#000000;fill-opacity:1;stroke:none;stroke-width:1.5;stroke-linecap:round;stroke-linejoin:round;stroke-miterlimit:4;stroke-opacity:1" /><path
   d="M 16.349889,29.321959 C 15.207961,29.321959 14.282681,30.247238 14.282682,31.389166 C 14.282682,31.978555 14.53322,32.508157 14.929154,32.885071 C 15.235114,33.176333 15.670993,33.836507 15.816173,34.365943 C 15.532982,34.195277 15.277893,34.000774 15.124599,33.839745 C 14.747684,33.44381 14.218081,33.20079 13.628693,33.20079 C 12.486765,33.20079 11.561486,34.126069 11.561486,35.267997 C 11.561486,36.409925 12.486765,37.335203 13.628693,37.335203 C 14.218083,37.335203 14.747685,37.084667 15.124599,36.688732 C 15.286233,36.518938 15.559471,36.304096 15.861276,36.124948 C 15.818942,38.020809 15.168287,39.259585 13.981997,39.259585 C 13.981997,39.259585 18.725297,39.259585 18.725297,39.259585 C 17.535846,39.259585 16.87766,38.014321 16.838501,36.109914 C 17.156674,36.292535 17.452427,36.512404 17.620281,36.688732 C 17.99719,37.084667 18.526804,37.335203 19.116187,37.335203 C 20.258103,37.335203 21.183394,36.409925 21.183394,35.267997 C 21.183394,34.126069 20.258103,33.20079 19.116187,33.20079 C 18.526807,33.20079 17.99719,33.44381 17.620281,33.839745 C 17.46067,34.00741 17.183459,34.206246 16.883604,34.380977 C 17.024245,33.848937 17.469128,33.179243 17.77814,32.885071 C 18.174075,32.508157 18.417095,31.978552 18.417095,31.389166 C 18.417095,30.247238 17.491817,29.321959 16.349889,29.321959 z"
   id="use2370"
   style="fill:#000000;fill-opacity:1;stroke:none;stroke-width:1.5;stroke-linecap:round;stroke-linejoin:round;stroke-miterlimit:4;stroke-opacity:1" />
</svg>