<?xml version="1.0" encoding="UTF-8" standalone="no"?>
<!-- Created with Inkscape (http://www.inkscape.org/) -->
<svg
   xmlns:svg="http://www.w3.org/2000/svg"
   xmlns="http://www.w3.org/2000/svg"
   version="1.0"
   width="208"
   height="303"
   viewBox="0 0 167.08643 242.66748"
   id="svg2"
   xml:space="preserve"><defs
   id="defs88" />
	<path
   d="M 166.83643,235.89281 C 166.83643,239.68452 163.75049,242.78371 159.96632,242.78371 L 7.1113279,242.78371 C 3.3359375,242.78371 0.25,239.68452 0.25,235.89281 L 0.25,6.7746664 C 0.25,2.9883464 3.3359375,-0.11623011 7.1113279,-0.11623011 L 159.96632,-0.11623011 C 163.75049,-0.11623011 166.83643,2.9883464 166.83643,6.7746664 L 166.83643,235.89281 L 166.83643,235.89281 z"
   id="path5"
   style="fill:#ffffff;fill-rule:nonzero;stroke:#000000;stroke-width:0.5;stroke-miterlimit:4" /><g
   transform="translate(1.5740999,3.8086e-2)"
   id="g5282"
   style="fill-rule:nonzero;stroke:#000000;stroke-miterlimit:4">
			<path
   d="M 15.970215,18.490234 C 15.728027,18.916992 15.462402,19.237305 15.172363,19.450684 C 14.882324,19.664062 14.567871,19.770508 14.22998,19.770508 C 13.416504,19.770508 12.773926,19.232422 12.302246,18.155762 C 11.830566,17.07959 11.595215,15.59375 11.595215,13.69873 C 11.595215,11.699219 11.85791,10.15918 12.382324,9.0786132 C 12.906738,7.9985351 13.657715,7.4580077 14.635254,7.4580077 C 15.740723,7.4580077 16.578613,8.2036132 17.146973,9.6938475 C 17.717285,11.18457 18.001465,13.367676 18.001465,16.243652 C 18.001465,19.522949 17.686035,21.998047 17.055176,23.669433 C 16.425293,25.341308 15.487793,26.176758 14.243652,26.176758 C 13.92041,26.176758 13.572754,26.116699 13.20166,25.99707 C 12.82959,25.876953 12.430176,25.697754 12.001465,25.458008 L 12.001465,22.270508 L 12.657715,22.270508 C 12.754394,23.091797 12.927246,23.713867 13.177246,24.136719 C 13.427246,24.55957 13.749512,24.770508 14.14502,24.770508 C 14.781738,24.770508 15.242676,24.277344 15.528809,23.291015 C 15.814941,22.304687 15.961426,20.70459 15.970215,18.490234 L 15.970215,18.490234 z M 14.76709,8.8642578 C 14.38916,8.8642578 14.120605,9.2177734 13.960449,9.9238281 C 13.800293,10.630371 13.720215,11.855469 13.720215,13.598633 C 13.720215,15.342285 13.800293,16.567383 13.960449,17.273438 C 14.120606,17.979981 14.38916,18.333008 14.76709,18.333008 C 15.14502,18.333008 15.413574,17.979981 15.57373,17.273438 C 15.733887,16.567383 15.813965,15.342285 15.813965,13.598633 C 15.813965,11.855469 15.733887,10.630371 15.57373,9.9238281 C 15.413574,9.2177734 15.14502,8.8642578 14.76709,8.8642578 z"
   id="path5284"
   style="stroke:none" />
		</g><g
   transform="translate(-0.8260449,0.3828162)"
   id="g5286"
   style="fill-rule:nonzero;stroke:#000000;stroke-miterlimit:4">
			<path
   d="M 150.36816,223.75732 C 150.61035,223.32959 150.87598,223.00928 151.16699,222.79639 C 151.45605,222.5835 151.77051,222.47607 152.1084,222.47607 C 152.92285,222.47607 153.56543,223.01514 154.03613,224.09131 C 154.50879,225.16748 154.74316,226.65381 154.74316,228.54834 C 154.74316,230.54834 154.48145,232.0874 153.95605,233.16846 C 153.43262,234.24854 152.68066,234.78857 151.7041,234.78857 C 150.59863,234.78857 149.76074,234.04346 149.19043,232.55322 C 148.62207,231.06201 148.33691,228.87939 148.33691,226.00342 C 148.33691,222.72412 148.65332,220.24951 149.28223,218.57764 C 149.91309,216.90576 150.85059,216.06982 152.09473,216.06982 C 152.41895,216.06982 152.76465,216.13037 153.1377,216.24951 C 153.50879,216.37061 153.90918,216.54932 154.33691,216.78857 L 154.33691,219.97607 L 153.68066,219.97607 C 153.58496,219.15576 153.41113,218.53271 153.16113,218.11084 C 152.91113,217.68701 152.58887,217.47607 152.19434,217.47607 C 151.55762,217.47607 151.09668,217.97021 150.80957,218.95654 C 150.52441,219.94287 150.37598,221.54248 150.36816,223.75732 L 150.36816,223.75732 z M 151.57129,233.38232 C 151.9502,233.38232 152.21777,233.02881 152.37793,232.32373 C 152.53809,231.6167 152.61816,230.39209 152.61816,228.64795 C 152.61816,226.90478 152.53809,225.6792 152.37793,224.97412 C 152.21777,224.26709 151.9502,223.91357 151.57129,223.91357 C 151.19434,223.91357 150.9248,224.26709 150.76465,224.97412 C 150.60449,225.6792 150.52441,226.90479 150.52441,228.64795 C 150.52441,230.39209 150.60449,231.6167 150.76465,232.32373 C 150.9248,233.02881 151.19434,233.38232 151.57129,233.38232 z"
   id="path5288"
   style="stroke:none" />
		</g><path
   d="M 150.73654,213.0401 C 151.87847,213.0401 152.80375,212.11482 152.80375,210.97289 C 152.80375,210.3835 152.55321,209.8539 152.15728,209.47699 C 151.85132,209.18573 151.41544,208.52555 151.27026,207.99612 C 151.55345,208.16678 151.80854,208.36129 151.96183,208.52232 C 152.33875,208.91825 152.86835,209.16127 153.45774,209.16127 C 154.59967,209.16127 155.52494,208.23599 155.52494,207.09406 C 155.52494,205.95214 154.59966,205.02686 153.45774,205.02686 C 152.86835,205.02686 152.33875,205.27739 151.96183,205.67333 C 151.8002,205.84312 151.52696,206.05796 151.22515,206.23711 C 151.26749,204.34125 151.91814,203.10248 153.10443,203.10248 C 153.10443,203.10248 148.36113,203.10248 148.36113,203.10248 C 149.55058,203.10248 150.20877,204.34774 150.24793,206.25215 C 149.92976,206.06953 149.634,205.84966 149.46615,205.67333 C 149.08924,205.27739 148.55963,205.02686 147.97024,205.02686 C 146.82833,205.02686 145.90304,205.95214 145.90304,207.09406 C 145.90304,208.23599 146.82833,209.16127 147.97024,209.16127 C 148.55962,209.16127 149.08924,208.91825 149.46615,208.52232 C 149.62576,208.35465 149.90297,208.15581 150.20283,207.98108 C 150.06219,208.51312 149.6173,209.18282 149.30829,209.47699 C 148.91236,209.8539 148.66933,210.38351 148.66933,210.97289 C 148.66933,212.11482 149.59461,213.0401 150.73654,213.0401 z"
   id="use2374"
   style="fill:#000000;fill-opacity:1;stroke:none;stroke-width:1.5;stroke-linecap:round;stroke-linejoin:round;stroke-miterlimit:4;stroke-opacity:1" /><path
   d="M 16.349889,29.321959 C 15.207961,29.321959 14.282681,30.247238 14.282682,31.389166 C 14.282682,31.978555 14.53322,32.508157 14.929154,32.885071 C 15.235114,33.176333 15.670993,33.836507 15.816173,34.365943 C 15.532982,34.195277 15.277893,34.000774 15.124599,33.839745 C 14.747684,33.44381 14.218081,33.20079 13.628693,33.20079 C 12.486765,33.20079 11.561486,34.126069 11.561486,35.267997 C 11.561486,36.409925 12.486765,37.335203 13.628693,37.335203 C 14.218083,37.335203 14.747685,37.084667 15.124599,36.688732 C 15.286233,36.518938 15.559471,36.304096 15.861276,36.124948 C 15.818942,38.020809 15.168287,39.259585 13.981997,39.259585 C 13.981997,39.259585 18.725297,39.259585 18.725297,39.259585 C 17.535846,39.259585 16.87766,38.014321 16.838501,36.109914 C 17.156674,36.292535 17.452427,36.512404 17.620281,36.688732 C 17.99719,37.084667 18.526804,37.335203 19.116187,37.335203 C 20.258103,37.335203 21.183394,36.409925 21.183394,35.267997 C 21.183394,34.126069 20.258103,33.20079 19.116187,33.20079 C 18.526807,33.20079 17.99719,33.44381 17.620281,33.839745 C 17.46067,34.00741 17.183459,34.206246 16.883604,34.380977 C 17.024245,33.848937 17.469128,33.179243 17.77814,32.885071 C 18.174075,32.508157 18.417095,31.978552 18.417095,31.389166 C 18.417095,30.247238 17.491817,29.321959 16.349889,29.321959 z"
   id="use2370"
   style="fill:#000000;fill-opacity:1;stroke:none;stroke-width:1.5;stroke-linecap:round;stroke-linejoin:round;stroke-miterlimit:4;stroke-opacity:1" />
</svg>