<?xml version="1.0" encoding="UTF-8" standalone="no"?>
<!-- Created with Inkscape (http://www.inkscape.org/) -->
<svg
   xmlns:svg="http://www.w3.org/2000/svg"
   xmlns="http://www.w3.org/2000/svg"
   version="1.0"
   width="208"
   height="303"
   viewBox="0 0 167.08643 242.66748"
   id="svg2"
   xml:space="preserve"><defs
   id="defs88" />
	<path
   d="M 166.83643,235.89281 C 166.83643,239.68452 163.75049,242.78371 159.96632,242.78371 L 7.1113279,242.78371 C 3.3359375,242.78371 0.25,239.68452 0.25,235.89281 L 0.25,6.7746664 C 0.25,2.9883464 3.3359375,-0.11623011 7.1113279,-0.11623011 L 159.96632,-0.11623011 C 163.75049,-0.11623011 166.83643,2.9883464 166.83643,6.7746664 L 166.83643,235.89281 L 166.83643,235.89281 z"
   id="path5"
   style="fill:#ffffff;fill-rule:nonzero;stroke:#000000;stroke-width:0.5;stroke-miterlimit:4" /><g
   transform="translate(-2.9317596,-0.1274412)"
   id="g5885"
   style="fill-rule:nonzero;stroke:none;stroke-miterlimit:4">
			<path
   d="M 12.743164,25.998535 L 12.743164,24.529785 L 14.243164,24.529785 L 14.243164,9.9316406 L 12.555664,12.155273 L 12.555664,10.354492 L 14.583984,7.6235351 L 16.274414,7.6235351 L 16.274414,24.529785 L 17.805664,24.529785 L 17.805664,25.998535 L 12.743164,25.998535 L 12.743164,25.998535 z"
   id="path5887" />
			<path
   d="M 22.730469,26.342285 C 21.651367,26.342285 20.826172,25.539063 20.253906,23.931641 C 19.681641,22.324707 19.396484,20.010742 19.396484,16.989258 C 19.396484,13.968262 19.681641,11.651856 20.253906,10.040527 C 20.826172,8.4291992 21.651367,7.6235352 22.730469,7.6235352 C 23.801758,7.6235352 24.623047,8.4291993 25.195313,10.040527 C 25.766602,11.651855 26.052735,13.968262 26.052735,16.989258 C 26.052735,20.010742 25.766602,22.324707 25.195313,23.931641 C 24.623047,25.539063 23.801758,26.342285 22.730469,26.342285 z M 22.730469,24.936035 C 23.162109,24.936035 23.458984,24.496582 23.621094,23.617676 C 23.783203,22.73877 23.865234,20.529297 23.865234,16.98877 C 23.865234,13.473145 23.783203,11.268066 23.621094,10.372559 C 23.458984,9.4775391 23.162109,9.0297852 22.730469,9.0297852 C 22.291016,9.0297852 21.990234,9.4692383 21.828125,10.348145 C 21.665039,11.227051 21.583984,13.440918 21.583984,16.98877 C 21.583984,20.529297 21.665039,22.73877 21.828125,23.617676 C 21.990234,24.496582 22.291016,24.936035 22.730469,24.936035 L 22.730469,24.936035 z"
   id="path5889" />
		</g><g
   transform="translate(3.2594001,0.2172862)"
   id="g5891"
   style="fill-rule:nonzero;stroke:none;stroke-miterlimit:4">
			<path
   d="M 154.01611,216.5791 L 154.01611,218.04785 L 152.51611,218.04785 L 152.51611,232.64648 L 154.20361,230.42285 L 154.20361,232.22363 L 152.17432,234.9541 L 150.48486,234.9541 L 150.48486,218.04785 L 148.95361,218.04785 L 148.95361,216.5791 L 154.01611,216.5791 L 154.01611,216.5791 z"
   id="path5893" />
			<path
   d="M 144.02783,216.23535 C 145.10791,216.23535 145.93408,217.03906 146.50439,218.64648 C 147.07666,220.25293 147.36182,222.56738 147.36182,225.58887 C 147.36182,228.61035 147.07666,230.92676 146.50439,232.53809 C 145.93408,234.14941 145.10791,234.9541 144.02783,234.9541 C 142.95752,234.9541 142.13525,234.14941 141.56494,232.53809 C 140.99268,230.92676 140.70557,228.61035 140.70557,225.58887 C 140.70557,222.56738 140.99268,220.25293 141.56494,218.64648 C 142.13525,217.03906 142.95752,216.23535 144.02783,216.23535 z M 144.02783,217.6416 C 143.59814,217.6416 143.30127,218.08105 143.13721,218.95996 C 142.9751,219.83887 142.89307,222.04883 142.89307,225.58887 C 142.89307,229.10449 142.9751,231.30957 143.13721,232.20605 C 143.30127,233.10059 143.59814,233.54785 144.02783,233.54785 C 144.46729,233.54785 144.76807,233.1084 144.93213,232.22949 C 145.09424,231.35059 145.17432,229.1377 145.17432,225.58887 C 145.17432,222.04883 145.09424,219.83887 144.93213,218.95996 C 144.76807,218.08105 144.46729,217.6416 144.02783,217.6416 z"
   id="path5895" />
		</g><path
   d="M 150.73654,213.0401 C 151.87847,213.0401 152.80375,212.11482 152.80375,210.97289 C 152.80375,210.3835 152.55321,209.8539 152.15728,209.47699 C 151.85132,209.18573 151.41544,208.52555 151.27026,207.99612 C 151.55345,208.16678 151.80854,208.36129 151.96183,208.52232 C 152.33875,208.91825 152.86835,209.16127 153.45774,209.16127 C 154.59967,209.16127 155.52494,208.23599 155.52494,207.09406 C 155.52494,205.95214 154.59966,205.02686 153.45774,205.02686 C 152.86835,205.02686 152.33875,205.27739 151.96183,205.67333 C 151.8002,205.84312 151.52696,206.05796 151.22515,206.23711 C 151.26749,204.34125 151.91814,203.10248 153.10443,203.10248 C 153.10443,203.10248 148.36113,203.10248 148.36113,203.10248 C 149.55058,203.10248 150.20877,204.34774 150.24793,206.25215 C 149.92976,206.06953 149.634,205.84966 149.46615,205.67333 C 149.08924,205.27739 148.55963,205.02686 147.97024,205.02686 C 146.82833,205.02686 145.90304,205.95214 145.90304,207.09406 C 145.90304,208.23599 146.82833,209.16127 147.97024,209.16127 C 148.55962,209.16127 149.08924,208.91825 149.46615,208.52232 C 149.62576,208.35465 149.90297,208.15581 150.20283,207.98108 C 150.06219,208.51312 149.6173,209.18282 149.30829,209.47699 C 148.91236,209.8539 148.66933,210.38351 148.66933,210.97289 C 148.66933,212.11482 149.59461,213.0401 150.73654,213.0401 z"
   id="use2374"
   style="fill:#000000;fill-opacity:1;stroke:none;stroke-width:1.5;stroke-linecap:round;stroke-linejoin:round;stroke-miterlimit:4;stroke-opacity:1" /><path
   d="M 16.349889,29.321959 C 15.207961,29.321959 14.282681,30.247238 14.282682,31.389166 C 14.282682,31.978555 14.53322,32.508157 14.929154,32.885071 C 15.235114,33.176333 15.670993,33.836507 15.816173,34.365943 C 15.532982,34.195277 15.277893,34.000774 15.124599,33.839745 C 14.747684,33.44381 14.218081,33.20079 13.628693,33.20079 C 12.486765,33.20079 11.561486,34.126069 11.561486,35.267997 C 11.561486,36.409925 12.486765,37.335203 13.628693,37.335203 C 14.218083,37.335203 14.747685,37.084667 15.124599,36.688732 C 15.286233,36.518938 15.559471,36.304096 15.861276,36.124948 C 15.818942,38.020809 15.168287,39.259585 13.981997,39.259585 C 13.981997,39.259585 18.725297,39.259585 18.725297,39.259585 C 17.535846,39.259585 16.87766,38.014321 16.838501,36.109914 C 17.156674,36.292535 17.452427,36.512404 17.620281,36.688732 C 17.99719,37.084667 18.526804,37.335203 19.116187,37.335203 C 20.258103,37.335203 21.183394,36.409925 21.183394,35.267997 C 21.183394,34.126069 20.258103,33.20079 19.116187,33.20079 C 18.526807,33.20079 17.99719,33.44381 17.620281,33.839745 C 17.46067,34.00741 17.183459,34.206246 16.883604,34.380977 C 17.024245,33.848937 17.469128,33.179243 17.77814,32.885071 C 18.174075,32.508157 18.417095,31.978552 18.417095,31.389166 C 18.417095,30.247238 17.491817,29.321959 16.349889,29.321959 z"
   id="use2370"
   style="fill:#000000;fill-opacity:1;stroke:none;stroke-width:1.5;stroke-linecap:round;stroke-linejoin:round;stroke-miterlimit:4;stroke-opacity:1" />
</svg>