<?xml version="1.0" encoding="UTF-8" standalone="no"?>
<!-- Created with Inkscape (http://www.inkscape.org/) -->
<svg
   xmlns:svg="http://www.w3.org/2000/svg"
   xmlns="http://www.w3.org/2000/svg"
   xmlns:xlink="http://www.w3.org/1999/xlink"
   version="1.0"
   width="208"
   height="303"
   viewBox="0 0 167.08643 242.66748"
   id="svg2"
   xml:space="preserve"><defs
   id="defs88" />
	<path
   d="M 166.83643,235.89281 C 166.83643,239.68452 163.75049,242.78371 159.96632,242.78371 L 7.1113279,242.78371 C 3.3359375,242.78371 0.25,239.68452 0.25,235.89281 L 0.25,6.7746664 C 0.25,2.9883464 3.3359375,-0.11623011 7.1113279,-0.11623011 L 159.96632,-0.11623011 C 163.75049,-0.11623011 166.83643,2.9883464 166.83643,6.7746664 L 166.83643,235.89281 L 166.83643,235.89281 z"
   id="path5"
   style="fill:#ffffff;fill-rule:nonzero;stroke:#000000;stroke-width:0.5;stroke-miterlimit:4" /><g
   transform="translate(-2.9317596,-0.1274412)"
   id="g5885"
   style="fill:#e61408;fill-opacity:1;fill-rule:nonzero;stroke:none;stroke-miterlimit:4">
			<path
   d="M 12.743164,25.998535 L 12.743164,24.529785 L 14.243164,24.529785 L 14.243164,9.9316406 L 12.555664,12.155273 L 12.555664,10.354492 L 14.583984,7.6235351 L 16.274414,7.6235351 L 16.274414,24.529785 L 17.805664,24.529785 L 17.805664,25.998535 L 12.743164,25.998535 L 12.743164,25.998535 z"
   id="path5887"
   style="fill:#e61408;fill-opacity:1" />
			<path
   d="M 22.730469,26.342285 C 21.651367,26.342285 20.826172,25.539063 20.253906,23.931641 C 19.681641,22.324707 19.396484,20.010742 19.396484,16.989258 C 19.396484,13.968262 19.681641,11.651856 20.253906,10.040527 C 20.826172,8.4291992 21.651367,7.6235352 22.730469,7.6235352 C 23.801758,7.6235352 24.623047,8.4291993 25.195313,10.040527 C 25.766602,11.651855 26.052735,13.968262 26.052735,16.989258 C 26.052735,20.010742 25.766602,22.324707 25.195313,23.931641 C 24.623047,25.539063 23.801758,26.342285 22.730469,26.342285 z M 22.730469,24.936035 C 23.162109,24.936035 23.458984,24.496582 23.621094,23.617676 C 23.783203,22.73877 23.865234,20.529297 23.865234,16.98877 C 23.865234,13.473145 23.783203,11.268066 23.621094,10.372559 C 23.458984,9.4775391 23.162109,9.0297852 22.730469,9.0297852 C 22.291016,9.0297852 21.990234,9.4692383 21.828125,10.348145 C 21.665039,11.227051 21.583984,13.440918 21.583984,16.98877 C 21.583984,20.529297 21.665039,22.73877 21.828125,23.617676 C 21.990234,24.496582 22.291016,24.936035 22.730469,24.936035 L 22.730469,24.936035 z"
   id="path5889"
   style="fill:#e61408;fill-opacity:1" />
		</g><g
   transform="translate(3.2594001,0.2172862)"
   id="g5891"
   style="fill:#e61408;fill-opacity:1;fill-rule:nonzero;stroke:none;stroke-miterlimit:4">
			<path
   d="M 154.01611,216.5791 L 154.01611,218.04785 L 152.51611,218.04785 L 152.51611,232.64648 L 154.20361,230.42285 L 154.20361,232.22363 L 152.17432,234.9541 L 150.48486,234.9541 L 150.48486,218.04785 L 148.95361,218.04785 L 148.95361,216.5791 L 154.01611,216.5791 L 154.01611,216.5791 z"
   id="path5893"
   style="fill:#e61408;fill-opacity:1" />
			<path
   d="M 144.02783,216.23535 C 145.10791,216.23535 145.93408,217.03906 146.50439,218.64648 C 147.07666,220.25293 147.36182,222.56738 147.36182,225.58887 C 147.36182,228.61035 147.07666,230.92676 146.50439,232.53809 C 145.93408,234.14941 145.10791,234.9541 144.02783,234.9541 C 142.95752,234.9541 142.13525,234.14941 141.56494,232.53809 C 140.99268,230.92676 140.70557,228.61035 140.70557,225.58887 C 140.70557,222.56738 140.99268,220.25293 141.56494,218.64648 C 142.13525,217.03906 142.95752,216.23535 144.02783,216.23535 z M 144.02783,217.6416 C 143.59814,217.6416 143.30127,218.08105 143.13721,218.95996 C 142.9751,219.83887 142.89307,222.04883 142.89307,225.58887 C 142.89307,229.10449 142.9751,231.30957 143.13721,232.20605 C 143.30127,233.10059 143.59814,233.54785 144.02783,233.54785 C 144.46729,233.54785 144.76807,233.1084 144.93213,232.22949 C 145.09424,231.35059 145.17432,229.1377 145.17432,225.58887 C 145.17432,222.04883 145.09424,219.83887 144.93213,218.95996 C 144.76807,218.08105 144.46729,217.6416 144.02783,217.6416 z"
   id="path5895"
   style="fill:#e61408;fill-opacity:1" />
		</g>
<path
   d="M 16.37244,29.718758 C 16.36459,29.988114 16.20473,30.998264 14.46276,32.670073 C 12.78625,34.279073 12.00337,34.472229 11.76808,34.489173 C 12.00337,34.506114 12.78625,34.699276 14.46276,36.30827 C 16.20473,37.980079 16.36459,38.990226 16.37244,39.259585 C 16.38029,38.990229 16.54015,37.980082 18.28212,36.30827 C 19.95863,34.699273 20.74151,34.506111 20.9768,34.489173 C 20.74151,34.472232 19.95863,34.27907 18.28212,32.670073 C 16.54015,30.998267 16.38029,29.988117 16.37244,29.718758 z"
   id="path3230"
   style="fill:#e61408;fill-opacity:1;stroke:none;stroke-width:1.49999988;stroke-linecap:round;stroke-linejoin:round;stroke-miterlimit:4;stroke-dasharray:none;stroke-opacity:1" /><use
   transform="translate(134.34155,173.58212)"
   id="use3238"
   x="0"
   y="0"
   width="167.08643"
   height="242.66748"
   xlink:href="#path3230" /></svg>