<?xml version="1.0" encoding="UTF-8" standalone="no"?>
<!-- Created with Inkscape (http://www.inkscape.org/) -->
<svg
   xmlns:svg="http://www.w3.org/2000/svg"
   xmlns="http://www.w3.org/2000/svg"
   version="1.0"
   width="167.08887pt"
   height="242.66699pt"
   viewBox="0 0 167.08887 242.66699"
   id="svg4255"
   xml:space="preserve"><defs
   id="defs4587">
		
		
		
		
		
		
		
		
		
		
		
		
		
		
		
		
		
		
		
		
		
		
		
		
		
		
		
		
		
		
		
		
		
		
		
		
	</defs>
	<path
   d="M 166.83887,235.54687 C 166.83887,239.33105 163.75195,242.41699 159.96875,242.41699 L 7.1113281,242.41699 C 3.3364258,242.41699 0.25,239.33105 0.25,235.54687 L 0.25,7.1191406 C 0.25,3.3447266 3.3364258,0.25 7.1113281,0.25 L 159.96875,0.25 C 163.75195,0.25 166.83887,3.3447266 166.83887,7.1191406 L 166.83887,235.54687 z"
   id="path4258"
   style="fill:#ffffff;fill-rule:nonzero;stroke:#000000;stroke-width:0.5;stroke-miterlimit:4" /><path
   d="M 159.43164,237.56445 L 8.3588867,237.56445 L 8.3588867,4.34375 L 159.43164,4.34375 L 159.43164,237.56445 L 159.43164,237.56445 z"
   id="path4260"
   style="fill:#ffffff;fill-rule:nonzero;stroke:#000000;stroke-width:1.5;stroke-linejoin:round;stroke-miterlimit:4" /><g
   id="g4512"
   style="fill-rule:nonzero;stroke:none;stroke-miterlimit:4">
			<g
   id="g4514">
				<path
   d="M 43.905762,50.973144 C 39.550781,50.977539 37.259277,46.332519 36.057129,41.688965 C 34.854981,37.042969 34.740723,32.395996 34.740723,32.395996 L 32.518555,32.373535 C 32.518555,32.373535 32.102051,50.960937 23.391602,50.96875 L 43.905762,50.973144 L 43.905762,50.973144 z"
   id="path4516" />
			</g>
			<path
   d="M 51.276856,32.391602 C 51.237793,23.324707 37.665039,16.749023 33.678223,9.5742188 C 29.694336,16.749023 16.120606,23.324707 16.082031,32.391602 C 16.064453,36.672852 20.021484,40.140625 24.881348,40.140625 C 29.739746,40.140625 33.678223,36.672852 33.678223,32.391602 C 33.678223,36.672852 37.619141,40.140625 42.478027,40.140625 C 47.337891,40.140625 51.276855,36.672852 51.276855,32.391602 L 51.276856,32.391602 z"
   id="path4518" />
		</g><g
   id="g4520"
   style="fill-rule:nonzero;stroke:none;stroke-miterlimit:4">
			<g
   id="g4522">
				<path
   d="M 122.63086,191.07129 C 126.98633,191.06738 129.27734,195.71191 130.48047,200.35645 C 131.68164,205.00195 131.79688,209.64941 131.79688,209.64941 L 134.01855,209.6709 C 134.01855,209.6709 134.43555,191.08398 143.14551,191.07617 L 122.63086,191.07129 L 122.63086,191.07129 z"
   id="path4524" />
			</g>
			<path
   d="M 115.26074,209.65332 C 115.29883,218.71973 128.87305,225.2959 132.85938,232.47168 C 136.84277,225.2959 150.41699,218.71973 150.45508,209.65332 C 150.47266,205.37207 146.51562,201.9043 141.65625,201.9043 C 136.79688,201.9043 132.85938,205.37207 132.85938,209.65332 C 132.85938,205.37207 128.91797,201.9043 124.05859,201.9043 C 119.19922,201.9043 115.26074,205.37207 115.26074,209.65332 L 115.26074,209.65332 z"
   id="path4526" />
		</g><g
   id="g4528"
   style="fill-rule:nonzero;stroke:none;stroke-miterlimit:4">
			<path
   d="M 154.04297,43.649414 L 153.57422,43.649414 L 153.57422,42.899414 L 147.87109,42.899414 L 147.87109,43.649414 L 147.38672,43.649414 L 147.38672,41.352539 L 147.87109,41.352539 L 147.87109,42.102539 L 150.15234,42.102539 L 150.15234,39.055664 L 147.87109,39.055664 L 147.87109,39.805664 L 147.38672,39.805664 L 147.38672,37.508789 L 147.87109,37.508789 L 147.87109,38.258789 L 153.57422,38.258789 L 153.57422,37.508789 L 154.04297,37.508789 L 154.04297,39.805664 L 153.57422,39.805664 L 153.57422,39.055664 L 150.69922,39.055664 L 150.69922,42.102539 L 153.57422,42.102539 L 153.57422,41.352539 L 154.04297,41.352539 L 154.04297,43.649414 z"
   id="path4530" />
			<path
   d="M 154.16797,33.754883 C 154.16797,34.153809 154.09277,34.520508 153.94434,34.855469 C 153.7959,35.189941 153.57813,35.483398 153.28906,35.736328 C 152.95605,36.03125 152.5791,36.25 152.15625,36.392578 C 151.73438,36.535156 151.25488,36.606445 150.7168,36.606445 C 150.17871,36.606445 149.69824,36.535156 149.27441,36.392578 C 148.85059,36.25 148.47266,36.03125 148.13965,35.736328 C 147.84863,35.480469 147.62891,35.1875 147.48242,34.857422 C 147.33496,34.527344 147.26172,34.160156 147.26172,33.754883 C 147.26172,32.904297 147.57813,32.216308 148.21094,31.691406 C 148.84375,31.166015 149.67969,30.90332 150.7168,30.90332 C 151.24902,30.90332 151.72852,30.975586 152.1543,31.120117 C 152.58105,31.264648 152.95898,31.483887 153.28906,31.77832 C 153.58008,32.03418 153.7998,32.327148 153.94727,32.657226 C 154.09375,32.987305 154.16797,33.353516 154.16797,33.754883 L 154.16797,33.754883 z M 153.68359,33.75293 C 153.68359,33.111328 153.43359,32.626953 152.93359,32.299805 C 152.43457,31.973633 151.69531,31.80957 150.7168,31.80957 C 149.73535,31.80957 148.99414,31.973633 148.49512,32.299805 C 147.99609,32.626953 147.74609,33.111328 147.74609,33.75293 C 147.74609,34.397461 147.99609,34.883789 148.49512,35.209961 C 148.99414,35.537109 149.73535,35.700195 150.7168,35.700195 C 151.69531,35.700195 152.43457,35.537109 152.93359,35.209961 C 153.43359,34.883789 153.68359,34.397461 153.68359,33.75293 z"
   id="path4532" />
			<path
   d="M 149.37109,25.297852 C 148.81738,25.390137 148.4082,25.581543 148.14258,25.872559 C 147.87793,26.164063 147.74609,26.567871 147.74609,27.084961 C 147.74609,27.762207 147.99219,28.266602 148.48438,28.597656 C 148.97656,28.929199 149.7207,29.094727 150.7168,29.094727 C 151.69238,29.094727 152.43066,28.923828 152.93164,28.582031 C 153.43262,28.240723 153.68359,27.737305 153.68359,27.071777 C 153.68359,26.774414 153.6416,26.491699 153.55859,26.222656 C 153.47656,25.954102 153.35156,25.697754 153.18652,25.454102 L 151.48047,25.454102 L 151.48047,26.563477 L 150.99609,26.563477 L 150.99609,24.657227 L 153.47461,24.657227 C 153.70605,25.005371 153.87891,25.379883 153.99414,25.78125 C 154.10938,26.182617 154.16797,26.613769 154.16797,27.074707 C 154.16797,27.960937 153.85352,28.67041 153.22461,29.202637 C 152.5957,29.734863 151.75977,30.000976 150.7168,30.000976 C 149.66406,30.000976 148.8252,29.733887 148.19922,29.199707 C 147.57422,28.666016 147.26172,27.946777 147.26172,27.04248 C 147.26172,26.706055 147.30469,26.358887 147.39258,26.000488 C 147.48047,25.64209 147.61426,25.261719 147.79297,24.860351 L 149.37109,24.860351 L 149.37109,25.297851 L 149.37109,25.297852 z"
   id="path4534" />
			<path
   d="M 153.57422,22.032715 L 153.57422,21.282715 L 154.04297,21.282715 L 154.04297,23.57959 L 153.57422,23.57959 L 153.57422,22.82959 L 147.87109,22.82959 L 147.87109,23.57959 L 147.38672,23.57959 L 147.38672,21.282715 L 147.87109,21.282715 L 147.87109,22.032715 L 153.57422,22.032715 z"
   id="path4536" />
			<path
   d="M 154.04297,20.396484 L 153.57422,20.396484 L 153.57422,19.646484 L 147.87109,19.646484 L 147.87109,20.396484 L 147.38672,20.396484 L 147.38672,15.662109 L 148.87109,15.662109 L 148.87109,16.146484 L 147.93359,16.146484 L 147.93359,18.849609 L 150.15234,18.849609 L 150.15234,16.912109 L 149.32422,16.912109 L 149.32422,16.427734 L 151.52734,16.427734 L 151.52734,16.912109 L 150.69922,16.912109 L 150.69922,18.849609 L 153.49609,18.849609 L 153.49609,16.083984 L 152.55859,16.083984 L 152.55859,15.599609 L 154.04297,15.599609 L 154.04297,20.396484 z"
   id="path4538" />
			<path
   d="M 150.73633,11.104492 C 150.79297,10.919922 150.88965,10.761231 151.02539,10.628906 C 151.16113,10.496582 151.35156,10.378418 151.5957,10.273926 L 153.57422,9.4189453 L 153.57422,8.7050781 L 154.04297,8.7050781 L 154.04297,10.090332 L 151.92676,11.006348 C 151.51563,11.181152 151.25,11.342285 151.12988,11.488769 C 151.00879,11.635254 150.94922,11.835937 150.94922,12.09082 L 150.94922,12.967773 L 153.57422,12.967773 L 153.57422,12.139648 L 154.04297,12.139648 L 154.04297,14.514648 L 153.57422,14.514648 L 153.57422,13.764648 L 147.87109,13.764648 L 147.87109,14.514648 L 147.38672,14.514648 L 147.38672,11.540039 C 147.38672,10.968262 147.54102,10.526855 147.84961,10.21582 C 148.1582,9.904785 148.59668,9.7490233 149.16406,9.7490233 C 149.62109,9.7490233 149.98145,9.8627928 150.24414,10.089355 C 150.50684,10.315918 150.6709,10.654297 150.73633,11.104492 L 150.73633,11.104492 z M 150.46484,12.967773 L 150.46484,11.811035 C 150.46484,11.416992 150.35938,11.125976 150.14746,10.9375 C 149.93555,10.749512 149.6084,10.655273 149.16504,10.655273 C 148.72168,10.655273 148.39551,10.749512 148.18555,10.9375 C 147.97559,11.125976 147.87109,11.416992 147.87109,11.811035 L 147.87109,12.967773 L 150.46484,12.967773 z"
   id="path4540" />
		</g><g
   id="g4542"
   style="fill-rule:nonzero;stroke:none;stroke-miterlimit:4">
			<path
   d="M 12.779297,193.50098 L 13.248047,193.50098 L 13.248047,194.25098 L 18.951172,194.25098 L 18.951172,193.50098 L 19.435547,193.50098 L 19.435547,195.79785 L 18.951172,195.79785 L 18.951172,195.04785 L 16.669922,195.04785 L 16.669922,198.09473 L 18.951172,198.09473 L 18.951172,197.34473 L 19.435547,197.34473 L 19.435547,199.6416 L 18.951172,199.6416 L 18.951172,198.8916 L 13.248047,198.8916 L 13.248047,199.6416 L 12.779297,199.6416 L 12.779297,197.34473 L 13.248047,197.34473 L 13.248047,198.09473 L 16.123047,198.09473 L 16.123047,195.04785 L 13.248047,195.04785 L 13.248047,195.79785 L 12.779297,195.79785 L 12.779297,193.50098 L 12.779297,193.50098 z"
   id="path4544" />
			<path
   d="M 12.654297,203.39551 C 12.654297,202.99707 12.728516,202.62988 12.876953,202.29492 C 13.025391,201.95996 13.244141,201.66699 13.532715,201.41309 C 13.865234,201.11914 14.243164,200.90039 14.665039,200.75781 C 15.086914,200.61426 15.567383,200.54395 16.105469,200.54395 C 16.643066,200.54395 17.124023,200.61426 17.547363,200.75781 C 17.970703,200.90039 18.349121,201.11914 18.682129,201.41309 C 18.973633,201.66895 19.192383,201.96191 19.339844,202.29297 C 19.486816,202.62305 19.560547,202.99023 19.560547,203.39551 C 19.560547,204.24609 19.244141,204.93457 18.61084,205.45898 C 17.977539,205.9834 17.142578,206.24707 16.105469,206.24707 C 15.573242,206.24707 15.09375,206.1748 14.666992,206.03027 C 14.240723,205.88574 13.862305,205.66699 13.532715,205.37207 C 13.241211,205.11621 13.021973,204.82324 12.875,204.49316 C 12.728027,204.16309 12.654297,203.79688 12.654297,203.39551 L 12.654297,203.39551 z M 13.138672,203.39746 C 13.138672,204.03906 13.388672,204.52344 13.887695,204.85059 C 14.387695,205.17676 15.126953,205.34082 16.105469,205.34082 C 17.086914,205.34082 17.827148,205.17676 18.32666,204.85059 C 18.826172,204.52344 19.076172,204.03906 19.076172,203.39746 C 19.076172,202.75293 18.826172,202.2666 18.32666,201.94043 C 17.827148,201.61328 17.086914,201.4502 16.105469,201.4502 C 15.126953,201.4502 14.387695,201.61328 13.887695,201.94043 C 13.388672,202.2666 13.138672,202.75293 13.138672,203.39746 L 13.138672,203.39746 z"
   id="path4546" />
			<path
   d="M 17.451172,211.85254 C 18.004883,211.76074 18.414063,211.56934 18.678711,211.27832 C 18.943359,210.98633 19.076172,210.58301 19.076172,210.06543 C 19.076172,209.3877 18.830078,208.88379 18.337891,208.55273 C 17.845703,208.22168 17.101562,208.05566 16.105469,208.05566 C 15.129883,208.05566 14.391113,208.22656 13.890137,208.56836 C 13.38916,208.90918 13.138672,209.41309 13.138672,210.0791 C 13.138672,210.37598 13.179688,210.65918 13.262695,210.92773 C 13.345703,211.19629 13.469727,211.45215 13.635254,211.69629 L 15.341797,211.69629 L 15.341797,210.58691 L 15.826172,210.58691 L 15.826172,212.49316 L 13.34668,212.49316 C 13.116211,212.14551 12.942871,211.77051 12.827148,211.36914 C 12.711914,210.96777 12.654297,210.53613 12.654297,210.0752 C 12.654297,209.18945 12.96875,208.47949 13.597168,207.94824 C 14.225586,207.41504 15.061523,207.14941 16.105469,207.14941 C 17.157227,207.14941 17.996094,207.41699 18.62207,207.9502 C 19.247559,208.48438 19.560547,209.2041 19.560547,210.1084 C 19.560547,210.44434 19.516602,210.79199 19.428711,211.14941 C 19.34082,211.50879 19.208008,211.88867 19.029297,212.29004 L 17.451172,212.29004 L 17.451172,211.85254 L 17.451172,211.85254 z"
   id="path4548" />
			<path
   d="M 13.248047,215.11816 L 13.248047,215.86816 L 12.779297,215.86816 L 12.779297,213.57129 L 13.248047,213.57129 L 13.248047,214.32129 L 18.951172,214.32129 L 18.951172,213.57129 L 19.435547,213.57129 L 19.435547,215.86816 L 18.951172,215.86816 L 18.951172,215.11816 L 13.248047,215.11816 z"
   id="path4550" />
			<path
   d="M 12.779297,216.75293 L 13.248047,216.75293 L 13.248047,217.50293 L 18.951172,217.50293 L 18.951172,216.75293 L 19.435547,216.75293 L 19.435547,221.4873 L 17.951172,221.4873 L 17.951172,221.00293 L 18.888672,221.00293 L 18.888672,218.2998 L 16.669922,218.2998 L 16.669922,220.2373 L 17.498047,220.2373 L 17.498047,220.72168 L 15.294922,220.72168 L 15.294922,220.2373 L 16.123047,220.2373 L 16.123047,218.2998 L 13.326172,218.2998 L 13.326172,221.06543 L 14.263672,221.06543 L 14.263672,221.5498 L 12.779297,221.5498 L 12.779297,216.75293 L 12.779297,216.75293 z"
   id="path4552" />
			<path
   d="M 16.085937,226.0459 C 16.028809,226.23047 15.932617,226.38965 15.796875,226.52148 C 15.661133,226.65332 15.470703,226.77246 15.225586,226.87598 L 13.248047,227.73145 L 13.248047,228.44531 L 12.779297,228.44531 L 12.779297,227.05957 L 14.895508,226.14355 C 15.305664,225.96973 15.571289,225.80762 15.692383,225.66113 C 15.8125,225.51465 15.873047,225.31445 15.873047,225.05957 L 15.873047,224.18262 L 13.248047,224.18262 L 13.248047,225.01074 L 12.779297,225.01074 L 12.779297,222.63574 L 13.248047,222.63574 L 13.248047,223.38574 L 18.951172,223.38574 L 18.951172,222.63574 L 19.435547,222.63574 L 19.435547,225.61035 C 19.435547,226.18262 19.28125,226.62402 18.972168,226.93457 C 18.663086,227.24512 18.225586,227.40137 17.658203,227.40137 C 17.200684,227.40137 16.84082,227.28809 16.578125,227.06152 C 16.314941,226.83496 16.150879,226.49609 16.085937,226.0459 L 16.085937,226.0459 z M 16.357422,224.18262 L 16.357422,225.33887 C 16.357422,225.7334 16.462891,226.02441 16.674316,226.21289 C 16.885742,226.40137 17.212891,226.49512 17.65625,226.49512 C 18.099609,226.49512 18.42627,226.40137 18.636231,226.21289 C 18.846192,226.02441 18.951172,225.7334 18.951172,225.33887 L 18.951172,224.18262 L 16.357422,224.18262 z"
   id="path4554" />
			<path
   d="M 16.085937,232.1123 C 16.028809,232.29785 15.932617,232.45605 15.796875,232.58887 C 15.661133,232.7207 15.470703,232.83887 15.225586,232.94336 L 13.248047,233.79785 L 13.248047,234.5127 L 12.779297,234.5127 L 12.779297,233.12695 L 14.895508,232.21094 C 15.305664,232.03613 15.571289,231.875 15.692383,231.72852 C 15.8125,231.58203 15.873047,231.38184 15.873047,231.12598 L 15.873047,230.24902 L 13.248047,230.24902 L 13.248047,231.07715 L 12.779297,231.07715 L 12.779297,228.70215 L 13.248047,228.70215 L 13.248047,229.45215 L 18.951172,229.45215 L 18.951172,228.70215 L 19.435547,228.70215 L 19.435547,231.67676 C 19.435547,232.24902 19.28125,232.69043 18.972168,233.00098 C 18.663086,233.3125 18.225586,233.46777 17.658203,233.46777 C 17.200684,233.46777 16.84082,233.35449 16.578125,233.12793 C 16.314941,232.90137 16.150879,232.56348 16.085937,232.1123 L 16.085937,232.1123 z M 16.357422,230.24902 L 16.357422,231.40625 C 16.357422,231.7998 16.462891,232.09082 16.674316,232.28027 C 16.885742,232.46777 17.212891,232.56152 17.65625,232.56152 C 18.099609,232.56152 18.42627,232.46777 18.636231,232.28027 C 18.846191,232.09082 18.951172,231.7998 18.951172,231.40625 L 18.951172,230.24902 L 16.357422,230.24902 z"
   id="path4556" />
		</g><path
   d="M 157.18945,189.73926 L 144.11133,189.73926 L 144.11133,233.48926 L 157.18945,233.48926 L 157.18945,189.73926 z"
   id="path4558"
   style="fill:#ffffff;fill-rule:nonzero;stroke:none;stroke-miterlimit:4" /><path
   d="M 10.975098,52.140625 L 22.303223,52.140625 L 22.303223,8.3901367 L 10.975098,8.3901367 L 10.975098,52.140625 z"
   id="path4560"
   style="fill:#ffffff;fill-rule:nonzero;stroke:none;stroke-miterlimit:4" /><g
   id="g4562"
   style="fill-rule:nonzero;stroke:#000000;stroke-miterlimit:4">
			<path
   d="M 11.276367,26.5 L 11.276367,23.96875 L 11.995117,23.96875 C 12.01709,24.646484 12.094727,25.144043 12.228516,25.461426 C 12.362305,25.778809 12.563477,25.9375 12.831543,25.9375 C 13.186035,25.9375 13.432129,25.667969 13.569824,25.128906 C 13.70752,24.589844 13.776367,23.578613 13.776367,22.095703 L 13.776367,7.6875 L 12.588867,7.6875 L 12.588867,6.375 L 16.901367,6.375 L 16.901367,7.6875 L 15.870117,7.6875 L 15.870117,22.182617 C 15.870117,23.94043 15.647949,25.224121 15.20459,26.034668 C 14.760742,26.844727 14.058594,27.25 13.098633,27.25 C 12.800293,27.25 12.5,27.1875 12.198242,27.0625 C 11.896973,26.9375 11.589356,26.75 11.276367,26.5 L 11.276367,26.5 z"
   id="path4564"
   style="stroke:none" />
		</g><g
   id="g4566"
   style="fill-rule:nonzero;stroke:none;stroke-miterlimit:4">
			<g
   id="g4568">
				<path
   d="M 18.934082,39.442383 C 17.838867,39.443359 17.262695,38.274902 16.959961,37.107422 C 16.657715,35.938965 16.628906,34.77002 16.628906,34.77002 L 16.070312,34.76416 C 16.070312,34.76416 15.965332,39.438965 13.774902,39.440918 L 18.934082,39.442383 L 18.934082,39.442383 z"
   id="path4570" />
			</g>
			<path
   d="M 20.787598,34.769043 C 20.77832,32.48877 17.364258,30.834961 16.361816,29.030274 C 15.359863,30.834961 11.946289,32.48877 11.936523,34.769043 C 11.932129,35.845703 12.927246,36.717774 14.149414,36.717774 C 15.371582,36.717774 16.361816,35.845703 16.361816,34.769043 C 16.361816,35.845703 17.353027,36.717774 18.575195,36.717774 C 19.797363,36.717774 20.787597,35.845703 20.787597,34.769043 L 20.787598,34.769043 z"
   id="path4572" />
		</g><g
   id="g4574"
   style="fill-rule:nonzero;stroke:none;stroke-miterlimit:4">
			<g
   id="g4576">
				<path
   d="M 147.91992,203.1084 C 149.01562,203.1084 149.5918,204.27637 149.89453,205.44434 C 150.19629,206.6123 150.22461,207.78027 150.22461,207.78027 L 150.7832,207.78613 C 150.7832,207.78613 150.88867,203.1123 153.0791,203.11035 L 147.91992,203.1084 L 147.91992,203.1084 z"
   id="path4578" />
			</g>
			<path
   d="M 146.06641,207.78223 C 146.07617,210.0625 149.49023,211.71582 150.49219,213.52051 C 151.49414,211.71582 154.9082,210.0625 154.91797,207.78223 C 154.92188,206.70605 153.92676,205.83301 152.70508,205.83301 C 151.48242,205.83301 150.49219,206.70605 150.49219,207.78223 C 150.49219,206.70605 149.50098,205.83301 148.2793,205.83301 C 147.05664,205.83301 146.06641,206.70605 146.06641,207.78223 L 146.06641,207.78223 z"
   id="path4580" />
		</g><g
   id="g4582"
   style="fill-rule:nonzero;stroke:#000000;stroke-miterlimit:4">
			<path
   d="M 155.9043,215.54687 L 155.9043,218.07812 L 155.18555,218.07812 C 155.16406,217.40039 155.08594,216.90332 154.95215,216.58496 C 154.81836,216.26855 154.61719,216.10937 154.34961,216.10937 C 153.99414,216.10937 153.74805,216.37891 153.61133,216.91797 C 153.47266,217.45703 153.4043,218.46777 153.4043,219.95117 L 153.4043,234.35938 L 154.5918,234.35938 L 154.5918,235.67188 L 150.2793,235.67188 L 150.2793,234.35938 L 151.31055,234.35938 L 151.31055,219.86426 C 151.31055,218.10645 151.5332,216.82324 151.97656,216.0127 C 152.41992,215.20215 153.12207,214.79688 154.08203,214.79688 C 154.38086,214.79688 154.68066,214.85938 154.98242,214.98438 C 155.2832,215.10938 155.5918,215.29688 155.9043,215.54688 L 155.9043,215.54687 z"
   id="path4584"
   style="stroke:none" />
		</g>
</svg>