<?xml version="1.0" encoding="UTF-8" standalone="no"?>
<!-- Created with Inkscape (http://www.inkscape.org/) -->
<svg
   xmlns:svg="http://www.w3.org/2000/svg"
   xmlns="http://www.w3.org/2000/svg"
   version="1.0"
   width="167.08936pt"
   height="242.66748pt"
   viewBox="0 0 167.08936 242.66748"
   id="svg3919"
   xml:space="preserve"><defs
   id="defs4249">
		
		
		
		
		
		
		
		
		
		
		
		
		
		
		
		
		
		
		
		
		
		
		
		
		
		
		
		
		
		
		
		
		
		
		
		
		
		
	</defs>
	<path
   d="M 166.83936,235.54736 C 166.83936,239.33154 163.75342,242.41748 159.96826,242.41748 L 7.1113281,242.41748 C 3.336914,242.41748 0.25,239.33154 0.25,235.54736 L 0.25,7.1201172 C 0.25,3.3452148 3.3369141,0.25 7.1113281,0.25 L 159.96826,0.25 C 163.75342,0.25 166.83936,3.3452148 166.83936,7.1201172 L 166.83936,235.54736 L 166.83936,235.54736 z"
   id="path3922"
   style="fill:#ffffff;fill-rule:nonzero;stroke:#000000;stroke-width:0.5;stroke-miterlimit:4" /><path
   d="M 159.07373,238.11084 L 8.2324219,238.11084 L 8.2324219,5.1235352 L 159.07373,5.1235352 L 159.07373,238.11084 L 159.07373,238.11084 z"
   id="path3924"
   style="fill:#ffffff;fill-rule:nonzero;stroke:#000000;stroke-width:1.5;stroke-linejoin:round;stroke-miterlimit:4" /><g
   id="g4192"
   style="fill-rule:nonzero;stroke:none;stroke-miterlimit:4">
			<path
   d="M 153.99365,40.992188 L 153.5249,40.992188 L 153.5249,40.242188 L 147.82178,40.242188 L 147.82178,40.992188 L 147.3374,40.992188 L 147.3374,38.695312 L 147.82178,38.695312 L 147.82178,39.445312 L 153.44678,39.445312 L 153.44678,36.757812 L 152.3374,36.757812 L 152.3374,36.273438 L 153.99365,36.273438 L 153.99365,40.992188 z"
   id="path4194" />
			<path
   d="M 153.99365,36.125977 L 153.5249,36.125977 L 153.5249,35.614746 L 147.3374,33.521973 L 147.3374,32.861328 L 153.5249,30.76416 L 153.5249,30.188477 L 153.99365,30.188477 L 153.99365,32.321289 L 153.5249,32.321289 L 153.5249,31.669922 L 152.05615,32.160645 L 152.05615,34.628418 L 153.5249,35.119629 L 153.5249,34.477051 L 153.99365,34.477051 L 153.99365,36.125977 L 153.99365,36.125977 z M 151.57178,34.467773 L 151.57178,32.3125 L 148.41357,33.392578 L 151.57178,34.467773 z"
   id="path4196" />
			<path
   d="M 153.99365,29.822266 L 153.5249,29.822266 L 153.5249,29.072266 L 147.82178,29.072266 L 147.82178,29.822266 L 147.3374,29.822266 L 147.3374,27.525391 L 147.82178,27.525391 L 147.82178,28.275391 L 150.10303,28.275391 L 150.10303,25.228516 L 147.82178,25.228516 L 147.82178,25.978516 L 147.3374,25.978516 L 147.3374,23.681641 L 147.82178,23.681641 L 147.82178,24.431641 L 153.5249,24.431641 L 153.5249,23.681641 L 153.99365,23.681641 L 153.99365,25.978516 L 153.5249,25.978516 L 153.5249,25.228516 L 150.6499,25.228516 L 150.6499,28.275391 L 153.5249,28.275391 L 153.5249,27.525391 L 153.99365,27.525391 L 153.99365,29.822266 z"
   id="path4198" />
			<path
   d="M 153.5249,21.248535 L 153.5249,20.498535 L 153.99365,20.498535 L 153.99365,22.79541 L 153.5249,22.79541 L 153.5249,22.04541 L 147.82178,22.04541 L 147.82178,22.79541 L 147.3374,22.79541 L 147.3374,20.498535 L 147.82178,20.498535 L 147.82178,21.248535 L 153.5249,21.248535 z"
   id="path4200" />
			<path
   d="M 150.68701,16.202148 C 150.74365,16.017578 150.83936,15.858887 150.97607,15.726562 C 151.11084,15.594238 151.30225,15.476074 151.54639,15.371582 L 153.5249,14.516601 L 153.5249,13.802734 L 153.99365,13.802734 L 153.99365,15.187988 L 151.87646,16.104004 C 151.46631,16.278809 151.20068,16.439941 151.07959,16.586426 C 150.96045,16.73291 150.8999,16.933594 150.8999,17.188477 L 150.8999,18.06543 L 153.5249,18.06543 L 153.5249,17.237305 L 153.99365,17.237305 L 153.99365,19.612305 L 153.5249,19.612305 L 153.5249,18.862305 L 147.82178,18.862305 L 147.82178,19.612305 L 147.3374,19.612305 L 147.3374,16.637695 C 147.3374,16.065918 147.4917,15.624512 147.80029,15.313476 C 148.10889,15.002441 148.54639,14.84668 149.11475,14.84668 C 149.57178,14.84668 149.93115,14.960449 150.19482,15.187012 C 150.4585,15.413574 150.62256,15.751953 150.68701,16.202148 L 150.68701,16.202148 z M 150.41553,18.06543 L 150.41553,16.908691 C 150.41553,16.514648 150.31006,16.223633 150.09912,16.035156 C 149.88623,15.847168 149.56006,15.75293 149.1167,15.75293 C 148.67334,15.75293 148.34717,15.847168 148.13623,16.035156 C 147.92725,16.223633 147.82178,16.514648 147.82178,16.908691 L 147.82178,18.06543 L 150.41553,18.06543 L 150.41553,18.06543 z"
   id="path4202" />
			<path
   d="M 153.99365,13.54541 L 153.5249,13.54541 L 153.5249,12.79541 L 147.82178,12.79541 L 147.82178,13.54541 L 147.3374,13.54541 L 147.3374,8.8110352 L 148.82178,8.8110352 L 148.82178,9.2954102 L 147.88428,9.2954102 L 147.88428,11.998535 L 150.10303,11.998535 L 150.10303,10.061035 L 149.2749,10.061035 L 149.2749,9.5766602 L 151.47803,9.5766602 L 151.47803,10.061035 L 150.6499,10.061035 L 150.6499,11.998535 L 153.44678,11.998535 L 153.44678,9.2329102 L 152.50928,9.2329102 L 152.50928,8.7485352 L 153.99365,8.7485352 L 153.99365,13.54541 z"
   id="path4204" />
		</g><g
   id="g4206"
   style="fill-rule:nonzero;stroke:none;stroke-miterlimit:4">
			<path
   d="M 12.729492,201.08936 L 13.198242,201.08936 L 13.198242,201.83936 L 18.901367,201.83936 L 18.901367,201.08936 L 19.385742,201.08936 L 19.385742,203.38623 L 18.901367,203.38623 L 18.901367,202.63623 L 13.276367,202.63623 L 13.276367,205.32373 L 14.385742,205.32373 L 14.385742,205.80811 L 12.729492,205.80811 L 12.729492,201.08936 L 12.729492,201.08936 z"
   id="path4208" />
			<path
   d="M 12.729492,205.95557 L 13.198242,205.95557 L 13.198242,206.46631 L 19.385742,208.56006 L 19.385742,209.22021 L 13.198242,211.31787 L 13.198242,211.89307 L 12.729492,211.89307 L 12.729492,209.76025 L 13.198242,209.76025 L 13.198242,210.41162 L 14.666992,209.92139 L 14.666992,207.45264 L 13.198242,206.9624 L 13.198242,207.60498 L 12.729492,207.60498 L 12.729492,205.95557 L 12.729492,205.95557 z M 15.151367,207.61377 L 15.151367,209.76904 L 18.30957,208.68896 L 15.151367,207.61377 L 15.151367,207.61377 z"
   id="path4210" />
			<path
   d="M 12.729492,212.25928 L 13.198242,212.25928 L 13.198242,213.00928 L 18.901367,213.00928 L 18.901367,212.25928 L 19.385742,212.25928 L 19.385742,214.55615 L 18.901367,214.55615 L 18.901367,213.80615 L 16.620117,213.80615 L 16.620117,216.85303 L 18.901367,216.85303 L 18.901367,216.10303 L 19.385742,216.10303 L 19.385742,218.3999 L 18.901367,218.3999 L 18.901367,217.6499 L 13.198242,217.6499 L 13.198242,218.3999 L 12.729492,218.3999 L 12.729492,216.10303 L 13.198242,216.10303 L 13.198242,216.85303 L 16.073242,216.85303 L 16.073242,213.80615 L 13.198242,213.80615 L 13.198242,214.55615 L 12.729492,214.55615 L 12.729492,212.25928 L 12.729492,212.25928 z"
   id="path4212" />
			<path
   d="M 13.198242,220.8335 L 13.198242,221.5835 L 12.729492,221.5835 L 12.729492,219.28662 L 13.198242,219.28662 L 13.198242,220.03662 L 18.901367,220.03662 L 18.901367,219.28662 L 19.385742,219.28662 L 19.385742,221.5835 L 18.901367,221.5835 L 18.901367,220.8335 L 13.198242,220.8335 z"
   id="path4214" />
			<path
   d="M 16.036133,225.87939 C 15.979492,226.06396 15.882812,226.22217 15.74707,226.35498 C 15.611328,226.48779 15.420898,226.60498 15.175781,226.71045 L 13.198242,227.56494 L 13.198242,228.27881 L 12.729492,228.27881 L 12.729492,226.89404 L 14.845703,225.97803 C 15.255859,225.80225 15.521484,225.64209 15.642578,225.49561 C 15.762695,225.34912 15.823242,225.14795 15.823242,224.89307 L 15.823242,224.01611 L 13.198242,224.01611 L 13.198242,224.84424 L 12.729492,224.84424 L 12.729492,222.46924 L 13.198242,222.46924 L 13.198242,223.21924 L 18.901367,223.21924 L 18.901367,222.46924 L 19.385742,222.46924 L 19.385742,225.44385 C 19.385742,226.01514 19.231445,226.45654 18.922851,226.76807 C 18.613281,227.07959 18.175781,227.23486 17.608398,227.23486 C 17.151367,227.23486 16.791016,227.12061 16.52832,226.89404 C 16.264648,226.66748 16.100586,226.32959 16.036133,225.87939 L 16.036133,225.87939 z M 16.307617,224.01611 L 16.307617,225.17334 C 16.307617,225.56689 16.413086,225.85791 16.624023,226.04639 C 16.835938,226.23389 17.163086,226.32861 17.606445,226.32861 C 18.049805,226.32861 18.375977,226.23389 18.586914,226.04639 C 18.795899,225.85791 18.901367,225.56689 18.901367,225.17334 L 18.901367,224.01611 L 16.307617,224.01611 L 16.307617,224.01611 z"
   id="path4216" />
			<path
   d="M 12.729492,228.53662 L 13.198242,228.53662 L 13.198242,229.28662 L 18.901367,229.28662 L 18.901367,228.53662 L 19.385742,228.53662 L 19.385742,233.271 L 17.901367,233.271 L 17.901367,232.78662 L 18.838867,232.78662 L 18.838867,230.0835 L 16.620117,230.0835 L 16.620117,232.021 L 17.448242,232.021 L 17.448242,232.50537 L 15.245117,232.50537 L 15.245117,232.021 L 16.073242,232.021 L 16.073242,230.0835 L 13.276367,230.0835 L 13.276367,232.84912 L 14.213867,232.84912 L 14.213867,233.3335 L 12.729492,233.3335 L 12.729492,228.53662 L 12.729492,228.53662 z"
   id="path4218" />
		</g><g
   id="g4220"
   style="fill-rule:nonzero;stroke:#000000;stroke-miterlimit:4">
			<path
   d="M 14.291992,20.330566 C 14.303711,32.304199 29.318359,41.024902 33.708984,50.509277 C 38.145508,41.047363 53.204102,32.402344 53.276367,20.429199 C 53.310547,14.775879 48.938477,10.186523 43.555664,10.172363 C 38.172852,10.158691 33.798828,14.726562 33.78418,20.379883 C 33.798828,14.726562 29.446289,10.13623 24.063477,10.123047 C 18.678711,10.109375 14.305664,14.677246 14.291992,20.330566 L 14.291992,20.330566 z"
   id="path4222"
   style="fill:#e61408;stroke:none" />
		</g><g
   id="g4224"
   style="fill-rule:nonzero;stroke:#000000;stroke-miterlimit:4">
			<path
   d="M 152.37451,221.62451 C 152.36084,209.65186 137.34717,200.93018 132.95654,191.4458 C 128.51904,200.90771 113.4624,209.55225 113.39014,221.52686 C 113.35498,227.1792 117.72803,231.76904 123.11084,231.78271 C 128.49365,231.79639 132.8667,227.229 132.88037,221.57568 C 132.8667,227.229 137.22021,231.81885 142.60303,231.83252 C 147.98779,231.84521 152.36084,227.27783 152.37451,221.62451 z"
   id="path4226"
   style="fill:#e61408;stroke:none" />
		</g><path
   d="M 9.2509766,51.591797 L 22.725586,51.591797 L 22.725586,7.8417969 L 9.2509766,7.8417969 L 9.2509766,51.591797 z"
   id="path4228"
   style="fill:#ffffff;fill-rule:nonzero;stroke:none;stroke-miterlimit:4" /><path
   d="M 157.41553,190.02783 L 143.94092,190.02783 L 143.94092,233.77783 L 157.41553,233.77783 L 157.41553,190.02783 L 157.41553,190.02783 z"
   id="path4230"
   style="fill:#ffffff;fill-rule:nonzero;stroke:none;stroke-miterlimit:4" /><g
   id="g4232"
   style="fill-rule:nonzero;stroke:#000000;stroke-miterlimit:4">
			<path
   d="M 11.09668,26.870117 L 11.09668,24.338867 L 11.81543,24.338867 C 11.836914,25.016602 11.915039,25.51416 12.048828,25.831543 C 12.182617,26.148926 12.383789,26.307617 12.651367,26.307617 C 13.006836,26.307617 13.25293,26.038086 13.389648,25.499023 C 13.52832,24.959961 13.59668,23.94873 13.59668,22.46582 L 13.59668,8.0576172 L 12.40918,8.0576172 L 12.40918,6.7451172 L 16.72168,6.7451172 L 16.72168,8.0576172 L 15.69043,8.0576172 L 15.69043,22.552734 C 15.69043,24.310547 15.467773,25.594238 15.024414,26.404785 C 14.581055,27.214844 13.878906,27.620117 12.918945,27.620117 C 12.620117,27.620117 12.320313,27.557617 12.018555,27.432617 C 11.717774,27.307617 11.40918,27.120117 11.09668,26.870117 L 11.09668,26.870117 z"
   id="path4234"
   style="fill:#e61408;stroke:none" />
		</g><g
   id="g4236"
   style="fill-rule:nonzero;stroke:#000000;stroke-miterlimit:4">
			<path
   d="M 11.688477,31.319336 C 11.69043,34.192871 15.293945,36.286133 16.348633,38.562012 C 17.413086,36.291504 21.026367,34.216309 21.043945,31.342773 C 21.051758,29.986328 20.00293,28.884766 18.710938,28.881348 C 17.418945,28.87793 16.370117,29.974121 16.366211,31.331055 C 16.370117,29.974121 15.325195,28.872558 14.033203,28.869629 C 12.741211,28.866211 11.691406,29.962402 11.688477,31.319336 L 11.688477,31.319336 z"
   id="path4238"
   style="fill:#e61408;stroke:none" />
		</g><g
   id="g4240"
   style="fill-rule:nonzero;stroke:#000000;stroke-miterlimit:4">
			<path
   d="M 155.06592,210.6167 C 155.06201,207.74365 151.4585,205.6499 150.40576,203.37451 C 149.34131,205.64404 145.72607,207.72021 145.7085,210.59326 C 145.70068,211.94971 146.74951,213.05127 148.04248,213.0542 C 149.3335,213.05811 150.38428,211.9624 150.38623,210.60498 C 150.38428,211.9624 151.4292,213.06396 152.72021,213.06592 C 154.01318,213.06982 155.06201,211.97412 155.06592,210.6167 L 155.06592,210.6167 z"
   id="path4242"
   style="fill:#e61408;stroke:none" />
		</g><g
   id="g4244"
   style="fill-rule:nonzero;stroke:#000000;stroke-miterlimit:4">
			<path
   d="M 155.72412,215.83545 L 155.72412,218.3667 L 155.00537,218.3667 C 154.98389,217.68896 154.90576,217.19092 154.771,216.87354 C 154.63818,216.55615 154.43701,216.39795 154.16943,216.39795 C 153.81396,216.39795 153.56787,216.66748 153.43115,217.20654 C 153.29248,217.74561 153.22412,218.75635 153.22412,220.23975 L 153.22412,234.64795 L 154.41162,234.64795 L 154.41162,235.96045 L 150.09912,235.96045 L 150.09912,234.64795 L 151.13037,234.64795 L 151.13037,220.15186 C 151.13037,218.39404 151.35303,217.11084 151.79639,216.30029 C 152.23975,215.48975 152.94092,215.08545 153.90186,215.08545 C 154.20068,215.08545 154.49951,215.14795 154.80225,215.27295 C 155.10303,215.39795 155.41162,215.58545 155.72412,215.83545 L 155.72412,215.83545 z"
   id="path4246"
   style="fill:#e61408;stroke:none" />
		</g>
</svg>