<?xml version="1.0" encoding="UTF-8" standalone="no"?>
<!-- Created with Inkscape (http://www.inkscape.org/) -->
<svg
   xmlns:svg="http://www.w3.org/2000/svg"
   xmlns="http://www.w3.org/2000/svg"
   version="1.0"
   width="167.08838pt"
   height="242.6665pt"
   viewBox="0 0 167.08838 242.6665"
   id="svg3157"
   xml:space="preserve"><defs
   id="defs3545">
		
		
		
		
		
		
		
		
		
		
		
		
		
		
		
		
		
		
		
		
		
		
		
		
		
		
		
		
		
		
		
		
		
		
		
		
		
		
		
		
		
		
		
		
		
		
		
		
		
		
		
		
		
		
		
		
		
		
		
	</defs>
	<path
   d="M 166.83838,235.54736 C 166.83838,239.33057 163.75244,242.4165 159.96924,242.4165 L 7.1113281,242.4165 C 3.3359375,242.4165 0.25,239.33057 0.25,235.54736 L 0.25,7.1201172 C 0.25,3.3447266 3.3359375,0.25 7.1113281,0.25 L 159.96924,0.25 C 163.75244,0.25 166.83838,3.3447266 166.83838,7.1201172 L 166.83838,235.54736 L 166.83838,235.54736 z"
   id="path3160"
   style="fill:#ffffff;fill-rule:nonzero;stroke:#000000;stroke-width:0.5;stroke-miterlimit:4" /><path
   d="M 160.86768,237.63525 L 7,237.63525 L 7,4.8222656 L 160.86768,4.8222656 L 160.86768,237.63525 L 160.86768,237.63525 z"
   id="path3162"
   style="fill:#ffffff;fill-rule:nonzero;stroke:#000000;stroke-width:1.5;stroke-linejoin:round;stroke-miterlimit:4" /><g
   id="g3400"
   style="fill-rule:nonzero;stroke:none;stroke-miterlimit:4">
			<path
   d="M 153.94189,47.764648 L 153.52002,47.764648 L 153.52002,47.108398 L 148.53564,47.108398 L 148.53564,47.764648 L 148.11377,47.764648 L 148.11377,45.749023 L 148.53564,45.749023 L 148.53564,46.405273 L 153.45752,46.405273 L 153.45752,44.061523 L 152.47314,44.061523 L 152.47314,43.639648 L 153.94189,43.639648 L 153.94189,47.764648 z"
   id="path3402" />
			<path
   d="M 153.94189,43.520508 L 153.52002,43.520508 L 153.52002,43.067383 L 148.11377,41.235352 L 148.11377,40.657227 L 153.52002,38.821289 L 153.52002,38.317383 L 153.94189,38.317383 L 153.94189,40.18457 L 153.52002,40.18457 L 153.52002,39.614258 L 152.25439,40.043945 L 152.25439,42.204102 L 153.52002,42.633789 L 153.52002,42.071289 L 153.94189,42.071289 L 153.94189,43.520508 z M 151.83252,42.063477 L 151.83252,40.176758 L 149.05908,41.12207 L 151.83252,42.063477 z"
   id="path3404" />
			<path
   d="M 153.94189,38.039062 L 153.52002,38.039062 L 153.52002,37.351562 L 148.53564,37.351562 L 148.53564,38.039062 L 148.11377,38.039062 L 148.11377,36.725586 L 152.70752,33.648438 L 148.53564,33.648438 L 148.53564,34.335938 L 148.11377,34.335938 L 148.11377,32.539062 L 148.53564,32.539062 L 148.53564,33.226562 L 154.05127,33.226562 L 154.05127,33.639648 L 149.14697,36.929688 L 153.52002,36.929688 L 153.52002,36.242188 L 153.94189,36.242188 L 153.94189,38.039062 z"
   id="path3406" />
			<path
   d="M 152.39502,27.246094 C 152.93994,27.397461 153.35205,27.651367 153.63135,28.007813 C 153.9126,28.365234 154.05127,28.817383 154.05127,29.364258 C 154.05127,29.701172 153.98682,30.012695 153.85596,30.298828 C 153.72705,30.585938 153.53564,30.839844 153.28369,31.061523 C 152.99072,31.319336 152.66064,31.511719 152.28955,31.636719 C 151.91846,31.761719 151.49854,31.824219 151.02979,31.824219 C 150.12549,31.824219 149.39502,31.59375 148.83838,31.131836 C 148.28369,30.670898 148.00439,30.061523 148.00439,29.305664 C 148.00439,29.027344 148.04736,28.728516 148.12939,28.411133 C 148.21143,28.092773 148.33643,27.750977 148.50439,27.386719 L 149.84814,27.386719 L 149.84814,27.777344 C 149.36182,27.860352 149.00244,28.030273 148.77197,28.286133 C 148.5415,28.542969 148.42627,28.900391 148.42627,29.361328 C 148.42627,29.910156 148.64697,30.325195 149.08838,30.605469 C 149.52783,30.886719 150.17627,31.027344 151.02979,31.027344 C 151.8833,31.027344 152.52979,30.886719 152.96924,30.606445 C 153.41064,30.326172 153.62939,29.913086 153.62939,29.365234 C 153.62939,28.983399 153.52783,28.669922 153.3208,28.423828 C 153.11377,28.176758 152.80518,27.998047 152.39502,27.886719 L 152.39502,27.246094 L 152.39502,27.246094 z"
   id="path3408" />
			<path
   d="M 153.94189,26.429687 L 153.52002,26.429687 L 153.52002,25.773437 L 148.53564,25.773437 L 148.53564,26.429687 L 148.11377,26.429687 L 148.11377,22.289062 L 149.41064,22.289062 L 149.41064,22.710937 L 148.59814,22.710937 L 148.59814,25.070312 L 150.53564,25.070312 L 150.53564,23.382812 L 149.80127,23.382812 L 149.80127,22.960937 L 151.75439,22.960937 L 151.75439,23.382812 L 151.02002,23.382812 L 151.02002,25.070312 L 153.45752,25.070312 L 153.45752,22.648437 L 152.64502,22.648437 L 152.64502,22.226562 L 153.94189,22.226562 L 153.94189,26.429687 z"
   id="path3410" />
			<path
   d="M 153.94189,21.28418 L 153.52002,21.28418 L 153.52002,20.62793 L 148.53564,20.62793 L 148.53564,21.28418 L 148.11377,21.28418 L 148.11377,19.268555 L 148.53564,19.268555 L 148.53564,19.924805 L 153.45752,19.924805 L 153.45752,17.581055 L 152.47314,17.581055 L 152.47314,17.15918 L 153.94189,17.15918 L 153.94189,21.28418 z"
   id="path3412" />
			<path
   d="M 154.05127,14.102539 C 154.05127,14.452149 153.98682,14.773438 153.85596,15.067383 C 153.72705,15.360352 153.53564,15.618164 153.28369,15.839844 C 152.99072,16.097656 152.66064,16.290039 152.2915,16.415039 C 151.92236,16.540039 151.50244,16.602539 151.02979,16.602539 C 150.55908,16.602539 150.13916,16.540039 149.76807,16.415039 C 149.39697,16.290039 149.06494,16.097656 148.77393,15.839844 C 148.52002,15.615234 148.32666,15.358398 148.19775,15.069336 C 148.06885,14.779297 148.00439,14.457031 148.00439,14.102539 C 148.00439,13.356445 148.28174,12.753906 148.83643,12.292969 C 149.39111,11.833008 150.12158,11.602539 151.02979,11.602539 C 151.49658,11.602539 151.9165,11.666016 152.28955,11.791992 C 152.6626,11.918945 152.99463,12.111328 153.28369,12.369141 C 153.5376,12.59375 153.729,12.850586 153.85791,13.140625 C 153.98682,13.429688 154.05127,13.750977 154.05127,14.102539 z M 153.62939,14.100586 C 153.62939,13.539062 153.41064,13.115234 152.97314,12.829102 C 152.53564,12.542969 151.88721,12.399414 151.02979,12.399414 C 150.17041,12.399414 149.52197,12.542969 149.08447,12.829102 C 148.64502,13.115234 148.42627,13.539062 148.42627,14.100586 C 148.42627,14.665039 148.64502,15.09082 149.08447,15.376953 C 149.52197,15.663086 150.17041,15.805664 151.02979,15.805664 C 151.88721,15.805664 152.53564,15.663086 152.97314,15.376953 C 153.41064,15.09082 153.62939,14.665039 153.62939,14.100586 z"
   id="path3414" />
			<path
   d="M 153.94189,9.8701172 L 153.52002,9.8701172 L 153.52002,9.2138672 L 148.58252,9.2138672 L 148.58252,10.729492 L 149.48877,10.729492 L 149.48877,11.151367 L 148.11377,11.151367 L 148.11377,6.5732422 L 149.48877,6.5732422 L 149.48877,6.9951172 L 148.58252,6.9951172 L 148.58252,8.5107422 L 153.52002,8.5107422 L 153.52002,7.8544922 L 153.94189,7.8544922 L 153.94189,9.8701172 z"
   id="path3416" />
		</g><g
   id="g3418"
   style="fill-rule:nonzero;stroke:none;stroke-miterlimit:4">
			<path
   d="M 12.679688,194.31885 L 13.101563,194.31885 L 13.101563,194.9751 L 18.085938,194.9751 L 18.085938,194.31885 L 18.507812,194.31885 L 18.507812,196.33447 L 18.085938,196.33447 L 18.085938,195.67822 L 13.164062,195.67822 L 13.164062,198.02197 L 14.148438,198.02197 L 14.148438,198.44385 L 12.679688,198.44385 L 12.679688,194.31885 L 12.679688,194.31885 z"
   id="path3420" />
			<path
   d="M 12.679688,198.56299 L 13.101563,198.56299 L 13.101563,199.01611 L 18.507813,200.84814 L 18.507813,201.42627 L 13.101563,203.26221 L 13.101563,203.76611 L 12.679688,203.76611 L 12.679688,201.89893 L 13.101563,201.89893 L 13.101563,202.46924 L 14.367188,202.03955 L 14.367188,199.87939 L 13.101563,199.44971 L 13.101563,200.01221 L 12.679688,200.01221 L 12.679688,198.56299 L 12.679688,198.56299 z M 14.789062,200.02002 L 14.789062,201.90674 L 17.5625,200.96143 L 14.789062,200.02002 z"
   id="path3422" />
			<path
   d="M 12.679688,204.04346 L 13.101563,204.04346 L 13.101563,204.73096 L 18.085938,204.73096 L 18.085938,204.04346 L 18.507812,204.04346 L 18.507812,205.35791 L 13.916016,208.43408 L 18.085938,208.43408 L 18.085938,207.74658 L 18.507812,207.74658 L 18.507812,209.54346 L 18.085938,209.54346 L 18.085938,208.85596 L 12.570312,208.85596 L 12.570312,208.44189 L 17.474609,205.15283 L 13.101562,205.15283 L 13.101562,205.84033 L 12.679687,205.84033 L 12.679687,204.04346 L 12.679688,204.04346 z"
   id="path3424" />
			<path
   d="M 14.226562,214.83643 C 13.681641,214.68604 13.269531,214.43213 12.990234,214.07471 C 12.709961,213.71729 12.570312,213.26611 12.570312,212.71924 C 12.570312,212.38135 12.635742,212.0708 12.765625,211.78369 C 12.895508,211.49658 13.086914,211.24268 13.339844,211.02197 C 13.630859,210.76416 13.961914,210.5708 14.333008,210.4458 C 14.703125,210.3208 15.123047,210.2583 15.591797,210.2583 C 16.49707,210.2583 17.228516,210.48877 17.783203,210.95166 C 18.339844,211.4126 18.617188,212.02197 18.617188,212.77783 C 18.617188,213.05518 18.576172,213.354 18.493164,213.67236 C 18.410157,213.99072 18.285156,214.33252 18.117188,214.6958 L 16.773438,214.6958 L 16.773438,214.30518 C 17.259766,214.22314 17.619141,214.05322 17.84961,213.79736 C 18.080078,213.53955 18.195313,213.18213 18.195313,212.72119 C 18.195313,212.17236 17.97461,211.7583 17.535156,211.47705 C 17.09375,211.1958 16.446289,211.05518 15.591797,211.05518 C 14.739258,211.05518 14.09375,211.1958 13.652344,211.47705 C 13.212891,211.75635 12.992188,212.17041 12.992188,212.71729 C 12.992188,213.1001 13.095703,213.4126 13.301758,213.65869 C 13.507813,213.90674 13.816406,214.08447 14.226563,214.1958 L 14.226563,214.83643 L 14.226562,214.83643 z"
   id="path3426" />
			<path
   d="M 12.679688,215.65283 L 13.101563,215.65283 L 13.101563,216.30908 L 18.085938,216.30908 L 18.085938,215.65283 L 18.507812,215.65283 L 18.507812,219.79346 L 17.210938,219.79346 L 17.210938,219.37158 L 18.023438,219.37158 L 18.023438,217.01221 L 16.085938,217.01221 L 16.085938,218.69971 L 16.820312,218.69971 L 16.820312,219.12158 L 14.867188,219.12158 L 14.867188,218.69971 L 15.601562,218.69971 L 15.601562,217.01221 L 13.164062,217.01221 L 13.164062,219.43408 L 13.976562,219.43408 L 13.976562,219.85596 L 12.679688,219.85596 L 12.679688,215.65283 L 12.679688,215.65283 z"
   id="path3428" />
			<path
   d="M 12.679688,220.79932 L 13.101563,220.79932 L 13.101563,221.45557 L 18.085938,221.45557 L 18.085938,220.79932 L 18.507812,220.79932 L 18.507812,222.81494 L 18.085938,222.81494 L 18.085938,222.15869 L 13.164062,222.15869 L 13.164062,224.50244 L 14.148438,224.50244 L 14.148438,224.92432 L 12.679688,224.92432 L 12.679688,220.79932 L 12.679688,220.79932 z"
   id="path3430" />
			<path
   d="M 12.570312,227.98096 C 12.570312,227.63135 12.635742,227.30908 12.765625,227.01611 C 12.895508,226.72314 13.086914,226.46533 13.339844,226.24268 C 13.630859,225.98486 13.960938,225.79346 14.331055,225.66846 C 14.700195,225.54346 15.121094,225.48096 15.591797,225.48096 C 16.0625,225.48096 16.483398,225.54346 16.854492,225.66846 C 17.225586,225.79346 17.556641,225.98486 17.847656,226.24268 C 18.103516,226.46729 18.294922,226.7251 18.423828,227.01416 C 18.552734,227.30322 18.617188,227.62549 18.617188,227.98096 C 18.617188,228.72705 18.339844,229.32861 17.785156,229.78955 C 17.231445,230.25049 16.5,230.48096 15.591797,230.48096 C 15.125977,230.48096 14.706055,230.4165 14.333008,230.2915 C 13.958984,230.16455 13.62793,229.97119 13.339844,229.71338 C 13.083984,229.48877 12.892578,229.23291 12.763672,228.94189 C 12.634765,228.65283 12.570312,228.33252 12.570312,227.98096 L 12.570312,227.98096 z M 12.992188,227.98291 C 12.992188,228.54346 13.210938,228.96729 13.648438,229.25439 C 14.086914,229.53955 14.734375,229.68408 15.591797,229.68408 C 16.451172,229.68408 17.100586,229.53955 17.539062,229.25439 C 17.976562,228.96729 18.195312,228.54346 18.195312,227.98291 C 18.195312,227.41846 17.976562,226.99268 17.539062,226.70557 C 17.100586,226.42041 16.451172,226.27783 15.591797,226.27783 C 14.734375,226.27783 14.086914,226.42041 13.648438,226.70557 C 13.210938,226.99268 12.992188,227.41846 12.992188,227.98291 L 12.992188,227.98291 z"
   id="path3432" />
			<path
   d="M 12.679688,232.21338 L 13.101563,232.21338 L 13.101563,232.86963 L 18.039062,232.86963 L 18.039062,231.354 L 17.132812,231.354 L 17.132812,230.93213 L 18.507812,230.93213 L 18.507812,235.51025 L 17.132812,235.51025 L 17.132812,235.08838 L 18.039062,235.08838 L 18.039062,233.57275 L 13.101562,233.57275 L 13.101562,234.229 L 12.679688,234.229 L 12.679688,232.21338 L 12.679688,232.21338 z"
   id="path3434" />
		</g><g
   id="g3436"
   style="fill-rule:nonzero;stroke:none;stroke-miterlimit:4">
			<path
   d="M 42.332031,17.920898 C 42.332031,22.647461 38.383789,26.476563 33.511719,26.476563 C 28.640625,26.476563 24.691406,22.647461 24.691406,17.920898 C 24.691406,13.196289 28.640625,9.3662109 33.511719,9.3662109 C 38.383789,9.3662109 42.332031,13.196289 42.332031,17.920898 z"
   id="path3438" />
			<path
   d="M 53.689453,34.108398 C 53.689453,38.833008 49.740234,42.663086 44.869141,42.663086 C 39.99707,42.663086 36.048828,38.833008 36.048828,34.108398 C 36.048828,29.382813 39.99707,25.553711 44.869141,25.553711 C 49.740234,25.553711 53.689453,29.382813 53.689453,34.108398 z"
   id="path3440" />
			<path
   d="M 31.103516,34.170898 C 31.103516,35.901367 30.574219,37.510742 29.663086,38.856445 C 28.086914,41.186523 25.369141,42.725586 22.28125,42.725586 C 17.410156,42.725586 13.461914,38.896484 13.461914,34.170898 C 13.461914,29.446289 17.410156,25.616211 22.28125,25.616211 C 27.15332,25.616211 31.103516,29.446289 31.103516,34.170898 z"
   id="path3442" />
			<g
   id="g3444">
				<path
   d="M 43.857422,50.774414 C 39.501953,50.77832 37.210937,47.235352 36.007812,43.692383 C 34.806641,40.150391 34.693359,36.606445 34.693359,36.606445 L 32.470703,36.588867 C 32.470703,36.588867 32.052734,50.764649 23.34375,50.771484 L 43.857422,50.774414 L 43.857422,50.774414 z"
   id="path3446" />
			</g>
			<g
   id="g3448">
				<path
   d="M 27.515625,24.195312 C 32.470703,29.149414 32.470703,36.588867 32.470703,36.588867 L 34.693359,36.606445 C 34.693359,36.606445 34.693359,29.010742 39.507812,24.195312"
   id="path3450" />
			</g>
			<g
   id="g3452">
				<path
   d="M 28.507812,40.115234 C 33.460938,35.161133 40.900391,35.161133 40.900391,35.161133 L 40.917969,32.938477 C 40.917969,32.938477 33.322266,32.938477 28.507812,28.124023"
   id="path3454" />
			</g>
			<g
   id="g3456">
				<path
   d="M 38.443359,40.151367 C 33.489258,35.198242 26.050781,35.198242 26.050781,35.198242 L 26.033203,32.975586 C 26.033203,32.975586 33.628906,32.975586 38.443359,28.160156"
   id="path3458" />
			</g>
		</g><g
   id="g3460"
   style="fill-rule:nonzero;stroke:none;stroke-miterlimit:4">
			<path
   d="M 124.65674,224.32861 C 124.65674,219.60205 128.604,215.77197 133.47705,215.77197 C 138.34814,215.77197 142.29736,219.60205 142.29736,224.32861 C 142.29736,229.05127 138.34814,232.8833 133.47705,232.8833 C 128.604,232.8833 124.65674,229.05127 124.65674,224.32861 z"
   id="path3462" />
			<path
   d="M 113.29932,208.14111 C 113.29932,203.4165 117.24854,199.58643 122.11963,199.58643 C 126.99072,199.58643 130.93994,203.4165 130.93994,208.14111 C 130.93994,212.86572 126.99072,216.6958 122.11963,216.6958 C 117.24854,216.6958 113.29932,212.86572 113.29932,208.14111 z"
   id="path3464" />
			<path
   d="M 135.88525,208.07861 C 135.88525,206.34814 136.41455,204.73877 137.32471,203.39111 C 138.90088,201.06299 141.61963,199.52393 144.70752,199.52393 C 149.57861,199.52393 153.52588,203.35205 153.52588,208.07861 C 153.52588,212.80322 149.57861,216.6333 144.70752,216.6333 C 139.83447,216.6333 135.88525,212.80322 135.88525,208.07861 z"
   id="path3466" />
			<g
   id="g3468">
				<path
   d="M 123.13135,191.47314 C 127.48682,191.47119 129.77783,195.01416 130.98096,198.55518 C 132.18213,202.09814 132.29541,205.64307 132.29541,205.64307 L 134.51807,205.66064 C 134.51807,205.66064 134.93604,191.48486 143.64502,191.47705 L 123.13135,191.47314 L 123.13135,191.47314 z"
   id="path3470" />
			</g>
			<g
   id="g3472">
				<path
   d="M 139.47314,218.05322 C 134.51807,213.1001 134.51807,205.66064 134.51807,205.66064 L 132.29541,205.64307 C 132.29541,205.64307 132.29541,213.23877 127.48096,218.05322"
   id="path3474" />
			</g>
			<g
   id="g3476">
				<path
   d="M 138.48096,202.1333 C 133.52783,207.08838 126.08838,207.08838 126.08838,207.08838 L 126.0708,209.31104 C 126.0708,209.31104 133.6665,209.31104 138.48096,214.12549"
   id="path3478" />
			</g>
			<g
   id="g3480">
				<path
   d="M 128.54541,202.09619 C 133.49854,207.05127 140.93799,207.05127 140.93799,207.05127 L 140.95557,209.27393 C 140.95557,209.27393 133.35986,209.27393 128.54541,214.08838"
   id="path3482" />
			</g>
		</g><path
   d="M 7.9394531,51.831055 L 22.30957,51.831055 L 22.30957,8.0810547 L 7.9394531,8.0810547 L 7.9394531,51.831055 z"
   id="path3484"
   style="fill:#ffffff;fill-rule:nonzero;stroke:none;stroke-miterlimit:4" /><g
   id="g3486"
   style="fill-rule:nonzero;stroke:#000000;stroke-miterlimit:4">
			<path
   d="M 11.291016,26.415039 L 11.291016,23.883789 L 12.009766,23.883789 C 12.03125,24.561523 12.109375,25.05957 12.243164,25.375977 C 12.376953,25.694336 12.578125,25.852539 12.845703,25.852539 C 13.201172,25.852539 13.447266,25.583008 13.583984,25.043945 C 13.722656,24.504883 13.791016,23.493164 13.791016,22.010742 L 13.791016,7.6025391 L 12.603516,7.6025391 L 12.603516,6.2900391 L 16.916016,6.2900391 L 16.916016,7.6025391 L 15.884766,7.6025391 L 15.884766,22.097656 C 15.884766,23.855469 15.662109,25.139648 15.21875,25.950195 C 14.775391,26.759766 14.073242,27.165039 13.113281,27.165039 C 12.814453,27.165039 12.514648,27.102539 12.212891,26.977539 C 11.912109,26.852539 11.603516,26.665039 11.291016,26.415039 L 11.291016,26.415039 z"
   id="path3488"
   style="stroke:none" />
		</g><g
   id="g3490"
   style="fill-rule:nonzero;stroke:none;stroke-miterlimit:4">
			<path
   d="M 18.103516,31.072266 C 18.103516,32.206055 17.15625,33.125977 15.986328,33.125977 C 14.818359,33.125977 13.870117,32.206055 13.870117,31.072266 C 13.870117,29.938477 14.818359,29.018555 15.986328,29.018555 C 17.15625,29.018555 18.103516,29.938477 18.103516,31.072266 z"
   id="path3492" />
			<path
   d="M 20.830078,34.957031 C 20.830078,36.09082 19.881836,37.010742 18.712891,37.010742 C 17.542969,37.010742 16.595703,36.09082 16.595703,34.957031 C 16.595703,33.823242 17.542969,32.90332 18.712891,32.90332 C 19.881836,32.90332 20.830078,33.823242 20.830078,34.957031 z"
   id="path3494" />
			<path
   d="M 15.408203,34.97168 C 15.408203,35.387695 15.28125,35.774414 15.0625,36.09668 C 14.685547,36.655273 14.033203,37.024414 13.291016,37.024414 C 12.123047,37.024414 11.174805,36.106445 11.174805,34.97168 C 11.174805,33.838867 12.123047,32.918945 13.291016,32.918945 C 14.460937,32.918945 15.408203,33.838867 15.408203,34.97168 z"
   id="path3496" />
			<g
   id="g3498">
				<path
   d="M 18.469727,38.957031 C 17.423828,38.958008 16.875,38.107422 16.585937,37.256836 C 16.296875,36.407227 16.270508,35.556641 16.270508,35.556641 L 15.736328,35.551758 C 15.736328,35.551758 15.636719,38.954102 13.546875,38.956055 L 18.469727,38.957031 L 18.469727,38.957031 z"
   id="path3500" />
			</g>
			<g
   id="g3502">
				<path
   d="M 14.547852,32.578125 C 15.736328,33.766602 15.736328,35.551758 15.736328,35.551758 L 16.270508,35.556641 C 16.270508,35.556641 16.270508,33.733398 17.425781,32.578125"
   id="path3504" />
			</g>
			<g
   id="g3506">
				<path
   d="M 14.785156,36.399414 C 15.974609,35.209961 17.759766,35.209961 17.759766,35.209961 L 17.763672,34.676758 C 17.763672,34.676758 15.941406,34.676758 14.785156,33.520508"
   id="path3508" />
			</g>
			<g
   id="g3510">
				<path
   d="M 17.169922,36.407227 C 15.981445,35.21875 14.196289,35.21875 14.196289,35.21875 L 14.191406,34.68457 C 14.191406,34.68457 16.014648,34.68457 17.169922,33.530273"
   id="path3512" />
			</g>
		</g><path
   d="M 160.06104,190.34814 L 144.68018,190.34814 L 144.68018,234.09814 L 160.06104,234.09814 L 160.06104,190.34814 z"
   id="path3514"
   style="fill:#ffffff;fill-rule:nonzero;stroke:none;stroke-miterlimit:4" /><g
   id="g3516"
   style="fill-rule:nonzero;stroke:#000000;stroke-miterlimit:4">
			<path
   d="M 155.84619,215.57861 L 155.84619,218.10986 L 155.12744,218.10986 C 155.10596,217.43213 155.02783,216.93408 154.89502,216.61768 C 154.76025,216.29932 154.55908,216.14111 154.2915,216.14111 C 153.93799,216.14111 153.69189,216.41064 153.55322,216.94971 C 153.4165,217.48877 153.34619,218.50049 153.34619,219.98291 L 153.34619,234.39111 L 154.53369,234.39111 L 154.53369,235.70361 L 150.22119,235.70361 L 150.22119,234.39111 L 151.25244,234.39111 L 151.25244,219.89697 C 151.25244,218.13916 151.4751,216.854 151.91846,216.04346 C 152.36182,215.23486 153.06494,214.82861 154.02393,214.82861 C 154.32275,214.82861 154.62354,214.89111 154.92432,215.01611 C 155.22705,215.14111 155.53369,215.32861 155.84619,215.57861 L 155.84619,215.57861 z"
   id="path3518"
   style="stroke:none" />
		</g><g
   id="g3520"
   style="fill-rule:nonzero;stroke:none;stroke-miterlimit:4">
			<path
   d="M 148.24268,210.68408 C 148.24268,209.55127 149.18994,208.63135 150.35986,208.63135 C 151.52783,208.63135 152.47705,209.55127 152.47705,210.68408 C 152.47705,211.81885 151.52783,212.73682 150.35986,212.73682 C 149.18994,212.73682 148.24268,211.81885 148.24268,210.68408 z"
   id="path3522" />
			<path
   d="M 145.51611,206.79932 C 145.51611,205.6665 146.46338,204.74658 147.6333,204.74658 C 148.80322,204.74658 149.75049,205.6665 149.75049,206.79932 C 149.75049,207.93408 148.80322,208.85205 147.6333,208.85205 C 146.46338,208.85205 145.51611,207.93408 145.51611,206.79932 z"
   id="path3524" />
			<path
   d="M 150.93799,206.78564 C 150.93799,206.36963 151.06494,205.98291 151.28369,205.66064 C 151.66064,205.1001 152.31299,204.73096 153.05518,204.73096 C 154.22314,204.73096 155.17041,205.65088 155.17041,206.78564 C 155.17041,207.91846 154.22314,208.83838 153.05518,208.83838 C 151.88525,208.83838 150.93799,207.91846 150.93799,206.78564 z"
   id="path3526" />
			<g
   id="g3528">
				<path
   d="M 147.87549,202.79932 C 148.92236,202.79932 149.47119,203.64893 149.76025,204.49854 C 150.04932,205.3501 150.07666,206.19971 150.07666,206.19971 L 150.60986,206.20361 C 150.60986,206.20361 150.70947,202.80127 152.79932,202.80127 L 147.87549,202.79932 L 147.87549,202.79932 z"
   id="path3530" />
			</g>
			<g
   id="g3532">
				<path
   d="M 151.79736,209.17822 C 150.60986,207.98877 150.60986,206.20361 150.60986,206.20361 L 150.07666,206.19971 C 150.07666,206.19971 150.07666,208.02393 148.92041,209.17822"
   id="path3534" />
			</g>
			<g
   id="g3536">
				<path
   d="M 151.56104,205.35791 C 150.37158,206.54736 148.58643,206.54736 148.58643,206.54736 L 148.58252,207.08057 C 148.58252,207.08057 150.40479,207.08057 151.56104,208.23682"
   id="path3538" />
			</g>
			<g
   id="g3540">
				<path
   d="M 149.17627,205.34814 C 150.36377,206.5376 152.15088,206.5376 152.15088,206.5376 L 152.15479,207.0708 C 152.15479,207.0708 150.33057,207.0708 149.17627,208.22705"
   id="path3542" />
			</g>
		</g>
</svg>