<?xml version="1.0" encoding="UTF-8" standalone="no"?>
<!-- Created with Inkscape (http://www.inkscape.org/) -->
<svg
   xmlns:svg="http://www.w3.org/2000/svg"
   xmlns="http://www.w3.org/2000/svg"
   version="1.0"
   width="167.08887pt"
   height="242.66748pt"
   viewBox="0 0 167.08887 242.66748"
   id="svg3551"
   xml:space="preserve"><defs
   id="defs3913">
		
		
		
		
		
		
		
		
		
		
		
		
		
		
		
		
		
		
		
		
		
		
		
		
		
		
		
		
		
		
		
		
		
		
		
		
	</defs>
	<path
   d="M 166.83887,235.54639 C 166.83887,239.32959 163.75195,242.41748 159.96875,242.41748 L 7.1113281,242.41748 C 3.3364258,242.41748 0.25,239.32959 0.25,235.54639 L 0.25,7.1191406 C 0.25,3.3447266 3.3364258,0.25 7.1113281,0.25 L 159.96875,0.25 C 163.75195,0.25 166.83887,3.3447266 166.83887,7.1191406 L 166.83887,235.54639 L 166.83887,235.54639 z"
   id="path3554"
   style="fill:#ffffff;fill-rule:nonzero;stroke:#000000;stroke-width:0.5;stroke-miterlimit:4" /><path
   d="M 159.82031,237.73975 L 7.3510742,237.73975 L 7.3510742,4.5195313 L 159.82031,4.5195313 L 159.82031,237.73975 L 159.82031,237.73975 z"
   id="path3556"
   style="fill:#ffffff;fill-rule:nonzero;stroke:#000000;stroke-width:1.5;stroke-linejoin:round;stroke-miterlimit:4" /><g
   id="g3864"
   style="fill-rule:nonzero;stroke:none;stroke-miterlimit:4">
			<path
   d="M 153.95117,43.56543 L 153.48242,43.56543 L 153.48242,42.81543 L 147.7793,42.81543 L 147.7793,43.56543 L 147.29492,43.56543 L 147.29492,41.268555 L 147.7793,41.268555 L 147.7793,42.018555 L 150.06055,42.018555 L 150.06055,38.97168 L 147.7793,38.97168 L 147.7793,39.72168 L 147.29492,39.72168 L 147.29492,37.424805 L 147.7793,37.424805 L 147.7793,38.174805 L 153.48242,38.174805 L 153.48242,37.424805 L 153.95117,37.424805 L 153.95117,39.72168 L 153.48242,39.72168 L 153.48242,38.97168 L 150.60742,38.97168 L 150.60742,42.018555 L 153.48242,42.018555 L 153.48242,41.268555 L 153.95117,41.268555 L 153.95117,43.56543 z"
   id="path3866" />
			<path
   d="M 153.95117,36.539062 L 153.48242,36.539062 L 153.48242,35.789062 L 147.7793,35.789062 L 147.7793,36.539062 L 147.29492,36.539062 L 147.29492,31.804688 L 148.7793,31.804688 L 148.7793,32.289062 L 147.8418,32.289062 L 147.8418,34.992188 L 150.06055,34.992188 L 150.06055,33.054688 L 149.23242,33.054688 L 149.23242,32.570312 L 151.43555,32.570312 L 151.43555,33.054688 L 150.60742,33.054688 L 150.60742,34.992188 L 153.4043,34.992188 L 153.4043,32.226562 L 152.4668,32.226562 L 152.4668,31.742188 L 153.95117,31.742188 L 153.95117,36.539062 z"
   id="path3868" />
			<path
   d="M 152.18555,25.422852 C 152.80664,25.594727 153.27734,25.884766 153.59668,26.291992 C 153.91602,26.698242 154.07617,27.213867 154.07617,27.837891 C 154.07617,28.22168 154.00195,28.576172 153.85352,28.90332 C 153.70508,29.230469 153.48633,29.519531 153.19727,29.772461 C 152.86523,30.066406 152.48633,30.285156 152.06348,30.427734 C 151.63965,30.570312 151.16016,30.641602 150.625,30.641602 C 149.59082,30.641602 148.75684,30.37793 148.12207,29.851562 C 147.4873,29.325195 147.16992,28.630859 147.16992,27.768555 C 147.16992,27.451172 147.21777,27.110351 147.31348,26.74707 C 147.40918,26.384766 147.55371,25.995117 147.74805,25.579101 L 149.2793,25.579101 L 149.2793,26.032226 C 148.72266,26.126953 148.3125,26.320312 148.0498,26.612305 C 147.78613,26.904297 147.6543,27.3125 147.6543,27.836914 C 147.6543,28.461914 147.90625,28.93457 148.4082,29.254883 C 148.91113,29.575195 149.65039,29.735352 150.625,29.735352 C 151.59766,29.735352 152.33594,29.575195 152.83789,29.253906 C 153.34082,28.933594 153.5918,28.459961 153.5918,27.833008 C 153.5918,27.397461 153.47461,27.038086 153.23926,26.755859 C 153.00391,26.473633 152.65234,26.268555 152.18555,26.141602 L 152.18555,25.422852 z"
   id="path3870" />
			<path
   d="M 153.95117,23.397461 L 153.48242,23.397461 L 153.48242,22.647461 L 147.82617,22.647461 L 147.82617,24.366211 L 148.87305,24.366211 L 148.87305,24.850586 L 147.29492,24.850586 L 147.29492,19.631836 L 148.87305,19.631836 L 148.87305,20.116211 L 147.82617,20.116211 L 147.82617,21.850586 L 153.48242,21.850586 L 153.48242,21.100586 L 153.95117,21.100586 L 153.95117,23.397461 z"
   id="path3872" />
			<path
   d="M 154.07617,16.25 C 154.07617,16.648438 154.00195,17.015625 153.85352,17.349609 C 153.70508,17.68457 153.48633,17.978516 153.19727,18.231445 C 152.86523,18.525391 152.4873,18.744141 152.06543,18.887695 C 151.64355,19.030273 151.16309,19.101562 150.625,19.101562 C 150.08789,19.101562 149.60645,19.030273 149.18359,18.887695 C 148.75977,18.744141 148.38086,18.525391 148.04883,18.231445 C 147.75684,17.975586 147.53809,17.682617 147.39062,17.352539 C 147.24414,17.022461 147.16992,16.654297 147.16992,16.25 C 147.16992,15.399414 147.48633,14.710937 148.11914,14.185547 C 148.75293,13.661133 149.58789,13.398437 150.625,13.398437 C 151.15723,13.398437 151.63672,13.470703 152.06348,13.615234 C 152.49023,13.758789 152.86816,13.978516 153.19727,14.273437 C 153.48926,14.529297 153.70898,14.822265 153.85547,15.152344 C 154.00195,15.482422 154.07617,15.848633 154.07617,16.25 L 154.07617,16.25 z M 153.5918,16.248047 C 153.5918,15.606445 153.3418,15.12207 152.84277,14.794922 C 152.34277,14.467773 151.60352,14.304687 150.625,14.304687 C 149.64355,14.304687 148.90332,14.467773 148.4043,14.794922 C 147.9043,15.12207 147.6543,15.606445 147.6543,16.248047 C 147.6543,16.892578 147.9043,17.37793 148.4043,17.705078 C 148.90332,18.032227 149.64355,18.195313 150.625,18.195313 C 151.60352,18.195313 152.34277,18.032227 152.84277,17.705078 C 153.3418,17.37793 153.5918,16.892578 153.5918,16.248047 z"
   id="path3874" />
			<path
   d="M 150.64453,9.1005859 C 150.70117,8.9160156 150.79785,8.7578125 150.93359,8.6259765 C 151.06934,8.493164 151.25977,8.3749999 151.50488,8.2705077 L 153.48242,7.4150389 L 153.48242,6.7011719 L 153.95117,6.7011719 L 153.95117,8.0869141 L 151.83496,9.0029297 C 151.4248,9.1777344 151.15918,9.3388672 151.03809,9.4853516 C 150.91797,9.631836 150.85742,9.8330079 150.85742,10.087891 L 150.85742,10.964844 L 153.48242,10.964844 L 153.48242,10.136719 L 153.95117,10.136719 L 153.95117,12.511719 L 153.48242,12.511719 L 153.48242,11.761719 L 147.7793,11.761719 L 147.7793,12.511719 L 147.29492,12.511719 L 147.29492,9.5361328 C 147.29492,8.9648437 147.44922,8.5234375 147.75781,8.2128906 C 148.06738,7.9013672 148.50488,7.7460937 149.07227,7.7460937 C 149.5293,7.7460937 149.88965,7.859375 150.15234,8.0859375 C 150.41602,8.3125 150.58008,8.6503906 150.64453,9.1005859 L 150.64453,9.1005859 z M 150.37305,10.964844 L 150.37305,9.8076172 C 150.37305,9.4130859 150.26758,9.1220703 150.05664,8.9345703 C 149.84473,8.7460937 149.51758,8.6523437 149.07422,8.6523437 C 148.63086,8.6523437 148.30469,8.7460937 148.09375,8.9345703 C 147.88477,9.1220703 147.7793,9.4130859 147.7793,9.8076172 L 147.7793,10.964844 L 150.37305,10.964844 L 150.37305,10.964844 z"
   id="path3876" />
		</g><g
   id="g3878"
   style="fill-rule:nonzero;stroke:none;stroke-miterlimit:4">
			<path
   d="M 12.687988,198.54053 L 13.156738,198.54053 L 13.156738,199.29053 L 18.859863,199.29053 L 18.859863,198.54053 L 19.344238,198.54053 L 19.344238,200.8374 L 18.859863,200.8374 L 18.859863,200.0874 L 16.578613,200.0874 L 16.578613,203.13428 L 18.859863,203.13428 L 18.859863,202.38428 L 19.344238,202.38428 L 19.344238,204.68115 L 18.859863,204.68115 L 18.859863,203.93115 L 13.156738,203.93115 L 13.156738,204.68115 L 12.687988,204.68115 L 12.687988,202.38428 L 13.156738,202.38428 L 13.156738,203.13428 L 16.031738,203.13428 L 16.031738,200.0874 L 13.156738,200.0874 L 13.156738,200.8374 L 12.687988,200.8374 L 12.687988,198.54053 L 12.687988,198.54053 z"
   id="path3880" />
			<path
   d="M 12.687988,205.56592 L 13.156738,205.56592 L 13.156738,206.31592 L 18.859863,206.31592 L 18.859863,205.56592 L 19.344238,205.56592 L 19.344238,210.30029 L 17.859863,210.30029 L 17.859863,209.81592 L 18.797363,209.81592 L 18.797363,207.11279 L 16.578613,207.11279 L 16.578613,209.05029 L 17.406738,209.05029 L 17.406738,209.53467 L 15.203613,209.53467 L 15.203613,209.05029 L 16.031738,209.05029 L 16.031738,207.11279 L 13.234863,207.11279 L 13.234863,209.87842 L 14.172363,209.87842 L 14.172363,210.36279 L 12.687988,210.36279 L 12.687988,205.56592 L 12.687988,205.56592 z"
   id="path3882" />
			<path
   d="M 14.453613,216.68311 C 13.832031,216.51123 13.361816,216.22021 13.041992,215.81396 C 12.722656,215.40771 12.562988,214.89209 12.562988,214.26709 C 12.562988,213.88428 12.637695,213.52881 12.786133,213.20264 C 12.93457,212.87451 13.152832,212.58545 13.441406,212.3335 C 13.774414,212.03857 14.152344,211.81982 14.576172,211.67725 C 14.999512,211.53467 15.478516,211.46436 16.013672,211.46436 C 17.047852,211.46436 17.882812,211.72803 18.517578,212.25342 C 19.151855,212.78076 19.469238,213.47412 19.469238,214.3374 C 19.469238,214.65381 19.421387,214.99561 19.325684,215.35889 C 19.22998,215.72021 19.084961,216.11084 18.891113,216.52686 L 17.359863,216.52686 L 17.359863,216.07373 C 17.916016,215.97803 18.326172,215.78467 18.589844,215.49365 C 18.853027,215.20068 18.984863,214.79248 18.984863,214.26904 C 18.984863,213.64404 18.733398,213.17139 18.230957,212.85107 C 17.728516,212.53076 16.989258,212.37061 16.013672,212.37061 C 15.041016,212.37061 14.303711,212.53076 13.80127,212.85107 C 13.298828,213.17139 13.047363,213.646 13.047363,214.27295 C 13.047363,214.7085 13.165039,215.06787 13.399902,215.34912 C 13.634766,215.63232 13.986328,215.8374 14.453613,215.96436 L 14.453613,216.68311 L 14.453613,216.68311 z"
   id="path3884" />
			<path
   d="M 12.687988,218.7085 L 13.156738,218.7085 L 13.156738,219.4585 L 18.812988,219.4585 L 18.812988,217.73975 L 17.766113,217.73975 L 17.766113,217.25537 L 19.344238,217.25537 L 19.344238,222.47412 L 17.766113,222.47412 L 17.766113,221.98975 L 18.812988,221.98975 L 18.812988,220.25537 L 13.156738,220.25537 L 13.156738,221.00537 L 12.687988,221.00537 L 12.687988,218.7085 L 12.687988,218.7085 z"
   id="path3886" />
			<path
   d="M 12.562988,225.85498 C 12.562988,225.45654 12.637695,225.08936 12.786133,224.75537 C 12.93457,224.42139 13.152832,224.12646 13.441406,223.87451 C 13.774414,223.57959 14.151367,223.36084 14.57373,223.21826 C 14.995605,223.07568 15.475586,223.00342 16.013672,223.00342 C 16.551758,223.00342 17.032227,223.07568 17.456055,223.21826 C 17.879883,223.36084 18.257812,223.57959 18.59082,223.87451 C 18.881836,224.13037 19.101562,224.42334 19.248535,224.75342 C 19.395508,225.0835 19.469238,225.45068 19.469238,225.85498 C 19.469238,226.70654 19.152344,227.39404 18.519531,227.91943 C 17.88623,228.44482 17.050781,228.70654 16.013672,228.70654 C 15.481445,228.70654 15.002441,228.63428 14.576172,228.48975 C 14.149414,228.34717 13.771484,228.12646 13.441406,227.83154 C 13.149902,227.57568 12.930664,227.28271 12.783691,226.95264 C 12.636719,226.62256 12.562988,226.25732 12.562988,225.85498 L 12.562988,225.85498 z M 13.047363,225.85693 C 13.047363,226.49951 13.296875,226.98389 13.796875,227.31006 C 14.295898,227.63818 15.035156,227.80029 16.013672,227.80029 C 16.995117,227.80029 17.73584,227.63818 18.235352,227.31006 C 18.734863,226.98389 18.984863,226.49951 18.984863,225.85693 C 18.984863,225.2124 18.734863,224.72803 18.235352,224.3999 C 17.73584,224.07373 16.995117,223.90967 16.013672,223.90967 C 15.035156,223.90967 14.295898,224.07373 13.796875,224.3999 C 13.296875,224.72803 13.047363,225.2124 13.047363,225.85693 L 13.047363,225.85693 z"
   id="path3888" />
			<path
   d="M 15.994141,233.00537 C 15.9375,233.18896 15.84082,233.34717 15.705078,233.47998 C 15.569336,233.61279 15.378906,233.72998 15.134766,233.83545 L 13.156738,234.69092 L 13.156738,235.40381 L 12.687988,235.40381 L 12.687988,234.01904 L 14.803711,233.10303 C 15.214844,232.92725 15.480469,232.76709 15.600586,232.62061 C 15.72168,232.47412 15.781738,232.27295 15.781738,232.01709 L 15.781738,231.14014 L 13.156738,231.14014 L 13.156738,231.96826 L 12.687988,231.96826 L 12.687988,229.59326 L 13.156738,229.59326 L 13.156738,230.34326 L 18.859863,230.34326 L 18.859863,229.59326 L 19.344238,229.59326 L 19.344238,232.56982 C 19.344238,233.14014 19.189453,233.58154 18.880859,233.89209 C 18.572266,234.20459 18.133789,234.35889 17.566895,234.35889 C 17.109375,234.35889 16.749023,234.24561 16.486328,234.01904 C 16.223633,233.79248 16.05957,233.45459 15.994141,233.00537 L 15.994141,233.00537 z M 16.266113,231.14014 L 16.266113,232.29834 C 16.266113,232.69287 16.371582,232.98389 16.583008,233.17139 C 16.794433,233.35889 17.12207,233.45264 17.56543,233.45264 C 18.008789,233.45264 18.334961,233.35889 18.544922,233.17139 C 18.754883,232.98389 18.859863,232.69287 18.859863,232.29834 L 18.859863,231.14014 L 16.266113,231.14014 L 16.266113,231.14014 z"
   id="path3890" />
		</g><path
   d="M 33.440918,29.426758 L 13.62207,29.426758 C 13.62207,29.426758 16.71875,30.056641 25.389648,21.856445 C 34.060547,13.655273 33.440918,9.2392578 33.440918,9.2392578 M 13.62207,29.426758 C 13.62207,29.426758 17.95752,28.795898 26.008789,37.62793 C 34.060059,46.458984 33.440918,49.613281 33.440918,49.613281 L 33.440918,29.426758 M 33.440918,49.613281 C 33.440918,49.613281 32.821777,45.197266 41.492676,36.99707 C 50.163086,28.796875 53.259766,29.426758 53.259766,29.426758 L 33.440918,29.426758 M 53.259766,29.426758 C 53.259766,29.426758 48.924316,30.057617 40.873047,21.225586 C 32.822266,12.393555 33.440918,9.2392578 33.440918,9.2392578 L 33.440918,29.426758"
   id="path3892"
   style="fill:#e61408;fill-rule:nonzero;stroke:none;stroke-miterlimit:4" /><path
   d="M 133.30176,212.97803 L 153.12012,212.97803 C 153.12012,212.97803 150.02344,212.34717 141.35352,220.54834 C 132.68164,228.74951 133.30176,233.16553 133.30176,233.16553 M 153.12012,212.97803 C 153.12012,212.97803 148.78516,213.60889 140.73438,204.77686 C 132.68262,195.94482 133.30176,192.79053 133.30176,192.79053 L 133.30176,212.97803 M 133.30176,192.79053 C 133.30176,192.79053 133.9209,197.20654 125.25,205.40771 C 116.5791,213.60889 113.48242,212.97803 113.48242,212.97803 L 133.30176,212.97803 M 113.48242,212.97803 C 113.48242,212.97803 117.81836,212.34717 125.86914,221.1792 C 133.91992,230.01123 133.30176,233.16553 133.30176,233.16553 L 133.30176,212.97803"
   id="path3894"
   style="fill:#e61408;fill-rule:nonzero;stroke:none;stroke-miterlimit:4" /><path
   d="M 9.3208008,50.613281 L 21.985352,50.613281 L 21.985352,6.8632813 L 9.3208008,6.8632813 L 9.3208008,50.613281 z"
   id="path3896"
   style="fill:#ffffff;fill-rule:nonzero;stroke:none;stroke-miterlimit:4" /><path
   d="M 157.27539,191.29053 L 144.80664,191.29053 L 144.80664,235.04053 L 157.27539,235.04053 L 157.27539,191.29053 z"
   id="path3898"
   style="fill:#ffffff;fill-rule:nonzero;stroke:none;stroke-miterlimit:4" /><g
   id="g3900"
   style="fill-rule:nonzero;stroke:#000000;stroke-miterlimit:4">
			<path
   d="M 11.240723,26.349609 L 11.240723,23.818359 L 11.959473,23.818359 C 11.981445,24.496094 12.059082,24.994141 12.192871,25.310547 C 12.32666,25.628906 12.527832,25.787109 12.795898,25.787109 C 13.150391,25.787109 13.396484,25.517578 13.53418,24.978516 C 13.671875,24.439453 13.740723,23.427734 13.740723,21.945312 L 13.740723,7.5371094 L 12.553223,7.5371094 L 12.553223,6.2246094 L 16.865723,6.2246094 L 16.865723,7.5371094 L 15.834473,7.5371094 L 15.834473,22.032227 C 15.834473,23.790039 15.612305,25.074219 15.168945,25.884766 C 14.725098,26.694336 14.022949,27.09961 13.062988,27.09961 C 12.764649,27.09961 12.464356,27.03711 12.162598,26.91211 C 11.861328,26.78711 11.553711,26.59961 11.240723,26.34961 L 11.240723,26.349609 z"
   id="path3902"
   style="fill:#e61408;stroke:none" />
		</g><path
   d="M 16.134277,33.858398 L 11.092285,33.858398 C 11.092285,33.858398 11.879883,34.021484 14.085937,31.904297 C 16.291992,29.787109 16.134277,28.646484 16.134277,28.646484 M 11.092285,33.858398 C 11.092285,33.858398 12.195312,33.695312 14.243164,35.976562 C 16.291504,38.255859 16.134277,39.070312 16.134277,39.070312 L 16.134277,33.858398 M 16.134277,39.070313 C 16.134277,39.070313 15.976563,37.929688 18.182617,35.8125 C 20.388184,33.695313 21.176269,33.858398 21.176269,33.858398 L 16.134277,33.858398 M 21.17627,33.858398 C 21.17627,33.858398 20.073242,34.021484 18.024902,31.741211 C 15.976562,29.460938 16.134277,28.646484 16.134277,28.646484 L 16.134277,33.858398"
   id="path3904"
   style="fill:#e61408;fill-rule:nonzero;stroke:none;stroke-miterlimit:4" /><path
   d="M 150.5625,207.94092 L 155.60547,207.94092 C 155.60547,207.94092 154.81738,207.77881 152.61133,209.896 C 150.40527,212.01318 150.5625,213.15381 150.5625,213.15381 M 155.60547,207.94092 C 155.60547,207.94092 154.50195,208.10498 152.4541,205.82373 C 150.40625,203.54443 150.5625,202.72998 150.5625,202.72998 L 150.5625,207.94092 M 150.5625,202.72998 C 150.5625,202.72998 150.7207,203.87061 148.51465,205.98779 C 146.30859,208.10498 145.52148,207.94092 145.52148,207.94092 L 150.5625,207.94092 M 145.52148,207.94092 C 145.52148,207.94092 146.62402,207.77881 148.67188,210.06006 C 150.7207,212.33936 150.5625,213.15381 150.5625,213.15381 L 150.5625,207.94092"
   id="path3906"
   style="fill:#e61408;fill-rule:nonzero;stroke:none;stroke-miterlimit:4" /><g
   id="g3908"
   style="fill-rule:nonzero;stroke:#000000;stroke-miterlimit:4">
			<path
   d="M 155.95703,215.66943 L 155.95703,218.20068 L 155.23828,218.20068 C 155.2168,217.52295 155.13867,217.0249 155.00586,216.7085 C 154.87109,216.39014 154.66992,216.23193 154.40234,216.23193 C 154.04785,216.23193 153.80176,216.50146 153.66406,217.04053 C 153.52637,217.57959 153.45703,218.59131 153.45703,220.07373 L 153.45703,234.48193 L 154.64453,234.48193 L 154.64453,235.79443 L 150.33203,235.79443 L 150.33203,234.48193 L 151.36328,234.48193 L 151.36328,219.98779 C 151.36328,218.22998 151.58594,216.94482 152.0293,216.13428 C 152.47266,215.32568 153.17578,214.91943 154.13477,214.91943 C 154.43359,214.91943 154.73438,214.98193 155.03516,215.10693 C 155.33691,215.23193 155.64453,215.41943 155.95703,215.66943 L 155.95703,215.66943 z"
   id="path3910"
   style="fill:#e61408;stroke:none" />
		</g>
</svg>