<?xml version="1.0" encoding="UTF-8" standalone="no"?>
<!-- Created with Inkscape (http://www.inkscape.org/) -->
<svg
   xmlns:svg="http://www.w3.org/2000/svg"
   xmlns="http://www.w3.org/2000/svg"
   version="1.0"
   width="167.08936pt"
   height="242.66748pt"
   viewBox="0 0 167.08936 242.66748"
   id="svg4593"
   xml:space="preserve"><defs
   id="defs5065">
		
		
		
		
		
		
		
		
		
		
		
		
		
		
		
		
		
		
		
		
		
		
		
		
		
		
		
		
		
		
		
		
		
		
		
		
		
		
		
		
		
	</defs>
	<path
   d="M 166.83936,235.54639 C 166.83936,239.32959 163.75342,242.41748 159.96826,242.41748 L 7.1113281,242.41748 C 3.336914,242.41748 0.25,239.32959 0.25,235.54639 L 0.25,7.1191406 C 0.25,3.3447266 3.3369141,0.25 7.1113281,0.25 L 159.96826,0.25 C 163.75342,0.25 166.83936,3.3447266 166.83936,7.1191406 L 166.83936,235.54639 L 166.83936,235.54639 z"
   id="path4596"
   style="fill:#ffffff;fill-rule:nonzero;stroke:#000000;stroke-width:0.5;stroke-miterlimit:4" /><path
   d="M 157.72021,239.37451 L 9.6318359,239.37451 L 9.6318359,3.1289063 L 157.72021,3.1289063 L 157.72021,239.37451 L 157.72021,239.37451 z"
   id="path4598"
   style="fill:#ffffff;fill-rule:nonzero;stroke:#000000;stroke-width:1.5;stroke-linejoin:round;stroke-miterlimit:4" /><g
   id="g4916"
   style="fill-rule:nonzero;stroke:none;stroke-miterlimit:4">
			<path
   d="M 154.09131,59.613281 L 153.62256,59.613281 L 153.62256,59.102539 L 147.43506,57.009766 L 147.43506,56.348633 L 153.62256,54.251953 L 153.62256,53.675781 L 154.09131,53.675781 L 154.09131,55.808594 L 153.62256,55.808594 L 153.62256,55.157227 L 152.15381,55.648437 L 152.15381,58.116211 L 153.62256,58.607422 L 153.62256,57.964844 L 154.09131,57.964844 L 154.09131,59.613281 L 154.09131,59.613281 z M 151.66943,57.955078 L 151.66943,55.799805 L 148.51123,56.879883 L 151.66943,57.955078 z"
   id="path4918" />
			<path
   d="M 154.09131,53.30957 L 153.62256,53.30957 L 153.62256,52.55957 L 147.91943,52.55957 L 147.91943,53.30957 L 147.43506,53.30957 L 147.43506,51.012695 L 147.91943,51.012695 L 147.91943,51.762695 L 153.54443,51.762695 L 153.54443,49.075195 L 152.43506,49.075195 L 152.43506,48.59082 L 154.09131,48.59082 L 154.09131,53.30957 z"
   id="path4920" />
			<path
   d="M 154.09131,47.958984 L 153.62256,47.958984 L 153.62256,47.208984 L 147.91943,47.208984 L 147.91943,47.958984 L 147.43506,47.958984 L 147.43506,43.224609 L 148.91943,43.224609 L 148.91943,43.708984 L 147.98193,43.708984 L 147.98193,46.412109 L 150.20068,46.412109 L 150.20068,44.474609 L 149.37256,44.474609 L 149.37256,43.990234 L 151.57568,43.990234 L 151.57568,44.474609 L 150.74756,44.474609 L 150.74756,46.412109 L 153.54443,46.412109 L 153.54443,43.646484 L 152.60693,43.646484 L 152.60693,43.162109 L 154.09131,43.162109 L 154.09131,47.958984 z"
   id="path4922" />
			<path
   d="M 151.24756,39.851562 L 153.62256,41.286133 L 153.62256,40.529297 L 154.09131,40.529297 L 154.09131,42.467773 L 153.62256,42.467773 L 153.62256,41.790039 L 150.82764,40.100586 L 147.91943,41.817383 L 147.91943,42.445313 L 147.43506,42.445313 L 147.43506,40.119141 L 147.91943,40.119141 L 147.91943,40.80957 L 150.06201,39.552734 L 147.91943,38.260742 L 147.91943,39.013672 L 147.43506,39.013672 L 147.43506,37.092774 L 147.91943,37.092774 L 147.91943,37.756836 L 150.48193,39.307617 L 153.62256,37.456055 L 153.62256,36.827149 L 154.09131,36.827149 L 154.09131,39.151367 L 153.62256,39.151367 L 153.62256,38.452149 L 151.24756,39.851563 L 151.24756,39.851562 z"
   id="path4924" />
			<path
   d="M 154.09131,37.112305 L 153.62256,37.112305 L 153.62256,36.601562 L 147.43506,34.507812 L 147.43506,33.847656 L 153.62256,31.75 L 153.62256,31.174805 L 154.09131,31.174805 L 154.09131,33.307617 L 153.62256,33.307617 L 153.62256,32.65625 L 152.15381,33.147461 L 152.15381,35.615234 L 153.62256,36.105469 L 153.62256,35.462891 L 154.09131,35.462891 L 154.09131,37.112305 L 154.09131,37.112305 z M 151.66943,35.454102 L 151.66943,33.298828 L 148.51123,34.378906 L 151.66943,35.454102 z"
   id="path4926" />
			<path
   d="M 154.09131,30.855469 L 153.62256,30.855469 L 153.62256,30.058594 L 147.91943,30.058594 L 147.91943,30.855469 L 147.43506,30.855469 L 147.43506,29.349609 L 152.69092,25.824219 L 147.91943,25.824219 L 147.91943,26.605469 L 147.43506,26.605469 L 147.43506,24.542969 L 147.91943,24.542969 L 147.91943,25.339844 L 154.21631,25.339844 L 154.21631,25.813477 L 148.61865,29.574219 L 153.62256,29.574219 L 153.62256,28.777344 L 154.09131,28.777344 L 154.09131,30.855469 z"
   id="path4928" />
			<path
   d="M 154.09131,23.758789 L 153.62256,23.758789 L 153.62256,23.008789 L 147.91943,23.008789 L 147.91943,23.758789 L 147.43506,23.758789 L 147.43506,21.423828 C 147.43506,20.40918 147.72803,19.621094 148.31396,19.056641 C 148.89795,18.493164 149.7124,18.211914 150.75537,18.211914 C 151.80225,18.211914 152.62061,18.494141 153.2085,19.05957 C 153.79639,19.624023 154.09131,20.412109 154.09131,21.423828 L 154.09131,23.758789 L 154.09131,23.758789 z M 153.62256,22.211914 L 153.62256,21.481445 C 153.62256,20.71875 153.37646,20.134766 152.88232,19.727539 C 152.39014,19.321289 151.68311,19.118164 150.76123,19.118164 C 149.84131,19.118164 149.13623,19.320312 148.6499,19.725586 C 148.16357,20.130859 147.91943,20.71582 147.91943,21.481445 L 147.91943,22.211914 L 153.62256,22.211914 L 153.62256,22.211914 z"
   id="path4930" />
			<path
   d="M 150.78467,13.887695 C 150.84131,13.703125 150.93701,13.544922 151.07373,13.412109 C 151.2085,13.280273 151.3999,13.161133 151.64404,13.057617 L 153.62256,12.202148 L 153.62256,11.488281 L 154.09131,11.488281 L 154.09131,12.873047 L 151.97412,13.790039 C 151.56396,13.964844 151.29834,14.125 151.17725,14.271484 C 151.05811,14.418945 150.99756,14.619141 150.99756,14.874023 L 150.99756,15.750977 L 153.62256,15.750977 L 153.62256,14.922852 L 154.09131,14.922852 L 154.09131,17.297852 L 153.62256,17.297852 L 153.62256,16.547852 L 147.91943,16.547852 L 147.91943,17.297852 L 147.43506,17.297852 L 147.43506,14.323242 C 147.43506,13.751953 147.58936,13.310547 147.89795,12.999023 C 148.20654,12.688476 148.64404,12.532226 149.2124,12.532226 C 149.66943,12.532226 150.02881,12.645508 150.29248,12.87207 C 150.55615,13.098633 150.72021,13.4375 150.78467,13.887695 L 150.78467,13.887695 z M 150.51318,15.750977 L 150.51318,14.59375 C 150.51318,14.200195 150.40771,13.90918 150.19678,13.720703 C 149.98389,13.533203 149.65771,13.438477 149.21436,13.438477 C 148.771,13.438477 148.44482,13.533203 148.23389,13.720703 C 148.0249,13.90918 147.91943,14.200195 147.91943,14.59375 L 147.91943,15.750977 L 150.51318,15.750977 L 150.51318,15.750977 z"
   id="path4932" />
			<path
   d="M 154.09131,11.231445 L 153.62256,11.231445 L 153.62256,10.481445 L 147.91943,10.481445 L 147.91943,11.231445 L 147.43506,11.231445 L 147.43506,6.4970703 L 148.91943,6.4970703 L 148.91943,6.9814453 L 147.98193,6.9814453 L 147.98193,9.6845703 L 150.20068,9.6845703 L 150.20068,7.7470703 L 149.37256,7.7470703 L 149.37256,7.2626953 L 151.57568,7.2626953 L 151.57568,7.7470703 L 150.74756,7.7470703 L 150.74756,9.6845703 L 153.54443,9.6845703 L 153.54443,6.9189453 L 152.60693,6.9189453 L 152.60693,6.4345703 L 154.09131,6.4345703 L 154.09131,11.231445 z"
   id="path4934" />
		</g><g
   id="g4936"
   style="fill-rule:nonzero;stroke:none;stroke-miterlimit:4">
			<path
   d="M 12.827148,182.88232 L 13.295898,182.88232 L 13.295898,183.39404 L 19.483398,185.48584 L 19.483398,186.14795 L 13.295898,188.24365 L 13.295898,188.81982 L 12.827148,188.81982 L 12.827148,186.68701 L 13.295898,186.68701 L 13.295898,187.33936 L 14.764648,186.84717 L 14.764648,184.38037 L 13.295898,183.88818 L 13.295898,184.53076 L 12.827148,184.53076 L 12.827148,182.88232 L 12.827148,182.88232 z M 15.249023,184.54053 L 15.249023,186.69678 L 18.407226,185.6167 L 15.249023,184.54053 z"
   id="path4938" />
			<path
   d="M 12.827148,189.18701 L 13.295898,189.18701 L 13.295898,189.93701 L 18.999023,189.93701 L 18.999023,189.18701 L 19.483398,189.18701 L 19.483398,191.48389 L 18.999023,191.48389 L 18.999023,190.73389 L 13.374023,190.73389 L 13.374023,193.42139 L 14.483398,193.42139 L 14.483398,193.90576 L 12.827148,193.90576 L 12.827148,189.18701 z"
   id="path4940" />
			<path
   d="M 12.827148,194.53662 L 13.295898,194.53662 L 13.295898,195.28662 L 18.999023,195.28662 L 18.999023,194.53662 L 19.483398,194.53662 L 19.483398,199.271 L 17.999023,199.271 L 17.999023,198.78662 L 18.936523,198.78662 L 18.936523,196.0835 L 16.717773,196.0835 L 16.717773,198.021 L 17.545898,198.021 L 17.545898,198.50537 L 15.342773,198.50537 L 15.342773,198.021 L 16.170898,198.021 L 16.170898,196.0835 L 13.374023,196.0835 L 13.374023,198.84912 L 14.311523,198.84912 L 14.311523,199.3335 L 12.827148,199.3335 L 12.827148,194.53662 z"
   id="path4942" />
			<path
   d="M 15.670898,202.64404 L 13.295898,201.21045 L 13.295898,201.96631 L 12.827148,201.96631 L 12.827148,200.02881 L 13.295898,200.02881 L 13.295898,200.70654 L 16.089844,202.396 L 18.999023,200.6792 L 18.999023,200.05029 L 19.483398,200.05029 L 19.483398,202.37646 L 18.999023,202.37646 L 18.999023,201.68701 L 16.856445,202.94287 L 18.999023,204.23584 L 18.999023,203.48193 L 19.483398,203.48193 L 19.483398,205.40381 L 18.999023,205.40381 L 18.999023,204.73975 L 16.436523,203.18896 L 13.295898,205.04053 L 13.295898,205.66943 L 12.827148,205.66943 L 12.827148,203.34521 L 13.295898,203.34521 L 13.295898,204.04443 L 15.670898,202.64404 L 15.670898,202.64404 z"
   id="path4944" />
			<path
   d="M 12.827148,205.38428 L 13.295898,205.38428 L 13.295898,205.89404 L 19.483398,207.98779 L 19.483398,208.64795 L 13.295898,210.74561 L 13.295898,211.32178 L 12.827148,211.32178 L 12.827148,209.18896 L 13.295898,209.18896 L 13.295898,209.83936 L 14.764648,209.34912 L 14.764648,206.88037 L 13.295898,206.39014 L 13.295898,207.03271 L 12.827148,207.03271 L 12.827148,205.38428 L 12.827148,205.38428 z M 15.249023,207.04248 L 15.249023,209.19678 L 18.407226,208.1167 L 15.249023,207.04248 L 15.249023,207.04248 z"
   id="path4946" />
			<path
   d="M 12.827148,211.64014 L 13.295898,211.64014 L 13.295898,212.43701 L 18.999023,212.43701 L 18.999023,211.64014 L 19.483398,211.64014 L 19.483398,213.146 L 14.227539,216.67139 L 18.999023,216.67139 L 18.999023,215.89014 L 19.483398,215.89014 L 19.483398,217.95264 L 18.999023,217.95264 L 18.999023,217.15576 L 12.702148,217.15576 L 12.702148,216.68311 L 18.299805,212.92139 L 13.295898,212.92139 L 13.295898,213.71826 L 12.827148,213.71826 L 12.827148,211.64014 L 12.827148,211.64014 z"
   id="path4948" />
			<path
   d="M 12.827148,218.73779 L 13.295898,218.73779 L 13.295898,219.48779 L 18.999023,219.48779 L 18.999023,218.73779 L 19.483398,218.73779 L 19.483398,221.07178 C 19.483398,222.0874 19.19043,222.87451 18.604492,223.43896 C 18.019531,224.00342 17.205078,224.28467 16.162109,224.28467 C 15.115234,224.28467 14.297851,224.00146 13.709961,223.43701 C 13.121094,222.87256 12.827148,222.0835 12.827148,221.07178 L 12.827148,218.73779 L 12.827148,218.73779 z M 13.295898,220.28467 L 13.295898,221.01514 C 13.295898,221.77686 13.541992,222.36084 14.035156,222.76904 C 14.52832,223.17529 15.235352,223.37842 16.15625,223.37842 C 17.077148,223.37842 17.78125,223.17529 18.268555,222.771 C 18.754883,222.36475 18.999023,221.78076 18.999023,221.01514 L 18.999023,220.28467 L 13.295898,220.28467 L 13.295898,220.28467 z"
   id="path4950" />
			<path
   d="M 16.133789,228.60889 C 16.077148,228.79248 15.980469,228.95068 15.844727,229.0835 C 15.708984,229.21631 15.518555,229.33545 15.273438,229.43896 L 13.295898,230.29443 L 13.295898,231.00732 L 12.827148,231.00732 L 12.827148,229.62256 L 14.943359,228.70654 C 15.353516,228.53076 15.619141,228.37061 15.740234,228.22412 C 15.860352,228.07764 15.920898,227.87646 15.920898,227.62256 L 15.920898,226.74561 L 13.295898,226.74561 L 13.295898,227.57373 L 12.827148,227.57373 L 12.827148,225.19873 L 13.295898,225.19873 L 13.295898,225.94873 L 18.999023,225.94873 L 18.999023,225.19873 L 19.483398,225.19873 L 19.483398,228.17334 C 19.483398,228.74365 19.329102,229.18506 19.020508,229.49756 C 18.710937,229.80811 18.273437,229.96436 17.706055,229.96436 C 17.249023,229.96436 16.888672,229.85107 16.625977,229.62451 C 16.362305,229.39795 16.198242,229.05811 16.133789,228.60889 L 16.133789,228.60889 z M 16.405273,226.74561 L 16.405273,227.90186 C 16.405273,228.29639 16.510742,228.5874 16.72168,228.7749 C 16.933594,228.9624 17.260742,229.05811 17.704102,229.05811 C 18.147461,229.05811 18.473633,228.9624 18.68457,228.7749 C 18.893555,228.5874 18.999023,228.29639 18.999023,227.90186 L 18.999023,226.74561 L 16.405273,226.74561 L 16.405273,226.74561 z"
   id="path4952" />
			<path
   d="M 12.827148,231.26514 L 13.295898,231.26514 L 13.295898,232.01514 L 18.999023,232.01514 L 18.999023,231.26514 L 19.483398,231.26514 L 19.483398,235.99951 L 17.999023,235.99951 L 17.999023,235.51514 L 18.936523,235.51514 L 18.936523,232.81201 L 16.717773,232.81201 L 16.717773,234.74951 L 17.545898,234.74951 L 17.545898,235.23389 L 15.342773,235.23389 L 15.342773,234.74951 L 16.170898,234.74951 L 16.170898,232.81201 L 13.374023,232.81201 L 13.374023,235.57764 L 14.311523,235.57764 L 14.311523,236.06201 L 12.827148,236.06201 L 12.827148,231.26514 z"
   id="path4954" />
		</g><g
   transform="translate(1.6,0)"
   id="g4956"
   style="fill-rule:nonzero;stroke:none;stroke-miterlimit:4">
			<path
   d="M 42.289062,18.003906 C 42.289062,22.730469 38.34082,26.55957 33.469727,26.55957 C 28.597656,26.55957 24.648438,22.730469 24.648438,18.003906 C 24.648438,13.279297 28.597656,9.4492188 33.469727,9.4492188 C 38.34082,9.4492188 42.289062,13.279297 42.289062,18.003906 z"
   id="path4958" />
			<path
   d="M 53.647461,34.191406 C 53.647461,38.916016 49.698242,42.746094 44.826172,42.746094 C 39.954101,42.746094 36.005859,38.916016 36.005859,34.191406 C 36.005859,29.466797 39.954102,25.636719 44.826172,25.636719 C 49.698242,25.636719 53.647461,29.466797 53.647461,34.191406 z"
   id="path4960" />
			<path
   d="M 31.060547,34.253906 C 31.060547,35.984375 30.53125,37.59375 29.620117,38.939453 C 28.043945,41.269531 25.327148,42.808594 22.239258,42.808594 C 17.367187,42.808594 13.418945,38.979492 13.418945,34.253906 C 13.418945,29.529297 17.367187,25.699219 22.239258,25.699219 C 27.110352,25.699219 31.060547,29.529297 31.060547,34.253906 L 31.060547,34.253906 z"
   id="path4962" />
			<g
   id="g4964">
				<path
   d="M 43.81543,50.857422 C 39.459961,50.861328 37.168945,47.318359 35.96582,43.776367 C 34.762695,40.233398 34.650391,36.689453 34.650391,36.689453 L 32.426758,36.671875 C 32.426758,36.671875 32.010742,50.847656 23.300781,50.854492 L 43.81543,50.857422 L 43.81543,50.857422 z"
   id="path4966" />
			</g>
			<g
   id="g4968">
				<path
   d="M 27.473633,24.27832 C 32.426758,29.232422 32.426758,36.671875 32.426758,36.671875 L 34.650391,36.689453 C 34.650391,36.689453 34.650391,29.09375 39.46582,24.27832"
   id="path4970" />
			</g>
			<g
   id="g4972">
				<path
   d="M 28.464844,40.198242 C 33.418945,35.244141 40.857422,35.244141 40.857422,35.244141 L 40.875977,33.021484 C 40.875977,33.021484 33.279297,33.021484 28.464844,28.207031"
   id="path4974" />
			</g>
			<g
   id="g4976">
				<path
   d="M 38.401367,40.235352 C 33.446289,35.28125 26.007812,35.28125 26.007812,35.28125 L 25.990234,33.058594 C 25.990234,33.058594 33.585938,33.058594 38.401367,28.244141"
   id="path4978" />
			</g>
		</g><g
   id="g4980"
   style="fill-rule:nonzero;stroke:none;stroke-miterlimit:4">
			<path
   d="M 124.61475,224.41162 C 124.61475,219.68506 128.56201,215.85498 133.43311,215.85498 C 138.30615,215.85498 142.25537,219.68506 142.25537,224.41162 C 142.25537,229.13428 138.30615,232.96631 133.43311,232.96631 C 128.56201,232.96631 124.61475,229.13428 124.61475,224.41162 z"
   id="path4982" />
			<path
   d="M 113.25537,208.22412 C 113.25537,203.49951 117.20459,199.66943 122.07764,199.66943 C 126.94873,199.66943 130.89795,203.49951 130.89795,208.22412 C 130.89795,212.94873 126.94873,216.77881 122.07764,216.77881 C 117.20459,216.77881 113.25537,212.94873 113.25537,208.22412 z"
   id="path4984" />
			<path
   d="M 135.84326,208.16162 C 135.84326,206.43115 136.37256,204.82178 137.28271,203.47412 C 138.85889,201.146 141.57568,199.60693 144.66357,199.60693 C 149.53662,199.60693 153.48389,203.43506 153.48389,208.16162 C 153.48389,212.88623 149.53662,216.71631 144.66357,216.71631 C 139.79248,216.71631 135.84326,212.88623 135.84326,208.16162 z"
   id="path4986" />
			<g
   id="g4988">
				<path
   d="M 123.0874,191.55811 C 127.44287,191.5542 129.73389,195.09717 130.93701,198.63818 C 132.14014,202.18115 132.25342,205.72607 132.25342,205.72607 L 134.47607,205.74365 C 134.47607,205.74365 134.89209,191.56787 143.60303,191.56006 L 123.0874,191.55811 L 123.0874,191.55811 z"
   id="path4990" />
			</g>
			<g
   id="g4992">
				<path
   d="M 139.4292,218.13623 C 134.47607,213.18311 134.47607,205.74365 134.47607,205.74365 L 132.25342,205.72607 C 132.25342,205.72607 132.25342,213.32178 127.43701,218.13623"
   id="path4994" />
			</g>
			<g
   id="g4996">
				<path
   d="M 138.43896,202.21631 C 133.48389,207.17139 126.04639,207.17139 126.04639,207.17139 L 126.02686,209.39404 C 126.02686,209.39404 133.62451,209.39404 138.43896,214.2085"
   id="path4998" />
			</g>
			<g
   id="g5000">
				<path
   d="M 128.50146,202.1792 C 133.45654,207.13428 140.896,207.13428 140.896,207.13428 L 140.91357,209.35693 C 140.91357,209.35693 133.31787,209.35693 128.50146,214.17139"
   id="path5002" />
			</g>
		</g><path
   d="M 11.036523,51.533203 L 23.90957,51.533203 L 23.90957,7.7832031 L 11.036523,7.7832031 L 11.036523,51.533203 z"
   id="path5004"
   style="fill:#ffffff;fill-rule:nonzero;stroke:none;stroke-miterlimit:4" /><path
   d="M 155.87646,190.05029 L 144.85498,190.05029 L 144.85498,233.80029 L 155.87646,233.80029 L 155.87646,190.05029 z"
   id="path5006"
   style="fill:#ffffff;fill-rule:nonzero;stroke:none;stroke-miterlimit:4" /><g
   id="g5008"
   style="fill-rule:nonzero;stroke:#000000;stroke-miterlimit:4">
			<path
   d="M 154.72607,216.40186 L 154.72607,217.87061 L 153.69482,217.87061 L 153.69482,232.96436 L 154.72607,232.96436 L 154.72607,234.43311 L 150.60107,234.43311 L 150.60107,232.96436 L 151.63232,232.96436 L 151.63232,226.38818 L 148.22021,232.96436 L 149.07764,232.96436 L 149.07764,234.43311 L 146.08154,234.43311 L 146.08154,232.96436 L 147.15576,232.96436 L 150.04443,227.40186 L 146.10498,217.87061 L 145.31982,217.87061 L 145.31982,216.40186 L 148.04639,216.40186 L 151.63232,225.15771 L 151.63232,217.87061 L 150.60107,217.87061 L 150.60107,216.40186 L 154.72607,216.40186 L 154.72607,216.40186 z"
   id="path5010"
   style="stroke:none" />
		</g><g
   id="g5012"
   style="fill-rule:nonzero;stroke:none;stroke-miterlimit:4">
			<path
   d="M 148.47217,211.00342 C 148.47217,209.86865 149.41943,208.95068 150.58936,208.95068 C 151.75732,208.95068 152.70654,209.86865 152.70654,211.00342 C 152.70654,212.13623 151.75732,213.05615 150.58936,213.05615 C 149.41943,213.05615 148.47217,212.13623 148.47217,211.00342 z"
   id="path5014" />
			<path
   d="M 145.74561,207.11865 C 145.74561,205.98389 146.69287,205.06592 147.86279,205.06592 C 149.03271,205.06592 149.97998,205.98389 149.97998,207.11865 C 149.97998,208.25146 149.03271,209.17139 147.86279,209.17139 C 146.69287,209.17139 145.74561,208.25146 145.74561,207.11865 z"
   id="path5016" />
			<path
   d="M 151.16748,207.10303 C 151.16748,206.68701 151.29443,206.30225 151.51318,205.97803 C 151.89014,205.41943 152.54248,205.05029 153.28467,205.05029 C 154.45264,205.05029 155.3999,205.96826 155.3999,207.10303 C 155.3999,208.23779 154.45264,209.15576 153.28467,209.15576 C 152.11475,209.15576 151.16748,208.23779 151.16748,207.10303 z"
   id="path5018" />
			<g
   id="g5020">
				<path
   d="M 148.10498,203.11865 C 149.15186,203.1167 149.70068,203.96826 149.98975,204.81787 C 150.27881,205.66748 150.30615,206.51904 150.30615,206.51904 L 150.83936,206.52295 C 150.83936,206.52295 150.93896,203.12061 153.02881,203.11865 L 148.10498,203.11865 L 148.10498,203.11865 z"
   id="path5022" />
			</g>
			<g
   id="g5024">
				<path
   d="M 152.02686,209.49756 C 150.83936,208.30811 150.83936,206.52295 150.83936,206.52295 L 150.30615,206.51904 C 150.30615,206.51904 150.30615,208.34131 149.1499,209.49756"
   id="path5026" />
			</g>
			<g
   id="g5028">
				<path
   d="M 151.79053,205.67725 C 150.60107,206.86475 148.81592,206.86475 148.81592,206.86475 L 148.81201,207.39795 C 148.81201,207.39795 150.63428,207.39795 151.79053,208.5542"
   id="path5030" />
			</g>
			<g
   id="g5032">
				<path
   d="M 149.40576,205.66748 C 150.59326,206.85693 152.38037,206.85693 152.38037,206.85693 L 152.38428,207.39014 C 152.38428,207.39014 150.56006,207.39014 149.40576,208.54639"
   id="path5034" />
			</g>
		</g><g
   transform="translate(1.6,0)"
   id="g5036"
   style="fill-rule:nonzero;stroke:#000000;stroke-miterlimit:4">
			<path
   d="M 11.452148,25.821289 L 11.452148,24.352539 L 12.483398,24.352539 L 12.483398,9.2587891 L 11.452148,9.2587891 L 11.452148,7.7900391 L 15.577148,7.7900391 L 15.577148,9.2587891 L 14.545898,9.2587891 L 14.545898,15.833984 L 17.958008,9.2587891 L 17.100586,9.2587891 L 17.100586,7.7900391 L 20.09668,7.7900391 L 20.09668,9.2587891 L 19.021484,9.2587891 L 16.133789,14.820313 L 20.073242,24.352539 L 20.858398,24.352539 L 20.858398,25.821289 L 18.130859,25.821289 L 14.545898,17.064453 L 14.545898,24.352539 L 15.577148,24.352539 L 15.577148,25.821289 L 11.452148,25.821289 L 11.452148,25.821289 z"
   id="path5038"
   style="stroke:none" />
		</g><g
   transform="translate(1.6,0)"
   id="g5040"
   style="fill-rule:nonzero;stroke:none;stroke-miterlimit:4">
			<path
   d="M 18.333008,31.390625 C 18.333008,32.525391 17.385742,33.443359 16.21582,33.443359 C 15.047852,33.443359 14.099609,32.525391 14.099609,31.390625 C 14.099609,30.256836 15.047852,29.337891 16.21582,29.337891 C 17.385742,29.337891 18.333008,30.256836 18.333008,31.390625 z"
   id="path5042" />
			<path
   d="M 21.05957,35.275391 C 21.05957,36.410156 20.111328,37.328125 18.942383,37.328125 C 17.772461,37.328125 16.825195,36.410156 16.825195,35.275391 C 16.825195,34.141602 17.772461,33.222656 18.942383,33.222656 C 20.111328,33.222656 21.05957,34.141602 21.05957,35.275391 z"
   id="path5044" />
			<path
   d="M 15.637695,35.291016 C 15.637695,35.705078 15.510742,36.091797 15.291992,36.415039 C 14.915039,36.974609 14.262695,37.34375 13.520508,37.34375 C 12.352539,37.34375 11.404297,36.424805 11.404297,35.291016 C 11.404297,34.15625 12.352539,33.237305 13.520508,33.237305 C 14.69043,33.237305 15.637695,34.15625 15.637695,35.291016 L 15.637695,35.291016 z"
   id="path5046" />
			<g
   id="g5048">
				<path
   d="M 18.699219,39.275391 C 17.65332,39.276367 17.104492,38.425781 16.81543,37.576172 C 16.526367,36.725586 16.5,35.875 16.5,35.875 L 15.96582,35.871094 C 15.96582,35.871094 15.866211,39.273438 13.776367,39.275391 L 18.699219,39.275391 L 18.699219,39.275391 z"
   id="path5050" />
			</g>
			<g
   id="g5052">
				<path
   d="M 14.777344,32.896484 C 15.96582,34.085937 15.96582,35.871094 15.96582,35.871094 L 16.5,35.875 C 16.5,35.875 16.5,34.051758 17.655273,32.896484"
   id="path5054" />
			</g>
			<g
   id="g5056">
				<path
   d="M 15.014648,36.716797 C 16.204102,35.52832 17.989258,35.52832 17.989258,35.52832 L 17.993164,34.994141 C 17.993164,34.994141 16.170898,34.994141 15.014648,33.839844"
   id="path5058" />
			</g>
			<g
   id="g5060">
				<path
   d="M 17.399414,36.726563 C 16.210938,35.537109 14.425781,35.537109 14.425781,35.537109 L 14.420898,35.003906 C 14.420898,35.003906 16.244141,35.003906 17.399414,33.847656"
   id="path5062" />
			</g>
		</g>
</svg>