<?xml version="1.0" encoding="UTF-8" standalone="no"?>
<!-- Created with Inkscape (http://www.inkscape.org/) -->
<svg
   xmlns:svg="http://www.w3.org/2000/svg"
   xmlns="http://www.w3.org/2000/svg"
   version="1.0"
   width="167.08887pt"
   height="242.66748pt"
   viewBox="0 0 167.08887 242.66748"
   id="svg5071"
   xml:space="preserve"><defs
   id="defs5367">
		
		
		
		
		
		
		
		
		
		
		
		
		
		
		
	</defs>
	<path
   d="M 166.83887,235.54834 C 166.83887,239.33154 163.75195,242.41748 159.96875,242.41748 L 7.1113281,242.41748 C 3.3364258,242.41748 0.25,239.33154 0.25,235.54834 L 0.25,7.1201172 C 0.25,3.3447266 3.3364258,0.25 7.1113281,0.25 L 159.96875,0.25 C 163.75195,0.25 166.83887,3.3447266 166.83887,7.1201172 L 166.83887,235.54834 L 166.83887,235.54834 z"
   id="path5074"
   style="fill:#ffffff;fill-rule:nonzero;stroke:#000000;stroke-width:0.5;stroke-miterlimit:4" /><path
   d="M 158.16016,238.53662 L 9.1884766,238.53662 L 9.1884766,4.1533203 L 158.16016,4.1533203 L 158.16016,238.53662 L 158.16016,238.53662 z"
   id="path5076"
   style="fill:#ffffff;fill-rule:nonzero;stroke:#000000;stroke-width:1.5;stroke-linejoin:round;stroke-miterlimit:4" /><g
   id="g5322"
   style="fill-rule:nonzero;stroke:none;stroke-miterlimit:4">
			<path
   d="M 152.09375,30.776367 C 152.71582,30.948242 153.18555,31.238281 153.50586,31.645508 C 153.8252,32.052734 153.98437,32.567383 153.98437,33.191406 C 153.98437,33.575195 153.91016,33.930664 153.76172,34.256836 C 153.61328,34.583984 153.39453,34.873047 153.10645,35.125977 C 152.77344,35.419922 152.39551,35.638672 151.97168,35.78125 C 151.54883,35.923828 151.06934,35.995117 150.53418,35.995117 C 149.5,35.995117 148.66504,35.732422 148.03027,35.206055 C 147.39648,34.679687 147.07812,33.985352 147.07812,33.12207 C 147.07812,32.804687 147.12695,32.463867 147.22266,32.101562 C 147.31836,31.738281 147.46289,31.348633 147.65625,30.932617 L 149.1875,30.932617 L 149.1875,31.385742 C 148.63184,31.480469 148.22168,31.673828 147.95801,31.96582 C 147.69531,32.257812 147.5625,32.666016 147.5625,33.19043 C 147.5625,33.816406 147.81445,34.289062 148.31641,34.608398 C 148.81934,34.928711 149.55859,35.088867 150.53418,35.088867 C 151.50684,35.088867 152.24414,34.928711 152.74609,34.607422 C 153.24902,34.287109 153.5,33.813477 153.5,33.1875 C 153.5,32.750977 153.38281,32.391602 153.14844,32.109375 C 152.91309,31.827148 152.56152,31.623047 152.09375,31.495117 L 152.09375,30.776367 L 152.09375,30.776367 z"
   id="path5324" />
			<path
   d="M 153.85938,29.845703 L 153.39062,29.845703 L 153.39062,29.095703 L 147.6875,29.095703 L 147.6875,29.845703 L 147.20312,29.845703 L 147.20312,25.111328 L 148.6875,25.111328 L 148.6875,25.595703 L 147.75,25.595703 L 147.75,28.298828 L 149.96875,28.298828 L 149.96875,26.361328 L 149.14062,26.361328 L 149.14062,25.876953 L 151.34375,25.876953 L 151.34375,26.361328 L 150.51562,26.361328 L 150.51562,28.298828 L 153.3125,28.298828 L 153.3125,25.533203 L 152.375,25.533203 L 152.375,25.048828 L 153.85938,25.048828 L 153.85938,29.845703 z"
   id="path5326" />
			<path
   d="M 153.53125,23.651367 L 152.01562,23.651367 L 152.02051,23.198242 C 152.52441,23.183594 152.89648,23.054688 153.13867,22.8125 C 153.37988,22.570312 153.5,22.199219 153.5,21.699219 C 153.5,21.235352 153.39648,20.881836 153.1875,20.639648 C 152.97852,20.397461 152.67383,20.276367 152.27344,20.276367 C 151.95312,20.276367 151.70703,20.349609 151.53516,20.496094 C 151.36328,20.643555 151.19531,20.955078 151.03223,21.432617 L 150.76953,22.202148 C 150.57617,22.763672 150.33594,23.158203 150.04785,23.386719 C 149.75977,23.615234 149.36426,23.729492 148.86133,23.729492 C 148.29687,23.729492 147.85937,23.552734 147.54687,23.199219 C 147.23437,22.845703 147.07812,22.348633 147.07812,21.709961 C 147.07812,21.436523 147.1123,21.138672 147.17871,20.814453 C 147.24512,20.491211 147.3418,20.144531 147.46875,19.776367 L 148.89062,19.776367 L 148.89062,20.229492 C 148.42383,20.273438 148.08496,20.411133 147.87598,20.642578 C 147.66797,20.874023 147.5625,21.225586 147.5625,21.696289 C 147.5625,22.111328 147.6582,22.426758 147.84961,22.641602 C 148.04102,22.856445 148.31836,22.963867 148.68359,22.963867 C 149.00098,22.963867 149.25,22.882812 149.43066,22.720703 C 149.61133,22.55957 149.79102,22.21582 149.96875,21.691406 L 150.21289,20.96582 C 150.39453,20.431641 150.62598,20.049805 150.90625,19.821289 C 151.1875,19.59375 151.56445,19.479492 152.03711,19.479492 C 152.68164,19.479492 153.16797,19.661133 153.49414,20.024414 C 153.82129,20.388672 153.98438,20.930664 153.98438,21.652344 C 153.98438,21.972656 153.94727,22.299805 153.87305,22.633789 C 153.79785,22.967773 153.68457,23.306641 153.53125,23.651367 L 153.53125,23.651367 z"
   id="path5328" />
			<path
   d="M 153.85938,18.927734 L 153.39062,18.927734 L 153.39062,18.416992 L 147.20312,16.324219 L 147.20312,15.663086 L 153.39062,13.566406 L 153.39062,12.990234 L 153.85938,12.990234 L 153.85938,15.123047 L 153.39062,15.123047 L 153.39062,14.47168 L 151.92188,14.962891 L 151.92188,17.430664 L 153.39062,17.921875 L 153.39062,17.279297 L 153.85938,17.279297 L 153.85938,18.927734 L 153.85938,18.927734 z M 151.4375,17.269531 L 151.4375,15.114258 L 148.28027,16.194336 L 151.4375,17.269531 L 151.4375,17.269531 z"
   id="path5330" />
			<path
   d="M 150.55371,9.2138672 C 150.61035,9.0292969 150.70703,8.8710938 150.84277,8.7382813 C 150.97852,8.6064454 151.16895,8.4882813 151.41309,8.3837891 L 153.39062,7.5283203 L 153.39062,6.8144531 L 153.85938,6.8144531 L 153.85938,8.2001953 L 151.74414,9.1162109 C 151.33301,9.2910156 151.06738,9.4521484 150.94727,9.5986328 C 150.82617,9.7451172 150.76562,9.9453125 150.76562,10.200195 L 150.76562,11.077148 L 153.39062,11.077148 L 153.39062,10.249023 L 153.85938,10.249023 L 153.85938,12.624023 L 153.39062,12.624023 L 153.39062,11.874023 L 147.6875,11.874023 L 147.6875,12.624023 L 147.20312,12.624023 L 147.20312,9.6494141 C 147.20312,9.078125 147.3584,8.6367188 147.66699,8.3251953 C 147.97559,8.0146484 148.41406,7.8583984 148.98047,7.8583984 C 149.43848,7.8583984 149.79883,7.9726562 150.06152,8.1992187 C 150.32422,8.4257812 150.48828,8.7636718 150.55371,9.2138671 L 150.55371,9.2138672 z M 150.28125,11.077148 L 150.28125,9.9208984 C 150.28125,9.5263671 150.17578,9.2353515 149.96484,9.046875 C 149.75391,8.859375 149.42578,8.7646484 148.98242,8.7646484 C 148.53906,8.7646484 148.21289,8.859375 148.00293,9.046875 C 147.79297,9.2353516 147.6875,9.5263672 147.6875,9.9208984 L 147.6875,11.077148 L 150.28125,11.077148 z"
   id="path5332" />
		</g><g
   id="g5334"
   style="fill-rule:nonzero;stroke:none;stroke-miterlimit:4">
			<path
   d="M 14.362305,211.5874 C 13.741211,211.41553 13.270508,211.12646 12.951172,210.71826 C 12.631348,210.31201 12.47168,209.79639 12.47168,209.17334 C 12.47168,208.78857 12.545899,208.43311 12.694336,208.10693 C 12.842774,207.78076 13.061524,207.4917 13.350098,207.23779 C 13.682617,206.94482 14.061035,206.72607 14.484375,206.5835 C 14.908203,206.44092 15.387695,206.36865 15.922852,206.36865 C 16.957031,206.36865 17.791016,206.63232 18.425781,207.15771 C 19.060547,207.68506 19.37793,208.37842 19.37793,209.2417 C 19.37793,209.56006 19.330078,209.8999 19.234375,210.26318 C 19.138672,210.62646 18.994141,211.01514 18.799805,211.43115 L 17.268555,211.43115 L 17.268555,210.97803 C 17.825195,210.88428 18.234863,210.69092 18.498047,210.39795 C 18.761719,210.10693 18.893555,209.69873 18.893555,209.17334 C 18.893555,208.54834 18.64209,208.07568 18.139648,207.75537 C 17.636719,207.43506 16.897949,207.2749 15.922852,207.2749 C 14.950195,207.2749 14.212402,207.43506 13.709961,207.75732 C 13.207031,208.07764 12.956055,208.55029 12.956055,209.17725 C 12.956055,209.61279 13.073242,209.97217 13.308594,210.25537 C 13.543945,210.53662 13.89502,210.7417 14.362305,210.86865 L 14.362305,211.5874 L 14.362305,211.5874 z"
   id="path5336" />
			<path
   d="M 12.59668,212.51904 L 13.06543,212.51904 L 13.06543,213.26904 L 18.768555,213.26904 L 18.768555,212.51904 L 19.25293,212.51904 L 19.25293,217.25342 L 17.768555,217.25342 L 17.768555,216.76904 L 18.706055,216.76904 L 18.706055,214.06592 L 16.487305,214.06592 L 16.487305,216.00342 L 17.31543,216.00342 L 17.31543,216.48779 L 15.112305,216.48779 L 15.112305,216.00342 L 15.94043,216.00342 L 15.94043,214.06592 L 13.143555,214.06592 L 13.143555,216.83154 L 14.081055,216.83154 L 14.081055,217.31592 L 12.59668,217.31592 L 12.59668,212.51904 z"
   id="path5338" />
			<path
   d="M 12.924805,218.7124 L 14.44043,218.7124 L 14.436035,219.16553 C 13.932129,219.18115 13.55957,219.31006 13.318359,219.55225 C 13.07666,219.79443 12.956055,220.16553 12.956055,220.66553 C 12.956055,221.12842 13.060547,221.48193 13.269531,221.72412 C 13.478516,221.96631 13.783203,222.0874 14.183594,222.0874 C 14.503906,222.0874 14.75,222.01514 14.921875,221.86865 C 15.09375,221.72022 15.261231,221.40967 15.424316,220.93115 L 15.686523,220.16162 C 15.879883,219.60107 16.120605,219.20654 16.40918,218.97803 C 16.697266,218.74951 17.092285,218.63428 17.594727,218.63428 C 18.15918,218.63428 18.597656,218.81201 18.909668,219.16553 C 19.22168,219.51904 19.37793,220.01514 19.37793,220.65381 C 19.37793,220.92725 19.344727,221.22607 19.27832,221.55029 C 19.211426,221.87256 19.114258,222.22022 18.987305,222.5874 L 17.56543,222.5874 L 17.56543,222.13428 C 18.033203,222.09131 18.371582,221.95264 18.580078,221.72217 C 18.789063,221.48975 18.893555,221.13818 18.893555,220.66748 C 18.893555,220.25342 18.797852,219.93701 18.606445,219.72217 C 18.415527,219.50732 18.137695,219.3999 17.772949,219.3999 C 17.456055,219.3999 17.207031,219.48193 17.026367,219.64404 C 16.845215,219.8042 16.666016,220.14795 16.488281,220.67334 L 16.243164,221.39795 C 16.062012,221.93311 15.831055,222.31397 15.549805,222.54248 C 15.269531,222.771 14.892578,222.88428 14.419922,222.88428 C 13.774902,222.88428 13.289063,222.70264 12.961914,222.33936 C 12.634766,221.97607 12.47168,221.43311 12.47168,220.7124 C 12.47168,220.39209 12.509277,220.06397 12.583984,219.72998 C 12.658203,219.396 12.772461,219.05811 12.924805,218.7124 L 12.924805,218.7124 z"
   id="path5340" />
			<path
   d="M 12.59668,223.43701 L 13.06543,223.43701 L 13.06543,223.94678 L 19.25293,226.04053 L 19.25293,226.70068 L 13.06543,228.79834 L 13.06543,229.37451 L 12.59668,229.37451 L 12.59668,227.2417 L 13.06543,227.2417 L 13.06543,227.89209 L 14.53418,227.40186 L 14.53418,224.93311 L 13.06543,224.44287 L 13.06543,225.08545 L 12.59668,225.08545 L 12.59668,223.43701 L 12.59668,223.43701 z M 15.018555,225.09521 L 15.018555,227.24951 L 18.176758,226.16943 L 15.018555,225.09521 L 15.018555,225.09521 z"
   id="path5342" />
			<path
   d="M 15.90332,233.1499 C 15.846191,233.33545 15.75,233.49365 15.614258,233.62646 C 15.478516,233.75732 15.288086,233.87646 15.042969,233.97998 L 13.06543,234.83545 L 13.06543,235.55029 L 12.59668,235.55029 L 12.59668,234.16357 L 14.712891,233.24756 C 15.123047,233.07373 15.388672,232.91162 15.509766,232.76514 C 15.629883,232.61865 15.69043,232.41943 15.69043,232.16357 L 15.69043,231.28662 L 13.06543,231.28662 L 13.06543,232.11475 L 12.59668,232.11475 L 12.59668,229.73975 L 13.06543,229.73975 L 13.06543,230.48975 L 18.768555,230.48975 L 18.768555,229.73975 L 19.25293,229.73975 L 19.25293,232.71436 C 19.25293,233.28662 19.098633,233.72803 18.789551,234.03857 C 18.480469,234.34912 18.042969,234.50537 17.475586,234.50537 C 17.018066,234.50537 16.658203,234.39209 16.395508,234.16553 C 16.132324,233.93896 15.968262,233.60107 15.90332,233.1499 L 15.90332,233.1499 z M 16.174805,231.28662 L 16.174805,232.44287 C 16.174805,232.8374 16.280274,233.12842 16.491699,233.31787 C 16.703125,233.50537 17.030273,233.59912 17.473633,233.59912 C 17.916992,233.59912 18.243652,233.50537 18.453613,233.31787 C 18.663574,233.12842 18.768555,232.8374 18.768555,232.44287 L 18.768555,231.28662 L 16.174805,231.28662 z"
   id="path5344" />
		</g><path
   d="M 33.545898,29.461914 L 13.727051,29.461914 C 13.727051,29.461914 16.823242,30.091797 25.494141,21.891602 C 34.165039,13.69043 33.545898,9.2744141 33.545898,9.2744141 M 13.727051,29.461914 C 13.727051,29.461914 18.0625,28.831055 26.113281,37.663086 C 34.164551,46.495117 33.545898,49.649414 33.545898,49.649414 L 33.545898,29.461914 M 33.545898,49.649414 C 33.545898,49.649414 32.926758,45.233398 41.597168,37.032227 C 50.268066,28.831055 53.364746,29.461914 53.364746,29.461914 L 33.545898,29.461914 M 53.364746,29.461914 C 53.364746,29.461914 49.029297,30.092773 40.978027,21.260742 C 32.927246,12.428711 33.545898,9.2744141 33.545898,9.2744141 L 33.545898,29.461914"
   id="path5346"
   style="fill:#e61408;fill-rule:nonzero;stroke:none;stroke-miterlimit:4" /><path
   d="M 133.40625,213.01318 L 153.22461,213.01318 C 153.22461,213.01318 150.12891,212.38232 141.45801,220.5835 C 132.78711,228.78467 133.40625,233.20068 133.40625,233.20068 M 153.22461,213.01318 C 153.22461,213.01318 148.88965,213.64404 140.83887,204.81201 C 132.78711,195.97998 133.40625,192.82568 133.40625,192.82568 L 133.40625,213.01318 M 133.40625,192.82568 C 133.40625,192.82568 134.02539,197.2417 125.35547,205.44287 C 116.68359,213.64404 113.58789,213.01318 113.58789,213.01318 L 133.40625,213.01318 M 113.58789,213.01318 C 113.58789,213.01318 117.92285,212.38232 125.97461,221.21436 C 134.02539,230.04639 133.40625,233.20068 133.40625,233.20068 L 133.40625,213.01318"
   id="path5348"
   style="fill:#e61408;fill-rule:nonzero;stroke:none;stroke-miterlimit:4" /><path
   d="M 10.561523,50.782227 L 21.34375,50.782227 L 21.34375,7.0322266 L 10.561523,7.0322266 L 10.561523,50.782227 z"
   id="path5350"
   style="fill:#ffffff;fill-rule:nonzero;stroke:none;stroke-miterlimit:4" /><path
   d="M 156.99805,191.4585 L 144.94238,191.4585 L 144.94238,235.2085 L 156.99805,235.2085 L 156.99805,191.4585 z"
   id="path5352"
   style="fill:#ffffff;fill-rule:nonzero;stroke:none;stroke-miterlimit:4" /><g
   id="g5354"
   style="fill-rule:nonzero;stroke:#000000;stroke-miterlimit:4">
			<path
   d="M 11.705078,25.807617 L 11.705078,24.338867 L 12.736328,24.338867 L 12.736328,9.2451172 L 11.705078,9.2451172 L 11.705078,7.7763672 L 15.830078,7.7763672 L 15.830078,9.2451172 L 14.798828,9.2451172 L 14.798828,15.821289 L 18.210937,9.2451172 L 17.353027,9.2451172 L 17.353027,7.7763672 L 20.350098,7.7763672 L 20.350098,9.2451172 L 19.274414,9.2451172 L 16.38623,14.807617 L 20.325683,24.338867 L 21.111328,24.338867 L 21.111328,25.807617 L 18.383789,25.807617 L 14.798828,17.051758 L 14.798828,24.338867 L 15.830078,24.338867 L 15.830078,25.807617 L 11.705078,25.807617 L 11.705078,25.807617 z"
   id="path5356"
   style="fill:#e61408;stroke:none" />
		</g><g
   id="g5358"
   style="fill-rule:nonzero;stroke:#000000;stroke-miterlimit:4">
			<path
   d="M 154.97852,216.39014 L 154.97852,217.85889 L 153.94727,217.85889 L 153.94727,232.95264 L 154.97852,232.95264 L 154.97852,234.42139 L 150.85352,234.42139 L 150.85352,232.95264 L 151.88477,232.95264 L 151.88477,226.37646 L 148.47266,232.95264 L 149.33008,232.95264 L 149.33008,234.42139 L 146.33301,234.42139 L 146.33301,232.95264 L 147.4082,232.95264 L 150.29687,227.39014 L 146.35742,217.85889 L 145.57227,217.85889 L 145.57227,216.39014 L 148.29883,216.39014 L 151.88477,225.146 L 151.88477,217.85889 L 150.85352,217.85889 L 150.85352,216.39014 L 154.97852,216.39014 L 154.97852,216.39014 z"
   id="path5360"
   style="fill:#e61408;stroke:none" />
		</g><path
   d="M 16.044434,33.917969 L 11.002441,33.917969 C 11.002441,33.917969 11.790039,34.081055 13.996094,31.963867 C 16.202148,29.84668 16.044433,28.706055 16.044433,28.706055 M 11.002441,33.917969 C 11.002441,33.917969 12.105469,33.754883 14.15332,36.036133 C 16.20166,38.31543 16.044434,39.129883 16.044434,39.129883 L 16.044434,33.917969 M 16.044434,39.129883 C 16.044434,39.129883 15.886719,37.989258 18.092773,35.87207 C 20.29834,33.754883 21.086426,33.917969 21.086426,33.917969 L 16.044434,33.917969 M 21.086426,33.917969 C 21.086426,33.917969 19.983398,34.081055 17.935059,31.800781 C 15.886719,29.520508 16.044434,28.706055 16.044434,28.706055 L 16.044434,33.917969"
   id="path5362"
   style="fill:#e61408;fill-rule:nonzero;stroke:none;stroke-miterlimit:4" /><path
   d="M 150.47266,208.00146 L 155.51563,208.00146 C 155.51563,208.00146 154.72754,207.83936 152.52148,209.95654 C 150.31543,212.07373 150.47266,213.21436 150.47266,213.21436 M 155.51562,208.00146 C 155.51562,208.00146 154.41211,208.16553 152.36426,205.88428 C 150.31641,203.60498 150.47266,202.79053 150.47266,202.79053 L 150.47266,208.00146 M 150.47266,202.79053 C 150.47266,202.79053 150.63086,203.93115 148.4248,206.04834 C 146.21875,208.16553 145.43164,208.00146 145.43164,208.00146 L 150.47266,208.00146 M 145.43164,208.00146 C 145.43164,208.00146 146.53418,207.83936 148.58203,210.11865 C 150.63086,212.3999 150.47266,213.21436 150.47266,213.21436 L 150.47266,208.00146"
   id="path5364"
   style="fill:#e61408;fill-rule:nonzero;stroke:none;stroke-miterlimit:4" />
</svg>