<?xml version="1.0" encoding="UTF-8" standalone="no"?>
<!-- Created with Inkscape (http://www.inkscape.org/) -->
<svg
   xmlns:svg="http://www.w3.org/2000/svg"
   xmlns="http://www.w3.org/2000/svg"
   version="1.0"
   width="167.08789pt"
   height="242.66748pt"
   viewBox="0 0 167.08789 242.66748"
   id="svg5691"
   xml:space="preserve"><defs
   id="defs6037">
		
		
		
		
		
		
		
		
		
		
		
		
		
		
		
		
	</defs>
	<path
   d="M 166.83789,235.54736 C 166.83789,239.33154 163.75195,242.41748 159.96875,242.41748 L 7.1108398,242.41748 C 3.3359375,242.41748 0.25,239.33154 0.25,235.54736 L 0.25,7.1201172 C 0.25,3.3452148 3.3359375,0.25 7.1108398,0.25 L 159.96875,0.25 C 163.75195,0.25 166.83789,3.3452148 166.83789,7.1201172 L 166.83789,235.54736 L 166.83789,235.54736 z"
   id="path5694"
   style="fill:#ffffff;fill-rule:nonzero;stroke:#000000;stroke-width:0.5;stroke-miterlimit:4" /><path
   d="M 159.58398,239.11475 L 7.347168,239.11475 L 7.347168,3.1005859 L 159.58398,3.1005859 L 159.58398,239.11475 L 159.58398,239.11475 z"
   id="path5696"
   style="fill:#ffffff;fill-rule:nonzero;stroke:#000000;stroke-width:1.5;stroke-linejoin:round;stroke-miterlimit:4" /><g
   id="g5966"
   style="fill-rule:nonzero;stroke:none;stroke-miterlimit:4">
			<g
   id="g5968">
				<path
   d="M 44.002441,51.092773 C 39.646973,51.097168 37.355957,46.452148 36.15332,41.808594 C 34.951172,37.162598 34.837402,32.515625 34.837402,32.515625 L 32.614746,32.493164 C 32.614746,32.493164 32.198242,51.080566 23.487793,51.088379 L 44.002441,51.092773 L 44.002441,51.092773 z"
   id="path5970" />
			</g>
			<path
   d="M 51.373047,32.511719 C 51.334473,23.444336 37.76123,16.869141 33.774414,9.6933594 C 29.791016,16.869141 16.216797,23.444336 16.178711,32.511719 C 16.161133,36.792481 20.118164,40.260254 24.977539,40.260254 C 29.836426,40.260254 33.774414,36.792481 33.774414,32.511719 C 33.774414,36.792481 37.715332,40.260254 42.574707,40.260254 C 47.434082,40.260254 51.373047,36.792481 51.373047,32.511719 z"
   id="path5972" />
		</g><g
   id="g5974"
   style="fill-rule:nonzero;stroke:none;stroke-miterlimit:4">
			<g
   id="g5976">
				<path
   d="M 122.85742,191.24365 C 127.21289,191.23975 129.50391,195.88428 130.70703,200.52686 C 131.9082,205.17334 132.02246,209.81982 132.02246,209.81982 L 134.24414,209.84326 C 134.24414,209.84326 134.66113,191.25537 143.37109,191.24756 L 122.85742,191.24365 L 122.85742,191.24365 z"
   id="path5978" />
			</g>
			<path
   d="M 115.48633,209.82471 C 115.52539,218.89209 129.09863,225.46729 133.08496,232.64209 C 137.06836,225.46729 150.64258,218.89209 150.68164,209.82471 C 150.69922,205.54443 146.74219,202.07568 141.88281,202.07568 C 137.02344,202.07568 133.08496,205.54443 133.08496,209.82471 C 133.08496,205.54443 129.14453,202.07568 124.28516,202.07568 C 119.42578,202.07568 115.48633,205.54443 115.48633,209.82471 L 115.48633,209.82471 z"
   id="path5980" />
		</g><path
   d="M 114.23633,189.99365 L 144.23633,189.99365 L 144.23633,233.74365 L 114.23633,233.74365 L 114.23633,189.99365 L 114.23633,189.99365 z"
   id="path5982"
   style="fill:none;fill-rule:nonzero;stroke:none;stroke-miterlimit:4" /><g
   id="g5984"
   style="fill-rule:nonzero;stroke:none;stroke-miterlimit:4">
			<path
   d="M 153.97656,33.382812 L 153.50781,33.382812 L 153.50781,32.632812 L 147.80469,32.632812 L 147.80469,33.382812 L 147.32031,33.382812 L 147.32031,31.04834 C 147.32031,30.03418 147.61328,29.245117 148.19824,28.681641 C 148.7832,28.118164 149.59766,27.835938 150.64062,27.835938 C 151.6875,27.835938 152.50586,28.118652 153.09375,28.683594 C 153.68164,29.249023 153.97656,30.037109 153.97656,31.04834 L 153.97656,33.382813 L 153.97656,33.382812 z M 153.50781,31.835938 L 153.50781,31.105957 C 153.50781,30.343262 153.26172,29.758789 152.76758,29.352051 C 152.27539,28.945801 151.56836,28.742187 150.64648,28.742187 C 149.72656,28.742187 149.02148,28.944824 148.53516,29.350098 C 148.04785,29.755371 147.80469,30.340332 147.80469,31.105957 L 147.80469,31.835938 L 153.50781,31.835938 L 153.50781,31.835938 z"
   id="path5986" />
			<path
   d="M 153.97656,27.407227 L 153.50781,27.407227 L 153.50781,26.895996 L 147.32031,24.803223 L 147.32031,24.142578 L 153.50781,22.04541 L 153.50781,21.469727 L 153.97656,21.469727 L 153.97656,23.602539 L 153.50781,23.602539 L 153.50781,22.951172 L 152.03906,23.441895 L 152.03906,25.909668 L 153.50781,26.400879 L 153.50781,25.758301 L 153.97656,25.758301 L 153.97656,27.407227 L 153.97656,27.407227 z M 151.55469,25.749023 L 151.55469,23.59375 L 148.39648,24.673828 L 151.55469,25.749023 L 151.55469,25.749023 z"
   id="path5988" />
			<path
   d="M 147.80469,20.539062 L 152.9082,18.805664 L 147.80469,17.081055 L 147.80469,17.740723 L 147.32031,17.740723 L 147.32031,16.020508 L 147.80469,16.020508 L 147.80469,16.59082 L 153.97656,18.680664 L 153.97656,19.35791 L 147.80469,21.438965 L 147.80469,22.020508 L 147.32031,22.020508 L 147.32031,19.888184 L 147.80469,19.888184 L 147.80469,20.539063 L 147.80469,20.539062 z"
   id="path5990" />
			<path
   d="M 153.50781,14.13916 L 153.50781,13.38916 L 153.97656,13.38916 L 153.97656,15.686035 L 153.50781,15.686035 L 153.50781,14.936035 L 147.80469,14.936035 L 147.80469,15.686035 L 147.32031,15.686035 L 147.32031,13.38916 L 147.80469,13.38916 L 147.80469,14.13916 L 153.50781,14.13916 z"
   id="path5992" />
			<path
   d="M 153.97656,12.50293 L 153.50781,12.50293 L 153.50781,11.75293 L 147.80469,11.75293 L 147.80469,12.50293 L 147.32031,12.50293 L 147.32031,10.168457 C 147.32031,9.1542968 147.61328,8.3652343 148.19824,7.8017578 C 148.7832,7.2382813 149.59766,6.9560547 150.64062,6.9560547 C 151.6875,6.9560547 152.50586,7.2387695 153.09375,7.803711 C 153.68164,8.3691407 153.97656,9.1572266 153.97656,10.168457 L 153.97656,12.50293 L 153.97656,12.50293 z M 153.50781,10.956055 L 153.50781,10.226074 C 153.50781,9.4633789 153.26172,8.8789062 152.76758,8.4721679 C 152.27539,8.0659179 151.56836,7.8623046 150.64648,7.8623046 C 149.72656,7.8623046 149.02148,8.0649413 148.53516,8.4702148 C 148.04785,8.8754882 147.80469,9.4604492 147.80469,10.226074 L 147.80469,10.956055 L 153.50781,10.956055 L 153.50781,10.956055 z"
   id="path5994" />
		</g><g
   id="g5996"
   style="fill-rule:nonzero;stroke:none;stroke-miterlimit:4">
			<path
   d="M 12.712891,208.84912 L 13.181641,208.84912 L 13.181641,209.59912 L 18.884766,209.59912 L 18.884766,208.84912 L 19.369141,208.84912 L 19.369141,211.18311 C 19.369141,212.19678 19.076172,212.98584 18.490723,213.55029 C 17.905273,214.11279 17.09082,214.396 16.047363,214.396 C 15.001465,214.396 14.184082,214.11279 13.595215,213.54834 C 13.007324,212.98193 12.712891,212.19482 12.712891,211.18311 L 12.712891,208.84912 L 12.712891,208.84912 z M 13.181641,210.396 L 13.181641,211.12549 C 13.181641,211.88818 13.428223,212.47217 13.921387,212.87939 C 14.414551,213.28564 15.121582,213.48975 16.04248,213.48975 C 16.962891,213.48975 17.666504,213.28662 18.153809,212.88135 C 18.641113,212.47607 18.884766,211.89111 18.884766,211.12549 L 18.884766,210.396 L 13.181641,210.396 L 13.181641,210.396 z"
   id="path5998" />
			<path
   d="M 12.712891,214.82373 L 13.181641,214.82373 L 13.181641,215.33545 L 19.369141,217.42822 L 19.369141,218.08936 L 13.181641,220.18604 L 13.181641,220.76123 L 12.712891,220.76123 L 12.712891,218.62842 L 13.181641,218.62842 L 13.181641,219.28076 L 14.650391,218.78955 L 14.650391,216.32178 L 13.181641,215.83057 L 13.181641,216.47314 L 12.712891,216.47314 L 12.712891,214.82373 L 12.712891,214.82373 z M 15.134766,216.48193 L 15.134766,218.63818 L 18.29248,217.55811 L 15.134766,216.48193 z"
   id="path6000" />
			<path
   d="M 18.884766,221.69287 L 13.781738,223.42529 L 18.884766,225.1499 L 18.884766,224.49072 L 19.369141,224.49072 L 19.369141,226.21045 L 18.884766,226.21045 L 18.884766,225.64014 L 12.712891,223.55029 L 12.712891,222.87354 L 18.884766,220.79248 L 18.884766,220.21045 L 19.369141,220.21045 L 19.369141,222.34326 L 18.884766,222.34326 L 18.884766,221.69287 L 18.884766,221.69287 z"
   id="path6002" />
			<path
   d="M 13.181641,228.09229 L 13.181641,228.84229 L 12.712891,228.84229 L 12.712891,226.54541 L 13.181641,226.54541 L 13.181641,227.29541 L 18.884766,227.29541 L 18.884766,226.54541 L 19.369141,226.54541 L 19.369141,228.84229 L 18.884766,228.84229 L 18.884766,228.09229 L 13.181641,228.09229 L 13.181641,228.09229 z"
   id="path6004" />
			<path
   d="M 12.712891,229.72803 L 13.181641,229.72803 L 13.181641,230.47803 L 18.884766,230.47803 L 18.884766,229.72803 L 19.369141,229.72803 L 19.369141,232.06299 C 19.369141,233.07764 19.076172,233.8667 18.490723,234.4292 C 17.905273,234.99365 17.09082,235.2749 16.047363,235.2749 C 15.001465,235.2749 14.184082,234.99268 13.595215,234.42725 C 13.007324,233.86279 12.712891,233.07373 12.712891,232.06299 L 12.712891,229.72803 L 12.712891,229.72803 z M 13.181641,231.2749 L 13.181641,232.00537 C 13.181641,232.76807 13.428223,233.35303 13.921387,233.75928 C 14.414551,234.16553 15.121582,234.36865 16.04248,234.36865 C 16.962891,234.36865 17.666504,234.1665 18.153809,233.76123 C 18.641113,233.35596 18.884766,232.771 18.884766,232.00537 L 18.884766,231.2749 L 13.181641,231.2749 L 13.181641,231.2749 z"
   id="path6006" />
		</g><path
   d="M 157.02832,189.57178 L 143.9502,189.57178 L 143.9502,233.32178 L 157.02832,233.32178 L 157.02832,189.57178 z"
   id="path6008"
   style="fill:#ffffff;fill-rule:nonzero;stroke:none;stroke-miterlimit:4" /><path
   d="M 9.3793945,51.973633 L 22.066895,51.973633 L 22.066895,8.2231445 L 9.3793945,8.2231445 L 9.3793945,51.973633 L 9.3793945,51.973633 z"
   id="path6010"
   style="fill:#ffffff;fill-rule:nonzero;stroke:none;stroke-miterlimit:4" /><g
   id="g6012"
   style="fill-rule:nonzero;stroke:#000000;stroke-miterlimit:4">
			<path
   d="M 11.668945,25.875 L 11.668945,24.40625 L 12.700195,24.40625 L 12.700195,9.3125 L 11.668945,9.3125 L 11.668945,7.84375 L 15.793945,7.84375 L 15.793945,9.3125 L 14.762695,9.3125 L 14.762695,15.888184 L 18.174805,9.3125 L 17.316895,9.3125 L 17.316895,7.84375 L 20.313965,7.84375 L 20.313965,9.3125 L 19.238281,9.3125 L 16.350098,14.874512 L 20.289551,24.40625 L 21.075195,24.40625 L 21.075195,25.875 L 18.347656,25.875 L 14.762695,17.118652 L 14.762695,24.40625 L 15.793945,24.40625 L 15.793945,25.875 L 11.668945,25.875 L 11.668945,25.875 z"
   id="path6014"
   style="stroke:none" />
		</g><g
   id="g6016"
   style="fill-rule:nonzero;stroke:#000000;stroke-miterlimit:4">
			<path
   d="M 154.94141,216.45654 L 154.94141,217.92529 L 153.91016,217.92529 L 153.91016,233.01904 L 154.94141,233.01904 L 154.94141,234.48779 L 150.81641,234.48779 L 150.81641,233.01904 L 151.84766,233.01904 L 151.84766,226.44287 L 148.43555,233.01904 L 149.29395,233.01904 L 149.29395,234.48779 L 146.29688,234.48779 L 146.29688,233.01904 L 147.37305,233.01904 L 150.26074,227.45654 L 146.32129,217.92529 L 145.53516,217.92529 L 145.53516,216.45654 L 148.26367,216.45654 L 151.84766,225.2124 L 151.84766,217.92529 L 150.81641,217.92529 L 150.81641,216.45654 L 154.94141,216.45654 z"
   id="path6018"
   style="stroke:none" />
		</g><g
   id="g6020"
   style="fill-rule:nonzero;stroke:none;stroke-miterlimit:4">
			<g
   id="g6022">
				<path
   d="M 18.88916,39.428711 C 17.793945,39.430176 17.217773,38.261719 16.915527,37.09375 C 16.613281,35.925781 16.584473,34.756836 16.584473,34.756836 L 16.025391,34.750977 C 16.025391,34.750977 15.920898,39.425781 13.72998,39.427734 L 18.88916,39.428711 z"
   id="path6024" />
			</g>
			<path
   d="M 20.743164,34.755859 C 20.733398,32.475586 17.319824,30.821777 16.317383,29.017578 C 15.31543,30.821777 11.901367,32.475586 11.891602,34.755859 C 11.887207,35.83252 12.882324,36.70459 14.10498,36.70459 C 15.32666,36.70459 16.317383,35.83252 16.317383,34.755859 C 16.317383,35.83252 17.308105,36.70459 18.530273,36.70459 C 19.752441,36.70459 20.743164,35.83252 20.743164,34.755859 L 20.743164,34.755859 z"
   id="path6026" />
		</g><g
   id="g6028"
   style="fill-rule:nonzero;stroke:none;stroke-miterlimit:4">
			<g
   id="g6030">
				<path
   d="M 147.875,203.09521 C 148.9707,203.09521 149.54688,204.26318 149.84961,205.43115 C 150.15137,206.59912 150.17969,207.76709 150.17969,207.76709 L 150.73926,207.77295 C 150.73926,207.77295 150.84375,203.09912 153.03516,203.09717 L 147.875,203.09521 z"
   id="path6032" />
			</g>
			<path
   d="M 146.02148,207.76904 C 146.03125,210.04834 149.44531,211.70264 150.44727,213.50732 C 151.44922,211.70264 154.86328,210.04834 154.87305,207.76904 C 154.87695,206.69287 153.88281,205.81982 152.66016,205.81982 C 151.4375,205.81982 150.44727,206.69287 150.44727,207.76904 C 150.44727,206.69287 149.45703,205.81982 148.23438,205.81982 C 147.01172,205.81982 146.02148,206.69287 146.02148,207.76904 L 146.02148,207.76904 z"
   id="path6034" />
		</g>
</svg>