<?xml version="1.0" encoding="UTF-8" standalone="no"?>
<!-- Created with Inkscape (http://www.inkscape.org/) -->
<svg
   xmlns:svg="http://www.w3.org/2000/svg"
   xmlns="http://www.w3.org/2000/svg"
   version="1.0"
   width="167.08936pt"
   height="242.66699pt"
   viewBox="0 0 167.08936 242.66699"
   id="svg5373"
   xml:space="preserve"><defs
   id="defs5685">
		
		
		
		
		
		
		
		
		
		
		
		
		
		
		
		
		
		
		
		
		
		
		
		
		
		
		
		
		
		
		
		
		
		
		
		
		
		
		
		
		
	</defs>
	<path
   d="M 166.83936,235.54785 C 166.83936,239.33105 163.75342,242.41699 159.96826,242.41699 L 7.1113281,242.41699 C 3.336914,242.41699 0.25,239.33105 0.25,235.54785 L 0.25,7.1196289 C 0.25,3.3447266 3.3369141,0.25 7.1113281,0.25 L 159.96826,0.25 C 163.75342,0.25 166.83936,3.3447266 166.83936,7.1196289 L 166.83936,235.54785 L 166.83936,235.54785 z"
   id="path5376"
   style="fill:#ffffff;fill-rule:nonzero;stroke:#000000;stroke-width:0.5;stroke-miterlimit:4" /><path
   d="M 157.81006,237.74707 L 9.5380859,237.74707 L 9.5380859,4.2983398 L 157.81006,4.2983398 L 157.81006,237.74707 L 157.81006,237.74707 z"
   id="path5378"
   style="fill:#ffffff;fill-rule:nonzero;stroke:#000000;stroke-width:1.5;stroke-linejoin:round;stroke-miterlimit:4" /><g
   id="g5624"
   style="fill-rule:nonzero;stroke:none;stroke-miterlimit:4">
			<path
   d="M 152.1792,43.418945 C 152.80029,43.591309 153.271,43.880859 153.58936,44.288086 C 153.90967,44.694824 154.06982,45.210449 154.06982,45.834473 C 154.06982,46.217773 153.99561,46.572754 153.84717,46.899414 C 153.69873,47.226562 153.47998,47.516113 153.19092,47.768555 C 152.85889,48.062988 152.47998,48.28125 152.05615,48.423828 C 151.63232,48.566406 151.15381,48.637695 150.61865,48.637695 C 149.5835,48.637695 148.74951,48.374512 148.11475,47.848144 C 147.47998,47.321777 147.16357,46.627441 147.16357,45.765137 C 147.16357,45.447266 147.21045,45.106445 147.30615,44.743652 C 147.40186,44.380859 147.54639,43.991699 147.7417,43.575195 L 149.27295,43.575195 L 149.27295,44.02832 C 148.71631,44.123047 148.30615,44.316406 148.04248,44.608398 C 147.77881,44.900391 147.64795,45.308594 147.64795,45.833008 C 147.64795,46.458496 147.8999,46.931152 148.40186,47.251465 C 148.90381,47.571289 149.64404,47.731445 150.61865,47.731445 C 151.59131,47.731445 152.32959,47.571289 152.83154,47.250488 C 153.3335,46.929688 153.58545,46.456055 153.58545,45.82959 C 153.58545,45.393555 153.46826,45.03418 153.23193,44.751953 C 152.99756,44.470215 152.646,44.265137 152.1792,44.137695 L 152.1792,43.418945 L 152.1792,43.418945 z"
   id="path5626" />
			<path
   d="M 153.94482,42.487793 L 153.47607,42.487793 L 153.47607,41.737793 L 147.77295,41.737793 L 147.77295,42.487793 L 147.28857,42.487793 L 147.28857,40.190918 L 147.77295,40.190918 L 147.77295,40.940918 L 150.0542,40.940918 L 150.0542,37.894043 L 147.77295,37.894043 L 147.77295,38.644043 L 147.28857,38.644043 L 147.28857,36.347168 L 147.77295,36.347168 L 147.77295,37.097168 L 153.47607,37.097168 L 153.47607,36.347168 L 153.94482,36.347168 L 153.94482,38.644043 L 153.47607,38.644043 L 153.47607,37.894043 L 150.60107,37.894043 L 150.60107,40.940918 L 153.47607,40.940918 L 153.47607,40.190918 L 153.94482,40.190918 L 153.94482,42.487793 z"
   id="path5628" />
			<path
   d="M 153.94482,35.945313 L 153.47607,35.945313 L 153.47607,35.43457 L 147.28857,33.341309 L 147.28857,32.681152 L 153.47607,30.583496 L 153.47607,30.007812 L 153.94482,30.007812 L 153.94482,32.141113 L 153.47607,32.141113 L 153.47607,31.489746 L 152.00732,31.980469 L 152.00732,34.448242 L 153.47607,34.938965 L 153.47607,34.296387 L 153.94482,34.296387 L 153.94482,35.945313 z M 151.52295,34.287598 L 151.52295,32.132324 L 148.36475,33.211914 L 151.52295,34.287598 z"
   id="path5630" />
			<path
   d="M 150.63818,26.231445 C 150.69482,26.046875 150.79053,25.888672 150.92725,25.756348 C 151.06201,25.624023 151.25342,25.505371 151.49756,25.401367 L 153.47607,24.545898 L 153.47607,23.832031 L 153.94482,23.832031 L 153.94482,25.217285 L 151.82764,26.133789 C 151.41748,26.308594 151.15186,26.469238 151.03076,26.615723 C 150.91162,26.762695 150.85107,26.963379 150.85107,27.218262 L 150.85107,28.095215 L 153.47607,28.095215 L 153.47607,27.26709 L 153.94482,27.26709 L 153.94482,29.64209 L 153.47607,29.64209 L 153.47607,28.89209 L 147.77295,28.89209 L 147.77295,29.64209 L 147.28857,29.64209 L 147.28857,26.666992 C 147.28857,26.095703 147.44287,25.654297 147.75146,25.343262 C 148.06006,25.032226 148.49756,24.876465 149.06592,24.876465 C 149.52295,24.876465 149.88232,24.989746 150.146,25.216308 C 150.40967,25.442871 150.57373,25.78125 150.63818,26.231445 L 150.63818,26.231445 z M 150.3667,28.095215 L 150.3667,26.937988 C 150.3667,26.543945 150.26123,26.25293 150.05029,26.064941 C 149.8374,25.876953 149.51123,25.782715 149.06787,25.782715 C 148.62451,25.782715 148.29834,25.876953 148.0874,26.064941 C 147.87842,26.25293 147.77295,26.543945 147.77295,26.937988 L 147.77295,28.095215 L 150.3667,28.095215 L 150.3667,28.095215 z"
   id="path5632" />
			<path
   d="M 153.94482,23.575195 L 153.47607,23.575195 L 153.47607,22.825195 L 147.77295,22.825195 L 147.77295,23.575195 L 147.28857,23.575195 L 147.28857,21.27832 L 147.77295,21.27832 L 147.77295,22.02832 L 153.39795,22.02832 L 153.39795,19.34082 L 152.28857,19.34082 L 152.28857,18.856445 L 153.94482,18.856445 L 153.94482,23.575195 z"
   id="path5634" />
			<path
   d="M 153.94482,18.224121 L 153.47607,18.224121 L 153.47607,17.474121 L 147.77295,17.474121 L 147.77295,18.224121 L 147.28857,18.224121 L 147.28857,13.489746 L 148.77295,13.489746 L 148.77295,13.974121 L 147.83545,13.974121 L 147.83545,16.677246 L 150.0542,16.677246 L 150.0542,14.739746 L 149.22607,14.739746 L 149.22607,14.255371 L 151.4292,14.255371 L 151.4292,14.739746 L 150.60107,14.739746 L 150.60107,16.677246 L 153.39795,16.677246 L 153.39795,13.911621 L 152.46045,13.911621 L 152.46045,13.427246 L 153.94482,13.427246 L 153.94482,18.224121 z"
   id="path5636" />
			<path
   d="M 153.6167,12.029785 L 152.10107,12.029785 L 152.10498,11.57666 C 152.60889,11.562012 152.98193,11.433594 153.22217,11.190918 C 153.46436,10.948731 153.58545,10.577637 153.58545,10.078125 C 153.58545,9.6142578 153.47998,9.2607422 153.271,9.0185547 C 153.06201,8.7763672 152.75732,8.6547852 152.35693,8.6547852 C 152.03662,8.6547852 151.79053,8.7285157 151.61865,8.875 C 151.44678,9.0219727 151.28076,9.3344727 151.1167,9.8120117 L 150.85498,10.581543 C 150.66162,11.142578 150.42139,11.537109 150.13232,11.765625 C 149.84326,11.994141 149.44873,12.10791 148.94678,12.10791 C 148.38232,12.10791 147.94287,11.931152 147.63232,11.577637 C 147.31982,11.224121 147.16357,10.728027 147.16357,10.089356 C 147.16357,9.815918 147.19678,9.5170899 147.26318,9.1933594 C 147.32959,8.8696289 147.42725,8.5234375 147.5542,8.1547852 L 148.97607,8.1547852 L 148.97607,8.6079102 C 148.50732,8.6523438 148.16943,8.7905274 147.96045,9.0214844 C 147.75146,9.2529297 147.64795,9.6040039 147.64795,10.075195 C 147.64795,10.490234 147.74365,10.805176 147.93506,11.02002 C 148.12646,11.234863 148.40381,11.342285 148.76904,11.342285 C 149.08545,11.342285 149.3335,11.261719 149.51514,11.100098 C 149.69678,10.938477 149.87451,10.595215 150.05225,10.069824 L 150.29834,9.3447265 C 150.47998,8.8105468 150.71045,8.4291992 150.9917,8.2006835 C 151.271,7.9721679 151.64795,7.8579101 152.12061,7.8579101 C 152.76709,7.8579101 153.25147,8.040039 153.57959,8.4033203 C 153.90576,8.7670898 154.06982,9.3095703 154.06982,10.030762 C 154.06982,10.351562 154.03272,10.678711 153.95654,11.012695 C 153.88232,11.34668 153.76904,11.685547 153.6167,12.029785 L 153.6167,12.029785 z"
   id="path5638" />
		</g><g
   id="g5640"
   style="fill-rule:nonzero;stroke:none;stroke-miterlimit:4">
			<path
   d="M 14.446289,198.61621 C 13.825195,198.44434 13.354492,198.15527 13.035156,197.74707 C 12.71582,197.34082 12.555664,196.8252 12.555664,196.20117 C 12.555664,195.81738 12.629883,195.46289 12.77832,195.13574 C 12.926758,194.80957 13.145508,194.51953 13.43457,194.2666 C 13.766602,193.97266 14.145508,193.75488 14.56836,193.6123 C 14.992188,193.46973 15.47168,193.39746 16.006836,193.39746 C 17.041016,193.39746 17.875,193.66113 18.509766,194.1875 C 19.144531,194.71387 19.461914,195.4082 19.461914,196.27051 C 19.461914,196.58887 19.414063,196.92871 19.318359,197.29199 C 19.222656,197.65527 19.078125,198.04395 18.883789,198.45996 L 17.352539,198.45996 L 17.352539,198.00684 C 17.90918,197.91309 18.319336,197.71973 18.582031,197.42676 C 18.845703,197.13574 18.977539,196.72754 18.977539,196.20215 C 18.977539,195.57715 18.725586,195.10449 18.223633,194.78418 C 17.720703,194.46387 16.981445,194.30371 16.006836,194.30371 C 15.03418,194.30371 14.295898,194.46387 13.793945,194.78516 C 13.291016,195.10645 13.040039,195.5791 13.040039,196.20605 C 13.040039,196.6416 13.157227,197.00098 13.392578,197.28418 C 13.62793,197.56543 13.979492,197.77051 14.446289,197.89746 L 14.446289,198.61621 L 14.446289,198.61621 z"
   id="path5642" />
			<path
   d="M 12.680664,199.54785 L 13.149414,199.54785 L 13.149414,200.29785 L 18.852539,200.29785 L 18.852539,199.54785 L 19.336914,199.54785 L 19.336914,201.84473 L 18.852539,201.84473 L 18.852539,201.09473 L 16.571289,201.09473 L 16.571289,204.1416 L 18.852539,204.1416 L 18.852539,203.3916 L 19.336914,203.3916 L 19.336914,205.68848 L 18.852539,205.68848 L 18.852539,204.93848 L 13.149414,204.93848 L 13.149414,205.68848 L 12.680664,205.68848 L 12.680664,203.3916 L 13.149414,203.3916 L 13.149414,204.1416 L 16.024414,204.1416 L 16.024414,201.09473 L 13.149414,201.09473 L 13.149414,201.84473 L 12.680664,201.84473 L 12.680664,199.54785 L 12.680664,199.54785 z"
   id="path5644" />
			<path
   d="M 12.680664,206.09082 L 13.149414,206.09082 L 13.149414,206.60059 L 19.336914,208.69434 L 19.336914,209.35449 L 13.149414,211.45215 L 13.149414,212.02832 L 12.680664,212.02832 L 12.680664,209.89453 L 13.149414,209.89453 L 13.149414,210.5459 L 14.618164,210.05566 L 14.618164,207.58691 L 13.149414,207.09668 L 13.149414,207.73926 L 12.680664,207.73926 L 12.680664,206.09082 L 12.680664,206.09082 z M 15.102539,207.74805 L 15.102539,209.90332 L 18.260742,208.82324 L 15.102539,207.74805 L 15.102539,207.74805 z"
   id="path5646" />
			<path
   d="M 15.987305,215.80371 C 15.930664,215.98926 15.833984,216.14746 15.698242,216.2793 C 15.5625,216.41113 15.37207,216.53027 15.126953,216.63379 L 13.149414,217.48926 L 13.149414,218.2041 L 12.680664,218.2041 L 12.680664,216.81836 L 14.796875,215.90137 C 15.207031,215.72754 15.472656,215.56641 15.59375,215.41992 C 15.713867,215.27246 15.774414,215.07227 15.774414,214.81738 L 15.774414,213.94043 L 13.149414,213.94043 L 13.149414,214.76855 L 12.680664,214.76855 L 12.680664,212.39355 L 13.149414,212.39355 L 13.149414,213.14355 L 18.852539,213.14355 L 18.852539,212.39355 L 19.336914,212.39355 L 19.336914,215.36816 C 19.336914,215.94043 19.182617,216.38184 18.874023,216.69238 C 18.564453,217.00293 18.126953,217.15918 17.55957,217.15918 C 17.102539,217.15918 16.742187,217.0459 16.479492,216.81934 C 16.21582,216.59277 16.051758,216.25488 15.987305,215.80371 L 15.987305,215.80371 z M 16.258789,213.94043 L 16.258789,215.09766 C 16.258789,215.49121 16.364258,215.78223 16.575195,215.9707 C 16.787109,216.15918 17.114258,216.25293 17.557617,216.25293 C 18.000977,216.25293 18.327149,216.15918 18.538086,215.9707 C 18.74707,215.78223 18.852539,215.49121 18.852539,215.09766 L 18.852539,213.94043 L 16.258789,213.94043 L 16.258789,213.94043 z"
   id="path5648" />
			<path
   d="M 12.680664,218.45996 L 13.149414,218.45996 L 13.149414,219.20996 L 18.852539,219.20996 L 18.852539,218.45996 L 19.336914,218.45996 L 19.336914,220.75684 L 18.852539,220.75684 L 18.852539,220.00684 L 13.227539,220.00684 L 13.227539,222.69434 L 14.336914,222.69434 L 14.336914,223.17871 L 12.680664,223.17871 L 12.680664,218.45996 L 12.680664,218.45996 z"
   id="path5650" />
			<path
   d="M 12.680664,223.81152 L 13.149414,223.81152 L 13.149414,224.56152 L 18.852539,224.56152 L 18.852539,223.81152 L 19.336914,223.81152 L 19.336914,228.5459 L 17.852539,228.5459 L 17.852539,228.06152 L 18.790039,228.06152 L 18.790039,225.3584 L 16.571289,225.3584 L 16.571289,227.2959 L 17.399414,227.2959 L 17.399414,227.78027 L 15.196289,227.78027 L 15.196289,227.2959 L 16.024414,227.2959 L 16.024414,225.3584 L 13.227539,225.3584 L 13.227539,228.12402 L 14.165039,228.12402 L 14.165039,228.6084 L 12.680664,228.6084 L 12.680664,223.81152 L 12.680664,223.81152 z"
   id="path5652" />
			<path
   d="M 13.008789,230.00586 L 14.524414,230.00586 L 14.520508,230.45898 C 14.016601,230.47363 13.643555,230.60254 13.402344,230.84473 C 13.161133,231.08691 13.040039,231.45801 13.040039,231.95801 C 13.040039,232.4209 13.144531,232.77441 13.353516,233.0166 C 13.5625,233.25879 13.867188,233.38086 14.267578,233.38086 C 14.587891,233.38086 14.833984,233.30762 15.005859,233.16113 C 15.177734,233.01367 15.344727,232.70117 15.508789,232.22363 L 15.770508,231.4541 C 15.963867,230.89355 16.204102,230.49902 16.493164,230.27051 C 16.78125,230.04199 17.176758,229.92773 17.678711,229.92773 C 18.243164,229.92773 18.681641,230.10449 18.993164,230.45801 C 19.305664,230.81152 19.461914,231.30762 19.461914,231.94629 C 19.461914,232.21973 19.428711,232.51855 19.362305,232.84277 C 19.295898,233.16602 19.198242,233.5127 19.071289,233.88086 L 17.649414,233.88086 L 17.649414,233.42773 C 18.117188,233.38379 18.456055,233.24512 18.664063,233.01465 C 18.873047,232.78223 18.977539,232.43164 18.977539,231.95996 C 18.977539,231.5459 18.881836,231.23047 18.69043,231.01563 C 18.499024,230.80078 18.22168,230.69336 17.856445,230.69336 C 17.540039,230.69336 17.291016,230.77441 17.110352,230.93555 C 16.928711,231.09668 16.75,231.44043 16.572266,231.96582 L 16.327149,232.69043 C 16.145508,233.22559 15.915039,233.60645 15.633789,233.83496 C 15.353516,234.06348 14.976563,234.17773 14.503906,234.17773 C 13.858399,234.17773 13.373047,233.99512 13.045899,233.63184 C 12.71875,233.26855 12.555664,232.72559 12.555664,232.00488 C 12.555664,231.68457 12.592774,231.35645 12.667969,231.02246 C 12.742188,230.68848 12.856445,230.35059 13.008789,230.00586 L 13.008789,230.00586 z"
   id="path5654" />
		</g><g
   id="g5656"
   style="fill-rule:nonzero;stroke:#000000;stroke-miterlimit:4">
			<path
   d="M 14.282227,20.333984 C 14.293945,32.307617 29.308594,41.028809 33.699219,50.512695 C 38.136719,41.050781 53.194336,32.405762 53.266602,20.432617 C 53.301758,14.779297 48.928711,10.189941 43.545898,10.175781 C 38.163086,10.162109 33.789063,14.729981 33.774414,20.383301 C 33.789062,14.72998 29.436523,10.139649 24.053711,10.126465 C 18.668945,10.112793 14.295898,14.680664 14.282227,20.333984 L 14.282227,20.333984 z"
   id="path5658"
   style="fill:#e61408;stroke:none" />
		</g><g
   id="g5660"
   style="fill-rule:nonzero;stroke:#000000;stroke-miterlimit:4">
			<path
   d="M 152.36475,221.62793 C 152.35303,209.65527 137.3374,200.93359 132.94678,191.4502 C 128.50928,200.91113 113.45264,209.55566 113.38037,221.53027 C 113.34521,227.18262 117.71826,231.77246 123.10107,231.78613 C 128.48389,231.7998 132.85693,227.23242 132.87061,221.5791 C 132.85693,227.23242 137.21045,231.82324 142.59326,231.83594 C 147.97803,231.84961 152.35107,227.28223 152.36475,221.62793 L 152.36475,221.62793 z"
   id="path5662"
   style="fill:#e61408;stroke:none" />
		</g><path
   d="M 10.759766,51.676758 L 22.475586,51.676758 L 22.475586,7.9267578 L 10.759766,7.9267578 L 10.759766,51.676758 z"
   id="path5664"
   style="fill:#ffffff;fill-rule:nonzero;stroke:none;stroke-miterlimit:4" /><path
   d="M 156.91748,190.1123 L 143.69092,190.1123 L 143.69092,233.8623 L 156.91748,233.8623 L 156.91748,190.1123 z"
   id="path5666"
   style="fill:#ffffff;fill-rule:nonzero;stroke:none;stroke-miterlimit:4" /><g
   id="g5668"
   style="fill-rule:nonzero;stroke:#000000;stroke-miterlimit:4">
			<path
   d="M 11.696289,25.5625 L 11.696289,24.09375 L 12.727539,24.09375 L 12.727539,9 L 11.696289,9 L 11.696289,7.53125 L 15.821289,7.53125 L 15.821289,9 L 14.790039,9 L 14.790039,15.575684 L 18.202148,9 L 17.344727,9 L 17.344727,7.53125 L 20.34082,7.53125 L 20.34082,9 L 19.265625,9 L 16.37793,14.562012 L 20.317383,24.09375 L 21.102539,24.09375 L 21.102539,25.5625 L 18.375,25.5625 L 14.790039,16.806152 L 14.790039,24.09375 L 15.821289,24.09375 L 15.821289,25.5625 L 11.696289,25.5625 L 11.696289,25.5625 z"
   id="path5670"
   style="fill:#e61408;stroke:none" />
		</g><g
   id="g5672"
   style="fill-rule:nonzero;stroke:#000000;stroke-miterlimit:4">
			<path
   d="M 154.97021,216.14355 L 154.97021,217.6123 L 153.93896,217.6123 L 153.93896,232.70605 L 154.97021,232.70605 L 154.97021,234.1748 L 150.84521,234.1748 L 150.84521,232.70605 L 151.87646,232.70605 L 151.87646,226.13086 L 148.46436,232.70605 L 149.32178,232.70605 L 149.32178,234.1748 L 146.32568,234.1748 L 146.32568,232.70605 L 147.3999,232.70605 L 150.28857,227.14453 L 146.34912,217.6123 L 145.56396,217.6123 L 145.56396,216.14355 L 148.29053,216.14355 L 151.87646,224.90039 L 151.87646,217.6123 L 150.84521,217.6123 L 150.84521,216.14355 L 154.97021,216.14355 L 154.97021,216.14355 z"
   id="path5674"
   style="fill:#e61408;stroke:none" />
		</g><g
   id="g5676"
   style="fill-rule:nonzero;stroke:#000000;stroke-miterlimit:4">
			<path
   d="M 11.645508,31.469238 C 11.649414,34.342773 15.25293,36.436035 16.305664,38.712402 C 17.371094,36.441406 20.985352,34.366699 21.00293,31.492676 C 21.010742,30.13623 19.961914,29.034668 18.668945,29.03125 C 17.37793,29.027832 16.327148,30.124512 16.324219,31.480957 C 16.327148,30.124512 15.283203,29.022461 13.991211,29.019531 C 12.698242,29.016113 11.649414,30.112305 11.645508,31.469238 L 11.645508,31.469238 z"
   id="path5678"
   style="fill:#e61408;stroke:none" />
		</g><g
   id="g5680"
   style="fill-rule:nonzero;stroke:#000000;stroke-miterlimit:4">
			<path
   d="M 155.02295,210.7666 C 155.021,207.89355 151.41748,205.7998 150.36279,203.52441 C 149.29834,205.79395 145.68506,207.87012 145.66748,210.74316 C 145.65967,212.09961 146.7085,213.20117 147.99951,213.2041 C 149.29248,213.20801 150.34131,212.1123 150.34521,210.75488 C 150.34131,212.1123 151.38623,213.21387 152.6792,213.21582 C 153.97021,213.21973 155.021,212.12402 155.02295,210.7666 L 155.02295,210.7666 z"
   id="path5682"
   style="fill:#e61408;stroke:none" />
		</g>
</svg>