<?xml version="1.0" encoding="UTF-8" standalone="no"?>
<!-- Created with Inkscape (http://www.inkscape.org/) -->
<svg
   xmlns:svg="http://www.w3.org/2000/svg"
   xmlns="http://www.w3.org/2000/svg"
   version="1.0"
   width="167.08936pt"
   height="242.66699pt"
   viewBox="0 0 167.08936 242.66699"
   id="svg6703"
   xml:space="preserve"><defs
   id="defs7037">
		
		
		
		
		
		
		
		
		
		
		
		
		
		
		
		
		
		
		
		
		
		
		
		
		
		
		
		
		
		
		
		
		
		
		
		
		
		
		
		
		
		
		
		
	</defs>
	<path
   d="M 166.83936,235.54785 C 166.83936,239.33105 163.75342,242.41699 159.96826,242.41699 L 7.1113281,242.41699 C 3.3359375,242.41699 0.25,239.33105 0.25,235.54785 L 0.25,7.1201172 C 0.25,3.3452148 3.3359375,0.25 7.1113281,0.25 L 159.96826,0.25 C 163.75342,0.25 166.83936,3.3452148 166.83936,7.1201172 L 166.83936,235.54785 L 166.83936,235.54785 z"
   id="path6706"
   style="fill:#ffffff;fill-rule:nonzero;stroke:#000000;stroke-width:0.5;stroke-miterlimit:4" /><path
   d="M 158.72998,238.11621 L 8.8916016,238.11621 L 8.8916016,4.84375 L 158.72998,4.84375 L 158.72998,238.11621 L 158.72998,238.11621 z"
   id="path6708"
   style="fill:#ffffff;fill-rule:nonzero;stroke:#000000;stroke-width:1.5;stroke-linejoin:round;stroke-miterlimit:4" /><g
   id="g6710"
   style="fill-rule:nonzero;stroke:none;stroke-miterlimit:4">
			<path
   d="M 155.771,39.915527 L 154.72412,39.915527 L 154.72412,39.462402 C 155.01318,39.453613 155.22803,39.39209 155.37061,39.27832 C 155.51123,39.164551 155.5835,38.993652 155.5835,38.765625 C 155.5835,38.455078 155.47217,38.238281 155.25146,38.115723 C 155.03076,37.992676 154.59912,37.931152 153.95654,37.931152 L 147.98975,37.931152 L 147.98975,38.853027 L 147.50537,38.853027 L 147.50537,36.384277 L 147.98975,36.384277 L 147.98975,37.134277 L 153.9917,37.134277 C 154.72412,37.134277 155.25342,37.264649 155.57959,37.524414 C 155.90381,37.784668 156.06787,38.202637 156.06787,38.779297 C 156.06787,38.963379 156.04248,39.151367 155.99365,39.343262 C 155.94287,39.534668 155.86865,39.725586 155.771,39.915527 L 155.771,39.915527 z"
   id="path6712" />
			<path
   d="M 147.98975,34.888672 L 147.98975,35.638672 L 147.50537,35.638672 L 147.50537,33.341797 L 147.98975,33.341797 L 147.98975,34.091797 L 151.42725,34.091797 C 152.27686,34.091797 152.86865,33.969727 153.20459,33.725098 C 153.54053,33.480469 153.7085,33.058105 153.7085,32.458984 C 153.7085,31.859863 153.54053,31.437988 153.20459,31.193359 C 152.86865,30.94873 152.27686,30.826172 151.42725,30.826172 L 147.98975,30.826172 L 147.98975,31.576172 L 147.50537,31.576172 L 147.50537,29.591797 L 147.98975,29.591797 L 147.98975,30.341797 L 151.51709,30.341797 C 152.52686,30.341797 153.2417,30.513672 153.65967,30.856934 C 154.07764,31.200195 154.28662,31.783203 154.28662,32.606445 C 154.28662,33.426758 154.07568,34.012207 153.65576,34.362793 C 153.23389,34.713379 152.521,34.888672 151.51709,34.888672 L 147.98975,34.888672 L 147.98975,34.888672 z"
   id="path6714" />
			<path
   d="M 154.16162,28.785156 L 153.69287,28.785156 L 153.69287,28.035156 L 147.98975,28.035156 L 147.98975,28.785156 L 147.50537,28.785156 L 147.50537,26.450684 C 147.50537,25.436523 147.79834,24.647461 148.38428,24.083984 C 148.96826,23.520508 149.78271,23.238281 150.82568,23.238281 C 151.87256,23.238281 152.69092,23.520996 153.27881,24.085938 C 153.8667,24.651367 154.16162,25.439453 154.16162,26.450684 L 154.16162,28.785156 L 154.16162,28.785156 z M 153.69287,27.238281 L 153.69287,26.508301 C 153.69287,25.745605 153.44678,25.161133 152.95264,24.754395 C 152.46045,24.348145 151.75342,24.144531 150.83154,24.144531 C 149.91162,24.144531 149.20654,24.347168 148.72021,24.752441 C 148.23389,25.157715 147.98975,25.742676 147.98975,26.508301 L 147.98975,27.238281 L 153.69287,27.238281 L 153.69287,27.238281 z"
   id="path6716" />
			<path
   d="M 153.69287,20.77832 L 153.69287,20.02832 L 154.16162,20.02832 L 154.16162,22.325195 L 153.69287,22.325195 L 153.69287,21.575195 L 147.98975,21.575195 L 147.98975,22.325195 L 147.50537,22.325195 L 147.50537,20.02832 L 147.98975,20.02832 L 147.98975,20.77832 L 153.69287,20.77832 z"
   id="path6718" />
			<path
   d="M 154.16162,18.04834 L 153.69287,18.04834 L 153.69287,17.29834 L 148.03662,17.29834 L 148.03662,19.01709 L 149.0835,19.01709 L 149.0835,19.501465 L 147.50537,19.501465 L 147.50537,14.282715 L 149.0835,14.282715 L 149.0835,14.76709 L 148.03662,14.76709 L 148.03662,16.501465 L 153.69287,16.501465 L 153.69287,15.751465 L 154.16162,15.751465 L 154.16162,18.04834 z"
   id="path6720" />
			<path
   d="M 154.16162,13.767578 L 153.69287,13.767578 L 153.69287,13.017578 L 147.98975,13.017578 L 147.98975,13.767578 L 147.50537,13.767578 L 147.50537,11.470703 L 147.98975,11.470703 L 147.98975,12.220703 L 150.271,12.220703 L 150.271,9.1738281 L 147.98975,9.1738281 L 147.98975,9.9238281 L 147.50537,9.9238281 L 147.50537,7.6269531 L 147.98975,7.6269531 L 147.98975,8.3769531 L 153.69287,8.3769531 L 153.69287,7.6269531 L 154.16162,7.6269531 L 154.16162,9.9238281 L 153.69287,9.9238281 L 153.69287,9.1738281 L 150.81787,9.1738281 L 150.81787,12.220703 L 153.69287,12.220703 L 153.69287,11.470703 L 154.16162,11.470703 L 154.16162,13.767578 z"
   id="path6722" />
		</g><g
   id="g6724"
   style="fill-rule:nonzero;stroke:none;stroke-miterlimit:4">
			<path
   d="M 11.288086,202.91699 L 12.334961,202.91699 L 12.334961,203.37012 C 12.045898,203.37891 11.830078,203.44043 11.688476,203.55371 C 11.546875,203.66797 11.475586,203.83887 11.475586,204.06738 C 11.475586,204.37793 11.585937,204.59473 11.807617,204.7168 C 12.02832,204.83984 12.459961,204.90137 13.102539,204.90137 L 19.069336,204.90137 L 19.069336,203.97949 L 19.553711,203.97949 L 19.553711,206.44824 L 19.069336,206.44824 L 19.069336,205.69824 L 13.067383,205.69824 C 12.334961,205.69824 11.805664,205.56738 11.479492,205.30762 C 11.154297,205.04785 10.991211,204.62988 10.991211,204.05371 C 10.991211,203.86914 11.016602,203.68066 11.06543,203.48926 C 11.115234,203.29785 11.189453,203.10645 11.288086,202.91699 L 11.288086,202.91699 z"
   id="path6726" />
			<path
   d="M 19.069336,207.94434 L 19.069336,207.19434 L 19.553711,207.19434 L 19.553711,209.49121 L 19.069336,209.49121 L 19.069336,208.74121 L 15.630859,208.74121 C 14.782226,208.74121 14.189453,208.8623 13.853515,209.10742 C 13.518555,209.35254 13.350586,209.77441 13.350586,210.37402 C 13.350586,210.97266 13.518555,211.39453 13.853515,211.63965 C 14.189453,211.88379 14.782226,212.00684 15.630859,212.00684 L 19.069336,212.00684 L 19.069336,211.25684 L 19.553711,211.25684 L 19.553711,213.24121 L 19.069336,213.24121 L 19.069336,212.49121 L 15.541992,212.49121 C 14.53125,212.49121 13.817383,212.31934 13.399414,211.97559 C 12.981445,211.63184 12.772461,211.0498 12.772461,210.22559 C 12.772461,209.40527 12.982422,208.82031 13.40332,208.46973 C 13.824219,208.11914 14.537109,207.94434 15.541992,207.94434 L 19.069336,207.94434 L 19.069336,207.94434 z"
   id="path6728" />
			<path
   d="M 12.897461,214.04785 L 13.366211,214.04785 L 13.366211,214.79785 L 19.069336,214.79785 L 19.069336,214.04785 L 19.553711,214.04785 L 19.553711,216.38184 C 19.553711,217.39551 19.260742,218.18457 18.674805,218.74902 C 18.089844,219.31152 17.27539,219.59473 16.232422,219.59473 C 15.185547,219.59473 14.368164,219.31152 13.780273,218.74707 C 13.191406,218.18066 12.897461,217.39355 12.897461,216.38184 L 12.897461,214.04785 L 12.897461,214.04785 z M 13.366211,215.59473 L 13.366211,216.32422 C 13.366211,217.08691 13.612305,217.6709 14.105469,218.07813 C 14.598633,218.48438 15.305664,218.68848 16.226562,218.68848 C 17.147461,218.68848 17.851562,218.48535 18.338867,218.08008 C 18.825195,217.6748 19.069336,217.08984 19.069336,216.32422 L 19.069336,215.59473 L 13.366211,215.59473 L 13.366211,215.59473 z"
   id="path6730" />
			<path
   d="M 13.366211,222.05371 L 13.366211,222.80371 L 12.897461,222.80371 L 12.897461,220.50684 L 13.366211,220.50684 L 13.366211,221.25684 L 19.069336,221.25684 L 19.069336,220.50684 L 19.553711,220.50684 L 19.553711,222.80371 L 19.069336,222.80371 L 19.069336,222.05371 L 13.366211,222.05371 L 13.366211,222.05371 z"
   id="path6732" />
			<path
   d="M 12.897461,224.78418 L 13.366211,224.78418 L 13.366211,225.53418 L 19.022461,225.53418 L 19.022461,223.81543 L 17.975586,223.81543 L 17.975586,223.33105 L 19.553711,223.33105 L 19.553711,228.5498 L 17.975586,228.5498 L 17.975586,228.06543 L 19.022461,228.06543 L 19.022461,226.33105 L 13.366211,226.33105 L 13.366211,227.08105 L 12.897461,227.08105 L 12.897461,224.78418 L 12.897461,224.78418 z"
   id="path6734" />
			<path
   d="M 12.897461,229.06543 L 13.366211,229.06543 L 13.366211,229.81543 L 19.069336,229.81543 L 19.069336,229.06543 L 19.553711,229.06543 L 19.553711,231.3623 L 19.069336,231.3623 L 19.069336,230.6123 L 16.788086,230.6123 L 16.788086,233.65918 L 19.069336,233.65918 L 19.069336,232.90918 L 19.553711,232.90918 L 19.553711,235.20605 L 19.069336,235.20605 L 19.069336,234.45605 L 13.366211,234.45605 L 13.366211,235.20605 L 12.897461,235.20605 L 12.897461,232.90918 L 13.366211,232.90918 L 13.366211,233.65918 L 16.241211,233.65918 L 16.241211,230.6123 L 13.366211,230.6123 L 13.366211,231.3623 L 12.897461,231.3623 L 12.897461,229.06543 L 12.897461,229.06543 z"
   id="path6736" />
		</g><g
   id="g7008"
   style="fill-rule:nonzero;stroke:#000000;stroke-miterlimit:4">
			<path
   d="M 14.558594,20.609375 C 14.571289,32.58252 29.584961,41.303711 33.975586,50.788086 C 38.413086,41.326172 53.470703,32.681152 53.543945,20.70752 C 53.577148,15.054199 49.206055,10.465332 43.821289,10.450684 C 38.438477,10.4375 34.06543,15.004883 34.051758,20.658691 C 34.06543,15.004883 29.712891,10.415039 24.330078,10.401367 C 18.946289,10.388184 14.573242,14.956055 14.558594,20.609375 L 14.558594,20.609375 z"
   id="path7010"
   style="fill:#e61408;stroke:none" />
		</g><g
   id="g7012"
   style="fill-rule:nonzero;stroke:#000000;stroke-miterlimit:4">
			<path
   d="M 152.64014,221.90332 C 152.62842,209.92969 137.61475,201.20898 133.22412,191.72461 C 128.78662,201.18652 113.72803,209.83105 113.65576,221.80469 C 113.62256,227.45801 117.99365,232.04785 123.37646,232.06152 C 128.75928,232.0752 133.13428,227.50684 133.14795,221.85449 C 133.13428,227.50684 137.48584,232.09766 142.86865,232.11035 C 148.25342,232.12402 152.62646,227.55664 152.64014,221.90332 L 152.64014,221.90332 z"
   id="path7014"
   style="fill:#e61408;stroke:none" />
		</g><path
   d="M 10.256836,51.509277 L 22.725586,51.509277 L 22.725586,7.7592773 L 10.256836,7.7592773 L 10.256836,51.509277 L 10.256836,51.509277 z"
   id="path7016"
   style="fill:#ffffff;fill-rule:nonzero;stroke:none;stroke-miterlimit:4" /><path
   d="M 157.66748,189.94629 L 143.94092,189.94629 L 143.94092,233.69629 L 157.66748,233.69629 L 157.66748,189.94629 z"
   id="path7018"
   style="fill:#ffffff;fill-rule:nonzero;stroke:none;stroke-miterlimit:4" /><g
   id="g7020"
   style="fill-rule:nonzero;stroke:#000000;stroke-miterlimit:4">
			<path
   d="M 150.85693,218.51465 C 152.21826,218.5625 153.27881,219.4082 154.03467,221.05176 C 154.79248,222.69531 155.17139,224.9668 155.17139,227.86719 C 155.17139,230.7832 154.78662,233.07324 154.01709,234.7373 C 153.24756,236.40137 152.18701,237.2334 150.8335,237.2334 C 149.47217,237.2334 148.40771,236.40332 147.63818,234.74316 C 146.86865,233.08301 146.48389,230.79199 146.48389,227.86816 C 146.48389,225.30566 146.78076,223.22754 147.37256,221.63184 C 147.96436,220.03711 148.81006,219.0498 149.90576,218.67188 C 149.7124,218.20508 149.47803,217.87012 149.20459,217.66504 C 148.93115,217.45996 148.57764,217.3584 148.14209,217.3584 L 147.87646,217.3584 L 147.87646,214.38965 L 148.03271,214.38965 C 148.7085,214.38965 149.27686,214.72168 149.73584,215.38379 C 150.19482,216.04785 150.56787,217.09082 150.85693,218.51465 L 150.85693,218.51465 z M 150.8335,219.9834 C 150.14209,219.9834 149.63037,220.63086 149.29639,221.92676 C 148.9624,223.22266 148.79639,225.20313 148.79639,227.86816 C 148.79639,230.54004 148.9624,232.52441 149.29639,233.81934 C 149.63037,235.11621 150.14209,235.76465 150.8335,235.76465 C 151.51709,235.76465 152.0249,235.11035 152.35889,233.80176 C 152.69287,232.49316 152.85889,230.51563 152.85889,227.86816 C 152.85889,225.22754 152.69287,223.25293 152.35889,221.94434 C 152.0249,220.63672 151.51709,219.9834 150.8335,219.9834 L 150.8335,219.9834 z"
   id="path7022"
   style="fill:#e61408;stroke:none" />
		</g><g
   id="g7024"
   style="fill-rule:nonzero;stroke:#000000;stroke-miterlimit:4">
			<path
   d="M 16.032227,24.84375 C 14.670898,24.79541 13.611328,23.949707 12.854492,22.306152 C 12.09668,20.662598 11.71875,18.391113 11.71875,15.490723 C 11.71875,12.574707 12.102539,10.284668 12.87207,8.6206054 C 13.641602,6.9570313 14.703125,6.125 16.056641,6.125 C 17.417969,6.125 18.483398,6.9550781 19.25293,8.6147461 C 20.021484,10.274414 20.40625,12.566406 20.40625,15.490234 C 20.40625,18.052246 20.110352,20.130859 19.517578,21.725586 C 18.924805,23.320801 18.081055,24.307617 16.985352,24.686035 C 17.177734,25.152832 17.411133,25.488281 17.68457,25.693359 C 17.958008,25.897461 18.313477,26 18.74707,26 L 19.013672,26 L 19.013672,28.96875 L 18.856445,28.96875 C 18.180664,28.96875 17.613281,28.636719 17.155273,27.974121 C 16.696289,27.310547 16.321289,26.26709 16.032227,24.84375 L 16.032227,24.84375 z M 16.056641,23.375 C 16.74707,23.375 17.259766,22.727051 17.592773,21.431152 C 17.926758,20.135254 18.09375,18.154785 18.09375,15.490234 C 18.09375,12.818359 17.926758,10.833984 17.592773,9.5380859 C 17.259766,8.2421875 16.74707,7.59375 16.056641,7.59375 C 15.373047,7.59375 14.864258,8.2480469 14.53125,9.5561523 C 14.198242,10.864258 14.03125,12.842285 14.03125,15.490234 C 14.03125,18.130859 14.198242,20.10498 14.53125,21.413086 C 14.864258,22.721191 15.373047,23.375 16.056641,23.375 z"
   id="path7026"
   style="fill:#e61408;stroke:none" />
		</g><g
   id="g7028"
   style="fill-rule:nonzero;stroke:#000000;stroke-miterlimit:4">
			<path
   d="M 11.821289,31.634277 C 11.823242,34.507813 15.426758,36.600586 16.480469,38.876953 C 17.545898,36.605957 21.15918,34.53125 21.176758,31.657715 C 21.18457,30.300781 20.135742,29.199707 18.84375,29.195801 C 17.551758,29.192871 16.50293,30.289062 16.499023,31.645996 C 16.50293,30.289062 15.458008,29.1875 14.166016,29.184082 C 12.874023,29.181152 11.823242,30.277344 11.821289,31.634277 L 11.821289,31.634277 z"
   id="path7030"
   style="fill:#e61408;stroke:none" />
		</g><g
   id="g7032"
   style="fill-rule:nonzero;stroke:#000000;stroke-miterlimit:4">
			<path
   d="M 155.19873,210.93164 C 155.19482,208.05762 151.59131,205.96484 150.53857,203.68848 C 149.47412,205.95996 145.85889,208.03418 145.84131,210.90723 C 145.8335,212.26465 146.88232,213.36621 148.17529,213.37012 C 149.46631,213.37207 150.51709,212.27637 150.51904,210.91895 C 150.51709,212.27637 151.56201,213.37793 152.85303,213.38184 C 154.146,213.38477 155.19482,212.28809 155.19873,210.93164 L 155.19873,210.93164 z"
   id="path7034"
   style="fill:#e61408;stroke:none" />
		</g>
</svg>