<?xml version="1.0" encoding="UTF-8" standalone="no"?>
<!-- Created with Inkscape (http://www.inkscape.org/) -->
<svg
   xmlns:svg="http://www.w3.org/2000/svg"
   xmlns="http://www.w3.org/2000/svg"
   version="1.0"
   width="167.08887pt"
   height="242.66748pt"
   viewBox="0 0 167.08887 242.66748"
   id="svg6417"
   xml:space="preserve"><defs
   id="defs6697">
		
		
		
		
		
		
		
		
		
		
		
		
		
		
		
	</defs>
	<path
   d="M 166.83887,235.54639 C 166.83887,239.32959 163.75195,242.41748 159.96875,242.41748 L 7.1113281,242.41748 C 3.3359375,242.41748 0.25,239.32959 0.25,235.54639 L 0.25,7.1191406 C 0.25,3.3447266 3.3359375,0.25 7.1113281,0.25 L 159.96875,0.25 C 163.75195,0.25 166.83887,3.3447266 166.83887,7.1191406 L 166.83887,235.54639 L 166.83887,235.54639 z"
   id="path6420"
   style="fill:#ffffff;fill-rule:nonzero;stroke:#000000;stroke-width:0.5;stroke-miterlimit:4" /><path
   d="M 159.53223,238.73193 L 7.762207,238.73193 L 7.762207,3.4169922 L 159.53223,3.4169922 L 159.53223,238.73193 L 159.53223,238.73193 z"
   id="path6422"
   style="fill:#ffffff;fill-rule:nonzero;stroke:#000000;stroke-width:1.5;stroke-linejoin:round;stroke-miterlimit:4" /><g
   id="g6648"
   style="fill-rule:nonzero;stroke:none;stroke-miterlimit:4">
			<path
   d="M 150.77637,40.12793 C 150.83301,39.943359 150.92969,39.785156 151.06543,39.652344 C 151.20117,39.520508 151.3916,39.402344 151.63574,39.297852 L 153.61328,38.442383 L 153.61328,37.728516 L 154.08203,37.728516 L 154.08203,39.114258 L 151.9668,40.030273 C 151.55566,40.205078 151.29004,40.366211 151.16992,40.512695 C 151.04883,40.65918 150.98828,40.859375 150.98828,41.114258 L 150.98828,41.991211 L 153.61328,41.991211 L 153.61328,41.163086 L 154.08203,41.163086 L 154.08203,43.538086 L 153.61328,43.538086 L 153.61328,42.788086 L 147.91016,42.788086 L 147.91016,43.538086 L 147.42578,43.538086 L 147.42578,40.563477 C 147.42578,39.992187 147.58105,39.550781 147.88965,39.239258 C 148.19824,38.928711 148.63672,38.772461 149.20313,38.772461 C 149.66113,38.772461 150.02148,38.886719 150.28418,39.113281 C 150.54688,39.339844 150.71094,39.677734 150.77637,40.12793 L 150.77637,40.12793 z M 150.50391,41.991211 L 150.50391,40.834961 C 150.50391,40.44043 150.39844,40.149414 150.1875,39.960938 C 149.97656,39.773438 149.64844,39.678711 149.20508,39.678711 C 148.76172,39.678711 148.43555,39.773438 148.22559,39.960938 C 148.01562,40.149414 147.91016,40.44043 147.91016,40.834961 L 147.91016,41.991211 L 150.50391,41.991211 L 150.50391,41.991211 z"
   id="path6650" />
			<path
   d="M 154.08203,37.956055 L 153.61328,37.956055 L 153.61328,37.445312 L 147.42578,35.351562 L 147.42578,34.691406 L 153.61328,32.59375 L 153.61328,32.018555 L 154.08203,32.018555 L 154.08203,34.151367 L 153.61328,34.151367 L 153.61328,33.5 L 152.14453,33.991211 L 152.14453,36.458984 L 153.61328,36.949219 L 153.61328,36.306641 L 154.08203,36.306641 L 154.08203,37.956055 z M 151.66016,36.297852 L 151.66016,34.142578 L 148.50293,35.222656 L 151.66016,36.297852 z"
   id="path6652" />
			<path
   d="M 152.31641,26.417969 C 152.93848,26.59082 153.4082,26.879883 153.72852,27.287109 C 154.04785,27.694336 154.20703,28.209961 154.20703,28.833984 C 154.20703,29.216797 154.13281,29.572266 153.98438,29.898438 C 153.83594,30.225586 153.61719,30.515625 153.3291,30.767578 C 152.99609,31.0625 152.61816,31.280273 152.19434,31.422852 C 151.77148,31.56543 151.29199,31.636719 150.75684,31.636719 C 149.72266,31.636719 148.8877,31.374023 148.25293,30.847656 C 147.61914,30.321289 147.30078,29.626953 147.30078,28.764648 C 147.30078,28.446289 147.34961,28.105469 147.44531,27.743164 C 147.54102,27.379883 147.68555,26.991211 147.87891,26.574219 L 149.41016,26.574219 L 149.41016,27.027344 C 148.85449,27.12207 148.44434,27.31543 148.18066,27.607422 C 147.91797,27.899414 147.78516,28.307617 147.78516,28.832031 C 147.78516,29.458008 148.03711,29.930664 148.53906,30.250977 C 149.04199,30.570312 149.78125,30.730469 150.75684,30.730469 C 151.72949,30.730469 152.4668,30.570312 152.96875,30.25 C 153.47168,29.928711 153.72266,29.455078 153.72266,28.829102 C 153.72266,28.392578 153.60547,28.033203 153.37109,27.750977 C 153.13574,27.469727 152.78418,27.264648 152.31641,27.136719 L 152.31641,26.417969 L 152.31641,26.417969 z"
   id="path6654" />
			<path
   d="M 154.08203,25.487305 L 153.61328,25.487305 L 153.61328,24.737305 L 147.91016,24.737305 L 147.91016,25.487305 L 147.42578,25.487305 L 147.42578,23.19043 L 147.91016,23.19043 L 147.91016,23.94043 L 150.19141,23.94043 L 150.19141,20.893555 L 147.91016,20.893555 L 147.91016,21.643555 L 147.42578,21.643555 L 147.42578,19.34668 L 147.91016,19.34668 L 147.91016,20.09668 L 153.61328,20.09668 L 153.61328,19.34668 L 154.08203,19.34668 L 154.08203,21.643555 L 153.61328,21.643555 L 153.61328,20.893555 L 150.73828,20.893555 L 150.73828,23.94043 L 153.61328,23.94043 L 153.61328,23.19043 L 154.08203,23.19043 L 154.08203,25.487305 z"
   id="path6656" />
			<path
   d="M 154.08203,18.459961 L 153.61328,18.459961 L 153.61328,17.709961 L 147.91016,17.709961 L 147.91016,18.459961 L 147.42578,18.459961 L 147.42578,13.725586 L 148.91016,13.725586 L 148.91016,14.209961 L 147.97266,14.209961 L 147.97266,16.913086 L 150.19141,16.913086 L 150.19141,14.975586 L 149.36328,14.975586 L 149.36328,14.491211 L 151.56641,14.491211 L 151.56641,14.975586 L 150.73828,14.975586 L 150.73828,16.913086 L 153.53516,16.913086 L 153.53516,14.147461 L 152.59766,14.147461 L 152.59766,13.663086 L 154.08203,13.663086 L 154.08203,18.459961 z"
   id="path6658" />
			<path
   d="M 154.08203,12.578125 L 153.61328,12.578125 L 153.61328,11.828125 L 147.91016,11.828125 L 147.91016,12.578125 L 147.42578,12.578125 L 147.42578,10.28125 L 147.91016,10.28125 L 147.91016,11.03125 L 153.53516,11.03125 L 153.53516,8.34375 L 152.42578,8.34375 L 152.42578,7.859375 L 154.08203,7.859375 L 154.08203,12.578125 L 154.08203,12.578125 z"
   id="path6660" />
		</g><g
   id="g6662"
   style="fill-rule:nonzero;stroke:none;stroke-miterlimit:4">
			<path
   d="M 16.125,201.92529 C 16.068359,202.10889 15.97168,202.26709 15.835938,202.3999 C 15.700195,202.53271 15.509766,202.6499 15.265625,202.75537 L 13.287598,203.61084 L 13.287598,204.32373 L 12.818848,204.32373 L 12.818848,202.93897 L 14.93457,202.02295 C 15.345703,201.84717 15.611328,201.68701 15.731445,201.54053 C 15.852539,201.39404 15.912598,201.19287 15.912598,200.93897 L 15.912598,200.06201 L 13.287598,200.06201 L 13.287598,200.89014 L 12.818848,200.89014 L 12.818848,198.51514 L 13.287598,198.51514 L 13.287598,199.26514 L 18.990723,199.26514 L 18.990723,198.51514 L 19.475098,198.51514 L 19.475098,201.48975 C 19.475098,202.06006 19.320312,202.50147 19.011719,202.81397 C 18.703125,203.12451 18.264648,203.28076 17.697754,203.28076 C 17.240234,203.28076 16.879883,203.16553 16.617188,202.93897 C 16.354492,202.7124 16.19043,202.37451 16.125,201.92529 L 16.125,201.92529 z M 16.396973,200.06201 L 16.396973,201.21826 C 16.396973,201.61279 16.502442,201.90381 16.713867,202.09131 C 16.925293,202.27881 17.25293,202.37451 17.696289,202.37451 C 18.139648,202.37451 18.46582,202.27881 18.675781,202.09131 C 18.885742,201.90381 18.990723,201.61279 18.990723,201.21826 L 18.990723,200.06201 L 16.396973,200.06201 L 16.396973,200.06201 z"
   id="path6664" />
			<path
   d="M 12.818848,204.09717 L 13.287598,204.09717 L 13.287598,204.60693 L 19.475098,206.70068 L 19.475098,207.36084 L 13.287598,209.4585 L 13.287598,210.03467 L 12.818848,210.03467 L 12.818848,207.90186 L 13.287598,207.90186 L 13.287598,208.55225 L 14.756348,208.06201 L 14.756348,205.59326 L 13.287598,205.10303 L 13.287598,205.74561 L 12.818848,205.74561 L 12.818848,204.09717 L 12.818848,204.09717 z M 15.240723,205.75537 L 15.240723,207.90967 L 18.398437,206.82959 L 15.240723,205.75537 L 15.240723,205.75537 z"
   id="path6666" />
			<path
   d="M 14.584473,215.63428 C 13.962891,215.4624 13.492676,215.17334 13.172852,214.76514 C 12.853516,214.35889 12.693848,213.84326 12.693848,213.21826 C 12.693848,212.83545 12.768555,212.47998 12.916992,212.15381 C 13.06543,211.82764 13.283691,211.53662 13.572266,211.28467 C 13.905273,210.98975 14.283203,210.77295 14.707031,210.63037 C 15.130371,210.48779 15.609375,210.41553 16.144531,210.41553 C 17.178711,210.41553 18.013672,210.6792 18.648438,211.20459 C 19.282715,211.73193 19.600098,212.42529 19.600098,213.28857 C 19.600098,213.60693 19.552246,213.94678 19.456543,214.31006 C 19.36084,214.67334 19.21582,215.06201 19.021973,215.47803 L 17.490723,215.47803 L 17.490723,215.0249 C 18.046875,214.93115 18.457031,214.73779 18.720703,214.44482 C 18.983887,214.15381 19.115723,213.74561 19.115723,213.22021 C 19.115723,212.59521 18.864258,212.12256 18.361816,211.80225 C 17.859375,211.48193 17.120117,211.32178 16.144531,211.32178 C 15.171875,211.32178 14.43457,211.48193 13.932129,211.80225 C 13.429688,212.12451 13.178223,212.59717 13.178223,213.22412 C 13.178223,213.65967 13.295898,214.01904 13.530762,214.30225 C 13.765625,214.5835 14.117188,214.78857 14.584473,214.91553 L 14.584473,215.63428 L 14.584473,215.63428 z"
   id="path6668" />
			<path
   d="M 12.818848,216.56592 L 13.287598,216.56592 L 13.287598,217.31592 L 18.990723,217.31592 L 18.990723,216.56592 L 19.475098,216.56592 L 19.475098,218.86279 L 18.990723,218.86279 L 18.990723,218.11279 L 16.709473,218.11279 L 16.709473,221.15967 L 18.990723,221.15967 L 18.990723,220.40967 L 19.475098,220.40967 L 19.475098,222.70654 L 18.990723,222.70654 L 18.990723,221.95654 L 13.287598,221.95654 L 13.287598,222.70654 L 12.818848,222.70654 L 12.818848,220.40967 L 13.287598,220.40967 L 13.287598,221.15967 L 16.162598,221.15967 L 16.162598,218.11279 L 13.287598,218.11279 L 13.287598,218.86279 L 12.818848,218.86279 L 12.818848,216.56592 z"
   id="path6670" />
			<path
   d="M 12.818848,223.59326 L 13.287598,223.59326 L 13.287598,224.34326 L 18.990723,224.34326 L 18.990723,223.59326 L 19.475098,223.59326 L 19.475098,228.32764 L 17.990723,228.32764 L 17.990723,227.84326 L 18.928223,227.84326 L 18.928223,225.14014 L 16.709473,225.14014 L 16.709473,227.07764 L 17.537598,227.07764 L 17.537598,227.56201 L 15.334473,227.56201 L 15.334473,227.07764 L 16.162598,227.07764 L 16.162598,225.14014 L 13.365723,225.14014 L 13.365723,227.90576 L 14.303223,227.90576 L 14.303223,228.39014 L 12.818848,228.39014 L 12.818848,223.59326 z"
   id="path6672" />
			<path
   d="M 12.818848,229.47412 L 13.287598,229.47412 L 13.287598,230.22412 L 18.990723,230.22412 L 18.990723,229.47412 L 19.475098,229.47412 L 19.475098,231.771 L 18.990723,231.771 L 18.990723,231.021 L 13.365723,231.021 L 13.365723,233.7085 L 14.475098,233.7085 L 14.475098,234.19287 L 12.818848,234.19287 L 12.818848,229.47412 z"
   id="path6674" />
		</g><path
   d="M 33.56543,29.589844 L 13.74707,29.589844 C 13.74707,29.589844 16.843262,30.219727 25.51416,22.019531 C 34.185058,13.818359 33.56543,9.4023438 33.56543,9.4023438 M 13.74707,29.589844 C 13.74707,29.589844 18.082031,28.958984 26.133301,37.791016 C 34.18457,46.62207 33.56543,49.776367 33.56543,49.776367 L 33.56543,29.589844 M 33.56543,49.776367 C 33.56543,49.776367 32.946289,45.360352 41.617188,37.160156 C 50.288086,28.958984 53.384277,29.589844 53.384277,29.589844 L 33.56543,29.589844 M 53.384277,29.589844 C 53.384277,29.589844 49.048828,30.220703 40.998047,21.388672 C 32.946777,12.556641 33.56543,9.4023438 33.56543,9.4023438 L 33.56543,29.589844"
   id="path6676"
   style="fill:#e61408;fill-rule:nonzero;stroke:none;stroke-miterlimit:4" /><path
   d="M 133.42578,213.14014 L 153.24512,213.14014 C 153.24512,213.14014 150.14844,212.50928 141.47754,220.71045 C 132.80664,228.91162 133.42578,233.32764 133.42578,233.32764 M 153.24512,213.14014 C 153.24512,213.14014 148.91016,213.771 140.8584,204.93896 C 132.80664,196.10693 133.42578,192.95264 133.42578,192.95264 L 133.42578,213.14014 M 133.42578,192.95264 C 133.42578,192.95264 134.04492,197.36865 125.375,205.56982 C 116.7041,213.771 113.60742,213.14014 113.60742,213.14014 L 133.42578,213.14014 M 113.60742,213.14014 C 113.60742,213.14014 117.94336,212.50928 125.99414,221.34131 C 134.04492,230.17334 133.42578,233.32764 133.42578,233.32764 L 133.42578,213.14014"
   id="path6678"
   style="fill:#e61408;fill-rule:nonzero;stroke:none;stroke-miterlimit:4" /><path
   d="M 8.934082,50.78125 L 21.541016,50.78125 L 21.541016,7.03125 L 8.934082,7.03125 L 8.934082,50.78125 z"
   id="path6680"
   style="fill:#ffffff;fill-rule:nonzero;stroke:none;stroke-miterlimit:4" /><path
   d="M 157.02441,191.4585 L 144.99121,191.4585 L 144.99121,235.2085 L 157.02441,235.2085 L 157.02441,191.4585 z"
   id="path6682"
   style="fill:#ffffff;fill-rule:nonzero;stroke:none;stroke-miterlimit:4" /><g
   id="g6684"
   style="fill-rule:nonzero;stroke:#000000;stroke-miterlimit:4">
			<path
   d="M 150.85742,218.51318 C 152.21875,218.56201 153.27832,219.40771 154.03516,221.05029 C 154.79297,222.69482 155.1709,224.96631 155.1709,227.8667 C 155.1709,230.78271 154.78711,233.07178 154.01758,234.73584 C 153.24805,236.3999 152.18652,237.23193 150.83301,237.23193 C 149.47168,237.23193 148.40625,236.40186 147.63672,234.7417 C 146.86816,233.0835 146.4834,230.79053 146.4834,227.8667 C 146.4834,225.3042 146.7793,223.22607 147.37207,221.63232 C 147.96484,220.03662 148.80859,219.05029 149.9043,218.67139 C 149.71191,218.20459 149.47852,217.86865 149.20508,217.66357 C 148.93164,217.46045 148.57617,217.35693 148.14258,217.35693 L 147.87598,217.35693 L 147.87598,214.38818 L 148.0332,214.38818 C 148.70898,214.38818 149.27637,214.72021 149.73438,215.38232 C 150.19336,216.04639 150.56836,217.08936 150.85742,218.51318 L 150.85742,218.51318 z M 150.83301,219.98193 C 150.14258,219.98193 149.62988,220.63037 149.29688,221.92529 C 148.96289,223.22217 148.7959,225.20264 148.7959,227.8667 C 148.7959,230.53857 148.96289,232.52295 149.29688,233.81982 C 149.62988,235.11475 150.14258,235.76318 150.83301,235.76318 C 151.5166,235.76318 152.02539,235.10889 152.3584,233.80029 C 152.69141,232.49365 152.8584,230.51514 152.8584,227.8667 C 152.8584,225.22607 152.69141,223.25146 152.3584,221.94482 C 152.02539,220.63623 151.5166,219.98193 150.83301,219.98193 L 150.83301,219.98193 z"
   id="path6686"
   style="fill:#e61408;stroke:none" />
		</g><g
   id="g6688"
   style="fill-rule:nonzero;stroke:#000000;stroke-miterlimit:4">
			<path
   d="M 15.921875,24.451172 C 14.560547,24.402344 13.500977,23.556641 12.744141,21.914063 C 11.986816,20.269531 11.608398,17.998047 11.608398,15.097656 C 11.608398,12.181641 11.992676,9.8925781 12.762207,8.2285156 C 13.53125,6.5644531 14.592773,5.7324218 15.946289,5.7324218 C 17.307617,5.7324218 18.372558,6.5624999 19.14209,8.2226562 C 19.911133,9.8818359 20.295898,12.173828 20.295898,15.097656 C 20.295898,17.660156 19.999512,19.738281 19.407227,21.333008 C 18.814453,22.927734 17.970215,23.915039 16.874512,24.292969 C 17.067383,24.759766 17.300781,25.095703 17.574707,25.300781 C 17.848145,25.504883 18.202637,25.607422 18.637207,25.607422 L 18.90332,25.607422 L 18.90332,28.576172 L 18.746094,28.576172 C 18.070312,28.576172 17.50293,28.244141 17.044434,27.582031 C 16.585449,26.917969 16.211426,25.875 15.921875,24.451172 L 15.921875,24.451172 z M 15.946289,22.982422 C 16.637207,22.982422 17.149414,22.333984 17.48291,21.039062 C 17.816406,19.742187 17.983398,17.761719 17.983398,15.097656 C 17.983398,12.425781 17.816406,10.441406 17.48291,9.1455078 C 17.149414,7.8496094 16.637207,7.2011719 15.946289,7.2011719 C 15.262695,7.2011719 14.754395,7.8554688 14.420898,9.1640625 C 14.087402,10.47168 13.920898,12.449219 13.920898,15.097656 C 13.920898,17.738281 14.087402,19.712891 14.420898,21.020508 C 14.754395,22.328125 15.262695,22.982422 15.946289,22.982422 L 15.946289,22.982422 z"
   id="path6690"
   style="fill:#e61408;stroke:none" />
		</g><path
   d="M 16.306152,34.169922 L 11.26416,34.169922 C 11.26416,34.169922 12.051758,34.332031 14.257812,32.214844 C 16.463867,30.097656 16.306152,28.958008 16.306152,28.958008 M 11.26416,34.169922 C 11.26416,34.169922 12.367188,34.005859 14.415527,36.287109 C 16.463379,38.566406 16.306152,39.380859 16.306152,39.380859 L 16.306152,34.169922 M 16.306152,39.380859 C 16.306152,39.380859 16.148438,38.240234 18.354492,36.123047 C 20.560547,34.006836 21.348144,34.169922 21.348144,34.169922 L 16.306152,34.169922 M 21.348144,34.169922 C 21.348144,34.169922 20.245117,34.332031 18.196777,32.052734 C 16.148437,29.771484 16.306152,28.958008 16.306152,28.958008 L 16.306152,34.169922"
   id="path6692"
   style="fill:#e61408;fill-rule:nonzero;stroke:none;stroke-miterlimit:4" /><path
   d="M 150.73437,208.25342 L 155.77734,208.25342 C 155.77734,208.25342 154.98926,208.08936 152.7832,210.20654 C 150.57813,212.32373 150.73438,213.46436 150.73438,213.46436 M 155.77734,208.25342 C 155.77734,208.25342 154.67383,208.41553 152.62598,206.13623 C 150.57812,203.85498 150.73438,203.04053 150.73438,203.04053 L 150.73438,208.25342 M 150.73437,203.04053 C 150.73437,203.04053 150.89258,204.18115 148.6875,206.29834 C 146.48047,208.41553 145.69336,208.25342 145.69336,208.25342 L 150.73437,208.25342 M 145.69336,208.25342 C 145.69336,208.25342 146.7959,208.08936 148.84375,210.37061 C 150.89258,212.6499 150.73438,213.46436 150.73438,213.46436 L 150.73438,208.25342"
   id="path6694"
   style="fill:#e61408;fill-rule:nonzero;stroke:none;stroke-miterlimit:4" />
</svg>