<?xml version="1.0" encoding="UTF-8" standalone="no"?>
<!-- Created with Inkscape (http://www.inkscape.org/) -->
<svg
   xmlns:svg="http://www.w3.org/2000/svg"
   xmlns="http://www.w3.org/2000/svg"
   version="1.0"
   width="167.08887pt"
   height="242.66699pt"
   viewBox="0 0 167.08887 242.66699"
   id="svg7043"
   xml:space="preserve"><defs
   id="defs7375">
		
		
		
		
		
		
		
		
		
		
		
		
		
		
		
		
	</defs>
	<g
   id="g7046"
   style="fill-rule:nonzero;stroke:#000000;stroke-miterlimit:4">
			<path
   d="M 166.72852,235.44238 C 166.72852,239.22656 163.64258,242.31348 159.8584,242.31348 L 7.0004883,242.31348 C 3.225586,242.31348 0.1396485,239.22656 0.1396485,235.44238 L 0.1396485,7.015625 C 0.1396485,3.2407227 3.225586,0.1455078 7.0004883,0.1455078 L 159.8584,0.1455078 C 163.64258,0.1455078 166.72852,3.2407226 166.72852,7.015625 L 166.72852,235.44238 L 166.72852,235.44238 z"
   id="path7048"
   style="fill:#ffffff;stroke-width:0.025" />
		</g><path
   d="M 166.83887,235.54785 C 166.83887,239.33105 163.75195,242.41699 159.96875,242.41699 L 7.1113281,242.41699 C 3.3364258,242.41699 0.25,239.33105 0.25,235.54785 L 0.25,7.1196289 C 0.25,3.3452148 3.3364258,0.25 7.1113281,0.25 L 159.96875,0.25 C 163.75195,0.25 166.83887,3.3452148 166.83887,7.1196289 L 166.83887,235.54785 L 166.83887,235.54785 z"
   id="path7050"
   style="fill:#ffffff;fill-rule:nonzero;stroke:#000000;stroke-width:0.5;stroke-miterlimit:4" /><path
   d="M 158.5791,239.79687 L 9.2407227,239.79687 L 9.2407227,4.0249023 L 158.5791,4.0249023 L 158.5791,239.79687 L 158.5791,239.79687 z"
   id="path7052"
   style="fill:#ffffff;fill-rule:nonzero;stroke:#000000;stroke-width:1.5;stroke-linejoin:round;stroke-miterlimit:4" /><g
   id="g7302"
   style="fill-rule:nonzero;stroke:none;stroke-miterlimit:4">
			<g
   id="g7304">
				<path
   d="M 44.345215,51.309082 C 39.989746,51.313476 37.69873,46.668457 36.496094,42.024902 C 35.293945,37.378906 35.180176,32.731934 35.180176,32.731934 L 32.957519,32.709473 C 32.957519,32.709473 32.541016,51.296875 23.830566,51.304687 L 44.345215,51.309082 L 44.345215,51.309082 z"
   id="path7306" />
			</g>
			<path
   d="M 51.71582,32.728027 C 51.677246,23.660644 38.104004,17.084961 34.117187,9.909668 C 30.133789,17.084961 16.55957,23.660645 16.521484,32.728027 C 16.503906,37.008789 20.460449,40.476563 25.320312,40.476563 C 30.179199,40.476563 34.117187,37.008789 34.117187,32.728027 C 34.117187,37.008789 38.058105,40.476563 42.91748,40.476563 C 47.776855,40.476563 51.71582,37.008789 51.71582,32.728027 L 51.71582,32.728027 z"
   id="path7308" />
		</g><g
   id="g7310"
   style="fill-rule:nonzero;stroke:none;stroke-miterlimit:4">
			<g
   id="g7312">
				<path
   d="M 123.2002,191.45996 C 127.55469,191.45508 129.84668,196.10059 131.04883,200.74316 C 132.25098,205.38965 132.36523,210.03613 132.36523,210.03613 L 134.58789,210.05957 C 134.58789,210.05957 135.00391,191.47168 143.71484,191.46387 L 123.2002,191.45996 L 123.2002,191.45996 z"
   id="path7314" />
			</g>
			<path
   d="M 115.8291,210.04102 C 115.86816,219.1084 129.44141,225.68359 133.42773,232.8584 C 137.41211,225.68359 150.98535,219.1084 151.02344,210.04102 C 151.04102,205.75977 147.08398,202.29199 142.22461,202.29199 C 137.36621,202.29199 133.42773,205.75977 133.42773,210.04102 C 133.42773,205.75977 129.48633,202.29199 124.62793,202.29199 C 119.76758,202.29199 115.8291,205.75977 115.8291,210.04102 z"
   id="path7316" />
		</g><g
   id="g7318"
   style="fill-rule:nonzero;stroke:none;stroke-miterlimit:4">
			<path
   d="M 154.08984,38.638184 L 153.62109,38.638184 L 153.62109,37.888184 L 147.91797,37.888184 L 147.91797,38.638184 L 147.43359,38.638184 L 147.43359,35.864258 C 147.43359,35.274414 147.60352,34.807617 147.94141,34.464844 C 148.2793,34.12207 148.73438,33.950684 149.30859,33.950684 C 149.88086,33.950684 150.33594,34.12207 150.67578,34.464844 C 151.01465,34.807617 151.18359,35.274414 151.18359,35.864258 L 151.18359,37.091309 L 153.62109,37.091309 L 153.62109,36.185059 L 154.08984,36.185059 L 154.08984,38.638184 z M 150.69922,37.091309 L 150.69922,36.056152 C 150.69922,35.666992 150.58008,35.369629 150.3418,35.164551 C 150.10352,34.959473 149.75977,34.856934 149.30859,34.856934 C 148.85547,34.856934 148.51074,34.959473 148.27344,35.164551 C 148.03711,35.369629 147.91797,35.666992 147.91797,36.056152 L 147.91797,37.091309 L 150.69922,37.091309 L 150.69922,37.091309 z"
   id="path7320" />
			<path
   d="M 154.08984,34.440918 L 153.62109,34.440918 L 153.62109,33.929688 L 147.43359,31.836914 L 147.43359,31.17627 L 153.62109,29.079102 L 153.62109,28.503418 L 154.08984,28.503418 L 154.08984,30.63623 L 153.62109,30.63623 L 153.62109,29.984863 L 152.15234,30.475586 L 152.15234,32.943359 L 153.62109,33.43457 L 153.62109,32.791992 L 154.08984,32.791992 L 154.08984,34.440918 L 154.08984,34.440918 z M 151.66797,32.782715 L 151.66797,30.627441 L 148.51074,31.70752 L 151.66797,32.782715 z"
   id="path7322" />
			<path
   d="M 154.08984,28.137207 L 153.62109,28.137207 L 153.62109,27.387207 L 147.91797,27.387207 L 147.91797,28.137207 L 147.43359,28.137207 L 147.43359,25.840332 L 147.91797,25.840332 L 147.91797,26.590332 L 153.54297,26.590332 L 153.54297,23.902832 L 152.43359,23.902832 L 152.43359,23.418457 L 154.08984,23.418457 L 154.08984,28.137207 z"
   id="path7324" />
			<path
   d="M 154.08984,22.786621 L 153.62109,22.786621 L 153.62109,22.036621 L 147.91797,22.036621 L 147.91797,22.786621 L 147.43359,22.786621 L 147.43359,20.489746 L 147.91797,20.489746 L 147.91797,21.239746 L 153.54297,21.239746 L 153.54297,18.552246 L 152.43359,18.552246 L 152.43359,18.067871 L 154.08984,18.067871 L 154.08984,22.786621 z"
   id="path7326" />
			<path
   d="M 154.08984,17.919922 L 153.62109,17.919922 L 153.62109,17.40918 L 147.43359,15.315918 L 147.43359,14.655762 L 153.62109,12.558105 L 153.62109,11.982422 L 154.08984,11.982422 L 154.08984,14.115723 L 153.62109,14.115723 L 153.62109,13.464355 L 152.15234,13.955078 L 152.15234,16.422852 L 153.62109,16.913574 L 153.62109,16.270996 L 154.08984,16.270996 L 154.08984,17.919922 z M 151.66797,16.262207 L 151.66797,14.106934 L 148.51074,15.186523 L 151.66797,16.262207 L 151.66797,16.262207 z"
   id="path7328" />
			<path
   d="M 153.76172,11.304199 L 152.24609,11.304199 L 152.25098,10.851074 C 152.75488,10.836426 153.12695,10.708008 153.36914,10.465332 C 153.61035,10.223145 153.73047,9.8520507 153.73047,9.352539 C 153.73047,8.8886718 153.62695,8.5351562 153.41797,8.2929687 C 153.20898,8.0507812 152.9043,7.9291992 152.50391,7.9291992 C 152.18359,7.9291992 151.9375,8.0029297 151.76562,8.149414 C 151.59375,8.2963867 151.42578,8.6088867 151.2627,9.0864257 L 151,9.855957 C 150.80664,10.416992 150.56641,10.811523 150.27832,11.040039 C 149.99023,11.268555 149.59473,11.382324 149.0918,11.382324 C 148.52734,11.382324 148.08984,11.205566 147.77734,10.852051 C 147.46484,10.498535 147.30859,10.002441 147.30859,9.3637695 C 147.30859,9.090332 147.34277,8.7915039 147.40918,8.4677734 C 147.47559,8.1440429 147.57227,7.7978515 147.69922,7.4291992 L 149.12109,7.4291992 L 149.12109,7.8823242 C 148.6543,7.9267578 148.31543,8.0649414 148.10645,8.2958984 C 147.89844,8.5273437 147.79297,8.8784179 147.79297,9.3496093 C 147.79297,9.7646484 147.88867,10.07959 148.08008,10.294434 C 148.27148,10.509277 148.54883,10.616699 148.91406,10.616699 C 149.23145,10.616699 149.48047,10.536133 149.66113,10.374512 C 149.8418,10.212891 150.02148,9.8696288 150.19922,9.3442382 L 150.44336,8.6191405 C 150.625,8.0849608 150.85645,7.7036132 151.13672,7.4750975 C 151.41797,7.2465819 151.79492,7.1323241 152.26758,7.1323241 C 152.91211,7.1323241 153.39844,7.314453 153.72461,7.6777343 C 154.05176,8.0415038 154.21484,8.5839843 154.21484,9.3051757 C 154.21484,9.6259765 154.17773,9.9531249 154.10352,10.287109 C 154.02832,10.621094 153.91504,10.959961 153.76172,11.304199 L 153.76172,11.304199 z"
   id="path7330" />
		</g><g
   id="g7332"
   style="fill-rule:nonzero;stroke:none;stroke-miterlimit:4">
			<path
   d="M 12.827148,206.41895 L 13.295898,206.41895 L 13.295898,207.16895 L 18.999023,207.16895 L 18.999023,206.41895 L 19.483398,206.41895 L 19.483398,209.19336 C 19.483398,209.78418 19.314453,210.25 18.976562,210.59277 C 18.638672,210.93555 18.182617,211.10645 17.608398,211.10645 C 17.037109,211.10645 16.581543,210.93555 16.242188,210.59277 C 15.902832,210.25 15.733398,209.78418 15.733398,209.19336 L 15.733398,207.96582 L 13.295898,207.96582 L 13.295898,208.87207 L 12.827148,208.87207 L 12.827148,206.41895 L 12.827148,206.41895 z M 16.217773,207.96582 L 16.217773,209.00195 C 16.217773,209.3916 16.336914,209.68848 16.575195,209.89355 C 16.813477,210.09863 17.158203,210.2002 17.608398,210.2002 C 18.061523,210.2002 18.40625,210.09863 18.643555,209.89355 C 18.880371,209.68848 18.999024,209.3916 18.999024,209.00195 L 18.999024,207.96582 L 16.217774,207.96582 L 16.217773,207.96582 z"
   id="path7334" />
			<path
   d="M 12.827148,210.61719 L 13.295898,210.61719 L 13.295898,211.12793 L 19.483398,213.22168 L 19.483398,213.88184 L 13.295898,215.97949 L 13.295898,216.55469 L 12.827148,216.55469 L 12.827148,214.4209 L 13.295898,214.4209 L 13.295898,215.07324 L 14.764648,214.58203 L 14.764648,212.11426 L 13.295898,211.62402 L 13.295898,212.2666 L 12.827148,212.2666 L 12.827148,210.61719 L 12.827148,210.61719 z M 15.249023,212.27441 L 15.249023,214.43066 L 18.407226,213.35059 L 15.249023,212.27441 z"
   id="path7336" />
			<path
   d="M 12.827148,216.9209 L 13.295898,216.9209 L 13.295898,217.6709 L 18.999023,217.6709 L 18.999023,216.9209 L 19.483398,216.9209 L 19.483398,219.21777 L 18.999023,219.21777 L 18.999023,218.46777 L 13.374023,218.46777 L 13.374023,221.15527 L 14.483398,221.15527 L 14.483398,221.63965 L 12.827148,221.63965 L 12.827148,216.9209 z"
   id="path7338" />
			<path
   d="M 12.827148,222.27148 L 13.295898,222.27148 L 13.295898,223.02148 L 18.999023,223.02148 L 18.999023,222.27148 L 19.483398,222.27148 L 19.483398,224.56836 L 18.999023,224.56836 L 18.999023,223.81836 L 13.374023,223.81836 L 13.374023,226.50586 L 14.483398,226.50586 L 14.483398,226.99023 L 12.827148,226.99023 L 12.827148,222.27148 z"
   id="path7340" />
			<path
   d="M 12.827148,227.1377 L 13.295898,227.1377 L 13.295898,227.64941 L 19.483398,229.74121 L 19.483398,230.40234 L 13.295898,232.49902 L 13.295898,233.0752 L 12.827148,233.0752 L 12.827148,230.94238 L 13.295898,230.94238 L 13.295898,231.59375 L 14.764648,231.10254 L 14.764648,228.63574 L 13.295898,228.14355 L 13.295898,228.78613 L 12.827148,228.78613 L 12.827148,227.1377 L 12.827148,227.1377 z M 15.249023,228.7959 L 15.249023,230.95117 L 18.407226,229.87109 L 15.249023,228.7959 z"
   id="path7342" />
			<path
   d="M 13.155273,233.75293 L 14.670898,233.75293 L 14.666504,234.20605 C 14.162598,234.22168 13.790039,234.35059 13.548828,234.59277 C 13.307129,234.83496 13.186523,235.20605 13.186523,235.70605 C 13.186523,236.16895 13.291016,236.52246 13.5,236.76465 C 13.708984,237.00684 14.013672,237.12793 14.414062,237.12793 C 14.734375,237.12793 14.980469,237.05566 15.152344,236.90918 C 15.324219,236.76074 15.491699,236.44922 15.654785,235.97168 L 15.916992,235.20215 C 16.110352,234.6416 16.351074,234.24707 16.639648,234.01855 C 16.927734,233.79004 17.322754,233.6748 17.825195,233.6748 C 18.389648,233.6748 18.828125,233.85254 19.140137,234.20605 C 19.452148,234.55957 19.608398,235.05566 19.608398,235.69434 C 19.608398,235.96777 19.575195,236.2666 19.508789,236.59082 C 19.441895,236.91309 19.344727,237.26074 19.217773,237.62793 L 17.795898,237.62793 L 17.795898,237.1748 C 18.263672,237.13184 18.602051,236.99316 18.810547,236.7627 C 19.019531,236.53027 19.124023,236.17871 19.124023,235.70801 C 19.124023,235.29395 19.02832,234.97754 18.836914,234.7627 C 18.645996,234.54785 18.368164,234.44043 18.003418,234.44043 C 17.686523,234.44043 17.4375,234.52246 17.256836,234.68359 C 17.075684,234.84473 16.896484,235.18848 16.71875,235.71387 L 16.473633,236.43848 C 16.292481,236.97363 16.061523,237.35449 15.780273,237.58301 C 15.5,237.81152 15.123047,237.92481 14.650391,237.92481 C 14.005371,237.92481 13.519531,237.74316 13.192383,237.37988 C 12.865234,237.0166 12.702148,236.47363 12.702148,235.75293 C 12.702148,235.43262 12.739746,235.10449 12.814453,234.77051 C 12.888672,234.43652 13.00293,234.09863 13.155273,233.75293 L 13.155273,233.75293 z"
   id="path7344" />
		</g><path
   d="M 156.00391,189.73926 L 143.89453,189.73926 L 143.89453,233.48926 L 156.00391,233.48926 L 156.00391,189.73926 z"
   id="path7346"
   style="fill:#ffffff;fill-rule:nonzero;stroke:none;stroke-miterlimit:4" /><path
   d="M 11.731934,52.141113 L 22.153809,52.141113 L 22.153809,8.390625 L 11.731934,8.390625 L 11.731934,52.141113 L 11.731934,52.141113 z"
   id="path7348"
   style="fill:#ffffff;fill-rule:nonzero;stroke:none;stroke-miterlimit:4" /><g
   id="g7350"
   style="fill-rule:nonzero;stroke:#000000;stroke-miterlimit:4">
			<path
   d="M 15.921875,24.51123 C 14.560547,24.462891 13.500977,23.617188 12.744141,21.973633 C 11.986816,20.330078 11.608398,18.058594 11.608398,15.158203 C 11.608398,12.242188 11.992676,9.9521484 12.762207,8.2880859 C 13.53125,6.6245117 14.592773,5.7924804 15.946289,5.7924804 C 17.307617,5.7924804 18.372558,6.6225585 19.14209,8.2822265 C 19.911133,9.9418945 20.295898,12.233887 20.295898,15.157715 C 20.295898,17.719727 19.999512,19.79834 19.407227,21.393066 C 18.814453,22.988281 17.970215,23.975098 16.874512,24.353516 C 17.067383,24.820312 17.300781,25.155762 17.574707,25.36084 C 17.848145,25.564941 18.202637,25.66748 18.637207,25.66748 L 18.90332,25.66748 L 18.90332,28.63623 L 18.746094,28.63623 C 18.070312,28.63623 17.50293,28.304199 17.044434,27.641602 C 16.585449,26.978027 16.211426,25.93457 15.921875,24.51123 L 15.921875,24.51123 z M 15.946289,23.04248 C 16.637207,23.04248 17.149414,22.394531 17.48291,21.098633 C 17.816406,19.802734 17.983398,17.822266 17.983398,15.157715 C 17.983398,12.48584 17.816406,10.501465 17.48291,9.2055664 C 17.149414,7.909668 16.637207,7.2612305 15.946289,7.2612305 C 15.262695,7.2612305 14.754395,7.9155274 14.420898,9.2236328 C 14.087402,10.531738 13.920898,12.509766 13.920898,15.157715 C 13.920898,17.79834 14.087402,19.772461 14.420898,21.080566 C 14.754395,22.388672 15.262695,23.04248 15.946289,23.04248 z"
   id="path7352"
   style="stroke:none" />
		</g><g
   id="g7354"
   style="fill-rule:nonzero;stroke:#000000;stroke-miterlimit:4">
			<path
   d="M 150.85742,218.57324 C 152.21875,218.62207 153.27832,219.46777 154.03516,221.11133 C 154.79297,222.75488 155.1709,225.02637 155.1709,227.92676 C 155.1709,230.84277 154.78711,233.13281 154.01758,234.79688 C 153.24805,236.45996 152.18652,237.29199 150.83301,237.29199 C 149.47168,237.29199 148.40625,236.46191 147.63672,234.80273 C 146.86816,233.14355 146.4834,230.85059 146.4834,227.92676 C 146.4834,225.36523 146.7793,223.28613 147.37207,221.69238 C 147.96484,220.09668 148.80859,219.11035 149.9043,218.73145 C 149.71191,218.26465 149.47852,217.92871 149.20508,217.72363 C 148.93164,217.52051 148.57617,217.41699 148.14258,217.41699 L 147.87598,217.41699 L 147.87598,214.44824 L 148.0332,214.44824 C 148.70898,214.44824 149.27637,214.78027 149.73438,215.44336 C 150.19336,216.10645 150.56836,217.15039 150.85742,218.57324 L 150.85742,218.57324 z M 150.83301,220.04199 C 150.14258,220.04199 149.62988,220.69043 149.29688,221.98633 C 148.96289,223.28223 148.7959,225.2627 148.7959,227.92676 C 148.7959,230.59863 148.96289,232.58301 149.29688,233.87988 C 149.62988,235.1748 150.14258,235.82324 150.83301,235.82324 C 151.5166,235.82324 152.02539,235.16895 152.3584,233.86133 C 152.69141,232.55371 152.8584,230.5752 152.8584,227.92676 C 152.8584,225.28613 152.69141,223.3125 152.3584,222.00488 C 152.02539,220.69629 151.5166,220.04199 150.83301,220.04199 z"
   id="path7356"
   style="stroke:none" />
		</g><g
   id="g7358"
   style="fill-rule:nonzero;stroke:none;stroke-miterlimit:4">
			<g
   id="g7360">
				<path
   d="M 19.046387,39.449707 C 17.951172,39.450684 17.375,38.282715 17.072266,37.114746 C 16.770019,35.946289 16.741211,34.777344 16.741211,34.777344 L 16.182617,34.771973 C 16.182617,34.771973 16.077637,39.446289 13.887207,39.44873 L 19.046387,39.449707 L 19.046387,39.449707 z"
   id="path7362" />
			</g>
			<path
   d="M 20.899902,34.776367 C 20.890625,32.496094 17.476562,30.842285 16.474121,29.037598 C 15.472168,30.842285 12.058594,32.496094 12.048828,34.776367 C 12.044434,35.853027 13.039551,36.725098 14.261719,36.725098 C 15.483887,36.725098 16.474121,35.853027 16.474121,34.776367 C 16.474121,35.853027 17.465332,36.725098 18.6875,36.725098 C 19.909668,36.725098 20.899902,35.853027 20.899902,34.776367 L 20.899902,34.776367 z"
   id="path7364" />
		</g><g
   id="g7366"
   style="fill-rule:nonzero;stroke:none;stroke-miterlimit:4">
			<g
   id="g7368">
				<path
   d="M 148.03223,203.11621 C 149.12695,203.11523 149.70313,204.2832 150.00586,205.45117 C 150.30859,206.62012 150.33789,207.78809 150.33789,207.78809 L 150.89648,207.79395 C 150.89648,207.79395 151.00098,203.12012 153.19141,203.11719 L 148.03223,203.11621 L 148.03223,203.11621 z"
   id="path7370" />
			</g>
			<path
   d="M 146.17871,207.79004 C 146.1875,210.06934 149.60156,211.72363 150.60449,213.52832 C 151.60645,211.72363 155.01953,210.06934 155.0293,207.79004 C 155.03418,206.71289 154.03906,205.84082 152.81641,205.84082 C 151.59473,205.84082 150.60449,206.71289 150.60449,207.79004 C 150.60449,206.71289 149.61328,205.84082 148.39062,205.84082 C 147.16895,205.84082 146.17871,206.71289 146.17871,207.79004 z"
   id="path7372" />
		</g>
</svg>