<?xml version="1.0" encoding="UTF-8" standalone="no"?>
<!-- Created with Inkscape (http://www.inkscape.org/) -->
<svg
   xmlns:svg="http://www.w3.org/2000/svg"
   xmlns="http://www.w3.org/2000/svg"
   version="1.0"
   width="167.08936pt"
   height="242.66748pt"
   viewBox="0 0 167.08936 242.66748"
   id="svg6043"
   xml:space="preserve"><defs
   id="defs6411">
		
		
		
		
		
		
		
		
		
		
		
		
		
		
		
	</defs>
	<path
   d="M 166.83936,235.54834 C 166.83936,239.33154 163.75342,242.41748 159.96826,242.41748 L 7.1113281,242.41748 C 3.336914,242.41748 0.25,239.33154 0.25,235.54834 L 0.25,7.1201172 C 0.25,3.3447266 3.3369141,0.25 7.1113281,0.25 L 159.96826,0.25 C 163.75342,0.25 166.83936,3.3447266 166.83936,7.1201172 L 166.83936,235.54834 L 166.83936,235.54834 z"
   id="path6046"
   style="fill:#ffffff;fill-rule:nonzero;stroke:#000000;stroke-width:0.5;stroke-miterlimit:4" /><path
   d="M 157.18506,238.17529 L 10.130859,238.17529 L 10.130859,4.78125 L 157.18506,4.78125 L 157.18506,238.17529 L 157.18506,238.17529 z"
   id="path6048"
   style="fill:#ffffff;fill-rule:nonzero;stroke:#000000;stroke-width:1.5;stroke-linejoin:round;stroke-miterlimit:4" /><g
   id="g6274"
   style="fill-rule:nonzero;stroke:none;stroke-miterlimit:4">
			<path
   d="M 42.353516,18.137695 C 42.353516,22.863281 38.405273,26.692383 33.53418,26.692383 C 28.662109,26.692383 24.712891,22.863281 24.712891,18.137695 C 24.712891,13.413086 28.662109,9.5830078 33.53418,9.5830078 C 38.405274,9.5830078 42.353516,13.413086 42.353516,18.137695 z"
   id="path6276" />
			<path
   d="M 53.711914,34.324219 C 53.711914,39.049805 49.762695,42.878906 44.890625,42.878906 C 40.018555,42.878906 36.070312,39.049805 36.070312,34.324219 C 36.070312,29.598633 40.018555,25.770508 44.890625,25.770508 C 49.762695,25.770508 53.711914,29.598633 53.711914,34.324219 z"
   id="path6278" />
			<path
   d="M 31.125,34.386719 C 31.125,36.117188 30.595703,37.727539 29.68457,39.073242 C 28.108398,41.40332 25.391602,42.941406 22.303711,42.941406 C 17.431641,42.941406 13.483398,39.112305 13.483398,34.386719 C 13.483398,29.663086 17.431641,25.833008 22.303711,25.833008 C 27.174805,25.833008 31.125,29.663086 31.125,34.386719 z"
   id="path6280" />
			<g
   id="g6282">
				<path
   d="M 43.879883,50.991211 C 39.524414,50.995117 37.233398,47.452148 36.030273,43.90918 C 34.827148,40.366211 34.714844,36.822266 34.714844,36.822266 L 32.491211,36.804687 C 32.491211,36.804687 32.075195,50.981445 23.365234,50.987305 L 43.879883,50.991211 L 43.879883,50.991211 z"
   id="path6284" />
			</g>
			<g
   id="g6286">
				<path
   d="M 27.538086,24.411133 C 32.491211,29.366211 32.491211,36.804688 32.491211,36.804688 L 34.714844,36.822266 C 34.714844,36.822266 34.714844,29.226562 39.530273,24.411133"
   id="path6288" />
			</g>
			<g
   id="g6290">
				<path
   d="M 28.529297,40.331055 C 33.483398,35.37793 40.921875,35.37793 40.921875,35.37793 L 40.94043,33.155273 C 40.94043,33.155273 33.34375,33.155273 28.529297,28.339844"
   id="path6292" />
			</g>
			<g
   id="g6294">
				<path
   d="M 38.46582,40.368164 C 33.510742,35.415039 26.072266,35.415039 26.072266,35.415039 L 26.054688,33.191406 C 26.054688,33.191406 33.650391,33.191406 38.46582,28.375977"
   id="path6296" />
			</g>
		</g><g
   id="g6298"
   style="fill-rule:nonzero;stroke:none;stroke-miterlimit:4">
			<path
   d="M 154.09131,41.519531 L 153.62256,41.519531 L 153.62256,41.007813 L 147.43506,38.915039 L 147.43506,38.254883 L 153.62256,36.157227 L 153.62256,35.582031 L 154.09131,35.582031 L 154.09131,37.714844 L 153.62256,37.714844 L 153.62256,37.063477 L 152.15381,37.553711 L 152.15381,40.021484 L 153.62256,40.512695 L 153.62256,39.870117 L 154.09131,39.870117 L 154.09131,41.519531 L 154.09131,41.519531 z M 151.66943,39.861328 L 151.66943,37.706055 L 148.51123,38.786133 L 151.66943,39.861328 z"
   id="path6300" />
			<path
   d="M 150.78467,31.805664 C 150.84131,31.621094 150.93701,31.461914 151.07373,31.330078 C 151.2085,31.197266 151.3999,31.079102 151.64404,30.974609 L 153.62256,30.120117 L 153.62256,29.40625 L 154.09131,29.40625 L 154.09131,30.791016 L 151.97412,31.707031 C 151.56396,31.881836 151.29834,32.042969 151.17725,32.189453 C 151.05811,32.335938 150.99756,32.537109 150.99756,32.791992 L 150.99756,33.668945 L 153.62256,33.668945 L 153.62256,32.84082 L 154.09131,32.84082 L 154.09131,35.21582 L 153.62256,35.21582 L 153.62256,34.46582 L 147.91943,34.46582 L 147.91943,35.21582 L 147.43506,35.21582 L 147.43506,32.241211 C 147.43506,31.668945 147.58936,31.227539 147.89795,30.916992 C 148.20654,30.605469 148.64404,30.450195 149.2124,30.450195 C 149.66943,30.450195 150.02881,30.563477 150.29248,30.790039 C 150.55615,31.016602 150.72021,31.355469 150.78467,31.805664 L 150.78467,31.805664 z M 150.51318,33.668945 L 150.51318,32.511719 C 150.51318,32.118164 150.40771,31.827148 150.19678,31.638672 C 149.98389,31.450195 149.65771,31.356445 149.21436,31.356445 C 148.771,31.356445 148.44482,31.450195 148.23389,31.638672 C 148.0249,31.827148 147.91943,32.118164 147.91943,32.511719 L 147.91943,33.668945 L 150.51318,33.668945 L 150.51318,33.668945 z"
   id="path6302" />
			<path
   d="M 149.41943,24.429687 C 148.86475,24.522461 148.45654,24.713867 148.19092,25.004883 C 147.92725,25.295898 147.79443,25.700195 147.79443,26.216797 C 147.79443,26.894531 148.04053,27.398438 148.53271,27.730469 C 149.0249,28.061523 149.76904,28.226563 150.76514,28.226563 C 151.73975,28.226563 152.47998,28.056641 152.97998,27.714844 C 153.48193,27.373047 153.73193,26.869141 153.73193,26.204102 C 153.73193,25.907227 153.69092,25.624023 153.60693,25.355469 C 153.5249,25.085937 153.3999,24.830078 153.23584,24.585937 L 151.52881,24.585937 L 151.52881,25.695312 L 151.04443,25.695312 L 151.04443,23.789062 L 153.52295,23.789062 C 153.75342,24.137695 153.92725,24.512695 154.04248,24.914062 C 154.15771,25.31543 154.21631,25.746094 154.21631,26.207031 C 154.21631,27.09375 153.90186,27.802734 153.27295,28.334961 C 152.64404,28.867188 151.80811,29.132813 150.76514,29.132813 C 149.7124,29.132813 148.87451,28.866211 148.24756,28.332031 C 147.62256,27.797852 147.31006,27.079102 147.31006,26.174805 C 147.31006,25.838867 147.35303,25.491211 147.44092,25.132812 C 147.52881,24.774414 147.66162,24.394531 147.84131,23.992187 L 149.41943,23.992187 L 149.41943,24.429687 L 149.41943,24.429687 z"
   id="path6304" />
			<path
   d="M 153.62256,21.165039 L 153.62256,20.415039 L 154.09131,20.415039 L 154.09131,22.711914 L 153.62256,22.711914 L 153.62256,21.961914 L 147.91943,21.961914 L 147.91943,22.711914 L 147.43506,22.711914 L 147.43506,20.415039 L 147.91943,20.415039 L 147.91943,21.165039 L 153.62256,21.165039 z"
   id="path6306" />
			<path
   d="M 154.09131,19.576172 L 153.62256,19.576172 L 153.62256,18.779297 L 147.91943,18.779297 L 147.91943,19.576172 L 147.43506,19.576172 L 147.43506,18.070313 L 152.69092,14.544922 L 147.91943,14.544922 L 147.91943,15.326172 L 147.43506,15.326172 L 147.43506,13.263672 L 147.91943,13.263672 L 147.91943,14.060547 L 154.21631,14.060547 L 154.21631,14.533203 L 148.61865,18.294922 L 153.62256,18.294922 L 153.62256,17.498047 L 154.09131,17.498047 L 154.09131,19.576172 L 154.09131,19.576172 z"
   id="path6308" />
			<path
   d="M 154.09131,12.478516 L 153.62256,12.478516 L 153.62256,11.728516 L 147.91943,11.728516 L 147.91943,12.478516 L 147.43506,12.478516 L 147.43506,7.7441406 L 148.91943,7.7441406 L 148.91943,8.2285156 L 147.98193,8.2285156 L 147.98193,10.931641 L 150.20068,10.931641 L 150.20068,8.9941406 L 149.37256,8.9941406 L 149.37256,8.5097656 L 151.57568,8.5097656 L 151.57568,8.9941406 L 150.74756,8.9941406 L 150.74756,10.931641 L 153.54443,10.931641 L 153.54443,8.1660156 L 152.60693,8.1660156 L 152.60693,7.6816406 L 154.09131,7.6816406 L 154.09131,12.478516 z"
   id="path6310" />
		</g><g
   id="g6312"
   style="fill-rule:nonzero;stroke:none;stroke-miterlimit:4">
			<path
   d="M 12.827148,200.64795 L 13.295898,200.64795 L 13.295898,201.15967 L 19.483398,203.25146 L 19.483398,203.91162 L 13.295898,206.00928 L 13.295898,206.58545 L 12.827148,206.58545 L 12.827148,204.45264 L 13.295898,204.45264 L 13.295898,205.10303 L 14.764648,204.61279 L 14.764648,202.146 L 13.295898,201.65381 L 13.295898,202.29639 L 12.827148,202.29639 L 12.827148,200.64795 L 12.827148,200.64795 z M 15.249023,202.30615 L 15.249023,204.46045 L 18.407226,203.38037 L 15.249023,202.30615 L 15.249023,202.30615 z"
   id="path6314" />
			<path
   d="M 16.133789,210.36084 C 16.077148,210.54639 15.980469,210.70459 15.844727,210.8374 C 15.708984,210.97021 15.518555,211.0874 15.273438,211.19287 L 13.295898,212.04639 L 13.295898,212.76123 L 12.827148,212.76123 L 12.827148,211.37646 L 14.943359,210.46045 C 15.353516,210.28467 15.619141,210.12451 15.740234,209.97803 C 15.860352,209.83154 15.920898,209.63037 15.920898,209.37451 L 15.920898,208.49756 L 13.295898,208.49756 L 13.295898,209.32568 L 12.827148,209.32568 L 12.827148,206.95068 L 13.295898,206.95068 L 13.295898,207.70068 L 18.999023,207.70068 L 18.999023,206.95068 L 19.483398,206.95068 L 19.483398,209.92529 C 19.483398,210.49756 19.329102,210.93897 19.020508,211.24951 C 18.710937,211.56201 18.273437,211.71631 17.706055,211.71631 C 17.249023,211.71631 16.888672,211.60303 16.625977,211.37647 C 16.362305,211.1499 16.198242,210.81201 16.133789,210.36084 L 16.133789,210.36084 z M 16.405273,208.49756 L 16.405273,209.65576 C 16.405273,210.04834 16.510742,210.33936 16.72168,210.52881 C 16.933594,210.71631 17.260742,210.81006 17.704102,210.81006 C 18.147461,210.81006 18.473633,210.71631 18.68457,210.52881 C 18.893555,210.33936 18.999023,210.04834 18.999023,209.65576 L 18.999023,208.49756 L 16.405273,208.49756 L 16.405273,208.49756 z"
   id="path6316" />
			<path
   d="M 17.499023,217.73779 C 18.052734,217.64404 18.461914,217.45264 18.726562,217.16162 C 18.991211,216.87061 19.124023,216.46631 19.124023,215.95068 C 19.124023,215.27295 18.87793,214.76904 18.385742,214.43701 C 17.893555,214.10498 17.149414,213.94092 16.15332,213.94092 C 15.177734,213.94092 14.438476,214.11084 13.938476,214.45264 C 13.436523,214.79443 13.186523,215.29834 13.186523,215.9624 C 13.186523,216.25928 13.227539,216.54248 13.310547,216.81201 C 13.393555,217.08154 13.517578,217.3374 13.682617,217.58154 L 15.389648,217.58154 L 15.389648,216.47217 L 15.874023,216.47217 L 15.874023,218.37842 L 13.394531,218.37842 C 13.164062,218.02881 12.991211,217.65381 12.875,217.25342 C 12.759765,216.85107 12.702148,216.42139 12.702148,215.96045 C 12.702148,215.07373 13.016601,214.36475 13.645508,213.83154 C 14.273437,213.30029 15.109375,213.03467 16.15332,213.03467 C 17.205078,213.03467 18.043945,213.30029 18.669922,213.83545 C 19.295898,214.36865 19.608398,215.0874 19.608398,215.9917 C 19.608398,216.32764 19.564453,216.67529 19.476562,217.03467 C 19.388672,217.39209 19.255859,217.77295 19.077148,218.17529 L 17.499023,218.17529 L 17.499023,217.73779 L 17.499023,217.73779 z"
   id="path6318" />
			<path
   d="M 13.295898,221.00146 L 13.295898,221.75146 L 12.827148,221.75146 L 12.827148,219.45459 L 13.295898,219.45459 L 13.295898,220.20459 L 18.999023,220.20459 L 18.999023,219.45459 L 19.483398,219.45459 L 19.483398,221.75146 L 18.999023,221.75146 L 18.999023,221.00146 L 13.295898,221.00146 z"
   id="path6320" />
			<path
   d="M 12.827148,222.59131 L 13.295898,222.59131 L 13.295898,223.38818 L 18.999023,223.38818 L 18.999023,222.59131 L 19.483398,222.59131 L 19.483398,224.09717 L 14.227539,227.62256 L 18.999023,227.62256 L 18.999023,226.84131 L 19.483398,226.84131 L 19.483398,228.90381 L 18.999023,228.90381 L 18.999023,228.10693 L 12.702148,228.10693 L 12.702148,227.63428 L 18.299805,223.87256 L 13.295898,223.87256 L 13.295898,224.66943 L 12.827148,224.66943 L 12.827148,222.59131 L 12.827148,222.59131 z"
   id="path6322" />
			<path
   d="M 12.827148,229.68896 L 13.295898,229.68896 L 13.295898,230.43896 L 18.999023,230.43896 L 18.999023,229.68896 L 19.483398,229.68896 L 19.483398,234.42334 L 17.999023,234.42334 L 17.999023,233.93896 L 18.936523,233.93896 L 18.936523,231.23584 L 16.717773,231.23584 L 16.717773,233.17334 L 17.545898,233.17334 L 17.545898,233.65771 L 15.342773,233.65771 L 15.342773,233.17334 L 16.170898,233.17334 L 16.170898,231.23584 L 13.374023,231.23584 L 13.374023,234.00146 L 14.311523,234.00146 L 14.311523,234.48584 L 12.827148,234.48584 L 12.827148,229.68896 z"
   id="path6324" />
		</g><g
   id="g6326"
   style="fill-rule:nonzero;stroke:none;stroke-miterlimit:4">
			<path
   d="M 124.67725,224.54443 C 124.67725,219.81982 128.62646,215.98975 133.49756,215.98975 C 138.37061,215.98975 142.31787,219.81982 142.31787,224.54443 C 142.31787,229.26904 138.37061,233.09912 133.49756,233.09912 C 128.62646,233.09912 124.67725,229.26904 124.67725,224.54443 z"
   id="path6328" />
			<path
   d="M 113.31982,208.35693 C 113.31982,203.63232 117.26904,199.8042 122.14014,199.8042 C 127.01318,199.8042 130.9624,203.63232 130.9624,208.35693 C 130.9624,213.0835 127.01318,216.91162 122.14014,216.91162 C 117.26904,216.91162 113.31982,213.0835 113.31982,208.35693 z"
   id="path6330" />
			<path
   d="M 135.90576,208.29443 C 135.90576,206.56396 136.43701,204.95459 137.34717,203.60889 C 138.92334,201.27881 141.64014,199.7417 144.72803,199.7417 C 149.60107,199.7417 153.54834,203.56982 153.54834,208.29443 C 153.54834,213.01904 149.60107,216.84912 144.72803,216.84912 C 139.85693,216.84912 135.90576,213.01904 135.90576,208.29443 L 135.90576,208.29443 z"
   id="path6332" />
			<g
   id="g6334">
				<path
   d="M 123.15186,191.69092 C 127.50732,191.68701 129.79834,195.22998 131.00146,198.77295 C 132.20459,202.31592 132.31787,205.85889 132.31787,205.85889 L 134.54053,205.87842 C 134.54053,205.87842 134.95654,191.70068 143.66553,191.69482 L 123.15186,191.69092 L 123.15186,191.69092 z"
   id="path6336" />
			</g>
			<g
   id="g6338">
				<path
   d="M 139.49365,218.271 C 134.54053,213.31592 134.54053,205.87842 134.54053,205.87842 L 132.31787,205.85889 C 132.31787,205.85889 132.31787,213.45654 127.50146,218.271"
   id="path6340" />
			</g>
			<g
   id="g6342">
				<path
   d="M 138.50342,202.35107 C 133.54834,207.3042 126.10889,207.3042 126.10889,207.3042 L 126.09131,209.52686 C 126.09131,209.52686 133.68701,209.52686 138.50342,214.34131"
   id="path6344" />
			</g>
			<g
   id="g6346">
				<path
   d="M 128.56592,202.31396 C 133.521,207.26709 140.9585,207.26709 140.9585,207.26709 L 140.97803,209.48975 C 140.97803,209.48975 133.38232,209.48975 128.56592,214.30615"
   id="path6348" />
			</g>
		</g><path
   d="M 11.344727,51.866211 L 21.907227,51.866211 L 21.907227,8.1162109 L 11.344727,8.1162109 L 11.344727,51.866211 z"
   id="path6350"
   style="fill:#ffffff;fill-rule:nonzero;stroke:none;stroke-miterlimit:4" /><path
   d="M 156.29053,190.38232 L 144.4292,190.38232 L 144.4292,234.13232 L 156.29053,234.13232 L 156.29053,190.38232 z"
   id="path6352"
   style="fill:#ffffff;fill-rule:nonzero;stroke:none;stroke-miterlimit:4" /><g
   id="g6354"
   style="fill-rule:nonzero;stroke:none;stroke-miterlimit:4">
			<path
   d="M 148.56592,211.09131 C 148.56592,209.95654 149.51318,209.03857 150.68311,209.03857 C 151.85303,209.03857 152.80029,209.95654 152.80029,211.09131 C 152.80029,212.22412 151.85303,213.14404 150.68311,213.14404 C 149.51318,213.14404 148.56592,212.22412 148.56592,211.09131 z"
   id="path6356" />
			<path
   d="M 145.83936,207.20654 C 145.83936,206.07178 146.78857,205.15381 147.95654,205.15381 C 149.12646,205.15381 150.07373,206.07178 150.07373,207.20654 C 150.07373,208.33936 149.12646,209.25928 147.95654,209.25928 C 146.78857,209.25928 145.83936,208.33936 145.83936,207.20654 z"
   id="path6358" />
			<path
   d="M 151.26123,207.19092 C 151.26123,206.7749 151.38818,206.39014 151.60693,206.06592 C 151.98584,205.50732 152.63623,205.13818 153.37842,205.13818 C 154.54834,205.13818 155.49561,206.05615 155.49561,207.19092 C 155.49561,208.32568 154.54834,209.24365 153.37842,209.24365 C 152.2085,209.24365 151.26123,208.32568 151.26123,207.19092 z"
   id="path6360" />
			<g
   id="g6362">
				<path
   d="M 148.20068,203.20654 C 149.24561,203.20459 149.79443,204.05615 150.0835,204.90576 C 150.37256,205.75537 150.3999,206.60693 150.3999,206.60693 L 150.93311,206.61084 C 150.93311,206.61084 151.03271,203.2085 153.12256,203.20654 L 148.20068,203.20654 L 148.20068,203.20654 z"
   id="path6364" />
			</g>
			<g
   id="g6366">
				<path
   d="M 152.12256,209.58545 C 150.93311,208.396 150.93311,206.61084 150.93311,206.61084 L 150.3999,206.60693 C 150.3999,206.60693 150.3999,208.4292 149.24365,209.58545"
   id="path6368" />
			</g>
			<g
   id="g6370">
				<path
   d="M 151.88428,205.76514 C 150.69482,206.95264 148.90967,206.95264 148.90967,206.95264 L 148.90576,207.48584 C 148.90576,207.48584 150.72803,207.48584 151.88428,208.64209"
   id="path6372" />
			</g>
			<g
   id="g6374">
				<path
   d="M 149.49951,205.75537 C 150.68896,206.94482 152.47412,206.94482 152.47412,206.94482 L 152.47803,207.47803 C 152.47803,207.47803 150.65576,207.47803 149.49951,208.63428"
   id="path6376" />
			</g>
		</g><g
   id="g6378"
   style="fill-rule:nonzero;stroke:#000000;stroke-miterlimit:4">
			<path
   d="M 150.85693,218.57373 C 152.21826,218.62256 153.27881,219.46826 154.03467,221.11084 C 154.79248,222.75537 155.17139,225.02686 155.17139,227.92725 C 155.17139,230.84326 154.78662,233.13232 154.01709,234.79639 C 153.24756,236.46045 152.18701,237.29248 150.8335,237.29248 C 149.47217,237.29248 148.40771,236.4624 147.63818,234.80225 C 146.86865,233.14209 146.48389,230.85107 146.48389,227.92725 C 146.48389,225.36475 146.78076,223.28662 147.37256,221.69092 C 147.96436,220.09717 148.81006,219.10889 149.90576,218.73193 C 149.7124,218.26514 149.47803,217.9292 149.20459,217.72412 C 148.93115,217.51904 148.57764,217.41748 148.14209,217.41748 L 147.87646,217.41748 L 147.87646,214.44873 L 148.03271,214.44873 C 148.7085,214.44873 149.27686,214.78076 149.73584,215.44287 C 150.19482,216.10693 150.56787,217.1499 150.85693,218.57373 L 150.85693,218.57373 z M 150.8335,220.04248 C 150.14209,220.04248 149.63037,220.69092 149.29639,221.98584 C 148.9624,223.28271 148.79639,225.26318 148.79639,227.92725 C 148.79639,230.59912 148.9624,232.5835 149.29639,233.87842 C 149.63037,235.17529 150.14209,235.82373 150.8335,235.82373 C 151.51709,235.82373 152.0249,235.16943 152.35889,233.86084 C 152.69287,232.55225 152.85889,230.57568 152.85889,227.92725 C 152.85889,225.28662 152.69287,223.31201 152.35889,222.00342 C 152.0249,220.69678 151.51709,220.04248 150.8335,220.04248 L 150.8335,220.04248 z"
   id="path6380"
   style="stroke:none" />
		</g><g
   id="g6382"
   style="fill-rule:nonzero;stroke:none;stroke-miterlimit:4">
			<path
   d="M 18.426758,31.477539 C 18.426758,32.612305 17.479492,33.53125 16.310547,33.53125 C 15.141602,33.53125 14.194336,32.612305 14.194336,31.477539 C 14.194336,30.344727 15.141602,29.424805 16.310547,29.424805 C 17.479492,29.424805 18.426758,30.344727 18.426758,31.477539 L 18.426758,31.477539 z"
   id="path6384" />
			<path
   d="M 21.15332,35.362305 C 21.15332,36.49707 20.206055,37.416016 19.036133,37.416016 C 17.867188,37.416016 16.918945,36.49707 16.918945,35.362305 C 16.918945,34.229492 17.867188,33.30957 19.036133,33.30957 C 20.206055,33.30957 21.15332,34.229492 21.15332,35.362305 z"
   id="path6386" />
			<path
   d="M 15.732422,35.37793 C 15.732422,35.792969 15.605469,36.179687 15.386719,36.50293 C 15.008789,37.061523 14.356445,37.430664 13.615234,37.430664 C 12.446289,37.430664 11.499023,36.512695 11.499023,35.37793 C 11.499023,34.244141 12.446289,33.325195 13.615234,33.325195 C 14.78418,33.325195 15.732422,34.244141 15.732422,35.37793 z"
   id="path6388" />
			<g
   id="g6390">
				<path
   d="M 18.793945,39.362305 C 17.748047,39.364258 17.198242,38.513672 16.90918,37.663086 C 16.621094,36.813477 16.594727,35.961914 16.594727,35.961914 L 16.060547,35.958008 C 16.060547,35.958008 15.959961,39.360352 13.870117,39.362305 L 18.793945,39.362305 L 18.793945,39.362305 z"
   id="path6392" />
			</g>
			<g
   id="g6394">
				<path
   d="M 14.87207,32.983398 C 16.060547,34.172852 16.060547,35.958008 16.060547,35.958008 L 16.594727,35.961914 C 16.594727,35.961914 16.594727,34.139648 17.749023,32.983398"
   id="path6396" />
			</g>
			<g
   id="g6398">
				<path
   d="M 15.109375,36.804687 C 16.297852,35.616211 18.083984,35.616211 18.083984,35.616211 L 18.087891,35.082031 C 18.087891,35.082031 16.264648,35.082031 15.109375,33.926758"
   id="path6400" />
			</g>
			<g
   id="g6402">
				<path
   d="M 17.494141,36.813477 C 16.305664,35.624023 14.520508,35.624023 14.520508,35.624023 L 14.515625,35.09082 C 14.515625,35.09082 16.338867,35.09082 17.494141,33.935547"
   id="path6404" />
			</g>
		</g><g
   id="g6406"
   style="fill-rule:nonzero;stroke:#000000;stroke-miterlimit:4">
			<path
   d="M 15.921875,24.510742 C 14.560547,24.461914 13.500977,23.616211 12.744141,21.973633 C 11.987305,20.329101 11.608398,18.057617 11.608398,15.157226 C 11.608398,12.241211 11.993164,9.9521484 12.762695,8.2880859 C 13.53125,6.6240234 14.592773,5.7919921 15.946289,5.7919921 C 17.307617,5.7919921 18.37207,6.6220702 19.141602,8.2822265 C 19.911133,9.9414062 20.295898,12.233398 20.295898,15.157226 C 20.295898,17.719726 19.999023,19.797851 19.407227,21.392578 C 18.814453,22.987305 17.969727,23.974609 16.874023,24.352539 C 17.067383,24.819336 17.300781,25.155273 17.575195,25.360351 C 17.848633,25.564453 18.202148,25.666992 18.637695,25.666992 L 18.90332,25.666992 L 18.90332,28.635742 L 18.746094,28.635742 C 18.070312,28.635742 17.50293,28.303711 17.043945,27.641601 C 16.584961,26.977539 16.211914,25.93457 15.921875,24.510742 L 15.921875,24.510742 z M 15.946289,23.041992 C 16.637695,23.041992 17.149414,22.393555 17.483398,21.098633 C 17.816406,19.801758 17.983398,17.821289 17.983398,15.157227 C 17.983398,12.485352 17.816406,10.500977 17.483398,9.2050781 C 17.149414,7.9091797 16.637695,7.2607422 15.946289,7.2607422 C 15.262695,7.2607422 14.754883,7.9150391 14.420898,9.2236328 C 14.086914,10.53125 13.920898,12.508789 13.920898,15.157227 C 13.920898,17.797852 14.086914,19.772461 14.420898,21.080078 C 14.754883,22.387695 15.262695,23.041992 15.946289,23.041992 L 15.946289,23.041992 z"
   id="path6408"
   style="stroke:none" />
		</g>
</svg>