<?xml version="1.0" encoding="UTF-8" standalone="no"?>
<!-- Created with Inkscape (http://www.inkscape.org/) -->
<svg
   xmlns:svg="http://www.w3.org/2000/svg"
   xmlns="http://www.w3.org/2000/svg"
   version="1.0"
   width="208"
   height="303"
   viewBox="0 0 167.086 242.667"
   id="svg2"
   xml:space="preserve"><defs
   id="defs88" />
	<path
   d="M 83.468215,104.80874 C 79.670455,104.80874 76.593213,107.88598 76.593215,111.68374 C 76.593215,113.6439 77.42644,115.40522 78.743215,116.65874 C 79.760759,117.6274 81.210383,119.82297 81.693215,121.58374 C 80.751391,121.01615 79.903031,120.36928 79.393215,119.83374 C 78.139694,118.51696 76.378367,117.70874 74.418215,117.70874 C 70.620454,117.70874 67.543215,120.78598 67.543215,124.58374 C 67.543214,128.3815 70.620455,131.45874 74.418215,131.45874 C 76.378374,131.45874 78.139695,130.62552 79.393215,129.30874 C 79.930767,128.74405 80.839487,128.02954 81.843215,127.43374 C 81.702423,133.73889 79.538511,137.85874 75.593215,137.85874 C 75.593215,137.85874 91.368215,137.85874 91.368215,137.85874 C 87.412407,137.85874 85.223447,133.71731 85.093215,127.38374 C 86.151375,127.99109 87.134975,128.72232 87.693215,129.30874 C 88.946719,130.62552 90.708079,131.45874 92.668215,131.45874 C 96.465935,131.45874 99.543215,128.3815 99.543215,124.58374 C 99.543215,120.78598 96.465935,117.70874 92.668215,117.70874 C 90.708087,117.70874 88.946719,118.51696 87.693215,119.83374 C 87.162391,120.39135 86.240455,121.05263 85.243215,121.63374 C 85.710951,119.86431 87.190519,117.63708 88.218215,116.65874 C 89.534991,115.40522 90.343215,113.64389 90.343215,111.68374 C 90.343215,107.88598 87.265975,104.80874 83.468215,104.80874 z"
   id="path2242"
   style="fill:#000000;fill-opacity:1;stroke:none;stroke-width:1.5;stroke-linecap:round;stroke-linejoin:round;stroke-miterlimit:4;stroke-opacity:1" />
</svg>