<?xml version="1.0" encoding="UTF-8" standalone="no"?>
<!-- Created with Inkscape (http://www.inkscape.org/) -->
<svg
   xmlns:svg="http://www.w3.org/2000/svg"
   xmlns="http://www.w3.org/2000/svg"
   xmlns:xlink="http://www.w3.org/1999/xlink"
   version="1.0"
   width="208"
   height="303"
   viewBox="0 0 167.08643 242.66748"
   id="svg2"
   xml:space="preserve"><defs
   id="defs88" />
	
<path
   d="M 83.543215,12.962851 C 80.358644,18.694301 69.506031,23.945031 69.485463,31.187721 C 69.475751,34.607631 72.631525,37.363091 76.514339,37.363091 C 78.987854,37.363091 81.185777,36.253001 82.438677,34.551541 C 81.915249,39.475911 80.511286,44.979401 75.384698,46.023671 L 83.543215,46.023671 L 91.701732,46.023671 C 86.57515,44.979401 85.171181,39.475911 84.647753,34.551541 C 85.900658,36.253001 88.098576,37.363091 90.572091,37.363091 C 94.454909,37.363091 97.610678,34.607631 97.600967,31.187721 C 97.580401,23.945031 86.727786,18.694301 83.543215,12.962851 z"
   id="path2254"
   style="fill-rule:nonzero;stroke:none;stroke-miterlimit:4" /><use
   transform="matrix(1,0,0,-1,0,242.66748)"
   id="use2196"
   x="0"
   y="0"
   width="167.08643"
   height="242.66748"
   xlink:href="#path2254" /></svg>