<?xml version="1.0" encoding="UTF-8" standalone="no"?>
<!-- Created with Inkscape (http://www.inkscape.org/) -->
<svg
   xmlns:svg="http://www.w3.org/2000/svg"
   xmlns="http://www.w3.org/2000/svg"
   xmlns:xlink="http://www.w3.org/1999/xlink"
   version="1.0"
   width="208"
   height="303"
   viewBox="0 0 167.08643 242.66748"
   id="svg2"
   xml:space="preserve"><defs
   id="defs88" />
	
<path
   d="M 83.54322,13.628086 C 83.5171,14.523896 82.98547,17.883396 77.19212,23.443406 C 71.61646,28.794526 69.0128,29.436916 68.23031,29.493266 C 69.0128,29.549606 71.61646,30.192016 77.19212,35.543116 C 82.98547,41.103126 83.5171,44.462616 83.54322,45.358436 C 83.56934,44.462626 84.10096,41.103136 89.89431,35.543116 C 95.46998,30.192006 98.07363,29.549596 98.85612,29.493266 C 98.07363,29.436926 95.46998,28.794516 89.89431,23.443406 C 84.10096,17.883406 83.56934,14.523906 83.54322,13.628086 z"
   id="path2243"
   style="fill:#e61408;fill-opacity:1;stroke:none;stroke-width:1.49999988;stroke-linecap:round;stroke-linejoin:round;stroke-miterlimit:4;stroke-dasharray:none;stroke-opacity:1" /><use
   transform="translate(0,91.840479)"
   id="use2194"
   x="0"
   y="0"
   width="167.08643"
   height="242.66748"
   xlink:href="#path2243" /><use
   transform="translate(0,91.840479)"
   id="use2196"
   x="0"
   y="0"
   width="167.08643"
   height="242.66748"
   xlink:href="#use2194" /></svg>