<?xml version="1.0" encoding="UTF-8" standalone="no"?>
<!-- Created with Inkscape (http://www.inkscape.org/) -->
<svg
   xmlns:svg="http://www.w3.org/2000/svg"
   xmlns="http://www.w3.org/2000/svg"
   xmlns:xlink="http://www.w3.org/1999/xlink"
   version="1.0"
   width="208"
   height="303"
   viewBox="0 0 167.08643 242.66748"
   id="svg2"
   xml:space="preserve"><defs
   id="defs88">
		
		
		
		
		
		
		
		
	</defs>
	
<path
   d="M 83.468215,12.968261 C 79.670455,12.968261 76.593213,16.045501 76.593215,19.843261 C 76.593215,21.803421 77.42644,23.564741 78.743215,24.818261 C 79.760759,25.786921 81.210383,27.982491 81.693215,29.743261 C 80.751391,29.175671 79.903031,28.528801 79.393215,27.993261 C 78.139694,26.676481 76.378367,25.868261 74.418215,25.868261 C 70.620454,25.868261 67.543215,28.945501 67.543215,32.743261 C 67.543214,36.541021 70.620455,39.618261 74.418215,39.618261 C 76.378374,39.618261 78.139695,38.785041 79.393215,37.468261 C 79.930767,36.903571 80.839487,36.189061 81.843215,35.593261 C 81.702423,41.898411 79.538511,46.018261 75.593215,46.018261 C 75.593215,46.018261 91.368215,46.018261 91.368215,46.018261 C 87.412407,46.018261 85.223447,41.876831 85.093215,35.543261 C 86.151375,36.150611 87.134975,36.881841 87.693215,37.468261 C 88.946719,38.785041 90.708079,39.618261 92.668215,39.618261 C 96.465935,39.618261 99.543215,36.541021 99.543215,32.743261 C 99.543215,28.945501 96.465935,25.868261 92.668215,25.868261 C 90.708087,25.868261 88.946719,26.676481 87.693215,27.993261 C 87.162391,28.550871 86.240455,29.212151 85.243215,29.793261 C 85.710951,28.023831 87.190519,25.796601 88.218215,24.818261 C 89.534991,23.564741 90.343215,21.803411 90.343215,19.843261 C 90.343215,16.045501 87.265975,12.968261 83.468215,12.968261 z"
   id="path2242"
   style="fill:#000000;fill-opacity:1;stroke:none;stroke-width:1.5;stroke-linecap:round;stroke-linejoin:round;stroke-miterlimit:4;stroke-opacity:1" /><use
   transform="matrix(1,0,0,-1,0,242.66748)"
   id="use2597"
   x="0"
   y="0"
   width="167.08643"
   height="242.66748"
   xlink:href="#path2242" /><path
   d="M 83.468215,104.80874 C 79.670455,104.80874 76.593213,107.88598 76.593215,111.68374 C 76.593215,113.6439 77.42644,115.40522 78.743215,116.65874 C 79.760759,117.6274 81.210383,119.82297 81.693215,121.58374 C 80.751391,121.01615 79.903031,120.36928 79.393215,119.83374 C 78.139694,118.51696 76.378367,117.70874 74.418215,117.70874 C 70.620454,117.70874 67.543215,120.78598 67.543215,124.58374 C 67.543214,128.3815 70.620455,131.45874 74.418215,131.45874 C 76.378374,131.45874 78.139695,130.62552 79.393215,129.30874 C 79.930767,128.74405 80.839487,128.02954 81.843215,127.43374 C 81.702423,133.73889 79.538511,137.85874 75.593215,137.85874 C 75.593215,137.85874 91.368215,137.85874 91.368215,137.85874 C 87.412407,137.85874 85.223447,133.71731 85.093215,127.38374 C 86.151375,127.99109 87.134975,128.72232 87.693215,129.30874 C 88.946719,130.62552 90.708079,131.45874 92.668215,131.45874 C 96.465935,131.45874 99.543215,128.3815 99.543215,124.58374 C 99.543215,120.78598 96.465935,117.70874 92.668215,117.70874 C 90.708087,117.70874 88.946719,118.51696 87.693215,119.83374 C 87.162391,120.39135 86.240455,121.05263 85.243215,121.63374 C 85.710951,119.86431 87.190519,117.63708 88.218215,116.65874 C 89.534991,115.40522 90.343215,113.64389 90.343215,111.68374 C 90.343215,107.88598 87.265975,104.80874 83.468215,104.80874 z"
   id="path2841"
   style="fill:#000000;fill-opacity:1;stroke:none;stroke-width:1.5;stroke-linecap:round;stroke-linejoin:round;stroke-miterlimit:4;stroke-opacity:1" /></svg>