<?xml version="1.0" encoding="UTF-8" standalone="no"?>
<!-- Created with Inkscape (http://www.inkscape.org/) -->
<svg
   xmlns:svg="http://www.w3.org/2000/svg"
   xmlns="http://www.w3.org/2000/svg"
   xmlns:xlink="http://www.w3.org/1999/xlink"
   version="1.0"
   width="208"
   height="303"
   viewBox="0 0 167.08643 242.66748"
   id="svg2"
   xml:space="preserve"><defs
   id="defs88" />
	
<g
   transform="translate(-37.593873,-91.463522)"
   id="g2174"
   style="fill-rule:nonzero;stroke:none;stroke-miterlimit:4">
			<g
   id="g2176">
				<path
   d="M 93.500488,137.46924 C 90.021973,137.47314 88.191895,133.76318 87.230957,130.05322 C 86.27002,126.34229 86.180176,122.63037 86.180176,122.63037 L 84.404785,122.61279 C 84.404785,122.61279 84.070801,137.45947 77.113281,137.46631 L 93.500488,137.46924 L 93.500488,137.46924 z"
   id="path2178" />
			</g>
			<path
   d="M 99.388184,122.62646 C 99.35791,115.38379 88.515137,110.13135 85.330566,104.3999 C 82.148438,110.13135 71.305664,115.38379 71.274902,122.62646 C 71.260742,126.04639 74.421875,128.81592 78.303711,128.81592 C 82.18457,128.81592 85.330566,126.04639 85.330566,122.62646 C 85.330566,126.04639 88.479004,128.81592 92.359863,128.81592 C 96.242676,128.81592 99.388184,126.04639 99.388184,122.62646 L 99.388184,122.62646 z"
   id="path2180" />
		</g><use
   transform="matrix(1,0,0,-1,70.670403,242.64527)"
   id="use2246"
   x="0"
   y="0"
   width="167.08643"
   height="242.66748"
   xlink:href="#g2174" /><use
   transform="matrix(1,0,0,-1,3.3067988e-6,242.64527)"
   id="use2248"
   x="0"
   y="0"
   width="167.08643"
   height="242.66748"
   xlink:href="#g2174" /><use
   transform="translate(70.670403,-1.6393005e-7)"
   id="use2250"
   x="0"
   y="0"
   width="167.08643"
   height="242.66748"
   xlink:href="#g2174" /><use
   transform="translate(-70.670401,91.86269)"
   id="use2252"
   x="0"
   y="0"
   width="167.08643"
   height="242.66748"
   xlink:href="#use2250" /><use
   transform="translate(70.670403,3.6069922e-8)"
   id="use2254"
   x="0"
   y="0"
   width="167.08643"
   height="242.66748"
   xlink:href="#use2252" /></svg>