<?xml version="1.0" encoding="UTF-8" standalone="no"?>
<!-- Created with Inkscape (http://www.inkscape.org/) -->
<svg
   xmlns:svg="http://www.w3.org/2000/svg"
   xmlns="http://www.w3.org/2000/svg"
   xmlns:xlink="http://www.w3.org/1999/xlink"
   version="1.0"
   width="208"
   height="303"
   viewBox="0 0 167.08643 242.66748"
   id="svg2"
   xml:space="preserve"><defs
   id="defs88" />
	
<path
   d="M 47.737644,13.605875 C 47.711529,14.501685 47.179897,17.861185 41.386553,23.421195 C 35.810889,28.772315 33.207229,29.414705 32.42474,29.471055 C 33.207229,29.527395 35.810889,30.169805 41.386553,35.520905 C 47.179897,41.080915 47.711529,44.440405 47.737644,45.336225 C 47.763766,44.440415 48.295393,41.080925 54.088735,35.520905 C 59.664407,30.169795 62.268058,29.527385 63.050552,29.471055 C 62.268058,29.414715 59.664409,28.772305 54.088735,23.421195 C 48.295393,17.861195 47.763766,14.501695 47.737644,13.605875 z"
   id="path2243"
   style="fill:#e61408;fill-opacity:1;stroke:none;stroke-width:1.49999988;stroke-linecap:round;stroke-linejoin:round;stroke-miterlimit:4;stroke-dasharray:none;stroke-opacity:1" /><use
   transform="translate(70.6704,0)"
   id="use2197"
   x="0"
   y="0"
   width="167.08643"
   height="242.66748"
   xlink:href="#path2243" /><use
   transform="translate(-70.670404,91.86269)"
   id="use2199"
   x="0"
   y="0"
   width="167.08643"
   height="242.66748"
   xlink:href="#use2197" /><use
   transform="translate(70.6704,0)"
   id="use2201"
   x="0"
   y="0"
   width="167.08643"
   height="242.66748"
   xlink:href="#use2199" /><use
   transform="translate(-70.670404,91.84048)"
   id="use2203"
   x="0"
   y="0"
   width="167.08643"
   height="242.66748"
   xlink:href="#use2201" /><use
   transform="translate(70.6704,0)"
   id="use2205"
   x="0"
   y="0"
   width="167.08643"
   height="242.66748"
   xlink:href="#use2203" /></svg>