<?xml version="1.0" encoding="UTF-8" standalone="no"?>
<!-- Created with Inkscape (http://www.inkscape.org/) -->
<svg
   xmlns:svg="http://www.w3.org/2000/svg"
   xmlns="http://www.w3.org/2000/svg"
   xmlns:xlink="http://www.w3.org/1999/xlink"
   version="1.0"
   width="208"
   height="303"
   viewBox="0 0 167.08643 242.66748"
   id="svg2"
   xml:space="preserve"><defs
   id="defs88" />
	
<path
   d="M 39.867818,13.329748 C 35.560198,13.339018 32.057358,17.020898 32.085848,21.538468 C 32.146238,31.118068 44.178217,38.045978 47.725092,45.612368 C 51.271967,38.045978 63.329054,31.118068 63.389444,21.538468 C 63.417926,17.020898 59.91509,13.339018 55.607474,13.329748 C 51.299858,13.320948 47.737784,16.986998 47.725092,21.513368 C 47.7124,16.986998 44.175429,13.320948 39.867818,13.329748 z"
   id="path2170"
   style="fill:#e61408;fill-rule:nonzero;stroke:none;stroke-miterlimit:4" /><use
   transform="translate(70.670402,91.86269)"
   id="use2197"
   x="0"
   y="0"
   width="167.08643"
   height="242.66748"
   xlink:href="#path2170" /><use
   transform="translate(1.9518177e-6,91.86269)"
   id="use2199"
   x="0"
   y="0"
   width="167.08643"
   height="242.66748"
   xlink:href="#path2170" /><use
   transform="translate(70.670402,9.5219448e-8)"
   id="use2201"
   x="0"
   y="0"
   width="167.08643"
   height="242.66748"
   xlink:href="#path2170" /><use
   transform="matrix(1,0,0,-1,4.8182248e-8,242.64527)"
   id="use2205"
   x="0"
   y="0"
   width="167.08643"
   height="242.66748"
   xlink:href="#path2170" /><use
   transform="matrix(1,0,0,-1,70.670404,242.64527)"
   id="use2207"
   x="0"
   y="0"
   width="167.08643"
   height="242.66748"
   xlink:href="#path2170" /></svg>