<?xml version="1.0" encoding="UTF-8" standalone="no"?>
<!-- Created with Inkscape (http://www.inkscape.org/) -->
<svg
   xmlns:svg="http://www.w3.org/2000/svg"
   xmlns="http://www.w3.org/2000/svg"
   xmlns:xlink="http://www.w3.org/1999/xlink"
   version="1.0"
   width="208"
   height="303"
   viewBox="0 0 167.08643 242.66748"
   id="svg2"
   xml:space="preserve"><defs
   id="defs88" />
	
<path
   d="M 47.737647,12.94064 C 44.553076,18.67209 33.700462,23.92282 33.679892,31.16551 C 33.670182,34.58542 36.825957,37.34088 40.708771,37.34088 C 43.182286,37.34088 45.380209,36.23079 46.633109,34.52933 C 46.109681,39.4537 44.705718,44.95719 39.57913,46.00146 L 47.737647,46.00146 L 55.896164,46.00146 C 50.769582,44.95719 49.365613,39.4537 48.842185,34.52933 C 50.09509,36.23079 52.293008,37.34088 54.766523,37.34088 C 58.649341,37.34088 61.80511,34.58542 61.795399,31.16551 C 61.774833,23.92282 50.922218,18.67209 47.737647,12.94064 z"
   id="path2254"
   style="fill-rule:nonzero;stroke:none;stroke-miterlimit:4" /><use
   transform="matrix(1,0,0,-1,70.670408,242.64527)"
   id="use2202"
   x="0"
   y="0"
   width="167.08643"
   height="242.66748"
   xlink:href="#path2254" /><use
   transform="matrix(1,0,0,-1,-2.4976803e-6,242.64527)"
   id="use2204"
   x="0"
   y="0"
   width="167.08643"
   height="242.66748"
   xlink:href="#path2254" /><use
   transform="matrix(1,0,0,-1,35.805568,196.72503)"
   id="use2206"
   x="0"
   y="0"
   width="167.08643"
   height="242.66748"
   xlink:href="#path2254" /><use
   transform="translate(70.670408,0)"
   id="use2208"
   x="0"
   y="0"
   width="167.08643"
   height="242.66748"
   xlink:href="#path2254" /><use
   transform="translate(-34.864836,45.931345)"
   id="use2210"
   x="0"
   y="0"
   width="167.08643"
   height="242.66748"
   xlink:href="#use2208" /><use
   transform="translate(-35.805571,45.931345)"
   id="use2212"
   x="0"
   y="0"
   width="167.08643"
   height="242.66748"
   xlink:href="#use2210" /><use
   transform="translate(70.670408,0)"
   id="use2214"
   x="0"
   y="0"
   width="167.08643"
   height="242.66748"
   xlink:href="#use2212" /></svg>