<?xml version="1.0" encoding="UTF-8" standalone="no"?>
<!-- Created with Inkscape (http://www.inkscape.org/) -->
<svg
   xmlns:svg="http://www.w3.org/2000/svg"
   xmlns="http://www.w3.org/2000/svg"
   xmlns:xlink="http://www.w3.org/1999/xlink"
   version="1.0"
   width="208"
   height="303"
   viewBox="0 0 167.08643 242.66748"
   id="svg2"
   xml:space="preserve"><defs
   id="defs88" />
	
<use
   transform="matrix(1,0,0,-1,0,242.64527)"
   id="use2597"
   x="0"
   y="0"
   width="167.08643"
   height="242.66748"
   xlink:href="#path2242" /><path
   d="M 118.33305,12.946052 C 114.53529,12.946052 111.45805,16.023292 111.45805,19.821052 C 111.45805,21.781212 112.29128,23.542528 113.60805,24.796048 C 114.6256,25.764708 116.07522,27.960278 116.55805,29.721048 C 115.61623,29.153458 114.76787,28.506588 114.25805,27.971048 C 113.00453,26.654268 111.2432,25.846048 109.28305,25.846048 C 105.48529,25.846048 102.40805,28.923288 102.40805,32.721048 C 102.40805,36.518808 105.48529,39.596048 109.28305,39.596048 C 111.24321,39.596048 113.00453,38.762828 114.25805,37.446048 C 114.7956,36.881358 115.70432,36.166848 116.70805,35.571048 C 116.56726,41.876198 114.40335,45.996048 110.45805,45.996048 C 110.45805,45.996048 126.23305,45.996048 126.23305,45.996048 C 122.27724,45.996048 120.08828,41.854618 119.95805,35.521048 C 121.01621,36.128398 121.99981,36.859628 122.55805,37.446048 C 123.81156,38.762828 125.57292,39.596048 127.53305,39.596048 C 131.33077,39.596048 134.40805,36.518808 134.40805,32.721048 C 134.40805,28.923288 131.33077,25.846048 127.53305,25.846048 C 125.57292,25.846048 123.81156,26.654268 122.55805,27.971048 C 122.02723,28.528658 121.10529,29.189938 120.10805,29.771048 C 120.57579,28.001618 122.05536,25.774388 123.08305,24.796048 C 124.39983,23.542528 125.20805,21.781202 125.20805,19.821052 C 125.20805,16.023292 122.13081,12.946052 118.33305,12.946052 z"
   id="path2841"
   style="fill:#000000;fill-opacity:1;stroke:none;stroke-width:1.5;stroke-linecap:round;stroke-linejoin:round;stroke-miterlimit:4;stroke-opacity:1" /><path
   d="M 47.662646,12.94605 C 43.864886,12.94605 40.787645,16.02329 40.787647,19.82105 C 40.787647,21.78121 41.620871,23.54253 42.937646,24.79605 C 43.95519,25.76471 45.404814,27.96028 45.887646,29.72105 C 44.945822,29.15346 44.097462,28.50659 43.587646,27.97105 C 42.334125,26.65427 40.572798,25.84605 38.612646,25.84605 C 34.814885,25.84605 31.737646,28.92329 31.737646,32.72105 C 31.737646,36.51881 34.814887,39.59605 38.612646,39.59605 C 40.572806,39.59605 42.334126,38.76283 43.587646,37.44605 C 44.125198,36.88136 45.033918,36.16685 46.037646,35.57105 C 45.896854,41.8762 43.732942,45.99605 39.787647,45.99605 C 39.787647,45.99605 55.562646,45.99605 55.562646,45.99605 C 51.606838,45.99605 49.417878,41.85462 49.287646,35.52105 C 50.345806,36.1284 51.329406,36.85963 51.887646,37.44605 C 53.14115,38.76283 54.90251,39.59605 56.862646,39.59605 C 60.660366,39.59605 63.737646,36.51881 63.737646,32.72105 C 63.737646,28.92329 60.660366,25.84605 56.862646,25.84605 C 54.902518,25.84605 53.14115,26.65427 51.887646,27.97105 C 51.356822,28.52866 50.434886,29.18994 49.437646,29.77105 C 49.905382,28.00162 51.38495,25.77439 52.412646,24.79605 C 53.729422,23.54253 54.537646,21.7812 54.537646,19.82105 C 54.537646,16.02329 51.460406,12.94605 47.662646,12.94605 z"
   id="path2242"
   style="fill:#000000;fill-opacity:1;stroke:none;stroke-width:1.5;stroke-linecap:round;stroke-linejoin:round;stroke-miterlimit:4;stroke-opacity:1" /><use
   transform="translate(0,91.86269)"
   id="use3293"
   x="0"
   y="0"
   width="167.08643"
   height="242.66748"
   xlink:href="#path2242" /><use
   transform="matrix(1,0,0,-1,0,242.64527)"
   id="use3214"
   x="0"
   y="0"
   width="167.08643"
   height="242.66748"
   xlink:href="#path2841" /><use
   transform="translate(70.670404,91.86269)"
   id="use4073"
   x="0"
   y="0"
   width="167.08643"
   height="242.66748"
   xlink:href="#path2242" /><use
   transform="translate(35.805569,45.931345)"
   id="use4423"
   x="0"
   y="0"
   width="167.08643"
   height="242.66748"
   xlink:href="#path2242" /><use
   transform="matrix(1,0,0,-1,35.805569,196.72503)"
   id="use4928"
   x="0"
   y="0"
   width="167.08643"
   height="242.66748"
   xlink:href="#path2242" /></svg>