<?xml version="1.0" encoding="UTF-8" standalone="no"?>
<!-- Created with Inkscape (http://www.inkscape.org/) -->
<svg
   xmlns:svg="http://www.w3.org/2000/svg"
   xmlns="http://www.w3.org/2000/svg"
   xmlns:xlink="http://www.w3.org/1999/xlink"
   version="1.0"
   width="208"
   height="303"
   viewBox="0 0 167.08643 242.66748"
   id="svg2"
   xml:space="preserve"><defs
   id="defs88" />
	
<path
   d="M 47.737644,13.605877 C 47.711529,14.501687 47.179897,17.861187 41.386553,23.421197 C 35.810889,28.772317 33.207229,29.414707 32.424739,29.471057 C 33.207229,29.527397 35.810889,30.169807 41.386553,35.520907 C 47.179897,41.080917 47.711529,44.440407 47.737644,45.336227 C 47.763766,44.440417 48.295393,41.080927 54.088735,35.520907 C 59.664407,30.169797 62.268058,29.527387 63.050552,29.471057 C 62.268058,29.414717 59.664408,28.772307 54.088735,23.421197 C 48.295393,17.861197 47.763766,14.501697 47.737644,13.605877 z"
   id="path2243"
   style="fill:#e61408;fill-opacity:1;stroke:none;stroke-width:1.49999988;stroke-linecap:round;stroke-linejoin:round;stroke-miterlimit:4;stroke-dasharray:none;stroke-opacity:1" /><use
   transform="translate(70.6704,-9.9999998e-7)"
   id="use2200"
   x="0"
   y="0"
   width="167.08643"
   height="242.66748"
   xlink:href="#path2243" /><use
   transform="translate(-70.670404,61.234391)"
   id="use2202"
   x="0"
   y="0"
   width="167.08643"
   height="242.66748"
   xlink:href="#use2200" /><use
   transform="translate(70.6704,-3e-6)"
   id="use2204"
   x="0"
   y="0"
   width="167.08643"
   height="242.66748"
   xlink:href="#use2202" /><use
   transform="translate(-34.864834,30.628301)"
   id="use2206"
   x="0"
   y="0"
   width="167.08643"
   height="242.66748"
   xlink:href="#use2204" /><use
   transform="translate(-35.805569,30.60609)"
   id="use2208"
   x="0"
   y="0"
   width="167.08643"
   height="242.66748"
   xlink:href="#use2206" /><use
   transform="translate(69.4683,-1.9419742e-6)"
   id="use2210"
   x="0"
   y="0"
   width="167.08643"
   height="242.66748"
   xlink:href="#use2208" /><use
   transform="translate(-69.4683,61.23439)"
   id="use2212"
   x="0"
   y="0"
   width="167.08643"
   height="242.66748"
   xlink:href="#use2210" /><use
   transform="translate(70.6704,9.9999993e-7)"
   id="use2214"
   x="0"
   y="0"
   width="167.08643"
   height="242.66748"
   xlink:href="#use2212" /></svg>