<?xml version="1.0" encoding="UTF-8" standalone="no"?>
<!-- Created with Inkscape (http://www.inkscape.org/) -->
<svg
   xmlns:svg="http://www.w3.org/2000/svg"
   xmlns="http://www.w3.org/2000/svg"
   xmlns:xlink="http://www.w3.org/1999/xlink"
   version="1.0"
   width="208"
   height="303"
   viewBox="0 0 167.08643 242.66748"
   id="svg2"
   xml:space="preserve"><defs
   id="defs88" />
	
<path
   d="M 47.737641,12.940642 C 44.553071,18.672092 33.700461,23.922822 33.679891,31.165512 C 33.670181,34.585422 36.825951,37.340882 40.708771,37.340882 C 43.182281,37.340882 45.380211,36.230792 46.633111,34.529332 C 46.109681,39.453702 44.705721,44.957192 39.579131,46.001462 L 47.737641,46.001462 L 55.896161,46.001462 C 50.769581,44.957192 49.365611,39.453702 48.842181,34.529332 C 50.095091,36.230792 52.293011,37.340882 54.766521,37.340882 C 58.649341,37.340882 61.805111,34.585422 61.795401,31.165512 C 61.774831,23.922822 50.922221,18.672092 47.737641,12.940642 z"
   id="path2254"
   style="fill-rule:nonzero;stroke:none;stroke-miterlimit:4" /><use
   transform="matrix(1,0,0,-1,70.670399,242.64527)"
   id="use2203"
   x="0"
   y="0"
   width="167.08643"
   height="242.66748"
   xlink:href="#path2254" /><use
   transform="matrix(1,0,0,-1,-1e-6,242.64527)"
   id="use2205"
   x="0"
   y="0"
   width="167.08643"
   height="242.66748"
   xlink:href="#path2254" /><use
   transform="matrix(1,0,0,-1,69.468299,181.41088)"
   id="use2207"
   x="0"
   y="0"
   width="167.08643"
   height="242.66748"
   xlink:href="#path2254" /><use
   transform="matrix(1,0,0,-1,-1e-6,181.41088)"
   id="use2209"
   x="0"
   y="0"
   width="167.08643"
   height="242.66748"
   xlink:href="#path2254" /><use
   transform="translate(35.805569,91.862688)"
   id="use2211"
   x="0"
   y="0"
   width="167.08643"
   height="242.66748"
   xlink:href="#path2254" /><use
   transform="translate(70.670399,61.234387)"
   id="use2213"
   x="0"
   y="0"
   width="167.08643"
   height="242.66748"
   xlink:href="#path2254" /><use
   transform="translate(-1e-6,61.23439)"
   id="use2215"
   x="0"
   y="0"
   width="167.08643"
   height="242.66748"
   xlink:href="#path2254" /><use
   transform="translate(70.670399,-2e-6)"
   id="use2217"
   x="0"
   y="0"
   width="167.08643"
   height="242.66748"
   xlink:href="#path2254" /></svg>