<?xml version="1.0" encoding="UTF-8" standalone="no"?>
<!-- Created with Inkscape (http://www.inkscape.org/) -->
<svg
   xmlns:svg="http://www.w3.org/2000/svg"
   xmlns="http://www.w3.org/2000/svg"
   xmlns:xlink="http://www.w3.org/1999/xlink"
   version="1.0"
   width="208"
   height="303"
   viewBox="0 0 167.08643 242.66748"
   id="svg2"
   xml:space="preserve"><defs
   id="defs88" />
	
<path
   d="M 75.67338,105.19244 C 71.36577,105.20171 67.86293,108.88359 67.89141,113.40116 C 67.95181,122.98076 79.98379,129.90867 83.53066,137.47506 C 87.07754,129.90867 99.13463,122.98076 99.19502,113.40116 C 99.2235,108.88359 95.72066,105.20171 91.41305,105.19244 C 87.10543,105.18364 83.54336,108.84969 83.53066,113.37606 C 83.51797,108.84969 79.981,105.18364 75.67338,105.19244 z"
   id="path2170"
   style="fill:#e61408;fill-rule:nonzero;stroke:none;stroke-miterlimit:4" /><use
   transform="translate(-35.80557,-91.862688)"
   id="use2200"
   x="0"
   y="0"
   width="167.08643"
   height="242.66748"
   xlink:href="#path2170" /><use
   transform="translate(70.670399,-9.0478058e-7)"
   id="use2202"
   x="0"
   y="0"
   width="167.08643"
   height="242.66748"
   xlink:href="#use2200" /><use
   transform="translate(-70.670405,61.234391)"
   id="use2204"
   x="0"
   y="0"
   width="167.08643"
   height="242.66748"
   xlink:href="#use2202" /><use
   transform="translate(70.670399,-3.0047806e-6)"
   id="use2206"
   x="0"
   y="0"
   width="167.08643"
   height="242.66748"
   xlink:href="#use2204" /><path
   d="M 110.53821,229.31552 C 106.23061,229.30625 102.72777,225.62437 102.75624,221.1068 C 102.81664,211.5272 114.84863,204.59929 118.3955,197.0329 C 121.94238,204.59929 133.99946,211.5272 134.05986,221.1068 C 134.08834,225.62437 130.58549,229.30625 126.27789,229.31552 C 121.97027,229.32432 118.4082,225.65827 118.3955,221.1319 C 118.38281,225.65827 114.84583,229.32432 110.53821,229.31552 z"
   id="use2214"
   style="fill:#e61408;fill-rule:nonzero;stroke:none;stroke-miterlimit:4" /><use
   transform="matrix(1,0,0,-1,-35.805569,334.50796)"
   id="use2222"
   x="0"
   y="0"
   width="167.08643"
   height="242.66748"
   xlink:href="#path2170" /><use
   transform="matrix(1,0,0,-1,33.662732,273.27357)"
   id="use2224"
   x="0"
   y="0"
   width="167.08643"
   height="242.66748"
   xlink:href="#path2170" /><use
   transform="matrix(1,0,0,-1,-35.805569,273.27357)"
   id="use2226"
   x="0"
   y="0"
   width="167.08643"
   height="242.66748"
   xlink:href="#path2170" /></svg>