<?xml version="1.0" encoding="UTF-8" standalone="no"?>
<!-- Created with Inkscape (http://www.inkscape.org/) -->
<svg
   xmlns:svg="http://www.w3.org/2000/svg"
   xmlns="http://www.w3.org/2000/svg"
   xmlns:xlink="http://www.w3.org/1999/xlink"
   version="1.0"
   width="208"
   height="303"
   viewBox="0 0 167.08643 242.66748"
   id="svg2"
   xml:space="preserve"><defs
   id="defs88" />
	
<use
   transform="matrix(1,0,0,-1,0,242.64527)"
   id="use2597"
   x="0"
   y="0"
   width="167.08643"
   height="242.66748"
   xlink:href="#path2242" /><path
   d="M 47.662646,12.946052 C 43.864886,12.946052 40.787645,16.023292 40.787647,19.821052 C 40.787647,21.781212 41.620871,23.542532 42.937646,24.796052 C 43.95519,25.764712 45.404814,27.960282 45.887646,29.721052 C 44.945822,29.153462 44.097462,28.506592 43.587646,27.971052 C 42.334125,26.654272 40.572798,25.846052 38.612646,25.846052 C 34.814885,25.846052 31.737646,28.923292 31.737646,32.721052 C 31.737646,36.518812 34.814887,39.596052 38.612646,39.596052 C 40.572806,39.596052 42.334126,38.762832 43.587646,37.446052 C 44.125198,36.881362 45.033918,36.166852 46.037646,35.571052 C 45.896854,41.876202 43.732942,45.996052 39.787647,45.996052 C 39.787647,45.996052 55.562646,45.996052 55.562646,45.996052 C 51.606838,45.996052 49.417878,41.854622 49.287646,35.521052 C 50.345806,36.128402 51.329406,36.859632 51.887646,37.446052 C 53.14115,38.762832 54.90251,39.596052 56.862646,39.596052 C 60.660366,39.596052 63.737646,36.518812 63.737646,32.721052 C 63.737646,28.923292 60.660366,25.846052 56.862646,25.846052 C 54.902518,25.846052 53.14115,26.654272 51.887646,27.971052 C 51.356822,28.528662 50.434886,29.189942 49.437646,29.771052 C 49.905382,28.001622 51.38495,25.774392 52.412646,24.796052 C 53.729422,23.542532 54.537646,21.781202 54.537646,19.821052 C 54.537646,16.023292 51.460406,12.946052 47.662646,12.946052 z"
   id="path2242"
   style="fill:#000000;fill-opacity:1;stroke:none;stroke-width:1.5;stroke-linecap:round;stroke-linejoin:round;stroke-miterlimit:4;stroke-opacity:1" /><use
   transform="translate(0,61.23439)"
   id="use3293"
   x="0"
   y="0"
   width="167.08643"
   height="242.66748"
   xlink:href="#path2242" /><path
   d="M 118.33305,12.946053 C 114.53529,12.946053 111.45805,16.023293 111.45805,19.821053 C 111.45805,21.781213 112.29128,23.542529 113.60805,24.796049 C 114.6256,25.764709 116.07522,27.960279 116.55805,29.721049 C 115.61623,29.153459 114.76787,28.506589 114.25805,27.971049 C 113.00453,26.654269 111.2432,25.846049 109.28305,25.846049 C 105.48529,25.846049 102.40805,28.923289 102.40805,32.721049 C 102.40805,36.518809 105.48529,39.596049 109.28305,39.596049 C 111.24321,39.596049 113.00453,38.762829 114.25805,37.446049 C 114.7956,36.881359 115.70432,36.166849 116.70805,35.571049 C 116.56726,41.876199 114.40335,45.996049 110.45805,45.996049 C 110.45805,45.996049 126.23305,45.996049 126.23305,45.996049 C 122.27724,45.996049 120.08828,41.854619 119.95805,35.521049 C 121.01621,36.128399 121.99981,36.859629 122.55805,37.446049 C 123.81156,38.762829 125.57292,39.596049 127.53305,39.596049 C 131.33077,39.596049 134.40805,36.518809 134.40805,32.721049 C 134.40805,28.923289 131.33077,25.846049 127.53305,25.846049 C 125.57292,25.846049 123.81156,26.654269 122.55805,27.971049 C 122.02723,28.528659 121.10529,29.189939 120.10805,29.771049 C 120.57579,28.001619 122.05536,25.774389 123.08305,24.796049 C 124.39983,23.542529 125.20805,21.781203 125.20805,19.821053 C 125.20805,16.023293 122.13081,12.946053 118.33305,12.946053 z"
   id="path2841"
   style="fill:#000000;fill-opacity:1;stroke:none;stroke-width:1.5;stroke-linecap:round;stroke-linejoin:round;stroke-miterlimit:4;stroke-opacity:1" /><use
   transform="translate(70.670404,61.234387)"
   id="use4073"
   x="0"
   y="0"
   width="167.08643"
   height="242.66748"
   xlink:href="#path2242" /><g
   id="g6118"><use
     transform="matrix(1,0,0,-1,0,242.64527)"
     id="use3214"
     x="0"
     y="0"
     width="167.08643"
     height="242.66748"
     xlink:href="#path2841" /><use
     transform="matrix(1,0,0,-1,69.468301,181.41088)"
     id="use5481"
     x="0"
     y="0"
     width="167.08643"
     height="242.66748"
     xlink:href="#path2242" /></g><use
   transform="translate(-69.468301,1.9419742e-6)"
   id="use5483"
   x="0"
   y="0"
   width="167.08643"
   height="242.66748"
   xlink:href="#use5481" /><use
   transform="translate(35.805569,30.617194)"
   id="use5485"
   x="0"
   y="0"
   width="167.08643"
   height="242.66748"
   xlink:href="#path2242" /><use
   transform="matrix(1,0,0,-1,35.805569,212.02807)"
   id="use6114"
   x="0"
   y="0"
   width="167.08643"
   height="242.66748"
   xlink:href="#path2242" /></svg>