<?xml version="1.0" encoding="UTF-8" standalone="no"?>
<!-- Created with Inkscape (http://www.inkscape.org/) -->
<svg
   xmlns:svg="http://www.w3.org/2000/svg"
   xmlns="http://www.w3.org/2000/svg"
   xmlns:xlink="http://www.w3.org/1999/xlink"
   version="1.0"
   width="208"
   height="303"
   viewBox="0 0 167.08643 242.66748"
   id="svg2"
   xml:space="preserve"><defs
   id="defs88" />
	
<path
   d="M 39.867818,13.32975 C 35.560203,13.33902 32.057363,17.0209 32.085843,21.53847 C 32.146243,31.11807 44.178222,38.04598 47.725097,45.61237 C 51.271972,38.04598 63.329059,31.11807 63.389449,21.53847 C 63.417931,17.0209 59.915095,13.33902 55.607479,13.32975 C 51.299863,13.32095 47.737789,16.987 47.725097,21.51337 C 47.712405,16.987 44.175434,13.32095 39.867818,13.32975 z"
   id="path2170"
   style="fill:#e61408;fill-rule:nonzero;stroke:none;stroke-miterlimit:4" /><use
   transform="translate(70.670407,-9.0478055e-7)"
   id="use2204"
   x="0"
   y="0"
   width="167.08643"
   height="242.66748"
   xlink:href="#path2170" /><use
   transform="translate(-34.864837,30.617195)"
   id="use2206"
   x="0"
   y="0"
   width="167.08643"
   height="242.66748"
   xlink:href="#use2204" /><use
   transform="translate(-35.805572,30.617196)"
   id="use2208"
   x="0"
   y="0"
   width="167.08643"
   height="242.66748"
   xlink:href="#use2206" /><use
   transform="translate(70.670407,-2.9047806e-6)"
   id="use2210"
   x="0"
   y="0"
   width="167.08643"
   height="242.66748"
   xlink:href="#use2208" /><use
   transform="matrix(1,0,0,-1,70.670404,242.64527)"
   id="use2212"
   x="0"
   y="0"
   width="167.08643"
   height="242.66748"
   xlink:href="#path2170" /><use
   transform="matrix(1,0,0,-1,-1.2165483e-8,242.64527)"
   id="use2216"
   x="0"
   y="0"
   width="167.08643"
   height="242.66748"
   xlink:href="#path2170" /><use
   transform="matrix(1,0,0,-1,35.805569,212.02807)"
   id="use2218"
   x="0"
   y="0"
   width="167.08643"
   height="242.66748"
   xlink:href="#path2170" /><use
   transform="matrix(1,0,0,-1,-1.2165488e-8,181.41088)"
   id="use2220"
   x="0"
   y="0"
   width="167.08643"
   height="242.66748"
   xlink:href="#path2170" /><use
   transform="matrix(1,0,0,-1,69.468301,181.41088)"
   id="use2222"
   x="0"
   y="0"
   width="167.08643"
   height="242.66748"
   xlink:href="#path2170" /></svg>