<?xml version="1.0" encoding="UTF-8" standalone="no"?>
<!-- Created with Inkscape (http://www.inkscape.org/) -->
<svg
   xmlns:svg="http://www.w3.org/2000/svg"
   xmlns="http://www.w3.org/2000/svg"
   xmlns:xlink="http://www.w3.org/1999/xlink"
   version="1.0"
   width="208"
   height="303"
   viewBox="0 0 167.08643 242.66748"
   id="svg2"
   xml:space="preserve"><defs
   id="defs88" />
	
<path
   d="M 47.73765,13.605876 C 47.71153,14.501686 47.1799,17.861186 41.38655,23.421196 C 35.81089,28.772316 33.20723,29.414706 32.42474,29.471056 C 33.20723,29.527396 35.81089,30.169806 41.38655,35.520907 C 47.1799,41.080917 47.71153,44.440407 47.73765,45.336227 C 47.76377,44.440417 48.29539,41.080927 54.088736,35.520907 C 59.664408,30.169796 62.268059,29.527386 63.050553,29.471056 C 62.268059,29.414716 59.664409,28.772306 54.088736,23.421196 C 48.29539,17.861196 47.76377,14.501697 47.73765,13.605876 z"
   id="path2243"
   style="fill:#e61408;fill-opacity:1;stroke:none;stroke-width:1.49999988;stroke-linecap:round;stroke-linejoin:round;stroke-miterlimit:4;stroke-dasharray:none;stroke-opacity:1" /><path
   d="M 118.40805,13.605877 C 118.38193,14.501687 117.8503,17.861187 112.05695,23.421197 C 106.48129,28.772317 103.87763,29.414707 103.09514,29.471057 C 103.87763,29.527397 106.48129,30.169807 112.05695,35.520908 C 117.8503,41.080918 118.38193,44.440408 118.40805,45.336228 C 118.43417,44.440418 118.96579,41.080928 124.75914,35.520908 C 130.33481,30.169797 132.93846,29.527387 133.72095,29.471057 C 132.93846,29.414717 130.33481,28.772307 124.75914,23.421197 C 118.96579,17.861197 118.43417,14.501697 118.40805,13.605877 z"
   id="use2206"
   style="fill:#e61408;fill-opacity:1;stroke:none;stroke-width:1.49999988;stroke-linecap:round;stroke-linejoin:round;stroke-miterlimit:4;stroke-dasharray:none;stroke-opacity:1" /><use
   transform="translate(-34.864834,30.617195)"
   id="use2208"
   x="0"
   y="0"
   width="167.08643"
   height="242.66748"
   xlink:href="#use2206" /><use
   transform="translate(-35.805569,30.617196)"
   id="use2210"
   x="0"
   y="0"
   width="167.08643"
   height="242.66748"
   xlink:href="#use2208" /><use
   transform="translate(70.6704,-3e-6)"
   id="use2212"
   x="0"
   y="0"
   width="167.08643"
   height="242.66748"
   xlink:href="#use2210" /><use
   transform="translate(-70.670404,61.23439)"
   id="use2214"
   x="0"
   y="0"
   width="167.08643"
   height="242.66748"
   xlink:href="#use2212" /><use
   transform="translate(69.4683,-1.4419742e-6)"
   id="use2216"
   x="0"
   y="0"
   width="167.08643"
   height="242.66748"
   xlink:href="#use2214" /><use
   transform="translate(-33.662731,30.61719)"
   id="use2218"
   x="0"
   y="0"
   width="167.08643"
   height="242.66748"
   xlink:href="#use2216" /><use
   transform="translate(-35.805569,30.617196)"
   id="use2220"
   x="0"
   y="0"
   width="167.08643"
   height="242.66748"
   xlink:href="#use2218" /><use
   transform="translate(70.6704,-3.5000001e-6)"
   id="use2222"
   x="0"
   y="0"
   width="167.08643"
   height="242.66748"
   xlink:href="#use2220" /></svg>