<?xml version="1.0" encoding="UTF-8" standalone="no"?>
<!-- Created with Inkscape (http://www.inkscape.org/) -->
<svg
   xmlns:dc="http://purl.org/dc/elements/1.1/"
   xmlns:cc="http://web.resource.org/cc/"
   xmlns:rdf="http://www.w3.org/1999/02/22-rdf-syntax-ns#"
   xmlns:svg="http://www.w3.org/2000/svg"
   xmlns="http://www.w3.org/2000/svg"
   xmlns:sodipodi="http://sodipodi.sourceforge.net/DTD/sodipodi-0.dtd"
   xmlns:inkscape="http://www.inkscape.org/namespaces/inkscape"
   id="svg6000"
   sodipodi:version="0.32"
   inkscape:version="0.44.1"
   width="228.93703"
   height="451.31046"
   version="1.0"
   sodipodi:docbase="D:\_petr_\School\INKSCAPE\svg\05.Ovoce, zelenina, jidlo"
   sodipodi:docname="boruvka.svg"
   inkscape:export-filename="/media/KINGSTON/inkscape/9.c/J.Murin/ovoce,zelenina/boruvka.png"
   inkscape:export-xdpi="90"
   inkscape:export-ydpi="90">
  <metadata
     id="metadata6005">
    <rdf:RDF>
      <cc:Work
         rdf:about="">
        <dc:format>image/svg+xml</dc:format>
        <dc:type
           rdf:resource="http://purl.org/dc/dcmitype/StillImage" />
        <dc:title>boruvka</dc:title>
        <dc:creator>
          <cc:Agent>
            <dc:title>Murin Jan</dc:title>
          </cc:Agent>
        </dc:creator>
        <dc:publisher>
          <cc:Agent>
            <dc:title>ZS a MS Machovo nam.</dc:title>
          </cc:Agent>
        </dc:publisher>
        <dc:language>cz</dc:language>
        <dc:subject>
          <rdf:Bag>
            <rdf:li>boruvka</rdf:li>
            <rdf:li>blueberry</rdf:li>
          </rdf:Bag>
        </dc:subject>
        <cc:license
           rdf:resource="http://web.resource.org/cc/PublicDomain" />
      </cc:Work>
      <cc:License
         rdf:about="http://web.resource.org/cc/PublicDomain">
        <cc:permits
           rdf:resource="http://web.resource.org/cc/Reproduction" />
        <cc:permits
           rdf:resource="http://web.resource.org/cc/Distribution" />
        <cc:permits
           rdf:resource="http://web.resource.org/cc/DerivativeWorks" />
      </cc:License>
    </rdf:RDF>
  </metadata>
  <defs
     id="defs6003" />
  <sodipodi:namedview
     inkscape:window-height="710"
     inkscape:window-width="1024"
     inkscape:pageshadow="2"
     inkscape:pageopacity="0.0"
     guidetolerance="10.0"
     gridtolerance="10.0"
     objecttolerance="10.0"
     borderopacity="1.0"
     bordercolor="#666666"
     pagecolor="#ffffff"
     id="base"
     inkscape:zoom="0.84151786"
     inkscape:cx="305.45961"
     inkscape:cy="242.01962"
     inkscape:window-x="0"
     inkscape:window-y="0"
     inkscape:current-layer="svg6000" />
  <path
     style="fill:#4b8f1d;fill-opacity:1;fill-rule:evenodd;stroke:black;stroke-width:1px;stroke-linecap:butt;stroke-linejoin:miter;stroke-opacity:1"
     d="M 125.95887,448.28963 C 127.88373,420.17778 136.31495,388.20537 118.81838,363.1903 C 99.665096,341.54184 103.02903,310.69132 94.727646,284.67339 C 90.388416,266.85204 85.832906,249.07639 80.584016,231.49857 C 87.208296,210.6011 108.79886,200.74387 121.5566,184.21532 C 129.25204,174.53195 152.1701,160.49768 130.89406,153.73767 C 121.3071,167.60441 111.90029,183.15969 96.557896,191.45893 C 91.448026,200.20517 77.326196,217.25046 75.664776,197.1783 C 77.039896,186.65063 70.006386,164.88812 59.054386,182.05789 C 62.569106,200.73508 69.403146,220.22276 68.497466,239.94967 C 71.606106,257.79662 81.614726,274.26426 81.541726,293.31592 C 84.544786,318.85365 91.603446,343.69827 102.79461,366.8581 C 110.31475,380.15817 111.15743,395.00325 110.7373,409.91154 C 110.91805,423.54381 110.82191,437.17749 110.83392,450.81045 C 115.87557,449.9702 120.91722,449.1299 125.95887,448.28963 z "
     id="path6032" />
  <g
     id="g2901"
     transform="translate(-253.2937,3.158504)">
    <path
       id="path6028"
       d="M 330.94958,171.11935 C 340.71046,163.82107 350.6679,155.09518 352.40669,142.30166 C 357.27415,125.83041 355.21764,104.93203 340.25061,94.249554 C 332.38759,88.296801 323.65642,83.273653 314.63299,79.416 C 302.80913,77.192471 290.9565,81.90806 280.10794,86.117598 C 265.15274,93.743227 255.95958,109.94575 253.82011,126.18605 C 253.19921,144.89671 263.56493,164.10017 279.86579,173.39037 C 295.88374,181.3319 315.63788,180.19105 330.94958,171.11935 z "
       style="fill:#6c78b3;fill-opacity:1;fill-rule:evenodd;stroke:black;stroke-width:1px;stroke-linecap:butt;stroke-linejoin:miter;stroke-opacity:1" />
    <path
       id="path6030"
       d="M 269.1565,93.283819 L 266.77984,101.00796 L 269.1565,104.57294 L 295.29973,104.57294 L 314.313,98.037135 L 326.19629,90.312997 L 326.19629,86.153846 L 319.66048,81.40053 C 319.66048,81.40053 307.18302,79.023872 303.61804,79.023872 C 300.05305,79.023872 280.44562,87.342175 280.44562,87.342175 L 269.1565,93.283819 z "
       style="fill:#6371a0;fill-opacity:1;fill-rule:evenodd;stroke:black;stroke-width:1px;stroke-linecap:butt;stroke-linejoin:miter;stroke-opacity:1" />
  </g>
  <g
     id="g2895"
     transform="translate(-266.3653,9.100148)">
    <path
       id="path6009"
       d="M 447.02652,59.936918 C 412.97889,59.28608 382.08508,89.485046 383.56263,123.88162 C 383.79782,161.58323 432.84698,180.86599 462.70763,162.76616 C 488.09451,149.50333 503.46255,116.59757 489.55022,89.910267 C 482.09258,72.96137 465.0331,62.286813 447.02652,59.936918 z "
       style="fill:#6c78b3;fill-opacity:1;fill-rule:evenodd;stroke:black;stroke-width:1px;stroke-linecap:butt;stroke-linejoin:miter;stroke-opacity:1" />
    <path
       sodipodi:nodetypes="cssssscssc"
       id="path6011"
       d="M 481.05769,87.941977 C 481.05769,87.941977 467.61328,71.976744 464.67231,71.136468 C 461.73135,70.296193 454.58901,67.775367 452.90846,68.615642 C 451.22791,69.455917 447.44667,71.136468 446.18625,75.757983 C 444.92584,80.379498 449.54736,93.403767 451.22791,95.504456 C 452.90846,97.605144 465.51259,111.04955 467.61328,111.04955 C 469.71397,111.04955 481.47782,112.7301 481.47782,112.7301 C 481.47782,112.7301 485.6792,106.84817 485.6792,102.6468 C 485.6792,98.44542 485.6792,98.025282 484.41879,94.244043 C 483.15837,90.462803 481.47782,87.521839 481.05769,87.941977 z "
       style="fill:#3b3d6d;fill-opacity:1;fill-rule:evenodd;stroke:black;stroke-width:1px;stroke-linecap:butt;stroke-linejoin:miter;stroke-opacity:1" />
    <path
       sodipodi:nodetypes="cccccsssc"
       id="path6013"
       d="M 456.6897,80.799636 L 454.16887,87.101702 L 458.37025,95.084318 L 469.71397,107.26831 L 478.53686,107.26831 C 478.53686,107.26831 480.21741,105.58776 480.21741,102.22666 C 480.21741,98.865558 480.63755,96.764869 477.69658,93.403767 C 474.75562,90.042666 470.97438,84.160738 465.93273,82.060049 C 460.89107,79.95936 458.37025,77.858672 456.6897,80.799636 z "
       style="fill:#2d324f;fill-opacity:1;fill-rule:evenodd;stroke:black;stroke-width:1px;stroke-linecap:butt;stroke-linejoin:miter;stroke-opacity:1" />
    <path
       id="path6015"
       d="M 464.67231,92.563492 L 465.93273,97.185007 L 470.55424,97.185007 L 468.87369,93.403767 L 464.67231,92.563492 z "
       style="fill:#131418;fill-opacity:1;fill-rule:evenodd;stroke:black;stroke-width:1px;stroke-linecap:butt;stroke-linejoin:miter;stroke-opacity:1" />
  </g>
  <path
     style="fill:#4b8f1d;fill-opacity:1;fill-rule:evenodd;stroke:black;stroke-width:1px;stroke-linecap:butt;stroke-linejoin:miter;stroke-opacity:1"
     d="M 115.87559,189.48479 C 130.02111,191.95415 146.86867,191.71853 157.3774,180.4234 C 165.22167,177.30096 175.32529,180.59348 183.44493,183.07739 C 204.73144,190.87343 218.66509,211.64215 223.00601,233.25313 C 229.79026,263.0506 222.06644,293.31471 216.5522,322.62751 C 216.6851,329.66429 207.14319,325.91957 202.43329,326.45844 C 189.04472,325.18093 176.22737,320.48329 164.25253,314.53266 C 152.17343,303.64374 139.86624,289.61188 122.34183,289.08222 C 106.80288,286.27779 90.475716,276.30365 87.104146,259.82527 C 86.789666,253.26478 83.444706,247.3085 83.420366,240.65621 C 82.428456,226.67953 89.497876,212.72311 100.95305,204.78044 C 105.92527,199.68041 111.1511,194.82236 115.87559,189.48479 z "
     id="path6034" />
  <path
     style="fill:none;fill-rule:evenodd;stroke:black;stroke-width:1px;stroke-linecap:butt;stroke-linejoin:miter;stroke-opacity:1"
     d="M 113.35475,202.08892 C 118.3964,206.29029 171.33376,263.42902 171.33376,263.42902 L 199.90312,312.165"
     id="path6036" />
  <path
     style="fill:#4b8f1d;fill-opacity:1;fill-rule:evenodd;stroke:black;stroke-width:1px;stroke-linecap:butt;stroke-linejoin:miter;stroke-opacity:1"
     d="M 98.229796,188.64452 C 104.80264,145.37142 109.07928,101.79173 114.21125,58.338009 C 115.53723,40.271518 116.70381,21.965546 114.65821,3.94217 C 111.73706,-2.5035595 96.878476,0.57986222 102.31124,9.2310198 C 105.80923,19.908064 108.80855,31.425483 105.55397,42.588227 C 102.19747,64.793224 98.779786,86.990205 95.733796,109.24058 C 97.136546,119.59136 95.898766,130.07237 94.286856,140.27736 C 94.711226,149.95507 89.689676,158.73673 84.256326,166.3574 C 81.406936,176.31158 83.645106,186.77849 82.791716,196.96313 C 83.450716,200.94147 80.293706,213.34152 86.472516,205.943 C 91.482236,200.97748 94.156886,194.30138 98.229796,188.64452 z "
     id="path6039" />
  <g
     id="g2929"
     transform="translate(-258.047,1.970174)">
    <path
       style="fill:#4b8f1d;fill-opacity:1;fill-rule:evenodd;stroke:black;stroke-width:1px;stroke-linecap:butt;stroke-linejoin:miter;stroke-opacity:1"
       d="M 384.00586,446.31946 C 385.93072,418.20761 394.36194,386.2352 376.86537,361.22013 C 357.71209,339.57167 361.07602,308.72115 352.77464,282.70322 C 348.43541,264.88187 343.8799,247.10622 338.63101,229.5284 C 345.25529,208.63093 366.84585,198.7737 379.60359,182.24515 C 387.29903,172.56178 410.21709,158.52751 388.94105,151.7675 C 379.35409,165.63424 369.94728,181.18952 354.60489,189.48876 C 349.49502,198.235 335.37319,215.28029 333.71177,195.20813 C 335.08689,184.68046 328.05338,162.91795 317.10138,180.08772 C 320.6161,198.76491 327.45014,218.25259 326.54446,237.9795 C 329.6531,255.82645 339.66172,272.29409 339.58872,291.34575 C 342.59178,316.88348 349.65044,341.7281 360.8416,364.88793 C 368.36174,378.188 369.20442,393.03308 368.78429,407.94137 C 368.96504,421.57364 368.8689,435.20732 368.88091,448.84028 C 373.92256,448.00003 378.96421,447.15973 384.00586,446.31946 z "
       id="path2905" />
    <g
       id="g2907"
       transform="translate(4.753316,1.18833)">
      <path
         id="path2909"
         d="M 330.94958,171.11935 C 340.71046,163.82107 350.6679,155.09518 352.40669,142.30166 C 357.27415,125.83041 355.21764,104.93203 340.25061,94.249554 C 332.38759,88.296801 323.65642,83.273653 314.63299,79.416 C 302.80913,77.192471 290.9565,81.90806 280.10794,86.117598 C 265.15274,93.743227 255.95958,109.94575 253.82011,126.18605 C 253.19921,144.89671 263.56493,164.10017 279.86579,173.39037 C 295.88374,181.3319 315.63788,180.19105 330.94958,171.11935 z "
         style="fill:#6c78b3;fill-opacity:1;fill-rule:evenodd;stroke:black;stroke-width:1px;stroke-linecap:butt;stroke-linejoin:miter;stroke-opacity:1" />
      <path
         id="path2911"
         d="M 269.1565,93.283819 L 266.77984,101.00796 L 269.1565,104.57294 L 295.29973,104.57294 L 314.313,98.037135 L 326.19629,90.312997 L 326.19629,86.153846 L 319.66048,81.40053 C 319.66048,81.40053 307.18302,79.023872 303.61804,79.023872 C 300.05305,79.023872 280.44562,87.342175 280.44562,87.342175 L 269.1565,93.283819 z "
         style="fill:#6371a0;fill-opacity:1;fill-rule:evenodd;stroke:black;stroke-width:1px;stroke-linecap:butt;stroke-linejoin:miter;stroke-opacity:1" />
    </g>
    <g
       id="g2913"
       transform="translate(-8.318303,7.129974)">
      <path
         id="path2915"
         d="M 447.02652,59.936918 C 412.97889,59.28608 382.08508,89.485046 383.56263,123.88162 C 383.79782,161.58323 432.84698,180.86599 462.70763,162.76616 C 488.09451,149.50333 503.46255,116.59757 489.55022,89.910267 C 482.09258,72.96137 465.0331,62.286813 447.02652,59.936918 z "
         style="fill:#6c78b3;fill-opacity:1;fill-rule:evenodd;stroke:black;stroke-width:1px;stroke-linecap:butt;stroke-linejoin:miter;stroke-opacity:1" />
      <path
         sodipodi:nodetypes="cssssscssc"
         id="path2917"
         d="M 481.05769,87.941977 C 481.05769,87.941977 467.61328,71.976744 464.67231,71.136468 C 461.73135,70.296193 454.58901,67.775367 452.90846,68.615642 C 451.22791,69.455917 447.44667,71.136468 446.18625,75.757983 C 444.92584,80.379498 449.54736,93.403767 451.22791,95.504456 C 452.90846,97.605144 465.51259,111.04955 467.61328,111.04955 C 469.71397,111.04955 481.47782,112.7301 481.47782,112.7301 C 481.47782,112.7301 485.6792,106.84817 485.6792,102.6468 C 485.6792,98.44542 485.6792,98.025282 484.41879,94.244043 C 483.15837,90.462803 481.47782,87.521839 481.05769,87.941977 z "
         style="fill:#3b3d6d;fill-opacity:1;fill-rule:evenodd;stroke:black;stroke-width:1px;stroke-linecap:butt;stroke-linejoin:miter;stroke-opacity:1" />
      <path
         sodipodi:nodetypes="cccccsssc"
         id="path2919"
         d="M 456.6897,80.799636 L 454.16887,87.101702 L 458.37025,95.084318 L 469.71397,107.26831 L 478.53686,107.26831 C 478.53686,107.26831 480.21741,105.58776 480.21741,102.22666 C 480.21741,98.865558 480.63755,96.764869 477.69658,93.403767 C 474.75562,90.042666 470.97438,84.160738 465.93273,82.060049 C 460.89107,79.95936 458.37025,77.858672 456.6897,80.799636 z "
         style="fill:#2d324f;fill-opacity:1;fill-rule:evenodd;stroke:black;stroke-width:1px;stroke-linecap:butt;stroke-linejoin:miter;stroke-opacity:1" />
      <path
         id="path2921"
         d="M 464.67231,92.563492 L 465.93273,97.185007 L 470.55424,97.185007 L 468.87369,93.403767 L 464.67231,92.563492 z "
         style="fill:#131418;fill-opacity:1;fill-rule:evenodd;stroke:black;stroke-width:1px;stroke-linecap:butt;stroke-linejoin:miter;stroke-opacity:1" />
    </g>
    <path
       style="fill:#4b8f1d;fill-opacity:1;fill-rule:evenodd;stroke:black;stroke-width:1px;stroke-linecap:butt;stroke-linejoin:miter;stroke-opacity:1"
       d="M 373.92258,187.51462 C 388.0681,189.98398 404.91566,189.74836 415.42439,178.45323 C 423.26866,175.33079 433.37228,178.62331 441.49192,181.10722 C 462.77843,188.90326 476.71208,209.67198 481.053,231.28296 C 487.83725,261.08043 480.11343,291.34454 474.59919,320.65734 C 474.73209,327.69412 465.19018,323.9494 460.48028,324.48827 C 447.09171,323.21076 434.27436,318.51312 422.29952,312.56249 C 410.22042,301.67357 397.91323,287.64171 380.38882,287.11205 C 364.84987,284.30762 348.52271,274.33348 345.15114,257.8551 C 344.83666,251.29461 341.4917,245.33833 341.46736,238.68604 C 340.47545,224.70936 347.54487,210.75294 359.00004,202.81027 C 363.97226,197.71024 369.19809,192.85219 373.92258,187.51462 z "
       id="path2923" />
    <path
       style="fill:none;fill-rule:evenodd;stroke:black;stroke-width:1px;stroke-linecap:butt;stroke-linejoin:miter;stroke-opacity:1"
       d="M 371.40174,200.11875 C 376.44339,204.32012 429.38075,261.45885 429.38075,261.45885 L 457.95011,310.19483"
       id="path2925" />
    <path
       style="fill:#4b8f1d;fill-opacity:1;fill-rule:evenodd;stroke:black;stroke-width:1px;stroke-linecap:butt;stroke-linejoin:miter;stroke-opacity:1"
       d="M 356.27679,186.67435 C 362.84963,143.40125 367.12627,99.821555 372.25824,56.367835 C 373.58422,38.301344 374.7508,19.995372 372.7052,1.9719958 C 369.78405,-4.4737337 354.92547,-1.390312 360.35823,7.2608456 C 363.85622,17.93789 366.85554,29.455309 363.60096,40.618053 C 360.24446,62.82305 356.82678,85.020031 353.78079,107.27041 C 355.18354,117.62119 353.94576,128.1022 352.33385,138.30719 C 352.75822,147.9849 347.73667,156.76656 342.30332,164.38723 C 339.45393,174.34141 341.6921,184.80832 340.83871,194.99296 C 341.49771,198.9713 338.3407,211.37135 344.51951,203.97283 C 349.52923,199.00731 352.20388,192.33121 356.27679,186.67435 z "
       id="path2927" />
  </g>
</svg>
