<?xml version="1.0" encoding="UTF-8" standalone="no"?>
<!DOCTYPE svg PUBLIC "-//W3C//DTD SVG 20010904//EN"
"http://www.w3.org/TR/2001/REC-SVG-20010904/DTD/svg10.dtd">
<!-- Created with Inkscape (http://www.inkscape.org/) -->
<svg
   id="svg1"
   sodipodi:version="0.32"
   inkscape:version="0.38.1"
   width="400.00000pt"
   height="400.00000pt"
   sodipodi:docbase="/var/www/html/svg_gallery/svg/fruits"
   sodipodi:docname="orange.svg"
   xmlns="http://www.w3.org/2000/svg"
   xmlns:inkscape="http://www.inkscape.org/namespaces/inkscape"
   xmlns:sodipodi="http://sodipodi.sourceforge.net/DTD/sodipodi-0.dtd"
   xmlns:xlink="http://www.w3.org/1999/xlink">
  <defs
     id="defs3">
    <linearGradient
       id="linearGradient870">
      <stop
         style="stop-color:#dd7304;stop-opacity:1.0000000;"
         offset="0.0000000"
         id="stop871" />
      <stop
         style="stop-color:#e46417;stop-opacity:1.0000000;"
         offset="1.0000000"
         id="stop872" />
    </linearGradient>
    <linearGradient
       id="linearGradient855">
      <stop
         style="stop-color:#dd6204;stop-opacity:1.0000000;"
         offset="0.0000000"
         id="stop856" />
      <stop
         style="stop-color:#e48e17;stop-opacity:1.0000000;"
         offset="1.0000000"
         id="stop857" />
    </linearGradient>
    <linearGradient
       id="linearGradient829">
      <stop
         style="stop-color:#ffffff;stop-opacity:0.50000000;"
         offset="0.0000000"
         id="stop830" />
      <stop
         style="stop-color:#ffffff;stop-opacity:0.0000000;"
         offset="1.0000000"
         id="stop831" />
    </linearGradient>
    <radialGradient
       xlink:href="#linearGradient855"
       id="radialGradient832"
       cx="0.64485979"
       cy="0.76119405"
       r="0.63406605"
       fx="0.64485979"
       fy="0.76119405" />
    <linearGradient
       xlink:href="#linearGradient829"
       id="linearGradient850"
       x1="-0.69607842"
       y1="0.25373134"
       x2="1.1470588"
       y2="0.28358209" />
    <linearGradient
       xlink:href="#linearGradient855"
       id="linearGradient854"
       x1="0.55147058"
       y1="-0.14843750"
       x2="0.51470590"
       y2="1.5468750" />
    <radialGradient
       xlink:href="#linearGradient829"
       id="radialGradient874"
       cx="0.43902439"
       cy="0.49751243"
       r="0.50000000"
       fx="0.43292683"
       fy="0.51492536" />
    <linearGradient
       xlink:href="#linearGradient829"
       id="linearGradient875"
       x1="2.2527011e-16"
       y1="0.50000000"
       x2="1.0000000"
       y2="0.50000000" />
    <radialGradient
       xlink:href="#linearGradient870"
       id="radialGradient850"
       cx="0.66129035"
       cy="0.57213932"
       r="0.081256665"
       fx="0.66129035"
       fy="0.57213932" />
    <radialGradient
       xlink:href="#linearGradient870"
       id="radialGradient861"
       cx="0.0059569911"
       cy="-3.5195181"
       r="8.0633326"
       fx="0.0059569911"
       fy="-3.5195181" />
    <radialGradient
       xlink:href="#linearGradient870"
       id="radialGradient862"
       cx="12.339223"
       cy="5.9420180"
       r="8.0633326"
       fx="12.339223"
       fy="5.9420180" />
    <radialGradient
       xlink:href="#linearGradient870"
       id="radialGradient863"
       cx="13.505884"
       cy="-2.7502809"
       r="8.0633326"
       fx="13.505884"
       fy="-2.7502809" />
    <radialGradient
       xlink:href="#linearGradient870"
       id="radialGradient864"
       cx="9.3392420"
       cy="-9.4425898"
       r="8.0633326"
       fx="9.3392420"
       fy="-9.4425898" />
    <radialGradient
       xlink:href="#linearGradient870"
       id="radialGradient865"
       cx="14.589211"
       cy="-10.288741"
       r="8.0633326"
       fx="14.589211"
       fy="-10.288741" />
    <radialGradient
       xlink:href="#linearGradient870"
       id="radialGradient866"
       cx="3.9226053"
       cy="-8.1348953"
       r="8.0633326"
       fx="3.9226053"
       fy="-8.1348953" />
    <radialGradient
       xlink:href="#linearGradient870"
       id="radialGradient867"
       cx="2.5892770"
       cy="8.0189390"
       r="8.0633326"
       fx="2.5892770"
       fy="8.0189390" />
    <radialGradient
       xlink:href="#linearGradient870"
       id="radialGradient868"
       cx="-1.8273672"
       cy="4.4804802"
       r="8.0633326"
       fx="-1.8273672"
       fy="4.4804802" />
    <radialGradient
       xlink:href="#linearGradient870"
       id="radialGradient869"
       cx="9.4225760"
       cy="5.2497110"
       r="8.0633326"
       fx="9.4225760"
       fy="5.2497110" />
  </defs>
  <sodipodi:namedview
     id="base"
     pagecolor="#ffffff"
     bordercolor="#666666"
     borderopacity="1.0"
     inkscape:pageopacity="0.0"
     inkscape:pageshadow="2"
     inkscape:zoom="0.87055056"
     inkscape:cx="190.75087"
     inkscape:cy="172.80605"
     inkscape:window-width="871"
     inkscape:window-height="758"
     showgrid="true"
     inkscape:window-x="112"
     inkscape:window-y="24" />
  <g
     id="g912">
    <path
       style="fill:url(#radialGradient832);fill-opacity:1;fill-rule:evenodd;stroke:#000000;stroke-width:10.000000;stroke-linejoin:round;stroke-dasharray:none;"
       d="M 222.68061,36.451110 C -50.360471,103.03078 9.8180202,401.74270 111.64391,447.34278 C 401.06746,570.99073 477.51896,363.64262 486.62033,304.67206 C 508.68252,123.24899 351.92006,2.2101376 222.68061,36.451110 z "
       id="path982"
       sodipodi:nodetypes="cccc" />
    <path
       style="fill:#ffffff;fill-opacity:0.099999972;fill-rule:evenodd;stroke-width:1.0000000pt;"
       d="M 67.957333,137.27175 C 177.17377,93.519397 204.47787,82.105740 253.62527,87.812569 C 279.10910,104.93305 371.94307,101.12850 442.93376,219.06963 C 382.86472,106.83533 361.02143,95.421674 315.51458,89.714845 C 270.00774,89.714845 359.20116,74.496635 421.09047,101.12850 C 362.84170,63.082977 279.10910,82.105740 319.15513,44.060215 C 290.03075,47.864767 288.21047,57.376149 268.18746,72.594359 C 224.50089,59.278425 240.88335,40.255663 164.43185,57.376149 C 220.86034,53.571596 209.93870,59.278425 237.24281,68.789806 C 128.02637,84.008016 93.441167,120.15126 67.957333,137.27175 z "
       id="path983"
       sodipodi:nodetypes="cccccccccc" />
    <path
       style="fill:#009900;fill-rule:evenodd;stroke:#000000;stroke-width:10.000000;stroke-linejoin:round;stroke-dasharray:none;"
       d="M 263.68281,83.612447 C 265.71344,94.780918 267.24198,132.32635 270.84478,132.32635 C 278.65086,129.18876 288.57478,92.066324 292.77805,88.301217 C 296.98131,84.536125 334.83200,116.82170 337.83433,115.56666 C 340.83666,114.31163 311.47974,61.924256 312.68067,58.159164 C 304.27413,57.531641 292.96366,66.225249 289.36086,59.950065 C 285.75806,53.674897 278.65086,57.052211 269.04340,48.894475 C 253.30041,66.133596 226.70545,73.868327 219.49984,84.536125 C 226.70545,89.556263 255.56028,85.643078 263.68281,83.612447 z "
       id="path984"
       sodipodi:nodetypes="ccccccccc" />
    <path
       style="fill:#009900;fill-rule:evenodd;stroke:#000000;stroke-width:10.000000;stroke-linejoin:round;stroke-dasharray:none;"
       d="M 273.14828,68.107802 C 276.15061,76.265524 283.35620,74.382970 286.95900,70.617863 C 294.16460,68.735310 289.31726,59.435438 291.34788,44.741576 C 284.74276,40.976484 284.37152,41.843707 277.16591,43.726261 C 275.96498,47.491367 270.74640,64.342695 273.14828,68.107802 z "
       id="path985"
       sodipodi:nodetypes="ccccc" />
    <path
       style="fill:#00eb00;fill-rule:evenodd;stroke-width:1.0000000pt;"
       d="M 280.58309,53.583260 C 280.58309,53.583260 271.34687,68.107787 279.75339,69.990340 C 286.35853,67.480279 288.38916,53.583260 280.58309,53.583260 z "
       id="path986"
       sodipodi:nodetypes="ccc" />
    <path
       style="fill:#00ea00;fill-rule:evenodd;stroke-width:1.0000000pt;"
       d="M 269.17650,70.268927 C 268.16118,70.268927 234.31699,78.278556 237.31932,81.416155 C 246.92678,81.416155 262.57136,79.054156 269.17650,70.268927 z "
       id="path987"
       sodipodi:nodetypes="ccc" />
    <path
       style="fill:#00ea00;fill-rule:evenodd;stroke-width:1.0000000pt;"
       d="M 269.70934,74.069201 C 272.71167,83.481968 266.80541,110.89549 269.80774,114.03307 C 279.41520,114.03307 279.91728,79.089354 269.70934,74.069201 z "
       id="path988"
       sodipodi:nodetypes="ccc" />
    <path
       style="fill:url(#radialGradient874);fill-opacity:1;fill-rule:evenodd;stroke-width:1.0000000pt;"
       d="M 177.17377,162.00134 C 80.699250,139.17403 16.989664,283.74702 111.64391,371.25173 C 242.70363,441.63595 291.85102,259.01743 177.17377,162.00134 z "
       id="path989"
       sodipodi:nodetypes="ccc" />
    <path
       sodipodi:type="arc"
       style="fill:#db6422;fill-opacity:0.83333331;fill-rule:evenodd;stroke:#d55f00;stroke-width:1.2500000;stroke-opacity:0.74166667;"
       id="path873"
       sodipodi:cx="522.85498"
       sodipodi:cy="210.12061"
       sodipodi:rx="4.9481544"
       sodipodi:ry="5.3605008"
       d="M 527.80313 210.12061 A 4.9481544 5.3605008 0 1 0 517.90683,210.12061 A 4.9481544 5.3605008 0 1 0 527.80313 210.12061 z"
       transform="translate(-110.6369,196.4704)" />
    <path
       sodipodi:type="arc"
       style="fill:#db6422;fill-opacity:0.83333331;fill-rule:evenodd;stroke:#d55f00;stroke-width:1.2500000;stroke-opacity:0.74166667;"
       id="path874"
       sodipodi:cx="522.85498"
       sodipodi:cy="210.12061"
       sodipodi:rx="4.9481544"
       sodipodi:ry="5.3605008"
       d="M 527.80313 210.12061 A 4.9481544 5.3605008 0 1 0 517.90683,210.12061 A 4.9481544 5.3605008 0 1 0 527.80313 210.12061 z"
       transform="translate(-177.6477,248.2514)" />
    <path
       sodipodi:type="arc"
       style="fill:#db6422;fill-opacity:0.83333331;fill-rule:evenodd;stroke:#d55f00;stroke-width:1.2500000;stroke-opacity:0.74166667;"
       id="path875"
       sodipodi:cx="522.85498"
       sodipodi:cy="210.12061"
       sodipodi:rx="4.9481544"
       sodipodi:ry="5.3605008"
       d="M 527.80313 210.12061 A 4.9481544 5.3605008 0 1 0 517.90683,210.12061 A 4.9481544 5.3605008 0 1 0 527.80313 210.12061 z"
       transform="translate(-261.9190,262.4659)" />
    <path
       sodipodi:type="arc"
       style="fill:#db6422;fill-opacity:0.83333331;fill-rule:evenodd;stroke:#d55f00;stroke-width:1.2500000;stroke-opacity:0.74166667;"
       id="path876"
       sodipodi:cx="522.85498"
       sodipodi:cy="210.12061"
       sodipodi:rx="4.9481544"
       sodipodi:ry="5.3605008"
       d="M 527.80313 210.12061 A 4.9481544 5.3605008 0 1 0 517.90683,210.12061 A 4.9481544 5.3605008 0 1 0 527.80313 210.12061 z"
       transform="translate(-73.22557,124.0342)" />
    <path
       sodipodi:type="arc"
       style="fill:#db6422;fill-opacity:0.83333331;fill-rule:evenodd;stroke:#d55f00;stroke-width:1.2500000;stroke-opacity:0.74166667;"
       id="path877"
       sodipodi:cx="522.85498"
       sodipodi:cy="210.12061"
       sodipodi:rx="4.9481544"
       sodipodi:ry="5.3605008"
       d="M 527.80313 210.12061 A 4.9481544 5.3605008 0 1 0 517.90683,210.12061 A 4.9481544 5.3605008 0 1 0 527.80313 210.12061 z"
       transform="translate(-47.68732,39.09647)" />
    <path
       sodipodi:type="arc"
       style="fill:#db6422;fill-opacity:0.83333331;fill-rule:evenodd;stroke:#d55f00;stroke-width:1.2500000;stroke-opacity:0.74166667;"
       id="path878"
       sodipodi:cx="522.85498"
       sodipodi:cy="210.12061"
       sodipodi:rx="4.9481544"
       sodipodi:ry="5.3605008"
       d="M 527.80313 210.12061 A 4.9481544 5.3605008 0 1 0 517.90683,210.12061 A 4.9481544 5.3605008 0 1 0 527.80313 210.12061 z"
       transform="translate(-74.08550,72.60182)" />
    <path
       sodipodi:type="arc"
       style="fill:#db6422;fill-opacity:0.83333331;fill-rule:evenodd;stroke:#d55f00;stroke-width:1.2500000;stroke-opacity:0.74166667;"
       id="path879"
       sodipodi:cx="522.85498"
       sodipodi:cy="210.12061"
       sodipodi:rx="4.9481544"
       sodipodi:ry="5.3605008"
       d="M 527.80313 210.12061 A 4.9481544 5.3605008 0 1 0 517.90683,210.12061 A 4.9481544 5.3605008 0 1 0 527.80313 210.12061 z"
       transform="translate(-108.6062,146.7199)" />
    <path
       sodipodi:type="arc"
       style="fill:#db6422;fill-opacity:0.83333331;fill-rule:evenodd;stroke:#d55f00;stroke-width:1.2500000;stroke-opacity:0.74166667;"
       id="path880"
       sodipodi:cx="522.85498"
       sodipodi:cy="210.12061"
       sodipodi:rx="4.9481544"
       sodipodi:ry="5.3605008"
       d="M 527.80313 210.12061 A 4.9481544 5.3605008 0 1 0 517.90683,210.12061 A 4.9481544 5.3605008 0 1 0 527.80313 210.12061 z"
       transform="translate(-155.4661,195.1063)" />
    <path
       sodipodi:type="arc"
       style="fill:#db6422;fill-opacity:0.83333331;fill-rule:evenodd;stroke:#d55f00;stroke-width:1.2500000;stroke-opacity:0.74166667;"
       id="path881"
       sodipodi:cx="522.85498"
       sodipodi:cy="210.12061"
       sodipodi:rx="4.9481544"
       sodipodi:ry="5.3605008"
       d="M 527.80313 210.12061 A 4.9481544 5.3605008 0 1 0 517.90683,210.12061 A 4.9481544 5.3605008 0 1 0 527.80313 210.12061 z"
       transform="translate(-221.3063,235.0524)" />
    <path
       sodipodi:type="arc"
       style="fill:#db6422;fill-opacity:0.83333331;fill-rule:evenodd;stroke:#d55f00;stroke-width:1.2500000;stroke-opacity:0.74166667;"
       id="path882"
       sodipodi:cx="522.85498"
       sodipodi:cy="210.12061"
       sodipodi:rx="4.9481544"
       sodipodi:ry="5.3605008"
       d="M 527.80313 210.12061 A 4.9481544 5.3605008 0 1 0 517.90683,210.12061 A 4.9481544 5.3605008 0 1 0 527.80313 210.12061 z"
       transform="translate(-78.14684,-2.531501)" />
    <path
       sodipodi:type="arc"
       style="fill:#db6422;fill-opacity:0.83333331;fill-rule:evenodd;stroke:#d55f00;stroke-width:1.2500000;stroke-opacity:0.74166667;"
       id="path883"
       sodipodi:cx="522.85498"
       sodipodi:cy="210.12061"
       sodipodi:rx="4.9481544"
       sodipodi:ry="5.3605008"
       d="M 527.80313 210.12061 A 4.9481544 5.3605008 0 1 0 517.90683,210.12061 A 4.9481544 5.3605008 0 1 0 527.80313 210.12061 z"
       transform="translate(-112.6676,89.86221)" />
    <path
       sodipodi:type="arc"
       style="fill:#db6422;fill-opacity:0.83333331;fill-rule:evenodd;stroke:#d55f00;stroke-width:1.2500000;stroke-opacity:0.74166667;"
       id="path884"
       sodipodi:cx="522.85498"
       sodipodi:cy="210.12061"
       sodipodi:rx="4.9481544"
       sodipodi:ry="5.3605008"
       d="M 527.80313 210.12061 A 4.9481544 5.3605008 0 1 0 517.90683,210.12061 A 4.9481544 5.3605008 0 1 0 527.80313 210.12061 z"
       transform="translate(-168.6652,150.4324)" />
    <path
       sodipodi:type="arc"
       style="fill:#db6422;fill-opacity:0.83333331;fill-rule:evenodd;stroke:#d55f00;stroke-width:1.2500000;stroke-opacity:0.74166667;"
       id="path885"
       sodipodi:cx="522.85498"
       sodipodi:cy="210.12061"
       sodipodi:rx="4.9481544"
       sodipodi:ry="5.3605008"
       d="M 527.80313 210.12061 A 4.9481544 5.3605008 0 1 0 517.90683,210.12061 A 4.9481544 5.3605008 0 1 0 527.80313 210.12061 z"
       transform="translate(-176.6324,177.1794)" />
    <path
       sodipodi:type="arc"
       style="fill:#db6422;fill-opacity:0.83333331;fill-rule:evenodd;stroke:#d55f00;stroke-width:1.2500000;stroke-opacity:0.74166667;"
       id="path886"
       sodipodi:cx="522.85498"
       sodipodi:cy="210.12061"
       sodipodi:rx="4.9481544"
       sodipodi:ry="5.3605008"
       d="M 527.80313 210.12061 A 4.9481544 5.3605008 0 1 0 517.90683,210.12061 A 4.9481544 5.3605008 0 1 0 527.80313 210.12061 z"
       transform="translate(-199.9847,200.5316)" />
    <path
       sodipodi:type="arc"
       style="fill:#db6422;fill-opacity:0.83333331;fill-rule:evenodd;stroke:#d55f00;stroke-width:1.2500000;stroke-opacity:0.74166667;"
       id="path887"
       sodipodi:cx="522.85498"
       sodipodi:cy="210.12061"
       sodipodi:rx="4.9481544"
       sodipodi:ry="5.3605008"
       d="M 527.80313 210.12061 A 4.9481544 5.3605008 0 1 0 517.90683,210.12061 A 4.9481544 5.3605008 0 1 0 527.80313 210.12061 z"
       transform="translate(-279.1793,235.0524)" />
    <path
       sodipodi:type="arc"
       style="fill:#db6422;fill-opacity:0.83333331;fill-rule:evenodd;stroke:#d55f00;stroke-width:1.2500000;stroke-opacity:0.74166667;"
       id="path888"
       sodipodi:cx="522.85498"
       sodipodi:cy="210.12061"
       sodipodi:rx="4.9481544"
       sodipodi:ry="5.3605008"
       d="M 527.80313 210.12061 A 4.9481544 5.3605008 0 1 0 517.90683,210.12061 A 4.9481544 5.3605008 0 1 0 527.80313 210.12061 z"
       transform="translate(-86.26933,-60.40450)" />
    <path
       sodipodi:type="arc"
       style="fill:#db6422;fill-opacity:0.83333331;fill-rule:evenodd;stroke:#d55f00;stroke-width:1.2500000;stroke-opacity:0.74166667;"
       id="path889"
       sodipodi:cx="522.85498"
       sodipodi:cy="210.12061"
       sodipodi:rx="4.9481544"
       sodipodi:ry="5.3605008"
       d="M 527.80313 210.12061 A 4.9481544 5.3605008 0 1 0 517.90683,210.12061 A 4.9481544 5.3605008 0 1 0 527.80313 210.12061 z"
       transform="translate(-110.6369,22.85146)" />
    <path
       sodipodi:type="arc"
       style="fill:#db6422;fill-opacity:0.83333331;fill-rule:evenodd;stroke:#d55f00;stroke-width:1.2500000;stroke-opacity:0.74166667;"
       id="path890"
       sodipodi:cx="522.85498"
       sodipodi:cy="210.12061"
       sodipodi:rx="4.9481544"
       sodipodi:ry="5.3605008"
       d="M 527.80313 210.12061 A 4.9481544 5.3605008 0 1 0 517.90683,210.12061 A 4.9481544 5.3605008 0 1 0 527.80313 210.12061 z"
       transform="translate(-137.0351,57.37214)" />
    <path
       sodipodi:type="arc"
       style="fill:#db6422;fill-opacity:0.83333331;fill-rule:evenodd;stroke:#d55f00;stroke-width:1.2500000;stroke-opacity:0.74166667;"
       id="path891"
       sodipodi:cx="522.85498"
       sodipodi:cy="210.12061"
       sodipodi:rx="4.9481544"
       sodipodi:ry="5.3605008"
       d="M 527.80313 210.12061 A 4.9481544 5.3605008 0 1 0 517.90683,210.12061 A 4.9481544 5.3605008 0 1 0 527.80313 210.12061 z"
       transform="translate(-155.3108,102.0461)" />
    <path
       sodipodi:type="arc"
       style="fill:#db6422;fill-opacity:0.83333331;fill-rule:evenodd;stroke:#d55f00;stroke-width:1.2500000;stroke-opacity:0.74166667;"
       id="path892"
       sodipodi:cx="522.85498"
       sodipodi:cy="210.12061"
       sodipodi:rx="4.9481544"
       sodipodi:ry="5.3605008"
       d="M 527.80313 210.12061 A 4.9481544 5.3605008 0 1 0 517.90683,210.12061 A 4.9481544 5.3605008 0 1 0 527.80313 210.12061 z"
       transform="translate(-204.0459,149.7658)" />
    <path
       sodipodi:type="arc"
       style="fill:#db6422;fill-opacity:0.83333331;fill-rule:evenodd;stroke:#d55f00;stroke-width:1.2500000;stroke-opacity:0.74166667;"
       id="path893"
       sodipodi:cx="522.85498"
       sodipodi:cy="210.12061"
       sodipodi:rx="4.9481544"
       sodipodi:ry="5.3605008"
       d="M 527.80313 210.12061 A 4.9481544 5.3605008 0 1 0 517.90683,210.12061 A 4.9481544 5.3605008 0 1 0 527.80313 210.12061 z"
       transform="translate(-245.6738,174.1334)" />
    <path
       sodipodi:type="arc"
       style="fill:#db6422;fill-opacity:0.83333331;fill-rule:evenodd;stroke:#d55f00;stroke-width:1.2500000;stroke-opacity:0.74166667;"
       id="path894"
       sodipodi:cx="522.85498"
       sodipodi:cy="210.12061"
       sodipodi:rx="4.9481544"
       sodipodi:ry="5.3605008"
       d="M 527.80313 210.12061 A 4.9481544 5.3605008 0 1 0 517.90683,210.12061 A 4.9481544 5.3605008 0 1 0 527.80313 210.12061 z"
       transform="translate(-294.4090,196.4703)" />
    <path
       sodipodi:type="arc"
       style="fill:#db6422;fill-opacity:0.83333331;fill-rule:evenodd;stroke:#d55f00;stroke-width:1.2500000;stroke-opacity:0.74166667;"
       id="path895"
       sodipodi:cx="522.85498"
       sodipodi:cy="210.12061"
       sodipodi:rx="4.9481544"
       sodipodi:ry="5.3605008"
       d="M 527.80313 210.12061 A 4.9481544 5.3605008 0 1 0 517.90683,210.12061 A 4.9481544 5.3605008 0 1 0 527.80313 210.12061 z"
       transform="translate(-343.1441,238.0983)" />
  </g>

  <rdf:RDF 
   xmlns="http://web.resource.org/cc/"
   xmlns:dc="http://purl.org/dc/elements/1.1/"
   xmlns:rdf="http://www.w3.org/1999/02/22-rdf-syntax-ns#">
  <Work rdf:about="">
    <dc:title>Clipart by Nicu Buculei - pear</dc:title>
    <dc:rights>
       <Agent>
         <dc:title>Nicu Buculei</dc:title>
       </Agent>
    </dc:rights>
    <dc:type rdf:resource="http://purl.org/dc/dcmitype/StillImage" />
    <license rdf:resource="http://web.resource.org/cc/PublicDomain" />
  </Work>
   
  <License rdf:about="http://web.resource.org/cc/PublicDomain">
     <permits rdf:resource="http://web.resource.org/cc/Reproduction" />
     <permits rdf:resource="http://web.resource.org/cc/Distribution" />
     <permits rdf:resource="http://web.resource.org/cc/DerivativeWorks" />
  </License>

</rdf:RDF>
</svg>
