<?xml version="1.0" encoding="UTF-8" standalone="no"?>
<!-- Created with Inkscape (http://www.inkscape.org/) -->
<svg
   xmlns:dc="http://purl.org/dc/elements/1.1/"
   xmlns:cc="http://creativecommons.org/ns#"
   xmlns:rdf="http://www.w3.org/1999/02/22-rdf-syntax-ns#"
   xmlns:svg="http://www.w3.org/2000/svg"
   xmlns="http://www.w3.org/2000/svg"
   xmlns:sodipodi="http://sodipodi.sourceforge.net/DTD/sodipodi-0.dtd"
   xmlns:inkscape="http://www.inkscape.org/namespaces/inkscape"
   version="1.0"
   width="533.8717"
   height="484.49844"
   id="svg2"
   sodipodi:version="0.32"
   inkscape:version="0.46"
   sodipodi:docname="lemmling_Witch_s_cottage.svg"
   inkscape:output_extension="org.inkscape.output.svg.inkscape">
  <metadata
     id="metadata31">
    <rdf:RDF>
      <cc:Work
         rdf:about="">
        <dc:format>image/svg+xml</dc:format>
        <dc:type
           rdf:resource="http://purl.org/dc/dcmitype/StillImage" />
      </cc:Work>
    </rdf:RDF>
  </metadata>
  <sodipodi:namedview
     inkscape:window-height="725"
     inkscape:window-width="1279"
     inkscape:pageshadow="2"
     inkscape:pageopacity="0.0"
     guidetolerance="10.0"
     gridtolerance="10.0"
     objecttolerance="10.0"
     borderopacity="1.0"
     bordercolor="#666666"
     pagecolor="#ffffff"
     id="base"
     showgrid="false"
     inkscape:zoom="1.0133521"
     inkscape:cx="266.93585"
     inkscape:cy="242.24922"
     inkscape:window-x="0"
     inkscape:window-y="25"
     inkscape:current-layer="svg2" />
  <defs
     id="defs4" />
  <rect
     style="fill:#ffffff"
     id="rect2406"
     width="535.84534"
     height="487.491"
     x="0"
     y="-1.0188917" />
  <g
     transform="translate(-184.99477,-188.84473)"
     id="layer1">
    <path
       d="M 441.58818,158.16867 A 14.142136,19.091883 0 1 1 413.30391,158.16867 A 14.142136,19.091883 0 1 1 441.58818,158.16867 z"
       transform="matrix(0.7812169,-0.4510358,0.4510358,0.7812169,223.44018,420.92666)"
       id="path3171"
       style="opacity:1;fill:#000000;fill-opacity:1;fill-rule:nonzero;stroke:none;stroke-width:2;stroke-linecap:round;stroke-linejoin:round;stroke-miterlimit:4;stroke-dasharray:none;stroke-opacity:1" />
    <path
       d="M 441.58818,158.16867 A 14.142136,19.091883 0 1 1 413.30391,158.16867 A 14.142136,19.091883 0 1 1 441.58818,158.16867 z"
       transform="matrix(0.2281461,-0.4972383,0.4874444,0.990131,464.6028,413.29873)"
       id="path3173"
       style="opacity:1;fill:#000000;fill-opacity:1;fill-rule:nonzero;stroke:none;stroke-width:2;stroke-linecap:round;stroke-linejoin:round;stroke-miterlimit:4;stroke-dasharray:none;stroke-opacity:1" />
    <path
       d="M 614.39482,329.05317 C 621.80753,328.21116 626.47548,330.94124 626.79442,336.38857 C 627.13145,342.14497 625.55783,344.86276 616.16966,343.36634 C 609.68148,342.33217 614.33347,338.04539 598.40961,342.12932 C 600.01047,337.95427 604.15782,334.34894 607.75624,332.96834 C 610.7347,331.82559 610.29752,329.51857 614.39482,329.05317 z"
       id="path3175"
       style="fill:#000000;fill-opacity:1;fill-rule:nonzero;stroke:none;stroke-width:2;stroke-linecap:round;stroke-linejoin:round;stroke-miterlimit:4;stroke-opacity:1" />
    <path
       d="M 592.41571,613.1661 C 541.48546,539.25032 561.30301,381.94218 583.22332,385.47771 C 605.14363,389.01324 629.89237,443.46047 646.15583,453.35996 C 662.41928,463.25946 639.08476,504.97876 639.08476,504.97876 C 639.08476,504.97876 662.41928,478.1087 656.05532,459.72392 C 649.69136,441.33915 700.60305,449.82443 706.96701,456.89549 C 713.33097,463.96656 716.8665,475.98738 716.8665,475.98738 C 716.8665,475.98738 716.8665,456.89549 706.96701,447.70311 C 697.06751,438.51072 661.00507,444.16757 652.51979,439.21783 C 644.03451,434.26808 614.33602,400.32695 616.45734,389.01324 C 618.57866,377.69954 652.51979,374.164 657.46953,382.64928 C 662.41928,391.13456 662.41928,397.49853 662.41928,397.49853 C 662.41928,397.49853 663.8335,373.45689 658.17664,371.33557 C 652.51979,369.21425 611.51344,371.79119 593.12282,368.50715 C 583.94308,366.86791 575.92646,363.04767 566.09892,367.23017 C 554.91348,371.99057 554.33477,331.93651 552.81773,313.35282 C 549.9893,278.70459 566.95987,255.37006 578.98068,255.37006 C 591.0015,255.37006 610.80049,285.77565 622.8213,282.24012 C 634.84212,278.70459 644.03451,253.24874 658.17664,247.59189 C 672.31878,241.93503 687.16802,251.83453 687.16802,251.83453 C 687.16802,251.83453 661.71217,230.62132 649.69136,241.93503 C 643.13756,248.10331 629.18526,270.92641 618.57866,267.39088 C 607.97206,263.85534 586.75886,230.62132 571.90961,236.27818 C 557.06037,241.93503 555.64616,198.80152 530.89742,193.14467 C 506.14868,187.48781 448.16593,191.02334 417.05323,217.8934 C 385.94053,244.76346 380.99078,254.66296 388.06185,261.73402 C 395.13292,268.80509 406.44663,270.92641 406.44663,270.92641 C 406.44663,270.92641 395.13292,265.97666 390.89028,258.19849 C 386.64764,250.42031 432.03502,211.62193 458.77253,205.16548 C 495.14729,196.38187 526.61925,201.47309 532.15478,204.04416 C 539.32482,207.37441 502.61315,217.8934 500.49183,229.20711 C 498.37051,240.52082 505.44158,252.54163 505.44158,252.54163 C 505.44158,252.54163 500.49183,236.98529 504.02736,230.62132 C 507.5629,224.25736 529.78596,212.43139 537.0898,215.47919 C 543.99296,218.35979 551.85373,244.72579 546.25274,256.15727 C 541.45562,265.94808 538.4074,292.2037 534.43296,294.26093 C 514.71432,304.46758 472.91466,250.42031 463.01517,244.05635 C 453.11567,237.69239 430.48826,249.71321 430.48826,249.71321 C 430.48826,249.71321 447.45882,245.47057 455.23699,250.42031 C 463.01517,255.37006 493.42076,287.18987 494.12787,296.38226 C 494.83497,305.57464 469.37913,319.71678 469.37913,328.20206 C 469.37913,336.68734 486.34969,341.63709 486.34969,341.63709 C 486.34969,341.63709 476.4502,333.85891 475.03598,328.20206 C 473.62177,322.54521 499.07762,303.45332 508.27,303.45332 C 517.46239,303.45332 534.23974,317.72294 539.3827,333.15181 C 545.03955,350.12237 526.00117,365.54836 526.65478,381.23507 C 527.36189,398.20564 544.75425,491.64018 514.63396,536.79856 C 484.51368,581.95695 489.00053,618.62163 489.00053,618.62163 C 523.47226,616.80312 555.95787,626.90129 592.41571,613.1661 z"
       id="path3270"
       style="fill:#502d16;fill-opacity:1;fill-rule:evenodd;stroke:#000000;stroke-width:4;stroke-linecap:butt;stroke-linejoin:round;stroke-miterlimit:4;stroke-dasharray:none;stroke-opacity:1" />
    <path
       d="M 425.75,182.12344 A 3.125,5.375 0 1 1 419.5,182.12344 A 3.125,5.375 0 1 1 425.75,182.12344 z"
       transform="matrix(0.9020716,0,0,1.030137,250.18286,183.5429)"
       id="path3178"
       style="opacity:1;fill:#000000;fill-opacity:1;fill-rule:nonzero;stroke:none;stroke-width:2;stroke-linecap:round;stroke-linejoin:round;stroke-miterlimit:4;stroke-dasharray:none;stroke-opacity:1" />
    <path
       d="M 418.5,180.87344 A 3.75,5.375 0 1 1 411,180.87344 A 3.75,5.375 0 1 1 418.5,180.87344 z"
       transform="matrix(0.9020716,0,0,1.030137,252.54278,184.52885)"
       id="path3180"
       style="opacity:1;fill:#000000;fill-opacity:1;fill-rule:nonzero;stroke:none;stroke-width:2;stroke-linecap:round;stroke-linejoin:round;stroke-miterlimit:4;stroke-dasharray:none;stroke-opacity:1" />
    <path
       d="M 506.53612,416.66783 C 430.31473,430.31954 360.37754,426.37551 292.49879,416.66783 C 286.20542,416.7112 179.91816,519.88872 187.36869,521.79793 C 259.29194,532.37132 329.69196,533.04368 398.25842,521.79793 L 506.53612,416.66783 z"
       id="path2385"
       style="fill:#6b6b00;fill-opacity:1;fill-rule:evenodd;stroke:#000000;stroke-width:4;stroke-linecap:round;stroke-linejoin:round;stroke-miterlimit:4;stroke-dasharray:none;stroke-opacity:1" />
    <path
       d="M 311.42371,424.86835 L 214.55698,517.75029 C 228.27048,567.07562 229.11182,612.5393 228.35629,657.52392 L 392.76553,664.51736 L 576.3512,631.85799 C 571.03047,595.3374 565.90653,558.76995 590.6994,515.07945 L 408.3805,509.86377 L 311.42371,424.86835 z"
       id="path3164"
       style="fill:#999999;fill-opacity:1;fill-rule:nonzero;stroke:#000000;stroke-width:4;stroke-linecap:round;stroke-linejoin:round;stroke-miterlimit:4;stroke-dasharray:none;stroke-opacity:1" />
    <path
       d="M 392.76553,664.51736 C 392.2588,614.28425 390.39876,564.36344 408.3805,509.86377 L 590.6994,515.07945 C 574.06633,560.3988 571.03047,595.3374 576.3512,631.85799 L 392.76553,664.51736 z"
       id="path3378"
       style="fill:#cccccc;fill-opacity:1;fill-rule:nonzero;stroke:#000000;stroke-width:4;stroke-linecap:round;stroke-linejoin:round;stroke-miterlimit:4;stroke-dasharray:none;stroke-opacity:1" />
    <path
       d="M 292.49879,416.66783 C 368.72018,430.31954 438.65737,426.37551 506.53612,416.66783 C 518.66074,413.67057 615.87285,515.75456 611.66622,521.79793 C 594.21309,524.36371 577.08148,528.20891 560.12863,528.86167 C 552.18849,529.1674 553.46662,527.4273 552.82946,524.39627 C 552.19231,521.36524 549.49675,520.02678 548.59129,519.05447 C 547.51437,517.89805 541.71627,512.34311 540.83854,515.08296 C 540.28675,516.8054 545.50947,523.29756 545.0007,525.68802 C 544.32746,528.85122 540.85085,530.9276 540.45866,530.96444 C 494.36588,535.29335 448.9706,534.92944 400.77649,521.79793 C 391.14998,520.08534 292.40149,416.80405 292.49879,416.66783 z"
       id="path2383"
       style="fill:#a9a900;fill-opacity:1;fill-rule:evenodd;stroke:#000000;stroke-width:4;stroke-linecap:round;stroke-linejoin:round;stroke-miterlimit:4;stroke-dasharray:none;stroke-opacity:1" />
    <path
       d="M 266.5,577.86218 L 251.5,598.86218 C 246.93972,621.71071 249.38121,643.13513 251.14645,666.88731 L 309.64645,669.88731 L 335.5,662.36218 C 337.22387,639.911 339.10967,617.45981 335.32843,595.00863 L 322.82843,578.00863 C 318.02107,523.50239 315.16002,487.19771 318.96538,444.19661 L 307.32504,429.0468 C 309.42371,422.36835 320.41843,425.53105 320.41843,425.53105 L 323.32843,399.65507 L 299.5,391.36218 L 263.02513,398.56929 C 268.50169,454.33197 270.62923,516.87906 266.5,577.86218 z"
       id="path3387"
       style="fill:#666666;fill-opacity:1;fill-rule:evenodd;stroke:#000000;stroke-width:4;stroke-linecap:round;stroke-linejoin:round;stroke-miterlimit:4;stroke-dasharray:none;stroke-opacity:1" />
    <path
       d="M 299.5,391.36218 C 299.0648,454.50293 298.81657,517.56889 303,578.86218 L 309.5,599.86218 C 312.96503,625.34819 310.67792,646.1999 309.64645,669.88731"
       id="path3197"
       style="fill:none;fill-opacity:1;fill-rule:evenodd;stroke:#000000;stroke-width:4;stroke-linecap:round;stroke-linejoin:round;stroke-miterlimit:4;stroke-dasharray:none;stroke-opacity:1" />
    <path
       d="M 442.16491,654.51078 C 438.58856,631.33617 435.65462,608.16157 436.03476,584.98696 C 436.03476,584.98696 440.45911,554.63604 467.1128,557.61745 C 493.93273,560.61745 495.91985,582.98696 495.91985,582.98696 C 497.0727,604.79404 494.6807,625.61606 492.54877,646.76618 L 442.16491,654.51078 z"
       id="path3190"
       style="fill:#4d4d4d;fill-opacity:1;fill-rule:evenodd;stroke:#000000;stroke-width:4;stroke-linecap:round;stroke-linejoin:round;stroke-miterlimit:4;stroke-dasharray:none;stroke-opacity:1" />
    <path
       d="M 442.26759,655.71106 C 438.56248,633.03643 435.42425,610.19707 436.32232,586.20705 C 436.32232,586.20705 440.40391,554.8937 463.69183,558.83754 C 487.31135,562.83754 489.06135,584.20705 489.06135,584.20705 C 490.8046,606.23686 488.45011,626.90076 486.31135,647.63657 L 442.26759,655.71106 z"
       id="path3192"
       style="fill:#502d16;fill-opacity:1;fill-rule:evenodd;stroke:#000000;stroke-width:4;stroke-linecap:round;stroke-linejoin:round;stroke-miterlimit:4;stroke-dasharray:none;stroke-opacity:1" />
    <path
       d="M 512.13212,591.91451 L 556.11877,586.4748 C 556.11877,586.4748 559.61118,552.21297 532.49594,555.86778 C 505.35786,559.52567 511.71467,590.85027 512.13212,591.91451 z"
       id="path3203"
       style="fill:#666666;fill-opacity:1;fill-rule:evenodd;stroke:#000000;stroke-width:4;stroke-linecap:butt;stroke-linejoin:round;stroke-miterlimit:4;stroke-dasharray:none;stroke-opacity:1" />
    <path
       d="M 511.69144,589.68855 L 549.14518,584.81514 C 549.14518,584.81514 552.40436,553.20022 529.78154,556.36407 C 507.13514,559.53122 511.3469,588.62493 511.69144,589.68855 z"
       id="path3205"
       style="fill:#1a1a1a;fill-opacity:1;fill-rule:evenodd;stroke:#000000;stroke-width:4;stroke-linecap:butt;stroke-linejoin:round;stroke-miterlimit:4;stroke-dasharray:none;stroke-opacity:1" />
    <path
       d="M 526.82405,578.51415 C 529.23195,581.2892 541.26238,579.76145 542.7565,577.44344 C 544.19983,575.20422 544.08209,564.19069 534.37456,564.40982 C 524.66111,564.62908 524.36155,575.67619 526.82405,578.51415 z"
       id="path3297"
       style="fill:#999999;fill-opacity:1;fill-rule:evenodd;stroke:none;stroke-width:4;stroke-linecap:butt;stroke-linejoin:round;stroke-miterlimit:4;stroke-dasharray:none;stroke-opacity:1" />
    <path
       d="M 479.74041,568.85587 C 479.74041,568.85587 480.53525,583.63002 480.21681,592.17559 C 479.89465,600.82096 477.69624,612.27845 477.96681,620.92559 C 478.23536,629.50809 481.10463,646.51523 481.10463,646.51523 M 468.23582,648.54692 C 468.23582,648.54692 470.00747,626.08496 469.21681,615.42559 C 468.68781,608.29378 465.5733,599.0681 465.21681,591.92559 C 464.99945,587.57068 466.27835,581.78549 466.21681,577.42559 C 466.13914,571.92251 463.87609,560.97906 463.87609,560.97906 M 451.1922,563.41033 C 451.1922,563.41033 453.4891,581.23132 454.21681,587.67559 C 455.05607,595.1077 456.98809,604.94974 457.21681,612.42559 C 457.40981,618.73379 455.57636,627.12653 455.96681,633.42559 C 456.34082,639.45943 458.76423,650.23952 458.76423,650.23952 M 446.29406,652.48724 C 446.29406,652.48724 447.73749,634.63121 447.21681,625.67559 C 446.80803,618.64465 444.48154,609.44957 443.96681,602.42559 C 443.28624,593.13865 443.73655,571.38695 443.73655,571.38695"
       id="path2396"
       style="fill:none;fill-opacity:0.75;fill-rule:evenodd;stroke:#000000;stroke-width:2;stroke-linecap:round;stroke-linejoin:miter;stroke-miterlimit:4;stroke-dasharray:none;stroke-opacity:1" />
    <path
       d="M 541.38644,364.57521 C 530.57166,367.89717 527.47131,384.69119 533.2547,399.22344 C 537.23718,409.23044 549.16461,382.95998 548.81106,380.83866 C 548.4575,378.71734 550.05763,361.91169 541.38644,364.57521 z"
       id="path3272"
       style="fill:#28170b;fill-opacity:1;fill-rule:evenodd;stroke:#000000;stroke-width:4;stroke-linecap:butt;stroke-linejoin:miter;stroke-miterlimit:4;stroke-dasharray:none;stroke-opacity:1" />
    <path
       d="M 420.19923,588.95913 C 420.19923,588.95913 419.98269,586.50427 422.97155,586.58746 C 425.81736,586.66666 425.65745,589.11104 425.65745,589.11104 L 424.25966,658.91465 C 424.25966,658.91465 424.59089,659.43897 421.756,659.36005 C 419.06468,659.28515 418.72073,659.90001 418.72073,659.90001 L 420.19923,588.95913 z"
       id="path3193"
       style="fill:#000000;fill-opacity:0.31372549;fill-rule:nonzero;stroke:none;stroke-width:1.99999988;stroke-linecap:round;stroke-linejoin:round;stroke-miterlimit:4;stroke-dasharray:none;stroke-opacity:1" />
    <path
       d="M 421.20464,588.42381 C 421.20464,588.42381 420.69531,586.52398 423.65989,586.13805 C 426.48258,585.77058 426.61851,587.71902 426.61851,587.71902 L 434.21432,646.0662 C 434.21432,646.0662 434.06756,644.11918 431.2557,644.48523 C 428.58623,644.83275 428.80045,646.771 428.80045,646.771 L 421.20464,588.42381 z"
       id="rect2396"
       style="fill:#502d16;fill-opacity:1;fill-rule:nonzero;stroke:#000000;stroke-width:2;stroke-linecap:round;stroke-linejoin:round;stroke-miterlimit:4;stroke-dasharray:none;stroke-opacity:1" />
    <path
       d="M 429.33369,644.73913 C 422.5502,649.96762 426.72616,657.20488 426.89978,660.95087 C 427.19543,667.33004 420.18253,672.34318 420.18253,672.34318 C 420.18253,672.34318 427.88804,670.93468 431.95855,668.31439 C 435.55546,665.99896 436.06816,661.53999 436.06816,661.53999 C 436.06816,661.53999 438.06388,665.91516 440.54814,667.19617 C 443.0324,668.47717 448.20003,667.09135 448.20003,667.09135 C 448.20003,667.09135 441.87689,665.33901 440.5958,659.34614 C 439.31472,653.35327 443.49276,647.32638 435.95516,644.25996 C 433.82197,643.39214 430.63586,643.73546 429.33369,644.73913 z"
       id="path3169"
       style="fill:#808000;fill-opacity:1;fill-rule:evenodd;stroke:#000000;stroke-width:2;stroke-linecap:butt;stroke-linejoin:round;stroke-miterlimit:4;stroke-dasharray:none;stroke-opacity:1" />
    <path
       d="M 258.54091,399.46048 L 299.5,391.36219 L 326.2579,400.68051 L 328.22305,385.44166 L 300.22671,370.08687 L 257.75332,380.79184 L 258.54091,399.46048 z M 299.5,391.36219 L 300.22671,370.08687"
       id="path3198"
       style="fill:#666666;fill-opacity:1;fill-rule:evenodd;stroke:#000000;stroke-width:3.99999976;stroke-linecap:butt;stroke-linejoin:round;stroke-miterlimit:4;stroke-dasharray:none;stroke-opacity:1" />
    <path
       d="M 251.52994,417.1581 C 251.50892,416.80162 263.25068,413.14108 269.20802,413.31277 C 275.34198,413.48955 282.64838,414.76173 289.91232,413.8969 C 297.35054,413.01132 304.67811,410.3564 304.67318,410.94789 C 304.67117,411.18925 304.31392,424.68095 304.36892,423.48504 C 304.41581,422.46558 296.99686,427.57199 285.83919,424.8108 C 273.76692,421.82327 252.09744,427.32977 252.30083,427.47493 C 252.57638,427.67159 251.55036,417.50431 251.52994,417.1581 z"
       transform="translate(184.99477,188.84473)"
       id="path2403"
       style="fill:#502d16;fill-opacity:1;fill-rule:evenodd;stroke:#000000;stroke-width:2;stroke-linecap:butt;stroke-linejoin:round;stroke-miterlimit:4;stroke-dasharray:none;stroke-opacity:1" />
    <path
       d="M 300.07122,419.27631 A 5.324306,5.324306 0 1 1 289.42261,419.27631 A 5.324306,5.324306 0 1 1 300.07122,419.27631 z"
       transform="matrix(0.7065516,0,0,0.7065516,274.36572,310.41636)"
       id="path3176"
       style="opacity:1;fill:#333333;fill-opacity:1;fill-rule:nonzero;stroke:#000000;stroke-width:2.83064961;stroke-linecap:round;stroke-linejoin:round;stroke-miterlimit:4;stroke-dasharray:none;stroke-opacity:1" />
  </g>
</svg>
