<?xml version="1.0" encoding="UTF-8" standalone="no"?>
<!-- Created with Inkscape (http://www.inkscape.org/) -->
<svg xmlns:dc="http://purl.org/dc/elements/1.1/" xmlns:cc="http://creativecommons.org/ns#" xmlns:rdf="http://www.w3.org/1999/02/22-rdf-syntax-ns#" xmlns:svg="http://www.w3.org/2000/svg" xmlns="http://www.w3.org/2000/svg" xmlns:sodipodi="http://sodipodi.sourceforge.net/DTD/sodipodi-0.dtd" xmlns:inkscape="http://www.inkscape.org/namespaces/inkscape" id="svg2" sodipodi:version="0.32" inkscape:version="0.46dev+devel" width="752.51636" height="644.185" sodipodi:docbase="/home/peterm/afbeeldingen/svg" sodipodi:docname="PeterM_Mouse.svg" inkscape:output_extension="org.inkscape.output.svg.inkscape" version="1.0" inkscape:export-filename="C:\joanna\Gfx\drawings_vector\admin\thumbs\PeterM_Mouse.png" inkscape:export-xdpi="90" inkscape:export-ydpi="90">
  <metadata id="metadata7">
    <rdf:RDF>
      <cc:Work rdf:about="">
        <dc:format>image/svg+xml</dc:format>
        <dc:type rdf:resource="http://purl.org/dc/dcmitype/StillImage"/>
      </cc:Work>
    </rdf:RDF>
  </metadata>
  <defs id="defs5">
    <linearGradient id="linearGradient8631">
      <stop style="stop-color: rgb(255, 255, 255); stop-opacity: 1;" offset="0.0000000" id="stop8633"/>
      <stop style="stop-color: rgb(217, 198, 198); stop-opacity: 0;" offset="1" id="stop8635"/>
    </linearGradient>
  </defs>
  <sodipodi:namedview inkscape:window-height="721" inkscape:window-width="1270" inkscape:pageshadow="2" inkscape:pageopacity="0" borderopacity="1.0" bordercolor="#666666" pagecolor="#ffffff" id="base" inkscape:zoom="0.79169804" inkscape:cx="376.25818" inkscape:cy="322.0925" inkscape:window-x="2" inkscape:window-y="45" inkscape:current-layer="svg2" showgrid="false"/>
  <rect style="opacity: 1; fill: none; fill-opacity: 1; fill-rule: nonzero; stroke: none; stroke-width: 20.606; stroke-linecap: round; stroke-linejoin: round; stroke-miterlimit: 4; stroke-dasharray: none; stroke-dashoffset: 0pt; stroke-opacity: 1;" id="rect16156" width="752.51636" height="644.185" x="0" y="0" inkscape:export-filename="/home/peterm/afbeeldingen/svg/mouse.png" inkscape:export-xdpi="35.880001" inkscape:export-ydpi="35.880001"/>
  <g id="g14694" style="opacity: 1; fill: rgb(255, 255, 255); fill-opacity: 1; stroke: rgb(255, 255, 255); stroke-opacity: 1;" transform="matrix(1.06294, 0, 0, 1.06294, 883.349, 17.0937)" inkscape:export-filename="/home/peterm/afbeeldingen/svg/mouse.png" inkscape:export-xdpi="35.880001" inkscape:export-ydpi="35.880001">
    <path id="path14696" d="M -637.82867,58.938367 L -584.32688,149.81472 L -690.91626,93.489547 L -639.83939,171.82902 L -760.61742,174.68964 L -702.42053,215.06992 L -798.91779,252.44447 L -716.15659,267.99588 L -724.53848,274.08565 C -653.08786,223.94825 -719.45824,227.03985 -719.45824,272.1001 C -719.45824,342.46922 -726.18943,452.36231 -658.24683,452.36231 C -635.87072,452.36231 -614.95477,446.06257 -596.86799,435.24008 C -569.83434,452.02693 -514.40021,466.42582 -480.15585,469.24808 C -469.09132,524.21359 -412.63341,554.03889 -322.22014,554.0389 C -224.18867,554.0389 -164.65332,509.46472 -164.65332,447.83108 C -164.65332,392.67485 -201.12876,354.2139 -284.77954,345.18445 C -278.14747,326.94847 -276.31786,309.28582 -276.31785,289.00438 C -276.31785,277.3829 -270.26517,298.78893 -272.52058,287.7676 C -252.71523,264.05414 -259.10811,252.58581 -259.10811,220.39729 C -259.10811,142.7486 -327.64589,79.729657 -412.08883,79.729657 C -458.04185,79.729657 -499.20162,98.451797 -527.23896,127.98699 L -637.82867,58.938367 z" style="fill: rgb(255, 255, 255); fill-opacity: 1; fill-rule: nonzero; stroke: rgb(255, 255, 255); stroke-width: 18.2416; stroke-linecap: round; stroke-linejoin: round; stroke-miterlimit: 4; stroke-dashoffset: 0pt; stroke-opacity: 1;" sodipodi:nodetypes="cccccccccssccsscscsscc"/>
    <path sodipodi:nodetypes="css" id="path14698" d="M -698.34831,324.96378 C -757.85541,240.39916 -731.80145,130.86288 -652.95448,63.964284 C -595.68908,15.376808 -495.14084,13.873995 -391.9551,109.35825" style="fill: rgb(255, 255, 255); fill-opacity: 1; fill-rule: nonzero; stroke: rgb(255, 255, 255); stroke-width: 35.658; stroke-linecap: round; stroke-linejoin: miter; stroke-miterlimit: 4; stroke-dashoffset: 0pt; stroke-opacity: 1;"/>
    <path sodipodi:nodetypes="csscc" id="path14700" d="M -253.12053,298.06698 C -230.7486,271.28049 -217.41208,234.12825 -217.41208,197.76842 C -217.41208,110.05723 -295.89346,35.59863 -390.21757,49.79129 C -474.88457,62.530873 -488.61931,70.939649 -520.29001,104.3023 C -520.29001,104.3023 -250.57284,310.51657 -253.12053,298.06698 z" style="fill: rgb(255, 255, 255); fill-opacity: 1; fill-rule: nonzero; stroke: rgb(255, 255, 255); stroke-width: 20.6055; stroke-linecap: round; stroke-linejoin: miter; stroke-miterlimit: 4; stroke-dashoffset: 0pt; stroke-opacity: 1;"/>
    <path sodipodi:nodetypes="csscc" id="path14702" d="M -681.70965,246.48278 C -657.08889,235.43638 -737.07737,271.87052 -737.07737,358.66213 C -737.07737,443.04321 -685.50919,504.25102 -604.03783,504.25102 C -577.20617,504.25102 -537.5659,493.05699 -515.87766,480.07951 L -681.70965,246.48278 z" style="fill: rgb(255, 255, 255); fill-opacity: 1; fill-rule: nonzero; stroke: rgb(255, 255, 255); stroke-width: 21.8739; stroke-linecap: round; stroke-linejoin: miter; stroke-miterlimit: 4; stroke-dashoffset: 0pt; stroke-opacity: 1;"/>
  </g>
  <path style="fill: rgb(255, 0, 0); fill-opacity: 1; fill-rule: nonzero; stroke: rgb(0, 0, 0); stroke-width: 15.5823; stroke-linecap: round; stroke-linejoin: miter; stroke-miterlimit: 4; stroke-dashoffset: 0pt; stroke-opacity: 1;" d="M 272.30267,107.19065 L 318.00477,184.81872 L 219.18127,135.15021 L 270.58508,203.62369 L 125.43972,206.06728 L 217.12724,240.56078 L 78.281089,280.22469 L 185.18357,295.09874 L 198.23373,290.97298 C 169.09991,310.32971 149.71619,344.06306 149.71619,382.55427 C 149.71619,442.66472 196.82346,491.45312 254.86114,491.45312 C 273.97518,491.45312 291.84193,486.07178 307.29195,476.82703 C 330.38453,491.16664 357.52717,500.35716 386.77927,502.76798 C 396.23077,549.72042 460.00427,586.08003 537.23677,586.08004 C 620.97685,586.08004 688.93377,543.34018 688.93377,490.69172 C 688.93377,443.57636 634.45651,404.5039 563.00065,396.7908 C 568.66587,381.21333 571.78338,364.57098 571.78339,347.24624 C 571.78339,337.31898 570.73519,327.62115 568.80859,318.20655 C 585.72664,297.95012 595.81196,272.60746 595.81196,245.1115 C 595.81196,178.78272 537.26587,124.95091 465.13333,124.95091 C 425.87951,124.95091 390.72016,140.94367 366.7702,166.17311 L 272.30267,107.19065 z" id="path4261" sodipodi:nodetypes="cccccccccssccsscscsscc" inkscape:export-filename="/home/peterm/afbeeldingen/svg/mouse.png" inkscape:export-xdpi="35.880001" inkscape:export-ydpi="35.880001"/>
  <path style="fill: rgb(255, 0, 0); fill-opacity: 1; fill-rule: nonzero; stroke: rgb(0, 0, 0); stroke-width: 15.5823; stroke-linecap: round; stroke-linejoin: miter; stroke-miterlimit: 4; stroke-dashoffset: 0pt; stroke-opacity: 1;" d="M 538.73465,396.06696 C 622.47474,396.06696 690.43771,438.79615 690.43771,491.44462 C 690.43771,544.09309 622.47474,586.82228 538.73465,586.82228 C 454.99457,586.82228 387.0316,544.09309 387.0316,491.44462" id="path1318" sodipodi:nodetypes="ccss" inkscape:export-filename="/home/peterm/afbeeldingen/svg/mouse.png" inkscape:export-xdpi="35.880001" inkscape:export-ydpi="35.880001"/>
  <path style="opacity: 1; fill: rgb(255, 255, 255); fill-opacity: 1; fill-rule: nonzero; stroke: rgb(0, 0, 0); stroke-width: 15.5823; stroke-linecap: round; stroke-linejoin: miter; stroke-miterlimit: 4; stroke-dasharray: none; stroke-dashoffset: 0pt; stroke-opacity: 1;" d="M 468.14354,262.00411 C 436.01128,262.00411 409.92248,288.07519 409.92249,320.20745 C 409.92249,322.58405 410.10565,324.91722 410.38288,327.21948 C 400.97489,320.6883 389.58274,316.82539 377.27054,316.82539 C 345.13828,316.82539 319.04948,342.91419 319.04949,375.04644 C 319.04949,407.1787 345.13828,433.24977 377.27054,433.24979 C 409.40279,433.24979 435.47388,407.17871 435.47388,375.04644 C 435.47388,372.66985 435.29072,370.33667 435.0135,368.03442 C 444.42178,374.56624 455.83067,378.42849 468.14354,378.4285 C 500.2758,378.4285 526.34689,352.33971 526.34688,320.20745 C 526.34688,288.07519 500.2758,262.00412 468.14354,262.00411 z" id="path1321" inkscape:export-filename="/home/peterm/afbeeldingen/svg/mouse.png" inkscape:export-xdpi="35.880001" inkscape:export-ydpi="35.880001"/>
  <path style="fill: none; fill-opacity: 1; fill-rule: nonzero; stroke: rgb(0, 0, 0); stroke-width: 30.4597; stroke-linecap: round; stroke-linejoin: miter; stroke-miterlimit: 4; stroke-dashoffset: 0pt; stroke-opacity: 1;" d="M 163.08478,325.10617 C 112.25278,252.86969 129.62452,152.98815 201.8609,102.15613 C 274.09729,51.324182 373.97884,68.695929 424.81084,140.9324" id="path2053" sodipodi:nodetypes="css" inkscape:export-filename="/home/peterm/afbeeldingen/svg/mouse.png" inkscape:export-xdpi="35.880001" inkscape:export-ydpi="35.880001"/>
  <path style="opacity: 1; fill: rgb(0, 0, 0); fill-opacity: 1; fill-rule: nonzero; stroke: rgb(0, 0, 0); stroke-width: 6.23633; stroke-linecap: round; stroke-linejoin: miter; stroke-miterlimit: 4; stroke-dasharray: none; stroke-dashoffset: 0pt; stroke-opacity: 1;" d="M 443.52095,313.43725 C 430.66104,313.43725 420.21978,323.8714 420.21978,336.73135 C 420.21978,337.68251 420.2931,338.61629 420.40405,339.5377 C 416.6388,336.9238 412.07943,335.37778 407.15186,335.37778 C 394.29189,335.37778 383.85064,345.81902 383.85064,358.67898 C 383.85064,371.53892 394.29189,381.97307 407.15186,381.97308 C 420.01177,381.97308 430.44594,371.53893 430.44594,358.67898 C 430.44594,357.72782 430.37263,356.79404 430.26168,355.87262 C 434.02703,358.48679 438.59315,360.03254 443.52095,360.03254 C 456.38092,360.03254 466.81509,349.5913 466.81509,336.73135 C 466.81509,323.8714 456.38092,313.43725 443.52095,313.43725 z" id="path2785" inkscape:export-filename="/home/peterm/afbeeldingen/svg/mouse.png" inkscape:export-xdpi="35.880001" inkscape:export-ydpi="35.880001"/>
  <path style="fill: none; fill-opacity: 1; fill-rule: nonzero; stroke: rgb(0, 0, 0); stroke-width: 15.5823; stroke-linecap: round; stroke-linejoin: miter; stroke-miterlimit: 4; stroke-dasharray: none; stroke-dashoffset: 0pt; stroke-opacity: 1;" d="M 295.63913,364.09491 C 289.14771,364.10877 294.932,345.06839 308.55048,321.59405 C 322.16897,298.11971 338.49004,279.05683 344.98146,279.04297" id="path4265" sodipodi:nodetypes="css" inkscape:export-filename="/home/peterm/afbeeldingen/svg/mouse.png" inkscape:export-xdpi="35.880001" inkscape:export-ydpi="35.880001"/>
  <path style="fill: none; fill-opacity: 1; fill-rule: nonzero; stroke: rgb(0, 0, 0); stroke-width: 15.5826; stroke-linecap: round; stroke-linejoin: miter; stroke-miterlimit: 4; stroke-dasharray: none; stroke-dashoffset: 0pt; stroke-opacity: 1;" d="M 460.42909,237.96044 C 462.00034,234.6651 450.93098,233.01637 435.7207,234.28024 C 420.51041,235.5441 406.89062,239.24432 405.31938,242.53966" id="path4993" sodipodi:nodetypes="css" inkscape:export-filename="/home/peterm/afbeeldingen/svg/mouse.png" inkscape:export-xdpi="35.880001" inkscape:export-ydpi="35.880001"/>
  <path style="fill: rgb(121, 118, 132); fill-opacity: 1; fill-rule: nonzero; stroke: rgb(0, 0, 0); stroke-width: 17.6016; stroke-linecap: round; stroke-linejoin: miter; stroke-miterlimit: 4; stroke-dashoffset: 0pt; stroke-opacity: 1;" d="M 599.37203,309.9036 C 618.4825,287.02214 629.87477,258.39534 629.87477,227.33617 C 629.87477,152.41184 563.74169,91.603953 482.2615,91.603953 C 437.92077,91.603953 398.20512,109.66923 371.15149,138.16815 C 371.15149,138.16815 601.54831,320.53824 599.37203,309.9036 z" id="path4995" sodipodi:nodetypes="csscc" inkscape:export-filename="/home/peterm/afbeeldingen/svg/mouse.png" inkscape:export-xdpi="35.880001" inkscape:export-ydpi="35.880001"/>
  <path style="fill: rgb(121, 118, 132); fill-opacity: 1; fill-rule: nonzero; stroke: rgb(0, 0, 0); stroke-width: 18.685; stroke-linecap: round; stroke-linejoin: miter; stroke-miterlimit: 4; stroke-dashoffset: 0pt; stroke-opacity: 1;" d="M 178.85243,287.60425 C 143.91746,310.81531 120.67403,351.26569 120.67403,397.42129 C 120.67403,469.50099 177.16135,528.0042 246.75555,528.0042 C 269.67559,528.0042 291.09998,521.55132 309.62643,510.46574 L 178.85243,287.60425 z" id="path4997" sodipodi:nodetypes="csscc" inkscape:export-filename="/home/peterm/afbeeldingen/svg/mouse.png" inkscape:export-xdpi="35.880001" inkscape:export-ydpi="35.880001"/>
  <path style="fill: rgb(121, 118, 132); fill-opacity: 1; fill-rule: nonzero; stroke: rgb(0, 0, 0); stroke-width: 13.3087; stroke-linecap: round; stroke-linejoin: miter; stroke-miterlimit: 4; stroke-dashoffset: 0pt; stroke-opacity: 1;" d="M 174.38844,334.30866 C 149.50552,350.84106 254.33832,500.94072 267.53404,493.04486 L 174.38844,334.30866 z" id="path10929" sodipodi:nodetypes="ccc" inkscape:export-filename="/home/peterm/afbeeldingen/svg/mouse.png" inkscape:export-xdpi="35.880001" inkscape:export-ydpi="35.880001"/>
  <path style="fill: rgb(121, 118, 132); fill-opacity: 1; fill-rule: nonzero; stroke: rgb(0, 0, 0); stroke-width: 13.9644; stroke-linecap: round; stroke-linejoin: miter; stroke-miterlimit: 4; stroke-dashoffset: 0pt; stroke-opacity: 1;" d="M 596.60988,270.04305 C 611.77139,251.88978 437.01178,111.18477 415.54848,133.79472 C 415.54848,133.79472 598.33645,278.48016 596.60988,270.04305 z" id="path10931" sodipodi:nodetypes="ccc" inkscape:export-filename="/home/peterm/afbeeldingen/svg/mouse.png" inkscape:export-xdpi="35.880001" inkscape:export-ydpi="35.880001"/>
</svg>