<?xml version="1.0" encoding="UTF-8" standalone="no"?>
<!-- Generator: Adobe Illustrator 12.0.0, SVG Export Plug-In . SVG Version: 6.00 Build 51448)  -->
<svg
   xmlns:dc="http://purl.org/dc/elements/1.1/"
   xmlns:cc="http://creativecommons.org/ns#"
   xmlns:rdf="http://www.w3.org/1999/02/22-rdf-syntax-ns#"
   xmlns:svg="http://www.w3.org/2000/svg"
   xmlns="http://www.w3.org/2000/svg"
   xmlns:sodipodi="http://sodipodi.sourceforge.net/DTD/sodipodi-0.dtd"
   xmlns:inkscape="http://www.inkscape.org/namespaces/inkscape"
   height="159.511"
   id="Layer_1"
   inkscape:version="0.46"
   sodipodi:docbase="F:\openclip\svg da inviare"
   sodipodi:docname="igloo.svg"
   sodipodi:version="0.32"
   space="preserve"
   style="overflow: visible;"
   version="1.1"
   viewBox="0 0 408.159 159.511"
   width="408.159"
   inkscape:output_extension="org.inkscape.output.svg.inkscape">
  <metadata
     id="metadata3">
    <rdf:RDF>
      <cc:Work
         rdf:about="">
        <dc:title>Various Cliparts</dc:title>
        <dc:description />
        <dc:subject>
          <rdf:Bag>
            <rdf:li />
          </rdf:Bag>
        </dc:subject>
        <dc:publisher>
          <cc:Agent
             rdf:about="http://www.openclipart.org/">
            <dc:title />
          </cc:Agent>
        </dc:publisher>
        <dc:creator>
          <cc:Agent>
            <dc:title>Architetto Francesco Rollandin</dc:title>
          </cc:Agent>
        </dc:creator>
        <dc:rights>
          <cc:Agent>
            <dc:title>Architetto Francesco Rollandin</dc:title>
          </cc:Agent>
        </dc:rights>
        <dc:date />
        <dc:format>image/svg+xml</dc:format>
        <dc:type
           rdf:resource="http://purl.org/dc/dcmitype/StillImage" />
        <cc:license
           rdf:resource="http://web.resource.org/cc/PublicDomain" />
        <dc:language>en</dc:language>
      </cc:Work>
      <cc:License
         rdf:about="http://web.resource.org/cc/PublicDomain">
        <cc:permits
           rdf:resource="http://web.resource.org/cc/Reproduction" />
        <cc:permits
           rdf:resource="http://web.resource.org/cc/Distribution" />
        <cc:permits
           rdf:resource="http://web.resource.org/cc/DerivativeWorks" />
      </cc:License>
    </rdf:RDF>
  </metadata>
  <defs
     id="defs284">
    <inkscape:perspective
       sodipodi:type="inkscape:persp3d"
       inkscape:vp_x="0 : 79.755501 : 1"
       inkscape:vp_y="0 : 1000 : 0"
       inkscape:vp_z="408.159 : 79.755501 : 1"
       inkscape:persp3d-origin="204.0795 : 53.170334 : 1"
       id="perspective147" />
  </defs>
  <sodipodi:namedview
     bordercolor="#666666"
     borderopacity="1.0"
     id="base"
     inkscape:current-layer="Layer_1"
     inkscape:cx="285.8968"
     inkscape:cy="19.452386"
     inkscape:pageopacity="0.0"
     inkscape:pageshadow="2"
     inkscape:window-height="992"
     inkscape:window-width="1920"
     inkscape:window-x="-5"
     inkscape:window-y="0"
     inkscape:zoom="2.4773745"
     pagecolor="#ffffff"
     showgrid="false" />
  <rect
     style="opacity:1;fill:#ffffff;fill-opacity:1;stroke:none;stroke-width:2.5;stroke-linejoin:round;stroke-miterlimit:4;stroke-dasharray:none;stroke-dashoffset:0;stroke-opacity:1"
     id="rect3439"
     width="38.247066"
     height="25.973755"
     x="16.840126"
     y="132.39554"
     rx="18.552679"
     ry="25.973755" />
  <rect
     style="opacity:1;fill:#ffffff;fill-opacity:1;stroke:none;stroke-width:2.5;stroke-linejoin:round;stroke-miterlimit:4;stroke-dasharray:none;stroke-dashoffset:0;stroke-opacity:1"
     id="rect3443"
     width="46.238991"
     height="7.1356468"
     x="26.850222"
     y="150.86462"
     rx="0"
     ry="7.1356468" />
  <rect
     style="opacity:1;fill:#ffffff;fill-opacity:1;stroke:none;stroke-width:2.5;stroke-linejoin:round;stroke-miterlimit:4;stroke-dasharray:none;stroke-dashoffset:0;stroke-opacity:1"
     id="rect3441"
     width="47.380695"
     height="15.127563"
     x="11.13161"
     y="143.24173"
     rx="23.690348"
     ry="6.2289939" />
  <rect
     style="opacity:1;fill:#ffffff;fill-opacity:1;stroke:none;stroke-width:2.5;stroke-linejoin:round;stroke-miterlimit:4;stroke-dasharray:none;stroke-dashoffset:0;stroke-opacity:1"
     id="rect3437"
     width="57.085175"
     height="26.830032"
     x="143.56921"
     y="102.71125"
     rx="28.486208"
     ry="26.830032" />
  <rect
     style="opacity:1;fill:#ffffff;fill-opacity:1;stroke:none;stroke-width:2.5;stroke-linejoin:round;stroke-miterlimit:4;stroke-dasharray:none;stroke-dashoffset:0;stroke-opacity:1"
     id="rect3435"
     width="42.528458"
     height="12.844165"
     x="355.92606"
     y="145.52711"
     rx="0"
     ry="12.844165" />
  <rect
     style="opacity:1;fill:#ffffff;fill-opacity:1;stroke:#ffffff;stroke-width:1.04170167;stroke-linejoin:round;stroke-miterlimit:4;stroke-dasharray:none;stroke-dashoffset:0;stroke-opacity:1"
     id="rect2520"
     width="171.00125"
     height="84.80265"
     x="214.48196"
     y="73.154091"
     ry="42.401325"
     rx="30.70454" />
  <rect
     style="opacity:1;fill:#ffffff;fill-opacity:1;stroke:none;stroke-width:2.5;stroke-linejoin:round;stroke-miterlimit:4;stroke-dasharray:none;stroke-dashoffset:0;stroke-opacity:1"
     id="rect3431"
     width="245.46626"
     height="40.530476"
     x="26.259182"
     y="117.83882"
     rx="28.486208"
     ry="40.530476" />
  <path
     id="path5"
     d="M 269.015,22.152 C 279.633,30.793 290.685,38.932 299.777,49.265 C 304.056,54.128 308.24,64.875 313.371,68.653 C 329.203,80.313 367.887,58.43 378.474,87.827 C 375.213,84.557 363.8,71.451 357.583,73.231 C 351.774,74.895 354.418,86.448 352.004,91.976 C 352.985,75.54 356.366,74.181 342.273,72.088 C 340.021,71.754 334.679,75.315 332.544,76.808 C 333.049,76.046 333.683,75.148 334.834,73.804 C 300.235,77.399 243.685,71.134 234.961,115.728 C 248.297,114.495 313.87,115.624 313.943,100.275 C 313.472,104.448 321.124,116.032 327.393,114.01 C 331.905,112.556 333.685,99.717 338.696,96.124 C 356.468,83.382 372.218,99.769 370.889,117.73 C 395.324,117.119 375.832,99.405 383.337,96.412 C 385.806,95.428 391.087,130.395 391.351,131.323 C 394.019,140.697 400.4,149.183 407.374,155.503 C 410.168,158.034 404.739,159.326 402.939,152.07 C 394.786,168.408 397.851,148.375 392.208,146.632 C 382.029,143.489 377.542,158.284 365.451,155.217 C 370.202,151.813 371.519,134.612 364.736,140.336 C 361.823,139.266 360.531,139.397 356.866,139.763 C 360.199,140.248 363.075,141.269 366.882,141.052 C 366.882,141.242 366.882,141.434 366.882,141.624 C 362.544,141.252 356.813,141.937 353.719,143.484 C 357.547,143.534 360.907,144.487 365.165,144.486 C 362.022,144.807 359.233,146.095 357.153,146.632 C 359.553,146.693 362.99,147.43 364.736,147.633 C 361.025,148.151 359.873,149.471 357.153,150.639 C 359.74,150.811 364.422,151.719 365.738,151.783 C 360.899,151.162 356.003,151.591 351.429,153.072 C 354.285,153.332 358.321,154.329 360.587,154.503 C 347.905,153.358 342.455,158.785 332.828,157.938 C 326.935,157.419 320.865,150.772 313.941,156.934 C 317.239,151.277 323.34,150.502 328.392,154.788 C 332.348,136.325 333.867,113.568 313.369,109.574 C 300.878,107.14 280.611,108.718 275.595,120.448 C 272.862,126.84 273.327,145.539 276.453,149.352 C 276.415,149.348 275.879,149.917 275.882,149.923 C 274.914,149.621 271.13,147.694 270.158,147.062 C 269.938,147.175 273.299,144.615 273.019,145.917 C 273.353,139.16 275.022,131.125 274.164,124.454 C 271.851,106.478 263.232,113.974 244.302,116.117 C 229.912,117.747 234.677,127.033 231.527,136.33 C 229.607,116.157 224.038,118.379 202.481,118.016 C 190.076,117.807 151.241,112.582 142.243,120.305 C 137.866,124.062 138.769,129.788 138.451,135.115 C 137.572,149.872 138.14,145.729 147.68,147.634 C 154.348,148.965 161.635,144.382 167.711,150.068 C 171.981,144.153 179.293,144.98 184.881,146.204 C 184.737,147.33 184.424,149.78 184.166,150.641 C 178.646,145.319 168.757,146.558 169.429,155.219 C 166.428,149.716 155.107,144.544 153.261,154.789 C 152.355,154.789 151.448,154.789 150.542,154.789 C 150.589,146.894 142.577,149.087 138.811,154.504 C 140.22,141.345 129.493,151.85 124.216,153.502 C 121.796,154.26 118.313,153.507 112.77,154.789 C 110.151,147.185 100.592,149.486 100.035,156.22 C 98.147,151.542 93.13,149.255 88.302,150.641 C 97.455,144.889 112.597,150.067 122.642,152.072 C 124.634,148.398 127.105,147.989 130.226,145.633 C 135.683,141.514 136.595,148.553 137.141,139.205 C 137.323,136.095 139.828,124.977 137.809,122.454 C 132.179,115.414 107.592,121.281 98.175,122.169 C 87.209,123.203 49.897,122.134 59.971,142.2 C 59.813,141.885 59.537,145.574 59.542,145.92 C 66.943,140.833 68.018,147.552 73.564,147.924 C 78.749,148.272 82.52,142.002 86.585,147.924 C 80.847,145.309 75.478,147.592 72.992,152.359 C 71.288,144.257 61.56,144.938 56.394,150.642 C 58.753,144.408 57.083,139.868 50.099,140.77 C 50.779,134.779 48.274,134.071 42.945,135.905 C 53.225,119.676 24.42,121.399 29.638,136.62 C 24.182,135.207 21.515,137.868 22.341,143.488 C 17.501,143.646 13.207,146.521 11.753,151.786 C 13.283,152.695 13.001,152.365 14.185,153.504 C 14.152,153.513 13.682,153.7 13.756,153.79 C 12.387,154.085 12.548,153.033 12.039,152.073 C 1.321,158.633 24.229,131.51 27.206,127.749 C 28.685,125.88 33.699,123.716 34.503,122.17 C 37.89,115.66 38.627,104.803 40.593,96.49 C 44.85,78.494 55.873,60.786 67.984,47.051 C 119.906,-11.833 204.023,-9.776 269.015,22.152" />
  <path
     style="fill:#ffffff"
     id="path7"
     d="M 235.248,9.275 C 197.08,8.618 158.904,9.742 120.926,13.711 C 157.301,-1.396 197.74,-1.74 235.248,9.275" />
  <path
     style="fill:#ffffff"
     id="path9"
     d="M 235.676,11.993 C 239.028,20.716 237.931,30.962 240.684,38.892 C 241.914,34.714 237.365,13.582 238.824,12.28 C 247.758,4.303 286.228,38.792 293.053,45.331 C 229.71,37.849 166.728,39.634 103.469,47.048 C 105.041,36.666 108.491,25.942 114.772,17.43 C 102.529,22.99 107.964,46.851 94.598,48.336 C 84.727,49.432 75.123,50.105 66.983,53.201 C 86.984,27.75 110.86,16.349 142.102,13.711 C 151.175,12.944 169,7.043 169,18.289 C 169,25.117 167.591,32.731 169.429,38.75 C 171.607,31.238 170.877,21.675 171.107,13.42 C 171.183,10.667 187.173,11.337 190.463,11.278 C 205.535,11.01 220.62,11.362 235.676,11.993" />
  <path
     style="fill:#ffffff"
     id="path11"
     d="M 207.204,42.327 C 210.714,46.698 213.549,67.603 209.922,73.089 C 206.066,78.922 147.109,84.669 140.242,79.67 C 134.341,75.374 134.553,53.104 140.242,47.048 C 150.046,36.612 192.729,42.796 207.204,42.327" />
  <path
     style="fill:#ffffff"
     id="path13"
     d="M 271.162,45.761 C 272.423,49.925 273.168,72.162 275.168,73.519 C 277.128,74.85 274.562,49.485 273.451,45.904 C 295.342,46.145 302.83,54.98 312.941,73.804 C 289.897,76.575 268.697,78.817 245.907,78.168 C 237.865,77.939 216.389,81.226 211.926,75.235 C 210.047,72.713 211.048,46.237 213.142,44.044 C 220.544,36.289 261.242,44.046 271.162,45.761" />
  <path
     style="fill:#ffffff"
     id="path15"
     d="M 137.093,47.048 C 135.489,65.675 139.208,78.958 118.779,81.531 C 111.792,82.411 68.16,90.059 68.843,82.891 C 69.433,76.7 69.295,68.878 71.705,63.074 C 77.258,49.698 85.964,51.955 101.037,49.767 C 111.381,48.265 126.959,42.749 137.093,47.048" />
  <path
     style="fill:#ffffff"
     id="path17"
     d="M 71.418,54.489 C 70.336,60.875 70.105,80.471 66.41,85.109 C 61.933,90.729 52.217,90.164 45.806,91.69 C 48.927,80.117 58.248,55.254 71.418,54.489" />
  <path
     id="path19"
     d="M 328.679,79.67 C 324.093,83.924 320.124,90.046 315.946,92.978 C 318.593,87.045 323.275,81.059 328.679,79.67" />
  <path
     style="fill:#ffffff"
     id="path21"
     d="M 259,80.816 C 248.637,86.672 240.692,95.537 235.678,106.285 C 232.357,113.4 234.871,117.478 226.306,117.371 C 212.593,117.199 198.881,117.027 185.168,116.855 C 165.793,116.612 175.327,99.066 172.149,85.394 C 172.149,85.392 171.726,85.407 171.72,85.394 C 170.996,91.847 173.757,105.065 170.861,110.577 C 164.832,122.053 133.261,117.926 119.495,119.018 C 88.081,121.511 99.21,114.223 97.602,88.255 C 92.834,100.665 101.324,119.546 85.012,122.095 C 71.016,124.283 50.227,130.37 40.943,121.879 C 39.284,98.142 45.665,93.411 68.2,89.544 C 89.575,85.876 106.205,84.294 127.365,82.532 C 170.865,78.908 213.369,79.722 259,80.816" />
  <path
     id="path23"
     d="M 381.191,90.259 C 379.8,90.693 380.685,93.006 378.616,91.547 C 378.921,88.401 380.012,90.626 381.191,90.259" />
  <path
     style="fill:#ffffff"
     id="path25"
     d="M 352.289,95.124 C 351.507,97.038 353.884,98.962 349.714,98.558 C 348.762,94.101 351.819,96.274 352.289,95.124" />
  <path
     style="fill:#ffffff"
     id="path27"
     d="M 355.865,95.124 C 354.623,96.204 353.544,97.141 355.865,95.124" />
  <path
     style="fill:#ffffff"
     id="path29"
     d="M 347.567,95.409 C 345.62,97.321 345.754,97.188 347.567,95.409" />
  <path
     style="fill:#ffffff"
     id="path31"
     d="M 360.015,97.986 C 359.04,97.169 356.873,101.175 357.869,95.409 C 360.357,95.748 359.16,97.268 360.015,97.986" />
  <path
     style="fill:#ffffff"
     id="path33"
     d="M 363.735,97.986 C 360.63,96.769 361.559,97.133 363.735,97.986" />
  <path
     style="fill:#ffffff"
     id="path35"
     d="M 354.865,98.558 C 357.118,97.918 356.243,98.167 354.865,98.558" />
  <path
     style="fill:#ffffff"
     id="path37"
     d="M 343.418,103.279 C 344.758,101.301 343.749,98.874 347.566,100.561 C 346.184,101.467 344.801,102.373 343.418,103.279" />
  <path
     style="fill:#ffffff"
     id="path39"
     d="M 352.289,100.561 C 351.097,101.846 352.882,104.211 349.427,103.136 C 349.509,100.462 351.462,101.452 352.289,100.561" />
  <path
     style="fill:#ffffff"
     id="path41"
     d="M 356.152,100.561 C 354.041,101.57 353.623,101.769 356.152,100.561" />
  <path
     style="fill:#ffffff"
     id="path43"
     d="M 359.586,103.279 C 358.934,102.235 356.971,103.614 357.868,100.561 C 361.356,100.002 358.573,101.655 359.586,103.279" />
  <path
     style="fill:#ffffff"
     id="path45"
     d="M 363.735,103.709 C 362.99,102.355 360.797,103.817 361.732,100.561 C 365.053,100.043 362.725,101.874 363.735,103.709" />
  <path
     style="fill:#ffffff"
     id="path47"
     d="M 367.312,103.279 C 366.436,103.07 365.295,105.263 365.595,102.279 C 365.953,98.714 366.487,103.082 367.312,103.279" />
  <path
     style="fill:#ffffff"
     id="path49"
     d="M 341.415,102.851 C 338.22,101.69 341.103,102.738 341.415,102.851" />
  <path
     style="fill:#ffffff"
     id="path51"
     d="M 336.979,106.571 C 337.123,105.83 337.341,104.697 336.979,106.571" />
  <path
     style="fill:#ffffff"
     id="path53"
     d="M 347.567,104.998 C 345.214,105.978 343.846,109.169 343.419,104.998 C 344.801,104.998 346.184,104.998 347.567,104.998" />
  <path
     style="fill:#ffffff"
     id="path55"
     d="M 349.713,107.428 C 350.296,106.926 350.795,105.542 352.003,104.997 C 353.5,108.652 351.109,106.228 349.713,107.428" />
  <path
     style="fill:#ffffff"
     id="path57"
     d="M 356.581,105.998 C 353.46,105.537 354.243,105.652 356.581,105.998" />
  <path
     style="fill:#ffffff"
     id="path59"
     d="M 360.015,106.428 C 360.444,106.611 357.538,109.293 358.083,106.212 C 358.623,103.165 359.217,106.088 360.015,106.428" />
  <path
     style="fill:#ffffff"
     id="path61"
     d="M 363.735,107.715 C 362.462,106.649 361.14,108.518 361.732,105.425 C 364.938,104.709 362.554,106.727 363.735,107.715" />
  <path
     style="fill:#ffffff"
     id="path63"
     d="M 368.6,107.428 C 366.577,106.938 365.037,109.323 365.452,105.425 C 368.616,104.516 367.508,107.164 368.6,107.428" />
  <path
     style="fill:#ffffff"
     id="path65"
     d="M 339.984,107.143 C 342.418,106.524 341.549,106.745 339.984,107.143" />
  <path
     style="fill:#ffffff"
     id="path67"
     d="M 341.415,109.146 C 339.1,109.958 338.355,110.219 341.415,109.146" />
  <path
     style="fill:#ffffff"
     id="path69"
     d="M 347.996,110.433 C 347.046,110.403 345.205,111.946 343.419,111.579 C 345.044,107.803 346.482,110.384 347.996,110.433" />
  <path
     style="fill:#ffffff"
     id="path71"
     d="M 356.152,111.864 C 355.376,110.738 353.179,112.623 354.149,109.146 C 357.373,108.532 355.093,110.328 356.152,111.864" />
  <path
     style="fill:#ffffff"
     id="path73"
     d="M 360.015,111.864 C 359.119,110.669 356.885,112.756 357.869,109.146 C 361.26,108.452 358.882,110.353 360.015,111.864" />
  <path
     style="fill:#ffffff"
     id="path75"
     d="M 364.021,110.863 C 363.62,110.601 361.75,113.682 361.732,109.146 C 364.031,108.692 363.082,110.25 364.021,110.863" />
  <path
     style="fill:#ffffff"
     id="path77"
     d="M 369.173,110.433 C 369.133,110.437 368.039,112.508 365.451,111.864 C 366.39,107.242 367.647,110.568 369.173,110.433" />
  <path
     style="fill:#ffffff"
     id="path79"
     d="M 349.713,111.864 C 353.496,110.624 353.032,110.776 349.713,111.864" />
  <path
     style="fill:#ffffff"
     id="path81"
     d="M 341.701,113.583 C 340.463,113.784 339.411,117.567 339.411,114.512 C 339.411,112.132 340.418,113.792 341.701,113.583" />
  <path
     style="fill:#ffffff"
     id="path83"
     d="M 347.567,115.156 C 346.882,115.072 344.778,116.298 343.419,116.013 C 346.664,112.906 347.36,115.13 347.567,115.156" />
  <path
     style="fill:#ffffff"
     id="path85"
     d="M 352.289,115.013 C 353.861,115.959 350.346,115.465 350.715,115.87 C 350.718,115.95 351.947,114.372 352.004,114.297 C 350.61,113.242 350.152,113.972 349.284,113.294 C 352.285,112.691 351.596,114.578 352.289,115.013" />
  <path
     style="fill:#ffffff"
     id="path87"
     d="M 356.581,116.013 C 355.47,114.747 353.042,117.098 354.435,113.294 C 357.716,112.985 355.415,114.684 356.581,116.013" />
  <path
     style="fill:#ffffff"
     id="path89"
     d="M 360.015,116.013 C 359.024,114.86 356.982,116.984 357.869,113.582 C 361.153,112.843 358.897,114.712 360.015,116.013" />
  <path
     style="fill:#ffffff"
     id="path91"
     d="M 364.021,115.156 C 363.64,114.937 361.865,118.278 361.732,113.583 C 364.047,113.345 363.508,114.862 364.021,115.156" />
  <path
     style="fill:#ffffff"
     id="path93"
     d="M 369.173,116.729 C 367.933,116.729 366.692,116.729 365.451,116.729 C 366.149,111.144 367.209,115.55 369.173,116.729" />
  <path
     style="fill:#ffffff"
     id="path95"
     d="M 336.264,115.728 C 338.165,113.568 337.143,114.729 336.264,115.728" />
  <path
     id="path97"
     d="M 313.227,115.013 C 311.068,116.383 311.965,115.814 313.227,115.013" />
  <path
     style="fill:#ffffff"
     id="path99"
     d="M 341.701,117.731 C 341.047,118.231 340.66,119.648 339.411,120.164 C 338.886,117.417 340.519,118.634 341.701,117.731" />
  <path
     style="fill:#ffffff"
     id="path101"
     d="M 347.996,119.733 C 346.725,119.621 345.035,120.996 343.419,120.879 C 346.37,116.64 347.048,119.65 347.996,119.733" />
  <path
     style="fill:#ffffff"
     id="path103"
     d="M 352.289,121.164 C 350.39,119.488 348.199,122.719 349.284,117.731 C 350.429,117.731 351.574,117.731 352.719,117.731 C 352.716,117.791 352.542,121.388 352.289,121.164" />
  <path
     style="fill:#ffffff"
     id="path105"
     d="M 356.152,117.731 C 355.708,119.811 358.349,121.177 354.149,121.164 C 353.146,117.75 356.04,118.256 356.152,117.731" />
  <path
     style="fill:#ffffff"
     id="path107"
     d="M 360.015,120.878 C 359.163,119.871 356.206,121.051 359.013,117.586 C 360.973,118.539 359.28,120.009 360.015,120.878" />
  <path
     style="fill:#ffffff"
     id="path109"
     d="M 364.021,118.446 C 363.055,120.152 365.392,121.874 361.732,121.164 C 360.221,115.246 363.28,119.756 364.021,118.446" />
  <path
     style="fill:#ffffff"
     id="path111"
     d="M 385.054,118.446 C 385.462,124.831 388.697,136.617 386.343,142.627 C 382.851,151.546 374.242,155.283 370.889,146.776 C 365.347,132.716 370.404,116.875 385.054,118.446" />
  <path
     style="fill:#ffffff"
     id="path113"
     d="M 369.173,121.164 C 367.933,121.164 366.692,121.164 365.451,121.164 C 365.547,120.258 365.642,119.352 365.738,118.446 C 370.319,117.199 367.658,120.087 369.173,121.164" />
  <path
     style="fill:#ffffff"
     id="path115"
     d="M 337.264,120.449 C 334.641,119.168 336.436,120.044 337.264,120.449" />
  <path
     style="fill:#ffffff"
     id="path117"
     d="M 341.701,122.595 C 341.899,122.474 340.832,124.279 339.411,124.598 C 338.758,121.676 340.284,123.463 341.701,122.595" />
  <path
     style="fill:#ffffff"
     id="path119"
     d="M 347.996,123.883 C 348.314,123.866 344.905,125.239 343.419,124.885 C 345.554,122.775 346.987,123.937 347.996,123.883" />
  <path
     style="fill:#ffffff"
     id="path121"
     d="M 352.718,124.313 C 351.534,123.93 350.759,123.429 349.283,124.313 C 350.964,120.359 351.451,123.903 352.718,124.313" />
  <path
     style="fill:#ffffff"
     id="path123"
     d="M 356.581,124.741 C 355.295,123.64 353.34,126.094 354.149,122.595 C 357.61,121.988 355.542,123.852 356.581,124.741" />
  <path
     style="fill:#ffffff"
     id="path125"
     d="M 360.588,124.741 C 359.052,123.645 357.103,126.18 357.868,122.595 C 361.193,122.003 359.423,123.91 360.588,124.741" />
  <path
     style="fill:#ffffff"
     id="path127"
     d="M 363.735,122.595 C 363.297,124.539 365.549,126.02 361.732,125.6 C 361.192,122.907 363.654,122.957 363.735,122.595" />
  <path
     id="path129"
     d="M 312.225,156.507 C 307.346,155.846 298.319,150.581 293.482,159.511 C 293.077,159.258 292.695,158.972 292.337,158.653 C 295.951,146.296 278.301,151.657 274.452,157.222 C 275.413,147.765 290.188,145.242 295.341,154.503 C 300.987,150.338 307.498,152.186 310.223,156.219 C 312.186,145.562 311.008,133.852 311.509,122.882 C 315.458,130.042 312.431,146.904 312.225,156.507" />
  <path
     style="fill:#ffffff"
     id="path131"
     d="M 369.173,125.314 C 366.894,124.611 365.273,127.467 365.451,122.882 C 369.679,121.667 368.202,125.014 369.173,125.314" />
  <path
     style="fill:#ffffff"
     id="path133"
     d="M 337.695,124.313 C 335.41,124.517 336.65,124.407 337.695,124.313" />
  <path
     style="fill:#ffffff"
     id="path135"
     d="M 335.978,126.459 C 333.499,126.351 335.355,126.432 335.978,126.459" />
  <path
     style="fill:#ffffff"
     id="path137"
     d="M 342.129,128.606 C 338.868,125.237 340.555,126.979 342.129,128.606" />
  <path
     style="fill:#ffffff"
     id="path139"
     d="M 343.847,127.747 C 344.965,126.418 345.669,125.583 343.847,127.747" />
  <path
     style="fill:#ffffff"
     id="path141"
     d="M 352.289,126.459 C 350.98,126.963 350.637,127.832 349.284,128.032 C 349.839,125.964 350.886,127 352.289,126.459" />
  <path
     style="fill:#ffffff"
     id="path143"
     d="M 356.581,129.034 C 355.357,127.81 353.276,130.175 354.149,126.602 C 357.721,125.729 355.357,127.81 356.581,129.034" />
  <path
     style="fill:#ffffff"
     id="path145"
     d="M 360.301,129.034 C 359.087,127.805 356.993,130.181 357.868,126.602 C 359.866,126.997 359.534,128.256 360.301,129.034" />
  <path
     style="fill:#ffffff"
     id="path147"
     d="M 364.021,127.318 C 363.266,128.406 365.657,129.772 362.019,129.034 C 360.513,125.101 363.067,128.692 364.021,127.318" />
  <path
     style="fill:#ffffff"
     id="path149"
     d="M 369.173,128.606 C 367.933,128.749 366.692,128.891 365.451,129.034 C 367.048,125.555 367.992,128.3 369.173,128.606" />
  <path
     style="fill:#ffffff"
     id="path151"
     d="M 59.113,128.606 C 59.47,132.614 58.629,137.028 58.398,141.053 C 52.722,135.818 38.328,124.599 59.113,128.606" />
  <path
     style="fill:#ffffff"
     id="path153"
     d="M 346.565,128.606 C 348.265,128.354 348.33,128.344 346.565,128.606" />
  <path
     style="fill:#ffffff"
     id="path155"
     d="M 337.695,130.464 C 336.591,131.116 337.178,132.47 334.547,131.752 C 334.586,128.859 335.972,131.483 337.695,130.464" />
  <path
     style="fill:#ffffff"
     id="path157"
     d="M 343.847,131.467 C 344.889,130.626 346.386,129.418 343.847,131.467" />
  <path
     style="fill:#ffffff"
     id="path159"
     d="M 352.718,131.467 C 351.82,131.409 350.549,132.428 349.283,132.183 C 349.16,131.809 349.112,131.427 349.14,131.037 C 351.087,129.806 352.125,131.429 352.718,131.467" />
  <path
     style="fill:#ffffff"
     id="path161"
     d="M 357.154,131.467 C 356.671,131.459 356.626,132.93 354.434,132.468 C 354.369,131.796 354.571,131.659 354.291,130.895 C 355.449,130.134 356.091,131.451 357.154,131.467" />
  <path
     style="fill:#ffffff"
     id="path163"
     d="M 369.173,130.752 C 369.068,130.769 367.967,133.281 365.165,132.468 C 365.454,129.631 366.87,131.114 369.173,130.752" />
  <path
     style="fill:#ffffff"
     id="path165"
     d="M 360.588,132.039 C 359.025,131.574 357.888,134.345 357.868,130.753 C 359.875,130.426 360.164,131.912 360.588,132.039" />
  <path
     style="fill:#ffffff"
     id="path167"
     d="M 364.308,132.468 C 362.919,131.155 361.067,134.528 361.732,130.752 C 364.125,130.383 363.501,131.706 364.308,132.468" />
  <path
     style="fill:#ffffff"
     id="path169"
     d="M 342.129,132.039 C 339.247,131.021 342.441,132.148 342.129,132.039" />
  <path
     style="fill:#ffffff"
     id="path171"
     d="M 347.996,132.039 C 344.87,131.022 348.296,132.136 347.996,132.039" />
  <path
     style="fill:#ffffff"
     id="path173"
     d="M 391.922,144.917 C 386.351,144.004 386.105,138.896 388.059,132.898 C 392.538,136.113 392.185,139.601 391.922,144.917" />
  <path
     style="fill:#ffffff"
     id="path175"
     d="M 347.996,133.899 C 346.595,134.543 345.381,135.759 343.848,136.332 C 343.848,135.521 343.848,134.71 343.848,133.899 C 345.23,133.899 346.613,133.899 347.996,133.899" />
  <path
     style="fill:#ffffff"
     id="path177"
     d="M 352.289,133.899 C 351.172,135.601 355.454,138.041 349.284,136.903 C 349.674,134.55 351.41,135.237 352.289,133.899" />
  <path
     style="fill:#ffffff"
     id="path179"
     d="M 356.581,133.899 C 355.872,135.101 356.994,136.017 356.152,137.334 C 352.16,134.607 355.691,135.407 356.581,133.899" />
  <path
     style="fill:#ffffff"
     id="path181"
     d="M 337.695,134.185 C 336.679,134.881 336.191,136.144 334.547,136.331 C 335.311,134.628 336.445,135.042 337.695,134.185" />
  <path
     style="fill:#ffffff"
     id="path183"
     d="M 360.588,135.187 C 361.149,135.228 362.086,135.228 364.449,134.614 C 364.449,135.52 364.449,136.427 364.449,137.334 C 362.256,137.19 360.061,137.047 357.868,136.903 C 358.579,131.763 359.408,135.43 360.588,135.187" />
  <path
     style="fill:#ffffff"
     id="path185"
     d="M 369.173,137.333 C 367.837,137.189 366.501,137.046 365.165,136.902 C 365.165,136.139 365.165,135.376 365.165,134.613 C 370.036,133.225 367.63,136.296 369.173,137.333" />
  <path
     style="fill:#ffffff"
     id="path187"
     d="M 342.129,134.756 C 340.99,136.037 342.544,137.792 339.41,136.902 C 340.067,135.603 341.259,135.735 342.129,134.756" />
  <path
     id="path189"
     d="M 242.115,142.484 C 240.782,143.895 239.491,144.936 237.393,145.488 C 238.273,144.447 239.505,143.718 240.399,142.77 C 235.835,133.771 225.427,143.005 218.506,140.337 C 225.433,139.62 237.833,131.929 242.115,142.484" />
  <path
     style="fill:#ffffff"
     id="path191"
     d="M 337.695,139.764 C 336.329,139.478 335.494,140.551 334.403,139.48 C 336.315,137.671 336.804,139.578 337.695,139.764" />
  <path
     style="fill:#ffffff"
     id="path193"
     d="M 347.996,138.622 C 346.144,139.756 345.839,142.273 343.848,138.622 C 345.23,138.622 346.613,138.622 347.996,138.622" />
  <path
     style="fill:#ffffff"
     id="path195"
     d="M 356.581,140.337 C 355.236,139.554 353.815,141.887 354.149,138.621 C 357.087,137.765 355.543,139.734 356.581,140.337" />
  <path
     style="fill:#ffffff"
     id="path197"
     d="M 352.718,140.337 C 348.469,139.021 352.478,140.263 352.718,140.337" />
  <path
     id="path199"
     d="M 216.36,141.053 C 215.34,141.998 215.778,143.371 213.929,143.772 C 213.872,143.621 213.643,143.406 213.498,143.341 C 213.546,143.198 213.498,143.151 213.355,143.198 C 214.043,141.284 215.728,141.639 216.36,141.053" />
  <path
     id="path201"
     d="M 233.245,141.339 C 231.001,141.657 230.905,141.67 233.245,141.339" />
  <path
     id="path203"
     d="M 193.897,143.199 C 191.618,143.02 191.837,143.037 193.897,143.199" />
  <path
     style="fill:#ffffff"
     id="path205"
     d="M 340.699,142.055 C 339.747,144.048 340.265,142.962 340.699,142.055" />
  <path
     style="fill:#ffffff"
     id="path207"
     d="M 347.996,143.486 C 343.618,141.759 347.354,143.233 347.996,143.486" />
  <path
     style="fill:#ffffff"
     id="path209"
     d="M 352.718,143.486 C 350.738,142.744 349.297,144.976 349.283,142.055 C 352.003,141.268 352.07,143.243 352.718,143.486" />
  <path
     style="fill:#ffffff"
     id="path211"
     d="M 336.264,143.199 C 338.699,142.58 337.83,142.8 336.264,143.199" />
  <path
     id="path213"
     d="M 190.605,143.629 C 187.89,143.501 188.258,143.519 190.605,143.629" />
  <path
     id="path215"
     d="M 199.906,144.917 C 203.704,147.067 204.607,149.894 209.493,147.923 C 209.379,151.074 208.911,151.967 207.204,154.073 C 202.594,149.496 207.719,150.92 202.482,152.786 C 201.549,148.977 197.799,144.403 195.471,142.77 C 196.846,143.413 198.58,144.243 199.906,144.917" />
  <path
     id="path217"
     d="M 247.838,144.201 C 246.212,144.333 246.164,146.112 244.261,144.488 C 246.257,142.879 247.369,144.239 247.838,144.201" />
  <path
     id="path219"
     d="M 186.886,144.201 C 185.203,145.543 185.16,145.578 186.886,144.201" />
  <path
     id="path221"
     d="M 211.638,146.633 C 210.75,144.814 210.188,143.663 211.638,146.633" />
  <path
     id="path223"
     d="M 47.094,146.633 C 45.469,144.547 45.777,144.943 47.094,146.633" />
  <path
     id="path225"
     d="M 235.962,146.918 C 234.747,145.354 234.198,144.647 235.962,146.918" />
  <path
     id="path227"
     d="M 28.78,145.345 C 28.012,146.05 28.947,147.752 26.777,146.918 C 26.778,146.749 26.651,146.739 26.49,146.633 C 27.171,145.255 28.557,145.55 28.78,145.345" />
  <path
     id="path229"
     d="M 266.439,145.203 C 265.332,145.766 265.391,147.641 263.148,146.776 C 263.19,146.668 263.056,146.255 263.005,146.204 C 264.046,145.399 265.904,145.475 266.439,145.203" />
  <path
     style="fill:#ffffff"
     id="path231"
     d="M 337.98,145.203 C 336.743,145.504 336.021,146.205 334.546,145.919 C 335.319,144.494 336.261,145.621 337.98,145.203" />
  <path
     style="fill:#ffffff"
     id="path233"
     d="M 347.996,146.633 C 345.676,145.941 344.169,148.138 343.848,145.202 C 346.546,144.448 347.505,146.487 347.996,146.633" />
  <path
     style="fill:#ffffff"
     id="path235"
     d="M 350,145.776 C 350.248,145.498 351.352,144.258 350,145.776" />
  <path
     style="fill:#ffffff"
     id="path237"
     d="M 356.867,145.345 C 356.574,145.41 356.354,147.28 354.149,146.633 C 354.718,144.929 355.685,145.608 356.867,145.345" />
  <path
     id="path239"
     d="M 42.658,146.204 C 40.458,147.683 41.355,147.08 42.658,146.204" />
  <path
     id="path241"
     d="M 50.528,148.207 C 50.247,147.32 48.193,147.733 49.956,145.919 C 52.146,146.726 50.306,147.504 50.528,148.207" />
  <path
     id="path243"
     d="M 233.245,146.204 C 232.167,148.328 232.042,148.573 233.245,146.204" />
  <path
     id="path245"
     d="M 260.43,146.633 C 259.316,147.419 259.417,148.738 257.569,148.922 C 257.559,148.801 257.436,148.681 257.283,148.637 C 257.909,146.344 259.283,147.443 260.43,146.633" />
  <path
     id="path247"
     d="M 22.77,148.637 C 21.279,147.238 20.313,146.331 22.77,148.637" />
  <path
     id="path249"
     d="M 34.073,148.637 C 33.247,147.804 31.449,149.328 32.642,146.776 C 34.82,145.807 33.189,147.746 34.073,148.637" />
  <path
     id="path251"
     d="M 253.132,148.637 C 252.558,148.278 251.548,150.231 251.13,147.206 C 253.163,145.785 251.966,147.907 253.132,148.637" />
  <path
     id="path253"
     d="M 236.822,147.778 C 236.36,149.102 238.07,150.202 235.248,150.64 C 235.311,149.2 236.515,148.658 236.822,147.778" />
  <path
     style="fill:#ffffff"
     id="path255"
     d="M 345.564,148.207 C 344.103,148.901 342.853,149.495 345.564,148.207" />
  <path
     style="fill:#ffffff"
     id="path257"
     d="M 355.865,148.207 C 352.399,149.105 350.119,151.145 345.849,150.353 C 349.866,149.351 350.925,148.977 355.865,148.207" />
  <path
     id="path259"
     d="M 38.509,149.353 C 36.712,151.144 36.819,151.894 34.503,153.073 C 34.502,153.129 33.645,152.01 33.788,152.071 C 35.118,150.606 38.071,149.68 38.509,149.353" />
  <path
     id="path261"
     d="M 18.907,149.638 C 18.26,150.834 19.685,152.421 17.762,151.784 C 16.784,149.999 18.487,150.416 18.907,149.638" />
  <path
     id="path263"
     d="M 52.96,150.64 C 50.693,151.269 51.224,151.123 52.96,150.64" />
  <path
     id="path265"
     d="M 230.668,150.353 C 229.7,152.968 230.228,151.542 230.668,150.353" />
  <path
     id="path267"
     d="M 253.561,152.786 C 252.45,153.067 251.147,154.602 250.128,155.219 C 251.048,151.175 253.109,152.9 253.561,152.786" />
  <path
     id="path269"
     d="M 235.248,152.071 C 234.113,152.785 233.254,155.179 230.526,154.646 C 230.587,154.582 230.395,154.081 230.383,154.073 C 231.852,153.654 233.794,152.986 235.248,152.071" />
  <path
     style="fill:#ffffff"
     id="path271"
     d="M 349.284,152.071 C 347.373,152.484 346.678,153.888 345.135,152.071 C 346.517,152.071 347.901,152.071 349.284,152.071" />
  <path
     id="path273"
     d="M 16.903,153.501 C 14.624,154.403 15.553,154.036 16.903,153.501" />
  <path
     id="path275"
     d="M 90.019,155.792 C 89.31,154.932 87.505,152.746 90.019,155.792" />
  <path
     style="fill:#ffffff"
     id="path277"
     d="M 398.647,155.218 C 395.701,154.531 398.436,155.169 398.647,155.218" />
  <path
     id="path279"
     d="M 4.599,153.788 C 3.638,154.871 4.325,156.075 2.453,156.508 C 1.916,153.945 3.633,154.876 4.599,153.788" />
  <path
     id="path281"
     d="M 1.165,156.934 C -0.275,158.67 -0.498,158.939 1.165,156.934" />
</svg>
