<?xml version="1.0" encoding="UTF-8" standalone="no"?>
<!-- Generator: Adobe Illustrator 12.0.1, SVG Export Plug-In . SVG Version: 6.00 Build 51448)  -->

<svg
   xmlns:dc="http://purl.org/dc/elements/1.1/"
   xmlns:cc="http://creativecommons.org/ns#"
   xmlns:rdf="http://www.w3.org/1999/02/22-rdf-syntax-ns#"
   xmlns:svg="http://www.w3.org/2000/svg"
   xmlns="http://www.w3.org/2000/svg"
   xmlns:xlink="http://www.w3.org/1999/xlink"
   xmlns:sodipodi="http://sodipodi.sourceforge.net/DTD/sodipodi-0.dtd"
   xmlns:inkscape="http://www.inkscape.org/namespaces/inkscape"
   version="1.0"
   id="Layer_1"
   width="900"
   height="600.08002"
   viewBox="0 0 671.625 298.083"
   overflow="visible"
   enable-background="new 0 0 597 298.083"
   xml:space="preserve"
   sodipodi:version="0.32"
   inkscape:version="0.47 r22583"
   sodipodi:docname="johnny_automatic_igloo.svg"
   inkscape:output_extension="org.inkscape.output.svg.inkscape"
   style="overflow:visible"><metadata
   id="metadata70"><rdf:RDF><cc:Work
       rdf:about=""><dc:format>image/svg+xml</dc:format><dc:type
         rdf:resource="http://purl.org/dc/dcmitype/StillImage" /></cc:Work></rdf:RDF></metadata><defs
   id="defs68"><linearGradient
   xlink:href="#linearGradient167"
   id="linearGradient1439"
   gradientUnits="userSpaceOnUse"
   x1="288.82358"
   y1="398.85422"
   x2="288.37628"
   y2="482.55939"
   gradientTransform="scale(1.221941,0.81837)" /><linearGradient
   xlink:href="#linearGradient162"
   id="linearGradient1437"
   gradientUnits="userSpaceOnUse"
   x1="284.68652"
   y1="410.46326"
   x2="285.45923"
   y2="485.69934"
   gradientTransform="scale(1.218684,0.820557)" /><linearGradient
   xlink:href="#linearGradient167"
   id="linearGradient1435"
   gradientUnits="userSpaceOnUse"
   x1="316.93988"
   y1="474.01779"
   x2="371.60889"
   y2="582.63507"
   gradientTransform="scale(1.065499,0.938527)" /><linearGradient
   xlink:href="#linearGradient167"
   id="linearGradient1433"
   gradientUnits="userSpaceOnUse"
   x1="223.10072"
   y1="570.41809"
   x2="230.53499"
   y2="710.97723"
   gradientTransform="scale(0.999504,1.000496)" /><linearGradient
   xlink:href="#linearGradient167"
   id="linearGradient1431"
   gradientUnits="userSpaceOnUse"
   gradientTransform="scale(1.007724,0.992335)"
   x1="117.88966"
   y1="587.23602"
   x2="182.24524"
   y2="704.73077" /><linearGradient
   xlink:href="#linearGradient162"
   id="linearGradient1429"
   gradientUnits="userSpaceOnUse"
   x1="218.11714"
   y1="630.30475"
   x2="203.12654"
   y2="737.8537"
   gradientTransform="scale(1.009851,0.990245)" /><linearGradient
   xlink:href="#linearGradient153"
   id="linearGradient1427"
   gradientUnits="userSpaceOnUse"
   x1="381.56607"
   y1="655.73102"
   x2="279.64313"
   y2="386.66583"
   gradientTransform="scale(1.065499,0.938527)" /><linearGradient
   id="linearGradient162"><stop
     style="stop-color:#ffa63f;stop-opacity:1;"
     offset="0"
     id="stop163" /><stop
     style="stop-color:#ffff00;stop-opacity:1;"
     offset="1"
     id="stop164" /></linearGradient><linearGradient
   xlink:href="#linearGradient162"
   id="linearGradient1425"
   gradientUnits="userSpaceOnUse"
   x1="236.25362"
   y1="657.11133"
   x2="212.5099"
   y2="737.41229"
   gradientTransform="scale(1.011514,0.988617)" /><linearGradient
   xlink:href="#linearGradient167"
   id="linearGradient1423"
   gradientUnits="userSpaceOnUse"
   x1="867.34546"
   y1="234.73897"
   x2="867.33453"
   y2="314.83911"
   gradientTransform="scale(0.572667,1.746214)" /><linearGradient
   xlink:href="#linearGradient167"
   id="linearGradient1421"
   gradientUnits="userSpaceOnUse"
   x1="411.2215"
   y1="242.94365"
   x2="411.2215"
   y2="331.44858"
   gradientTransform="scale(0.571707,1.749147)" /><linearGradient
   xlink:href="#linearGradient167"
   id="linearGradient1419"
   gradientUnits="userSpaceOnUse"
   x1="322.48257"
   y1="435.26761"
   x2="323.2514"
   y2="488.48251"
   gradientTransform="scale(1.077001,0.928504)" /><linearGradient
   xlink:href="#linearGradient138"
   id="linearGradient1417"
   gradientUnits="userSpaceOnUse"
   x1="320.75104"
   y1="498.17776"
   x2="321.32224"
   y2="614.50439"
   gradientTransform="scale(1.074798,0.930408)" /><linearGradient
   xlink:href="#linearGradient153"
   id="linearGradient1415"
   gradientUnits="userSpaceOnUse"
   x1="375.17325"
   y1="419.78485"
   x2="377.48541"
   y2="324.03815"
   gradientTransform="scale(0.649784,1.538974)" /><linearGradient
   xlink:href="#linearGradient153"
   id="linearGradient1413"
   gradientUnits="userSpaceOnUse"
   spreadMethod="reflect"
   x1="437.57941"
   y1="528.87177"
   x2="437.57941"
   y2="394.10361"
   gradientTransform="scale(0.812855,1.230232)" /><linearGradient
   xlink:href="#linearGradient167"
   id="linearGradient1411"
   gradientUnits="userSpaceOnUse"
   x1="389.63535"
   y1="242.28218"
   x2="387.06866"
   y2="281.32513"
   gradientTransform="scale(0.816497,1.224744)" /><linearGradient
   id="linearGradient167"><stop
     style="stop-color:#ffffff;stop-opacity:0.65;"
     offset="0"
     id="stop168" /><stop
     style="stop-color:#ffffff;stop-opacity:0;"
     offset="1"
     id="stop169" /></linearGradient><linearGradient
   xlink:href="#linearGradient167"
   id="linearGradient1409"
   gradientUnits="userSpaceOnUse"
   gradientTransform="scale(0.816497,1.224744)"
   x1="379.09573"
   y1="240.92712"
   x2="376.79556"
   y2="281.01636" /><linearGradient
   xlink:href="#linearGradient153"
   id="linearGradient1407"
   gradientUnits="userSpaceOnUse"
   x1="381.38742"
   y1="277.495"
   x2="380.5517"
   y2="245.68338"
   gradientTransform="scale(0.816497,1.224744)" /><linearGradient
   xlink:href="#linearGradient153"
   id="linearGradient1405"
   gradientUnits="userSpaceOnUse"
   gradientTransform="scale(0.816497,1.224744)"
   x1="378.93771"
   y1="278.60202"
   x2="380.27319"
   y2="243.91606" /><linearGradient
   id="linearGradient138"><stop
     style="stop-color:#ffffff;stop-opacity:0.8;"
     offset="0"
     id="stop139" /><stop
     style="stop-color:#ffffff;stop-opacity:0;"
     offset="1"
     id="stop140" /></linearGradient><linearGradient
   xlink:href="#linearGradient138"
   id="linearGradient1403"
   gradientUnits="userSpaceOnUse"
   x1="303.01761"
   y1="237.93179"
   x2="297.0856"
   y2="330.09561"
   gradientTransform="scale(1.116071,0.896001)" /><linearGradient
   id="linearGradient153"><stop
     style="stop-color:#ffeed7;stop-opacity:1;"
     offset="0"
     id="stop154" /><stop
     style="stop-color:#bdbfc2;stop-opacity:1;"
     offset="1"
     id="stop155" /></linearGradient><linearGradient
   xlink:href="#linearGradient153"
   id="linearGradient1401"
   gradientUnits="userSpaceOnUse"
   x1="400.57785"
   y1="369.53015"
   x2="400.84448"
   y2="304.07886"
   gradientTransform="scale(0.575262,1.738339)" /><linearGradient
   id="linearGradient172"><stop
     style="stop-color:#3f2600;stop-opacity:0.6;"
     offset="0"
     id="stop173" /><stop
     style="stop-color:#3f2600;stop-opacity:0;"
     offset="1"
     id="stop174" /></linearGradient><radialGradient
   xlink:href="#linearGradient172"
   id="radialGradient1399"
   gradientTransform="scale(1.045233,0.956725)"
   cx="446.77762"
   cy="1219.4125"
   fx="446.77762"
   fy="1219.4125"
   r="195.07191"
   gradientUnits="userSpaceOnUse" /><linearGradient
   id="linearGradient3148"
   gradientUnits="userSpaceOnUse"
   inkscape:collect="always"
   x1="91.29969"
   x2="244.97258"
   xlink:href="#linearGradient3134"
   y1="4.3178039"
   y2="237.70302" /><linearGradient
   id="linearGradient3140"
   gradientUnits="userSpaceOnUse"
   inkscape:collect="always"
   x1="91.29969"
   x2="244.97258"
   xlink:href="#linearGradient3134"
   y1="4.3178039"
   y2="237.70302" /><linearGradient
   id="linearGradient3134"><stop
     offset="0"
     style="stop-color:#f54c4c;stop-opacity:1;"
     id="stop3136" /><stop
     id="stop3165"
     style="stop-color:#ba1313;stop-opacity:1;"
     offset="0.5" /><stop
     offset="1"
     style="stop-color:#9a1919;stop-opacity:1;"
     id="stop3138" /></linearGradient><linearGradient
   inkscape:collect="always"
   xlink:href="#linearGradient3134"
   id="linearGradient2184"
   gradientUnits="userSpaceOnUse"
   x1="29.753853"
   y1="-13.269632"
   x2="202.58235"
   y2="183.58783"
   gradientTransform="matrix(0.2996696,0,0,0.2996696,23.036705,262.38796)" /><filter
   inkscape:collect="always"
   id="filter3172"
   color-interpolation-filters="sRGB"><feGaussianBlur
     inkscape:collect="always"
     stdDeviation="5.0924795"
     id="feGaussianBlur3174" /></filter><inkscape:perspective
   sodipodi:type="inkscape:persp3d"
   inkscape:vp_x="0 : 300.04001 : 1"
   inkscape:vp_y="0 : 1000 : 0"
   inkscape:vp_z="800 : 300.04001 : 1"
   inkscape:persp3d-origin="400 : 200.02667 : 1"
   id="perspective2519" />
	
	
	
	
	
	
	
	
	
	
	
	
	
	
	
	
	
	
	
	
	
	
	
	
	
	
	
	
	
	
	
<linearGradient
   inkscape:collect="always"
   xlink:href="#linearGradient3134"
   id="linearGradient3883"
   gradientUnits="userSpaceOnUse"
   gradientTransform="matrix(0.2996696,0,0,0.2996696,23.036705,262.38796)"
   x1="29.753853"
   y1="-13.269632"
   x2="202.58235"
   y2="183.58783" /><linearGradient
   inkscape:collect="always"
   xlink:href="#linearGradient3134"
   id="linearGradient3885"
   gradientUnits="userSpaceOnUse"
   x1="91.29969"
   y1="4.3178039"
   x2="244.97258"
   y2="237.70302" /><linearGradient
   inkscape:collect="always"
   xlink:href="#linearGradient3134"
   id="linearGradient3887"
   gradientUnits="userSpaceOnUse"
   x1="91.29969"
   y1="4.3178039"
   x2="244.97258"
   y2="237.70302" /><radialGradient
   inkscape:collect="always"
   xlink:href="#linearGradient172"
   id="radialGradient3889"
   gradientUnits="userSpaceOnUse"
   gradientTransform="scale(1.045233,0.956725)"
   cx="446.77762"
   cy="1219.4125"
   fx="446.77762"
   fy="1219.4125"
   r="195.07191" /><linearGradient
   inkscape:collect="always"
   xlink:href="#linearGradient153"
   id="linearGradient3891"
   gradientUnits="userSpaceOnUse"
   gradientTransform="scale(0.575262,1.738339)"
   x1="400.57785"
   y1="369.53015"
   x2="400.84448"
   y2="304.07886" /><linearGradient
   inkscape:collect="always"
   xlink:href="#linearGradient138"
   id="linearGradient3893"
   gradientUnits="userSpaceOnUse"
   gradientTransform="scale(1.116071,0.896001)"
   x1="303.01761"
   y1="237.93179"
   x2="297.0856"
   y2="330.09561" /><linearGradient
   inkscape:collect="always"
   xlink:href="#linearGradient153"
   id="linearGradient3895"
   gradientUnits="userSpaceOnUse"
   gradientTransform="scale(0.816497,1.224744)"
   x1="378.93771"
   y1="278.60202"
   x2="380.27319"
   y2="243.91606" /><linearGradient
   inkscape:collect="always"
   xlink:href="#linearGradient153"
   id="linearGradient3897"
   gradientUnits="userSpaceOnUse"
   gradientTransform="scale(0.816497,1.224744)"
   x1="381.38742"
   y1="277.495"
   x2="380.5517"
   y2="245.68338" /><linearGradient
   inkscape:collect="always"
   xlink:href="#linearGradient167"
   id="linearGradient3899"
   gradientUnits="userSpaceOnUse"
   gradientTransform="scale(0.816497,1.224744)"
   x1="379.09573"
   y1="240.92712"
   x2="376.79556"
   y2="281.01636" /><linearGradient
   inkscape:collect="always"
   xlink:href="#linearGradient167"
   id="linearGradient3901"
   gradientUnits="userSpaceOnUse"
   gradientTransform="scale(0.816497,1.224744)"
   x1="389.63535"
   y1="242.28218"
   x2="387.06866"
   y2="281.32513" /><linearGradient
   inkscape:collect="always"
   xlink:href="#linearGradient153"
   id="linearGradient3903"
   gradientUnits="userSpaceOnUse"
   gradientTransform="scale(0.812855,1.230232)"
   spreadMethod="reflect"
   x1="437.57941"
   y1="528.87177"
   x2="437.57941"
   y2="394.10361" /><linearGradient
   inkscape:collect="always"
   xlink:href="#linearGradient153"
   id="linearGradient3905"
   gradientUnits="userSpaceOnUse"
   gradientTransform="scale(0.649784,1.538974)"
   x1="375.17325"
   y1="419.78485"
   x2="377.48541"
   y2="324.03815" /><linearGradient
   inkscape:collect="always"
   xlink:href="#linearGradient138"
   id="linearGradient3907"
   gradientUnits="userSpaceOnUse"
   gradientTransform="scale(1.074798,0.930408)"
   x1="320.75104"
   y1="498.17776"
   x2="321.32224"
   y2="614.50439" /><linearGradient
   inkscape:collect="always"
   xlink:href="#linearGradient167"
   id="linearGradient3909"
   gradientUnits="userSpaceOnUse"
   gradientTransform="scale(1.077001,0.928504)"
   x1="322.48257"
   y1="435.26761"
   x2="323.2514"
   y2="488.48251" /><linearGradient
   inkscape:collect="always"
   xlink:href="#linearGradient167"
   id="linearGradient3911"
   gradientUnits="userSpaceOnUse"
   gradientTransform="scale(0.571707,1.749147)"
   x1="411.2215"
   y1="242.94365"
   x2="411.2215"
   y2="331.44858" /><linearGradient
   inkscape:collect="always"
   xlink:href="#linearGradient167"
   id="linearGradient3913"
   gradientUnits="userSpaceOnUse"
   gradientTransform="scale(0.572667,1.746214)"
   x1="867.34546"
   y1="234.73897"
   x2="867.33453"
   y2="314.83911" /><linearGradient
   inkscape:collect="always"
   xlink:href="#linearGradient162"
   id="linearGradient3915"
   gradientUnits="userSpaceOnUse"
   gradientTransform="scale(1.011514,0.988617)"
   x1="236.25362"
   y1="657.11133"
   x2="212.5099"
   y2="737.41229" /><linearGradient
   inkscape:collect="always"
   xlink:href="#linearGradient153"
   id="linearGradient3917"
   gradientUnits="userSpaceOnUse"
   gradientTransform="scale(1.065499,0.938527)"
   x1="381.56607"
   y1="655.73102"
   x2="279.64313"
   y2="386.66583" /><linearGradient
   inkscape:collect="always"
   xlink:href="#linearGradient162"
   id="linearGradient3919"
   gradientUnits="userSpaceOnUse"
   gradientTransform="scale(1.009851,0.990245)"
   x1="218.11714"
   y1="630.30475"
   x2="203.12654"
   y2="737.8537" /><linearGradient
   inkscape:collect="always"
   xlink:href="#linearGradient167"
   id="linearGradient3921"
   gradientUnits="userSpaceOnUse"
   gradientTransform="scale(1.007724,0.992335)"
   x1="117.88966"
   y1="587.23602"
   x2="182.24524"
   y2="704.73077" /><linearGradient
   inkscape:collect="always"
   xlink:href="#linearGradient167"
   id="linearGradient3923"
   gradientUnits="userSpaceOnUse"
   gradientTransform="scale(0.999504,1.000496)"
   x1="223.10072"
   y1="570.41809"
   x2="230.53499"
   y2="710.97723" /><linearGradient
   inkscape:collect="always"
   xlink:href="#linearGradient167"
   id="linearGradient3925"
   gradientUnits="userSpaceOnUse"
   gradientTransform="scale(1.065499,0.938527)"
   x1="316.93988"
   y1="474.01779"
   x2="371.60889"
   y2="582.63507" /><linearGradient
   inkscape:collect="always"
   xlink:href="#linearGradient162"
   id="linearGradient3927"
   gradientUnits="userSpaceOnUse"
   gradientTransform="scale(1.218684,0.820557)"
   x1="284.68652"
   y1="410.46326"
   x2="285.45923"
   y2="485.69934" /><linearGradient
   inkscape:collect="always"
   xlink:href="#linearGradient167"
   id="linearGradient3929"
   gradientUnits="userSpaceOnUse"
   gradientTransform="scale(1.221941,0.81837)"
   x1="288.82358"
   y1="398.85422"
   x2="288.37628"
   y2="482.55939" /><linearGradient
   inkscape:collect="always"
   xlink:href="#linearGradient3134"
   id="linearGradient3964"
   gradientUnits="userSpaceOnUse"
   gradientTransform="matrix(0.2996696,0,0,0.2996696,519.08649,161.55844)"
   x1="29.753853"
   y1="-13.269632"
   x2="202.58235"
   y2="183.58783" /><radialGradient
   inkscape:collect="always"
   xlink:href="#linearGradient172"
   id="radialGradient3967"
   gradientUnits="userSpaceOnUse"
   gradientTransform="scale(1.045233,0.956725)"
   cx="446.77762"
   cy="1219.4125"
   fx="446.77762"
   fy="1219.4125"
   r="195.07191" /><linearGradient
   inkscape:collect="always"
   xlink:href="#linearGradient153"
   id="linearGradient3969"
   gradientUnits="userSpaceOnUse"
   gradientTransform="scale(0.575262,1.738339)"
   x1="400.57785"
   y1="369.53015"
   x2="400.84448"
   y2="304.07886" /><linearGradient
   inkscape:collect="always"
   xlink:href="#linearGradient138"
   id="linearGradient3971"
   gradientUnits="userSpaceOnUse"
   gradientTransform="scale(1.116071,0.896001)"
   x1="303.01761"
   y1="237.93179"
   x2="297.0856"
   y2="330.09561" /><linearGradient
   inkscape:collect="always"
   xlink:href="#linearGradient153"
   id="linearGradient3973"
   gradientUnits="userSpaceOnUse"
   gradientTransform="scale(0.816497,1.224744)"
   x1="378.93771"
   y1="278.60202"
   x2="380.27319"
   y2="243.91606" /><linearGradient
   inkscape:collect="always"
   xlink:href="#linearGradient153"
   id="linearGradient3975"
   gradientUnits="userSpaceOnUse"
   gradientTransform="scale(0.816497,1.224744)"
   x1="381.38742"
   y1="277.495"
   x2="380.5517"
   y2="245.68338" /><linearGradient
   inkscape:collect="always"
   xlink:href="#linearGradient167"
   id="linearGradient3977"
   gradientUnits="userSpaceOnUse"
   gradientTransform="scale(0.816497,1.224744)"
   x1="379.09573"
   y1="240.92712"
   x2="376.79556"
   y2="281.01636" /><linearGradient
   inkscape:collect="always"
   xlink:href="#linearGradient167"
   id="linearGradient3979"
   gradientUnits="userSpaceOnUse"
   gradientTransform="scale(0.816497,1.224744)"
   x1="389.63535"
   y1="242.28218"
   x2="387.06866"
   y2="281.32513" /><linearGradient
   inkscape:collect="always"
   xlink:href="#linearGradient153"
   id="linearGradient3981"
   gradientUnits="userSpaceOnUse"
   gradientTransform="scale(0.812855,1.230232)"
   spreadMethod="reflect"
   x1="437.57941"
   y1="528.87177"
   x2="437.57941"
   y2="394.10361" /><linearGradient
   inkscape:collect="always"
   xlink:href="#linearGradient153"
   id="linearGradient3983"
   gradientUnits="userSpaceOnUse"
   gradientTransform="scale(0.649784,1.538974)"
   x1="375.17325"
   y1="419.78485"
   x2="377.48541"
   y2="324.03815" /><linearGradient
   inkscape:collect="always"
   xlink:href="#linearGradient138"
   id="linearGradient3985"
   gradientUnits="userSpaceOnUse"
   gradientTransform="scale(1.074798,0.930408)"
   x1="320.75104"
   y1="498.17776"
   x2="321.32224"
   y2="614.50439" /><linearGradient
   inkscape:collect="always"
   xlink:href="#linearGradient167"
   id="linearGradient3987"
   gradientUnits="userSpaceOnUse"
   gradientTransform="scale(1.077001,0.928504)"
   x1="322.48257"
   y1="435.26761"
   x2="323.2514"
   y2="488.48251" /><linearGradient
   inkscape:collect="always"
   xlink:href="#linearGradient167"
   id="linearGradient3989"
   gradientUnits="userSpaceOnUse"
   gradientTransform="scale(0.571707,1.749147)"
   x1="411.2215"
   y1="242.94365"
   x2="411.2215"
   y2="331.44858" /><linearGradient
   inkscape:collect="always"
   xlink:href="#linearGradient167"
   id="linearGradient3991"
   gradientUnits="userSpaceOnUse"
   gradientTransform="scale(0.572667,1.746214)"
   x1="867.34546"
   y1="234.73897"
   x2="867.33453"
   y2="314.83911" /><linearGradient
   inkscape:collect="always"
   xlink:href="#linearGradient162"
   id="linearGradient3993"
   gradientUnits="userSpaceOnUse"
   gradientTransform="scale(1.011514,0.988617)"
   x1="236.25362"
   y1="657.11133"
   x2="212.5099"
   y2="737.41229" /><linearGradient
   inkscape:collect="always"
   xlink:href="#linearGradient153"
   id="linearGradient3995"
   gradientUnits="userSpaceOnUse"
   gradientTransform="scale(1.065499,0.938527)"
   x1="381.56607"
   y1="655.73102"
   x2="279.64313"
   y2="386.66583" /><linearGradient
   inkscape:collect="always"
   xlink:href="#linearGradient162"
   id="linearGradient3997"
   gradientUnits="userSpaceOnUse"
   gradientTransform="scale(1.009851,0.990245)"
   x1="218.11714"
   y1="630.30475"
   x2="203.12654"
   y2="737.8537" /><linearGradient
   inkscape:collect="always"
   xlink:href="#linearGradient167"
   id="linearGradient3999"
   gradientUnits="userSpaceOnUse"
   gradientTransform="scale(1.007724,0.992335)"
   x1="117.88966"
   y1="587.23602"
   x2="182.24524"
   y2="704.73077" /><linearGradient
   inkscape:collect="always"
   xlink:href="#linearGradient167"
   id="linearGradient4001"
   gradientUnits="userSpaceOnUse"
   gradientTransform="scale(0.999504,1.000496)"
   x1="223.10072"
   y1="570.41809"
   x2="230.53499"
   y2="710.97723" /><linearGradient
   inkscape:collect="always"
   xlink:href="#linearGradient167"
   id="linearGradient4003"
   gradientUnits="userSpaceOnUse"
   gradientTransform="scale(1.065499,0.938527)"
   x1="316.93988"
   y1="474.01779"
   x2="371.60889"
   y2="582.63507" /><linearGradient
   inkscape:collect="always"
   xlink:href="#linearGradient162"
   id="linearGradient4005"
   gradientUnits="userSpaceOnUse"
   gradientTransform="scale(1.218684,0.820557)"
   x1="284.68652"
   y1="410.46326"
   x2="285.45923"
   y2="485.69934" /><linearGradient
   inkscape:collect="always"
   xlink:href="#linearGradient167"
   id="linearGradient4007"
   gradientUnits="userSpaceOnUse"
   gradientTransform="scale(1.221941,0.81837)"
   x1="288.82358"
   y1="398.85422"
   x2="288.37628"
   y2="482.55939" /><linearGradient
   inkscape:collect="always"
   xlink:href="#linearGradient3134"
   id="linearGradient4009"
   gradientUnits="userSpaceOnUse"
   x1="91.29969"
   y1="4.3178039"
   x2="244.97258"
   y2="237.70302" /><linearGradient
   inkscape:collect="always"
   xlink:href="#linearGradient3134"
   id="linearGradient4011"
   gradientUnits="userSpaceOnUse"
   x1="91.29969"
   y1="4.3178039"
   x2="244.97258"
   y2="237.70302" /><linearGradient
   inkscape:collect="always"
   xlink:href="#linearGradient3134"
   id="linearGradient2601"
   gradientUnits="userSpaceOnUse"
   gradientTransform="matrix(0.2996696,0,0,0.2996696,519.08649,161.55844)"
   x1="29.753853"
   y1="-13.269632"
   x2="202.58235"
   y2="183.58783" /><linearGradient
   inkscape:collect="always"
   xlink:href="#linearGradient3134"
   id="linearGradient2603"
   gradientUnits="userSpaceOnUse"
   x1="91.29969"
   y1="4.3178039"
   x2="244.97258"
   y2="237.70302" /><linearGradient
   inkscape:collect="always"
   xlink:href="#linearGradient3134"
   id="linearGradient2605"
   gradientUnits="userSpaceOnUse"
   x1="91.29969"
   y1="4.3178039"
   x2="244.97258"
   y2="237.70302" /><radialGradient
   inkscape:collect="always"
   xlink:href="#linearGradient172"
   id="radialGradient2607"
   gradientUnits="userSpaceOnUse"
   gradientTransform="scale(1.045233,0.956725)"
   cx="446.77762"
   cy="1219.4125"
   fx="446.77762"
   fy="1219.4125"
   r="195.07191" /><linearGradient
   inkscape:collect="always"
   xlink:href="#linearGradient153"
   id="linearGradient2609"
   gradientUnits="userSpaceOnUse"
   gradientTransform="scale(0.575262,1.738339)"
   x1="400.57785"
   y1="369.53015"
   x2="400.84448"
   y2="304.07886" /><linearGradient
   inkscape:collect="always"
   xlink:href="#linearGradient138"
   id="linearGradient2611"
   gradientUnits="userSpaceOnUse"
   gradientTransform="scale(1.116071,0.896001)"
   x1="303.01761"
   y1="237.93179"
   x2="297.0856"
   y2="330.09561" /><linearGradient
   inkscape:collect="always"
   xlink:href="#linearGradient153"
   id="linearGradient2613"
   gradientUnits="userSpaceOnUse"
   gradientTransform="scale(0.816497,1.224744)"
   x1="378.93771"
   y1="278.60202"
   x2="380.27319"
   y2="243.91606" /><linearGradient
   inkscape:collect="always"
   xlink:href="#linearGradient153"
   id="linearGradient2615"
   gradientUnits="userSpaceOnUse"
   gradientTransform="scale(0.816497,1.224744)"
   x1="381.38742"
   y1="277.495"
   x2="380.5517"
   y2="245.68338" /><linearGradient
   inkscape:collect="always"
   xlink:href="#linearGradient167"
   id="linearGradient2617"
   gradientUnits="userSpaceOnUse"
   gradientTransform="scale(0.816497,1.224744)"
   x1="379.09573"
   y1="240.92712"
   x2="376.79556"
   y2="281.01636" /><linearGradient
   inkscape:collect="always"
   xlink:href="#linearGradient167"
   id="linearGradient2619"
   gradientUnits="userSpaceOnUse"
   gradientTransform="scale(0.816497,1.224744)"
   x1="389.63535"
   y1="242.28218"
   x2="387.06866"
   y2="281.32513" /><linearGradient
   inkscape:collect="always"
   xlink:href="#linearGradient153"
   id="linearGradient2621"
   gradientUnits="userSpaceOnUse"
   gradientTransform="scale(0.812855,1.230232)"
   spreadMethod="reflect"
   x1="437.57941"
   y1="528.87177"
   x2="437.57941"
   y2="394.10361" /><linearGradient
   inkscape:collect="always"
   xlink:href="#linearGradient153"
   id="linearGradient2623"
   gradientUnits="userSpaceOnUse"
   gradientTransform="scale(0.649784,1.538974)"
   x1="375.17325"
   y1="419.78485"
   x2="377.48541"
   y2="324.03815" /><linearGradient
   inkscape:collect="always"
   xlink:href="#linearGradient138"
   id="linearGradient2625"
   gradientUnits="userSpaceOnUse"
   gradientTransform="scale(1.074798,0.930408)"
   x1="320.75104"
   y1="498.17776"
   x2="321.32224"
   y2="614.50439" /><linearGradient
   inkscape:collect="always"
   xlink:href="#linearGradient167"
   id="linearGradient2627"
   gradientUnits="userSpaceOnUse"
   gradientTransform="scale(1.077001,0.928504)"
   x1="322.48257"
   y1="435.26761"
   x2="323.2514"
   y2="488.48251" /><linearGradient
   inkscape:collect="always"
   xlink:href="#linearGradient167"
   id="linearGradient2629"
   gradientUnits="userSpaceOnUse"
   gradientTransform="scale(0.571707,1.749147)"
   x1="411.2215"
   y1="242.94365"
   x2="411.2215"
   y2="331.44858" /><linearGradient
   inkscape:collect="always"
   xlink:href="#linearGradient167"
   id="linearGradient2631"
   gradientUnits="userSpaceOnUse"
   gradientTransform="scale(0.572667,1.746214)"
   x1="867.34546"
   y1="234.73897"
   x2="867.33453"
   y2="314.83911" /><linearGradient
   inkscape:collect="always"
   xlink:href="#linearGradient162"
   id="linearGradient2633"
   gradientUnits="userSpaceOnUse"
   gradientTransform="scale(1.011514,0.988617)"
   x1="236.25362"
   y1="657.11133"
   x2="212.5099"
   y2="737.41229" /><linearGradient
   inkscape:collect="always"
   xlink:href="#linearGradient153"
   id="linearGradient2635"
   gradientUnits="userSpaceOnUse"
   gradientTransform="scale(1.065499,0.938527)"
   x1="381.56607"
   y1="655.73102"
   x2="279.64313"
   y2="386.66583" /><linearGradient
   inkscape:collect="always"
   xlink:href="#linearGradient162"
   id="linearGradient2637"
   gradientUnits="userSpaceOnUse"
   gradientTransform="scale(1.009851,0.990245)"
   x1="218.11714"
   y1="630.30475"
   x2="203.12654"
   y2="737.8537" /><linearGradient
   inkscape:collect="always"
   xlink:href="#linearGradient167"
   id="linearGradient2639"
   gradientUnits="userSpaceOnUse"
   gradientTransform="scale(1.007724,0.992335)"
   x1="117.88966"
   y1="587.23602"
   x2="182.24524"
   y2="704.73077" /><linearGradient
   inkscape:collect="always"
   xlink:href="#linearGradient167"
   id="linearGradient2641"
   gradientUnits="userSpaceOnUse"
   gradientTransform="scale(0.999504,1.000496)"
   x1="223.10072"
   y1="570.41809"
   x2="230.53499"
   y2="710.97723" /><linearGradient
   inkscape:collect="always"
   xlink:href="#linearGradient167"
   id="linearGradient2643"
   gradientUnits="userSpaceOnUse"
   gradientTransform="scale(1.065499,0.938527)"
   x1="316.93988"
   y1="474.01779"
   x2="371.60889"
   y2="582.63507" /><linearGradient
   inkscape:collect="always"
   xlink:href="#linearGradient162"
   id="linearGradient2645"
   gradientUnits="userSpaceOnUse"
   gradientTransform="scale(1.218684,0.820557)"
   x1="284.68652"
   y1="410.46326"
   x2="285.45923"
   y2="485.69934" /><linearGradient
   inkscape:collect="always"
   xlink:href="#linearGradient167"
   id="linearGradient2647"
   gradientUnits="userSpaceOnUse"
   gradientTransform="scale(1.221941,0.81837)"
   x1="288.82358"
   y1="398.85422"
   x2="288.37628"
   y2="482.55939" /><inkscape:perspective
   id="perspective3779"
   inkscape:persp3d-origin="0.5 : 0.33333333 : 1"
   inkscape:vp_z="1 : 0.5 : 1"
   inkscape:vp_y="0 : 1000 : 0"
   inkscape:vp_x="0 : 0.5 : 1"
   sodipodi:type="inkscape:persp3d" /><inkscape:perspective
   id="perspective3801"
   inkscape:persp3d-origin="0.5 : 0.33333333 : 1"
   inkscape:vp_z="1 : 0.5 : 1"
   inkscape:vp_y="0 : 1000 : 0"
   inkscape:vp_x="0 : 0.5 : 1"
   sodipodi:type="inkscape:persp3d" /></defs><sodipodi:namedview
   inkscape:window-height="988"
   inkscape:window-width="1918"
   inkscape:pageshadow="2"
   inkscape:pageopacity="0.0"
   guidetolerance="10.0"
   gridtolerance="10.0"
   objecttolerance="10.0"
   borderopacity="1.0"
   bordercolor="#666666"
   pagecolor="#ffffff"
   id="base"
   height="600.08px"
   width="800px"
   inkscape:zoom="1.1681775"
   inkscape:cx="450"
   inkscape:cy="231.55727"
   inkscape:window-x="0"
   inkscape:window-y="27"
   inkscape:current-layer="Layer_1"
   showgrid="false"
   inkscape:window-maximized="0" />
<path
   style="fill:#ffffff;fill-rule:evenodd"
   id="path5"
   d="m 221.90541,27.916772 c 3.89633,-6.912183 8.8596,-14.478211 15.60312,-16.346127 8.45021,5.637185 9.81808,10.15466 15.60313,17.089132 14.92401,2.968309 13.73743,-9.988226 20.80416,-8.916069 -0.73186,6.539937 -1.92365,7.260653 -1.48601,12.631098 -13.74561,1.197726 -37.8881,-2.283999 -50.5244,-4.458034 z"
   clip-rule="evenodd" /><path
   style="fill-rule:evenodd"
   id="path7"
   d="m 330.38425,23.458737 c 0.74301,0 1.48602,0 2.22902,0 -1.32775,1.870146 1.90581,4.144486 2.97203,5.944046 -2.79148,2.014289 -4.4729,-3.427485 -5.20105,-5.944046 z"
   clip-rule="evenodd" /><path
   style="fill:#ffffff;fill-rule:evenodd"
   id="path9"
   d="m 515.39269,64.324054 c 0.62041,8.262967 4.58806,13.571001 2.22902,25.262201 -4.24331,-8.55497 -2.11905,-15.253913 -5.20104,-20.06116 -12.93053,2.695624 -11.43783,13.06873 -10.40208,24.51919 -4.24628,3.62067 -9.67914,1.66062 -14.11711,5.94405 -4.43352,-23.24568 11.28997,-45.616842 27.49121,-35.664281 z"
   clip-rule="evenodd" /><path
   style="fill:#ffffff;fill-rule:evenodd"
   id="path11"
   d="m 456.69523,64.324054 c -3.19566,12.794561 -4.24479,26.401971 -4.45803,34.178261 -7.15366,-1.12193 -18.24005,1.26163 -27.49121,0 0.032,-11.95644 2.06035,-24.40402 6.68705,-35.664272 4.52788,-1.862716 17.31501,6.574115 25.26219,1.486011 z"
   clip-rule="evenodd" /><path
   style="fill:#ffffff;fill-rule:evenodd"
   id="path13"
   d="m 190.69917,69.525095 c -3.30118,10.96528 -10.88503,25.59283 -12.6311,35.664285 -13.00186,-2.46679 -24.79633,-6.923335 -33.43526,-11.888105 4.20987,-11.75583 8.08019,-19.578198 11.88809,-30.463232 12.44609,1.318835 21.61181,6.095619 34.17827,6.687052 z"
   clip-rule="evenodd" /><path
   style="fill:#ffffff;fill-rule:evenodd"
   id="path15"
   d="m 482.70044,64.324054 c 1.90655,2.589375 6.75392,1.97491 10.40208,0.743006 -5.92547,9.6405 -8.31795,25.865515 -8.17307,34.921275 -8.6367,-1.47561 -16.27777,-1.76167 -24.51919,-0.74301 -2.57897,-7.58757 0.72741,-19.96085 3.71503,-28.234219 8.67088,2.557426 14.1446,1.086274 18.57515,-6.687052 z"
   clip-rule="evenodd" /><path
   style="fill:#ffffff;fill-rule:evenodd"
   id="path17"
   d="m 502.01859,99.988335 c -2.00389,13.934335 0.98819,28.714205 0,40.865315 -6.26503,-0.11293 -8.88338,1.94371 -12.6311,3.71503 -2.19707,-9.50379 -0.7705,-22.4893 -2.22902,-39.3793 5.09925,-1.7639 8.18792,-3.77967 14.86012,-5.201045 z"
   clip-rule="evenodd" /><path
   style="fill:#ffffff;fill-rule:evenodd"
   id="path19"
   d="m 484.92945,105.18938 c 1.21556,10.77655 1.94891,32.35344 2.22902,37.89329 -7.31192,1.12417 -21.96474,-2.74986 -28.23422,0.74301 -1.13828,-14.76204 -0.61669,-26.62487 0.74301,-39.37931 6.00571,-0.0193 22.29463,-0.31801 25.26219,0.74301 z"
   clip-rule="evenodd" /><path
   style="fill-rule:evenodd"
   id="path21"
   d="m 358.61847,114.84845 c -4.16454,1.98903 -8.711,2.73501 -11.14508,2.97202 -31.42617,3.06267 -50.59349,1.72824 -75.04358,2.97203 6.27319,-3.40297 17.61072,-1.47858 28.23421,-2.22902 17.52157,-1.23785 41.20859,-2.45786 57.95445,-3.71503 z"
   clip-rule="evenodd" /><path
   style="fill-rule:evenodd"
   id="path23"
   d="m 182.52611,19.743708 c -1.47041,-3.12954 -1.68068,-3.420798 -2.97203,-5.944046 3.5003,-13.975938 25.73104,-25.607693 40.86532,-27.491213 0.62115,-0.07727 1.41989,1.493441 1.48601,1.486011 4.98409,-0.565427 15.26431,-2.889549 21.54717,-1.486011 16.27926,-10.618295 41.95828,-14.534678 55.72543,-5.20104 9.19024,-4.303489 21.71658,-1.776527 25.2622,0 6.24199,1.74755 11.20007,6.591204 13.3741,11.145086 9.39903,-0.581031 28.99283,3.532249 31.20624,18.575144 7.92639,5.650559 8.74593,17.501501 15.60313,20.061156 4.43351,9.207328 7.6589,32.565942 21.54716,26.748207 6.43889,-2.697111 6.30069,-9.545394 14.86012,-7.430056 2.64436,-7.555626 15.63655,-6.260567 18.57514,-2.972023 5.6892,-7.210871 17.01781,-10.090762 26.0052,-4.458035 4.93653,-9.138229 27.50682,-9.300204 34.17827,4.458035 7.50807,-0.821022 11.79893,1.575172 16.34613,3.715028 1.03054,3.45572 4.95362,6.249421 4.45803,10.40208 -0.85148,7.134341 2.27508,14.583717 2.97202,24.519194 0.93545,13.31837 -0.55205,23.659535 1.48602,33.435265 4.8964,4.1586 20.04926,1.15537 30.46323,2.22901 -0.69917,2.55446 -4.9982,2.52102 -5.94404,0.74301 -11.08937,2.03583 -22.27903,-0.49782 -35.66428,8.91607 -4.03304,0.53793 -6.70786,-3.31307 -10.40208,-0.74301 0.43317,2.72386 0.3611,2.99952 0.743,6.68705 2.17552,2.07596 2.92596,1.72006 7.43006,2.22902 -4.02189,4.6475 -12.00994,3.22242 -17.08913,5.20104 -1.98606,0.77421 -3.97211,4.23142 -5.94405,4.45804 -2.52919,0.29051 -7.41445,-3.94091 -11.14508,-4.45804 -7.84763,-1.08776 -14.71746,-0.0416 -20.06116,4.45804 -12.77821,-5.47521 -29.38365,6.1506 -37.89329,1.48601 2.92447,-1.45852 6.74203,0.29869 9.65907,-0.74301 -0.39751,-1.53208 -3.51516,-0.17683 -1.48601,-2.22902 -25.94725,-0.18872 -41.10679,5.22482 -53.49642,20.80417 -18.62195,-0.46661 -48.81473,0.0215 -63.89849,11.88809 -2.39322,-2.61092 0.46363,-2.40957 2.22902,-3.71503 0.3871,-0.28606 3.57683,-3.42228 3.71503,-1.48601 -0.3195,-4.48701 -21.83769,-6.11345 -26.74821,-5.94405 -14.16764,0.48667 -17.24294,5.3972 -25.2622,9.65908 0.0669,-2.02767 -1.23785,-1.49567 0,-2.97203 -11.26471,-4.99448 -24.10608,4.03675 -32.69225,4.45804 -3.95799,0.19467 -9.02455,-2.62801 -14.11711,-2.97202 -17.43612,-1.17618 -32.3371,1.10856 -44.58035,4.45803 1.35079,-1.81516 9.73486,-4.73889 11.88809,-5.20104 1.80105,-0.38636 6.14838,-0.35962 0.74301,-3.71503 -7.38325,-4.58286 -30.03081,-5.68028 -41.60832,-2.97202 -0.01,-19.58786 -23.29101,-16.32978 -31.94925,-17.83214 3.31232,-4.45061 8.47992,0.24296 13.3741,-1.48601 2.98614,-10.91921 4.33395,-24.47313 7.43006,-35.66428 1.5826,-5.7204 3.1288,-13.49075 5.20104,-16.346135 -1.09371,1.507565 3.13103,-1.55734 2.97202,-0.743 0.32172,-1.64502 -2.25502,-3.61547 -2.22901,-5.20104 0.0765,-4.66162 5.05838,-10.544 7.43005,-16.346129 2.58566,-6.324465 2.21713,-13.051639 5.20104,-17.089132 1.14646,-1.551396 3.65262,-1.23339 4.45804,-2.972022 0.50376,-1.087018 -0.86263,-3.919356 -0.74301,-4.458035 0.75787,-3.408167 6.15358,-7.924156 8.91607,-11.145086 6.17066,-7.194526 14.846,-11.079703 18.57515,-20.804163 z M 345.24437,-1.060453 c 2.89624,-0.67242 -4.33544,-0.314292 -2.97202,0 -4.18535,-0.964422 -4.21879,-3.371017 -5.20104,-4.458035 -2.33007,-2.577487 -7.88775,-3.856943 -7.43006,-7.430057 -7.50956,-3.599863 -18.71334,-3.585746 -29.72023,-1.486011 -11.31598,-8.978482 -37.47275,-2.490556 -43.83734,-0.743006 0.45323,0.04235 0.87972,0.110708 0.743,0.743006 -19.17549,9.276426 -24.57268,3.200125 -43.83734,7.430057 -10.2089,4.89195 -25.0965,11.118338 -28.23422,23.033178 6.72272,4.183866 11.87918,-4.559826 15.60312,-8.173063 13.00781,7.508073 23.93148,0.857429 38.63631,-0.743006 -0.029,2.752837 1.14125,4.307205 2.22901,5.944046 4.22102,0.913898 4.39563,-0.243705 7.43006,0.743006 -0.41385,5.367474 0.47924,9.427257 3.71503,11.145087 4.26262,-0.313549 14.3467,-1.073644 12.6311,-8.91607 1.95559,-0.76901 2.50244,-2.946017 4.45803,-3.715028 2.48907,6.944875 16.46798,3.360615 17.08913,-5.201041 9.13972,3.492127 16.10911,6.661047 23.77619,1.486012 2.77587,-1.873118 4.05904,-7.352785 6.68705,-6.687052 4.59549,10.816678 15.35124,2.087846 23.03318,1.486011 -1.89318,3.060441 -5.98714,3.920099 -8.17306,6.687052 0.73632,1.45332 0.029,2.88212 1.48601,5.944046 5.99903,2.797417 15.16697,0.630069 20.06115,-3.715028 12.27817,8.231018 13.94028,-3.879976 7.43006,-10.402081 -5.71594,-1.30769 -10.24159,-4.216558 -15.60312,-2.972023 z m -64.6415,36.407282 c 16.08682,-2.94899 30.4989,0.16049 47.55237,-4.458034 -1.56552,3.37176 0.97854,-1.283914 2.22901,0.743006 -2.02766,-6.349728 -7.14325,-14.155746 -10.40208,-21.547168 -9.89312,3.231332 -12.55977,7.616552 -23.03317,5.944046 -5.18173,-9.471094 -10.80925,6.002744 -17.08914,4.458035 1.37605,4.185352 -4.32206,12.377733 0.74301,14.860115 z m 51.2674,-1.486011 c -8.44947,2.308519 -20.0723,1.489726 -25.2622,4.458035 9.61747,-0.835881 13.78127,-1.368616 28.97723,-1.486011 5.05021,10.768382 5.93364,15.209328 11.88809,25.262195 -1.17172,-8.947275 -6.50799,-18.0008 -12.6311,-26.748208 1.54842,-0.218443 -1.10262,-2.010573 1.48601,-2.229017 1.64427,1.069928 -0.93544,1.812934 0.74301,2.229017 3.74697,-5.291687 15.35124,-0.387849 19.31815,-3.715028 0.62041,-0.520105 -0.69769,0.878232 1.48601,0.743005 4.61332,-0.284571 10.77878,-3.182293 14.86011,-5.20104 -12.32721,3.217215 -22.13414,3.919355 -36.40728,5.944046 -0.17758,-1.060269 -1.22299,-1.253451 -1.48601,-2.229017 15.04587,-2.740205 23.89655,-1.651702 37.89329,-8.173064 0.399,-1.721544 -3.09462,-2.43483 -2.97202,-5.944046 -1.07959,0.406424 -3.8406,-0.86783 -3.71503,0.743006 -0.39899,2.864287 -11.68897,2.540337 -15.60312,2.229017 -7.79116,6.539194 -19.09302,1.746807 -20.80416,-8.916069 -1.53951,0.442089 -4.88081,-0.918355 -5.20104,0.743006 3.03072,3.604321 7.70274,8.108422 5.20104,11.888092 -2.4326,-5.085131 -3.38959,-10.370874 -8.17306,-11.888092 3.75589,5.068785 9.20658,12.452777 10.40208,22.290173 z M 276.88784,20.486714 c -3.08347,6.044352 1.78396,11.980225 -3.71503,16.346128 -2.3048,1.830023 -7.44715,-2.599035 -10.40208,0.743006 4.60218,0.358128 6.88321,0.809876 11.14509,0 1.46446,4.261138 -0.22736,8.786786 -0.74301,14.117109 -0.8708,9.002257 0.97111,18.984539 -3.71503,23.033178 -27.23116,-1.139028 -44.46889,-3.910439 -69.84254,-5.944046 -2.6347,-5.198069 1.65616,-8.782328 5.20104,-14.860115 4.35773,-7.471665 7.38028,-16.175978 13.3741,-19.31815 -5.38679,10.350814 -14.77169,18.91767 -16.34612,30.463236 3.3829,0.731861 11.79373,0.819535 16.34612,2.972023 6.04733,-1.937759 10.86126,1.069185 17.08914,1.486012 14.00937,0.93693 19.46452,2.306289 33.43526,0.743005 -0.10997,-10.756494 3.94536,-21.800531 2.22901,-30.463235 -16.90115,-0.685051 -36.59972,-2.280285 -52.0104,-5.944047 14.74049,-1.495671 28.65179,5.271627 43.83734,2.229017 -11.77813,-2.224559 -20.89704,-1.101134 -30.46324,-2.229017 -3.97433,-0.468837 -9.06318,-2.723116 -13.3741,-2.972023 0.41014,0.02378 0.84554,0.582516 0,0.743006 -11.66965,2.216386 -22.59852,-6.762839 -34.17827,-3.715029 6.59492,1.635355 8.711,0.538679 14.11711,1.486011 4.32875,0.758609 15.88695,2.772155 16.34613,5.201041 0.14563,0.769754 -6.80445,7.783729 -9.65908,12.631099 -3.34501,5.681765 -7.37879,13.194295 -10.40208,20.061154 -5.50493,-0.600348 -13.14823,-2.849427 -20.06115,-4.458034 -5.52053,-1.284657 -12.24919,-5.345184 -16.34613,-1.486012 11.24614,2.499472 22.68174,5.0725 36.40728,8.173064 -2.09156,4.189809 -5.02346,8.45392 -7.43005,14.86011 -2.90961,7.74361 -5.60673,22.955165 -9.65908,25.262205 -10.33075,-3.23876 -21.74852,-6.71826 -31.94925,-11.145095 -0.21844,1.514995 -2.01057,1.45704 -2.22901,2.972035 14.56142,4.8444 23.29694,8.16192 35.66427,9.65907 -0.1486,15.09268 -6.44631,34.52451 -5.94404,54.23942 -2.57675,-1.56551 -1.36862,0.97854 -2.22902,2.22902 14.7613,2.75284 16.82685,2.21639 25.2622,8.17306 11.25282,-3.6697 25.55642,2.40586 32.69225,1.48602 2.62876,-0.33882 4.59623,-2.40586 8.17306,-2.97203 9.74601,-1.54099 19.65474,-0.18501 28.97723,-2.97202 -0.90721,-2.6399 -0.22959,-10.26463 0,-14.86012 -2.60126,-7.38102 -0.67019,-19.29957 -2.22902,-33.43526 -25.74515,-1.55511 -55.4364,-1.54768 -80.98763,-8.91606 22.73895,2.28102 49.88392,6.1558 69.84255,7.43005 5.80733,0.37076 10.74237,-1.47189 14.86011,1.48601 -1.95559,2.18592 -0.078,3.82053 0,5.94405 0.075,2.03138 -1.50236,3.98623 -1.48601,5.94405 0.0134,1.54842 1.41097,3.38438 1.48601,5.20104 0.36556,8.82839 -1.02015,23.79699 2.97202,32.69225 1.94742,-0.8552 9.14789,-4.81096 11.14509,-5.20104 -0.0372,0.007 0.94436,1.55214 1.48601,1.48601 7.6173,-0.93024 28.35459,-2.76918 26.74821,0 4.89046,-2.40214 9.76904,3.00026 14.86011,2.97203 1.3493,-0.007 4.78868,-2.37688 7.43006,-2.97203 11.62061,-2.61761 26.78685,-1.22744 34.17827,-4.45803 -1.06547,-15.87581 -6.2093,-31.05021 -5.94405,-49.03839 2.41551,11.30929 3.87255,29.00621 5.94405,40.12232 0.98597,5.29094 1.69256,9.49115 5.20104,5.20104 -3.62959,-14.80588 -4.19873,-25.06827 -6.68705,-35.66428 -0.72741,-3.10056 -4.80056,-7.38325 -1.48602,-11.14508 3.75218,16.57719 4.9135,29.90523 10.40208,46.06635 4.17644,-4.46175 9.77647,-4.28937 13.37411,-8.17306 -3.1444,-8.38036 -1.63387,-27.0521 -2.97202,-42.35133 -8.35585,2.79296 -13.68543,4.88526 -20.06116,5.20104 6.11122,-6.35939 20.0827,-2.19335 20.80416,-10.40208 -6.13054,4.30943 -14.54211,4.55611 -23.03318,6.68704 -1.47412,-5.26121 -3.26179,-12.433455 -5.20104,-19.318145 -1.39016,-4.93504 -2.35161,-13.27231 -5.94404,-14.86011 3.93421,10.46672 5.38233,21.86071 8.17306,31.949255 0.18947,0.68578 -0.85223,2.43481 -2.22902,2.97201 -5.25082,2.04996 -12.74849,2.26915 -20.06115,2.97203 -12.63259,1.21556 -30.77679,2.12203 -33.43526,1.48601 -6.62984,-1.58706 -16.63739,3.31455 -32.69226,1.486 -7.4e-4,-15.97238 -0.32543,-23.633515 3.71503,-39.379295 -0.60035,12.28411 -2.4326,22.673565 -2.97202,34.921275 1.51499,0.21844 1.45703,2.01057 2.97202,2.22902 13.96331,-1.35747 28.94602,-0.11071 53.49642,-4.45805 -2.44895,2.09826 2.85314,0.76604 2.97202,0.74301 4.59698,-0.2229 20.19787,-0.88046 26.0052,-3.71502 -2.11831,-11.855405 -4.77752,-24.571945 -8.91607,-35.664282 -7.87511,2.332295 -10.98608,0.797245 -17.83214,3.715028 -18.77426,-0.943617 -34.1374,5.281289 -53.49641,1.486009 22.64459,-2.441514 31.87495,-0.60778 45.32335,-2.229014 3.87032,-0.466608 7.59203,-2.314463 11.88809,-2.972023 7.36468,-1.127883 15.15732,-3.725431 18.57515,0 5.78653,14.915097 6.86314,24.062987 11.14508,35.664282 6.94785,-2.52919 16.45981,-4.04715 23.77619,-8.173065 -2.21267,-5.87569 1.59449,-14.53468 2.22902,-24.519194 1.2527,-2.599035 8.88189,-9.494871 3.71502,-13.374104 -13.34066,4.240334 -25.40411,6.440374 -40.12231,7.430058 4.11774,-3.883692 5.79099,-0.324694 11.14509,-2.972024 5.9225,-0.867087 -3.45869,-0.717 -2.22902,-0.743005 -4.14597,0.08842 -8.8908,2.016517 -11.88809,2.229017 0.0557,-1.294316 -0.16643,-2.310748 -0.74301,-2.972023 10.43552,-2.7833 29.6972,-0.826222 41.60833,-8.916068 -3.59615,-6.476781 -7.50808,-16.106136 -12.6311,-26.005203 -4.96848,-2.076701 -8.30235,1.115995 -13.3741,2.229017 -9.45178,2.074472 -18.27052,0.869317 -27.49122,4.458036 5.93513,9.666505 10.98757,17.789044 11.88809,27.491212 -1.40353,-0.08247 -0.51564,-2.456377 -2.22901,-2.229017 -0.93545,1.893922 0.69099,4.333953 0.743,5.944046 -23.47155,5.825908 -46.21421,5.850427 -72.81456,6.687052 -0.17758,-1.060269 -1.22299,-1.253451 -1.48601,-2.229017 1.41839,-4.83251 0.20432,-9.907239 2.22901,-14.860116 1.30621,2.502444 -1.36044,10.533593 0,13.374104 8.55126,0.824736 24.1306,0.799474 34.17827,-1.486011 -0.0267,0.407167 -0.94659,1.713371 0,1.486011 4.31315,-1.034264 12.5516,-2.166605 20.06115,-2.972023 4.59624,-0.493356 12.74627,0.0795 14.11711,-3.715029 1.99349,-5.519047 -10.02166,-19.853856 -10.40208,-25.262195 -23.01386,-0.125568 -32.6551,1.827794 -55.72543,1.486012 -1.73863,7.4999 0.28457,14.990141 -2.22902,17.089131 -0.27565,-2.163631 -1.54248,-15.899579 2.97203,-18.575143 -1.27351,-0.955505 -2.9215,-1.536536 -2.97203,-3.71503 1.00009,-0.795759 3.44978,-13.97891 0.74301,-14.860115 z m -4.45803,11.888092 c -0.43764,-5.370445 0.75415,-6.091161 1.48601,-12.631098 -7.06673,-1.072157 -5.88015,11.884378 -20.80416,8.916069 -5.78505,-6.934472 -7.15292,-11.451947 -15.60313,-17.089132 -6.74352,1.867916 -11.70679,9.433944 -15.60312,16.346127 12.6363,2.174035 36.77879,5.65576 50.5244,4.458034 z m -71.32856,-19.31815 c -1.67251,3.621411 -5.36822,6.710085 -11.88809,6.687052 0.63675,2.370189 -1.16949,2.298117 -1.48601,3.715029 8.36698,2.524734 19.31443,3.330895 26.0052,4.458035 1.68068,-4.767125 7.9405,-8.890807 8.17306,-12.631098 -6.41139,2.678535 -11.82345,-1.623468 -20.80416,-2.229018 z m 15.60312,15.603121 c 2.6399,1.047639 5.89873,-5.301346 8.17307,-9.659074 2.11236,-0.644186 5.16389,-4.20467 4.45803,-5.201041 -5.99383,4.526391 -8.79496,11.439317 -12.6311,14.860115 z m -6.68705,4.458035 c -11.75064,-0.160489 -23.85271,-5.801389 -31.20624,0 -8.33653,6.576345 -13.21362,16.006574 -19.31815,21.547168 12.41042,6.811133 23.46189,6.106764 33.43526,10.40208 4.45729,-12.546394 11.74617,-20.515131 17.08913,-31.949248 z m 283.0852,27.491213 c 5.20327,-3.581287 13.07987,0.707342 20.06115,-2.229017 1.83746,0.871546 -1.80253,3.087189 1.48601,2.972023 0.84926,-2.752836 0.0728,-4.307204 0.74301,-5.944045 -8.57949,-5.597062 -16.06601,2.067784 -20.80416,-10.402081 -9.04907,-5.374903 -22.00635,-3.808647 -28.23422,2.972023 -9.01117,-5.676564 -20.36282,-2.301832 -23.03318,4.458035 -4.32058,-2.010574 -9.84037,-2.922985 -14.86011,-2.972023 -1.67771,9.307632 -12.29155,3.149601 -14.86012,9.659074 5.35484,1.54991 8.76078,2.295888 17.08913,0 0.0758,0.833652 -1.07958,1.15686 0,1.486011 9.27346,-0.496327 19.25054,1.264596 28.97723,-1.486011 1.30174,11.639928 20.71797,8.805361 21.54717,-1.486012 3.25436,2.793702 4.87634,-5.029405 8.91606,-5.944045 -0.29423,4.148201 -2.92818,5.721144 -6.68705,8.916068 3.43269,1.533564 10.36419,-2.521018 9.65908,0 z m -78.75861,40.122315 c 6.13128,-9.436175 2.67482,-25.972513 11.14508,-37.893297 -3.59615,-0.84034 -8.77787,-1.08999 -13.3741,-0.743006 -3.40074,0.25708 -9.93547,-0.27194 -11.88809,0.743006 -9.44955,4.909782 -10.6822,29.836142 -11.8881,36.407282 11.79299,0.43912 17.94136,1.787675 26.00521,0.74301 -0.41311,-0.0022 -0.84332,0.601835 0,0.743005 z m 73.55757,-0.743005 c 4.43797,-4.28343 9.87083,-2.32338 14.11711,-5.94405 -1.03575,-11.45046 -2.52845,-21.823566 10.40208,-24.51919 3.08199,4.807247 0.95773,11.50619 5.20104,20.06116 2.35904,-11.6912 -1.60861,-16.999234 -2.22902,-25.262201 -16.20124,-9.952561 -31.92473,12.418601 -27.49121,35.664281 z M 431.43304,62.838043 c -4.6267,11.260252 -6.6551,23.707832 -6.68705,35.664272 9.25116,1.26163 20.33755,-1.12193 27.49121,0 0.21324,-7.77629 1.26237,-21.3837 4.45803,-34.178261 -7.94718,5.088104 -20.73431,-3.348727 -25.26219,-1.486011 z m -274.91214,0 c -3.8079,10.885034 -7.67822,18.707402 -11.88809,30.463232 8.63893,4.96477 20.4334,9.421325 33.43526,11.888105 1.74607,-10.071455 9.32992,-24.699005 12.6311,-35.664285 -12.56646,-0.591433 -21.73218,-5.368217 -34.17827,-6.687052 z m 211.75665,2.229017 c -0.83142,1.543966 -0.80096,1.574429 0.743,0.743006 6.21971,-1.07513 8.05419,-0.08768 12.6311,-2.972023 -5.62232,1.925128 -6.00794,0.504501 -13.3741,2.229017 z m 89.16069,34.921275 c 0.38488,-12.66677 1.22596,-16.50959 2.97202,-23.776189 0.47256,-1.965993 4.24405,-6.962707 0,-8.916069 -4.52342,11.946048 -5.55248,26.465118 -4.45803,32.692258 -10.41174,2.888805 -21.06273,1.234875 -31.20624,0.743005 -1.72378,1.08775 1.45109,2.35532 -1.48601,2.22902 -2.19559,-12.374765 1.4652,-19.310725 2.97202,-26.748214 0.56617,-2.794444 1.74978,-9.240762 1.48601,-12.631098 -7.41817,12.784897 -4.44392,28.791477 -10.40208,40.865322 0.45546,1.02981 2.86057,0.11145 2.97202,1.48601 -0.56394,12.42529 -2.05441,30.11923 1.48601,37.8933 0.52679,-14.80812 -2.16809,-20.84207 0,-34.17828 0.19541,-1.19994 -1.88872,-5.17503 2.22902,-5.20104 -1.56923,16.7845 -1.2371,23.41137 -0.743,38.63631 6.88914,3.13474 19.26539,3.17635 27.49121,2.97202 1.66805,-21.78345 -1.26534,-23.75463 1.48601,-40.86532 -9.9756,-1.46967 -15.01615,1.89689 -26.74821,-1.48602 12.66825,-0.66573 19.80705,-1.40576 30.46324,0.74301 -0.91687,8.49107 -1.94891,20.44678 -1.48601,31.20625 0.17237,4.01892 0.39676,8.80462 2.97202,11.14509 -0.4993,-24.05036 -2.02098,-29.12064 1.48601,-44.58035 6.27171,-1.42805 22.45141,1.99126 25.2622,-0.743 -12.46838,-0.76901 -15.39508,0.59069 -26.74821,-1.486015 z m 6.68705,-28.977229 c -2.98762,8.273369 -6.294,20.646649 -3.71503,28.234219 8.24142,-1.01866 15.88249,-0.7326 24.51919,0.74301 -0.14488,-9.05576 2.2476,-25.280775 8.17307,-34.921275 -3.64816,1.231904 -8.49553,1.846369 -10.40208,-0.743006 -4.43055,7.773326 -9.90427,9.244478 -18.57515,6.687052 z m 49.03838,23.776189 c 2.04624,-2.30927 3.78042,-2.05293 5.20104,-3.71503 -3.27368,-0.54908 -3.04409,2.40436 -5.20104,2.97202 0.30909,-8.5468 3.14366,-15.74132 -3.71503,-23.033179 -0.17757,2.051439 -2.76249,1.695539 -3.71502,2.972023 -3.13846,7.290376 -3.11097,15.172176 -2.22902,21.547166 -3.78562,3.40371 -14.82148,3.49659 -15.60312,7.430065 5.36227,-2.14357 11.92747,-6.383165 15.60312,-4.458045 -0.22365,11.278825 -1.46521,16.138825 0.743,29.720225 1.95262,-0.8968 6.38911,1.82408 9.65908,0 -1.21407,-15.03843 0.44432,-21.42307 -0.74301,-33.435245 z m 5.20104,31.206245 c 2.59978,-5.81032 0.19541,-20.92007 0,-31.949255 -2.38727,-0.45769 -1.01791,2.67482 -2.97202,0.74301 0.43689,18.127845 -1.83374,24.332695 0.74301,33.435245 0.0238,-1.0729 4.67276,-1.12713 2.22901,-2.229 z m -31.20624,-20.80416 c 1.45852,16.89 0.0319,29.87551 2.22902,39.3793 3.74772,-1.77132 6.36607,-3.82797 12.6311,-3.71503 0.98819,-12.15112 -2.00389,-26.93098 0,-40.865315 -6.6722,1.421375 -9.76087,3.437135 -14.86012,5.201035 z m -333.60959,62.41248 c 4.77158,-1.13457 11.73949,-0.10848 16.34613,-0.74301 -0.14266,-13.34809 6.92853,-36.07442 6.68705,-54.23942 -10.53359,-0.92504 -22.52496,-6.63727 -34.17827,-9.65907 -4.06944,19.02243 -10.6012,33.20269 -10.40208,49.78139 1.32033,-1.3545 2.95048,3.2551 2.97203,0 3.33907,2.58194 10.33892,6.92555 11.88809,5.94404 2.55,2.65105 4.65419,5.74789 6.68705,8.91607 z M 388.3387,104.44637 c -1.74086,18.38642 -2.90143,31.72412 1.48602,47.55237 5.32958,-2.91258 21.6549,-6.38093 27.49121,-6.68705 -0.97631,-17.44801 -0.27343,-25.65822 -0.74301,-38.6363 -10.76466,0.16717 -14.63201,0.81433 -27.49121,0.743 3.34947,-4.90978 15.23756,0.20879 20.80416,-3.71504 1.51573,1.7914 4.87486,0.9674 5.94405,0.74301 -5.13566,-2.10715 -18.87012,-0.40197 -27.49122,0 z m 71.32856,0 c -1.3597,12.75444 -1.88129,24.61727 -0.74301,39.37931 6.26948,-3.49287 20.9223,0.38116 28.23422,-0.74301 -0.28011,-5.53985 -1.01346,-27.11675 -2.22902,-37.89329 -2.96756,-1.06103 -19.25648,-0.76234 -25.26219,-0.74302 z"
   clip-rule="evenodd" /><path
   style="fill:#ffffff;fill-rule:evenodd"
   id="path25"
   d="m 360.84749,1.91157 c 6.51022,6.522105 4.84811,18.633099 -7.43006,10.402081 -4.89418,4.345097 -14.06212,6.512445 -20.06115,3.715028 -1.45704,-3.061926 -0.74969,-4.490726 -1.48601,-5.944046 2.18592,-2.766953 6.27988,-3.626611 8.17306,-6.687052 -7.68194,0.601835 -18.43769,9.330667 -23.03318,-1.486011 -2.62801,-0.665733 -3.91118,4.813934 -6.68705,6.687052 -7.66708,5.175035 -14.63647,2.006115 -23.77619,-1.486012 -0.62115,8.561656 -14.60006,12.145916 -17.08913,5.201041 -1.95559,0.769011 -2.50244,2.946018 -4.45803,3.715028 1.7156,7.842426 -8.36848,8.602521 -12.6311,8.91607 -3.23579,-1.71783 -4.12888,-5.777613 -3.71503,-11.145087 -3.03443,-0.986711 -3.20904,0.170892 -7.43006,-0.743006 -1.08776,-1.636841 -2.25799,-3.191209 -2.22901,-5.944046 -14.70483,1.600435 -25.6285,8.251079 -38.63631,0.743006 -3.72394,3.613237 -8.8804,12.356929 -15.60312,8.173063 3.13772,-11.91484 18.02532,-18.141228 28.23422,-23.033178 19.26466,-4.229932 24.66185,1.846369 43.83734,-7.430057 0.13672,-0.632298 -0.28977,-0.700655 -0.743,-0.743006 6.36459,-1.74755 32.52136,-8.235476 43.83734,0.743006 11.00689,-2.099735 22.21067,-2.113852 29.72023,1.486011 -0.45769,3.573114 5.09999,4.85257 7.43006,7.430057 0.98225,1.087018 1.01569,3.493613 5.20104,4.458035 -1.36342,-0.314292 5.86826,-0.67242 2.97202,0 5.36153,-1.244535 9.88718,1.664333 15.60312,2.972023 z"
   clip-rule="evenodd" /><path
   style="fill:#ffffff;fill-rule:evenodd"
   id="path27"
   d="m 279.85986,20.486714 c 6.27989,1.544709 11.90741,-13.929129 17.08914,-4.458035 10.4734,1.672506 13.14005,-2.712714 23.03317,-5.944046 3.25883,7.391422 8.37442,15.19744 10.40208,21.547168 -1.25047,-2.02692 -3.79453,2.628754 -2.22901,-0.743006 -17.05347,4.618524 -31.46555,1.509044 -47.55237,4.458034 -5.06507,-2.482382 0.63304,-10.674763 -0.74301,-14.860115 z"
   clip-rule="evenodd" /><path
   style="fill:#ffffff;fill-rule:evenodd"
   id="path29"
   d="m 321.46819,11.570645 c 4.78347,1.517218 5.74046,6.802961 8.17306,11.888092 2.5017,-3.77967 -2.17032,-8.283771 -5.20104,-11.888092 0.32023,-1.661361 3.66153,-0.300917 5.20104,-0.743006 1.71114,10.662876 13.013,15.455263 20.80416,8.916069 3.91415,0.31132 15.20413,0.63527 15.60312,-2.229017 -0.12557,-1.610836 2.63544,-0.336582 3.71503,-0.743006 -0.1226,3.509216 3.37102,4.222502 2.97202,5.944046 -13.99674,6.521362 -22.84742,5.432859 -37.89329,8.173064 0.26302,0.975566 1.30843,1.168748 1.48601,2.229017 14.27314,-2.024691 24.08007,-2.726831 36.40728,-5.944046 -4.08133,2.018747 -10.24679,4.916469 -14.86011,5.20104 -2.1837,0.135227 -0.8656,-1.26311 -1.48601,-0.743005 -3.96691,3.327179 -15.57118,-1.576659 -19.31815,3.715028 -1.67845,-0.416083 0.90126,-1.159089 -0.74301,-2.229017 -2.58863,0.218444 0.0624,2.010574 -1.48601,2.229017 6.12311,8.747408 11.45938,17.800933 12.6311,26.748208 -5.95445,-10.052867 -6.83788,-14.493813 -11.88809,-25.262195 -15.19596,0.117395 -19.35976,0.65013 -28.97723,1.486011 5.1899,-2.968309 16.81273,-2.149516 25.2622,-4.458035 -1.1955,-9.837396 -6.64619,-17.221388 -10.40208,-22.290173 z m 14.11711,17.832138 c -1.06622,-1.79956 -4.29978,-4.0739 -2.97203,-5.944046 -0.743,0 -1.48601,0 -2.22902,0 0.72815,2.516561 2.40957,7.958335 5.20105,5.944046 z"
   clip-rule="evenodd" /><path
   style="fill:#ffffff;fill-rule:evenodd"
   id="path31"
   d="m 276.14483,35.346829 c 0.0505,2.178494 1.69852,2.759525 2.97203,3.71503 -4.51451,2.675564 -3.24768,16.411512 -2.97203,18.575143 2.51359,-2.09899 0.49039,-9.589231 2.22902,-17.089131 23.07033,0.341782 32.71157,-1.61158 55.72543,-1.486012 0.38042,5.408339 12.39557,19.743148 10.40208,25.262195 -1.37084,3.794531 -9.52087,3.221673 -14.11711,3.715029 -7.50955,0.805418 -15.748,1.937759 -20.06115,2.972023 -0.94659,0.22736 -0.0267,-1.078844 0,-1.486011 -10.04767,2.285485 -25.62701,2.310747 -34.17827,1.486011 -1.36044,-2.840511 1.30621,-10.87166 0,-13.374104 -2.02469,4.952877 -0.81062,10.027606 -2.22901,14.860116 0.26302,0.975566 1.30843,1.168748 1.48601,2.229017 26.60035,-0.836625 49.34301,-0.861144 72.81456,-6.687052 -0.052,-1.610093 -1.67845,-4.050124 -0.743,-5.944046 1.71337,-0.22736 0.82548,2.146544 2.22901,2.229017 -0.90052,-9.702168 -5.95296,-17.824707 -11.88809,-27.491212 9.2207,-3.588719 18.03944,-2.383564 27.49122,-4.458036 5.07175,-1.113022 8.40562,-4.305718 13.3741,-2.229017 5.12302,9.899067 9.03495,19.528422 12.6311,26.005203 -11.91113,8.089846 -31.17281,6.132768 -41.60833,8.916068 0.57658,0.661275 0.79874,1.677707 0.74301,2.972023 2.99729,-0.2125 7.74212,-2.1406 11.88809,-2.229017 -1.22967,0.02601 8.15152,-0.124082 2.22902,0.743005 -5.3541,2.64733 -7.02735,-0.911668 -11.14509,2.972024 14.7182,-0.989684 26.78165,-3.189724 40.12231,-7.430058 5.16687,3.879233 -2.46232,10.775069 -3.71502,13.374104 -0.63453,9.984514 -4.44169,18.643504 -2.22902,24.519194 -7.31638,4.125915 -16.82834,5.643875 -23.77619,8.173055 -4.28194,-11.601285 -5.35855,-20.749175 -11.14508,-35.664272 -3.41783,-3.725431 -11.21047,-1.127883 -18.57515,0 -4.29606,0.65756 -8.01777,2.505415 -11.88809,2.972023 -13.4484,1.621234 -22.67876,-0.2125 -45.32335,2.229014 19.35901,3.79528 34.72215,-2.429626 53.49641,-1.486009 6.84606,-2.917783 9.95703,-1.382733 17.83214,-3.715028 4.13855,11.092337 6.79776,23.808877 8.91607,35.664282 -5.80733,2.83456 -21.40822,3.49212 -26.0052,3.71502 -0.11888,0.023 -5.42097,1.35524 -2.97202,-0.74301 -24.5504,4.34733 -39.53311,3.10058 -53.49642,4.45804 -1.51499,-0.21845 -1.45703,-2.01058 -2.97202,-2.22902 0.53942,-12.2477 2.37167,-22.637155 2.97202,-34.921265 -4.04046,15.74578 -3.71577,23.406915 -3.71503,39.379295 16.05487,1.82854 26.06242,-3.07307 32.69226,-1.48601 2.65847,0.63602 20.80267,-0.27045 33.43526,-1.48601 7.31266,-0.70287 14.81033,-0.92207 20.06115,-2.97202 1.37679,-0.5372 2.41849,-2.28622 2.22902,-2.97201 -2.79073,-10.088545 -4.23885,-21.482535 -8.17306,-31.949255 3.59243,1.5878 4.55388,9.92507 5.94404,14.86011 1.93925,6.88469 3.72692,14.056935 5.20104,19.318145 8.49107,-2.13093 16.90264,-2.37761 23.03318,-6.68704 -0.72146,8.20873 -14.69294,4.04269 -20.80416,10.40207 6.37573,-0.31578 11.70531,-2.40807 20.06116,-5.20103 1.33815,15.29922 -0.17238,33.97097 2.97202,42.35133 -3.59764,3.88369 -9.19767,3.71131 -13.37411,8.17306 -5.48858,-16.16112 -6.6499,-29.48915 -10.40208,-46.06636 -3.31454,3.76183 0.75861,8.04452 1.48602,11.14508 2.48832,10.59601 3.05746,20.85841 6.68705,35.66429 -3.50848,4.29011 -4.21507,0.0899 -5.20104,-5.20104 -2.0715,-11.11611 -3.52854,-28.81303 -5.94405,-40.12232 -0.26525,17.98817 4.87858,33.16258 5.94405,49.03839 -7.39142,3.23059 -22.55766,1.84042 -34.17827,4.45803 -2.64138,0.59515 -6.08076,2.9646 -7.43006,2.97203 -5.09107,0.0282 -9.96965,-5.37417 -14.86011,-2.97203 1.60638,-2.76918 -19.13091,-0.93024 -26.74821,0 -0.54165,0.0661 -1.52316,-1.47858 -1.48601,-1.48601 -1.9972,0.39008 -9.19767,4.34584 -11.14509,5.20104 -3.99217,-8.89526 -2.60646,-23.86386 -2.97202,-32.69225 -0.075,-1.81665 -1.47264,-3.65262 -1.48601,-5.20104 -0.0163,-1.95783 1.56105,-3.91268 1.48601,-5.94406 -0.078,-2.12351 -1.95559,-3.75812 0,-5.94405 -4.11774,-2.9579 -9.05278,-1.11525 -14.86011,-1.48601 -19.95863,-1.27425 -47.1036,-5.14903 -69.84255,-7.43005 25.55123,7.36838 55.24248,7.36095 80.98763,8.91606 1.55883,14.1357 -0.37224,26.05425 2.22902,33.43527 -0.22959,4.59549 -0.90721,12.22022 0,14.86012 -9.32249,2.78701 -19.23122,1.43103 -28.97723,2.97202 -3.57683,0.56617 -5.5443,2.63321 -8.17306,2.97203 -7.13583,0.91984 -21.43943,-5.15572 -32.69225,-1.48602 -8.43535,-5.95667 -10.5009,-5.42022 -25.2622,-8.17306 0.8604,-1.25048 -0.34773,-3.79453 2.22902,-2.22902 -0.50227,-19.71491 5.79544,-39.14675 5.94404,-54.23943 -12.36733,-1.49714 -21.10285,-4.81466 -35.66427,-9.65906 0.21844,-1.514995 2.01057,-1.45705 2.22901,-2.972035 10.20073,4.426825 21.6185,7.906335 31.94925,11.145095 4.05235,-2.30703 6.74947,-17.518595 9.65908,-25.262205 2.40659,-6.40619 5.33849,-10.670301 7.43005,-14.86011 -13.72554,-3.100564 -25.16114,-5.673592 -36.40728,-8.173064 4.09694,-3.859172 10.8256,0.201355 16.34613,1.486012 6.91292,1.608607 14.55622,3.857686 20.06115,4.458034 3.02329,-6.866859 7.05707,-14.379389 10.40208,-20.061154 2.85463,-4.84737 9.80471,-11.861345 9.65908,-12.631099 -0.45918,-2.428886 -12.01738,-4.442432 -16.34613,-5.201041 -5.40611,-0.947332 -7.52219,0.149344 -14.11711,-1.486011 11.57975,-3.04781 22.50862,5.931415 34.17827,3.715029 0.84554,-0.16049 0.41014,-0.71923 0,-0.743006 4.31092,0.248907 9.39977,2.503186 13.3741,2.972023 9.5662,1.127883 18.68511,0.0045 30.46324,2.229017 -15.18555,3.04261 -29.09685,-3.724688 -43.83734,-2.229017 15.41068,3.663762 35.10925,5.258996 52.0104,5.944047 1.71635,8.662704 -2.33898,19.706741 -2.22901,30.463235 -13.97074,1.563284 -19.42589,0.193925 -33.43526,-0.743005 -6.22788,-0.416827 -11.04181,-3.423771 -17.08914,-1.486012 -4.55239,-2.152488 -12.96322,-2.240162 -16.34612,-2.972023 1.57443,-11.545566 10.95933,-20.112422 16.34612,-30.463236 -5.99382,3.142172 -9.01637,11.846485 -13.3741,19.31815 -3.54488,6.077787 -7.83574,9.662046 -5.20104,14.860115 25.37365,2.033607 42.61138,4.805018 69.84254,5.944046 4.68614,-4.048639 2.84423,-14.030921 3.71503,-23.033178 0.51565,-5.330323 2.20747,-9.855971 0.74301,-14.117109 -4.26188,0.809876 -6.54291,0.358128 -11.14509,0 2.95493,-3.342041 8.09728,1.087017 10.40208,-0.743006 5.49899,-4.365903 0.63156,-10.301776 3.71503,-16.346128 2.70677,0.881205 0.25708,14.064356 -0.74301,14.860115 z m 24.51919,83.216651 c -10.62349,0.75043 -21.96102,-1.17395 -28.23421,2.22902 24.45009,-1.24379 43.61741,0.0906 75.04358,-2.97203 2.43408,-0.23701 6.98054,-0.98299 11.14508,-2.97202 -16.74586,1.25717 -40.43288,2.47718 -57.95445,3.71502 z m -30.46323,0.74301 c -2.0128,11.67632 0.0565,19.53955 0.743,27.49121 0.80914,9.37004 -1.20515,18.68065 2.22902,24.51919 -0.67019,-18.07882 -1.56105,-25.97548 -2.97202,-52.0104 z M 198.12923,69.525095 c -7.44492,12.5568 -10.9638,24.21902 -14.86012,37.150295 3.44681,5.27534 15.04364,5.7256 20.80416,6.68705 21.90827,3.65559 41.83197,3.23505 60.92648,5.20104 3.91935,-2.07448 2.15694,-6.48941 2.22901,-7.43006 0.65088,-8.54456 3.81014,-21.979595 2.97203,-31.949255 -2.80262,16.05562 -3.6229,23.944855 -3.71503,34.178275 -5.55991,-0.20061 -10.34041,2.13985 -16.34613,2.22902 0.0275,-7.5e-4 0.95922,-1.38571 0,-1.48601 -4.90904,-0.51119 -11.70011,0.6895 -18.57514,0 -8.50519,-0.85298 -17.24517,-3.42155 -25.2622,-4.45804 -3.06118,-0.39528 -7.04741,0.93024 -9.65907,0 -0.21548,-0.0773 0.78164,-1.47932 0.743,-1.48601 -4.32801,-0.71477 -8.46581,0.63453 -12.6311,-2.22902 4.81171,-11.653305 7.25025,-24.648475 14.11711,-34.178268 29.43715,2.471237 44.43918,10.185123 72.07156,5.944043 -21.62815,0.66648 -47.30569,-4.467691 -72.81456,-8.17306 z m -20.80416,79.501625 c -0.69694,6.61349 -3.13623,15.27842 0.743,17.08913 -2.69488,-11.5894 3.54785,-31.03535 3.71503,-50.52439 -2.51805,9.56024 -3.37176,23.1201 -4.45803,33.43526 z"
   clip-rule="evenodd" /><path
   style="fill:#ffffff;fill-rule:evenodd"
   id="path33"
   d="m 221.90541,15.285674 c -0.23256,3.740291 -6.49238,7.863973 -8.17306,12.631098 -6.69077,-1.12714 -17.63822,-1.933301 -26.0052,-4.458035 0.31652,-1.416912 2.12276,-1.34484 1.48601,-3.715029 6.51987,0.02303 10.21558,-3.065641 11.88809,-6.687052 8.98071,0.60555 14.39277,4.907553 20.80416,2.229018 z"
   clip-rule="evenodd" /><path
   style="fill:#ffffff;fill-rule:evenodd"
   id="path35"
   d="m 229.33547,13.799662 c 0.70586,0.996371 -2.34567,4.556855 -4.45803,5.201041 -2.27434,4.357728 -5.53317,10.706713 -8.17307,9.659074 3.83614,-3.420798 6.63727,-10.333724 12.6311,-14.860115 z"
   clip-rule="evenodd" /><path
   style="fill-rule:evenodd"
   id="path37"
   d="m 273.17281,171.31689 c -3.43417,-5.83854 -1.41988,-15.14915 -2.22902,-24.51919 -0.68653,-7.95166 -2.7558,-15.81488 -0.743,-27.49121 1.41097,26.03492 2.30183,33.93158 2.97202,52.0104 z"
   clip-rule="evenodd" /><path
   style="fill-rule:evenodd"
   id="path39"
   d="m 270.94379,77.698155 c -27.63238,4.24108 -42.63441,-3.472806 -72.07156,-5.944043 -6.86686,9.529793 -9.3054,22.524963 -14.11711,34.178268 4.16529,2.86355 8.30309,1.51425 12.6311,2.22902 0.0386,0.007 -0.95848,1.40873 -0.743,1.486 2.61166,0.93025 6.59789,-0.39528 9.65907,0 8.01703,1.0365 16.75701,3.60507 25.2622,4.45805 6.87503,0.68949 13.6661,-0.51119 18.57514,0 0.95922,0.1003 0.0275,1.48526 0,1.48601 6.00572,-0.0892 10.78622,-2.42964 16.34613,-2.22902 0.0921,-10.23342 0.91241,-18.122655 3.71503,-34.178275 0.83811,9.96966 -2.32115,23.404695 -2.97203,31.949245 -0.0721,0.94066 1.69034,5.3556 -2.22901,7.43006 -19.09451,-1.96599 -39.01821,-1.54545 -60.92648,-5.20103 -5.76052,-0.96145 -17.35735,-1.41171 -20.80416,-6.68705 3.89632,-12.931275 7.4152,-24.593495 14.86012,-37.150295 25.50887,3.705369 51.18641,8.83954 72.81456,8.17306 z"
   clip-rule="evenodd" /><path
   style="fill:#ffffff;fill-rule:evenodd"
   id="path41"
   d="m 192.92819,65.06706 c -9.97337,-4.295316 -21.02484,-3.590947 -33.43526,-10.40208 6.10453,-5.540594 10.98162,-14.970823 19.31815,-21.547168 7.35353,-5.801389 19.4556,-0.160489 31.20624,0 -5.34296,11.434117 -12.63184,19.402854 -17.08913,31.949248 z"
   clip-rule="evenodd" /><path
   style="fill:#ffffff;fill-rule:evenodd"
   id="path43"
   d="m 483.44344,60.609025 c 3.75887,-3.194924 6.39282,-4.767867 6.68705,-8.916068 -4.03972,0.91464 -5.6617,8.737747 -8.91606,5.944045 -0.8292,10.291373 -20.24543,13.12594 -21.54717,1.486012 -9.72669,2.750607 -19.70377,0.989684 -28.97723,1.486011 -1.07958,-0.329151 0.0758,-0.652359 0,-1.486011 -8.32835,2.295888 -11.73429,1.54991 -17.08913,0 2.56857,-6.509473 13.18241,-0.351442 14.86012,-9.659074 5.01974,0.04904 10.53953,0.961449 14.86011,2.972023 2.67036,-6.759867 14.02201,-10.134599 23.03318,-4.458035 6.22787,-6.78067 19.18515,-8.346926 28.23422,-2.972023 4.73815,12.469865 12.22467,4.805019 20.80416,10.402081 -0.67019,1.636841 0.10625,3.191209 -0.74301,5.944045 -3.28854,0.115166 0.35145,-2.100477 -1.48601,-2.972023 -6.98128,2.936359 -14.85788,-1.35227 -20.06115,2.229017 0.70511,-2.521018 -6.22639,1.533564 -9.65908,0 z"
   clip-rule="evenodd" /><path
   style="fill:#ffffff;fill-rule:evenodd"
   id="path45"
   d="m 414.34391,99.988335 c -8.06385,1.044665 -14.21222,-0.30389 -26.00521,-0.74301 1.2059,-6.57114 2.43855,-31.4975 11.8881,-36.407282 1.95262,-1.014946 8.48735,-0.485926 11.88809,-0.743006 4.59623,-0.346984 9.77795,-0.09733 13.3741,0.743006 -8.47026,11.920784 -5.0138,28.457122 -11.14508,37.893297 -0.84332,-0.14117 -0.41311,-0.745235 0,-0.743005 z"
   clip-rule="evenodd" /><path
   style="fill:#ffffff;fill-rule:evenodd"
   id="path47"
   d="m 381.65165,62.838043 c -4.57691,2.884348 -6.41139,1.896893 -12.6311,2.972023 -1.54396,0.831423 -1.57442,0.80096 -0.743,-0.743006 7.36616,-1.724516 7.75178,-0.303889 13.3741,-2.229017 z"
   clip-rule="evenodd" /><path
   style="fill:#ffffff;fill-rule:evenodd"
   id="path49"
   d="m 484.18645,101.47435 c -2.81079,2.73426 -18.99049,-0.68505 -25.2622,0.743 -3.50699,15.45972 -1.98531,20.53 -1.48601,44.58035 -2.57526,-2.34047 -2.79965,-7.12617 -2.97202,-11.14509 -0.4629,-10.75947 0.56914,-22.71518 1.48601,-31.20624 -10.65619,-2.14878 -17.79499,-1.40874 -30.46324,-0.74301 11.73206,3.3829 16.77261,0.0164 26.74821,1.48601 -2.75135,17.11069 0.18204,19.08187 -1.48601,40.86532 -8.22582,0.20433 -20.60207,0.16272 -27.49121,-2.97202 -0.4941,-15.22493 -0.82623,-21.8518 0.743,-38.6363 -4.11774,0.026 -2.03361,4.00109 -2.22902,5.20104 -2.16809,13.3362 0.52679,19.37016 0,34.17827 -3.54042,-7.77407 -2.04995,-25.46801 -1.48601,-37.8933 -0.11145,-1.37456 -2.51656,-0.4562 -2.97202,-1.48602 5.95816,-12.073835 2.98391,-28.080415 10.40208,-40.865312 0.26377,3.390336 -0.91984,9.836654 -1.48601,12.631098 -1.50682,7.437489 -5.16761,14.373449 -2.97202,26.748204 2.9371,0.12631 -0.23777,-1.14126 1.48601,-2.22902 10.14351,0.49187 20.7945,2.1458 31.20624,-0.742995 -1.09445,-6.22714 -0.0654,-20.74621 4.45803,-32.692258 4.24405,1.953362 0.47256,6.950076 0,8.916069 -1.74606,7.266599 -2.58714,11.109419 -2.97202,23.776189 11.35313,2.076695 14.27983,0.716995 26.74821,1.486005 z"
   clip-rule="evenodd" /><path
   style="fill:#ffffff;fill-rule:evenodd"
   id="path51"
   d="m 513.90668,128.22255 c -3.26997,1.82407 -7.70646,-0.8968 -9.65908,0 -2.20821,-13.5814 -0.96665,-18.44141 -0.743,-29.720235 -3.67565,-1.92512 -10.24085,2.314475 -15.60312,4.458045 0.78164,-3.933475 11.8175,-4.026355 15.60312,-7.430065 -0.88195,-6.37499 -0.90944,-14.25679 2.22902,-21.547166 0.95253,-1.276484 3.53745,-0.920584 3.71502,-2.972023 6.85869,7.291859 4.02412,14.486379 3.71503,23.033179 2.15695,-0.56766 1.92736,-3.5211 5.20104,-2.97202 -1.42062,1.6621 -3.1548,1.40576 -5.20104,3.71503 1.18733,12.012175 -0.47106,18.396815 0.74301,33.435245 z"
   clip-rule="evenodd" /><path
   style="fill:#ffffff;fill-rule:evenodd"
   id="path53"
   d="m 516.1357,128.22255 c -2.57675,-9.10256 -0.30612,-15.30741 -0.74301,-33.435255 1.95411,1.93181 0.58475,-1.2007 2.97202,-0.74301 0.19541,11.029185 2.59978,26.138945 0,31.949255 2.44375,1.10187 -2.20524,1.1561 -2.22901,2.22901 z"
   clip-rule="evenodd" /><path
   style="fill:#ffffff;fill-rule:evenodd"
   id="path55"
   d="m 146.86183,158.68579 c -1.54917,0.98151 -8.54902,-3.3621 -11.88809,-5.94404 -0.0216,3.2551 -1.6517,-1.3545 -2.97203,0 -0.19912,-16.57869 6.33264,-30.75896 10.40208,-49.78139 11.65331,3.02179 23.64468,8.73403 34.17827,9.65906 0.24148,18.16501 -6.82971,40.89134 -6.68705,54.23943 -4.60664,0.63453 -11.57455,-0.39156 -16.34613,0.74301 -2.03286,-3.16818 -4.13705,-6.26502 -6.68705,-8.91607 z"
   clip-rule="evenodd" /><path
   style="fill:#ffffff;fill-rule:evenodd"
   id="path57"
   d="m 415.82992,104.44637 c -1.06919,0.22439 -4.42832,1.04838 -5.94405,-0.74301 -5.5666,3.92382 -17.45469,-1.19475 -20.80416,3.71503 12.8592,0.0713 16.72655,-0.57583 27.49121,-0.743 0.46958,12.97808 -0.2333,21.18829 0.74301,38.6363 -5.83631,0.30612 -22.16163,3.77447 -27.49121,6.68705 -4.38745,-15.82825 -3.22688,-29.16595 -1.48602,-47.55237 8.6211,-0.40197 22.35556,-2.10716 27.49122,0 z"
   clip-rule="evenodd" /><path
   style="fill-rule:evenodd"
   id="path59"
   d="m 181.7831,115.59146 c -0.16718,19.48904 -6.40991,38.93499 -3.71503,50.52439 -3.87923,-1.81071 -1.43994,-10.47564 -0.743,-17.08913 1.08627,-10.31515 1.93998,-23.87502 4.45803,-33.43526 z"
   clip-rule="evenodd" /><path
   style="fill-rule:evenodd"
   id="path63"
   d="m 624.05072,226.08852 c 4.476,-6.109 29.598,-12.317 32,-2 -11.404,-5.678 -26.587,-3.381 -34,8 -13.1,-7.137 -18.716,-9.689 -30,-8 -5.578,0.835 -15.444,7.408 -22,4 -2.235,2.321 -8.719,1.501 -10,2 -12.814,-13.871 -38.204,-10.806 -52,2 -1.567,-0.354 0.875,-1.761 -1,-2 12.916,-12.037 36.845,-15.962 54,-7 0.395,4.139 8.042,1.119 11,5 22.37,-7.507 34.15,-9.831 52,-2 z"
   clip-rule="evenodd" /><path
   style="fill-rule:evenodd"
   id="path65"
   d="m 140.85783,316.12498 c 8.402,-5.751 18.802,-1.797 29,-1 12.74599,0.996 21.02299,-4.964 28.99999,1 -19.84,4.072 -34.99999,-4.081 -51.99999,5 -5.698,-3.096 -9.845,-3.22 -9,-7 -8.667,-3.031 -30.323,-2.232 -37,4 3.526,-6.542 10.571,-7.926 16,-9 -1.928,0.381 9.054,1.165 8,1 5.92,0.926 10.865,1.859 16,6 z"
   clip-rule="evenodd" />
<path
   style="fill-rule:evenodd"
   id="path2435"
   d="m 187.77245,228.87471 c 5.89735,-5.751 13.19711,-1.797 20.35508,-1 8.9464,0.996 14.75603,-4.964 20.35508,1 -13.92569,4.072 -24.56648,-4.081 -36.49877,5 -3.99942,-3.096 -6.9102,-3.22 -6.31709,-7 -6.08337,-3.031 -21.2837,-2.232 -25.97028,4 2.4749,-6.542 7.41978,-7.926 11.23039,-9 -1.35326,0.381 6.355,1.165 5.61519,1 4.15525,0.926 7.62614,1.859 11.2304,6 z"
   clip-rule="evenodd" /><g
   id="g2563"
   transform="translate(-125.4896,-4.0179799)"><g
     transform="matrix(0.7344639,0,0,0.7344639,132.97887,83.934769)"
     id="g4013"><path
       style="fill:#777777;fill-opacity:0.79729728;stroke:none;filter:url(#filter3172)"
       d="m 213.05399,47.37801 c -4.21444,0.21749 -8.0347,2.54657 -10.15847,6.19326 L 33.940149,345.10803 c -2.2394,3.86491 -2.24648,8.63102 -0.01859,12.50258 2.2279,3.87156 6.35223,6.26023 10.81904,6.26604 l 336.928881,0.52869 c 4.46863,0.0134 8.60458,-2.35943 10.84845,-6.22387 2.24387,-3.86443 2.25436,-8.63271 0.0275,-12.50699 L 224.53419,53.60904 c -2.35105,-4.07005 -6.78637,-6.47738 -11.4802,-6.23103 l 0,0 z m 0.60422,37.46171 146.41036,254.5282 L 66.417039,338.91476 213.65821,84.83972 z"
       id="path3152"
       transform="matrix(0.2479801,0,0,0.2479801,496.85022,135.03968)" /><path
       style="fill:url(#linearGradient2601);fill-opacity:1;stroke:#870000;stroke-width:1.54987562;stroke-linecap:round;stroke-linejoin:round;stroke-miterlimit:4;stroke-opacity:1;stroke-dasharray:none"
       d="m 546.40326,145.32947 c -1.0451,0.0539 -1.99244,0.6315 -2.51909,1.5358 l -41.89758,72.29532 c -0.55533,0.95842 -0.55709,2.14032 -0.005,3.10039 0.55247,0.96007 1.57522,1.55241 2.68291,1.55385 l 83.55165,0.1311 c 1.10814,0.003 2.13377,-0.58509 2.6902,-1.54339 0.55644,-0.9583 0.55905,-2.14074 0.007,-3.10148 l -41.66346,-72.42642 c -0.58302,-1.00929 -1.68289,-1.60626 -2.84686,-1.54517 l 0,0 z m 0.14983,9.28976 36.30686,63.11792 -72.81974,-0.11237 36.51288,-63.00555 z"
       id="path2178" /><path
       sodipodi:arg2="1.5723975"
       style="fill:url(#linearGradient2603);fill-opacity:1;fill-rule:nonzero;stroke:url(#linearGradient2605);stroke-width:20.6877861;stroke-linecap:round;stroke-linejoin:round;stroke-miterlimit:4;stroke-opacity:1;stroke-dasharray:none"
       id="path2160"
       sodipodi:cx="91.428574"
       sodipodi:cy="117.14286"
       sodipodi:arg1="0.52519998"
       sodipodi:type="star"
       d="M 230.71429,197.85715 -48.114905,197.41068 91.686339,-43.839248 230.71429,197.85715 z"
       sodipodi:r2="80.491158"
       sodipodi:sides="3"
       inkscape:randomized="0"
       transform="matrix(0.2996697,0,0,0.2996697,519.08649,161.55845)"
       inkscape:rounded="0"
       sodipodi:r1="160.98232"
       inkscape:flatsided="true" /><path
       sodipodi:nodetypes="cccsccscccc"
       d="m 546.42011,164.24306 c -0.64585,0.0339 -1.2313,0.39662 -1.55677,0.96458 l -25.89205,45.4056 c -0.34319,0.60194 -0.34428,1.34424 -0.003,1.94722 0.34143,0.60298 0.97347,0.97501 1.658,0.97591 l 51.63367,0.0823 c 0.68481,0.002 1.31864,-0.36747 1.66249,-0.96934 0.34388,-0.60187 0.34549,-1.34451 0.004,-1.94791 l -25.74738,-45.48794 c -0.36029,-0.6339 -1.03999,-1.00883 -1.75932,-0.97046 l 0,0 z"
       style="fill:#ffffff;fill-opacity:1;stroke:none"
       id="path19491" /><g
       id="g1369"
       transform="matrix(0.04461425,0,0,0.04461425,517.78488,174.35805)"><path
         transform="matrix(1.4177,0,0,0.414745,-38.7944,222.194)"
         d="m 670.88202,1166.6423 c 0,103.073 -91.28713,186.6302 -203.89551,186.6302 -112.60838,0 -203.89551,-83.5572 -203.89551,-186.6302 0,-103.073 91.28713,-186.63016 203.89551,-186.63016 112.60838,0 203.89551,83.55716 203.89551,186.63016 l 0,0 z"
         id="path175"
         style="fill:url(#radialGradient2607);stroke:none" /><path
         transform="matrix(1.25,0,0,1.25,185.454,-167.505)"
         id="path106"
         d="m 223.627,632.24 c -22.388,-32.223 -26.754,-136.984 25.487,-201.43 25.886,-30.918 32.49,-52.465 34.531,-81.393 1.389,-32.979 -23.325,-131.442 69.883,-138.944 94.406,-7.532 89.336,85.66 88.793,134.975 -0.451,41.64 30.574,65.241 51.796,97.695 39.279,59.63 35.957,162.3 -7.399,217.872 -54.917,69.568 -101.953,39.398 -133.19,41.93 -58.493,3.202 -60.427,34.391 -129.901,-70.705 z"
         style="fill:#000000;stroke:none" /><path
         transform="matrix(-1.67739,-0.0224516,-0.0211236,1.4709,1173.58,-293.017)"
         id="path113"
         d="m 246.571,470.864 c -12.239,12.496 -44.396,69.092 4.869,105.36 17.369,12.633 -16.377,59.495 -32.005,36.308 -27.57,-41.618 -8.831,-106.941 8.315,-130.188 11.652,-16.487 29.23,-22.676 18.821,-11.48 z"
         style="fill:url(#linearGradient2609);stroke:none" /><path
         transform="matrix(-1.67755,0,0,1.52374,1174.62,-318.082)"
         id="path111"
         d="m 256.513,459.837 c -19.915,17.717 -56.176,80.091 -3.288,120.606 17.37,12.632 -15.393,52.463 -33.79,32.089 -63.963,-70.82 1.669,-152.254 24.262,-180.25 20.192,-24.347 38.078,5.752 12.816,27.555 z"
         style="fill:#000000;stroke:#000000;stroke-width:0.97729802" /><path
         transform="matrix(1.26626,-0.0713667,-0.0459795,1.19574,202.143,-125.761)"
         d="m 399.56879,258.15753 c 0,25.88173 -26.13459,46.86302 -58.37323,46.86302 -32.23864,0 -58.37323,-20.98129 -58.37323,-46.86302 0,-25.88173 26.13459,-46.86302 58.37323,-46.86302 32.23864,0 58.37323,20.98129 58.37323,46.86302 l 0,0 z"
         id="path114"
         style="fill:url(#linearGradient2611);stroke:none" /><path
         transform="matrix(1.30445,-0.0755326,0.0771251,1.34257,144.757,-177.617)"
         d="m 328.86324,320.64151 c 0,14.98415 -8.09804,27.1312 -18.08748,27.1312 -9.98944,0 -18.08748,-12.14705 -18.08748,-27.1312 0,-14.98415 8.09804,-27.1312 18.08748,-27.1312 9.98944,0 18.08748,12.14705 18.08748,27.1312 z"
         id="path115"
         style="fill:url(#linearGradient2613);stroke:none" /><path
         transform="matrix(-1.81082,0.0495107,0.0317324,1.55333,1207.46,-284.777)"
         d="m 328.86324,320.64151 c 0,14.98415 -8.09804,27.1312 -18.08748,27.1312 -9.98944,0 -18.08748,-12.14705 -18.08748,-27.1312 0,-14.98415 8.09804,-27.1312 18.08748,-27.1312 9.98944,0 18.08748,12.14705 18.08748,27.1312 z"
         id="path116"
         style="fill:url(#linearGradient2615);stroke:none" /><path
         transform="matrix(-0.823196,-0.00176123,-0.0182321,0.852662,913.674,-37.9902)"
         d="m 328.86324,320.64151 c 0,14.98415 -8.09804,27.1312 -18.08748,27.1312 -9.98944,0 -18.08748,-12.14705 -18.08748,-27.1312 0,-14.98415 8.09804,-27.1312 18.08748,-27.1312 9.98944,0 18.08748,12.14705 18.08748,27.1312 z"
         id="path117"
         style="fill:#000000;stroke:none" /><path
         transform="matrix(0.59438,-0.0722959,0.0688176,0.705838,367.448,32.4186)"
         d="m 328.86324,320.64151 c 0,14.98415 -8.09804,27.1312 -18.08748,27.1312 -9.98944,0 -18.08748,-12.14705 -18.08748,-27.1312 0,-14.98415 8.09804,-27.1312 18.08748,-27.1312 9.98944,0 18.08748,12.14705 18.08748,27.1312 z"
         id="path118"
         style="fill:#000000;stroke:none" /><path
         transform="matrix(-0.480323,-0.036454,-0.0467935,0.475606,813.496,87.0124)"
         d="m 328.86324,320.64151 c 0,14.98415 -8.09804,27.1312 -18.08748,27.1312 -9.98944,0 -18.08748,-12.14705 -18.08748,-27.1312 0,-14.98415 8.09804,-27.1312 18.08748,-27.1312 9.98944,0 18.08748,12.14705 18.08748,27.1312 z"
         id="path121"
         style="fill:url(#linearGradient2617);stroke:none" /><path
         transform="matrix(0.35691,-0.0408211,0.0413232,0.398544,449.334,114.991)"
         d="m 328.86324,320.64151 c 0,14.98415 -8.09804,27.1312 -18.08748,27.1312 -9.98944,0 -18.08748,-12.14705 -18.08748,-27.1312 0,-14.98415 8.09804,-27.1312 18.08748,-27.1312 9.98944,0 18.08748,12.14705 18.08748,27.1312 z"
         id="path122"
         style="fill:url(#linearGradient2619);stroke:none" /><path
         transform="matrix(1.25,0,0,1.25,185.454,-168.23)"
         id="path128"
         d="m 258.702,495.425 c 12.836,-29.103 40.114,-80.226 40.695,-119.758 0,-31.442 94.179,-38.951 101.737,-7.558 7.558,31.393 26.741,78.483 38.95,101.156 12.208,22.672 47.809,94.695 9.884,157.546 -34.157,55.644 -137.725,99.666 -193.01,-7.557 -18.603,-37.207 -15.285,-83.315 1.744,-123.829 z"
         style="fill:url(#linearGradient2621);stroke:none" /><path
         transform="matrix(1.38936,-0.111074,0.102211,1.30214,108.413,-165.938)"
         id="path112"
         d="m 242.905,473.815 c -11.263,18.967 -35.5,69.309 12.137,102.047 51.311,34.82 46.473,97.062 -15.607,61.955 -56.777,-31.789 -22.845,-137.778 -4.51,-162.266 12.107,-17.214 29.897,-38.031 7.98,-1.736 z"
         style="fill:url(#linearGradient2623);stroke:none" /><path
         transform="matrix(1.25,0,0,1.25,185.454,-167.505)"
         id="path109"
         d="m 256.513,449.72 c -17.465,28.508 -59.377,95.813 -3.288,130.723 75.569,46.355 54.173,92.711 -14.799,50.974 -97.109,-58.264 -11.825,-175.616 27.131,-220.338 44.444,-50.2 8.554,9.087 -9.044,38.641 z"
         style="fill:#000000;stroke:#000000;stroke-width:1.25" /><path
         id="path125"
         d="m 421.481,504.727 c 0,32.412 -29.272,74.516 -79.528,74.138 -51.828,0.455 -73.949,-41.726 -73.949,-74.138 0,-32.412 34.379,-58.717 76.739,-58.717 42.359,0 76.738,26.305 76.738,58.717 z"
         style="font-size:12px;fill:url(#linearGradient2625);stroke:none"
         transform="matrix(1.30209,0,0,1.22525,170.042,-153.557)" /><path
         id="path127"
         d="m 398.227,412.292 c -0.612,38.572 -23.18,47.671 -51.74,47.671 -28.561,0 -49.292,-5.694 -51.741,-47.671 0,-26.314 23.18,-41.542 51.741,-41.542 28.56,0 51.74,15.228 51.74,41.542 z"
         style="font-size:12px;fill:url(#linearGradient2627);stroke:none"
         transform="matrix(1.1868,0,0,1.06708,210.623,-100.078)" /><path
         transform="matrix(1.25,0,0,1.25,185.454,-167.505)"
         id="path129"
         d="m 234.285,456.475 c 17.716,-26.996 55.015,-68.364 6.977,5.813 -38.951,61.043 -14.403,100.273 -1.744,111.039 36.527,32.562 34.966,54.349 6.395,37.206 -61.625,-36.626 -48.835,-98.248 -11.628,-154.058 z"
         style="fill:url(#linearGradient2629);stroke:none" /><path
         transform="matrix(1.25,0,0,1.25,185.454,-167.505)"
         id="path131"
         d="m 490.662,467.52 c -15.319,-31.701 -64.134,-111.902 2.326,-18.603 60.461,84.297 18.022,143.013 10.464,148.827 -7.557,5.813 -33.137,17.44 -25.579,-2.907 7.557,-20.347 45.234,-58.973 12.789,-127.317 z"
         style="fill:url(#linearGradient2631);stroke:none" /><path
         transform="matrix(1.25,0,0,1.25,185.454,-167.505)"
         id="path132"
         d="m 220.915,716.921 c -40.442,-21.416 -99.252,4.124 -77.902,-54.066 4.276,-13.238 -6.375,-33.008 0.581,-45.926 8.139,-15.698 25.58,-12.209 36.045,-22.674 10.318,-10.891 16.859,-29.649 36.044,-26.742 19.184,2.907 31.945,26.461 45.344,55.229 9.883,20.638 44.941,49.664 42.65,72.758 -2.696,35.5 -43.027,42.19 -82.762,21.421 z"
         style="fill:url(#linearGradient2633);stroke:#e68c3f;stroke-width:6.25" /><path
         id="path177"
         d="m 415.072,495.764 c -3.007,24.906 -35.813,76.627 -69.518,81.534 -34.26,5.336 -66.432,-34.06 -74.147,-71.114 -9.889,-41.206 22.587,-57.6 71.938,-56.627 53.301,1.654 74.121,13.891 71.727,46.207 z"
         style="font-size:12px;fill:url(#linearGradient2635);stroke:none"
         transform="matrix(0.598206,0.268584,-0.239623,0.617213,700.568,140.464)" /><path
         transform="matrix(-1.1685,0.423145,0.475283,1.16478,728.343,-213.821)"
         id="path133"
         d="m 220.274,718.402 c -41.327,-23.59 -99.894,5.605 -77.261,-55.547 4.736,-13.068 -6.596,-33.552 0.36,-46.47 8.139,-15.698 25.801,-11.665 36.266,-22.13 10.318,-10.891 18.827,-27.868 38.012,-24.961 19.184,2.907 29.977,24.68 43.376,53.448 9.883,20.638 43.415,48.971 41.124,72.065 -2.696,35.5 -42.724,45.471 -81.877,23.595 z"
         style="fill:url(#linearGradient2637);stroke:#e68c3f;stroke-width:6.25067997" /><path
         transform="matrix(-0.945096,0.343745,0.424076,0.956058,714.328,-64.342)"
         id="path134"
         d="m 216.482,675.68 c -86.531,-57.503 -47.308,-70.96 -36.843,-81.425 10.318,-10.891 18.827,-27.868 38.012,-24.961 19.184,2.907 29.977,24.68 43.376,53.448 9.883,20.638 43.06,48.918 41.124,72.065 -2.616,27.11 -48.19,5.487 -85.669,-19.127 z"
         style="fill:url(#linearGradient2639);stroke:none" /><path
         transform="matrix(1.00431,-0.052286,-0.0174,1.04575,244.191,-28.4653)"
         id="path135"
         d="m 216.506,677.071 c -86.531,-57.503 -46.797,-73.57 -33.946,-81.28 15.399,-9.942 15.158,-30.831 34.343,-27.924 19.184,2.907 30.725,26.107 44.124,54.875 9.883,20.638 43.06,48.918 41.124,72.065 -2.616,27.11 -48.166,6.878 -85.645,-17.736 z"
         style="fill:url(#linearGradient2641);stroke:none" /><path
         id="path136"
         d="m 415.072,495.764 c -3.007,24.906 -35.813,76.627 -69.518,81.534 -34.26,5.336 -66.432,-34.06 -74.147,-71.114 -9.889,-41.206 22.587,-57.6 71.938,-56.627 53.301,1.654 74.121,13.891 71.727,46.207 z"
         style="font-size:12px;fill:#000000;stroke:none"
         transform="matrix(0.515584,0.215259,-0.206526,0.49467,713.3,222.559)" /><path
         id="path137"
         d="m 415.072,495.764 c -3.007,24.906 -35.813,76.627 -69.518,81.534 -34.26,5.336 -66.432,-34.06 -74.147,-71.114 -9.889,-41.206 22.587,-57.6 71.938,-56.627 53.301,1.654 74.121,13.891 71.727,46.207 z"
         style="font-size:12px;fill:url(#linearGradient2643);stroke:none"
         transform="matrix(0.351231,0.149463,-0.128856,0.343469,724.522,318.291)" /><path
         transform="matrix(1.25,0,0,1.25,185.454,-167.505)"
         id="path119"
         d="m 309.954,338.729 c 7.147,-6.77 24.811,-27.066 57.961,-5.755 6.162,4.01 11.162,4.377 23.021,9.455 23.726,9.749 12.382,33.259 -12.744,41.108 -10.758,3.489 -20.536,16.556 -40.129,15.439 -16.734,-0.977 -21.119,-11.874 -31.398,-17.906 -18.269,-10.311 -20.965,-24.254 -11.1,-31.653 9.866,-7.399 13.725,-10.059 14.389,-10.688 z"
         style="fill:url(#linearGradient2645);stroke:#e68c3f;stroke-width:3.75" /><path
         transform="matrix(1.25,0,0,1.25,185.454,-167.505)"
         id="path120"
         d="m 391.251,357.645 c -9.883,0.581 -31.393,22.091 -54.066,22.091 -22.673,0 -36.044,-20.929 -39.532,-20.929"
         style="fill:none;stroke:#e68c3f;stroke-width:2.5" /><path
         transform="matrix(0.627885,0,0,0.595666,392.366,51.8173)"
         id="path123"
         d="m 309.954,338.729 c 7.147,-6.77 29.691,-25.348 59.588,-6.328 6.299,3.766 12.804,7.865 22.478,13.464 19.162,11.748 9.671,28.678 -13.286,39.39 -10.418,4.495 -27.593,14.415 -40.671,13.721 -14.533,-1.408 -23.935,-11.399 -33.567,-17.906 -17.67,-12.303 -16.597,-22.237 -8.389,-30.508 6.205,-5.679 13.183,-11.204 13.847,-11.833 z"
         style="fill:url(#linearGradient2647);stroke:none" /></g><rect
       style="fill:#000000;fill-opacity:1;fill-rule:nonzero;stroke:#898989;stroke-width:0.99417752;stroke-linecap:butt;stroke-linejoin:bevel;stroke-miterlimit:11.5;stroke-opacity:1;stroke-dasharray:none;stroke-dashoffset:0"
       id="rect3065"
       width="3.194958"
       height="90.540298"
       x="544.8114"
       y="225.05811" /></g><path
     clip-rule="evenodd"
     d="m 506.60503,316.79494 c 8.40199,-5.751 18.802,-1.797 29,-1 12.74599,0.996 21.023,-4.964 29,1 -19.84001,4.072 -35,-4.081 -52,5 -5.698,-3.096 -9.845,-3.22 -9,-7 -8.667,-3.031 -30.323,-2.232 -37,4 3.526,-6.542 10.571,-7.926 16,-9 -1.928,0.381 9.054,1.165 8,1 5.92,0.926 10.865,1.859 16,6 z"
     id="path2253"
     style="fill-rule:evenodd" /></g><rect
   style="fill:#ffffff;fill-rule:evenodd;stroke:#000000;stroke-width:1.79340541;stroke-linecap:butt;stroke-linejoin:miter;stroke-miterlimit:4;stroke-opacity:1;stroke-dasharray:none"
   id="rect2997"
   width="7.5004139"
   height="173.66023"
   x="25.84646"
   y="-80.879204" /><path
   style="fill-rule:evenodd"
   id="path61-0"
   d="m 58.872456,92.086311 c -15.466,-2.986 -26.36701,7.683 -41,7 -6.577,-12.326 -24.1879997,-14.9 -33,-3 -9.104,-1.844 -20.84,1.501 -31,3.999999 8.809,-9.311999 21.662,-4.189999 27,-9.999999 13.9230003,-5.522 29.292,-4.031 41,5 0.249,-0.666 -0.475,-1.185 -1,-1 10.285,-3.615 29.936,-6.007 38,-2 z"
   clip-rule="evenodd" /></svg>