<?xml version="1.0" encoding="UTF-8" standalone="no"?>
<!-- Created with Inkscape (http://www.inkscape.org/) -->
<svg
   xmlns:dc="http://purl.org/dc/elements/1.1/"
   xmlns:cc="http://creativecommons.org/ns#"
   xmlns:rdf="http://www.w3.org/1999/02/22-rdf-syntax-ns#"
   xmlns:svg="http://www.w3.org/2000/svg"
   xmlns="http://www.w3.org/2000/svg"
   xmlns:xlink="http://www.w3.org/1999/xlink"
   xmlns:sodipodi="http://sodipodi.sourceforge.net/DTD/sodipodi-0.dtd"
   xmlns:inkscape="http://www.inkscape.org/namespaces/inkscape"
   width="500.00003"
   height="500.00003"
   id="svg2"
   sodipodi:version="0.32"
   inkscape:version="0.46"
   sodipodi:docname="exit.svg"
   inkscape:output_extension="org.inkscape.output.svg.inkscape"
   version="1.0">
  <defs
     id="defs4">
    <linearGradient
       id="linearGradient3670">
      <stop
         style="stop-color:#090905;stop-opacity:1;"
         offset="0"
         id="stop3672" />
      <stop
         style="stop-color:#090905;stop-opacity:0;"
         offset="1"
         id="stop3674" />
    </linearGradient>
    <inkscape:perspective
       sodipodi:type="inkscape:persp3d"
       inkscape:vp_x="0 : 526.18109 : 1"
       inkscape:vp_y="0 : 1000 : 0"
       inkscape:vp_z="744.09448 : 526.18109 : 1"
       inkscape:persp3d-origin="372.04724 : 350.78739 : 1"
       id="perspective10" />
    <linearGradient
       inkscape:collect="always"
       xlink:href="#linearGradient3670"
       id="linearGradient3676"
       x1="327.95459"
       y1="517.67297"
       x2="327.95459"
       y2="561.59869"
       gradientUnits="userSpaceOnUse" />
  </defs>
  <sodipodi:namedview
     id="base"
     pagecolor="#ffffff"
     bordercolor="#666666"
     borderopacity="1.0"
     inkscape:pageopacity="0.0"
     inkscape:pageshadow="2"
     inkscape:zoom="1"
     inkscape:cx="231.84307"
     inkscape:cy="157.03431"
     inkscape:document-units="px"
     inkscape:current-layer="layer1"
     showgrid="false"
     inkscape:window-width="1280"
     inkscape:window-height="982"
     inkscape:window-x="0"
     inkscape:window-y="42"
     showguides="true"
     inkscape:guide-bbox="true" />
  <metadata
     id="metadata7">
    <rdf:RDF>
      <cc:Work
         rdf:about="">
        <dc:format>image/svg+xml</dc:format>
        <dc:type
           rdf:resource="http://purl.org/dc/dcmitype/StillImage" />
        <dc:title>Sortir</dc:title>
        <dc:date>10/06/09</dc:date>
        <dc:creator>
          <cc:Agent>
            <dc:title>Tutur</dc:title>
          </cc:Agent>
        </dc:creator>
        <dc:subject>
          <rdf:Bag>
            <rdf:li>panneau</rdf:li>
            <rdf:li>panel</rdf:li>
            <rdf:li>exit</rdf:li>
            <rdf:li>sortie</rdf:li>
          </rdf:Bag>
        </dc:subject>
        <cc:license
           rdf:resource="http://creativecommons.org/licenses/by-sa/3.0/" />
      </cc:Work>
      <cc:License
         rdf:about="http://creativecommons.org/licenses/by-sa/3.0/">
        <cc:permits
           rdf:resource="http://creativecommons.org/ns#Reproduction" />
        <cc:permits
           rdf:resource="http://creativecommons.org/ns#Distribution" />
        <cc:requires
           rdf:resource="http://creativecommons.org/ns#Notice" />
        <cc:requires
           rdf:resource="http://creativecommons.org/ns#Attribution" />
        <cc:permits
           rdf:resource="http://creativecommons.org/ns#DerivativeWorks" />
        <cc:requires
           rdf:resource="http://creativecommons.org/ns#ShareAlike" />
      </cc:License>
    </rdf:RDF>
  </metadata>
  <g
     inkscape:label="Calque 1"
     inkscape:groupmode="layer"
     id="layer1"
     transform="translate(-39.999998,-194.86217)">
    <path
       sodipodi:type="arc"
       style="opacity:1;fill:#ffffff;fill-opacity:1;stroke:#000000;stroke-width:4.18000031;stroke-linecap:round;stroke-linejoin:round;stroke-miterlimit:4;stroke-dasharray:none;stroke-opacity:1"
       id="path3400"
       sodipodi:cx="583"
       sodipodi:cy="71.36219"
       sodipodi:rx="209"
       sodipodi:ry="209"
       d="M 792,71.36219 A 209,209 0 1 1 374,71.36219 A 209,209 0 1 1 792,71.36219 z"
       transform="matrix(1.184329,0,0,1.184329,-400.4638,360.34587)" />
    <path
       transform="matrix(0.956967,0,0,0.956967,-267.91175,376.57092)"
       d="M 792,71.36219 A 209,209 0 1 1 374,71.36219 A 209,209 0 1 1 792,71.36219 z"
       sodipodi:ry="209"
       sodipodi:rx="209"
       sodipodi:cy="71.36219"
       sodipodi:cx="583"
       id="path3468"
       style="opacity:1;fill:#bf0b00;fill-opacity:1;stroke:#000000;stroke-width:5.2120986;stroke-linecap:round;stroke-linejoin:round;stroke-miterlimit:4;stroke-dasharray:none;stroke-opacity:1"
       sodipodi:type="arc" />
    <g
       id="g3689">
      <path
         id="path3684"
         d="M 364.40195,525.10902 L 287.04208,568.33112 L 318.03377,568.33112 L 239.13246,631.45908 L 324.63546,631.45908 L 343.69728,568.33112 L 374.68896,568.33112 L 364.40195,525.10902 z"
         style="opacity:1;fill:#f3e53a;fill-opacity:1;stroke:#000000;stroke-width:3.80619049;stroke-linecap:round;stroke-linejoin:round;stroke-miterlimit:4;stroke-dasharray:none;stroke-opacity:1" />
      <rect
         y="319.82751"
         x="271.02399"
         height="241.77119"
         width="129.7626"
         id="rect2616"
         style="fill:url(#linearGradient3676);fill-opacity:1;stroke:none;stroke-width:3;stroke-linecap:round;stroke-linejoin:round;stroke-miterlimit:4;stroke-dasharray:none;stroke-opacity:1" />
      <path
         sodipodi:nodetypes="cssccccsc"
         id="path2385"
         d="M 277.69558,560.12269 C 277.69558,560.12269 272.38193,322.77954 275.33396,322.77954 C 278.28598,322.77954 391.05351,325.14116 395.77675,323.96035 C 400.5,322.77954 398.13837,561.0083 398.13837,561.0083 L 415.26014,560.41789 C 415.26014,560.41789 411.98366,313.83908 412.89852,308.25555 C 406.69926,308.84596 276.51733,309.40494 257.03138,307.07474 C 260.27605,348.13937 254.37455,561.0083 259.0978,561.0083 C 263.8578,561.0083 277.69558,560.12269 277.69558,560.12269 z"
         style="fill:#d5906a;fill-opacity:1;fill-rule:evenodd;stroke:#000000;stroke-width:2.47970462;stroke-linecap:butt;stroke-linejoin:miter;stroke-miterlimit:4;stroke-dasharray:none;stroke-opacity:1" />
      <path
         sodipodi:nodetypes="ccccc"
         id="path3157"
         d="M 134.32248,297.41347 L 127.01657,297.41347 C 127.01657,297.41347 130.14768,579.21246 128.89523,591.52812 C 126.80783,592.78056 134.11373,592.15434 134.11373,592.15434 L 134.32248,297.41347 z"
         style="fill:#b87e5a;fill-opacity:1;fill-rule:evenodd;stroke:#000000;stroke-width:2.47970462;stroke-linecap:butt;stroke-linejoin:miter;stroke-miterlimit:4;stroke-dasharray:none;stroke-opacity:1" />
      <path
         sodipodi:nodetypes="ccccc"
         id="path2383"
         d="M 274.86163,323.48802 C 274.86163,323.48802 140.24909,298.69098 133.16422,297.51017 C 134.93544,314.33673 134.93544,583.85701 133.75463,592.12269 C 144.67714,591.53229 264.23432,564.07841 277.22326,559.05996 C 277.22326,551.97509 274.86163,323.48802 274.86163,323.48802 z"
         style="fill:#e0b34e;fill-opacity:1;fill-rule:evenodd;stroke:#000000;stroke-width:2.47970462;stroke-linecap:butt;stroke-linejoin:miter;stroke-miterlimit:4;stroke-dasharray:none;stroke-opacity:1" />
      <path
         sodipodi:nodetypes="ccccc"
         id="path3159"
         d="M 152.52954,318.6467 L 154.30076,558.94188 L 262.93544,537.09687 C 262.93544,537.09687 260.57382,365.87917 260.57381,338.13009 C 252.89854,338.13009 151.93913,317.46589 152.52954,318.6467 z"
         style="fill:none;fill-rule:evenodd;stroke:#000000;stroke-width:2.47970462;stroke-linecap:butt;stroke-linejoin:miter;stroke-miterlimit:4;stroke-dasharray:none;stroke-opacity:1" />
      <g
         style="stroke-width:3;stroke-miterlimit:4;stroke-dasharray:none"
         transform="matrix(0.8265682,0,0,0.8265682,-22.44126,205.74705)"
         id="g3174">
        <path
           style="fill:#fcf95c;fill-opacity:1;fill-rule:evenodd;stroke:none;stroke-width:3;stroke-linecap:butt;stroke-linejoin:miter;stroke-miterlimit:4;stroke-dasharray:none;stroke-opacity:1"
           d="M 206.34375,290.5 C 200.82375,290.5 196.34375,294.65553 196.34375,299.78125 C 196.34375,304.90696 200.82375,309.0625 206.34375,309.0625 C 211.19613,309.0625 215.21662,305.8531 216.125,301.59375 C 221.02137,302.56329 226.76119,303.36608 231.5,303.03125 C 241.87429,302.29824 237.8852,295.27667 234.90625,292.09375 C 232.29615,289.30494 217.78845,292.92191 214.0625,293.90625 C 212.22819,291.82358 209.46503,290.50001 206.34375,290.5 z"
           id="path3169" />
        <path
           style="fill:#b4b24a;fill-opacity:1;fill-rule:evenodd;stroke:none;stroke-width:3;stroke-linecap:butt;stroke-linejoin:miter;stroke-miterlimit:4;stroke-dasharray:none;stroke-opacity:1"
           d="M 196.47468,299.9248 C 196.47468,300.93495 197.86364,303.3972 201.6517,305.10183 C 205.72278,306.93381 208.42239,306.20116 211.87949,303.08153 C 214.38783,300.81805 214.65742,295.69479 214.65742,295.69479 C 214.65742,295.69479 217.11967,300.05107 219.89758,300.17734 C 231.25008,300.69336 232.14569,300.49302 234.60793,297.39942 C 236.67645,294.8005 235.11301,292.98 235.11301,292.98 C 235.11301,292.98 244.45692,301.18749 231.95628,303.33407 C 219.45564,305.48064 216.55145,302.13451 216.55145,302.13451 C 216.55145,302.13451 214.90996,310.02633 206.19739,308.8899 C 197.48482,307.75348 196.97975,300.05107 196.47468,299.9248 z"
           id="path3167"
           sodipodi:nodetypes="csscsscscsc" />
        <path
           style="fill:none;fill-opacity:1;fill-rule:evenodd;stroke:#000000;stroke-width:3;stroke-linecap:butt;stroke-linejoin:miter;stroke-miterlimit:4;stroke-dasharray:none;stroke-opacity:1"
           d="M 214.18062,293.92414 C 214.18062,293.92414 229.04877,289.41703 234.90655,292.0832 C 238.98239,293.93832 241.8751,302.31199 231.50081,303.045 C 221.12651,303.77801 215.79689,302.72694 215.79689,302.72694"
           id="path3165"
           sodipodi:nodetypes="cssc" />
        <path
           sodipodi:type="arc"
           style="opacity:1;fill:none;fill-opacity:1;stroke:#000000;stroke-width:3;stroke-linecap:round;stroke-linejoin:round;stroke-miterlimit:4;stroke-dasharray:none;stroke-opacity:1"
           id="path3163"
           sodipodi:cx="328.57144"
           sodipodi:cy="317.36218"
           sodipodi:rx="10"
           sodipodi:ry="9.2857141"
           d="M 338.57144,317.36218 A 10,9.2857141 0 1 1 318.57144,317.36218 A 10,9.2857141 0 1 1 338.57144,317.36218 z"
           transform="translate(-122.24205,-17.591012)" />
      </g>
      <path
         d="M 224.09528,381.47445 C 223.15197,383.15169 222.44533,384.95133 221.91338,386.79752 C 221.74424,387.45003 221.57234,388.12142 221.74738,388.79296 C 221.77619,388.9035 221.81096,389.02042 221.88644,389.10616 C 221.93642,389.16294 222.15072,389.13686 222.09721,389.19035 C 221.95195,389.33552 221.72557,389.36521 221.53976,389.45264 C 221.62281,389.09176 221.70586,388.73088 221.78891,388.36999 L 222.57023,387.9909 C 222.50714,388.36951 222.44406,388.74811 222.38097,389.12672 C 222.03486,389.3135 221.71626,389.56423 221.34263,389.68704 C 220.67013,389.90811 220.97703,387.40215 221.12079,387.17377 C 221.65234,385.32451 222.36286,383.52782 223.27703,381.83246 L 224.09528,381.47445 z"
         id="path2508"
         style="fill:#52501b;fill-opacity:1;stroke:none;stroke-width:3;stroke-linecap:round;stroke-linejoin:round;stroke-miterlimit:4;stroke-dasharray:none;stroke-opacity:1" />
      <path
         d="M 222.32406,373.79917 C 220.44306,377.46481 219.59998,381.60082 218.89427,385.62886 C 218.08509,390.41849 217.97123,395.27319 218.81273,400.06794 C 218.96467,400.93365 219.19602,401.78354 219.38767,402.64133 C 220.27564,405.59416 220.99061,408.3829 223.77396,410.03563 C 224.40587,410.21372 224.67816,410.46718 225.24656,409.85965 C 225.33086,409.76954 225.15618,409.60905 225.19742,409.49275 C 225.34064,409.0889 225.62,408.74463 225.7826,408.34819 C 226.45158,406.71708 226.51709,406.00586 226.92287,404.19149 C 227.07877,402.71291 227.23467,401.23432 227.39057,399.75574 L 228.05018,399.42768 C 227.9192,400.89744 227.78823,402.36721 227.65726,403.83697 C 227.38488,405.11539 226.9149,408.05398 225.99949,409.15339 C 225.59201,409.64279 225.07702,410.0382 224.55793,410.40709 C 224.32554,410.57224 224.05378,410.71853 223.76938,410.73824 C 223.51437,410.7559 223.28079,410.58775 223.03651,410.5125 C 220.25777,408.80805 219.55242,406.00805 218.6756,403.02392 C 218.48656,402.16214 218.25897,401.30791 218.10846,400.43858 C 217.27687,395.63521 217.35374,390.77848 218.17478,385.98007 C 218.86153,381.9588 219.71062,377.84814 221.50581,374.15718 L 222.32406,373.79917 z"
         id="path2510"
         style="fill:#52501b;fill-opacity:1;stroke:none;stroke-width:3;stroke-linecap:round;stroke-linejoin:round;stroke-miterlimit:4;stroke-dasharray:none;stroke-opacity:1" />
      <path
         d="M 217.00207,362.2672 C 214.80742,367.56892 213.95736,373.27742 213.10525,378.91331 C 211.70301,390.22709 211.52363,401.64355 211.34908,413.02811 C 211.47059,420.5403 211.41324,428.08732 212.59438,435.52882 C 213.25527,439.69255 213.48404,440.19086 214.51163,444.08907 C 215.54088,447.15901 216.4682,450.57997 218.89065,452.90455 C 219.23669,453.23661 219.55388,453.75619 220.03291,453.77936 C 220.64636,453.80905 221.15846,453.28749 221.72123,453.04155 L 221.06186,453.56102 C 220.47751,453.78594 219.93313,454.28336 219.3088,454.23575 C 218.82653,454.19897 218.51227,453.67904 218.16707,453.34026 C 215.76178,450.97962 214.86103,447.53761 213.85082,444.44725 C 212.8573,440.58585 212.60598,439.97186 211.96598,435.85918 C 210.80616,428.40622 210.87245,420.85114 210.75324,413.33057 C 210.92095,401.95459 211.09307,390.54969 212.44185,379.23909 C 213.26352,373.62297 214.07926,367.94123 216.2005,362.63791 L 217.00207,362.2672 z"
         id="path2512"
         style="fill:#52501b;fill-opacity:1;stroke:none;stroke-width:3;stroke-linecap:round;stroke-linejoin:round;stroke-miterlimit:4;stroke-dasharray:none;stroke-opacity:1" />
      <path
         d="M 227.65594,363.71184 C 229.82875,366.71879 230.86614,370.42833 232.09701,373.88867 C 234.02934,379.32172 235.774,384.8211 236.98312,390.46216 C 238.23803,395.48033 238.63232,400.62994 238.90034,405.77675 C 239.03032,409.95516 239.29611,414.14456 238.8902,418.3134 C 238.2621,421.922 237.07843,425.41452 235.88,428.86813 C 234.50862,432.72251 233.01437,436.53289 231.40992,440.29595 C 230.13163,443.6525 228.4954,446.89775 227.60611,450.38447 L 226.84564,450.74874 C 226.98607,450.17721 227.09203,449.5961 227.26693,449.03417 C 227.43424,448.49658 228.25798,446.59992 228.4488,446.12924 C 229.18883,444.30385 229.85762,442.44943 230.65006,440.6452 C 232.26234,436.88786 233.75473,433.07854 235.1194,429.22413 C 236.32085,425.77899 237.49875,422.28991 238.13218,418.69018 C 238.55845,414.52075 238.3022,410.32721 238.18463,406.14607 C 237.92326,401.00422 237.51046,395.8619 236.26207,390.84873 C 235.07825,385.20388 233.35186,379.69986 231.3979,374.27574 C 230.15524,370.83596 229.0994,367.13568 226.89165,364.17072 L 227.65594,363.71184 z"
         id="path2514"
         style="fill:#52501b;fill-opacity:1;stroke:none;stroke-width:3;stroke-linecap:round;stroke-linejoin:round;stroke-miterlimit:4;stroke-dasharray:none;stroke-opacity:1" />
      <path
         d="M 209.67428,337.82559 C 209.98049,339.92164 210.05581,342.03818 210.11418,344.15248 C 210.18053,347.05587 210.1802,349.96018 210.18388,352.86415 C 210.29743,355.64027 209.87841,358.36865 209.32394,361.07594 C 208.92107,364.03635 207.95282,366.85373 206.91365,369.63956 C 205.86912,372.53686 205.1171,375.52119 204.65635,378.56377 C 204.30887,381.19031 204.28475,383.84336 204.26395,386.48817 C 204.39403,389.35048 203.81207,392.14726 203.30902,394.94551 C 202.79123,397.52712 202.11887,400.07139 201.71275,402.67422 C 201.23373,405.03729 200.97757,407.42963 200.84063,409.834 C 200.71864,412.71574 200.72694,415.60097 200.72315,418.4847 C 200.76749,420.7566 200.60568,423.03573 200.86076,425.30018 C 201.00317,426.56435 201.36727,428.5461 201.58416,429.79372 C 202.17798,433.98387 203.27974,438.07029 204.44412,442.13079 C 205.45386,445.57734 206.52638,449.00382 207.61376,452.42647 C 208.48461,455.00694 209.52591,457.52519 210.4983,460.06846 C 212.32509,464.77522 213.93757,469.55539 215.73812,474.2729 C 217.84129,479.7972 219.28781,485.53238 221.02175,491.17443 C 221.55349,492.90466 223.69165,499.48296 224.24248,501.18342 C 226.89861,509.17761 229.17847,517.28061 231.11987,525.47488 C 232.14279,529.60035 232.80084,533.79741 233.12371,538.03227 C 233.20983,539.72975 233.17674,538.89597 233.22494,540.53355 L 232.45491,540.92858 C 232.41225,539.29063 232.44186,540.12478 232.36429,538.4262 C 232.07017,534.1855 231.43217,529.98133 230.42879,525.84738 C 228.50917,517.64397 226.29948,509.51657 223.62646,501.52203 C 223.19483,500.19193 220.81681,492.87916 220.39462,491.51706 C 218.64887,485.88492 217.18248,480.16084 215.05988,474.65037 C 213.24616,469.94276 211.59839,465.17859 209.75144,460.48436 C 208.76117,457.94619 207.73782,455.41848 206.866,452.83679 C 205.78713,449.40967 204.73121,445.97629 203.7074,442.5323 C 202.55498,438.46437 201.44795,434.37423 200.85826,430.1795 C 200.67243,429.1163 200.24638,426.76627 200.11781,425.68572 C 199.84847,423.42219 200.00954,421.14341 199.96424,418.8713 C 199.96586,415.98807 199.9537,413.10327 200.06892,410.22182 C 200.1992,407.8148 200.45468,405.41983 200.93618,403.05492 C 201.3407,400.44865 202.01534,397.90223 202.54182,395.3193 C 203.04844,392.52811 203.6216,389.73419 203.49549,386.87894 C 203.51751,384.22985 203.53821,381.57212 203.88694,378.94134 C 204.34855,375.89193 205.10054,372.90162 206.14537,369.99704 C 207.1846,367.21837 208.1466,364.40397 208.54979,361.45083 C 209.10698,358.74809 209.53278,356.02523 209.42178,353.25255 C 209.41963,350.34971 209.41794,347.4465 209.35077,344.54428 C 209.286,342.43823 209.20857,340.32799 208.88397,338.2425 L 209.67428,337.82559 z"
         id="path2516"
         style="fill:#52501b;fill-opacity:1;stroke:none;stroke-width:3;stroke-linecap:round;stroke-linejoin:round;stroke-miterlimit:4;stroke-dasharray:none;stroke-opacity:1" />
      <path
         d="M 241.28267,522.63564 C 241.29951,520.16159 241.29868,517.68745 241.30063,515.21336 C 241.3774,511.25363 241.29317,507.31183 240.98303,503.36394 C 240.65319,499.73932 240.35638,496.11202 240.1939,492.47575 C 240.07818,490.43557 240.07579,488.40484 240.26914,486.37146 C 240.8683,482.73997 242.15345,479.26338 243.40157,475.81501 C 244.91476,471.84746 246.25566,467.82136 247.58832,463.79128 C 248.29399,461.64873 248.78878,459.44852 249.3359,457.26362 C 249.806,455.31492 250.20434,453.35741 250.44765,451.36713 C 251.07337,447.99931 251.818,444.65387 252.48455,441.29303 C 253.14281,437.37999 253.7501,433.46601 254.12902,429.51591 L 254.82565,429.16878 C 254.73176,430.29369 254.67,431.42175 254.54395,432.54352 C 254.22849,435.35098 253.6005,438.12837 253.2343,440.92923 C 252.57631,444.28294 251.83915,447.62142 251.22567,450.98242 C 250.98787,452.97501 250.59976,454.93553 250.12615,456.88528 C 249.56902,459.07512 249.07653,461.2838 248.35738,463.43009 C 247.00335,467.46059 245.65187,471.49076 244.14508,475.46815 C 242.90234,478.90167 241.63892,482.36508 241.05037,485.98268 C 240.85743,488.01417 240.85756,490.04296 240.95888,492.08188 C 241.10527,495.72394 241.3789,499.35814 241.70618,502.98826 C 242.01935,506.9318 242.14469,510.86945 242.06101,514.82593 C 242.06297,517.29391 242.06209,519.76195 242.07898,522.22989 L 241.28267,522.63564 z"
         id="path2518"
         style="fill:#52501b;fill-opacity:1;stroke:none;stroke-width:3;stroke-linecap:round;stroke-linejoin:round;stroke-miterlimit:4;stroke-dasharray:none;stroke-opacity:1" />
      <path
         d="M 233.08315,471.92532 C 233.57737,470.10279 234.28729,468.34549 234.89297,466.55794 C 236.08722,462.93187 236.98298,459.21739 238.02734,455.54702 C 239.08566,452.27351 240.00981,448.96532 240.88142,445.63915 C 241.36922,443.5672 241.90575,441.50961 242.75984,439.55632 C 243.5637,437.83223 244.30958,436.0826 244.82096,434.24841 C 245.32796,432.0699 245.37254,429.82219 245.42203,427.59648 C 245.45107,425.60154 245.43767,423.60634 245.43241,421.61129 C 245.42677,420.08337 245.42166,418.55544 245.41899,417.02751 C 245.42054,415.31386 245.4229,413.6002 245.42411,411.88655 C 245.42598,409.793 245.42486,407.69946 245.42573,405.60591 C 245.36049,403.44749 245.00515,401.32191 244.67717,399.19318 C 244.46955,397.16592 244.14239,395.15445 243.90676,393.13047 C 243.81571,390.76351 243.2901,388.45813 242.78625,386.1535 C 242.1889,383.51177 241.51142,380.89239 240.7664,378.28842 C 240.07845,375.52287 238.5249,373.09655 237.54646,370.4319 C 236.59497,367.80172 236.01769,365.07185 235.74294,362.29464 C 235.40953,359.62885 235.1104,356.95936 234.8154,354.28912 L 235.50269,353.92884 C 235.82751,356.58786 236.14422,359.24797 236.48984,361.90439 C 236.78421,364.6698 237.35299,367.39234 238.29965,370.01427 C 239.27103,372.68465 240.82432,375.11273 241.52211,377.87647 C 242.26665,380.48233 242.94374,383.10377 243.54426,385.7465 C 244.04792,388.05164 244.59196,390.35665 244.68177,392.72433 C 244.91205,394.74824 245.24305,396.75847 245.44862,398.78524 C 245.77267,400.91901 246.13171,403.04791 246.20156,405.21061 C 246.2024,407.30363 246.20122,409.39665 246.20301,411.48968 C 246.20422,413.20131 246.20622,414.91295 246.20962,416.62458 C 246.20954,418.15415 246.20957,419.68372 246.21302,421.21328 C 246.21858,423.21025 246.22705,425.20741 246.19605,427.20422 C 246.14787,429.43476 246.10467,431.68717 245.61008,433.87276 C 245.10695,435.71235 244.3634,437.46671 243.55485,439.19195 C 242.6906,441.14081 242.15174,443.19818 241.65798,445.26842 C 240.76988,448.59876 239.8434,451.91501 238.7721,455.19322 C 237.72905,458.85529 236.84677,462.56363 235.67874,466.18926 C 235.08125,467.96907 234.3768,469.71804 233.88838,471.53165 L 233.08315,471.92532 z"
         id="path2520"
         style="fill:#52501b;fill-opacity:1;stroke:none;stroke-width:3;stroke-linecap:round;stroke-linejoin:round;stroke-miterlimit:4;stroke-dasharray:none;stroke-opacity:1" />
      <path
         d="M 244.43935,352.66257 C 244.6513,360.99971 246.04062,369.29492 247.16614,377.54719 L 246.64208,377.82363 C 245.42218,369.61469 244.00722,361.36771 243.64553,353.06705 L 244.43935,352.66257 z"
         id="path2522"
         style="fill:#52501b;fill-opacity:1;stroke:none;stroke-width:3;stroke-linecap:round;stroke-linejoin:round;stroke-miterlimit:4;stroke-dasharray:none;stroke-opacity:1" />
      <path
         d="M 162.37419,321.89022 C 162.19987,325.65793 163.21913,329.33661 164.04624,332.97814 C 166.19838,341.55387 167.78194,350.26248 168.96238,359.02156 C 170.22813,369.87902 170.39757,380.82033 170.52904,391.73787 C 170.6185,402.85932 170.59011,413.98132 170.57059,425.10299 C 170.84116,427.53319 171.11174,429.96338 171.38231,432.39357 L 170.83141,432.68231 C 170.54099,430.25951 170.25058,427.83673 169.96016,425.41394 C 169.96513,414.29316 170.00059,403.17214 169.91524,392.05157 C 169.77866,381.13971 169.61067,370.20319 168.334,359.35244 C 167.14805,350.60366 165.5396,341.90885 163.35276,333.35153 C 162.50157,329.72131 161.45373,326.05838 161.57787,322.29596 L 162.37419,321.89022 z"
         id="path2524"
         style="fill:#52501b;fill-opacity:1;stroke:none;stroke-width:3;stroke-linecap:round;stroke-linejoin:round;stroke-miterlimit:4;stroke-dasharray:none;stroke-opacity:1" />
      <path
         d="M 179.02364,329.0046 C 178.75719,335.15884 179.3173,341.28353 179.81864,347.40954 C 181.31336,360.40662 183.07375,373.37052 184.66356,386.35564 C 184.9113,388.7653 185.16192,391.17466 185.40678,393.5846 C 185.9166,398.6023 186.35331,402.81098 186.7606,407.83176 C 187.31065,414.61227 187.64003,421.40802 188.07156,428.19656 C 188.82694,438.8907 189.22309,449.60362 189.48331,460.31965 C 189.59699,465.24853 189.63218,470.17865 189.64937,475.10864 C 189.65514,476.95322 189.65388,478.79781 189.6471,480.64239 C 189.63852,482.94035 189.63799,485.23833 189.63776,487.5363 C 189.6179,489.59023 189.73629,491.64395 189.48062,493.68607 C 189.37686,494.8033 188.80307,495.92828 189.75538,496.77857 C 189.99188,497.24778 190.35556,496.66649 190.60178,496.8045 C 190.70677,496.86335 190.22191,497.07328 190.27974,496.96773 C 190.38634,496.77316 190.60979,496.67053 190.76307,496.51012 C 191.31853,495.92882 191.2778,495.91917 191.72928,495.22768 C 192.25485,494.4403 192.73507,493.33102 193.95481,493.44452 C 194.74268,493.51785 196.16964,497.21229 196.33111,497.59319 C 198.38284,504.75721 200.47265,511.90742 202.32627,519.12669 C 203.65969,524.17431 204.93587,529.23772 206.30928,534.27448 C 206.41737,534.66997 206.52865,535.0646 206.63354,535.46095 C 206.79842,536.08399 206.93976,536.64183 207.0642,537.27047 C 207.08664,537.38385 207.28799,538.61947 207.34184,538.72426 C 207.4614,538.95685 207.69054,539.11411 207.86488,539.30903 C 207.93123,539.594 208.06081,539.87136 208.06392,540.16392 C 208.06801,540.54839 207.87325,540.91932 207.8861,541.30359 C 207.89682,541.62416 208.05283,541.92304 208.13316,542.23357 C 208.37937,543.18533 208.57196,544.14511 208.82598,545.09483 C 208.9021,545.31762 208.97821,545.54041 209.05434,545.7632 L 208.27907,546.19038 C 208.20465,545.96453 208.13021,545.73868 208.05579,545.51284 C 207.80423,544.56251 207.61129,543.60246 207.36409,542.65098 C 207.2831,542.33924 207.25834,542.00572 207.11473,541.71741 C 206.9762,541.43928 206.67179,541.26633 206.53536,540.98716 C 206.40574,540.72196 206.40255,540.41193 206.33614,540.12431 C 206.4117,539.79674 206.54836,539.47747 206.5628,539.14162 C 206.57348,538.89327 206.45572,538.65607 206.40977,538.41178 C 206.17386,537.15757 205.93263,535.90537 205.5595,534.6816 C 204.22631,529.625 203.0012,524.53965 201.66967,519.48232 C 199.81628,512.27295 197.72198,505.13364 195.61393,497.99618 C 195.09817,496.81885 194.68139,495.62142 193.89956,494.58571 C 193.71896,494.34647 193.36282,494.24848 193.239,493.97549 C 193.17871,493.84256 193.56125,493.49838 193.44835,493.5909 C 193.2213,493.77697 192.67764,494.65443 192.53476,494.87365 C 191.82334,495.99819 190.53164,497.8412 188.99417,497.24981 C 187.99263,496.316 188.56709,495.28418 188.68863,494.07686 C 188.96058,492.03619 188.85084,489.98317 188.86763,487.9287 C 188.86769,485.63291 188.86693,483.33714 188.86376,481.04135 C 188.86315,479.19284 188.87722,477.3444 188.88916,475.49593 C 188.91203,470.5508 188.89861,465.60544 188.81727,460.66082 C 188.61672,449.93028 188.22761,439.20406 187.49419,428.49534 C 187.06935,421.70436 186.74505,414.90674 186.1998,408.1238 C 185.7774,402.86889 185.38665,399.13057 184.85335,393.87376 C 184.60888,391.46403 184.35881,389.05487 184.11155,386.64544 C 182.52279,373.67155 180.73132,360.7229 179.17421,347.74472 C 178.64871,341.64178 178.0728,335.54444 178.22731,329.41035 L 179.02364,329.0046 z"
         id="path2526"
         style="fill:#52501b;fill-opacity:1;stroke:none;stroke-width:3;stroke-linecap:round;stroke-linejoin:round;stroke-miterlimit:4;stroke-dasharray:none;stroke-opacity:1" />
      <path
         d="M 198.56482,458.25666 C 198.55564,463.5616 198.9693,468.86856 199.35056,474.15882 C 200.40761,484.95139 201.67101,495.72688 203.45962,506.42423 C 204.6447,511.46033 204.67667,516.9312 206.91655,521.67521 C 207.43604,522.61182 208.0691,522.86758 209.08255,522.70649 C 209.27421,522.67603 209.46805,522.53039 209.65287,522.58955 C 209.87767,522.6615 210.00642,522.90236 210.18319,523.05877 C 212.70971,527.84398 214.20645,533.17318 215.82589,538.32202 C 216.89151,542.01146 216.23559,540.31238 217.71092,543.45044 L 216.35407,544.19201 C 215.81864,540.60715 216.20579,542.44243 215.14198,538.6971 C 214.14312,535.50262 213.11897,532.31777 211.97135,529.17273 C 211.40255,527.61392 210.8792,526.20052 210.13405,524.7301 C 209.9242,524.31599 209.66518,523.92869 209.43074,523.52798 C 209.26819,523.39424 209.14613,523.18229 208.94309,523.12675 C 208.75447,523.07516 208.56066,523.21064 208.36688,523.23696 C 208.1777,523.26267 207.9867,523.29067 207.79594,523.28262 C 206.97682,523.24811 206.55601,522.78966 206.16363,522.101 C 203.97997,517.30847 203.98737,511.82464 202.83062,506.75778 C 201.09013,496.05508 199.80431,485.28607 198.69029,474.50148 C 198.28197,469.2308 197.85011,463.9471 197.771,458.66113 L 198.56482,458.25666 z"
         id="path2528"
         style="fill:#52501b;fill-opacity:1;stroke:none;stroke-width:3;stroke-linecap:round;stroke-linejoin:round;stroke-miterlimit:4;stroke-dasharray:none;stroke-opacity:1" />
      <path
         d="M 169.32499,462.9391 C 168.29454,468.24371 168.44547,473.75488 168.33673,479.14043 C 168.16642,491.28309 168.16997,503.42737 168.16383,515.57097 C 168.30493,525.15283 167.90728,534.75194 168.46687,544.32359 C 168.7332,546.11901 168.73182,549.81491 170.81723,550.76366 C 171.01171,550.85214 171.23833,550.83631 171.44889,550.87264 C 171.42909,550.84915 171.37258,550.82784 171.38949,550.8022 C 172.94872,548.43821 171.16947,551.55967 172.69977,548.90839 C 173.3292,547.8179 173.8076,546.66459 174.32982,545.52153 C 174.7272,544.70719 175.02454,543.90756 176.0714,543.72987 C 176.33187,543.68567 176.45833,545.16173 176.47402,545.30655 C 176.54793,546.30171 176.52925,547.29641 176.63021,548.28908 L 175.84622,548.69874 C 175.74255,547.7064 175.76339,546.71233 175.68926,545.71725 C 175.65193,545.38012 175.61572,544.84068 175.49912,544.50091 C 175.47073,544.41819 175.3093,544.35513 175.35587,544.2811 C 175.47057,544.09872 175.67395,543.82862 175.87746,543.89936 C 176.3413,544.0606 174.00339,545.04823 175.11805,545.16173 C 174.53047,546.43663 173.2284,549.63135 172.20786,550.4812 C 171.76279,550.85183 171.21654,551.08046 170.72087,551.38009 C 170.50436,551.33169 170.27027,551.3331 170.07133,551.23489 C 167.96974,550.1973 168.02019,546.55383 167.76564,544.68568 C 167.28511,535.08895 167.70891,525.47204 167.58067,515.86808 C 167.58544,503.73503 167.57116,491.60158 167.68915,479.46898 C 167.76581,474.10015 167.59459,468.62364 168.51432,463.31983 L 169.32499,462.9391 z"
         id="path2530"
         style="fill:#52501b;fill-opacity:1;stroke:none;stroke-width:3;stroke-linecap:round;stroke-linejoin:round;stroke-miterlimit:4;stroke-dasharray:none;stroke-opacity:1" />
      <path
         d="M 187.67381,547.52125 C 187.82661,546.64139 187.27905,545.87705 187.30413,545.03271 C 187.33014,544.15743 187.63075,543.32709 187.69646,542.45537 C 187.76385,541.56164 187.69955,540.65927 187.70155,539.76121 C 187.70689,537.34605 187.71313,534.93088 187.71849,532.51572 C 187.53415,521.19279 185.9701,510.01004 184.2066,498.95359 C 182.7061,490.88051 181.26909,482.7391 179.14616,474.89546 C 178.76208,473.59073 178.31805,472.32541 177.55942,471.31817 C 177.11443,470.72734 176.60387,470.24016 176.16366,469.63848 C 175.31207,468.17888 175.34151,466.26016 175.28872,464.50826 C 175.28281,464.08146 175.25475,463.6542 175.271,463.22785 C 175.37397,460.52661 175.70184,457.8248 175.96601,455.14733 C 176.9476,445.19881 175.68042,457.56884 176.84844,446.28987 C 177.57548,438.40327 177.16819,442.71809 178.08207,433.34734 L 178.69284,432.95299 C 177.85342,442.28264 178.23891,437.98441 177.53532,445.84751 C 176.93632,451.86583 176.19826,457.91511 176.06925,463.98353 C 176.1243,465.70399 176.09264,467.59605 176.92454,469.03261 C 177.36336,469.63443 177.8757,470.12711 178.31452,470.72462 C 179.07039,471.75385 179.50679,473.04144 179.88493,474.36244 C 181.9398,482.25339 183.34121,490.41717 184.84537,498.50665 C 186.60307,509.55942 188.19181,520.73035 188.42546,532.04516 C 188.43081,534.45282 188.43705,536.86045 188.4424,539.26811 C 188.44438,540.16392 188.37285,541.06502 188.44748,541.95552 C 188.50629,542.65732 188.81798,543.30515 188.83981,544.01057 C 188.87092,545.01625 188.35495,545.96306 188.47013,546.99121 L 187.67381,547.52125 z"
         id="path2532"
         style="fill:#52501b;fill-opacity:1;stroke:none;stroke-width:3;stroke-linecap:round;stroke-linejoin:round;stroke-miterlimit:4;stroke-dasharray:none;stroke-opacity:1" />
      <path
         d="M 142.3004,465.35883 C 142.27901,468.68792 142.2753,472.0171 142.26244,475.34622 C 142.24947,482.23637 142.23919,489.12651 142.245,496.01668 C 142.23915,501.8935 142.2591,507.77031 142.26967,513.64713 C 142.10935,517.50042 142.4029,521.31557 142.80841,525.14168 C 143.08112,528.08697 143.5821,531.00302 143.8557,533.94827 C 144.03589,536.19292 144.05421,538.44612 144.06803,540.69665 C 144.07039,543.07654 144.06511,545.45643 144.06258,547.83633 C 144.06111,549.57976 144.06361,548.63759 144.0533,550.66284 L 143.29687,551.04822 C 143.28865,549.03045 143.28976,549.97015 143.29145,548.22913 C 143.29417,545.85029 143.30037,543.47144 143.29201,541.09261 C 143.28023,538.84346 143.26519,536.59181 143.08807,534.34826 C 142.82214,531.39941 142.33656,528.47829 142.06552,525.53012 C 141.66123,521.69874 141.35448,517.88031 141.53479,514.02157 C 141.54536,508.13637 141.5653,502.25118 141.55947,496.36597 C 141.56526,489.48173 141.55502,482.59752 141.54203,475.71329 C 141.52917,472.39705 141.52549,469.08077 141.50407,465.76458 L 142.3004,465.35883 z"
         id="path2534"
         style="fill:#52501b;fill-opacity:1;stroke:none;stroke-width:3;stroke-linecap:round;stroke-linejoin:round;stroke-miterlimit:4;stroke-dasharray:none;stroke-opacity:1" />
      <path
         d="M 147.6128,463.06847 C 147.57973,467.49689 147.5703,471.9255 147.56754,476.35402 C 147.55197,483.45209 147.56204,490.55015 147.55996,497.64821 C 147.54955,504.5465 147.56788,511.44477 147.56632,518.34304 C 147.56997,523.26423 147.5786,528.18542 147.58957,533.10659 C 147.5957,535.77872 147.59931,538.45084 147.6043,541.12295 C 147.60722,542.01477 147.60792,542.90657 147.60681,543.79839 L 146.82496,544.19676 C 146.82385,543.30409 146.82456,542.41144 146.82747,541.51877 C 146.83246,538.84165 146.83607,536.16452 146.84221,533.48739 C 146.85316,528.55832 146.8618,523.62925 146.86545,518.70015 C 146.86389,511.79972 146.88222,504.89928 146.87181,497.99885 C 146.86973,490.90336 146.87981,483.80786 146.86423,476.71237 C 146.86148,472.29921 146.85214,467.88599 146.81898,463.47294 L 147.6128,463.06847 z"
         id="path2536"
         style="fill:#52501b;fill-opacity:1;stroke:none;stroke-width:3;stroke-linecap:round;stroke-linejoin:round;stroke-miterlimit:4;stroke-dasharray:none;stroke-opacity:1" />
      <path
         d="M 148.79486,553.91971 C 148.78386,555.56934 148.78815,557.21903 148.79002,558.86868 C 148.81476,559.58385 148.78997,560.28871 148.72205,561.00004 L 147.93009,561.3939 C 148.00087,560.68498 148.02642,559.98262 148.00338,559.2695 C 148.00525,557.62149 148.00956,555.97345 147.99853,554.32546 L 148.79486,553.91971 z"
         id="path2538"
         style="fill:#52501b;fill-opacity:1;stroke:none;stroke-width:3;stroke-linecap:round;stroke-linejoin:round;stroke-miterlimit:4;stroke-dasharray:none;stroke-opacity:1" />
      <path
         d="M 141.64052,549.27271 C 141.17954,552.99105 141.19341,556.74006 141.13202,560.47439 C 141.04217,567.69405 141.04378,574.91421 141.05359,582.13417 C 141.65587,588.6028 141.27784,581.46659 140.73339,587.8561 C 140.66485,588.66046 140.82796,589.467 140.87524,590.27244 L 140.84375,590.28614 C 140.79645,589.48065 140.82523,588.6694 140.70183,587.86967 C 139.97256,583.14336 139.88687,588.14916 140.38141,582.42311 C 140.39746,575.20522 140.39761,567.98727 140.44368,560.76947 C 140.48321,557.04827 140.44444,553.31499 140.84189,549.60555 L 141.64052,549.27271 z"
         id="path2540"
         style="fill:#52501b;fill-opacity:1;stroke:none;stroke-width:3;stroke-linecap:round;stroke-linejoin:round;stroke-miterlimit:4;stroke-dasharray:none;stroke-opacity:1" />
      <path
         d="M 138.19338,301.56556 C 138.18637,303.8277 138.18085,306.08814 138.09382,308.34877 C 137.87802,312.47643 137.73948,316.60723 137.65035,320.73939 C 137.64771,320.89375 137.61124,322.90876 137.61326,323.19134 C 137.61887,323.97772 137.63804,324.68006 138.15469,325.2984 C 139.00391,325.76753 139.20812,326.0819 139.43771,327.02806 C 139.70758,330.13302 139.62636,333.26293 139.62916,336.37751 C 139.62584,341.07018 139.62542,345.76284 139.62318,350.45551 C 139.65078,352.84576 139.61217,355.23271 139.54269,357.62173 L 139.23451,357.77773 C 139.29069,355.39176 139.32135,353.00714 139.29959,350.62036 C 139.30395,345.92769 139.31655,341.23501 139.30585,336.54234 C 139.29392,333.44104 139.35966,330.32236 139.05791,327.23319 C 138.82364,326.28162 138.61617,326.00922 137.77894,325.52363 C 137.26327,324.88499 137.24737,324.17875 137.24901,323.37616 C 137.24944,323.16531 137.30325,320.9796 137.30482,320.91438 C 137.41948,316.78094 137.56261,312.64832 137.75893,308.51789 C 137.83505,306.26737 137.82351,304.01792 137.79921,301.7664 L 138.19338,301.56556 z"
         id="path2542"
         style="fill:#52501b;fill-opacity:1;stroke:none;stroke-width:3;stroke-linecap:round;stroke-linejoin:round;stroke-miterlimit:4;stroke-dasharray:none;stroke-opacity:1" />
      <path
         d="M 143.19522,340.97892 C 143.42173,343.87487 143.36485,346.7915 143.37877,349.69494 C 143.39911,356.08483 143.39761,362.47476 143.40339,368.86467 C 143.33618,372.90066 143.51537,376.94113 143.40525,380.97625 C 143.34649,381.50538 143.35216,382.11487 143.02958,382.5745 C 142.86193,382.81336 142.54318,382.99729 142.3229,383.18213 C 142.19452,383.3455 142.04957,383.49712 141.93775,383.67225 C 141.47434,384.39806 141.29709,384.88221 141.01178,385.72738 C 140.40517,387.52436 140.07908,389.37349 139.72275,391.23168 C 139.1226,394.60485 138.89139,398.02312 138.69267,401.43797 L 138.38859,401.59076 C 138.57514,398.1781 138.80792,394.76397 139.39389,391.39156 C 139.74084,389.53721 140.05832,387.6929 140.64829,385.89656 C 140.92835,385.04384 141.09281,384.57677 141.54503,383.84094 C 141.65294,383.66537 141.79255,383.51138 141.91631,383.34659 C 142.13309,383.16163 142.45685,382.9818 142.63076,382.75367 C 142.97222,382.30579 142.9713,381.6875 143.03919,381.16123 C 143.19894,377.11525 143.04249,373.06 143.11357,369.01235 C 143.11645,362.62599 143.11662,356.23951 143.06856,349.8533 C 143.03795,346.96625 143.07601,344.06312 142.8033,341.18684 L 143.19522,340.97892 z"
         id="path2544"
         style="fill:#52501b;fill-opacity:1;stroke:none;stroke-width:3;stroke-linecap:round;stroke-linejoin:round;stroke-miterlimit:4;stroke-dasharray:none;stroke-opacity:1" />
      <path
         d="M 144.91419,393.65517 C 144.85638,397.70283 144.63448,401.7465 144.51278,405.79322 C 144.33508,412.58856 144.30364,419.38654 144.28616,426.18381 C 144.27663,430.15633 144.28913,434.12886 144.31273,438.1013 C 144.2899,438.84471 144.32926,439.95283 143.52338,440.34615 C 143.31076,440.44992 143.08646,440.5278 142.868,440.61862 C 142.23543,440.54187 141.92581,439.9241 141.38385,439.67661 C 141.47249,439.63416 141.56762,439.49531 141.64976,439.54927 C 141.72129,439.59624 141.57373,439.70359 141.55014,439.78584 C 141.44577,440.14987 141.40163,440.53395 141.30136,440.90115 L 140.90775,441.08857 C 140.95079,440.93337 141.17689,439.75996 141.23333,439.70953 C 141.38021,439.57826 141.58105,439.5243 141.75491,439.43169 C 142.27712,439.6966 142.5942,440.28981 143.21913,440.35194 C 143.18387,440.40324 143.05113,440.5079 143.11336,440.50587 C 143.21443,440.50255 143.29518,440.41295 143.37179,440.34694 C 143.94956,439.84896 143.91667,438.97097 143.94749,438.28743 C 143.96628,434.30217 143.98291,430.31689 143.99584,426.3316 C 144.02782,419.53477 144.06448,412.73749 144.21854,405.94209 C 144.32632,401.9136 144.54178,397.88515 144.52126,393.85537 L 144.91419,393.65517 z"
         id="path2546"
         style="fill:#52501b;fill-opacity:1;stroke:none;stroke-width:3;stroke-linecap:round;stroke-linejoin:round;stroke-miterlimit:4;stroke-dasharray:none;stroke-opacity:1" />
      <path
         d="M 224.40609,396.98399 C 224.98484,394.61129 225.0156,392.14244 225.10419,389.71383 C 225.11091,389.44126 225.18825,386.52282 225.17478,386.22021 C 225.14643,385.58335 225.04949,384.95141 224.98684,384.317 L 225.32015,384.14293 C 225.38576,384.77746 225.48742,385.4093 225.517,386.04653 C 225.52612,386.24296 225.45197,389.37559 225.44825,389.54008 C 225.36233,391.96302 225.34597,394.4228 224.79994,396.79635 L 224.40609,396.98399 z"
         id="path2548"
         style="fill:#52501b;fill-opacity:1;stroke:none;stroke-width:3;stroke-linecap:round;stroke-linejoin:round;stroke-miterlimit:4;stroke-dasharray:none;stroke-opacity:1" />
      <path
         d="M 221.96895,398.97356 C 222.42158,399.11018 222.26147,399.17897 222.39906,398.6764 L 222.78666,398.51091 C 221.84625,399.39606 222.30571,399.42869 221.6021,399.22247 L 221.96895,398.97356 z"
         id="path2550"
         style="fill:#52501b;fill-opacity:1;stroke:none;stroke-width:3;stroke-linecap:round;stroke-linejoin:round;stroke-miterlimit:4;stroke-dasharray:none;stroke-opacity:1" />
      <path
         d="M 223.84347,382.93317 C 223.72955,382.88321 223.43343,382.7061 223.28515,382.82526 C 223.2408,382.86091 223.40073,382.90569 223.38836,382.96123 C 223.32948,383.22576 223.16275,383.45611 223.08682,383.71625 C 222.79853,384.7039 222.72334,385.56433 222.57814,386.595 C 222.12672,389.97666 222.10956,393.39232 222.65679,396.75946 C 222.72468,397.0382 223.12016,398.99086 223.68889,398.89374 C 223.75739,398.88204 223.5154,398.84745 223.5155,398.77795 C 223.51587,398.51061 223.63192,398.25609 223.69014,397.99516 C 223.98152,395.1597 224.09987,392.29165 223.91267,389.44535 C 223.86896,389.15029 223.84056,388.85258 223.78157,388.5602 C 223.66685,387.9915 223.72865,387.92944 223.28918,387.6891 C 223.26526,387.67602 223.33322,387.73695 223.32461,387.76282 C 223.22959,388.04838 223.06752,388.3101 222.98612,388.59984 C 222.85907,389.05213 222.79652,389.52011 222.70171,389.98025 C 222.402,391.95925 222.28681,393.96001 222.19717,395.9575 C 222.16607,396.65066 222.1071,397.34404 222.12231,398.03774 C 222.13635,398.67817 222.23062,399.31431 222.28477,399.9526 L 221.95159,400.12589 C 221.89862,399.48531 221.80557,398.84681 221.79267,398.20417 C 221.77872,397.50958 221.84047,396.81552 221.87118,396.12147 C 221.95939,394.12774 222.06254,392.13077 222.34525,390.15316 C 222.39488,389.89349 222.62223,388.29954 222.92111,387.92393 C 223.70582,386.93774 224.01086,387.63839 224.14986,388.36591 C 224.20624,388.66102 224.23214,388.96115 224.27329,389.25877 C 224.43968,392.10716 224.31549,394.9719 224.06833,397.81214 C 224.01733,398.07554 224.04705,398.3686 223.91532,398.60233 C 222.99419,400.23664 222.37615,397.49474 222.30117,396.94777 C 221.77837,393.5715 221.80437,390.15473 222.2322,386.76539 C 222.32826,386.03871 222.52978,383.79994 222.99847,383.12869 C 223.1605,382.89663 223.39352,382.7134 223.63686,382.56884 C 223.80951,382.46628 224.08314,382.63604 224.21878,382.69742 L 223.84347,382.93317 z"
         id="path2552"
         style="fill:#52501b;fill-opacity:1;stroke:none;stroke-width:3;stroke-linecap:round;stroke-linejoin:round;stroke-miterlimit:4;stroke-dasharray:none;stroke-opacity:1" />
      <path
         d="M 227.44867,367.65604 C 226.67711,365.1465 225.99271,362.61041 225.27328,360.08542 C 224.19236,356.04577 222.92983,352.05915 221.74131,348.05064 C 221.15882,346.13896 220.71404,344.19548 220.29128,342.24407 L 220.61205,342.0718 C 221.0452,344.01898 221.49815,345.95936 222.06717,347.8726 C 223.25558,351.88083 224.50455,355.87102 225.60444,359.90488 C 226.32892,362.42255 227.01411,364.95461 227.83699,367.44218 L 227.44867,367.65604 z"
         id="path2554"
         style="fill:#52501b;fill-opacity:1;stroke:none;stroke-width:3;stroke-linecap:round;stroke-linejoin:round;stroke-miterlimit:4;stroke-dasharray:none;stroke-opacity:1" />
      <path
         d="M 225.57007,343.46113 C 225.73207,347.26645 226.65819,350.96893 227.56169,354.64913 L 227.30259,354.78931 C 226.97255,353.51267 226.6127,352.24336 226.31247,350.95939 C 225.75172,348.5613 225.39097,346.11228 225.17964,343.66006 L 225.57007,343.46113 z"
         id="path2556"
         style="fill:#52501b;fill-opacity:1;stroke:none;stroke-width:3;stroke-linecap:round;stroke-linejoin:round;stroke-miterlimit:4;stroke-dasharray:none;stroke-opacity:1" />
      <path
         d="M 200.21439,342.14489 C 200.94465,344.44996 201.29311,346.83563 201.54356,349.23257 C 201.89918,352.58098 201.80838,355.50614 200.59869,358.69627 C 200.35231,359.34601 200.03208,359.96531 199.74879,360.59983 C 198.60983,363.19494 196.92926,365.47831 195.3574,367.81597 C 193.99479,369.84243 194.29272,369.40322 193.05278,371.43094 C 191.65501,374.06445 192.28773,372.57803 191.30577,375.95155 L 190.99894,376.09728 C 191.94291,372.72745 191.31925,374.2124 192.71478,371.58039 C 193.93833,369.58394 193.68251,369.95588 195.02093,367.96276 C 196.59031,365.62568 198.27473,363.34717 199.41299,360.75352 C 199.69622,360.12062 200.01627,359.50295 200.26266,358.85482 C 200.96626,357.00402 201.38088,355.01151 201.4133,353.02961 C 201.42474,352.33042 201.25205,350.14876 201.19873,349.41287 C 200.94291,347.0253 200.60567,344.64122 199.82608,342.35876 L 200.21439,342.14489 z"
         id="path2558"
         style="fill:#52501b;fill-opacity:1;stroke:none;stroke-width:3;stroke-linecap:round;stroke-linejoin:round;stroke-miterlimit:4;stroke-dasharray:none;stroke-opacity:1" />
      <path
         d="M 190.50299,341.63716 C 190.50072,341.86022 190.48944,342.08336 190.49616,342.30633 C 190.54142,343.80862 190.67435,345.31032 190.73914,346.81203 C 190.82688,348.84587 190.83133,349.36261 190.8873,351.46698 C 190.92597,356.35642 191.13572,361.25263 190.96089,366.14174 C 190.92466,367.15494 190.85466,368.16665 190.80156,369.17911 C 190.39085,374.32782 189.13032,379.3431 187.99924,384.36564 C 187.57167,386.48132 187.09271,388.62022 187.04207,390.78893 C 187.03215,391.2139 187.05645,391.63898 187.06364,392.064 C 187.26397,395.03544 187.98221,397.9293 188.59911,400.83126 C 188.80577,401.80337 188.99177,402.77974 189.1881,403.75399 L 188.89388,403.91155 C 188.07152,400.04342 187.05218,396.1975 186.70638,392.2469 C 186.69734,391.82153 186.67097,391.39618 186.67927,390.97079 C 186.72177,388.79335 187.22284,386.6487 187.66214,384.52798 C 188.82277,379.50477 190.08785,374.48337 190.5057,369.3279 C 190.55907,368.31573 190.62943,367.30431 190.6658,366.29139 C 190.84124,361.40604 190.62883,356.51365 190.57288,351.62832 C 190.51018,349.60824 190.49928,348.94474 190.4033,346.98539 C 190.32998,345.48875 190.18853,343.99578 190.11691,342.49956 C 190.10636,342.27907 190.11236,342.0581 190.11008,341.83736 L 190.50299,341.63716 z"
         id="path2560"
         style="fill:#52501b;fill-opacity:1;stroke:none;stroke-width:3;stroke-linecap:round;stroke-linejoin:round;stroke-miterlimit:4;stroke-dasharray:none;stroke-opacity:1" />
      <path
         d="M 179.00759,429.97671 C 179.01637,429.33644 179.02516,428.69617 179.03395,428.0559 L 179.36919,427.88508 C 179.37798,428.5164 179.38677,429.14771 179.39555,429.77904 L 179.00759,429.97671 z"
         id="path2562"
         style="fill:#52501b;fill-opacity:1;stroke:none;stroke-width:3;stroke-linecap:round;stroke-linejoin:round;stroke-miterlimit:4;stroke-dasharray:none;stroke-opacity:1" />
      <path
         d="M 160.98406,361.68557 C 160.68828,365.03575 160.52519,368.39572 160.30551,371.75172 C 159.94522,377.46526 159.86612,383.19099 159.80452,388.91395 C 159.64046,395.41209 159.92531,401.90289 160.27497,408.38937 C 160.35489,409.53552 160.42365,410.68251 160.5147,411.82784 C 160.59398,412.82507 161.04594,417.69052 161.13217,418.70659 C 161.41494,422.03851 161.68357,425.36588 162.02536,428.69258 C 162.39087,432.35939 162.79747,436.02369 163.33421,439.66976 C 163.43208,440.33465 163.50838,441.0035 163.63863,441.6628 C 163.75616,442.2577 163.93072,442.83989 164.07676,443.42844 L 163.36716,443.80188 C 163.34806,443.14675 163.36746,442.48938 163.30987,441.8365 C 163.25068,441.16545 163.1121,440.50377 163.01739,439.8368 C 162.90658,439.05633 162.79253,438.27625 162.69329,437.49423 C 162.32804,434.61592 162.02862,431.72844 161.73992,428.84171 C 161.40075,425.51392 161.13364,422.18533 160.8521,418.85248 C 160.83279,418.62397 160.25082,412.17062 160.23501,411.97282 C 160.14344,410.8276 160.07407,409.68071 159.9936,408.53466 C 159.64041,402.04984 159.34767,395.56059 159.50974,389.06377 C 159.56593,383.34451 159.64581,377.62276 159.98595,371.91198 C 160.1938,368.56875 160.34994,365.223 160.59733,361.88262 L 160.98406,361.68557 z"
         id="path2564"
         style="fill:#52501b;fill-opacity:1;stroke:none;stroke-width:3;stroke-linecap:round;stroke-linejoin:round;stroke-miterlimit:4;stroke-dasharray:none;stroke-opacity:1" />
      <path
         d="M 147.66825,335.80232 C 147.43487,334.96673 147.39342,334.09726 147.32351,333.23739 L 147.69402,333.04474 C 147.76575,333.89814 147.81308,334.76196 148.05657,335.58846 L 147.66825,335.80232 z"
         id="path2566"
         style="fill:#52501b;fill-opacity:1;stroke:none;stroke-width:3;stroke-linecap:round;stroke-linejoin:round;stroke-miterlimit:4;stroke-dasharray:none;stroke-opacity:1" />
      <path
         d="M 145.20518,308.68504 C 145.18166,311.66501 145.17632,314.64508 145.17162,317.62513 C 145.16917,321.98819 145.12736,326.35079 145.26439,330.71217 C 145.363,332.34865 145.45005,334.03543 146.09156,335.56541 C 146.43737,336.17892 146.56607,336.82953 146.62477,337.52172 C 146.64433,339.24445 146.68465,340.95758 146.82372,342.67583 C 146.92006,344.15631 147.07367,345.62778 147.28416,347.09591 L 146.92611,347.28496 C 146.70597,345.81682 146.56013,344.34459 146.46416,342.86275 C 146.32225,341.14972 146.26776,339.44086 146.23797,337.72299 C 146.17835,337.03624 146.05019,336.38917 145.71172,335.77817 C 145.0776,334.23441 145.01269,332.53373 144.92195,330.88789 C 144.80969,326.52254 144.8608,322.1563 144.8483,317.78987 C 144.84361,314.82122 144.83832,311.85255 144.81473,308.88398 L 145.20518,308.68504 z"
         id="path2568"
         style="fill:#52501b;fill-opacity:1;stroke:none;stroke-width:3;stroke-linecap:round;stroke-linejoin:round;stroke-miterlimit:4;stroke-dasharray:none;stroke-opacity:1" />
      <path
         d="M 163.07436,312.50772 C 164.25644,312.88462 163.53514,312.64446 165.22733,313.26024 L 164.90447,313.47844 C 163.18124,312.88597 163.91506,313.11695 162.713,312.75451 L 163.07436,312.50772 z"
         id="path2570"
         style="fill:#52501b;fill-opacity:1;stroke:none;stroke-width:3;stroke-linecap:round;stroke-linejoin:round;stroke-miterlimit:4;stroke-dasharray:none;stroke-opacity:1" />
      <path
         d="M 239.00539,330.0026 C 238.19395,329.31224 237.42881,328.5584 236.58478,327.90672 C 235.93298,327.40345 235.44792,327.11247 234.75583,326.66717 C 233.11041,325.6863 231.28596,325.13744 229.40932,324.82622 C 227.5378,324.50649 225.68457,324.09546 223.87087,323.53329 C 222.4879,323.08387 221.15056,322.51423 219.78125,322.02795 C 218.39517,321.53987 216.94632,321.31507 215.48834,321.19206 C 214.37749,321.11578 213.26354,321.11708 212.15071,321.11815 C 210.96633,321.19115 209.80824,321.05164 208.64875,320.82129 C 207.08219,320.47906 205.53351,320.0559 203.97894,319.6605 C 202.03463,319.22767 200.10062,318.75492 198.16421,318.28893 C 195.71482,317.69975 193.27618,317.06822 190.82882,316.47028 C 189.34312,316.12775 187.85774,315.79794 186.35943,315.51531 C 185.78113,315.40623 185.19751,315.32318 184.62365,315.19272 C 183.87561,315.02268 183.13865,314.80715 182.39615,314.61437 L 182.69288,314.40991 C 183.44079,314.59793 184.18369,314.80707 184.93658,314.97398 C 186.99997,315.43143 189.10976,315.68732 191.15282,316.24647 C 193.60551,316.83911 196.04838,317.47039 198.50299,318.05484 C 200.43963,318.52294 202.3757,318.99001 204.32018,319.42524 C 205.87784,319.81552 207.428,320.2398 208.99732,320.57827 C 210.15722,320.80544 211.31651,320.93407 212.50026,320.86415 C 213.61223,320.86386 214.72529,320.86517 215.83506,320.94466 C 217.29448,321.07202 218.74342,321.30393 220.13126,321.79133 C 221.50119,322.27058 222.83295,322.84979 224.21405,323.29942 C 226.0264,323.86372 227.88107,324.26903 229.75229,324.58564 C 231.6301,324.9042 233.45432,325.45989 235.099,326.44666 C 235.76841,326.87776 236.30298,327.20233 236.93516,327.68782 C 237.78311,328.33902 238.55048,329.09416 239.37951,329.76865 L 239.00539,330.0026 z"
         id="path2572"
         style="fill:#52501b;fill-opacity:1;stroke:none;stroke-width:3;stroke-linecap:round;stroke-linejoin:round;stroke-miterlimit:4;stroke-dasharray:none;stroke-opacity:1" />
      <path
         d="M 221.73662,327.56029 C 220.53466,327.62353 219.35916,327.41717 218.18216,327.20826 C 215.73728,326.68347 213.32672,326.01282 210.92997,325.30286 C 207.88938,324.37721 204.9254,323.18632 202.03548,321.86598 C 199.96107,320.81964 197.86619,319.82579 195.68869,319.0125 C 194.27138,318.52544 192.80261,318.22353 191.31808,318.03869 C 190.19078,317.84386 189.05448,317.72609 187.91279,317.66453 C 186.59241,317.59301 185.28992,317.33254 183.97484,317.19018 C 182.7222,317.0656 181.46281,317.04735 180.20511,317.03552 C 179.0599,317.02889 177.91465,317.03214 176.76942,317.03354 C 175.47607,317.10479 174.21356,316.93832 172.95633,316.652 C 171.21201,316.34699 169.62557,315.56823 168.06672,314.7636 C 167.71358,314.57664 167.36045,314.38968 167.0073,314.20271 L 167.34547,313.9811 C 167.70232,314.16556 168.05918,314.35 168.41603,314.53445 C 169.97233,315.34088 171.55881,316.10936 173.30188,316.41246 C 174.55985,316.69307 175.82456,316.84894 177.11672,316.78114 C 178.2617,316.77962 179.4067,316.77604 180.55166,316.78428 C 181.80958,316.79853 183.06931,316.81515 184.32192,316.94374 C 185.63707,317.08859 186.94019,317.34883 188.26197,317.41371 C 189.40354,317.47584 190.53925,317.59821 191.66647,317.79221 C 193.14957,317.98314 194.61751,318.28591 196.03143,318.78184 C 198.20334,319.60242 200.29427,320.59595 202.36241,321.64921 C 205.25204,322.96689 208.20978,324.16975 211.25388,325.08143 C 213.65685,325.78668 216.07319,326.45723 218.52609,326.9674 C 219.7076,327.17287 220.88928,327.3717 222.09451,327.30027 L 221.73662,327.56029 z"
         id="path2574"
         style="fill:#52501b;fill-opacity:1;stroke:none;stroke-width:3;stroke-linecap:round;stroke-linejoin:round;stroke-miterlimit:4;stroke-dasharray:none;stroke-opacity:1" />
      <path
         d="M 154.49101,306.80631 C 155.61026,306.61248 156.73199,306.4632 157.86519,306.37686 C 159.79722,306.26635 161.73346,306.2373 163.66565,306.34084 C 164.16764,306.39687 164.66972,306.45208 165.17162,306.50894 C 166.22294,306.62803 167.67627,306.78296 168.71077,306.96313 C 170.8251,307.33137 172.91184,307.8883 174.99413,308.39995 C 179.65187,309.54471 184.21103,311.0519 188.75359,312.58202 C 193.11304,314.03984 197.50656,315.39189 201.92383,316.6628 C 204.86947,317.423 207.8437,318.07836 210.8646,318.45728 C 211.5276,318.54044 215.08793,318.8924 215.70859,318.95451 C 219.302,319.27441 222.91085,319.52229 226.47832,320.08039 C 228.50997,320.39822 229.7882,320.70231 231.79246,321.13318 C 235.4682,322.17775 233.56573,321.55432 237.48442,323.05002 L 237.21789,323.22932 C 233.28041,321.75383 235.18837,322.3719 231.50872,321.33028 C 229.49809,320.89741 228.2375,320.5964 226.19905,320.27776 C 222.62891,319.71968 219.0172,319.47603 215.42094,319.15917 C 214.73833,319.09161 211.29197,318.75546 210.56988,318.66493 C 207.54736,318.28596 204.5716,317.62812 201.62445,316.86775 C 197.2079,315.59744 192.81698,314.24027 188.45861,312.78203 C 183.91586,311.25213 179.3565,309.74437 174.69726,308.60494 C 172.61084,308.09614 170.51981,307.54504 168.40128,307.18148 C 167.34672,307.00051 165.92248,306.85251 164.85222,306.73574 C 164.34836,306.68077 163.84423,306.6284 163.34023,306.57473 C 161.40252,306.48074 159.4614,306.51401 157.52456,306.6284 C 156.38664,306.71853 155.26046,306.87215 154.13693,307.07132 L 154.49101,306.80631 z"
         id="path2576"
         style="fill:#52501b;fill-opacity:1;stroke:none;stroke-width:3;stroke-linecap:round;stroke-linejoin:round;stroke-miterlimit:4;stroke-dasharray:none;stroke-opacity:1" />
      <path
         d="M 242.1671,331.1744 C 244.11035,331.67284 246.07785,332.0353 248.06233,332.32288 C 250.09936,332.56911 252.14551,332.71851 254.1856,332.93894 L 253.87365,333.16061 C 251.8297,332.94928 249.78012,332.79875 247.74049,332.54972 C 245.74365,332.26194 243.76259,331.90491 241.80244,331.42413 L 242.1671,331.1744 z"
         id="path2578"
         style="fill:#52501b;fill-opacity:1;stroke:none;stroke-width:3;stroke-linecap:round;stroke-linejoin:round;stroke-miterlimit:4;stroke-dasharray:none;stroke-opacity:1" />
      <path
         d="M 261.58247,332.97247 C 261.8157,334.84265 261.82617,336.73095 261.91085,338.61096 C 261.98141,340.17772 262.07832,341.74319 262.16217,343.3093 C 262.20322,344.19204 262.24901,345.07459 262.28532,345.95754 C 262.39734,348.68075 262.36952,349.04343 262.53763,351.8124 C 262.73604,355.08022 263.00527,358.34424 263.21293,361.61168 C 263.51718,368.73089 264.14991,375.82924 264.71529,382.93074 C 265.3424,389.53287 265.74437,396.15315 266.3322,402.75854 C 266.46002,403.90679 266.58783,405.05504 266.71564,406.20331 L 266.43717,406.34919 C 266.30438,405.20322 266.1716,404.05725 266.03881,402.91129 C 265.46182,396.30207 265.06374,389.6787 264.44102,383.07324 C 263.87682,375.97274 263.24248,368.87563 262.93035,361.75795 C 262.71995,358.49227 262.44737,355.23047 262.2425,351.96467 C 262.06793,349.1819 262.09614,348.85226 261.97713,346.11643 C 261.93877,345.23461 261.89095,344.35323 261.84786,343.47164 C 261.75854,341.90873 261.65455,340.34662 261.57602,338.78314 C 261.48213,336.91372 261.46748,335.03354 261.19711,333.17763 L 261.58247,332.97247 z"
         id="path2580"
         style="fill:#52501b;fill-opacity:1;stroke:none;stroke-width:3;stroke-linecap:round;stroke-linejoin:round;stroke-miterlimit:4;stroke-dasharray:none;stroke-opacity:1" />
      <path
         d="M 265.31046,328.76872 C 265.33358,332.15811 265.17022,335.55444 265.34006,338.942 C 265.39142,339.96618 265.49439,340.98711 265.57155,342.00966 C 266.25264,348.87975 267.50278,355.67409 268.52679,362.497 C 269.30402,368.37837 270.52585,374.18773 272.04517,379.91891 C 272.72421,382.11478 273.10049,384.49214 274.30504,386.48645 C 274.24741,386.41271 274.18978,386.33896 274.13215,386.26522 L 274.52714,386.08669 C 274.32872,386.29194 274.1303,386.49719 273.93188,386.70244 C 272.75882,384.68015 272.38634,382.30383 271.72866,380.09053 C 270.24275,374.34542 269.02273,368.53062 268.24982,362.64335 C 267.23102,355.82072 265.97617,349.02881 265.27884,342.16165 C 265.19845,341.14011 265.09279,340.12024 265.03766,339.09703 C 264.85589,335.72317 265.00815,332.33999 264.92744,328.96387 L 265.31046,328.76872 z"
         id="path2582"
         style="fill:#52501b;fill-opacity:1;stroke:none;stroke-width:3;stroke-linecap:round;stroke-linejoin:round;stroke-miterlimit:4;stroke-dasharray:none;stroke-opacity:1" />
      <path
         d="M 269.18173,346.016 C 269.52722,348.75957 269.95989,351.48613 270.4611,354.20548 C 270.84137,356.17497 271.31139,358.14518 272.05172,360.01407 C 271.58335,360.26603 272.45384,360.31498 272.34867,360.45895 C 272.28585,360.54496 272.13994,360.62583 272.04914,360.57017 C 271.97537,360.52495 272.10906,360.407 272.12528,360.32202 C 272.18923,359.98696 272.19637,359.48719 272.21149,359.17963 C 272.28519,355.49658 272.27232,351.81213 272.27405,348.12847 C 272.28247,344.65306 272.33313,341.17584 272.0351,337.70923 C 271.84457,335.493 271.73884,335.00971 271.41503,332.8354 C 271.00769,330.29918 270.38441,327.80876 269.79004,325.31266 L 270.15316,325.11702 C 270.72683,327.62424 271.32915,330.12589 271.73021,332.66892 C 272.04857,334.82811 272.15833,335.3485 272.34618,337.54815 C 272.64223,341.01472 272.58839,344.49219 272.59009,347.96743 C 272.59542,351.64126 272.61969,355.3153 272.58937,358.98904 C 272.58761,359.04297 272.58149,360.28071 272.46262,360.40072 C 271.9391,360.92931 271.89063,360.65488 271.67559,360.22367 C 270.95366,358.34132 270.49716,356.36278 270.12167,354.38626 C 269.62633,351.67339 269.1909,348.95427 268.79413,346.22561 L 269.18173,346.016 z"
         id="path2584"
         style="fill:#52501b;fill-opacity:1;stroke:none;stroke-width:3;stroke-linecap:round;stroke-linejoin:round;stroke-miterlimit:4;stroke-dasharray:none;stroke-opacity:1" />
      <path
         d="M 268.23715,387.26125 C 268.16146,389.37157 268.3132,391.47331 268.55012,393.56884 C 268.94067,397.67898 269.70649,401.74032 270.39455,405.80793 C 271.08635,410.04418 271.66501,414.29547 272.05614,418.57008 C 272.24682,420.74124 272.31635,422.91985 272.3332,425.09844 C 272.33658,426.46324 272.33153,427.82805 272.32981,429.19284 C 272.32526,429.81121 272.45999,430.50695 271.91241,430.92365 C 271.94875,431.12477 270.95645,431.25866 270.82444,431.46137 C 270.79528,431.50614 270.90396,431.55865 270.88649,431.60913 C 270.81917,431.80373 270.6728,431.96218 270.58648,432.14912 C 270.48662,432.36541 270.415,432.59366 270.32926,432.81592 C 270.23651,433.12657 270.12866,433.43309 270.05102,433.74784 C 269.79472,434.78672 269.7291,435.40551 269.58195,436.49379 C 269.31768,438.44809 269.11921,440.40382 268.94073,442.36756 C 268.662,445.80418 268.56712,449.25229 268.52221,452.69882 C 268.51341,453.47756 268.51384,454.25634 268.51363,455.0351 L 268.13417,455.22834 C 268.1377,454.44626 268.1444,453.6642 268.1607,452.88226 C 268.2325,449.43011 268.33829,445.97653 268.60784,442.53338 C 268.78682,440.5734 268.97917,438.61887 269.23084,436.66668 C 269.37031,435.58472 269.43239,434.95981 269.67737,433.92499 C 269.75172,433.6109 269.85582,433.30461 269.94504,432.99442 C 270.30128,432.04401 270.326,431.84533 271.16669,431.18449 C 271.17064,431.18138 271.61768,430.91695 271.6685,430.95124 C 271.72823,430.99156 271.55611,431.04143 271.4999,431.08653 C 272.07583,430.70368 271.9368,430.00115 271.94491,429.38877 C 271.95383,428.02217 271.96381,426.65554 271.96005,425.28889 C 271.94754,423.10657 271.89479,420.92372 271.71483,418.74781 C 271.34732,414.46853 270.77709,410.21438 270.07623,405.97692 C 269.38479,401.91285 268.61499,397.85602 268.20169,393.75141 C 267.95904,391.66199 267.79979,389.56599 267.84547,387.46082 L 268.23715,387.26125 z"
         id="path2586"
         style="fill:#52501b;fill-opacity:1;stroke:none;stroke-width:3;stroke-linecap:round;stroke-linejoin:round;stroke-miterlimit:4;stroke-dasharray:none;stroke-opacity:1" />
      <path
         d="M 268.49703,461.12924 C 268.34991,461.8466 268.0628,462.41349 267.28035,462.59009 C 267.19989,462.60824 267.12568,462.53271 267.04834,462.50403 C 266.98345,462.44475 266.91324,462.39081 266.85366,462.32619 C 266.80472,462.2731 266.59701,461.97766 266.50666,461.92809 C 266.47105,461.90855 266.35413,461.90955 266.38506,461.93586 C 266.88165,462.35832 266.72539,461.49166 266.58674,462.83359 C 266.4172,466.63991 266.44615,470.45291 266.43804,474.26229 C 266.50919,478.43693 266.76607,482.60367 267.07063,486.76663 C 267.17821,488.15562 267.27617,489.54523 267.33609,490.93714 L 266.953,491.13421 C 266.90431,489.73705 266.81827,488.34175 266.72251,486.94707 C 266.44513,482.77639 266.20095,478.6033 266.1222,474.42318 C 266.12045,470.62281 266.09024,466.8203 266.20956,463.02145 C 266.27367,462.22064 266.12404,462.23942 266.74812,461.67514 C 266.8594,461.57451 267.28181,462.17178 267.41478,462.25564 C 267.48703,462.27751 267.60708,462.24984 267.63157,462.32126 C 267.6543,462.38754 267.42263,462.49352 267.49083,462.47741 C 267.90388,462.37986 267.99766,461.63626 268.10015,461.32442 L 268.49703,461.12924 z"
         id="path2588"
         style="fill:#52501b;fill-opacity:1;stroke:none;stroke-width:3;stroke-linecap:round;stroke-linejoin:round;stroke-miterlimit:4;stroke-dasharray:none;stroke-opacity:1" />
      <path
         d="M 266.19088,414.18223 C 266.15496,418.16154 266.14991,422.14108 266.14413,426.12052 C 266.13557,431.07575 266.14635,436.03098 266.16944,440.98615 C 266.13076,442.33814 266.27991,443.47794 265.32025,444.51527 C 264.97908,444.87184 265.13813,444.6497 264.89948,445.21865 L 264.50762,445.39989 C 264.72944,444.81705 264.57189,445.04202 264.91589,444.68419 C 265.89992,443.65766 265.76816,442.52472 265.82188,441.16325 C 265.8449,436.19947 265.85576,431.23564 265.8472,426.27181 C 265.84142,422.30825 265.83647,418.3446 265.80044,414.38117 L 266.19088,414.18223 z"
         id="path2590"
         style="fill:#52501b;fill-opacity:1;stroke:none;stroke-width:3;stroke-linecap:round;stroke-linejoin:round;stroke-miterlimit:4;stroke-dasharray:none;stroke-opacity:1" />
      <path
         d="M 269.69957,464.04877 C 269.66051,465.24346 269.79242,466.43346 269.86708,467.62432 C 269.96895,469.57707 269.96549,471.53377 269.97011,473.48864 C 269.97743,476.77364 270.23918,480.05288 270.39302,483.33372 C 270.51211,485.96848 270.53898,488.60635 270.56027,491.24339 C 270.57393,492.81544 270.53029,494.38635 270.65472,495.95447 C 270.75766,497.13031 270.814,498.30929 270.84412,499.48902 C 270.92584,500.43428 270.84145,501.1326 270.48063,502.00077 C 270.27838,502.52373 270.05317,503.04212 269.57176,503.35561 C 269.34515,503.70428 268.81163,503.61098 268.50331,503.82619 C 268.45731,503.8583 268.68307,503.71092 268.6586,503.76139 C 268.61143,503.85862 268.49472,503.90372 268.42546,503.98667 C 268.34644,504.0813 268.2858,504.18988 268.21597,504.29148 C 267.64681,505.25361 267.33648,506.33443 267.08581,507.41577 C 266.87394,508.58171 266.67024,509.74697 266.5626,510.92764 C 266.48148,511.96022 266.47966,512.99669 266.47539,514.03176 C 266.47222,515.25774 266.47543,516.48372 266.47693,517.70969 C 266.47151,518.35391 266.48568,518.99811 266.48749,519.64224 C 266.4842,520.23542 266.48236,520.82861 266.4811,521.4218 C 266.40062,523.33493 266.53518,525.23296 266.8015,527.12636 C 267.0324,529.03154 267.47533,530.89527 267.86629,532.77032 C 268.1754,533.89634 268.37416,535.04031 268.46547,536.20303 C 268.52987,538.05272 268.52318,539.90411 268.5244,541.75469 C 268.52289,543.22224 268.52491,544.68981 268.52746,546.15736 C 268.52834,546.79858 268.52648,547.43982 268.53019,548.08103 L 268.13696,548.28138 C 268.14108,547.63878 268.13982,546.99615 268.1423,546.35355 C 268.14869,544.88323 268.15613,543.41292 268.15566,541.94259 C 268.15538,540.09544 268.16627,538.24691 268.08395,536.4012 C 267.99305,535.23959 267.79735,534.09596 267.49399,532.96966 C 267.11001,531.09057 266.67488,529.22264 266.44348,527.31524 C 266.16947,525.42464 266.03432,523.53008 266.09473,521.61866 C 266.0935,521.02767 266.09177,520.43669 266.08823,519.84571 C 266.08913,519.19851 266.10227,518.55123 266.09575,517.90397 C 266.0947,516.67832 266.0927,515.45267 266.09185,514.22701 C 266.09504,513.1909 266.09442,512.15324 266.17708,511.1197 C 266.28392,509.93648 266.49281,508.77003 266.70084,507.60105 C 266.94916,506.51792 267.2568,505.43576 267.81525,504.46668 C 268.12883,503.98776 268.51631,503.64385 269.07614,503.44698 C 269.15436,503.41947 269.25352,503.33292 269.3173,503.38592 C 269.36982,503.42956 269.21166,503.47245 269.15884,503.51571 C 269.65336,503.22126 269.88101,502.70633 270.08316,502.18382 C 270.4484,501.31833 270.54361,500.63236 270.46127,499.6853 C 270.43209,498.50593 270.3801,497.32707 270.27497,496.15171 C 270.15308,494.57948 270.206,493.00503 270.19635,491.42909 C 270.18585,488.78959 270.15985,486.14962 270.04667,483.51218 C 269.90296,480.23191 269.64083,476.95501 269.61159,473.67153 C 269.59811,471.72059 269.59824,469.76809 269.48997,467.81948 C 269.41388,466.63028 269.28523,465.4426 269.30541,464.2496 L 269.69957,464.04877 z"
         id="path2592"
         style="fill:#52501b;fill-opacity:1;stroke:none;stroke-width:3;stroke-linecap:round;stroke-linejoin:round;stroke-miterlimit:4;stroke-dasharray:none;stroke-opacity:1" />
      <path
         d="M 271.34879,507.70361 C 270.70648,510.48369 270.7305,513.38394 270.64426,516.22335 C 270.65067,519.28884 270.39212,522.37245 270.67571,525.43121 C 270.68707,525.48767 270.82577,526.3521 270.95552,526.49916 C 270.99742,526.54664 271.13636,526.54399 271.14466,526.48121 C 271.1531,526.41736 270.96704,526.46654 270.96835,526.40215 C 270.97204,526.21981 271.11178,526.06522 271.15667,525.88845 C 271.22721,525.61074 271.26121,525.32502 271.31348,525.0433 C 271.58455,523.00334 271.62356,520.94211 271.65312,518.88727 C 271.66643,517.5054 271.66047,516.12343 271.65329,514.74154 C 271.65248,514.58995 271.65167,514.43835 271.65086,514.28676 L 272.0375,514.08962 C 272.03757,514.24159 272.03766,514.39355 272.03773,514.54552 C 272.03826,515.93028 272.04017,517.31507 272.02253,518.69974 C 271.99055,520.75592 271.94353,522.81718 271.68915,524.8601 C 271.66164,525.02322 271.54494,525.98933 271.36971,526.2273 C 270.49173,527.41961 270.43478,526.34978 270.30737,525.62298 C 270.05274,522.5541 270.32354,519.46572 270.31141,516.39168 C 270.39703,513.55942 270.35958,510.67231 270.95327,507.89082 L 271.34879,507.70361 z"
         id="path2594"
         style="fill:#52501b;fill-opacity:1;stroke:none;stroke-width:3;stroke-linecap:round;stroke-linejoin:round;stroke-miterlimit:4;stroke-dasharray:none;stroke-opacity:1" />
      <path
         d="M 258.7818,553.75013 C 255.55663,553.71653 252.40331,554.58131 249.27661,555.26998 C 243.35944,556.61743 237.55154,558.36562 231.75833,560.16045 C 224.97422,562.24719 218.10416,564.03189 211.26643,565.92971 C 205.30168,567.75188 199.28802,569.40175 193.25461,570.97897 C 189.52254,571.94423 185.80216,572.96932 182.03007,573.76984 C 181.10155,573.95353 180.16689,574.11822 179.22232,574.19195 C 179.08643,574.20256 178.68423,574.25766 178.81414,574.21643 C 181.43138,573.38562 184.06845,572.61859 186.6956,571.81967 L 186.58854,571.90218 C 184.11412,572.58749 181.63154,573.24399 179.16528,573.95812 C 179.03547,573.99571 179.43525,573.94468 179.57001,573.93443 C 180.50546,573.86329 181.43166,573.70471 182.35172,573.5258 C 186.10744,572.74122 189.81126,571.72879 193.52539,570.77147 C 199.55174,569.20055 205.55805,567.55592 211.51539,565.73832 C 218.35461,563.84326 225.22514,562.05752 232.00878,559.96672 C 237.81303,558.16517 243.63233,556.41192 249.56,555.05451 C 252.71227,554.35462 255.88587,553.48775 259.13744,553.49175 L 258.7818,553.75013 z"
         id="path2598"
         style="fill:#52501b;fill-opacity:1;stroke:none;stroke-width:3;stroke-linecap:round;stroke-linejoin:round;stroke-miterlimit:4;stroke-dasharray:none;stroke-opacity:1" />
      <path
         d="M 261.15408,543.24805 C 258.08928,543.18189 255.13219,544.19896 252.20936,545.05237 C 251.38787,545.28814 250.56469,545.51733 249.74487,545.75969 C 246.9417,546.58839 244.15405,547.45994 241.32482,548.18596 C 238.71896,548.85466 237.40939,549.12444 234.76847,549.71379 C 231.29923,550.43826 227.79078,550.90935 224.30253,551.50842 C 220.95035,552.08414 217.60397,552.71439 214.25632,553.32023 C 210.50713,554.21594 206.56391,554.47829 202.96388,555.99557 C 202.8028,556.09532 202.60883,556.1505 202.48063,556.29482 C 202.43634,556.34466 202.62052,556.28281 202.67148,556.32471 C 202.72653,556.36999 202.70793,556.47826 202.76138,556.52569 C 203.12106,556.84493 203.8066,556.8473 204.23082,556.90753 C 205.76437,557.05225 207.30602,557.04824 208.84428,557.04918 C 209.04103,557.04856 209.23778,557.04838 209.43453,557.04734 C 209.58171,557.04656 209.72888,557.04567 209.87604,557.0437 C 209.94623,557.04277 210.14402,556.99553 210.08658,557.03867 C 209.61984,557.38913 209.44429,557.30577 208.91376,557.38595 C 208.57781,557.43672 208.24373,557.50078 207.90873,557.55819 C 204.35802,558.2257 200.86818,559.31345 197.48019,560.6266 C 196.58439,560.9738 195.70493,561.36742 194.8173,561.73783 C 191.30117,563.29152 187.86817,565.0501 184.37826,566.66753 C 183.40852,567.11696 180.33983,568.45965 179.35614,568.89191 C 174.92077,570.84721 170.36687,572.47804 165.93337,574.43633 C 163.22404,575.61185 160.59135,576.9699 157.94245,578.28832 C 157.35281,578.56141 156.76512,578.83401 156.16388,579.07621 L 156.50266,578.79248 C 157.09864,578.55102 157.68278,578.28254 158.26772,578.01173 C 160.90398,576.70335 163.52725,575.36312 166.22185,574.19325 C 170.65102,572.24423 175.19735,570.61432 179.62676,568.66394 C 180.6587,568.21051 183.62872,566.91156 184.6468,566.4398 C 188.13564,564.82312 191.56861,563.06792 195.08343,561.51445 C 195.97261,561.14351 196.85375,560.7497 197.75099,560.4016 C 201.15947,559.07928 204.66816,557.98329 208.23753,557.29396 C 208.57735,557.23363 208.91618,557.1665 209.25699,557.11298 C 209.4615,557.08087 209.6816,556.95377 209.87303,557.03715 C 209.96571,557.0775 209.80772,557.25374 209.72771,557.31799 C 209.59066,557.42803 208.5813,557.17443 208.50026,557.31631 C 206.96064,557.31011 205.41776,557.31368 203.88274,557.17051 C 203.76832,557.1543 202.01653,556.94348 202.26798,556.51197 C 202.39552,556.29307 202.61962,556.1567 202.81507,556.00559 C 202.96259,555.89153 203.13282,555.81551 203.2917,555.72047 C 206.87706,554.24638 210.79045,553.99915 214.5144,553.11259 C 217.8591,552.51095 221.20216,551.8841 224.55087,551.30941 C 228.04051,550.71053 231.54997,550.2367 235.02012,549.50969 C 237.70083,548.90898 238.94244,548.6538 241.5865,547.97185 C 244.4211,547.24077 247.2144,546.36519 250.0229,545.53153 C 250.845,545.2875 251.67035,545.05617 252.49408,544.8185 C 255.44238,543.95223 258.41954,542.93509 261.51085,542.9709 L 261.15408,543.24805 z"
         id="path2600"
         style="fill:#52501b;fill-opacity:1;stroke:none;stroke-width:3;stroke-linecap:round;stroke-linejoin:round;stroke-miterlimit:4;stroke-dasharray:none;stroke-opacity:1" />
      <path
         d="M 158.4993,564.92691 C 161.52755,565.18147 164.50994,564.36692 167.39591,563.55399 C 169.49734,562.84507 169.57045,562.8388 171.65657,562.06082 C 172.31033,561.81702 172.91499,561.26537 173.61119,561.3118 C 177.03207,561.53994 180.3891,562.35006 183.77805,562.86921 L 183.74653,562.89144 C 180.27128,562.44077 176.82091,561.71137 173.32078,561.53944 C 172.62612,561.50532 172.02332,562.04101 171.37147,562.28354 C 169.25269,563.07188 169.239,563.05826 167.10401,563.77857 C 164.19668,564.5981 161.19692,565.41166 158.14625,565.17929 L 158.4993,564.92691 z"
         id="path2602"
         style="fill:#52501b;fill-opacity:1;stroke:none;stroke-width:3;stroke-linecap:round;stroke-linejoin:round;stroke-miterlimit:4;stroke-dasharray:none;stroke-opacity:1" />
      <path
         d="M 162.64657,579.02865 C 163.54033,579.3801 164.45904,579.67126 165.39771,579.87618 C 166.40736,580.07263 167.44119,580.07599 168.46589,580.09033 C 169.66915,580.13017 170.8721,580.04881 172.06292,579.87827 C 173.43754,579.69193 174.75766,579.23745 176.08578,578.85185 C 177.63102,578.38919 179.22417,578.13597 180.79044,577.76353 C 182.05495,577.38021 183.32713,577.04369 184.61611,576.75582 C 185.95073,576.46546 187.19818,575.92909 188.42836,575.35311 C 190.11389,574.54816 191.87596,573.93176 193.60873,573.24138 C 194.90434,572.70592 196.24243,572.30129 197.59892,571.955 C 198.64182,571.73937 199.69799,571.59525 200.74569,571.4055 C 201.92293,571.17704 203.10372,570.96958 204.28529,570.76342 C 205.56494,570.53853 206.86453,570.49328 208.16032,570.4608 C 209.5515,570.43717 210.94293,570.44022 212.33425,570.44208 C 213.72677,570.44381 215.1193,570.4449 216.51183,570.44503 C 217.85927,570.43005 219.20818,570.48239 220.55411,570.40974 C 222.10322,570.29313 223.63844,570.03268 225.17504,569.8082 C 227.80366,569.39412 230.36883,568.69895 232.93036,567.99348 C 235.57022,567.20879 238.2436,566.51441 240.8196,565.53283 C 241.49769,565.30455 242.11858,565.02363 242.73575,564.66679 L 242.40738,564.93253 C 241.78953,565.28336 241.1689,565.56393 240.49239,565.78917 C 237.92076,566.75732 235.25449,567.44288 232.62407,568.22888 C 230.05478,568.94033 227.48113,569.63856 224.84392,570.05622 C 223.30347,570.28242 221.76507,570.55081 220.21115,570.66166 C 218.86455,570.73008 217.51535,570.68095 216.16742,570.69524 C 214.77543,570.69406 213.38344,570.69286 211.99146,570.69109 C 210.60003,570.69064 209.20844,570.68591 207.81718,570.71145 C 206.52188,570.74505 205.22311,570.79434 203.94422,571.02034 C 202.76164,571.22725 201.57997,571.43613 200.40163,571.66498 C 199.35456,571.85259 198.29952,571.99807 197.25808,572.21592 C 195.90666,572.56232 194.57314,572.96477 193.28193,573.49825 C 191.54653,574.18628 189.78461,574.80787 188.09861,575.61551 C 186.86619,576.1926 185.6143,576.72516 184.27702,577.01376 C 182.989,577.30139 181.71914,577.64353 180.4539,578.02019 C 178.88856,578.3883 177.29774,578.64362 175.75463,579.10704 C 174.42228,579.49391 173.09931,579.95393 171.71907,580.13554 C 170.52634,580.30187 169.32251,580.38047 168.11793,580.34239 C 167.09061,580.32782 166.05345,580.32512 165.04204,580.12297 C 164.09959,579.91299 163.17764,579.61789 162.27667,579.27203 L 162.64657,579.02865 z"
         id="path2604"
         style="fill:#52501b;fill-opacity:1;stroke:none;stroke-width:3;stroke-linecap:round;stroke-linejoin:round;stroke-miterlimit:4;stroke-dasharray:none;stroke-opacity:1" />
      <path
         d="M 206.35124,566.64809 C 206.92955,565.88141 207.4877,565.10064 208.11514,564.37301 C 208.83455,563.71613 209.70397,563.22251 210.65387,563.00032 C 211.34479,562.85368 212.05336,562.89508 212.75248,562.8491 C 213.36952,562.80851 213.98358,562.73106 214.59938,562.67477 C 218.21466,562.46352 221.75074,561.65325 225.29015,560.93873 C 228.32178,560.25345 231.28081,559.29239 234.28333,558.49802 C 235.78323,558.1012 237.36743,557.74791 238.87869,557.39885 C 243.58357,556.30955 248.35267,555.52812 253.11806,554.75848 C 254.01854,554.64451 254.91901,554.53052 255.81949,554.41655 L 255.54406,554.62206 C 254.64105,554.7384 253.73805,554.85476 252.83504,554.97111 C 248.06875,555.74106 243.29918,556.52374 238.59388,557.61583 C 237.06723,557.96886 235.51457,558.31514 233.99946,558.71643 C 230.99585,559.51197 228.03545,560.47323 225.00203,561.15697 C 221.44874,561.87696 217.89916,562.69428 214.27024,562.91866 C 213.64921,562.97881 213.02984,563.05871 212.40736,563.10123 C 211.70766,563.14903 210.99818,563.11207 210.30767,563.26453 C 209.54524,563.45233 209.13957,563.61165 208.5141,564.20439 C 207.88545,564.9278 207.32546,565.70423 206.75736,566.47555 L 206.35124,566.64809 z"
         id="path2606"
         style="fill:#52501b;fill-opacity:1;stroke:none;stroke-width:3;stroke-linecap:round;stroke-linejoin:round;stroke-miterlimit:4;stroke-dasharray:none;stroke-opacity:1" />
      <path
         d="M 267.03388,556.13555 C 267.48806,554.49272 267.45787,552.7571 267.509,551.06723 C 267.59638,546.55323 267.59541,542.03798 267.59235,537.52329 C 267.59313,536.75873 267.59393,535.99416 267.59471,535.22959 L 267.91172,535.06808 C 267.91233,535.83194 267.91295,536.59579 267.91356,537.35966 C 267.90485,541.87003 267.91496,546.38064 267.85763,550.89075 C 267.82087,552.57619 267.8648,554.30325 267.43515,555.9471 L 267.03388,556.13555 z"
         id="path2608"
         style="fill:#52501b;fill-opacity:1;stroke:none;stroke-width:3;stroke-linecap:round;stroke-linejoin:round;stroke-miterlimit:4;stroke-dasharray:none;stroke-opacity:1" />
      <path
         d="M 271.05945,544.96655 C 271.14033,542.29946 270.97227,539.63739 270.7566,536.9805 C 270.50431,533.97977 270.62166,535.54225 270.41164,532.29252 L 270.7237,532.13087 C 270.95001,535.37242 270.82725,533.81314 271.08603,536.8092 C 271.31089,539.45629 271.48734,542.10803 271.45236,544.76635 L 271.05945,544.96655 z"
         id="path2610"
         style="fill:#52501b;fill-opacity:1;stroke:none;stroke-width:3;stroke-linecap:round;stroke-linejoin:round;stroke-miterlimit:4;stroke-dasharray:none;stroke-opacity:1" />
      <path
         d="M 148.12878,568.12006 C 148.09841,571.31217 148.09796,574.50453 148.09426,577.69677 C 148.21824,580.61672 147.84209,583.59072 148.36902,586.48314 C 148.42012,586.63172 148.50324,587.23016 148.85942,587.19342 C 149.38573,587.13915 149.37402,586.76065 149.56023,586.39986 C 150.7685,584.05883 149.65649,586.49634 150.86366,583.70643 C 152.05443,580.69796 153.13587,577.64507 154.36603,574.65233 C 154.60277,574.09857 154.95963,573.31344 155.7603,573.47249 C 156.14531,573.54896 156.32362,575.21673 156.35981,575.45336 C 156.54517,576.82893 156.44208,576.10906 156.67271,577.61244 L 156.31493,577.80177 C 156.07686,576.30159 156.18293,577.01986 155.9928,575.64758 C 155.92238,575.20523 155.84336,574.47667 155.64984,574.03914 C 155.59572,573.9168 155.44112,573.85212 155.40048,573.72466 C 155.37318,573.63904 155.55557,573.45375 155.4662,573.46317 C 155.09924,573.50182 154.80592,574.34506 154.73829,574.48078 C 153.48178,577.4689 152.39109,580.52532 151.21455,583.54519 C 150.59001,585.01648 150.27029,586.14215 148.99671,587.18974 C 148.70791,587.4273 148.41278,587.57533 148.17048,587.20897 C 148.0683,587.05446 148.05458,586.85708 147.99662,586.68112 C 147.50222,583.77291 147.89273,580.79354 147.77038,577.8618 C 147.76669,574.68128 147.76633,571.50065 147.73586,568.32026 L 148.12878,568.12006 z"
         id="path2612"
         style="fill:#52501b;fill-opacity:1;stroke:none;stroke-width:3;stroke-linecap:round;stroke-linejoin:round;stroke-miterlimit:4;stroke-dasharray:none;stroke-opacity:1" />
      <path
         d="M 136.72786,513.09908 C 136.74056,517.17835 137.12219,521.24813 137.37649,525.31768 C 137.66016,529.67627 138.08654,534.02036 138.59964,538.35702 C 138.79556,539.94883 138.98382,541.54141 139.05434,543.14424 C 139.0269,543.94971 139.14691,544.74203 139.24956,545.53755 C 139.28302,545.70118 139.31648,545.86481 139.34994,546.02843 L 138.96907,546.23263 C 138.93308,546.06899 138.89709,545.90537 138.8611,545.74173 C 138.76038,544.94389 138.6401,544.14938 138.67036,543.34188 C 138.60892,541.73457 138.43612,540.13566 138.25422,538.53802 C 137.76913,534.19184 137.35882,529.8406 137.0702,525.47617 C 136.81184,521.41746 136.42882,517.3624 136.34237,513.2955 L 136.72786,513.09908 z"
         id="path2614"
         style="fill:#52501b;fill-opacity:1;stroke:none;stroke-width:3;stroke-linecap:round;stroke-linejoin:round;stroke-miterlimit:4;stroke-dasharray:none;stroke-opacity:1" />
    </g>
  </g>
</svg>
