<?xml version="1.0" encoding="UTF-8" standalone="no"?>
<!-- Created with Inkscape (http://www.inkscape.org/) -->
<svg xmlns:dc="http://purl.org/dc/elements/1.1/" xmlns:cc="http://creativecommons.org/ns#" xmlns:rdf="http://www.w3.org/1999/02/22-rdf-syntax-ns#" xmlns:svg="http://www.w3.org/2000/svg" xmlns="http://www.w3.org/2000/svg" xmlns:xlink="http://www.w3.org/1999/xlink" version="1.1" width="586.95459" height="755.71069" id="svg3240">
  <defs id="defs3">
    <linearGradient x1="-102.18472" y1="-938.14899" x2="247.39458" y2="-1117.4204" id="linearGradient3775" xlink:href="#linearGradient8145" gradientUnits="userSpaceOnUse" gradientTransform="matrix(-0.712797, 0.0937955, -0.0955483, -0.699721, 1313.18, -34.1804)"/>
    <linearGradient id="linearGradient3763">
      <stop id="stop3765" style="stop-color: rgb(255, 255, 255); stop-opacity: 1;" offset="0"/>
      <stop id="stop3767" style="stop-color: rgb(255, 255, 255); stop-opacity: 0;" offset="1"/>
    </linearGradient>
    <linearGradient x1="-102.18472" y1="-938.14899" x2="247.39458" y2="-1117.4204" id="linearGradient5438" xlink:href="#linearGradient8145" gradientUnits="userSpaceOnUse" gradientTransform="matrix(-0.712797, 0.0937955, -0.0955483, -0.699721, 1313.18, -34.1804)"/>
    <linearGradient id="linearGradient3756">
      <stop id="stop3758" style="stop-color: rgb(255, 255, 255); stop-opacity: 1;" offset="0"/>
      <stop id="stop3760" style="stop-color: rgb(255, 255, 255); stop-opacity: 0;" offset="1"/>
    </linearGradient>
    <linearGradient x1="-102.18472" y1="-938.14899" x2="247.39458" y2="-1117.4204" id="linearGradient5436" xlink:href="#linearGradient8145" gradientUnits="userSpaceOnUse" gradientTransform="matrix(-0.697149, 0.173375, 0.176615, 0.68436, 1682.72, 1382.83)"/>
    <linearGradient id="linearGradient8145">
      <stop id="stop8147" style="stop-color: rgb(255, 255, 255); stop-opacity: 1;" offset="0"/>
      <stop id="stop8149" style="stop-color: rgb(255, 255, 255); stop-opacity: 0;" offset="1"/>
    </linearGradient>
    <linearGradient x1="-102.18472" y1="-938.14899" x2="247.39458" y2="-1117.4204" id="linearGradient5434" xlink:href="#linearGradient8145" gradientUnits="userSpaceOnUse" gradientTransform="matrix(0.719173, 0, 0, 0.70598, 984.921, 1456.64)"/>
    <filter color-interpolation-filters="sRGB" id="filter8080">
      <feGaussianBlur stdDeviation="5.6969168" id="feGaussianBlur8082"/>
    </filter>
    <linearGradient x1="1249.5219" y1="1297.0676" x2="1199.3259" y2="1292.5859" id="linearGradient6563" xlink:href="#linearGradient6361" gradientUnits="userSpaceOnUse" gradientTransform="matrix(0.979452, 0, 0, 0.991526, 24.3121, 10.8097)"/>
    <linearGradient id="linearGradient6361">
      <stop id="stop6363" style="stop-color: rgb(0, 0, 0); stop-opacity: 1;" offset="0"/>
      <stop id="stop6369" style="stop-color: rgb(255, 255, 255); stop-opacity: 1;" offset="0.49920824"/>
      <stop id="stop6365" style="stop-color: rgb(249, 249, 249); stop-opacity: 0;" offset="1"/>
    </linearGradient>
    <linearGradient x1="1246.8329" y1="1319.9248" x2="1209.634" y2="1316.7876" id="linearGradient6565" xlink:href="#linearGradient6375" gradientUnits="userSpaceOnUse" gradientTransform="translate(-0.112045)"/>
    <linearGradient id="linearGradient6375">
      <stop id="stop6377" style="stop-color: rgb(255, 102, 0); stop-opacity: 1;" offset="0"/>
      <stop id="stop6379" style="stop-color: rgb(255, 102, 0); stop-opacity: 0;" offset="1"/>
    </linearGradient>
    <linearGradient x1="1188.1215" y1="1318.1321" x2="1203.8077" y2="1316.7876" id="linearGradient6567" xlink:href="#linearGradient6375" gradientUnits="userSpaceOnUse" gradientTransform="translate(0.336134, -0.336134)"/>
    <linearGradient id="linearGradient3315">
      <stop id="stop3317" style="stop-color: rgb(255, 102, 0); stop-opacity: 1;" offset="0"/>
      <stop id="stop3319" style="stop-color: rgb(255, 102, 0); stop-opacity: 0;" offset="1"/>
    </linearGradient>
    <radialGradient cx="1209.7494" cy="1380.5184" r="58.263218" fx="1209.7494" fy="1380.5184" id="radialGradient6569" xlink:href="#linearGradient6389" gradientUnits="userSpaceOnUse" gradientTransform="matrix(1.02319, 0.00601294, -0.00208228, 0.376638, -24.8456, 825.024)"/>
    <linearGradient id="linearGradient6389">
      <stop id="stop6391" style="stop-color: rgb(236, 236, 236); stop-opacity: 1;" offset="0"/>
      <stop id="stop6393" style="stop-color: rgb(236, 236, 236); stop-opacity: 0;" offset="1"/>
    </linearGradient>
    <linearGradient x1="498.18271" y1="518.0517" x2="504.52094" y2="422.34485" id="linearGradient6581" xlink:href="#linearGradient4437-7" gradientUnits="userSpaceOnUse"/>
    <linearGradient id="linearGradient4437-7">
      <stop id="stop4439-8" style="stop-color: rgb(255, 255, 0); stop-opacity: 1;" offset="0"/>
      <stop id="stop4441-0" style="stop-color: rgb(255, 255, 0); stop-opacity: 0;" offset="1"/>
    </linearGradient>
    <filter color-interpolation-filters="sRGB" id="filter4946-4">
      <feGaussianBlur stdDeviation="6.8255148" id="feGaussianBlur4948-3"/>
    </filter>
    <linearGradient x1="498.18271" y1="518.0517" x2="504.52094" y2="422.34485" id="linearGradient6571" xlink:href="#linearGradient4437-7" gradientUnits="userSpaceOnUse"/>
    <linearGradient id="linearGradient3332">
      <stop id="stop3334" style="stop-color: rgb(255, 255, 0); stop-opacity: 1;" offset="0"/>
      <stop id="stop3336" style="stop-color: rgb(255, 255, 0); stop-opacity: 0;" offset="1"/>
    </linearGradient>
    <linearGradient x1="498.18271" y1="518.0517" x2="504.52094" y2="422.34485" id="linearGradient6573" xlink:href="#linearGradient4437-7" gradientUnits="userSpaceOnUse"/>
    <linearGradient id="linearGradient3339">
      <stop id="stop3341" style="stop-color: rgb(255, 255, 0); stop-opacity: 1;" offset="0"/>
      <stop id="stop3343" style="stop-color: rgb(255, 255, 0); stop-opacity: 0;" offset="1"/>
    </linearGradient>
    <linearGradient x1="498.18271" y1="518.0517" x2="504.52094" y2="422.34485" id="linearGradient6575" xlink:href="#linearGradient4437-7" gradientUnits="userSpaceOnUse"/>
    <linearGradient id="linearGradient3346">
      <stop id="stop3348" style="stop-color: rgb(255, 255, 0); stop-opacity: 1;" offset="0"/>
      <stop id="stop3350" style="stop-color: rgb(255, 255, 0); stop-opacity: 0;" offset="1"/>
    </linearGradient>
    <linearGradient x1="498.18271" y1="518.0517" x2="504.52094" y2="422.34485" id="linearGradient6577" xlink:href="#linearGradient4437-7" gradientUnits="userSpaceOnUse"/>
    <linearGradient id="linearGradient3353">
      <stop id="stop3355" style="stop-color: rgb(255, 255, 0); stop-opacity: 1;" offset="0"/>
      <stop id="stop3357" style="stop-color: rgb(255, 255, 0); stop-opacity: 0;" offset="1"/>
    </linearGradient>
    <linearGradient x1="498.18271" y1="518.0517" x2="504.52094" y2="422.34485" id="linearGradient6579" xlink:href="#linearGradient4437-7" gradientUnits="userSpaceOnUse"/>
    <linearGradient id="linearGradient3360">
      <stop id="stop3362" style="stop-color: rgb(255, 255, 0); stop-opacity: 1;" offset="0"/>
      <stop id="stop3364" style="stop-color: rgb(255, 255, 0); stop-opacity: 0;" offset="1"/>
    </linearGradient>
    <filter color-interpolation-filters="sRGB" id="filter4363-7">
      <feGaussianBlur stdDeviation="5.5483248" id="feGaussianBlur4365-8"/>
    </filter>
    <radialGradient cx="559.28888" cy="467.44159" r="112.82001" fx="559.28888" fy="467.44159" id="radialGradient6583" xlink:href="#linearGradient4437-7" gradientUnits="userSpaceOnUse" gradientTransform="matrix(0.643994, 1.26906, -1.30335, 0.66139, 827.105, -583.913)"/>
    <linearGradient id="linearGradient3369">
      <stop id="stop3371" style="stop-color: rgb(255, 255, 0); stop-opacity: 1;" offset="0"/>
      <stop id="stop3373" style="stop-color: rgb(255, 255, 0); stop-opacity: 0;" offset="1"/>
    </linearGradient>
    <radialGradient cx="559.28888" cy="467.44159" r="112.82001" fx="559.28888" fy="467.44159" id="radialGradient6585" xlink:href="#linearGradient4437-7" gradientUnits="userSpaceOnUse" gradientTransform="matrix(0.643994, 1.26906, -1.30335, 0.66139, 827.105, -583.913)"/>
    <linearGradient id="linearGradient3376">
      <stop id="stop3378" style="stop-color: rgb(255, 255, 0); stop-opacity: 1;" offset="0"/>
      <stop id="stop3380" style="stop-color: rgb(255, 255, 0); stop-opacity: 0;" offset="1"/>
    </linearGradient>
    <linearGradient x1="524.80316" y1="69.940788" x2="517.19733" y2="159.94327" id="linearGradient6587" xlink:href="#linearGradient4498-9" gradientUnits="userSpaceOnUse"/>
    <linearGradient id="linearGradient4498-9">
      <stop id="stop4500-9" style="stop-color: rgb(255, 255, 255); stop-opacity: 1;" offset="0"/>
      <stop id="stop4502-4" style="stop-color: rgb(255, 255, 255); stop-opacity: 0;" offset="1"/>
    </linearGradient>
    <filter color-interpolation-filters="sRGB" id="filter3386">
      <feGaussianBlur stdDeviation="5.5483248" id="feGaussianBlur3388"/>
    </filter>
    <linearGradient x1="467.75934" y1="416.00662" x2="472.8299" y2="357.69519" id="linearGradient6589" xlink:href="#linearGradient4557-7" gradientUnits="userSpaceOnUse" gradientTransform="matrix(-1.18532, 0, 0, -1.10918, 815.851, 899.326)"/>
    <linearGradient id="linearGradient4557-7">
      <stop id="stop4559-5" style="stop-color: rgb(255, 204, 0); stop-opacity: 1;" offset="0"/>
      <stop id="stop4561-2" style="stop-color: rgb(233, 167, 28); stop-opacity: 0;" offset="1"/>
    </linearGradient>
    <radialGradient cx="463.95642" cy="402.79358" r="25.399578" fx="463.95642" fy="402.79358" id="radialGradient6591" xlink:href="#linearGradient4585-2" gradientUnits="userSpaceOnUse" gradientTransform="matrix(2.66741, 0.971649, -1.05017, 2.88298, -555.96, -1161.82)"/>
    <linearGradient id="linearGradient4585-2">
      <stop id="stop4587-7" style="stop-color: rgb(255, 255, 255); stop-opacity: 1;" offset="0"/>
      <stop id="stop4589-0" style="stop-color: rgb(255, 255, 255); stop-opacity: 0;" offset="1"/>
    </linearGradient>
    <linearGradient x1="447.07379" y1="363.17584" x2="468.94061" y2="415.01865" id="linearGradient6593" xlink:href="#linearGradient4599-1" gradientUnits="userSpaceOnUse"/>
    <linearGradient id="linearGradient4599-1">
      <stop id="stop4601-3" style="stop-color: rgb(255, 255, 255); stop-opacity: 1;" offset="0"/>
      <stop id="stop4603-4" style="stop-color: rgb(255, 255, 255); stop-opacity: 0;" offset="1"/>
    </linearGradient>
    <linearGradient x1="467.75934" y1="416.00662" x2="472.8299" y2="357.69519" id="linearGradient6595" xlink:href="#linearGradient4557-7" gradientUnits="userSpaceOnUse" gradientTransform="matrix(-1.18532, 0, 0, -1.10918, 815.851, 899.326)"/>
    <linearGradient id="linearGradient3403">
      <stop id="stop3405" style="stop-color: rgb(255, 204, 0); stop-opacity: 1;" offset="0"/>
      <stop id="stop3407" style="stop-color: rgb(233, 167, 28); stop-opacity: 0;" offset="1"/>
    </linearGradient>
    <radialGradient cx="463.95642" cy="402.79358" r="25.399578" fx="463.95642" fy="402.79358" id="radialGradient6597" xlink:href="#linearGradient4585-2" gradientUnits="userSpaceOnUse" gradientTransform="matrix(2.66741, 0.971649, -1.05017, 2.88298, -555.96, -1161.82)"/>
    <linearGradient id="linearGradient3410">
      <stop id="stop3412" style="stop-color: rgb(255, 255, 255); stop-opacity: 1;" offset="0"/>
      <stop id="stop3414" style="stop-color: rgb(255, 255, 255); stop-opacity: 0;" offset="1"/>
    </linearGradient>
    <linearGradient x1="447.07379" y1="363.17584" x2="468.94061" y2="415.01865" id="linearGradient6599" xlink:href="#linearGradient4599-1" gradientUnits="userSpaceOnUse"/>
    <linearGradient id="linearGradient3417">
      <stop id="stop3419" style="stop-color: rgb(255, 255, 255); stop-opacity: 1;" offset="0"/>
      <stop id="stop3421" style="stop-color: rgb(255, 255, 255); stop-opacity: 0;" offset="1"/>
    </linearGradient>
    <linearGradient x1="463.6395" y1="330.44092" x2="457.61823" y2="374.17453" id="linearGradient6601" xlink:href="#linearGradient4804-9" gradientUnits="userSpaceOnUse" gradientTransform="translate(-753.257, 166.931)"/>
    <linearGradient id="linearGradient4804-9">
      <stop id="stop4806-8" style="stop-color: rgb(255, 255, 255); stop-opacity: 1;" offset="0"/>
      <stop id="stop4808-2" style="stop-color: rgb(255, 255, 255); stop-opacity: 0;" offset="1"/>
    </linearGradient>
    <filter color-interpolation-filters="sRGB" id="filter4798-2">
      <feGaussianBlur stdDeviation="0.27037152" id="feGaussianBlur4800-3"/>
    </filter>
    <linearGradient x1="463.6395" y1="330.44092" x2="457.61823" y2="374.17453" id="linearGradient6603" xlink:href="#linearGradient4804-9" gradientUnits="userSpaceOnUse" gradientTransform="translate(-0.31691, -1.58455)"/>
    <linearGradient id="linearGradient3430">
      <stop id="stop3432" style="stop-color: rgb(255, 255, 255); stop-opacity: 1;" offset="0"/>
      <stop id="stop3434" style="stop-color: rgb(255, 255, 255); stop-opacity: 0;" offset="1"/>
    </linearGradient>
    <filter color-interpolation-filters="sRGB" id="filter3436">
      <feGaussianBlur stdDeviation="0.27037152" id="feGaussianBlur3438"/>
    </filter>
  </defs>
  <metadata id="metadata4">
    <rdf:RDF>
      <cc:Work rdf:about="">
        <dc:format>image/svg+xml</dc:format>
        <dc:type rdf:resource="http://purl.org/dc/dcmitype/StillImage"/>
        <dc:title/>
      </cc:Work>
    </rdf:RDF>
  </metadata>
  <g transform="translate(-23.1993, -29.5402)" id="layer1">
    <g transform="matrix(2.36205, 0, 0, 2.36205, 2478.15, -855.374)" id="g6518">
      <g transform="matrix(1.56269, 0, 0.155564, 1.56269, -3009.5, -1618.66)" id="g6397">
        <path d="m 1269.2417,1342.7819 c 0,12.3761 -26.0853,22.4089 -58.2632,22.4089 -32.1779,0 -58.2632,-10.0328 -58.2632,-22.4089 0,-12.3761 26.0853,-22.409 58.2632,-22.409 32.1779,0 58.2632,10.0329 58.2632,22.409 z" transform="matrix(1, 0, 0, 0.97, 0, 40.9557)" id="path6355" style="fill: rgb(0, 0, 0); fill-opacity: 1; stroke: none;"/>
        <path d="m 1183.1915,1324.756 20.6162,-43.4125 c 0,0 2.6891,-5.7884 13.4454,-5.7884 10.7563,0 17.9271,0.9648 21.5125,3.859 3.5855,2.8941 9.86,53.0597 9.86,53.0597 0,0 -10.7563,-6.7531 -34.0616,-6.7531 -23.3053,0 -31.3725,-0.9647 -31.3725,-0.9647 z" id="path6357" style="fill: rgb(0, 0, 0); stroke: none;"/>
        <path d="m 1183.1915,1320.882 20.1926,-39.9943 c 0,0 2.6338,-5.3326 13.1691,-5.3326 10.5353,0 17.5587,0.8888 21.0705,3.5551 3.5118,2.6662 9.8815,47.7053 9.8815,47.7053 0,0 -10.7594,-5.0448 -33.5858,-5.0448 -22.8265,0 -30.7279,-0.8887 -30.7279,-0.8887 z" id="path6359" style="fill: url(&quot;#linearGradient6563&quot;) rgb(0, 0, 0); fill-opacity: 1; stroke: none;"/>
        <path d="m 1184.3119,1323.5596 3.8095,-8.7698 c 0,0 15.2381,-3.1563 25.9944,-3.1563 10.7563,0 31.8207,5.6896 31.8207,5.6896 l 1.7927,9.1002 c 0,0 -15.9103,-4.4665 -34.2856,-4.4665 -19.4958,0 -29.1317,1.6028 -29.1317,1.6028 z" id="path6371" style="fill: rgb(255, 255, 255); stroke: none;"/>
        <path d="m 1184.1999,1323.5596 3.8095,-8.7698 c 0,0 9.1949,-3.6865 26.4426,-3.1563 15.1257,0.4649 32.0448,5.7456 32.0448,5.7456 l 1.4565,9.2123 c 0,0 -16.2464,-4.6346 -34.6217,-4.6346 -19.4958,0 -29.1317,1.6028 -29.1317,1.6028 z" id="path6373" style="fill: url(&quot;#linearGradient6565&quot;) rgb(0, 0, 0); fill-opacity: 1; stroke: none;"/>
        <path d="m 1183.7516,1323.7837 4.4258,-9.274 c 0,0 20.1237,-3.3842 31.2045,-2.7641 16.7482,0.9373 26.6115,4.9687 25.9943,5.4095 l 2.2409,9.1002 c 0,0 -15.4621,-4.6346 -33.8374,-4.6346 -19.4958,0 -30.0281,2.163 -30.0281,2.163 z" id="path6383" style="fill: url(&quot;#linearGradient6567&quot;) rgb(0, 0, 0); fill-opacity: 1; stroke: none;"/>
        <path d="m 1269.2417,1342.7819 c 0,12.3761 -26.0853,22.4089 -58.2632,22.4089 -32.1779,0 -58.2632,-10.0328 -58.2632,-22.4089 0,-12.3761 26.0853,-22.409 58.2632,-22.409 32.1779,0 58.2632,10.0329 58.2632,22.409 z" transform="matrix(1, 0, 0, 0.97, 0, 40.9557)" id="path6387" style="fill: url(&quot;#radialGradient6569&quot;) rgb(0, 0, 0); fill-opacity: 1; stroke: none;"/>
      </g>
      <g transform="translate(-659.719, -25.098)" id="g6414">
        <g transform="matrix(0.76279, 0, 0, 0.615072, -630.791, 292.571)" id="g6416" style="opacity: 0.33; fill: url(&quot;#linearGradient6581&quot;) rgb(0, 0, 0); fill-opacity: 1; filter: url(&quot;#filter4946-4&quot;);">
          <path d="m 690.86407,537.70013 c 0,62.30877 -50.51123,112.82001 -112.82,112.82001 -62.30877,0 -112.82001,-50.51124 -112.82001,-112.82001 0,-62.30877 50.51124,-112.82 112.82001,-112.82 62.30877,0 112.82,50.51123 112.82,112.82 z" transform="translate(-78.5937, -111.552)" id="path6418" style="fill: url(&quot;#linearGradient6571&quot;) rgb(0, 0, 0); stroke: none;"/>
          <path d="m 690.86407,537.70013 c 0,62.30877 -50.51123,112.82001 -112.82,112.82001 -62.30877,0 -112.82001,-50.51124 -112.82001,-112.82001 0,-62.30877 50.51124,-112.82 112.82001,-112.82 62.30877,0 112.82,50.51123 112.82,112.82 z" transform="matrix(1, 0, 0, 1.00562, -78.5937, -114.573)" id="path6420" style="fill: url(&quot;#linearGradient6573&quot;) rgb(0, 0, 0); stroke: none;"/>
          <path d="m 690.86407,537.70013 c 0,62.30877 -50.51123,112.82001 -112.82,112.82001 -62.30877,0 -112.82001,-50.51124 -112.82001,-112.82001 0,-62.30877 50.51124,-112.82 112.82001,-112.82 62.30877,0 112.82,50.51123 112.82,112.82 z" transform="matrix(1, 0, 0, 1.00562, -78.5937, -114.573)" id="path6422" style="fill: url(&quot;#linearGradient6575&quot;) rgb(0, 0, 0); stroke: none;"/>
          <path d="m 585.64992,109.23765 c 0,19.60276 -30.64727,35.49393 -68.45259,35.49393 -37.80533,0 -68.45259,-15.89117 -68.45259,-35.49393 0,-19.602761 30.64726,-35.493937 68.45259,-35.493937 37.80532,0 68.45259,15.891176 68.45259,35.493937 z" transform="matrix(0.87963, 0, 0, 1, 45.7759, 245.922)" id="path6424" style="fill: url(&quot;#linearGradient6577&quot;) rgb(0, 0, 0); stroke: none;"/>
          <path d="m 494.46879,315.88513 c -44.64486,0.7251 -86.72321,31.11724 -101.28125,73.15625 -13.41801,36.45605 -5.86936,80.07388 19.59375,109.28125 24.45484,29.36708 64.79043,44.66734 102.72108,37.95981 33.18723,-5.38656 63.53888,-26.59245 79.33243,-56.17249 16.36591,-29.63054 18.32531,-67.00913 4.32149,-97.94357 -15.13354,-34.67069 -48.83239,-60.70739 -86.72663,-65.29644 -5.94776,-0.83309 -11.95729,-1.15455 -17.96087,-0.98481 z m 3.34375,2.53125 c 45.74786,-0.91102 89.4817,31.35854 102.21875,75.1875 11.13961,36.15611 1.66793,78.09562 -24.96875,105.03125 -24.66454,25.85514 -62.89845,38.15299 -98.05718,30.66605 -38.22286,-7.6514 -71.07255,-37.4631 -81.25532,-75.1973 -9.74582,-33.90659 -1.50741,-72.57936 21.81152,-98.84883 19.93872,-22.85706 49.7019,-37.11491 80.25098,-36.83867 z" id="path6426" style="opacity: 0.22; fill: url(&quot;#linearGradient6579&quot;) rgb(0, 0, 0); fill-opacity: 1; stroke: none; filter: url(&quot;#filter4363-7&quot;);"/>
        </g>
        <g transform="translate(-752.94, 168.515)" id="g6428">
          <path d="m 690.86407,537.70013 c 0,62.30877 -50.51123,112.82001 -112.82,112.82001 -62.30877,0 -112.82001,-50.51124 -112.82001,-112.82001 0,-62.30877 50.51124,-112.82 112.82001,-112.82 62.30877,0 112.82,50.51123 112.82,112.82 z" transform="translate(-78.5937, -111.552)" id="path6430" style="fill: rgb(234, 168, 28); fill-opacity: 1; stroke: none;"/>
          <path d="m 690.86407,537.70013 c 0,62.30877 -50.51123,112.82001 -112.82,112.82001 -62.30877,0 -112.82001,-50.51124 -112.82001,-112.82001 0,-62.30877 50.51124,-112.82 112.82001,-112.82 62.30877,0 112.82,50.51123 112.82,112.82 z" transform="matrix(1, 0, 0, 1.00562, -78.5937, -114.573)" id="path6432" style="fill: url(&quot;#radialGradient6583&quot;) rgb(0, 0, 0); fill-opacity: 1; stroke: none;"/>
          <path d="m 690.86407,537.70013 c 0,62.30877 -50.51123,112.82001 -112.82,112.82001 -62.30877,0 -112.82001,-50.51124 -112.82001,-112.82001 0,-62.30877 50.51124,-112.82 112.82001,-112.82 62.30877,0 112.82,50.51123 112.82,112.82 z" transform="matrix(1, 0, 0, 1.00562, -78.5937, -114.573)" id="path6434" style="fill: url(&quot;#radialGradient6585&quot;) rgb(0, 0, 0); fill-opacity: 1; stroke: none;"/>
          <path d="m 585.64992,109.23765 c 0,19.60276 -30.64727,35.49393 -68.45259,35.49393 -37.80533,0 -68.45259,-15.89117 -68.45259,-35.49393 0,-19.602761 30.64726,-35.493937 68.45259,-35.493937 37.80532,0 68.45259,15.891176 68.45259,35.493937 z" transform="matrix(0.87963, 0, 0, 1, 45.7759, 245.922)" id="path6436" style="fill: url(&quot;#linearGradient6587&quot;) rgb(0, 0, 0); fill-opacity: 1; stroke: none;"/>
          <path d="m 494.46879,315.88513 c -44.64486,0.7251 -86.72321,31.11724 -101.28125,73.15625 -13.41801,36.45605 -5.86936,80.07388 19.59375,109.28125 24.45484,29.36708 64.79043,44.66734 102.72108,37.95981 33.18723,-5.38656 63.53888,-26.59245 79.33243,-56.17249 16.36591,-29.63054 18.32531,-67.00913 4.32149,-97.94357 -15.13354,-34.67069 -48.83239,-60.70739 -86.72663,-65.29644 -5.94776,-0.83309 -11.95729,-1.15455 -17.96087,-0.98481 z m 3.34375,2.53125 c 45.74786,-0.91102 89.4817,31.35854 102.21875,75.1875 11.13961,36.15611 1.66793,78.09562 -24.96875,105.03125 -24.66454,25.85514 -62.89845,38.15299 -98.05718,30.66605 -38.22286,-7.6514 -71.07255,-37.4631 -81.25532,-75.1973 -9.74582,-33.90659 -1.50741,-72.57936 21.81152,-98.84883 19.93872,-22.85706 49.7019,-37.11491 80.25098,-36.83867 z" id="path6438" style="opacity: 0.22; fill: rgb(43, 17, 0); fill-opacity: 1; stroke: none; filter: url(&quot;#filter4363-7&quot;);"/>
        </g>
        <g transform="translate(-545.882, 120.112)" id="g6440">
          <path d="m 494.37979,402.69641 c 0,22.0531 -2.37949,34.44286 -26.30354,34.2263 -22.02552,-0.19938 -28.205,-12.1732 -28.205,-34.2263 0,-22.0531 12.20215,-39.93067 27.25427,-39.93067 15.05212,0 27.25427,17.87757 27.25427,39.93067 z" transform="translate(-205.358, 48.1703)" id="path6442" style="fill: rgb(233, 167, 28); fill-opacity: 1; stroke: none;"/>
          <path d="m 263.46863,485.06154 c 17.59793,-3.00257 24.7175,-15.59959 24.95044,-30.51735 0.68007,-15.85676 -5.69946,-35.69745 -23.92871,-40.41581 -15.41007,-0.96838 -25.25559,14.15997 -27.33193,26.83709 -4.28949,18.0448 -0.67507,35.84102 19.07477,43.6108 1.78168,0.40549 3.90057,-2.58753 7.23543,0.48527 z" id="path6444" style="fill: url(&quot;#linearGradient6589&quot;) rgb(0, 0, 0); fill-opacity: 1; stroke: none;"/>
          <path d="m 268.49901,483.23956 c 16.96299,-2.97794 18.42964,-16.8089 18.65417,-29.02726 0.65554,-15.72669 -5.49382,-35.40463 -23.06535,-40.08428 -14.85407,-0.96044 -24.34436,14.04381 -26.34578,26.61695 -4.13472,17.89678 3.32987,42.38846 17.29656,42.33021 1.71739,0.40216 11.38469,0.0378 13.4604,0.16438 z" id="path6446" style="fill: rgb(153, 153, 153); fill-opacity: 1; stroke: none;"/>
          <path d="m 266.99369,483.08111 c 16.56685,-0.20498 19.93496,-14.07342 20.15949,-28.86881 0.65554,-15.72669 -5.49382,-35.40463 -23.06535,-40.08428 -14.85407,-0.96044 -24.34436,14.04381 -26.34578,26.61695 -4.13472,17.89678 2.53759,42.07155 17.77193,42.17176 1.71739,0.40216 9.80013,0.2755 11.47971,0.16438 z" id="path6448" style="fill: url(&quot;#radialGradient6591&quot;) rgb(0, 0, 0); fill-opacity: 1; stroke: none;"/>
          <path d="m 485.5063,400.16113 c 0,10.15143 -6.52673,18.38079 -14.57786,18.38079 -8.05114,0 -14.57787,-8.22936 -14.57787,-18.38079 0,-10.15143 6.52673,-18.38078 14.57787,-18.38078 8.05113,0 14.57786,8.22935 14.57786,18.38078 z" transform="matrix(1.17391, 0, 0, 1, -291.061, 50.7056)" id="path6450" style="fill: rgb(0, 0, 0); fill-opacity: 1; stroke: none;"/>
          <path d="m 485.5063,400.16113 c 0,10.15143 -6.52673,18.38079 -14.57786,18.38079 -8.05114,0 -14.57787,-8.22936 -14.57787,-18.38079 0,-10.15143 6.52673,-18.38078 14.57787,-18.38078 8.05113,0 14.57786,8.22935 14.57786,18.38078 z" transform="matrix(0.478261, 0, 0, 0.62963, 39.0764, 194.312)" id="path6452" style="fill: url(&quot;#linearGradient6593&quot;) rgb(0, 0, 0); fill-opacity: 1; stroke: none;"/>
        </g>
        <g transform="translate(-478.655, 120.112)" id="g6454">
          <path d="m 494.37979,402.69641 c 0,22.0531 -2.37949,34.44286 -26.30354,34.2263 -22.02552,-0.19938 -28.205,-12.1732 -28.205,-34.2263 0,-22.0531 12.20215,-39.93067 27.25427,-39.93067 15.05212,0 27.25427,17.87757 27.25427,39.93067 z" transform="translate(-205.358, 48.1703)" id="path6456" style="fill: rgb(233, 167, 28); fill-opacity: 1; stroke: none;"/>
          <path d="m 263.46863,485.06154 c 17.59793,-3.00257 24.7175,-15.59959 24.95044,-30.51735 0.68007,-15.85676 -5.69946,-35.69745 -23.92871,-40.41581 -15.41007,-0.96838 -25.25559,14.15997 -27.33193,26.83709 -4.28949,18.0448 -0.67507,35.84102 19.07477,43.6108 1.78168,0.40549 3.90057,-2.58753 7.23543,0.48527 z" id="path6458" style="fill: url(&quot;#linearGradient6595&quot;) rgb(0, 0, 0); fill-opacity: 1; stroke: none;"/>
          <path d="m 268.49901,483.23956 c 16.96299,-2.97794 18.42964,-16.8089 18.65417,-29.02726 0.65554,-15.72669 -5.49382,-35.40463 -23.06535,-40.08428 -14.85407,-0.96044 -24.34436,14.04381 -26.34578,26.61695 -4.13472,17.89678 3.32987,42.38846 17.29656,42.33021 1.71739,0.40216 11.38469,0.0378 13.4604,0.16438 z" id="path6460" style="fill: rgb(153, 153, 153); fill-opacity: 1; stroke: none;"/>
          <path d="m 266.99369,483.08111 c 16.56685,-0.20498 19.93496,-14.07342 20.15949,-28.86881 0.65554,-15.72669 -5.49382,-35.40463 -23.06535,-40.08428 -14.85407,-0.96044 -24.34436,14.04381 -26.34578,26.61695 -4.13472,17.89678 2.53759,42.07155 17.77193,42.17176 1.71739,0.40216 9.80013,0.2755 11.47971,0.16438 z" id="path6462" style="fill: url(&quot;#radialGradient6597&quot;) rgb(0, 0, 0); fill-opacity: 1; stroke: none;"/>
          <path d="m 485.5063,400.16113 c 0,10.15143 -6.52673,18.38079 -14.57786,18.38079 -8.05114,0 -14.57787,-8.22936 -14.57787,-18.38079 0,-10.15143 6.52673,-18.38078 14.57787,-18.38078 8.05113,0 14.57786,8.22935 14.57786,18.38078 z" transform="matrix(1.17391, 0, 0, 1, -291.061, 50.7056)" id="path6464" style="fill: rgb(0, 0, 0); fill-opacity: 1; stroke: none;"/>
          <path d="m 485.5063,400.16113 c 0,10.15143 -6.52673,18.38079 -14.57786,18.38079 -8.05114,0 -14.57787,-8.22936 -14.57787,-18.38079 0,-10.15143 6.52673,-18.38078 14.57787,-18.38078 8.05113,0 14.57786,8.22935 14.57786,18.38078 z" transform="matrix(0.478261, 0, 0, 0.62963, 39.0764, 194.312)" id="path6466" style="fill: url(&quot;#linearGradient6599&quot;) rgb(0, 0, 0); fill-opacity: 1; stroke: none;"/>
        </g>
        <path d="m 566.63529,482.55777 c 0,19.25271 -30.07972,34.86011 -67.18494,34.86011 -37.10522,0 -67.18495,-15.6074 -67.18495,-34.86011 0,0 0,0 0,0" transform="matrix(0.779164, 0, 0, 1.00332, -640.425, 161.783)" id="path6468" style="fill: none; stroke: rgb(0, 0, 0); stroke-width: 3.39302; stroke-miterlimit: 4;"/>
        <path d="m 566.63529,482.55777 c 0,19.25271 -30.07972,34.86011 -67.18494,34.86011 -37.10522,0 -67.18495,-15.6074 -67.18495,-34.86011 0,0 0,0 0,0" transform="matrix(0.779991, 0, 0, 0.929372, -640.838, 197.413)" id="path6470" style="fill: none; stroke: rgb(0, 0, 0); stroke-width: 3.39302; stroke-miterlimit: 4;"/>
        <path d="m 566.63529,482.55777 c 0,19.25271 -30.07972,34.86011 -67.18494,34.86011 -37.10522,0 -67.18495,-15.6074 -67.18495,-34.86011 0,0 0,0 0,0" transform="matrix(0.780705, 0, 0, 0.867843, -641.195, 227.056)" id="path6472" style="fill: none; stroke: rgb(0, 0, 0); stroke-width: 3.39302; stroke-miterlimit: 4;"/>
        <path d="m -313.78325,534.08996 c 1.58455,-10.14113 16.84084,-16.99218 27.75114,-16.99218 10.91031,0 14.70555,3.15221 14.54709,5.21213 0,0 -0.39124,6.31073 -6.06129,2.72937 -3.85961,-2.43784 -14.09547,-3.59083 -24.24513,3.60977 -5.6813,4.03055 -4.24289,7.94149 -7.27354,7.94149 -3.03064,0 -4.40136,-0.91603 -4.71827,-2.50058 z" id="path6474" style="fill: rgb(0, 0, 0); stroke: rgb(0, 0, 0); stroke-width: 0.521844px; stroke-linecap: butt; stroke-linejoin: miter; stroke-opacity: 1;"/>
        <path d="m -286.66321,518.08685 c -9.67413,0.553 -21.03226,4.29004 -24.6875,14.09375 2.39866,1.5748 2.97755,-2.46976 4.21875,-3.59375 7.26541,-9.05906 21.31341,-12.13258 31.75,-6.84375 2.09323,0.32042 0.1104,-2.68336 -1.1875,-2.46875 -3.23273,-0.68353 -6.6947,-1.46308 -10.09375,-1.1875 z" id="path6476" style="fill: url(&quot;#linearGradient6601&quot;) rgb(0, 0, 0); fill-opacity: 1; stroke: none; filter: url(&quot;#filter4798-2&quot;);"/>
        <path d="m -188.44983,534.72378 c -1.58455,-10.14113 -16.84084,-16.99218 -27.75114,-16.99218 -10.91031,0 -14.70555,3.15221 -14.54709,5.21213 0,0 0.39124,6.31073 6.06129,2.72937 3.85961,-2.43784 14.09547,-3.59083 24.24513,3.60977 5.6813,4.03055 4.24289,7.94149 7.27354,7.94149 3.03064,0 4.40136,-0.91603 4.71827,-2.50058 z" id="path6478" style="fill: rgb(0, 0, 0); stroke: rgb(0, 0, 0); stroke-width: 0.521844px; stroke-linecap: butt; stroke-linejoin: miter; stroke-opacity: 1;"/>
        <path d="m 466.27684,349.5717 c -9.67413,0.553 -21.03226,4.29004 -24.6875,14.09375 2.39866,1.5748 2.97755,-2.46976 4.21875,-3.59375 7.26541,-9.05906 21.31341,-12.13258 31.75,-6.84375 2.09323,0.32042 0.1104,-2.68336 -1.1875,-2.46875 -3.23273,-0.68353 -6.6947,-1.46308 -10.09375,-1.1875 z" transform="matrix(-1, 0, 0, 1, 250.707, 169.149)" id="path6480" style="fill: url(&quot;#linearGradient6603&quot;) rgb(0, 0, 0); fill-opacity: 1; stroke: none; filter: url(&quot;#filter4798-2&quot;);"/>
      </g>
      <path d="m -970.69572,471.14901 c 0,0 24.04749,-6.80111 45.00124,-6.97202 14.24528,-0.11619 42.82098,3.08352 61.48056,7.92275 7.06202,1.83149 10.54964,2.11039 16.56745,5.21364 11.50217,5.93141 16.20293,14.33452 17.82048,14.25815 4.07951,-0.19261 7.40029,-8.59083 7.40029,-8.59083 l -21.83603,-9.41483 -38.01606,-18.57928 c 0,0 -43.41669,-0.95073 -44.68433,-1.26764 -1.26764,-0.31691 -33.27556,4.75366 -33.27556,4.75366 z" id="path6516" style="fill: rgb(0, 0, 0); stroke: rgb(0, 0, 0); stroke-width: 1px; stroke-linecap: butt; stroke-linejoin: miter; stroke-opacity: 1;"/>
    </g>
  </g>
</svg>