<?xml version="1.0" encoding="UTF-8" standalone="no"?>
<!-- Created with Inkscape (http://www.inkscape.org/) -->

<svg
   xmlns:dc="http://purl.org/dc/elements/1.1/"
   xmlns:cc="http://creativecommons.org/ns#"
   xmlns:rdf="http://www.w3.org/1999/02/22-rdf-syntax-ns#"
   xmlns:svg="http://www.w3.org/2000/svg"
   xmlns="http://www.w3.org/2000/svg"
   xmlns:xlink="http://www.w3.org/1999/xlink"
   version="1.1"
   width="1600"
   height="1200.0457"
   id="svg2">
  <defs
     id="defs4">
    <linearGradient
       id="linearGradient3631">
      <stop
         id="stop3633"
         style="stop-color:#ffe200;stop-opacity:1"
         offset="0" />
      <stop
         id="stop3635"
         style="stop-color:#ffe200;stop-opacity:0.29333299"
         offset="1" />
    </linearGradient>
    <linearGradient
       id="linearGradient3611">
      <stop
         id="stop3613"
         style="stop-color:#ff9000;stop-opacity:1"
         offset="0" />
      <stop
         id="stop3615"
         style="stop-color:#ffde00;stop-opacity:1"
         offset="1" />
    </linearGradient>
    <linearGradient
       x1="360"
       y1="100.21932"
       x2="360"
       y2="850.2193"
       id="linearGradient3617"
       xlink:href="#linearGradient3611"
       gradientUnits="userSpaceOnUse" />
    <radialGradient
       cx="535.38086"
       cy="576.25378"
       r="101.31654"
       fx="535.38086"
       fy="576.25378"
       id="radialGradient3637"
       xlink:href="#linearGradient3631"
       gradientUnits="userSpaceOnUse" />
    <filter
       color-interpolation-filters="sRGB"
       id="filter3659">
      <feGaussianBlur
         id="feGaussianBlur3661"
         stdDeviation="6.6468037" />
    </filter>
    <filter
       color-interpolation-filters="sRGB"
       id="filter3677">
      <feGaussianBlur
         id="feGaussianBlur3679"
         stdDeviation="2.8486301" />
    </filter>
  </defs>
  <metadata
     id="metadata7">
    <rdf:RDF>
      <cc:Work
         rdf:about="">
        <dc:format>image/svg+xml</dc:format>
        <dc:type
           rdf:resource="http://purl.org/dc/dcmitype/StillImage" />
        <dc:title></dc:title>
      </cc:Work>
    </rdf:RDF>
  </metadata>
  <g
     transform="translate(504.745,278.369)"
     id="layer1">
    <g
       transform="translate(77.1429,71.4286)"
       id="g2830">
      <g
         id="g3671" />
      <g
         transform="matrix(1.6,0,0,1.6,-357.888,-510.149)"
         id="g3683">
        <path
           d="m -140,475.21932 0,-375 500,0 500,0 0,375 0,375 -500,0 -500,0 0,-375 z"
           id="path2834"
           style="fill:#fafafa" />
        <path
           d="m -140,475.21932 0,-375 500,0 500,0 0,375 0,375 -500,0 -500,0 0,-375 z"
           id="path2837"
           style="fill:url(#linearGradient3617) #000000;fill-opacity:1" />
        <path
           d="m 630.3352,576.25378 a 94.954338,94.954338 0 1 1 -189.90868,0 94.954338,94.954338 0 1 1 189.90868,0 z"
           transform="matrix(1.39589,0,0,1.39589,-348.922,-139.026)"
           id="path3629"
           style="fill:url(#radialGradient3637) #000000;fill-opacity:1;stroke:none;filter:url(#filter3659)" />
        <path
           d="m 630.3352,576.25378 a 94.954338,94.954338 0 1 1 -189.90868,0 94.954338,94.954338 0 1 1 189.90868,0 z"
           transform="translate(-136.97,89.1077)"
           id="path3619"
           style="fill:#ffe200;fill-opacity:1;stroke:none;filter:url(#filter3677)" />
        <path
           d="m -140,783.18414 c 0,-59.46355 0.17879,-67.30806 1.58293,-69.45104 1.58554,-2.41984 1.17681,-6.51378 -0.65032,-6.51378 -1.0228,0 -1.30003,-13.87896 -0.32783,-16.41247 0.33264,-0.86682 0.99442,-1.33524 1.47064,-1.04092 0.47621,0.29432 2.22525,-0.16785 3.88676,-1.02705 2.8367,-1.46691 3.12644,-1.43892 4.75161,0.45913 0.95188,1.11172 2.32803,2.02131 3.05811,2.02131 2.44367,0 7.70437,-3.2008 10.05058,-6.11514 1.27736,-1.58667 3.10385,-2.88486 4.05887,-2.88486 0.95501,0 2.6099,-0.66069 3.67752,-1.4682 3.04742,-2.30495 7.33596,-1.93614 8.35134,0.7182 0.826107,2.15955 8.107376,8.70472 9.781152,8.79233 1.541375,0.0807 5.308638,7.10977 5.308638,9.90504 0,1.77346 -0.829305,3.39656 -2.25,4.40366 -2.164285,1.53421 -2.179878,1.65035 -0.409304,3.04853 1.181581,0.93307 1.621096,2.14546 1.227422,3.38582 -0.368266,1.1603 0.004,2.44457 0.931882,3.21462 0.947864,0.78666 1.301783,2.04917 0.915566,3.26603 -1.491349,4.69882 6.304689,3.64723 10.405459,-1.40358 2.154691,-2.65387 2.79967,-2.85102 9,-2.75105 3.673436,0.0592 10.728975,1.04725 15.678975,2.1956 11.82541,2.74337 20.56301,2.85094 23.39501,0.28801 1.15775,-1.04774 2.10499,-2.71606 2.10499,-3.70737 0,-0.99131 1.57499,-3.05906 3.49997,-4.59501 2.16416,-1.72678 3.49998,-3.6648 3.5,-5.07781 3e-5,-1.92171 -0.29717,-2.12613 -1.86849,-1.28519 -2.26576,1.2126 -3.13148,0.49484 -3.13148,-2.5963 0,-3.06129 -2.02088,-2.99144 -7.57193,0.26169 -5.20423,3.04989 -5.94159,1.6069 -1.55721,-3.04741 1.57897,-1.67619 3.6651,-5.18511 4.63585,-7.79761 0.97075,-2.6125 2.05685,-4.75 2.41354,-4.75 0.35669,0 1.42552,-1.31534 2.37517,-2.92297 1.08353,-1.83425 2.90203,-3.18112 4.8823,-3.61606 1.73561,-0.38121 4.44819,-1.47914 6.02797,-2.43986 l 2.87232,-1.74677 -3.789,-0.62616 c -2.08396,-0.34439 -5.25151,-0.63112 -7.03901,-0.63717 -3.63076,-0.0123 -3.93309,-0.47078 -1.75,-2.65387 2.12065,-2.12065 1.86065,-3.60638 -0.5,-2.85714 -2.45134,0.77802 -2.75474,-1.62873 -0.44678,-3.54417 1.6888,-1.40158 8.59949,-2.99998 14.94678,-3.4571 2.2,-0.15844 4.54838,-0.33547 5.21862,-0.3934 2.26591,-0.19585 0.08698,-3.10533 -2.32561,-3.10533 -1.31615,0 -2.39301,-0.45 -2.39301,-1 0,-1.74612 7.82429,-1.07746 11.16501,0.95415 1.76734,1.07479 6.92736,5.57479 11.46671,10 4.53935,4.42522 8.73637,8.04585 9.3267,8.04585 0.59034,0 0.99212,-1.2375 0.89284,-2.75 -0.0993,-1.5125 0.14492,-4.16966 0.54266,-5.9048 0.44016,-1.92017 0.30891,-3.41083 -0.33537,-3.80902 C 26.47635,660.39568 26,658.26695 26,656.02497 c 0,-3.05629 -0.62143,-4.65223 -2.48342,-6.37787 -2.05408,-1.90366 -2.46376,-3.17452 -2.36966,-7.35101 0.10795,-4.79164 0.23475,-5.01908 2.48342,-4.4547 C 25.16187,638.22578 26,638.0008 26,637.20528 c 0,-2.68216 3.27666,1.60873 7.22264,9.45827 2.22731,4.43067 5.00089,8.698 6.16351,9.48295 1.16262,0.78495 3.78333,3.14745 5.82379,5.25 2.04047,2.10255 4.14195,3.82282 4.66994,3.82282 0.55861,0 0.88894,-4.02514 0.79006,-9.62705 -0.15834,-8.96969 -0.0163,-9.72912 2.08006,-11.12197 1.32924,-0.88316 2.25,-2.51244 2.25,-3.98136 0,-2.10814 0.35633,-2.397 2.34204,-1.89862 2.45258,0.61556 3.39632,-0.50711 5.65122,-6.72266 0.64191,-1.76938 1.55069,-2.65358 2.39455,-2.32976 0.80942,0.3106 2.70084,-1.26763 4.67196,-3.89835 1.82157,-2.43113 3.8482,-4.42023 4.50364,-4.42023 0.65544,0 1.7519,-0.675 2.43659,-1.5 1.40102,-1.68813 6.5534,-2.03162 7.5,-0.5 0.33992,0.55 1.97898,1 3.64235,1 1.97734,0 2.87856,0.43273 2.60327,1.25 -0.23157,0.6875 -1.37009,1.26352 -2.53003,1.28004 -1.15995,0.0165 -2.43298,0.35402 -2.82896,0.75 -1.46764,1.46764 -4.58631,0.67238 -5.10239,-1.30112 C 79.5237,619.28994 77,621.62221 77,625.23336 c 0,2.11203 0.5871,2.9165 2.47408,3.3901 1.36074,0.34152 4.14035,1.75171 6.1769,3.13375 2.03655,1.38204 4.82737,2.79505 6.20184,3.14002 2.97301,0.74618 9.90833,5.29569 12.59009,8.259 1.34277,1.48375 1.59576,2.42442 0.85205,3.16813 -1.49532,1.49532 0.43547,7.29308 3.33631,10.01828 1.844,1.73235 2.6007,1.92905 3.75039,0.9749 0.9811,-0.81424 1.64689,-0.86104 2.08833,-0.14678 0.35642,0.57671 1.71616,1.04856 3.02164,1.04856 1.49534,0 2.60847,0.74002 3.00837,2 0.78184,2.46334 1.97884,2.54428 3.69763,0.25 4.11192,-5.4887 11.43409,-7.33497 10.53996,-2.65763 -0.39949,2.08978 -0.0825,2.40763 2.40108,2.40763 1.57373,0 2.86133,0.45 2.86133,1 0,0.55 1.14545,1 2.54545,1 2.89556,0 7.45455,4.05216 7.45455,6.6258 0,0.9442 0.71087,2.50222 1.5797,3.46227 1.21876,1.34671 1.33382,2.205 0.50359,3.7563 -0.59186,1.10591 -0.83863,2.62963 -0.54836,3.38605 0.29026,0.75642 -0.16739,3.03902 -1.01701,5.07245 -1.58242,3.78727 -4.1296,4.87264 -5.15629,2.19713 -0.83213,-2.16849 -2.17106,-1.84157 -2.54208,0.62068 -0.25921,1.72026 -1.15748,2.19513 -4.75739,2.51501 -2.44082,0.21688 -5.17625,1.06257 -6.07874,1.87932 C 129.52956,693.95504 128,693.5333 128,690.63599 c 0,-3.54242 -2.0885,-2.60886 -3.49253,1.56116 -0.62168,1.8464 -2.82255,4.8199 -4.89082,6.60777 l -3.76048,3.25069 0.32459,7.81533 0.32459,7.81532 3.66506,0.59574 c 2.10739,0.34255 4.61469,0.0875 5.89945,-0.60007 1.22892,-0.65769 3.07262,-0.9766 4.09713,-0.70869 1.39794,0.36557 1.70757,0.0828 1.24088,-1.1334 -0.34201,-0.89129 -0.94036,-1.62052 -1.32965,-1.62052 -0.38929,0 -1.44058,-1.53666 -2.3362,-3.41481 -1.47356,-3.09007 -1.47912,-3.4721 -0.0585,-4.01725 2.1115,-0.81026 4.31645,1.17184 4.31645,3.88019 0,2.87488 4.16797,6.80838 6.33363,5.97734 0.90451,-0.34709 2.98639,-2.45569 4.62641,-4.68577 3.06286,-4.16485 3.24424,-4.10193 4.4871,1.55656 l 0.61419,2.79626 3.06067,-2.17939 c 3.41851,-2.43419 11.878,-3.88934 11.878,-2.04318 0,0.62153 1.2375,1.13694 2.75,1.14536 3.59393,0.02 5.19693,1.11284 5.73566,3.91021 0.24134,1.2532 0.84436,2.79512 1.34005,3.42651 1.418,1.80618 2.36194,9.64797 1.16136,9.64797 -0.57012,0 -1.46736,1.13307 -1.99389,2.51793 -0.52652,1.38487 -2.00623,2.91673 -3.28824,3.40415 -1.49527,0.5685 -2.74925,2.265 -3.49776,4.73207 C 163.40756,746.80499 152,755.30924 152,750.71932 c 0,-0.825 -0.47039,-1.5 -1.04531,-1.5 -0.66109,0 -0.79381,-1.34064 -0.36109,-3.64726 l 0.68423,-3.64726 -5.36392,0.71155 c -2.95015,0.39135 -5.93766,1.18772 -6.63891,1.76971 -0.94087,0.78084 -1.275,0.64843 -1.275,-0.50528 0,-0.85988 0.45,-1.84154 1,-2.18146 1.24728,-0.77086 1.313,-2.5 0.095,-2.5 -0.49774,0 -2.10371,2.04549 -3.56884,4.54554 -2.02458,3.45469 -3.10148,4.40664 -4.48741,3.96677 -1.2481,-0.39614 -2.48267,0.29951 -3.91228,2.20446 -1.56013,2.07885 -2.30357,2.45831 -2.93757,1.49936 -0.46685,-0.70613 -1.60034,-0.99548 -2.51887,-0.64301 -1.23442,0.47369 -1.67005,0.0913 -1.67005,-1.46613 0,-2.52666 -1.96943,-2.86623 -2.07047,-0.35699 -0.14363,3.5671 -0.98437,11.80997 -1.38992,13.62727 -0.23041,1.0325 0.27852,2.94172 1.13096,4.24272 0.92906,1.41792 1.30552,3.33912 0.93982,4.79619 -0.43003,1.7134 0.0804,3.26489 1.72978,5.25728 1.28693,1.5546 2.76582,3.61149 3.28643,4.57088 0.52061,0.95938 3.44796,3.88438 6.50522,6.5 3.05727,2.61561 10.87992,9.48066 17.38368,15.25566 6.50376,5.775 15.00841,12.77373 18.89923,15.55273 4.23529,3.02506 7.34936,6.03484 7.75986,7.5 0.37712,1.346 1.21322,4.47227 1.85802,6.94727 0.64479,2.475 1.84044,5.7608 2.65699,7.30178 1.71418,3.23495 1.10051,5.93865 -1.15175,5.07437 -1.14143,-0.43801 -1.53783,0.0819 -1.53783,2.01686 0,2.18861 -0.44936,2.60699 -2.8,2.60699 -3.33133,0 -5.2,-1.61735 -5.2,-4.50064 0,-2.17821 -2.12247,-7.47814 -3,-7.49119 -0.275,-0.004 -0.59821,2.31811 -0.71823,5.16043 -0.12003,2.84233 -0.74855,5.65466 -1.39671,6.24963 -0.87733,0.80534 -0.97572,0.69847 -0.38506,-0.41823 0.64468,-1.21881 0.54095,-1.26567 -0.5533,-0.25 -1.54155,1.43086 -5.35331,1.71692 -4.50095,0.33778 0.63981,-1.03524 -2.01835,-0.84851 -3.08347,0.21661 -1.22338,1.22338 -9.36228,0.789 -9.36228,-0.49967 0,-0.65741 1.2375,-2.49365 2.75,-4.08055 2.3681,-2.48458 1.89924,-2.31858 -3.37609,1.19528 -4.56516,3.04082 -7.12641,4.08055 -10.05192,4.08055 l -3.92583,0 0.89732,-6.25 c 1.46165,-10.18072 1.6706,-10.81221 4.421,-13.36119 2.08885,-1.93588 2.37752,-2.69392 1.39558,-3.66477 -0.97913,-0.96807 -1.90427,-0.45998 -4.42404,2.42973 -1.75231,2.00957 -3.92792,4.70957 -4.83469,6 -0.90676,1.29042 -1.96016,2.04283 -2.34088,1.67201 -0.78182,-0.76148 0.67916,-3.67442 4.81957,-9.60938 1.67222,-2.397 2.69112,-5.00982 2.4905,-6.38651 -0.28742,-1.97236 -0.79843,-1.4959 -3.33002,3.10488 -3.86596,7.02578 -6.00304,7.9232 -5.23519,2.19841 0.33901,-2.52751 0.1543,-4.13318 -0.47547,-4.13318 -0.61093,0 -0.78578,-1.2203 -0.42984,-3 0.33846,-1.69231 0.175,-3 -0.375,-3 -0.53625,0 -0.975,-0.87344 -0.975,-1.94098 0,-4.29806 -3.72324,-3.22316 -8.09743,2.33772 -2.27126,2.88744 -2.16055,4.12099 1.2209,13.60326 0.49034,1.375 1.97059,6.4375 3.28946,11.25 l 2.39793,8.75 -130.40543,0 -130.40543,0 0,-67.03518 z m 283.69334,57.78518 c 1.12308,-1.2375 2.88387,-3.6 3.91286,-5.25 l 1.87089,-3 -3.62589,3 c -3.552,2.93885 -6.59524,7.5 -5.00408,7.5 0.44234,0 1.72314,-1.0125 2.84622,-2.25 z M 113.39301,815.63753 C 113.72686,814.76755 114,812.4952 114,810.58787 c 0,-1.90733 0.70818,-4.83734 1.57374,-6.51114 2.38159,-4.60549 1.17608,-4.39453 -3.42753,0.59979 -4.64761,5.04206 -4.7603,5.45459 -2.62053,9.59246 1.70187,3.29105 2.9589,3.73589 3.86733,1.36855 z M 126.5,811.21932 c 1.57349,-3.04279 0.88964,-3.98964 -1.3,-1.8 -1.15297,1.15297 -1.70434,4.8 -0.72568,4.8 0.26088,0 1.17243,-1.35 2.02568,-3 z M -15.47349,779.0619 c 3.34308,-2.93526 3.54936,-3.44537 2.93187,-7.25 -0.36532,-2.25092 -1.06791,-4.52008 -1.5613,-5.04258 C -14.59631,766.24682 -15,764.58588 -15,763.07834 c 0,-3.50772 -1.62827,-4.50541 -3.93946,-2.41381 -2.5463,2.30438 -3.13419,0.31391 -2.09391,-7.08957 1.27934,-9.10489 -1.52734,-10.04704 -3.94644,-1.32474 -1.26784,4.57132 -3.41266,7.46261 -4.86849,6.56286 -1.89041,-1.16834 -1.3759,-4.59376 0.69001,-4.59376 1.7931,0 4.15829,-5.3273 4.15829,-9.36602 0,-2.15366 -1.64606,-2.08742 -2.88306,0.11602 -0.93143,1.65914 -1.01832,1.65688 -1.67344,-0.0437 -0.38005,-0.98652 -0.4344,-3.37497 -0.12077,-5.30766 1.16216,-7.16156 -2.13476,-8.82494 -4.71415,-2.37841 -0.88472,2.21114 -1.60858,4.842 -1.60858,5.84637 0,2.38119 -2.88073,8.1334 -4.073242,8.1334 -1.317114,0 -1.154454,-2.98197 0.635312,-11.64676 0.85913,-4.15934 1.34509,-7.77942 1.0799,-8.04461 -1.36391,-1.3639 -3.99596,5.59348 -4.652391,12.29781 -0.756471,7.72606 -2.334594,11.264 -3.578481,8.02248 -0.359957,-0.93803 -0.373734,-3.46112 -0.03062,-5.60686 0.665985,-4.16484 -1.095227,-6.82888 -2.064421,-3.12268 -0.698897,2.67259 -1.993143,2.6934 -2.833532,0.0456 -1.017937,-3.20723 -2.687897,-1.82411 -6.199375,5.13454 -3.553519,7.04196 -4.230931,12.34284 -1.701367,13.31352 3.09208,1.18654 5.112567,0.57323 6.236259,-1.89301 1.190341,-2.61251 2.63152,-3.19964 3.681954,-1.5 0.339919,0.55 2.391476,1 4.559017,1 2.952137,-3e-5 3.940987,0.40296 3.940987,1.60607 0,0.88335 1.32771,3.28247 2.95048,5.33137 1.9801,2.50009 2.76878,4.42008 2.39802,5.83788 -0.44616,1.70612 0.14529,2.40413 3.07403,3.62783 1.99456,0.83339 4.21285,1.29023 4.92953,1.01522 0.71667,-0.27502 2.52375,-0.0359 4.01573,0.53134 2.32731,0.88483 2.55991,1.31684 1.63727,3.04081 -1.74969,3.26933 2.30292,2.55595 6.52145,-1.14797 z M 117,774.21932 c 0,-0.55 -0.45,-1 -1,-1 -0.55,0 -1,0.45 -1,1 0,0.55 0.45,1 1,1 0.55,0 1,-0.45 1,-1 z M 2.21977,765.17529 c 0.48371,-3.29571 -0.63154,-4.93126 -1.61499,-2.36844 -0.89428,2.33048 -0.73387,5.41247 0.28172,5.41247 0.48758,0 1.08755,-1.36981 1.33327,-3.04403 z m -66.614013,-4.72128 c 0.608167,-0.40408 1.401913,-2.34679 1.763881,-4.31714 0.536729,-2.92165 0.258493,-3.93615 -1.508429,-5.5 l -2.166552,-1.91755 0.581418,3.01873 c 0.407688,2.11673 0.01174,3.76015 -1.325093,5.5 -1.04858,1.3647 -1.916516,2.81877 -1.928746,3.23127 -0.02842,0.95857 3.133656,0.94801 4.583521,-0.0153 z M 128,741.71932 c 0,-0.825 -0.45,-1.5 -1,-1.5 -0.55,0 -1,0.675 -1,1.5 0,0.825 0.45,1.5 1,1.5 0.55,0 1,-0.675 1,-1.5 z m 34,-3.5 c 0.84216,-1.57358 0.76049,-2 -0.38303,-2 -0.79937,0 -2.1652,-0.27314 -3.03518,-0.60699 -1.19311,-0.45784 -1.58179,0.0336 -1.58179,2 0,3.22456 3.37955,3.63483 5,0.60699 z m -238,-7.5 c 1.013429,-1.22111 0.963123,-1.5 -0.270566,-1.5 -0.833501,0 -1.774478,0.675 -2.09106,1.5 -0.316583,0.825 -0.194828,1.5 0.270566,1.5 0.465394,0 1.406371,-0.675 2.09106,-1.5 z m 13.541119,-8.56653 c 1.07627,-1.74144 -0.149522,-2.11024 -1.521063,-0.45764 -0.788749,0.95039 -0.864611,1.52417 -0.201518,1.52417 0.584886,0 1.360047,-0.47994 1.722581,-1.06653 z m 59.000001,-2 c 1.07627,-1.74144 -0.14952,-2.11024 -1.52106,-0.45764 -0.78875,0.95039 -0.86462,1.52417 -0.20152,1.52417 0.58488,0 1.36004,-0.47994 1.72258,-1.06653 z M 142.5,716.21932 c -0.33992,-0.55 -0.81648,-1 -1.05902,-1 -0.24254,0 -0.44098,0.45 -0.44098,1 0,0.55 0.47656,1 1.05902,1 0.58246,0 0.7809,-0.45 0.44098,-1 z m -256.41286,-17.59201 c 0.88916,-1.08427 0.25369,-2.40799 -1.15598,-2.40799 -0.40453,0 -1.23492,1.43261 -1.84531,3.18358 -0.85605,2.45566 -0.82126,3.36439 0.15217,3.97436 0.85202,0.53388 1.37432,0.0682 1.6078,-1.43359 0.1902,-1.22339 0.74879,-2.71575 1.24132,-3.31636 z M 139,685.09688 c 0,-1.03266 -0.40186,-1.87756 -0.89301,-1.87756 -1.01973,0 -2.10699,2.42749 -2.10699,4.70423 0,1.25609 0.27706,1.31072 1.5,0.29577 0.825,-0.68469 1.5,-2.08979 1.5,-3.12244 z m 4,-5.84238 c 0,-1.88804 -3.62717,-4.74134 -4.68392,-3.68459 -0.61321,0.61321 2.8598,5.57298 3.93392,5.61799 0.4125,0.0173 0.75,-0.85275 0.75,-1.9334 z M -11.51008,666.20301 c -0.34546,-0.55897 -1.04702,-0.75742 -1.55902,-0.44098 -1.38704,0.85723 -1.12841,1.45729 0.62812,1.45729 0.85746,0 1.27636,-0.45734 0.9309,-1.01631 z m 97.5554,-26.33837 c -0.79391,-0.79391 -1.58008,-0.79777 -2.82284,-0.0139 -2.50023,1.5771 -2.11079,4.61457 0.77752,6.06433 2.37955,1.19439 2.51555,1.10538 2.82284,-1.84763 0.17757,-1.70636 -0.17232,-3.59764 -0.77752,-4.20284 z m 377.87541,194.60468 c -0.0436,-8.6625 -0.26514,-26.325 -0.49232,-39.25 -0.22718,-12.925 -0.85845,-53.875 -1.4028,-91 -0.9882,-67.39453 -1.18307,-72.71542 -3.03701,-82.92401 -0.82829,-4.56094 -3.49832,-9.07599 -5.36719,-9.07599 -0.25422,0 -0.78391,3.00387 -1.17708,6.67526 -0.63746,5.95245 -0.85894,6.46679 -2.04549,4.75 -2.37347,-3.43412 -3.45311,-4.42526 -4.82038,-4.42526 -1.85358,0 -1.86584,7.54358 -0.0181,11.11677 0.79179,1.53115 1.43962,3.29376 1.43962,3.9169 0,1.82903 -2.38727,0.51316 -3.8328,-2.11264 l -1.33279,-2.42103 0.66877,2.5 c 0.36783,1.375 1.02306,6.55 1.45607,11.5 0.61892,7.07525 0.4936,9.33763 -0.58598,10.57874 -0.7553,0.86831 -1.37327,2.10581 -1.37327,2.75 0,1.77607 -1.81594,1.40043 -2.7978,-0.57874 -0.47749,-0.9625 -0.95211,-5.60861 -1.05471,-10.32468 -0.1026,-4.71607 -0.62775,-10.1131 -1.16701,-11.9934 C 436.44121,632.27095 436,624.83306 436,617.62261 c 0,-7.21045 -0.28958,-15.88044 -0.64351,-19.26665 -0.59602,-5.70247 -1.01665,-6.53581 -5.70076,-11.29439 -5.41064,-5.49666 -6.70349,-5.28565 -4.20804,0.6868 2.33355,5.58497 2.02088,7.20912 -1.53834,7.99086 -2.57341,0.56522 -2.98777,1.03874 -2.47592,2.82945 2.89158,10.11637 0.49494,10.44167 -4.79342,0.65064 -2.07947,-3.85 -4.14671,-7 -4.59386,-7 -1.97912,0 -1.64421,5.12723 0.54538,8.34952 2.64801,3.89688 4.10113,8.65048 2.64436,8.65048 -0.5395,0 -1.92361,-2.1375 -3.07579,-4.75 -1.15218,-2.6125 -2.16221,-4.525 -2.24451,-4.25 -0.0823,0.275 -0.30757,6.97309 -0.50059,14.88464 -0.19302,7.91156 -0.56043,14.59412 -0.81645,14.85014 -1.19303,1.19303 -2.56293,-1.26138 -3.62892,-6.50183 -1.45427,-7.14926 -4.07459,-13.20638 -5.71963,-13.22148 -0.6875,-0.006 -1.27555,-0.34897 -1.30677,-0.76147 -0.0312,-0.4125 -0.24112,-3.225 -0.46642,-6.25 -0.22531,-3.025 -0.6117,-7.75 -0.85865,-10.5 -0.24696,-2.75 0.0372,-7.12438 0.63143,-9.72085 0.92228,-4.02974 0.8001,-5.34591 -0.83457,-8.99049 l -1.91502,-4.26964 -0.56549,3.99049 -0.56549,3.99049 -1.27092,-3 c -0.69901,-1.65 -1.96883,-5.80087 -2.82183,-9.22415 -0.85299,-3.42329 -1.87406,-6.02443 -2.26903,-5.78032 -0.91867,0.56776 0.40218,8.9816 2.29841,14.64089 0.80414,2.39997 1.78681,5.8794 2.18369,7.73207 1.24347,5.80448 -1.76041,3.19889 -3.95498,-3.43058 l -1.96564,-5.93791 -0.66537,3.98643 c -0.39106,2.34292 -0.14046,5.73061 0.60784,8.21702 1.05872,3.51786 1.04147,4.42292 -0.10241,5.37226 -1.08929,0.90403 -1.58208,0.59867 -2.36746,-1.46702 C 381.55423,584.91666 380,585.68429 380,590.3301 c 0,4.07184 -0.0166,4.09031 -1.75,1.94918 -1.7178,-2.12183 -1.75436,-2.05485 -1.98689,3.63922 -0.67575,16.54734 -0.70725,16.7618 -2.51311,17.11002 -0.9625,0.1856 -1.75,0.97945 -1.75,1.76412 0,1.69953 -0.5019,1.76362 -3.06574,0.3915 -2.42638,-1.29856 -2.42774,-3.33012 -0.0147,-21.96482 1.0327,-7.975 1.66147,-14.72429 1.39728,-14.99843 -0.26419,-0.27413 -1.05567,0.28837 -1.75883,1.25 -2.06905,2.82959 -3.54951,2.02304 -3.674,-2.00157 -0.0638,-2.0625 -0.32659,-2.9376 -0.58398,-1.94466 -0.25739,0.99294 -0.99269,1.62648 -1.634,1.40787 -0.76564,-0.26098 -1.04326,-2.38332 -0.80851,-6.1808 0.2504,-4.05054 0.0257,-5.57825 -0.75,-5.09886 -0.60913,0.37647 -1.10751,1.07863 -1.10751,1.56037 0,0.48173 -0.48391,2.14268 -1.07535,3.69098 l -1.07534,2.8151 -1.38922,-2.5 -1.38922,-2.5 -0.0354,3.23821 c -0.0303,2.77077 0.28935,3.20382 2.21456,3 2.12523,-0.225 2.23087,0.0664 1.90499,5.25505 -0.18975,3.0213 -0.79072,6.3261 -1.33549,7.344 -0.94218,1.7605 -1.11339,1.73644 -3.51109,-0.49326 -1.38633,-1.2892 -2.93545,-3.41891 -3.44249,-4.73269 -1.50988,-3.91226 -2.17636,-1.6697 -2.56713,8.63779 -0.20331,5.363 -0.55961,10.30042 -0.79177,10.97204 -0.23515,0.68029 -1.94494,1.1639 -3.86031,1.09189 l -3.4382,-0.12925 0.25118,-4.59189 c 0.3919,-7.16408 1.55713,-13.65323 4.66702,-25.99059 3.25993,-12.93255 3.48422,-15.91131 1.40509,-18.66017 -0.8075,-1.06762 -1.4825,-3.37707 -1.5,-5.13211 -0.0175,-1.75504 -0.52946,-3.49856 -1.13772,-3.87448 -0.78814,-0.4871 -0.95022,1.50178 -0.56404,6.92154 0.54592,7.66163 -0.55674,10.77711 -2.55228,7.21129 -0.90459,-1.61642 -1.06699,-1.61559 -2.86832,0.0146 -1.05019,0.95041 -1.9221,2.44577 -1.93758,3.32303 -0.0155,0.87725 -1.61167,4.74501 -3.54709,8.59501 l -3.51896,7 0.48891,-7.25 c 0.4885,-7.24378 -0.0586,-8.56489 -2.38558,-5.76101 -0.67967,0.81894 -1.61192,1.2565 -2.07169,0.97235 -1.17842,-0.7283 -0.50255,-12.53693 0.86367,-15.08973 0.62349,-1.165 1.62379,-4.30543 2.22289,-6.97874 0.5991,-2.67331 1.81566,-5.66321 2.70346,-6.64423 0.88781,-0.98101 2.43346,-4.11003 3.43478,-6.95338 2.35496,-6.68714 7.27567,-14.86122 12.44636,-20.67537 2.25973,-2.54094 5.12078,-6.60961 6.35787,-9.0415 1.23709,-2.43188 6.20649,-8.50688 11.0431,-13.5 12.87783,-13.29453 22.8888,-25.31566 23.64,-28.38679 0.3621,-1.48038 1.09673,-2.97879 1.63251,-3.3298 1.58858,-1.04073 -0.29349,-2.99296 -2.27813,-2.36306 -1.40096,0.44465 -1.97226,-0.0779 -2.4467,-2.23804 -0.73736,-3.3572 -4.12696,-5.86271 -5.91916,-4.37531 -0.67794,0.56264 -1.79502,0.63566 -2.55347,0.16691 -1.75092,-1.08213 -0.56457,-7.98088 1.65105,-9.60097 0.86343,-0.63136 1.24956,-1.66619 0.85808,-2.29963 -1.08314,-1.75256 -2.18293,-1.38746 -3.28927,1.09194 -0.9865,2.21083 -1.0253,2.19693 -2.65282,-0.95034 C 371.74325,432.75593 371,429.39986 371,427.05469 c 0,-3.97912 -0.11129,-4.15265 -1.66612,-2.59782 -1.26833,1.26833 -1.74597,3.96881 -2.00054,11.31065 -0.18393,5.30448 -0.6368,10.13379 -1.00638,10.73178 -1.0009,1.6195 -2.17506,-2.08159 -2.25667,-7.11331 -0.0844,-5.20074 -2.39056,-5.35278 -2.89475,-0.19084 -0.17845,1.827 -1.06311,4.44914 -1.9659,5.82698 l -1.64145,2.50517 -1.30562,-3.19971 C 354.6837,440.45822 353,441.12088 353,445.61167 c 0,3.84645 -0.83004,4.9936 -2.56896,3.55042 -0.86811,-0.72047 -1.45204,-0.7178 -1.90103,0.009 C 347.36493,451.0559 346,450.27286 346,447.71932 c 0,-1.375 -0.28789,-2.5 -0.63976,-2.5 -1.212,0 -3.2967,3.50432 -3.32844,5.59501 -0.0347,2.28608 -3.28539,5.81807 -4.36295,4.74051 C 337.30098,455.18697 337,453.16099 337,451.05265 c 0,-4.22927 -2.34732,-5.43719 -3.32212,-1.70955 -0.43692,1.67077 -1.07176,1.99418 -2.97628,1.51617 -3.15769,-0.79253 -5.00474,1.28871 -7.91976,8.92389 -1.59019,4.16512 -3.67974,7.25881 -6.89367,10.20645 -2.53651,2.32634 -5.13366,4.22971 -5.77144,4.22971 -0.63778,0 -1.67219,1.125 -2.29868,2.5 -0.6265,1.375 -1.51685,2.5 -1.97857,2.5 -1.37008,0 -0.89295,-5.34533 0.66029,-7.39732 0.78989,-1.04353 1.19902,-2.28103 0.90918,-2.75 -0.95255,-1.54126 -3.26204,-0.89092 -3.89271,1.09617 -0.3402,1.07186 -1.49553,2.22719 -2.56739,2.56739 -2.1763,0.69073 -2.5762,3.45641 -0.76209,5.27052 0.91567,0.91567 0.68068,1.72544 -1.02877,3.54507 -1.424,1.51578 -2.43364,4.19997 -2.82605,7.51324 -0.64931,5.4824 -1.69416,6.59367 -2.73129,2.90493 -0.58152,-2.06828 -0.71705,-2.10696 -1.67809,-0.47897 -0.57502,0.97407 -1.46782,1.51001 -1.98402,1.19099 -1.70769,-1.05542 -0.95729,-6.88673 1.53933,-11.96202 1.35277,-2.75 2.47366,-6.04378 2.49086,-7.31952 0.0539,-3.9956 5.94201,-16.72182 9.14622,-19.76798 1.68498,-1.60188 3.75362,-4.23437 4.59696,-5.84999 2.30894,-4.42329 10.85519,-12.00439 19.48411,-17.2837 4.23281,-2.58971 8.24918,-5.74216 8.92527,-7.00544 0.86772,-1.62135 1.79095,-2.11861 3.13906,-1.69074 1.20025,0.38095 2.71921,-0.15425 4.08837,-1.44051 1.19822,-1.12567 3.75657,-2.70599 5.68523,-3.51184 1.92866,-0.80584 4.31274,-2.35589 5.29795,-3.44454 2.30947,-2.55192 3.45513,-12.5325 1.68363,-14.66703 -2.08634,-2.51388 -2.92398,-1.72942 -2.29461,2.14893 0.53933,3.32354 0.41616,3.59231 -1.31287,2.86481 -4.43432,-1.86575 -5.52886,-1.20406 -7.75082,4.68572 -1.18648,3.14499 -2.95477,6.51396 -3.92955,7.4866 -1.69585,1.69214 -1.74466,1.618 -1.13113,-1.71816 0.35266,-1.91764 1.2627,-4.79325 2.02232,-6.39025 2.04903,-4.3078 1.75584,-4.91885 -2.0628,-4.29917 -3.36341,0.5458 -3.45108,0.47288 -3.75,-3.11916 l -0.30607,-3.67803 -2.25,3.80716 c -1.2375,2.09394 -2.25,4.85659 -2.25,6.13922 0,1.28263 -0.82897,3.35579 -1.84216,4.60703 l -1.84216,2.27497 -0.64921,-3.24605 c -0.35707,-1.78533 -0.2031,-4.07963 0.34216,-5.09845 1.44767,-2.70499 1.211,-5.98388 -0.4319,-5.98388 -2.26849,0 -7.39238,4.82928 -10.19136,9.6054 -1.41648,2.41703 -2.80875,4.3946 -3.09394,4.3946 -0.28518,0 -0.21485,-2.025 0.1563,-4.5 1.04093,-6.9414 -2.69747,-5.25695 -6.26913,2.82474 -1.77814,4.02345 -2.46827,4.7181 -4.15543,4.18261 C 301.91043,415.3735 301,415.47944 301,415.96209 c 0,0.48266 -1.3395,2.24762 -2.97666,3.92215 -1.63716,1.67453 -4.29463,5.98212 -5.90549,9.57241 -3.14611,7.01208 -4.77766,8.81276 -5.7319,6.32605 -0.32996,-0.85986 -1.67678,-1.56338 -2.99294,-1.56338 -2.65142,0 -3.23965,-1.73788 -0.89301,-2.63837 1.86021,-0.71383 1.99445,-4.36163 0.16052,-4.36163 -0.73672,0 -1.85207,1.125 -2.47857,2.5 -0.62649,1.375 -1.73446,2.5 -2.46216,2.5 -0.74397,0 -2.83244,3.93884 -4.77144,8.99891 -1.89659,4.94939 -3.81617,8.99939 -4.26574,9 -0.44956,6e-4 -0.49409,-1.01141 -0.099,-2.24891 0.39514,-1.2375 1.02982,-4.95 1.41041,-8.25 0.38058,-3.3 0.87511,-6.675 1.09895,-7.5 0.22384,-0.825 -0.15552,-1.3875 -0.84302,-1.25 -1.51901,0.3038 -1.57402,-0.76756 -0.22202,-4.32359 1.42462,-3.74704 0.7396,-3.94316 -2.94465,-0.84308 -1.74229,1.46605 -3.3846,2.44873 -3.64959,2.18374 -0.71291,-0.71291 7.74926,-11.73809 12.04329,-15.69096 16.47787,-15.16864 48.89638,-31.147 68.02297,-33.52699 2.75,-0.3422 7.06563,-1.12239 9.59029,-1.73376 l 4.59029,-1.1116 -0.16404,-4.66219 c -0.19591,-5.56954 -0.9608,-7.04157 -3.65884,-7.04157 -1.17648,0 -1.84865,-0.52353 -1.6049,-1.25 0.23069,-0.6875 1.05569,-1.25862 1.83334,-1.26915 3.10879,-0.0421 2.1842,-2.00194 -1.08609,-2.30215 -4.79023,-0.43974 -5.75935,-1.66612 -3.42637,-4.33595 l 1.92637,-2.20451 -2.47251,1.68088 c -4.27807,2.90836 -8.1852,1.71651 -4.47289,-1.36443 2.64779,-2.19747 3.70873,-4.93247 2.48524,-6.40669 -2.78719,-3.35836 4.78529,-10.29731 14.16641,-12.98122 5.84856,-1.67325 13.54722,-2.10277 18.54375,-1.03458 2.61091,0.55817 3.25,0.37751 3.25,-0.9187 0,-2.50763 1.98969,-1.89912 2.08122,0.6365 0.0725,2.00812 0.22889,1.9275 1.45489,-0.75 1.80731,-3.947 1.81781,-5.84979 0.0285,-5.16317 -0.78947,0.30295 -1.63067,0.0136 -1.86935,-0.64301 -0.3329,-0.91582 -0.92694,-0.90274 -2.55104,0.0562 -3.20404,1.89178 -3.27817,1.60775 -0.79791,-3.05697 l 2.29003,-4.30696 -3.38679,-0.096 c -2.05625,-0.0583 -3.59829,0.45516 -3.92516,1.30696 -0.61303,1.59754 -6.32439,1.94206 -6.32439,0.3815 0,-0.5618 2.17556,-3.8243 4.83458,-7.25 4.02823,-5.1897 8.16542,-12.97075 8.16542,-15.35719 0,-0.3235 -1.125,-0.30582 -2.5,0.0393 -1.375,0.34511 -2.5,0.4327 -2.5,0.19465 0,-0.23805 1.4625,-3.28413 3.25,-6.76906 2.50143,-4.87681 3.32193,-5.83072 3.56231,-4.14152 0.42392,2.97914 3.18769,1.85055 3.18769,-1.3017 0,-1.31615 0.45728,-2.39301 1.01618,-2.39301 0.5589,0 1.78305,-1.6875 2.72034,-3.75 0.93729,-2.0625 1.79604,-3.90352 1.90832,-4.09116 0.11229,-0.18764 3.09388,1.27486 6.62576,3.25 7.06151,3.94902 11.14968,4.54289 12.6013,1.83052 1.27601,-2.38425 0.27334,-7.02142 -1.84183,-8.51817 -0.94918,-0.67165 -2.03963,-2.90869 -2.42323,-4.97119 -0.4668,-2.5098 -1.2352,-3.75 -2.32341,-3.75 -0.89427,0 -2.47522,-0.76858 -3.51323,-1.70796 -2.56979,-2.32564 -4.85418,-0.78302 -6.73937,4.55102 -0.80804,2.28632 -1.8595,4.15694 -2.33658,4.15694 -0.47707,0 -0.78189,-3.4875 -0.67736,-7.75 0.33984,-13.85871 0.28076,-14.17365 -3.01057,-16.04651 -3.75274,-2.13542 -3.87818,-4.19916 -0.25632,-4.21714 5.05411,-0.0251 7.45175,-1.10686 6.92424,-3.12406 -0.64708,-2.47445 0.97544,-2.38539 2.32022,0.12736 0.58566,1.09431 2.38605,2.67288 4.00087,3.50793 2.79284,1.44424 11.70253,13.78629 21.29769,29.50242 2.18264,3.575 5.25961,7.97816 6.83771,9.7848 1.5781,1.80663 2.86927,4.08311 2.86927,5.05882 0,0.97572 1.575,4.38958 3.5,7.58636 1.925,3.19678 3.5,6.37863 3.5,7.07078 0,0.69215 1.56658,4.35013 3.48129,8.12885 1.91472,3.77871 3.48972,7.36315 3.5,7.9654 0.0103,0.60226 0.91871,1.9095 2.01871,2.90499 1.1,0.99549 2,2.61367 2,3.59597 0,2.15494 1.60527,3.35174 2.51699,1.87654 0.36036,-0.58307 0.0685,-1.76698 -0.64847,-2.63093 -1.09601,-1.32062 -0.97876,-1.8339 0.73619,-3.22258 2.78493,-2.2551 3.71208,-6.16688 1.79404,-7.56937 -1.89153,-1.38313 -2.21313,-12.15943 -0.46059,-15.43408 1.51169,-2.82462 0.90099,-4.51961 -2.41004,-6.68908 -2.43078,-1.59271 -2.69197,-1.58816 -4.53419,0.079 -1.07515,0.973 -2.23963,3.28728 -2.58774,5.14284 -1.28998,6.87623 -2.40619,4.20037 -2.40619,-5.76832 0,-10.16341 1.33502,-16.64497 3.74451,-18.1797 1.76699,-1.12549 1.56211,-3.45526 -0.62283,-7.08228 -2.71117,-4.50059 -3.52006,-10.04251 -1.68774,-11.5632 1.24574,-1.03388 2.14432,0.21573 5.83288,8.11151 2.39816,5.13351 5.16114,12.70866 6.13997,16.83366 2.42036,10.19998 3.62359,14.77998 5.12292,19.5 0.69884,2.2 1.79673,5.95631 2.43976,8.34736 0.64303,2.39104 1.38715,4.12936 1.65359,3.86292 0.26644,-0.26644 0.64263,-7.39775 0.83598,-15.84736 0.29047,-12.69393 0.71546,-16.27686 2.44625,-20.62365 1.15209,-2.8934 2.1016,-7.1684 2.11002,-9.5 0.0183,-5.07384 1.06141,-7.0308 3.2914,-6.17507 1.14808,0.44056 2.0053,-0.15487 2.83056,-1.96613 1.31305,-2.88183 1.92805,-3.13275 3.59433,-1.46647 0.84212,0.84212 1.51974,0.20261 2.64897,-2.5 0.83456,-1.99738 1.98503,-3.6316 2.55661,-3.6316 0.57158,0 0.96683,-0.7875 0.87832,-1.75 -0.25334,-2.75495 2.50382,-8.34144 3.85999,-7.82103 0.67207,0.2579 2.61223,-0.22466 4.31147,-1.07235 4.08099,-2.03587 6.25901,-1.18482 5.4292,2.12142 -1.21021,4.82184 2.2268,2.78982 7.93125,-4.6891 1.52702,-2.00202 3.91598,-4.38673 5.30881,-5.29934 2.45743,-1.61017 2.51237,-1.59615 1.85548,0.47353 -0.37231,1.17307 -0.24862,2.67375 0.27489,3.33486 0.5235,0.6611 1.18068,3.34193 1.46039,5.95738 0.47934,4.48221 0.27932,4.99158 -3.4822,8.86758 l -3.99076,4.1122 2.62098,6.07443 c 1.76117,4.08173 2.29031,6.40511 1.61299,7.08243 C 514.4536,266.16572 514,267.89515 514,269.4545 c 0,2.49319 -0.23332,2.71032 -1.93426,1.8 -2.8234,-1.51104 -3.62455,-1.2989 -4.79486,1.26965 -0.77824,1.70805 -0.69951,2.93795 0.30405,4.75 0.74481,1.34484 1.37015,3.4998 1.38963,4.78879 0.0225,1.48432 0.76875,2.53538 2.03544,2.86663 2.80452,0.7334 2.4882,2.15581 -0.75,3.37258 -3.24136,1.21797 -9.23337,5.14162 -9.24317,6.05256 -0.0113,1.05611 18.28377,0.17262 21.32709,-1.02991 3.27946,-1.29584 4.66608,-0.74438 4.66608,1.85571 0,2.01537 5.41396,4.4854 7.36487,3.36011 3.58522,-2.06797 17.76959,-13.70402 18.60259,-15.2605 1.09642,-2.04867 16.21954,-12.421 20.46178,-14.0339 3.44412,-1.30945 20.00671,-1.33585 24.52824,-0.0391 2.36003,0.67684 5.41158,0.62531 9.6937,-0.1637 7.01573,-1.2927 8.76472,-0.61093 9.10916,3.5508 0.14299,1.72773 -0.40651,2.6954 -1.77775,3.13062 -1.09159,0.34645 -2.45007,1.49944 -3.01884,2.56219 -0.56876,1.06276 -1.91828,1.93228 -2.99893,1.93228 -2.50605,0 -2.4999,1.50929 0.0172,4.21105 1.49393,1.60353 1.71003,2.45512 0.87756,3.45818 -0.60744,0.73193 -0.71184,1.34078 -0.23199,1.35301 0.47984,0.0122 -0.22518,0.86587 -1.56671,1.89698 -2.28371,1.75526 -2.36337,2.12768 -1.25,5.84378 1.57063,5.2423 1.45678,8.30259 -0.39945,10.737 -1.49564,1.9615 -1.57683,1.93727 -4.2182,-1.25901 -1.48126,-1.79246 -3.23334,-3.25496 -3.89351,-3.25 -0.66017,0.005 -1.69879,-0.77849 -2.30804,-1.74099 -0.83905,-1.32553 -1.24057,-1.43052 -1.6554,-0.43287 -0.30122,0.72443 -1.55965,2.49363 -2.79651,3.93157 -2.11573,2.45967 -2.4405,2.53505 -5.48665,1.27329 -2.65783,-1.10091 -3.38231,-1.10733 -4.04452,-0.0358 -0.46179,0.74718 -1.54277,1.02285 -2.52816,0.64471 -1.7699,-0.67917 -1.7615,0.30173 0.0402,4.68961 0.66528,1.62027 0.36046,1.74785 -2.77202,1.16019 -2.01096,-0.37726 -3.78333,-0.23338 -4.13503,0.33566 -0.33853,0.54776 -1.51506,0.76069 -2.61452,0.47318 -2.55655,-0.66856 -2.51775,-0.38117 0.501,3.71051 3.99241,5.41141 2.76565,9.89724 -1.79911,6.57871 -9.7622,-7.09703 -13.76062,-8.37526 -7.45045,-2.38179 3.96735,3.76824 5.4293,6.80308 3.27719,6.80308 -0.77528,0 -1.68346,-0.44311 -2.01817,-0.9847 -0.33472,-0.54158 -1.59878,-0.93069 -2.80902,-0.86468 -1.21024,0.066 -2.98415,-0.21257 -3.94201,-0.61906 -2.53544,-1.07596 -3.25797,1.77641 -1.23289,4.86708 1.89673,2.89484 3.08969,14.60132 1.4879,14.60132 -0.55743,0 -1.01351,-0.675 -1.01351,-1.5 0,-1.64684 -0.4472,-1.75507 -3.67498,-0.88933 -1.60678,0.43096 -2.12927,1.27617 -2,3.23533 0.13068,1.98058 -0.34261,2.72631 -1.86949,2.9456 -1.49612,0.21488 -2.49756,-0.65652 -3.73382,-3.24898 -2.37183,-4.97378 -4.05989,-4.60621 -3.24862,0.70738 0.35689,2.3375 1.13829,5.51708 1.73645,7.06574 0.86713,2.24504 0.77985,3.12344 -0.43062,4.33391 -1.35757,1.35757 -1.90175,1.1814 -5.14395,-1.66529 -3.6036,-3.164 -3.63077,-3.16993 -4.4447,-0.96967 -0.76803,2.07618 -0.92371,2.10901 -2.5046,0.52812 C 528.75855,354.83501 528,353.22444 528,352.18308 c 0,-1.61949 -2.62253,-3.96376 -4.43426,-3.96376 -1.16897,0 -0.50717,2.80372 0.94659,4.01023 0.9741,0.80843 1.18144,1.65383 0.5826,2.37539 -0.58783,0.70829 -0.42152,2.03856 0.45223,3.61732 2.82068,5.09665 1.57268,6.7011 -4.79716,6.16729 -1.90967,-0.16003 -2.2519,1.48774 -0.78931,3.80041 0.76319,1.20677 1.52299,1.26485 4.23469,0.32369 1.81754,-0.63082 7.71171,-1.19376 13.09814,-1.25097 5.38644,-0.0572 14.61144,-0.73823 20.5,-1.51339 19.93286,-2.62391 29.90632,-2.81451 57.20648,-1.09323 30.35732,1.91403 38.24918,3.28512 46,7.99179 3.025,1.83692 7.975,4.38028 11,5.65191 8.53113,3.58625 12.0479,6.12274 11.39477,8.21852 -0.30834,0.98943 0.15169,2.8861 1.0223,4.21482 2.41306,3.68279 2.02207,4.82405 -1.41707,4.13622 -3.69067,-0.73813 -3.80185,0.25884 -0.38201,3.42569 2.72983,2.52788 9.68212,16.52397 9.09014,18.29992 -0.18703,0.56109 -1.66037,-0.52251 -3.27409,-2.40802 -7.62935,-8.91429 -18.9837,-17.81793 -20.62686,-16.17477 -0.57799,0.57799 -1.69268,0.80461 -2.47708,0.50361 -0.7844,-0.301 -2.0145,0.25728 -2.73354,1.24062 -0.75877,1.03769 -1.96676,1.53487 -2.87884,1.18487 -0.86432,-0.33167 -2.10949,0.0452 -2.76705,0.83752 -1.78107,2.14605 -2.83653,1.75887 -3.56951,-1.30944 C 652.0733,394.99451 649,393.32158 649,398.08446 c 0,1.57583 -0.96074,4.08652 -2.13497,5.57932 -1.93277,2.45711 -2.28248,2.56666 -3.69244,1.1567 -0.85661,-0.85661 -2.03338,-2.996 -2.61503,-4.75421 -1.25955,-3.8073 -3.47747,-4.8692 -4.22216,-2.0215 -0.32193,1.23106 -1.08661,1.82351 -1.93394,1.49836 -1.09199,-0.41903 -1.4094,0.64513 -1.43742,4.8192 l -0.036,5.35699 -2.54127,-3 c -1.3977,-1.65 -2.96456,-4.13427 -3.4819,-5.52061 -0.51734,-1.38633 -1.83258,-3.07764 -2.92276,-3.75847 C 622.29999,396.38972 622,396.45777 622,397.88985 c 0,0.92811 0.52969,3.1523 1.17708,4.94264 0.93281,2.57963 0.90527,3.58267 -0.13268,4.83333 -1.8244,2.19826 -3.65627,0.48816 -6.59484,-6.15648 -1.28673,-2.90951 -2.81427,-5.29002 -3.39453,-5.29002 -1.33802,0 -1.37509,1.68416 -0.055,2.5 0.55,0.33992 1,1.54658 1,2.68146 0,1.73532 -0.24236,1.86229 -1.52417,0.79848 -2.18509,-1.81346 -2.62103,-0.82489 -1.24447,2.82204 0.89364,2.36754 0.9088,3.45786 0.0599,4.30678 -1.17796,1.17796 -4.37337,-1.41571 -6.98243,-5.66754 -1.04233,-1.69862 -1.19854,-1.41009 -1.25,2.30878 -0.0648,4.68594 -2.31404,5.97368 -3.49324,2 l -0.66769,-2.25 -0.95538,2.35452 c -0.61088,1.50551 -1.49394,2.14785 -2.44894,1.78138 -0.90693,-0.34802 -1.49356,0.004 -1.49356,0.89548 0,0.80774 -0.68912,1.46862 -1.53138,1.46862 -0.84227,0 -1.79041,0.675 -2.10699,1.5 -0.31659,0.825 -1.10218,1.5 -1.74576,1.5 -0.64358,0 -2.63369,1.33674 -4.42247,2.97054 -3.23049,2.9506 -3.26548,2.95738 -5.21285,1.01001 -1.07828,-1.07828 -2.97753,-1.85253 -4.22053,-1.72053 -1.80516,0.19168 -2.21208,-0.21286 -2.02181,-2.01002 0.13102,-1.2375 -0.20648,-2.25 -0.75,-2.25 -0.54352,0 -0.98821,0.87344 -0.98821,1.94098 0,2.6973 -2.05788,3.70035 -3.51195,1.7118 -0.66474,-0.90903 -1.91992,-1.65278 -2.78933,-1.65278 -0.8694,0 -1.8596,-0.45122 -2.20044,-1.0027 -0.8243,-1.33375 -4.49833,0.61595 -4.49833,2.38712 0,0.72273 5.9625,4.35485 13.25,8.07137 32.21906,16.43126 52.20208,31.37042 70.54788,52.74111 5.28546,6.15694 8.84698,11.74268 13.67449,21.44655 3.5902,7.21671 6.52763,14.0584 6.52763,15.20374 0,1.14534 -0.87337,2.54986 -1.94083,3.12114 -1.55288,0.83108 -2.23198,0.62304 -3.39737,-1.0408 -1.41829,-2.02489 -1.48753,-1.98559 -2.63672,1.49649 -1.25583,3.8052 -2.01774,4.18546 -5.09082,2.5408 C 647.57445,519.45639 647,518.08491 647,515.56615 c 0,-2.51793 -0.85205,-4.55324 -2.86677,-6.84787 -1.57672,-1.79579 -3.18188,-5.0052 -3.56702,-7.13202 -0.82009,-4.52868 -3.63272,-11.36694 -4.67532,-11.36694 -1.51014,0 -1.53034,2.62065 -0.0445,5.76969 1.40827,2.98459 1.3974,3.41507 -0.12465,4.93712 -1.55659,1.55659 -1.76796,1.42686 -3.17945,-1.9513 -1.66326,-3.98074 -3.695,-5.79743 -4.33533,-3.87646 -0.22608,0.67824 -1.32295,2.08272 -2.43749,3.12107 -1.16382,1.08427 -1.77227,2.55026 -1.42935,3.4439 0.40159,1.04653 0.018,1.55598 -1.17152,1.55598 -0.97274,0 -2.32736,0.55874 -3.01026,1.24164 -0.98886,0.98886 -1.43364,0.93796 -2.18469,-0.25 -1.29135,-2.04256 -1.21349,-6.35182 0.1392,-7.70451 1.47134,-1.47134 0.10147,-3.58336 -1.84077,-2.83805 -0.83908,0.32198 -2.16263,0.0567 -2.94123,-0.58945 -1.07225,-0.88989 -1.69643,-0.89407 -2.57325,-0.0172 -1.63209,1.63206 -3.7576,1.43839 -3.7576,-0.34243 0,-1.99013 -0.97867,-1.89632 -2.60795,0.25 -1.72505,2.27246 -1.74693,4.25 -0.047,4.25 1.68031,0 4.88678,3.43488 4.01772,4.30393 -0.35289,0.3529 0.65862,2.33726 2.24782,4.40969 1.5892,2.07244 4.23945,5.8719 5.88945,8.44325 1.65,2.57135 5.7,8.66872 9,13.54972 6.56318,9.70753 7.92251,12.21365 12.53064,23.102 2.97909,7.03918 3.56378,11.69141 1.46936,11.69141 -0.55,0 -1.68834,-1.35 -2.52965,-3 -0.84131,-1.65 -2.25282,-4.125 -3.1367,-5.5 -0.88388,-1.375 -2.33809,-4.76884 -3.23159,-7.54186 -1.24246,-3.85609 -6.74152,-12.72159 -10.0837,-16.25681 -0.1553,-0.16427 -1.46046,-0.003 -2.90036,0.35841 -3.23077,0.81087 -3.42976,3.56165 -0.6117,8.45586 2.67878,4.65232 4.0203,7.66517 6.89466,15.4844 0.60655,1.65 1.01236,5.475 0.9018,8.5 -0.13193,3.60996 0.52422,7.39004 1.90939,11 1.16073,3.025 2.26283,7.0304 2.44913,8.90088 0.42261,4.24322 -1.80659,5.38081 -2.78293,1.42016 -0.83165,-3.37372 -4.26947,-7.2797 -6.42835,-7.30376 -2.08561,-0.0233 -3.95,-2.01379 -3.95,-4.21728 0,-0.99 -0.95313,-2.75313 -2.11806,-3.91806 -1.16493,-1.16493 -2.43479,-3.30243 -2.82191,-4.75 C 610.2858,561.45621 607,560.07612 607,562.646 c 0,2.50239 -1.89931,1.82267 -2.58936,-0.92668 -0.3451,-1.375 -0.96019,-2.5 -1.36687,-2.5 -0.40667,0 -0.77911,-1.39622 -0.82763,-3.1027 -0.12387,-4.35664 -1.01719,-4.76645 -2.30946,-1.05946 -1.46728,4.20906 -3.77028,4.02996 -2.97721,-0.23153 0.0915,-0.49153 -0.10955,-2.14971 -0.44672,-3.68485 -0.60386,-2.74937 -0.6417,-2.76251 -2.52706,-0.87715 -2.26835,2.26835 -1.97951,4.83513 1.79545,15.95569 2.88526,8.49962 5.11499,13.24033 8.73947,18.58129 2.67076,3.9356 3.80225,13.11157 1.30939,10.61871 -0.66,-0.66 -1.785,-1.2 -2.5,-1.2 -1.79713,0 -1.63912,2.65589 0.2,3.36163 1.55229,0.59567 2.12586,3.63837 0.68585,3.63837 -0.44778,0 -2.35053,-2.05052 -4.22834,-4.55671 l -3.4142,-4.5567 -1.52165,4.50725 c -0.83691,2.47899 -2.53416,5.44704 -3.77166,6.59566 -1.2375,1.14863 -2.25,2.79403 -2.25,3.65644 0,0.98297 -0.55968,1.35327 -1.5,0.99243 -1.08369,-0.41585 -1.5,0.10953 -1.5,1.89301 0,2.80116 -3.37113,3.54981 -4.36163,0.96862 -0.31658,-0.825 -1.69889,-1.5 -3.0718,-1.5 -1.42197,0 -2.93034,-0.81119 -3.50501,-1.88497 -0.55484,-1.03674 -2.09395,-2.15733 -3.42025,-2.49021 -1.66467,-0.4178 -2.60187,-1.53729 -3.02637,-3.61502 -0.33822,-1.65539 -0.89101,-4.3598 -1.22844,-6.0098 -0.68381,-3.34381 -1.54112,-3.72354 -3.3865,-1.5 -1.66864,2.01059 -3,1.89545 -3,-0.25945 0,-1.7087 -3.73903,-4.87984 -5.25,-4.45261 -1.06733,0.30178 -0.92749,-1.58777 0.28518,-3.85368 1.35223,-2.52666 -0.22613,-2.48573 -2.53518,0.0657 -2.46231,2.72082 -3.66708,2.51386 -2.91064,-0.5 0.80913,-3.22384 0.21951,-3.1491 -3.93524,0.49883 -3.3427,2.93493 -3.4926,2.9666 -7.0348,1.48658 C 537.62869,585.87299 536,584.83186 536,584.39111 c 0,-0.44075 -1.59103,-1.56007 -3.53561,-2.48738 -3.35274,-1.59881 -3.48615,-1.59546 -2.57917,0.0648 0.52605,0.96294 2.79208,3.52963 5.03562,5.70375 6.5562,6.35334 4.93961,7.59108 -3.14162,2.40538 -3.47845,-2.23212 -5.20575,-2.8318 -5.96623,-2.07132 -0.76047,0.76047 -0.45407,1.85383 1.05833,3.77653 1.17077,1.4884 2.12868,3.36201 2.12868,4.16359 0,0.80158 0.9,2.60158 2,4 2.5716,3.26926 2.53997,4.64734 -0.0909,3.95936 -1.75533,-0.45903 -2.00178,-0.19181 -1.53572,1.66513 0.38904,1.55003 -0.062,2.59736 -1.50748,3.50004 -1.9926,1.2444 -2.05473,2.31183 -0.37238,6.39834 0.51236,1.24455 0.25079,1.75 -0.9056,1.75 -1.2351,0 -1.47519,0.60106 -0.99858,2.5 0.89334,3.55937 -0.87326,3.14353 -5.30603,-1.24897 -2.19617,-2.17623 -3.05119,-2.70062 -2.03813,-1.25 3.64175,5.21464 5.05075,8.40032 3.88698,8.78824 -0.6227,0.20757 -1.13218,1.4098 -1.13218,2.67162 0,1.26182 -0.675,2.85442 -1.5,3.53911 -0.825,0.68469 -1.5,2.08979 -1.5,3.12244 0,1.97458 -2.44338,2.58721 -3.5,0.87756 -1.02706,-1.66181 -3.23421,-1.12438 -3.76818,0.91754 -0.38061,1.45545 -1.30696,1.87716 -3.84414,1.75 -2.75731,-0.1382 -3.5194,-0.69291 -4.35178,-3.16754 -0.555,-1.65 -1.54387,-3.34097 -2.19749,-3.75771 -0.65362,-0.41675 -1.70705,-2.32925 -2.34096,-4.25 -0.8843,-2.67953 -1.70258,-3.4923 -3.51597,-3.4923 -3.11563,0 -3.87186,-1.44029 -3.78485,-7.20843 0.0792,-5.24805 -1.10279,-6.18898 -2.87856,-2.29157 -1.20616,2.64722 -2.79656,3.3448 -2.84985,1.25 -0.0175,-0.68927 -0.70824,-0.35486 -1.53974,0.74547 -1.4403,1.90598 -1.63921,1.92013 -4.43516,0.31547 l -2.92724,-1.68 -0.66287,3.53342 c -0.36458,1.94339 -0.38495,8.10143 -0.0453,13.68454 0.33969,5.5831 0.84884,27.4761 1.13145,48.6511 0.28261,21.175 0.74608,56.05 1.02993,77.5 0.28385,21.45 0.75273,42.825 1.04194,47.5 0.81762,13.21642 1.29832,41.2024 0.73301,42.67557 -0.35837,0.93398 -2.6877,1.32443 -7.90121,1.32443 l -7.39301,0 -0.0793,-15.75 z m 41.70956,-204.5 c -0.33164,-1.2375 -0.61602,-2.7 -0.63195,-3.25 -0.0159,-0.55 -0.46518,-0.325 -0.99834,0.5 -1.50308,2.32584 -1.17328,5 0.61663,5 1.1885,0 1.45695,-0.59587 1.01366,-2.25 z M 376.11745,580.93677 c -1.66621,-1.66621 -2.57795,2.02079 -0.97933,3.9603 1.23895,1.50314 1.39209,1.44645 1.69654,-0.62807 0.18407,-1.25419 -0.13868,-2.7537 -0.71721,-3.33223 z M 433,581.3301 c 0,-0.48906 -0.88503,-1.95156 -1.96673,-3.25 -2.09904,-2.5196 -2.75318,-1.07447 -0.99809,2.20496 1.05753,1.976 2.96482,2.64829 2.96482,1.04504 z m -28.35982,-15.76493 c 0.97085,-2.04594 1.37042,-4.54286 1.01296,-6.33014 -0.37596,-1.87979 -0.1265,-3.23548 0.687,-3.7336 3.08066,-1.88632 4.50793,-10.38999 3.09921,-18.46505 -0.572,-3.27878 -0.43365,-3.62833 1.26067,-3.18526 1.57425,0.41168 2.14321,-0.3838 3.29205,-4.60269 0.76388,-2.80521 1.97817,-5.58944 2.6984,-6.18719 2.13683,-1.77341 1.51759,-4.26904 -2.09058,-8.42531 -4.09842,-4.721 -5.4549,-4.01076 -3.18322,1.66672 0.91686,2.29147 1.49137,4.34196 1.27669,4.55664 -0.21468,0.21468 -1.59033,-0.80967 -3.057,-2.27633 -1.46666,-1.46667 -2.88565,-2.44768 -3.1533,-2.18003 -0.26765,0.26765 0.1843,2.69833 1.00433,5.40151 0.82003,2.70319 1.49583,6.16095 1.50179,7.68393 0.01,2.45599 -0.27183,2.69811 -2.48918,2.14159 -2.33206,-0.58531 -2.5,-0.37684 -2.5,3.1034 0,3.36556 -0.16338,3.59647 -1.66865,2.3584 -1.77702,-1.46156 -1.76785,-1.12307 0.21029,7.7609 0.62534,2.80849 0.56621,2.78549 -2.91413,-1.13334 -3.84793,-4.33275 -4.47995,-3.78443 -2.12751,1.84576 0.825,1.9745 1.53163,5.51696 1.57029,7.87212 0.0386,2.35517 0.4124,5.15617 0.83055,6.22446 0.41815,1.06828 0.42708,3.76439 0.0199,5.99134 -0.40723,2.22695 -0.51592,4.41225 -0.24153,4.85622 0.76026,1.23013 3.17143,-1.1728 4.96101,-4.94405 z M 370,566.1603 c 0,-0.58246 -0.45,-0.7809 -1,-0.44098 -0.55,0.33992 -1,0.81648 -1,1.05902 0,0.24254 0.45,0.44098 1,0.44098 0.55,0 1,-0.47656 1,-1.05902 z m 244.61596,-9.49939 c -0.30426,-0.79288 -1.01731,-1.44159 -1.58458,-1.44159 -1.47616,0 -1.27894,4.7482 0.21862,5.26321 1.42133,0.48879 2.1923,-1.66821 1.36596,-3.82162 z M 602.1125,514.93182 C 601.29583,514.11515 601,514.22706 601,515.35265 c 0,1.98786 1.3447,3.33256 1.84167,1.84167 0.21083,-0.6325 -0.1173,-1.65063 -0.72917,-2.2625 z m -4.92917,-1.92917 c -0.71756,-0.71756 -1.18333,-0.7766 -1.18333,-0.15 0,1.33478 1.18261,2.51739 1.85,1.85 0.28417,-0.28416 -0.0158,-1.04916 -0.66667,-1.7 z m -176.12142,-4.12049 c -0.55682,-1.46456 -1.68741,-2.66284 -2.51241,-2.66284 -1.20859,0 -1.3047,0.51366 -0.49472,2.64408 1.52691,4.01608 2.06186,4.63928 3.09525,3.60589 0.56572,-0.56572 0.53154,-1.95731 -0.0881,-3.58713 z m 4.7226,-8.27436 c 2.22846,-6.04945 2.04858,-7.87225 -0.93437,-9.46868 -1.70742,-0.91378 -1.84525,-0.74849 -1.27394,1.52778 0.53511,2.13206 0.29338,2.55242 -1.46779,2.55242 -1.85373,0 -2.10841,0.58383 -2.10841,4.83333 0,2.65834 0.3,5.13334 0.66667,5.5 1.69447,1.69447 3.21233,0.22791 5.11784,-4.94485 z m 220.31929,-6.68468 c -1.28349,-1.28349 -2.58505,-0.2915 -1.63484,1.24598 0.36808,0.59556 1.12735,0.79971 1.68727,0.45366 0.683,-0.42212 0.66575,-0.98146 -0.0524,-1.69964 z m -44.66199,-4.03796 c -1.4623,-4.95213 -5.6688,-12.83484 -6.42057,-12.03172 -0.4458,0.47623 -1.11148,2.2955 -1.47929,4.04281 -0.57415,2.72747 -0.14921,3.75202 3.00353,7.24173 3.79233,4.19765 6.01538,4.53689 4.89633,0.74718 z M 620,482.16966 c 0,-1.77962 -2.99491,-6.95034 -4.02568,-6.95034 -1.48541,0 -1.16343,2.78175 0.64069,5.53518 1.66592,2.54252 3.38499,3.26121 3.38499,1.41516 z M 363.45295,409.0588 c 2.53507,-1.15505 3.45281,-2.83948 1.54705,-2.83948 -0.55,0 -1,-1.22143 -1,-2.71429 0,-2.35695 -0.18425,-2.52151 -1.39956,-1.25 -1.40651,1.47156 -3.22198,7.96429 -2.22695,7.96429 0.29282,0 1.67858,-0.52223 3.07946,-1.16052 z M 307,407.96932 c 0,-1.17109 -1.45675,-0.87974 -1.875,0.375 -0.20625,0.61875 0.13125,0.95625 0.75,0.75 0.61875,-0.20625 1.125,-0.7125 1.125,-1.125 z m 67.98943,-3.23727 c 1.34662,-1.62257 0.7124,-4.51273 -0.99027,-4.51273 -0.58498,0 -1.44627,1.0125 -1.91397,2.25 -1.3771,3.6437 0.52697,5.12718 2.90424,2.26273 z M 380,401.27834 c 0,-0.51754 -0.45,-1.2191 -1,-1.55902 -0.55,-0.33992 -1,0.0835 -1,0.94098 0,0.85746 0.45,1.55902 1,1.55902 0.55,0 1,-0.42344 1,-0.94098 z m -2,-7.61804 c 0,-2.11803 -0.40488,-3.30878 -1,-2.94098 -1.65785,1.02461 -1.09627,6.5 0.66667,6.5 0.18333,0 0.33333,-1.60156 0.33333,-3.55902 z m 17.5,2.55902 c 0.33992,-0.55 0.16803,-1 -0.38197,-1 -0.55,0 -1.27811,0.45 -1.61803,1 -0.33992,0.55 -0.16803,1 0.38197,1 0.55,0 1.27811,-0.45 1.61803,-1 z m 237.6125,-5.2875 C 632.29583,390.11515 632,390.22706 632,391.35265 c 0,1.98786 1.3447,3.33256 1.84167,1.84167 0.21083,-0.6325 -0.1173,-1.65063 -0.72917,-2.2625 z m -177.99778,-6.02688 c -3.88889,-6.29235 -7.03213,-7.47701 -5.69415,-2.14607 0.90724,3.61475 5.40836,8.03152 6.7835,6.65638 0.73271,-0.73271 0.40386,-2.09425 -1.08935,-4.51031 z m 5.95013,-5.56444 C 460.47918,378.24617 460,376.42122 460,375.28506 c 0,-1.13616 -0.45,-2.06574 -1,-2.06574 -0.55,0 -1,0.92235 -1,2.04966 0,2.62403 3.19126,8.83841 3.72605,7.25578 0.22201,-0.65701 -0.0755,-2.08993 -0.6612,-3.18426 z M 404,375.21932 c 1.43179,-2.67533 4,-2.56832 4,0.16667 0,1.19166 0.22585,1.94081 0.50189,1.66477 0.86509,-0.86509 -0.7355,-12.80509 -1.6415,-12.24516 -0.47321,0.29247 -0.86039,1.65168 -0.86039,3.02049 0,1.37013 -1.12366,3.5301 -2.5,4.80565 -2.5398,2.35381 -3.28731,4.58758 -1.53518,4.58758 0.53065,0 1.44648,-0.9 2.03518,-2 z m -22.34964,-0.31702 c 0.23934,-0.23935 0.70861,-2.17843 1.04282,-4.30908 l 0.60766,-3.8739 -2.12957,1.88612 c -1.90536,1.68753 -2.19464,1.71656 -2.74755,0.2757 -0.34308,-0.89407 0.11649,-2.34489 1.03316,-3.26155 1.01095,-1.01096 1.53326,-2.86258 1.34712,-4.7757 -0.36423,-3.74359 -1.95846,-3.68116 -3.20333,0.12543 -0.49463,1.5125 -1.73213,3.82319 -2.75,5.13486 -1.01787,1.31167 -1.85067,3.18667 -1.85067,4.16667 0,0.97999 -0.53096,1.95879 -1.17991,2.17511 -0.66291,0.22097 -0.89358,1.13945 -0.52645,2.0962 0.5235,1.36422 1.57512,1.61265 5.28751,1.24911 2.54872,-0.24959 4.82986,-0.64963 5.06921,-0.88897 z M 392,374.33282 c 0,-0.48758 -1.35,-1.08464 -3,-1.32681 -2.88635,-0.42362 -3.73865,0.14132 -2.33333,1.54664 0.98785,0.98786 5.33333,0.80874 5.33333,-0.21983 z m 119.42856,-3.48361 c 0.87038,-1.42249 0.50849,-2.242 -1.92856,-4.36723 l -3,-2.61615 -0.31165,2.62729 c -0.36791,3.10154 1.47491,7.00511 3.05791,6.47745 0.61097,-0.20366 1.593,-1.15827 2.1823,-2.12136 z M 517,369.37431 c 0,-1.25427 -3.9181,-4.57022 -4.59744,-3.89089 -1.19746,1.19747 0.79357,4.7359 2.66483,4.7359 1.06293,0 1.93261,-0.38026 1.93261,-0.84501 z M 358,353.1603 c 0,-0.51754 -0.45,-0.94098 -1,-0.94098 -0.55,0 -1,0.70156 -1,1.55902 0,0.85746 0.45,1.2809 1,0.94098 0.55,-0.33992 1,-1.04148 1,-1.55902 z m 59.80803,-8.9512 c 0.16942,-1.36938 0.95692,-3.90779 1.75,-5.64091 2.61462,-5.71372 1.00323,-6.08456 -3.09451,-0.71216 -2.29975,3.01513 -2.57497,3.95519 -1.61021,5.5 0.71822,1.15006 0.77761,1.86329 0.15516,1.86329 -0.55466,0 -1.00847,0.483 -1.00847,1.07332 0,2.23679 3.51121,0.31565 3.80803,-2.08354 z M 411,340.21932 c 0,-3.99262 -1.2721,-5.33926 -2.36163,-2.5 -1.08359,2.82379 -3.66406,1.50062 -5.85063,-3 -1.20245,-2.475 -2.57126,-4.5 -3.0418,-4.5 -0.47054,0 -0.71837,2.12588 -0.55073,4.72418 0.28041,4.34636 0.62469,4.90487 4.30479,6.98355 6.04104,3.41223 7.5,3.08003 7.5,-1.70773 z m 157.40804,-20.5 c -0.90093,-1.375 -1.83786,-2.5 -2.08207,-2.5 -0.49007,0 0.45299,1.81156 1.95217,3.75 1.72185,2.22635 1.81574,1.32291 0.1299,-1.25 z M 389,291.10129 c 0,-0.55 -0.45,-0.72189 -1,-0.38197 -0.55,0.33992 -1,1.06803 -1,1.61803 0,0.55 0.45,0.72189 1,0.38197 0.55,-0.33992 1,-1.06803 1,-1.61803 z m 31,-12.4653 c 0,-1.76593 -2.15276,-1.45839 -2.77083,0.39583 -0.21771,0.65312 0.31666,1.1875 1.1875,1.1875 0.87083,0 1.58333,-0.7125 1.58333,-1.58333 z M 409.6771,259.6184 c 0.63132,-1.6452 -1.45445,-3.65472 -2.87935,-2.77408 -0.43876,0.27117 -0.79775,1.36648 -0.79775,2.43402 0,2.33979 2.81001,2.59966 3.6771,0.34006 z m 175.18368,588.55803 c 1.29844,-1.07641 2.94769,-1.95711 3.66502,-1.95711 1.55712,0 9.4742,-8.76241 9.4742,-10.4858 0,-1.76404 -3.36537,-4.5142 -5.52402,-4.5142 -1.0266,0 -3.01617,1.08817 -4.42126,2.41816 -2.75082,2.60378 -9.09027,3.84925 -9.76036,1.91756 -0.22214,-0.64036 1.67669,-2.59575 4.2196,-4.34533 4.439,-3.0541 4.55483,-3.2569 2.90297,-5.08218 -1.33808,-1.47857 -2.02961,-1.64462 -3.1111,-0.74706 -1.87474,1.55589 -3.06837,0.12632 -3.47438,-4.16115 l -0.33145,-3.5 6.5,0 c 3.575,0 7.79433,0.36034 9.37628,0.80075 2.74888,0.76528 2.85089,0.67669 2.30307,-2 -0.66956,-3.27155 3.8427,-13.30075 5.98417,-13.30075 0.73506,0 1.33648,-0.80134 1.33648,-1.78076 0,-2.10413 5.01661,-4.28916 8.03516,-3.4998 1.30993,0.34256 2.58415,-0.14412 3.51057,-1.34085 1.42051,-1.83498 1.48909,-1.83353 2.95427,0.0625 2.22055,2.87359 1.8455,4.81033 -1.5,7.74596 -2.96573,2.60238 -4.09594,6.81291 -1.82874,6.81291 0.64419,0 2.04411,0.7875 3.11093,1.75 1.06682,0.9625 3.1122,1.75 4.54529,1.75 2.24066,0 2.6453,0.47591 2.88891,3.39773 0.15581,1.86875 -0.22173,4.00625 -0.83899,4.75 -1.36322,1.64258 -1.68363,1.57376 8.04204,1.72727 6.93883,0.10952 8.24319,0.42915 10.53412,2.58138 3.41701,3.21011 2.67683,6.98078 -2.25809,11.5033 l -3.61297,3.31104 2.6831,4.05445 2.68311,4.05444 -30.22436,0.0173 c -30.13994,0.0172 -30.21776,0.0118 -27.86357,-1.93981 z M 655,849.27834 c 0,-0.58246 0.45,-1.05902 1,-1.05902 0.55,0 1,0.19844 1,0.44098 0,0.24254 -0.45,0.7191 -1,1.05902 -0.55,0.33992 -1,0.14148 -1,-0.44098 z m 3.27083,0.33681 c 0.33229,-0.33229 1.1948,-0.36781 1.91667,-0.0789 0.79773,0.31922 0.56078,0.55618 -0.60417,0.60416 -1.05416,0.0434 -1.64479,-0.19293 -1.3125,-0.52522 z m 5.90443,-4.03036 c -0.68175,-2.54898 -0.99051,-4.88355 -0.68614,-5.18792 0.30437,-0.30438 3.3501,0.41329 6.76829,1.5948 5.46502,1.88901 6.47421,1.9783 8.36412,0.73998 2.5868,-1.69494 3.53907,-1.0004 2.77923,2.02703 -0.30955,1.23335 -0.11411,2.51976 0.4343,2.8587 1.67815,1.03716 5.85921,-1.12096 6.43463,-3.32134 0.40212,-1.53773 1.34598,-2.07672 3.63669,-2.07672 2.56146,0 3.09362,-0.39564 3.09362,-2.3 0,-2.79464 -1.74908,-4.73352 -3.62186,-4.01487 -1.71871,0.65954 -1.77502,-1.72402 -0.20928,-8.85884 0.64287,-2.92946 1.93444,-6.22629 2.87014,-7.32629 0.93571,-1.1 1.71961,-2.675 1.74199,-3.5 0.20462,-7.54171 1.90603,-15.33353 4.47635,-20.5 3.21359,-6.45946 5.14857,-12.8689 3.59524,-11.90889 -0.51349,0.31736 -2.06692,2.37227 -3.45205,4.56647 -2.06377,3.26921 -2.7786,3.77354 -3.95948,2.79349 C 695.64847,790.51261 695,789.39719 695,788.69167 c 0,-0.70551 3.98189,-6.83791 8.84865,-13.62755 9.7268,-13.5699 11.62535,-16.70414 10.68689,-17.64259 -0.34457,-0.34458 -1.56502,-0.0404 -2.7121,0.67598 -1.95883,1.22331 -2.0445,1.13873 -1.40943,-1.39159 0.37189,-1.48173 2.38307,-5.00988 4.46929,-7.84033 3.75499,-5.09453 6.1167,-8.9867 6.1167,-10.08053 0,-0.31116 -0.92544,-0.56574 -2.05654,-0.56574 -2.01968,0 -2.02454,-0.0582 -0.27153,-3.25 0.98176,-1.7875 4.01833,-5.60137 6.74795,-8.47526 5.27669,-5.5556 5.50179,-7.84112 0.48012,-4.87474 -1.67116,0.98718 -3.22766,1.60567 -3.4589,1.37443 -0.94165,-0.94164 2.43729,-4.08587 7.09367,-6.60093 3.40505,-1.83917 5.4825,-3.80505 6.65693,-6.29944 0.93896,-1.99426 3.64245,-5.14385 6.00775,-6.99908 7.26714,-5.7 9.93449,-9.68669 5.55055,-8.296 -4.06973,1.29102 2.91304,-3.77157 14.97553,-10.85745 6.17403,-3.62681 15.0521,-9.54786 19.72902,-13.15787 4.67693,-3.61001 8.78568,-6.56366 9.13057,-6.56366 0.34489,0 2.39287,-1.39854 4.55108,-3.10787 4.34971,-3.44504 6.89448,-7.59313 6.80499,-11.09247 -0.0562,-2.1989 -0.111,-2.21485 -1.25,-0.36411 -0.65515,1.06456 -2.20369,2.91616 -3.44119,4.11467 -1.2375,1.19852 -2.25,2.62028 -2.25,3.15946 0,0.53919 -0.87875,1.7756 -1.95278,2.74758 -1.88568,1.70652 -1.97541,1.67704 -2.61166,-0.858 -0.39056,-1.5561 -0.1563,-3.23082 0.57522,-4.11225 2.04198,-2.46043 0.26735,-1.67423 -2.52593,1.11905 -3.59079,3.59079 -4.01894,2.50425 -1.14389,-2.90297 l 2.41993,-4.55127 -2.63044,1.11493 c -1.44675,0.61322 -3.55945,1.92906 -4.6949,2.92409 -2.2243,1.94924 -5.43555,2.43242 -5.43555,0.81786 0,-1.41 5.86001,-6.8295 8.18124,-7.56622 1.07155,-0.3401 2.28574,-1.53063 2.69821,-2.64563 0.77663,-2.09943 5.6203,-4.19864 12.28656,-5.3249 4.20345,-0.71017 5.32191,-1.75806 4.41077,-4.13246 -0.46946,-1.22338 -0.90785,-1.30961 -2.00956,-0.39528 -1.17361,0.97401 -1.52671,0.22816 -2.1128,-4.46274 -0.78573,-6.28873 -2.31367,-6.1907 -3.39271,0.21768 -0.46619,2.76865 -1.08403,3.72578 -2.27507,3.52441 -0.92237,-0.15593 -1.91543,0.60687 -2.27825,1.75 C 792.4413,637.55499 791,636.47479 791,632.31294 c 0,-3.41405 0.25206,-3.84046 2,-3.38337 1.4319,0.37445 2,0.0307 2,-1.21025 0,-1.23071 -0.56981,-1.58425 -1.96521,-1.21935 -1.36593,0.3572 -2.16022,-0.1005 -2.60469,-1.5009 -0.63454,-1.99925 -0.65458,-1.99971 -2.59418,-0.0601 -1.33092,1.33093 -2.26783,4.32022 -2.93599,9.36753 -1.28046,9.67275 -1.82703,11.12314 -3.02148,8.01791 -0.50667,-1.31721 -0.65756,-3.22568 -0.33529,-4.24105 0.32226,-1.01537 0.27017,-2.35705 -0.11577,-2.98151 -0.78719,-1.2737 -3.62083,4.39162 -3.81007,7.61749 -0.20294,3.45949 -2.09458,3.15558 -2.61732,-0.42051 -0.69871,-4.77989 -2.16216,-4.71157 -4.5,0.21008 -1.36372,2.87092 -2.73296,4.31434 -4.30388,4.53704 -1.33442,0.18918 -2.69158,1.34636 -3.22525,2.75 -1.02446,2.69453 -2.97087,3.27645 -2.97087,0.88821 0,-1.15992 -0.42778,-1.3013 -1.75,-0.57836 -1.9446,1.06322 -4.74011,7.60654 -5.70931,13.36354 -0.39149,2.32542 -1.18393,3.75 -2.086,3.75 -0.80008,0 -1.45469,0.71713 -1.45469,1.59362 0,0.87649 -0.9,1.82897 -2,2.11663 -1.61628,0.42267 -2,1.36402 -2,4.90638 0,6.8627 -2.3412,5.55085 -6.9006,-3.86663 l -3.99418,-8.25 0.51538,6.5 0.51538,6.5 -2.37586,-2.77546 C 730.26858,671.03325 729,671.22373 729,674.50843 c 0,1.66547 -0.2335,1.76199 -1.57309,0.65023 -0.8652,-0.71805 -2.44934,-3.02315 -3.52032,-5.12244 -1.07098,-2.0993 -2.1024,-3.8169 -2.29204,-3.8169 -0.18965,0 -0.35692,1.2375 -0.37172,2.75 -0.0549,5.61014 -0.10142,5.68795 -2.24283,3.75 -1.93889,-1.75468 -2,-1.74663 -2,0.26322 0,3.29976 -1.04932,5.15509 -2.58276,4.56665 -0.77948,-0.29912 -1.42413,-1.5082 -1.43255,-2.68686 -0.008,-1.17865 -0.41913,-2.78099 -0.91269,-3.56075 -0.70312,-1.11084 -1.3681,-0.67789 -3.0719,2 l -2.17452,3.41774 0.47139,-4.81227 c 0.30532,-3.11693 1.25724,-5.64876 2.70207,-7.18671 1.70683,-1.81684 2.26242,-3.68108 2.36582,-7.93841 0.0784,-3.22995 -0.29588,-5.56368 -0.89235,-5.56328 -1.79935,10e-4 -5.47251,3.0601 -5.47251,4.55737 0,1.77092 1.66588,1.91217 2.27976,0.1933 0.24554,-0.6875 0.80528,-0.91526 1.24387,-0.50613 1.06504,0.99349 -2.39549,4.73994 -3.86759,4.18713 -0.63582,-0.23877 -1.92261,0.91658 -2.85953,2.56744 -1.70058,2.99644 -5.26433,4.0981 -6.01098,1.85816 -0.28595,-0.85786 -0.91465,-0.85786 -2.51759,0 -5.40143,2.89076 -5.17225,0.92343 0.68525,-5.88228 3.32574,-3.86412 6.04681,-7.27582 6.04681,-7.58156 0,-0.80425 -7.09303,3.70027 -9.29686,5.9041 -1.02839,1.02839 -2.12316,1.61645 -2.43281,1.3068 -0.50518,-0.50518 1.03721,-3.02069 6.45068,-10.52052 l 1.74451,-2.41686 -5.23276,0.61975 C 689.35474,645.84621 687,645.78212 687,645.36293 c 0,-0.41919 2.54734,-2.96137 5.66075,-5.6493 3.11342,-2.68793 5.16893,-5.05108 4.5678,-5.25146 -1.26272,-0.42091 -6.91173,2.28206 -9.48468,4.53827 -0.96587,0.84698 -1.99805,1.29804 -2.29372,1.00236 -0.29568,-0.29567 2.41776,-3.13224 6.02985,-6.30348 3.61209,-3.17124 6.35209,-5.98124 6.08889,-6.24444 -0.2632,-0.2632 -2.52387,0.72009 -5.02372,2.1851 -2.49984,1.46501 -4.54517,2.35805 -4.54517,1.98454 0,-0.79247 12.78916,-15.351 14.99843,-17.07344 2.55543,-1.99232 0.51733,-2.42501 -3.96817,-0.84244 -5.49286,1.938 -5.70086,1.90917 -3.53026,-0.48932 0.99549,-1.1 2.17646,-2 2.62439,-2 0.44793,0 4.85053,-2.29947 9.78355,-5.10994 8.49383,-4.83915 9.13567,-5.44484 12.11184,-11.42983 1.72849,-3.47594 5.17344,-8.93508 7.65545,-12.13142 2.48201,-3.19633 4.97252,-6.67063 5.53448,-7.72066 0.88754,-1.65837 0.58842,-1.60059 -2.27715,0.43987 -2.52331,1.79675 -3.15025,1.96166 -2.66666,0.70143 0.47544,-1.23898 0.21086,-1.49651 -1.06683,-1.03839 -1.37891,0.4944 -1.30313,0.15505 0.40216,-1.80093 1.15568,-1.32557 2.48828,-3.08513 2.96133,-3.91013 0.72671,-1.26739 0.47841,-1.25233 -1.60124,0.0972 -1.35372,0.87843 -3.45335,2.2114 -4.66584,2.96214 -6.5327,4.0449 -1.4093,-5.75275 7.91125,-15.12892 4.23369,-4.25896 7.34004,-8.32675 7.89583,-10.33964 0.83439,-3.02192 7.08413,-9.64922 14.02719,-14.87461 l 2.37025,-1.78387 -4.2133,0.61557 c -5.72923,0.83704 -7.00662,-0.15261 -4.13811,-3.206 1.7876,-1.90281 2.00627,-2.62809 0.98303,-3.26048 -1.08574,-0.67103 -1.08115,-1.19635 0.0262,-3.00281 1.16749,-1.90453 1.11441,-2.31889 -0.40783,-3.18371 -2.38365,-1.3542 -2.19827,-2.36956 0.67136,-3.67704 2.93989,-1.33951 2.48551,-5.21779 -0.61132,-5.21779 -1.29917,0 -1.84726,-0.56819 -1.63106,-1.69087 0.36984,-1.9204 11.51011,-6.64241 13.6939,-5.80442 0.75934,0.29139 1.93829,0.067 2.6199,-0.49872 2.18359,-1.81222 17.65102,-3.51403 29.50722,-3.24654 12.2789,0.27703 16.10975,1.16118 29.60771,6.83344 9.24471,3.88492 10.85797,4.10068 12.39035,1.65711 0.94724,-1.51049 1.01325,-1.44205 0.4823,0.5 -0.47511,1.73784 -0.19852,2.25 1.21512,2.25 1.00665,0 2.27447,1.0125 2.81739,2.25 1.72947,3.94204 6.3897,3.49803 11.55263,-1.1007 5.0433,-4.49218 4.71949,-6.00067 -0.92507,-4.30952 -9.37249,2.80807 -9.48727,-0.023 -0.15325,-3.77977 3.49829,-1.408 6.53206,-3.08432 6.74172,-3.72515 0.57621,-1.76123 -2.74851,-2.38363 -7.22802,-1.35311 -2.49316,0.57355 -4.3572,0.56193 -4.95,-0.0309 -0.60116,-0.60118 -0.42288,-0.95089 0.48478,-0.95089 2.64055,0 11.96435,-5.30789 11.96435,-6.81112 0,-1.25429 -1.50965,-1.38521 -9.75,-0.84556 -8.7661,0.57408 -9.55411,0.48806 -7.80887,-0.8524 1.06762,-0.82001 2.46127,-1.49092 3.09699,-1.49092 0.63572,0 2.18257,-0.89046 3.43745,-1.97881 1.25487,-1.08834 3.91122,-2.24199 5.903,-2.56366 1.99179,-0.32167 4.60422,-0.98302 5.8054,-1.46967 1.86637,-0.75614 2.16419,-0.5651 2.04798,1.31366 -0.0748,1.20917 -0.60759,2.52909 -1.18397,2.93317 -0.68548,0.48055 -0.6156,0.73998 0.20202,0.75 0.84084,0.0103 1.25,1.75014 1.25,5.31531 0,2.915 -0.5625,5.89625 -1.25,6.625 -1,1.06 -1,1.41667 0,1.78333 0.86333,0.31656 1.25,3.03611 1.25,8.79167 0,5.68889 -0.39667,8.51844 -1.25,8.91667 -0.98263,0.45856 -0.987,0.70665 -0.0204,1.15985 0.95865,0.4495 1.23617,19.85292 1.25955,88.06493 0.024,70.085 -0.22056,87.33784 -1.22956,86.73152 -0.84642,-0.50863 -0.80133,-0.19221 0.13746,0.96469 1.10488,1.36153 1.15558,2.25153 0.24241,4.25566 -0.67571,1.48303 -0.73669,2.27581 -0.14702,1.91137 0.67339,-0.41618 1.00759,24.43892 1.00759,74.93629 l 0,75.55902 -71,0 c -45.07541,0 -70.90872,-0.35202 -70.75,-0.96407 0.1375,-0.53024 -1.325,-1.81773 -3.25,-2.8611 -4.56034,-2.47174 -5.43028,-6.77775 -1.56529,-7.7478 1.40845,-0.3535 3.34932,-0.27777 4.31305,0.1683 0.96373,0.44606 5.80224,0.85645 10.75224,0.91199 4.95,0.0555 10.2375,0.46288 11.75,0.90523 2.5027,0.73194 2.75,0.5697 2.75,-1.80414 -3e-5,-2.23157 -0.43345,-2.60841 -3.00003,-2.60841 -1.75271,0 -3.90981,-0.90981 -5.18828,-2.18828 -1.20355,-1.20355 -3.73685,-2.34714 -5.62954,-2.54131 -4.98568,-0.51147 -8.85392,-2.82639 -9.58406,-5.7355 -0.71921,-2.86557 -3.59723,-3.39294 -5.90764,-1.08253 -0.79881,0.79881 -1.73096,1.17381 -2.07143,0.83333 -0.34048,-0.34047 -0.62594,0.24346 -0.63436,1.29762 -0.0128,1.60358 -0.17367,1.67164 -0.98469,0.41667 -0.67888,-1.05049 -0.97396,0.52277 -0.98469,5.25 -0.009,3.82312 -0.44892,6.75 -1.01531,6.75 -0.55,0 -1,-0.87344 -1,-1.94098 0,-2.5151 -1.6142,-3.50678 -2.39522,-1.47149 -0.33263,0.86683 -0.60478,3.48924 -0.60478,5.82759 0,5.33567 -0.92754,6.31403 -3.20436,3.37993 -1.51844,-1.95679 -1.92714,-2.07397 -2.77297,-0.79505 -0.54562,0.825 -1.00583,2.625 -1.02267,4 -0.0168,1.375 -0.36123,2.05 -0.76531,1.5 -0.98362,-1.33882 -3.55656,-1.82981 -2.75,-0.52478 0.4212,0.68152 -4.17385,1.02478 -13.71827,1.02478 l -14.35161,0 -1.23955,-4.63453 z m 125.15356,-1.7538 C 792.81331,843.72936 796,841.48546 796,839.1335 c 0,-1.1082 -6.08289,0.56147 -10.75,2.95074 -4.54145,2.32493 -5.71655,3.86043 -2,2.61338 1.2375,-0.41522 3.97297,-0.80521 6.07882,-0.86663 z M 809,835.12877 c 1.19797,-0.67776 1.08544,-0.85476 -0.55887,-0.87904 -1.13238,-0.0167 -2.93238,0.66789 -4,1.52137 -1.86514,1.49103 -1.84326,1.52544 0.55887,0.87904 1.375,-0.37001 3.175,-1.05463 4,-1.52137 z M 707,824.77834 c 0,-0.79254 -0.45,-1.7191 -1,-2.05902 -0.55,-0.33992 -1,0.30852 -1,1.44098 0,1.13246 0.45,2.05902 1,2.05902 0.55,0 1,-0.64844 1,-1.44098 z m 43.60703,-9.6101 c 3.51613,-1.6781 6.39297,-3.46226 6.39297,-3.96482 0,-0.50255 -0.9138,-1.40278 -2.03067,-2.00052 -1.67197,-0.8948 -2.90848,-0.51798 -7,2.13324 -2.97832,1.92988 -4.96933,3.95385 -4.96933,5.05159 0,2.37921 0.10034,2.36312 7.60703,-1.21949 z m 19.49677,-12.24512 c -1.28349,-1.28349 -2.58505,-0.2915 -1.63484,1.24598 0.36808,0.59556 1.12735,0.79971 1.68727,0.45366 0.683,-0.42212 0.66575,-0.98146 -0.0524,-1.69964 z m 6.58673,-7.33972 c 0.66634,-1.73646 -0.63229,-4.51133 -2.38465,-5.09545 -1.25059,-0.41687 -2.3972,3.32981 -1.63049,5.32782 0.73553,1.91678 3.24619,1.77147 4.01514,-0.23237 z M 819,794.71932 c 0,-1.55556 -0.56667,-2.5 -1.5,-2.5 -0.93333,0 -1.5,0.94444 -1.5,2.5 0,1.55556 0.56667,2.5 1.5,2.5 0.93333,0 1.5,-0.94444 1.5,-2.5 z m 7.05644,-0.75 c 1.85033,-2.21801 2.54769,-4.75 1.30823,-4.75 -0.96099,0 -5.36467,4.9675 -5.36467,6.05152 0,1.68984 2.13148,1.00594 4.05644,-1.30152 z m -78.54472,-92.57161 c -0.36395,-0.36395 -1.03855,0.01 -1.49912,0.82994 -0.46056,0.82042 -1.77681,2.57302 -2.925,3.89468 -3.50746,4.03739 -2.2668,3.84802 1.52618,-0.23295 1.95781,-2.10647 3.26189,-4.12773 2.89794,-4.49167 z m 65.32243,-54.1181 c 0.22704,-1.55126 -0.0935,-2.14211 -1,-1.84334 -0.73378,0.24184 -1.48452,1.46708 -1.6683,2.72276 -0.22704,1.55126 0.0935,2.14211 1,1.84334 0.73378,-0.24184 1.48452,-1.46708 1.6683,-2.72276 z m -0.71849,-13.40025 c 0.75833,-2.83562 -0.65723,-7.66004 -2.24758,-7.66004 -1.15797,0 -2.57678,6.07302 -2.05567,8.799 0.6029,3.15389 3.34963,2.4269 4.30325,-1.13896 z M 837,634.6603 c 0,-0.85746 -0.45,-1.2809 -1,-0.94098 -0.55,0.33992 -1,1.04148 -1,1.55902 0,0.51754 0.45,0.94098 1,0.94098 0.55,0 1,-0.70156 1,-1.55902 z m -62.65066,-8.90895 c 0.30982,-0.80739 0.13297,-1.73395 -0.39301,-2.05902 C 773.43035,623.36725 773,624.02784 773,625.1603 c 0,2.41457 0.55611,2.65816 1.34934,0.59105 z m 35.09004,-53.53203 c 0.6383,-2.4026 0.60372,-2.42437 -0.8876,-0.55887 -0.85348,1.06762 -1.55178,2.62012 -1.55178,3.45 0,2.11386 1.6197,0.19421 2.43938,-2.89113 z M 703.0316,768.12431 c -0.0346,-1.74717 3.64935,-5.55738 4.52581,-4.68091 0.29984,0.29983 -0.5887,1.83458 -1.97453,3.41054 -1.79743,2.04404 -2.52874,2.40818 -2.55128,1.27037 z M 708,749.50843 c 0,-0.57432 0.7875,-1.66182 1.75,-2.41667 1.61876,-1.26951 1.63998,-1.22245 0.28297,0.62756 -0.80687,1.1 -1.59437,2.1875 -1.75,2.41667 C 708.12734,750.36515 708,750.08275 708,749.50843 z M 138,709.6603 c 0,-0.85746 0.45,-1.2809 1,-0.94098 0.55,0.33992 1,1.04148 1,1.55902 0,0.51754 -0.45,0.94098 -1,0.94098 -0.55,0 -1,-0.70156 -1,-1.55902 z m 637,-52.38196 c 0,-0.58246 0.45,-1.05902 1,-1.05902 0.55,0 1,0.19844 1,0.44098 0,0.24254 -0.45,0.7191 -1,1.05902 -0.55,0.33992 -1,0.14148 -1,-0.44098 z m -88,-4.64567 c 0,-1.757 2.7933,-4.95338 3.61268,-4.134 0.42692,0.42691 -0.21129,1.76371 -1.41824,2.97065 C 687.9875,652.67626 687,653.19977 687,652.63267 z M 507,642.6603 c 0,-0.85746 0.45,-1.2809 1,-0.94098 0.55,0.33992 1,1.04148 1,1.55902 0,0.51754 -0.45,0.94098 -1,0.94098 -0.55,0 -1,-0.70156 -1,-1.55902 z m 209,-62.42638 c -1.26347,-0.80263 -1.05657,-1.39138 1.31217,-3.73374 l 2.81217,-2.78086 -0.31217,3.42299 c -0.33696,3.69486 -1.44633,4.59453 -3.81217,3.09161 z m 135.88485,-101.7646 c -0.0633,-0.4125 -0.0351,-1.5375 0.0629,-2.5 0.0979,-0.9625 -0.30027,-1.75 -0.88484,-1.75 -0.58457,0 -1.06286,0.62686 -1.06286,1.39301 0,2.00131 -2.9599,2.87507 -3.64973,1.0774 -0.31571,-0.82274 -0.023,-2.15982 0.65048,-2.97131 1.7385,-2.09477 -1.31678,-3.13177 -4.69375,-1.59312 -2.97939,1.3575 -2.94768,1.37385 -3.78188,-1.94986 -0.48393,-1.92813 0.10168,-3.46983 2.43163,-6.4017 1.68799,-2.12406 2.93354,-3.99746 2.76788,-4.16312 -0.16565,-0.16566 -2.06744,0.30601 -4.22618,1.04815 -3.90028,1.34085 -4.81522,2.54267 -5.94617,7.81055 -0.75435,3.51375 -3.81827,3.65638 -5.37033,0.25 -0.62649,-1.375 -1.79716,-2.5 -2.60149,-2.5 -2.68933,0 -2.79316,-2.08459 -0.28935,-5.80872 1.64223,-2.44263 2.66834,-5.67031 3.03342,-9.54173 0.49852,-5.28652 0.37795,-5.80501 -1.25083,-5.37907 -1.58445,0.41434 -1.67708,0.13902 -0.76568,-2.27557 0.9477,-2.51074 0.66636,-3.09939 -3.27185,-6.84572 -2.36979,-2.25433 -4.6663,-3.87778 -5.10334,-3.60767 -0.43705,0.27011 -1.07729,0.0338 -1.42275,-0.52521 -0.38454,-0.62212 0.88605,-1.01631 3.27587,-1.01631 2.47611,0 4.49439,-0.65234 5.51812,-1.78355 1.69117,-1.86872 0.75941,-2.39946 -12.71696,-7.24371 -6.28214,-2.2582 1.49915,-4.20379 9.66284,-2.41604 3.26328,0.71461 3.39292,0.01 0.78503,-4.26711 -1.65892,-2.72075 -2.73193,-3.31315 -7.03494,-3.88397 -2.7926,-0.37045 -4.92356,-1.13521 -4.73548,-1.69946 0.50764,-1.52291 6.8731,-4.70616 9.41077,-4.70616 1.21362,0 2.4847,-0.45 2.82462,-1 1.17103,-1.89476 5.52739,-0.9927 9.6587,2 2.27776,1.65 4.56538,3 5.08361,3 0.51823,0 2.07998,0.89495 3.47056,1.98878 1.66662,1.31097 3.33699,1.78583 4.90101,1.39328 1.82745,-0.45866 3.12105,0.18156 5.6294,2.78608 8.43092,8.75422 7.76152,5.65522 7.72218,35.74619 -0.0305,23.3286 -0.24045,26.97721 -1.58209,27.49205 -2.18482,0.8384 -6.36122,0.73789 -6.49852,-0.15638 z m -494.31279,-21.25 c -0.30935,-0.825 -0.17299,-2.85 0.30301,-4.5 l 0.86546,-3 0.71996,2.67756 c 0.81805,3.04236 -0.90552,7.4438 -1.88843,4.82244 z m -11.39538,-49.66713 c 0.48655,-2.50877 2.82332,-2.85325 2.82332,-0.4162 0,1.22833 -0.64569,2.08333 -1.57332,2.08333 -0.93124,0 -1.44138,-0.68037 -1.25,-1.66713 z"
           id="path2832"
           style="fill:#131313" />
      </g>
    </g>
  </g>
</svg>
