<?xml version="1.0" encoding="UTF-8" standalone="no"?>
<!-- Created with Inkscape (http://www.inkscape.org/) -->
<svg
   xmlns:dc="http://purl.org/dc/elements/1.1/"
   xmlns:cc="http://creativecommons.org/ns#"
   xmlns:rdf="http://www.w3.org/1999/02/22-rdf-syntax-ns#"
   xmlns:svg="http://www.w3.org/2000/svg"
   xmlns="http://www.w3.org/2000/svg"
   xmlns:sodipodi="http://sodipodi.sourceforge.net/DTD/sodipodi-0.dtd"
   xmlns:inkscape="http://www.inkscape.org/namespaces/inkscape"
   width="146.14061"
   height="105.07812"
   id="svg2"
   sodipodi:version="0.32"
   inkscape:version="0.46"
   sodipodi:docname="O.svg"
   inkscape:output_extension="org.inkscape.output.svg.inkscape"
   version="1.0">
  <defs
     id="defs4">
    <inkscape:perspective
       sodipodi:type="inkscape:persp3d"
       inkscape:vp_x="0 : 526.18109 : 1"
       inkscape:vp_y="0 : 1000 : 0"
       inkscape:vp_z="744.09448 : 526.18109 : 1"
       inkscape:persp3d-origin="372.04724 : 350.78739 : 1"
       id="perspective10" />
  </defs>
  <sodipodi:namedview
     id="base"
     pagecolor="#ffffff"
     bordercolor="#666666"
     borderopacity="1.0"
     gridtolerance="10000"
     guidetolerance="10"
     objecttolerance="10"
     inkscape:pageopacity="0.0"
     inkscape:pageshadow="2"
     inkscape:zoom="7.3754652"
     inkscape:cx="55.78326"
     inkscape:cy="57.962445"
     inkscape:document-units="px"
     inkscape:current-layer="layer1"
     showgrid="false"
     inkscape:window-width="1920"
     inkscape:window-height="992"
     inkscape:window-x="-5"
     inkscape:window-y="0" />
  <metadata
     id="metadata7">
    <rdf:RDF>
      <cc:Work
         rdf:about="">
        <dc:format>image/svg+xml</dc:format>
        <dc:type
           rdf:resource="http://purl.org/dc/dcmitype/StillImage" />
      </cc:Work>
    </rdf:RDF>
  </metadata>
  <g
     inkscape:label="Layer 1"
     inkscape:groupmode="layer"
     id="layer1"
     transform="translate(-1.4618262,-1.9430923)">
    <path
       style="font-size:144px;font-style:normal;font-variant:normal;font-weight:normal;font-stretch:normal;text-align:start;line-height:125%;writing-mode:lr-tb;text-anchor:start;fill:#ffff00;fill-opacity:1;stroke:#444444;stroke-width:1.87030089;stroke-linecap:butt;stroke-linejoin:miter;stroke-miterlimit:4;stroke-dasharray:none;stroke-dashoffset:0;stroke-opacity:0.97687857;font-family:Arial Black;-inkscape-font-specification:Arial Black"
       d="M 24.592897,54.547902 C 24.592888,38.811134 28.976406,26.559214 37.743451,17.792103 C 46.510468,9.025162 58.718549,4.6416535 74.367749,4.6415506 C 90.411359,4.6416535 102.77286,8.9594116 111.45232,17.594852 C 120.13158,26.186622 124.47125,38.241282 124.47137,53.758869 C 124.47125,65.024553 122.56443,74.27376 118.75087,81.506542 C 114.98095,88.69552 109.50156,94.306423 102.31268,98.339261 C 95.167469,102.32825 86.247022,104.32275 75.551304,104.32275 C 64.680133,104.32275 55.672015,102.59127 48.526914,99.128295 C 41.425597,95.665319 35.661264,90.185917 31.233925,82.690087 C 26.806567,75.194295 24.592888,65.813576 24.592897,54.547902 M 54.378908,54.679412 C 54.378871,64.41086 56.176117,71.402559 59.77064,75.654538 C 63.408908,79.906574 68.340368,82.032582 74.56501,82.032564 C 80.964881,82.032582 85.918251,79.950414 89.42514,75.786049 C 92.93188,71.621739 94.685277,64.147848 94.685362,53.364357 C 94.685277,44.290526 92.84421,37.671419 89.162129,33.507017 C 85.523739,29.298915 80.570369,27.194826 74.301999,27.194751 C 68.296528,27.194826 63.474668,29.320834 59.83639,33.572768 C 56.198028,37.82485 54.378871,44.860389 54.378908,54.679412"
       id="text2392" />
    <text
       xml:space="preserve"
       style="font-size:144px;font-style:normal;font-variant:normal;font-weight:normal;font-stretch:normal;text-align:start;line-height:125%;writing-mode:lr-tb;text-anchor:start;fill:#000000;fill-opacity:1;stroke:#444444;stroke-width:2;stroke-linecap:butt;stroke-linejoin:miter;stroke-miterlimit:4;stroke-dasharray:none;stroke-opacity:0.97687857;font-family:Arial Black;-inkscape-font-specification:Arial Black"
       x="316.71353"
       y="241.80655"
       id="text2413"
       sodipodi:linespacing="125%"><tspan
         sodipodi:role="line"
         id="tspan2415"
         x="316.71353"
         y="241.80655" /></text>
  </g>
</svg>
