<?xml version="1.0" encoding="UTF-8" standalone="no"?>
<!-- Created with Inkscape (http://www.inkscape.org/) -->
<svg
   xmlns:dc="http://purl.org/dc/elements/1.1/"
   xmlns:cc="http://creativecommons.org/ns#"
   xmlns:rdf="http://www.w3.org/1999/02/22-rdf-syntax-ns#"
   xmlns:svg="http://www.w3.org/2000/svg"
   xmlns="http://www.w3.org/2000/svg"
   xmlns:sodipodi="http://sodipodi.sourceforge.net/DTD/sodipodi-0.dtd"
   xmlns:inkscape="http://www.inkscape.org/namespaces/inkscape"
   width="146.14061"
   height="105.07812"
   id="svg2"
   sodipodi:version="0.32"
   inkscape:version="0.46"
   sodipodi:docname="Q.svg"
   inkscape:output_extension="org.inkscape.output.svg.inkscape"
   version="1.0">
  <defs
     id="defs4">
    <inkscape:perspective
       sodipodi:type="inkscape:persp3d"
       inkscape:vp_x="0 : 526.18109 : 1"
       inkscape:vp_y="0 : 1000 : 0"
       inkscape:vp_z="744.09448 : 526.18109 : 1"
       inkscape:persp3d-origin="372.04724 : 350.78739 : 1"
       id="perspective10" />
  </defs>
  <sodipodi:namedview
     id="base"
     pagecolor="#ffffff"
     bordercolor="#666666"
     borderopacity="1.0"
     gridtolerance="10000"
     guidetolerance="10"
     objecttolerance="10"
     inkscape:pageopacity="0.0"
     inkscape:pageshadow="2"
     inkscape:zoom="0.73453799"
     inkscape:cx="195.74594"
     inkscape:cy="-345.11489"
     inkscape:document-units="px"
     inkscape:current-layer="layer1"
     showgrid="false"
     inkscape:window-width="1920"
     inkscape:window-height="992"
     inkscape:window-x="0"
     inkscape:window-y="0" />
  <metadata
     id="metadata7">
    <rdf:RDF>
      <cc:Work
         rdf:about="">
        <dc:format>image/svg+xml</dc:format>
        <dc:type
           rdf:resource="http://purl.org/dc/dcmitype/StillImage" />
      </cc:Work>
    </rdf:RDF>
  </metadata>
  <g
     inkscape:label="Layer 1"
     inkscape:groupmode="layer"
     id="layer1"
     transform="translate(-1.4618262,-1.9430923)">
    <text
       xml:space="preserve"
       style="font-size:144px;font-style:normal;font-variant:normal;font-weight:normal;font-stretch:normal;text-align:start;line-height:125%;writing-mode:lr-tb;text-anchor:start;fill:#000000;fill-opacity:1;stroke:#444444;stroke-width:2;stroke-linecap:butt;stroke-linejoin:miter;stroke-miterlimit:4;stroke-dasharray:none;stroke-opacity:0.97687857;font-family:Arial Black;-inkscape-font-specification:Arial Black"
       x="316.71353"
       y="241.80655"
       id="text2413"
       sodipodi:linespacing="125%"><tspan
         sodipodi:role="line"
         id="tspan2415"
         x="316.71353"
         y="241.80655" /></text>
    <path
       style="font-size:144px;font-style:normal;font-variant:normal;font-weight:normal;font-stretch:normal;text-align:start;line-height:125%;writing-mode:lr-tb;text-anchor:start;fill:#00ffff;fill-opacity:1;stroke:#444444;stroke-width:1.73434258;stroke-linecap:butt;stroke-linejoin:miter;stroke-miterlimit:4;stroke-dasharray:none;stroke-opacity:0.97687857;font-family:Arial Black;-inkscape-font-specification:Arial Black"
       d="M 109.37819,81.859019 C 112.83324,84.257302 115.08924,85.761298 116.1462,86.371024 C 117.7314,87.265303 119.86544,88.301841 122.54836,89.480639 L 114.86576,104.96778 C 111.00405,103.09793 107.18308,100.86226 103.40284,98.260745 C 99.622438,95.699884 96.98028,93.769075 95.476353,92.468318 C 89.378982,95.110477 81.737044,96.43156 72.550509,96.43156 C 58.973815,96.43156 48.262905,92.895131 40.417745,85.82226 C 31.149843,77.448655 26.515897,65.680889 26.515905,50.51891 C 26.515897,35.804158 30.560436,24.381891 38.649531,16.25209 C 46.779236,8.0818024 58.120197,3.9966105 72.67245,3.9965238 C 87.509144,3.9966105 98.951733,7.9801786 107.00025,15.947228 C 115.08924,23.914433 119.13378,35.316374 119.13387,50.153068 C 119.13378,63.363911 115.88188,73.932553 109.37819,81.859019 M 88.220563,67.713287 C 90.415521,63.770398 91.51303,57.876347 91.513108,50.031127 C 91.51303,41.007177 89.826113,34.564372 86.452348,30.702685 C 83.119098,26.841137 78.505478,24.910328 72.611479,24.910258 C 67.123863,24.910328 62.672847,26.881781 59.258394,30.824635 C 55.843873,34.767611 54.136638,40.92588 54.136664,49.299451 C 54.136638,59.055163 55.803228,65.904454 59.136453,69.847344 C 62.469599,73.790285 67.042566,75.761738 72.855371,75.761721 C 74.725157,75.761738 76.493372,75.578825 78.160023,75.212966 C 75.842993,72.977312 72.184614,70.863582 67.184886,68.871776 L 71.51397,58.933178 C 73.952837,59.380352 75.842993,59.929107 77.184455,60.57945 C 78.566449,61.229863 81.228933,62.937107 85.171918,65.701181 C 86.106772,66.351585 87.122984,67.02229 88.220563,67.713287"
       id="text2437" />
  </g>
</svg>
