<?xml version="1.0" encoding="UTF-8" standalone="no"?>
<!-- Created with Inkscape (http://www.inkscape.org/) -->
<svg
   xmlns:dc="http://purl.org/dc/elements/1.1/"
   xmlns:cc="http://creativecommons.org/ns#"
   xmlns:rdf="http://www.w3.org/1999/02/22-rdf-syntax-ns#"
   xmlns:svg="http://www.w3.org/2000/svg"
   xmlns="http://www.w3.org/2000/svg"
   xmlns:sodipodi="http://sodipodi.sourceforge.net/DTD/sodipodi-0.dtd"
   xmlns:inkscape="http://www.inkscape.org/namespaces/inkscape"
   width="146.14061"
   height="105.07812"
   id="svg2"
   sodipodi:version="0.32"
   inkscape:version="0.46"
   sodipodi:docname="S.svg"
   inkscape:output_extension="org.inkscape.output.svg.inkscape"
   version="1.0">
  <defs
     id="defs4">
    <inkscape:perspective
       sodipodi:type="inkscape:persp3d"
       inkscape:vp_x="0 : 526.18109 : 1"
       inkscape:vp_y="0 : 1000 : 0"
       inkscape:vp_z="744.09448 : 526.18109 : 1"
       inkscape:persp3d-origin="372.04724 : 350.78739 : 1"
       id="perspective10" />
  </defs>
  <sodipodi:namedview
     id="base"
     pagecolor="#ffffff"
     bordercolor="#666666"
     borderopacity="1.0"
     gridtolerance="10000"
     guidetolerance="10"
     objecttolerance="10"
     inkscape:pageopacity="0.0"
     inkscape:pageshadow="2"
     inkscape:zoom="7.3754652"
     inkscape:cx="73.070305"
     inkscape:cy="63.385832"
     inkscape:document-units="px"
     inkscape:current-layer="layer1"
     showgrid="false"
     inkscape:window-width="1920"
     inkscape:window-height="992"
     inkscape:window-x="-5"
     inkscape:window-y="0" />
  <metadata
     id="metadata7">
    <rdf:RDF>
      <cc:Work
         rdf:about="">
        <dc:format>image/svg+xml</dc:format>
        <dc:type
           rdf:resource="http://purl.org/dc/dcmitype/StillImage" />
      </cc:Work>
    </rdf:RDF>
  </metadata>
  <g
     inkscape:label="Layer 1"
     inkscape:groupmode="layer"
     id="layer1"
     transform="translate(-1.4618262,-1.9430923)">
    <path
       style="font-size:144px;font-style:normal;font-variant:normal;font-weight:normal;font-stretch:normal;text-align:start;line-height:125%;writing-mode:lr-tb;text-anchor:start;fill:#ff0000;fill-opacity:1;stroke:#444444;stroke-width:1.95458293;stroke-linecap:butt;stroke-linejoin:miter;stroke-miterlimit:4;stroke-dasharray:none;stroke-dashoffset:0;stroke-opacity:0.97687857;font-family:Arial Black;-inkscape-font-specification:Arial Black"
       d="M 27.751611,71.128606 L 58.071019,69.316289 C 58.727548,74.014917 60.064137,77.594788 62.080776,80.055933 C 65.36358,84.038574 70.053346,86.029875 76.150105,86.029857 C 80.699134,86.029875 84.19301,85.023032 86.631754,83.009335 C 89.11727,80.950922 90.360053,78.579255 90.360123,75.894326 C 90.360053,73.343684 89.187614,71.061515 86.842796,69.047798 C 84.497848,67.034149 79.057707,65.132344 70.522373,63.342365 C 56.546799,60.344258 46.581042,56.361645 40.625051,51.394508 C 34.622116,46.427485 31.62067,40.095572 31.62068,32.39877 C 31.62067,27.342261 33.14484,22.576551 36.193209,18.101614 C 39.288442,13.582105 43.907864,10.046977 50.051496,7.4962207 C 56.241972,4.9009023 64.70701,3.6032003 75.446634,3.6030953 C 88.624841,3.6032003 98.660953,5.95249 105.555,10.650993 C 112.49578,15.304925 116.62279,22.733169 117.93601,32.935753 L 87.897988,34.61382 C 87.100661,30.183788 85.412351,26.961896 82.83304,24.948141 C 80.3005,22.934539 76.783173,21.927695 72.281037,21.927619 C 68.576069,21.927695 65.785655,22.688415 63.909784,24.209788 C 62.033833,25.68657 61.095888,27.498878 61.095918,29.64673 C 61.095888,31.212999 61.869694,32.622575 63.417364,33.875466 C 64.918043,35.173245 68.482273,36.381451 74.110055,37.500101 C 88.038616,40.364063 98.004384,43.272712 104.00737,46.226056 C 110.05709,49.134762 114.44203,52.759387 117.1622,57.09995 C 119.92906,61.440589 121.31255,66.295805 121.31265,71.665589 C 121.31255,77.975153 119.48354,83.79245 115.8256,89.117509 C 112.1675,94.442587 107.05565,98.492316 100.49004,101.26672 C 93.924283,103.99637 85.646836,105.36121 75.657677,105.36121 C 58.117882,105.36121 45.971366,102.13932 39.218117,95.695538 C 32.46483,89.251769 28.642664,81.062796 27.751611,71.128606"
       id="text2388" />
    <text
       xml:space="preserve"
       style="font-size:144px;font-style:normal;font-variant:normal;font-weight:normal;font-stretch:normal;text-align:start;line-height:125%;writing-mode:lr-tb;text-anchor:start;fill:#000000;fill-opacity:1;stroke:#444444;stroke-width:2;stroke-linecap:butt;stroke-linejoin:miter;stroke-miterlimit:4;stroke-dasharray:none;stroke-opacity:0.97687857;font-family:Arial Black;-inkscape-font-specification:Arial Black"
       x="316.71353"
       y="241.80655"
       id="text2413"
       sodipodi:linespacing="125%"><tspan
         sodipodi:role="line"
         id="tspan2415"
         x="316.71353"
         y="241.80655" /></text>
  </g>
</svg>
