<?xml version="1.0" encoding="UTF-8" standalone="no"?>
<!-- Created with Inkscape (http://www.inkscape.org/) -->
<svg
   xmlns:dc="http://purl.org/dc/elements/1.1/"
   xmlns:cc="http://creativecommons.org/ns#"
   xmlns:rdf="http://www.w3.org/1999/02/22-rdf-syntax-ns#"
   xmlns:svg="http://www.w3.org/2000/svg"
   xmlns="http://www.w3.org/2000/svg"
   xmlns:xlink="http://www.w3.org/1999/xlink"
   xmlns:sodipodi="http://sodipodi.sourceforge.net/DTD/sodipodi-0.dtd"
   xmlns:inkscape="http://www.inkscape.org/namespaces/inkscape"
   width="741.06927"
   height="843.28571"
   id="svg3250"
   sodipodi:version="0.32"
   inkscape:version="0.46"
   version="1.0"
   sodipodi:docname="Chav.svg"
   inkscape:output_extension="org.inkscape.output.svg.inkscape">
  <sodipodi:namedview
     id="base"
     pagecolor="#ffffff"
     bordercolor="#666666"
     borderopacity="1.0"
     inkscape:pageopacity="0.0"
     inkscape:pageshadow="2"
     inkscape:zoom="0.91902423"
     inkscape:cx="370.53464"
     inkscape:cy="421.64285"
     inkscape:document-units="px"
     inkscape:current-layer="layer1"
     showgrid="false"
     inkscape:window-width="1920"
     inkscape:window-height="992"
     inkscape:window-x="-5"
     inkscape:window-y="0"
     showguides="true"
     inkscape:guide-bbox="true" />
  <defs
     id="defs3252">
    <pattern
       inkscape:collect="always"
       xlink:href="#pattern6657"
       id="pattern2494"
       patternTransform="translate(435.31132,-0.4046853)" />
    <inkscape:perspective
       sodipodi:type="inkscape:persp3d"
       inkscape:vp_x="0 : 421.64285 : 1"
       inkscape:vp_y="0 : 1000 : 0"
       inkscape:vp_z="741.06927 : 421.64285 : 1"
       inkscape:persp3d-origin="370.53464 : 281.09524 : 1"
       id="perspective2479" />
    <pattern
       inkscape:collect="always"
       xlink:href="#pattern6085"
       id="pattern6657"
       patternTransform="translate(435.31132,-0.4046853)" />
    <pattern
       inkscape:collect="always"
       xlink:href="#pattern5175"
       id="pattern6085"
       patternTransform="translate(435.31132,-0.4046853)" />
    <pattern
       inkscape:collect="always"
       xlink:href="#pattern4627"
       id="pattern5175"
       patternTransform="translate(435.31132,-0.4046853)" />
    <pattern
       inkscape:collect="always"
       xlink:href="#pattern3853"
       id="pattern4627"
       patternTransform="translate(435.31132,-0.4046853)" />
    <pattern
       patternUnits="userSpaceOnUse"
       width="67.000027"
       height="68.658441"
       patternTransform="translate(435.23989,-1.1240105)"
       id="pattern3853">
      <g
         transform="translate(-299.58142,-77.484931)"
         id="g3842">
        <g
           id="g3836"
           transform="matrix(1,0,0,1.1436464,0,-11.130432)">
          <rect
             y="77.484932"
             x="299.58142"
             height="60.034676"
             width="18.24258"
             id="rect3822"
             style="opacity:1;fill:#ebdbc1;fill-opacity:1;fill-rule:evenodd;stroke:none;stroke-width:5;stroke-linecap:round;stroke-linejoin:round;stroke-miterlimit:4;stroke-dasharray:none;stroke-dashoffset:0;stroke-opacity:1" />
          <rect
             style="opacity:1;fill:#d7b881;fill-opacity:1;fill-rule:evenodd;stroke:none;stroke-width:5;stroke-linecap:round;stroke-linejoin:round;stroke-miterlimit:4;stroke-dasharray:none;stroke-dashoffset:0;stroke-opacity:1"
             id="rect3824"
             width="22.22278"
             height="60.034676"
             x="331.09134"
             y="77.484932" />
          <rect
             style="opacity:1;fill:#a39b8e;fill-opacity:1;fill-rule:evenodd;stroke:none;stroke-width:5;stroke-linecap:round;stroke-linejoin:round;stroke-miterlimit:4;stroke-dasharray:none;stroke-dashoffset:0;stroke-opacity:1"
             id="rect3826"
             width="13.26733"
             height="60.034676"
             x="317.82401"
             y="77.484932" />
          <rect
             y="77.484932"
             x="353.31412"
             height="60.034676"
             width="13.26733"
             id="rect3830"
             style="opacity:1;fill:#a39b8e;fill-opacity:1;fill-rule:evenodd;stroke:none;stroke-width:5;stroke-linecap:round;stroke-linejoin:round;stroke-miterlimit:4;stroke-dasharray:none;stroke-dashoffset:0;stroke-opacity:1" />
        </g>
        <rect
           y="118.28197"
           x="299.58142"
           height="9.9504967"
           width="67.000023"
           id="rect3832"
           style="opacity:0.4;fill:#786721;fill-opacity:1;fill-rule:evenodd;stroke:none;stroke-width:5;stroke-linecap:round;stroke-linejoin:round;stroke-miterlimit:4;stroke-dasharray:none;stroke-dashoffset:0;stroke-opacity:1" />
        <rect
           style="opacity:0.4;fill:#786721;fill-opacity:1;fill-rule:evenodd;stroke:none;stroke-width:5;stroke-linecap:round;stroke-linejoin:round;stroke-miterlimit:4;stroke-dasharray:none;stroke-dashoffset:0;stroke-opacity:1"
           id="rect3834"
           width="67.000023"
           height="9.9504967"
           x="299.58142"
           y="85.44532" />
      </g>
    </pattern>
  </defs>
  <metadata
     id="metadata3255">
    <rdf:RDF>
      <cc:Work
         rdf:about="">
        <dc:format>image/svg+xml</dc:format>
        <dc:type
           rdf:resource="http://purl.org/dc/dcmitype/StillImage" />
      </cc:Work>
    </rdf:RDF>
  </metadata>
  <g
     transform="translate(-7.143075e-2,-0.7193252)"
     id="layer1"
     inkscape:groupmode="layer"
     inkscape:label="Ebene 1">
    <path
       id="path3478"
       d="M 34.071431,37.885213 L 625.63005,7.2515988 L 718.45441,676.08551 L 115.88272,785.00503 L 34.071431,37.885213 z"
       style="fill:#a59de6;fill-opacity:1;fill-rule:evenodd;stroke:none;stroke-width:1px;stroke-linecap:butt;stroke-linejoin:miter;stroke-opacity:1" />
    <path
       style="fill:#e4e2e3;fill-opacity:1;fill-rule:evenodd;stroke:none;stroke-width:1.77582645;stroke-linecap:round;stroke-linejoin:round;stroke-miterlimit:4;stroke-dasharray:none;stroke-dashoffset:0;stroke-opacity:1"
       d="M 619.00567,784.87937 C 576.92014,783.0587 534.97473,764.86384 504.69501,735.29431 L 500.03602,730.74458 L 500.55279,726.12743 C 502.51795,708.56962 509.14803,693.0764 520.5747,679.34006 C 522.81796,676.64341 522.91232,676.57724 525.73791,675.72128 C 527.32092,675.24174 544.3588,670.13824 563.59988,664.38018 L 598.58366,653.91097 L 602.66807,654.23296 C 620.0354,655.60209 634.2749,659.13246 647.41889,665.32797 C 667.52192,674.80365 684.05931,691.93532 694.50699,714.10817 C 696.18746,717.67459 696.43064,718.50453 696.93583,722.39835 C 697.64353,727.85327 697.66491,738.50428 696.9798,744.31418 C 695.92265,753.27902 693.80426,763.45246 692.75241,764.61592 C 690.56707,767.03317 684.22769,771.29596 678.62997,774.11233 C 662.66085,782.14679 642.01623,785.87482 619.00567,784.87936 L 619.00567,784.87937 z"
       id="path6432" />
    <path
       style="fill:#8d8485;fill-opacity:1;fill-rule:evenodd;stroke:#564848;stroke-width:5;stroke-linecap:butt;stroke-linejoin:miter;stroke-miterlimit:4;stroke-dasharray:none;stroke-opacity:1"
       d="M 503.69583,709.39738 C 567.74829,767.55508 641.49567,780.75498 697.26092,738.8761 L 693.3541,765.15833 C 659.59051,791.97192 568.10092,803.22731 499.07868,729.6418 L 503.69583,709.39738 z"
       id="path6436"
       sodipodi:nodetypes="ccccc" />
    <path
       sodipodi:type="arc"
       style="fill:#ada7a7;fill-opacity:1;fill-rule:evenodd;stroke:none;stroke-width:7;stroke-linecap:round;stroke-linejoin:round;stroke-miterlimit:4;stroke-dasharray:none;stroke-dashoffset:0;stroke-opacity:1"
       id="path6434"
       sodipodi:cx="532.0376"
       sodipodi:cy="709.38837"
       sodipodi:rx="8.1688023"
       sodipodi:ry="7.8136368"
       d="M 540.2064,709.38837 A 8.1688023,7.8136368 0 1 1 523.8688,709.38837 A 8.1688023,7.8136368 0 1 1 540.2064,709.38837 z"
       transform="translate(-0.9940653,-0.3461707)" />
    <path
       style="fill:#ffffff;fill-opacity:1;fill-rule:evenodd;stroke:#564847;stroke-width:5;stroke-linecap:butt;stroke-linejoin:miter;stroke-miterlimit:4;stroke-dasharray:none;stroke-opacity:1"
       d="M 572.24273,694.48044 C 563.03138,703.3714 569.85784,717.964 581.83219,706.55606 C 593.80654,695.14812 604.7859,668.5732 635.10699,661.45007 L 613.08674,655.0571 L 572.24273,694.48044 z"
       id="path6438"
       sodipodi:nodetypes="czccz" />
    <path
       style="fill:#feffff;fill-opacity:1;fill-rule:evenodd;stroke:#564847;stroke-width:5;stroke-linecap:butt;stroke-linejoin:miter;stroke-miterlimit:4;stroke-dasharray:none;stroke-opacity:1"
       d="M 632.62083,659.67424 L 651.08943,666.77755 C 626.29931,666.86534 601.01052,707.56163 593.19748,717.21102 C 585.55941,726.64432 571.32576,722.96931 583.60802,705.1354 C 596.00566,687.13397 608.67845,670.73308 632.62083,659.67424 z"
       id="path6442"
       sodipodi:nodetypes="cczzc" />
    <path
       style="fill:#ffffff;fill-opacity:1;fill-rule:evenodd;stroke:#564847;stroke-width:5;stroke-linecap:butt;stroke-linejoin:miter;stroke-miterlimit:4;stroke-dasharray:none;stroke-opacity:1"
       d="M 648.2481,666.42238 C 621.16451,674.72911 599.67261,706.30778 593.19748,717.21102 C 586.79045,727.99959 601.15734,738.30443 608.11443,725.37982 C 614.99333,712.60047 633.06242,680.09112 662.09955,674.59119 L 648.2481,666.42238 z"
       id="path6444"
       sodipodi:nodetypes="czzcc" />
    <path
       style="fill:#ffffff;fill-opacity:1;fill-rule:evenodd;stroke:#564847;stroke-width:5;stroke-linecap:butt;stroke-linejoin:miter;stroke-miterlimit:4;stroke-dasharray:none;stroke-opacity:1"
       d="M 610.24542,721.82817 C 598.77915,741.45376 615.60155,739.62862 621.25554,733.90379 C 626.73703,728.35362 642.04634,692.05796 677.72682,687.7323 L 662.09955,673.88086 C 648.01133,674.60884 621.55735,702.46675 610.24542,721.82817 z"
       id="path6446"
       sodipodi:nodetypes="czccz" />
    <path
       style="fill:#000000;fill-opacity:1;fill-rule:evenodd;stroke:none;stroke-width:7;stroke-linecap:butt;stroke-linejoin:miter;stroke-miterlimit:4;stroke-dasharray:none;stroke-opacity:1"
       d="M 597.375,649.75 L 596.8125,649.9375 L 521.15625,672.65625 L 520.21875,672.9375 L 519.5625,673.65625 C 505.39828,689.19824 496.57835,709.19236 495.59375,730.90625 L 495.5,732.40625 L 496.53125,733.46875 C 528.31258,766.81537 569.00961,783.71551 606.25,788.09375 C 643.49039,792.47199 677.41367,784.5935 696.09375,767 L 696.90625,766.25 L 697.125,765.1875 C 700.29897,750.5483 703.22338,737.82088 699.65625,716.625 C 697.64343,704.66487 687.75306,688.9867 670.65625,675.5 C 653.55944,662.0133 629.08932,650.9992 597.9375,649.78125 L 597.375,649.75 z M 598.15625,656.8125 C 627.57413,658.06546 650.39107,668.44049 666.3125,681 C 682.32085,693.62808 691.22473,708.71817 692.75,717.78125 C 696.04743,737.37458 693.59598,748.43308 690.53125,762.53125 C 674.02105,777.45418 642.30095,785.29912 607.0625,781.15625 C 571.72268,777.00146 533.09905,761.00169 502.71875,729.6875 C 503.94449,710.57973 511.71784,692.99417 524.15625,679.0625 L 598.15625,656.8125 z"
       id="path6430" />
    <path
       style="fill:#e6e2e3;fill-opacity:1;fill-rule:evenodd;stroke:#e6e2e3;stroke-width:2.95873237;stroke-linecap:round;stroke-linejoin:round;stroke-miterlimit:4;stroke-dasharray:none;stroke-dashoffset:0;stroke-opacity:1"
       d="M 199.26111,814.12872 C 192.72095,813.52445 184.5158,810.46581 179.46968,806.75107 C 169.86696,799.68194 167.90826,788.40985 172.67213,767.63216 C 174.31498,760.46684 179.61555,749.01176 185.09166,740.79223 C 194.92118,726.03833 207.44142,715.3186 224.83301,706.76597 C 233.50304,702.50233 243.24054,698.73597 245.59365,698.73597 C 248.84951,698.73597 303.09453,703.36372 304.83322,703.78982 C 308.56507,704.70438 317.59226,708.20287 322.90824,710.79483 C 335.06823,716.72375 343.90679,724.05688 352.18637,735.08611 C 353.14622,736.3647 354.82215,738.55205 355.91068,739.94688 C 358.34691,743.06862 360.56596,747.63433 361.1492,750.72512 C 362.7088,758.99 356.54796,767.02058 341.70294,776.07312 C 303.79056,799.19222 266.68382,811.4799 226.8071,814.12019 C 219.72786,814.58893 204.29356,814.5937 199.26111,814.12873 L 199.26111,814.12872 z"
       id="path5961" />
    <path
       style="fill:#b3adad;fill-opacity:1;fill-rule:evenodd;stroke:#544645;stroke-width:5;stroke-linecap:butt;stroke-linejoin:miter;stroke-miterlimit:4;stroke-dasharray:none;stroke-opacity:1"
       d="M 166.6058,784.83039 C 197.08252,799.61736 230.10581,799.76154 265.08932,788.63447 C 310.18507,779.03957 335.08396,757.90361 356.81003,734.95461 C 367.43397,745.85154 367.73375,757.73172 354.69665,770.88208 C 327.55945,793.03596 294.12928,804.4019 259.17186,813.14968 C 199.23818,823.05562 185.05047,815.28698 173.79129,806.38686 C 164.28026,799.20137 168.02459,792.01588 166.6058,784.83039 z"
       id="path5965"
       sodipodi:nodetypes="ccccccc" />
    <path
       style="fill:#ffffff;fill-opacity:1;fill-rule:evenodd;stroke:#544646;stroke-width:4;stroke-linecap:butt;stroke-linejoin:miter;stroke-miterlimit:4;stroke-dasharray:none;stroke-opacity:1"
       d="M 212.67749,710.86208 C 234.18757,720.38414 260.8111,719.11114 273.12017,748.05757 C 283.59703,752.31267 287.58071,748.4513 284.53242,735.79997 C 272.06386,717.09092 250.97169,716.09964 231.27524,708.7487 C 218.01497,699.74425 217.81565,708.69862 212.67749,710.86208 z"
       id="path5967"
       sodipodi:nodetypes="ccccc" />
    <path
       style="fill:#ffffff;fill-opacity:1;fill-rule:evenodd;stroke:#544646;stroke-width:5;stroke-linecap:butt;stroke-linejoin:miter;stroke-miterlimit:4;stroke-dasharray:none;stroke-opacity:1"
       d="M 271.00679,742.98546 C 274.91831,761.95834 263.46484,758.81218 259.17185,755.24306 C 243.6701,731.49789 227.43497,725.22437 192.81171,726.07841 L 208.8734,711.70743 C 237.72002,715.08268 259.06234,724.96166 271.00679,742.98546 z"
       id="path5969"
       sodipodi:nodetypes="ccccc" />
    <path
       style="fill:#fffeff;fill-opacity:1;fill-rule:evenodd;stroke:#544646;stroke-width:5;stroke-linecap:butt;stroke-linejoin:miter;stroke-miterlimit:4;stroke-dasharray:none;stroke-opacity:1"
       d="M 191.96636,726.07841 C 237.9606,723.58356 252.89006,744.69663 256.6358,753.12968 C 260.44791,761.71214 250.86533,771.02726 241.41946,761.16053 C 231.97359,751.2938 227.9306,739.59994 180.97678,742.1401 L 191.96636,726.07841 z"
       id="path5973"
       sodipodi:nodetypes="czzcc" />
    <path
       style="fill:#fffeff;fill-opacity:1;fill-rule:evenodd;stroke:#544646;stroke-width:5;stroke-linecap:butt;stroke-linejoin:miter;stroke-miterlimit:4;stroke-dasharray:none;stroke-opacity:1"
       d="M 172.52327,759.04715 C 190.71052,751.13588 211.93361,754.18491 223.24439,766.65532 C 229.22236,769.16197 235.49579,773.58912 239.30608,762.00588 C 234.47142,743.04427 209.24057,741.41943 182.24481,741.29475 L 172.52327,759.04715 z"
       id="path5975"
       sodipodi:nodetypes="ccccc" />
    <path
       style="fill:#000000;fill-opacity:1;fill-rule:evenodd;stroke:none;stroke-width:7;stroke-linecap:butt;stroke-linejoin:miter;stroke-miterlimit:4;stroke-dasharray:none;stroke-opacity:1"
       d="M 244.40625,691.6875 L 243.71875,691.90625 C 210.16475,702.77505 181.38538,722.31408 167.125,762.09375 L 167.0625,762.28125 L 167,762.46875 C 164.06551,774.65489 161.47485,787.0008 164.8125,798 C 168.15015,808.9992 177.92222,817.71456 196.75,821.65625 L 197,821.6875 L 197.25,821.71875 C 248.84457,825.05246 300.53074,812.02944 351.9375,778.90625 L 352.03125,778.84375 L 352.09375,778.78125 C 359.73623,773.26154 366.17887,767.11492 368.34375,759.09375 C 370.48048,751.17687 367.74496,742.1586 359.28125,732.5625 C 359.19107,732.42955 359.09066,732.31952 359,732.1875 C 345.35754,712.32128 326.31248,702.88415 306.25,696.9375 L 305.90625,696.84375 L 305.53125,696.8125 L 245.09375,691.75 L 244.40625,691.6875 z M 245.25,698.78125 L 304.5,703.75 C 323.83243,709.51133 341.01862,718.09965 353.5,736.5 L 353.625,736.6875 L 353.78125,736.875 C 361.61458,745.61326 363.05347,751.8728 361.59375,757.28125 C 360.14571,762.64642 355.16881,767.90839 348.15625,773 C 297.9331,805.36054 248.00403,817.89282 197.96875,814.71875 C 180.76137,811.06839 174.10966,804.4659 171.53125,795.96875 C 168.96863,787.52364 170.88228,776.31386 173.71875,764.46875 C 173.72693,764.44593 173.74181,764.42906 173.75,764.40625 C 187.17716,727.01775 213.19276,709.28613 245.25,698.78125 z"
       id="path5959" />
    <path
       sodipodi:type="arc"
       style="fill:#aea8a8;fill-opacity:1;fill-rule:evenodd;stroke:none;stroke-width:7;stroke-linecap:round;stroke-linejoin:round;stroke-miterlimit:4;stroke-dasharray:none;stroke-dashoffset:0;stroke-opacity:1"
       id="path5963"
       sodipodi:cx="316.58438"
       sodipodi:cy="744.37952"
       sodipodi:rx="6.7628169"
       sodipodi:ry="8.0308447"
       d="M 323.3472,744.37952 A 6.7628169,8.0308447 0 1 1 309.82156,744.37952 A 6.7628169,8.0308447 0 1 1 323.3472,744.37952 z"
       transform="matrix(1.5625,0,0,1.2467105,-174.2032,-185.04031)" />
    <path
       style="fill:#f9ddd2;fill-opacity:1;fill-rule:evenodd;stroke:#f9ddd2;stroke-width:2.54779744;stroke-linecap:round;stroke-linejoin:round;stroke-miterlimit:4;stroke-dasharray:none;stroke-dashoffset:0;stroke-opacity:1"
       d="M 627.2462,331.77123 C 625.2899,331.2588 623.44972,330.21095 622.39348,329.00795 C 621.58891,328.09161 621.25542,327.19263 620.8979,324.97633 C 618.96878,313.01785 611.16328,302.36665 598.40149,294.27827 C 597.35053,293.61216 596.49064,292.99357 596.49064,292.90361 C 596.49064,292.81365 594.43744,283.31617 591.92796,271.7981 L 587.36529,250.85617 L 589.50091,246.79462 C 599.81632,227.17667 614.49561,212.4187 633.39266,202.66761 C 646.63486,195.83448 655.5327,193.60782 661.88532,195.53736 C 666.28106,196.87253 669.27293,200.44262 669.2813,204.36272 C 669.29142,209.10593 662.38848,214.5625 643.07894,225.07492 C 636.53345,228.63839 628.33811,234.0699 628.33811,234.8445 C 628.33811,235.43833 631.65569,240.72275 632.03102,240.72677 C 632.26046,240.72923 634.2228,239.90257 636.39176,238.88977 C 643.17942,235.72023 650.21086,233.07049 655.38405,231.73268 C 659.76318,230.60023 661.06251,230.42242 666.09764,230.26658 C 670.55344,230.12867 672.61744,230.22977 675.3789,230.7212 C 687.50565,232.8793 693.77884,237.38636 695.18576,244.95171 C 695.95549,249.09063 694.04073,252.97261 690.48882,254.47435 C 688.93443,255.13155 687.67765,255.22769 678.20215,255.41425 C 667.11164,255.63262 664.01293,255.90602 658.38375,257.16288 C 652.46531,258.48432 648.29524,260.14532 644.53482,262.67912 C 642.7728,263.86639 635.10195,271.21565 633.93632,272.8333 L 633.22833,273.81582 L 644.06818,273.74953 C 653.245,273.69341 655.46639,273.78626 658.54771,274.35471 C 668.47515,276.18614 672.95631,278.66138 681.36025,286.95556 L 686.70766,292.23314 L 687.85167,295.87285 C 689.3119,300.51863 689.44787,303.65591 688.24451,304.93683 C 687.06273,306.19477 684.89098,306.61 679.49341,306.61 L 674.73753,306.61 L 668.09851,302.73636 C 659.95428,297.98449 651.77578,293.85674 647.95201,292.56827 C 641.50486,290.39582 637.44291,291.78654 636.45316,296.5052 C 635.76652,299.7788 636.66511,302.79615 642.53144,316.91508 C 644.05688,320.58647 644.47176,323.33991 643.80425,325.36249 C 643.1222,327.42912 640.86239,329.65558 638.25541,330.82945 C 636.30592,331.70726 635.43625,331.86789 632.15981,331.95529 C 630.05787,332.01135 627.84675,331.92853 627.2462,331.77123 z"
       id="path4779" />
    <path
       style="fill:#f9c650;fill-opacity:1;fill-rule:evenodd;stroke:#6e3700;stroke-width:5;stroke-linecap:butt;stroke-linejoin:miter;stroke-miterlimit:4;stroke-dasharray:none;stroke-opacity:1"
       d="M 647.9399,229.98587 C 643.21798,242.90927 644.05194,254.55054 651.94358,264.56312 L 669.77817,260.55944 C 659.57858,254.11405 658.26681,242.61539 663.59066,227.43807 L 647.9399,229.98587 z"
       id="path4781"
       sodipodi:nodetypes="ccccc" />
    <path
       style="fill:#f9c650;fill-opacity:1;fill-rule:evenodd;stroke:#6e3700;stroke-width:5;stroke-linecap:butt;stroke-linejoin:miter;stroke-miterlimit:4;stroke-dasharray:none;stroke-opacity:1"
       d="M 657.76712,270.02269 L 674.50979,276.21019 C 664.03039,282.61757 663.98559,294.24224 662.86272,305.32788 L 647.9399,298.04846 C 648.58394,289.08249 650.39782,279.94941 657.76712,270.02269 z"
       id="path4783"
       sodipodi:nodetypes="ccccc" />
    <path
       style="fill:none;fill-rule:evenodd;stroke:#000000;stroke-width:7;stroke-linecap:butt;stroke-linejoin:miter;stroke-miterlimit:4;stroke-dasharray:none;stroke-opacity:1"
       d="M 583.51704,250.36825 C 596.29486,223.36192 616.35826,204.09651 644.66417,193.58877 C 670.15995,184.37473 676.62656,203.36819 671.23407,209.96747 C 661.14925,222.30918 641.61196,227.81391 630.4693,237.62926 C 651.27507,227.51856 665.27889,222.88284 684.70099,229.25793 C 704.56074,235.77667 703.31818,260.52514 684.33702,259.10356 C 660.71601,258.0302 647.9265,262.37259 641.75241,270.02269 C 673.25789,268.42873 679.22458,280.15936 689.43261,289.67712 C 699.05257,311.42944 686.60373,311.11298 673.41789,310.0595 C 634.27693,286.59063 635.79792,292.48027 646.12006,315.88304 C 655.79566,337.81994 621.34021,341.41447 617.73032,328.25806 C 616.05826,313.03451 606.63283,302.97987 593.34426,295.50066 L 583.51704,250.36825 z"
       id="path4773"
       sodipodi:nodetypes="ccsczcccczccc" />
    <path
       style="fill:#0c0b11;fill-opacity:1;fill-rule:evenodd;stroke:#0c0b11;stroke-width:6.29300022;stroke-linecap:round;stroke-linejoin:round;stroke-miterlimit:4;stroke-dasharray:none;stroke-dashoffset:0;stroke-opacity:1"
       d="M 277.92996,721.49501 C 261.08643,718.91628 247.75406,713.5985 232.13896,703.23066 L 224.00141,697.82761 L 224.78605,690.44232 C 229.05527,650.25953 252.84444,607.35986 292.28941,568.71165 L 304.61974,556.6304 L 382.07102,532.39808 L 459.52229,508.16575 L 469.60086,517.11229 C 475.14407,522.03291 495.45285,538.37402 514.73148,553.42588 C 565.19473,592.82523 588.8509,616.38583 605.90781,644.23381 L 611.0379,652.60942 L 604.93177,658.95675 C 581.45089,683.36529 549.51543,694.84139 523.72142,688.13989 C 516.59014,686.28712 516.0383,685.72871 510.92529,675.19057 C 507.98641,669.13338 501.84348,658.86764 497.27435,652.3778 C 486.94051,637.69994 459.70147,610.69046 448.88105,604.39232 C 444.42115,601.79639 440.75808,599.24403 440.7409,598.72043 C 440.72374,598.1968 445.10904,594.68244 450.48604,590.91069 C 464.25267,581.25393 466.54195,578.76346 464.22174,575.96776 C 463.19258,574.72766 461.71085,573.71309 460.92902,573.71309 C 460.14719,573.71309 451.56109,579.51208 441.8488,586.59975 C 419.68316,602.77543 409.98149,606.92707 394.34771,606.92707 C 383.49977,606.92712 382.24213,607.29298 375.56408,612.39207 C 352.74821,629.81325 337.04148,662.69175 334.41016,698.53846 C 333.17309,715.39125 333.65896,714.82279 316.86032,719.07286 C 304.28903,722.25343 289.06903,723.20035 277.92994,721.49499 L 277.92996,721.49501 z"
       id="path4695" />
    <path
       style="fill:#ffffff;fill-opacity:1;fill-rule:evenodd;stroke:#000000;stroke-width:4;stroke-linecap:butt;stroke-linejoin:miter;stroke-miterlimit:4;stroke-dasharray:none;stroke-opacity:1"
       d="M 293.67043,727.73983 L 316.76689,724.60811 C 316.00516,676.61317 343.94717,613.89123 364.91712,604.81972 L 339.86334,604.03679 C 310.60203,639.17112 296.0729,673.30279 293.67043,727.73983 z"
       id="path4691"
       sodipodi:nodetypes="ccccc" />
    <path
       style="fill:#ffffff;fill-opacity:1;fill-rule:evenodd;stroke:#000000;stroke-width:4;stroke-linecap:butt;stroke-linejoin:miter;stroke-miterlimit:4;stroke-dasharray:none;stroke-opacity:1"
       d="M 536.37894,694.07381 L 560.25832,692.11649 C 537.70037,648.59032 507.56407,608.85332 460.0432,577.80861 L 446.73338,587.20378 C 484.28514,614.99433 512.2536,649.59381 536.37894,694.07381 z"
       id="path4693"
       sodipodi:nodetypes="ccccc" />
    <path
       style="fill:none;fill-rule:evenodd;stroke:#000000;stroke-width:7;stroke-linecap:butt;stroke-linejoin:round;stroke-miterlimit:4;stroke-dasharray:none;stroke-opacity:1"
       d="M 461.10904,503.43808 L 301.39029,553.53183 C 259.60554,594.55892 222.98908,638.30326 220.35903,699.93808 C 256.97516,728.56795 297.52437,735.38144 339.35904,716.00058 C 336.89457,690.38221 342.24884,641.36165 384.17154,611.25058 C 384.18181,611.25213 384.19252,611.24903 384.20279,611.25058 C 391.54852,612.35711 400.10778,612.05016 408.82779,610.00058 C 416.69245,608.15204 423.68413,605.31963 428.91346,601.55947 C 513.77641,540.53863 431.02794,600.06359 431.98404,599.28183 C 463.72992,612.20101 504.86627,660.28504 513.54654,690.15683 C 559.18312,703.5044 589.88115,682.83226 616.89028,653.75058 C 579.90428,583.97408 513.59646,553.12704 461.10904,503.43808 z"
       id="path4614"
       sodipodi:nodetypes="cccccssscccc" />
    <path
       style="fill:#fefefd;fill-opacity:1;fill-rule:evenodd;stroke:#000000;stroke-width:5;stroke-linecap:butt;stroke-linejoin:miter;stroke-miterlimit:4;stroke-dasharray:none;stroke-opacity:1"
       d="M 330.07671,542.18526 C 371.37863,552.56073 410.78219,558.46948 434.59795,527.70104 L 384.49039,463.10926 L 353.56463,465.84952 L 330.07671,542.18526 z"
       id="path4616"
       sodipodi:nodetypes="ccccc" />
    <path
       sodipodi:nodetypes="ccccscccscccscccssssscccccsscccscccscccssssssssssssccccc"
       style="fill:#941d3d;fill-opacity:1;fill-rule:evenodd;stroke:none;stroke-width:3.9920001;stroke-linecap:round;stroke-linejoin:round;stroke-miterlimit:4;stroke-dasharray:none;stroke-dashoffset:0;stroke-opacity:1"
       d="M 328.8544,608.04514 C 303.221,605.56949 280.66597,593.71167 263.37359,573.61999 L 258.80286,568.30934 L 253.99798,558.05382 C 257.46702,537.81701 259.23381,518.95232 259.95939,490.66663 C 260.58071,466.44621 258.93872,421.73492 256.65951,400.81038 L 256.2206,396.78086 L 257.16189,397.37624 C 246.39697,398.57379 225.96985,398.13093 216.28168,396.48996 C 168.66749,388.42511 128.74105,357.35364 95.455549,302.46089 L 91.098599,295.27559 L 94.409809,288.74864 C 101.2687,275.22869 111.30451,263.88745 133.08461,245.04312 C 139.54235,239.45583 148.34354,231.67246 152.64283,227.74672 L 160.45971,220.60903 L 159.82832,226.09936 C 159.48106,229.11904 159.22521,238.59555 159.25978,247.15826 C 159.31124,259.90375 159.63014,264.12863 161.01839,270.45743 C 163.49174,281.73298 166.22632,289.45726 171.56607,300.25107 C 185.03876,327.48484 208.77336,348.11674 235.92171,356.1938 C 245.24622,358.96799 260.06094,359.69961 268.97529,357.82615 C 277.33117,356.07005 286.73173,351.22603 293.08941,345.40038 L 298.36128,340.56967 L 344.7999,340.56967 L 391.23846,340.56967 L 400.56466,333.46037 C 405.69402,329.55026 417.5056,319.86744 426.81257,311.943 C 456.237,286.88951 466.69554,279.64173 489.72961,268.34144 C 511.30972,257.75444 534.7444,249.09196 566.77047,239.86375 L 580.73867,235.83885 L 584.16008,239.70218 C 592.10532,248.67378 599.74909,261.89425 602.55007,271.5091 C 605.52391,281.71734 606.885,297.89642 605.39608,305.34079 L 604.89709,307.83576 L 581.48787,307.83576 C 548.30319,307.83576 528.83585,309.7318 506.96409,315.09409 C 465.68307,325.21492 439.59155,345.47383 427.07825,377.1219 L 423.83233,385.33135 L 425.09823,390.2953 C 425.79448,393.02548 427.6682,397.95381 429.26205,401.24717 C 431.83141,406.55614 433.99246,409.09083 448.32171,423.60203 C 457.21067,432.60386 465.81374,441.58572 467.43966,443.56174 C 477.95491,456.34107 488.69388,473.42053 498.31262,492.6626 C 508.16206,512.36619 522.39921,547.40025 520.91892,548.29109 C 518.67749,549.64 503.97386,554.70795 494.91913,557.25257 C 478.68953,561.81351 450.04266,566.7608 448.69594,565.23528 C 448.34743,564.84051 447.23439,562.18225 446.22248,559.32801 C 436.25657,531.21768 419.93773,513.19527 390.26132,497.52484 C 385.61268,495.07015 381.12176,493.06314 380.28147,493.06478 C 377.84033,493.06957 373.80781,495.93279 371.22958,499.49194 C 366.20753,506.42468 364.73296,517.59186 366.75476,533.3804 C 368.84321,549.68955 374.49353,572.46435 381.83248,594.15451 L 384.56653,602.23499 L 374.87379,604.31618 C 358.1035,607.91703 341.47732,609.26425 328.8544,608.04514 L 328.8544,608.04514 z"
       id="path3603" />
    <path
       style="fill:#b96c80;fill-opacity:1;fill-rule:evenodd;stroke:#530c1e;stroke-width:3;stroke-linecap:butt;stroke-linejoin:round;stroke-miterlimit:4;stroke-dasharray:none;stroke-opacity:1"
       d="M 261.14434,523.05301 L 259.54757,542.21433 C 273.91856,541.14983 291.48309,549.66594 312.24118,567.76275 C 314.59718,562.55365 315.72238,556.72914 313.83796,549.39982 C 286.34378,528.2055 271.71558,523.09365 261.14434,523.05301 z"
       id="path3605"
       sodipodi:nodetypes="ccccc" />
    <path
       style="fill:#b96c80;fill-opacity:1;fill-rule:evenodd;stroke:#530c1e;stroke-width:3;stroke-linecap:butt;stroke-linejoin:round;stroke-miterlimit:4;stroke-dasharray:none;stroke-opacity:1"
       d="M 483.09624,471.95617 L 494.27367,490.3191 C 482.38976,493.0819 472.10629,502.24647 462.33815,513.47236 C 460.41961,512.35221 455.73138,508.46237 449.56394,503.09331 C 456.3118,492.71427 467.83515,482.33522 483.09624,471.95617 z"
       id="path3607"
       sodipodi:nodetypes="ccccc" />
    <path
       style="fill:#b86c7f;fill-opacity:1;fill-rule:evenodd;stroke:#530c1e;stroke-width:4;stroke-linecap:butt;stroke-linejoin:miter;stroke-miterlimit:4;stroke-dasharray:none;stroke-opacity:1"
       d="M 157.35389,220.46392 C 128.95003,245.21395 96.047507,269.96398 87.894124,294.71401 L 99.869945,312.27855 C 120.41279,271.1771 139.73744,252.00324 158.15228,249.20589 L 157.35389,220.46392 z"
       id="path3609"
       sodipodi:nodetypes="ccccc" />
    <path
       style="fill:#bc6d82;fill-opacity:1;fill-rule:evenodd;stroke:#530c1e;stroke-width:4;stroke-linecap:butt;stroke-linejoin:miter;stroke-miterlimit:4;stroke-dasharray:none;stroke-opacity:1"
       d="M 576.50765,234.8349 C 595.50489,256.33415 605.92747,280.4058 603.65285,308.28661 L 581.29798,309.085 C 584.0448,286.99626 584.09766,264.90752 553.35439,242.81878 L 576.50765,234.8349 z"
       id="path3611"
       sodipodi:nodetypes="ccccc" />
    <path
       style="fill:#918287;fill-opacity:1;fill-rule:evenodd;stroke:#4a4144;stroke-width:4;stroke-linecap:butt;stroke-linejoin:miter;stroke-miterlimit:4;stroke-dasharray:none;stroke-opacity:1"
       d="M 388.08805,503.09331 L 392.87838,489.52071 C 436.31464,505.23603 451.71858,535.65747 459.1446,562.17403 L 443.97522,566.16597 C 435.96612,533.3418 415.2084,514.68276 388.08805,503.09331 z"
       id="path3615"
       sodipodi:nodetypes="ccccc" />
    <path
       style="fill:#000000;fill-opacity:1;fill-rule:evenodd;stroke:none;stroke-width:7;stroke-linecap:butt;stroke-linejoin:miter;stroke-miterlimit:4;stroke-dasharray:none;stroke-opacity:1"
       d="M 164.78125,205.90625 L 156.40625,214.875 C 132.76258,240.16718 97.092508,259.10124 83.8125,294.28125 L 83.25,295.8125 L 84.0625,297.25 C 128.17469,374.23041 185.81795,409.70759 255.53125,401.5625 C 260.83531,465.80223 260.29003,522.47579 251.3125,567.875 L 251,569.46875 L 252,570.71875 C 270.00616,593.71145 290.83649,605.90152 313.15625,610.5625 C 335.47601,615.22348 359.16145,612.47735 383.375,606.28125 L 387.0625,605.34375 L 385.8125,601.75 C 375.61739,572.47966 368.81554,547.24361 367.28125,528.8125 C 366.51411,519.59694 367.08527,512.1159 368.9375,506.8125 C 370.60564,502.03619 373.12697,499.12576 376.875,497.40625 C 422.97726,518.68233 433.16308,542.56054 441.4375,568.03125 L 442.3125,570.71875 L 445.125,570.4375 C 473.72278,567.55993 498.9338,561.19271 521.1875,551.8125 L 524.25,550.53125 L 523.09375,547.40625 C 497.06775,476.41879 474.43213,446.67512 457.1875,429.125 C 448.56519,420.34994 441.40795,414.68663 436.125,408.625 C 430.98378,402.72599 427.43635,396.45108 425.25,385.875 C 432.89397,360.45979 449.4226,341.00367 477.78125,328.25 C 506.46026,315.35226 547.34435,309.55512 602.65625,312.59375 L 606.09375,312.78125 L 606.34375,309.34375 C 607.97883,287.36273 608.79931,263.38368 580.6875,232.46875 L 579.25,230.90625 L 577.1875,231.46875 C 447.69035,266.67565 444.97099,293.79438 386.875,335.9375 L 294.6875,335.9375 L 293.03125,335.9375 L 291.96875,337.1875 C 281.67167,349.66607 267.50961,355.16767 251.875,354.875 C 236.24039,354.58233 219.21476,348.33085 204.125,337.03125 C 173.94547,314.43204 151.5606,272.03817 162.375,217.96875 L 164.78125,205.90625 z M 153.78125,227.34375 C 147.27455,278.90697 169.78139,320.04332 199.9375,342.625 C 216.05046,354.6908 234.35611,361.54939 251.75,361.875 C 268.58068,362.19006 284.58024,356.15316 296.1875,342.9375 L 388.09375,342.9375 L 389.21875,342.9375 L 390.125,342.25 C 449.86406,299.19362 449.81895,273.68911 576.875,238.84375 C 600.86469,266.00248 600.95509,285.28082 599.53125,305.46875 C 545.34223,302.83183 504.47624,308.57656 474.90625,321.875 C 444.68537,335.46616 426.29329,357.14016 418.25,384.75 L 418.03125,385.5625 L 418.1875,386.40625 C 420.55062,398.52671 424.99231,406.46897 430.875,413.21875 C 436.75769,419.96853 443.86955,425.56594 452.1875,434.03125 C 468.54773,450.6813 490.04219,478.73244 515.28125,546.5625 C 495.20614,554.6619 472.63985,560.29973 447.125,563.09375 C 438.61576,537.75534 425.54655,511.6661 378.34375,490.3125 L 377.0625,489.75 L 375.71875,490.21875 C 369.2251,492.54464 364.70295,497.745 362.34375,504.5 C 359.98455,511.255 359.49707,519.6106 360.3125,529.40625 C 361.87222,548.14287 368.38009,572.40719 377.9375,600.3125 C 355.65569,605.67972 334.30012,607.83399 314.59375,603.71875 C 294.17888,599.45556 275.36486,588.65116 258.46875,567.5625 C 267.50791,520.56015 267.84262,462.74677 262.25,397.40625 L 261.9375,393.71875 L 258.28125,394.25 C 190.07724,403.67928 134.90971,371.04544 91,295.25 C 102.3025,267.32509 130.47013,249.57229 153.78125,227.34375 z"
       id="path3601" />
    <path
       style="fill:#fbddd3;fill-opacity:1;fill-rule:evenodd;stroke:none;stroke-width:1.57329428;stroke-linecap:round;stroke-linejoin:round;stroke-miterlimit:4;stroke-dasharray:none;stroke-dashoffset:0;stroke-opacity:1"
       d="M 97.839223,263.9655 C 95.461859,262.09548 91.986361,257.52993 90.115883,253.81985 C 88.245416,250.10977 86.551817,246.88211 86.352331,246.64728 C 86.152845,246.41247 81.311827,247.98084 75.594542,250.13259 C 55.316523,257.76436 40.028119,257.21028 36.802655,248.72665 C 33.146038,239.10899 43.111557,230.13813 62.509441,225.58572 C 68.899493,224.08604 74.127638,222.33335 74.127638,221.6908 C 74.127638,221.04823 69.92734,219.65287 64.793625,218.58999 C 25.744667,210.50529 22.181819,208.95341 22.181819,200.02972 C 22.181819,194.66977 25.948219,190.06056 33.537952,186.13253 C 42.713597,181.3837 62.737497,184.59859 81.026703,193.75692 C 85.267591,195.88056 88.737403,197.16334 88.737403,196.60757 C 88.737403,196.05182 86.870712,193.37865 84.589221,190.66725 C 74.546183,178.73176 66.027293,153.30256 69.240592,144.85094 C 71.314498,139.39623 80.824029,135.24996 88.121034,136.6189 C 96.74107,138.236 102.54963,148.20583 109.00342,172.46143 C 115.79623,197.99121 119.74718,199.75324 136.38672,184.67381 C 151.55594,170.92686 162.27273,168.8417 168.92729,178.34243 C 171.94973,182.65755 172.34213,192.96393 169.67864,198.07592 C 168.66255,200.02608 163.91438,205.30208 159.12715,209.80038 C 154.24377,214.38901 150.42307,219.40115 150.42307,221.21871 C 150.42307,224.42394 106.93877,267.36558 103.69305,267.36558 C 102.85081,267.36558 100.21659,265.83555 97.839223,263.96552 L 97.839223,263.9655 z"
       id="path3183" />
    <path
       style="fill:#fac64e;fill-opacity:1;fill-rule:evenodd;stroke:#6f3b01;stroke-width:5;stroke-linecap:butt;stroke-linejoin:miter;stroke-miterlimit:4;stroke-dasharray:none;stroke-opacity:1"
       d="M 100.66518,155.00058 C 89.229471,155.39222 79.934748,160.72473 73.383931,172.28183 L 79.790181,187.78183 C 87.890612,177.88653 98.720525,176.20695 110.38393,177.00058 L 105.69643,155.12558 C 103.97608,154.9834 102.29885,154.94463 100.66518,155.00058 z M 57.258931,183.71933 C 45.034784,194.37073 44.862593,205.03668 46.821431,215.68808 L 61.633931,218.71933 C 60.003375,208.20988 63.051966,198.05139 73.071431,188.43808 L 57.258931,183.71933 z"
       id="path3185" />
    <path
       style="fill:none;fill-rule:evenodd;stroke:#000000;stroke-width:7;stroke-linecap:butt;stroke-linejoin:miter;stroke-miterlimit:4;stroke-dasharray:none;stroke-opacity:1"
       d="M 86.160848,245.94015 C 78.027758,249.61094 69.945008,253.48312 61.075188,254.20701 C 36.709648,259.49382 34.127478,244.98912 37.984978,237.10315 C 41.612748,229.23914 60.215228,222.67682 74.473208,221.42462 C 58.049748,216.12923 35.508148,215.50031 26.867478,209.16686 C 16.085058,198.27541 27.275428,188.24981 39.125238,183.22601 C 52.021298,181.49711 72.313808,185.4431 88.441358,196.33896 C 75.013668,184.85305 70.740478,167.64263 68.201798,155.85984 C 63.854178,135.68123 90.679518,132.89769 96.993288,141.89168 C 106.47614,155.40003 106.20914,161.75075 109.53612,171.25331 C 112.55202,189.78401 117.35636,203.51415 134.62178,183.79613 C 154.5256,162.35897 176.95176,171.79429 169.39962,197.47922 C 164.82017,209.17643 146.95026,213.51105 150.87044,223.42007 L 103.83483,267.8901 C 92.959098,261.93283 88.748318,254.15785 86.160848,245.94015 z"
       id="path2411"
       sodipodi:nodetypes="cccccccsscccccc" />
    <path
       style="fill:#df8a6b;fill-opacity:1;fill-rule:evenodd;stroke:none;stroke-width:7;stroke-linecap:round;stroke-linejoin:miter;stroke-miterlimit:4;stroke-dasharray:none;stroke-opacity:1"
       d="M 113.01437,210.16067 C 112.63186,210.17581 112.25527,210.26579 111.90352,210.42609 C 104.28993,213.93625 100.40887,218.24452 98.823287,222.81236 C 97.237698,227.3802 97.782556,231.5114 97.490269,234.72677 C 97.321554,236.54283 98.571133,238.16027 100.28127,238.33944 C 101.99142,238.51859 103.51453,237.19163 103.68325,235.37557 C 104.06384,231.18871 103.7372,227.83741 104.68301,225.11267 C 105.62882,222.38792 107.67831,219.58877 114.37516,216.50126 C 115.76189,215.87636 116.52769,214.28608 116.19295,212.72635 C 115.8582,211.16663 114.51914,210.08576 113.01437,210.16067 L 113.01437,210.16067 z"
       id="path3189" />
    <path
       style="fill:#918287;fill-opacity:1;fill-rule:evenodd;stroke:#4a4144;stroke-width:4;stroke-linecap:butt;stroke-linejoin:miter;stroke-miterlimit:4;stroke-dasharray:none;stroke-opacity:1"
       d="M 347.37026,386.52865 C 348.86822,414.47223 349.90051,442.41582 361.74125,470.3594 L 380.90256,471.15779 C 365.57539,442.14969 361.27223,413.14158 358.54769,384.13348 L 347.37026,386.52865 z"
       id="path3613"
       sodipodi:nodetypes="ccccc" />
    <path
       style="fill:#fbcb4f;fill-opacity:1;fill-rule:evenodd;stroke:#743f03;stroke-width:5;stroke-linecap:round;stroke-linejoin:round;stroke-miterlimit:4;stroke-dasharray:none;stroke-dashoffset:0;stroke-opacity:1"
       d="M 357.29247,471.58216 C 364.00705,468.88392 370.82176,466.48609 379.01228,468.21572 C 381.55509,473.97054 382.70822,476.06217 382.25174,481.81699 C 373.83585,479.01927 366.13088,484.13308 359.96837,488.84663 C 357.29784,483.38823 355.49462,477.78528 357.29247,471.58216 z"
       id="rect3539"
       sodipodi:nodetypes="ccccc" />
    <path
       style="fill:#fbcb4f;fill-opacity:1;fill-rule:evenodd;stroke:#743f03;stroke-width:3.47686911;stroke-linecap:round;stroke-linejoin:round;stroke-miterlimit:4;stroke-dasharray:none;stroke-dashoffset:0;stroke-opacity:1"
       d="M 371.12645,323.99844 C 373.66631,318.98448 381.36522,317.05671 389.38332,319.74294 C 398.23089,322.70707 404.13034,330.158 402.56161,336.37931 C 400.99289,342.60065 392.55325,345.25603 383.70568,342.2919 C 374.85812,339.32778 368.93553,331.86425 370.50423,325.64292 C 370.65131,325.05967 370.8637,324.51713 371.12645,323.99844 z M 381.28193,329.01676 C 381.16548,329.23303 381.09054,329.48663 381.04502,329.73773 C 380.68088,331.74644 382.85147,334.04976 385.89718,334.90055 C 388.94289,335.75134 391.71449,334.80628 392.07862,332.7976 C 392.44276,330.78889 390.27218,328.48557 387.22646,327.63478 C 384.56148,326.89033 382.09723,327.50285 381.28193,329.01676 z"
       id="path3471" />
    <path
       style="fill:#fbcb4f;fill-opacity:1;fill-rule:evenodd;stroke:#743f03;stroke-width:4.24385595;stroke-linecap:round;stroke-linejoin:round;stroke-miterlimit:4;stroke-dasharray:none;stroke-dashoffset:0;stroke-opacity:1"
       d="M 290.13393,340.87558 C 283.07833,341.19236 276.32915,348.61265 274.47768,358.62558 C 272.43469,369.67433 277.11094,379.70648 284.91518,381.03183 C 292.71941,382.35717 300.71594,374.48683 302.75893,363.43808 C 304.80192,352.38933 300.12565,342.32593 292.32143,341.00058 C 291.58978,340.87633 290.86382,340.84281 290.13393,340.87558 z M 289.57143,354.34433 C 289.87992,354.32316 290.20464,354.36527 290.50893,354.43808 C 292.94324,355.02056 294.18053,358.49843 293.29018,362.21933 C 292.39984,365.94022 289.69323,368.48932 287.25893,367.90683 C 284.82464,367.32435 283.58733,363.84648 284.47768,360.12558 C 285.25672,356.8698 287.412,354.49252 289.57143,354.34433 z"
       id="path3449" />
    <path
       style="fill:#931d3b;fill-opacity:1;fill-rule:evenodd;stroke:#000000;stroke-width:7;stroke-linecap:butt;stroke-linejoin:miter;stroke-miterlimit:4;stroke-dasharray:none;stroke-opacity:1"
       d="M 283.26439,308.33357 C 295.16192,329.02905 302.53404,350.00736 302.42571,371.4532 C 330.63452,389.30041 358.65387,394.26502 386.11557,361.30897 C 381.39179,334.91129 392.10285,315.52945 403.58618,296.49864 L 283.26439,308.33357 z"
       id="path3400"
       sodipodi:nodetypes="ccccc" />
    <path
       style="fill:#918287;fill-opacity:1;fill-rule:evenodd;stroke:#4a4144;stroke-width:4;stroke-linecap:butt;stroke-linejoin:miter;stroke-miterlimit:4;stroke-dasharray:none;stroke-opacity:1"
       d="M 337.36693,329.18559 C 341.96995,347.59548 346.72933,368.82322 346.94758,387.23311 C 351.60662,388.06032 357.00854,387.17115 360.19143,383.56991 C 357.11065,365.34788 355.80007,345.71692 355.68289,327.49489 L 337.36693,329.18559 z"
       id="path3402"
       sodipodi:nodetypes="ccccc" />
    <path
       style="fill:#e8caa6;fill-opacity:1;fill-rule:evenodd;stroke:#6b3a00;stroke-width:5.26954126;stroke-linecap:butt;stroke-linejoin:miter;stroke-miterlimit:4;stroke-dasharray:none;stroke-opacity:1"
       d="M 420.64234,174.07568 L 406.97754,176.17464 L 413.13033,211.63155 C 429.39087,200.66059 428.58057,187.77765 420.64234,174.07568 z"
       id="path4658" />
    <path
       transform="matrix(-2.3059301,-0.2475681,-0.3432715,2.0818908,1033.857,-215.3355)"
       style="fill:#fbddd3;fill-opacity:1;fill-rule:evenodd;stroke:none;stroke-width:4;stroke-linecap:round;stroke-linejoin:round;stroke-miterlimit:4;stroke-dashoffset:0;stroke-opacity:1"
       d="M 239.77513,239.13062 C 239.77513,249.48283 233.3601,260.58245 224.8497,260.58245 C 216.33929,260.58245 211.86504,248.51096 208.94032,239.13062 C 205.93841,229.50273 215.84732,220.37661 224.35773,220.37661 C 232.86813,220.37661 239.77513,228.7784 239.77513,239.13062 z"
       id="path3239"
       sodipodi:nodetypes="csssc" />
    <path
       id="path3241"
       d="M 437.36779,183.46627 C 441.63091,182.71925 446.13363,182.69252 450.5565,183.97801 C 456.45367,185.692 461.97631,189.9349 465.69702,196.77637 C 477.93384,219.27686 471.95914,236.2365 455.59343,255.48115 C 444.95477,267.97607 433.37141,275.97316 422.98336,278.40401 C 416.72942,279.86746 413.36317,271.08319 409.37957,268.37805 C 405.39596,265.67292 402.30798,262.7056 400.68169,258.89945 L 400.12092,257.55643 L 400.33431,256.10831 L 409.56355,200.73851 L 409.71613,199.7717 L 410.23456,198.94444 C 412.11923,195.89884 414.93611,193.67695 418.88087,191.0849 C 422.82563,188.49284 427.74674,185.99557 433.1801,184.44474 C 434.53844,184.05704 435.94675,183.71527 437.36779,183.46627 z M 442.12766,192.97489 C 440.13064,193.06775 438.02976,193.43813 435.93293,194.03661 C 431.73927,195.2336 427.60537,197.34354 424.40003,199.44973 C 421.63021,201.26975 419.75165,203.1439 419.18153,203.75335 L 410.51862,255.86106 C 411.2758,256.94679 412.67148,258.54863 414.97481,260.11275 C 417.8821,262.08698 419.98423,269.6991 425.52025,267.94239 C 433.83361,265.30437 441.41749,259.54025 449.79781,249.69771 C 463.96987,233.03258 467.67648,221.34668 456.91742,201.56342 C 454.26829,196.6923 451.2282,194.57503 447.75843,193.56656 C 446.02355,193.06233 444.12468,192.88204 442.12766,192.97489 z"
       style="fill:#000000;fill-opacity:1;fill-rule:evenodd;stroke:none;stroke-width:10;stroke-linecap:butt;stroke-linejoin:miter;stroke-miterlimit:4;stroke-dasharray:none;stroke-opacity:1"
       sodipodi:nodetypes="csscssccccccssccssccsscssc" />
    <path
       transform="matrix(-1.0916376,-0.1380878,-0.1516309,1.0599335,718.33023,4.111546)"
       d="M 239.77513,239.13062 A 15.417403,18.754005 0 1 1 208.94032,239.13062 A 15.417403,18.754005 0 1 1 239.77513,239.13062 z"
       sodipodi:ry="18.754005"
       sodipodi:rx="15.417403"
       sodipodi:cy="239.13062"
       sodipodi:cx="224.35773"
       id="path3243"
       style="fill:#f0b8a1;fill-opacity:1;fill-rule:evenodd;stroke:none;stroke-width:4;stroke-linecap:round;stroke-linejoin:round;stroke-miterlimit:4;stroke-dasharray:none;stroke-dashoffset:0;stroke-opacity:1"
       sodipodi:type="arc" />
    <path
       sodipodi:nodetypes="csssccssssccccccssc"
       id="path3245"
       d="M 438.48314,203.52984 C 438.86906,203.48648 439.24635,203.45412 439.63729,203.43623 C 441.20106,203.36468 442.78958,203.51199 444.34483,203.96401 C 447.45531,204.86807 450.50578,206.97639 452.35891,210.72869 C 455.89146,217.88158 455.38295,220.77132 454.63495,222.15195 C 450.21593,221.08705 453.81632,222.16619 448.83637,212.65758 C 447.26558,209.76929 445.36597,208.42747 443.22644,207.80563 C 442.15668,207.49471 440.99314,207.36405 439.79958,207.41935 C 438.60602,207.47465 437.38739,207.68962 436.16241,208.03926 C 433.71246,208.73855 431.31845,209.96843 429.46257,211.1879 C 427.7109,212.3389 426.53057,213.54348 426.23933,213.92765 C 421.11843,222.58357 421.36297,232.936 420.03209,242.67478 L 417.28732,243.46283 C 418.93261,233.21401 417.9695,222.96518 422.3851,212.71636 L 422.45852,212.32795 L 422.66421,211.98466 C 423.57345,210.51537 425.12017,209.24087 427.27181,207.82706 C 429.42345,206.41325 432.12951,205.05404 435.07535,204.21322 C 436.18003,203.89792 437.32541,203.6599 438.48314,203.52984 z"
       style="fill:#000000;fill-opacity:1;fill-rule:evenodd;stroke:none;stroke-width:4;stroke-linecap:butt;stroke-linejoin:miter;stroke-miterlimit:4;stroke-dasharray:none;stroke-opacity:1" />
    <path
       style="fill:#f8c64d;fill-opacity:1;fill-rule:evenodd;stroke:none;stroke-width:4;stroke-linecap:round;stroke-linejoin:round;stroke-miterlimit:4;stroke-dasharray:none;stroke-dashoffset:0;stroke-opacity:1"
       d="M 440.52418,277.01323 C 438.18252,276.83867 431.32266,273.61891 432.2519,275.30504 C 438.25337,271.15637 441.06442,269.53566 446.89032,263.83757 C 449.74982,258.14664 448.22314,255.70033 444.78646,257.35471 C 439.30175,253.94591 438.20851,253.00704 436.78327,250.48152 C 435.88995,248.89856 435.82941,247.5139 436.61377,246.6052 C 438.71531,244.17055 450.00837,242.10987 455.10984,243.23017 C 458.71043,244.02087 460.69337,245.62295 461.83317,248.6622 C 462.64411,250.82443 462.725,255.28184 462.07715,262.10015 L 461.64575,266.64055 L 460.40173,268.02199 C 457.75263,270.96381 453.48963,274.03235 450.07169,275.45765 C 447.40472,276.56979 443.37758,277.22593 440.52418,277.01323 L 440.52418,277.01323 z"
       id="path3259"
       sodipodi:nodetypes="ccccsssscccscc" />
    <path
       style="fill:#734102;fill-opacity:1;fill-rule:evenodd;stroke:none;stroke-width:4;stroke-linecap:butt;stroke-linejoin:miter;stroke-miterlimit:4;stroke-dasharray:none;stroke-opacity:1"
       d="M 451.12859,239.80908 C 446.93358,240.20922 443.72067,240.87518 441.25359,241.84033 C 438.78651,242.80548 436.99342,244.11234 436.03484,245.93408 C 435.07626,247.75582 435.14854,249.86036 435.81609,251.74658 C 436.48364,253.6328 437.67016,255.4474 439.15984,257.30908 L 439.31609,257.52783 L 442.52628,258.37441 C 453.57632,254.69479 444.37941,265.15182 440.73258,269.15367 C 442.40529,269.30315 449.24455,265.05308 450.23394,262.75739 C 452.2416,255.90527 452.06096,251.37528 442.19109,254.65283 C 440.93516,253.05881 440.00909,251.59752 439.59734,250.43408 C 439.17044,249.22784 439.21386,248.47849 439.56609,247.80908 C 439.91832,247.13967 440.79329,246.31375 442.72234,245.55908 C 444.62192,244.81594 447.47354,244.22054 451.34734,243.84033 C 454.47774,243.99873 456.3606,244.79036 457.56609,245.93408 C 458.79128,247.09649 459.47462,248.75569 459.81609,250.93408 C 460.47024,255.1072 460.75952,260.89383 459.28484,266.30908 C 454.20021,273.18302 449.95686,275.38504 445.90984,275.90283 C 441.77737,276.43155 438.67731,274.62515 433.90878,273.88591 C 431.74734,275.05998 429.82043,275.15551 429.83909,276.70643 C 434.17849,277.37915 441.15442,280.54398 446.40984,279.87158 C 451.66526,279.19918 457.20877,276.06856 462.84734,268.27783 C 465.94705,259.60397 464.09754,256.22634 463.78484,250.30908 C 463.3591,247.59309 462.36534,244.97208 460.31609,243.02783 C 458.26684,241.08358 455.28974,239.97586 451.40984,239.80908 L 451.25359,239.80908 L 451.12859,239.80908 z"
       id="path3257"
       sodipodi:nodetypes="csssccccccssscsscsccsccsccc" />
    <path
       transform="matrix(2.2516679,-0.555514,0.6202095,2.0167908,-426.29969,-119.74855)"
       d="M 239.77513,239.13062 A 15.417403,18.754005 0 1 1 208.94032,239.13062 A 15.417403,18.754005 0 1 1 239.77513,239.13062 z"
       sodipodi:ry="18.754005"
       sodipodi:rx="15.417403"
       sodipodi:cy="239.13062"
       sodipodi:cx="224.35773"
       id="path3229"
       style="fill:#fbddd3;fill-opacity:1;fill-rule:evenodd;stroke:none;stroke-width:4;stroke-linecap:round;stroke-linejoin:round;stroke-miterlimit:4;stroke-dasharray:none;stroke-dashoffset:0;stroke-opacity:1"
       sodipodi:type="arc" />
    <path
       style="fill:#000000;fill-opacity:1;fill-rule:evenodd;stroke:none;stroke-width:10;stroke-linecap:butt;stroke-linejoin:miter;stroke-miterlimit:4;stroke-dasharray:none;stroke-opacity:1"
       d="M 218.41518,195.18808 C 214.09032,195.02133 209.62493,195.60055 205.41518,197.46933 C 199.80218,199.96103 194.9005,204.90828 192.13393,212.18808 C 183.03512,236.13017 188.01567,259.03863 206.82143,275.90683 C 219.04423,286.85706 233.25609,287.43495 244.00893,283.59433 C 249.38535,281.67402 253.98793,278.77951 257.57143,275.56308 C 261.15493,272.34665 263.81568,268.99091 264.91518,265.00058 L 265.29018,263.59433 L 264.88393,262.18808 L 248.29018,208.56308 L 248.00893,207.62558 L 247.38393,206.87558 C 245.10669,204.11119 242.01652,202.28842 237.75893,200.25058 C 233.50134,198.21274 228.28902,196.40016 222.69643,195.59433 C 221.29828,195.39287 219.8568,195.24366 218.41518,195.18808 z M 214.97768,205.25058 C 216.96904,205.07395 219.10065,205.15835 221.25893,205.46933 C 225.57549,206.0913 229.95565,207.62597 233.41518,209.28183 C 236.40466,210.71271 238.51826,212.31712 239.16518,212.84433 L 254.75893,263.31308 C 254.15469,264.4908 252.98717,266.26583 250.91518,268.12558 C 248.2999,270.47296 244.67579,272.74444 240.63393,274.18808 C 232.55021,277.07537 223.13711,277.09508 213.50893,268.46933 C 197.22387,253.86211 193.47768,236.80134 201.47768,215.75058 C 203.44747,210.56737 206.17511,208.06039 209.47768,206.59433 C 211.12896,205.8613 212.98632,205.42721 214.97768,205.25058 z"
       id="path3211" />
    <path
       sodipodi:type="arc"
       style="fill:#f0b8a1;fill-opacity:1;fill-rule:evenodd;stroke:none;stroke-width:4;stroke-linecap:round;stroke-linejoin:round;stroke-miterlimit:4;stroke-dasharray:none;stroke-dashoffset:0;stroke-opacity:1"
       id="path3223"
       sodipodi:cx="224.35773"
       sodipodi:cy="239.13062"
       sodipodi:rx="15.417403"
       sodipodi:ry="18.754005"
       d="M 239.77513,239.13062 A 15.417403,18.754005 0 1 1 208.94032,239.13062 A 15.417403,18.754005 0 1 1 239.77513,239.13062 z"
       transform="matrix(1.0631398,-0.2836809,0.292836,1.029902,-84.120513,55.258901)" />
    <path
       style="fill:#000000;fill-opacity:1;fill-rule:evenodd;stroke:none;stroke-width:4;stroke-linecap:butt;stroke-linejoin:miter;stroke-miterlimit:4;stroke-dasharray:none;stroke-opacity:1"
       d="M 220.00893,215.21933 C 219.62069,215.22828 219.24247,215.24697 218.85268,215.28183 C 217.2935,215.42129 215.73923,215.78095 214.25893,216.43808 C 211.29833,217.75234 208.71436,220.30735 207.22768,224.21933 C 203.40935,234.26669 204.0616,243.84403 209.16518,251.93808 C 212.08157,253.89079 213.54512,253.66424 214.00893,251.93808 C 208.07027,244.45501 207.13355,235.77207 210.97768,225.65683 C 212.14565,222.58349 213.8475,220.99833 215.88393,220.09433 C 216.90214,219.64233 218.03753,219.35634 219.22768,219.25058 C 220.41783,219.14482 221.6543,219.1939 222.91518,219.37558 C 225.43693,219.73894 227.97463,220.6356 229.97768,221.59433 C 231.86826,222.49923 233.19991,223.53408 233.54018,223.87558 L 242.22768,251.93808 L 246.38393,251.93808 L 237.19643,222.15683 L 237.07143,221.78183 L 236.82143,221.46933 C 235.72281,220.1357 234.0187,219.08085 231.69643,217.96933 C 229.37416,216.85781 226.50985,215.87498 223.47768,215.43808 C 222.34062,215.27425 221.17364,215.19247 220.00893,215.21933 z"
       id="path3213"
       sodipodi:nodetypes="csssccsssssccccccssc" />
    <path
       style="fill:#faded3;fill-opacity:1;fill-rule:evenodd;stroke:none;stroke-width:11.01305962;stroke-linecap:round;stroke-linejoin:round;stroke-miterlimit:4;stroke-dasharray:none;stroke-dashoffset:0;stroke-opacity:1"
       d="M 307.50841,330.11463 C 273.89739,322.83602 250.2629,298.53803 241.20136,261.94608 C 237.77065,248.09239 233.49998,214.20072 231.94555,188.49309 C 231.12119,174.85947 231.42627,171.96611 234.21767,166.94321 L 237.442,161.14131 L 274.54729,160.11194 C 294.95522,159.54581 329.34315,158.98634 350.96492,158.86869 L 390.27724,158.65478 L 396.41009,164.03952 C 403.72261,170.45999 408.60289,180.91118 413.3846,200.39059 C 417.67309,217.86074 418.21729,252.52971 414.47991,270.16683 C 408.47164,298.52042 389.67071,318.26663 358.70901,328.74172 C 344.98651,333.38439 325.07317,333.91834 307.50841,330.11462 L 307.50841,330.11463 z"
       id="path3288" />
    <path
       style="fill:#eeb7a2;fill-opacity:1;fill-rule:evenodd;stroke:none;stroke-width:4;stroke-linecap:round;stroke-linejoin:round;stroke-miterlimit:4;stroke-dashoffset:0;stroke-opacity:1"
       d="M 258.02712,167.64702 C 309.38347,175.14028 359.87177,173.08512 410.05254,167.64702 L 410.05254,188.47849 C 368.9674,199.88237 314.6216,209.1962 258.02712,188.47849 L 258.02712,167.64702 z"
       id="rect3339"
       sodipodi:nodetypes="ccccc" />
    <path
       style="fill:#f38b7a;fill-opacity:1;fill-rule:evenodd;stroke:none;stroke-width:4;stroke-linecap:round;stroke-linejoin:round;stroke-miterlimit:4;stroke-dasharray:none;stroke-dashoffset:0;stroke-opacity:1"
       d="M 395.41518,198.68808 C 391.50063,198.68809 388.32144,201.86728 388.32143,205.78183 C 388.32142,209.69638 391.50064,212.87559 395.41518,212.87558 C 399.32971,212.87559 402.50894,209.69637 402.50893,205.78183 C 402.50892,201.8673 399.32973,198.68808 395.41518,198.68808 z M 395.41518,201.34433 C 397.86176,201.34434 399.85268,203.33524 399.85268,205.78183 C 399.85268,208.22844 397.86177,210.21933 395.41518,210.21933 C 392.96858,210.21934 390.97768,208.22842 390.97768,205.78183 C 390.97768,203.33526 392.96859,201.34433 395.41518,201.34433 z M 258.91518,214.18808 C 255.00064,214.18808 251.82144,217.36728 251.82143,221.28183 C 251.82143,225.19637 255.00064,228.37559 258.91518,228.37558 C 262.82972,228.37558 266.00894,225.19637 266.00893,221.28183 C 266.00893,217.36729 262.82973,214.18808 258.91518,214.18808 z M 258.91518,216.84433 C 261.36177,216.84433 263.35268,218.83524 263.35268,221.28183 C 263.35269,223.72843 261.36177,225.71933 258.91518,225.71933 C 256.46859,225.71933 254.47768,223.72842 254.47768,221.28183 C 254.47769,218.83525 256.46859,216.84433 258.91518,216.84433 z M 393.19643,219.06308 C 390.50518,219.06308 388.32143,221.24683 388.32143,223.93808 C 388.32143,226.62933 390.50518,228.81308 393.19643,228.81308 C 395.88768,228.81308 398.07142,226.62933 398.07143,223.93808 C 398.07143,221.24683 395.88767,219.06308 393.19643,219.06308 z M 290.75893,235.03183 C 288.30145,235.28165 286.38394,237.38378 286.38393,239.90683 C 286.38393,242.59808 288.56768,244.78182 291.25893,244.78183 C 293.95018,244.78183 296.13392,242.59808 296.13393,239.90683 C 296.13393,237.21558 293.95018,235.03184 291.25893,235.03183 C 291.09073,235.03183 290.92276,235.01518 290.75893,235.03183 z"
       id="path3300" />
    <path
       style="fill:#000000;fill-opacity:1;fill-rule:evenodd;stroke:none;stroke-width:4;stroke-linecap:round;stroke-linejoin:round;stroke-miterlimit:4;stroke-dasharray:none;stroke-dashoffset:0;stroke-opacity:1"
       d="M 331.93041,315.00816 C 318.91084,314.11492 304.97757,311.2837 296.85614,307.88112 C 276.84317,299.49645 268.53615,284.83314 270.45302,261.27508 C 270.71717,258.02866 271.09708,255.19665 271.29725,254.9817 C 271.49743,254.76676 272.45173,255.00643 273.41791,255.51433 C 282.63256,260.35821 296.82306,264.56302 308.73203,265.97835 C 314.7333,266.69157 329.47558,266.54708 335.56278,265.71539 C 355.47045,262.9954 375.31135,254.84369 394.67651,241.42828 L 399.30467,238.22208 L 400.15706,239.50793 C 402.01088,242.3044 403.41693,245.2119 404.42666,248.33684 C 405.89524,252.88187 405.89449,260.8997 404.42486,267.59984 C 403.53139,271.67325 403.11188,272.68032 401.29042,275.12436 C 385.91792,295.75124 372.06312,306.81402 355.88626,311.37868 C 351.32936,312.66449 336.67706,315.39313 335.10873,315.24797 C 334.60928,315.20174 333.17904,315.09384 331.93041,315.00817 L 331.93041,315.00816 z"
       id="path3346" />
    <path
       style="fill:#e7545e;fill-opacity:1;fill-rule:evenodd;stroke:none;stroke-width:1px;stroke-linecap:butt;stroke-linejoin:miter;stroke-opacity:1"
       d="M 283.73403,300.17064 C 316.41128,280.87476 347.70558,259.94448 405.6203,270.47471 C 395.26701,284.54914 392.7739,298.28182 356.86579,313.46733 C 309.93323,321.92384 298.79294,309.92764 283.73403,300.17064 z"
       id="path3344"
       sodipodi:nodetypes="cccc" />
    <path
       style="fill:#fbf9ed;fill-opacity:1;fill-rule:evenodd;stroke:#000000;stroke-width:3;stroke-linecap:butt;stroke-linejoin:miter;stroke-miterlimit:4;stroke-dasharray:none;stroke-opacity:1"
       d="M 385.47768,249.81308 C 384.56955,249.8054 383.68837,250.10261 382.88393,250.78183 C 377.03561,252.68999 371.07777,254.20363 365.44643,256.87558 L 367.75893,271.75058 C 371.87424,281.90027 391.23569,271.23586 393.44643,265.46933 C 395.97981,258.86126 390.38159,249.85457 385.47768,249.81308 z M 290.04018,263.09433 C 286.05303,262.80703 281.86697,278.8826 283.29018,285.09433 C 285.1942,293.40469 309.06822,302.78654 310.32143,288.18808 L 310.32143,267.81308 C 303.82082,265.43211 297.32203,264.67819 290.82143,263.37558 C 290.55903,263.2032 290.30599,263.11348 290.04018,263.09433 z M 343.07143,265.28183 C 342.85527,265.31137 342.64832,265.3904 342.41518,265.56308 C 336.63932,266.86794 328.62853,266.30298 322.85268,268.68808 L 322.85268,289.09433 C 322.6365,295.29679 344.74896,303.63297 346.88393,286.00058 C 347.64719,279.69695 346.31379,264.83877 343.07143,265.28183 z"
       id="path3348" />
    <path
       style="fill:none;fill-rule:evenodd;stroke:#000000;stroke-width:4;stroke-linecap:round;stroke-linejoin:miter;stroke-miterlimit:4;stroke-dasharray:none;stroke-opacity:1"
       d="M 262.45934,248.31357 L 270.88058,254.9619 C 264.54607,291.56756 279.18592,314.07053 336.47755,316.56988 C 356.23834,313.12858 374.96915,313.67847 403.84742,274.90694 C 406.28394,263.99228 409.82,253.3525 398.52874,239.00589 L 404.29064,234.13044 C 337.97648,286.60242 283.13361,262.823 262.45934,248.31357 z"
       id="path3342"
       sodipodi:nodetypes="ccccccc" />
    <path
       style="fill:none;fill-rule:evenodd;stroke:#000000;stroke-width:7;stroke-linecap:butt;stroke-linejoin:miter;stroke-miterlimit:4;stroke-dasharray:none;stroke-opacity:1"
       d="M 242.347,160.20616 C 228.51356,175.76084 231.70792,177.8844 237.80911,238.4482 C 244.34337,303.31088 279.66577,334.90053 344.27064,333.08067 C 396.5031,321.49398 413.1015,292.98111 417.06485,258.4666 C 417.60559,243.82198 417.73445,229.58924 417.06485,216.15497 C 408.77491,170.24555 398.15452,163.95358 387.4922,158.37457 L 242.347,160.20616 z"
       id="path3286"
       sodipodi:nodetypes="csccccc" />
    <path
       style="fill:#e8caa6;fill-opacity:1;fill-rule:evenodd;stroke:#6b3a00;stroke-width:5;stroke-linecap:butt;stroke-linejoin:miter;stroke-miterlimit:4;stroke-dasharray:none;stroke-opacity:1"
       d="M 236.56162,168.03447 C 234.91332,174.78882 232.19518,180.47332 225.28439,181.96517 C 217.06694,185.54477 218.99981,187.771 223.95766,189.59389 C 225.66955,191.83366 234.33285,190.59771 226.61112,197.55429 C 220.01606,201.18549 224.39371,204.08518 230.92301,206.84142 C 253.70345,205.46305 261.1078,192.55261 262.7646,175.33151 L 236.56162,168.03447 z"
       id="path4640"
       sodipodi:nodetypes="ccccccc" />
    <path
       sodipodi:type="arc"
       style="fill:#c4b189;fill-opacity:1;fill-rule:evenodd;stroke:#000000;stroke-width:7.21253824;stroke-linecap:round;stroke-linejoin:round;stroke-miterlimit:4;stroke-dasharray:none;stroke-dashoffset:0;stroke-opacity:1"
       id="path3851"
       sodipodi:cx="332.18082"
       sodipodi:cy="47.909157"
       sodipodi:rx="14.09654"
       sodipodi:ry="13.599015"
       d="M 346.27736,47.909157 A 14.09654,13.599015 0 1 1 318.08428,47.909157 A 14.09654,13.599015 0 1 1 346.27736,47.909157 z"
       transform="matrix(1.2993437,0,0,0.7249295,-100.5257,8.4249471)" />
    <path
       style="fill:url(#pattern2494);fill-opacity:1;fill-rule:evenodd;stroke:#000000;stroke-width:7;stroke-linecap:butt;stroke-linejoin:miter;stroke-miterlimit:4;stroke-dasharray:none;stroke-opacity:1"
       d="M 233.90815,166.37605 C 236.48278,122.79429 234.90585,55.249604 330.09631,45.975016 C 387.58883,38.269365 414.01079,76.899046 411.6904,131.881 L 383.16564,135.19783 C 417.0803,132.26805 448.34684,124.04203 480.68053,117.9503 C 583.38412,106.52885 559.72224,137.90663 487.31419,159.07903 C 391.77616,189.16041 287.01578,188.3932 233.90815,166.37605 z"
       id="path3820"
       sodipodi:nodetypes="ccccccc" />
    <path
       style="fill:#8c9ed0;fill-opacity:1;fill-rule:evenodd;stroke:none;stroke-width:1.65841651;stroke-linecap:round;stroke-linejoin:round;stroke-miterlimit:4;stroke-dasharray:none;stroke-dashoffset:0;stroke-opacity:1"
       d="M 248.93011,153.12573 C 246.28425,152.79591 240.38458,151.51418 238.23155,150.80142 C 236.27401,150.15338 236.00507,149.95693 236.14524,149.27747 C 236.23375,148.84847 236.58198,145.74629 236.9191,142.38374 C 237.25622,139.02119 237.57106,136.2197 237.61876,136.1582 C 237.66645,136.0967 238.81497,136.38059 240.17102,136.78905 C 244.82754,138.19164 258.59338,140.0997 266.89223,140.49281 C 268.85037,140.58557 268.85097,140.58596 269.76928,142.37627 C 270.98515,144.74672 271.02877,148.1711 269.87014,150.29562 C 268.20869,153.34219 269.0502,153.11515 259.0918,153.20358 C 254.19517,153.24706 249.6224,153.21202 248.93011,153.12573 L 248.93011,153.12573 z"
       id="path4602" />
    <path
       style="fill:#000000;fill-opacity:1;fill-rule:evenodd;stroke:none;stroke-width:5;stroke-linecap:butt;stroke-linejoin:miter;stroke-miterlimit:4;stroke-dasharray:none;stroke-opacity:1"
       d="M 234.41518,129.71438 L 234.07143,132.93313 L 232.07143,151.18313 L 231.88393,152.99563 L 233.57143,153.74563 C 245.26431,158.81758 260.2908,157.80495 269.66518,157.24563 C 269.66518,157.24563 271.49874,155.79017 271.88393,154.90188 C 273.86427,150.33496 274.68962,142.97812 272.88393,138.33938 C 272.46785,137.27049 270.13393,135.68313 270.13393,135.68313 C 258.33216,136.92056 247.68455,134.78034 237.44643,130.87063 L 234.41518,129.71438 z M 238.69643,136.55813 C 247.73138,139.68099 264.63466,140.74836 267.72768,140.77688 C 269.73904,144.02214 271.1265,147.44567 267.04018,152.43313 C 256.63565,153.45657 246.64675,153.3055 237.29018,149.71438 L 238.69643,136.55813 z"
       id="path4594"
       sodipodi:nodetypes="cccccssssccccccc" />
    <path
       style="fill:#000000;fill-opacity:1;fill-rule:evenodd;stroke:none;stroke-width:4;stroke-linecap:round;stroke-linejoin:miter;stroke-miterlimit:4;stroke-dasharray:none;stroke-opacity:1"
       d="M 378.04018,161.96933 C 376.96878,161.95612 375.91956,161.97073 374.91518,162.00058 C 368.88889,162.17968 364.0912,163.22843 360.19643,164.96933 C 355.00341,167.29053 351.51205,170.8372 348.94643,174.78183 C 343.81519,182.6711 342.01695,191.97758 336.72768,198.28183 C 336.21723,198.82221 336.04903,199.60993 336.29018,200.31308 C 336.53133,201.01622 337.14927,201.51223 337.88393,201.62558 C 338.61859,201.73893 339.34831,201.44209 339.79018,200.84433 C 345.97853,193.46848 347.75536,183.9416 352.29018,176.96933 C 354.55759,173.48319 357.3864,170.60797 361.82143,168.62558 C 366.25646,166.64319 372.39244,165.55521 381.13393,166.09433 C 382.2385,166.15473 383.19852,165.29265 383.25893,164.18808 C 383.31933,163.08351 382.45725,162.15473 381.35268,162.09433 C 380.20515,162.02356 379.11158,161.98254 378.04018,161.96933 z M 265.13393,203.31308 C 264.41267,203.30288 263.74755,203.69008 263.38393,204.31308 C 263.02032,204.93606 263.02032,205.69009 263.38393,206.31308 C 263.74755,206.93608 264.41266,207.32328 265.13393,207.31308 C 283.73837,207.29983 301.26189,207.87247 312.41518,211.21933 C 313.11764,211.50407 313.9091,211.37681 314.47768,210.87558 C 315.04625,210.37437 315.29706,209.57694 315.10268,208.84433 C 314.90828,208.11171 314.31371,207.56025 313.57143,207.40683 C 301.45783,203.77179 283.8133,203.29978 265.13393,203.31308 z M 359.19643,204.59433 C 358.07006,204.60444 356.88838,204.86912 355.72768,205.37558 C 352.01342,206.99624 350.01892,210.65342 351.25893,213.56308 C 352.49893,216.47274 356.51341,217.52749 360.22768,215.90683 C 363.94194,214.28617 365.93642,210.59774 364.69643,207.68808 C 363.84393,205.68769 361.67444,204.57208 359.19643,204.59433 z M 306.79018,215.06308 C 303.60961,215.06308 301.00892,217.43968 301.00893,220.37558 C 301.00893,223.31149 303.6096,225.71933 306.79018,225.71933 C 309.97075,225.71933 312.54019,223.31149 312.54018,220.37558 C 312.54018,217.43967 309.97073,215.06308 306.79018,215.06308 z M 343.54018,219.03183 C 342.40127,219.01319 341.27276,219.11578 340.13393,219.31308 C 331.02328,220.89149 322.88669,229.10646 315.22768,243.37558 C 314.8101,244.00575 314.78978,244.81315 315.16518,245.46933 C 315.54056,246.12552 316.25406,246.50991 317.00893,246.46933 C 317.76382,246.42875 318.4248,245.97447 318.72768,245.28183 C 326.12512,231.50004 333.67401,224.48887 340.82143,223.25058 C 347.96885,222.01229 355.669,226.19007 364.16518,236.71933 C 364.85554,237.58227 366.11474,237.72218 366.97768,237.03183 C 367.84063,236.34147 367.98054,235.08227 367.29018,234.21933 C 359.48162,224.54223 351.51255,219.16232 343.54018,219.03183 z M 346.82143,236.93808 C 346.64457,236.93117 346.47235,236.95115 346.29018,236.96933 C 345.8044,237.01782 345.31245,237.17394 344.82143,237.40683 C 342.85733,238.33837 341.79072,240.45316 342.44643,242.12558 C 343.10214,243.79801 345.23234,244.40086 347.19643,243.46933 C 349.16053,242.53779 350.22714,240.42301 349.57143,238.75058 C 349.14112,237.65305 348.05944,236.98647 346.82143,236.93808 z M 331.79018,239.25058 C 329.73393,239.25058 328.07142,240.70299 328.07143,242.46933 C 328.07143,244.23567 329.73392,245.65683 331.79018,245.65683 C 333.84643,245.65683 335.50892,244.23567 335.50893,242.46933 C 335.50893,240.70299 333.84643,239.25058 331.79018,239.25058 z"
       id="path3290" />
    <path
       id="path3457"
       d="M 293.30193,379.47999 C 300.35753,379.79677 307.10671,387.21706 308.95818,397.22999 C 311.00117,408.27874 306.32492,418.31089 298.52068,419.63624 C 290.71645,420.96158 282.71992,413.09124 280.67693,402.04249 C 278.63394,390.99374 283.31021,380.93034 291.11443,379.60499 C 291.84608,379.48074 292.57204,379.44722 293.30193,379.47999 z M 293.86443,392.94874 C 293.55594,392.92757 293.23122,392.96968 292.92693,393.04249 C 290.49262,393.62497 289.25533,397.10284 290.14568,400.82374 C 291.03602,404.54463 293.74263,407.09373 296.17693,406.51124 C 298.61122,405.92876 299.84853,402.45089 298.95818,398.72999 C 298.17914,395.47421 296.02386,393.09693 293.86443,392.94874 z"
       style="fill:#fbcb4f;fill-opacity:1;fill-rule:evenodd;stroke:#743f03;stroke-width:4.24385595;stroke-linecap:round;stroke-linejoin:round;stroke-miterlimit:4;stroke-dasharray:none;stroke-dashoffset:0;stroke-opacity:1" />
    <path
       style="fill:#fbcb4f;fill-opacity:1;fill-rule:evenodd;stroke:#743f03;stroke-width:4.24385595;stroke-linecap:round;stroke-linejoin:round;stroke-miterlimit:4;stroke-dasharray:none;stroke-dashoffset:0;stroke-opacity:1"
       d="M 306.06407,418.47992 C 313.09686,417.83051 320.79586,424.25994 323.99694,433.92637 C 327.52916,444.59277 324.26627,455.16939 316.71603,457.54775 C 309.1658,459.9261 300.16969,453.22112 296.63747,442.55472 C 293.10525,431.88832 296.3639,421.28074 303.91412,418.90238 C 304.62196,418.67941 305.33654,418.5471 306.06407,418.47992 z M 308.46004,431.74578 C 308.15155,431.76692 307.83562,431.85296 307.54412,431.96663 C 305.21212,432.87599 304.4612,436.49021 305.85119,440.05472 C 307.24116,443.61923 310.27043,445.77496 312.60242,444.8656 C 314.9344,443.95625 315.68533,440.34202 314.29535,436.77751 C 313.07913,433.65856 310.61948,431.59778 308.46004,431.74578 z"
       id="path3459" />
    <path
       id="path3461"
       d="M 327.85967,452.04947 C 334.26647,449.07714 343.67689,452.54936 349.93684,460.58053 C 356.84437,469.44252 357.32087,480.50074 351.00697,485.27539 C 344.69307,490.05004 333.96831,486.75364 327.06078,477.89166 C 320.15325,469.02968 319.66236,457.94371 325.97625,453.16906 C 326.56818,452.72144 327.1969,452.35695 327.85967,452.04947 z M 334.56939,463.74149 C 334.28589,463.86495 334.01717,464.05204 333.78074,464.25696 C 331.88926,465.89631 332.39503,469.5529 334.90083,472.44406 C 337.40661,475.33523 340.98372,476.3491 342.87518,474.70975 C 344.76665,473.07042 344.26088,469.41382 341.75509,466.52265 C 339.56254,463.99288 336.55387,462.87725 334.56939,463.74149 z"
       style="fill:#fbcb4f;fill-opacity:1;fill-rule:evenodd;stroke:#743f03;stroke-width:4.24385595;stroke-linecap:round;stroke-linejoin:round;stroke-miterlimit:4;stroke-dasharray:none;stroke-dashoffset:0;stroke-opacity:1" />
    <path
       style="fill:#fbcb4f;fill-opacity:1;fill-rule:evenodd;stroke:#743f03;stroke-width:3.80918479;stroke-linecap:round;stroke-linejoin:round;stroke-miterlimit:4;stroke-dasharray:none;stroke-dashoffset:0;stroke-opacity:1"
       d="M 398.73083,439.93655 C 393.25361,437.1355 385.20858,440.40764 379.8569,447.97601 C 373.9516,456.32733 373.54424,466.74832 378.94204,471.24783 C 384.33984,475.74735 393.50851,472.6409 399.41381,464.28959 C 405.31911,455.93828 405.73877,445.49114 400.34098,440.99163 C 399.83494,440.5698 399.29744,440.22631 398.73083,439.93655 z M 392.99465,450.95482 C 393.23701,451.07117 393.46674,451.24748 393.66887,451.44059 C 395.28591,452.98547 394.85352,456.43135 392.7113,459.15591 C 390.56909,461.88047 387.51099,462.83592 385.89397,461.29104 C 384.27693,459.74617 384.70932,456.30028 386.85154,453.57572 C 388.72597,451.19172 391.2981,450.14038 392.99465,450.95482 z"
       id="path3463" />
    <path
       id="path3465"
       d="M 414.69192,403.36575 C 408.74385,401.08255 400.81927,405.3383 396.14046,413.72373 C 390.97764,422.97664 391.70382,433.75698 397.75685,437.79864 C 403.80986,441.8403 412.90971,437.63167 418.07253,428.37878 C 423.23535,419.12588 422.51896,408.31724 416.46596,404.27559 C 415.89849,403.89667 415.30724,403.60193 414.69192,403.36575 z M 409.99645,415.3475 C 410.25881,415.44071 410.51475,415.59707 410.74413,415.77379 C 412.57911,417.18744 412.51269,420.78489 410.60628,423.82731 C 408.69988,426.86972 405.65587,428.19036 403.82092,426.7767 C 401.98594,425.36304 402.05236,421.76558 403.95876,418.72316 C 405.62685,416.06104 408.1599,414.69507 409.99645,415.3475 z"
       style="fill:#fbcb4f;fill-opacity:1;fill-rule:evenodd;stroke:#743f03;stroke-width:3.94562006;stroke-linecap:round;stroke-linejoin:round;stroke-miterlimit:4;stroke-dasharray:none;stroke-dashoffset:0;stroke-opacity:1" />
    <path
       id="path3469"
       d="M 396.54258,337.95834 C 401.55011,335.40581 408.90526,338.38763 413.79802,345.28449 C 419.19692,352.89484 419.56934,362.39122 414.63442,366.49149 C 409.6995,370.59179 401.31707,367.76097 395.91817,360.15063 C 390.51926,352.5403 390.13558,343.0201 395.07049,338.9198 C 395.53315,338.5354 396.02456,338.22239 396.54258,337.95834 z M 401.78687,347.999 C 401.5653,348.10503 401.35526,348.26569 401.17046,348.44167 C 399.69209,349.84948 400.0874,352.98962 402.04591,355.47244 C 404.00443,357.95527 406.80029,358.82593 408.27864,357.41813 C 409.75701,356.01033 409.36171,352.87019 407.40318,350.38736 C 405.6895,348.21489 403.33794,347.25683 401.78687,347.999 z"
       style="fill:#fbcb4f;fill-opacity:1;fill-rule:evenodd;stroke:#743f03;stroke-width:3.47686911;stroke-linecap:round;stroke-linejoin:round;stroke-miterlimit:4;stroke-dasharray:none;stroke-dashoffset:0;stroke-opacity:1" />
    <path
       style="fill:#fbcb4f;fill-opacity:1;fill-rule:evenodd;stroke:#743f03;stroke-width:4.22742319;stroke-linecap:round;stroke-linejoin:round;stroke-miterlimit:4;stroke-dasharray:none;stroke-dashoffset:0;stroke-opacity:1"
       d="M 413.66504,363.62661 C 406.61568,363.90242 400.43249,371.21289 399.36395,381.11649 C 398.18489,392.04462 403.66284,402.00221 411.59203,403.35621 C 419.5212,404.71021 426.91963,396.96086 428.0987,386.03274 C 429.27778,375.10463 423.79732,365.11609 415.86817,363.76209 C 415.1248,363.63513 414.39428,363.59806 413.66504,363.62661 z M 414.16079,376.95862 C 414.46843,376.93932 414.79731,376.98274 415.10815,377.05647 C 417.59473,377.6462 419.10895,381.09617 418.509,384.77536 C 417.90907,388.45455 415.39586,390.96383 412.9093,390.37408 C 410.42272,389.78435 408.90849,386.33438 409.50842,382.65518 C 410.03336,379.43589 412.0073,377.09377 414.16079,376.95862 z"
       id="path3467" />
    <path
       style="fill:#fbcb4f;fill-opacity:1;fill-rule:evenodd;stroke:#743f03;stroke-width:7;stroke-linecap:round;stroke-linejoin:round;stroke-miterlimit:4;stroke-dasharray:none;stroke-dashoffset:0;stroke-opacity:1"
       d="M 378.13393,481.68808 C 377.5701,481.70303 376.97991,481.73919 376.41518,481.78183 C 374.54573,481.92298 372.71535,482.20111 370.85268,482.65683 C 350.98438,487.51818 339.73711,508.94575 345.75893,530.46933 C 351.78076,551.99292 372.79686,565.48699 392.66518,560.62558 C 401.24227,558.52695 408.21748,553.34769 412.88393,546.40683 L 402.72768,527.84433 C 398.11475,533.198 392.27815,535.20924 385.72768,535.03183 C 379.2793,534.85719 372.42944,532.56681 369.88393,525.37558 C 367.33836,518.18436 370.80453,511.95168 376.44643,509.00058 C 383.75709,505.17661 390.92758,505.26885 398.50893,506.15683 L 397.29018,486.53183 C 391.39934,483.2457 384.81602,481.51089 378.13393,481.68808 z"
       id="path3534"
       sodipodi:nodetypes="cssssccsssccc" />
    <path
       style="fill:#fffffb;fill-opacity:1;fill-rule:evenodd;stroke:none;stroke-width:4;stroke-linecap:round;stroke-linejoin:round;stroke-miterlimit:4;stroke-dasharray:none;stroke-dashoffset:0;stroke-opacity:1"
       d="M 379.79018,492.34433 C 377.06815,492.34433 374.85267,494.48132 374.85268,497.12558 C 374.85268,499.76984 377.06815,501.90682 379.79018,501.90683 C 382.51221,501.90683 384.69644,499.76984 384.69643,497.12558 C 384.69643,494.48132 382.51222,492.34432 379.79018,492.34433 z M 363.72768,498.53183 C 361.00565,498.53183 358.79019,500.66882 358.79018,503.31308 C 358.79018,505.95734 361.00563,508.12557 363.72768,508.12558 C 366.44971,508.12558 368.63393,505.95735 368.63393,503.31308 C 368.63393,500.66882 366.4497,498.53182 363.72768,498.53183 z M 357.79018,515.15683 C 355.06815,515.15683 352.85268,517.29384 352.85268,519.93808 C 352.85268,522.58234 355.06815,524.75058 357.79018,524.75058 C 360.51221,524.75058 362.72769,522.58236 362.72768,519.93808 C 362.72768,517.29382 360.51222,515.1568 357.79018,515.15683 z M 365.13393,533.18808 C 362.4119,533.18808 360.19643,535.35634 360.19643,538.00058 C 360.19643,540.64484 362.4119,542.78183 365.13393,542.78183 C 367.85596,542.78183 370.04019,540.64486 370.04018,538.00058 C 370.04018,535.35632 367.85597,533.18805 365.13393,533.18808 z M 378.22768,541.37558 C 375.58342,541.37558 373.44642,543.38687 373.44643,545.87558 C 373.44643,548.3643 375.58343,550.37559 378.22768,550.37558 C 380.87194,550.37558 383.00892,548.3643 383.00893,545.87558 C 383.00893,543.38686 380.87195,541.37559 378.22768,541.37558 z M 393.16518,541.37558 C 390.83201,541.37558 388.94642,543.33964 388.94643,545.75058 C 388.94643,548.16152 390.83202,550.09431 393.16518,550.09433 C 395.49835,550.09433 397.38392,548.16153 397.38393,545.75058 C 397.38393,543.33964 395.49836,541.3756 393.16518,541.37558 z"
       id="path3522" />
  </g>
</svg>
