<?xml version="1.0" encoding="UTF-8" standalone="no"?>
<!-- Created with Inkscape (http://www.inkscape.org/) -->
<svg
   xmlns:dc="http://purl.org/dc/elements/1.1/"
   xmlns:cc="http://creativecommons.org/ns#"
   xmlns:rdf="http://www.w3.org/1999/02/22-rdf-syntax-ns#"
   xmlns:svg="http://www.w3.org/2000/svg"
   xmlns="http://www.w3.org/2000/svg"
   xmlns:sodipodi="http://sodipodi.sourceforge.net/DTD/sodipodi-0.dtd"
   xmlns:inkscape="http://www.inkscape.org/namespaces/inkscape"
   width="176.8159"
   height="49.41029"
   id="svg2"
   sodipodi:version="0.32"
   inkscape:version="0.46"
   sodipodi:docname="buggi_hearts.svg"
   inkscape:output_extension="org.inkscape.output.svg.inkscape"
   version="1.0">
  <defs
     id="defs4" />
  <sodipodi:namedview
     id="base"
     pagecolor="#ffffff"
     bordercolor="#666666"
     borderopacity="1.0"
     gridtolerance="10000"
     guidetolerance="10"
     objecttolerance="10"
     inkscape:pageopacity="0.0"
     inkscape:pageshadow="2"
     inkscape:zoom="1.9022556"
     inkscape:cx="146.51993"
     inkscape:cy="21.064923"
     inkscape:document-units="px"
     inkscape:current-layer="layer1"
     showgrid="false"
     showguides="true"
     inkscape:guide-bbox="true"
     inkscape:window-width="1024"
     inkscape:window-height="711"
     inkscape:window-x="0"
     inkscape:window-y="276">
    <sodipodi:guide
       orientation="0,1"
       position="359.9213,760.22426"
       id="guide2451" />
    <sodipodi:guide
       orientation="0,1"
       position="307.45525,680.32652"
       id="guide2453" />
    <sodipodi:guide
       orientation="0,1"
       position="372.47765,754.42161"
       id="guide2455" />
    <sodipodi:guide
       orientation="0,1"
       position="423.87745,702.62557"
       id="guide2457" />
    <sodipodi:guide
       orientation="1,0"
       position="406.2599,767.85248"
       id="guide2628" />
    <sodipodi:guide
       orientation="1,0"
       position="315.86175,759.87617"
       id="guide2630" />
  </sodipodi:namedview>
  <metadata
     id="metadata7">
    <rdf:RDF>
      <cc:Work
         rdf:about="">
        <dc:format>image/svg+xml</dc:format>
        <dc:type
           rdf:resource="http://purl.org/dc/dcmitype/StillImage" />
      </cc:Work>
    </rdf:RDF>
  </metadata>
  <g
     inkscape:label="Layer 1"
     inkscape:groupmode="layer"
     id="layer1"
     transform="translate(-316.107, -300.326)">
    <path
       style="opacity: 0.694444; fill: rgb(204, 204, 204); fill-opacity: 1; stroke: none; stroke-width: 1; stroke-miterlimit: 4; stroke-dasharray: none; stroke-opacity: 1;"
       id="path2399"
       d="M 299.25884,219.64307 C 298.12752,219.23287 296.958,218.94247 295.78086,218.69945 C 295.26017,218.55263 294.93532,218.57582 294.45167,218.80102 L 294.39962,218.79553 C 294.91614,218.42069 295.5129,218.52213 296.10898,218.65461 C 297.28258,218.91991 298.43639,219.26437 299.59094,219.60138 L 299.25884,219.64307 z" />
    <path
       style="opacity: 0.694444; fill: rgb(255, 0, 0); fill-opacity: 1; stroke: none; stroke-width: 1; stroke-miterlimit: 4; stroke-dasharray: none; stroke-opacity: 1;"
       d="M 420.49503,317.61779 C 417.81324,313.73784 407.2458,313.09962 403.65744,318.95382 C 401.05621,323.53364 403.19375,330.5073 407.21457,333.82855 C 412.10304,338.32862 417.61534,338.50783 421.59286,344.07099 C 422.88932,345.83563 424.16011,347.90922 424.82766,348.61148 C 428.45965,340.11983 432.56202,336.37591 437.64147,325.21715 C 444.66674,309.28546 426.16957,297.94057 418.87824,313.00924 C 418.33322,312.75621 417.98855,312.50182 417.19123,312.38828 C 418.96904,307.92133 422.46625,304.99538 426.25166,304.0951 C 443.22633,302.30077 446.51661,317.92126 437.21335,331.78342 C 433.85879,336.92362 428.60297,343.95216 426.75994,349.73661 C 425.95076,349.73661 424.82525,349.73661 423.40579,349.72453 C 422.24116,347.81731 421.44771,345.65164 419.72609,344.1304 C 414.90361,339.18548 407.56962,337.40235 403.33873,331.80011 C 400.26255,327.44912 399.24981,321.14947 403.24621,316.3713 C 406.7997,312.33353 416.7055,311.18901 421.5633,315.1974 C 421.04377,316.01589 420.71532,317.14118 420.49503,317.61779 z"
       id="path2461"
       sodipodi:nodetypes="ccccccccccccccccc" />
    <path
       style="opacity: 0.694444; fill: rgb(255, 0, 0); fill-opacity: 1; stroke: none; stroke-width: 1; stroke-miterlimit: 4; stroke-dasharray: none; stroke-opacity: 1;"
       d="M 412.42175,312.07312 C 412.81486,306.49048 408.37441,301.3326 403.81958,301.22035 C 400.89864,301.15888 397.43498,302.6724 396.19072,305.3684 C 395.16285,305.32633 394.72718,305.27363 393.55654,305.27637 C 392.97209,303.1779 389.73844,301.38561 387.71509,301.19194 C 375.98295,300.72787 373.11019,312.66002 379.07161,321.12324 C 383.50741,326.53909 390.94693,331.87088 395.37676,339.27934 C 397.26048,335.65057 397.99178,334.36224 401.78691,330.8029 C 402.52875,331.63221 402.31735,331.67127 403.14138,332.49889 C 399.28342,334.92765 397.74613,338.28063 396.34581,341.70802 C 395.57944,341.68801 395.80876,341.92507 394.79342,341.84009 C 392.43337,334.25352 380.24795,327.5255 375.2499,319.52624 C 367.35911,306.24829 383.74293,293.71677 394.81303,304.26757 C 397.768,300.79172 402.96449,299.8809 407.14545,301.01316 C 409.9786,302.03926 415.27547,304.34132 414.52901,312.16285 C 413.50441,312.16285 413.17533,311.97567 412.42175,312.07312 z"
       id="path2463"
       sodipodi:nodetypes="cccccccccccccccc" />
    <path
       style="opacity: 0.694444; fill: rgb(255, 0, 0); fill-opacity: 1; stroke: none; stroke-width: 1; stroke-miterlimit: 4; stroke-dasharray: none; stroke-opacity: 1;"
       d="M 439.04633,330.02877 C 443.77623,331.58269 444.93826,334.41987 446.67006,337.39203 C 448.23804,334.5551 452.21208,330.51544 454.16512,328.06114 C 456.01703,325.80307 457.71776,324.03539 458.07437,320.25983 C 457.92871,317.5661 456.2731,315.52276 453.99863,314.86252 C 450.65387,313.68559 447.28111,316.71971 446.61938,318.80164 C 446.17197,316.85607 445.02226,314.38572 442.69422,315.2894 C 442.36845,314.0657 442.75657,314.40336 442.25197,313.71955 C 445.75255,313.59148 445.70985,314.70187 446.97598,315.84538 C 448.13998,314.67896 452.46276,312.16125 457.24802,315.13885 C 459.18229,316.24093 460.02385,317.84759 459.96069,320.79111 C 459.37368,324.90621 458.32027,325.92162 454.03972,330.43592 C 451.85175,332.23423 448.79944,336.01822 447.62143,338.03677 C 446.70785,337.97752 446.61963,338.39381 445.58875,338.10755 C 444.46568,334.99128 441.48028,332.24943 438.39836,331.10802 C 438.74475,330.61173 438.71799,330.52729 439.04633,330.02877 z"
       id="path2465"
       sodipodi:nodetypes="cccccccccccccccc" />
    <path
       style="opacity: 0.694444; fill: rgb(255, 85, 85); fill-opacity: 1; stroke: none; stroke-width: 1; stroke-miterlimit: 4; stroke-dasharray: none; stroke-opacity: 1;"
       d="M 456.40744,328.94983 C 459.1934,329.90869 461.86273,332.10715 463.63317,334.44467 C 464.5749,332.93443 465.48628,331.57147 466.14125,330.76981 C 468.02373,328.46573 469.59502,325.96057 469.67931,322.9395 C 469.38854,317.70549 464.36192,318.48054 462.86606,321.6787 C 462.63917,321.66684 462.25746,321.68042 461.61674,321.6086 C 461.38326,321.20114 461.1431,320.93567 460.25031,320.6668 C 460.3621,320.1138 460.27958,319.8461 460.17194,319.35502 C 461.56881,319.64845 461.93702,320.3785 462.3057,320.8767 C 463.59988,318.72108 465.63239,317.97915 467.73954,318.27009 C 470.49168,318.79062 471.12112,320.55615 471.02855,323.18489 C 470.78487,325.58941 469.68252,327.80584 468.29087,329.74797 C 466.65487,331.73003 465.3573,333.90111 464.27507,336.22425 C 463.81305,336.24628 463.46067,336.15875 463.02347,336.01365 C 461.71722,333.65453 458.41782,330.47595 455.78266,329.47972 C 456.0345,329.26764 456.24,329.10878 456.40744,328.94983 z"
       id="path2467"
       sodipodi:nodetypes="ccsccccccccccccc" />
    <path
       style="opacity: 0.694444; fill: rgb(255, 128, 128); fill-opacity: 1; stroke: none; stroke-width: 1; stroke-miterlimit: 4; stroke-dasharray: none; stroke-opacity: 1;"
       d="M 482.7214,325.65492 C 482.96832,327.785 483.32938,330.06807 483.19667,331.81706 C 484.57566,331.01743 486.52728,330.20142 487.9163,329.95557 C 490.76572,329.45124 491.88707,326.97271 490.43421,325.0601 C 489.76701,324.18177 488.23343,324.81178 487.60315,325.08889 C 487.37356,324.79014 487.18259,324.66948 486.93664,324.45902 C 488.17152,322.93727 487.62185,320.78726 485.55322,320.08684 C 484.16196,319.88416 483.02464,320.89334 482.86459,321.07501 C 482.7462,320.89666 482.81648,320.89802 482.48593,320.55876 C 485.25313,318.09806 489.32211,320.52567 488.01957,324.00933 C 488.566,323.81128 489.62303,323.6274 490.68301,324.06376 C 491.96335,324.49885 492.54546,326.46463 492.03626,327.68889 C 491.24046,329.60221 490.59401,330.19262 486.97725,331.03791 C 485.72163,331.33137 483.95914,332.25277 483.36455,332.86147 C 483.15561,332.57059 482.76846,332.2968 482.24539,332.06705 C 482.30879,330.26531 482.1555,328.31445 481.64818,326.83195 C 482.11596,326.5313 482.45545,326.1297 482.7214,325.65492 z"
       id="path2469"
       sodipodi:nodetypes="ccsscccccccsscccc" />
    <path
       style="opacity: 0.694444; fill: rgb(255, 0, 0); fill-opacity: 1; stroke: none; stroke-width: 1; stroke-miterlimit: 4; stroke-dasharray: none; stroke-opacity: 1;"
       d="M 373.41262,316.54721 C 371.06181,314.66717 367.32458,313.90251 364.96587,319.77823 C 364.74603,319.94691 364.26854,320.18688 363.86795,320.32141 C 363.02518,319.73979 361.80309,318.99346 360.01094,319.80283 C 356.49839,321.07334 355.69791,324.65385 356.19109,328.01924 C 358.34528,335.91197 369.18182,332.8955 373.04666,338.12864 C 373.41742,330.98876 378.24752,328.54407 378.3166,324.30202 C 378.93622,325.38956 379.31516,325.49272 379.7388,326.0148 C 378.96237,328.71876 374.34169,332.4675 374.40482,338.78514 C 373.86889,339.1962 373.40422,339.42306 372.84992,339.99046 C 369.00784,335.27011 363.95289,335.50133 360.13051,334.05709 C 355.50907,331.99053 354.18419,328.69141 355.1244,324.18664 C 356.35067,319.63301 360.01474,317.71229 363.93123,319.09654 C 365.71434,315.66887 367.98311,313.08582 372.80178,313.88409 C 372.93525,314.77753 373.10971,315.38166 373.41262,316.54721 z"
       id="path2471"
       sodipodi:nodetypes="ccccccccccccccc" />
    <path
       style="opacity: 0.694444; fill: rgb(255, 128, 128); fill-opacity: 1; stroke: none; stroke-width: 1; stroke-miterlimit: 4; stroke-dasharray: none; stroke-opacity: 1;"
       d="M 348.62412,318.36337 C 348.10243,318.2333 348.27913,318.21835 347.88123,318.18878 C 344.14308,313.01851 337.56879,317.23793 339.18477,322.87636 C 340.28575,327.34843 342.85294,331.24976 344.53359,335.49788 C 344.24363,336.38108 342.93721,336.07758 343.63859,335.13972 C 346.20179,332.65368 351.03844,329.69364 354.47048,328.30842 C 354.62399,328.74497 354.76568,329.09318 354.90402,329.52496 C 353.47718,329.96107 347.7753,332.09355 345.96656,334.98741 C 345.3278,335.99664 343.61302,336.7993 342.79085,335.56444 C 341.52122,333.93164 341.28181,331.78861 340.26962,330.01439 C 338.85014,326.99524 337.65122,324.48404 337.57773,321.07701 C 337.61059,318.70443 339.27303,316.39444 341.33351,315.43425 C 343.22854,314.69561 344.16519,314.57869 346.39436,315.53653 C 347.04926,316.00065 347.82782,316.79577 348.29702,317.78688 C 351.23054,314.56583 355.49663,315.45885 357.36401,319.35423 C 357.02112,319.6053 356.9574,319.63358 356.48215,320.15395 C 355.24724,316.45971 350.43823,315.78547 348.62412,318.36337 z"
       id="path2473"
       sodipodi:nodetypes="ccccccccccccccccc" />
    <path
       style="opacity: 0.694444; fill: rgb(255, 0, 0); fill-opacity: 1; stroke: none; stroke-width: 1; stroke-miterlimit: 4; stroke-dasharray: none; stroke-opacity: 1;"
       d="M 338.96743,316.67265 C 336.95159,313.14643 333.5951,316.60548 333.3487,319.39675 C 332.71005,319.8293 332.60156,319.92672 331.86022,320.31742 C 331.33887,319.40478 329.19762,318.35811 328.10787,318.85642 C 326.84613,319.41913 326.74616,320.9087 327.03936,322.12746 C 327.50293,324.32026 329.55656,325.79153 331.53173,326.65375 C 332.86994,327.36295 334.93101,328.17598 336.24855,328.92351 C 336.64115,327.56336 337.07321,326.50778 337.84296,325.29564 C 338.00333,325.80533 338.09203,326.10843 338.37938,326.6492 C 337.49075,327.4542 337.31065,328.60415 337.02804,329.71968 C 336.55203,329.83211 336.56901,329.76558 336.28751,330.05077 C 335.14134,329.22104 332.57273,328.02383 331.28393,327.43055 C 329.28869,326.46079 327.53861,325.82212 326.24943,323.93155 C 325.26222,322.53806 324.94635,320.467 326.06837,319.05816 C 327.0051,317.95466 328.61362,318.05097 329.90169,318.30208 C 330.54239,318.35741 331.70952,318.93085 332.25283,319.0562 C 332.38973,318.35719 332.44247,317.95876 333.04054,316.60112 C 333.61,315.54068 334.27746,314.88427 335.63892,314.44047 C 337.73385,314.05429 338.80204,314.24877 339.91648,315.70195 C 339.69557,315.91412 339.2699,316.25713 338.96743,316.67265 z"
       id="path2475"
       sodipodi:nodetypes="cccccccccccccccccccc" />
    <path
       style="opacity: 0.694444; fill: rgb(255, 85, 85); fill-opacity: 1; stroke: none; stroke-width: 1; stroke-miterlimit: 4; stroke-dasharray: none; stroke-opacity: 1;"
       d="M 327.63648,326.04571 C 325.38008,328.10565 324.018,330.83393 323.14212,331.81501 C 322.57965,332.44503 321.93419,332.2507 321.51226,332.18033 C 320.86384,330.32825 318.08238,328.46724 317.59927,326.54876 C 317.29944,325.50316 317.0895,324.37936 317.32492,323.30122 C 317.68734,322.29385 319.22554,321.65403 320.24327,321.73145 C 321.00228,321.71951 321.42211,321.92189 322.06277,322.36434 C 322.93352,322.86617 321.94021,323.22653 321.27492,322.82714 C 321.31468,322.12945 322.04583,321.79471 322.59153,321.52691 C 323.26304,321.25659 323.99407,321.15619 324.71502,321.17454 C 325.47973,321.48681 325.02503,323.36128 324.91064,322.53213 C 324.99655,322.29516 324.04271,322.07216 323.77918,322.00771 C 323.03092,322.40628 323.40092,322.77156 322.49076,322.88449 C 320.70851,322.75638 319.99056,322.19949 318.97407,323.67939 C 318.89742,324.63403 319.13383,325.58708 319.3899,326.50001 C 319.9171,328.27558 321.00795,329.20491 321.83017,330.85074 C 322.55489,331.78334 322.95803,330.3659 323.22047,329.98734 C 324.22208,328.64861 324.99338,326.59602 326.3907,325.55342 C 326.8247,325.05644 327.03826,325.8517 327.63648,326.04571 z"
       id="path2477"
       sodipodi:nodetypes="csccccccccccccccccc" />
    <path
       style="opacity: 0.694444; fill: rgb(255, 0, 0); fill-opacity: 1; stroke: none; stroke-width: 1; stroke-miterlimit: 4; stroke-dasharray: none; stroke-opacity: 1;"
       d="M 469.26999,318.39962 C 471.28583,314.8734 474.64232,318.33245 474.88872,321.12372 C 475.52737,321.55627 475.63586,321.65369 476.3772,322.04439 C 476.89855,321.13175 479.0398,320.08508 480.12955,320.58339 C 481.39129,321.1461 481.49126,322.63567 481.19806,323.85443 C 480.73449,326.04723 478.68086,327.5185 476.70569,328.38072 C 475.36748,329.08992 473.30641,329.90295 471.98887,330.65048 C 471.59627,329.29033 471.16421,328.23475 470.39446,327.02261 C 470.23409,327.5323 470.14539,327.8354 469.85804,328.37617 C 470.74667,329.18117 470.92677,330.33112 471.20938,331.44665 C 471.68539,331.55908 471.66841,331.49255 471.94991,331.77774 C 473.09608,330.94801 475.66469,329.7508 476.95349,329.15752 C 478.94873,328.18776 480.69881,327.54909 481.98799,325.65852 C 482.9752,324.26503 483.29107,322.19397 482.16905,320.78513 C 481.23232,319.68163 479.6238,319.77794 478.33573,320.02905 C 477.69503,320.08438 476.5279,320.65782 475.98459,320.78317 C 475.84769,320.08416 475.79495,319.68573 475.19688,318.32809 C 474.62742,317.26765 473.95996,316.61124 472.5985,316.16744 C 470.50357,315.78126 469.43538,315.97574 468.32094,317.42892 C 468.54185,317.64109 468.96752,317.9841 469.26999,318.39962 z"
       id="path2626"
       sodipodi:nodetypes="cccccccccccccccccccc" />
  </g>
</svg>
