<?xml version="1.0" encoding="UTF-8" standalone="no"?>
<!-- Created with Inkscape (http://www.inkscape.org/) -->
<svg
   xmlns:dc="http://purl.org/dc/elements/1.1/"
   xmlns:cc="http://creativecommons.org/ns#"
   xmlns:rdf="http://www.w3.org/1999/02/22-rdf-syntax-ns#"
   xmlns:svg="http://www.w3.org/2000/svg"
   xmlns="http://www.w3.org/2000/svg"
   xmlns:xlink="http://www.w3.org/1999/xlink"
   xmlns:sodipodi="http://sodipodi.sourceforge.net/DTD/sodipodi-0.dtd"
   xmlns:inkscape="http://www.inkscape.org/namespaces/inkscape"
   width="490"
   height="401"
   id="svg2"
   sodipodi:version="0.32"
   inkscape:version="0.46"
   sodipodi:docname="pixabella_Red_Heart_Shaped_Border_with_Little_Hearts.svg"
   inkscape:output_extension="org.inkscape.output.svg.inkscape"
   version="1.0"
   inkscape:export-filename="/Users/ceejay/Documents/Websites/Pixabella/Valentines Clipart/heart_border.svg.png"
   inkscape:export-xdpi="90"
   inkscape:export-ydpi="90">
  <defs
     id="defs4">
    <linearGradient
       id="linearGradient6860">
      <stop
         style="stop-color: rgb(118, 4, 4); stop-opacity: 1;"
         offset="0"
         id="stop6862" />
      <stop
         id="stop6864"
         offset="0.47916666"
         style="stop-color: rgb(191, 12, 26); stop-opacity: 1;" />
      <stop
         style="stop-color: rgb(253, 96, 96); stop-opacity: 1;"
         offset="1"
         id="stop6866" />
    </linearGradient>
    <filter
       inkscape:collect="always"
       id="filter4019"
       x="-0.13809524"
       width="1.2761905"
       y="-0.13809524"
       height="1.2761905">
      <feGaussianBlur
         inkscape:collect="always"
         stdDeviation="28.193756"
         id="feGaussianBlur4021" />
    </filter>
    <filter
       inkscape:collect="always"
       id="filter6901"
       x="-0.68087023"
       width="2.3617406"
       y="-0.32294434"
       height="1.6458887">
      <feGaussianBlur
         inkscape:collect="always"
         stdDeviation="3.2218485"
         id="feGaussianBlur6903" />
    </filter>
    <linearGradient
       inkscape:collect="always"
       xlink:href="#linearGradient6860"
       id="linearGradient6939"
       gradientUnits="userSpaceOnUse"
       gradientTransform="matrix(0.590834, 0, 0, 0.590834, -188.171, -59.3881)"
       x1="-229.30299"
       y1="-37.29353"
       x2="-335.08981"
       y2="-124.52757" />
    <linearGradient
       inkscape:collect="always"
       xlink:href="#linearGradient6860"
       id="linearGradient6941"
       gradientUnits="userSpaceOnUse"
       gradientTransform="matrix(0.590834, 0, 0, 0.590834, -188.171, -59.3881)"
       x1="-166.53705"
       y1="-18.144592"
       x2="-316.15518"
       y2="-154.3148" />
    <linearGradient
       inkscape:collect="always"
       xlink:href="#linearGradient6860"
       id="linearGradient6949"
       gradientUnits="userSpaceOnUse"
       gradientTransform="matrix(0.56053, 0.196734, -0.177348, 0.56053, -207.238, -12.1832)"
       x1="-229.30299"
       y1="-37.29353"
       x2="-335.08981"
       y2="-124.52757" />
    <linearGradient
       inkscape:collect="always"
       xlink:href="#linearGradient6860"
       id="linearGradient6951"
       gradientUnits="userSpaceOnUse"
       gradientTransform="matrix(0.56053, 0.196734, -0.177348, 0.56053, -207.238, -12.1832)"
       x1="-166.53705"
       y1="-18.144592"
       x2="-316.15518"
       y2="-154.3148" />
    <linearGradient
       inkscape:collect="always"
       xlink:href="#linearGradient6860"
       id="linearGradient6959"
       gradientUnits="userSpaceOnUse"
       gradientTransform="matrix(0.590642, 0.0158645, -0.0143012, 0.590642, -189.273, -56.6809)"
       x1="-229.30299"
       y1="-37.29353"
       x2="-335.08981"
       y2="-124.52757" />
    <linearGradient
       inkscape:collect="always"
       xlink:href="#linearGradient6860"
       id="linearGradient6961"
       gradientUnits="userSpaceOnUse"
       gradientTransform="matrix(0.590642, 0.0158645, -0.0143012, 0.590642, -189.273, -56.6809)"
       x1="-166.53705"
       y1="-18.144592"
       x2="-316.15518"
       y2="-154.3148" />
    <linearGradient
       inkscape:collect="always"
       xlink:href="#linearGradient6860"
       id="linearGradient6971"
       gradientUnits="userSpaceOnUse"
       gradientTransform="matrix(0.59083, 0.00238475, -0.00214976, 0.59083, -196.941, -50.9714)"
       x1="-229.30299"
       y1="-37.29353"
       x2="-335.08981"
       y2="-124.52757" />
    <linearGradient
       inkscape:collect="always"
       xlink:href="#linearGradient6860"
       id="linearGradient6973"
       gradientUnits="userSpaceOnUse"
       gradientTransform="matrix(0.59083, 0.00238475, -0.00214976, 0.59083, -196.941, -50.9714)"
       x1="-166.53705"
       y1="-18.144592"
       x2="-316.15518"
       y2="-154.3148" />
    <linearGradient
       inkscape:collect="always"
       xlink:href="#linearGradient6860"
       id="linearGradient6981"
       gradientUnits="userSpaceOnUse"
       gradientTransform="matrix(0.552212, -0.221296, 0.19949, 0.552212, -182.577, -118.045)"
       x1="-229.30299"
       y1="-37.29353"
       x2="-335.08981"
       y2="-124.52757" />
    <linearGradient
       inkscape:collect="always"
       xlink:href="#linearGradient6860"
       id="linearGradient6983"
       gradientUnits="userSpaceOnUse"
       gradientTransform="matrix(0.552212, -0.221296, 0.19949, 0.552212, -182.577, -118.045)"
       x1="-166.53705"
       y1="-18.144592"
       x2="-316.15518"
       y2="-154.3148" />
    <linearGradient
       inkscape:collect="always"
       xlink:href="#linearGradient6860"
       id="linearGradient6991"
       gradientUnits="userSpaceOnUse"
       gradientTransform="matrix(0.590834, 0, 0, 0.590834, -188.171, -59.3881)"
       x1="-229.30299"
       y1="-37.29353"
       x2="-335.08981"
       y2="-124.52757" />
    <linearGradient
       inkscape:collect="always"
       xlink:href="#linearGradient6860"
       id="linearGradient6993"
       gradientUnits="userSpaceOnUse"
       gradientTransform="matrix(0.590834, 0, 0, 0.590834, -188.171, -59.3881)"
       x1="-166.53705"
       y1="-18.144592"
       x2="-316.15518"
       y2="-154.3148" />
    <linearGradient
       inkscape:collect="always"
       xlink:href="#linearGradient6860"
       id="linearGradient7001"
       gradientUnits="userSpaceOnUse"
       gradientTransform="matrix(0.589405, 0.043256, -0.0389936, 0.589405, -188.977, -57.0369)"
       x1="-229.30299"
       y1="-37.29353"
       x2="-335.08981"
       y2="-124.52757" />
    <linearGradient
       inkscape:collect="always"
       xlink:href="#linearGradient6860"
       id="linearGradient7003"
       gradientUnits="userSpaceOnUse"
       gradientTransform="matrix(0.589405, 0.043256, -0.0389936, 0.589405, -188.977, -57.0369)"
       x1="-166.53705"
       y1="-18.144592"
       x2="-316.15518"
       y2="-154.3148" />
    <linearGradient
       inkscape:collect="always"
       xlink:href="#linearGradient6860"
       id="linearGradient7011"
       gradientUnits="userSpaceOnUse"
       gradientTransform="matrix(0.590834, 0, 0, 0.590834, -188.171, -59.3881)"
       x1="-229.30299"
       y1="-37.29353"
       x2="-335.08981"
       y2="-124.52757" />
    <linearGradient
       inkscape:collect="always"
       xlink:href="#linearGradient6860"
       id="linearGradient7013"
       gradientUnits="userSpaceOnUse"
       gradientTransform="matrix(0.590834, 0, 0, 0.590834, -188.171, -59.3881)"
       x1="-166.53705"
       y1="-18.144592"
       x2="-316.15518"
       y2="-154.3148" />
    <linearGradient
       inkscape:collect="always"
       xlink:href="#linearGradient6860"
       id="linearGradient7021"
       gradientUnits="userSpaceOnUse"
       gradientTransform="matrix(0.590834, 0, 0, 0.590834, -188.171, -59.3881)"
       x1="-229.30299"
       y1="-37.29353"
       x2="-335.08981"
       y2="-124.52757" />
    <linearGradient
       inkscape:collect="always"
       xlink:href="#linearGradient6860"
       id="linearGradient7023"
       gradientUnits="userSpaceOnUse"
       gradientTransform="matrix(0.590834, 0, 0, 0.590834, -188.171, -59.3881)"
       x1="-166.53705"
       y1="-18.144592"
       x2="-316.15518"
       y2="-154.3148" />
    <linearGradient
       inkscape:collect="always"
       xlink:href="#linearGradient6860"
       id="linearGradient7031"
       gradientUnits="userSpaceOnUse"
       gradientTransform="matrix(0.590834, 0, 0, 0.590834, -188.171, -59.3881)"
       x1="-229.30299"
       y1="-37.29353"
       x2="-335.08981"
       y2="-124.52757" />
    <linearGradient
       inkscape:collect="always"
       xlink:href="#linearGradient6860"
       id="linearGradient7033"
       gradientUnits="userSpaceOnUse"
       gradientTransform="matrix(0.590834, 0, 0, 0.590834, -188.171, -59.3881)"
       x1="-166.53705"
       y1="-18.144592"
       x2="-316.15518"
       y2="-154.3148" />
    <linearGradient
       inkscape:collect="always"
       xlink:href="#linearGradient6860"
       id="linearGradient7041"
       gradientUnits="userSpaceOnUse"
       gradientTransform="matrix(0.590834, 0, 0, 0.590834, -188.171, -59.3881)"
       x1="-229.30299"
       y1="-37.29353"
       x2="-335.08981"
       y2="-124.52757" />
    <linearGradient
       inkscape:collect="always"
       xlink:href="#linearGradient6860"
       id="linearGradient7043"
       gradientUnits="userSpaceOnUse"
       gradientTransform="matrix(0.590834, 0, 0, 0.590834, -188.171, -59.3881)"
       x1="-166.53705"
       y1="-18.144592"
       x2="-316.15518"
       y2="-154.3148" />
    <linearGradient
       inkscape:collect="always"
       xlink:href="#linearGradient6860"
       id="linearGradient7051"
       gradientUnits="userSpaceOnUse"
       gradientTransform="matrix(0.590834, 0, 0, 0.590834, -188.171, -59.3881)"
       x1="-229.30299"
       y1="-37.29353"
       x2="-335.08981"
       y2="-124.52757" />
    <linearGradient
       inkscape:collect="always"
       xlink:href="#linearGradient6860"
       id="linearGradient7053"
       gradientUnits="userSpaceOnUse"
       gradientTransform="matrix(0.590834, 0, 0, 0.590834, -188.171, -59.3881)"
       x1="-166.53705"
       y1="-18.144592"
       x2="-316.15518"
       y2="-154.3148" />
    <linearGradient
       inkscape:collect="always"
       xlink:href="#linearGradient6860"
       id="linearGradient7071"
       gradientUnits="userSpaceOnUse"
       gradientTransform="matrix(0.590834, 0, 0, 0.590834, -188.171, -59.3881)"
       x1="-229.30299"
       y1="-37.29353"
       x2="-335.08981"
       y2="-124.52757" />
    <linearGradient
       inkscape:collect="always"
       xlink:href="#linearGradient6860"
       id="linearGradient7073"
       gradientUnits="userSpaceOnUse"
       gradientTransform="matrix(0.590834, 0, 0, 0.590834, -188.171, -59.3881)"
       x1="-166.53705"
       y1="-18.144592"
       x2="-316.15518"
       y2="-154.3148" />
    <linearGradient
       inkscape:collect="always"
       xlink:href="#linearGradient6860"
       id="linearGradient7081"
       gradientUnits="userSpaceOnUse"
       gradientTransform="matrix(0.590834, 0, 0, 0.590834, -188.171, -59.3881)"
       x1="-229.30299"
       y1="-37.29353"
       x2="-335.08981"
       y2="-124.52757" />
    <linearGradient
       inkscape:collect="always"
       xlink:href="#linearGradient6860"
       id="linearGradient7083"
       gradientUnits="userSpaceOnUse"
       gradientTransform="matrix(0.590834, 0, 0, 0.590834, -188.171, -59.3881)"
       x1="-166.53705"
       y1="-18.144592"
       x2="-316.15518"
       y2="-154.3148" />
    <linearGradient
       inkscape:collect="always"
       xlink:href="#linearGradient6860"
       id="linearGradient7091"
       gradientUnits="userSpaceOnUse"
       gradientTransform="matrix(0.590834, 0, 0, 0.590834, -188.171, -59.3881)"
       x1="-229.30299"
       y1="-37.29353"
       x2="-335.08981"
       y2="-124.52757" />
    <linearGradient
       inkscape:collect="always"
       xlink:href="#linearGradient6860"
       id="linearGradient7093"
       gradientUnits="userSpaceOnUse"
       gradientTransform="matrix(0.590834, 0, 0, 0.590834, -188.171, -59.3881)"
       x1="-166.53705"
       y1="-18.144592"
       x2="-316.15518"
       y2="-154.3148" />
    <linearGradient
       inkscape:collect="always"
       xlink:href="#linearGradient6860"
       id="linearGradient7101"
       gradientUnits="userSpaceOnUse"
       gradientTransform="matrix(0.590834, 0, 0, 0.590834, -188.171, -59.3881)"
       x1="-229.30299"
       y1="-37.29353"
       x2="-335.08981"
       y2="-124.52757" />
    <linearGradient
       inkscape:collect="always"
       xlink:href="#linearGradient6860"
       id="linearGradient7103"
       gradientUnits="userSpaceOnUse"
       gradientTransform="matrix(0.590834, 0, 0, 0.590834, -188.171, -59.3881)"
       x1="-166.53705"
       y1="-18.144592"
       x2="-316.15518"
       y2="-154.3148" />
    <linearGradient
       inkscape:collect="always"
       xlink:href="#linearGradient6860"
       id="linearGradient7111"
       gradientUnits="userSpaceOnUse"
       gradientTransform="matrix(0.590834, 0, 0, 0.590834, -188.171, -59.3881)"
       x1="-229.30299"
       y1="-37.29353"
       x2="-335.08981"
       y2="-124.52757" />
    <linearGradient
       inkscape:collect="always"
       xlink:href="#linearGradient6860"
       id="linearGradient7113"
       gradientUnits="userSpaceOnUse"
       gradientTransform="matrix(0.590834, 0, 0, 0.590834, -188.171, -59.3881)"
       x1="-166.53705"
       y1="-18.144592"
       x2="-316.15518"
       y2="-154.3148" />
    <linearGradient
       inkscape:collect="always"
       xlink:href="#linearGradient6860"
       id="linearGradient7121"
       gradientUnits="userSpaceOnUse"
       gradientTransform="matrix(0.590834, 0, 0, 0.590834, -188.171, -59.3881)"
       x1="-229.30299"
       y1="-37.29353"
       x2="-335.08981"
       y2="-124.52757" />
    <linearGradient
       inkscape:collect="always"
       xlink:href="#linearGradient6860"
       id="linearGradient7123"
       gradientUnits="userSpaceOnUse"
       gradientTransform="matrix(0.590834, 0, 0, 0.590834, -188.171, -59.3881)"
       x1="-166.53705"
       y1="-18.144592"
       x2="-316.15518"
       y2="-154.3148" />
    <linearGradient
       inkscape:collect="always"
       xlink:href="#linearGradient6860"
       id="linearGradient7131"
       gradientUnits="userSpaceOnUse"
       gradientTransform="matrix(0.590834, 0, 0, 0.590834, -188.171, -59.3881)"
       x1="-229.30299"
       y1="-37.29353"
       x2="-335.08981"
       y2="-124.52757" />
    <linearGradient
       inkscape:collect="always"
       xlink:href="#linearGradient6860"
       id="linearGradient7133"
       gradientUnits="userSpaceOnUse"
       gradientTransform="matrix(0.590834, 0, 0, 0.590834, -188.171, -59.3881)"
       x1="-166.53705"
       y1="-18.144592"
       x2="-316.15518"
       y2="-154.3148" />
    <linearGradient
       inkscape:collect="always"
       xlink:href="#linearGradient6860"
       id="linearGradient7292"
       gradientUnits="userSpaceOnUse"
       gradientTransform="matrix(0.56053, 0.196734, -0.177348, 0.56053, -207.238, -12.1832)"
       x1="-229.30299"
       y1="-37.29353"
       x2="-335.08981"
       y2="-124.52757" />
    <linearGradient
       inkscape:collect="always"
       xlink:href="#linearGradient6860"
       id="linearGradient7294"
       gradientUnits="userSpaceOnUse"
       gradientTransform="matrix(0.56053, 0.196734, -0.177348, 0.56053, -207.238, -12.1832)"
       x1="-166.53705"
       y1="-18.144592"
       x2="-316.15518"
       y2="-154.3148" />
    <linearGradient
       inkscape:collect="always"
       xlink:href="#linearGradient6860"
       id="linearGradient7296"
       gradientUnits="userSpaceOnUse"
       gradientTransform="matrix(0.590642, 0.0158645, -0.0143012, 0.590642, -189.273, -56.6809)"
       x1="-229.30299"
       y1="-37.29353"
       x2="-335.08981"
       y2="-124.52757" />
    <linearGradient
       inkscape:collect="always"
       xlink:href="#linearGradient6860"
       id="linearGradient7298"
       gradientUnits="userSpaceOnUse"
       gradientTransform="matrix(0.590642, 0.0158645, -0.0143012, 0.590642, -189.273, -56.6809)"
       x1="-166.53705"
       y1="-18.144592"
       x2="-316.15518"
       y2="-154.3148" />
    <linearGradient
       inkscape:collect="always"
       xlink:href="#linearGradient6860"
       id="linearGradient7300"
       gradientUnits="userSpaceOnUse"
       gradientTransform="matrix(0.59083, 0.00238475, -0.00214976, 0.59083, -196.941, -50.9714)"
       x1="-229.30299"
       y1="-37.29353"
       x2="-335.08981"
       y2="-124.52757" />
    <linearGradient
       inkscape:collect="always"
       xlink:href="#linearGradient6860"
       id="linearGradient7302"
       gradientUnits="userSpaceOnUse"
       gradientTransform="matrix(0.59083, 0.00238475, -0.00214976, 0.59083, -196.941, -50.9714)"
       x1="-166.53705"
       y1="-18.144592"
       x2="-316.15518"
       y2="-154.3148" />
    <linearGradient
       inkscape:collect="always"
       xlink:href="#linearGradient6860"
       id="linearGradient7304"
       gradientUnits="userSpaceOnUse"
       gradientTransform="matrix(0.552212, -0.221296, 0.19949, 0.552212, -182.577, -118.045)"
       x1="-229.30299"
       y1="-37.29353"
       x2="-335.08981"
       y2="-124.52757" />
    <linearGradient
       inkscape:collect="always"
       xlink:href="#linearGradient6860"
       id="linearGradient7306"
       gradientUnits="userSpaceOnUse"
       gradientTransform="matrix(0.552212, -0.221296, 0.19949, 0.552212, -182.577, -118.045)"
       x1="-166.53705"
       y1="-18.144592"
       x2="-316.15518"
       y2="-154.3148" />
    <linearGradient
       inkscape:collect="always"
       xlink:href="#linearGradient6860"
       id="linearGradient7308"
       gradientUnits="userSpaceOnUse"
       gradientTransform="matrix(0.590834, 0, 0, 0.590834, -188.171, -59.3881)"
       x1="-229.30299"
       y1="-37.29353"
       x2="-335.08981"
       y2="-124.52757" />
    <linearGradient
       inkscape:collect="always"
       xlink:href="#linearGradient6860"
       id="linearGradient7310"
       gradientUnits="userSpaceOnUse"
       gradientTransform="matrix(0.590834, 0, 0, 0.590834, -188.171, -59.3881)"
       x1="-166.53705"
       y1="-18.144592"
       x2="-316.15518"
       y2="-154.3148" />
    <linearGradient
       inkscape:collect="always"
       xlink:href="#linearGradient6860"
       id="linearGradient7312"
       gradientUnits="userSpaceOnUse"
       gradientTransform="matrix(0.589405, 0.043256, -0.0389936, 0.589405, -188.977, -57.0369)"
       x1="-229.30299"
       y1="-37.29353"
       x2="-335.08981"
       y2="-124.52757" />
    <linearGradient
       inkscape:collect="always"
       xlink:href="#linearGradient6860"
       id="linearGradient7314"
       gradientUnits="userSpaceOnUse"
       gradientTransform="matrix(0.589405, 0.043256, -0.0389936, 0.589405, -188.977, -57.0369)"
       x1="-166.53705"
       y1="-18.144592"
       x2="-316.15518"
       y2="-154.3148" />
    <linearGradient
       inkscape:collect="always"
       xlink:href="#linearGradient6860"
       id="linearGradient7316"
       gradientUnits="userSpaceOnUse"
       gradientTransform="matrix(0.590834, 0, 0, 0.590834, -188.171, -59.3881)"
       x1="-229.30299"
       y1="-37.29353"
       x2="-335.08981"
       y2="-124.52757" />
    <linearGradient
       inkscape:collect="always"
       xlink:href="#linearGradient6860"
       id="linearGradient7318"
       gradientUnits="userSpaceOnUse"
       gradientTransform="matrix(0.590834, 0, 0, 0.590834, -188.171, -59.3881)"
       x1="-166.53705"
       y1="-18.144592"
       x2="-316.15518"
       y2="-154.3148" />
    <linearGradient
       inkscape:collect="always"
       xlink:href="#linearGradient6860"
       id="linearGradient7320"
       gradientUnits="userSpaceOnUse"
       gradientTransform="matrix(0.590834, 0, 0, 0.590834, -188.171, -59.3881)"
       x1="-229.30299"
       y1="-37.29353"
       x2="-335.08981"
       y2="-124.52757" />
    <linearGradient
       inkscape:collect="always"
       xlink:href="#linearGradient6860"
       id="linearGradient7322"
       gradientUnits="userSpaceOnUse"
       gradientTransform="matrix(0.590834, 0, 0, 0.590834, -188.171, -59.3881)"
       x1="-166.53705"
       y1="-18.144592"
       x2="-316.15518"
       y2="-154.3148" />
    <linearGradient
       inkscape:collect="always"
       xlink:href="#linearGradient6860"
       id="linearGradient7324"
       gradientUnits="userSpaceOnUse"
       gradientTransform="matrix(0.590834, 0, 0, 0.590834, -188.171, -59.3881)"
       x1="-229.30299"
       y1="-37.29353"
       x2="-335.08981"
       y2="-124.52757" />
    <linearGradient
       inkscape:collect="always"
       xlink:href="#linearGradient6860"
       id="linearGradient7326"
       gradientUnits="userSpaceOnUse"
       gradientTransform="matrix(0.590834, 0, 0, 0.590834, -188.171, -59.3881)"
       x1="-166.53705"
       y1="-18.144592"
       x2="-316.15518"
       y2="-154.3148" />
    <linearGradient
       inkscape:collect="always"
       xlink:href="#linearGradient6860"
       id="linearGradient7328"
       gradientUnits="userSpaceOnUse"
       gradientTransform="matrix(0.590834, 0, 0, 0.590834, -188.171, -59.3881)"
       x1="-229.30299"
       y1="-37.29353"
       x2="-335.08981"
       y2="-124.52757" />
    <linearGradient
       inkscape:collect="always"
       xlink:href="#linearGradient6860"
       id="linearGradient7330"
       gradientUnits="userSpaceOnUse"
       gradientTransform="matrix(0.590834, 0, 0, 0.590834, -188.171, -59.3881)"
       x1="-166.53705"
       y1="-18.144592"
       x2="-316.15518"
       y2="-154.3148" />
    <linearGradient
       inkscape:collect="always"
       xlink:href="#linearGradient6860"
       id="linearGradient7332"
       gradientUnits="userSpaceOnUse"
       gradientTransform="matrix(0.590834, 0, 0, 0.590834, -188.171, -59.3881)"
       x1="-229.30299"
       y1="-37.29353"
       x2="-335.08981"
       y2="-124.52757" />
    <linearGradient
       inkscape:collect="always"
       xlink:href="#linearGradient6860"
       id="linearGradient7334"
       gradientUnits="userSpaceOnUse"
       gradientTransform="matrix(0.590834, 0, 0, 0.590834, -188.171, -59.3881)"
       x1="-166.53705"
       y1="-18.144592"
       x2="-316.15518"
       y2="-154.3148" />
    <linearGradient
       inkscape:collect="always"
       xlink:href="#linearGradient6860"
       id="linearGradient7336"
       gradientUnits="userSpaceOnUse"
       gradientTransform="matrix(0.590834, 0, 0, 0.590834, -188.171, -59.3881)"
       x1="-229.30299"
       y1="-37.29353"
       x2="-335.08981"
       y2="-124.52757" />
    <linearGradient
       inkscape:collect="always"
       xlink:href="#linearGradient6860"
       id="linearGradient7338"
       gradientUnits="userSpaceOnUse"
       gradientTransform="matrix(0.590834, 0, 0, 0.590834, -188.171, -59.3881)"
       x1="-166.53705"
       y1="-18.144592"
       x2="-316.15518"
       y2="-154.3148" />
    <linearGradient
       inkscape:collect="always"
       xlink:href="#linearGradient6860"
       id="linearGradient7340"
       gradientUnits="userSpaceOnUse"
       gradientTransform="matrix(0.590834, 0, 0, 0.590834, -188.171, -59.3881)"
       x1="-229.30299"
       y1="-37.29353"
       x2="-335.08981"
       y2="-124.52757" />
    <linearGradient
       inkscape:collect="always"
       xlink:href="#linearGradient6860"
       id="linearGradient7342"
       gradientUnits="userSpaceOnUse"
       gradientTransform="matrix(0.590834, 0, 0, 0.590834, -188.171, -59.3881)"
       x1="-166.53705"
       y1="-18.144592"
       x2="-316.15518"
       y2="-154.3148" />
    <linearGradient
       inkscape:collect="always"
       xlink:href="#linearGradient6860"
       id="linearGradient7344"
       gradientUnits="userSpaceOnUse"
       gradientTransform="matrix(0.590834, 0, 0, 0.590834, -188.171, -59.3881)"
       x1="-229.30299"
       y1="-37.29353"
       x2="-335.08981"
       y2="-124.52757" />
    <linearGradient
       inkscape:collect="always"
       xlink:href="#linearGradient6860"
       id="linearGradient7346"
       gradientUnits="userSpaceOnUse"
       gradientTransform="matrix(0.590834, 0, 0, 0.590834, -188.171, -59.3881)"
       x1="-166.53705"
       y1="-18.144592"
       x2="-316.15518"
       y2="-154.3148" />
    <linearGradient
       inkscape:collect="always"
       xlink:href="#linearGradient6860"
       id="linearGradient7348"
       gradientUnits="userSpaceOnUse"
       gradientTransform="matrix(0.590834, 0, 0, 0.590834, -188.171, -59.3881)"
       x1="-229.30299"
       y1="-37.29353"
       x2="-335.08981"
       y2="-124.52757" />
    <linearGradient
       inkscape:collect="always"
       xlink:href="#linearGradient6860"
       id="linearGradient7350"
       gradientUnits="userSpaceOnUse"
       gradientTransform="matrix(0.590834, 0, 0, 0.590834, -188.171, -59.3881)"
       x1="-166.53705"
       y1="-18.144592"
       x2="-316.15518"
       y2="-154.3148" />
    <linearGradient
       inkscape:collect="always"
       xlink:href="#linearGradient6860"
       id="linearGradient7352"
       gradientUnits="userSpaceOnUse"
       gradientTransform="matrix(0.590834, 0, 0, 0.590834, -188.171, -59.3881)"
       x1="-229.30299"
       y1="-37.29353"
       x2="-335.08981"
       y2="-124.52757" />
    <linearGradient
       inkscape:collect="always"
       xlink:href="#linearGradient6860"
       id="linearGradient7354"
       gradientUnits="userSpaceOnUse"
       gradientTransform="matrix(0.590834, 0, 0, 0.590834, -188.171, -59.3881)"
       x1="-166.53705"
       y1="-18.144592"
       x2="-316.15518"
       y2="-154.3148" />
    <linearGradient
       inkscape:collect="always"
       xlink:href="#linearGradient6860"
       id="linearGradient7356"
       gradientUnits="userSpaceOnUse"
       gradientTransform="matrix(0.590834, 0, 0, 0.590834, -188.171, -59.3881)"
       x1="-229.30299"
       y1="-37.29353"
       x2="-335.08981"
       y2="-124.52757" />
    <linearGradient
       inkscape:collect="always"
       xlink:href="#linearGradient6860"
       id="linearGradient7358"
       gradientUnits="userSpaceOnUse"
       gradientTransform="matrix(0.590834, 0, 0, 0.590834, -188.171, -59.3881)"
       x1="-166.53705"
       y1="-18.144592"
       x2="-316.15518"
       y2="-154.3148" />
  </defs>
  <sodipodi:namedview
     id="base"
     pagecolor="#ffffff"
     bordercolor="#666666"
     borderopacity="1.0"
     gridtolerance="10000"
     guidetolerance="10"
     objecttolerance="10"
     inkscape:pageopacity="0.0"
     inkscape:pageshadow="2"
     inkscape:zoom="0.66468037"
     inkscape:cx="88.930993"
     inkscape:cy="208.86639"
     inkscape:document-units="px"
     inkscape:current-layer="layer1"
     showgrid="false"
     showguides="true"
     inkscape:guide-bbox="true"
     inkscape:window-width="1220"
     inkscape:window-height="711"
     inkscape:window-x="166"
     inkscape:window-y="95" />
  <metadata
     id="metadata7">
    <rdf:RDF>
      <cc:Work
         rdf:about="">
        <dc:format>image/svg+xml</dc:format>
        <dc:type
           rdf:resource="http://purl.org/dc/dcmitype/StillImage" />
      </cc:Work>
    </rdf:RDF>
  </metadata>
  <g
     inkscape:label="Layer 1"
     inkscape:groupmode="layer"
     id="layer1"
     transform="translate(-127.491, -326.001)">
    <g
       transform="matrix(0.22598, 0.0320513, -0.0320513, 0.22598, -781.061, -264.273)"
       id="g3936"
       inkscape:transform-center-x="-23.656365"
       inkscape:transform-center-y="6.3142316">
      <path
         transform="matrix(0.666023, 0, 0, 0.666023, 264.509, 223.356)"
         d="M 404.07211,401.83504 C 380.87419,425.03296 272.95387,341.2513 240.55096,346.38341 208.14805,351.51553 131.39969,464.54584 102.16861,449.65185 72.93752,434.75787 119.2694,306.22959 104.37542,276.99851 89.481438,247.76742 -41.733322,209.70368 -36.601205,177.30077 c 5.132117,-32.40291 141.687115,-28.05609 164.885035,-51.25402 23.19792,-23.19792 18.8511,-159.752914 51.25401,-164.88503 32.40291,-5.132117 70.46666,126.082643 99.69774,140.97663 29.23109,14.89398 157.75937,-31.437908 172.65335,-2.206821 14.89398,29.231091 -98.13633,105.979451 -103.26844,138.382361 -5.13212,32.40291 78.64954,140.32322 55.45162,163.52115 z"
         inkscape:randomized="0"
         inkscape:rounded="0.19"
         inkscape:flatsided="false"
         sodipodi:arg2="1.4137167"
         sodipodi:arg1="0.78539816"
         sodipodi:r2="130.00784"
         sodipodi:r1="260.01569"
         sodipodi:cy="217.97618"
         sodipodi:cx="220.21326"
         sodipodi:sides="5"
         id="path3938"
         style="opacity: 1; fill: rgb(255, 230, 128); fill-opacity: 1; stroke: none;"
         sodipodi:type="star" />
      <path
         sodipodi:type="star"
         style="opacity: 1; fill: rgb(255, 221, 85); fill-opacity: 1; stroke: none;"
         id="path3940"
         sodipodi:sides="5"
         sodipodi:cx="220.21326"
         sodipodi:cy="217.97618"
         sodipodi:r1="260.01569"
         sodipodi:r2="130.00784"
         sodipodi:arg1="0.78539816"
         sodipodi:arg2="1.4137167"
         inkscape:flatsided="false"
         inkscape:rounded="0.19"
         inkscape:randomized="0"
         d="M 404.07211,401.83504 C 380.87419,425.03296 272.95387,341.2513 240.55096,346.38341 208.14805,351.51553 131.39969,464.54584 102.16861,449.65185 72.93752,434.75787 119.2694,306.22959 104.37542,276.99851 89.481438,247.76742 -41.733322,209.70368 -36.601205,177.30077 c 5.132117,-32.40291 141.687115,-28.05609 164.885035,-51.25402 23.19792,-23.19792 18.8511,-159.752914 51.25401,-164.88503 32.40291,-5.132117 70.46666,126.082643 99.69774,140.97663 29.23109,14.89398 157.75937,-31.437908 172.65335,-2.206821 14.89398,29.231091 -98.13633,105.979451 -103.26844,138.382361 -5.13212,32.40291 78.64954,140.32322 55.45162,163.52115 z"
         transform="matrix(0.525971, 0, 0, 0.525971, 295.693, 254.226)" />
      <path
         transform="matrix(0.416228, 0, 0, 0.416228, 317.873, 281.544)"
         d="M 404.07211,401.83504 C 380.87419,425.03296 272.95387,341.2513 240.55096,346.38341 208.14805,351.51553 131.39969,464.54584 102.16861,449.65185 72.93752,434.75787 119.2694,306.22959 104.37542,276.99851 89.481438,247.76742 -41.733322,209.70368 -36.601205,177.30077 c 5.132117,-32.40291 141.687115,-28.05609 164.885035,-51.25402 23.19792,-23.19792 18.8511,-159.752914 51.25401,-164.88503 32.40291,-5.132117 70.46666,126.082643 99.69774,140.97663 29.23109,14.89398 157.75937,-31.437908 172.65335,-2.206821 14.89398,29.231091 -98.13633,105.979451 -103.26844,138.382361 -5.13212,32.40291 78.64954,140.32322 55.45162,163.52115 z"
         inkscape:randomized="0"
         inkscape:rounded="0.19"
         inkscape:flatsided="false"
         sodipodi:arg2="1.4137167"
         sodipodi:arg1="0.78539816"
         sodipodi:r2="130.00784"
         sodipodi:r1="260.01569"
         sodipodi:cy="217.97618"
         sodipodi:cx="220.21326"
         sodipodi:sides="5"
         id="path3942"
         style="opacity: 1; fill: rgb(243, 200, 25); fill-opacity: 1; stroke: none; filter: url(#filter4019);"
         sodipodi:type="star" />
    </g>
    <g
       inkscape:transform-center-y="6.3142316"
       inkscape:transform-center-x="-23.656365"
       id="g3944"
       transform="matrix(0.22598, 0.0320513, -0.0320513, 0.22598, -603.387, -231.517)">
      <path
         sodipodi:type="star"
         style="opacity: 1; fill: rgb(255, 230, 128); fill-opacity: 1; stroke: none;"
         id="path3946"
         sodipodi:sides="5"
         sodipodi:cx="220.21326"
         sodipodi:cy="217.97618"
         sodipodi:r1="260.01569"
         sodipodi:r2="130.00784"
         sodipodi:arg1="0.78539816"
         sodipodi:arg2="1.4137167"
         inkscape:flatsided="false"
         inkscape:rounded="0.19"
         inkscape:randomized="0"
         d="M 404.07211,401.83504 C 380.87419,425.03296 272.95387,341.2513 240.55096,346.38341 208.14805,351.51553 131.39969,464.54584 102.16861,449.65185 72.93752,434.75787 119.2694,306.22959 104.37542,276.99851 89.481438,247.76742 -41.733322,209.70368 -36.601205,177.30077 c 5.132117,-32.40291 141.687115,-28.05609 164.885035,-51.25402 23.19792,-23.19792 18.8511,-159.752914 51.25401,-164.88503 32.40291,-5.132117 70.46666,126.082643 99.69774,140.97663 29.23109,14.89398 157.75937,-31.437908 172.65335,-2.206821 14.89398,29.231091 -98.13633,105.979451 -103.26844,138.382361 -5.13212,32.40291 78.64954,140.32322 55.45162,163.52115 z"
         transform="matrix(0.666023, 0, 0, 0.666023, 264.509, 223.356)" />
      <path
         transform="matrix(0.525971, 0, 0, 0.525971, 295.693, 254.226)"
         d="M 404.07211,401.83504 C 380.87419,425.03296 272.95387,341.2513 240.55096,346.38341 208.14805,351.51553 131.39969,464.54584 102.16861,449.65185 72.93752,434.75787 119.2694,306.22959 104.37542,276.99851 89.481438,247.76742 -41.733322,209.70368 -36.601205,177.30077 c 5.132117,-32.40291 141.687115,-28.05609 164.885035,-51.25402 23.19792,-23.19792 18.8511,-159.752914 51.25401,-164.88503 32.40291,-5.132117 70.46666,126.082643 99.69774,140.97663 29.23109,14.89398 157.75937,-31.437908 172.65335,-2.206821 14.89398,29.231091 -98.13633,105.979451 -103.26844,138.382361 -5.13212,32.40291 78.64954,140.32322 55.45162,163.52115 z"
         inkscape:randomized="0"
         inkscape:rounded="0.19"
         inkscape:flatsided="false"
         sodipodi:arg2="1.4137167"
         sodipodi:arg1="0.78539816"
         sodipodi:r2="130.00784"
         sodipodi:r1="260.01569"
         sodipodi:cy="217.97618"
         sodipodi:cx="220.21326"
         sodipodi:sides="5"
         id="path3948"
         style="opacity: 1; fill: rgb(255, 221, 85); fill-opacity: 1; stroke: none;"
         sodipodi:type="star" />
      <path
         sodipodi:type="star"
         style="opacity: 1; fill: rgb(243, 200, 25); fill-opacity: 1; stroke: none; filter: url(#filter4019);"
         id="path3950"
         sodipodi:sides="5"
         sodipodi:cx="220.21326"
         sodipodi:cy="217.97618"
         sodipodi:r1="260.01569"
         sodipodi:r2="130.00784"
         sodipodi:arg1="0.78539816"
         sodipodi:arg2="1.4137167"
         inkscape:flatsided="false"
         inkscape:rounded="0.19"
         inkscape:randomized="0"
         d="M 404.07211,401.83504 C 380.87419,425.03296 272.95387,341.2513 240.55096,346.38341 208.14805,351.51553 131.39969,464.54584 102.16861,449.65185 72.93752,434.75787 119.2694,306.22959 104.37542,276.99851 89.481438,247.76742 -41.733322,209.70368 -36.601205,177.30077 c 5.132117,-32.40291 141.687115,-28.05609 164.885035,-51.25402 23.19792,-23.19792 18.8511,-159.752914 51.25401,-164.88503 32.40291,-5.132117 70.46666,126.082643 99.69774,140.97663 29.23109,14.89398 157.75937,-31.437908 172.65335,-2.206821 14.89398,29.231091 -98.13633,105.979451 -103.26844,138.382361 -5.13212,32.40291 78.64954,140.32322 55.45162,163.52115 z"
         transform="matrix(0.416228, 0, 0, 0.416228, 317.873, 281.544)" />
    </g>
    <g
       id="g7360"
       transform="matrix(0.866703, 0, 0, 0.866703, 535.877, 316.336)">
      <g
         transform="matrix(0.429838, 0.0183564, -0.0174285, 0.408111, -43.2561, 145.096)"
         id="g6933">
        <path
           sodipodi:nodetypes="cscccscc"
           id="path6935"
           d="m -358.95108,-128.09912 c -10.69276,0.0924 -22.14972,5.35185 -25.31081,16.01125 -3.21813,10.85176 1.02666,31.793169 18.78832,37.904995 11.07434,4.311286 21.97273,10.674229 27.18226,21.839904 7.47388,-11.591311 14.53701,-17.990839 27.38593,-21.705937 17.76166,-6.111828 21.73851,-27.187202 18.52038,-38.038962 -6.14563,-20.72343 -43.63814,-21.03915 -45.94122,-2.64906 -1.11863,-8.93069 -10.52945,-13.44942 -20.62486,-13.36219 z"
           style="fill: url(#linearGradient6939) rgb(0, 0, 0); fill-opacity: 1; stroke: url(#linearGradient6941) rgb(0, 0, 0); stroke-width: 1.80972; stroke-miterlimit: 4; stroke-dasharray: none;" />
        <path
           style="opacity: 0.927419; fill: rgb(255, 255, 255); fill-opacity: 1; stroke: none; filter: url(#filter6901);"
           d="m -368.87991,-95.954025 c -5.09948,-0.425477 -8.80243,-5.993445 -8.26552,-12.428505 0.53691,-6.43505 5.94751,-13.71704 10.21085,-10.88691 3.81618,2.53328 -3.5335,5.18568 -4.07041,11.62073 -0.53691,6.43506 5.96041,6.03451 2.12508,11.694685 z"
           id="path6937"
           sodipodi:nodetypes="csssc" />
      </g>
      <g
         id="g7045"
         transform="matrix(0.430188, 0.00602406, -0.00571963, 0.408443, -40.5494, 496.493)">
        <path
           style="fill: url(#linearGradient7051) rgb(0, 0, 0); fill-opacity: 1; stroke: url(#linearGradient7053) rgb(0, 0, 0); stroke-width: 1.80972; stroke-miterlimit: 4; stroke-dasharray: none;"
           d="m -358.95108,-128.09912 c -10.69276,0.0924 -22.14972,5.35185 -25.31081,16.01125 -3.21813,10.85176 1.02666,31.793169 18.78832,37.904995 11.07434,4.311286 21.97273,10.674229 27.18226,21.839904 7.47388,-11.591311 14.53701,-17.990839 27.38593,-21.705937 17.76166,-6.111828 21.73851,-27.187202 18.52038,-38.038962 -6.14563,-20.72343 -43.63814,-21.03915 -45.94122,-2.64906 -1.11863,-8.93069 -10.52945,-13.44942 -20.62486,-13.36219 z"
           id="path7047"
           sodipodi:nodetypes="cscccscc" />
        <path
           sodipodi:nodetypes="csssc"
           id="path7049"
           d="m -368.87991,-95.954025 c -5.09948,-0.425477 -8.80243,-5.993445 -8.26552,-12.428505 0.53691,-6.43505 5.94751,-13.71704 10.21085,-10.88691 3.81618,2.53328 -3.5335,5.18568 -4.07041,11.62073 -0.53691,6.43506 5.96041,6.03451 2.12508,11.694685 z"
           style="opacity: 0.927419; fill: rgb(255, 255, 255); fill-opacity: 1; stroke: none; filter: url(#filter6901);" />
      </g>
      <g
         id="g7135">
        <g
           transform="matrix(0.374794, 0.211253, -0.200574, 0.355849, -102.431, 173.224)"
           id="g6943"
           inkscape:transform-center-x="19.104998"
           inkscape:transform-center-y="3.7627962">
          <path
             sodipodi:nodetypes="cscccscc"
             id="path6945"
             d="m -348.63405,-134.23591 c -10.17207,-3.47278 -22.62011,-2.29799 -28.81866,6.76212 -6.3104,9.22362 -8.56923,30.504374 6.44688,42.216958 9.21223,7.777668 17.64171,17.443176 19.23248,29.770826 10.56987,-8.508167 19.19165,-12.227605 32.4967,-11.473759 18.68523,0.115874 28.78423,-18.554357 28.98848,-29.921102 0.39005,-21.706893 -35.0847,-34.490573 -42.78974,-17.810573 1.61943,-8.84512 -5.95234,-16.26568 -15.55614,-19.54447 z"
             style="fill: url(#linearGradient6949) rgb(0, 0, 0); fill-opacity: 1; stroke: url(#linearGradient6951) rgb(0, 0, 0); stroke-width: 1.80972; stroke-miterlimit: 4; stroke-dasharray: none;" />
          <path
             style="opacity: 0.927419; fill: rgb(255, 255, 255); fill-opacity: 1; stroke: none; filter: url(#filter6901);"
             d="m -368.87991,-95.954025 c -5.09948,-0.425477 -8.80243,-5.993445 -8.26552,-12.428505 0.53691,-6.43505 5.94751,-13.71704 10.21085,-10.88691 3.81618,2.53328 -3.5335,5.18568 -4.07041,11.62073 -0.53691,6.43506 5.96041,6.03451 2.12508,11.694685 z"
             id="path6947"
             sodipodi:nodetypes="csssc" />
        </g>
        <g
           id="g6953"
           transform="matrix(0.312339, 0.295875, -0.28092, 0.296551, -173.594, 170.243)">
          <path
             style="fill: url(#linearGradient6959) rgb(0, 0, 0); fill-opacity: 1; stroke: url(#linearGradient6961) rgb(0, 0, 0); stroke-width: 1.80972; stroke-miterlimit: 4; stroke-dasharray: none;"
             d="m -358.33414,-129.95527 c -10.69151,-0.19474 -22.27205,4.75537 -25.69013,15.32643 -3.47975,10.76182 0.25676,31.810402 17.86472,38.39716 10.96638,4.607243 21.70722,11.26075 26.64478,22.562678 7.75202,-11.386861 14.96776,-17.594658 27.90242,-20.96354 17.90383,-5.632923 22.38953,-26.594668 19.43511,-37.529308 -5.64203,-20.88171 -43.1147,-22.20405 -45.86217,-3.88177 -0.9021,-8.95783 -10.20049,-13.72777 -20.29473,-13.91165 z"
             id="path6955"
             sodipodi:nodetypes="cscccscc" />
          <path
             sodipodi:nodetypes="csssc"
             id="path6957"
             d="m -368.87991,-95.954025 c -5.09948,-0.425477 -8.80243,-5.993445 -8.26552,-12.428505 0.53691,-6.43505 5.94751,-13.71704 10.21085,-10.88691 3.81618,2.53328 -3.5335,5.18568 -4.07041,11.62073 -0.53691,6.43506 5.96041,6.03451 2.12508,11.694685 z"
             style="opacity: 0.927419; fill: rgb(255, 255, 255); fill-opacity: 1; stroke: none; filter: url(#filter6901);" />
        </g>
        <g
           transform="matrix(0.322465, 0.284805, -0.270409, 0.306166, -209.455, 156.979)"
           id="g6965">
          <path
             sodipodi:nodetypes="cscccscc"
             id="path6967"
             d="m -367.46932,-120.37127 c -10.69302,0.04924 -22.16903,5.2624 -25.36888,15.90897 -3.25759,10.838687 0.91097,31.797074 18.65026,37.980545 11.05857,4.355953 21.93373,10.762838 27.1026,21.949458 7.516,-11.561059 14.60236,-17.932032 27.4647,-21.595241 17.78377,-6.040093 21.83728,-27.099265 18.65865,-37.963922 -6.07018,-20.74809 -43.56127,-21.21513 -45.93124,-2.83448 -1.08613,-8.93514 -10.48044,-13.49182 -20.57609,-13.44533 z"
             style="fill: url(#linearGradient6971) rgb(0, 0, 0); fill-opacity: 1; stroke: url(#linearGradient6973) rgb(0, 0, 0); stroke-width: 1.80972; stroke-miterlimit: 4; stroke-dasharray: none;" />
          <path
             style="opacity: 0.927419; fill: rgb(255, 255, 255); fill-opacity: 1; stroke: none; filter: url(#filter6901);"
             d="m -368.87991,-95.954025 c -5.09948,-0.425477 -8.80243,-5.993445 -8.26552,-12.428505 0.53691,-6.43505 5.94751,-13.71704 10.21085,-10.88691 3.81618,2.53328 -3.5335,5.18568 -4.07041,11.62073 -0.53691,6.43506 5.96041,6.03451 2.12508,11.694685 z"
             id="path6969"
             sodipodi:nodetypes="csssc" />
        </g>
        <g
           id="g6975"
           transform="matrix(0.20722, 0.377038, -0.35798, 0.196746, -304.931, 182.92)">
          <path
             style="fill: url(#linearGradient6981) rgb(0, 0, 0); fill-opacity: 1; stroke: url(#linearGradient6983) rgb(0, 0, 0); stroke-width: 1.80972; stroke-miterlimit: 4; stroke-dasharray: none;"
             d="m -365.39272,-118.29914 c -9.96261,4.09133 -18.89484,13.29816 -18.25024,24.444759 0.65623,11.347749 11.69424,29.330379 30.35846,28.39008 11.8061,-0.118414 24.14048,1.746619 32.77945,10.231194 3.07163,-13.632943 7.51231,-22.259632 18.26695,-30.544429 14.53701,-12.364917 11.13798,-33.552154 4.46621,-42.489214 -12.74098,-17.06694 -47.88929,-3.31925 -43.83256,14.73133 -4.06087,-7.92792 -14.38224,-8.62646 -23.78827,-4.76372 z"
             id="path6977"
             sodipodi:nodetypes="cscccscc" />
          <path
             sodipodi:nodetypes="csssc"
             id="path6979"
             d="m -368.87991,-95.954025 c -5.09948,-0.425477 -8.80243,-5.993445 -8.26552,-12.428505 0.53691,-6.43505 5.94751,-13.71704 10.21085,-10.88691 3.81618,2.53328 -3.5335,5.18568 -4.07041,11.62073 -0.53691,6.43506 5.96041,6.03451 2.12508,11.694685 z"
             style="opacity: 0.927419; fill: rgb(255, 255, 255); fill-opacity: 1; stroke: none; filter: url(#filter6901);" />
        </g>
        <g
           transform="matrix(0.356694, 0.240556, -0.228397, 0.338664, -283.576, 167.037)"
           id="g6985">
          <path
             sodipodi:nodetypes="cscccscc"
             id="path6987"
             d="m -358.95108,-128.09912 c -10.69276,0.0924 -22.14972,5.35185 -25.31081,16.01125 -3.21813,10.85176 1.02666,31.793169 18.78832,37.904995 11.07434,4.311286 21.97273,10.674229 27.18226,21.839904 7.47388,-11.591311 14.53701,-17.990839 27.38593,-21.705937 17.76166,-6.111828 21.73851,-27.187202 18.52038,-38.038962 -6.14563,-20.72343 -43.63814,-21.03915 -45.94122,-2.64906 -1.11863,-8.93069 -10.52945,-13.44942 -20.62486,-13.36219 z"
             style="fill: url(#linearGradient6991) rgb(0, 0, 0); fill-opacity: 1; stroke: url(#linearGradient6993) rgb(0, 0, 0); stroke-width: 1.80972; stroke-miterlimit: 4; stroke-dasharray: none;" />
          <path
             style="opacity: 0.927419; fill: rgb(255, 255, 255); fill-opacity: 1; stroke: none; filter: url(#filter6901);"
             d="m -368.87991,-95.954025 c -5.09948,-0.425477 -8.80243,-5.993445 -8.26552,-12.428505 0.53691,-6.43505 5.94751,-13.71704 10.21085,-10.88691 3.81618,2.53328 -3.5335,5.18568 -4.07041,11.62073 -0.53691,6.43506 5.96041,6.03451 2.12508,11.694685 z"
             id="path6989"
             sodipodi:nodetypes="csssc" />
        </g>
        <g
           id="g6995"
           transform="matrix(0.384474, 0.193073, -0.183314, 0.365041, -303.223, 183.623)">
          <path
             style="fill: url(#linearGradient7001) rgb(0, 0, 0); fill-opacity: 1; stroke: url(#linearGradient7003) rgb(0, 0, 0); stroke-width: 1.80972; stroke-miterlimit: 4; stroke-dasharray: none;"
             d="m -354.80863,-138.08482 c -10.67299,-0.69066 -22.44934,3.71729 -26.30628,14.11947 -3.92654,10.58991 -1.0741,31.79143 16.24123,39.188837 10.76302,5.111628 21.21511,12.257067 25.67513,23.777133 8.22079,-11.016098 15.68921,-16.883039 28.75222,-19.648462 18.12207,-4.796685 23.48023,-25.529928 20.98607,-36.591038 -4.76307,-21.12323 -42.14405,-24.18308 -45.65527,-6.00609 -0.52651,-8.99098 -9.61636,-14.18776 -19.6931,-14.83985 z"
             id="path6997"
             sodipodi:nodetypes="cscccscc" />
          <path
             sodipodi:nodetypes="csssc"
             id="path6999"
             d="m -368.87991,-95.954025 c -5.09948,-0.425477 -8.80243,-5.993445 -8.26552,-12.428505 0.53691,-6.43505 5.94751,-13.71704 10.21085,-10.88691 3.81618,2.53328 -3.5335,5.18568 -4.07041,11.62073 -0.53691,6.43506 5.96041,6.03451 2.12508,11.694685 z"
             style="opacity: 0.927419; fill: rgb(255, 255, 255); fill-opacity: 1; stroke: none; filter: url(#filter6901);" />
        </g>
        <g
           transform="matrix(0.405822, 0.14285, -0.13563, 0.385309, -314.451, 196.904)"
           id="g7005"
           inkscape:transform-center-x="4.713238"
           inkscape:transform-center-y="-4.5965252">
          <path
             sodipodi:nodetypes="cscccscc"
             id="path7007"
             d="m -358.95108,-128.09912 c -10.69276,0.0924 -22.14972,5.35185 -25.31081,16.01125 -3.21813,10.85176 1.02666,31.793169 18.78832,37.904995 11.07434,4.311286 21.97273,10.674229 27.18226,21.839904 7.47388,-11.591311 14.53701,-17.990839 27.38593,-21.705937 17.76166,-6.111828 21.73851,-27.187202 18.52038,-38.038962 -6.14563,-20.72343 -43.63814,-21.03915 -45.94122,-2.64906 -1.11863,-8.93069 -10.52945,-13.44942 -20.62486,-13.36219 z"
             style="fill: url(#linearGradient7011) rgb(0, 0, 0); fill-opacity: 1; stroke: url(#linearGradient7013) rgb(0, 0, 0); stroke-width: 1.80972; stroke-miterlimit: 4; stroke-dasharray: none;" />
          <path
             style="opacity: 0.927419; fill: rgb(255, 255, 255); fill-opacity: 1; stroke: none; filter: url(#filter6901);"
             d="m -368.87991,-95.954025 c -5.09948,-0.425477 -8.80243,-5.993445 -8.26552,-12.428505 0.53691,-6.43505 5.94751,-13.71704 10.21085,-10.88691 3.81618,2.53328 -3.5335,5.18568 -4.07041,11.62073 -0.53691,6.43506 5.96041,6.03451 2.12508,11.694685 z"
             id="path7009"
             sodipodi:nodetypes="csssc" />
        </g>
        <g
           id="g7015"
           transform="matrix(0.428234, 0.0413948, -0.0393025, 0.406588, -308.593, 203.521)">
          <path
             style="fill: url(#linearGradient7021) rgb(0, 0, 0); fill-opacity: 1; stroke: url(#linearGradient7023) rgb(0, 0, 0); stroke-width: 1.80972; stroke-miterlimit: 4; stroke-dasharray: none;"
             d="m -358.95108,-128.09912 c -10.69276,0.0924 -22.14972,5.35185 -25.31081,16.01125 -3.21813,10.85176 1.02666,31.793169 18.78832,37.904995 11.07434,4.311286 21.97273,10.674229 27.18226,21.839904 7.47388,-11.591311 14.53701,-17.990839 27.38593,-21.705937 17.76166,-6.111828 21.73851,-27.187202 18.52038,-38.038962 -6.14563,-20.72343 -43.63814,-21.03915 -45.94122,-2.64906 -1.11863,-8.93069 -10.52945,-13.44942 -20.62486,-13.36219 z"
             id="path7017"
             sodipodi:nodetypes="cscccscc" />
          <path
             sodipodi:nodetypes="csssc"
             id="path7019"
             d="m -368.87991,-95.954025 c -5.09948,-0.425477 -8.80243,-5.993445 -8.26552,-12.428505 0.53691,-6.43505 5.94751,-13.71704 10.21085,-10.88691 3.81618,2.53328 -3.5335,5.18568 -4.07041,11.62073 -0.53691,6.43506 5.96041,6.03451 2.12508,11.694685 z"
             style="opacity: 0.927419; fill: rgb(255, 255, 255); fill-opacity: 1; stroke: none; filter: url(#filter6901);" />
        </g>
        <g
           transform="matrix(0.426011, -0.0601078, 0.0570694, 0.404477, -300.094, 210.776)"
           id="g7025">
          <path
             sodipodi:nodetypes="cscccscc"
             id="path7027"
             d="m -358.95108,-128.09912 c -10.69276,0.0924 -22.14972,5.35185 -25.31081,16.01125 -3.21813,10.85176 1.02666,31.793169 18.78832,37.904995 11.07434,4.311286 21.97273,10.674229 27.18226,21.839904 7.47388,-11.591311 14.53701,-17.990839 27.38593,-21.705937 17.76166,-6.111828 21.73851,-27.187202 18.52038,-38.038962 -6.14563,-20.72343 -43.63814,-21.03915 -45.94122,-2.64906 -1.11863,-8.93069 -10.52945,-13.44942 -20.62486,-13.36219 z"
             style="fill: url(#linearGradient7031) rgb(0, 0, 0); fill-opacity: 1; stroke: url(#linearGradient7033) rgb(0, 0, 0); stroke-width: 1.80972; stroke-miterlimit: 4; stroke-dasharray: none;" />
          <path
             style="opacity: 0.927419; fill: rgb(255, 255, 255); fill-opacity: 1; stroke: none; filter: url(#filter6901);"
             d="m -368.87991,-95.954025 c -5.09948,-0.425477 -8.80243,-5.993445 -8.26552,-12.428505 0.53691,-6.43505 5.94751,-13.71704 10.21085,-10.88691 3.81618,2.53328 -3.5335,5.18568 -4.07041,11.62073 -0.53691,6.43506 5.96041,6.03451 2.12508,11.694685 z"
             id="path7029"
             sodipodi:nodetypes="csssc" />
        </g>
        <g
           id="g7035"
           transform="matrix(0.408237, -0.135796, 0.128932, 0.387602, -290.255, 223.306)"
           inkscape:transform-center-y="4.3239284"
           inkscape:transform-center-x="-0.27537489">
          <path
             style="fill: url(#linearGradient7041) rgb(0, 0, 0); fill-opacity: 1; stroke: url(#linearGradient7043) rgb(0, 0, 0); stroke-width: 1.80972; stroke-miterlimit: 4; stroke-dasharray: none;"
             d="m -358.95108,-128.09912 c -10.69276,0.0924 -22.14972,5.35185 -25.31081,16.01125 -3.21813,10.85176 1.02666,31.793169 18.78832,37.904995 11.07434,4.311286 21.97273,10.674229 27.18226,21.839904 7.47388,-11.591311 14.53701,-17.990839 27.38593,-21.705937 17.76166,-6.111828 21.73851,-27.187202 18.52038,-38.038962 -6.14563,-20.72343 -43.63814,-21.03915 -45.94122,-2.64906 -1.11863,-8.93069 -10.52945,-13.44942 -20.62486,-13.36219 z"
             id="path7037"
             sodipodi:nodetypes="cscccscc" />
          <path
             sodipodi:nodetypes="csssc"
             id="path7039"
             d="m -368.87991,-95.954025 c -5.09948,-0.425477 -8.80243,-5.993445 -8.26552,-12.428505 0.53691,-6.43505 5.94751,-13.71704 10.21085,-10.88691 3.81618,2.53328 -3.5335,5.18568 -4.07041,11.62073 -0.53691,6.43506 5.96041,6.03451 2.12508,11.694685 z"
             style="opacity: 0.927419; fill: rgb(255, 255, 255); fill-opacity: 1; stroke: none; filter: url(#filter6901);" />
        </g>
        <g
           transform="matrix(0.367687, -0.223392, 0.2121, 0.349102, -280.338, 226.509)"
           id="g7065">
          <path
             sodipodi:nodetypes="cscccscc"
             id="path7067"
             d="m -358.95108,-128.09912 c -10.69276,0.0924 -22.14972,5.35185 -25.31081,16.01125 -3.21813,10.85176 1.02666,31.793169 18.78832,37.904995 11.07434,4.311286 21.97273,10.674229 27.18226,21.839904 7.47388,-11.591311 14.53701,-17.990839 27.38593,-21.705937 17.76166,-6.111828 21.73851,-27.187202 18.52038,-38.038962 -6.14563,-20.72343 -43.63814,-21.03915 -45.94122,-2.64906 -1.11863,-8.93069 -10.52945,-13.44942 -20.62486,-13.36219 z"
             style="fill: url(#linearGradient7071) rgb(0, 0, 0); fill-opacity: 1; stroke: url(#linearGradient7073) rgb(0, 0, 0); stroke-width: 1.80972; stroke-miterlimit: 4; stroke-dasharray: none;" />
          <path
             style="opacity: 0.927419; fill: rgb(255, 255, 255); fill-opacity: 1; stroke: none; filter: url(#filter6901);"
             d="m -368.87991,-95.954025 c -5.09948,-0.425477 -8.80243,-5.993445 -8.26552,-12.428505 0.53691,-6.43505 5.94751,-13.71704 10.21085,-10.88691 3.81618,2.53328 -3.5335,5.18568 -4.07041,11.62073 -0.53691,6.43506 5.96041,6.03451 2.12508,11.694685 z"
             id="path7069"
             sodipodi:nodetypes="csssc" />
        </g>
        <g
           id="g7075"
           transform="matrix(0.295436, -0.312755, 0.296946, 0.280503, -269.196, 224.215)">
          <path
             style="fill: url(#linearGradient7081) rgb(0, 0, 0); fill-opacity: 1; stroke: url(#linearGradient7083) rgb(0, 0, 0); stroke-width: 1.80972; stroke-miterlimit: 4; stroke-dasharray: none;"
             d="m -358.95108,-128.09912 c -10.69276,0.0924 -22.14972,5.35185 -25.31081,16.01125 -3.21813,10.85176 1.02666,31.793169 18.78832,37.904995 11.07434,4.311286 21.97273,10.674229 27.18226,21.839904 7.47388,-11.591311 14.53701,-17.990839 27.38593,-21.705937 17.76166,-6.111828 21.73851,-27.187202 18.52038,-38.038962 -6.14563,-20.72343 -43.63814,-21.03915 -45.94122,-2.64906 -1.11863,-8.93069 -10.52945,-13.44942 -20.62486,-13.36219 z"
             id="path7077"
             sodipodi:nodetypes="cscccscc" />
          <path
             sodipodi:nodetypes="csssc"
             id="path7079"
             d="m -368.87991,-95.954025 c -5.09948,-0.425477 -8.80243,-5.993445 -8.26552,-12.428505 0.53691,-6.43505 5.94751,-13.71704 10.21085,-10.88691 3.81618,2.53328 -3.5335,5.18568 -4.07041,11.62073 -0.53691,6.43506 5.96041,6.03451 2.12508,11.694685 z"
             style="opacity: 0.927419; fill: rgb(255, 255, 255); fill-opacity: 1; stroke: none; filter: url(#filter6901);" />
        </g>
        <g
           transform="matrix(0.199357, -0.381254, 0.361983, 0.18928, -260.832, 218.481)"
           id="g7085">
          <path
             sodipodi:nodetypes="cscccscc"
             id="path7087"
             d="m -358.95108,-128.09912 c -10.69276,0.0924 -22.14972,5.35185 -25.31081,16.01125 -3.21813,10.85176 1.02666,31.793169 18.78832,37.904995 11.07434,4.311286 21.97273,10.674229 27.18226,21.839904 7.47388,-11.591311 14.53701,-17.990839 27.38593,-21.705937 17.76166,-6.111828 21.73851,-27.187202 18.52038,-38.038962 -6.14563,-20.72343 -43.63814,-21.03915 -45.94122,-2.64906 -1.11863,-8.93069 -10.52945,-13.44942 -20.62486,-13.36219 z"
             style="fill: url(#linearGradient7091) rgb(0, 0, 0); fill-opacity: 1; stroke: url(#linearGradient7093) rgb(0, 0, 0); stroke-width: 1.80972; stroke-miterlimit: 4; stroke-dasharray: none;" />
          <path
             style="opacity: 0.927419; fill: rgb(255, 255, 255); fill-opacity: 1; stroke: none; filter: url(#filter6901);"
             d="m -368.87991,-95.954025 c -5.09948,-0.425477 -8.80243,-5.993445 -8.26552,-12.428505 0.53691,-6.43505 5.94751,-13.71704 10.21085,-10.88691 3.81618,2.53328 -3.5335,5.18568 -4.07041,11.62073 -0.53691,6.43506 5.96041,6.03451 2.12508,11.694685 z"
             id="path7089"
             sodipodi:nodetypes="csssc" />
        </g>
        <g
           id="g7095"
           transform="matrix(0.178113, -0.391629, 0.371834, 0.16911, -226.404, 231.514)">
          <path
             style="fill: url(#linearGradient7101) rgb(0, 0, 0); fill-opacity: 1; stroke: url(#linearGradient7103) rgb(0, 0, 0); stroke-width: 1.80972; stroke-miterlimit: 4; stroke-dasharray: none;"
             d="m -358.95108,-128.09912 c -10.69276,0.0924 -22.14972,5.35185 -25.31081,16.01125 -3.21813,10.85176 1.02666,31.793169 18.78832,37.904995 11.07434,4.311286 21.97273,10.674229 27.18226,21.839904 7.47388,-11.591311 14.53701,-17.990839 27.38593,-21.705937 17.76166,-6.111828 21.73851,-27.187202 18.52038,-38.038962 -6.14563,-20.72343 -43.63814,-21.03915 -45.94122,-2.64906 -1.11863,-8.93069 -10.52945,-13.44942 -20.62486,-13.36219 z"
             id="path7097"
             sodipodi:nodetypes="cscccscc" />
          <path
             sodipodi:nodetypes="csssc"
             id="path7099"
             d="m -368.87991,-95.954025 c -5.09948,-0.425477 -8.80243,-5.993445 -8.26552,-12.428505 0.53691,-6.43505 5.94751,-13.71704 10.21085,-10.88691 3.81618,2.53328 -3.5335,5.18568 -4.07041,11.62073 -0.53691,6.43506 5.96041,6.03451 2.12508,11.694685 z"
             style="opacity: 0.927419; fill: rgb(255, 255, 255); fill-opacity: 1; stroke: none; filter: url(#filter6901);" />
        </g>
        <g
           transform="matrix(0.232538, -0.361972, 0.343676, 0.220784, -171.713, 265.091)"
           id="g7105">
          <path
             sodipodi:nodetypes="cscccscc"
             id="path7107"
             d="m -358.95108,-128.09912 c -10.69276,0.0924 -22.14972,5.35185 -25.31081,16.01125 -3.21813,10.85176 1.02666,31.793169 18.78832,37.904995 11.07434,4.311286 21.97273,10.674229 27.18226,21.839904 7.47388,-11.591311 14.53701,-17.990839 27.38593,-21.705937 17.76166,-6.111828 21.73851,-27.187202 18.52038,-38.038962 -6.14563,-20.72343 -43.63814,-21.03915 -45.94122,-2.64906 -1.11863,-8.93069 -10.52945,-13.44942 -20.62486,-13.36219 z"
             style="fill: url(#linearGradient7111) rgb(0, 0, 0); fill-opacity: 1; stroke: url(#linearGradient7113) rgb(0, 0, 0); stroke-width: 1.80972; stroke-miterlimit: 4; stroke-dasharray: none;" />
          <path
             style="opacity: 0.927419; fill: rgb(255, 255, 255); fill-opacity: 1; stroke: none; filter: url(#filter6901);"
             d="m -368.87991,-95.954025 c -5.09948,-0.425477 -8.80243,-5.993445 -8.26552,-12.428505 0.53691,-6.43505 5.94751,-13.71704 10.21085,-10.88691 3.81618,2.53328 -3.5335,5.18568 -4.07041,11.62073 -0.53691,6.43506 5.96041,6.03451 2.12508,11.694685 z"
             id="path7109"
             sodipodi:nodetypes="csssc" />
        </g>
        <g
           id="g7115"
           transform="matrix(0.28238, -0.324591, 0.308184, 0.268107, -120.129, 307.41)">
          <path
             style="fill: url(#linearGradient7121) rgb(0, 0, 0); fill-opacity: 1; stroke: url(#linearGradient7123) rgb(0, 0, 0); stroke-width: 1.80972; stroke-miterlimit: 4; stroke-dasharray: none;"
             d="m -358.95108,-128.09912 c -10.69276,0.0924 -22.14972,5.35185 -25.31081,16.01125 -3.21813,10.85176 1.02666,31.793169 18.78832,37.904995 11.07434,4.311286 21.97273,10.674229 27.18226,21.839904 7.47388,-11.591311 14.53701,-17.990839 27.38593,-21.705937 17.76166,-6.111828 21.73851,-27.187202 18.52038,-38.038962 -6.14563,-20.72343 -43.63814,-21.03915 -45.94122,-2.64906 -1.11863,-8.93069 -10.52945,-13.44942 -20.62486,-13.36219 z"
             id="path7117"
             sodipodi:nodetypes="cscccscc" />
          <path
             sodipodi:nodetypes="csssc"
             id="path7119"
             d="m -368.87991,-95.954025 c -5.09948,-0.425477 -8.80243,-5.993445 -8.26552,-12.428505 0.53691,-6.43505 5.94751,-13.71704 10.21085,-10.88691 3.81618,2.53328 -3.5335,5.18568 -4.07041,11.62073 -0.53691,6.43506 5.96041,6.03451 2.12508,11.694685 z"
             style="opacity: 0.927419; fill: rgb(255, 255, 255); fill-opacity: 1; stroke: none; filter: url(#filter6901);" />
        </g>
        <g
           transform="matrix(0.328705, -0.27758, 0.26355, 0.31209, -78.5683, 356.785)"
           id="g7125">
          <path
             sodipodi:nodetypes="cscccscc"
             id="path7127"
             d="m -358.95108,-128.09912 c -10.69276,0.0924 -22.14972,5.35185 -25.31081,16.01125 -3.21813,10.85176 1.02666,31.793169 18.78832,37.904995 11.07434,4.311286 21.97273,10.674229 27.18226,21.839904 7.47388,-11.591311 14.53701,-17.990839 27.38593,-21.705937 17.76166,-6.111828 21.73851,-27.187202 18.52038,-38.038962 -6.14563,-20.72343 -43.63814,-21.03915 -45.94122,-2.64906 -1.11863,-8.93069 -10.52945,-13.44942 -20.62486,-13.36219 z"
             style="fill: url(#linearGradient7131) rgb(0, 0, 0); fill-opacity: 1; stroke: url(#linearGradient7133) rgb(0, 0, 0); stroke-width: 1.80972; stroke-miterlimit: 4; stroke-dasharray: none;" />
          <path
             style="opacity: 0.927419; fill: rgb(255, 255, 255); fill-opacity: 1; stroke: none; filter: url(#filter6901);"
             d="m -368.87991,-95.954025 c -5.09948,-0.425477 -8.80243,-5.993445 -8.26552,-12.428505 0.53691,-6.43505 5.94751,-13.71704 10.21085,-10.88691 3.81618,2.53328 -3.5335,5.18568 -4.07041,11.62073 -0.53691,6.43506 5.96041,6.03451 2.12508,11.694685 z"
             id="path7129"
             sodipodi:nodetypes="csssc" />
        </g>
      </g>
      <g
         transform="matrix(-1, 0, 0, 1, -377.027, 0)"
         id="g7188">
        <g
           inkscape:transform-center-y="3.7627962"
           inkscape:transform-center-x="19.104998"
           id="g7190"
           transform="matrix(0.374794, 0.211253, -0.200574, 0.355849, -102.431, 173.224)">
          <path
             style="fill: url(#linearGradient7292) rgb(0, 0, 0); fill-opacity: 1; stroke: url(#linearGradient7294) rgb(0, 0, 0); stroke-width: 1.80972; stroke-miterlimit: 4; stroke-dasharray: none;"
             d="m -348.63405,-134.23591 c -10.17207,-3.47278 -22.62011,-2.29799 -28.81866,6.76212 -6.3104,9.22362 -8.56923,30.504374 6.44688,42.216958 9.21223,7.777668 17.64171,17.443176 19.23248,29.770826 10.56987,-8.508167 19.19165,-12.227605 32.4967,-11.473759 18.68523,0.115874 28.78423,-18.554357 28.98848,-29.921102 0.39005,-21.706893 -35.0847,-34.490573 -42.78974,-17.810573 1.61943,-8.84512 -5.95234,-16.26568 -15.55614,-19.54447 z"
             id="path7192"
             sodipodi:nodetypes="cscccscc" />
          <path
             sodipodi:nodetypes="csssc"
             id="path7194"
             d="m -368.87991,-95.954025 c -5.09948,-0.425477 -8.80243,-5.993445 -8.26552,-12.428505 0.53691,-6.43505 5.94751,-13.71704 10.21085,-10.88691 3.81618,2.53328 -3.5335,5.18568 -4.07041,11.62073 -0.53691,6.43506 5.96041,6.03451 2.12508,11.694685 z"
             style="opacity: 0.927419; fill: rgb(255, 255, 255); fill-opacity: 1; stroke: none; filter: url(#filter6901);" />
        </g>
        <g
           transform="matrix(0.312339, 0.295875, -0.28092, 0.296551, -173.594, 170.243)"
           id="g7196">
          <path
             sodipodi:nodetypes="cscccscc"
             id="path7198"
             d="m -358.33414,-129.95527 c -10.69151,-0.19474 -22.27205,4.75537 -25.69013,15.32643 -3.47975,10.76182 0.25676,31.810402 17.86472,38.39716 10.96638,4.607243 21.70722,11.26075 26.64478,22.562678 7.75202,-11.386861 14.96776,-17.594658 27.90242,-20.96354 17.90383,-5.632923 22.38953,-26.594668 19.43511,-37.529308 -5.64203,-20.88171 -43.1147,-22.20405 -45.86217,-3.88177 -0.9021,-8.95783 -10.20049,-13.72777 -20.29473,-13.91165 z"
             style="fill: url(#linearGradient7296) rgb(0, 0, 0); fill-opacity: 1; stroke: url(#linearGradient7298) rgb(0, 0, 0); stroke-width: 1.80972; stroke-miterlimit: 4; stroke-dasharray: none;" />
          <path
             style="opacity: 0.927419; fill: rgb(255, 255, 255); fill-opacity: 1; stroke: none; filter: url(#filter6901);"
             d="m -368.87991,-95.954025 c -5.09948,-0.425477 -8.80243,-5.993445 -8.26552,-12.428505 0.53691,-6.43505 5.94751,-13.71704 10.21085,-10.88691 3.81618,2.53328 -3.5335,5.18568 -4.07041,11.62073 -0.53691,6.43506 5.96041,6.03451 2.12508,11.694685 z"
             id="path7200"
             sodipodi:nodetypes="csssc" />
        </g>
        <g
           id="g7202"
           transform="matrix(0.322465, 0.284805, -0.270409, 0.306166, -209.455, 156.979)">
          <path
             style="fill: url(#linearGradient7300) rgb(0, 0, 0); fill-opacity: 1; stroke: url(#linearGradient7302) rgb(0, 0, 0); stroke-width: 1.80972; stroke-miterlimit: 4; stroke-dasharray: none;"
             d="m -367.46932,-120.37127 c -10.69302,0.04924 -22.16903,5.2624 -25.36888,15.90897 -3.25759,10.838687 0.91097,31.797074 18.65026,37.980545 11.05857,4.355953 21.93373,10.762838 27.1026,21.949458 7.516,-11.561059 14.60236,-17.932032 27.4647,-21.595241 17.78377,-6.040093 21.83728,-27.099265 18.65865,-37.963922 -6.07018,-20.74809 -43.56127,-21.21513 -45.93124,-2.83448 -1.08613,-8.93514 -10.48044,-13.49182 -20.57609,-13.44533 z"
             id="path7204"
             sodipodi:nodetypes="cscccscc" />
          <path
             sodipodi:nodetypes="csssc"
             id="path7206"
             d="m -368.87991,-95.954025 c -5.09948,-0.425477 -8.80243,-5.993445 -8.26552,-12.428505 0.53691,-6.43505 5.94751,-13.71704 10.21085,-10.88691 3.81618,2.53328 -3.5335,5.18568 -4.07041,11.62073 -0.53691,6.43506 5.96041,6.03451 2.12508,11.694685 z"
             style="opacity: 0.927419; fill: rgb(255, 255, 255); fill-opacity: 1; stroke: none; filter: url(#filter6901);" />
        </g>
        <g
           transform="matrix(0.20722, 0.377038, -0.35798, 0.196746, -304.931, 182.92)"
           id="g7208">
          <path
             sodipodi:nodetypes="cscccscc"
             id="path7210"
             d="m -365.39272,-118.29914 c -9.96261,4.09133 -18.89484,13.29816 -18.25024,24.444759 0.65623,11.347749 11.69424,29.330379 30.35846,28.39008 11.8061,-0.118414 24.14048,1.746619 32.77945,10.231194 3.07163,-13.632943 7.51231,-22.259632 18.26695,-30.544429 14.53701,-12.364917 11.13798,-33.552154 4.46621,-42.489214 -12.74098,-17.06694 -47.88929,-3.31925 -43.83256,14.73133 -4.06087,-7.92792 -14.38224,-8.62646 -23.78827,-4.76372 z"
             style="fill: url(#linearGradient7304) rgb(0, 0, 0); fill-opacity: 1; stroke: url(#linearGradient7306) rgb(0, 0, 0); stroke-width: 1.80972; stroke-miterlimit: 4; stroke-dasharray: none;" />
          <path
             style="opacity: 0.927419; fill: rgb(255, 255, 255); fill-opacity: 1; stroke: none; filter: url(#filter6901);"
             d="m -368.87991,-95.954025 c -5.09948,-0.425477 -8.80243,-5.993445 -8.26552,-12.428505 0.53691,-6.43505 5.94751,-13.71704 10.21085,-10.88691 3.81618,2.53328 -3.5335,5.18568 -4.07041,11.62073 -0.53691,6.43506 5.96041,6.03451 2.12508,11.694685 z"
             id="path7212"
             sodipodi:nodetypes="csssc" />
        </g>
        <g
           id="g7214"
           transform="matrix(0.356694, 0.240556, -0.228397, 0.338664, -283.576, 167.037)">
          <path
             style="fill: url(#linearGradient7308) rgb(0, 0, 0); fill-opacity: 1; stroke: url(#linearGradient7310) rgb(0, 0, 0); stroke-width: 1.80972; stroke-miterlimit: 4; stroke-dasharray: none;"
             d="m -358.95108,-128.09912 c -10.69276,0.0924 -22.14972,5.35185 -25.31081,16.01125 -3.21813,10.85176 1.02666,31.793169 18.78832,37.904995 11.07434,4.311286 21.97273,10.674229 27.18226,21.839904 7.47388,-11.591311 14.53701,-17.990839 27.38593,-21.705937 17.76166,-6.111828 21.73851,-27.187202 18.52038,-38.038962 -6.14563,-20.72343 -43.63814,-21.03915 -45.94122,-2.64906 -1.11863,-8.93069 -10.52945,-13.44942 -20.62486,-13.36219 z"
             id="path7216"
             sodipodi:nodetypes="cscccscc" />
          <path
             sodipodi:nodetypes="csssc"
             id="path7218"
             d="m -368.87991,-95.954025 c -5.09948,-0.425477 -8.80243,-5.993445 -8.26552,-12.428505 0.53691,-6.43505 5.94751,-13.71704 10.21085,-10.88691 3.81618,2.53328 -3.5335,5.18568 -4.07041,11.62073 -0.53691,6.43506 5.96041,6.03451 2.12508,11.694685 z"
             style="opacity: 0.927419; fill: rgb(255, 255, 255); fill-opacity: 1; stroke: none; filter: url(#filter6901);" />
        </g>
        <g
           transform="matrix(0.384474, 0.193073, -0.183314, 0.365041, -303.223, 183.623)"
           id="g7220">
          <path
             sodipodi:nodetypes="cscccscc"
             id="path7222"
             d="m -354.80863,-138.08482 c -10.67299,-0.69066 -22.44934,3.71729 -26.30628,14.11947 -3.92654,10.58991 -1.0741,31.79143 16.24123,39.188837 10.76302,5.111628 21.21511,12.257067 25.67513,23.777133 8.22079,-11.016098 15.68921,-16.883039 28.75222,-19.648462 18.12207,-4.796685 23.48023,-25.529928 20.98607,-36.591038 -4.76307,-21.12323 -42.14405,-24.18308 -45.65527,-6.00609 -0.52651,-8.99098 -9.61636,-14.18776 -19.6931,-14.83985 z"
             style="fill: url(#linearGradient7312) rgb(0, 0, 0); fill-opacity: 1; stroke: url(#linearGradient7314) rgb(0, 0, 0); stroke-width: 1.80972; stroke-miterlimit: 4; stroke-dasharray: none;" />
          <path
             style="opacity: 0.927419; fill: rgb(255, 255, 255); fill-opacity: 1; stroke: none; filter: url(#filter6901);"
             d="m -368.87991,-95.954025 c -5.09948,-0.425477 -8.80243,-5.993445 -8.26552,-12.428505 0.53691,-6.43505 5.94751,-13.71704 10.21085,-10.88691 3.81618,2.53328 -3.5335,5.18568 -4.07041,11.62073 -0.53691,6.43506 5.96041,6.03451 2.12508,11.694685 z"
             id="path7224"
             sodipodi:nodetypes="csssc" />
        </g>
        <g
           inkscape:transform-center-y="-4.5965252"
           inkscape:transform-center-x="4.713238"
           id="g7226"
           transform="matrix(0.405822, 0.14285, -0.13563, 0.385309, -314.451, 196.904)">
          <path
             style="fill: url(#linearGradient7316) rgb(0, 0, 0); fill-opacity: 1; stroke: url(#linearGradient7318) rgb(0, 0, 0); stroke-width: 1.80972; stroke-miterlimit: 4; stroke-dasharray: none;"
             d="m -358.95108,-128.09912 c -10.69276,0.0924 -22.14972,5.35185 -25.31081,16.01125 -3.21813,10.85176 1.02666,31.793169 18.78832,37.904995 11.07434,4.311286 21.97273,10.674229 27.18226,21.839904 7.47388,-11.591311 14.53701,-17.990839 27.38593,-21.705937 17.76166,-6.111828 21.73851,-27.187202 18.52038,-38.038962 -6.14563,-20.72343 -43.63814,-21.03915 -45.94122,-2.64906 -1.11863,-8.93069 -10.52945,-13.44942 -20.62486,-13.36219 z"
             id="path7228"
             sodipodi:nodetypes="cscccscc" />
          <path
             sodipodi:nodetypes="csssc"
             id="path7230"
             d="m -368.87991,-95.954025 c -5.09948,-0.425477 -8.80243,-5.993445 -8.26552,-12.428505 0.53691,-6.43505 5.94751,-13.71704 10.21085,-10.88691 3.81618,2.53328 -3.5335,5.18568 -4.07041,11.62073 -0.53691,6.43506 5.96041,6.03451 2.12508,11.694685 z"
             style="opacity: 0.927419; fill: rgb(255, 255, 255); fill-opacity: 1; stroke: none; filter: url(#filter6901);" />
        </g>
        <g
           transform="matrix(0.428234, 0.0413948, -0.0393025, 0.406588, -308.593, 203.521)"
           id="g7232">
          <path
             sodipodi:nodetypes="cscccscc"
             id="path7234"
             d="m -358.95108,-128.09912 c -10.69276,0.0924 -22.14972,5.35185 -25.31081,16.01125 -3.21813,10.85176 1.02666,31.793169 18.78832,37.904995 11.07434,4.311286 21.97273,10.674229 27.18226,21.839904 7.47388,-11.591311 14.53701,-17.990839 27.38593,-21.705937 17.76166,-6.111828 21.73851,-27.187202 18.52038,-38.038962 -6.14563,-20.72343 -43.63814,-21.03915 -45.94122,-2.64906 -1.11863,-8.93069 -10.52945,-13.44942 -20.62486,-13.36219 z"
             style="fill: url(#linearGradient7320) rgb(0, 0, 0); fill-opacity: 1; stroke: url(#linearGradient7322) rgb(0, 0, 0); stroke-width: 1.80972; stroke-miterlimit: 4; stroke-dasharray: none;" />
          <path
             style="opacity: 0.927419; fill: rgb(255, 255, 255); fill-opacity: 1; stroke: none; filter: url(#filter6901);"
             d="m -368.87991,-95.954025 c -5.09948,-0.425477 -8.80243,-5.993445 -8.26552,-12.428505 0.53691,-6.43505 5.94751,-13.71704 10.21085,-10.88691 3.81618,2.53328 -3.5335,5.18568 -4.07041,11.62073 -0.53691,6.43506 5.96041,6.03451 2.12508,11.694685 z"
             id="path7236"
             sodipodi:nodetypes="csssc" />
        </g>
        <g
           id="g7238"
           transform="matrix(0.426011, -0.0601078, 0.0570694, 0.404477, -300.094, 210.776)">
          <path
             style="fill: url(#linearGradient7324) rgb(0, 0, 0); fill-opacity: 1; stroke: url(#linearGradient7326) rgb(0, 0, 0); stroke-width: 1.80972; stroke-miterlimit: 4; stroke-dasharray: none;"
             d="m -358.95108,-128.09912 c -10.69276,0.0924 -22.14972,5.35185 -25.31081,16.01125 -3.21813,10.85176 1.02666,31.793169 18.78832,37.904995 11.07434,4.311286 21.97273,10.674229 27.18226,21.839904 7.47388,-11.591311 14.53701,-17.990839 27.38593,-21.705937 17.76166,-6.111828 21.73851,-27.187202 18.52038,-38.038962 -6.14563,-20.72343 -43.63814,-21.03915 -45.94122,-2.64906 -1.11863,-8.93069 -10.52945,-13.44942 -20.62486,-13.36219 z"
             id="path7240"
             sodipodi:nodetypes="cscccscc" />
          <path
             sodipodi:nodetypes="csssc"
             id="path7242"
             d="m -368.87991,-95.954025 c -5.09948,-0.425477 -8.80243,-5.993445 -8.26552,-12.428505 0.53691,-6.43505 5.94751,-13.71704 10.21085,-10.88691 3.81618,2.53328 -3.5335,5.18568 -4.07041,11.62073 -0.53691,6.43506 5.96041,6.03451 2.12508,11.694685 z"
             style="opacity: 0.927419; fill: rgb(255, 255, 255); fill-opacity: 1; stroke: none; filter: url(#filter6901);" />
        </g>
        <g
           inkscape:transform-center-x="-0.27537489"
           inkscape:transform-center-y="4.3239284"
           transform="matrix(0.408237, -0.135796, 0.128932, 0.387602, -290.255, 223.306)"
           id="g7244">
          <path
             sodipodi:nodetypes="cscccscc"
             id="path7246"
             d="m -358.95108,-128.09912 c -10.69276,0.0924 -22.14972,5.35185 -25.31081,16.01125 -3.21813,10.85176 1.02666,31.793169 18.78832,37.904995 11.07434,4.311286 21.97273,10.674229 27.18226,21.839904 7.47388,-11.591311 14.53701,-17.990839 27.38593,-21.705937 17.76166,-6.111828 21.73851,-27.187202 18.52038,-38.038962 -6.14563,-20.72343 -43.63814,-21.03915 -45.94122,-2.64906 -1.11863,-8.93069 -10.52945,-13.44942 -20.62486,-13.36219 z"
             style="fill: url(#linearGradient7328) rgb(0, 0, 0); fill-opacity: 1; stroke: url(#linearGradient7330) rgb(0, 0, 0); stroke-width: 1.80972; stroke-miterlimit: 4; stroke-dasharray: none;" />
          <path
             style="opacity: 0.927419; fill: rgb(255, 255, 255); fill-opacity: 1; stroke: none; filter: url(#filter6901);"
             d="m -368.87991,-95.954025 c -5.09948,-0.425477 -8.80243,-5.993445 -8.26552,-12.428505 0.53691,-6.43505 5.94751,-13.71704 10.21085,-10.88691 3.81618,2.53328 -3.5335,5.18568 -4.07041,11.62073 -0.53691,6.43506 5.96041,6.03451 2.12508,11.694685 z"
             id="path7248"
             sodipodi:nodetypes="csssc" />
        </g>
        <g
           id="g7250"
           transform="matrix(0.367687, -0.223392, 0.2121, 0.349102, -280.338, 226.509)">
          <path
             style="fill: url(#linearGradient7332) rgb(0, 0, 0); fill-opacity: 1; stroke: url(#linearGradient7334) rgb(0, 0, 0); stroke-width: 1.80972; stroke-miterlimit: 4; stroke-dasharray: none;"
             d="m -358.95108,-128.09912 c -10.69276,0.0924 -22.14972,5.35185 -25.31081,16.01125 -3.21813,10.85176 1.02666,31.793169 18.78832,37.904995 11.07434,4.311286 21.97273,10.674229 27.18226,21.839904 7.47388,-11.591311 14.53701,-17.990839 27.38593,-21.705937 17.76166,-6.111828 21.73851,-27.187202 18.52038,-38.038962 -6.14563,-20.72343 -43.63814,-21.03915 -45.94122,-2.64906 -1.11863,-8.93069 -10.52945,-13.44942 -20.62486,-13.36219 z"
             id="path7252"
             sodipodi:nodetypes="cscccscc" />
          <path
             sodipodi:nodetypes="csssc"
             id="path7254"
             d="m -368.87991,-95.954025 c -5.09948,-0.425477 -8.80243,-5.993445 -8.26552,-12.428505 0.53691,-6.43505 5.94751,-13.71704 10.21085,-10.88691 3.81618,2.53328 -3.5335,5.18568 -4.07041,11.62073 -0.53691,6.43506 5.96041,6.03451 2.12508,11.694685 z"
             style="opacity: 0.927419; fill: rgb(255, 255, 255); fill-opacity: 1; stroke: none; filter: url(#filter6901);" />
        </g>
        <g
           transform="matrix(0.295436, -0.312755, 0.296946, 0.280503, -269.196, 224.215)"
           id="g7256">
          <path
             sodipodi:nodetypes="cscccscc"
             id="path7258"
             d="m -358.95108,-128.09912 c -10.69276,0.0924 -22.14972,5.35185 -25.31081,16.01125 -3.21813,10.85176 1.02666,31.793169 18.78832,37.904995 11.07434,4.311286 21.97273,10.674229 27.18226,21.839904 7.47388,-11.591311 14.53701,-17.990839 27.38593,-21.705937 17.76166,-6.111828 21.73851,-27.187202 18.52038,-38.038962 -6.14563,-20.72343 -43.63814,-21.03915 -45.94122,-2.64906 -1.11863,-8.93069 -10.52945,-13.44942 -20.62486,-13.36219 z"
             style="fill: url(#linearGradient7336) rgb(0, 0, 0); fill-opacity: 1; stroke: url(#linearGradient7338) rgb(0, 0, 0); stroke-width: 1.80972; stroke-miterlimit: 4; stroke-dasharray: none;" />
          <path
             style="opacity: 0.927419; fill: rgb(255, 255, 255); fill-opacity: 1; stroke: none; filter: url(#filter6901);"
             d="m -368.87991,-95.954025 c -5.09948,-0.425477 -8.80243,-5.993445 -8.26552,-12.428505 0.53691,-6.43505 5.94751,-13.71704 10.21085,-10.88691 3.81618,2.53328 -3.5335,5.18568 -4.07041,11.62073 -0.53691,6.43506 5.96041,6.03451 2.12508,11.694685 z"
             id="path7260"
             sodipodi:nodetypes="csssc" />
        </g>
        <g
           id="g7262"
           transform="matrix(0.199357, -0.381254, 0.361983, 0.18928, -260.832, 218.481)">
          <path
             style="fill: url(#linearGradient7340) rgb(0, 0, 0); fill-opacity: 1; stroke: url(#linearGradient7342) rgb(0, 0, 0); stroke-width: 1.80972; stroke-miterlimit: 4; stroke-dasharray: none;"
             d="m -358.95108,-128.09912 c -10.69276,0.0924 -22.14972,5.35185 -25.31081,16.01125 -3.21813,10.85176 1.02666,31.793169 18.78832,37.904995 11.07434,4.311286 21.97273,10.674229 27.18226,21.839904 7.47388,-11.591311 14.53701,-17.990839 27.38593,-21.705937 17.76166,-6.111828 21.73851,-27.187202 18.52038,-38.038962 -6.14563,-20.72343 -43.63814,-21.03915 -45.94122,-2.64906 -1.11863,-8.93069 -10.52945,-13.44942 -20.62486,-13.36219 z"
             id="path7264"
             sodipodi:nodetypes="cscccscc" />
          <path
             sodipodi:nodetypes="csssc"
             id="path7266"
             d="m -368.87991,-95.954025 c -5.09948,-0.425477 -8.80243,-5.993445 -8.26552,-12.428505 0.53691,-6.43505 5.94751,-13.71704 10.21085,-10.88691 3.81618,2.53328 -3.5335,5.18568 -4.07041,11.62073 -0.53691,6.43506 5.96041,6.03451 2.12508,11.694685 z"
             style="opacity: 0.927419; fill: rgb(255, 255, 255); fill-opacity: 1; stroke: none; filter: url(#filter6901);" />
        </g>
        <g
           transform="matrix(0.178113, -0.391629, 0.371834, 0.16911, -226.404, 231.514)"
           id="g7268">
          <path
             sodipodi:nodetypes="cscccscc"
             id="path7270"
             d="m -358.95108,-128.09912 c -10.69276,0.0924 -22.14972,5.35185 -25.31081,16.01125 -3.21813,10.85176 1.02666,31.793169 18.78832,37.904995 11.07434,4.311286 21.97273,10.674229 27.18226,21.839904 7.47388,-11.591311 14.53701,-17.990839 27.38593,-21.705937 17.76166,-6.111828 21.73851,-27.187202 18.52038,-38.038962 -6.14563,-20.72343 -43.63814,-21.03915 -45.94122,-2.64906 -1.11863,-8.93069 -10.52945,-13.44942 -20.62486,-13.36219 z"
             style="fill: url(#linearGradient7344) rgb(0, 0, 0); fill-opacity: 1; stroke: url(#linearGradient7346) rgb(0, 0, 0); stroke-width: 1.80972; stroke-miterlimit: 4; stroke-dasharray: none;" />
          <path
             style="opacity: 0.927419; fill: rgb(255, 255, 255); fill-opacity: 1; stroke: none; filter: url(#filter6901);"
             d="m -368.87991,-95.954025 c -5.09948,-0.425477 -8.80243,-5.993445 -8.26552,-12.428505 0.53691,-6.43505 5.94751,-13.71704 10.21085,-10.88691 3.81618,2.53328 -3.5335,5.18568 -4.07041,11.62073 -0.53691,6.43506 5.96041,6.03451 2.12508,11.694685 z"
             id="path7272"
             sodipodi:nodetypes="csssc" />
        </g>
        <g
           id="g7274"
           transform="matrix(0.232538, -0.361972, 0.343676, 0.220784, -171.713, 265.091)">
          <path
             style="fill: url(#linearGradient7348) rgb(0, 0, 0); fill-opacity: 1; stroke: url(#linearGradient7350) rgb(0, 0, 0); stroke-width: 1.80972; stroke-miterlimit: 4; stroke-dasharray: none;"
             d="m -358.95108,-128.09912 c -10.69276,0.0924 -22.14972,5.35185 -25.31081,16.01125 -3.21813,10.85176 1.02666,31.793169 18.78832,37.904995 11.07434,4.311286 21.97273,10.674229 27.18226,21.839904 7.47388,-11.591311 14.53701,-17.990839 27.38593,-21.705937 17.76166,-6.111828 21.73851,-27.187202 18.52038,-38.038962 -6.14563,-20.72343 -43.63814,-21.03915 -45.94122,-2.64906 -1.11863,-8.93069 -10.52945,-13.44942 -20.62486,-13.36219 z"
             id="path7276"
             sodipodi:nodetypes="cscccscc" />
          <path
             sodipodi:nodetypes="csssc"
             id="path7278"
             d="m -368.87991,-95.954025 c -5.09948,-0.425477 -8.80243,-5.993445 -8.26552,-12.428505 0.53691,-6.43505 5.94751,-13.71704 10.21085,-10.88691 3.81618,2.53328 -3.5335,5.18568 -4.07041,11.62073 -0.53691,6.43506 5.96041,6.03451 2.12508,11.694685 z"
             style="opacity: 0.927419; fill: rgb(255, 255, 255); fill-opacity: 1; stroke: none; filter: url(#filter6901);" />
        </g>
        <g
           transform="matrix(0.28238, -0.324591, 0.308184, 0.268107, -120.129, 307.41)"
           id="g7280">
          <path
             sodipodi:nodetypes="cscccscc"
             id="path7282"
             d="m -358.95108,-128.09912 c -10.69276,0.0924 -22.14972,5.35185 -25.31081,16.01125 -3.21813,10.85176 1.02666,31.793169 18.78832,37.904995 11.07434,4.311286 21.97273,10.674229 27.18226,21.839904 7.47388,-11.591311 14.53701,-17.990839 27.38593,-21.705937 17.76166,-6.111828 21.73851,-27.187202 18.52038,-38.038962 -6.14563,-20.72343 -43.63814,-21.03915 -45.94122,-2.64906 -1.11863,-8.93069 -10.52945,-13.44942 -20.62486,-13.36219 z"
             style="fill: url(#linearGradient7352) rgb(0, 0, 0); fill-opacity: 1; stroke: url(#linearGradient7354) rgb(0, 0, 0); stroke-width: 1.80972; stroke-miterlimit: 4; stroke-dasharray: none;" />
          <path
             style="opacity: 0.927419; fill: rgb(255, 255, 255); fill-opacity: 1; stroke: none; filter: url(#filter6901);"
             d="m -368.87991,-95.954025 c -5.09948,-0.425477 -8.80243,-5.993445 -8.26552,-12.428505 0.53691,-6.43505 5.94751,-13.71704 10.21085,-10.88691 3.81618,2.53328 -3.5335,5.18568 -4.07041,11.62073 -0.53691,6.43506 5.96041,6.03451 2.12508,11.694685 z"
             id="path7284"
             sodipodi:nodetypes="csssc" />
        </g>
        <g
           id="g7286"
           transform="matrix(0.328705, -0.27758, 0.26355, 0.31209, -78.5683, 356.785)">
          <path
             style="fill: url(#linearGradient7356) rgb(0, 0, 0); fill-opacity: 1; stroke: url(#linearGradient7358) rgb(0, 0, 0); stroke-width: 1.80972; stroke-miterlimit: 4; stroke-dasharray: none;"
             d="m -358.95108,-128.09912 c -10.69276,0.0924 -22.14972,5.35185 -25.31081,16.01125 -3.21813,10.85176 1.02666,31.793169 18.78832,37.904995 11.07434,4.311286 21.97273,10.674229 27.18226,21.839904 7.47388,-11.591311 14.53701,-17.990839 27.38593,-21.705937 17.76166,-6.111828 21.73851,-27.187202 18.52038,-38.038962 -6.14563,-20.72343 -43.63814,-21.03915 -45.94122,-2.64906 -1.11863,-8.93069 -10.52945,-13.44942 -20.62486,-13.36219 z"
             id="path7288"
             sodipodi:nodetypes="cscccscc" />
          <path
             sodipodi:nodetypes="csssc"
             id="path7290"
             d="m -368.87991,-95.954025 c -5.09948,-0.425477 -8.80243,-5.993445 -8.26552,-12.428505 0.53691,-6.43505 5.94751,-13.71704 10.21085,-10.88691 3.81618,2.53328 -3.5335,5.18568 -4.07041,11.62073 -0.53691,6.43506 5.96041,6.03451 2.12508,11.694685 z"
             style="opacity: 0.927419; fill: rgb(255, 255, 255); fill-opacity: 1; stroke: none; filter: url(#filter6901);" />
        </g>
      </g>
    </g>
  </g>
</svg>
