<?xml version="1.0" encoding="UTF-8" standalone="no"?>
<!-- Created with Inkscape (http://www.inkscape.org/) -->
<svg
   xmlns:dc="http://purl.org/dc/elements/1.1/"
   xmlns:cc="http://creativecommons.org/ns#"
   xmlns:rdf="http://www.w3.org/1999/02/22-rdf-syntax-ns#"
   xmlns:svg="http://www.w3.org/2000/svg"
   xmlns="http://www.w3.org/2000/svg"
   xmlns:sodipodi="http://sodipodi.sourceforge.net/DTD/sodipodi-0.dtd"
   xmlns:inkscape="http://www.inkscape.org/namespaces/inkscape"
   width="256"
   height="256"
   id="svg2"
   sodipodi:version="0.32"
   inkscape:version="0.46"
   version="1.0"
   sodipodi:docname="poing.svg"
   inkscape:output_extension="org.inkscape.output.svg.inkscape">
  <defs
     id="defs4">
    <inkscape:perspective
       sodipodi:type="inkscape:persp3d"
       inkscape:vp_x="0 : 526.18109 : 1"
       inkscape:vp_y="0 : 1000 : 0"
       inkscape:vp_z="744.09448 : 526.18109 : 1"
       inkscape:persp3d-origin="372.04724 : 350.78739 : 1"
       id="perspective10" />
    <inkscape:perspective
       id="perspective2390"
       inkscape:persp3d-origin="372.04724 : 350.78739 : 1"
       inkscape:vp_z="744.09448 : 526.18109 : 1"
       inkscape:vp_y="0 : 1000 : 0"
       inkscape:vp_x="0 : 526.18109 : 1"
       sodipodi:type="inkscape:persp3d" />
    <inkscape:perspective
       sodipodi:type="inkscape:persp3d"
       inkscape:vp_x="0 : 526.18109 : 1"
       inkscape:vp_y="0 : 1000 : 0"
       inkscape:vp_z="744.09448 : 526.18109 : 1"
       inkscape:persp3d-origin="372.04724 : 350.78739 : 1"
       id="perspective3262" />
    <inkscape:perspective
       id="perspective3260"
       inkscape:persp3d-origin="372.04724 : 350.78739 : 1"
       inkscape:vp_z="744.09448 : 526.18109 : 1"
       inkscape:vp_y="0 : 1000 : 0"
       inkscape:vp_x="0 : 526.18109 : 1"
       sodipodi:type="inkscape:persp3d" />
  </defs>
  <sodipodi:namedview
     id="base"
     pagecolor="#ffffff"
     bordercolor="#666666"
     borderopacity="1.0"
     inkscape:pageopacity="0.0"
     inkscape:pageshadow="2"
     inkscape:zoom="0.9899495"
     inkscape:cx="33.971184"
     inkscape:cy="217.94616"
     inkscape:document-units="px"
     inkscape:current-layer="layer1"
     showgrid="false"
     inkscape:window-width="1280"
     inkscape:window-height="982"
     inkscape:window-x="0"
     inkscape:window-y="42"
     units=""
     showborder="true"
     borderlayer="false"
     inkscape:showpageshadow="false" />
  <metadata
     id="metadata7">
    <rdf:RDF>
      <cc:Work
         rdf:about="">
        <dc:format>image/svg+xml</dc:format>
        <dc:type
           rdf:resource="http://purl.org/dc/dcmitype/StillImage" />
        <cc:license
           rdf:resource="http://creativecommons.org/licenses/by-sa/3.0/" />
        <dc:title>Main Fermée</dc:title>
        <dc:date>09/06/2009</dc:date>
        <dc:creator>
          <cc:Agent>
            <dc:title>Tutur</dc:title>
          </cc:Agent>
        </dc:creator>
      </cc:Work>
      <cc:License
         rdf:about="http://creativecommons.org/licenses/by-sa/3.0/">
        <cc:permits
           rdf:resource="http://creativecommons.org/ns#Reproduction" />
        <cc:permits
           rdf:resource="http://creativecommons.org/ns#Distribution" />
        <cc:requires
           rdf:resource="http://creativecommons.org/ns#Notice" />
        <cc:requires
           rdf:resource="http://creativecommons.org/ns#Attribution" />
        <cc:permits
           rdf:resource="http://creativecommons.org/ns#DerivativeWorks" />
        <cc:requires
           rdf:resource="http://creativecommons.org/ns#ShareAlike" />
      </cc:License>
    </rdf:RDF>
  </metadata>
  <g
     inkscape:label="Calque 1"
     inkscape:groupmode="layer"
     id="layer1"
     transform="translate(-298.27776,-415.82944)">
    <g
       id="g3179">
      <path
         style="fill:#fff3eb;fill-opacity:1;stroke:#000000;stroke-width:2.31720591;stroke-linecap:round;stroke-linejoin:round;stroke-miterlimit:4;stroke-dasharray:none;stroke-opacity:1"
         d="M 382.62391,543.15464 C 377.59755,543.38032 368.63088,545.69689 371.88813,544.4455 C 382.69382,540.29413 387.08963,545.74543 368.51071,524.09687 C 364.2425,519.12345 362.79486,517.70971 359.33351,513.35965 C 352.94625,516.22685 344.23173,519.04911 338.07292,533.45123 C 331.85539,547.99066 355.53041,582.64848 372.30083,590.9042 C 389.07125,599.15992 409.6075,600.52085 415.55509,607.45115 C 426.0129,634.85462 438.88274,658.37481 441.53945,657.7656 C 473.1763,661.45109 541.09124,626.05508 547.11915,598.9904 C 545.3241,585.73974 518.97078,572.41579 510.07044,561.10381 C 507.6016,553.03337 507.46549,521.19693 504.33807,512.0833 C 501.21065,502.96967 490.30434,472.98075 476.36197,464.31325 C 464.49911,456.93851 450.69415,459.45372 447.35076,463.74745 C 438.51088,460.24979 421.98052,461.40088 416.61477,471.04892 C 411.30402,468.81857 401.57602,467.74744 392.08631,472.02389 C 384.04847,475.64608 384.80862,483.78366 384.80862,483.78366 C 371.46468,470.52669 346.93949,488.35861 354.58194,504.04333 C 364.92762,525.27591 362.8708,512.14399 389.91641,551.51146"
         id="path3163"
         sodipodi:nodetypes="cssczzccccssccscsc" />
      <path
         sodipodi:nodetypes="csscccssssc"
         id="path3190"
         d="M 451.95698,461.65141 C 451.95698,461.65141 475.29642,452.64376 493.43708,484.04858 C 508.62249,510.3373 506.70122,525.20644 506.89628,526.57187 C 507.09135,527.9373 509.62714,560.51247 509.62714,560.51247 L 519.96537,570.65565 L 543.17763,590.55187 C 543.17763,590.55187 527.66529,578.7968 515.47897,574.3618 C 508.68807,571.89037 500.9406,564.83148 499.60934,540.8688 C 498.82909,526.62935 497.05091,511.08195 492.56451,500.15854 C 489.85073,493.55106 482.61641,477.56631 474.22879,470.34905 C 467.04281,464.16577 451.3718,461.06623 451.95698,461.65141 z"
         style="fill:#d8cdc6;fill-opacity:1;fill-rule:evenodd;stroke:none" />
      <path
         sodipodi:nodetypes="cscscc"
         id="path3178"
         d="M 360.52313,484.20037 C 360.52313,484.20037 345.829,490.72798 358.70709,512.61639 C 365.16613,523.59458 386.95318,543.23972 386.95318,543.23972 C 386.95318,543.23972 374.31912,521.6584 362.36803,503.37084 C 357.73846,496.28668 363.21755,487.80043 371.21504,481.55848 L 360.52313,484.20037 z"
         style="fill:#d8cdc6;fill-opacity:1;fill-rule:evenodd;stroke:none" />
      <path
         sodipodi:nodetypes="csssssc"
         id="path3182"
         d="M 545.93488,595.97088 C 545.93488,595.97088 548.14174,617.90158 509.52164,637.76335 C 470.90154,657.62511 446.62605,661.21126 440.55718,657.90096 C 434.4883,654.59067 415.17826,610.72928 416.28169,607.9707 C 417.38512,605.21212 434.21245,647.69423 448.00534,647.69423 C 461.79823,647.69423 489.49803,644.77642 529.3834,615.143 C 536.16154,610.10709 545.93488,595.97088 545.93488,595.97088 z"
         style="fill:#d8cdc6;fill-opacity:1;fill-rule:evenodd;stroke:none" />
      <path
         sodipodi:nodetypes="cssssssscc"
         id="path3184"
         d="M 344.31625,522.93954 C 344.31625,522.93954 333.24847,539.14415 338.76562,548.66126 C 343.77691,557.30574 336.66171,552.07434 349.93787,569.21267 C 357.52395,579.00562 364.14985,589.03342 371.73064,590.72958 C 402.075,597.48809 418.43918,613.44169 415.02309,596.96509 C 411.1056,578.07013 391.9763,586.67264 383.92563,583.11537 C 372.06374,577.87407 363.20684,574.0552 355.59131,564.73875 C 349.18953,556.90714 346.06592,550.1008 344.93394,540.41091 C 343.85016,531.13363 350.77132,519.32834 352.01298,519.60592 L 344.31625,522.93954 z"
         style="fill:#d8cdc6;fill-opacity:1;fill-rule:evenodd;stroke:none" />
      <path
         sodipodi:nodetypes="cssczcc"
         id="path3186"
         d="M 404.8123,468.26255 C 404.8123,468.26255 419.9368,471.28313 422.41952,474.59342 C 424.90224,477.90371 425.74152,479.05506 427.49858,482.77588 C 429.84337,487.74132 429.40925,491.32946 429.40925,491.32946 C 425.33122,482.18262 416.2499,477.96993 408.53736,476.00116 C 400.82483,474.03239 389.22599,476.57283 389.22599,476.57283 L 404.8123,468.26255 z"
         style="fill:#d8cdc6;fill-opacity:1;fill-rule:evenodd;stroke:none" />
      <path
         sodipodi:nodetypes="cssczcc"
         id="path3188"
         d="M 436.20247,461.65024 C 436.20247,461.65024 451.13191,463.89057 453.61463,467.20087 C 456.09736,470.51116 455.92648,470.65236 457.68354,474.37317 C 460.02833,479.33861 458.83659,484.18944 458.83659,484.18944 C 454.75856,475.04261 447.77767,470.91004 440.06513,468.94126 C 432.3526,466.97249 421.6141,467.44736 421.6141,467.44736 L 436.20247,461.65024 z"
         style="fill:#d8cdc6;fill-opacity:1;fill-rule:evenodd;stroke:none" />
      <path
         sodipodi:nodetypes="cssczzccccssccscsc"
         id="path2396"
         d="M 382.62391,543.15464 C 377.59755,543.38032 368.63088,545.69689 371.88813,544.4455 C 382.69382,540.29413 387.08963,545.74543 368.51071,524.09687 C 364.2425,519.12345 362.79486,517.70971 359.33351,513.35965 C 352.94625,516.22685 344.23173,519.04911 338.07292,533.45123 C 331.85539,547.99066 355.53041,582.64848 372.30083,590.9042 C 389.07125,599.15992 409.6075,600.52085 415.55509,607.45115 C 426.0129,634.85462 438.88274,658.37481 441.53945,657.7656 C 473.1763,661.45109 541.09124,626.05508 547.11915,598.9904 C 545.3241,585.73974 518.97078,572.41579 510.07044,561.10381 C 507.6016,553.03337 507.46549,521.19693 504.33807,512.0833 C 501.21065,502.96967 490.30434,472.98075 476.36197,464.31325 C 464.49911,456.93851 450.69415,459.45372 447.35076,463.74745 C 438.51088,460.24979 421.98052,461.40088 416.61477,471.04892 C 411.30402,468.81857 401.57602,467.74744 392.08631,472.02389 C 384.04847,475.64608 384.80862,483.78366 384.80862,483.78366 C 371.46468,470.52669 346.93949,488.35861 354.58194,504.04333 C 364.92762,525.27591 362.8708,512.14399 389.91641,551.51146"
         style="fill:none;stroke:#000000;stroke-width:5;stroke-linecap:round;stroke-linejoin:round;stroke-miterlimit:4;stroke-dasharray:none;stroke-opacity:1" />
      <path
         sodipodi:nodetypes="cc"
         id="path3168"
         d="M 384.63028,483.38562 L 400.40502,504.30988"
         style="fill:none;stroke:#000000;stroke-width:5;stroke-linecap:round;stroke-linejoin:miter;stroke-miterlimit:4;stroke-dasharray:none;stroke-opacity:1" />
      <path
         sodipodi:nodetypes="cc"
         id="path3170"
         d="M 416.19481,471.0002 C 416.19481,471.0002 423.7702,474.68429 431.65703,490.47661"
         style="fill:none;stroke:#000000;stroke-width:5;stroke-linecap:round;stroke-linejoin:miter;stroke-miterlimit:4;stroke-dasharray:none;stroke-opacity:1" />
      <path
         sodipodi:nodetypes="cc"
         id="path3172"
         d="M 447.06468,463.45362 C 447.06468,463.45362 454.86705,466.41758 460.05978,481.97704"
         style="fill:none;stroke:#000000;stroke-width:5;stroke-linecap:round;stroke-linejoin:miter;stroke-miterlimit:4;stroke-dasharray:none;stroke-opacity:1" />
      <path
         sodipodi:nodetypes="cscsc"
         id="path3194"
         d="M 480.56305,557.97668 C 480.56305,557.97668 473.15074,572.99638 482.90379,581.18894 C 492.65684,589.3815 496.55805,591.72223 496.55805,591.72223 C 496.55805,591.72223 488.56056,582.94449 485.24452,578.45808 C 479.19771,570.27709 480.56305,557.97668 480.56305,557.97668 L 480.56305,557.97668 z"
         style="fill:#d8cdc6;fill-opacity:1;fill-rule:evenodd;stroke:none" />
      <path
         sodipodi:nodetypes="cscsc"
         id="path3196"
         d="M 444.14888,568.025 C 444.14888,568.025 446.48961,581.4842 456.24266,589.67676 C 465.99571,597.86932 469.89693,600.21005 469.89693,600.21005 C 469.89693,600.21005 461.89943,591.43231 458.58339,586.9459 C 452.53658,578.76491 444.14888,568.025 444.14888,568.025 L 444.14888,568.025 z"
         style="fill:#d8cdc6;fill-opacity:1;fill-rule:evenodd;stroke:none" />
    </g>
  </g>
</svg>
