<?xml version="1.0" encoding="UTF-8" standalone="no"?>
<!-- Created with Inkscape (http://www.inkscape.org/) -->

<svg
   xmlns:dc="http://purl.org/dc/elements/1.1/"
   xmlns:cc="http://creativecommons.org/ns#"
   xmlns:rdf="http://www.w3.org/1999/02/22-rdf-syntax-ns#"
   xmlns:svg="http://www.w3.org/2000/svg"
   xmlns="http://www.w3.org/2000/svg"
   xmlns:xlink="http://www.w3.org/1999/xlink"
   xmlns:sodipodi="http://sodipodi.sourceforge.net/DTD/sodipodi-0.dtd"
   xmlns:inkscape="http://www.inkscape.org/namespaces/inkscape"
   width="744.09448819"
   height="1052.3622047"
   id="svg3443"
   version="1.1"
   inkscape:version="0.47 r22583"
   sodipodi:docname="Nuovo documento 2">
  <defs
     id="defs3445">
    <inkscape:perspective
       sodipodi:type="inkscape:persp3d"
       inkscape:vp_x="0 : 526.18109 : 1"
       inkscape:vp_y="0 : 1000 : 0"
       inkscape:vp_z="744.09448 : 526.18109 : 1"
       inkscape:persp3d-origin="372.04724 : 350.78739 : 1"
       id="perspective3451" />
    <inkscape:perspective
       id="perspective3404"
       inkscape:persp3d-origin="0.5 : 0.33333333 : 1"
       inkscape:vp_z="1 : 0.5 : 1"
       inkscape:vp_y="0 : 1000 : 0"
       inkscape:vp_x="0 : 0.5 : 1"
       sodipodi:type="inkscape:persp3d" />
    <linearGradient
       inkscape:collect="always"
       xlink:href="#linearGradient11512"
       id="linearGradient22265"
       gradientUnits="userSpaceOnUse"
       x1="218.4155"
       y1="431.28537"
       x2="143.11111"
       y2="574.375" />
    <linearGradient
       inkscape:collect="always"
       id="linearGradient11512">
      <stop
         style="stop-color:#42c43e;stop-opacity:1"
         offset="0"
         id="stop11514" />
      <stop
         style="stop-color:#2d852a;stop-opacity:0;"
         offset="1"
         id="stop11516" />
    </linearGradient>
    <linearGradient
       inkscape:collect="always"
       xlink:href="#linearGradient11522"
       id="linearGradient22267"
       gradientUnits="userSpaceOnUse"
       x1="203.46295"
       y1="438.74857"
       x2="137.51428"
       y2="609.37982" />
    <linearGradient
       inkscape:collect="always"
       id="linearGradient11522">
      <stop
         style="stop-color:#b3d200;stop-opacity:1;"
         offset="0"
         id="stop11524" />
      <stop
         style="stop-color:#b3d200;stop-opacity:0;"
         offset="1"
         id="stop11526" />
    </linearGradient>
    <linearGradient
       inkscape:collect="always"
       xlink:href="#linearGradient11522"
       id="linearGradient22269"
       gradientUnits="userSpaceOnUse"
       gradientTransform="translate(10.747738,1.3671305)"
       x1="203.46295"
       y1="438.74857"
       x2="95.920723"
       y2="676.80927" />
    <linearGradient
       inkscape:collect="always"
       xlink:href="#linearGradient11522"
       id="linearGradient22271"
       gradientUnits="userSpaceOnUse"
       gradientTransform="translate(-61.09802,-4.7485508)"
       x1="293.14386"
       y1="455.16614"
       x2="187.72606"
       y2="601.42151" />
  </defs>
  <sodipodi:namedview
     id="base"
     pagecolor="#ffffff"
     bordercolor="#666666"
     borderopacity="1.0"
     inkscape:pageopacity="0.0"
     inkscape:pageshadow="2"
     inkscape:zoom="0.35"
     inkscape:cx="375"
     inkscape:cy="590.37044"
     inkscape:document-units="px"
     inkscape:current-layer="layer1"
     showgrid="false"
     inkscape:window-width="758"
     inkscape:window-height="648"
     inkscape:window-x="1"
     inkscape:window-y="51"
     inkscape:window-maximized="0" />
  <metadata
     id="metadata3448">
    <rdf:RDF>
      <cc:Work
         rdf:about="">
        <dc:format>image/svg+xml</dc:format>
        <dc:type
           rdf:resource="http://purl.org/dc/dcmitype/StillImage" />
        <dc:title></dc:title>
      </cc:Work>
    </rdf:RDF>
  </metadata>
  <g
     inkscape:label="Livello 1"
     inkscape:groupmode="layer"
     id="layer1">
    <g
       id="g21989"
       transform="matrix(-1.1032228,4.1639589,-5.7332782,-0.80124743,-1365.4032,340.94361)">
      <g
         id="g5451"
         transform="matrix(0.5438802,-1.0649624,1.0649624,0.5438802,-33.160164,-726.70177)">
        <g
           transform="matrix(0.4948745,-0.8689644,0.8689644,0.4948745,-822.03669,101.25067)"
           id="g5519">
          <path
             style="fill:#056a29;fill-opacity:1;fill-rule:evenodd;stroke:none"
             d="m 149.42107,574.02484 c -4.9395,-4.63093 -10.57981,-8.87933 -14.11352,-14.68798 -4.98386,-10.09111 -1.29699,-24.61374 2.56444,-33.72326 7.50153,-19.11528 15.6502,-39.18642 28.19981,-54.66491 8.81803,-14.29253 18.52623,-28.26955 31.62056,-38.94691 6.00113,-3.50311 12.26337,-5.20106 15.67585,-11.82999 1.04206,-2.02426 8.83627,0.70901 11.09558,3.47971 1.85062,1.81304 6.97454,5.21995 6.81838,8.21379 2.24281,4.90789 -4.3035,6.8096 -4.13203,11.22382 -0.13142,3.75068 -0.0293,7.17158 -1.9165,10.92138 -1.88723,3.7498 -1.3541,9.25715 -5.16916,14.26517 -3.81506,5.00802 -8.89013,9.95716 -11.05358,18.10113 -4.29501,14.14754 -5.3867,30.38892 -9.54343,44.58514 -3.05607,10.89872 -8.52875,21.96964 -13.45413,32.18925 -4.35682,7.2896 -14.27605,8.20247 -22.38369,8.64647 -5.19112,0.19617 -6.83382,8.34844 -12.5565,3.19442 l -0.88683,-0.49526 -0.76526,-0.47197 10e-6,0 z"
             id="path5521"
             sodipodi:nodetypes="cccccsccczzcccccccc" />
          <g
             id="g5523">
            <path
               sodipodi:nodetypes="cccccsccccccccccccc"
               style="fill:url(#linearGradient22265);fill-opacity:1;fill-rule:evenodd;stroke:none"
               d="m 151.67458,569.69973 c -4.742,-4.44577 -8.94114,-9.73996 -12.33356,-15.31636 -4.78459,-9.68763 0.27443,-20.28656 3.37364,-29.63967 7.20159,-18.35099 17.15184,-35.49223 27.07228,-52.47922 8.46546,-13.72107 18.0894,-27.13924 30.66018,-37.38968 5.76118,-3.36304 11.24644,-6.25643 14.12468,-11.2937 1.13709,-1.99005 5.39321,-0.58562 7.56218,2.0743 1.77663,1.74055 6.15114,2.56728 6.00122,5.44142 2.15314,4.71165 -4.13143,6.84124 -3.96681,11.07896 -0.12617,3.60072 1.09985,7.2162 -0.92814,10.48471 -1.59556,3.93122 -2.86223,8.06179 -4.65856,11.87132 -5.52871,5.80605 -10.05424,12.59817 -12.13119,20.41651 -4.12328,13.58187 -6.38697,27.65431 -10.3775,41.28291 -2.93387,10.46295 -5.75644,21.09122 -10.48488,30.90221 -4.18262,6.99814 -12.4896,10.0019 -20.27307,10.42815 -4.98356,0.18832 -6.56058,8.01464 -12.05445,3.06669 l -0.85137,-0.47546 -0.73466,-0.45309 1e-5,0 z"
               id="path5525" />
            <path
               sodipodi:nodetypes="czzzzzcc"
               id="path5527"
               d="m 216.53391,423.65406 c -0.90229,0.92816 -4.28214,4.48433 -3.48227,6.3314 0.79987,1.84707 4.13267,0.31781 5.69827,1.58285 1.5656,1.26504 1.29588,6.38382 3.48227,6.64797 2.18639,0.26415 4.69635,-4.06873 4.74855,-5.38169 0.0522,-1.31296 -0.51459,-0.4798 -0.94971,-1.26628 -0.43512,-0.78648 -0.94085,-3.54743 -1.58285,-4.11541 -1.54094,-1.48045 -5.23524,-2.36994 -7.91426,-3.79884 z"
               style="fill:#8fc70f;fill-opacity:1;fill-rule:evenodd;stroke:none" />
            <path
               sodipodi:nodetypes="czzzzzzzzzzzz"
               id="path5529"
               d="m 212.10193,430.6186 c -1.81208,1.34574 -14.77756,13.89354 -20.89362,21.52677 -6.11606,7.63323 -14.35141,21.29853 -19.31077,29.44101 -4.95936,8.14248 -10.18818,17.5599 -13.92908,24.69246 -3.7409,7.13256 -9.32551,16.41682 -11.07996,22.79305 -1.75445,6.37623 -0.8969,14.55207 -1.58285,18.67763 -0.68595,4.12556 -4.66564,8.10399 -5.38169,8.54739 -1.84622,1.14323 9.70148,13.43376 11.07995,13.29594 0.76266,-0.0762 -1.01789,-19.90471 0,-27.22502 1.01789,-7.32031 2.2841,-11.54801 6.01484,-21.21019 3.73074,-9.66218 15.35015,-31.88304 20.89362,-42.10382 5.54347,-10.22078 10.34988,-18.99574 15.51193,-26.27531 5.16205,-7.27957 20.31373,-23.37496 18.67763,-22.15991 z"
               style="opacity:0.80000006;fill:url(#linearGradient22267);fill-opacity:1;fill-rule:evenodd;stroke:none" />
            <path
               sodipodi:nodetypes="czzzzcczzzzz"
               id="path5531"
               d="m 214.84967,433.98573 c -1.81208,1.34574 -8.77756,11.89354 -14.89362,19.52677 -6.11606,7.63323 -14.35141,21.29853 -19.31077,29.44101 -4.95936,8.14248 -8.18818,17.5599 -11.92908,24.69246 -3.7409,7.13256 -9.32551,16.41682 -11.07996,22.79305 -1.75445,6.37623 -2.16318,14.55207 -2.84913,18.67763 2.08722,6.0948 -1.46817,10.73891 1.58285,14.87879 2.64475,-2.35381 4.3638,-12.94017 5.38169,-20.26048 1.01789,-7.32031 2.2841,-11.54801 6.01484,-21.21019 3.73074,-9.66218 16.79242,-27.34343 20.1599,-36.40556 3.32748,-8.9545 9.0836,-24.694 14.24565,-31.97357 5.16205,-7.27957 14.31373,-21.37496 12.67763,-20.15991 z"
               style="opacity:0.80000006;fill:url(#linearGradient22269);fill-opacity:1;fill-rule:evenodd;stroke:none" />
            <path
               id="path5533"
               d="m 153.53648,570.54256 0.94971,-3.1657 15.19536,-11.39652 8.23082,-10.76338 7.28111,-25.3256 c 0,0 8.23082,-23.10962 9.18053,-31.02387 0.94971,-7.91425 9.18053,-17.41135 9.4971,-19.62734 0.31657,-2.21599 4.43198,-7.91425 6.64797,-13.29594 2.21599,-5.38169 6.64798,-19.94392 6.64798,-19.94392 0,0 -0.31657,14.56223 -1.26628,17.72793 -0.94971,3.1657 -1.89943,9.4971 -5.3817,12.97937 -3.48227,3.48227 -7.59768,5.06512 -8.23082,9.4971 -0.63314,4.43198 -1.26628,4.43198 -1.26628,4.43198 0,0 -5.06512,19.62734 -5.69826,22.79304 -0.63314,3.1657 -9.4971,31.97358 -10.76338,34.18957 -1.26628,2.21599 -2.84913,14.56222 -6.3314,18.67763 -3.48227,4.11541 -24.69246,14.87879 -24.69246,14.24565 z"
               style="fill:url(#linearGradient22271);fill-opacity:1;fill-rule:evenodd;stroke:none" />
            <path
               id="path5535"
               d="m 218.43334,424.60377 -3.48227,5.06512 0,0"
               style="opacity:0.6908397;fill:none;stroke:#25641c;stroke-width:1.21823037px;stroke-linecap:butt;stroke-linejoin:miter;stroke-opacity:1" />
            <path
               id="path5537"
               d="m 221.59904,425.87005 -2.84913,3.79884 0.31657,-0.31657"
               style="opacity:0.6908397;fill:none;stroke:#25641c;stroke-width:1.21823037px;stroke-linecap:butt;stroke-linejoin:miter;stroke-opacity:1" />
            <path
               id="path5539"
               d="m 224.76474,429.35232 -3.48227,2.21599 0,0"
               style="opacity:0.6908397;fill:none;stroke:#25641c;stroke-width:1.21823037px;stroke-linecap:butt;stroke-linejoin:miter;stroke-opacity:1" />
          </g>
        </g>
      </g>
    </g>
  </g>
</svg>
