<?xml version="1.0" encoding="UTF-8" standalone="no"?>
<!-- Created with Inkscape (http://www.inkscape.org/) -->

<svg
   xmlns:dc="http://purl.org/dc/elements/1.1/"
   xmlns:cc="http://creativecommons.org/ns#"
   xmlns:rdf="http://www.w3.org/1999/02/22-rdf-syntax-ns#"
   xmlns:svg="http://www.w3.org/2000/svg"
   xmlns="http://www.w3.org/2000/svg"
   xmlns:xlink="http://www.w3.org/1999/xlink"
   xmlns:sodipodi="http://sodipodi.sourceforge.net/DTD/sodipodi-0.dtd"
   xmlns:inkscape="http://www.inkscape.org/namespaces/inkscape"
   width="744.09448819"
   height="1052.3622047"
   id="svg3443"
   version="1.1"
   inkscape:version="0.47 r22583"
   sodipodi:docname="cetriolo.svg">
  <defs
     id="defs3445">
    <inkscape:perspective
       sodipodi:type="inkscape:persp3d"
       inkscape:vp_x="0 : 526.18109 : 1"
       inkscape:vp_y="0 : 1000 : 0"
       inkscape:vp_z="744.09448 : 526.18109 : 1"
       inkscape:persp3d-origin="372.04724 : 350.78739 : 1"
       id="perspective3451" />
    <inkscape:perspective
       id="perspective3404"
       inkscape:persp3d-origin="0.5 : 0.33333333 : 1"
       inkscape:vp_z="1 : 0.5 : 1"
       inkscape:vp_y="0 : 1000 : 0"
       inkscape:vp_x="0 : 0.5 : 1"
       sodipodi:type="inkscape:persp3d" />
    <linearGradient
       inkscape:collect="always"
       xlink:href="#linearGradient11512"
       id="linearGradient22265"
       gradientUnits="userSpaceOnUse"
       x1="218.4155"
       y1="431.28537"
       x2="143.11111"
       y2="574.375" />
    <linearGradient
       inkscape:collect="always"
       id="linearGradient11512">
      <stop
         style="stop-color:#42c43e;stop-opacity:1"
         offset="0"
         id="stop11514" />
      <stop
         style="stop-color:#2d852a;stop-opacity:0;"
         offset="1"
         id="stop11516" />
    </linearGradient>
    <linearGradient
       inkscape:collect="always"
       xlink:href="#linearGradient11522"
       id="linearGradient22267"
       gradientUnits="userSpaceOnUse"
       x1="203.46295"
       y1="438.74857"
       x2="137.51428"
       y2="609.37982" />
    <linearGradient
       inkscape:collect="always"
       id="linearGradient11522">
      <stop
         style="stop-color:#b3d200;stop-opacity:1;"
         offset="0"
         id="stop11524" />
      <stop
         style="stop-color:#b3d200;stop-opacity:0;"
         offset="1"
         id="stop11526" />
    </linearGradient>
    <linearGradient
       inkscape:collect="always"
       xlink:href="#linearGradient11522"
       id="linearGradient22269"
       gradientUnits="userSpaceOnUse"
       gradientTransform="translate(10.747738,1.3671305)"
       x1="203.46295"
       y1="438.74857"
       x2="95.920723"
       y2="676.80927" />
    <linearGradient
       inkscape:collect="always"
       xlink:href="#linearGradient11522"
       id="linearGradient22271"
       gradientUnits="userSpaceOnUse"
       gradientTransform="translate(-61.09802,-4.7485508)"
       x1="293.14386"
       y1="455.16614"
       x2="187.72606"
       y2="601.42151" />
    <inkscape:perspective
       id="perspective3547"
       inkscape:persp3d-origin="0.5 : 0.33333333 : 1"
       inkscape:vp_z="1 : 0.5 : 1"
       inkscape:vp_y="0 : 1000 : 0"
       inkscape:vp_x="0 : 0.5 : 1"
       sodipodi:type="inkscape:persp3d" />
    <linearGradient
       inkscape:collect="always"
       xlink:href="#linearGradient3977"
       id="linearGradient4464"
       gradientUnits="userSpaceOnUse"
       gradientTransform="matrix(-0.6769034,0.622784,-0.6459267,-0.7020571,1207.2499,-108.61788)"
       x1="375.01926"
       y1="812.81995"
       x2="394.8259"
       y2="741.47198" />
    <linearGradient
       inkscape:collect="always"
       id="linearGradient3977">
      <stop
         style="stop-color:#3a2d49;stop-opacity:1;"
         offset="0"
         id="stop3979" />
      <stop
         style="stop-color:#3a2d49;stop-opacity:0;"
         offset="1"
         id="stop3981" />
    </linearGradient>
  </defs>
  <sodipodi:namedview
     id="base"
     pagecolor="#ffffff"
     bordercolor="#666666"
     borderopacity="1.0"
     inkscape:pageopacity="0.0"
     inkscape:pageshadow="2"
     inkscape:zoom="0.35"
     inkscape:cx="375"
     inkscape:cy="612.79373"
     inkscape:document-units="px"
     inkscape:current-layer="layer1"
     showgrid="false"
     inkscape:window-width="758"
     inkscape:window-height="648"
     inkscape:window-x="1"
     inkscape:window-y="51"
     inkscape:window-maximized="0" />
  <metadata
     id="metadata3448">
    <rdf:RDF>
      <cc:Work
         rdf:about="">
        <dc:format>image/svg+xml</dc:format>
        <dc:type
           rdf:resource="http://purl.org/dc/dcmitype/StillImage" />
        <dc:title></dc:title>
      </cc:Work>
    </rdf:RDF>
  </metadata>
  <g
     inkscape:label="Livello 1"
     inkscape:groupmode="layer"
     id="layer1">
    <g
       id="g23037"
       transform="matrix(7.495675,-2.4224101,4.0696857,4.4616711,-2418.6227,-787.85741)"
       inkscape:transform-center-x="264.01358"
       inkscape:transform-center-y="-189.09324">
      <g
         id="g22987">
        <g
           id="g22938"
           transform="translate(-28.216701,203.16025)">
          <g
             id="g22890">
            <g
               id="g7960"
               transform="matrix(0.3892869,0.1258553,0.1375769,-0.4255432,264.97725,-94.75861)">
              <g
                 inkscape:transform-center-x="29.919035"
                 transform="matrix(-0.931901,0.3627126,-0.3627126,-0.931901,931.8659,36.432816)"
                 id="g6760">
                <g
                   id="g6764" />
              </g>
              <g
                 id="g4451"
                 transform="matrix(2.1954467,0,0,2.1954467,-976.16539,200.6029)">
                <path
                   style="fill:#829a6b;fill-opacity:1;fill-rule:evenodd;stroke:none"
                   d="m 488.89865,-320.13685 c 0.93856,-1.45594 -2.35525,-12.08254 -2.66629,-13.36448 -0.31104,-1.28195 -0.0454,-0.24006 -0.0903,-0.33168 -0.0449,-0.0916 0.28377,0.37617 -0.20269,-0.2687 -0.48646,-0.64487 -1.82993,-3.86209 -3.04039,-4.03042 -1.21047,-0.16833 -2.30695,0.70623 -2.47035,1.8708 -0.1634,1.16457 2.04856,2.04273 2.8459,3.79188 0.79734,1.74916 0.28648,6.98725 1.69557,7.89433 1.40909,0.90707 2.98998,5.8942 3.92854,4.43827 z"
                   id="path3995"
                   sodipodi:nodetypes="czzzzzzzz" />
                <path
                   style="fill:#829a6b;fill-opacity:1;fill-rule:evenodd;stroke:none"
                   d="m 478.71311,-318.17417 c 1.52125,-1.71348 -1.2062,-15.17457 -3.07608,-16.65324 -1.86988,-1.47868 -1.59942,-1.51777 -3.07809,0.35211 -1.47868,1.86987 2.04097,12.88532 3.07861,11.30679 1.03764,-1.57854 1.55431,6.70782 3.07556,4.99434 z"
                   id="path3997"
                   sodipodi:nodetypes="czzzz" />
                <path
                   style="fill:#829a6b;fill-opacity:1;fill-rule:evenodd;stroke:none"
                   d="m 478.56845,-297.40853 0.41795,-12.74597 c 0,0 -4.38476,3.17881 -5.3613,4.69936 -0.97654,1.52055 0.36648,7.74012 1.88703,8.71666 1.52055,0.97654 3.05632,-0.67005 3.05632,-0.67005 z"
                   id="path3999"
                   sodipodi:nodetypes="cczzc" />
                <path
                   style="fill:#552f53;fill-opacity:1;fill-rule:evenodd;stroke:#000039;stroke-width:3.20813346;stroke-linecap:butt;stroke-linejoin:miter;stroke-miterlimit:4;stroke-opacity:1;stroke-dasharray:none"
                   d="m 479.26482,-300.46663 c 0.3482,-2.46519 -4.71672,-5.86947 -4.96948,-8.17156 -0.25276,-2.3021 0.206,-4.25392 1.89094,-5.56289 1.68494,-1.30896 6.33503,0.63028 8.32352,-0.64898 1.98849,-1.27925 2.98097,-4.52111 3.58875,-6.48775 0.60777,-1.96665 -0.48378,-4.10982 0.59339,-6.28064 1.07717,-2.17082 6.7707,-4.34888 7.24668,-6.6673 0.47599,-2.31842 -1.64776,-0.54739 -2.42956,-5.41093 -0.7818,-4.86354 2.95299,-16.31119 2.7738,-26.76514 -0.17919,-10.45395 -3.22134,-31.97907 -5.86762,-42.39054 -2.64628,-10.41146 -5.50974,-20.12373 -10.16012,-26.97186 -4.65039,-6.84812 -12.61022,-15.0782 -19.50487,-17.73704 -6.89466,-2.65884 -16.63239,-2.86082 -22.90009,0.042 -6.26769,2.90284 -12.54381,10.58241 -15.00398,17.62753 -2.46017,7.04511 -0.5566,19.48802 0.88413,26.5856 1.44073,7.09759 4.80272,13.70912 7.78573,20.2358 2.983,6.52668 9.11815,14.32835 12.31336,23.0792 3.19521,8.75084 5.09576,29.38914 7.49625,35.15743 2.4005,5.7683 2.55352,3.36615 3.11973,4.77594 0.5662,1.4098 -0.49711,2.27072 0.81453,4.3481 1.31163,2.07739 8.32461,4.58801 9.66266,7.03956 1.33806,2.45154 1.36673,5.03798 0.38667,6.65329 -0.98006,1.61531 -4.83584,0.19905 -5.41092,2.42957 -0.57508,2.23052 3.39372,5.99452 5.65965,7.53658 2.26592,1.54207 6.21546,2.90727 8.53065,2.34638 2.3152,-0.56089 4.82801,-2.29717 5.1762,-4.76236 z"
                   id="path6687"
                   sodipodi:nodetypes="czzzzzzzzzzzzzzzzzzzzzzzzz" />
                <path
                   style="fill:url(#linearGradient4464);fill-opacity:1;fill-rule:evenodd;stroke:none"
                   d="m 479.12323,-308.7517 c 0.28374,-2.30722 -4.51238,-5.58781 -4.78804,-7.75222 -0.27566,-2.16442 0.12025,-3.98805 1.67419,-5.18759 1.55395,-1.19954 5.93705,0.69929 7.77547,-0.4672 1.83841,-1.16649 2.71164,-4.1915 3.24673,-6.0265 0.53507,-1.835 -0.52257,-3.86458 0.44813,-5.88317 0.9707,-2.01859 6.25982,-3.96536 6.66561,-6.13268 0.40579,-2.16733 -1.55078,-0.54169 -2.36497,-5.11859 -0.81419,-4.5769 2.48467,-15.25492 2.13901,-25.06717 -0.34568,-9.81225 -3.55815,-30.06162 -6.21102,-39.87603 -2.65287,-9.81442 -5.497,-18.97645 -9.96399,-25.48141 -4.46698,-6.50498 -12.05344,-14.36302 -18.54855,-16.97531 -6.49513,-2.61227 -15.60806,-2.96764 -21.42195,-0.35059 -5.81389,2.61706 -11.5543,9.71611 -13.73576,16.28482 -2.18147,6.5687 -0.1888,18.27662 1.27986,24.96099 1.46866,6.68439 4.72636,12.94542 7.62806,19.12037 2.90171,6.17495 8.77392,13.59994 11.91202,21.8655 3.13809,8.26555 5.26752,27.66335 7.61138,33.11677 2.34386,5.45342 2.4461,3.20203 2.99979,4.53452 0.55369,1.33249 -0.42636,2.1222 0.83603,4.0938 1.26239,1.9716 7.86567,4.44682 9.15916,6.76996 1.29348,2.32314 1.36436,4.75054 0.47503,6.24954 -0.88932,1.499 -4.52046,0.10441 -5.02045,2.18758 -0.49999,2.08315 3.27686,5.6826 5.42286,7.16814 2.146,1.48555 5.86397,2.83382 8.02025,2.34695 2.15628,-0.48686 4.4774,-2.07326 4.76115,-4.38048 z"
                   id="path6689"
                   sodipodi:nodetypes="czzzzzzzzzzzzzzzzzzzzzzzzz" />
                <path
                   style="fill:#774666;fill-opacity:1;fill-rule:nonzero;stroke:none"
                   d="m 484.93143,-412.05453 c -8.64186,-34.13021 -26.67647,-36.25721 -41.78873,-39.51045 20.93727,21.4138 32.49906,24.66587 45.39369,101.20737 2.4959,-36.6358 1.23464,-41.24541 -3.60496,-61.69692 z"
                   id="path6691"
                   sodipodi:nodetypes="cccc" />
                <path
                   style="fill:#93b279;fill-opacity:1;fill-rule:evenodd;stroke:none"
                   d="m 494.24081,-333.36087 c 0.47598,-2.31842 0.91343,-4.67608 -2.42957,-5.41093 -3.343,-0.73484 -8.67073,11.40353 -12.74038,11.08458 -4.06964,-0.31896 -4.37648,-5.75904 -6.63971,-7.90925 -2.26323,-2.15022 -5.76654,-6.00003 -8.36512,-6.32181 -2.59857,-0.32177 -5.70875,0.84718 -6.41857,2.71947 -0.70982,1.87229 4.50029,4.20837 2.74706,5.75601 -1.75324,1.54765 -5.83872,-5.37716 -7.75773,-4.96908 -1.91901,0.40809 -1.91775,1.01325 -2.12566,3.23009 -0.20791,2.21683 3.18478,8.50796 4.22415,10.13169 1.03938,1.62373 1.03637,0.74253 1.26997,1.38033 0.2336,0.6378 0.12943,0.61008 1.21477,2.70546 1.08535,2.09537 8.34333,4.33686 9.66267,7.03955 1.31934,2.70269 0.6452,5.40886 -0.62097,6.9432 -1.26616,1.53434 -5.28219,-0.78064 -6.04591,1.73941 -0.76372,2.52004 4.79003,7.45584 7.27469,8.59941 2.48466,1.14357 5.31005,0.51807 6.9708,-0.0416 1.66075,-0.55966 3.35343,-0.51784 3.76829,-2.82983 0.41485,-2.31199 -5.60304,-6.54529 -5.92196,-9.20681 -0.31893,-2.66152 0.17224,-5.11813 2.26361,-6.54294 2.09137,-1.42481 7.32829,2.44474 9.93856,0.41385 2.61027,-2.03089 0.85736,-8.98134 2.48432,-11.84351 1.62697,-2.86217 6.7707,-4.34888 7.24669,-6.6673 z"
                   id="path6693"
                   sodipodi:nodetypes="czzzzzzzzzzzzzzzzzzzzzz" />
                <path
                   style="fill:#829a6b;fill-opacity:1;fill-rule:evenodd;stroke:none"
                   d="m 483.14239,-316.46466 c 1.71337,-1.23072 0.0963,-6.60213 0.98775,-8.8496 0.89144,-2.24747 4.55744,-4.24001 4.33172,-5.76889 -0.22571,-1.52888 2.09645,-2.27259 0.50603,-2.03585 -1.59041,0.23674 -6.82489,5.36567 -7.56257,6.32007 -0.73768,0.9544 -0.2099,0.20544 -0.25665,0.32106 -0.0468,0.11562 0.26549,-0.96373 -0.0395,0.41856 -0.30504,1.38229 -0.4133,7.12539 0.62177,8.98286 1.03506,1.85746 -0.30188,1.84251 1.4115,0.61179 z"
                   id="path6695"
                   sodipodi:nodetypes="czzzzzzzz" />
                <path
                   style="fill:#829a6b;fill-opacity:1;fill-rule:evenodd;stroke:none"
                   d="m 475.14921,-325.24451 c 0.16362,-1.72448 -7.64931,-9.64484 -8.51519,-10.64002 -0.86588,-0.99517 -0.15069,-0.19229 -0.23274,-0.25297 -0.0821,-0.0607 0.425,0.20348 -0.30358,-0.14533 -0.72858,-0.34882 -3.40141,-2.58744 -4.55363,-2.18008 -1.15222,0.40736 -1.7235,1.68829 -1.33288,2.79749 0.39062,1.10921 2.75862,0.87142 4.27121,2.05774 1.5126,1.18632 3.46855,6.0723 5.13697,6.22952 1.66841,0.15721 5.36622,3.85814 5.52984,2.13365 z"
                   id="path6697"
                   sodipodi:nodetypes="czzzzzzzz" />
                <path
                   style="fill:#829a6b;fill-opacity:1;fill-rule:evenodd;stroke:none"
                   d="m 467.00816,-318.81639 c 0.56253,-2.22121 -8.05141,-12.91888 -10.3919,-13.37166 -2.34049,-0.45278 -2.11833,-0.6119 -2.57112,1.72859 -0.45278,2.34049 7.73955,10.50222 7.93475,8.62329 0.1952,-1.87893 4.46573,5.24098 5.02827,3.01978 z"
                   id="path6699"
                   sodipodi:nodetypes="czzzz" />
                <path
                   style="fill:#829a6b;fill-opacity:1;fill-rule:evenodd;stroke:none"
                   d="m 476.43204,-300.31172 -5.49212,-11.5096 c 0,0 -2.43103,4.83954 -2.59865,6.63887 -0.16762,1.79933 3.88591,6.70399 5.68525,6.87161 1.79933,0.16762 2.40552,-2.00088 2.40552,-2.00088 z"
                   id="path6701"
                   sodipodi:nodetypes="cczzc" />
              </g>
            </g>
          </g>
        </g>
      </g>
    </g>
  </g>
</svg>
