<?xml version="1.0" encoding="UTF-8" standalone="no"?>
<svg
   xmlns:dc="http://purl.org/dc/elements/1.1/"
   xmlns:cc="http://creativecommons.org/ns#"
   xmlns:rdf="http://www.w3.org/1999/02/22-rdf-syntax-ns#"
   xmlns:svg="http://www.w3.org/2000/svg"
   xmlns="http://www.w3.org/2000/svg"
   xmlns:xlink="http://www.w3.org/1999/xlink"
   xmlns:sodipodi="http://sodipodi.sourceforge.net/DTD/sodipodi-0.dtd"
   xmlns:inkscape="http://www.inkscape.org/namespaces/inkscape"
   width="500pt"
   height="600pt"
   id="svg2"
   sodipodi:version="0.32"
   inkscape:version="0.47 r22583"
   sodipodi:docname="NewTux_with_fruit.svg"
   inkscape:output_extension="org.inkscape.output.svg.inkscape"
   version="1.1">
  <metadata
     id="metadata94">
    <rdf:RDF>
      <cc:Work
         rdf:about="">
        <dc:format>image/svg+xml</dc:format>
        <dc:type
           rdf:resource="http://purl.org/dc/dcmitype/StillImage" />
        <dc:title></dc:title>
      </cc:Work>
    </rdf:RDF>
  </metadata>
  <sodipodi:namedview
     inkscape:window-height="820"
     inkscape:window-width="1387"
     inkscape:pageshadow="2"
     inkscape:pageopacity="0.0"
     guidetolerance="10.0"
     gridtolerance="10.0"
     objecttolerance="10.0"
     borderopacity="1.0"
     bordercolor="#666666"
     pagecolor="#ffffff"
     id="base"
     showgrid="false"
     inkscape:zoom="0.65866667"
     inkscape:cx="118.92713"
     inkscape:cy="375"
     inkscape:window-x="0"
     inkscape:window-y="24"
     inkscape:current-layer="svg2"
     inkscape:window-maximized="0" />
  <defs
     id="defs4">
    <inkscape:perspective
       sodipodi:type="inkscape:persp3d"
       inkscape:vp_x="0 : 375 : 1"
       inkscape:vp_y="0 : 1000 : 0"
       inkscape:vp_z="625 : 375 : 1"
       inkscape:persp3d-origin="312.5 : 250 : 1"
       id="perspective96" />
    <linearGradient
       id="linearGradient172">
      <stop
         style="stop-color:#3f2600;stop-opacity:0.6;"
         offset="0"
         id="stop173" />
      <stop
         style="stop-color:#3f2600;stop-opacity:0;"
         offset="1"
         id="stop174" />
    </linearGradient>
    <linearGradient
       id="linearGradient167">
      <stop
         style="stop-color:#ffffff;stop-opacity:0.65;"
         offset="0"
         id="stop168" />
      <stop
         style="stop-color:#ffffff;stop-opacity:0;"
         offset="1"
         id="stop169" />
    </linearGradient>
    <linearGradient
       id="linearGradient162">
      <stop
         style="stop-color:#ffa63f;stop-opacity:1;"
         offset="0"
         id="stop163" />
      <stop
         style="stop-color:#ffff00;stop-opacity:1;"
         offset="1"
         id="stop164" />
    </linearGradient>
    <linearGradient
       id="linearGradient153">
      <stop
         style="stop-color:#ffeed7;stop-opacity:1;"
         offset="0"
         id="stop154" />
      <stop
         style="stop-color:#bdbfc2;stop-opacity:1;"
         offset="1"
         id="stop155" />
    </linearGradient>
    <linearGradient
       id="linearGradient138">
      <stop
         style="stop-color:#ffffff;stop-opacity:0.8;"
         offset="0"
         id="stop139" />
      <stop
         style="stop-color:#ffffff;stop-opacity:0;"
         offset="1"
         id="stop140" />
    </linearGradient>
    <linearGradient
       xlink:href="#linearGradient138"
       id="linearGradient141"
       x1="0.47424799"
       y1="0.020191999"
       x2="0.417539"
       y2="0.90125799"
       gradientUnits="objectBoundingBox" />
    <linearGradient
       xlink:href="#linearGradient167"
       id="linearGradient142"
       x1="0.55880702"
       y1="0.031192999"
       x2="0.553922"
       y2="0.94531101"
       gradientUnits="objectBoundingBox" />
    <linearGradient
       xlink:href="#linearGradient167"
       id="linearGradient143"
       x1="0.46557701"
       y1="0.028819799"
       x2="0.41365999"
       y2="0.93366498"
       gradientUnits="objectBoundingBox" />
    <linearGradient
       xlink:href="#linearGradient167"
       id="linearGradient144"
       x1="0.70346397"
       y1="0.059404202"
       x2="0.64553201"
       y2="0.94063401"
       gradientUnits="objectBoundingBox" />
    <linearGradient
       xlink:href="#linearGradient167"
       id="linearGradient145"
       x1="0.46741399"
       y1="-0.036155298"
       x2="0.86741799"
       y2="0.75857902"
       gradientUnits="objectBoundingBox" />
    <linearGradient
       xlink:href="#linearGradient167"
       id="linearGradient146"
       x1="0.57152498"
       y1="0.023441499"
       x2="0.57143003"
       y2="0.71875"
       gradientUnits="objectBoundingBox" />
    <linearGradient
       xlink:href="#linearGradient167"
       id="linearGradient147"
       x1="0.5"
       y1="0.0234362"
       x2="0.5"
       y2="0.8125"
       gradientUnits="objectBoundingBox" />
    <linearGradient
       xlink:href="#linearGradient167"
       id="linearGradient148"
       x1="0.50799799"
       y1="0.37435901"
       x2="0.51599997"
       y2="0.92820501"
       gradientUnits="objectBoundingBox" />
    <linearGradient
       xlink:href="#linearGradient138"
       id="linearGradient149"
       x1="0.5"
       y1="0.131707"
       x2="0.50400001"
       y2="0.94634098"
       gradientUnits="objectBoundingBox" />
    <linearGradient
       xlink:href="#linearGradient167"
       id="linearGradient150"
       x1="-0.30509499"
       y1="0.099496603"
       x2="0.156323"
       y2="0.94191301"
       gradientUnits="objectBoundingBox"
       gradientTransform="matrix(-0.928523,0.283938,0.435332,0.943857,-1.91327e-7,5.49908e-8)" />
    <linearGradient
       xlink:href="#linearGradient167"
       id="linearGradient151"
       x1="0.433979"
       y1="0.022184599"
       x2="0.487055"
       y2="1.02569"
       gradientUnits="objectBoundingBox" />
    <linearGradient
       xlink:href="#linearGradient153"
       id="linearGradient152"
       x1="0.5"
       y1="0.89842999"
       x2="0.5"
       y2="0.40625"
       gradientUnits="objectBoundingBox"
       spreadMethod="reflect" />
    <linearGradient
       xlink:href="#linearGradient153"
       id="linearGradient156"
       x1="0.43568701"
       y1="0.98882002"
       x2="0.453989"
       y2="0.23093501"
       gradientUnits="objectBoundingBox" />
    <linearGradient
       xlink:href="#linearGradient153"
       id="linearGradient157"
       x1="0.49180499"
       y1="1.15284"
       x2="0.49482101"
       y2="0.41252401"
       gradientUnits="objectBoundingBox" />
    <linearGradient
       xlink:href="#linearGradient153"
       id="linearGradient158"
       x1="0.51730198"
       y1="0.85418499"
       x2="0.49843901"
       y2="0.136172"
       gradientUnits="objectBoundingBox" />
    <linearGradient
       xlink:href="#linearGradient153"
       id="linearGradient159"
       x1="0.46201"
       y1="0.87917101"
       x2="0.49215299"
       y2="0.096282303"
       gradientUnits="objectBoundingBox" />
    <linearGradient
       xlink:href="#linearGradient162"
       id="linearGradient161"
       x1="0.50086302"
       y1="0.34872901"
       x2="0.41209599"
       y2="0.98558098"
       gradientUnits="objectBoundingBox" />
    <linearGradient
       xlink:href="#linearGradient162"
       id="linearGradient165"
       x1="0.60399801"
       y1="0.51020199"
       x2="0.46399999"
       y2="0.98367399"
       gradientUnits="objectBoundingBox" />
    <linearGradient
       xlink:href="#linearGradient162"
       id="linearGradient166"
       x1="0.50000501"
       y1="0.191616"
       x2="0.50800002"
       y2="0.97005898"
       gradientUnits="objectBoundingBox" />
    <radialGradient
       xlink:href="#linearGradient172"
       id="radialGradient171"
       cx="0.5"
       cy="0.5"
       fx="0.5"
       fy="0.5"
       r="0.5"
       gradientUnits="objectBoundingBox" />
    <radialGradient
       xlink:href="#linearGradient172"
       id="radialGradient176" />
    <linearGradient
       xlink:href="#linearGradient153"
       id="linearGradient178"
       x1="0.94027299"
       y1="1.2934099"
       x2="0.19452"
       y2="-0.675295"
       gradientUnits="objectBoundingBox" />
    <radialGradient
       xlink:href="#linearGradient172"
       id="radialGradient1399"
       gradientTransform="scale(1.045233,0.956725)"
       cx="446.77762"
       cy="1219.4125"
       fx="446.77762"
       fy="1219.4125"
       r="195.07191"
       gradientUnits="userSpaceOnUse" />
    <linearGradient
       xlink:href="#linearGradient153"
       id="linearGradient1401"
       gradientUnits="userSpaceOnUse"
       x1="400.57785"
       y1="369.53015"
       x2="400.84448"
       y2="304.07886"
       gradientTransform="scale(0.575262,1.738339)" />
    <linearGradient
       xlink:href="#linearGradient138"
       id="linearGradient1403"
       gradientUnits="userSpaceOnUse"
       x1="303.01761"
       y1="237.93179"
       x2="297.0856"
       y2="330.09561"
       gradientTransform="scale(1.116071,0.896001)" />
    <linearGradient
       xlink:href="#linearGradient153"
       id="linearGradient1405"
       gradientUnits="userSpaceOnUse"
       gradientTransform="scale(0.816497,1.224744)"
       x1="378.93771"
       y1="278.60202"
       x2="380.27319"
       y2="243.91606" />
    <linearGradient
       xlink:href="#linearGradient153"
       id="linearGradient1407"
       gradientUnits="userSpaceOnUse"
       x1="381.38742"
       y1="277.495"
       x2="380.5517"
       y2="245.68338"
       gradientTransform="scale(0.816497,1.224744)" />
    <linearGradient
       xlink:href="#linearGradient167"
       id="linearGradient1409"
       gradientUnits="userSpaceOnUse"
       gradientTransform="scale(0.816497,1.224744)"
       x1="379.09573"
       y1="240.92712"
       x2="376.79556"
       y2="281.01636" />
    <linearGradient
       xlink:href="#linearGradient167"
       id="linearGradient1411"
       gradientUnits="userSpaceOnUse"
       x1="389.63535"
       y1="242.28218"
       x2="387.06866"
       y2="281.32513"
       gradientTransform="scale(0.816497,1.224744)" />
    <linearGradient
       xlink:href="#linearGradient153"
       id="linearGradient1413"
       gradientUnits="userSpaceOnUse"
       spreadMethod="reflect"
       x1="437.57941"
       y1="528.87177"
       x2="437.57941"
       y2="394.10361"
       gradientTransform="scale(0.812855,1.230232)" />
    <linearGradient
       xlink:href="#linearGradient153"
       id="linearGradient1415"
       gradientUnits="userSpaceOnUse"
       x1="375.17325"
       y1="419.78485"
       x2="377.48541"
       y2="324.03815"
       gradientTransform="scale(0.649784,1.538974)" />
    <linearGradient
       xlink:href="#linearGradient138"
       id="linearGradient1417"
       gradientUnits="userSpaceOnUse"
       x1="320.75104"
       y1="498.17776"
       x2="321.32224"
       y2="614.50439"
       gradientTransform="scale(1.074798,0.930408)" />
    <linearGradient
       xlink:href="#linearGradient167"
       id="linearGradient1419"
       gradientUnits="userSpaceOnUse"
       x1="322.48257"
       y1="435.26761"
       x2="323.2514"
       y2="488.48251"
       gradientTransform="scale(1.077001,0.928504)" />
    <linearGradient
       xlink:href="#linearGradient167"
       id="linearGradient1421"
       gradientUnits="userSpaceOnUse"
       x1="411.2215"
       y1="242.94365"
       x2="411.2215"
       y2="331.44858"
       gradientTransform="scale(0.571707,1.749147)" />
    <linearGradient
       xlink:href="#linearGradient167"
       id="linearGradient1423"
       gradientUnits="userSpaceOnUse"
       x1="867.34546"
       y1="234.73897"
       x2="867.33453"
       y2="314.83911"
       gradientTransform="scale(0.572667,1.746214)" />
    <linearGradient
       xlink:href="#linearGradient162"
       id="linearGradient1425"
       gradientUnits="userSpaceOnUse"
       x1="236.25362"
       y1="657.11133"
       x2="212.5099"
       y2="737.41229"
       gradientTransform="scale(1.011514,0.988617)" />
    <linearGradient
       xlink:href="#linearGradient153"
       id="linearGradient1427"
       gradientUnits="userSpaceOnUse"
       x1="381.56607"
       y1="655.73102"
       x2="279.64313"
       y2="386.66583"
       gradientTransform="scale(1.065499,0.938527)" />
    <linearGradient
       xlink:href="#linearGradient162"
       id="linearGradient1429"
       gradientUnits="userSpaceOnUse"
       x1="218.11714"
       y1="630.30475"
       x2="203.12654"
       y2="737.8537"
       gradientTransform="scale(1.009851,0.990245)" />
    <linearGradient
       xlink:href="#linearGradient167"
       id="linearGradient1431"
       gradientUnits="userSpaceOnUse"
       gradientTransform="scale(1.007724,0.992335)"
       x1="117.88966"
       y1="587.23602"
       x2="182.24524"
       y2="704.73077" />
    <linearGradient
       xlink:href="#linearGradient167"
       id="linearGradient1433"
       gradientUnits="userSpaceOnUse"
       x1="223.10072"
       y1="570.41809"
       x2="230.53499"
       y2="710.97723"
       gradientTransform="scale(0.999504,1.000496)" />
    <linearGradient
       xlink:href="#linearGradient167"
       id="linearGradient1435"
       gradientUnits="userSpaceOnUse"
       x1="316.93988"
       y1="474.01779"
       x2="371.60889"
       y2="582.63507"
       gradientTransform="scale(1.065499,0.938527)" />
    <linearGradient
       xlink:href="#linearGradient162"
       id="linearGradient1437"
       gradientUnits="userSpaceOnUse"
       x1="284.68652"
       y1="410.46326"
       x2="285.45923"
       y2="485.69934"
       gradientTransform="scale(1.218684,0.820557)" />
    <linearGradient
       xlink:href="#linearGradient167"
       id="linearGradient1439"
       gradientUnits="userSpaceOnUse"
       x1="288.82358"
       y1="398.85422"
       x2="288.37628"
       y2="482.55939"
       gradientTransform="scale(1.221941,0.81837)" />
    <inkscape:perspective
       sodipodi:type="inkscape:persp3d"
       inkscape:vp_x="0 : 526.18109 : 1"
       inkscape:vp_y="0 : 1000 : 0"
       inkscape:vp_z="744.09448 : 526.18109 : 1"
       inkscape:persp3d-origin="372.04724 : 350.78739 : 1"
       id="perspective2527" />
    <inkscape:perspective
       sodipodi:type="inkscape:persp3d"
       inkscape:vp_x="0 : 526.18109 : 1"
       inkscape:vp_y="0 : 1000 : 0"
       inkscape:vp_z="744.09448 : 526.18109 : 1"
       inkscape:persp3d-origin="372.04724 : 350.78739 : 1"
       id="perspective2485" />
    <inkscape:perspective
       sodipodi:type="inkscape:persp3d"
       inkscape:vp_x="0 : 526.18109 : 1"
       inkscape:vp_y="0 : 1000 : 0"
       inkscape:vp_z="744.09448 : 526.18109 : 1"
       inkscape:persp3d-origin="372.04724 : 350.78739 : 1"
       id="perspective2443" />
    <inkscape:perspective
       sodipodi:type="inkscape:persp3d"
       inkscape:vp_x="0 : 526.18109 : 1"
       inkscape:vp_y="0 : 1000 : 0"
       inkscape:vp_z="744.09448 : 526.18109 : 1"
       inkscape:persp3d-origin="372.04724 : 350.78739 : 1"
       id="perspective2547" />
    <inkscape:perspective
       sodipodi:type="inkscape:persp3d"
       inkscape:vp_x="0 : 526.18109 : 1"
       inkscape:vp_y="0 : 1000 : 0"
       inkscape:vp_z="744.09448 : 526.18109 : 1"
       inkscape:persp3d-origin="372.04724 : 350.78739 : 1"
       id="perspective2505" />
    <inkscape:perspective
       sodipodi:type="inkscape:persp3d"
       inkscape:vp_x="0 : 526.18109 : 1"
       inkscape:vp_y="0 : 1000 : 0"
       inkscape:vp_z="744.09448 : 526.18109 : 1"
       inkscape:persp3d-origin="372.04724 : 350.78739 : 1"
       id="perspective2463" />
    <inkscape:perspective
       id="perspective9"
       inkscape:persp3d-origin="372.04724 : 350.78739 : 1"
       inkscape:vp_z="744.09448 : 526.18109 : 1"
       inkscape:vp_y="0 : 1000 : 0"
       inkscape:vp_x="0 : 526.18109 : 1"
       sodipodi:type="inkscape:persp3d" />
    <inkscape:perspective
       id="perspective2835"
       inkscape:persp3d-origin="0.5 : 0.33333333 : 1"
       inkscape:vp_z="1 : 0.5 : 1"
       inkscape:vp_y="0 : 1000 : 0"
       inkscape:vp_x="0 : 0.5 : 1"
       sodipodi:type="inkscape:persp3d" />
    <radialGradient
       gradientUnits="userSpaceOnUse"
       r="66.631051"
       fy="260.58777"
       fx="364.46712"
       cy="260.58777"
       cx="364.46712"
       gradientTransform="scale(0.8196665,1.2200084)"
       xlink:href="#linearGradient829"
       id="radialGradient832" />
    <linearGradient
       id="linearGradient829">
      <stop
         style="stop-color:#ffffff;stop-opacity:0.52499998;"
         offset="0.0000000"
         id="stop830" />
      <stop
         style="stop-color:#ffffff;stop-opacity:0.0000000;"
         offset="1.0000000"
         id="stop831" />
    </linearGradient>
    <radialGradient
       xlink:href="#linearGradient829"
       id="radialGradient2843" />
    <linearGradient
       id="linearGradient2845">
      <stop
         style="stop-color:#ffffff;stop-opacity:0.52499998;"
         offset="0.0000000"
         id="stop2847" />
      <stop
         style="stop-color:#ffffff;stop-opacity:0.0000000;"
         offset="1.0000000"
         id="stop2849" />
    </linearGradient>
    <inkscape:perspective
       id="perspective2845"
       inkscape:persp3d-origin="0.5 : 0.33333333 : 1"
       inkscape:vp_z="1 : 0.5 : 1"
       inkscape:vp_y="0 : 1000 : 0"
       inkscape:vp_x="0 : 0.5 : 1"
       sodipodi:type="inkscape:persp3d" />
    <inkscape:perspective
       id="perspective2873"
       inkscape:persp3d-origin="0.5 : 0.33333333 : 1"
       inkscape:vp_z="1 : 0.5 : 1"
       inkscape:vp_y="0 : 1000 : 0"
       inkscape:vp_x="0 : 0.5 : 1"
       sodipodi:type="inkscape:persp3d" />
  </defs>
  <g
     id="g1369"
     transform="matrix(0.58480899,0,0,0.59641121,-165.84998,-12.637167)">
    <path
       transform="matrix(1.4177,0,0,0.414745,-38.7944,222.194)"
       d="m 670.88202,1166.6423 c 0,103.073 -91.28713,186.6302 -203.89551,186.6302 -112.60838,0 -203.89551,-83.5572 -203.89551,-186.6302 0,-103.073 91.28713,-186.63016 203.89551,-186.63016 112.60838,0 203.89551,83.55716 203.89551,186.63016 l 0,0 z"
       id="path175"
       style="fill:url(#radialGradient1399);stroke:none" />
    <path
       transform="matrix(1.25,0,0,1.25,185.454,-167.505)"
       id="path106"
       d="m 223.627,632.24 c -22.388,-32.223 -26.754,-136.984 25.487,-201.43 25.886,-30.918 32.49,-52.465 34.531,-81.393 1.389,-32.979 -23.325,-131.442 69.883,-138.944 94.406,-7.532 89.336,85.66 88.793,134.975 -0.451,41.64 30.574,65.241 51.796,97.695 39.279,59.63 35.957,162.3 -7.399,217.872 -54.917,69.568 -101.953,39.398 -133.19,41.93 -58.493,3.202 -60.427,34.391 -129.901,-70.705 z"
       style="fill:#000000;stroke:none" />
    <path
       transform="matrix(-1.67739,-0.0224516,-0.0211236,1.4709,1173.58,-293.017)"
       id="path113"
       d="m 246.571,470.864 c -12.239,12.496 -44.396,69.092 4.869,105.36 17.369,12.633 -16.377,59.495 -32.005,36.308 -27.57,-41.618 -8.831,-106.941 8.315,-130.188 11.652,-16.487 29.23,-22.676 18.821,-11.48 z"
       style="fill:url(#linearGradient1401);stroke:none" />
    <path
       transform="matrix(-1.67755,0,0,1.52374,1174.62,-318.082)"
       id="path111"
       d="m 256.513,459.837 c -19.915,17.717 -56.176,80.091 -3.288,120.606 17.37,12.632 -15.393,52.463 -33.79,32.089 -63.963,-70.82 1.669,-152.254 24.262,-180.25 20.192,-24.347 38.078,5.752 12.816,27.555 z"
       style="fill:#000000;stroke:#000000;stroke-width:0.97729802" />
    <path
       transform="matrix(1.26626,-0.0713667,-0.0459795,1.19574,202.143,-125.761)"
       d="m 399.56879,258.15753 c 0,25.88173 -26.13459,46.86302 -58.37323,46.86302 -32.23864,0 -58.37323,-20.98129 -58.37323,-46.86302 0,-25.88173 26.13459,-46.86302 58.37323,-46.86302 32.23864,0 58.37323,20.98129 58.37323,46.86302 l 0,0 z"
       id="path114"
       style="fill:url(#linearGradient1403);stroke:none" />
    <path
       transform="matrix(1.30445,-0.0755326,0.0771251,1.34257,144.757,-177.617)"
       d="m 328.86324,320.64151 c 0,14.98415 -8.09804,27.1312 -18.08748,27.1312 -9.98944,0 -18.08748,-12.14705 -18.08748,-27.1312 0,-14.98415 8.09804,-27.1312 18.08748,-27.1312 9.98944,0 18.08748,12.14705 18.08748,27.1312 z"
       id="path115"
       style="fill:url(#linearGradient1405);stroke:none" />
    <path
       transform="matrix(-1.81082,0.0495107,0.0317324,1.55333,1207.46,-284.777)"
       d="m 328.86324,320.64151 c 0,14.98415 -8.09804,27.1312 -18.08748,27.1312 -9.98944,0 -18.08748,-12.14705 -18.08748,-27.1312 0,-14.98415 8.09804,-27.1312 18.08748,-27.1312 9.98944,0 18.08748,12.14705 18.08748,27.1312 z"
       id="path116"
       style="fill:url(#linearGradient1407);stroke:none" />
    <path
       transform="matrix(-0.823196,-0.00176123,-0.0182321,0.852662,913.674,-37.9902)"
       d="m 328.86324,320.64151 c 0,14.98415 -8.09804,27.1312 -18.08748,27.1312 -9.98944,0 -18.08748,-12.14705 -18.08748,-27.1312 0,-14.98415 8.09804,-27.1312 18.08748,-27.1312 9.98944,0 18.08748,12.14705 18.08748,27.1312 z"
       id="path117"
       style="fill:#000000;stroke:none" />
    <path
       transform="matrix(0.59438,-0.0722959,0.0688176,0.705838,367.448,32.4186)"
       d="m 328.86324,320.64151 c 0,14.98415 -8.09804,27.1312 -18.08748,27.1312 -9.98944,0 -18.08748,-12.14705 -18.08748,-27.1312 0,-14.98415 8.09804,-27.1312 18.08748,-27.1312 9.98944,0 18.08748,12.14705 18.08748,27.1312 z"
       id="path118"
       style="fill:#000000;stroke:none" />
    <path
       transform="matrix(-0.480323,-0.036454,-0.0467935,0.475606,813.496,87.0124)"
       d="m 328.86324,320.64151 c 0,14.98415 -8.09804,27.1312 -18.08748,27.1312 -9.98944,0 -18.08748,-12.14705 -18.08748,-27.1312 0,-14.98415 8.09804,-27.1312 18.08748,-27.1312 9.98944,0 18.08748,12.14705 18.08748,27.1312 z"
       id="path121"
       style="fill:url(#linearGradient1409);stroke:none" />
    <path
       transform="matrix(0.35691,-0.0408211,0.0413232,0.398544,449.334,114.991)"
       d="m 328.86324,320.64151 c 0,14.98415 -8.09804,27.1312 -18.08748,27.1312 -9.98944,0 -18.08748,-12.14705 -18.08748,-27.1312 0,-14.98415 8.09804,-27.1312 18.08748,-27.1312 9.98944,0 18.08748,12.14705 18.08748,27.1312 z"
       id="path122"
       style="fill:url(#linearGradient1411);stroke:none" />
    <path
       transform="matrix(1.25,0,0,1.25,185.454,-168.23)"
       id="path128"
       d="m 258.702,495.425 c 12.836,-29.103 40.114,-80.226 40.695,-119.758 0,-31.442 94.179,-38.951 101.737,-7.558 7.558,31.393 26.741,78.483 38.95,101.156 12.208,22.672 47.809,94.695 9.884,157.546 -34.157,55.644 -137.725,99.666 -193.01,-7.557 -18.603,-37.207 -15.285,-83.315 1.744,-123.829 z"
       style="fill:url(#linearGradient1413);stroke:none" />
    <path
       transform="matrix(1.38936,-0.111074,0.102211,1.30214,108.413,-165.938)"
       id="path112"
       d="m 242.905,473.815 c -11.263,18.967 -35.5,69.309 12.137,102.047 51.311,34.82 46.473,97.062 -15.607,61.955 -56.777,-31.789 -22.845,-137.778 -4.51,-162.266 12.107,-17.214 29.897,-38.031 7.98,-1.736 z"
       style="fill:url(#linearGradient1415);stroke:none" />
    <path
       transform="matrix(1.25,0,0,1.25,185.454,-167.505)"
       id="path109"
       d="m 256.513,449.72 c -17.465,28.508 -59.377,95.813 -3.288,130.723 75.569,46.355 54.173,92.711 -14.799,50.974 -97.109,-58.264 -11.825,-175.616 27.131,-220.338 44.444,-50.2 8.554,9.087 -9.044,38.641 z"
       style="fill:#000000;stroke:#000000;stroke-width:1.25" />
    <path
       id="path125"
       d="m 421.481,504.727 c 0,32.412 -29.272,74.516 -79.528,74.138 -51.828,0.455 -73.949,-41.726 -73.949,-74.138 0,-32.412 34.379,-58.717 76.739,-58.717 42.359,0 76.738,26.305 76.738,58.717 z"
       style="font-size:12px;fill:url(#linearGradient1417);stroke:none"
       transform="matrix(1.30209,0,0,1.22525,170.042,-153.557)" />
    <path
       id="path127"
       d="m 398.227,412.292 c -0.612,38.572 -23.18,47.671 -51.74,47.671 -28.561,0 -49.292,-5.694 -51.741,-47.671 0,-26.314 23.18,-41.542 51.741,-41.542 28.56,0 51.74,15.228 51.74,41.542 z"
       style="font-size:12px;fill:url(#linearGradient1419);stroke:none"
       transform="matrix(1.1868,0,0,1.06708,210.623,-100.078)" />
    <path
       transform="matrix(1.25,0,0,1.25,185.454,-167.505)"
       id="path129"
       d="m 234.285,456.475 c 17.716,-26.996 55.015,-68.364 6.977,5.813 -38.951,61.043 -14.403,100.273 -1.744,111.039 36.527,32.562 34.966,54.349 6.395,37.206 -61.625,-36.626 -48.835,-98.248 -11.628,-154.058 z"
       style="fill:url(#linearGradient1421);stroke:none" />
    <path
       transform="matrix(1.25,0,0,1.25,185.454,-167.505)"
       id="path131"
       d="m 490.662,467.52 c -15.319,-31.701 -64.134,-111.902 2.326,-18.603 60.461,84.297 18.022,143.013 10.464,148.827 -7.557,5.813 -33.137,17.44 -25.579,-2.907 7.557,-20.347 45.234,-58.973 12.789,-127.317 z"
       style="fill:url(#linearGradient1423);stroke:none" />
    <path
       transform="matrix(1.25,0,0,1.25,185.454,-167.505)"
       id="path132"
       d="m 220.915,716.921 c -40.442,-21.416 -99.252,4.124 -77.902,-54.066 4.276,-13.238 -6.375,-33.008 0.581,-45.926 8.139,-15.698 25.58,-12.209 36.045,-22.674 10.318,-10.891 16.859,-29.649 36.044,-26.742 19.184,2.907 31.945,26.461 45.344,55.229 9.883,20.638 44.941,49.664 42.65,72.758 -2.696,35.5 -43.027,42.19 -82.762,21.421 z"
       style="fill:url(#linearGradient1425);stroke:#e68c3f;stroke-width:6.25" />
    <path
       id="path177"
       d="m 415.072,495.764 c -3.007,24.906 -35.813,76.627 -69.518,81.534 -34.26,5.336 -66.432,-34.06 -74.147,-71.114 -9.889,-41.206 22.587,-57.6 71.938,-56.627 53.301,1.654 74.121,13.891 71.727,46.207 z"
       style="font-size:12px;fill:url(#linearGradient1427);stroke:none"
       transform="matrix(0.598206,0.268584,-0.239623,0.617213,700.568,140.464)" />
    <path
       transform="matrix(-1.1685,0.423145,0.475283,1.16478,728.343,-213.821)"
       id="path133"
       d="m 220.274,718.402 c -41.327,-23.59 -99.894,5.605 -77.261,-55.547 4.736,-13.068 -6.596,-33.552 0.36,-46.47 8.139,-15.698 25.801,-11.665 36.266,-22.13 10.318,-10.891 18.827,-27.868 38.012,-24.961 19.184,2.907 29.977,24.68 43.376,53.448 9.883,20.638 43.415,48.971 41.124,72.065 -2.696,35.5 -42.724,45.471 -81.877,23.595 z"
       style="fill:url(#linearGradient1429);stroke:#e68c3f;stroke-width:6.25067997" />
    <path
       transform="matrix(-0.945096,0.343745,0.424076,0.956058,714.328,-64.342)"
       id="path134"
       d="m 216.482,675.68 c -86.531,-57.503 -47.308,-70.96 -36.843,-81.425 10.318,-10.891 18.827,-27.868 38.012,-24.961 19.184,2.907 29.977,24.68 43.376,53.448 9.883,20.638 43.06,48.918 41.124,72.065 -2.616,27.11 -48.19,5.487 -85.669,-19.127 z"
       style="fill:url(#linearGradient1431);stroke:none" />
    <path
       transform="matrix(1.00431,-0.052286,-0.0174,1.04575,244.191,-28.4653)"
       id="path135"
       d="m 216.506,677.071 c -86.531,-57.503 -46.797,-73.57 -33.946,-81.28 15.399,-9.942 15.158,-30.831 34.343,-27.924 19.184,2.907 30.725,26.107 44.124,54.875 9.883,20.638 43.06,48.918 41.124,72.065 -2.616,27.11 -48.166,6.878 -85.645,-17.736 z"
       style="fill:url(#linearGradient1433);stroke:none" />
    <path
       id="path136"
       d="m 415.072,495.764 c -3.007,24.906 -35.813,76.627 -69.518,81.534 -34.26,5.336 -66.432,-34.06 -74.147,-71.114 -9.889,-41.206 22.587,-57.6 71.938,-56.627 53.301,1.654 74.121,13.891 71.727,46.207 z"
       style="font-size:12px;fill:#000000;stroke:none"
       transform="matrix(0.515584,0.215259,-0.206526,0.49467,713.3,222.559)" />
    <path
       id="path137"
       d="m 415.072,495.764 c -3.007,24.906 -35.813,76.627 -69.518,81.534 -34.26,5.336 -66.432,-34.06 -74.147,-71.114 -9.889,-41.206 22.587,-57.6 71.938,-56.627 53.301,1.654 74.121,13.891 71.727,46.207 z"
       style="font-size:12px;fill:url(#linearGradient1435);stroke:none"
       transform="matrix(0.351231,0.149463,-0.128856,0.343469,724.522,318.291)" />
    <path
       transform="matrix(1.25,0,0,1.25,185.454,-167.505)"
       id="path119"
       d="m 309.954,338.729 c 7.147,-6.77 24.811,-27.066 57.961,-5.755 6.162,4.01 11.162,4.377 23.021,9.455 23.726,9.749 12.382,33.259 -12.744,41.108 -10.758,3.489 -20.536,16.556 -40.129,15.439 -16.734,-0.977 -21.119,-11.874 -31.398,-17.906 -18.269,-10.311 -20.965,-24.254 -11.1,-31.653 9.866,-7.399 13.725,-10.059 14.389,-10.688 z"
       style="fill:url(#linearGradient1437);stroke:#e68c3f;stroke-width:3.75" />
    <path
       transform="matrix(1.25,0,0,1.25,185.454,-167.505)"
       id="path120"
       d="m 391.251,357.645 c -9.883,0.581 -31.393,22.091 -54.066,22.091 -22.673,0 -36.044,-20.929 -39.532,-20.929"
       style="fill:none;stroke:#e68c3f;stroke-width:2.5" />
    <path
       transform="matrix(0.627885,0,0,0.595666,392.366,51.8173)"
       id="path123"
       d="m 309.954,338.729 c 7.147,-6.77 29.691,-25.348 59.588,-6.328 6.299,3.766 12.804,7.865 22.478,13.464 19.162,11.748 9.671,28.678 -13.286,39.39 -10.418,4.495 -27.593,14.415 -40.671,13.721 -14.533,-1.408 -23.935,-11.399 -33.567,-17.906 -17.67,-12.303 -16.597,-22.237 -8.389,-30.508 6.205,-5.679 13.183,-11.204 13.847,-11.833 z"
       style="fill:url(#linearGradient1439);stroke:none" />
  </g>
  <g
     transform="matrix(-2.7146126,0.24243013,-0.06667113,2.1365187,1432.9229,-696.28968)"
     id="g3949">
    <path
       style="fill:#1a8025;fill-opacity:1;fill-rule:evenodd;stroke:#00582a;stroke-width:4.2336216;stroke-linecap:butt;stroke-linejoin:round;stroke-miterlimit:4;stroke-opacity:1;stroke-dasharray:none"
       d="m 426.10368,393.97179 c -0.3586,2.07275 -0.22757,6.97407 -0.29365,8.22254 1.98955,2.12946 6.99307,-0.35719 8.80985,1.17465 1.81678,1.53184 2.46873,5.42918 1.46831,7.04789 -0.41309,-0.43692 -2.12561,1.6092 -4.69859,2.34929 -2.84527,0.81842 -7.91353,-1.67492 -11.15916,-0.88098 -3.24563,0.79394 -7.58115,3.39488 -9.39719,5.87324 -1.81604,2.47836 -2.14107,3.67064 -2.34929,9.10352 -0.20822,5.43288 3.16863,19.38342 4.69859,26.42959 1.52996,7.04617 2.42696,16.82253 5.28592,20.55635 2.85896,3.73382 5.6394,3.94704 8.80986,4.99225 3.17046,1.04521 9.26797,0.8044 12.04015,1.46831 2.77218,0.66391 4.47834,2.94838 6.46056,2.3493 1.98222,-0.59908 3.66825,-3.10799 4.40493,-4.40493 1.28474,-0.97556 3.61426,1.98355 5.57958,2.34929 1.96532,0.36574 3.15407,-0.26474 7.04789,-2.34929 3.89382,-2.08455 9.81527,-11.13428 12.33381,-16.15142 2.51854,-5.01714 4.09429,-10.23988 4.69859,-16.44507 0.6043,-6.20519 -0.0112,-19.03932 -2.05563,-24.37396 -2.04445,-5.33464 -5.24865,-9.38655 -8.22254,-10.86549 -2.97389,-1.47894 -6.41018,-0.49716 -8.5162,0 -2.10602,0.49716 -3.85993,-0.55977 -5.28592,-0.88099 -1.16774,-0.26304 -5.37938,-1.32356 -8.80986,-1.46831 -2.03739,-1.97472 -1.81737,-5.4493 -3.52394,-7.92888 -1.70657,-2.47958 -3.60339,-5.92662 -6.46057,-7.04789 -2.85718,-1.12127 -10.49507,-1.26016 -10.8655,0.88099 z"
       id="path3951"
       sodipodi:nodetypes="cczczzzzzzzzzczzzzzzzzczzz" />
    <path
       style="fill:#00652b;fill-opacity:1;fill-rule:nonzero;stroke:none"
       d="m 433.22748,414.09875 c -6.42509,4.84284 -10.07068,16.15364 -10.07068,32.29366 0,17.91221 11.17601,30.08823 19.6875,32.4375 -14.33495,-18.73646 -15.63854,-26.56978 -14.9743,-36.6875 0.66425,-10.11772 2.32109,-20.29476 5.35748,-28.04366 z"
       id="path3953"
       sodipodi:nodetypes="csczc" />
    <path
       style="fill:#00652b;fill-opacity:1;fill-rule:nonzero;stroke:none"
       d="m 448.87707,411.20902 c 7.18691,3.61706 12.79456,14.0946 15.67803,29.97496 3.20007,17.62404 -5.62086,31.6008 -13.57571,35.43288 6.05841,-21.877 6.82256,-29.22986 5.24244,-39.06614 -1.57341,-9.79448 -2.97285,-19.25993 -7.34476,-26.3417 z"
       id="path3955"
       sodipodi:nodetypes="csczc" />
    <path
       style="opacity:0.34351148;fill:#fce94f;fill-opacity:1;fill-rule:nonzero;stroke:none"
       d="m 413.74679,439.16663 c -5.62872,-10.87103 -0.72797,-28.60495 15.33775,-22.73858 -7.56433,1.72611 -11.1768,8.2407 -15.33775,22.73858 z"
       id="path3957"
       sodipodi:nodetypes="ccc" />
    <path
       style="opacity:0.34351148;fill:#fce94f;fill-opacity:1;fill-rule:evenodd;stroke:none"
       d="m 434.81088,417.98296 c -1.69162,-3.21189 9.89335,-6.61768 13.26154,-3.83162 3.36819,2.78605 0.64873,15.03376 -1.41888,15.27109 -1.54812,0.1777 -10.27065,-8.4547 -11.84266,-11.43947 z"
       id="path3959"
       sodipodi:nodetypes="czzz"
       inkscape:transform-center-x="2.1201628" />
    <path
       style="fill:#4e9a06;fill-rule:evenodd;stroke:none"
       d="m 427.57199,393.38447 c -1.37503,1.42893 -2.20669,6.66424 -0.58732,8.22253 1.61937,1.55829 5.84582,-1.47115 7.92888,0 2.08305,1.47116 1.4504,10.04707 3.52394,8.51621 2.20513,-1.62801 4.32939,-1.1037 6.75423,-0.88099 2.4157,0.22186 -3.76605,-11.68827 -6.16691,-13.80212 -2.40086,-2.11385 -4.12794,-1.75902 -5.87324,-2.05563 -1.7453,-0.29661 -4.20455,-1.42893 -5.57958,0 z"
       id="path3961"
       sodipodi:nodetypes="czzzzzzz" />
    <path
       style="fill:none;stroke:#2d8f20;stroke-width:3.2374754;stroke-linecap:butt;stroke-linejoin:miter;stroke-miterlimit:4;stroke-opacity:1;stroke-dasharray:none"
       d="m 426.98467,399.55137 c 0,0 4.68434,1.30702 7.92888,-1.46831 2.93,-2.50628 5.28591,10.27818 5.28591,10.27818"
       id="path3963"
       sodipodi:nodetypes="czz" />
  </g>
  <g
     transform="matrix(-2.7712806,-0.48365906,-0.58182222,2.3037186,1901.8092,-201.98663)"
     id="g6587">
    <path
       style="fill:#f29400;fill-opacity:1;fill-rule:evenodd;stroke:#d4640e;stroke-width:4.04522943;stroke-linecap:butt;stroke-linejoin:round;stroke-miterlimit:4;stroke-opacity:1;stroke-dasharray:none"
       d="m 426.10368,393.97179 c -0.3586,2.07275 -0.22757,6.97407 -0.29365,8.22254 1.98955,2.12946 6.99307,-0.35719 8.80985,1.17465 1.81678,1.53184 2.46873,5.42918 1.46831,7.04789 -0.41309,-0.43692 -2.12561,1.6092 -4.69859,2.34929 -2.84527,0.81842 -7.91353,-1.67492 -11.15916,-0.88098 -3.24563,0.79394 -7.58115,3.39488 -9.39719,5.87324 -1.81604,2.47836 -2.14107,3.67064 -2.34929,9.10352 -0.20822,5.43288 3.16863,19.38342 4.69859,26.42959 1.52996,7.04617 2.42696,16.82253 5.28592,20.55635 2.85896,3.73382 5.6394,3.94704 8.80986,4.99225 3.17046,1.04521 9.26797,0.8044 12.04015,1.46831 2.77218,0.66391 4.47834,2.94838 6.46056,2.3493 1.98222,-0.59908 3.66825,-3.10799 4.40493,-4.40493 1.28474,-0.97556 3.61426,1.98355 5.57958,2.34929 1.96532,0.36574 3.15407,-0.26474 7.04789,-2.34929 3.89382,-2.08455 9.81527,-11.13428 12.33381,-16.15142 2.51854,-5.01714 4.09429,-10.23988 4.69859,-16.44507 0.6043,-6.20519 -0.0112,-19.03932 -2.05563,-24.37396 -2.04445,-5.33464 -5.24865,-9.38655 -8.22254,-10.86549 -2.97389,-1.47894 -6.41018,-0.49716 -8.5162,0 -2.10602,0.49716 -3.85993,-0.55977 -5.28592,-0.88099 -1.16774,-0.26304 -5.37938,-1.32356 -8.80986,-1.46831 -2.03739,-1.97472 -1.81737,-5.4493 -3.52394,-7.92888 -1.70657,-2.47958 -3.60339,-5.92662 -6.46057,-7.04789 -2.85718,-1.12127 -10.49507,-1.26016 -10.8655,0.88099 z"
       id="path6589"
       sodipodi:nodetypes="cczczzzzzzzzzczzzzzzzzczzz" />
    <path
       style="fill:#f07e02;fill-opacity:1;fill-rule:nonzero;stroke:none"
       d="m 433.22748,414.09875 c -6.42509,4.84284 -10.07068,16.15364 -10.07068,32.29366 0,17.91221 11.17601,30.08823 19.6875,32.4375 -14.33495,-18.73646 -15.63854,-26.56978 -14.9743,-36.6875 0.66425,-10.11772 2.32109,-20.29476 5.35748,-28.04366 z"
       id="path6591"
       sodipodi:nodetypes="csczc" />
    <path
       style="fill:#f07e02;fill-opacity:1;fill-rule:nonzero;stroke:none"
       d="m 448.87707,411.20902 c 7.18691,3.61706 12.79456,14.0946 15.67803,29.97496 3.20007,17.62404 -5.62086,31.6008 -13.57571,35.43288 6.05841,-21.877 6.82256,-29.22986 5.24244,-39.06614 -1.57341,-9.79448 -2.97285,-19.25993 -7.34476,-26.3417 z"
       id="path6593"
       sodipodi:nodetypes="csczc" />
    <path
       style="fill:#f6a400;fill-opacity:1;fill-rule:nonzero;stroke:none"
       d="m 413.74679,439.16663 c -5.62872,-10.87103 -0.72797,-28.60495 15.33775,-22.73858 -7.56433,1.72611 -11.1768,8.2407 -15.33775,22.73858 z"
       id="path6595"
       sodipodi:nodetypes="ccc" />
    <path
       style="fill:#f6a400;fill-opacity:1;fill-rule:evenodd;stroke:none"
       d="m 434.81088,417.98296 c -1.69162,-3.21189 9.89335,-6.61768 13.26154,-3.83162 3.36819,2.78605 0.64873,15.03376 -1.41888,15.27109 -1.54812,0.1777 -10.27065,-8.4547 -11.84266,-11.43947 z"
       id="path6597"
       sodipodi:nodetypes="czzz"
       inkscape:transform-center-x="2.1201628" />
    <path
       style="fill:#4e9a06;fill-rule:evenodd;stroke:none"
       d="m 427.57199,393.38447 c -1.37503,1.42893 -2.20669,6.66424 -0.58732,8.22253 1.61937,1.55829 5.84582,-1.47115 7.92888,0 2.08305,1.47116 1.4504,10.04707 3.52394,8.51621 2.20513,-1.62801 4.32939,-1.1037 6.75423,-0.88099 2.4157,0.22186 -3.76605,-11.68827 -6.16691,-13.80212 -2.40086,-2.11385 -4.12794,-1.75902 -5.87324,-2.05563 -1.7453,-0.29661 -4.20455,-1.42893 -5.57958,0 z"
       id="path6599"
       sodipodi:nodetypes="czzzzzzz" />
    <path
       style="fill:none;stroke:#2d8f20;stroke-width:3.09341002;stroke-linecap:butt;stroke-linejoin:miter;stroke-miterlimit:4;stroke-opacity:1;stroke-dasharray:none"
       d="m 426.98467,399.55137 c 0,0 4.68434,1.30702 7.92888,-1.46831 2.93,-2.50628 5.28591,10.27818 5.28591,10.27818"
       id="path6601"
       sodipodi:nodetypes="czz" />
  </g>
  <g
     transform="matrix(-2.5660026,0.73268473,0.92725487,2.0275666,1146.0957,-856.54894)"
     id="g6603">
    <path
       style="fill:#e3001b;fill-opacity:1;fill-rule:evenodd;stroke:#d40000;stroke-width:4.10718441;stroke-linecap:butt;stroke-linejoin:round;stroke-miterlimit:4;stroke-opacity:1;stroke-dasharray:none"
       d="m 426.10368,393.97179 c -0.3586,2.07275 -0.22757,6.97407 -0.29365,8.22254 1.98955,2.12946 6.99307,-0.35719 8.80985,1.17465 1.81678,1.53184 2.46873,5.42918 1.46831,7.04789 -0.41309,-0.43692 -2.12561,1.6092 -4.69859,2.34929 -2.84527,0.81842 -7.91353,-1.67492 -11.15916,-0.88098 -3.24563,0.79394 -7.58115,3.39488 -9.39719,5.87324 -1.81604,2.47836 -2.14107,3.67064 -2.34929,9.10352 -0.20822,5.43288 3.16863,19.38342 4.69859,26.42959 1.52996,7.04617 2.42696,16.82253 5.28592,20.55635 2.85896,3.73382 5.6394,3.94704 8.80986,4.99225 3.17046,1.04521 9.26797,0.8044 12.04015,1.46831 2.77218,0.66391 4.47834,2.94838 6.46056,2.3493 1.98222,-0.59908 3.66825,-3.10799 4.40493,-4.40493 1.28474,-0.97556 3.61426,1.98355 5.57958,2.34929 1.96532,0.36574 3.15407,-0.26474 7.04789,-2.34929 3.89382,-2.08455 9.81527,-11.13428 12.33381,-16.15142 2.51854,-5.01714 4.09429,-10.23988 4.69859,-16.44507 0.6043,-6.20519 -0.0112,-19.03932 -2.05563,-24.37396 -2.04445,-5.33464 -5.24865,-9.38655 -8.22254,-10.86549 -2.97389,-1.47894 -6.41018,-0.49716 -8.5162,0 -2.10602,0.49716 -3.85993,-0.55977 -5.28592,-0.88099 -1.16774,-0.26304 -5.37938,-1.32356 -8.80986,-1.46831 -2.03739,-1.97472 -1.81737,-5.4493 -3.52394,-7.92888 -1.70657,-2.47958 -3.60339,-5.92662 -6.46057,-7.04789 -2.85718,-1.12127 -10.49507,-1.26016 -10.8655,0.88099 z"
       id="path6605"
       sodipodi:nodetypes="cczczzzzzzzzzczzzzzzzzczzz" />
    <path
       style="fill:#d00018;fill-opacity:1;fill-rule:nonzero;stroke:none"
       d="m 433.22748,414.09875 c -6.42509,4.84284 -10.07068,16.15364 -10.07068,32.29366 0,17.91221 11.17601,30.08823 19.6875,32.4375 -14.33495,-18.73646 -15.63854,-26.56978 -14.9743,-36.6875 0.66425,-10.11772 2.32109,-20.29476 5.35748,-28.04366 z"
       id="path6607"
       sodipodi:nodetypes="csczc" />
    <path
       style="fill:#d00018;fill-opacity:1;fill-rule:nonzero;stroke:none"
       d="m 448.87707,411.20902 c 7.18691,3.61706 12.79456,14.0946 15.67803,29.97496 3.20007,17.62404 -5.62086,31.6008 -13.57571,35.43288 6.05841,-21.877 6.82256,-29.22986 5.24244,-39.06614 -1.57341,-9.79448 -2.97285,-19.25993 -7.34476,-26.3417 z"
       id="path6609"
       sodipodi:nodetypes="csczc" />
    <path
       style="fill:#ea3d25;fill-opacity:1;fill-rule:nonzero;stroke:none"
       d="m 413.74679,439.16663 c -5.62872,-10.87103 -0.72797,-28.60495 15.33775,-22.73858 -7.56433,1.72611 -11.1768,8.2407 -15.33775,22.73858 z"
       id="path6611"
       sodipodi:nodetypes="ccc" />
    <path
       style="fill:#ea3d25;fill-opacity:1;fill-rule:evenodd;stroke:none"
       d="m 434.81088,417.98296 c -1.69162,-3.21189 9.89335,-6.61768 13.26154,-3.83162 3.36819,2.78605 0.64873,15.03376 -1.41888,15.27109 -1.54812,0.1777 -10.27065,-8.4547 -11.84266,-11.43947 z"
       id="path6613"
       sodipodi:nodetypes="czzz"
       inkscape:transform-center-x="2.1201628" />
    <path
       style="fill:#4e9a06;fill-rule:evenodd;stroke:none"
       d="m 427.57199,393.38447 c -1.37503,1.42893 -2.20669,6.66424 -0.58732,8.22253 1.61937,1.55829 5.84582,-1.47115 7.92888,0 2.08305,1.47116 1.4504,10.04707 3.52394,8.51621 2.20513,-1.62801 4.32939,-1.1037 6.75423,-0.88099 2.4157,0.22186 -3.76605,-11.68827 -6.16691,-13.80212 -2.40086,-2.11385 -4.12794,-1.75902 -5.87324,-2.05563 -1.7453,-0.29661 -4.20455,-1.42893 -5.57958,0 z"
       id="path6615"
       sodipodi:nodetypes="czzzzzzz" />
    <path
       style="fill:none;stroke:#2d8f20;stroke-width:3.1407876;stroke-linecap:butt;stroke-linejoin:miter;stroke-miterlimit:4;stroke-opacity:1;stroke-dasharray:none"
       d="m 426.98467,399.55137 c 0,0 4.68434,1.30702 7.92888,-1.46831 2.93,-2.50628 5.28591,10.27818 5.28591,10.27818"
       id="path6617"
       sodipodi:nodetypes="czz" />
  </g>
  <g
     transform="matrix(-2.212394,-0.01482059,-0.08254451,1.8361068,1244.8406,-235.96113)"
     id="g6619">
    <path
       style="fill:#fcc200;fill-opacity:1;fill-rule:evenodd;stroke:#ddba05;stroke-width:4.83834553;stroke-linecap:butt;stroke-linejoin:round;stroke-miterlimit:4;stroke-opacity:1;stroke-dasharray:none"
       d="m 432.25439,394.84 c -0.47015,2.44759 -0.26335,8.23658 -0.34463,9.71103 2.69283,2.51771 9.41648,-0.41251 11.87291,1.39914 2.45642,1.81164 3.35862,6.41556 2.02121,8.32603 -0.55907,-0.51658 -2.85294,1.89774 -6.3138,2.7684 -3.82712,0.9628 -10.66878,-1.9888 -15.03528,-1.05544 -4.3665,0.93335 -10.18974,3.99945 -12.62036,6.92414 -2.43062,2.9247 -2.86101,4.33243 -3.10784,10.74878 -0.24683,6.41635 4.38764,22.89747 6.49188,31.22156 2.10423,8.32409 3.37286,19.87189 7.24658,24.28563 3.87372,4.41374 7.6199,4.66929 11.89654,5.908 4.27663,1.23871 12.48763,0.96246 16.22548,1.7503 3.73784,0.78783 6.04994,3.48824 8.716,2.78334 2.66607,-0.7049 4.92139,-3.66585 5.90557,-5.19665 1.72433,-1.15048 4.88018,2.34756 7.52945,2.78215 2.64928,0.4346 4.24645,-0.30845 9.47799,-2.76524 5.23153,-2.4568 13.1509,-13.13726 16.51198,-19.0595 3.36108,-5.92223 5.45108,-12.08856 6.22659,-19.41654 0.77551,-7.32797 -0.13289,-22.48684 -2.91946,-28.79017 -2.78659,-6.30334 -7.12727,-11.09323 -11.14184,-12.84394 -4.01456,-1.75072 -8.63669,-0.59577 -11.47013,-0.0114 -2.83343,0.58436 -5.20225,-0.6663 -7.12484,-1.04759 -1.57441,-0.31223 -7.25346,-1.57042 -11.87474,-1.74598 -2.75629,-2.33501 -2.48145,-6.43845 -4.79531,-9.3693 -2.31385,-2.93085 -4.88993,-7.00459 -8.74509,-8.33272 -3.85516,-1.32812 -14.14319,-1.50239 -14.62886,1.02597 z"
       id="path6621"
       sodipodi:nodetypes="cczczzzzzzzzzczzzzzzzzczzz" />
    <path
       style="fill:#faba00;fill-opacity:1;fill-rule:nonzero;stroke:none"
       d="m 441.97369,418.62094 c -8.62373,5.71115 -13.46385,19.06515 -13.36398,38.12769 0.11083,21.15563 15.23868,35.55135 26.71701,38.33741 -19.4231,-22.14832 -21.22733,-31.40179 -20.39529,-43.35066 0.83205,-11.94888 3.00061,-23.96649 7.04226,-33.11444 z"
       id="path6623"
       sodipodi:nodetypes="csczc" />
    <path
       style="fill:#faba00;fill-opacity:1;fill-rule:nonzero;stroke:none"
       d="m 463.03362,415.22891 c 9.70214,4.28163 17.31969,16.66388 21.30157,35.4236 4.4191,20.81956 -7.37498,37.31532 -18.06534,41.83064 8.02447,-25.83022 9.00818,-34.51346 6.81912,-46.13294 -2.17977,-11.5701 -4.12319,-22.75136 -10.05535,-31.1213 z"
       id="path6625"
       sodipodi:nodetypes="csczc" />
    <path
       style="opacity:0.6259537;fill:#fce94f;fill-opacity:1;fill-rule:nonzero;stroke:none"
       d="m 415.89103,448.20186 c -7.64836,-12.84701 -1.15746,-33.78551 20.51711,-26.83539 -10.17741,2.02854 -15.0026,9.71791 -20.51711,26.83539 z"
       id="path6627"
       sodipodi:nodetypes="ccc" />
    <path
       style="opacity:0.6259537;fill:#fce94f;fill-opacity:1;fill-rule:evenodd;stroke:none"
       d="m 444.13034,423.2106 c -2.29825,-3.79574 13.28401,-7.80272 17.83773,-4.50767 4.55372,3.29503 0.96677,17.75683 -1.81654,18.03437 -2.08401,0.2078 -13.88544,-9.99937 -16.02119,-13.5267 z"
       id="path6629"
       sodipodi:nodetypes="czzz"
       inkscape:transform-center-x="2.8556691" />
    <path
       style="fill:#4e9a06;fill-rule:evenodd;stroke:none"
       d="m 434.22837,394.1483 c -1.84313,1.68583 -2.93087,7.868 -0.74016,9.71062 2.1907,1.84262 7.8644,-1.72971 10.67909,0.0106 2.81468,1.74034 2.01565,11.86827 4.79894,10.06299 2.95993,-1.91985 5.82426,-1.29776 9.09156,-1.03148 3.25498,0.26527 -5.14467,-13.80974 -8.39137,-16.30956 -3.2467,-2.49983 -5.57064,-2.08306 -7.92315,-2.43571 -2.35251,-0.35266 -5.67178,-1.6933 -7.51491,-0.007 z"
       id="path6631"
       sodipodi:nodetypes="czzzzzzz" />
    <path
       style="fill:none;stroke:#2d8f20;stroke-width:3.69991088;stroke-linecap:butt;stroke-linejoin:miter;stroke-miterlimit:4;stroke-opacity:1;stroke-dasharray:none"
       d="m 433.47549,401.43107 c 0,0 6.31723,1.54996 10.67,-1.72357 3.9308,-2.95617 7.18298,12.14636 7.18298,12.14636"
       id="path6633"
       sodipodi:nodetypes="czz" />
  </g>
</svg>
