<?xml version="1.0" encoding="UTF-8" standalone="no"?>
<!-- Created with Inkscape (http://www.inkscape.org/) -->
<svg
   xmlns:dc="http://purl.org/dc/elements/1.1/"
   xmlns:cc="http://creativecommons.org/ns#"
   xmlns:rdf="http://www.w3.org/1999/02/22-rdf-syntax-ns#"
   xmlns:svg="http://www.w3.org/2000/svg"
   xmlns="http://www.w3.org/2000/svg"
   xmlns:xlink="http://www.w3.org/1999/xlink"
   xmlns:sodipodi="http://sodipodi.sourceforge.net/DTD/sodipodi-0.dtd"
   xmlns:inkscape="http://www.inkscape.org/namespaces/inkscape"
   width="256"
   height="100"
   id="svg2"
   sodipodi:version="0.32"
   inkscape:version="0.46"
   version="1.0"
   sodipodi:docname="A-G.svg"
   inkscape:output_extension="org.inkscape.output.svg.inkscape">
  <defs
     id="defs4">
    <linearGradient
       id="linearGradient4718">
      <stop
         style="stop-color:#008000;stop-opacity:1;"
         offset="0"
         id="stop4720" />
      <stop
         style="stop-color:#008000;stop-opacity:0;"
         offset="1"
         id="stop4722" />
    </linearGradient>
    <inkscape:perspective
       sodipodi:type="inkscape:persp3d"
       inkscape:vp_x="0 : 526.18109 : 1"
       inkscape:vp_y="0 : 1000 : 0"
       inkscape:vp_z="744.09448 : 526.18109 : 1"
       inkscape:persp3d-origin="372.04724 : 350.78739 : 1"
       id="perspective10" />
    <radialGradient
       inkscape:collect="always"
       xlink:href="#linearGradient4718"
       id="radialGradient4726"
       cx="122.49043"
       cy="52.319275"
       fx="122.49043"
       fy="52.319275"
       r="119.90561"
       gradientTransform="matrix(0.9701001,0,0,0.3532741,8.8778691,31.587293)"
       gradientUnits="userSpaceOnUse" />
  </defs>
  <sodipodi:namedview
     id="base"
     pagecolor="#ffffff"
     bordercolor="#666666"
     borderopacity="1.0"
     gridtolerance="10000"
     guidetolerance="10"
     objecttolerance="10"
     inkscape:pageopacity="0.0"
     inkscape:pageshadow="2"
     inkscape:zoom="5.5214286"
     inkscape:cx="128"
     inkscape:cy="41.021992"
     inkscape:document-units="px"
     inkscape:current-layer="layer1"
     showgrid="false"
     inkscape:window-width="1920"
     inkscape:window-height="992"
     inkscape:window-x="-5"
     inkscape:window-y="0" />
  <metadata
     id="metadata7">
    <rdf:RDF>
      <cc:Work
         rdf:about="">
        <dc:format>image/svg+xml</dc:format>
        <dc:type
           rdf:resource="http://purl.org/dc/dcmitype/StillImage" />
      </cc:Work>
    </rdf:RDF>
  </metadata>
  <g
     inkscape:label="Layer 1"
     inkscape:groupmode="layer"
     id="layer1">
    <rect
       style="opacity:1;fill:#d6e5f5;fill-opacity:1;stroke:#4f6b3e;stroke-width:1.01606655;stroke-linejoin:round;stroke-miterlimit:4;stroke-dasharray:none;stroke-dashoffset:0;stroke-opacity:1"
       id="rect2384"
       width="251.73695"
       height="97.429047"
       x="2.1781018"
       y="1.4795252"
       ry="16.044647" />
    <path
       style="font-size:136.80709839px;font-style:normal;font-weight:normal;fill:url(#radialGradient4726);fill-opacity:1;fill-rule:nonzero;stroke:#000000;stroke-width:0.88694215px;stroke-linecap:butt;stroke-linejoin:miter;stroke-opacity:1;font-family:Bitstream Vera Sans"
       d="M 56.195722,20.358503 L 38.439697,60.606246 L 74.016553,60.606246 L 56.195722,20.358503 M 48.808179,9.5788251 L 63.64807,9.5788251 L 100.52098,90.4535 L 86.912352,90.4535 L 78.099142,69.706679 L 34.486712,69.706679 L 25.673503,90.4535 L 11.87046,90.4535 L 48.808179,9.5788251 M 105.1868,55.622676 L 140.11562,55.622676 L 140.11562,64.506432 L 105.1868,64.506432 L 105.1868,55.622676 M 230.58064,78.915448 L 230.58064,57.193586 L 209.19564,57.193586 L 209.19564,48.201491 L 243.54124,48.201491 L 243.54124,82.923973 C 238.48652,85.921342 232.91347,88.196447 226.82206,89.749295 C 220.73051,91.266033 214.22861,92.024399 207.31635,92.024407 C 192.19561,92.024399 180.35827,88.340898 171.8043,80.97388 C 163.29349,73.570767 159.0381,63.278624 159.0381,50.097415 C 159.0381,36.880173 163.29349,26.58803 171.8043,19.22095 C 180.35827,11.817899 192.19561,8.1163379 207.31635,8.1162554 C 213.62377,8.1163379 219.60724,8.766368 225.26679,10.066349 C 230.96937,11.366489 236.21841,13.280467 241.01392,15.808287 L 241.01392,27.454673 C 236.17522,24.024022 231.03417,21.441957 225.5908,19.708472 C 220.14728,17.975129 214.42302,17.108422 208.41801,17.108348 C 196.5806,17.108422 187.681,19.87105 181.71915,25.396242 C 175.80046,30.921564 172.84112,39.155281 172.84115,50.097415 C 172.84112,61.003518 175.80046,69.219177 181.71915,74.744417 C 187.681,80.26969 196.5806,83.032319 208.41801,83.032312 C 213.04055,83.032319 217.16634,82.707304 220.79539,82.057264 C 224.42427,81.37113 227.68602,80.32386 230.58064,78.915448"
       id="text2383" />
  </g>
</svg>
