<?xml version="1.0" encoding="UTF-8" standalone="no"?>
<!-- Created with Inkscape (http://www.inkscape.org/) -->
<svg
   xmlns:svg="http://www.w3.org/2000/svg"
   xmlns="http://www.w3.org/2000/svg"
   xmlns:xlink="http://www.w3.org/1999/xlink"
   version="1.0"
   width="440"
   height="330"
   id="svg4621">
  <defs
     id="defs4623">
    <linearGradient
       id="linearGradient4603">
      <stop
         style="stop-color:#f6e10f;stop-opacity:0.36585367"
         offset="0"
         id="stop4611" />
      <stop
         style="stop-color:#f6e10f;stop-opacity:1"
         offset="1"
         id="stop4607" />
    </linearGradient>
    <radialGradient
       cx="767.13367"
       cy="-278.61365"
       r="33.160084"
       fx="767.13367"
       fy="-278.61365"
       id="radialGradient4609"
       xlink:href="#linearGradient4603"
       gradientUnits="userSpaceOnUse"
       gradientTransform="matrix(1.459835,-0.440754,0.418077,1.263757,-227.9885,414.3411)" />
    <linearGradient
       id="linearGradient4613">
      <stop
         style="stop-color:#fbf500;stop-opacity:1"
         offset="0"
         id="stop4615" />
      <stop
         style="stop-color:#fbf500;stop-opacity:0"
         offset="1"
         id="stop4617" />
    </linearGradient>
    <radialGradient
       cx="772.52582"
       cy="-173.40308"
       r="42.042526"
       fx="772.52582"
       fy="-173.40308"
       id="radialGradient4619"
       xlink:href="#linearGradient4613"
       gradientUnits="userSpaceOnUse"
       gradientTransform="matrix(4.474667e-2,-2.264342,1.640322,3.241512e-2,647.609,2365.125)" />
  </defs>
  <g
     transform="translate(-180.8972,-395.1186)"
     id="layer1">
    <path
       d="M 370.70556,484.16196 C 380.80708,488.20257 315.90478,466.98937 246.20425,470.01983 C 219.27547,471.19065 198.97963,489.21272 190.89841,501.33456 C 182.81719,513.45639 234.56587,538.82606 265.64969,541.74065 C 303.40646,545.08763 356.81596,516.99192 365.90733,508.9107 C 374.99871,500.82948 372.72586,482.14166 370.70556,484.16196 z "
       style="fill:#acd4c3;fill-opacity:0.42087546;fill-rule:evenodd;stroke:none;stroke-width:1px;stroke-linecap:butt;stroke-linejoin:miter;stroke-opacity:1"
       id="path2792" />
    <path
       d="M 431.55149,483.396 C 421.44997,487.43661 486.35227,466.22341 556.0528,469.25387 C 582.98158,470.42469 603.27742,488.44676 611.35864,500.5686 C 619.43986,512.69043 568.44879,539.07025 537.36497,541.98484 C 482.68815,543.8166 445.44109,516.22596 436.34972,508.14474 C 427.25834,500.06352 429.53119,481.3757 431.55149,483.396 z "
       style="fill:#acd4c3;fill-opacity:0.42087546;fill-rule:evenodd;stroke:none;stroke-width:1px;stroke-linecap:butt;stroke-linejoin:miter;stroke-opacity:1"
       id="path2794" />
    <path
       d="M 430.80963,522.54776 C 430.80963,522.54776 489.14595,556.13533 499.75255,558.91325 C 510.35915,561.69117 544.48964,567.39213 556.57363,560.42847 C 571.47338,551.84218 578.79698,531.38659 578.79698,531.38659 L 533.8452,542.24573 L 492.1764,537.95259 L 456.82106,521.79014 L 434.09263,507.14293 L 430.80963,522.54776 z "
       style="fill:#acd4f6;fill-opacity:0.63973066;fill-rule:evenodd;stroke:none;stroke-width:1px;stroke-linecap:butt;stroke-linejoin:miter;stroke-opacity:1"
       id="path2796" />
    <path
       d="M 369.94795,522.5263 C 369.94795,522.5263 311.61163,556.11387 301.00503,558.89179 C 290.39843,561.66971 256.26789,567.37067 244.18399,560.40701 C 229.28419,551.82072 221.96059,531.36513 221.96059,531.36513 L 266.91239,542.22427 L 308.58118,537.93113 L 343.93655,521.76868 L 366.66495,507.12147 L 369.94795,522.5263 z "
       style="fill:#acd4f6;fill-opacity:0.63973066;fill-rule:evenodd;stroke:none;stroke-width:1px;stroke-linecap:butt;stroke-linejoin:miter;stroke-opacity:1"
       id="path2798" />
    <path
       d="M 805.09157,-283.05948 C 805.09157,-265.76483 791.80641,-251.74475 775.41834,-251.74475 C 759.03026,-251.74475 745.7451,-265.76483 745.7451,-283.05948 C 745.7451,-300.35413 759.03026,-314.37421 775.41834,-314.37421 C 791.80641,-314.37421 805.09157,-300.35413 805.09157,-283.05948 z "
       transform="matrix(1.041192,0,0,0.883632,-405.511,750.8156)"
       style="opacity:1;fill:url(#radialGradient4609);fill-opacity:1;fill-rule:nonzero;stroke:black;stroke-width:6.97370577;stroke-linecap:round;stroke-linejoin:round;stroke-miterlimit:4;stroke-dasharray:none;stroke-dashoffset:0;stroke-opacity:1"
       id="path2800" />
    <path
       d="M 372.47333,545.78127 C 368.18018,549.3168 417.17258,532.90182 428.03172,543.25588 C 438.89086,553.60995 441.1637,605.88534 441.1637,605.88534 L 433.58756,663.96911 L 410.60658,688.71785 L 380.55455,684.67724 L 364.39211,651.59474 L 358.07865,606.64296 L 363.63449,563.96401 L 372.47333,545.78127 z "
       style="fill:url(#radialGradient4619);fill-opacity:1;fill-rule:evenodd;stroke:black;stroke-width:1px;stroke-linecap:butt;stroke-linejoin:miter;stroke-opacity:1"
       id="path2802" />
    <path
       d="M 397.74414,719.78237 C 396.77454,718.46647 395.72424,715.23217 395.41024,712.59517 C 395.09624,709.95807 393.97034,705.55017 392.90824,702.79967 C 391.22884,698.45057 390.25514,697.42087 385.43724,694.89837 C 382.39034,693.30307 377.75974,689.59948 375.14714,686.66815 C 369.63604,680.48492 362.99284,667.70401 362.24744,661.85028 C 361.96374,659.6229 361.11864,656.58535 360.36944,655.10016 C 359.62014,653.61497 359.00714,651.05677 359.00714,649.41526 C 359.00714,647.77375 358.50514,645.1639 357.89154,643.6156 C 356.44544,639.96638 354.18744,623.8694 353.07554,609.28251 C 352.18214,597.56106 353.08094,577.61449 354.97214,567.19469 C 356.07904,561.09661 360.24464,550.84672 362.75504,548.04437 C 365.75284,544.69798 363.11654,545.12101 357.42334,548.89991 C 346.93814,555.85957 336.96044,566.93406 330.17935,579.13847 C 328.42144,582.30232 325.00714,595.88392 325.00714,599.71279 C 325.00714,601.41359 326.173,607.30411 327.59793,612.80283 C 332.47744,631.63233 332.73414,639.14199 328.8025,648.03021 C 326.59273,653.02576 320.49701,659.3005 317.85374,659.3005 C 316.46163,659.3005 316.00714,658.54932 316.00714,656.24848 C 316.00714,653.75642 315.45673,653.00459 313.00714,652.15066 C 309.08542,650.78354 309.19836,648.19838 313.26272,646.3005 C 315.02948,645.4755 317.70479,643.0005 319.20786,640.8005 C 321.45499,637.51142 321.9466,635.68575 321.97392,630.5283 C 322.00225,625.17986 321.42575,623.09978 318.05958,616.4048 C 315.43551,611.18578 312.67609,607.36072 309.82909,604.99585 L 305.54616,601.43821 L 307.45709,595.61935 C 308.5081,592.41898 309.90139,589.1255 310.55327,588.3005 C 311.20516,587.4755 312.05135,585.4505 312.4337,583.8005 C 312.81605,582.1505 314.32973,579.0005 315.79744,576.8005 C 317.26515,574.6005 318.96803,571.9005 319.58161,570.8005 C 320.1952,569.7005 321.91653,566.64488 323.4068,564.01024 C 324.89706,561.3756 325.86718,558.43489 325.56263,557.47533 C 325.17112,556.24179 325.96076,555.19016 328.25802,553.88565 C 333.61574,550.84321 345.48284,542.85525 345.84044,542.0505 C 346.02384,541.638 346.63354,541.3005 347.19544,541.3005 C 347.75734,541.3005 350.21054,539.95514 352.64694,538.3108 C 355.08344,536.66647 358.14354,535.05339 359.44724,534.72619 C 360.75084,534.39899 362.77514,533.1119 363.94564,531.86598 C 365.73224,529.96424 365.85044,529.41528 364.68184,528.44547 C 363.60104,527.54847 362.72014,527.73844 360.74084,529.29538 C 359.33884,530.3982 357.53034,531.3005 356.72194,531.3005 C 355.91344,531.3005 354.71624,531.94604 354.06144,532.73504 C 353.40664,533.52403 351.10384,535.09059 348.94424,536.21629 C 346.78454,537.34198 341.74274,540.43165 337.74024,543.08223 C 333.73774,545.7328 328.44787,548.84097 325.98503,549.98928 C 312.88566,556.09691 309.96969,557.3005 308.27201,557.3005 C 304.13753,557.3005 297.90111,566.323 289.95501,583.8005 C 287.88181,588.36053 284.91243,592.3005 283.54895,592.3005 C 283.25096,592.3005 283.00714,590.8155 283.00714,589.0005 C 283.00714,584.53343 281.60193,583.41103 276.8134,584.05331 C 271.21715,584.80393 271.9612,582.87265 279.75897,576.40775 C 287.198,570.24027 289.81997,566.71333 288.18292,565.07628 C 287.35422,564.24758 286.3363,564.30109 284.28427,565.28125 C 282.70194,566.03704 276.49219,566.80835 269.8507,567.07404 C 260.42648,567.45104 257.57243,567.23012 254.94707,565.92042 C 253.16111,565.02946 250.84113,564.3005 249.79158,564.3005 C 245.52354,564.3005 236.33077,558.74113 230.00714,552.33577 C 224.44546,546.70222 223.20646,544.7653 221.42423,538.91827 L 219.34131,532.08476 L 211.42423,528.99376 C 204.62466,526.33907 202.42284,524.8189 195.82543,518.22411 C 187.80197,510.20384 186.00274,506.43848 187.44602,500.68801 C 188.55509,496.26912 204.17074,481.85728 212.2045,477.83815 C 216.09374,475.89244 219.83896,474.3005 220.52719,474.3005 C 221.21543,474.3005 223.06746,473.62827 224.64283,472.80666 C 226.2182,471.98505 228.65464,471.31005 230.05714,471.30666 C 231.45964,471.30327 233.11363,470.79401 233.73268,470.17496 C 234.35173,469.55591 238.15423,468.66554 242.18268,468.19636 C 246.21113,467.72717 251.22307,466.99617 253.32032,466.5719 C 255.41756,466.14763 261.94256,466.12954 267.82032,466.5317 C 273.69807,466.93385 285.03214,467.65837 293.00714,468.14174 C 300.98214,468.62511 308.77393,469.53357 310.32224,470.16055 C 311.87054,470.78752 315.03498,471.3005 317.35431,471.3005 C 319.67365,471.3005 324.03185,471.98122 327.03921,472.81321 C 335.32314,475.10496 338.35994,475.47114 340.00224,474.37624 C 341.74254,473.21602 342.78314,474.21844 328.79526,463.58035 C 317.18693,454.75197 316.54286,454.03654 317.90764,451.48642 C 319.07745,449.3006 316.25033,443.29149 308.17545,430.8005 C 303.49476,423.55995 288.88535,408.3005 286.63393,408.3005 C 285.93094,408.3005 284.32507,407.20337 283.06533,405.86244 L 280.77489,403.42438 L 284.51314,401.86244 C 286.56918,401.00337 288.78486,400.3005 289.43688,400.3005 C 292.34482,400.3005 320.00364,431.39249 322.10789,437.02682 C 323.01691,439.46081 346.67854,464.00386 355.71004,471.88061 C 362.06554,477.42353 363.60504,478.3005 366.98014,478.3005 C 369.13004,478.3005 371.18664,477.8191 371.55034,477.23073 C 371.91394,476.64236 370.81544,473.54187 369.10934,470.34075 C 363.72864,460.24559 365.72864,450.29242 374.61134,442.9586 L 378.05354,440.11669 L 373.78034,437.0225 C 366.86604,432.01586 361.08014,425.19411 359.59734,420.3005 C 358.84744,417.8255 356.76614,413.0365 354.97214,409.65827 C 351.29384,402.73153 351.40374,399.37915 355.24234,401.41607 C 358.13244,402.94967 359.69474,405.18237 363.81774,413.6708 C 366.15364,418.48 369.25974,422.59659 374.17134,427.39265 C 383.57454,436.57466 385.68744,437.58132 391.78574,435.78496 C 396.92404,434.27141 405.85394,434.47557 410.32264,436.20878 C 413.62234,437.4886 415.03204,436.89096 422.48614,431.05193 C 429.12374,425.85243 433.30394,420.50227 437.73704,411.53256 C 441.28374,404.35634 445.32884,399.76323 447.12474,400.87314 C 448.50394,401.72552 448.15984,405.92891 446.60524,407.21907 C 445.83424,407.85898 444.91204,409.54344 444.55594,410.96232 C 444.19984,412.3812 443.25564,414.19488 442.45784,414.99273 C 441.65994,415.79057 441.00714,417.55205 441.00714,418.90711 C 441.00714,420.26218 440.24764,422.59253 439.31934,424.08568 C 437.32854,427.28769 429.76454,434.94394 425.50714,438.06624 L 422.50714,440.26641 L 426.75714,443.86639 C 429.09464,445.84638 431.00714,448.07191 431.00714,448.81201 C 431.00714,449.55211 431.71034,450.86077 432.56964,451.72014 C 433.66374,452.81421 434.13214,455.21871 434.13214,459.74053 C 434.13214,466.40169 433.20544,469.20937 429.75574,472.99962 C 426.85824,476.18306 428.11194,478.3005 432.89414,478.3005 C 436.07904,478.3005 438.03144,477.38054 442.97544,473.5505 C 454.43474,464.67303 471.52964,446.60495 480.08644,434.32698 C 481.41784,432.41655 484.61134,428.27073 487.18314,425.11405 C 489.75494,421.95737 492.45494,418.62576 493.18314,417.71046 C 496.60534,413.40909 508.70754,401.007 510.34034,400.12797 C 511.68074,399.40638 512.64274,399.56574 513.91914,400.7208 C 514.87914,401.58963 516.34174,402.3005 517.16924,402.3005 C 517.99674,402.3005 518.95084,402.57745 519.28934,402.91595 C 519.98904,403.61568 513.21614,410.3005 511.80744,410.3005 C 510.27334,410.3005 500.06064,420.42712 495.34204,426.62719 C 492.90304,429.83186 488.94054,436.30741 486.53634,441.01729 C 483.01244,447.921 482.37944,449.92367 483.27034,451.35024 C 484.47854,453.28499 483.80224,453.99208 471.58704,463.56535 C 460.01564,472.63401 459.67814,472.95911 460.48334,474.26196 C 461.38164,475.71544 470.61574,474.87023 472.69554,473.14416 C 473.37664,472.57889 477.66294,471.8734 482.22054,471.57639 C 486.77824,471.27939 491.10444,470.56189 491.83434,469.98194 C 492.56434,469.402 499.53934,468.55169 507.33434,468.09238 C 515.12944,467.63306 526.31624,466.92948 532.19404,466.52888 C 538.07174,466.12827 544.59674,466.17296 546.69404,466.62818 C 548.79124,467.0834 553.74744,467.7584 557.70784,468.12818 C 561.66814,468.49796 565.47064,469.363 566.15784,470.0505 C 566.84494,470.738 568.79204,471.3005 570.48464,471.3005 C 572.17734,471.3005 574.44984,471.918 575.53464,472.67273 C 576.61954,473.42745 578.97004,474.36329 580.75804,474.75237 C 584.42924,475.55125 591.87914,479.32803 596.25444,482.60831 C 601.99274,486.91058 610.00714,494.61148 610.00714,495.82311 C 610.00714,496.50099 610.68214,497.61581 611.50714,498.3005 C 612.42044,499.05845 613.00714,501.24937 613.00714,503.9017 C 613.00714,507.55587 612.19144,509.37596 607.94644,515.19416 C 605.16294,519.00904 601.45044,522.85604 599.69644,523.74305 C 597.94234,524.63006 595.83214,525.74528 595.00714,526.22132 C 592.54504,527.64202 587.73684,529.63421 584.00714,530.77898 C 580.94034,531.72031 580.46934,532.30463 580.20134,535.50076 C 580.03314,537.5069 579.24564,539.68763 578.45134,540.34683 C 577.65704,541.00604 577.00714,542.59293 577.00714,543.87325 C 577.00714,545.15358 576.44394,546.56098 575.75554,547.00081 C 575.06714,547.44064 573.91084,548.9255 573.18604,550.3005 C 570.86494,554.70365 558.06754,562.31338 547.67554,565.46986 C 541.96924,567.20309 539.04944,567.4697 530.16714,567.06858 C 524.30414,566.80381 518.29834,566.01352 516.82094,565.31238 C 515.34354,564.61124 513.41524,564.31365 512.53594,564.65108 C 509.99484,565.62622 512.86754,570.10324 519.69064,575.80137 C 522.88974,578.47298 525.90444,580.99797 526.38994,581.41246 C 526.87544,581.82694 527.01334,582.84204 526.69634,583.66823 C 526.22694,584.8915 525.44214,584.98328 522.46974,584.16256 C 518.14344,582.968 517.87784,583.15921 517.08454,588.03946 C 516.74834,590.10803 516.03864,591.74087 515.50754,591.66798 C 514.97634,591.59509 511.53404,585.5775 507.85784,578.29554 C 501.23394,565.17444 495.26004,557.3005 491.92904,557.3005 C 489.48324,557.3005 475.62154,550.79901 469.12164,546.60327 C 466.03364,544.60999 459.23214,540.17571 454.00714,536.7493 C 443.30404,529.73048 438.81624,527.3005 436.55684,527.3005 C 433.21214,527.3005 435.28854,530.31224 440.75714,533.39272 C 443.91964,535.17418 452.13214,540.31054 459.00714,544.80686 C 465.88214,549.30318 472.52544,553.52255 473.76984,554.18323 C 475.59934,555.15447 475.83784,555.7484 475.01544,557.28513 C 474.21684,558.77723 474.63534,560.21913 476.96204,563.99314 C 485.32624,577.55956 486.91554,580.46474 490.31904,588.40821 C 494.77714,598.81288 494.88824,601.08216 491.11704,604.69527 C 485.61034,609.97102 481.24694,617.59136 479.47074,625.03467 C 477.79884,632.04091 477.80594,632.419 479.69484,637.03467 C 480.99014,640.19968 483.02914,642.80818 485.76514,644.8005 C 490.71484,648.40477 491.10634,650.72169 487.00714,652.15066 C 484.05434,653.18003 483.03264,655.58015 485.02344,656.81058 C 486.49904,657.72251 485.20584,659.3005 482.98294,659.3005 C 480.87784,659.3005 474.51974,654.12674 472.89574,651.09223 C 471.31374,648.13628 469.00714,638.59137 469.00734,635.00171 C 469.00754,631.07743 471.52754,617.6547 473.53004,610.91159 C 476.50694,600.88712 474.48504,586.45563 468.68084,576.3005 C 467.58064,574.3755 466.09054,571.65233 465.36964,570.24901 C 463.06674,565.76667 441.86394,546.3005 439.28454,546.3005 C 437.38154,546.3005 437.74084,549.38384 439.91804,551.73605 C 443.90854,556.04739 446.13314,565.87057 447.28254,584.2556 C 448.65614,606.2281 447.50954,621.63818 443.00084,641.8005 C 442.38594,644.5505 441.50734,649.10547 441.04854,651.92265 C 440.58974,654.73984 439.71774,657.97275 439.11074,659.10691 C 438.50384,660.24107 438.00714,661.93681 438.00714,662.87523 C 438.00714,664.43581 435.02524,671.67127 432.88644,675.3005 C 432.40024,676.1255 431.59614,677.73004 431.09964,678.86614 C 429.37264,682.8176 419.66124,692.44207 415.03614,694.78587 C 412.47614,696.08307 409.87084,697.75977 409.24674,698.51187 C 408.06254,699.93877 406.40704,705.74527 405.07864,713.13157 C 404.63954,715.57287 403.25414,718.49057 401.90344,719.81877 L 399.50714,722.17487 L 397.74414,719.78237 z M 387.50714,674.82934 C 392.46954,673.04157 399.82464,672.9326 409.02634,674.51051 L 416.08254,675.72053 L 418.59254,672.79955 C 420.29424,670.81911 421.00664,668.93958 420.80484,666.9624 C 420.55824,664.54682 419.73474,663.73432 416.00714,662.22923 C 410.13824,659.8595 387.92324,659.56187 384.00714,661.8005 C 380.85754,663.60101 377.57124,663.68507 376.17344,662.00089 C 375.58024,661.2861 374.79954,658.85404 374.43844,656.5963 C 373.87094,653.04733 374.07434,652.33494 375.93974,651.33662 C 379.87124,649.2325 402.11594,647.9914 415.12964,649.15007 C 421.69734,649.73482 427.73554,649.95825 428.54774,649.64657 C 431.10054,648.66696 431.37724,644.63538 429.14014,641.0156 C 424.59554,633.66225 425.12224,633.8005 401.65134,633.8005 C 383.66834,633.8005 380.13344,634.04746 378.00714,635.45234 C 376.63214,636.36085 374.10174,637.39657 372.38394,637.75395 C 368.65324,638.5301 368.15024,637.63888 367.32374,628.78784 C 366.90704,624.32549 367.11834,622.46512 368.13354,621.65647 C 372.60184,618.09752 409.82254,616.49188 424.73124,619.21494 C 428.70444,619.94065 432.64194,620.2709 433.48124,619.94884 C 434.69284,619.48389 435.00714,617.50825 435.00714,610.35756 L 435.00714,601.35186 L 431.80544,599.69618 C 427.04504,597.23447 416.77514,595.24968 405.46814,594.60616 C 393.49484,593.92473 380.31794,596.5337 371.42034,601.34746 C 364.86964,604.89155 364.59634,604.57687 365.18454,594.16687 C 365.66434,585.67655 367.65844,583.31272 374.36794,583.28083 C 376.64454,583.27 382.10714,582.6107 386.50714,581.81571 C 391.44704,580.92318 401.28344,580.35693 412.22204,580.33539 C 428.69314,580.30295 430.00944,580.1647 430.97204,578.36624 C 433.26324,574.08505 431.19844,565.6198 427.65724,564.77631 C 416.55054,562.13074 406.50214,561.61721 391.82634,562.94516 C 382.91934,563.75111 376.25784,563.95115 375.73504,563.42838 C 373.87024,561.56354 377.58124,558.272 383.99654,556.10063 C 389.15034,554.35627 393.18474,553.84918 403.35514,553.66745 C 410.42154,553.54118 416.42514,553.21587 416.69644,552.94455 C 418.04414,551.59689 415.50434,548.37766 411.76374,546.69228 C 406.97594,544.53507 392.26314,544.0348 389.89444,545.94867 C 389.13144,546.56516 387.13004,547.36353 385.44674,547.72284 C 381.45364,548.57524 372.67644,556.30235 369.45244,561.80372 C 368.05474,564.18869 365.75004,570.33863 364.33094,575.47026 C 361.84184,584.47135 361.77254,585.47077 362.36854,603.8005 C 362.99584,623.09531 364.23084,636.15432 365.95494,641.72162 C 366.47934,643.415 367.63664,647.7255 368.52674,651.3005 C 370.49754,659.2165 374.84934,668.3005 376.67074,668.3005 C 377.40574,668.3005 378.00714,668.71597 378.00714,669.22377 C 378.00714,669.98245 382.81034,676.33551 383.34604,676.28544 C 383.43464,676.27716 385.30714,675.62191 387.50714,674.82934 z M 271.72321,561.5505 C 273.80437,560.588 275.65714,559.463 275.84047,559.0505 C 276.47051,557.63292 280.79361,558.30166 281.41167,559.91232 C 281.91648,561.22781 282.90132,561.39445 286.76866,560.81873 C 289.37483,560.43076 291.96922,559.73368 292.53398,559.26967 C 293.09874,558.80567 297.14874,557.26785 301.53398,555.85231 C 308.99998,553.4423 312.70238,551.92927 319.16143,548.64865 C 320.62129,547.90717 322.47869,547.3005 323.28899,547.3005 C 324.09928,547.3005 325.32245,546.6255 326.00714,545.8005 C 326.69183,544.9755 328.11105,544.3005 329.16097,544.3005 C 330.21089,544.3005 331.32893,543.6255 331.64551,542.8005 C 331.9621,541.9755 333.04084,541.3005 334.04274,541.3005 C 335.04454,541.3005 336.53754,540.62725 337.36044,539.80438 C 338.18324,538.98152 339.90294,537.83719 341.18184,537.26144 C 346.95324,534.66325 355.52244,528.7319 360.74404,523.72116 C 365.36844,519.28356 365.44894,519.10706 363.50714,517.66361 C 361.61894,516.25994 361.60494,516.10427 363.25714,514.87843 C 365.60254,513.13831 365.47414,511.3005 363.00714,511.3005 C 361.89604,511.3005 361.00714,511.96717 361.00714,512.8005 C 361.00714,513.6255 360.31394,514.3005 359.46664,514.3005 C 358.01094,514.3005 353.17204,517.30719 350.21274,520.0505 C 349.47104,520.738 348.26954,521.3005 347.54274,521.3005 C 346.81584,521.3005 345.96214,521.9755 345.64554,522.8005 C 345.32894,523.6255 344.21084,524.3005 343.16094,524.3005 C 342.11104,524.3005 340.71584,524.94657 340.06044,525.73622 C 339.40514,526.52587 337.58114,527.45479 336.00714,527.8005 C 334.43314,528.14621 332.60914,529.07513 331.95379,529.86478 C 331.29844,530.65443 329.97245,531.3005 329.00714,531.3005 C 328.04183,531.3005 326.69183,531.9755 326.00714,532.8005 C 325.32245,533.6255 323.74745,534.3005 322.50714,534.3005 C 321.26683,534.3005 319.69183,534.9755 319.00714,535.8005 C 318.32245,536.6255 316.93401,537.3005 315.92172,537.3005 C 314.90942,537.3005 311.79786,538.2005 309.00714,539.3005 C 306.21642,540.4005 302.23976,541.3005 300.17012,541.3005 C 298.10048,541.3005 295.84553,541.863 295.15912,542.5505 C 294.28488,543.42613 288.75913,543.898 276.70912,544.12604 C 267.24803,544.30508 259.07964,544.86758 258.55714,545.37604 C 256.95104,546.93896 256.01921,546.40816 256.26893,544.07258 C 256.48599,542.04247 255.94463,541.78067 250.1713,541.12379 C 246.68659,540.72731 243.31159,539.98075 242.6713,539.46477 C 242.03101,538.94879 239.62055,538.21557 237.31471,537.83539 C 235.00887,537.45521 232.59127,536.50433 231.94226,535.72233 C 230.65642,534.17298 226.44152,533.78865 225.60365,535.14435 C 225.31681,535.60846 225.54031,537.6476 226.10031,539.67577 C 227.34485,544.18311 237.32289,554.69883 242.34717,556.79811 C 244.28494,557.60776 246.15271,558.72702 246.49778,559.28535 C 246.84284,559.84368 248.56112,560.33474 250.31616,560.37658 C 252.0712,560.41842 255.08214,561.05919 257.00714,561.8005 C 261.91569,563.69077 267.29294,563.59942 271.72321,561.5505 z M 281.27046,555.63678 C 279.58356,554.45832 275.34351,553.94345 264.02046,553.54211 C 255.76314,553.24944 249.00714,552.62534 249.00714,552.15524 C 249.00714,551.68513 251.38201,551.3005 254.28463,551.3005 C 257.55172,551.3005 260.45167,550.67744 261.89727,549.66491 C 263.81628,548.32078 265.50429,548.1666 271.36977,548.7997 C 275.29532,549.22342 282.07168,549.84694 286.42835,550.1853 C 290.8588,550.52939 294.51185,551.29339 294.71784,551.91896 C 294.92039,552.53412 293.15585,553.70713 290.79663,554.52566 C 288.43741,555.34419 285.83214,556.28062 285.00714,556.6066 C 284.18214,556.93259 282.50064,556.49617 281.27046,555.63678 z M 296.67018,549.24475 C 297.30984,548.60107 299.95658,547.8351 302.5518,547.54258 C 306.30102,547.11998 307.17585,547.29728 306.81017,548.40561 C 306.51008,549.31511 304.46343,549.90743 300.92854,550.10778 C 296.79152,550.34227 295.78267,550.13781 296.67018,549.24475 z M 307.60579,546.46011 C 306.85898,545.25176 309.31087,544.3005 313.17226,544.3005 C 317.46155,544.3005 316.25236,546.72388 311.77274,547.10533 C 309.80385,547.27298 307.92872,546.98263 307.60579,546.46011 z M 316.70099,543.66102 C 315.42504,542.38506 317.20092,541.3005 320.56616,541.3005 C 324.44489,541.3005 325.17547,542.75414 321.75714,543.67021 C 318.8384,544.45241 317.48993,544.44995 316.70099,543.66102 z M 325.4667,538.75522 C 327.60804,537.1361 329.16199,537.26506 329.77797,539.113 C 330.032,539.87508 328.97965,540.28911 326.84047,540.2687 C 323.67893,540.23853 323.60813,540.16053 325.4667,538.75522 z M 331.23149,536.12744 C 331.74273,534.59372 335.99174,534.30471 336.03824,535.8005 C 336.05534,536.3505 334.88124,536.94762 333.42924,537.12744 C 331.58492,537.35584 330.9225,537.05443 331.23149,536.12744 z M 337.22404,533.13465 C 337.46594,532.40087 338.69114,531.65013 339.94684,531.46635 C 341.49814,531.23931 342.08894,531.55985 341.79014,532.46635 C 341.54834,533.20013 340.32314,533.95087 339.06744,534.13465 C 337.51614,534.36169 336.92534,534.04115 337.22404,533.13465 z M 342.56504,530.52507 C 341.30904,529.26906 342.15464,528.3005 344.50714,528.3005 C 345.88214,528.3005 347.00714,528.69802 347.00714,529.18387 C 347.00714,530.23118 343.36944,531.3295 342.56504,530.52507 z M 348.00714,526.20688 C 348.00714,525.60539 348.87604,524.88605 349.93794,524.60834 C 350.99994,524.33063 352.11084,523.47276 352.40654,522.70196 C 353.03894,521.05405 356.00714,520.80027 356.00714,522.39412 C 356.00714,522.99561 355.10714,523.72309 354.00714,524.01075 C 352.90714,524.29841 352.00714,525.15628 352.00714,525.91713 C 352.00714,526.67798 351.10714,527.3005 350.00714,527.3005 C 348.90714,527.3005 348.00714,526.80837 348.00714,526.20688 z M 357.00714,519.3005 C 357.00714,518.7505 357.90714,518.3005 359.00714,518.3005 C 360.10714,518.3005 361.00714,518.7505 361.00714,519.3005 C 361.00714,519.8505 360.10714,520.3005 359.00714,520.3005 C 357.90714,520.3005 357.00714,519.8505 357.00714,519.3005 z M 547.00714,561.05327 C 560.37504,557.62159 570.15244,550.0827 574.38434,539.94427 C 575.26954,537.82334 575.74534,535.68584 575.44154,535.19427 C 574.62084,533.86638 571.17194,534.11121 568.16144,535.71107 C 563.43084,538.22503 552.47264,541.3005 548.24574,541.3005 C 543.52534,541.3005 542.29474,542.44517 544.56944,544.71988 C 546.01024,546.16071 545.97204,546.3005 544.13764,546.3005 C 543.03084,546.3005 541.84714,545.8505 541.50714,545.3005 C 541.14104,544.70809 534.69744,544.28261 525.69814,544.25661 C 515.08604,544.22594 509.30154,543.77835 506.50714,542.77166 C 504.30714,541.97909 500.93214,541.32106 499.00714,541.3094 C 497.08214,541.29773 494.29994,540.65836 492.82454,539.88859 C 491.34904,539.11882 488.64904,538.17742 486.82454,537.79659 C 484.99994,537.41576 482.60714,536.54453 481.50714,535.86053 C 480.40714,535.17652 478.26964,534.31212 476.75714,533.93964 C 475.24464,533.56715 474.00714,532.82097 474.00714,532.28145 C 474.00714,531.74193 473.38574,531.3005 472.62624,531.3005 C 471.86664,531.3005 467.47914,529.28253 462.87624,526.81613 C 458.27324,524.34972 453.49464,521.88586 452.25714,521.34088 C 451.01964,520.7959 450.00714,519.89744 450.00714,519.3443 C 450.00714,518.79117 448.91474,518.06442 447.57954,517.7293 C 446.24434,517.39419 444.90844,516.48562 444.61094,515.71025 C 444.31334,514.93489 443.31794,514.3005 442.39884,514.3005 C 441.47964,514.3005 440.18064,513.55238 439.51204,512.63802 C 438.79194,511.65325 437.62594,511.23281 436.65174,511.60664 C 434.40894,512.46731 434.58294,514.03107 437.00714,514.8005 C 439.65364,515.64045 439.54364,516.9163 436.75714,517.7003 C 434.65644,518.29137 434.62324,518.42253 436.25714,519.67718 C 437.21964,520.41627 438.00714,521.36977 438.00714,521.79607 C 438.00714,522.78185 442.84774,527.3005 443.90374,527.3005 C 444.34014,527.3005 445.51164,528.2005 446.50714,529.3005 C 447.50264,530.4005 448.92244,531.3005 449.66214,531.3005 C 450.40194,531.3005 451.00714,531.71782 451.00714,532.22788 C 451.00714,532.73794 453.36964,534.34587 456.25714,535.80106 C 459.14464,537.25625 463.30714,539.52994 465.50714,540.8537 C 467.70714,542.17747 470.18214,543.52701 471.00714,543.85268 C 471.83214,544.17835 473.18214,544.8652 474.00714,545.37902 C 474.83214,545.89283 476.18214,546.56405 477.00714,546.8706 C 478.63054,547.47381 483.71714,549.68393 488.50714,551.86728 C 491.93494,553.42972 498.87734,555.93718 504.00714,557.46561 C 505.93214,558.03917 507.96844,558.88272 508.53214,559.34018 C 509.09594,559.79764 511.90844,560.48382 514.78214,560.86504 C 519.22734,561.45471 520.00714,561.31505 520.00714,559.92933 C 520.00714,557.66074 521.96474,557.89271 527.09994,560.76981 C 532.02544,563.52951 537.08084,563.60149 547.00714,561.05327 z M 510.73814,555.00787 C 508.11524,553.85657 506.12564,552.43893 506.31684,551.85755 C 506.50804,551.27617 510.00404,550.52747 514.08584,550.19378 C 518.16754,549.86008 525.11584,549.23889 529.52644,548.81335 C 536.34634,548.15537 537.74814,548.2835 538.89894,549.67007 C 539.86894,550.8389 541.91614,551.3005 546.12964,551.3005 C 549.36224,551.3005 552.00714,551.68936 552.00714,552.16462 C 552.00714,552.63989 545.36964,553.24328 537.25714,553.50549 C 526.19814,553.86294 521.70634,554.39741 519.30684,555.64137 C 517.54664,556.55389 515.97164,557.25564 515.80684,557.20082 C 515.64204,557.146 513.36114,556.15917 510.73814,555.00787 z M 494.00714,548.8005 C 494.00714,547.18416 495.94334,546.93773 500.88214,547.9255 C 505.69814,548.8887 504.58354,550.3005 499.00714,550.3005 C 495.22944,550.3005 494.00714,549.93383 494.00714,548.8005 z M 485.67384,546.63383 C 484.32784,545.28787 485.06904,544.3005 487.42534,544.3005 C 490.48704,544.3005 493.00714,545.25179 493.00714,546.40749 C 493.00714,547.43731 486.67284,547.63282 485.67384,546.63383 z M 478.25714,543.65672 C 475.76464,542.61407 477.08534,541.18132 480.25714,541.48714 C 482.04464,541.65949 483.50714,542.2505 483.50714,542.8005 C 483.50714,543.91907 480.18114,544.46152 478.25714,543.65672 z M 470.70104,539.66102 C 469.81574,538.77573 470.86194,537.3005 472.37504,537.3005 C 473.06244,537.3005 474.49844,537.96119 475.56604,538.7687 C 477.40904,540.16269 477.35134,540.2385 474.42384,540.2687 C 472.72804,540.28619 471.05274,540.01273 470.70104,539.66102 z M 464.40344,535.89075 C 464.10594,535.11538 462.77004,534.20681 461.43484,533.8717 C 460.09964,533.53658 459.00714,532.82097 459.00714,532.28145 C 459.00714,530.76789 463.00124,531.1215 463.60244,532.68829 C 463.89534,533.45157 465.45624,534.34032 467.07114,534.66329 C 468.68594,534.98625 470.00714,535.71175 470.00714,536.2755 C 470.00714,537.83924 465.01974,537.4968 464.40344,535.89075 z M 455.25714,530.59217 C 453.92474,530.10361 453.49534,527.29005 454.75714,527.31581 C 455.16964,527.32423 456.17844,527.7555 456.99884,528.27417 C 458.72644,529.36638 457.25504,531.3247 455.25714,530.59217 z M 448.30684,525.97509 C 447.86704,525.24611 446.71964,524.36024 445.75714,524.00647 C 443.37334,523.13029 443.54234,521.3005 446.00714,521.3005 C 447.10714,521.3005 448.00714,521.92672 448.00714,522.69209 C 448.00714,523.45747 449.13214,524.36604 450.50714,524.71114 C 451.88214,525.05625 453.00714,525.78003 453.00714,526.31955 C 453.00714,527.78188 449.22994,527.50507 448.30684,525.97509 z M 440.50714,519.3005 C 440.16724,518.7505 440.81574,518.3005 441.94814,518.3005 C 443.08064,518.3005 444.00714,518.7505 444.00714,519.3005 C 444.00714,519.8505 443.35874,520.3005 442.56624,520.3005 C 441.77364,520.3005 440.84714,519.8505 440.50714,519.3005 z M 294.66469,539.24295 C 295.24634,538.6613 298.36739,537.9124 301.60034,537.57872 C 304.8333,537.24505 308.07954,536.37095 308.81422,535.63628 C 309.5489,534.9016 311.36773,534.3005 312.85606,534.3005 C 314.3444,534.3005 316.44976,533.68611 317.53463,532.9352 C 318.61951,532.18428 320.61115,531.22492 321.9605,530.80327 C 323.30985,530.38162 325.02949,529.42101 325.78193,528.66857 C 326.53437,527.91613 327.96275,527.3005 328.95612,527.3005 C 329.94949,527.3005 331.32245,526.6255 332.00714,525.8005 C 332.69184,524.9755 334.07034,524.3005 335.07054,524.3005 C 336.07074,524.3005 337.17144,523.84368 337.51654,523.28535 C 337.86154,522.72702 339.57564,521.60295 341.32554,520.78744 C 343.07544,519.97192 345.85714,518.41042 347.50714,517.31743 C 349.15714,516.22445 351.40714,514.86683 352.50714,514.3005 C 353.60714,513.73417 355.85714,512.38227 357.50714,511.29627 C 359.15714,510.21028 361.53724,508.78674 362.79614,508.13284 C 364.05514,507.47895 364.94404,506.23667 364.77154,505.37222 C 364.38674,503.44426 361.10964,503.75268 355.50714,506.24412 C 344.01414,511.35511 338.73984,512.27332 335.85684,509.66511 C 334.02304,508.00618 331.84943,507.78545 316.15144,507.66407 C 306.44707,507.58904 293.74331,507.40818 287.92085,507.26216 C 278.94069,507.03695 276.66492,507.31091 272.92085,509.06788 C 270.49331,510.20705 267.83214,511.39754 267.00714,511.71343 C 266.18214,512.02932 264.83214,512.70083 264.00714,513.20567 C 263.18214,513.71052 258.86881,514.89505 254.42197,515.83797 C 246.87817,517.43757 245.6981,517.44349 236.7981,515.92643 C 231.55182,515.03217 225.82796,514.3005 224.07841,514.3005 C 222.32886,514.3005 218.95834,513.41715 216.58835,512.3375 C 211.70684,510.11371 205.62061,503.78543 206.63723,501.99063 C 207.85963,499.83253 210.30246,497.3005 211.16213,497.3005 C 212.50182,497.3005 212.1428,501.08638 210.75714,501.57107 C 208.95839,502.20025 212.61252,506.05672 217.2502,508.42369 C 220.88055,510.27654 237.77141,512.75514 246.50714,512.71691 C 252.59952,512.69025 262.7437,510.59843 265.23176,508.85573 C 266.45297,508.00035 268.47703,507.3005 269.72965,507.3005 C 270.98227,507.3005 272.00714,506.89864 272.00714,506.40749 C 272.00714,505.22523 269.47608,504.30413 266.17535,504.28519 C 264.70784,504.27677 262.85561,503.85768 262.0593,503.3539 C 259.76167,501.9003 265.25115,500.93628 271.58622,501.68085 C 277.07404,502.32583 281.00714,501.08081 281.00714,498.69866 C 281.00714,497.37134 263.61435,496.14161 260.5266,497.25062 C 257.95249,498.17515 250.00714,497.37819 250.00714,496.19546 C 250.00714,495.70323 255.29464,495.20544 261.75714,495.08925 C 278.23335,494.79304 280.37907,494.9163 280.8014,496.18327 C 281.44446,498.11247 287.50896,497.40218 292.09986,494.85996 C 299.21786,490.91837 306.80125,487.3005 307.94521,487.3005 C 309.75385,487.3005 309.11182,485.30856 307.25714,485.16571 C 306.29464,485.09158 295.19466,484.97908 282.59051,484.91571 C 266.62513,484.83545 259.56036,484.45996 259.29962,483.67782 C 259.09378,483.06035 259.95626,482.279 261.21625,481.94148 C 264.92477,480.94806 313.00554,481.35658 319.00714,482.4325 C 322.03214,482.9748 329.23214,483.79464 335.00714,484.25437 C 340.78214,484.7141 346.70264,485.56046 348.16384,486.13517 C 354.97334,488.81337 370.63504,488.7103 369.74484,485.99314 C 369.15494,484.19267 363.52214,482.63238 352.99034,481.35215 C 347.77454,480.71813 343.07964,479.77214 342.55714,479.24994 C 342.03464,478.72775 338.82384,478.3005 335.42194,478.3005 C 332.02013,478.3005 327.04763,477.65992 324.37197,476.87699 C 321.69632,476.09406 315.23214,474.96084 310.00714,474.35872 C 304.78214,473.75661 297.35714,472.78774 293.50714,472.20569 C 283.93772,470.75897 240.8031,471.39117 238.85924,473.00664 C 238.06101,473.67002 235.40524,474.52396 232.95753,474.9043 C 230.50981,475.28463 227.61951,476.20437 226.53463,476.94816 C 225.44976,477.69195 223.76046,478.3005 222.78065,478.3005 C 219.03955,478.3005 206.45751,486.02096 199.59856,492.52524 C 192.61349,499.14912 192.50714,499.32657 192.50714,504.35716 C 192.50714,509.30691 192.69273,509.63907 198.52769,515.13242 C 201.839,518.24987 206.339,521.64303 208.52769,522.67278 C 210.71639,523.70253 213.78111,525.16503 215.33818,525.92278 C 216.89525,526.68053 218.93262,527.3005 219.86567,527.3005 C 220.79872,527.3005 222.44976,527.918 223.53463,528.67273 C 224.61951,529.42745 226.99995,530.36986 228.8245,530.76698 C 230.64905,531.16409 233.34905,532.11882 234.8245,532.88859 C 236.29995,533.65836 238.43363,534.29095 239.56601,534.29434 C 240.69839,534.29773 242.49839,534.96119 243.56601,535.7687 C 244.63363,536.5762 247.53214,537.25784 250.00714,537.28344 C 252.48214,537.30904 255.63214,537.95423 257.00714,538.71719 C 260.13737,540.45411 292.99479,540.91285 294.66469,539.24295 z M 284.75714,535.59477 C 285.99464,535.35641 288.01964,535.35641 289.25714,535.59477 C 290.49464,535.83312 289.48214,536.02814 287.00714,536.02814 C 284.53214,536.02814 283.51964,535.83312 284.75714,535.59477 z M 296.21317,533.53584 C 295.543,533.31245 295.24904,532.71811 295.55993,532.21509 C 296.28396,531.04358 300.71683,531.02175 301.43647,532.18615 C 302.04227,533.16636 298.13422,534.17619 296.21317,533.53584 z M 304.50714,529.3005 C 304.84706,528.7505 305.77362,528.3005 306.56616,528.3005 C 307.3587,528.3005 308.00714,528.7505 308.00714,529.3005 C 308.00714,529.8505 307.08058,530.3005 305.94812,530.3005 C 304.81566,530.3005 304.16722,529.8505 304.50714,529.3005 z M 249.25091,526.63614 C 248.55998,526.35759 248.24904,525.71811 248.55993,525.21509 C 249.66268,523.43079 272.00714,524.59789 272.00714,526.43979 C 272.00714,527.33988 251.43672,527.51738 249.25091,526.63614 z M 280.00714,526.43979 C 280.00714,525.48768 288.11128,524.3227 294.82857,524.30919 C 297.32608,524.30417 299.78309,523.6674 300.65,522.8005 C 301.475,521.9755 303.67049,521.3005 305.52888,521.3005 C 307.4069,521.3005 309.26297,520.66934 309.70745,519.87957 C 310.60771,518.27994 317.83584,515.34737 322.75714,514.58509 C 325.28608,514.19338 326.00714,514.43876 326.00714,515.69109 C 326.00714,516.60667 325.18647,517.3005 324.10353,517.3005 C 322.41455,517.3005 318.39121,520.2472 312.83921,525.5505 C 310.59396,527.69517 309.39988,527.76635 308.64551,525.8005 C 308.26917,524.81977 306.71137,524.3005 304.14551,524.3005 C 301.57965,524.3005 300.02186,524.81977 299.64551,525.8005 C 299.18958,526.98866 297.08838,527.3005 289.53852,527.3005 C 284.29626,527.3005 280.00714,526.91318 280.00714,526.43979 z M 240.00714,523.37737 C 236.7479,522.76291 236.66789,522.66225 238.84408,521.91403 C 241.95195,520.84547 248.93972,522.09765 246.93795,523.36442 C 245.38066,524.34992 245.16788,524.35031 240.00714,523.37737 z M 327.00714,512.8005 C 327.00714,511.68939 328.17381,511.3005 331.50714,511.3005 C 335.97024,511.3005 337.46574,512.52682 334.42534,513.69351 C 331.3344,514.87962 327.00714,514.3587 327.00714,512.8005 z M 237.25714,489.61117 C 238.21964,489.35965 239.79464,489.35965 240.75714,489.61117 C 241.71964,489.8627 240.93214,490.0685 239.00714,490.0685 C 237.08214,490.0685 236.29464,489.8627 237.25714,489.61117 z M 244.50714,486.3005 C 244.84706,485.7505 248.05017,485.3005 251.62517,485.3005 C 255.70386,485.3005 257.89495,485.67301 257.50714,486.3005 C 257.16722,486.8505 253.96411,487.3005 250.38911,487.3005 C 246.31042,487.3005 244.11933,486.92799 244.50714,486.3005 z M 541.66474,539.24295 C 542.24634,538.6613 545.37384,537.92033 548.61474,537.59636 C 551.85554,537.27238 555.39484,536.39828 556.47964,535.65391 C 557.56454,534.90953 559.58954,534.28523 560.97964,534.26657 C 562.36984,534.24791 565.30714,533.36318 567.50714,532.3005 C 569.70714,531.23782 572.05444,530.35309 572.72324,530.33443 C 573.39204,530.31577 575.64204,529.57565 577.72324,528.68973 C 579.80444,527.80381 583.08214,526.40863 585.00714,525.58933 C 593.26384,522.07521 597.55174,519.53843 602.13234,515.45783 C 604.81354,513.06936 607.00714,510.6298 607.00714,510.03657 C 607.00714,509.44335 607.72734,508.16223 608.60754,507.18965 C 610.08104,505.56138 610.03004,505.06539 607.96374,500.92807 C 606.72954,498.45679 603.87194,494.63953 601.61344,492.44528 C 596.64104,487.61417 587.17394,481.3005 584.90244,481.3005 C 583.99474,481.3005 582.69184,480.6255 582.00714,479.8005 C 581.32244,478.9755 579.88784,478.3005 578.81894,478.3005 C 577.75014,478.3005 575.89274,477.74912 574.69144,477.07522 C 573.49014,476.40131 570.25714,475.31756 567.50714,474.66689 C 564.75714,474.01622 560.70714,473.00333 558.50714,472.41603 C 553.58274,471.10143 512.66504,471.0781 505.00714,472.38553 C 501.98214,472.90199 494.78214,473.95609 489.00714,474.72798 C 483.23214,475.49986 476.70714,476.60872 474.50714,477.1921 C 472.30714,477.77548 467.72124,478.26352 464.31624,478.27664 C 460.91114,478.28976 457.86314,478.7245 457.54284,479.24272 C 457.22264,479.76094 454.83354,480.44791 452.23384,480.7693 C 434.02964,483.01989 428.36204,484.8942 432.07144,487.43714 C 433.87554,488.67384 449.21194,487.79644 452.01524,486.29616 C 453.15174,485.68797 459.12724,484.78196 465.29434,484.2828 C 471.46144,483.78365 478.75714,482.93525 481.50714,482.39748 C 486.96054,481.33107 536.08474,480.94677 539.79804,481.94148 C 541.05804,482.279 541.92044,483.06035 541.71454,483.67782 C 541.45364,484.45995 534.38874,484.83547 518.42364,484.91578 C 505.81954,484.97918 494.71964,485.09168 493.75714,485.16578 C 490.96564,485.38068 491.73224,487.0812 494.93804,487.78532 C 496.55004,488.13938 498.40514,489.07513 499.06054,489.86478 C 499.71584,490.65443 501.04184,491.3005 502.00714,491.3005 C 502.97244,491.3005 504.28584,491.93135 504.92574,492.70239 C 505.56564,493.47342 507.19574,494.382 508.54824,494.72144 C 509.90064,495.06088 511.00714,495.78003 511.00714,496.31955 C 511.00714,497.77727 517.74024,497.50674 520.29234,495.94648 C 521.97994,494.91479 525.78044,494.7043 536.25714,495.06231 C 543.81964,495.32072 550.00714,495.93004 550.00714,496.41633 C 550.00714,497.26463 543.57794,497.87442 541.50714,497.22253 C 539.32964,496.53702 521.45084,497.47204 520.59954,498.31594 C 520.05674,498.85404 520.19374,499.82035 520.94024,500.71983 C 521.94034,501.92495 523.73204,502.10488 529.95404,501.62508 C 535.16194,501.22348 537.94514,501.39112 538.40434,502.13405 C 539.07644,503.22164 537.20404,503.92883 532.08554,504.52055 C 528.32904,504.95481 528.52344,506.98717 532.39084,507.71271 C 534.29974,508.07082 536.00684,508.79111 536.18444,509.31334 C 536.63754,510.64631 553.87324,513.52695 557.50714,512.87707 C 559.15714,512.582 564.78214,511.86569 570.00714,511.28528 C 583.21214,509.81842 590.92404,505.91453 589.71904,501.30682 C 589.00314,498.56895 591.00084,497.57138 592.65884,499.83885 C 594.70144,502.63223 594.29334,504.95075 591.25714,507.80257 C 587.24754,511.56869 580.43254,514.3008 574.07494,514.69079 C 571.01264,514.87863 565.08314,515.61976 560.89814,516.33773 C 554.20124,517.48665 552.57494,517.44278 547.33254,515.97182 C 544.05644,515.05259 540.22304,514.3005 538.81404,514.3005 C 537.40494,514.3005 535.69184,513.6255 535.00714,512.8005 C 534.32244,511.9755 532.94394,511.3005 531.94374,511.3005 C 530.94354,511.3005 529.82994,510.82274 529.46904,510.23882 C 528.03844,507.92404 522.92224,507.14961 510.00714,507.29294 C 463.65674,507.8073 465.92434,507.69465 464.56674,509.5505 C 463.86274,510.513 462.38244,511.3005 461.27724,511.3005 C 458.91014,511.3005 447.80274,507.89619 443.50714,505.85413 C 441.85714,505.06974 439.71964,504.18842 438.75714,503.89562 C 437.79464,503.60283 437.00714,502.89915 437.00714,502.33188 C 437.00714,500.72802 445.27104,501.11771 450.13144,502.95078 C 453.81514,504.34007 459.12954,504.61251 483.73454,504.6734 C 504.07734,504.72375 513.30264,504.40499 514.08284,503.6248 C 515.29644,502.41123 515.35754,502.45281 503.58184,496.47246 C 499.97764,494.64204 496.77234,492.72954 496.45894,492.22246 C 496.14554,491.71538 494.99984,491.3005 493.91294,491.3005 C 492.82604,491.3005 490.77314,490.53805 489.35094,489.60617 C 485.85344,487.31452 460.73894,487.41176 452.87404,489.7474 C 449.99764,490.6016 444.91334,491.30739 441.57564,491.31581 C 433.32334,491.33664 432.33234,492.07618 434.48314,496.60867 C 435.41194,498.56595 436.02234,501.62277 435.83954,503.40162 C 435.50074,506.69876 436.23464,507.4584 443.50714,511.33762 C 449.82104,514.70548 451.00714,515.49902 451.00714,516.35507 C 451.00714,516.87505 451.65004,517.3005 452.43574,517.3005 C 453.22144,517.3005 454.46694,517.863 455.20354,518.5505 C 456.45384,519.71755 463.62514,523.47181 467.00714,524.72982 C 467.83214,525.03669 469.40714,525.8116 470.50714,526.45183 C 474.57714,528.82068 475.56224,529.3274 478.00714,530.30974 C 479.38214,530.86219 481.70164,531.98612 483.16144,532.80735 C 484.62134,533.62858 486.65874,534.3005 487.68894,534.3005 C 488.71924,534.3005 490.44984,534.90953 491.53464,535.65391 C 492.61954,536.39828 496.15874,537.27238 499.39964,537.59636 C 502.64044,537.92033 505.76794,538.6613 506.34964,539.24295 C 507.78264,540.67598 540.23174,540.67598 541.66474,539.24295 z M 510.78044,536.13921 C 510.01674,535.6545 511.20794,535.325 513.75714,535.31581 C 516.09464,535.30739 518.00714,535.47443 518.00714,535.687 C 518.00714,536.52251 511.97874,536.89973 510.78044,536.13921 z M 500.24234,533.51074 C 498.99664,533.31646 498.23574,532.73968 498.55134,532.22901 C 499.28264,531.04572 504.71114,531.01245 505.43694,532.18681 C 506.10874,533.27392 503.30534,533.98843 500.24234,533.51074 z M 493.00714,529.3005 C 491.83834,528.54512 492.11424,528.32775 494.25714,528.31581 C 495.76964,528.30739 497.00714,528.7505 497.00714,529.3005 C 497.00714,530.56491 494.96374,530.56491 493.00714,529.3005 z M 483.79654,522.3005 C 480.71114,519.5505 477.45714,517.3005 476.56554,517.3005 C 475.67394,517.3005 474.68534,516.6255 474.36884,515.8005 C 474.04604,514.95939 472.55834,514.3005 470.98194,514.3005 C 467.56464,514.3005 465.00714,513.39862 465.00714,512.19351 C 465.00714,510.60081 473.01744,511.16367 473.64554,512.8005 C 473.96214,513.6255 475.41054,514.30327 476.86414,514.30666 C 478.31784,514.31005 480.79614,514.98505 482.37144,515.80666 C 483.94684,516.62827 485.79864,517.3005 486.48664,517.3005 C 487.17454,517.3005 488.88164,518.2005 490.28004,519.3005 C 491.67844,520.4005 494.15904,521.3005 495.79244,521.3005 C 497.42584,521.3005 499.26724,521.90888 499.88434,522.65245 C 500.59954,523.51426 504.32174,524.2192 510.15114,524.59687 C 523.04384,525.43215 524.16854,527.3005 511.77864,527.3005 C 504.55324,527.3005 501.77564,526.92612 500.65004,525.8005 C 499.82504,524.9755 497.52874,524.3005 495.54724,524.3005 C 493.26724,524.3005 491.73304,524.85124 491.36884,525.8005 C 490.51294,528.03082 489.91654,527.75514 483.79654,522.3005 z M 528.63874,526.26893 C 529.88424,525.02345 549.05904,523.72269 551.63004,524.70927 C 555.54224,526.21054 550.37084,527.27006 539.05714,527.28519 C 531.19024,527.29571 527.92994,526.97769 528.63874,526.26893 z M 553.63424,523.50603 C 552.35924,521.44309 560.13324,520.44322 563.00714,522.3005 C 564.23434,523.09357 564.12064,523.27266 562.38214,523.28519 C 561.21344,523.29361 558.90554,523.57083 557.25344,523.90124 C 555.60144,524.23165 553.97274,524.05381 553.63424,523.50603 z M 559.00714,489.90749 C 559.00714,488.9365 561.82454,488.57162 563.09784,489.37771 C 564.12354,490.02701 563.75854,490.27404 561.75714,490.28519 C 560.24464,490.29361 559.00714,490.12364 559.00714,489.90749 z M 543.50714,486.3005 C 543.11914,485.67266 545.33014,485.3005 549.44814,485.3005 C 553.15414,485.3005 556.00714,485.73547 556.00714,486.3005 C 556.00714,486.85495 553.36014,487.3005 550.06624,487.3005 C 546.79864,487.3005 543.84714,486.8505 543.50714,486.3005 z M 413.31104,528.39026 C 424.93244,522.42813 430.25194,510.85244 427.96094,496.51114 C 426.12994,485.0497 418.62124,476.93957 406.98564,473.85576 C 400.86254,472.23294 400.07084,472.22925 394.02654,473.79547 C 388.10734,475.32929 381.54074,479.28348 378.26754,483.28504 C 371.64764,491.37795 369.91564,505.97203 374.49344,515.08628 C 378.83094,523.72205 385.65724,528.93526 394.50714,530.37072 C 400.20944,531.29562 409.56944,530.3098 413.31104,528.39026 z M 350.56124,502.82245 C 353.28144,501.99728 357.30714,501.3142 359.50714,501.30449 C 362.94284,501.28933 363.84084,500.79691 365.87204,497.81417 C 369.51304,492.46753 368.53594,491.65298 357.80824,491.09185 C 352.65494,490.8223 347.44184,490.06835 346.22374,489.41641 C 344.85744,488.6852 338.31534,488.15513 329.14806,488.03288 C 317.15924,487.87301 313.63209,488.15005 310.8972,489.46643 C 294.03247,497.58384 286.72737,501.63982 286.21758,503.16918 C 285.3836,505.67113 342.17924,505.36507 350.56124,502.82245 z M 378.00714,453.74148 C 378.00714,452.94894 377.33214,452.3005 376.50714,452.3005 C 375.00094,452.3005 374.45154,454.41149 375.64664,455.60665 C 376.57994,456.53989 378.00714,455.41213 378.00714,453.74148 z M 426.00714,455.88229 C 426.00714,455.65227 425.73404,454.75227 425.40014,453.88229 C 424.53064,451.61626 422.00714,451.92729 422.00714,454.3005 C 422.00714,455.63383 422.67384,456.3005 424.00714,456.3005 C 425.10714,456.3005 426.00714,456.1123 426.00714,455.88229 z "
       style="fill:black;fill-opacity:1"
       id="path1902" />
  </g>
</svg>
