<?xml version="1.0" encoding="UTF-8" standalone="no"?>
<!-- Created with Inkscape (http://www.inkscape.org/) -->
<svg xmlns:dc="http://purl.org/dc/elements/1.1/" xmlns:cc="http://creativecommons.org/ns#" xmlns:rdf="http://www.w3.org/1999/02/22-rdf-syntax-ns#" xmlns:svg="http://www.w3.org/2000/svg" xmlns="http://www.w3.org/2000/svg" xmlns:sodipodi="http://sodipodi.sourceforge.net/DTD/sodipodi-0.dtd" xmlns:inkscape="http://www.inkscape.org/namespaces/inkscape" width="779.85974" height="667.30902" id="svg2" sodipodi:version="0.32" inkscape:version="0.46" version="1.0" sodipodi:docbase="/home/aj/clipart" sodipodi:docname="toon-kiwi.svg" inkscape:output_extension="org.inkscape.output.svg.inkscape">
  <defs id="defs4">
    <inkscape:perspective sodipodi:type="inkscape:persp3d" inkscape:vp_x="0 : 372.04724 : 1" inkscape:vp_y="0 : 1000 : 0" inkscape:vp_z="1052.3622 : 372.04724 : 1" inkscape:persp3d-origin="526.18109 : 248.03149 : 1" id="perspective17"/>
  </defs>
  <sodipodi:namedview id="base" pagecolor="#ffffff" bordercolor="#666666" borderopacity="1.0" inkscape:pageopacity="0.0" inkscape:pageshadow="2" inkscape:zoom="0.175" inkscape:cx="615.15088" inkscape:cy="207.82884" inkscape:document-units="px" inkscape:current-layer="layer1" inkscape:window-width="1024" inkscape:window-height="703" inkscape:window-x="333" inkscape:window-y="205" showgrid="false"/>
  <metadata id="metadata7">
    <rdf:RDF>
      <cc:Work rdf:about="">
        <dc:format>image/svg+xml</dc:format>
        <dc:type rdf:resource="http://purl.org/dc/dcmitype/StillImage"/>
        <dc:creator>
          <cc:Agent>
            <dc:title>AJ Ashton</dc:title>
          </cc:Agent>
        </dc:creator>
        <dc:title>Kiwi</dc:title>
        <dc:subject>
          <rdf:Bag>
            <rdf:li>fruit</rdf:li>
            <rdf:li>kiwi</rdf:li>
            <rdf:li>cartoon</rdf:li>
          </rdf:Bag>
        </dc:subject>
        <cc:license rdf:resource="http://creativecommons.org/licenses/publicdomain/"/>
      </cc:Work>
      <cc:License rdf:about="http://creativecommons.org/licenses/publicdomain/">
        <cc:permits rdf:resource="http://creativecommons.org/ns#Reproduction"/>
        <cc:permits rdf:resource="http://creativecommons.org/ns#Distribution"/>
        <cc:permits rdf:resource="http://creativecommons.org/ns#DerivativeWorks"/>
      </cc:License>
    </rdf:RDF>
  </metadata>
  <g inkscape:label="Layer 1" inkscape:groupmode="layer" id="layer1" transform="translate(-136.251, -38.3927)">
    <path style="fill: rgb(120, 107, 22); fill-opacity: 1; fill-rule: evenodd; stroke: rgb(0, 0, 0); stroke-width: 25; stroke-linecap: butt; stroke-linejoin: miter; stroke-miterlimit: 4; stroke-dasharray: none; stroke-opacity: 1;" d="M 901.86317,342.20928 C 883.69961,483.20671 725.44021,579.85476 494.75461,536.56842 C 265.87961,493.62184 315.05139,42.24884 557.30404,51.018865 C 791.86202,59.510322 920.31102,199.00497 901.86317,342.20928 z" id="path1311" sodipodi:nodetypes="cssz"/>
    <path style="fill: rgb(120, 204, 0); fill-opacity: 1; fill-rule: evenodd; stroke: rgb(196, 240, 128); stroke-width: 12.5; stroke-linecap: butt; stroke-linejoin: miter; stroke-miterlimit: 4; stroke-dasharray: none; stroke-opacity: 1;" d="M 692.54605,310.24946 C 681.08306,445.7069 594.89045,513.25157 508.33225,502.13867 C 421.77404,491.02578 367.82972,395.05015 382.95753,278.0144 C 398.08536,160.97867 470.84323,78.915945 557.10104,92.146953 C 603.37792,99.245343 704.17769,172.79903 692.54605,310.24946 z" id="path1309" sodipodi:nodetypes="csssz"/>
    <path sodipodi:type="star" style="fill: rgb(211, 255, 124); fill-opacity: 0.833333; fill-rule: evenodd; stroke: none; stroke-width: 1.27707px; stroke-linecap: butt; stroke-linejoin: miter; stroke-opacity: 1;" id="path2188" sodipodi:sides="9" sodipodi:cx="296.98486" sodipodi:cy="585.67169" sodipodi:r1="112.01312" sodipodi:r2="56.006565" sodipodi:arg1="-1.5707963" sodipodi:arg2="-1.2217304" inkscape:flatsided="false" inkscape:rounded="0.28" inkscape:randomized="0.093" d="M 298.98456,478.79247 C 315.53645,476.72172 303.4734,525.53717 319.22639,533.2718 C 334.97938,541.00643 345.46935,496.79855 359.45722,508.45948 C 373.44509,520.12042 334.93503,540.10728 345.21886,554.625 C 355.50269,569.14272 406.46496,551.12946 410.68016,568.61704 C 414.89536,586.10462 348.17546,569.50663 346.80189,586.62997 C 345.42832,603.75332 402.13648,631.26844 391.1104,645.63569 C 380.08433,660.00295 344.77001,616.77977 330.718,628.26393 C 316.666,639.74808 345.866,682.42803 329.19146,689.59717 C 312.51692,696.7663 315.93789,640.56979 298.82004,639.18915 C 281.70219,637.80851 284.11834,701.7941 267.37973,697.19803 C 250.64112,692.60196 279.39262,634.5689 267.01857,621.59039 C 254.64453,608.61188 212.5858,660.62984 205.40652,643.96063 C 198.22723,627.29142 240.98022,608.48964 236.15573,591.49492 C 231.33124,574.50019 184.8179,588.49702 186.01836,570.33215 C 187.21881,552.16728 244.08286,574.70078 251.80533,559.39648 C 259.52779,544.09218 219.94838,512.11771 232.92085,500.44469 C 245.89333,488.77167 251.9489,539.10751 268.04767,531.46321 C 284.14644,523.81892 282.43266,480.86322 298.98456,478.79247 z" transform="matrix(0.639086, 0, 0, 1.04229, 321.17, -316.835)"/>
    <path transform="matrix(0.607323, 0, 0, 0.902666, 331.709, -235.858)" d="M 298.98456,478.79247 C 310.46435,477.35627 306.74276,494.901 318.55615,499.34654 C 330.36955,503.79209 349.75575,500.37188 359.45722,508.45948 C 369.15869,516.54708 365.50332,541.61575 371.30487,552.43245 C 377.10642,563.24916 407.75666,556.48829 410.68016,568.61704 C 413.60367,580.74579 386.91489,587.09885 384.98392,598.79348 C 383.05295,610.48812 398.75768,635.67109 391.1104,645.63569 C 383.46312,655.6003 353.44523,639.3996 344.6335,647.77651 C 335.82177,656.15341 340.75631,684.62491 329.19146,689.59717 C 317.62661,694.56942 311.41572,663.65177 299.10081,663.88308 C 286.7859,664.11439 278.98902,700.3857 267.37973,697.19803 C 255.77045,694.01037 251.42389,650.37703 242.86905,642.52433 C 234.31421,634.67164 210.38581,655.52178 205.40652,643.96063 C 200.42723,632.39948 225.85554,607.66326 223.2539,595.34321 C 220.65226,583.02317 185.18576,582.93064 186.01836,570.33215 C 186.85095,557.73366 211.21372,544.25294 216.40207,533.60686 C 221.59042,522.96079 223.92362,508.54067 232.92085,500.44469 C 241.91809,492.34871 246.46218,516.76774 257.46742,512.36648 C 268.47265,507.96521 287.50477,480.22866 298.98456,478.79247 z" inkscape:randomized="0.093" inkscape:rounded="0.28" inkscape:flatsided="false" sodipodi:arg2="-1.2217304" sodipodi:arg1="-1.5707963" sodipodi:r2="85.129974" sodipodi:r1="112.01312" sodipodi:cy="585.67169" sodipodi:cx="296.98486" sodipodi:sides="9" id="path2190" style="fill: none; fill-opacity: 0.833333; fill-rule: evenodd; stroke: rgb(0, 0, 0); stroke-width: 13.4493; stroke-linecap: round; stroke-linejoin: miter; stroke-miterlimit: 4; stroke-dasharray: 9.55396, 57.3238; stroke-dashoffset: 0pt; stroke-opacity: 1;" sodipodi:type="star"/>
    <path sodipodi:type="star" style="fill: none; fill-opacity: 0.833333; fill-rule: evenodd; stroke: rgb(0, 0, 0); stroke-width: 8.87615; stroke-linecap: round; stroke-linejoin: miter; stroke-miterlimit: 4; stroke-dasharray: 6.30535, 37.8321; stroke-dashoffset: 0pt; stroke-opacity: 1;" id="path2192" sodipodi:sides="9" sodipodi:cx="296.98486" sodipodi:cy="585.67169" sodipodi:r1="112.01312" sodipodi:r2="78.409187" sodipodi:arg1="-1.5707963" sodipodi:arg2="-1.2217304" inkscape:flatsided="false" inkscape:rounded="0.28" inkscape:randomized="0.077" d="M 298.64052,477.90922 C 311.18206,476.61225 320.05632,513.72259 331.98706,518.431 C 343.9178,523.13942 350.68721,498.2934 361.0965,506.9808 C 371.50578,515.66821 353.32562,534.19406 359.35199,546.3885 C 365.37837,558.58293 407.09261,555.12558 410.09799,568.20479 C 413.10336,581.284 371.10834,586.15035 368.42111,599.4212 C 365.73388,612.69205 399.57925,634.06605 391.606,644.95485 C 383.63275,655.84365 362.67431,642.64988 352.41836,651.01236 C 342.16242,659.37485 342.7146,684.608 330.24164,689.8264 C 317.76867,695.04481 311.41782,669.88781 298.60806,669.11117 C 285.7983,668.33453 278.39643,699.74428 265.88199,696.11959 C 253.36755,692.4949 264.0486,656.53372 253.2865,648.23307 C 242.52439,639.93243 210.06941,655.87522 204.47269,643.56796 C 198.87598,631.2607 221.41553,607.01711 220.082,594.26614 C 218.74847,581.51516 184.98487,583.13046 186.13106,569.62482 C 187.27725,556.11918 223.56999,550.53372 228.97525,538.21647 C 234.38052,525.89922 221.7755,509.0404 231.55541,500.3449 C 241.33533,491.6494 252.64448,513.0338 264.59985,508.09325 C 276.55523,503.15271 286.09899,479.20618 298.64052,477.90922 z" transform="matrix(-0.921976, 0.501924, 0.378542, 1.15906, 572.623, -533.462)"/>
    <path style="overflow: visible; marker: none; fill: rgb(120, 107, 22); fill-opacity: 1; fill-rule: evenodd; stroke: rgb(0, 0, 0); stroke-width: 25; stroke-linecap: butt; stroke-linejoin: miter; stroke-miterlimit: 4; stroke-dasharray: none; stroke-dashoffset: 0pt; stroke-opacity: 1; visibility: visible; display: inline;" d="M 370.97773,692.67914 C 218.49002,685.9423 145.29672,648.34865 148.87636,543.68219 C 151.20018,476.4237 263.84961,434.11818 395.79443,443.95152 C 527.73926,453.78486 617.70232,480.12579 615.14325,572.87063 C 613.31883,638.19281 525.709,699.51508 370.97773,692.67914 z" id="path2210" sodipodi:nodetypes="csssz"/>
    <path sodipodi:nodetypes="csssz" id="path2202" d="M 374.04417,618.48086 C 238.27405,613.49843 167.6403,571.18705 175.5898,528.29381 C 183.53929,485.40056 277.47438,458.21497 394.97068,465.10498 C 512.46698,471.995 597.11782,507.58368 587.0409,550.33905 C 581.63467,573.2771 511.8119,623.53658 374.04417,618.48086 z" style="fill: rgb(120, 204, 0); fill-opacity: 1; fill-rule: evenodd; stroke: rgb(196, 240, 128); stroke-width: 12.5; stroke-linecap: butt; stroke-linejoin: miter; stroke-miterlimit: 4; stroke-dasharray: none; stroke-opacity: 1;"/>
    <path transform="matrix(0.0232927, 0.316277, -1.04148, 0.0053128, 987.106, 431.495)" d="M 298.98456,478.79247 C 315.53645,476.72172 303.4734,525.53717 319.22639,533.2718 C 334.97938,541.00643 345.46935,496.79855 359.45722,508.45948 C 373.44509,520.12042 334.93503,540.10728 345.21886,554.625 C 355.50269,569.14272 406.46496,551.12946 410.68016,568.61704 C 414.89536,586.10462 348.17546,569.50663 346.80189,586.62997 C 345.42832,603.75332 402.13648,631.26844 391.1104,645.63569 C 380.08433,660.00295 344.77001,616.77977 330.718,628.26393 C 316.666,639.74808 345.866,682.42803 329.19146,689.59717 C 312.51692,696.7663 315.93789,640.56979 298.82004,639.18915 C 281.70219,637.80851 284.11834,701.7941 267.37973,697.19803 C 250.64112,692.60196 279.39262,634.5689 267.01857,621.59039 C 254.64453,608.61188 212.5858,660.62984 205.40652,643.96063 C 198.22723,627.29142 240.98022,608.48964 236.15573,591.49492 C 231.33124,574.50019 184.8179,588.49702 186.01836,570.33215 C 187.21881,552.16728 244.08286,574.70078 251.80533,559.39648 C 259.52779,544.09218 219.94838,512.11771 232.92085,500.44469 C 245.89333,488.77167 251.9489,539.10751 268.04767,531.46321 C 284.14644,523.81892 282.43266,480.86322 298.98456,478.79247 z" inkscape:randomized="0.093" inkscape:rounded="0.28" inkscape:flatsided="false" sodipodi:arg2="-1.2217304" sodipodi:arg1="-1.5707963" sodipodi:r2="56.006565" sodipodi:r1="112.01312" sodipodi:cy="585.67169" sodipodi:cx="296.98486" sodipodi:sides="9" id="path2204" style="fill: rgb(211, 255, 124); fill-opacity: 0.833333; fill-rule: evenodd; stroke: none; stroke-width: 1.27707px; stroke-linecap: butt; stroke-linejoin: miter; stroke-opacity: 1;" sodipodi:type="star"/>
    <path sodipodi:type="star" style="fill: none; fill-opacity: 0.833333; fill-rule: evenodd; stroke: rgb(0, 0, 0); stroke-width: 19.122; stroke-linecap: round; stroke-linejoin: miter; stroke-miterlimit: 4; stroke-dasharray: 13.5837, 81.502; stroke-dashoffset: 0pt; stroke-opacity: 1;" id="path2206" sodipodi:sides="9" sodipodi:cx="296.98486" sodipodi:cy="585.67169" sodipodi:r1="112.01312" sodipodi:r2="85.129974" sodipodi:arg1="-1.5707963" sodipodi:arg2="-1.2217304" inkscape:flatsided="false" inkscape:rounded="0.28" inkscape:randomized="0.093" d="M 298.98456,478.79247 C 310.46435,477.35627 306.74276,494.901 318.55615,499.34654 C 330.36955,503.79209 349.75575,500.37188 359.45722,508.45948 C 369.15869,516.54708 365.50332,541.61575 371.30487,552.43245 C 377.10642,563.24916 407.75666,556.48829 410.68016,568.61704 C 413.60367,580.74579 386.91489,587.09885 384.98392,598.79348 C 383.05295,610.48812 398.75768,635.67109 391.1104,645.63569 C 383.46312,655.6003 353.44523,639.3996 344.6335,647.77651 C 335.82177,656.15341 340.75631,684.62491 329.19146,689.59717 C 317.62661,694.56942 311.41572,663.65177 299.10081,663.88308 C 286.7859,664.11439 278.98902,700.3857 267.37973,697.19803 C 255.77045,694.01037 251.42389,650.37703 242.86905,642.52433 C 234.31421,634.67164 210.38581,655.52178 205.40652,643.96063 C 200.42723,632.39948 225.85554,607.66326 223.2539,595.34321 C 220.65226,583.02317 185.18576,582.93064 186.01836,570.33215 C 186.85095,557.73366 211.21372,544.25294 216.40207,533.60686 C 221.59042,522.96079 223.92362,508.54067 232.92085,500.44469 C 241.91809,492.34871 246.46218,516.76774 257.46742,512.36648 C 268.47265,507.96521 287.50477,480.22866 298.98456,478.79247 z" transform="matrix(0.022135, 0.300557, -0.901966, 0.00460109, 906.576, 437.124)"/>
    <path transform="matrix(-0.535138, -0.453715, -1.14436, 0.193243, 1212.73, 554.832)" d="M 298.64052,477.90922 C 311.18206,476.61225 320.05632,513.72259 331.98706,518.431 C 343.9178,523.13942 350.68721,498.2934 361.0965,506.9808 C 371.50578,515.66821 353.32562,534.19406 359.35199,546.3885 C 365.37837,558.58293 407.09261,555.12558 410.09799,568.20479 C 413.10336,581.284 371.10834,586.15035 368.42111,599.4212 C 365.73388,612.69205 399.57925,634.06605 391.606,644.95485 C 383.63275,655.84365 362.67431,642.64988 352.41836,651.01236 C 342.16242,659.37485 342.7146,684.608 330.24164,689.8264 C 317.76867,695.04481 311.41782,669.88781 298.60806,669.11117 C 285.7983,668.33453 278.39643,699.74428 265.88199,696.11959 C 253.36755,692.4949 264.0486,656.53372 253.2865,648.23307 C 242.52439,639.93243 210.06941,655.87522 204.47269,643.56796 C 198.87598,631.2607 221.41553,607.01711 220.082,594.26614 C 218.74847,581.51516 184.98487,583.13046 186.13106,569.62482 C 187.27725,556.11918 223.56999,550.53372 228.97525,538.21647 C 234.38052,525.89922 221.7755,509.0404 231.55541,500.3449 C 241.33533,491.6494 252.64448,513.0338 264.59985,508.09325 C 276.55523,503.15271 286.09899,479.20618 298.64052,477.90922 z" inkscape:randomized="0.077" inkscape:rounded="0.28" inkscape:flatsided="false" sodipodi:arg2="-1.2217304" sodipodi:arg1="-1.5707963" sodipodi:r2="78.409187" sodipodi:r1="112.01312" sodipodi:cy="585.67169" sodipodi:cx="296.98486" sodipodi:sides="9" id="path2208" style="fill: none; fill-opacity: 0.833333; fill-rule: evenodd; stroke: rgb(0, 0, 0); stroke-width: 12.62; stroke-linecap: round; stroke-linejoin: miter; stroke-miterlimit: 4; stroke-dasharray: 8.96484, 53.789; stroke-dashoffset: 0pt; stroke-opacity: 1;" sodipodi:type="star"/>
  </g>
</svg>