<?xml version="1.0" encoding="UTF-8" standalone="no"?>
<!-- Created with Inkscape (http://www.inkscape.org/) -->
<svg xmlns:dc="http://purl.org/dc/elements/1.1/" xmlns:cc="http://web.resource.org/cc/" xmlns:rdf="http://www.w3.org/1999/02/22-rdf-syntax-ns#" xmlns:svg="http://www.w3.org/2000/svg" xmlns="http://www.w3.org/2000/svg" xmlns:sodipodi="http://sodipodi.sourceforge.net/DTD/sodipodi-0.dtd" xmlns:inkscape="http://www.inkscape.org/namespaces/inkscape" width="536.62451" height="512.40833" id="svg14923" sodipodi:version="0.32" inkscape:version="0.45.1" version="1.0" sodipodi:docbase="C:\Documents and Settings\Owner\Desktop" sodipodi:docname="Screwdriver No Shadow.svg" inkscape:output_extension="org.inkscape.output.svg.inkscape" inkscape:export-filename="C:\Documents and Settings\Owner\Desktop\Screwdriver.png" inkscape:export-xdpi="300" inkscape:export-ydpi="300">
  <defs id="defs14925">
    <filter inkscape:collect="always" id="filter17009">
      <feGaussianBlur inkscape:collect="always" stdDeviation="7.8079598" id="feGaussianBlur17011"/>
    </filter>
  </defs>
  <sodipodi:namedview id="base" pagecolor="#ffffff" bordercolor="#666666" borderopacity="1.0" gridtolerance="10000" guidetolerance="10" objecttolerance="10" inkscape:pageopacity="0.0" inkscape:pageshadow="2" inkscape:zoom="0.77682927" inkscape:cx="338.57143" inkscape:cy="230.78621" inkscape:document-units="px" inkscape:current-layer="layer1" inkscape:window-width="988" inkscape:window-height="742" inkscape:window-x="28" inkscape:window-y="0"/>
  <metadata id="metadata14928">
    <rdf:RDF>
      <cc:Work rdf:about="">
        <dc:format>image/svg+xml</dc:format>
        <dc:type rdf:resource="http://purl.org/dc/dcmitype/StillImage"/>
      </cc:Work>
    </rdf:RDF>
  </metadata>
  <g inkscape:label="Layer 1" inkscape:groupmode="layer" id="layer1" transform="translate(-108.831, -279.015)">
    <path style="fill: rgb(0, 0, 0); fill-rule: evenodd; stroke: rgb(0, 0, 0); stroke-width: 1.25; stroke-linecap: round; stroke-linejoin: round; stroke-miterlimit: 4; stroke-dasharray: none; stroke-opacity: 1;" d="M 372.46444,526.62946 L 360.0686,506.68832 L 357.9128,492.13668 L 370.84759,481.89663 C 400.23248,476.31201 423.01395,456.92024 436.59946,418.30056 L 578.8822,283.02418 C 616.85397,266.20138 650.24637,316.38922 644.09507,342.30865 L 503.42923,479.20189 C 457.20298,495.74052 437.0595,518.36512 433.90471,544.95376 L 421.50887,556.2717 L 405.87933,555.73275 L 386.47713,542.25901 L 372.46444,526.62946 z " id="path2223" sodipodi:nodetypes="ccccccccccccc"/>
    <path style="fill: rgb(51, 51, 51); fill-rule: evenodd; stroke: rgb(0, 0, 0); stroke-width: 1.25; stroke-linecap: round; stroke-linejoin: round; stroke-miterlimit: 4; stroke-dasharray: none; stroke-opacity: 1;" d="M 594.53827,279.64082 C 589.47684,279.61004 584.2218,280.65011 578.88202,283.01582 L 436.60077,418.29707 C 423.01526,456.91675 400.23565,476.30621 370.85077,481.89082 L 357.91327,492.14082 L 360.06952,506.70332 L 372.47577,526.64082 L 380.50702,535.60957 L 403.17753,499.08211 C 433.5018,486.46277 450.78275,462.98393 471.58876,438.66251 L 627.47577,296.04707 C 618.68497,286.52779 607.20625,279.71785 594.53827,279.64082 z " id="path6171" sodipodi:nodetypes="cccccccccccc"/>
    <path style="fill: rgb(255, 204, 0); fill-rule: evenodd; stroke: none; stroke-width: 1.25; stroke-linecap: round; stroke-linejoin: round; stroke-miterlimit: 4; stroke-dasharray: none; stroke-opacity: 1;" d="M 606.81952,285.73457 C 604.63575,285.67428 602.46602,286.00665 600.44452,286.79707 L 455.47577,424.76582 C 444.92092,436.76354 441.15032,446.24199 441.91327,452.32832 C 443.33244,463.64926 460.36671,463.22641 478.16327,445.35957 L 624.69447,306.20332 C 628.71497,298.39265 621.93137,290.0821 613.28827,286.98457 C 611.19591,286.2347 609.00329,285.79486 606.81952,285.73457 z M 406.00702,484.32832 C 401.99253,484.31857 397.04413,484.86515 391.31952,485.67207 L 376.42385,498.51053 C 378.04543,505.85017 388.28394,520.4644 398.35077,520.45332 L 413.41327,507.23457 C 421.76082,489.37844 418.05049,484.35757 406.00702,484.32832 z " id="path2225" sodipodi:nodetypes="cccsccsccccccc"/>
    <path style="fill: rgb(51, 51, 51); fill-rule: evenodd; stroke: rgb(0, 0, 0); stroke-width: 1.25; stroke-linecap: round; stroke-linejoin: round; stroke-miterlimit: 4; stroke-dasharray: none; stroke-opacity: 1;" d="M 637.62767,315.90011 L 468.71894,477.80255 L 472.49158,486.20823 L 640.97617,324.89019 L 637.62767,315.90011 z " id="path2227" sodipodi:nodetypes="ccccc"/>
    <path style="fill: rgb(77, 77, 77); fill-rule: evenodd; stroke: rgb(0, 0, 0); stroke-width: 1.25; stroke-linecap: round; stroke-linejoin: round; stroke-miterlimit: 4; stroke-dasharray: none; stroke-opacity: 1;" d="M 640.86137,324.52331 L 641.40037,341.7697 L 501.81238,474.89029 C 492.76378,476.34616 482.71084,480.33344 472.2275,486.09352 L 640.86137,324.52331 z " id="path2229" sodipodi:nodetypes="ccccc"/>
    <path style="fill: rgb(51, 51, 51); fill-rule: evenodd; stroke: rgb(0, 0, 0); stroke-width: 1.25; stroke-linecap: round; stroke-linejoin: round; stroke-miterlimit: 4; stroke-dasharray: none; stroke-opacity: 1;" d="M 406.41827,537.40846 L 434.44366,510.46097 L 437.67736,518.00627 L 410.72987,543.87586 L 406.41827,537.40846 z " id="path2233" sodipodi:nodetypes="ccccc"/>
    <path style="fill: rgb(77, 77, 77); fill-rule: evenodd; stroke: rgb(0, 0, 0); stroke-width: 1.25; stroke-linecap: round; stroke-linejoin: round; stroke-miterlimit: 4; stroke-dasharray: none; stroke-opacity: 1;" d="M 437.56378,518.6588 L 429.89526,541.30433 L 422.27497,548.38567 L 410.72987,543.56406 L 437.56378,518.6588 z " id="path2235" sodipodi:nodetypes="ccccc"/>
    <path style="fill: rgb(26, 26, 26); fill-rule: evenodd; stroke: rgb(0, 0, 0); stroke-width: 1.25; stroke-linecap: round; stroke-linejoin: round; stroke-miterlimit: 4; stroke-dasharray: none; stroke-opacity: 1;" d="M 468.3975,477.95192 L 489.41654,452.79335 L 632.23817,317.51696 L 638.16667,315.36116 L 468.3975,477.95192 z " id="path2237" sodipodi:nodetypes="ccccc"/>
    <path style="fill: rgb(255, 255, 255); fill-rule: evenodd; stroke: rgb(0, 0, 0); stroke-width: 1.25; stroke-linecap: round; stroke-linejoin: round; stroke-miterlimit: 4; stroke-dasharray: none; stroke-opacity: 1;" d="M 406.95722,536.33056 C 406.95722,536.15091 406.95722,535.97126 406.95722,536.33056 z " id="path2239"/>
    <path style="fill: rgb(26, 26, 26); fill-rule: evenodd; stroke: rgb(0, 0, 0); stroke-width: 1.25; stroke-linecap: round; stroke-linejoin: round; stroke-miterlimit: 4; stroke-dasharray: none; stroke-opacity: 1;" d="M 419.88238,519.62312 L 413.09353,526.41195 L 406.21042,536.85987 L 433.90471,510.99992 L 419.88238,519.62312 z " id="path2241" sodipodi:nodetypes="ccccc"/>
    <path style="fill: rgb(128, 128, 128); fill-rule: evenodd; stroke: rgb(0, 0, 0); stroke-width: 1.25; stroke-linecap: round; stroke-linejoin: round; stroke-miterlimit: 4; stroke-dasharray: none; stroke-opacity: 1;" d="M 366.53599,493.75353 L 381.63623,481.46161 L 371.92549,484.59138 L 361.1465,494.29248 L 365.99704,500.75988 L 366.53599,493.75353 z " id="path2243" sodipodi:nodetypes="cccccc"/>
    <path style="fill: rgb(128, 128, 128); fill-rule: evenodd; stroke: rgb(0, 0, 0); stroke-width: 1.25; stroke-linecap: round; stroke-linejoin: round; stroke-miterlimit: 4; stroke-dasharray: none; stroke-opacity: 1;" d="M 432.5591,438.91097 L 448.45636,419.37846 L 591.81699,281.94628 L 580.49905,284.10207 L 438.75526,418.83951 L 432.5591,438.91097 z " id="path2245" sodipodi:nodetypes="cccccc"/>
    <path style="fill: rgb(26, 26, 26); fill-rule: evenodd; stroke: none; stroke-width: 1.25; stroke-linecap: round; stroke-linejoin: round; stroke-miterlimit: 4; stroke-dasharray: none; stroke-opacity: 1;" d="M 362.07054,506.50894 C 369.10062,492.72149 415.75982,548.81117 411.42969,554.03204 C 402.23725,561.61752 359.15482,513.47899 362.07054,506.50894 z " id="path4185" sodipodi:nodetypes="ccc"/>
    <path sodipodi:nodetypes="ccc" id="path4187" d="M 373.50306,516.14884 C 377.11148,509.1786 401.06095,537.53462 398.83836,540.17403 C 394.12002,544.00886 372.00646,519.67251 373.50306,516.14884 z " style="fill: rgb(0, 0, 0); fill-rule: evenodd; stroke: rgb(0, 0, 0); stroke-width: 1.39703; stroke-linecap: round; stroke-linejoin: round; stroke-miterlimit: 4; stroke-dasharray: none; stroke-opacity: 1;"/>
    <path style="opacity: 1; fill: rgb(249, 249, 249); fill-rule: evenodd; stroke: rgb(0, 0, 0); stroke-width: 1.25; stroke-linecap: round; stroke-linejoin: round; stroke-miterlimit: 4; stroke-dasharray: none; stroke-opacity: 1;" d="M 379.21479,519.75102 L 118.97648,764.75586 L 109.45557,783.79769 L 112.48698,788.98477 L 116.61037,790.79851 L 137.38358,781.89351 L 395.04809,536.52366 C 396.37545,534.43041 381.8937,516.61402 379.21479,519.75102 z " id="path4189" sodipodi:nodetypes="cccccccc"/>
    <path style="fill: rgb(153, 153, 153); fill-rule: evenodd; stroke: none; stroke-width: 1px; stroke-linecap: butt; stroke-linejoin: miter; stroke-opacity: 1;" d="M 387.36495,525.85755 L 127.22794,773.00732 L 112.6292,788.87551 L 116.84227,790.41756 L 137.46634,781.18333 L 394.13871,536.44406 C 393.93386,532.49039 390.26601,528.7688 387.36495,525.85755 z " id="path12014" sodipodi:nodetypes="ccccccc"/>
    <path style="fill: rgb(128, 128, 128); fill-rule: evenodd; stroke: none; stroke-width: 1px; stroke-linecap: butt; stroke-linejoin: miter; stroke-opacity: 1;" d="M 393.38053,533.81053 L 135.06948,778.67534 L 136.63082,773.47089 L 123.5186,771.12693 L 119.32461,765.13234 L 109.81052,783.79884 L 112.80611,788.74914 L 116.69204,789.88229 L 136.8275,781.55518 L 394.49813,536.15683 C 394.26311,535.30597 394.05666,534.44083 393.38053,533.81053 z " id="path7152" sodipodi:nodetypes="ccccccccccc"/>
    <path style="fill: rgb(179, 179, 179); fill-rule: evenodd; stroke: rgb(0, 0, 0); stroke-width: 1.25; stroke-linecap: round; stroke-linejoin: round; stroke-miterlimit: 4; stroke-dasharray: none; stroke-opacity: 1;" d="M 146.93194,762.53524 L 141.14312,764.84463 L 128.82585,777.1619 L 117.24762,787.01571 L 118.38289,788.27475 L 134.73814,780.11804 L 147.30175,768.78616 L 141.88216,769.5252 L 146.93194,762.53524 z " id="path5168" sodipodi:nodetypes="ccccccccc"/>
    <path style="fill: rgb(236, 236, 236); fill-rule: evenodd; stroke: rgb(0, 0, 0); stroke-width: 1.25; stroke-linecap: round; stroke-linejoin: round; stroke-miterlimit: 4; stroke-dasharray: none; stroke-opacity: 1;" d="M 141.49717,769.6176 L 136.46256,770.01789 L 141.38946,765.09098 L 146.99363,762.84319 L 141.49717,769.6176 z " id="path5175" sodipodi:nodetypes="ccccc"/>
    <path style="opacity: 1; fill: rgb(204, 204, 204); fill-rule: evenodd; stroke: none; stroke-width: 1px; stroke-linecap: butt; stroke-linejoin: miter; stroke-opacity: 1;" d="M 123.49411,771.49142 L 385.50148,523.92343 C 386.84923,525.25589 387.98619,527.30881 389.37329,528.77907 L 128.78345,776.07204 L 127.11883,772.85926 L 123.49411,771.49142 z " id="path6181" sodipodi:nodetypes="cccccc"/>
    <path style="opacity: 0.41; fill: rgb(153, 153, 153); fill-rule: evenodd; stroke: none; stroke-width: 1px; stroke-linecap: butt; stroke-linejoin: miter; stroke-opacity: 1;" d="M 374.99436,523.13713 C 382.15503,529.0355 387.0109,541.1792 373.95347,558.0069 L 394.2508,536.14824 C 391.80338,528.20275 385.49875,523.1586 380.1988,518.97357 L 374.99436,523.13713 z " id="path8123" sodipodi:nodetypes="ccccc"/>
    <path style="fill: rgb(204, 204, 204); fill-rule: evenodd; stroke: rgb(0, 0, 0); stroke-width: 1.25; stroke-linecap: round; stroke-linejoin: round; stroke-miterlimit: 4; stroke-dasharray: none; stroke-opacity: 1;" d="M 139.01829,754.22145 L 135.96987,759.91773 L 122.91357,771.49596 L 113.55244,783.81322 L 111.33534,783.07419 L 120.20377,765.58367 L 134.73814,752.03468 L 132.27469,758.19331 L 139.01829,754.22145 z " id="path5160" sodipodi:nodetypes="ccccccccc"/>
    <path style="fill: rgb(128, 128, 128); fill-rule: evenodd; stroke: rgb(0, 0, 0); stroke-width: 1.25; stroke-linecap: round; stroke-linejoin: round; stroke-miterlimit: 4; stroke-dasharray: none; stroke-opacity: 1;" d="M 132.02834,758.43966 L 132.52103,762.87387 L 136.46256,759.67138 L 138.64873,754.34467 L 132.02834,758.43966 z " id="path5166" sodipodi:nodetypes="ccccc"/>
    <path style="fill: rgb(255, 212, 42); fill-rule: evenodd; stroke: none; stroke-width: 1.25; stroke-linecap: round; stroke-linejoin: round; stroke-miterlimit: 4; stroke-dasharray: none; stroke-opacity: 1;" d="M 621.88197,292.48457 L 445.00702,458.04707 C 450.92654,462.59991 464.30363,459.27394 478.16327,445.35957 L 624.69447,306.20332 C 627.17987,301.3749 625.54117,296.34544 621.88197,292.48457 z M 414.94452,486.20332 L 385.60077,513.67207 C 389.3761,517.53484 393.86701,520.45826 398.35077,520.45332 L 413.41327,507.23457 C 419.06067,495.15429 419.1815,488.96302 414.94452,486.20332 z " id="path11033"/>
    <path style="fill: rgb(212, 170, 0); fill-rule: evenodd; stroke: none; stroke-width: 1.25; stroke-linecap: round; stroke-linejoin: round; stroke-miterlimit: 4; stroke-dasharray: none; stroke-opacity: 1;" d="M 606.81952,285.73457 C 604.63575,285.67428 602.46602,286.00665 600.44452,286.79707 L 455.47577,424.76582 C 448.62401,432.55423 444.66289,439.27695 442.91327,444.70332 L 610.94452,286.29707 C 609.58492,285.97334 608.19959,285.77267 606.81952,285.73457 z M 400.56952,484.60957 C 397.76759,484.8437 394.69273,485.19659 391.31952,485.67207 L 376.41327,498.51582 C 376.8095,500.30927 377.74127,502.54819 379.03827,504.89082 L 400.56952,484.60957 z " id="path11038"/>
  </g>
</svg>