<?xml version="1.0" encoding="UTF-8" standalone="no"?>
<!-- Created with Inkscape (http://www.inkscape.org/) -->
<svg
   xmlns:dc="http://purl.org/dc/elements/1.1/"
   xmlns:cc="http://creativecommons.org/ns#"
   xmlns:rdf="http://www.w3.org/1999/02/22-rdf-syntax-ns#"
   xmlns:svg="http://www.w3.org/2000/svg"
   xmlns="http://www.w3.org/2000/svg"
   xmlns:sodipodi="http://sodipodi.sourceforge.net/DTD/sodipodi-0.dtd"
   xmlns:inkscape="http://www.inkscape.org/namespaces/inkscape"
   width="671.61261"
   height="582.52112"
   id="svg2"
   sodipodi:version="0.32"
   inkscape:version="0.46"
   version="1.0"
   sodipodi:docbase="/home/evans/Desktop"
   sodipodi:docname="BigRedSmile_A_Cartoon_Dinosaur.svg"
   inkscape:output_extension="org.inkscape.output.svg.inkscape"
   sodipodi:modified="true">
  <defs
     id="defs4">
    <inkscape:perspective
       sodipodi:type="inkscape:persp3d"
       inkscape:vp_x="0 : 291.26056 : 1"
       inkscape:vp_y="0 : 1000 : 0"
       inkscape:vp_z="671.61261 : 291.26056 : 1"
       inkscape:persp3d-origin="335.8063 : 194.17371 : 1"
       id="perspective74" />
    <filter
       inkscape:collect="always"
       id="filter12090">
      <feGaussianBlur
         inkscape:collect="always"
         stdDeviation="6.9553876"
         id="feGaussianBlur12092" />
    </filter>
  </defs>
  <sodipodi:namedview
     id="base"
     pagecolor="#ffffff"
     bordercolor="#666666"
     borderopacity="1.0"
     gridtolerance="10000"
     guidetolerance="10"
     objecttolerance="10"
     inkscape:pageopacity="0.0"
     inkscape:pageshadow="2"
     inkscape:zoom="0.81885443"
     inkscape:cx="335.8063"
     inkscape:cy="291.26056"
     inkscape:document-units="px"
     inkscape:current-layer="layer1"
     width="700px"
     height="700px"
     inkscape:window-width="1920"
     inkscape:window-height="992"
     inkscape:window-x="0"
     inkscape:window-y="0"
     showguides="true"
     inkscape:guide-bbox="true"
     inkscape:showpageshadow="false"
     showgrid="false" />
  <metadata
     id="metadata7">
    <rdf:RDF>
      <cc:Work
         rdf:about="">
        <dc:format>image/svg+xml</dc:format>
        <dc:type
           rdf:resource="http://purl.org/dc/dcmitype/StillImage" />
      </cc:Work>
    </rdf:RDF>
  </metadata>
  <g
     inkscape:label="Layer 1"
     inkscape:groupmode="layer"
     id="layer1"
     transform="translate(-25.1284, -51.2314)">
    <g
       id="g11029"
       transform="matrix(0.854309, 0, 0, 0.854309, -119.386, 33.7229)"
       style="opacity: 0.3; fill: rgb(0, 0, 0); stroke: rgb(0, 0, 0); stroke-width: 3.6; stroke-miterlimit: 4; stroke-dasharray: none; stroke-opacity: 1; filter: url(#filter12090);">
      <path
         style="fill: rgb(0, 0, 0); fill-rule: evenodd; stroke: rgb(0, 0, 0); stroke-width: 3.6; stroke-linecap: butt; stroke-linejoin: miter; stroke-miterlimit: 4; stroke-dasharray: none; stroke-opacity: 1;"
         d="M 357.04294,281.61976 C 323.95247,282.36739 293.35538,290.44764 265.46245,306.48036 C 249.54335,316.02679 241.38273,330.64352 233.05705,345.15239 L 228.83026,374.15641 L 244.32849,356.20154 L 247.14635,386.58671 L 259.82673,363.10726 L 265.46245,379.68099 L 272.5071,334.10323 C 311.01787,322.35286 349.52864,323.7908 388.0394,318.91065 L 357.04294,281.61976 z "
         id="path11031"
         sodipodi:nodetypes="ccccccccccc" />
      <path
         style="fill: rgb(0, 0, 0); fill-rule: evenodd; stroke: rgb(0, 0, 0); stroke-width: 3.6; stroke-linecap: butt; stroke-linejoin: miter; stroke-miterlimit: 4; stroke-dasharray: none; stroke-opacity: 1;"
         d="M 449.29237,322.73529 C 392.19349,359.23947 353.88258,389.74448 443.44493,495.65429 C 460.55383,510.47158 421.07169,510.65706 395.78422,518.14019 C 330.29566,506.10179 331.11317,545.26099 343.40425,549.51934 C 359.30474,556.43411 356.46287,544.33968 362.40677,550.07203 C 363.9062,543.84441 368.70196,538.70799 372.2616,537.95335 C 361.60675,541.20205 341.5725,566.26816 362.51586,571.64712 C 385.39914,578.25049 382.37163,566.41877 395.69081,555.84156 C 395.98818,565.29808 389.74419,568.19947 395.31821,575.24367 C 432.18669,563.27462 417.38411,547.05217 427.33592,540.00447 C 497.97457,513.69821 506.84634,486.60701 534.08029,454.57408 L 449.29237,322.73529 z "
         id="path11033"
         sodipodi:nodetypes="cccccccccccc" />
      <path
         style="fill: rgb(0, 0, 0); fill-rule: evenodd; stroke: rgb(0, 0, 0); stroke-width: 3.6; stroke-linecap: butt; stroke-linejoin: miter; stroke-miterlimit: 4; stroke-dasharray: none; stroke-opacity: 1;"
         d="M 400.99619,335.86585 C 418.45384,427.79202 477.77943,416.89651 508.52606,462.67792 L 550.00966,332.65542 L 413.01132,322.25371 L 400.99619,335.86585 z "
         id="path11035"
         sodipodi:nodetypes="ccccc" />
      <path
         style="fill: rgb(0, 0, 0); fill-rule: evenodd; stroke: rgb(0, 0, 0); stroke-width: 3.6; stroke-linecap: butt; stroke-linejoin: miter; stroke-miterlimit: 4; stroke-dasharray: none; stroke-opacity: 1;"
         d="M 336.46786,130.43382 C 321.15886,130.45983 307.4451,136.93792 302.77466,141.58188 C 274.27801,124.99801 272.43953,143.18974 270.21164,164.24151 C 268.56542,173.18948 246.12971,168.30405 227.61835,174.33361 C 216.97156,177.80151 193.41611,194.55856 208.1759,213.69802 C 214.74396,220.32733 217.25561,227.76145 215.64562,235.99413 C 229.31025,230.65085 260.34993,232.00706 315.01228,212.01888 C 305.88664,222.49956 243.61879,260.09604 220.23693,240.47758 L 224.82825,247.97309 L 224.82825,259.96937 C 251.83295,276.04164 278.82496,256.38446 305.82965,248.73476 C 306.84681,248.66695 307.89395,248.5416 308.95528,248.38855 L 309.99716,249.68684 C 309.13004,249.87262 308.25726,250.05755 307.36598,250.22347 C 308.26061,250.41678 309.94615,251.24207 312.29281,252.57772 C 345.24319,265.33198 346.30218,281.73902 360.79303,305.72806 C 363.27326,309.83398 374.33006,295.18707 380.48153,289.50948 C 381.61806,292.40101 357.84354,308.27916 359.24785,311.64164 C 340.22323,316.50603 319.68041,323.60283 295.47897,336.0793 C 283.00224,344.03085 274.52803,354.92509 272.4341,370.51017 L 272.4341,399.55743 L 284.51279,380.18682 L 291.09956,414.60038 L 303.1606,382.33334 L 315.23929,404.92373 L 312.10735,355.15067 C 343.26524,344.86983 366.92233,349.29474 393.39389,348.20171 L 430.24292,293.50776 L 411.52924,321.47492 C 434.22866,341.86201 444.58796,336.74128 459.92096,378.04495 C 480.87984,354.34574 510.7929,347.10679 519.36155,346.46842 C 383.70478,377.23787 517.64104,480.67829 548.86288,510.94528 C 561.6222,523.31437 574.1276,530.70418 552.39931,554.45533 C 487.04181,550.0408 471.71628,577.89862 477.77277,595.32574 C 486.80359,587.36069 495.6737,582.09398 506.13385,584.4577 C 508.92572,580.02006 508.47893,580.12305 511.39638,576.59849 C 501.34645,591.49181 496.03068,593.59867 502.08175,620.14898 C 515.18209,609.75684 528.65184,605.35129 539.18111,594.95909 C 537.22337,605.18622 547.52929,616.68807 556.14175,621.73436 C 575.05945,596.63886 567.61677,584.71699 574.71784,569.94536 C 604.56829,533.49919 631.19336,499.26 636.9648,459.86332 C 637.59163,471.22357 612.22791,452.71308 606.15688,415.09294 C 641.85791,467.49898 865.10682,559.32947 943.10296,549.24667 L 915.96724,534.93998 L 908.61102,507.60602 L 882.8241,509.27747 L 879.81231,483.56164 L 845.47248,479.89557 L 847.10326,451.13263 L 812.15954,452.33018 L 810.68913,424.87929 L 785.62484,431.53257 L 779.96026,404.28597 L 754.93456,403.44734 L 750.74881,381.5802 L 725.03444,379.70709 L 727.3301,349.74236 L 698.47743,343.54188 L 702.38358,320.10956 L 679.69524,317.39847 L 686.38941,292.87138 L 659.03054,291.95311 L 658.66255,270.34868 L 631.94283,268.70369 L 627.70485,240.47758 L 604.17454,243.68332 L 595.98398,222.56918 L 573.05449,227.59918 L 567.97613,209.7685 L 546.96203,208.92028 L 541.36415,191.00376 L 522.62805,199.57253 L 516.677,180.77317 L 503.55643,187.26466 L 501.5963,168.22296 L 482.70126,180.60007 L 473.62459,160.6409 L 454.11149,170.05789 L 446.48285,154.39175 L 430.80174,168.58648 L 423.73817,149.06007 L 407.439,160.38124 L 393.45315,140.49131 L 377.68375,154.32251 C 366.64671,136.08243 350.84904,130.40939 336.46786,130.43382 z M 355.50416,194.03313 C 367.69026,203.35524 355.673,239.34454 311.12733,249.4445 L 309.13187,248.35392 C 334.10234,244.65098 369.80145,218.0667 355.50416,194.03313 z "
         id="path11037"
         sodipodi:nodetypes="cccscccccccccccscccccccccccccccsccccccccccccccccccccccccccccccccccccccccccccccccccccccccc" />
      <path
         style="fill: rgb(0, 0, 0); fill-rule: evenodd; stroke: rgb(0, 0, 0); stroke-width: 3.6; stroke-linecap: butt; stroke-linejoin: miter; stroke-miterlimit: 4; stroke-dasharray: none; stroke-opacity: 1;"
         d="M 269.90281,167.25094 C 269.83254,171.17515 284.11727,164.34263 295.82377,170.73005 C 304.19951,175.30011 315.26705,174.94788 332.21803,178.54613 C 338.639,180.68711 324.25652,179.40238 322.57711,179.49827 C 320.53507,179.61487 327.30935,184.12365 325.3011,184.39063 C 322.85058,184.7164 316.19493,180.00577 313.79606,180.52936 C 312.1917,180.87953 317.70644,186.41321 316.12573,186.84117 C 314.66101,187.23771 306.09914,182.52333 304.65509,182.97956 C 258.27258,197.63365 222.64631,241.31397 203.59,200.90601 C 209.34615,167.51181 245.43672,172.84226 269.90281,167.25094 z "
         id="path11039"
         sodipodi:nodetypes="cscscccccc" />
      <path
         style="fill: rgb(0, 0, 0); fill-rule: evenodd; stroke: rgb(0, 0, 0); stroke-width: 3.6; stroke-linecap: butt; stroke-linejoin: miter; stroke-miterlimit: 4; stroke-dasharray: none; stroke-opacity: 1;"
         d="M 255.20084,190.80423 C 247.31199,194.26688 231.16934,187.93514 235.08283,205.40307 C 247.87599,203.24911 249.26634,196.01427 255.20084,190.80423 z "
         id="path11041"
         sodipodi:nodetypes="ccc" />
      <path
         style="fill: rgb(0, 0, 0); fill-rule: evenodd; stroke: rgb(0, 0, 0); stroke-width: 3.6; stroke-linecap: butt; stroke-linejoin: miter; stroke-miterlimit: 4; stroke-dasharray: none; stroke-opacity: 1;"
         d="M 297.08308,166.59397 C 311.08047,117.84709 321.0572,165.73642 328.50917,171.40339 C 312.34512,164.30082 304.27227,159.83837 297.08308,166.59397 z "
         id="path11043"
         sodipodi:nodetypes="ccc" />
      <path
         style="fill: rgb(0, 0, 0); fill-rule: evenodd; stroke: rgb(0, 0, 0); stroke-width: 3.6; stroke-linecap: butt; stroke-linejoin: miter; stroke-miterlimit: 4; stroke-dasharray: none; stroke-opacity: 1;"
         d="M 303.54715,142.22862 C 312.39124,139.82776 317.32965,124.00139 341.16556,152.80922 L 347.03847,150.00847 L 354.02248,158.87751 L 358.78431,153.27601 L 364.81595,159.3443 L 369.57777,156.07676 L 372.27614,157.63273 L 372.91105,155.14318 L 375.29196,155.92116 L 376.24433,153.5872 C 358.66609,121.1022 318.55815,128.59545 303.54715,142.22862 z "
         id="path11045"
         sodipodi:nodetypes="cccccccccccc" />
      <path
         style="fill: rgb(0, 0, 0); fill-opacity: 1; fill-rule: evenodd; stroke: rgb(0, 0, 0); stroke-width: 3.6; stroke-linecap: butt; stroke-linejoin: miter; stroke-miterlimit: 4; stroke-dasharray: none; stroke-opacity: 1;"
         d="M 220.68568,241.54782 C 216.91855,237.17192 223.08784,233.46041 228.19013,233.02103 C 254.92316,228.89694 284.96934,224.87063 313.46798,212.95799 C 303.06798,224.00149 244.20393,259.6048 220.68568,241.54782 z "
         id="path11047"
         sodipodi:nodetypes="cccc" />
      <path
         style="fill: rgb(0, 0, 0); fill-rule: evenodd; stroke: rgb(0, 0, 0); stroke-width: 3.6; stroke-linecap: butt; stroke-linejoin: miter; stroke-miterlimit: 4; stroke-dasharray: none; stroke-opacity: 1;"
         d="M 230.06625,233.45509 L 234.33013,242.65066 L 240.12903,232.11756 L 249.33904,241.6475 L 254.1146,229.94406 L 265.37127,237.30051 L 268.95294,227.26899 L 279.5274,231.78317 L 284.30295,223.42357 L 230.06625,233.45509 z "
         id="path11049" />
      <path
         style="fill: rgb(0, 0, 0); fill-rule: evenodd; stroke: rgb(0, 0, 0); stroke-width: 3.6; stroke-linecap: butt; stroke-linejoin: miter; stroke-miterlimit: 4; stroke-dasharray: none; stroke-opacity: 1;"
         d="M 225.43896,196.52283 C 227.83311,188.72409 234.75559,183.8847 250.65329,184.91079 C 240.1061,185.40877 230.20465,186.87391 225.43896,196.52283 z "
         id="path11051"
         sodipodi:nodetypes="ccc" />
      <path
         style="fill: rgb(0, 0, 0); fill-rule: evenodd; stroke: rgb(0, 0, 0); stroke-width: 3.6; stroke-linecap: butt; stroke-linejoin: miter; stroke-miterlimit: 4; stroke-dasharray: none; stroke-opacity: 1;"
         d="M 385.51054,157.88509 C 622.63926,222.6372 664.04793,307.58511 722.8696,390.73623 L 677.69411,371.45102 L 661.66406,355.02287 L 639.07632,359.30847 L 638.34768,345.02313 L 623.77493,344.30886 L 620.13174,330.73778 L 558.90166,317.58534 L 547.97429,272.89744 L 523.08236,275.88369 L 515.85404,245.50085 L 500.95542,249.43293 L 496.49947,224.91357 L 464.69743,245.21901 L 456.91699,220.02634 L 432.87196,220.74061 L 426.31423,195.02699 L 396.4401,190.02712 L 395.71146,176.45604 L 382.59599,174.31323 L 385.51054,157.88509 z "
         id="path11053"
         sodipodi:nodetypes="cccccccccccccccccccccc" />
      <path
         style="fill: rgb(0, 0, 0); fill-rule: evenodd; stroke: rgb(0, 0, 0); stroke-width: 3.6; stroke-linecap: butt; stroke-linejoin: miter; stroke-miterlimit: 4; stroke-dasharray: none; stroke-opacity: 1;"
         d="M 273.99445,162.27183 C 280.97392,127.1214 284.84962,149.01897 289.11079,163.83164 C 282.04015,157.15003 276.69434,155.72604 273.99445,162.27183 z "
         id="path11055"
         sodipodi:nodetypes="ccc" />
      <path
         style="fill: rgb(0, 0, 0); fill-rule: evenodd; stroke: rgb(0, 0, 0); stroke-width: 3.6; stroke-linecap: butt; stroke-linejoin: miter; stroke-miterlimit: 4; stroke-dasharray: none; stroke-opacity: 1;"
         d="M 274.53598,161.59137 C 273.07083,166.90847 283.73733,164.60931 288.78041,163.77154 C 281.98886,148.89303 274.13193,158.93495 274.53598,161.59137 z "
         id="path11057"
         sodipodi:nodetypes="ccc" />
      <path
         style="fill: rgb(0, 0, 0); fill-rule: evenodd; stroke: rgb(0, 0, 0); stroke-width: 3.6; stroke-linecap: butt; stroke-linejoin: miter; stroke-miterlimit: 4; stroke-dasharray: none; stroke-opacity: 1;"
         d="M 297.48736,165.98217 C 306.38652,166.36744 310.28796,180.14247 325.63165,170.35775 C 313.77247,152.42707 301.38655,158.98195 297.48736,165.98217 z "
         id="path11059"
         sodipodi:nodetypes="ccc" />
      <path
         sodipodi:type="arc"
         style="opacity: 1; fill: rgb(0, 0, 0); fill-opacity: 1; stroke: rgb(0, 0, 0); stroke-width: 8.47852; stroke-linecap: round; stroke-linejoin: round; stroke-miterlimit: 4; stroke-dasharray: none; stroke-opacity: 1;"
         id="path11061"
         sodipodi:cx="389.60269"
         sodipodi:cy="237.80803"
         sodipodi:rx="8.7266502"
         sodipodi:ry="8.5858974"
         d="M 398.32934 237.80803 A 8.7266502 8.5858974 0 1 1  380.87604,237.80803 A 8.7266502 8.5858974 0 1 1  398.32934 237.80803 z"
         transform="matrix(0.428852, 0, 0, 0.420395, 145.675, 65.1997)" />
      <path
         style="fill: rgb(0, 0, 0); fill-rule: evenodd; stroke: rgb(0, 0, 0); stroke-width: 3.6; stroke-linecap: butt; stroke-linejoin: miter; stroke-miterlimit: 4; stroke-dasharray: none; stroke-opacity: 1;"
         d="M 312.62974,161.31483 C 314.02007,164.01968 314.98881,166.57164 312.92328,169.05788 C 310.67879,166.0218 311.41899,164.04507 312.62974,161.31483 z "
         id="path11063"
         sodipodi:nodetypes="ccc" />
      <path
         transform="matrix(0.302288, 0, 0, 0.294314, 164.222, 90.8287)"
         d="M 398.32934 237.80803 A 8.7266502 8.5858974 0 1 1  380.87604,237.80803 A 8.7266502 8.5858974 0 1 1  398.32934 237.80803 z"
         sodipodi:ry="8.5858974"
         sodipodi:rx="8.7266502"
         sodipodi:cy="237.80803"
         sodipodi:cx="389.60269"
         id="path11065"
         style="opacity: 1; fill: rgb(0, 0, 0); fill-opacity: 1; stroke: rgb(0, 0, 0); stroke-width: 12.0694; stroke-linecap: round; stroke-linejoin: round; stroke-miterlimit: 4; stroke-dasharray: none; stroke-opacity: 1;"
         sodipodi:type="arc" />
      <path
         sodipodi:nodetypes="ccc"
         id="path11067"
         d="M 281.90468,158.11784 C 282.8847,160.01147 283.56753,161.79807 282.11158,163.53867 C 280.5295,161.41314 281.05125,160.02925 281.90468,158.11784 z "
         style="fill: rgb(0, 0, 0); fill-rule: evenodd; stroke: rgb(0, 0, 0); stroke-width: 3.6; stroke-linecap: butt; stroke-linejoin: miter; stroke-miterlimit: 4; stroke-dasharray: none; stroke-opacity: 1;" />
      <path
         style="fill: rgb(0, 0, 0); fill-rule: evenodd; stroke: rgb(0, 0, 0); stroke-width: 3.6; stroke-linecap: butt; stroke-linejoin: miter; stroke-miterlimit: 4; stroke-dasharray: none; stroke-opacity: 1;"
         d="M 350.73056,547.81214 C 337.80598,546.73421 326.28112,555.06798 332.00958,565.81092 C 313.08202,551.0973 329.68269,525.60361 344.03906,524.48189 C 348.63637,527.55039 353.26305,532.63018 350.73056,547.81214 z "
         id="path11069"
         sodipodi:nodetypes="cccc" />
      <path
         sodipodi:nodetypes="cccc"
         id="path11071"
         d="M 373.86907,565.25291 C 360.89867,565.10406 350.02613,574.24142 356.54041,584.54511 C 336.56624,571.22725 351.22132,544.61213 365.45564,542.46461 C 370.26947,545.19544 375.26259,549.93009 373.86907,565.25291 z "
         style="fill: rgb(0, 0, 0); fill-rule: evenodd; stroke: rgb(0, 0, 0); stroke-width: 3.6; stroke-linecap: butt; stroke-linejoin: miter; stroke-miterlimit: 4; stroke-dasharray: none; stroke-opacity: 1;"
         inkscape:transform-center-y="-4.7231501"
         inkscape:transform-center-x="2.9567347" />
      <path
         inkscape:transform-center-y="-3.0207674"
         style="fill: rgb(0, 0, 0); fill-rule: evenodd; stroke: rgb(0, 0, 0); stroke-width: 3.6; stroke-linecap: butt; stroke-linejoin: miter; stroke-miterlimit: 4; stroke-dasharray: none; stroke-opacity: 1;"
         d="M 410.40399,572.21991 C 399.48955,577.02864 393.81171,588.77883 403.12699,594.88857 C 381.41359,591.38567 383.70782,563.6308 394.81977,556.42755 C 399.87332,556.87272 405.82795,558.9197 410.40399,572.21991 z "
         id="path11073"
         sodipodi:nodetypes="cccc"
         inkscape:transform-center-x="4.2774454" />
      <path
         sodipodi:nodetypes="cccc"
         id="path11075"
         d="M 500.07282,585.44657 C 487.1513,586.55922 477.25659,596.70838 484.78098,606.32806 C 463.55814,595.01736 475.44884,567.1089 489.39579,563.58838 C 494.46213,565.83784 499.90956,570.06382 500.07282,585.44657 z "
         style="fill: rgb(0, 0, 0); fill-rule: evenodd; stroke: rgb(0, 0, 0); stroke-width: 3.6; stroke-linecap: butt; stroke-linejoin: miter; stroke-miterlimit: 4; stroke-dasharray: none; stroke-opacity: 1;" />
      <path
         style="fill: rgb(0, 0, 0); fill-rule: evenodd; stroke: rgb(0, 0, 0); stroke-width: 3.6; stroke-linecap: butt; stroke-linejoin: miter; stroke-miterlimit: 4; stroke-dasharray: none; stroke-opacity: 1;"
         d="M 522.7416,606.43325 C 509.75915,612.17678 503.23396,626.25701 514.56658,633.60525 C 488.41613,629.35636 490.48434,596.07318 503.64474,587.45829 C 509.72182,588.0032 516.92011,590.47145 522.7416,606.43325 z "
         id="path11077"
         sodipodi:nodetypes="cccc" />
      <path
         sodipodi:nodetypes="cccc"
         id="path11079"
         d="M 565.24426,606.46721 C 556.18275,617.23963 556.66993,632.69735 570.14783,634.38553 C 544.77067,641.89171 531.63524,611.13327 539.56312,597.70752 C 545.26119,595.56615 552.83157,594.66522 565.24426,606.46721 z "
         style="fill: rgb(0, 0, 0); fill-rule: evenodd; stroke: rgb(0, 0, 0); stroke-width: 3.6; stroke-linecap: butt; stroke-linejoin: miter; stroke-miterlimit: 4; stroke-dasharray: none; stroke-opacity: 1;" />
      <path
         style="fill: rgb(0, 0, 0); fill-rule: evenodd; stroke: rgb(0, 0, 0); stroke-width: 3.6; stroke-linecap: butt; stroke-linejoin: miter; stroke-miterlimit: 4; stroke-dasharray: none; stroke-opacity: 1;"
         d="M 728.1345,394.98414 C 795.19105,465.71575 874.25775,514.49512 929.3042,545.09336 L 877.26032,528.41456 L 871.25522,512.71686 L 850.23751,510.75465 L 851.23839,500.94359 L 832.22231,505.84912 L 828.21891,489.17031 L 784.18178,485.2459 L 790.18688,458.75603 L 750.1531,456.79382 L 751.15392,432.26617 L 735.14042,434.22838 L 736.14125,415.58737 L 722.12946,414.60626 L 728.1345,394.98414 z "
         id="path11081"
         sodipodi:nodetypes="cccccccccccccccc" />
      <path
         style="fill: rgb(0, 0, 0); fill-rule: evenodd; stroke: rgb(0, 0, 0); stroke-width: 3.6; stroke-linecap: butt; stroke-linejoin: miter; stroke-miterlimit: 4; stroke-dasharray: none; stroke-opacity: 1;"
         d="M 607.03234,414.60626 L 617.04079,391.05972 L 641.06105,436.1906 L 661.07795,431.28506 L 665.0813,456.79382 L 701.11168,459.73714 L 718.12605,482.30258 L 737.14213,481.32147 L 761.16236,500.94359 L 792.18853,506.83022 L 798.19363,519.58461 C 753.48924,503.23284 649.89056,465.75411 607.03234,414.60626 z "
         id="path11083"
         sodipodi:nodetypes="cccccccccccc" />
      <path
         style="fill: rgb(0, 0, 0); fill-rule: evenodd; stroke: rgb(0, 0, 0); stroke-width: 3.6; stroke-linecap: butt; stroke-linejoin: miter; stroke-miterlimit: 4; stroke-dasharray: none; stroke-opacity: 1;"
         d="M 359.82379,198.76295 C 364.01086,201.96038 363.02776,209.64704 365.71363,217.21018 C 366.84533,220.39694 373.93203,222.93788 373.77324,226.11856 L 367.32472,234.40992 L 370.78469,246.91819 L 358.73103,249.07673 C 352.31383,250.2259 349.49325,259.2982 342.80944,264.49705 L 304.77735,250.76156 C 339.08587,244.17834 364.31167,224.9923 359.82379,198.76295 z "
         id="path11085"
         sodipodi:nodetypes="cscccsccc" />
      <path
         style="fill: rgb(0, 0, 0); fill-rule: evenodd; stroke: rgb(0, 0, 0); stroke-width: 3.6; stroke-linecap: butt; stroke-linejoin: miter; stroke-miterlimit: 4; stroke-dasharray: none; stroke-opacity: 1;"
         d="M 636.35415,461.70847 L 627.34162,480.35969 L 615.32493,482.32297 L 617.32771,501.95583 L 606.31239,509.80897 L 601.40763,528.57343 L 576.27064,566.74425 C 596.32709,532.20908 618.76363,537.33751 636.35415,461.70847 z "
         id="path11087"
         sodipodi:nodetypes="cccccccc" />
      <path
         style="fill: rgb(0, 0, 0); fill-rule: evenodd; stroke: rgb(0, 0, 0); stroke-width: 3.6; stroke-linecap: butt; stroke-linejoin: miter; stroke-miterlimit: 4; stroke-dasharray: none; stroke-opacity: 1;"
         d="M 508.17599,473.48819 L 491.15233,488.21283 L 489.14955,500.97419 L 473.12727,508.82733 L 467.11892,515.69883 L 448.09247,530.42347 C 470.39255,513.51646 474.92286,526.47114 515.18574,479.37805 L 508.17599,473.48819 z "
         id="path11089"
         sodipodi:nodetypes="cccccccc" />
      <path
         style="fill: rgb(0, 0, 0); fill-rule: evenodd; stroke: rgb(0, 0, 0); stroke-width: 3.6; stroke-linecap: butt; stroke-linejoin: miter; stroke-miterlimit: 4; stroke-dasharray: none; stroke-opacity: 1;"
         d="M 376.51801,290.07936 L 365.78565,284.3408 L 372.61534,267.12511 L 357.00463,274.77652 L 359.93164,261.38655 L 340.41826,269.99439 L 363.83432,309.2079 L 376.51801,290.07936 z "
         id="path11091" />
    </g>
    <g
       id="g10996"
       transform="matrix(0.854309, 0, 0, 0.854309, -134.999, 18.751)">
      <path
         sodipodi:nodetypes="ccccccccccc"
         id="path5145"
         d="M 357.04294,281.61976 C 323.95247,282.36739 293.35538,290.44764 265.46245,306.48036 C 249.54335,316.02679 241.38273,330.64352 233.05705,345.15239 L 228.83026,374.15641 L 244.32849,356.20154 L 247.14635,386.58671 L 259.82673,363.10726 L 265.46245,379.68099 L 272.5071,334.10323 C 311.01787,322.35286 349.52864,323.7908 388.0394,318.91065 L 357.04294,281.61976 z "
         style="fill: rgb(128, 102, 0); fill-rule: evenodd; stroke: rgb(0, 0, 0); stroke-width: 2.74148; stroke-linecap: butt; stroke-linejoin: miter; stroke-miterlimit: 4; stroke-dasharray: none; stroke-opacity: 1;" />
      <path
         sodipodi:nodetypes="cccccccccccc"
         id="path6119"
         d="M 449.29237,322.73529 C 392.19349,359.23947 353.88258,389.74448 443.44493,495.65429 C 460.55383,510.47158 421.07169,510.65706 395.78422,518.14019 C 330.29566,506.10179 331.11317,545.26099 343.40425,549.51934 C 359.30474,556.43411 356.46287,544.33968 362.40677,550.07203 C 363.9062,543.84441 368.70196,538.70799 372.2616,537.95335 C 361.60675,541.20205 341.5725,566.26816 362.51586,571.64712 C 385.39914,578.25049 382.37163,566.41877 395.69081,555.84156 C 395.98818,565.29808 389.74419,568.19947 395.31821,575.24367 C 432.18669,563.27462 417.38411,547.05217 427.33592,540.00447 C 497.97457,513.69821 506.84634,486.60701 534.08029,454.57408 L 449.29237,322.73529 z "
         style="fill: rgb(128, 102, 0); fill-rule: evenodd; stroke: rgb(0, 0, 0); stroke-width: 2.23794; stroke-linecap: butt; stroke-linejoin: miter; stroke-miterlimit: 4; stroke-dasharray: none; stroke-opacity: 1;" />
      <path
         sodipodi:nodetypes="ccccc"
         id="path6121"
         d="M 400.99619,335.86585 C 418.45384,427.79202 477.77943,416.89651 508.52606,462.67792 L 550.00966,332.65542 L 413.01132,322.25371 L 400.99619,335.86585 z "
         style="fill: rgb(85, 68, 0); fill-rule: evenodd; stroke: rgb(0, 0, 0); stroke-width: 0.559485px; stroke-linecap: butt; stroke-linejoin: miter; stroke-opacity: 1;" />
      <path
         sodipodi:nodetypes="cccscccccccccccscccccccccccccccsccccccccccccccccccccccccccccccccccccccccccccccccccccccccc"
         id="path2160"
         d="M 336.46786,130.43382 C 321.15886,130.45983 307.4451,136.93792 302.77466,141.58188 C 274.27801,124.99801 272.43953,143.18974 270.21164,164.24151 C 268.56542,173.18948 246.12971,168.30405 227.61835,174.33361 C 216.97156,177.80151 193.41611,194.55856 208.1759,213.69802 C 214.74396,220.32733 217.25561,227.76145 215.64562,235.99413 C 229.31025,230.65085 260.34993,232.00706 315.01228,212.01888 C 305.88664,222.49956 243.61879,260.09604 220.23693,240.47758 L 224.82825,247.97309 L 224.82825,259.96937 C 251.83295,276.04164 278.82496,256.38446 305.82965,248.73476 C 306.84681,248.66695 307.89395,248.5416 308.95528,248.38855 L 309.99716,249.68684 C 309.13004,249.87262 308.25726,250.05755 307.36598,250.22347 C 308.26061,250.41678 309.94615,251.24207 312.29281,252.57772 C 345.24319,265.33198 346.30218,281.73902 360.79303,305.72806 C 363.27326,309.83398 374.33006,295.18707 380.48153,289.50948 C 381.61806,292.40101 357.84354,308.27916 359.24785,311.64164 C 340.22323,316.50603 319.68041,323.60283 295.47897,336.0793 C 283.00224,344.03085 274.52803,354.92509 272.4341,370.51017 L 272.4341,399.55743 L 284.51279,380.18682 L 291.09956,414.60038 L 303.1606,382.33334 L 315.23929,404.92373 L 312.10735,355.15067 C 343.26524,344.86983 366.92233,349.29474 393.39389,348.20171 L 430.24292,293.50776 L 411.52924,321.47492 C 434.22866,341.86201 444.58796,336.74128 459.92096,378.04495 C 480.87984,354.34574 510.7929,347.10679 519.36155,346.46842 C 383.70478,377.23787 517.64104,480.67829 548.86288,510.94528 C 561.6222,523.31437 574.1276,530.70418 552.39931,554.45533 C 487.04181,550.0408 471.71628,577.89862 477.77277,595.32574 C 486.80359,587.36069 495.6737,582.09398 506.13385,584.4577 C 508.92572,580.02006 508.47893,580.12305 511.39638,576.59849 C 501.34645,591.49181 496.03068,593.59867 502.08175,620.14898 C 515.18209,609.75684 528.65184,605.35129 539.18111,594.95909 C 537.22337,605.18622 547.52929,616.68807 556.14175,621.73436 C 575.05945,596.63886 567.61677,584.71699 574.71784,569.94536 C 604.56829,533.49919 631.19336,499.26 636.9648,459.86332 C 637.59163,471.22357 612.22791,452.71308 606.15688,415.09294 C 641.85791,467.49898 865.10682,559.32947 943.10296,549.24667 L 915.96724,534.93998 L 908.61102,507.60602 L 882.8241,509.27747 L 879.81231,483.56164 L 845.47248,479.89557 L 847.10326,451.13263 L 812.15954,452.33018 L 810.68913,424.87929 L 785.62484,431.53257 L 779.96026,404.28597 L 754.93456,403.44734 L 750.74881,381.5802 L 725.03444,379.70709 L 727.3301,349.74236 L 698.47743,343.54188 L 702.38358,320.10956 L 679.69524,317.39847 L 686.38941,292.87138 L 659.03054,291.95311 L 658.66255,270.34868 L 631.94283,268.70369 L 627.70485,240.47758 L 604.17454,243.68332 L 595.98398,222.56918 L 573.05449,227.59918 L 567.97613,209.7685 L 546.96203,208.92028 L 541.36415,191.00376 L 522.62805,199.57253 L 516.677,180.77317 L 503.55643,187.26466 L 501.5963,168.22296 L 482.70126,180.60007 L 473.62459,160.6409 L 454.11149,170.05789 L 446.48285,154.39175 L 430.80174,168.58648 L 423.73817,149.06007 L 407.439,160.38124 L 393.45315,140.49131 L 377.68375,154.32251 C 366.64671,136.08243 350.84904,130.40939 336.46786,130.43382 z M 355.50416,194.03313 C 367.69026,203.35524 355.673,239.34454 311.12733,249.4445 L 309.13187,248.35392 C 334.10234,244.65098 369.80145,218.0667 355.50416,194.03313 z "
         style="fill: rgb(212, 170, 0); fill-rule: evenodd; stroke: rgb(0, 0, 0); stroke-width: 2.23794; stroke-linecap: butt; stroke-linejoin: miter; stroke-miterlimit: 4; stroke-dasharray: none; stroke-opacity: 1;" />
      <path
         sodipodi:nodetypes="cscscccccc"
         id="path4145"
         d="M 269.90281,167.25094 C 269.83254,171.17515 284.11727,164.34263 295.82377,170.73005 C 304.19951,175.30011 315.26705,174.94788 332.21803,178.54613 C 338.639,180.68711 324.25652,179.40238 322.57711,179.49827 C 320.53507,179.61487 327.30935,184.12365 325.3011,184.39063 C 322.85058,184.7164 316.19493,180.00577 313.79606,180.52936 C 312.1917,180.87953 317.70644,186.41321 316.12573,186.84117 C 314.66101,187.23771 306.09914,182.52333 304.65509,182.97956 C 258.27258,197.63365 222.64631,241.31397 203.59,200.90601 C 209.34615,167.51181 245.43672,172.84226 269.90281,167.25094 z "
         style="fill: rgb(128, 102, 0); fill-rule: evenodd; stroke: none; stroke-width: 1px; stroke-linecap: butt; stroke-linejoin: miter; stroke-opacity: 1;" />
      <path
         sodipodi:nodetypes="ccc"
         id="path3146"
         d="M 255.20084,190.80423 C 247.31199,194.26688 231.16934,187.93514 235.08283,205.40307 C 247.87599,203.24911 249.26634,196.01427 255.20084,190.80423 z "
         style="fill: rgb(0, 0, 0); fill-rule: evenodd; stroke: rgb(0, 0, 0); stroke-width: 0.559485px; stroke-linecap: butt; stroke-linejoin: miter; stroke-opacity: 1;" />
      <path
         sodipodi:nodetypes="ccc"
         id="path3168"
         d="M 297.08308,166.59397 C 311.08047,117.84709 321.0572,165.73642 328.50917,171.40339 C 312.34512,164.30082 304.27227,159.83837 297.08308,166.59397 z "
         style="fill: rgb(128, 102, 0); fill-rule: evenodd; stroke: none; stroke-width: 1px; stroke-linecap: butt; stroke-linejoin: miter; stroke-opacity: 1;" />
      <path
         sodipodi:nodetypes="cccccccccccc"
         id="path3170"
         d="M 303.54715,142.22862 C 312.39124,139.82776 317.32965,124.00139 341.16556,152.80922 L 347.03847,150.00847 L 354.02248,158.87751 L 358.78431,153.27601 L 364.81595,159.3443 L 369.57777,156.07676 L 372.27614,157.63273 L 372.91105,155.14318 L 375.29196,155.92116 L 376.24433,153.5872 C 358.66609,121.1022 318.55815,128.59545 303.54715,142.22862 z "
         style="fill: rgb(128, 102, 0); fill-rule: evenodd; stroke: rgb(0, 0, 0); stroke-width: 0.559485px; stroke-linecap: butt; stroke-linejoin: miter; stroke-opacity: 1;" />
      <path
         sodipodi:nodetypes="cccc"
         id="path3172"
         d="M 220.68568,241.54782 C 216.91855,237.17192 223.08784,233.46041 228.19013,233.02103 C 254.92316,228.89694 284.96934,224.87063 313.46798,212.95799 C 303.06798,224.00149 244.20393,259.6048 220.68568,241.54782 z "
         style="fill: rgb(200, 55, 55); fill-opacity: 1; fill-rule: evenodd; stroke: rgb(0, 0, 0); stroke-width: 1.62251; stroke-linecap: butt; stroke-linejoin: miter; stroke-miterlimit: 4; stroke-dasharray: none; stroke-opacity: 1;" />
      <path
         id="path4143"
         d="M 230.06625,233.45509 L 234.33013,242.65066 L 240.12903,232.11756 L 249.33904,241.6475 L 254.1146,229.94406 L 265.37127,237.30051 L 268.95294,227.26899 L 279.5274,231.78317 L 284.30295,223.42357 L 230.06625,233.45509 z "
         style="fill: rgb(255, 255, 255); fill-rule: evenodd; stroke: rgb(0, 0, 0); stroke-width: 0.559485px; stroke-linecap: butt; stroke-linejoin: miter; stroke-opacity: 1;" />
      <path
         sodipodi:nodetypes="ccc"
         id="path4156"
         d="M 225.43896,196.52283 C 227.83311,188.72409 234.75559,183.8847 250.65329,184.91079 C 240.1061,185.40877 230.20465,186.87391 225.43896,196.52283 z "
         style="fill: rgb(80, 68, 22); fill-rule: evenodd; stroke: rgb(0, 0, 0); stroke-width: 0.559485px; stroke-linecap: butt; stroke-linejoin: miter; stroke-opacity: 1;" />
      <path
         sodipodi:nodetypes="cccccccccccccccccccccc"
         id="path4158"
         d="M 385.51054,157.88509 C 622.63926,222.6372 664.04793,307.58511 722.8696,390.73623 L 677.69411,371.45102 L 661.66406,355.02287 L 639.07632,359.30847 L 638.34768,345.02313 L 623.77493,344.30886 L 620.13174,330.73778 L 558.90166,317.58534 L 547.97429,272.89744 L 523.08236,275.88369 L 515.85404,245.50085 L 500.95542,249.43293 L 496.49947,224.91357 L 464.69743,245.21901 L 456.91699,220.02634 L 432.87196,220.74061 L 426.31423,195.02699 L 396.4401,190.02712 L 395.71146,176.45604 L 382.59599,174.31323 L 385.51054,157.88509 z "
         style="fill: rgb(128, 102, 0); fill-rule: evenodd; stroke: rgb(0, 0, 0); stroke-width: 0.559485px; stroke-linecap: butt; stroke-linejoin: miter; stroke-opacity: 1;" />
      <path
         sodipodi:nodetypes="ccc"
         id="path3166"
         d="M 273.99445,162.27183 C 280.97392,127.1214 284.84962,149.01897 289.11079,163.83164 C 282.04015,157.15003 276.69434,155.72604 273.99445,162.27183 z "
         style="fill: rgb(128, 102, 0); fill-rule: evenodd; stroke: rgb(0, 0, 0); stroke-width: 0.559485px; stroke-linecap: butt; stroke-linejoin: miter; stroke-opacity: 1;" />
      <path
         sodipodi:nodetypes="ccc"
         id="path4160"
         d="M 274.53598,161.59137 C 273.07083,166.90847 283.73733,164.60931 288.78041,163.77154 C 281.98886,148.89303 274.13193,158.93495 274.53598,161.59137 z "
         style="fill: rgb(255, 255, 255); fill-rule: evenodd; stroke: rgb(0, 0, 0); stroke-width: 0.559485px; stroke-linecap: butt; stroke-linejoin: miter; stroke-opacity: 1;" />
      <path
         sodipodi:nodetypes="ccc"
         id="path4162"
         d="M 297.48736,165.98217 C 306.38652,166.36744 310.28796,180.14247 325.63165,170.35775 C 313.77247,152.42707 301.38655,158.98195 297.48736,165.98217 z "
         style="fill: rgb(255, 255, 255); fill-rule: evenodd; stroke: rgb(0, 0, 0); stroke-width: 0.559485px; stroke-linecap: butt; stroke-linejoin: miter; stroke-opacity: 1;" />
      <path
         transform="matrix(0.428852, 0, 0, 0.420395, 145.675, 65.1997)"
         d="M 398.32934 237.80803 A 8.7266502 8.5858974 0 1 1  380.87604,237.80803 A 8.7266502 8.5858974 0 1 1  398.32934 237.80803 z"
         sodipodi:ry="8.5858974"
         sodipodi:rx="8.7266502"
         sodipodi:cy="237.80803"
         sodipodi:cx="389.60269"
         id="path4165"
         style="opacity: 1; fill: rgb(128, 128, 0); fill-opacity: 1; stroke: rgb(183, 181, 31); stroke-width: 5.9; stroke-linecap: round; stroke-linejoin: round; stroke-miterlimit: 4; stroke-dasharray: none; stroke-opacity: 1;"
         sodipodi:type="arc" />
      <path
         sodipodi:nodetypes="ccc"
         id="path4167"
         d="M 312.62974,161.31483 C 314.02007,164.01968 314.98881,166.57164 312.92328,169.05788 C 310.67879,166.0218 311.41899,164.04507 312.62974,161.31483 z "
         style="fill: rgb(0, 0, 0); fill-rule: evenodd; stroke: rgb(0, 0, 0); stroke-width: 0.402544px; stroke-linecap: butt; stroke-linejoin: miter; stroke-opacity: 1;" />
      <path
         sodipodi:type="arc"
         style="opacity: 1; fill: rgb(128, 128, 0); fill-opacity: 1; stroke: rgb(183, 181, 31); stroke-width: 5.9; stroke-linecap: round; stroke-linejoin: round; stroke-miterlimit: 4; stroke-dasharray: none; stroke-opacity: 1;"
         id="path5138"
         sodipodi:cx="389.60269"
         sodipodi:cy="237.80803"
         sodipodi:rx="8.7266502"
         sodipodi:ry="8.5858974"
         d="M 398.32934 237.80803 A 8.7266502 8.5858974 0 1 1  380.87604,237.80803 A 8.7266502 8.5858974 0 1 1  398.32934 237.80803 z"
         transform="matrix(0.302288, 0, 0, 0.294314, 164.222, 90.8287)" />
      <path
         style="fill: rgb(0, 0, 0); fill-rule: evenodd; stroke: rgb(0, 0, 0); stroke-width: 0.282779px; stroke-linecap: butt; stroke-linejoin: miter; stroke-opacity: 1;"
         d="M 281.90468,158.11784 C 282.8847,160.01147 283.56753,161.79807 282.11158,163.53867 C 280.5295,161.41314 281.05125,160.02925 281.90468,158.11784 z "
         id="path5140"
         sodipodi:nodetypes="ccc" />
      <path
         sodipodi:nodetypes="cccc"
         id="path7092"
         d="M 350.73056,547.81214 C 337.80598,546.73421 326.28112,555.06798 332.00958,565.81092 C 313.08202,551.0973 329.68269,525.60361 344.03906,524.48189 C 348.63637,527.55039 353.26305,532.63018 350.73056,547.81214 z "
         style="fill: rgb(0, 0, 0); fill-rule: evenodd; stroke: rgb(0, 0, 0); stroke-width: 0.559485px; stroke-linecap: butt; stroke-linejoin: miter; stroke-opacity: 1;" />
      <path
         inkscape:transform-center-x="2.9567347"
         inkscape:transform-center-y="-4.7231501"
         style="fill: rgb(0, 0, 0); fill-rule: evenodd; stroke: rgb(0, 0, 0); stroke-width: 0.559485px; stroke-linecap: butt; stroke-linejoin: miter; stroke-opacity: 1;"
         d="M 373.86907,565.25291 C 360.89867,565.10406 350.02613,574.24142 356.54041,584.54511 C 336.56624,571.22725 351.22132,544.61213 365.45564,542.46461 C 370.26947,545.19544 375.26259,549.93009 373.86907,565.25291 z "
         id="path7094"
         sodipodi:nodetypes="cccc" />
      <path
         inkscape:transform-center-x="4.2774454"
         sodipodi:nodetypes="cccc"
         id="path7096"
         d="M 410.40399,572.21991 C 399.48955,577.02864 393.81171,588.77883 403.12699,594.88857 C 381.41359,591.38567 383.70782,563.6308 394.81977,556.42755 C 399.87332,556.87272 405.82795,558.9197 410.40399,572.21991 z "
         style="fill: rgb(0, 0, 0); fill-rule: evenodd; stroke: rgb(0, 0, 0); stroke-width: 0.512855px; stroke-linecap: butt; stroke-linejoin: miter; stroke-opacity: 1;"
         inkscape:transform-center-y="-3.0207674" />
      <path
         style="fill: rgb(0, 0, 0); fill-rule: evenodd; stroke: rgb(0, 0, 0); stroke-width: 0.559485px; stroke-linecap: butt; stroke-linejoin: miter; stroke-opacity: 1;"
         d="M 500.07282,585.44657 C 487.1513,586.55922 477.25659,596.70838 484.78098,606.32806 C 463.55814,595.01736 475.44884,567.1089 489.39579,563.58838 C 494.46213,565.83784 499.90956,570.06382 500.07282,585.44657 z "
         id="path7098"
         sodipodi:nodetypes="cccc" />
      <path
         sodipodi:nodetypes="cccc"
         id="path7100"
         d="M 522.7416,606.43325 C 509.75915,612.17678 503.23396,626.25701 514.56658,633.60525 C 488.41613,629.35636 490.48434,596.07318 503.64474,587.45829 C 509.72182,588.0032 516.92011,590.47145 522.7416,606.43325 z "
         style="fill: rgb(0, 0, 0); fill-rule: evenodd; stroke: rgb(0, 0, 0); stroke-width: 0.615344px; stroke-linecap: butt; stroke-linejoin: miter; stroke-opacity: 1;" />
      <path
         style="fill: rgb(0, 0, 0); fill-rule: evenodd; stroke: rgb(0, 0, 0); stroke-width: 0.615344px; stroke-linecap: butt; stroke-linejoin: miter; stroke-opacity: 1;"
         d="M 565.24426,606.46721 C 556.18275,617.23963 556.66993,632.69735 570.14783,634.38553 C 544.77067,641.89171 531.63524,611.13327 539.56312,597.70752 C 545.26119,595.56615 552.83157,594.66522 565.24426,606.46721 z "
         id="path7102"
         sodipodi:nodetypes="cccc" />
      <path
         sodipodi:nodetypes="cccccccccccccccc"
         id="path7104"
         d="M 728.1345,394.98414 C 795.19105,465.71575 874.25775,514.49512 929.3042,545.09336 L 877.26032,528.41456 L 871.25522,512.71686 L 850.23751,510.75465 L 851.23839,500.94359 L 832.22231,505.84912 L 828.21891,489.17031 L 784.18178,485.2459 L 790.18688,458.75603 L 750.1531,456.79382 L 751.15392,432.26617 L 735.14042,434.22838 L 736.14125,415.58737 L 722.12946,414.60626 L 728.1345,394.98414 z "
         style="fill: rgb(128, 102, 0); fill-rule: evenodd; stroke: rgb(0, 0, 0); stroke-width: 0.559485px; stroke-linecap: butt; stroke-linejoin: miter; stroke-opacity: 1;" />
      <path
         sodipodi:nodetypes="cccccccccccc"
         id="path8077"
         d="M 607.03234,414.60626 L 617.04079,391.05972 L 641.06105,436.1906 L 661.07795,431.28506 L 665.0813,456.79382 L 701.11168,459.73714 L 718.12605,482.30258 L 737.14213,481.32147 L 761.16236,500.94359 L 792.18853,506.83022 L 798.19363,519.58461 C 753.48924,503.23284 649.89056,465.75411 607.03234,414.60626 z "
         style="fill: rgb(85, 68, 0); fill-rule: evenodd; stroke: rgb(0, 0, 0); stroke-width: 0.559485px; stroke-linecap: butt; stroke-linejoin: miter; stroke-opacity: 1;" />
      <path
         sodipodi:nodetypes="cscccsccc"
         id="path8079"
         d="M 359.82379,198.76295 C 364.01086,201.96038 363.02776,209.64704 365.71363,217.21018 C 366.84533,220.39694 373.93203,222.93788 373.77324,226.11856 L 367.32472,234.40992 L 370.78469,246.91819 L 358.73103,249.07673 C 352.31383,250.2259 349.49325,259.2982 342.80944,264.49705 L 304.77735,250.76156 C 339.08587,244.17834 364.31167,224.9923 359.82379,198.76295 z "
         style="fill: rgb(128, 102, 0); fill-rule: evenodd; stroke: rgb(0, 0, 0); stroke-width: 0.559485px; stroke-linecap: butt; stroke-linejoin: miter; stroke-opacity: 1;" />
      <path
         sodipodi:nodetypes="cccccccc"
         id="path8081"
         d="M 636.35415,461.70847 L 627.34162,480.35969 L 615.32493,482.32297 L 617.32771,501.95583 L 606.31239,509.80897 L 601.40763,528.57343 L 576.27064,566.74425 C 596.32709,532.20908 618.76363,537.33751 636.35415,461.70847 z "
         style="fill: rgb(85, 68, 0); fill-rule: evenodd; stroke: rgb(0, 0, 0); stroke-width: 0.559485px; stroke-linecap: butt; stroke-linejoin: miter; stroke-opacity: 1;" />
      <path
         sodipodi:nodetypes="cccccccc"
         id="path8083"
         d="M 508.17599,473.48819 L 491.15233,488.21283 L 489.14955,500.97419 L 473.12727,508.82733 L 467.11892,515.69883 L 448.09247,530.42347 C 470.39255,513.51646 474.92286,526.47114 515.18574,479.37805 L 508.17599,473.48819 z "
         style="fill: rgb(80, 68, 22); fill-rule: evenodd; stroke: rgb(0, 0, 0); stroke-width: 0.559485px; stroke-linecap: butt; stroke-linejoin: miter; stroke-opacity: 1;" />
      <path
         id="path8085"
         d="M 376.51801,290.07936 L 365.78565,284.3408 L 372.61534,267.12511 L 357.00463,274.77652 L 359.93164,261.38655 L 340.41826,269.99439 L 363.83432,309.2079 L 376.51801,290.07936 z "
         style="fill: rgb(85, 68, 0); fill-rule: evenodd; stroke: rgb(0, 0, 0); stroke-width: 0.559485px; stroke-linecap: butt; stroke-linejoin: miter; stroke-opacity: 1;" />
    </g>
  </g>
</svg>
