<?xml version="1.0" encoding="UTF-8" standalone="no"?>
<!-- Created with Inkscape (http://www.inkscape.org/) -->
<svg xmlns:dc="http://purl.org/dc/elements/1.1/" xmlns:cc="http://web.resource.org/cc/" xmlns:rdf="http://www.w3.org/1999/02/22-rdf-syntax-ns#" xmlns:svg="http://www.w3.org/2000/svg" xmlns="http://www.w3.org/2000/svg" xmlns:sodipodi="http://sodipodi.sourceforge.net/DTD/sodipodi-0.dtd" xmlns:inkscape="http://www.inkscape.org/namespaces/inkscape" width="291.38663" height="369.59396" id="svg2" sodipodi:version="0.32" inkscape:version="0.45.1" sodipodi:docbase="D:\freebies" sodipodi:docname="alien.svg" inkscape:output_extension="org.inkscape.output.svg.inkscape" version="1.0">
  <sodipodi:namedview id="base" pagecolor="#ffffff" bordercolor="#666666" borderopacity="1.0" inkscape:pageopacity="0.0" inkscape:pageshadow="2" inkscape:zoom="1.5368216" inkscape:cx="145.69331" inkscape:cy="184.79698" inkscape:document-units="px" inkscape:current-layer="layer1" inkscape:window-width="1274" inkscape:window-height="753" inkscape:window-x="6" inkscape:window-y="20" showguides="true" inkscape:guide-bbox="true"/>
  <defs id="defs4"/>
  <metadata id="metadata7">
    <rdf:RDF>
      <cc:Work rdf:about="">
        <dc:format>image/svg+xml</dc:format>
        <dc:type rdf:resource="http://purl.org/dc/dcmitype/StillImage"/>
      </cc:Work>
    </rdf:RDF>
  </metadata>
  <g inkscape:label="Ebene 1" id="layer1" inkscape:groupmode="layer" transform="translate(-16.5981, -6.44487)">
    <path sodipodi:type="arc" style="overflow: visible; marker: none; color: rgb(0, 0, 0); fill: rgb(179, 179, 179); fill-opacity: 0.995689; fill-rule: evenodd; stroke: none; stroke-width: 5.3445; stroke-linecap: round; stroke-linejoin: miter; stroke-miterlimit: 4; stroke-dasharray: none; stroke-dashoffset: 0pt; stroke-opacity: 1; visibility: visible; display: inline;" id="path17290" sodipodi:cx="1848.595" sodipodi:cy="955.3252" sodipodi:rx="247.07732" sodipodi:ry="25.278538" d="M 2095.6723 955.3252 A 247.07732 25.278538 0 1 1  1601.5177,955.3252 A 247.07732 25.278538 0 1 1  2095.6723 955.3252 z" transform="matrix(0.554691, 0.00984827, -0.00806599, 0.454307, -854.844, -87.9185)"/>
    <path style="overflow: visible; marker: none; color: rgb(0, 0, 0); fill: rgb(0, 255, 0); fill-opacity: 1; fill-rule: evenodd; stroke: none; stroke-width: 5.3445; stroke-linecap: round; stroke-linejoin: miter; stroke-miterlimit: 4; stroke-dasharray: none; stroke-dashoffset: 0pt; stroke-opacity: 1; visibility: visible; display: inline;" d="M 204.86233,6.5019456 C 223.87239,5.1081352 236.836,29.565751 225.08354,44.524776 C 213.21016,54.935944 216.64229,73.559999 212.08936,87.857817 C 209.59239,104.67976 205.46612,121.55424 206.10354,138.62344 C 221.31414,171.19328 243.49333,203.14017 241.83244,240.73518 C 241.5449,270.1575 227.87236,297.93342 208.916,319.84467 C 200.56274,340.93749 234.76997,330.02592 246.36763,335.69274 C 262.58816,336.46016 279.06792,337.85566 292.50204,347.65957 C 306.98334,351.75561 316.19234,369.98974 293.8703,366.72074 C 264.52924,359.64401 232.83316,356.8631 202.70348,360.42638 C 189.25569,360.39062 174.78897,365.64812 163.25717,355.98674 C 156.51025,353.24784 140.76757,362.137 129.79607,357.79065 C 97.842512,353.82618 66.024098,354.34962 34.791374,362.42539 C 16.988039,369.20228 11.010824,353.44968 29.585727,347.359 C 43.282898,337.33511 60.372736,333.27639 77.358196,333.26005 C 92.299248,331.83799 108.68137,330.46268 123.69266,330.09713 C 106.45616,310.72759 85.276097,289.25467 81.346308,262.41763 C 85.688126,223.05354 99.583443,184.03838 125.94688,154.22537 C 137.30979,148.66621 154.61607,133.02803 141.31866,121.89025 C 126.438,114.76746 124.79058,90.074182 141.20036,84.674246 C 157.97435,75.457073 176.04275,90.2599 169.82973,108.46551 C 163.2624,117.94934 149.96721,124.28204 160.88465,139.26763 C 172.182,151.64077 194.40081,137.61539 195.39631,118.21643 C 200.73826,97.262009 202.23625,71.648816 199.2171,50.659844 C 181.57551,44.501684 176.14044,19.842493 192.25292,10.430251 C 195.98547,7.9918927 200.39748,6.5785594 204.86233,6.5019456 z " id="path16238" sodipodi:nodetypes="cccccccccccccccccccccccccc"/>
    <path style="overflow: visible; marker: none; color: rgb(0, 0, 0); fill: rgb(213, 255, 213); fill-opacity: 1; fill-rule: evenodd; stroke: none; stroke-width: 5.3445; stroke-linecap: round; stroke-linejoin: miter; stroke-miterlimit: 4; stroke-dasharray: none; stroke-dashoffset: 0pt; stroke-opacity: 1; visibility: visible; display: inline;" d="M 201.39404,9.6924046 C 179.19046,9.0457324 174.12313,43.431403 194.85788,49.663518 C 200.71026,58.047502 196.78892,73.975316 197.88895,84.931826 C 196.38724,103.7512 195.46881,125.40635 181.64414,139.73993 C 163.00619,148.37124 194.454,142.63562 195.51778,132.76384 C 202.71113,121.79059 200.55812,107.93454 203.92821,95.032958 C 207.45044,80.483483 207.17261,65.201904 205.24344,50.559097 C 190.2683,45.473248 182.76418,20.312212 200.62413,11.436427 C 204.88073,10.099391 204.92588,9.5428071 201.39404,9.6924046 z M 147.92637,84.151172 C 131.0574,82.407934 121.40586,103.71264 132.37157,115.79497 C 145.24725,119.34472 147.01819,139.42978 136.58236,146.71602 C 120.94587,155.66118 110.09238,170.44218 102.52059,186.57015 C 90.752441,211.02121 80.639196,237.70811 81.150726,265.13673 C 89.191255,289.5708 106.60267,309.73211 124.34281,327.76442 C 135.80376,328.92637 98.271334,332.38882 115.86581,330.74451 C 121.52462,329.26656 145.203,329.78482 129.93057,324.22648 C 113.45176,305.85141 93.884567,287.48929 91.804259,257.54854 C 89.723952,227.60778 108.18558,192.45178 128.35007,163.5019 C 134.67592,151.28119 152.20021,148.6867 151.41441,132.96809 C 155.73406,118.78947 138.83548,118.22612 137.00158,106.76355 C 133.20005,96.077366 143.74961,84.882226 147.92637,84.151172 z M 124.85569,329.7933 C 83.840304,332.83588 47.756495,328.08759 18.590855,355.82892 C 16.123506,363.19697 22.480975,354.50143 25.977115,352.78623 C 29.405731,351.10418 50.683939,340.23957 62.656268,338.28248 C 74.598832,336.33024 129.17318,331.74693 124.85569,329.7933 z " id="path13301" sodipodi:nodetypes="ccccccccccccccccczcccccczzc"/>
    <path style="overflow: visible; marker: none; color: rgb(0, 0, 0); fill: rgb(0, 128, 0); fill-opacity: 1; fill-rule: evenodd; stroke: none; stroke-width: 5.3445; stroke-linecap: round; stroke-linejoin: miter; stroke-miterlimit: 4; stroke-dasharray: none; stroke-dashoffset: 0pt; stroke-opacity: 1; visibility: visible; display: inline;" d="M 202.72722,133.54606 C 199.59765,151.02801 215.38051,187.60307 223.30983,204.5325 C 232.43108,242.9846 227.17551,285.04097 195.62543,310.2894 L 201.31314,330.16497 L 205.5711,319.51229 L 219.05192,299.63672 L 234.66957,270.53825 L 241.0486,230.08007 L 226.15371,181.10603 L 203.43428,137.09695 L 202.72722,133.54606 z M 127.1529,307.71265 C 133.5702,316.90211 140.59225,319.78619 145.81866,329.47365 C 150.10457,339.35809 144.91968,354.31559 132.00791,351.70601 C 117.09617,350.23788 102.32601,346.32929 87.213213,348.20225 C 70.739181,349.52615 57.487676,351.77396 46.67647,354.92695 C 35.865315,358.07995 28.91919,361.71173 18.237903,360.15902 C 23.101558,363.68177 31.840098,365.41775 42.355719,362.73577 C 68.924543,355.99665 94.939352,354.39871 122.1094,357.06377 C 134.04206,357.30982 148.28455,362.53342 159.40949,356.34102 C 163.86152,353.64229 169.23374,364.82246 176.83398,362.35869 C 204.17548,361.07919 232.23656,358.44259 259.58866,362.54723 C 273.07582,363.72962 285.83913,367.99714 299.33599,368.50257 C 306.29187,369.09677 308.98175,361.41243 306.91295,358.85493 C 304.40925,353.20102 297.874,350.62032 299.93686,359.342 C 291.31648,365.12329 280.5006,358.31572 271.12121,357.66083 C 244.17424,353.55843 216.68845,349.13542 189.45067,353.15151 C 178.28159,356.51946 163.72773,351.31887 170.21929,338.46086 C 175.46506,332.89934 177.9774,320.2545 188.19372,314.02884 C 193.50711,310.33828 184.4304,313.62139 173.97441,315.06582 C 163.51842,316.51025 145.58215,318.69683 127.1529,307.71265 z " id="path13295" sodipodi:nodetypes="cccccccccccccccscccccccccccccsc"/>
    <path style="overflow: visible; marker: none; color: rgb(0, 0, 0); fill: rgb(255, 255, 255); fill-opacity: 1; fill-rule: evenodd; stroke: none; stroke-width: 5.3445; stroke-linecap: round; stroke-linejoin: miter; stroke-miterlimit: 4; stroke-dasharray: none; stroke-dashoffset: 0pt; stroke-opacity: 1; visibility: visible; display: inline;" d="M 214.03794,332.82181 L 199.28105,331.59207 C 199.28105,331.59207 206.04462,337.74077 212.19333,337.74077 C 218.34204,337.74077 244.16655,337.74077 257.69368,340.20025 C 271.22086,342.65973 277.36952,344.50434 282.28849,345.73408 C 287.20745,346.96382 289.66695,345.73408 289.66695,345.73408 L 274.91007,340.20025 L 255.84908,335.89616 L 214.03794,332.82181 z " id="path18331"/>
    <path style="fill: rgb(0, 0, 0); fill-rule: evenodd; stroke: none; stroke-width: 1px; stroke-linecap: butt; stroke-linejoin: miter; stroke-opacity: 1;" d="M 205.23635,6.5780717 C 186.51242,6.1210686 174.46201,30.486886 186.52866,44.973639 C 201.98823,52.128846 198.06759,68.915607 198.32587,83.449139 C 197.00426,101.91263 196.32651,123.03566 183.26355,137.44813 C 170.75455,151.96793 146.86464,130.81305 162.76264,120.28544 C 179.62824,112.63296 174.75578,83.773081 156.45947,81.634727 C 139.77055,76.996071 122.34777,94.014992 129.41064,110.70094 C 134.62016,121.4279 151.44649,128.76961 140.23422,142.66517 C 126.43076,151.23694 115.41784,163.33687 107.6119,177.59053 C 92.088934,203.37881 81.882273,232.49902 78.881121,262.49375 C 82.818552,289.32819 103.28381,308.67116 120.5177,328.04386 C 98.288982,329.07106 75.900885,330.3623 53.96147,334.01188 C 40.169726,338.78378 26.39744,346.15047 16.598132,357.07271 C 18.006975,372.15741 40.789203,362.75164 51.126588,361.27681 C 83.331791,353.65058 116.33808,358.55005 148.84178,360.44508 C 158.15721,358.53186 161.78584,354.20232 168.73814,362.26321 C 183.24831,366.71913 198.60577,361.06666 213.45888,361.29564 C 240.67107,358.55862 267.9836,363.23602 294.43674,369.31095 C 312.49327,373.09182 311.64413,353.90534 296.96442,349.29881 C 283.32683,339.31447 266.93827,334.8688 250.04422,334.70061 C 237.03711,329.88151 213.72596,337.81854 207.54235,326.549 C 212.64372,310.8 227.77659,299.53697 232.82381,283.0965 C 248.44467,249.38706 243.32756,209.61542 225.9985,177.629 C 219.51624,164.11802 211.57491,151.03787 206.2586,137.06398 C 207.53134,107.84629 214.34021,79.156709 219.45566,50.430028 C 236.29239,40.210073 231.36187,11.594431 212.1339,7.4265151 C 209.89155,6.8121315 207.5597,6.5328364 205.23635,6.5780717 z M 205.20492,9.9875574 C 221.76166,8.7091605 232.85895,30.018696 222.52453,42.927611 C 210.1723,52.53907 214.15282,71.362709 209.47017,85.261952 C 206.7007,102.90494 202.93994,119.91435 202.73129,137.19436 C 214.42161,168.05372 237.28554,196.07289 237.40243,230.5316 C 239.14341,262.32723 224.12669,292.63072 202.48679,315.14438 C 198.10977,321.81344 199.7499,332.15162 198.81764,332.69906 C 228.88783,339.64639 261.93389,332.5364 290.03227,348.00743 C 300.11409,351.2845 318.27702,368.39539 295.77107,367.1345 C 268.30126,360.64291 240.06451,355.71483 211.70619,358.22336 C 197.17063,357.54444 181.13261,364.21929 167.59583,357.24865 C 161.73812,346.6386 173.5296,334.07924 175.55656,322.92178 C 175.0218,319.00435 178.92927,319.04081 181.46424,317.35976 C 182.64683,316.72966 185.42827,315.09896 185.40791,314.86157 C 176.96933,318.62571 167.39899,319.86644 158.43057,319.10077 C 150.01965,320.1647 140.40456,317.75884 133.9671,312.45764 C 138.49313,317.92725 145.25549,321.01536 152.05154,322.49756 C 159.6465,336.26176 166.15883,362.45968 141.24792,356.59251 C 107.51718,353.37314 73.894284,351.55113 40.940037,360.84188 C 31.338775,367.34542 7.1341288,360.37282 25.046014,351.13509 C 43.777232,336.10174 68.349763,332.07608 91.758054,333.02209 C 104.96722,332.2312 118.88562,332.36937 131.4375,328.20098 C 118.53664,323.29486 111.04419,307.6998 101.76918,297.36568 C 92.722589,283.70028 80.933575,268.06631 85.669875,250.68606 C 90.657767,218.10689 103.19708,185.94577 123.72298,160.00526 C 132.53573,150.38125 150.94718,145.41962 146.6309,128.92676 C 144.01166,116.20726 123.86165,110.09118 133.55859,93.622084 C 142.24574,78.935425 169.93029,82.633396 169.58548,101.45317 C 169.96473,117.41585 143.95223,122.08781 157.69209,140.61642 C 172.78785,153.06605 194.09155,138.52509 196.21891,121.11117 C 202.69232,98.655116 202.91561,74.608609 200.44429,51.655558 C 185.47433,46.566526 177.97082,21.415761 195.82876,12.539323 C 198.69209,10.960042 201.93503,10.072734 205.20492,9.9875574 z M 208.48879,238.76876 C 201.37996,263.63574 173.34614,282.98845 147.72898,273.03522 C 139.7889,270.79316 120.64385,260.44243 137.77773,271.0375 C 157.12827,282.59798 183.47034,278.76156 198.31596,261.65848 C 204.6858,256.59615 210.31348,240.50268 209.25553,257.22672 C 210.50911,269.92739 212.18921,240.81372 208.48879,238.76876 z " id="path5915" sodipodi:nodetypes="cccccccccccccccccccccccccccccccccccccccccccccccccccccccccccccccccc"/>
    <path style="overflow: visible; marker: none; color: rgb(0, 0, 0); fill: rgb(255, 255, 255); fill-opacity: 1; fill-rule: evenodd; stroke: rgb(0, 0, 0); stroke-width: 3.50157; stroke-linecap: butt; stroke-linejoin: miter; stroke-miterlimit: 4; stroke-dasharray: none; stroke-dashoffset: 0pt; stroke-opacity: 1; visibility: visible; display: inline;" id="path9033" sodipodi:cx="1917.8973" sodipodi:cy="289.08484" sodipodi:type="arc" d="M 1945.4159 289.08484 A 27.518538 27.518538 0 1 1  1890.3788,289.08484 A 27.518538 27.518538 0 1 1  1945.4159 289.08484 z" transform="matrix(0.580667, 0, 0, 0.580667, -910.103, -135.083)" sodipodi:rx="27.518538" sodipodi:ry="27.518538"/>
    <path style="overflow: visible; marker: none; color: rgb(0, 0, 0); fill: rgb(255, 255, 255); fill-opacity: 1; fill-rule: evenodd; stroke: rgb(0, 0, 0); stroke-width: 17.3531; stroke-linecap: butt; stroke-linejoin: miter; stroke-miterlimit: 4; stroke-dasharray: none; stroke-dashoffset: 0pt; stroke-opacity: 1; visibility: visible; display: inline;" id="path10004" sodipodi:cx="1916.449" sodipodi:cy="309.07199" sodipodi:type="arc" d="M 1932.6704 309.07199 A 16.221455 16.221455 0 1 1  1900.2275,309.07199 A 16.221455 16.221455 0 1 1  1932.6704 309.07199 z" transform="matrix(0.470908, 0, 0, 0.470908, -699.205, -108.688)" sodipodi:rx="16.221455" sodipodi:ry="16.221455"/>
    <g id="g11950" transform="matrix(0.443854, 0, 0, 0.443854, -705.457, -26.1546)">
      <path style="overflow: visible; marker: none; opacity: 1; color: rgb(0, 0, 0); fill: rgb(255, 255, 255); fill-opacity: 1; fill-rule: evenodd; stroke: rgb(0, 0, 0); stroke-width: 3.50157; stroke-linecap: butt; stroke-linejoin: miter; stroke-miterlimit: 4; stroke-dasharray: none; stroke-dashoffset: 0pt; stroke-opacity: 1; visibility: visible; display: inline;" id="path11946" sodipodi:cx="1917.8973" sodipodi:cy="289.08484" sodipodi:type="arc" d="M 1945.4159 289.08484 A 27.518538 27.518538 0 1 1  1890.3788,289.08484 A 27.518538 27.518538 0 1 1  1945.4159 289.08484 z" transform="matrix(1.15491, 0, 0, 1.15491, -294.785, -39.5683)" sodipodi:rx="27.518538" sodipodi:ry="27.518538"/>
      <path style="overflow: visible; marker: none; opacity: 1; color: rgb(0, 0, 0); fill: rgb(255, 255, 255); fill-opacity: 1; fill-rule: evenodd; stroke: rgb(0, 0, 0); stroke-width: 17.3531; stroke-linecap: butt; stroke-linejoin: miter; stroke-miterlimit: 4; stroke-dasharray: none; stroke-dashoffset: 0pt; stroke-opacity: 1; visibility: visible; display: inline;" id="path11948" sodipodi:cx="1916.449" sodipodi:cy="309.07199" sodipodi:type="arc" d="M 1932.6704 309.07199 A 16.221455 16.221455 0 1 1  1900.2275,309.07199 A 16.221455 16.221455 0 1 1  1932.6704 309.07199 z" transform="matrix(0.936607, 0, 0, 0.936607, 124.676, 12.9307)" sodipodi:rx="16.221455" sodipodi:ry="16.221455"/>
    </g>
    <path id="path16260" style="overflow: visible; marker: none; color: rgb(0, 0, 0); fill: rgb(221, 255, 85); fill-opacity: 1; fill-rule: evenodd; stroke: none; stroke-width: 5.3445; stroke-linecap: round; stroke-linejoin: miter; stroke-miterlimit: 4; stroke-dashoffset: 0pt; stroke-opacity: 1; visibility: visible; display: inline;" d="M 150.82958,157.06833 C 150.82958,157.91357 150.14358,158.59955 149.29836,158.59955 C 148.45313,158.59955 147.76714,157.91357 147.76714,157.06833 C 147.76714,156.2231 148.45313,155.53711 149.29836,155.53711 C 150.14358,155.53711 150.82958,156.2231 150.82958,157.06833 z M 166.29714,160.80765 C 166.29714,161.90645 165.40536,162.79823 164.30658,162.79823 C 163.20775,162.79823 162.31597,161.90645 162.31597,160.80765 C 162.31597,159.70884 163.20775,158.81706 164.30658,158.81706 C 165.40536,158.81706 166.29714,159.70884 166.29714,160.80765 z M 156.79915,180.56262 C 156.79915,181.49238 156.04453,182.24697 155.11478,182.24697 C 154.18504,182.24697 153.43041,181.49238 153.43041,180.56262 C 153.43041,179.63287 154.18504,178.87828 155.11478,178.87828 C 156.04453,178.87828 156.79915,179.63287 156.79915,180.56262 z M 170.31829,194.74529 C 170.31829,195.59053 169.63229,196.27651 168.78707,196.27651 C 167.94179,196.27651 167.25579,195.59053 167.25579,194.74529 C 167.25579,193.90005 167.94179,193.21406 168.78707,193.21406 C 169.63229,193.21406 170.31829,193.90005 170.31829,194.74529 z M 194.12543,159.75575 C 194.12543,161.19265 192.95923,162.35883 191.52233,162.35883 C 190.08543,162.35883 188.91923,161.19265 188.91923,159.75575 C 188.91923,158.31885 190.08543,157.15267 191.52233,157.15267 C 192.95923,157.15267 194.12543,158.31885 194.12543,159.75575 z M 197.26777,175.50737 C 197.26777,176.26808 196.65035,176.88547 195.88964,176.88547 C 195.12893,176.88547 194.51157,176.26808 194.51157,175.50737 C 194.51157,174.74666 195.12893,174.12927 195.88964,174.12927 C 196.65035,174.12927 197.26777,174.74666 197.26777,175.50737 z M 186.24293,190.36023 C 186.24293,191.88165 185.00815,193.11642 183.48673,193.11642 C 181.96531,193.11642 180.73053,191.88165 180.73053,190.36023 C 180.73053,188.8388 181.96531,187.60403 183.48673,187.60403 C 185.00815,187.60403 186.24293,188.8388 186.24293,190.36023 z M 175.20044,175.9268 C 175.20044,177.44823 173.96566,178.68301 172.4442,178.68301 C 170.92278,178.68301 169.688,177.44823 169.688,175.9268 C 169.688,174.40538 170.92278,173.1706 172.4442,173.1706 C 173.96566,173.1706 175.20044,174.40538 175.20044,175.9268 z M 151.33553,198.26266 C 151.33553,200.2067 149.75775,201.78447 147.81374,201.78447 C 145.86969,201.78447 144.29191,200.2067 144.29191,198.26266 C 144.29191,196.31862 145.86969,194.74085 147.81374,194.74085 C 149.75775,194.74085 151.33553,196.31862 151.33553,198.26266 z M 141.74874,170.67181 C 141.74874,171.68609 140.92559,172.50927 139.91128,172.50927 C 138.89702,172.50927 138.07381,171.68609 138.07381,170.67181 C 138.07381,169.65752 138.89702,168.83434 139.91128,168.83434 C 140.92559,168.83434 141.74874,169.65752 141.74874,170.67181 z M 125.3003,187.2978 C 125.3003,187.97399 124.75152,188.52278 124.07533,188.52278 C 123.39914,188.52278 122.85035,187.97399 122.85035,187.2978 C 122.85035,186.62161 123.39914,186.07282 124.07533,186.07282 C 124.75152,186.07282 125.3003,186.62161 125.3003,187.2978 z M 123.29979,202.35591 C 123.29979,203.06087 122.71892,203.63303 122.00321,203.63303 C 121.28756,203.63303 120.70669,203.06087 120.70669,202.35591 C 120.70669,201.65093 121.28756,201.07877 122.00321,201.07877 C 122.71892,201.07877 123.29979,201.65093 123.29979,202.35591 z M 161.43716,213.53719 C 161.43716,214.38242 160.75116,215.06841 159.90594,215.06841 C 159.06071,215.06841 158.37472,214.38242 158.37472,213.53719 C 158.37472,212.69195 159.06071,212.00596 159.90594,212.00596 C 160.75116,212.00596 161.43716,212.69195 161.43716,213.53719 z M 206.0956,191.23903 C 206.0956,191.91522 205.54681,192.46401 204.87062,192.46401 C 204.19443,192.46401 203.64565,191.91522 203.64565,191.23903 C 203.64565,190.56284 204.19443,190.01405 204.87062,190.01405 C 205.54681,190.01405 206.0956,190.56284 206.0956,191.23903 z M 204.09508,206.29714 C 204.09508,207.0021 203.51422,207.57426 202.79856,207.57426 C 202.08285,207.57426 201.50199,207.0021 201.50199,206.29714 C 201.50199,205.59216 202.08285,205.02 202.79856,205.02 C 203.51422,205.02 204.09508,205.59216 204.09508,206.29714 z "/>
  </g>
</svg>