<?xml version="1.0" encoding="UTF-8" standalone="no"?>
<!-- Created with Inkscape (http://www.inkscape.org/) -->

<svg
   xmlns:dc="http://purl.org/dc/elements/1.1/"
   xmlns:cc="http://creativecommons.org/ns#"
   xmlns:rdf="http://www.w3.org/1999/02/22-rdf-syntax-ns#"
   xmlns:svg="http://www.w3.org/2000/svg"
   xmlns="http://www.w3.org/2000/svg"
   xmlns:xlink="http://www.w3.org/1999/xlink"
   xmlns:sodipodi="http://sodipodi.sourceforge.net/DTD/sodipodi-0.dtd"
   xmlns:inkscape="http://www.inkscape.org/namespaces/inkscape"
   width="200.12"
   height="844"
   id="svg3365"
   sodipodi:version="0.32"
   inkscape:version="0.48.0 r9654"
   sodipodi:docname="coltello.svg"
   inkscape:output_extension="org.inkscape.output.svg.inkscape"
   version="1.0"
   inkscape:export-filename="/home/roger/mis-dibujos/open/fork_spoon.png"
   inkscape:export-xdpi="15.736518"
   inkscape:export-ydpi="15.736518">
  <defs
     id="defs3367">
    <linearGradient
       inkscape:collect="always"
       id="linearGradient14298">
      <stop
         style="stop-color: rgb(162, 166, 161); stop-opacity: 1;"
         offset="0"
         id="stop14300" />
      <stop
         style="stop-color: rgb(162, 166, 161); stop-opacity: 0;"
         offset="1"
         id="stop14302" />
    </linearGradient>
    <linearGradient
       inkscape:collect="always"
       id="linearGradient14210">
      <stop
         style="stop-color: rgb(238, 238, 236); stop-opacity: 1;"
         offset="0"
         id="stop14212" />
      <stop
         style="stop-color: rgb(238, 238, 236); stop-opacity: 0;"
         offset="1"
         id="stop14214" />
    </linearGradient>
    <linearGradient
       inkscape:collect="always"
       id="linearGradient4816">
      <stop
         style="stop-color: rgb(228, 229, 226); stop-opacity: 1;"
         offset="0"
         id="stop4818" />
      <stop
         style="stop-color: rgb(228, 229, 226); stop-opacity: 0;"
         offset="1"
         id="stop4820" />
    </linearGradient>
    <linearGradient
       inkscape:collect="always"
       id="linearGradient4801">
      <stop
         style="stop-color: rgb(162, 166, 161); stop-opacity: 1;"
         offset="0"
         id="stop4803" />
      <stop
         style="stop-color: rgb(162, 166, 161); stop-opacity: 0;"
         offset="1"
         id="stop4805" />
    </linearGradient>
    <linearGradient
       inkscape:collect="always"
       id="linearGradient4618">
      <stop
         style="stop-color: rgb(255, 255, 255); stop-opacity: 1;"
         offset="0"
         id="stop4620" />
      <stop
         style="stop-color: rgb(255, 255, 255); stop-opacity: 0;"
         offset="1"
         id="stop4622" />
    </linearGradient>
    <linearGradient
       inkscape:collect="always"
       id="linearGradient4606">
      <stop
         style="stop-color: rgb(158, 163, 158); stop-opacity: 1;"
         offset="0"
         id="stop4608" />
      <stop
         style="stop-color: rgb(158, 163, 158); stop-opacity: 0;"
         offset="1"
         id="stop4610" />
    </linearGradient>
    <linearGradient
       inkscape:collect="always"
       id="linearGradient4598">
      <stop
         style="stop-color: rgb(158, 163, 158); stop-opacity: 1;"
         offset="0"
         id="stop4600" />
      <stop
         style="stop-color: rgb(158, 163, 158); stop-opacity: 0;"
         offset="1"
         id="stop4602" />
    </linearGradient>
    <linearGradient
       inkscape:collect="always"
       id="linearGradient4590">
      <stop
         style="stop-color: rgb(158, 163, 158); stop-opacity: 1;"
         offset="0"
         id="stop4592" />
      <stop
         style="stop-color: rgb(158, 163, 158); stop-opacity: 0;"
         offset="1"
         id="stop4594" />
    </linearGradient>
    <linearGradient
       inkscape:collect="always"
       id="linearGradient4582">
      <stop
         style="stop-color: rgb(172, 176, 171); stop-opacity: 1;"
         offset="0"
         id="stop4584" />
      <stop
         style="stop-color: rgb(172, 176, 171); stop-opacity: 0;"
         offset="1"
         id="stop4586" />
    </linearGradient>
    <linearGradient
       inkscape:collect="always"
       id="linearGradient4570">
      <stop
         style="stop-color: rgb(46, 52, 54); stop-opacity: 1;"
         offset="0"
         id="stop4572" />
      <stop
         style="stop-color: rgb(46, 52, 54); stop-opacity: 0;"
         offset="1"
         id="stop4574" />
    </linearGradient>
    <linearGradient
       inkscape:collect="always"
       id="linearGradient4558">
      <stop
         style="stop-color: rgb(46, 52, 54); stop-opacity: 1;"
         offset="0"
         id="stop4560" />
      <stop
         style="stop-color: rgb(46, 52, 54); stop-opacity: 0;"
         offset="1"
         id="stop4562" />
    </linearGradient>
    <inkscape:perspective
       sodipodi:type="inkscape:persp3d"
       inkscape:vp_x="0 : 526.18109 : 1"
       inkscape:vp_y="0 : 1000 : 0"
       inkscape:vp_z="744.09448 : 526.18109 : 1"
       inkscape:persp3d-origin="372.04724 : 350.78739 : 1"
       id="perspective3373" />
    <inkscape:perspective
       id="perspective3881"
       inkscape:persp3d-origin="159.44882 : 41.338582 : 1"
       inkscape:vp_z="318.89764 : 62.007874 : 1"
       inkscape:vp_y="0 : 1000 : 0"
       inkscape:vp_x="0 : 62.007874 : 1"
       sodipodi:type="inkscape:persp3d" />
    <linearGradient
       inkscape:collect="always"
       xlink:href="#linearGradient4570"
       id="linearGradient4576"
       x1="216"
       y1="435.98718"
       x2="216"
       y2="439.86218"
       gradientUnits="userSpaceOnUse"
       gradientTransform="matrix(1.85634,0,0,1.85634,-243.987,-215.718)" />
    <linearGradient
       inkscape:collect="always"
       xlink:href="#linearGradient4570"
       id="linearGradient4580"
       gradientUnits="userSpaceOnUse"
       x1="216"
       y1="435.98718"
       x2="216"
       y2="439.86218"
       gradientTransform="matrix(1.85634,0,0,1.85634,-243.987,-205.508)" />
    <linearGradient
       inkscape:collect="always"
       xlink:href="#linearGradient4582"
       id="linearGradient4588"
       x1="204.34375"
       y1="551.03125"
       x2="208.59375"
       y2="551.03125"
       gradientUnits="userSpaceOnUse"
       gradientTransform="matrix(1.85634,0,0,1.85634,-243.987,-215.718)" />
    <linearGradient
       inkscape:collect="always"
       xlink:href="#linearGradient4590"
       id="linearGradient4596"
       x1="211.84375"
       y1="551.35938"
       x2="216.09375"
       y2="551.35938"
       gradientUnits="userSpaceOnUse"
       gradientTransform="matrix(1.85634,0,0,1.85634,-243.987,-215.718)" />
    <linearGradient
       inkscape:collect="always"
       xlink:href="#linearGradient4598"
       id="linearGradient4604"
       x1="219.34375"
       y1="551.35938"
       x2="223.59375"
       y2="551.35938"
       gradientUnits="userSpaceOnUse"
       gradientTransform="matrix(1.85634,0,0,1.85634,-243.987,-215.718)" />
    <linearGradient
       inkscape:collect="always"
       xlink:href="#linearGradient4606"
       id="linearGradient4612"
       x1="226.875"
       y1="550.9375"
       x2="231.09375"
       y2="550.9375"
       gradientUnits="userSpaceOnUse"
       gradientTransform="matrix(1.85634,0,0,1.85634,-243.987,-215.718)" />
    <radialGradient
       inkscape:collect="always"
       xlink:href="#linearGradient4558"
       id="radialGradient4614"
       cx="217.49129"
       cy="394.22855"
       fx="217.49129"
       fy="394.22855"
       r="33.00016"
       gradientTransform="matrix(3.92472,0.198883,-0.107204,2.11554,-651.579,-357.445)"
       gradientUnits="userSpaceOnUse" />
    <radialGradient
       inkscape:collect="always"
       xlink:href="#linearGradient4618"
       id="radialGradient4624"
       cx="216.75"
       cy="371.36218"
       fx="216.75"
       fy="371.36218"
       r="28.25"
       gradientTransform="matrix(3.65487,2.25292e-8,0,0.123894,-575.443,322.353)"
       gradientUnits="userSpaceOnUse" />
    <radialGradient
       inkscape:collect="always"
       xlink:href="#linearGradient4618"
       id="radialGradient4702"
       gradientUnits="userSpaceOnUse"
       gradientTransform="matrix(3.65487,2.25292e-8,0,0.123894,-575.443,322.353)"
       cx="216.75"
       cy="371.36218"
       fx="216.75"
       fy="371.36218"
       r="28.25" />
    <linearGradient
       inkscape:collect="always"
       xlink:href="#linearGradient4570"
       id="linearGradient4774"
       gradientUnits="userSpaceOnUse"
       gradientTransform="matrix(1.85634,0,0,1.85634,-37.2201,-205.508)"
       x1="216"
       y1="435.98718"
       x2="216"
       y2="439.86218" />
    <linearGradient
       inkscape:collect="always"
       xlink:href="#linearGradient4570"
       id="linearGradient4777"
       gradientUnits="userSpaceOnUse"
       gradientTransform="matrix(1.85634,0,0,1.85634,-37.2201,-215.718)"
       x1="216"
       y1="435.98718"
       x2="216"
       y2="439.86218" />
    <linearGradient
       inkscape:collect="always"
       xlink:href="#linearGradient4598"
       id="linearGradient4780"
       gradientUnits="userSpaceOnUse"
       gradientTransform="matrix(1.85634,0,0,1.85634,-37.2201,-215.718)"
       x1="219.34375"
       y1="551.35938"
       x2="223.59375"
       y2="551.35938" />
    <linearGradient
       inkscape:collect="always"
       xlink:href="#linearGradient4590"
       id="linearGradient4783"
       gradientUnits="userSpaceOnUse"
       gradientTransform="matrix(1.85634,0,0,1.85634,-37.2201,-215.718)"
       x1="211.84375"
       y1="551.35938"
       x2="216.09375"
       y2="551.35938" />
    <linearGradient
       inkscape:collect="always"
       xlink:href="#linearGradient4582"
       id="linearGradient4786"
       gradientUnits="userSpaceOnUse"
       gradientTransform="matrix(1.85634,0,0,1.85634,-37.2201,-215.718)"
       x1="204.34375"
       y1="551.03125"
       x2="208.59375"
       y2="551.03125" />
    <linearGradient
       inkscape:collect="always"
       xlink:href="#linearGradient4606"
       id="linearGradient4789"
       gradientUnits="userSpaceOnUse"
       gradientTransform="matrix(1.85634,0,0,1.85634,-37.2201,-215.718)"
       x1="226.875"
       y1="550.9375"
       x2="231.09375"
       y2="550.9375" />
    <linearGradient
       inkscape:collect="always"
       xlink:href="#linearGradient4801"
       id="linearGradient4807"
       x1="329.875"
       y1="390.71875"
       x2="329.875"
       y2="427.375"
       gradientUnits="userSpaceOnUse"
       gradientTransform="matrix(1.85634,0,0,1.85634,-243.987,-215.718)" />
    <radialGradient
       inkscape:collect="always"
       xlink:href="#linearGradient4816"
       id="radialGradient4822"
       cx="439.70035"
       cy="352.87976"
       fx="439.70035"
       fy="352.87976"
       r="46.78125"
       gradientTransform="matrix(2.33252,0,0,3.06166,-634.959,-721.172)"
       gradientUnits="userSpaceOnUse" />
    <radialGradient
       inkscape:collect="always"
       xlink:href="#linearGradient4816"
       id="radialGradient4854"
       gradientUnits="userSpaceOnUse"
       gradientTransform="matrix(2.33252,0,0,3.06166,-634.959,-721.172)"
       cx="439.70035"
       cy="352.87976"
       fx="439.70035"
       fy="352.87976"
       r="46.78125" />
    <linearGradient
       inkscape:collect="always"
       xlink:href="#linearGradient4606"
       id="linearGradient13630"
       gradientUnits="userSpaceOnUse"
       gradientTransform="matrix(1.85634,0,0,1.85634,166.013,-207.718)"
       x1="226.875"
       y1="550.9375"
       x2="231.09375"
       y2="550.9375" />
    <linearGradient
       inkscape:collect="always"
       xlink:href="#linearGradient4582"
       id="linearGradient13632"
       gradientUnits="userSpaceOnUse"
       gradientTransform="matrix(1.85634,0,0,1.85634,166.013,-207.718)"
       x1="204.34375"
       y1="551.03125"
       x2="208.59375"
       y2="551.03125" />
    <linearGradient
       inkscape:collect="always"
       xlink:href="#linearGradient4590"
       id="linearGradient13634"
       gradientUnits="userSpaceOnUse"
       gradientTransform="matrix(1.85634,0,0,1.85634,166.013,-207.718)"
       x1="211.84375"
       y1="551.35938"
       x2="216.09375"
       y2="551.35938" />
    <linearGradient
       inkscape:collect="always"
       xlink:href="#linearGradient4598"
       id="linearGradient13636"
       gradientUnits="userSpaceOnUse"
       gradientTransform="matrix(1.85634,0,0,1.85634,166.013,-207.718)"
       x1="219.34375"
       y1="551.35938"
       x2="223.59375"
       y2="551.35938" />
    <linearGradient
       inkscape:collect="always"
       xlink:href="#linearGradient4570"
       id="linearGradient13640"
       gradientUnits="userSpaceOnUse"
       gradientTransform="matrix(1.85634,0,0,1.85634,166.013,-207.718)"
       x1="216"
       y1="435.98718"
       x2="216"
       y2="439.86218" />
    <linearGradient
       inkscape:collect="always"
       xlink:href="#linearGradient4570"
       id="linearGradient13642"
       gradientUnits="userSpaceOnUse"
       gradientTransform="matrix(1.85634,0,0,1.85634,166.013,-197.508)"
       x1="216"
       y1="435.98718"
       x2="216"
       y2="439.86218" />
    <radialGradient
       inkscape:collect="always"
       xlink:href="#linearGradient4618"
       id="radialGradient13696"
       gradientUnits="userSpaceOnUse"
       gradientTransform="matrix(3.65487,2.25292e-8,0,0.123894,-575.443,322.353)"
       cx="216.75"
       cy="371.36218"
       fx="216.75"
       fy="371.36218"
       r="28.25" />
    <linearGradient
       inkscape:collect="always"
       xlink:href="#linearGradient14210"
       id="linearGradient14216"
       x1="672"
       y1="390.36218"
       x2="710"
       y2="390.36218"
       gradientUnits="userSpaceOnUse"
       gradientTransform="translate(-87,2)" />
    <radialGradient
       inkscape:collect="always"
       xlink:href="#linearGradient4618"
       id="radialGradient14220"
       gradientUnits="userSpaceOnUse"
       gradientTransform="matrix(3.65487,2.25292e-8,0,0.123894,-575.443,322.353)"
       cx="216.75"
       cy="371.36218"
       fx="216.75"
       fy="371.36218"
       r="28.25" />
    <linearGradient
       inkscape:collect="always"
       xlink:href="#linearGradient4606"
       id="linearGradient14257"
       gradientUnits="userSpaceOnUse"
       gradientTransform="matrix(1.85634,0,0,1.85634,166.013,-207.718)"
       x1="226.875"
       y1="550.9375"
       x2="231.09375"
       y2="550.9375" />
    <linearGradient
       inkscape:collect="always"
       xlink:href="#linearGradient4582"
       id="linearGradient14259"
       gradientUnits="userSpaceOnUse"
       gradientTransform="matrix(1.85634,0,0,1.85634,166.013,-207.718)"
       x1="204.34375"
       y1="551.03125"
       x2="208.59375"
       y2="551.03125" />
    <linearGradient
       inkscape:collect="always"
       xlink:href="#linearGradient4590"
       id="linearGradient14261"
       gradientUnits="userSpaceOnUse"
       gradientTransform="matrix(1.85634,0,0,1.85634,166.013,-207.718)"
       x1="211.84375"
       y1="551.35938"
       x2="216.09375"
       y2="551.35938" />
    <linearGradient
       inkscape:collect="always"
       xlink:href="#linearGradient4598"
       id="linearGradient14263"
       gradientUnits="userSpaceOnUse"
       gradientTransform="matrix(1.85634,0,0,1.85634,166.013,-207.718)"
       x1="219.34375"
       y1="551.35938"
       x2="223.59375"
       y2="551.35938" />
    <linearGradient
       inkscape:collect="always"
       xlink:href="#linearGradient4570"
       id="linearGradient14265"
       gradientUnits="userSpaceOnUse"
       gradientTransform="matrix(1.85634,0,0,1.85634,166.013,-207.718)"
       x1="216"
       y1="435.98718"
       x2="216"
       y2="439.86218" />
    <linearGradient
       inkscape:collect="always"
       xlink:href="#linearGradient4570"
       id="linearGradient14267"
       gradientUnits="userSpaceOnUse"
       gradientTransform="matrix(1.85634,0,0,1.85634,166.013,-197.508)"
       x1="216"
       y1="435.98718"
       x2="216"
       y2="439.86218" />
    <linearGradient
       inkscape:collect="always"
       xlink:href="#linearGradient14210"
       id="linearGradient14269"
       gradientUnits="userSpaceOnUse"
       gradientTransform="translate(-87,2)"
       x1="672"
       y1="390.36218"
       x2="710"
       y2="390.36218" />
    <radialGradient
       inkscape:collect="always"
       xlink:href="#linearGradient4618"
       id="radialGradient14271"
       gradientUnits="userSpaceOnUse"
       gradientTransform="matrix(3.65487,2.25292e-8,0,0.123894,-575.443,322.353)"
       cx="216.75"
       cy="371.36218"
       fx="216.75"
       fy="371.36218"
       r="28.25" />
    <linearGradient
       inkscape:collect="always"
       xlink:href="#linearGradient4570"
       id="linearGradient14278"
       gradientUnits="userSpaceOnUse"
       gradientTransform="matrix(1.85634,0,0,1.85634,-263.987,-197.508)"
       x1="216"
       y1="435.98718"
       x2="216"
       y2="439.86218" />
    <linearGradient
       inkscape:collect="always"
       xlink:href="#linearGradient4570"
       id="linearGradient14281"
       gradientUnits="userSpaceOnUse"
       gradientTransform="matrix(1.85634,0,0,1.85634,-263.987,-207.718)"
       x1="216"
       y1="435.98718"
       x2="216"
       y2="439.86218" />
    <linearGradient
       inkscape:collect="always"
       xlink:href="#linearGradient4598"
       id="linearGradient14284"
       gradientUnits="userSpaceOnUse"
       gradientTransform="matrix(1.85634,0,0,1.85634,-263.987,-207.718)"
       x1="219.34375"
       y1="551.35938"
       x2="223.59375"
       y2="551.35938" />
    <linearGradient
       inkscape:collect="always"
       xlink:href="#linearGradient4590"
       id="linearGradient14287"
       gradientUnits="userSpaceOnUse"
       gradientTransform="matrix(1.85634,0,0,1.85634,-263.987,-207.718)"
       x1="211.84375"
       y1="551.35938"
       x2="216.09375"
       y2="551.35938" />
    <linearGradient
       inkscape:collect="always"
       xlink:href="#linearGradient4582"
       id="linearGradient14290"
       gradientUnits="userSpaceOnUse"
       gradientTransform="matrix(1.85634,0,0,1.85634,-263.987,-207.718)"
       x1="204.34375"
       y1="551.03125"
       x2="208.59375"
       y2="551.03125" />
    <linearGradient
       inkscape:collect="always"
       xlink:href="#linearGradient4606"
       id="linearGradient14293"
       gradientUnits="userSpaceOnUse"
       gradientTransform="matrix(1.85634,0,0,1.85634,-263.987,-207.718)"
       x1="226.875"
       y1="550.9375"
       x2="231.09375"
       y2="550.9375" />
    <radialGradient
       inkscape:collect="always"
       xlink:href="#linearGradient4618"
       id="radialGradient14296"
       gradientUnits="userSpaceOnUse"
       gradientTransform="matrix(3.65487,2.25292e-8,0,0.123894,-575.443,322.353)"
       cx="216.75"
       cy="371.36218"
       fx="216.75"
       fy="371.36218"
       r="28.25" />
    <linearGradient
       inkscape:collect="always"
       xlink:href="#linearGradient14298"
       id="linearGradient14304"
       x1="631.841"
       y1="390.36218"
       x2="588.95178"
       y2="390.36218"
       gradientUnits="userSpaceOnUse"
       gradientTransform="matrix(-0.702271,0,0,1,598.21,2.0000001)" />
  </defs>
  <sodipodi:namedview
     id="base"
     pagecolor="#ffffff"
     bordercolor="#666666"
     borderopacity="1.0"
     inkscape:pageopacity="0.0"
     inkscape:pageshadow="2"
     inkscape:zoom="0.5"
     inkscape:cx="593.11482"
     inkscape:cy="386.57724"
     inkscape:document-units="px"
     inkscape:current-layer="layer1"
     showgrid="false"
     inkscape:window-width="1272"
     inkscape:window-height="821"
     inkscape:window-x="0"
     inkscape:window-y="24"
     inkscape:window-maximized="0" />
  <metadata
     id="metadata3370">
    <rdf:RDF>
      <cc:Work
         rdf:about="">
        <dc:format>image/svg+xml</dc:format>
        <dc:type
           rdf:resource="http://purl.org/dc/dcmitype/StillImage" />
        <dc:title />
      </cc:Work>
    </rdf:RDF>
  </metadata>
  <g
     inkscape:label="Capa 1"
     inkscape:groupmode="layer"
     id="layer1"
     transform="translate(-36,-178.362)">
    <path
       style="fill:#d3d7cf;fill-opacity:1;stroke:none"
       d="m 98,266.71875 10.34375,715.5 c -1e-5,10.90797 8.77954,19.71885 19.6875,19.71875 l 19.46875,0 c 10.90801,0 19.6875,-8.81079 19.6875,-19.71875 l -1.5,-381.46875 c 10.73845,-0.50428 19.41964,-0.0108 25.21875,0.34375 l 0,0.0625 7.21875,-0.0625 -3.625,-2.0625 -1.09375,-0.625 1.125,-0.625 3.59375,-2.125 -3.625,-2.0625 -1.09375,-0.625 1.125,-0.625 3.59375,-2.125 -3.625,-2.0625 -1.09375,-0.625 1.125,-0.65625 3.59375,-2.09375 -3.625,-2.0625 -1.09375,-0.625 1.125,-0.65625 3.59375,-2.09375 -3.625,-2.0625 -1.09375,-0.625 1.125,-0.65625 3.59375,-2.09375 -3.625,-2.0625 -0.6875,-0.40625 0.71875,-0.40625 3.59375,-2.09375 -3.625,-2.0625 -1.09375,-0.625 1.125,-0.65625 3.59375,-2.09375 -3.625,-2.09375 -1.09375,-0.59375 1.125,-0.65625 3.59375,-2.09375 -3.625,-2.09375 -1.09375,-0.625 1.125,-0.625 3.59375,-2.09375 -3.625,-2.09375 -1.09375,-0.625 1.125,-0.625 3.59375,-2.09375 -3.625,-2.09375 -1.09375,-0.625 1.125,-0.625 3.59375,-2.125 -3.625,-2.0625 -0.6875,-0.375 0.71875,-0.40625 3.59375,-2.09375 -3.625,-2.0625 -1.09375,-0.625 1.125,-0.65625 3.59375,-2.09375 -3.625,-2.09375 -1.09375,-0.59375 1.125,-0.65625 3.59375,-2.09375 -3.625,-2.09375 -1.09375,-0.625 1.125,-0.625 3.59375,-2.09375 -3.625,-2.09375 -1.09375,-0.625 1.125,-0.625 3.59375,-2.09375 -3.625,-2.09375 -1.09375,-0.625 1.125,-0.625 3.59375,-2.125 -3.625,-2.0625 -0.6875,-0.375 0.71875,-0.40625 3.59375,-2.125 -3.625,-2.0625 -1.09375,-0.625 1.125,-0.625 3.59375,-2.125 -3.625,-2.0625 -1.09375,-0.625 1.125,-0.625 3.59375,-2.125 -3.625,-2.0625 -1.09375,-0.625 1.125,-0.65625 3.59375,-2.09375 -3.625,-2.0625 -1.09375,-0.625 1.125,-0.65625 3.59375,-2.09375 -3.625,-2.0625 -1.09375,-0.625 1.125,-0.65625 3.59375,-2.09375 -3.625,-2.0625 -0.6875,-0.375 0.71875,-0.40625 3.59375,-2.125 -3.625,-2.0625 -1.09375,-0.625 1.125,-0.625 3.59375,-2.125 -3.625,-2.0625 -1.09375,-0.625 1.125,-0.625 3.59375,-2.125 -3.625,-2.0625 -1.09375,-0.625 1.125,-0.65625 3.59375,-2.09375 -3.625,-2.0625 -1.09375,-0.625 1.125,-0.65625 3.59375,-2.09375 -3.625,-2.0625 -1.09375,-0.625 1.125,-0.65625 3.59375,-2.09375 -3.625,-2.0625 -0.6875,-0.375 0.71875,-0.4375 3.59375,-2.09375 -3.625,-2.0625 -1.09375,-0.625 1.125,-0.65625 3.59375,-2.09375 -3.625,-2.09375 -1.09375,-0.59375 1.125,-0.65625 3.59375,-2.09375 -3.625,-2.09375 -1.09375,-0.625 1.125,-0.625 3.59375,-2.09375 -3.625,-2.09375 -1.09375,-0.625 1.125,-0.625 3.59375,-2.09375 -3.625,-2.09375 -1.09375,-0.625 1.125,-0.625 3.59375,-2.125 L 194.5,411 l -1.09375,-0.625 1.125,-0.65625 3.59375,-2.125 -3.625,-2.0625 -1.09375,-0.625 1.125,-0.625 3.59375,-2.125 -3.625,-2.0625 -1.09375,-0.625 1.125,-0.625 3.59375,-2.125 -3.625,-2.0625 -1.09375,-0.625 1.125,-0.65625 3.59375,-2.09375 -3.625,-2.0625 -1.09375,-0.625 1.125,-0.65625 3.59375,-2.09375 -3.625,-2.0625 -1.09375,-0.625 1.125,-0.65625 3.59375,-2.09375 -3.625,-2.0625 -0.6875,-0.40625 0.71875,-0.40625 3.59375,-2.09375 -3.625,-2.0625 -1.09375,-0.625 1.125,-0.65625 L 198.125,370 l -3.625,-2.09375 -1.09375,-0.59375 1.125,-0.65625 3.59375,-2.09375 -3.625,-2.09375 -1.09375,-0.625 1.125,-0.625 3.59375,-2.09375 -3.625,-2.09375 -1.09375,-0.625 1.125,-0.625 3.59375,-2.09375 -3.625,-2.09375 -1.09375,-0.625 1.125,-0.625 3.59375,-2.125 -3.625,-2.0625 -0.6875,-0.375 0.71875,-0.40625 3.59375,-2.09375 -3.625,-2.0625 -1.09375,-0.625 1.125,-0.65625 3.59375,-2.09375 -3.625,-2.09375 -1.09375,-0.59375 1.125,-0.65625 3.59375,-2.09375 -3.625,-2.09375 -1.09375,-0.625 1.125,-0.625 3.59375,-2.09375 -3.625,-2.09375 -1.09375,-0.625 1.125,-0.625 3.59375,-2.09375 -3.625,-2.09375 -1.09375,-0.625 1.125,-0.625 3.59375,-2.125 L 194.5,314 l -0.6875,-0.375 0.71875,-0.40625 3.59375,-2.125 -3.625,-2.0625 -1.09375,-0.625 1.125,-0.625 3.59375,-2.125 -3.625,-2.0625 -1.09375,-0.625 1.125,-0.625 3.59375,-2.125 -3.625,-2.0625 -1.09375,-0.625 1.125,-0.65625 3.59375,-2.09375 -3.625,-2.0625 -1.09375,-0.625 1.125,-0.65625 3.59375,-2.09375 -3.625,-2.0625 -1.09375,-0.625 1.125,-0.65625 3.59375,-2.09375 -3.625,-2.0625 -0.6875,-0.375 0.71875,-0.40625 3.59375,-2.125 -3.625,-2.0625 -1.09375,-0.625 1.125,-0.625 3.59375,-2.125 -3.625,-2.0625 -1.09375,-0.625 1.125,-0.625 3.59375,-2.125 L 194.5,266 l -1.09375,-0.625 1.125,-0.65625 3.59375,-2.09375 -3.625,-2.0625 -1.09375,-0.625 1.125,-0.65625 3.59375,-2.09375 -3.625,-2.0625 -1.09375,-0.625 1.125,-0.65625 3.59375,-2.09375 -3.625,-2.0625 -0.6875,-0.375 0.71875,-0.4375 3.59375,-2.09375 -3.625,-2.0625 -1.09375,-0.625 1.125,-0.65625 3.59375,-2.09375 -3.625,-2.09375 -1.09375,-0.59375 1.125,-0.65625 3.59375,-2.09375 -3.625,-2.09375 -0.96875,-0.53125 c 0.001,-0.0629 0.0302,-0.12466 0.0312,-0.1875 l 0.96875,-0.53125 3.59375,-2.09375 -3.625,-2.09375 -0.9375,-0.53125 c -6.1e-4,-0.0621 6.8e-4,-0.12551 0,-0.1875 l 0.96875,-0.53125 3.59375,-2.09375 -3.625,-2.09375 -1.09375,-0.625 1.125,-0.625 3.59375,-2.125 -3.625,-2.0625 -1.59375,-0.90625 C 177.87573,168.52568 107.41389,242.1929 98,266.71875 z"
       id="path13612"
       sodipodi:nodetypes="cccccccccccccccccccccccccccccccccccccccccccccccccccccccccccccccccccccccccccccccccccccccccccccccccccccccccccccccccccccccccccccccccccccccccccccccccccccccccccccccccccccccccccccccccccccccccccccccccccccccccccccccccccccccccccccccccccccccccccccccccccccccccccccccccccccccccccccccccccccccccccccccccccccccccc"
       inkscape:connector-curvature="0" />
    <path
       sodipodi:nodetypes="ccccccc"
       id="path13614"
       d="m 161.05679,647.64961 c -2.16442,0 -3.88672,1.7223 -3.88672,3.88672 l 0,330.83488 c 3.10097,-1.31271 5.79027,-3.41387 7.83144,-6.03311 l 0,-324.80177 c 0,-2.16442 -1.72231,-3.88672 -3.88671,-3.88672 l -0.058,0 z"
       style="fill:url(#linearGradient14293);fill-opacity:1;stroke:none"
       inkscape:connector-curvature="0" />
    <path
       sodipodi:nodetypes="ccccccc"
       id="path13616"
       d="m 119.2891,647.64961 c -2.16442,0 -3.94472,1.7223 -3.94472,3.88672 l 0,325.78795 c 2.12501,2.39231 4.82604,4.26807 7.88945,5.395 l 0,-331.18295 c 0,-2.16442 -1.72232,-3.88672 -3.88672,-3.88672 l -0.058,0 z"
       style="fill:url(#linearGradient14290);fill-opacity:1;stroke:none"
       inkscape:connector-curvature="0" />
    <path
       sodipodi:nodetypes="cccccccc"
       id="path13618"
       d="m 133.21166,647.64961 c -2.16442,0 -3.94472,1.7223 -3.94472,3.88672 l 0,332.34316 c 0.2511,0.009 0.50063,0.058 0.75414,0.058 l 7.13531,0 0,-332.40117 c 0,-2.16442 -1.72231,-3.88672 -3.88672,-3.88672 l -0.058,0 z"
       style="fill:url(#linearGradient14287);fill-opacity:1;stroke:none"
       inkscape:connector-curvature="0" />
    <path
       sodipodi:nodetypes="cccccccc"
       id="path13620"
       d="m 147.13423,647.64961 c -2.16442,0 -3.94473,1.7223 -3.94473,3.88672 l 0,332.40117 6.32316,0 c 0.52642,0 1.05062,-0.0757 1.56629,-0.11602 l 0,-332.28515 c 0,-2.16442 -1.72231,-3.88672 -3.88671,-3.88672 l -0.058,0 z"
       style="fill:url(#linearGradient14284);fill-opacity:1;stroke:none"
       inkscape:connector-curvature="0" />
    <rect
       ry="3.9068835"
       y="601.62335"
       x="112.38586"
       height="9.2817078"
       width="54.762077"
       id="rect13624"
       style="opacity:0.32042302;fill:url(#linearGradient14281);fill-opacity:1;stroke:none" />
    <rect
       style="opacity:0.32042302;fill:url(#linearGradient14278);fill-opacity:1;stroke:none"
       id="rect13626"
       width="54.762077"
       height="9.2817078"
       x="112.38586"
       y="611.83325"
       ry="3.9068835" />
    <path
       style="opacity:0.56981099;fill:url(#linearGradient14304);fill-opacity:1;stroke:none"
       d="m 166.31371,578.45529 c 0,2.16441 1.22368,3.90688 2.74369,3.90688 l 21.19891,-6 c 1.52,0 2.74369,-1.74247 2.74369,-3.90688 l 0,-350.18623 c 0,-2.16442 -1.22369,-3.90689 -2.74369,-3.90689 l -21.90118,-16"
       id="rect13698"
       sodipodi:nodetypes="ccccccc"
       inkscape:connector-curvature="0" />
  </g>
</svg>
