<?xml version="1.0" encoding="UTF-8" standalone="no"?>
<!-- Created with Inkscape (http://www.inkscape.org/) -->
<svg
   xmlns:dc="http://purl.org/dc/elements/1.1/"
   xmlns:cc="http://web.resource.org/cc/"
   xmlns:rdf="http://www.w3.org/1999/02/22-rdf-syntax-ns#"
   xmlns:svg="http://www.w3.org/2000/svg"
   xmlns="http://www.w3.org/2000/svg"
   xmlns:xlink="http://www.w3.org/1999/xlink"
   xmlns:sodipodi="http://sodipodi.sourceforge.net/DTD/sodipodi-0.dtd"
   xmlns:inkscape="http://www.inkscape.org/namespaces/inkscape"
   width="218.7789"
   height="216.69354"
   id="svg2638"
   sodipodi:version="0.32"
   inkscape:version="0.45"
   sodipodi:modified="true"
   version="1.0">
  <defs
     id="defs2640">
    <radialGradient
       inkscape:collect="always"
       xlink:href="#linearGradient4168"
       id="radialGradient4035"
       gradientUnits="userSpaceOnUse"
       cx="-2551.165"
       cy="156.71883"
       fx="-2551.165"
       fy="156.71883"
       r="48.632217" />
    <linearGradient
       id="linearGradient4168">
      <stop
         style="stop-color:#757575;stop-opacity:1;"
         offset="0"
         id="stop4170" />
      <stop
         style="stop-color:#000000;stop-opacity:1;"
         offset="1"
         id="stop4172" />
    </linearGradient>
    <radialGradient
       inkscape:collect="always"
       xlink:href="#linearGradient4168"
       id="radialGradient4033"
       gradientUnits="userSpaceOnUse"
       cx="-2551.165"
       cy="156.71883"
       fx="-2551.165"
       fy="156.71883"
       r="48.632217" />
    <linearGradient
       id="linearGradient4158">
      <stop
         style="stop-color:#d07c1c;stop-opacity:1;"
         offset="0"
         id="stop4160" />
      <stop
         style="stop-color:#7b4910;stop-opacity:1;"
         offset="1"
         id="stop4162" />
    </linearGradient>
    <linearGradient
       inkscape:collect="always"
       xlink:href="#linearGradient4158"
       id="linearGradient4031"
       gradientUnits="userSpaceOnUse"
       gradientTransform="matrix(0.5099065,0.1425012,-0.1372981,0.4912885,-1179.8516,1056.9501)"
       x1="-3142.5"
       y1="328.66443"
       x2="-3106.668"
       y2="383.37567" />
    <radialGradient
       inkscape:collect="always"
       xlink:href="#linearGradient4142"
       id="radialGradient4029"
       gradientUnits="userSpaceOnUse"
       gradientTransform="matrix(1.8041121,0,0,1.8041121,1989.1839,-149.66023)"
       cx="-2473.7644"
       cy="186.11862"
       fx="-2473.7644"
       fy="186.11862"
       r="326.61642" />
    <radialGradient
       inkscape:collect="always"
       xlink:href="#linearGradient4142"
       id="radialGradient4027"
       gradientUnits="userSpaceOnUse"
       gradientTransform="matrix(1.8041121,0,0,1.8041121,1989.1839,-149.66023)"
       cx="-2473.7644"
       cy="186.11862"
       fx="-2473.7644"
       fy="186.11862"
       r="326.61642" />
    <linearGradient
       id="linearGradient4129">
      <stop
         style="stop-color:#794d09;stop-opacity:1;"
         offset="0"
         id="stop4131" />
      <stop
         id="stop4137"
         offset="0.5"
         style="stop-color:#4a2f06;stop-opacity:1;" />
      <stop
         style="stop-color:#211502;stop-opacity:1;"
         offset="1"
         id="stop4133" />
    </linearGradient>
    <linearGradient
       inkscape:collect="always"
       xlink:href="#linearGradient4129"
       id="linearGradient4025"
       gradientUnits="userSpaceOnUse"
       gradientTransform="matrix(0.6537808,-0.6819927,6.2238961e-2,0.1175256,-346.71523,-1778.1055)"
       x1="-4072.0801"
       y1="1046.7222"
       x2="-4026.9602"
       y2="1046.7222" />
    <linearGradient
       id="linearGradient4142">
      <stop
         style="stop-color:#ffffff;stop-opacity:1;"
         offset="0"
         id="stop4144" />
      <stop
         id="stop4150"
         offset="0.5"
         style="stop-color:#bdf6f6;stop-opacity:1;" />
      <stop
         style="stop-color:#84efef;stop-opacity:1;"
         offset="1"
         id="stop4146" />
    </linearGradient>
    <radialGradient
       inkscape:collect="always"
       xlink:href="#linearGradient4142"
       id="radialGradient4023"
       gradientUnits="userSpaceOnUse"
       gradientTransform="matrix(1.8041121,0,0,1.8041121,1989.1839,-149.66023)"
       cx="-2473.7644"
       cy="186.11862"
       fx="-2473.7644"
       fy="186.11862"
       r="326.61642" />
  </defs>
  <sodipodi:namedview
     id="base"
     pagecolor="#ffffff"
     bordercolor="#666666"
     borderopacity="1.0"
     inkscape:pageopacity="0.0"
     inkscape:pageshadow="2"
     inkscape:zoom="0.35"
     inkscape:cx="375"
     inkscape:cy="520"
     inkscape:document-units="px"
     inkscape:current-layer="layer1"
     inkscape:window-width="910"
     inkscape:window-height="626"
     inkscape:window-x="5"
     inkscape:window-y="49" />
  <metadata
     id="metadata2643">
    <rdf:RDF>
      <cc:Work
         rdf:about="">
        <dc:format>image/svg+xml</dc:format>
        <dc:type
           rdf:resource="http://purl.org/dc/dcmitype/StillImage" />
      </cc:Work>
    </rdf:RDF>
  </metadata>
  <g
     inkscape:label="Calque 1"
     inkscape:groupmode="layer"
     id="layer1"
     transform="translate(-107.7534,-249.7297)">
    <g
       style="display:inline"
       id="g3524"
       transform="matrix(0.1680308,0,0,0.1676197,667.8881,170.6508)">
      <path
         sodipodi:nodetypes="csssc"
         id="path3526"
         d="M -2868.0598,874.63881 C -2868.0598,874.63881 -2862.0966,856.53361 -2745.8154,886.94008 C -2629.5342,917.34656 -2574.8721,831.54658 -2540.0871,840.60383 C -2505.3021,849.66107 -2470.1015,925.88276 -2542.0748,962.49218 C -2613.9747,999.06425 -2877.4951,968.77277 -2868.0598,874.63881 z "
         style="fill:#550000;fill-rule:evenodd;stroke:none;stroke-width:1px;stroke-linecap:butt;stroke-linejoin:miter;stroke-opacity:1" />
      <path
         transform="matrix(0.943056,0,0,0.8889339,-454.42818,1207.7691)"
         d="M -2050.583 299.72433 A 326.61642 326.61642 0 1 1  -2703.8159,299.72433 A 326.61642 326.61642 0 1 1  -2050.583 299.72433 z"
         sodipodi:ry="326.61642"
         sodipodi:rx="326.61642"
         sodipodi:cy="299.72433"
         sodipodi:cx="-2377.1995"
         id="path3528"
         style="color:#000000;fill:url(#radialGradient4023);fill-opacity:1;fill-rule:evenodd;stroke:none;stroke-width:4;stroke-linecap:round;stroke-linejoin:round;marker:none;marker-start:none;marker-mid:none;marker-end:none;stroke-miterlimit:4;stroke-dasharray:none;stroke-dashoffset:0;stroke-opacity:1;visibility:visible;display:inline;overflow:visible;enable-background:accumulate"
         sodipodi:type="arc" />
      <g
         id="g3530">
        <path
           id="path3532"
           d="M -3278.1263,586.15015 C -3285.2419,622.00279 -3252.4605,643.12434 -3242.6604,673.20657 C -3174.06,790.59096 -3092.1666,892.92103 -3007.2064,988.75724 C -2995.4927,1012.9391 -2987.0969,974.03743 -3005.3517,972.7392 C -3104.0415,858.9097 -3201.1631,738.2738 -3272.7665,591.63555 L -3275.2219,588.51548 L -3278.1263,586.15015 L -3278.1263,586.15015 z "
           style="fill:#bab65d;fill-opacity:1;fill-rule:evenodd;stroke:#807d36;stroke-width:3.1473124;stroke-linecap:round;stroke-linejoin:round;stroke-miterlimit:4;stroke-dasharray:none;stroke-opacity:1" />
        <path
           id="path3534"
           d="M -3225.3912,552.1956 C -3237.1887,586.13383 -3207.044,611.77829 -3201.1205,642.66447 C -3147.5469,767.82583 -3078.6811,880.31168 -3005.8944,986.92215 C -2997.2842,1012.3365 -2983.8061,975.61525 -3001.9522,971.55704 C -3086.1757,845.26992 -3167.9414,712.57309 -3220.7266,558.37363 L -3222.7846,554.95027 L -3225.3912,552.1956 L -3225.3912,552.1956 z "
           style="fill:#bab65d;fill-opacity:1;fill-rule:evenodd;stroke:#807d36;stroke-width:3.1473124;stroke-linecap:round;stroke-linejoin:round;stroke-miterlimit:4;stroke-dasharray:none;stroke-opacity:1" />
        <path
           id="path3536"
           d="M -3175.239,529.64313 C -3190.96,561.34379 -3163.6262,590.54604 -3161.2077,621.63458 C -3121.7216,751.58929 -3065.4346,871.16706 -3004.5402,985.50921 C -2998.7996,1011.5921 -2981.0731,977.38776 -2998.8272,970.96914 C -3068.9557,835.7917 -3135.8843,694.658 -3171.2617,536.32922 L -3172.9368,532.69511 L -3175.239,529.64313 L -3175.239,529.64313 z "
           style="fill:#bab65d;fill-opacity:1;fill-rule:evenodd;stroke:#807d36;stroke-width:3.1473124;stroke-linecap:round;stroke-linejoin:round;stroke-miterlimit:4;stroke-dasharray:none;stroke-opacity:1" />
        <path
           id="path3538"
           d="M -3121.2254,514.02952 C -3140.7013,542.94895 -3116.6647,575.32057 -3117.8595,606.12624 C -3093.3639,738.92494 -3050.7931,863.85452 -3002.9871,984.28348 C -3000.2635,1010.6377 -2978.4829,979.53898 -2995.5577,970.81378 C -3050.2056,828.69564 -3100.9472,681.17751 -3118.0119,521.12861 L -3119.27,517.33674 L -3121.2254,514.02952 L -3121.2254,514.02952 z "
           style="fill:#bab65d;fill-opacity:1;fill-rule:evenodd;stroke:#807d36;stroke-width:3.1473124;stroke-linecap:round;stroke-linejoin:round;stroke-miterlimit:4;stroke-dasharray:none;stroke-opacity:1" />
        <path
           id="path3540"
           d="M -3062.1549,505.92587 C -3085.2499,531.41958 -3065.0983,566.57231 -3070.0774,596.55071 C -3061.7883,730.06197 -3034.3928,858.48019 -3001.1909,983.24908 C -3001.6913,1009.4362 -2976.0157,982.14214 -2992.0817,971.13799 C -3029.489,824.15348 -3062.3133,672.44755 -3059.8009,513.33785 L -3060.5983,509.445 L -3062.1549,505.92587 L -3062.1549,505.92587 z "
           style="fill:#bab65d;fill-opacity:1;fill-rule:evenodd;stroke:#807d36;stroke-width:3.1473124;stroke-linecap:round;stroke-linejoin:round;stroke-miterlimit:4;stroke-dasharray:none;stroke-opacity:1" />
        <path
           id="path3542"
           d="M -3189.2676,535.11256 C -3203.9368,567.47502 -3175.7907,595.74613 -3172.4073,626.8265 C -3128.9982,755.66465 -3069.1762,873.47972 -3004.9281,985.87581 C -2998.3918,1011.8151 -2981.8034,976.86852 -2999.6919,971.08738 C -3073.7922,838.14202 -3144.8913,699.10696 -3185.0959,541.66949 L -3186.8785,538.08765 L -3189.2676,535.11256 L -3189.2676,535.11256 z "
           style="fill:#bab65d;fill-opacity:1;fill-rule:evenodd;stroke:#807d36;stroke-width:3.1473124;stroke-linecap:round;stroke-linejoin:round;stroke-miterlimit:4;stroke-dasharray:none;stroke-opacity:1" />
        <path
           id="path3544"
           d="M -3286.0374,592.33696 C -3292.3913,628.43002 -3259.2484,648.78959 -3248.8464,678.68811 C -3177.9687,794.61369 -3094.1424,895.13219 -3007.3914,989.06982 C -2995.203,1013.0102 -2987.635,973.83127 -3005.8738,972.97674 C -3106.6961,861.34799 -3206.095,742.86188 -3280.5763,597.70155 L -3283.0906,594.63572 L -3286.0374,592.33696 L -3286.0374,592.33696 z "
           style="fill:#bab65d;fill-opacity:1;fill-rule:evenodd;stroke:#807d36;stroke-width:3.1473124;stroke-linecap:round;stroke-linejoin:round;stroke-miterlimit:4;stroke-dasharray:none;stroke-opacity:1" />
        <path
           style="fill:#bab65d;fill-opacity:1;fill-rule:evenodd;stroke:#807d36;stroke-width:3.1473124;stroke-linecap:round;stroke-linejoin:round;stroke-miterlimit:4;stroke-dasharray:none;stroke-opacity:1"
           d="M -3322.0035,624.93892 C -3324.6516,661.93331 -3290.0042,678.48711 -3276.7822,707.29212 C -3195.4585,815.38969 -3102.9314,906.49299 -3008.1833,990.6436 C -2993.7984,1013.255 -2990.264,973.01889 -3008.2971,974.30315 C -3118.6585,874.03835 -3228.3042,766.71956 -3316.0938,629.68506 L -3318.8742,626.9014 L -3322.0035,624.93892 L -3322.0035,624.93892 z "
           id="path3546" />
        <path
           style="fill:#bab65d;fill-opacity:1;fill-rule:evenodd;stroke:#807d36;stroke-width:3.11237669;stroke-linecap:round;stroke-linejoin:round;stroke-miterlimit:4;stroke-dasharray:none;stroke-opacity:1"
           d="M -3260.5077,619.18012 C -3268.2613,650.99219 -3235.7709,674.65896 -3226.5837,703.32679 C -3159.8748,818.89166 -3077.1937,923.43978 -2989.8555,1022.0106 C -2966.6692,1017.893 -3003.641,989.15604 -3011.582,978.94271 C -3099.9654,874.85963 -3184.9294,764.89919 -3246.2535,640.57405 C -3249.4955,632.60087 -3253.3442,624.04765 -3260.5077,619.18012 z "
           id="path3548" />
        <path
           style="fill:#bab65d;fill-opacity:1;fill-rule:evenodd;stroke:#807d36;stroke-width:3.11237669;stroke-linecap:round;stroke-linejoin:round;stroke-miterlimit:4;stroke-dasharray:none;stroke-opacity:1"
           d="M -3175.9217,565.39435 C -3186.9491,596.02455 -3162.0468,626.21912 -3157.6346,656.81823 C -3114.5156,784.31432 -3054.0242,905.54983 -2987.1548,1022.061 C -2966.2228,1018.7326 -3000.1245,986.59551 -3002.5662,971.71081 C -3071.2838,843.41438 -3136.1271,710.52379 -3170.5328,568.84688 L -3172.9237,566.50379 L -3175.9217,565.39435 L -3175.9217,565.39435 z "
           id="path3550" />
        <path
           style="fill:#bab65d;fill-opacity:1;fill-rule:evenodd;stroke:#807d36;stroke-width:3.11237669;stroke-linecap:round;stroke-linejoin:round;stroke-miterlimit:4;stroke-dasharray:none;stroke-opacity:1"
           d="M -3124.8897,543.4352 C -3138.0274,572.74081 -3117.2957,605.53001 -3116.1677,636.51387 C -3087.3364,768.34288 -3040.6188,896.48623 -2986.6733,1020.7999 C -2963.6513,1008.1927 -3000.1182,976.56451 -3001.3754,955.38129 C -3051.9671,830.38926 -3095.2707,701.42852 -3116.7062,569.16477 C -3117.1781,560.50519 -3115.1999,548.02014 -3124.8897,543.4352 z "
           id="path3552" />
        <path
           style="fill:#bab65d;fill-opacity:1;fill-rule:evenodd;stroke:#807d36;stroke-width:3.11237669;stroke-linecap:round;stroke-linejoin:round;stroke-miterlimit:4;stroke-dasharray:none;stroke-opacity:1"
           d="M -3087.3373,531.46807 C -3101.3729,561.09283 -3084.3723,596.18593 -3084.876,628.27068 C -3066.2908,761.09683 -3030.0009,892.0221 -2986.2486,1019.9581 C -2961.9684,1009.6176 -2996.155,974.67337 -2995.6886,953.4882 C -3036.4217,824.10407 -3069.4519,691.53938 -3080.5432,557.8094 C -3080.3095,549.15485 -3077.1322,536.17826 -3087.3373,531.46807 z "
           id="path3554" />
        <path
           style="fill:#bab65d;fill-opacity:1;fill-rule:evenodd;stroke:#807d36;stroke-width:3.11237669;stroke-linecap:round;stroke-linejoin:round;stroke-miterlimit:4;stroke-dasharray:none;stroke-opacity:1"
           d="M -3053.0239,523.45955 C -3067.7976,552.42787 -3054.3756,588.24333 -3056.7371,620.26902 C -3047.4429,754.26329 -3020.3788,887.86202 -2985.8033,1019.2183 C -3001.8548,1029.0739 -2966.9754,1031.0855 -2982.4729,1013.7889 C -3007.38,867.75979 -3044.1768,721.66816 -3046.7872,574.53806 C -3052.121,557.69246 -3037.246,537.50619 -3053.0239,523.45955 z "
           id="path3556" />
        <path
           style="fill:#bab65d;fill-opacity:1;fill-rule:evenodd;stroke:#807d36;stroke-width:3.11237669;stroke-linecap:round;stroke-linejoin:round;stroke-miterlimit:4;stroke-dasharray:none;stroke-opacity:1"
           d="M -3041.0509,521.34745 C -3056.5464,549.91647 -3043.9302,586.09108 -3047.0711,618.04856 C -3040.9675,752.28913 -3017.1055,886.64501 -2985.6436,1018.989 C -3001.0225,1029.9826 -2966.218,1030.7404 -2979.8692,1014.8744 C -2983.9957,951.2595 -3005.316,889.15555 -3012.5927,825.71425 C -3028.8597,726.12612 -3039.2572,625.43104 -3035.0643,526.23679 L -3037.5238,522.98945 L -3041.0509,521.34745 z "
           id="path3558" />
        <path
           id="path3560"
           d="M -2971.3177,1008.493 C -3002.9803,1004.5165 -2999.7772,952.36068 -3019.6756,929.74799 C -3082.1522,792.57196 -3145.3451,655.88054 -3206.8228,518.02601 C -3177.8264,476.14727 -3179.3809,569.17587 -3160.6467,588.77317 C -3097.6391,727.7512 -3033.6297,866.04724 -2971.1388,1005.3764 L -2971.2353,1007.0586 L -2971.2358,1007.0677 L -2971.2359,1007.0686 L -2971.3177,1008.493 z "
           style="fill:#bab65d;fill-opacity:1;fill-rule:evenodd;stroke:#807d36;stroke-width:3.51984429;stroke-linecap:round;stroke-linejoin:round;stroke-miterlimit:4;stroke-dasharray:none;stroke-opacity:1"
           sodipodi:nodetypes="ccccccccc" />
        <path
           style="fill:#bab65d;fill-opacity:1;fill-rule:evenodd;stroke:#807d36;stroke-width:3.11237669;stroke-linecap:round;stroke-linejoin:round;stroke-miterlimit:4;stroke-dasharray:none;stroke-opacity:1"
           d="M -3242.0356,596.92151 C -3246.4825,629.8899 -3218.4701,655.70643 -3209.189,685.87028 C -3147.3261,806.70131 -3069.7892,918.31351 -2986.5402,1023.8953 C -2968.4547,1004.2849 -3010.8089,984.52852 -3017.6066,964.05779 C -3097.9134,856.75989 -3172.4888,743.27588 -3227.5815,619.70578 C -3230.3211,611.32429 -3231.7961,598.40957 -3242.0356,596.92151 z "
           id="path3562" />
        <path
           style="fill:#bab65d;fill-opacity:1;fill-rule:evenodd;stroke:#807d36;stroke-width:3.11237669;stroke-linecap:round;stroke-linejoin:round;stroke-miterlimit:4;stroke-dasharray:none;stroke-opacity:1"
           d="M -3142.9527,550.3269 C -3154.7497,581.29808 -3132.7406,614.14033 -3129.9001,646.0327 C -3096.0582,775.4589 -3044.834,900.36195 -2986.8539,1021.2306 C -2966.1321,1015.218 -3000.4712,983.05848 -3001.2342,965.9467 C -3058.5128,832.87975 -3113.4088,696.55071 -3137.2723,554.0914 L -3139.76,551.5233 L -3142.9527,550.3269 z "
           id="path3564" />
        <path
           style="fill:#bab65d;fill-opacity:1;fill-rule:evenodd;stroke:#807d36;stroke-width:3.11237669;stroke-linecap:round;stroke-linejoin:round;stroke-miterlimit:4;stroke-dasharray:none;stroke-opacity:1"
           d="M -3293.4034,659.28422 C -3298.0112,690.86326 -3258.46,702.18139 -3246.398,727.58121 C -3159.3133,825.60439 -3072.7601,924.18331 -2984.9321,1021.4321 C -2973.5882,993.25707 -3016.4136,980.89045 -3026.5112,957.44405 C -3114.8091,858.41223 -3202.3606,758.60414 -3291.043,659.9727 L -3292.317,659.6011 L -3292.324,659.59907 L -3292.3247,659.59885 L -3293.4034,659.28422 z "
           id="path3566" />
        <path
           style="fill:#bab65d;fill-opacity:1;fill-rule:evenodd;stroke:#807d36;stroke-width:3.11237669;stroke-linecap:round;stroke-linejoin:round;stroke-miterlimit:4;stroke-dasharray:none;stroke-opacity:1"
           d="M -3265.7359,633.83167 C -3271.6043,664.72705 -3233.8516,679.52442 -3223.5064,705.77346 C -3144.062,810.77119 -3065.2066,916.27623 -2984.9435,1020.5713 C -2971.1658,993.9058 -3013.231,977.63679 -3021.3972,953.54033 C -3102.2133,847.55381 -3181.6571,740.11513 -3263.1117,634.849 C -3263.848,634.10385 -3264.8637,634.17813 -3265.7359,633.83167 z "
           id="path3568" />
        <path
           id="path3570"
           d="M -3259.9525,539.52279 C -3267.6529,575.68002 -3227.2974,598.26811 -3217.6608,630.87979 C -3141.9146,758.27278 -3066.8817,886.1448 -2990.1363,1012.8694 C -2971.6595,984.92001 -3016.7445,960.72729 -3023.103,932.59231 C -3106.2689,869.30932 -3166.2932,567.01636 -3259.9525,539.52279 z "
           style="fill:#bab65d;fill-opacity:1;fill-rule:evenodd;stroke:#807d36;stroke-width:3.50931406;stroke-linecap:round;stroke-linejoin:round;stroke-miterlimit:4;stroke-dasharray:none;stroke-opacity:1"
           sodipodi:nodetypes="ccccc" />
        <path
           id="path3572"
           d="M -3216.5612,515.96133 C -3227.6868,550.73921 -3189.2736,577.44874 -3182.6539,610.64579 C -3118.5262,744.52921 -3055.1597,878.80595 -2989.9658,1012.1411 C -2968.7867,986.6397 -3011.7992,957.82727 -3015.5465,929.40298 C -3081.2865,792.74627 -3146.1016,655.61603 -3212.1421,519.11344 C -3213.3608,517.52129 -3214.8219,516.5821 -3216.5612,515.96133 z "
           style="fill:#bab65d;fill-opacity:1;fill-rule:evenodd;stroke:#807d36;stroke-width:3.50931406;stroke-linecap:round;stroke-linejoin:round;stroke-miterlimit:4;stroke-dasharray:none;stroke-opacity:1" />
        <path
           id="path3574"
           d="M -3174.6822,498.87256 C -3188.8465,532.07206 -3152.5609,562.31797 -3148.7661,595.75174 C -3095.8668,734.375 -3043.7661,873.30944 -2989.7489,1011.4994 C -2966.284,988.47215 -3007.0086,955.68562 -3008.3287,927.25289 C -3062.609,785.72942 -3115.9193,643.83218 -3170.5146,502.43048 C -3171.6018,500.73583 -3172.9885,499.66113 -3174.6822,498.87256 z "
           style="fill:#bab65d;fill-opacity:1;fill-rule:evenodd;stroke:#807d36;stroke-width:3.50931406;stroke-linecap:round;stroke-linejoin:round;stroke-miterlimit:4;stroke-dasharray:none;stroke-opacity:1" />
        <path
           id="path3576"
           d="M -3118.2135,483.41774 C -3136.1175,514.15717 -3103.0395,548.57892 -3102.9374,581.89118 C -3065.1984,724.85897 -3028.2956,868.02805 -2989.3859,1010.7164 C -2963.2723,991.17487 -3000.5255,953.68026 -2998.6974,925.59968 C -3037.5013,779.605 -3075.2901,633.36996 -3114.4239,487.45368 C -3115.3274,485.64847 -3116.6006,484.41269 -3118.2135,483.41774 z "
           style="fill:#bab65d;fill-opacity:1;fill-rule:evenodd;stroke:#807d36;stroke-width:3.50931406;stroke-linecap:round;stroke-linejoin:round;stroke-miterlimit:4;stroke-dasharray:none;stroke-opacity:1" />
        <path
           id="path3578"
           d="M -3079.6823,477.38345 C -3099.9249,506.24702 -3069.2372,543.1658 -3071.5855,576.13312 C -3044.2031,720.84855 -3017.6752,865.69077 -2989.0966,1010.231 C -2961.4329,993.1569 -2996.0876,952.83657 -2992.1856,925.21242 C -3020.4149,777.41008 -3041.1144,645.91504 -3069.6808,498.16173 C -3070.4554,496.2975 -3078.1357,478.50742 -3079.6823,477.38345 z "
           style="fill:#bab65d;fill-opacity:1;fill-rule:evenodd;stroke:#807d36;stroke-width:3.50931406;stroke-linecap:round;stroke-linejoin:round;stroke-miterlimit:4;stroke-dasharray:none;stroke-opacity:1"
           sodipodi:nodetypes="cccccc" />
        <path
           id="path3580"
           d="M -3309.6049,575.37075 C -3312.9664,612.71778 -3270.7853,629.8957 -3257.5602,661.32138 C -3168.5426,778.89033 -3080.169,897.03735 -2990.2492,1013.7993 C -2975.3718,983.22375 -3022.3754,965.07931 -3031.8682,937.70115 C -3123.0003,817.7664 -3213.3492,697.13365 -3304.7358,577.42599 C -3306.2291,576.13958 -3307.8175,575.56258 -3309.6049,575.37075 z "
           style="fill:#bab65d;fill-opacity:1;fill-rule:evenodd;stroke:#807d36;stroke-width:3.50931406;stroke-linecap:round;stroke-linejoin:round;stroke-miterlimit:4;stroke-dasharray:none;stroke-opacity:1" />
        <path
           style="fill:#bab65d;fill-opacity:1;fill-rule:evenodd;stroke:#807d36;stroke-width:3.50931406;stroke-linecap:round;stroke-linejoin:round;stroke-miterlimit:4;stroke-dasharray:none;stroke-opacity:1"
           d="M -3225.4804,520.28716 C -3235.9263,555.37118 -3197.0908,581.27394 -3189.8589,614.38071 C -3123.3416,747.06953 -3057.5766,880.16925 -2990.0056,1012.2852 C -2969.3525,986.27039 -3012.8173,958.36322 -3017.0928,929.97362 C -3085.2714,794.54252 -3146.3488,668.89847 -3214.8244,533.62844 C -3216.0704,532.06062 -3223.733,520.87038 -3225.4804,520.28716 z "
           id="path3582"
           sodipodi:nodetypes="cccccc" />
        <path
           style="fill:#bab65d;fill-opacity:1;fill-rule:evenodd;stroke:#807d36;stroke-width:3.11237669;stroke-linecap:round;stroke-linejoin:round;stroke-miterlimit:4;stroke-dasharray:none;stroke-opacity:1"
           d="M -3182.7315,576.67098 C -3190.1643,608.35342 -3157.9577,632.42672 -3151.6461,662.31833 C -3096.0661,780.99514 -3041.2037,900.01413 -2984.6704,1018.2384 C -2965.3113,996.20361 -3003.5829,970.00756 -3006.5416,944.91115 C -3063.7711,823.26865 -3120.0514,701.1774 -3177.6505,579.71013 C -3179.1127,577.88545 -3180.6297,577.08718 -3182.7315,576.67098 z "
           id="path3584" />
        <path
           style="fill:#bab65d;fill-opacity:1;fill-rule:evenodd;stroke:#807d36;stroke-width:3.11237669;stroke-linecap:round;stroke-linejoin:round;stroke-miterlimit:4;stroke-dasharray:none;stroke-opacity:1"
           d="M -3254.2038,616.33283 C -3253.7769,650.29511 -3219.6713,668.21282 -3207.51,697.39823 C -3133.1296,805.05438 -3059.3995,913.21169 -2984.2021,1020.2401 C -2969.4463,994.04202 -3011.0517,975.58249 -3018.3092,950.912 C -3095.6306,839.78233 -3171.2931,727.37575 -3249.5594,616.97531 C -3251.0543,616.11769 -3252.6511,616.50076 -3254.2038,616.33283 z "
           id="path3586" />
        <path
           style="fill:#bab65d;fill-opacity:1;fill-rule:evenodd;stroke:#807d36;stroke-width:3.11237669;stroke-linecap:round;stroke-linejoin:round;stroke-miterlimit:4;stroke-dasharray:none;stroke-opacity:1"
           d="M -3093.0019,527.46593 C -3104.1253,557.96717 -3080.3843,589.11393 -3079.4744,620.43367 C -3050.6226,749.05427 -3022.6798,877.82845 -2992.8427,1006.2833 C -2968.636,989.93996 -3001.1216,954.75468 -2998.3144,929.7434 C -3028.2494,796.83425 -3057.3069,663.77915 -3087.6222,530.93348 L -3090.0069,528.58433 L -3093.0019,527.46593 L -3093.0019,527.46593 z "
           id="path3588" />
        <path
           style="fill:#bab65d;fill-opacity:1;fill-rule:evenodd;stroke:#807d36;stroke-width:3.11237669;stroke-linecap:round;stroke-linejoin:round;stroke-miterlimit:4;stroke-dasharray:none;stroke-opacity:1"
           d="M -3038.735,526.99781 C -3051.296,557.05206 -3031.7354,590.97514 -3033.2448,622.78187 C -3016.6463,753.47801 -3000.9735,884.22132 -2983.4073,1014.8688 C -2957.6578,1001.5676 -2986.5186,963.25021 -2981.4514,938.98778 C -2998.8403,802.97863 -3015.2653,666.92238 -3033.1356,530.93706 L -3035.5623,528.29313 L -3038.735,526.99781 L -3038.735,526.99781 z "
           id="path3590" />
        <path
           style="fill:#bab65d;fill-opacity:1;fill-rule:evenodd;stroke:#807d36;stroke-width:3.11237669;stroke-linecap:round;stroke-linejoin:round;stroke-miterlimit:4;stroke-dasharray:none;stroke-opacity:1"
           d="M -3046.6262,508.13535 C -3059.2317,538.18219 -3031.6171,590.96254 -3033.1454,622.77396 C -3016.5823,753.47286 -3000.9405,884.2184 -2983.4073,1014.8688 C -2957.659,1001.5662 -2986.5074,963.24927 -2981.4328,938.98692 L -3035.4306,528.26989 L -3046.6262,508.13535 z "
           id="path3592"
           sodipodi:nodetypes="cccccc" />
        <path
           id="path3594"
           d="M -2972.1173,1008.926 C -3002.3913,1015.9006 -3014.6635,963.7588 -3039.5576,948.45772 C -3137.0283,835.65102 -3235.0163,723.56443 -3331.7662,609.75087 C -3305.0054,593.93608 -3291.6097,650.39121 -3268.6659,663.14081 C -3170.1813,777.52882 -3070.9743,890.90556 -2972.8623,1005.8145 L -2972.4603,1007.4939 L -2972.458,1007.503 L -2972.4578,1007.5039 L -2972.1173,1008.926 z "
           style="fill:#bab65d;fill-opacity:1;fill-rule:evenodd;stroke:#807d36;stroke-width:3.51984429;stroke-linecap:round;stroke-linejoin:round;stroke-miterlimit:4;stroke-dasharray:none;stroke-opacity:1" />
        <path
           id="path3596"
           d="M -2972.05,1008.8737 C -3002.5873,1014.8444 -3013.4513,962.4734 -3037.9822,946.41479 C -3132.5728,830.81329 -3225.3534,706.00123 -3319.1938,589.4195 C -3291.9342,574.52348 -3282.4115,641.14167 -3259.7651,654.59385 C -3164.2017,771.80442 -3067.8865,888.03041 -2972.711,1005.7481 L -2972.3541,1007.4351 L -2972.3523,1007.4443 L -2972.352,1007.4452 L -2972.05,1008.8737 z "
           style="fill:#bab65d;fill-opacity:1;fill-rule:evenodd;stroke:#807d36;stroke-width:3.51984429;stroke-linecap:round;stroke-linejoin:round;stroke-miterlimit:4;stroke-dasharray:none;stroke-opacity:1"
           sodipodi:nodetypes="ccccccccc" />
        <path
           id="path3598"
           d="M -2971.8041,1008.7107 C -3003.0447,1011.1597 -3008.9519,958.35459 -3032.0552,939.78027 C -3116.012,815.28477 -3201.1493,679.84041 -3284.259,554.46369 C -3254.1312,569.65014 -3248.3798,611.62282 -3226.9202,627.41805 C -3142.1403,753.60776 -3056.5111,878.91218 -2972.1692,1005.5578 L -2971.9721,1007.2596 L -2971.9711,1007.2688 L -2971.9709,1007.2698 L -2971.8041,1008.7107 z "
           style="fill:#bab65d;fill-opacity:1;fill-rule:evenodd;stroke:#807d36;stroke-width:3.51984429;stroke-linecap:round;stroke-linejoin:round;stroke-miterlimit:4;stroke-dasharray:none;stroke-opacity:1"
           sodipodi:nodetypes="ccccccccc" />
        <path
           id="path3600"
           d="M -2971.0084,1008.4134 C -3002.3944,1000.6563 -2993.79,949.76131 -3011.4369,925.10883 C -3060.0079,782.63429 -3131.0464,639.60787 -3156.8459,497.52893 C -3125.3582,496.00374 -3134.5717,551.15821 -3117.7826,572.70424 C -3068.8646,717.01516 -3018.8699,860.77723 -2970.5068,1005.3706 L -2970.7776,1007.013 L -2970.779,1007.0219 L -2970.7793,1007.0228 L -2971.0084,1008.4134 z "
           style="fill:#bab65d;fill-opacity:1;fill-rule:evenodd;stroke:#807d36;stroke-width:3.51984429;stroke-linecap:round;stroke-linejoin:round;stroke-miterlimit:4;stroke-dasharray:none;stroke-opacity:1"
           sodipodi:nodetypes="ccccccccc" />
        <path
           id="path3602"
           d="M -2972.8223,1011.5941 C -3004.4181,1010.7414 -3005.655,958.03857 -3027.2079,937.30071 C -3100.4611,805.72028 -3174.3807,674.69767 -3246.7049,542.33665 C -3263.9978,494.04857 -3215.2973,590.98874 -3195.1482,608.81349 C -3121.2188,742.15113 -3046.3576,874.70441 -2972.9087,1008.446 L -2972.8622,1010.1452 L -2972.8619,1010.1544 L -2972.8619,1010.1553 L -2972.8223,1011.5941 z "
           style="fill:#bab65d;fill-opacity:1;fill-rule:evenodd;stroke:#807d36;stroke-width:3.51984429;stroke-linecap:round;stroke-linejoin:round;stroke-miterlimit:4;stroke-dasharray:none;stroke-opacity:1"
           sodipodi:nodetypes="ccccccccc" />
        <path
           id="path3604"
           d="M -2970.8423,1008.3873 C -3001.9265,998.6844 -2990.5301,948.70521 -3006.907,923.10514 C -3047.9369,778.56058 -3089.7602,634.35362 -3129.6831,489.33566 C -3123.0943,470.25424 -3110.2323,543.99868 -3094.5479,566.46003 C -3053.2692,712.84986 -3010.8802,858.76347 -2970.1739,1005.3983 L -2970.5347,1007.0116 L -2970.5367,1007.0203 L -2970.5369,1007.0212 L -2970.8423,1008.3873 z "
           style="fill:#bab65d;fill-opacity:1;fill-rule:evenodd;stroke:#807d36;stroke-width:3.51984429;stroke-linecap:round;stroke-linejoin:round;stroke-miterlimit:4;stroke-dasharray:none;stroke-opacity:1"
           sodipodi:nodetypes="ccccccccc" />
        <path
           id="path3606"
           d="M -2970.6227,1008.3693 C -3001.1533,996.18068 -2986.1769,947.65243 -3000.8145,920.94921 C -3031.8049,774.45132 -3063.6159,628.2217 -3093.4612,481.34719 C -3069.9136,518.1673 -3078.0282,538.04843 -3063.6265,560.61449 C -3032.5167,708.95973 -3000.2579,856.92584 -2969.7404,1005.466 L -2970.2166,1007.033 L -2970.2192,1007.0415 L -2970.2194,1007.0424 L -2970.6227,1008.3693 z "
           style="fill:#bab65d;fill-opacity:1;fill-rule:evenodd;stroke:#807d36;stroke-width:3.51984429;stroke-linecap:round;stroke-linejoin:round;stroke-miterlimit:4;stroke-dasharray:none;stroke-opacity:1"
           sodipodi:nodetypes="ccccccccc" />
        <path
           id="path3608"
           d="M -2970.4611,1008.3678 C -3000.4748,994.40875 -2982.9392,947.11883 -2996.2526,919.70833 C -3019.7972,772.32342 -3044.1794,625.15516 -3066.5551,477.46571 C -3060.2928,455.20233 -3053.7024,533.76748 -3040.7011,558.00606 C -3017.1319,707.23302 -2992.3902,856.15315 -2969.4255,1005.5378 L -2969.9844,1007.0652 L -2969.9874,1007.0736 L -2969.9879,1007.0744 L -2970.4611,1008.3678 z "
           style="fill:#bab65d;fill-opacity:1;fill-rule:evenodd;stroke:#807d36;stroke-width:3.51984429;stroke-linecap:round;stroke-linejoin:round;stroke-miterlimit:4;stroke-dasharray:none;stroke-opacity:1"
           sodipodi:nodetypes="ccccccccc" />
        <path
           id="path3610"
           d="M -2970.8313,1008.3859 C -3001.8915,998.55526 -2990.3116,948.64283 -3006.6023,922.98305 C -3047.1273,778.31879 -3089.7024,651.65029 -3129.1184,506.5175 C -3097.4194,507.14519 -3108.602,543.58077 -3092.9926,566.10009 C -3052.2253,712.60998 -3010.3456,858.6485 -2970.1519,1005.4009 L -2970.5186,1007.012 L -2970.5206,1007.0208 L -2970.5207,1007.0217 L -2970.8313,1008.3859 z "
           style="fill:#bab65d;fill-opacity:1;fill-rule:evenodd;stroke:#807d36;stroke-width:3.51984429;stroke-linecap:round;stroke-linejoin:round;stroke-miterlimit:4;stroke-dasharray:none;stroke-opacity:1"
           sodipodi:nodetypes="ccccccccc" />
        <path
           style="fill:#bab65d;fill-opacity:1;fill-rule:evenodd;stroke:#807d36;stroke-width:3.51984429;stroke-linecap:round;stroke-linejoin:round;stroke-miterlimit:4;stroke-dasharray:none;stroke-opacity:1"
           d="M -2971.1515,1008.4451 C -3002.7133,1002.4114 -2996.575,950.85861 -3015.2827,927.10422 C -3070.3124,786.84069 -3126.0883,647.01091 -3180.0772,506.13981 C -3153.5549,528.58115 -3156.0421,562.24961 -3137.6882,579.39916 C -3082.2264,721.48613 -3025.7208,862.9623 -2970.7973,1005.3637 L -2970.9885,1007.0268 L -2970.9896,1007.0359 L -2970.9896,1007.0368 L -2971.1515,1008.4451 z "
           id="path3612"
           sodipodi:nodetypes="ccccccccc" />
      </g>
      <path
         sodipodi:nodetypes="ccccc"
         id="path3614"
         d="M -2983.647,960.35428 L -2844.988,1222.1834 C -2829.6379,1244.6236 -2863.2098,1264.1664 -2874.4866,1252.9549 L -3013.1456,991.1258 C -3029.8523,956.03807 -2992.0289,946.53123 -2983.647,960.35428 z "
         style="color:#000000;fill:url(#linearGradient4025);fill-opacity:1;fill-rule:nonzero;stroke:none;stroke-width:4;stroke-linecap:round;stroke-linejoin:round;marker:none;marker-start:none;marker-mid:none;marker-end:none;stroke-miterlimit:4;stroke-dashoffset:0;stroke-opacity:1;visibility:visible;display:inline;overflow:visible;enable-background:accumulate" />
      <path
         id="path3616"
         d="M -2979.6195,939.76766 C -2982.622,940.77925 -2985.9398,942.19482 -2989.4609,943.76279 C -2996.5031,946.89872 -3004.0589,950.78163 -3009.8896,953.9192 C -3012.8049,955.488 -3015.2934,956.86729 -3017.0613,957.86799 C -3017.9452,958.36833 -3018.6504,958.77859 -3019.1472,959.06919 C -3019.3955,959.21449 -3019.5821,959.32954 -3019.7318,959.42063 C -3019.8066,959.46618 -3019.8644,959.49604 -3019.9314,959.53938 C -3019.965,959.56107 -3020.0036,959.59405 -3020.0601,959.63396 C -3020.1165,959.67387 -3020.0402,959.47028 -3020.5522,960.08928 C -3026.2858,967.02026 -3029.5341,972.06885 -3030.8809,976.19711 C -3031.0453,976.70114 -3031.0813,977.18105 -3031.1872,977.67209 C -3033.2868,978.96496 -3034.9278,980.10596 -3035.8215,982.19496 C -3036.2991,983.31136 -3036.3076,985.02255 -3035.6176,986.18672 C -3034.9275,987.35091 -3033.9508,987.93604 -3032.8668,988.41416 C -3031.9537,988.81691 -3030.9044,989.06764 -3029.8256,989.27354 C -3030.4034,990.79074 -3030.8093,992.26636 -3030.9699,993.67375 C -3031.1427,995.18923 -3031.0073,996.76423 -3030.2797,998.15981 C -3029.722,999.22941 -3028.7732,999.96997 -3027.7285,1000.506 C -3027.7385,1000.5512 -3027.7637,1000.5762 -3027.7728,1000.6226 C -3028.0438,1002.0042 -3027.2106,1003.917 -3026.1428,1004.6363 C -3025.264,1005.2285 -3024.3461,1005.4283 -3023.3191,1005.5528 C -3023.3181,1005.6287 -3023.3354,1005.701 -3023.3322,1005.7773 C -3023.2826,1006.9766 -3022.8579,1008.2889 -3021.9898,1009.229 C -3021.1268,1010.1636 -3019.9816,1010.635 -3018.8146,1010.8211 C -3019.1952,1011.311 -3019.6482,1011.8078 -3019.9305,1012.3011 C -3020.4415,1013.1941 -3021.0837,1014.2387 -3020.559,1015.9503 C -3020.2966,1016.8061 -3019.5913,1017.5526 -3018.9566,1017.8751 C -3018.3219,1018.1975 -3017.7701,1018.2475 -3017.2399,1018.2549 C -3016.1793,1018.2695 -3015.1237,1018.038 -3013.7886,1017.6208 C -3005.9536,1015.1728 -2993.1925,1008.9208 -2981.1011,1001.8506 C -2979.3867,1001.2018 -2977.6157,1000.6101 -2975.9627,999.93118 C -2968.0466,996.67993 -2961.1067,993.22627 -2956.8534,989.85184 C -2954.7267,988.16463 -2952.9907,986.6166 -2952.639,983.93212 C -2952.5314,983.11147 -2952.7293,982.26434 -2953.0558,981.46816 C -2951.3493,979.52938 -2950.0164,977.74544 -2949.9197,975.27268 C -2949.8693,973.98253 -2950.4028,972.52392 -2951.3059,971.61591 C -2952.2089,970.70789 -2953.3041,970.23401 -2954.5408,969.92565 C -2954.9363,969.82701 -2955.3665,969.7723 -2955.7894,969.70792 C -2954.9598,968.87305 -2954.0875,968.02881 -2953.4431,967.25045 C -2952.4963,966.1067 -2951.7471,965.01708 -2951.2322,963.84065 C -2950.7173,962.66422 -2950.3704,961.17457 -2950.9578,959.66905 C -2951.5451,958.16351 -2952.8882,957.33162 -2954.1531,956.98384 C -2955.4179,956.63605 -2956.8217,956.6 -2958.5457,956.73707 C -2958.7322,956.7519 -2958.9592,956.79075 -2959.1494,956.80732 C -2959.7188,954.47406 -2961.2634,952.63938 -2963.1648,951.55858 C -2963.6872,951.26155 -2964.3003,951.10412 -2964.8721,950.8879 C -2964.6682,949.51955 -2964.8401,948.03019 -2965.6256,946.82954 C -2965.9913,946.27074 -2966.4605,945.83827 -2966.9592,945.4562 C -2966.6117,944.49533 -2966.3804,943.54888 -2966.4222,942.51506 C -2966.4784,941.12878 -2967.3228,939.60128 -2968.3978,938.92369 C -2969.4729,938.24608 -2970.5633,938.12746 -2971.6848,938.13112 C -2973.928,938.13845 -2976.6169,938.75607 -2979.6195,939.76766 z M -2973.4342,943.56658 C -2972.7921,943.44857 -2972.1046,943.30535 -2971.6694,943.30393 C -2971.4918,943.30334 -2971.5566,943.30786 -2971.4296,943.3238 C -2971.481,943.46505 -2971.495,943.52697 -2971.5969,943.76997 C -2972.2039,943.67739 -2972.8123,943.59316 -2973.4342,943.56658 z M -2997.1568,953.06817 C -3001.6612,956.21775 -3006.0593,959.8666 -3010.171,963.77892 C -3012.903,965.91659 -3015.2615,968.24257 -3017.0298,970.80242 C -3017.2278,971.02274 -3017.4386,971.24467 -3017.6337,971.46497 C -3020.099,972.40346 -3022.5705,973.33888 -3024.6363,974.27318 C -3023.1204,971.57195 -3020.7511,968.09925 -3017.2278,963.81348 C -3017.1248,963.75196 -3017.0366,963.70182 -3016.8808,963.61071 C -3016.4125,963.33667 -3015.7164,962.93614 -3014.8473,962.44426 C -3013.1094,961.46052 -3010.6546,960.09665 -3007.7706,958.54473 C -3004.6185,956.84858 -3000.9535,954.96019 -2997.1568,953.06817 z M -2980.688,949.98006 C -2978.5467,949.27399 -2976.5593,948.88546 -2974.747,948.78567 C -2975.039,949.18376 -2975.3001,949.52775 -2975.589,949.91856 C -2978.3456,950.17957 -2981.2596,950.71293 -2984.2757,951.48978 C -2983.064,950.95436 -2981.8351,950.35831 -2980.688,949.98006 z M -2986.6743,957.4848 C -2984.3969,956.77119 -2982.1738,956.23894 -2980.0147,955.80874 C -2981.5579,957.80805 -2983.0082,959.60208 -2984.4542,961.38207 C -2992.0523,963.20846 -2999.8082,965.40669 -3007.0433,967.73937 C -3006.1214,967.02105 -3005.1774,966.2991 -3004.1472,965.61913 C -2999.0374,962.24675 -2992.7678,959.39419 -2986.6743,957.4848 z M -2973.2032,954.92701 C -2973.1537,954.92494 -2973.1113,954.93154 -2973.062,954.9297 C -2973.2289,955.10281 -2973.4202,955.27391 -2973.5976,955.45057 C -2973.4663,955.2756 -2973.3353,955.10348 -2973.2032,954.92701 z M -2967.0131,955.50917 C -2966.3994,955.69365 -2965.8049,955.89626 -2965.3804,956.13758 C -2964.6971,956.52597 -2964.3322,956.92264 -2964.0728,957.36743 C -2965.7205,957.59396 -2967.4571,957.85688 -2969.2543,958.16777 C -2968.3992,957.28384 -2967.6515,956.40184 -2967.0131,955.50917 z M -3008.9093,973.68835 C -3003.6786,971.9279 -2997.965,970.28321 -2992.2032,968.72571 C -2995.8195,970.82689 -2999.5239,972.84587 -3003.1902,974.58324 C -3007.7125,976.72617 -3012.0208,978.38707 -3015.8104,979.54174 C -3015.5296,978.57747 -3015.1668,977.56116 -3014.7071,976.50922 C -3014.5867,976.23368 -3014.3656,975.94525 -3014.2181,975.66579 C -3012.4253,975.00291 -3010.8545,974.34302 -3008.9093,973.68835 z M -3024.3053,979.72771 C -3024.6161,980.15699 -3024.8758,980.57912 -3025.1686,981.00319 C -3025.4635,980.96144 -3025.7949,980.93216 -3025.99,980.85995 C -3026.1361,980.80588 -3026.1742,980.77408 -3026.2609,980.73225 C -3025.6281,980.4012 -3025.0295,980.07189 -3024.3053,979.72771 z M -3030.4891,983.42463 C -3030.38,983.58521 -3030.2476,983.72838 -3030.1246,983.87579 C -3030.3484,983.81551 -3030.6489,983.76478 -3030.8324,983.69385 C -3030.7305,983.59775 -3030.6159,983.53649 -3030.4891,983.42463 z M -2974.974,967.24005 C -2973.466,966.79243 -2972.009,966.48313 -2970.6282,966.3013 C -2975.7048,969.79521 -2983.0446,973.34821 -2990.8998,976.35346 C -2990.1301,975.53961 -2989.3313,974.65523 -2988.528,973.76882 C -2987.2989,972.99026 -2986.0708,972.19883 -2984.8436,971.51548 C -2981.4525,969.62715 -2978.102,968.16847 -2974.974,967.24005 z M -2959.7997,962.10535 C -2959.3164,962.05734 -2958.6483,961.93224 -2958.1911,961.89589 C -2956.9934,961.80067 -2956.2999,961.89501 -2955.7778,961.98766 C -2956.0242,962.45371 -2956.3526,963.01966 -2956.9883,963.78757 C -2957.131,963.95994 -2957.3931,964.18805 -2957.5531,964.36915 C -2957.9723,963.83894 -2958.4635,963.37777 -2959.0003,963.03451 C -2959.3061,962.83903 -2959.6389,962.68183 -2959.9758,962.5207 C -2959.9068,962.38566 -2959.863,962.24249 -2959.7997,962.10535 z M -2963.363,966.7711 C -2962.4235,967.01846 -2961.7354,967.26996 -2961.4115,967.47705 C -2961.3862,967.49323 -2961.4138,967.4731 -2961.3929,967.4876 C -2961.5675,967.81614 -2962.138,968.69198 -2963.3832,969.77313 C -2963.4461,969.82774 -2963.5466,969.89715 -2963.612,969.95259 C -2965.1853,970.20369 -2966.8716,970.57198 -2968.6139,970.99632 C -2968.4441,970.88218 -2968.2382,970.77389 -2968.0719,970.6594 C -2966.2404,969.3989 -2964.7272,968.09791 -2963.363,966.7711 z M -3024.4606,989.64601 C -3023.045,989.6042 -3021.5719,989.51787 -3019.9977,989.32733 C -3019.4531,990.18936 -3018.7364,990.92608 -3017.8712,991.44588 C -3019.8851,992.67291 -3021.7398,993.86874 -3023.1958,994.98549 C -3023.7164,995.3848 -3024.0657,995.77216 -3024.5093,996.16051 C -3024.8939,996.14057 -3025.2559,996.10496 -3025.4816,996.03483 C -3026.025,995.86597 -3026.0743,995.76013 -3026.148,995.61879 C -3026.2217,995.47744 -3026.334,995.0978 -3026.2447,994.31489 C -3026.1231,993.24877 -3025.4088,991.55107 -3024.4606,989.64601 z M -2982.0416,980.49418 C -2988.5437,983.55365 -2995.9458,986.71681 -3004.0012,989.8352 C -3002.7999,989.24767 -3001.8141,988.67022 -3000.5602,988.08783 C -2994.6478,985.34174 -2988.2214,982.7153 -2982.0416,980.49418 z M -2961.7979,975.08806 C -2959.1021,974.74085 -2956.869,974.64658 -2955.6104,974.96041 C -2955.0455,975.10131 -2954.9183,975.21377 -2954.7968,975.29245 C -2954.9215,975.59481 -2955.3702,976.67924 -2956.6595,978.12674 C -2956.6754,978.14459 -2956.7055,978.16379 -2956.7216,978.18172 C -2956.8281,978.13945 -2956.9158,978.08881 -2957.0253,978.04829 C -2959.4204,977.16282 -2962.1389,977.11182 -2965.0675,977.58929 C -2963.9488,976.7487 -2962.8164,975.90579 -2961.7979,975.08806 z M -2970.2467,984.37916 C -2966.8487,983.23689 -2963.8303,982.62718 -2961.5185,982.57385 C -2964.6042,985.11783 -2968.4341,987.92981 -2972.7788,990.77505 C -2976.0629,992.92569 -2979.6272,995.07666 -2983.2334,997.17884 C -2989.4179,999.49704 -2995.7956,1001.6613 -3001.5711,1003.1879 C -3002.2836,1003.3763 -3002.9333,1003.516 -3003.6267,1003.685 C -3002.0026,1002.4413 -3000.2919,1001.1729 -2998.496,999.90686 C -2991.3549,994.8724 -2983.0638,989.84109 -2975.6379,986.50311 C -2973.7814,985.66861 -2971.962,984.95575 -2970.2467,984.37916 z M -3018.5585,1005.4543 C -3016.4381,1005.1457 -3014.0813,1004.4905 -3011.5812,1003.6362 C -3012.3645,1004.2988 -3013.07,1004.9359 -3013.7683,1005.5656 C -3015.6371,1005.7697 -3017.2328,1005.867 -3018.1205,1005.7281 C -3018.5692,1005.6579 -3018.6138,1005.5522 -3018.5841,1005.5815 C -3018.5847,1005.5622 -3018.5774,1005.5803 -3018.5788,1005.5458 C -3018.5795,1005.5317 -3018.5587,1005.4706 -3018.5585,1005.4543 z M -3011.9436,1010.6298 C -3010.8475,1010.4813 -3009.6731,1010.2894 -3008.4603,1010.0526 C -3010.1994,1010.7881 -3011.7794,1011.4023 -3013.2116,1011.9078 C -3012.7927,1011.4843 -3012.4427,1011.0983 -3011.9436,1010.6298 z "
         style="fill:#c1be91;fill-opacity:1;fill-rule:evenodd;stroke:#ac936c;stroke-width:2.48018765;stroke-linecap:butt;stroke-linejoin:miter;stroke-miterlimit:4;stroke-dasharray:none;stroke-opacity:1" />
      <path
         transform="matrix(0.6363641,0,0,0.624337,-1182.4127,885.47079)"
         d="M -2050.583 299.72433 A 326.61642 326.61642 0 1 1  -2703.8159,299.72433 A 326.61642 326.61642 0 1 1  -2050.583 299.72433 z"
         sodipodi:ry="326.61642"
         sodipodi:rx="326.61642"
         sodipodi:cy="299.72433"
         sodipodi:cx="-2377.1995"
         id="path3618"
         style="color:#000000;fill:url(#radialGradient4027);fill-opacity:1;fill-rule:evenodd;stroke:none;stroke-width:4;stroke-linecap:round;stroke-linejoin:round;marker:none;marker-start:none;marker-mid:none;marker-end:none;stroke-miterlimit:4;stroke-dasharray:none;stroke-dashoffset:0;stroke-opacity:1;visibility:visible;display:inline;overflow:visible;enable-background:accumulate"
         sodipodi:type="arc" />
      <path
         transform="matrix(0.6964998,0,0,0.6964998,-1043.3585,507.84547)"
         d="M -2050.583 299.72433 A 326.61642 326.61642 0 1 1  -2703.8159,299.72433 A 326.61642 326.61642 0 1 1  -2050.583 299.72433 z"
         sodipodi:ry="326.61642"
         sodipodi:rx="326.61642"
         sodipodi:cy="299.72433"
         sodipodi:cx="-2377.1995"
         id="path3620"
         style="color:#000000;fill:url(#radialGradient4029);fill-opacity:1;fill-rule:evenodd;stroke:none;stroke-width:4;stroke-linecap:round;stroke-linejoin:round;marker:none;marker-start:none;marker-mid:none;marker-end:none;stroke-miterlimit:4;stroke-dasharray:none;stroke-dashoffset:0;stroke-opacity:1;visibility:visible;display:inline;overflow:visible;enable-background:accumulate"
         sodipodi:type="arc" />
      <path
         sodipodi:nodetypes="czzc"
         id="path3622"
         d="M -2808.5155,716.9216 C -2808.5155,716.9216 -2973.2577,810.13742 -2964.9266,829.65794 C -2956.8533,848.57399 -2815.4966,799.19801 -2755.1562,782.9801 C -2694.8158,766.7622 -2736.2001,667.92497 -2808.5155,716.9216 z "
         style="fill:url(#linearGradient4031);fill-opacity:1;fill-rule:evenodd;stroke:none;stroke-width:1px;stroke-linecap:butt;stroke-linejoin:miter;stroke-opacity:1" />
      <path
         transform="matrix(0.6964998,0,0,0.6964998,-1030.5988,536.9327)"
         d="M -2488.3485 168.87688 A 48.632217 48.632217 0 1 1  -2585.6129,168.87688 A 48.632217 48.632217 0 1 1  -2488.3485 168.87688 z"
         sodipodi:ry="48.632217"
         sodipodi:rx="48.632217"
         sodipodi:cy="168.87688"
         sodipodi:cx="-2536.9807"
         id="path3624"
         style="color:#000000;fill:url(#radialGradient4033);fill-opacity:1;fill-rule:evenodd;stroke:none;stroke-width:4;stroke-linecap:round;stroke-linejoin:round;marker:none;marker-start:none;marker-mid:none;marker-end:none;stroke-miterlimit:4;stroke-dasharray:none;stroke-dashoffset:0;stroke-opacity:1;visibility:visible;display:inline;overflow:visible;enable-background:accumulate"
         sodipodi:type="arc" />
      <path
         transform="matrix(0.6964998,0,0,0.6964998,-947.01883,536.9327)"
         d="M -2488.3485 168.87688 A 48.632217 48.632217 0 1 1  -2585.6129,168.87688 A 48.632217 48.632217 0 1 1  -2488.3485 168.87688 z"
         sodipodi:ry="48.632217"
         sodipodi:rx="48.632217"
         sodipodi:cy="168.87688"
         sodipodi:cx="-2536.9807"
         id="path3626"
         style="color:#000000;fill:url(#radialGradient4035);fill-opacity:1;fill-rule:evenodd;stroke:none;stroke-width:4;stroke-linecap:round;stroke-linejoin:round;marker:none;marker-start:none;marker-mid:none;marker-end:none;stroke-miterlimit:4;stroke-dasharray:none;stroke-dashoffset:0;stroke-opacity:1;visibility:visible;display:inline;overflow:visible;enable-background:accumulate"
         sodipodi:type="arc" />
      <path
         id="path3628"
         d="M -2392.0601,814.09609 C -2434.6574,814.55811 -2476.7854,824.68325 -2518.257,850.94528 C -2717.6219,977.19339 -2862.2001,915.94948 -2868.1611,874.1039 C -2881.1241,884.32168 -2893.604,926.34063 -2886.5096,952.46013 C -2885.0803,983.18188 -2744.502,1090.5041 -2544.8547,954.87611 C -2420.78,880.10413 -2265.7909,1006.5759 -2125.5618,1036.9325 L -2125.2353,1036.0401 C -2117.7559,1038.81 -2109.5154,1043.2945 -2102.4903,1039.8926 C -2098.5837,1037.0014 -2114.439,1037.4765 -2105.9292,1033.6894 C -2110.3094,1032.1258 -2113.674,1031.5373 -2106.4515,1031.5564 C -2100.6804,1031.6591 -2088.8132,1036.9876 -2087.0366,1030.7511 C -2094.194,1029.2988 -2082.9126,1023.0641 -2079.2446,1025.2444 C -2074.5427,1024.3094 -2068.5226,1023.2529 -2075.3268,1022.959 C -2069.4383,1019.2418 -2084.3593,1023.595 -2087.0802,1023.0678 C -2092.1997,1023.7333 -2107.3901,1023.8197 -2105.4068,1020.2818 C -2100.2126,1016.905 -2113.4957,1016.8901 -2117.6609,1015.2322 L -2116.899,1013.1644 C -2107.7597,1015.6404 -2098.6005,1017.9755 -2089.2132,1018.9976 C -2083.0787,1015.1225 -2074.9154,1016.5569 -2069.2759,1011.6626 C -2076.5813,1013.0484 -2088.3348,1015.0977 -2093.1528,1012.3591 C -2087.2068,1011.9229 -2072.4144,1011.1559 -2071.7354,1007.5707 C -2084.0706,1009.4856 -2097.1912,1011.0838 -2109.0852,1006.2865 C -2096.2841,1006.1348 -2083.2731,1006.3938 -2070.5818,1004.0882 C -2060.1726,999.53447 -2073.7596,1002.5202 -2074.8261,1001.7157 C -2071.2485,1001.2125 -2065.3615,997.29608 -2072.606,999.73505 C -2077.7754,1000.9401 -2090.3034,1000.7937 -2078.2869,1000.1921 C -2073.1728,1001.0986 -2060.4344,993.68634 -2072.889,996.92729 C -2078.3565,997.55683 -2077.0039,996.00679 -2074.0643,994.22835 C -2079.5816,996.63182 -2086.8743,997.87367 -2088.7561,995.31663 C -2086.0653,996.38991 -2071.0195,992.1854 -2079.3751,991.59471 C -2073.9685,989.09809 -2057.7337,982.58544 -2070.016,985.45681 C -2074.2672,985.79874 -2087.3826,987.00308 -2085.7089,985.39151 C -2074.7886,981.84644 -2062.6347,982.2158 -2052.4075,976.72879 C -2044.5494,973.85407 -2061.3922,976.11019 -2052.6252,972.07095 C -2048.1651,970.31883 -2043.1692,966.6758 -2050.7752,970.67795 C -2058.1763,974.60242 -2046.6025,967.5163 -2053.1476,970.56912 C -2056.9682,970.09818 -2056.2434,968.73511 -2054.2794,967.36958 C -2059.1066,968.55498 -2065.675,966.51152 -2057.6313,965.01889 C -2053.0151,965.1579 -2042.0015,960.26795 -2053.017,960.0128 C -2050.8819,957.70225 -2039.2102,953.04521 -2048.9903,957.05267 C -2048.7974,955.27438 -2063.7521,953.11369 -2069.4718,949.23882 C -2074.6931,945.85172 -2058.4271,950.81967 -2055.1935,950.93653 C -2050.7545,953.03039 -2042.1006,947.14547 -2051.6892,947.69346 C -2056.3075,946.86115 -2073.18,941.37074 -2060.1996,943.01385 C -2053.9338,943.38316 -2038.7245,944.59212 -2038.434,939.98843 C -2048.2737,940.22892 -2066.8869,939.24863 -2070.9518,936.87594 C -2061.4625,938.1058 -2051.4314,941.04081 -2042.0471,938.20365 C -2030.1391,932.14411 -2057.2007,936.32609 -2057.1307,934.22054 C -2051.5,935.32521 -2037.2331,933.31152 -2037.4981,929.47563 C -2047.8677,929.19347 -2059.4395,931.18182 -2068.5141,924.88309 C -2060.227,929.29792 -2049.7679,930.36896 -2040.9588,927.75615 C -2037.2261,928.45897 -2026.6405,923.80106 -2036.3662,923.14184 C -2041.7519,921.58693 -2042.291,922.20117 -2036.9104,922.07532 C -2031.0619,920.79579 -2033.6206,919.05617 -2036.3662,918.20104 C -2032.2466,917.99952 -2028.1521,914.20871 -2035.8004,914.39206 C -2041.446,912.82409 -2054.3118,908.70382 -2054.8671,907.18764 C -2050.5023,907.69142 -2040.8542,902.57228 -2050.6445,904.20575 C -2055.9121,905.02952 -2065.3981,901.61052 -2067.2952,900.61442 C -2061.3943,902.79137 -2050.1186,903.33465 -2047.2927,898.91671 C -2053.0004,900.99365 -2065.766,897.02457 -2066.9688,896.04364 C -2060.311,897.87832 -2051.0324,898.86127 -2046.0085,894.36769 C -2054.9982,896.30799 -2063.7126,893.11109 -2072.1272,890.14516 L -2071.8007,889.27454 C -2179.6601,870.22059 -2287.2935,812.95976 -2392.0601,814.09609 z M -2054.2794,967.36958 C -2052.921,967.03601 -2051.688,966.44914 -2050.971,965.5195 C -2052.1229,966.07538 -2053.3369,966.71427 -2054.2794,967.36958 z M -2050.971,965.5195 C -2049.6679,964.8906 -2048.567,964.42324 -2047.9892,964.1918 C -2048.4668,964.37566 -2049.3353,964.68984 -2050.7752,965.21478 C -2050.839,965.32022 -2050.8956,965.42169 -2050.971,965.5195 z M -2074.0643,994.22835 C -2072.6822,993.62623 -2071.4081,992.95309 -2070.3642,992.24768 C -2071.6384,992.88704 -2072.9585,993.55932 -2074.0643,994.22835 z M -2070.3642,992.24768 C -2066.1659,990.14106 -2062.567,988.72301 -2069.5589,991.66001 C -2069.8078,991.85627 -2070.0793,992.05516 -2070.3642,992.24768 z M -2067.4258,919.98582 C -2059.5046,922.42437 -2051.4012,924.45305 -2043.2878,925.79724 C -2050.0227,927.6105 -2059.4401,924.25986 -2066.1634,920.61703 L -2067.4258,919.98582 z M -2085.4695,926.79846 C -2082.3998,927.9533 -2079.9084,928.9865 -2079.6581,929.64976 C -2081.5155,929.37134 -2083.5717,928.45342 -2085.6872,927.4079 L -2085.4695,926.79846 z M -2086.6666,938.85662 C -2081.6454,939.76376 -2083.6906,941.15678 -2086.6666,938.85662 z M -2058.9372,958.24978 C -2052.7544,959.31355 -2055.4726,959.39128 -2058.9372,958.24978 z M -2074.195,959.8822 C -2071.2479,960.49505 -2058.2118,962.0078 -2067.5129,963.86531 C -2069.4838,963.24171 -2081.0482,960.88374 -2074.195,959.8822 z M -2061.4402,962.82056 C -2053.9438,964.93089 -2073.3399,965.70329 -2062.2456,963.12528 L -2061.7014,962.92939 L -2061.4402,962.82056 z M -2100.2701,967.4784 C -2096.2452,968.54302 -2093.1821,970.32822 -2100.2484,968.28373 C -2100.3433,968.25719 -2100.4364,968.2234 -2100.5313,968.19667 L -2100.2701,967.4784 z M -2082.4006,968.43609 C -2081.9268,968.48882 -2082.9869,969.05153 -2083.467,968.61022 C -2082.8917,968.45879 -2082.5585,968.41851 -2082.4006,968.43609 z M -2079.8975,969.37201 C -2076.2591,969.71297 -2079.4784,970.44759 -2079.8975,969.37201 z M -2073.0413,972.07095 C -2063.2752,973.64448 -2078.9255,974.24587 -2073.0413,972.07095 z M -2095.2423,973.33336 C -2091.104,973.85747 -2085.121,975.27307 -2093.218,974.24751 C -2094.1536,974.19451 -2100.6745,973.62344 -2095.2423,973.33336 z M -2064.8793,975.70581 C -2064.9149,978.2453 -2071.4679,978.75586 -2070.7777,977.77354 C -2073.6509,978.73996 -2075.4466,976.13807 -2068.9929,976.72879 C -2069.1247,976.8452 -2069.2523,976.93534 -2069.3847,977.03351 C -2068.8272,976.82073 -2068.1356,976.57912 -2067.1646,976.31525 L -2066.0111,976.05406 L -2064.8793,975.70581 z M -2069.3847,977.03351 C -2070.175,977.3351 -2070.6428,977.58155 -2070.7777,977.77354 C -2070.3293,977.62272 -2069.8589,977.38482 -2069.3847,977.03351 z M -2103.6438,976.72879 C -2097.1423,977.50398 -2083.8891,980.26419 -2095.7211,978.81829 C -2098.4401,978.3901 -2101.1139,977.77985 -2103.7744,977.07704 L -2103.6438,976.72879 z M -2062.6157,976.72879 C -2055.0224,979.02675 -2074.4605,979.88378 -2063.4209,977.07704 L -2062.8986,976.85939 L -2062.6157,976.72879 z M -2106.4081,984.34676 C -2103.641,984.81724 -2100.8658,985.23371 -2098.0718,985.5221 C -2100.7707,985.67338 -2103.6143,985.15287 -2106.4733,984.52088 L -2106.4081,984.34676 z M -2073.2373,988.15574 C -2078.5191,993.4886 -2094.9764,991.59945 -2095.7211,989.35285 C -2088.2083,989.35709 -2080.7088,988.95841 -2073.2373,988.15574 z M -2108.9546,991.35529 C -2105.0785,992.12704 -2103.2038,993.13996 -2108.9546,991.35529 z M -2110.4782,995.53429 C -2106.4501,996.6578 -2101.9224,998.04585 -2108.9982,996.14372 C -2109.5159,995.99203 -2110.0283,995.8466 -2110.5435,995.68665 L -2110.4782,995.53429 z M -2111.1747,1001.0192 C -2109.9459,1001.0147 -2108.9344,1001.0816 -2108.3452,1001.2804 C -2103.9781,1001.4423 -2094.2502,1003.3482 -2103.8397,1002.8911 C -2106.9973,1003.2266 -2110.1305,1003.2058 -2113.2207,1003.0652 L -2112.5025,1001.0628 C -2112.0395,1001.0484 -2111.597,1001.0208 -2111.1747,1001.0192 z "
         style="fill:#800000;fill-rule:nonzero;stroke:none;stroke-width:1px;stroke-linecap:butt;stroke-linejoin:miter;stroke-opacity:1" />
    </g>
  </g>
</svg>
