<?xml version="1.0" encoding="UTF-8" standalone="no"?>
<!-- Created with Inkscape (http://www.inkscape.org/) -->
<svg
   xmlns:dc="http://purl.org/dc/elements/1.1/"
   xmlns:cc="http://web.resource.org/cc/"
   xmlns:rdf="http://www.w3.org/1999/02/22-rdf-syntax-ns#"
   xmlns:svg="http://www.w3.org/2000/svg"
   xmlns="http://www.w3.org/2000/svg"
   xmlns:sodipodi="http://sodipodi.sourceforge.net/DTD/sodipodi-0.dtd"
   xmlns:inkscape="http://www.inkscape.org/namespaces/inkscape"
   width="589.0564"
   height="184.55257"
   id="svg2754"
   sodipodi:version="0.32"
   inkscape:version="0.45"
   sodipodi:modified="true"
   version="1.0">
  <defs
     id="defs2756" />
  <sodipodi:namedview
     id="base"
     pagecolor="#ffffff"
     bordercolor="#666666"
     borderopacity="1.0"
     inkscape:pageopacity="0.0"
     inkscape:pageshadow="2"
     inkscape:zoom="0.35"
     inkscape:cx="375"
     inkscape:cy="520"
     inkscape:document-units="px"
     inkscape:current-layer="layer1"
     inkscape:window-width="910"
     inkscape:window-height="626"
     inkscape:window-x="5"
     inkscape:window-y="49" />
  <metadata
     id="metadata2759">
    <rdf:RDF>
      <cc:Work
         rdf:about="">
        <dc:format>image/svg+xml</dc:format>
        <dc:type
           rdf:resource="http://purl.org/dc/dcmitype/StillImage" />
      </cc:Work>
    </rdf:RDF>
  </metadata>
  <g
     inkscape:label="Calque 1"
     inkscape:groupmode="layer"
     id="layer1"
     transform="translate(183.09959,-268.65733)">
    <g
       transform="matrix(-1.8532277,0,0,1.8532277,-2487.3955,206.50241)"
       id="g6321">
      <path
         style="fill:#1a1a1a;fill-rule:evenodd;stroke:none;stroke-width:1px;stroke-linecap:butt;stroke-linejoin:miter;stroke-opacity:1"
         d="M -1561.2503,99.287042 C -1532.7773,78.679452 -1531.1034,92.33035 -1531.5155,94.673022 C -1534.5017,98.801389 -1534.086,101.79578 -1534.0789,104.92639 C -1523.4439,99.320672 -1514.3239,85.423882 -1489.9894,93.647692 C -1490.2513,95.621863 -1491.9045,96.350779 -1489.9894,101.33771 C -1471.7592,89.526432 -1453.6297,85.663572 -1432.5705,93.135022 C -1417.9074,107.2591 -1415.549,120.35778 -1417.1905,133.12314 C -1417.1905,133.12314 -1410.0131,122.35711 -1410.0131,125.43312 C -1410.0131,128.50913 -1403.825,132.55104 -1404.3738,130.04713 C -1406.1571,121.91092 -1381.5571,113.14703 -1379.253,126.97112 C -1379.253,126.97112 -1380.2784,126.97112 -1377.2024,124.92045 C -1374.1264,122.86978 -1377.2024,123.89511 -1374.1264,124.40778 C -1371.0504,124.92045 -1367.4617,122.86978 -1367.4617,122.86978 C -1372.7903,115.91678 -1380.0736,111.13568 -1373.6137,91.084352 C -1358.1144,75.365082 -1330.6621,72.109902 -1303.3782,75.704302 C -1305.6749,72.282406 -1307.2025,68.552865 -1314.1442,66.988942 C -1298.3839,60.896542 -1280.9491,64.851562 -1263.9027,66.476272 C -1264.4085,62.427402 -1269.3658,58.041602 -1277.2321,55.364822 C -1268.1456,48.133572 -1256.9756,49.150532 -1243.396,51.096232 C -1260.7346,39.120592 -1306.9918,9.107402 -1381.3037,73.140962 C -1383.0653,70.180582 -1381.9673,68.364042 -1390.0191,62.887592 C -1384.6085,55.393622 -1383.8941,49.633593 -1382.8417,44.431542 C -1387.3625,50.032097 -1390.4705,56.339003 -1395.1458,61.862262 C -1402.5523,60.607752 -1407.8863,61.425792 -1412.5765,62.887592 C -1421.8396,59.918607 -1425.6598,53.505408 -1428.0734,49.923993 C -1428.2419,51.682871 -1426.6493,60.324212 -1419.2528,65.421478 C -1423.6752,69.010158 -1423.7145,73.140962 -1423.8552,76.729642 C -1423.8552,76.729642 -1527.4142,29.051492 -1561.2503,99.287042 z "
         id="path6323"
         sodipodi:nodetypes="cccccccsscsscccccccccccccccc" />
      <path
         style="fill:#333333;fill-rule:evenodd;stroke:none;stroke-width:1px;stroke-linecap:butt;stroke-linejoin:miter;stroke-opacity:1"
         d="M -1561.2503,99.287042 C -1519.6354,52.205573 -1453.1805,68.287029 -1424.0578,81.662192 L -1423.8552,76.729642 C -1423.8552,76.729642 -1527.4142,29.051492 -1561.2503,99.287042 z "
         id="path6325"
         sodipodi:nodetypes="cccc" />
      <path
         style="fill:#333333;fill-opacity:1;fill-rule:evenodd;stroke:none;stroke-width:1px;stroke-linecap:butt;stroke-linejoin:miter;stroke-opacity:1"
         d="M -1379.7948,78.358545 C -1338.5073,34.465438 -1286.4885,27.099442 -1243.396,51.096232 C -1260.7346,39.120592 -1306.9918,9.107402 -1381.3037,73.140962 L -1379.7948,78.358545 z "
         id="path6327"
         sodipodi:nodetypes="cccc" />
      <path
         style="fill:#0e0e0e;fill-opacity:1;fill-rule:evenodd;stroke:none;stroke-width:1px;stroke-linecap:butt;stroke-linejoin:miter;stroke-opacity:1"
         d="M -621.01937,-262.59894 C -615.44256,-271.90497 -613.69979,-275.62344 -610.57931,-278.77368 C -608.32521,-276.84738 -605.70721,-270.01361 -601.38527,-265.87129 C -608.30683,-268.92596 -614.78836,-267.14034 -621.01937,-262.59894 z "
         id="path6329"
         transform="translate(-781.17545,387.23014)"
         sodipodi:nodetypes="cccc" />
      <path
         style="fill:#ffffff;fill-opacity:1;fill-rule:evenodd;stroke:none;stroke-width:1px;stroke-linecap:butt;stroke-linejoin:miter;stroke-opacity:1"
         d="M -1408.351,78.102115 C -1414.7632,78.431767 -1416.7279,73.774191 -1415.5573,71.76082 C -1414.3388,69.664867 -1410.9231,70.830615 -1408.351,78.102115 z "
         id="path6331"
         sodipodi:nodetypes="czc" />
      <path
         style="fill:#ffffff;fill-opacity:1;fill-rule:evenodd;stroke:none;stroke-width:1px;stroke-linecap:butt;stroke-linejoin:miter;stroke-opacity:1"
         d="M -1404.3764,77.363914 C -1404.3764,70.947231 -1399.2662,67.577858 -1397.5587,69.343058 C -1394.7512,72.245412 -1398.3473,76.451109 -1404.3764,77.363914 z "
         id="path6333"
         sodipodi:nodetypes="csc" />
      <path
         style="fill:#0e0e0e;fill-opacity:1;fill-rule:evenodd;stroke:none;stroke-width:1px;stroke-linecap:butt;stroke-linejoin:miter;stroke-opacity:1"
         d="M -598.58394,-308.37962 C -597.5211,-303.24829 -598.33217,-290.55866 -595.53448,-280.39182 C -594.52386,-276.71923 -591.46551,-271.29422 -589.05529,-267.8909 C -587.70116,-265.97881 -586.04557,-264.73197 -586.31951,-264.42542 C -588.94342,-261.48918 -595.40694,-263.19596 -595.10912,-263.02404 C -593.76515,-262.24821 -598.21817,-260.82941 -598.21817,-260.82941 C -598.8834,-260.42106 -600.5401,-304.40602 -606.44801,-316.79235 C -610.65462,-325.61179 -601.41475,-322.04662 -598.58394,-308.37962 z "
         id="path6335"
         transform="translate(-781.17545,387.23014)"
         sodipodi:nodetypes="csssscss" />
    </g>
  </g>
</svg>
