<?xml version="1.0" encoding="UTF-8" standalone="no"?>
<!-- Created with Inkscape (http://www.inkscape.org/) -->
<svg
   xmlns:dc="http://purl.org/dc/elements/1.1/"
   xmlns:cc="http://web.resource.org/cc/"
   xmlns:rdf="http://www.w3.org/1999/02/22-rdf-syntax-ns#"
   xmlns:svg="http://www.w3.org/2000/svg"
   xmlns="http://www.w3.org/2000/svg"
   xmlns:sodipodi="http://sodipodi.sourceforge.net/DTD/sodipodi-0.dtd"
   xmlns:inkscape="http://www.inkscape.org/namespaces/inkscape"
   width="400"
   height="550"
   id="svg16317"
   sodipodi:version="0.32"
   inkscape:version="0.44"
   version="1.0"
   sodipodi:docbase="C:\Documents and Settings\Henry SALOME\Mes documents\Mes images\Blasons\Inkscape\Pièces &amp; meubles"
   sodipodi:docname="Héraldique_meuble_Eglise.svg">
  <defs
     id="defs16319" />
  <sodipodi:namedview
     id="base"
     pagecolor="#ffffff"
     bordercolor="#666666"
     borderopacity="1.0"
     inkscape:pageopacity="0.0"
     inkscape:pageshadow="2"
     inkscape:zoom="0.75399992"
     inkscape:cx="270.58901"
     inkscape:cy="205.81821"
     inkscape:document-units="px"
     inkscape:current-layer="layer1"
     width="400px"
     height="550px"
     inkscape:window-width="1024"
     inkscape:window-height="708"
     inkscape:window-x="-4"
     inkscape:window-y="-4" />
  <metadata
     id="metadata16322">
    <rdf:RDF>
      <cc:Work
         rdf:about="">
        <dc:format>image/svg+xml</dc:format>
        <dc:type
           rdf:resource="http://purl.org/dc/dcmitype/StillImage" />
      </cc:Work>
    </rdf:RDF>
  </metadata>
  <g
     inkscape:label="Calque 1"
     inkscape:groupmode="layer"
     id="layer1"
     style="opacity:1"
     sodipodi:insensitive="true">
    <g
       id="g6843"
       transform="translate(0,-21.99987)">
      <path
         id="path3069"
         d="M 170.06439,283.17258 C 171.9607,283.18096 173.82507,285.02848 173.81308,288.58735 L 173.81308,323.03953 L 166.19671,323.03953 L 166.19671,288.58735 C 166.2591,284.99497 168.16809,283.16421 170.06439,283.17258 z "
         style="fill:white;fill-opacity:1;fill-rule:evenodd;stroke:black;stroke-width:3;stroke-linecap:butt;stroke-linejoin:miter;stroke-miterlimit:4;stroke-dasharray:none;stroke-opacity:1;display:inline" />
      <g
         transform="matrix(1.619349,0,0,1.619349,-544.2219,11.32555)"
         id="g6645"
         style="fill:black;fill-opacity:1;stroke:black;stroke-width:1.85259628;stroke-miterlimit:4;stroke-dasharray:none;stroke-opacity:1">
        <path
           style="fill:black;fill-opacity:1;fill-rule:evenodd;stroke:black;stroke-width:1.85259628;stroke-linecap:butt;stroke-linejoin:miter;stroke-miterlimit:4;stroke-dasharray:none;stroke-opacity:1"
           d="M 386.96132,196.25198 L 386.96132,180.0119"
           id="path6641"
           sodipodi:nodetypes="cc" />
        <path
           style="fill:black;fill-opacity:1;fill-rule:evenodd;stroke:black;stroke-width:1.85259628;stroke-linecap:butt;stroke-linejoin:miter;stroke-miterlimit:4;stroke-dasharray:none;stroke-opacity:1"
           d="M 382.2381,188.22619 L 391.68453,188.22619"
           id="path6643"
           sodipodi:nodetypes="cc" />
      </g>
      <path
         sodipodi:nodetypes="cccccccc"
         id="path3067"
         d="M 44.572575,521.26887 L 44.118182,432.0567 L 29.228156,432.0567 L 82.516617,328.3963 L 137.93762,432.0567 L 124.3316,432.0567 L 124.3316,521.26887 L 44.572575,521.26887 z "
         style="fill:#d576ad;fill-opacity:1;fill-rule:evenodd;stroke:black;stroke-width:3;stroke-linecap:butt;stroke-linejoin:miter;stroke-miterlimit:4;stroke-dasharray:none;stroke-opacity:1;display:inline" />
      <path
         transform="matrix(3.42224,0,0,3.27765,-1258.027,-411.9065)"
         d="M 398.45037 246.52982 A 6.4235716 6.7069645 0 1 1  385.60322,246.52982 A 6.4235716 6.7069645 0 1 1  398.45037 246.52982 z"
         sodipodi:ry="6.7069645"
         sodipodi:rx="6.4235716"
         sodipodi:cy="246.52982"
         sodipodi:cx="392.02679"
         id="path6711"
         style="fill:white;fill-opacity:1;stroke:black;stroke-width:0.89574754;stroke-linejoin:round;stroke-miterlimit:4;stroke-dasharray:none;stroke-opacity:1"
         sodipodi:type="arc" />
      <path
         sodipodi:nodetypes="ccccc"
         id="path6726"
         d="M 62.78269,520.98848 L 105.29879,520.98848 L 105.29879,456.80918 C 105.09969,427.22545 62.844138,427.15814 62.78269,456.80918 L 62.78269,520.98848 z "
         style="fill:white;fill-opacity:1;fill-rule:evenodd;stroke:black;stroke-width:3.00000215;stroke-linecap:butt;stroke-linejoin:miter;stroke-miterlimit:4;stroke-dasharray:none;stroke-opacity:1" />
      <g
         transform="translate(-0.49957,10.00027)"
         id="g5937">
        <path
           id="path12915"
           style="fill:#000003;fill-opacity:1;fill-rule:evenodd;stroke:#313131;stroke-width:1;stroke-linecap:butt;stroke-linejoin:miter;stroke-miterlimit:4;stroke-dasharray:none;stroke-opacity:1"
           d="M 190.94714,86.923637 C 190.94714,86.963316 190.52721,88.557071 190.24615,89.701138 C 189.96509,90.845204 189.82291,91.499899 189.82291,91.499899 C 189.82291,91.499899 190.12711,91.734664 190.2726,91.962817 C 190.41809,92.190968 190.40486,92.412507 190.40486,92.412507 L 190.24615,92.22734 C 186.23189,93.660837 189.66334,89.069267 189.86259,86.540076 L 190.94714,86.923637 z "
           sodipodi:nodetypes="cscscccc" />
        <path
           id="path12032"
           style="fill:#000003;fill-opacity:1;fill-rule:evenodd;stroke:#313131;stroke-width:1;stroke-linecap:butt;stroke-linejoin:miter;stroke-miterlimit:4;stroke-dasharray:none;stroke-opacity:1"
           d="M 192.39438,86.739134 C 192.39438,86.782187 191.93873,88.5115 191.63377,89.752873 C 191.32881,90.994247 191.17453,91.704628 191.17453,91.704628 C 191.17453,91.704628 191.50461,91.959361 191.66247,92.206917 C 191.82033,92.454474 191.80598,92.694857 191.80598,92.694857 L 191.63377,92.49394 C 191.63377,92.49394 191.52255,92.676918 191.37545,92.680505 C 191.22835,92.684092 191.04537,92.508292 191.04537,92.508292 C 187.1721,93.449409 189.10725,93.508637 190.29911,91.388902 C 190.35652,91.144934 190.68659,90.316154 190.91621,89.049667 C 191.14583,87.78318 191.21758,86.322951 191.21758,86.322951 L 192.39438,86.739134 z "
           sodipodi:nodetypes="cscsccscsscc" />
        <path
           sodipodi:nodetypes="csssssscccccsssssssssscscscscscscscsccccsccscssccscssc"
           id="path2338"
           style="fill:#000003;fill-opacity:1;fill-rule:evenodd;stroke:#313131;stroke-width:1;stroke-linecap:butt;stroke-linejoin:miter;stroke-miterlimit:4;stroke-dasharray:none;stroke-opacity:1"
           d="M 190.23017,86.870338 C 190.23017,86.870338 189.31068,87.365957 188.80115,86.828688 C 188.29847,86.298636 188.56815,86.274253 187.28662,84.907995 C 186.00508,83.541738 186.50304,84.634395 184.89487,82.870527 C 184.09078,81.988593 183.98109,81.586753 183.21313,80.663341 C 182.44518,79.73993 181.01898,78.294947 180.85394,77.852522 C 180.45539,76.78411 180.26537,76.436906 180.5495,74.645822 C 180.83364,72.854738 181.99049,70.688185 181.99049,70.688185 L 184.06064,66.527593 L 183.47207,63.483257 L 185.66399,61.636359 L 185.81133,62.577239 C 186.48636,63.223832 187.52143,63.031024 188.43473,64.898216 C 189.34804,66.765409 189.01316,68.094769 189.49011,70.134474 C 189.96705,72.174179 189.91008,72.212453 190.13956,72.671422 C 190.37296,73.138218 191.06667,73.460718 191.72262,73.686199 C 192.37208,73.90945 193.76232,74.264624 194.32045,73.807972 C 194.87191,73.35678 195.93395,71.316691 197.18213,69.809745 C 198.45684,68.270756 199.83844,67.578092 200.93681,67.455458 C 201.99003,67.337865 204.07247,67.648267 205.21917,68.510828 C 206.41857,69.413032 208.22799,71.727677 208.12144,74.558909 C 208.01573,77.367899 207.25888,77.887382 207.02548,78.394772 C 206.84894,78.77856 206.13248,79.429846 206.13248,79.429846 C 206.13248,79.429846 207.3908,77.034969 207.51257,75.167777 C 207.63435,73.300583 206.61957,71.961075 206.61957,71.961075 C 206.61957,71.961075 207.21829,73.49339 206.70075,75.857825 C 206.18321,78.222259 204.54942,81.418813 204.54942,81.418813 C 204.54942,81.418813 205.29021,78.415069 205.48302,76.38551 C 205.67582,74.355953 205.32065,73.300583 205.32065,73.300583 C 205.32065,73.300583 205.3105,74.234179 205.0771,74.64009 C 204.84371,75.046002 204.38706,74.924229 204.38706,74.924229 C 204.38706,74.924229 204.70164,75.776643 204.30587,76.263737 C 203.91011,76.75083 202.804,76.872605 202.804,76.872605 C 202.804,76.872605 203.29109,78.059895 202.92577,78.536841 C 202.56045,79.013788 201.34272,78.780387 201.34272,78.780387 C 201.34272,78.780387 201.05858,79.612505 200.65267,80.201078 C 200.24676,80.789651 199.71907,81.134674 199.71907,81.134674 L 200.16558,79.713985 L 198.78548,81.784133 L 198.2172,80.038714 C 198.2172,80.038714 198.07513,81.165118 197.73011,81.824723 C 197.38508,82.48433 196.8371,82.677138 196.8371,82.677138 L 196.75592,81.459403 C 196.75592,81.459403 196.25372,82.672415 196.18764,82.474182 C 196.12676,82.291521 195.78173,81.621767 195.78173,81.621767 C 195.78173,81.621767 195.32508,81.631915 194.92932,82.068271 C 194.53355,82.504625 194.5437,82.880094 194.19868,83.367187 C 193.85365,83.854282 193.54922,84.016646 193.54922,84.016646 L 193.50863,83.407778 C 193.50863,83.407778 193.33612,84.047089 193.10272,84.422558 C 192.86932,84.798026 192.57503,84.909651 192.57503,84.909651 C 192.57503,84.909651 192.67143,86.086794 192.45326,86.878321 C 192.23508,87.669848 192.19956,87.816992 191.74291,87.953987 C 191.28626,88.090981 191.05594,86.757998 190.23017,86.870338 z " />
        <path
           id="path9393"
           style="fill:#000003;fill-opacity:1;fill-rule:evenodd;stroke:#313131;stroke-width:1;stroke-linecap:butt;stroke-linejoin:miter;stroke-miterlimit:4;stroke-dasharray:none;stroke-opacity:1"
           d="M 181.77454,65.398994 C 181.77454,65.398994 181.9905,64.789069 182.42244,64.408765 C 182.85438,64.02846 183.50229,63.877773 183.50229,63.877773 L 184.83133,65.284184 C 184.83133,65.284184 183.95084,65.126321 183.18664,65.155024 C 182.42244,65.183726 181.77454,65.398994 181.77454,65.398994 z " />
        <g
           id="g7624"
           transform="matrix(5.68276e-2,0,0,5.68276e-2,171.3556,50.64399)"
           style="fill:#000003;fill-opacity:1;stroke:#313131;stroke-width:17.59708405;stroke-linejoin:miter;stroke-miterlimit:4;stroke-dasharray:none;stroke-opacity:1">
          <path
             id="path3233"
             style="fill:#000003;fill-opacity:1;stroke:#313131;stroke-width:17.59708023;stroke-linejoin:miter;stroke-miterlimit:4;stroke-dasharray:none;stroke-opacity:1"
             transform="matrix(0.901059,-0.433697,0.433697,0.901059,-76.67558,128.6263)"
             d="M 251.60714,232.36218 C 251.60714,236.40361 248.00714,239.68361 243.57143,239.68361 C 239.13571,239.68361 234.44505,236.25366 235.53571,232.36218 C 236.31353,229.58694 237.94432,228.13363 241.36988,227.35015 C 245.69394,226.36118 251.60714,228.32075 251.60714,232.36218 z " />
          <path
             id="path5858"
             style="fill:#000003;fill-opacity:1;stroke:#313131;stroke-width:25.54421806;stroke-linejoin:miter;stroke-miterlimit:4;stroke-dasharray:none;stroke-opacity:1"
             transform="matrix(0.620728,-0.298768,0.298768,0.620728,22.81855,161.2569)"
             d="M 251.60714,232.36218 C 251.60714,236.40569 248.00943,239.68361 243.57143,239.68361 C 239.13342,239.68361 235.53571,236.40569 235.53571,232.36218 C 235.53571,228.31867 239.13342,225.04075 243.57143,225.04075 C 248.00943,225.04075 251.60714,228.31867 251.60714,232.36218 z " />
          <path
             id="path4108"
             style="fill:#000003;fill-opacity:1;stroke:#313131;stroke-width:116.16004181;stroke-linejoin:miter;stroke-miterlimit:4;stroke-dasharray:none;stroke-opacity:1"
             transform="matrix(0.15149,0,0,0.15149,203.6043,196.7665)"
             d="M 251.60714,232.36218 C 251.60714,236.40569 248.00943,239.68361 243.57143,239.68361 C 239.13342,239.68361 235.53571,236.40569 235.53571,232.36218 C 235.53571,228.31867 239.13342,225.04075 243.57143,225.04075 C 248.00943,225.04075 251.60714,228.31867 251.60714,232.36218 z " />
          <path
             id="path6733"
             style="fill:#000003;fill-opacity:1;stroke:#313131;stroke-width:84.10475159;stroke-linejoin:miter;stroke-miterlimit:4;stroke-dasharray:none;stroke-opacity:1"
             transform="matrix(0.184823,0,0,0.236856,198.9674,175.5914)"
             d="M 251.60714,232.36218 C 251.60714,236.40569 248.00943,239.68361 243.57143,239.68361 C 239.13342,239.68361 235.53571,236.40569 235.53571,232.36218 C 235.53571,228.31867 239.13342,225.04075 243.57143,225.04075 C 248.00943,225.04075 251.60714,228.31867 251.60714,232.36218 z " />
        </g>
        <path
           id="path10276"
           style="fill:#000003;fill-opacity:1;fill-rule:evenodd;stroke:#313131;stroke-width:1;stroke-linecap:butt;stroke-linejoin:miter;stroke-miterlimit:4;stroke-dasharray:none;stroke-opacity:1"
           d="M 185.104,65.212429 C 185.104,65.212429 185.29415,66.579374 184.80263,67.106778 C 184.3111,67.634183 183.74423,67.440443 183.13789,67.322046 C 182.53156,67.203649 182.39881,67.103191 182.37728,66.633191 C 182.35576,66.163192 182.59614,65.840291 183.05179,65.442047 C 183.50744,65.043803 183.68682,65.097619 184.19988,65.040215 C 184.71293,64.98281 185.104,65.212429 185.104,65.212429 z " />
        <path
           id="path2358"
           style="fill:#000003;fill-opacity:1;fill-rule:evenodd;stroke:#313131;stroke-width:1;stroke-linecap:butt;stroke-linejoin:miter;stroke-miterlimit:4;stroke-dasharray:none;stroke-opacity:1"
           d="M 183.50291,64.086393 C 183.09192,64.111763 182.48813,64.532896 182.20399,64.045802 C 181.91986,63.558709 182.36636,62.138018 182.36636,62.138018 L 182.81286,62.36127 C 182.81286,62.36127 182.61498,62.026393 182.56931,61.732106 C 182.52365,61.437821 182.6302,61.184127 182.6302,61.184127 C 182.6302,61.184127 182.7672,61.549447 182.93463,61.752403 C 183.10207,61.955359 183.32025,62.097426 183.29995,61.995948 C 183.27966,61.894472 183.10207,61.442894 183.05641,61.001466 C 183.01074,60.560037 183.11729,60.230234 183.11729,60.230234 C 183.11729,60.230234 183.30503,60.697032 183.52321,61.021762 C 183.74138,61.346491 183.99,61.52915 183.99,61.52915 L 183.96971,59.479298 C 183.96971,59.479298 184.13207,60.098313 184.31473,60.494076 C 184.49739,60.889841 184.70035,61.062352 184.70035,61.062352 L 184.90331,59.053092 C 184.90331,59.053092 185.10626,59.702549 185.22803,60.149053 C 185.34981,60.595554 185.3904,60.839101 185.3904,60.839101 C 185.3904,60.839101 185.61365,60.504224 185.71513,60.088166 C 185.81661,59.672106 185.79631,59.174864 185.79631,59.174864 C 185.79631,59.174864 185.9333,59.687328 185.99926,60.027278 C 186.06523,60.36723 186.06015,60.534668 186.06015,60.534668 C 186.06015,60.534668 186.36966,60.478856 186.54725,60.331712 C 186.72483,60.184569 186.7705,59.946097 186.7705,59.946097 C 186.7705,59.946097 186.71976,60.275899 186.79079,60.433189 C 186.86183,60.590481 187.05464,60.575259 187.05464,60.575259 C 187.05464,60.575259 187.03941,61.194273 186.70961,61.630628 C 186.37981,62.066983 185.73542,62.320679 185.73542,62.320679 C 185.73542,62.320679 185.53754,62.082205 185.14685,62.320679 C 184.75616,62.559151 184.49739,62.868658 184.17267,63.27457 C 183.84794,63.680481 183.84793,63.944324 183.84793,63.944324 C 183.84793,63.944324 183.9139,64.061023 183.50291,64.086393 z " />
      </g>
      <path
         sodipodi:nodetypes="cccccccc"
         id="path6680"
         d="M 228.88847,328.08715 L 318.8085,328.08715 L 263.21276,432.14155 L 276.84433,432.14155 L 276.84433,521.20121 L 189.19623,521.20121 L 189.19623,432.14155 L 228.88847,328.08715 z "
         style="fill:#d576ad;fill-opacity:1;fill-rule:evenodd;stroke:black;stroke-width:3;stroke-linecap:butt;stroke-linejoin:bevel;stroke-miterlimit:4;stroke-dasharray:none;stroke-opacity:1" />
      <path
         sodipodi:nodetypes="cccccccc"
         id="path3968"
         d="M 149.63881,328.08715 L 82.389671,328.08715 L 137.98542,432.14155 L 124.35384,432.14155 L 124.35384,521.20121 L 189.33106,521.20121 L 189.33106,432.14155 L 149.63881,328.08715 z "
         style="fill:white;fill-opacity:1;fill-rule:evenodd;stroke:black;stroke-width:3;stroke-linecap:butt;stroke-linejoin:bevel;stroke-miterlimit:4;stroke-dasharray:none;stroke-opacity:1" />
      <path
         sodipodi:nodetypes="cccccccc"
         id="path6692"
         d="M 356.6256,521.26887 L 357.07999,432.0567 L 371.97002,432.0567 L 318.68156,328.3963 L 263.26055,432.0567 L 276.86657,432.0567 L 276.86657,521.26887 L 356.6256,521.26887 z "
         style="fill:white;fill-opacity:1;fill-rule:evenodd;stroke:black;stroke-width:3;stroke-linecap:butt;stroke-linejoin:miter;stroke-miterlimit:4;stroke-dasharray:none;stroke-opacity:1;display:inline" />
      <g
         id="g2877">
        <path
           sodipodi:nodetypes="cccccc"
           style="fill:#d576ad;fill-opacity:1;fill-rule:evenodd;stroke:black;stroke-width:3;stroke-linecap:butt;stroke-linejoin:miter;stroke-miterlimit:4;stroke-dasharray:none;stroke-opacity:1;display:inline"
           d="M 189.34334,99.91768 L 140.13443,265.55972 L 149.7739,265.55972 L 149.7739,328.5733 L 189.34334,431.87035 L 189.34334,99.91768 z "
           id="path12664" />
        <path
           style="fill:white;fill-rule:evenodd;stroke:black;stroke-width:3;stroke-linecap:butt;stroke-linejoin:miter;stroke-miterlimit:4;stroke-dasharray:none;stroke-opacity:1;display:inline"
           d="M 189.18244,431.8987 L 228.75738,328.55055 L 228.75738,265.57585 L 238.39637,265.57585 L 189.18244,99.944193 L 189.18244,431.8987 z "
           id="path6686"
           sodipodi:nodetypes="cccccc" />
      </g>
      <path
         sodipodi:nodetypes="ccccc"
         id="path6688"
         d="M 212.34303,323.01047 L 204.70741,323.01047 L 204.70741,280.27645 L 212.34303,280.27645 L 212.34303,323.01047 z "
         style="fill:#d576ad;fill-opacity:1;fill-rule:evenodd;stroke:black;stroke-width:3;stroke-linecap:butt;stroke-linejoin:miter;stroke-miterlimit:4;stroke-dasharray:none;stroke-opacity:1" />
      <path
         sodipodi:nodetypes="cc"
         id="path10880"
         d="M 149.17086,265.60447 L 229.09735,265.60447"
         style="fill:none;fill-rule:evenodd;stroke:black;stroke-width:3;stroke-linecap:butt;stroke-linejoin:miter;stroke-miterlimit:4;stroke-dasharray:none;stroke-opacity:1" />
      <path
         sodipodi:nodetypes="cc"
         id="path11768"
         d="M 134.70301,432.17643 L 264.13592,432.17643"
         style="fill:none;fill-rule:evenodd;stroke:black;stroke-width:3;stroke-linecap:butt;stroke-linejoin:miter;stroke-miterlimit:4;stroke-dasharray:none;stroke-opacity:1" />
      <path
         sodipodi:nodetypes="cc"
         id="path2881"
         d="M 84.04074,455.28144 L 84.04074,521.39687"
         style="fill:none;fill-rule:evenodd;stroke:black;stroke-width:3;stroke-linecap:butt;stroke-linejoin:miter;stroke-miterlimit:4;stroke-dasharray:none;stroke-opacity:1" />
      <path
         id="path3769"
         d="M 105.10611,456.47243 L 62.334224,456.804"
         style="fill:none;fill-rule:evenodd;stroke:black;stroke-width:3;stroke-linecap:butt;stroke-linejoin:miter;stroke-miterlimit:4;stroke-dasharray:none;stroke-opacity:1" />
      <g
         transform="translate(-1.979953,0)"
         id="g5874">
        <path
           sodipodi:type="arc"
           style="opacity:1;fill:#d576ad;fill-opacity:1;stroke:black;stroke-width:1.28423643;stroke-linejoin:round;stroke-miterlimit:4;stroke-dasharray:none;stroke-opacity:1"
           id="path3773"
           sodipodi:cx="392.02679"
           sodipodi:cy="246.52982"
           sodipodi:rx="6.4235716"
           sodipodi:ry="6.7069645"
           d="M 398.45037 246.52982 A 6.4235716 6.7069645 0 1 1  385.60322,246.52982 A 6.4235716 6.7069645 0 1 1  398.45037 246.52982 z"
           transform="matrix(2.38699,0,0,2.286137,-616.1688,-157.5212)" />
        <rect
           style="opacity:1;fill:#d576ad;fill-opacity:1;stroke:black;stroke-width:3.00000143;stroke-miterlimit:4;stroke-dasharray:none;stroke-opacity:1"
           id="rect5872"
           width="27.012041"
           height="58.674519"
           x="-333.10129"
           y="462.5705"
           transform="scale(-1,1)" />
      </g>
      <path
         sodipodi:nodetypes="ccccc"
         id="path5950"
         d="M 173.91067,323.01047 L 166.27505,323.01047 L 166.27505,280.27645 L 173.91067,280.27645 L 173.91067,323.01047 z "
         style="opacity:1;fill:white;fill-opacity:1;fill-rule:evenodd;stroke:black;stroke-width:3;stroke-linecap:butt;stroke-linejoin:miter;stroke-miterlimit:4;stroke-dasharray:none;stroke-opacity:1" />
    </g>
    <path
       sodipodi:type="star"
       style="fill:white;fill-opacity:1;stroke-width:3;stroke-linejoin:round;stroke-miterlimit:4;stroke-dasharray:none"
       id="path6839"
       sodipodi:sides="5"
       sodipodi:cx="-266.57828"
       sodipodi:cy="137.53311"
       sodipodi:r1="12.582008"
       sodipodi:r2="6.2910042"
       sodipodi:arg1="1.2490458"
       sodipodi:arg2="1.8773643"
       inkscape:flatsided="false"
       inkscape:rounded="0"
       inkscape:randomized="0"
       d="M -262.5995,149.46945 L -268.47683,143.5308 L -276.7009,145.00569 L -272.8691,137.58087 L -276.81318,130.21508 L -268.56767,131.56494 L -262.78117,125.53774 L -261.51697,133.79682 L -253.99663,137.4376 L -261.46082,141.19213 L -262.5995,149.46945 z " />
  </g>
</svg>
