<?xml version="1.0" encoding="UTF-8" standalone="no"?>
<!-- Created with Inkscape (http://www.inkscape.org/) -->
<svg
   xmlns:dc="http://purl.org/dc/elements/1.1/"
   xmlns:cc="http://web.resource.org/cc/"
   xmlns:rdf="http://www.w3.org/1999/02/22-rdf-syntax-ns#"
   xmlns:svg="http://www.w3.org/2000/svg"
   xmlns="http://www.w3.org/2000/svg"
   xmlns:sodipodi="http://sodipodi.sourceforge.net/DTD/sodipodi-0.dtd"
   xmlns:inkscape="http://www.inkscape.org/namespaces/inkscape"
   id="svg1938"
   sodipodi:version="0.32"
   inkscape:version="0.44"
   width="316.34192"
   height="191.67447"
   version="1.0"
   sodipodi:docbase="C:\Documents and Settings\Elembis\My Documents\Images\Shartak\Shartak.com"
   sodipodi:docname="hut.svg"
   inkscape:export-filename="C:\Documents and Settings\Elembis\My Documents\Images\Shartak\Shartak.com\hut.png"
   inkscape:export-xdpi="45.520367"
   inkscape:export-ydpi="45.520367">
  <metadata
     id="metadata1943">
    <rdf:RDF>
      <cc:Work
         rdf:about="">
        <dc:format>image/svg+xml</dc:format>
        <dc:type
           rdf:resource="http://purl.org/dc/dcmitype/StillImage" />
      </cc:Work>
    </rdf:RDF>
  </metadata>
  <defs
     id="defs1941" />
  <sodipodi:namedview
     inkscape:window-height="721"
     inkscape:window-width="1024"
     inkscape:pageshadow="2"
     inkscape:pageopacity="0.0"
     guidetolerance="10.0"
     gridtolerance="10.0"
     objecttolerance="10.0"
     borderopacity="1.0"
     bordercolor="#666666"
     pagecolor="#ffffff"
     id="base"
     inkscape:zoom="1"
     inkscape:cx="161.42979"
     inkscape:cy="124.76657"
     inkscape:window-x="-4"
     inkscape:window-y="-4"
     inkscape:current-layer="svg1938"
     showguides="true"
     inkscape:guide-bbox="true" />
  <path
     style="fill:#c9b08c;fill-opacity:1;fill-rule:evenodd;stroke:none;stroke-width:1px;stroke-linecap:butt;stroke-linejoin:miter;stroke-opacity:1"
     d="M 28.674751,64.536619 L 27.989946,180.64231 C 27.989946,180.64231 173.00555,205.26908 289.1813,180.93399 L 285.5715,56.982501 L 28.674751,64.536619 z "
     id="path1947"
     sodipodi:nodetypes="ccccc"
     inkscape:export-filename="C:\Documents and Settings\Elembis\My Documents\Images\Shartak\Shartak.com\hut.png"
     inkscape:export-xdpi="45.376995"
     inkscape:export-ydpi="45.376995" />
  <path
     style="opacity:0.3;fill:black;fill-opacity:1;fill-rule:evenodd;stroke:none;stroke-width:1px;stroke-linecap:butt;stroke-linejoin:miter;stroke-opacity:1"
     d="M 285.56349,56.982721 L 29.43849,64.513971 L 29.50099,65.170221 C 56.50099,75.170221 199.3721,72.843821 242.50099,83.170221 C 279.75957,92.091081 284.71187,163.16735 285.37599,181.70147 C 286.64789,181.44795 287.9232,181.18526 289.18849,180.92022 L 285.56349,56.982721 z "
     id="path18005"
     inkscape:export-filename="C:\Documents and Settings\Elembis\My Documents\Images\Shartak\Shartak.com\hut.png"
     inkscape:export-xdpi="45.376995"
     inkscape:export-ydpi="45.376995" />
  <path
     style="fill:#c9b08c;fill-opacity:1;fill-rule:evenodd;stroke:none;stroke-width:1px;stroke-linecap:butt;stroke-linejoin:miter;stroke-opacity:1"
     d="M 118.61689,7.8363196 C 118.61689,7.8363196 159.64245,-11.108441 214.61412,9.965622 C 269.58579,31.039685 283.47001,39.766124 304.56017,50.086811 C 324.44521,59.817764 320.05241,67.107694 284.53729,67.059858 C 250.02217,67.013369 29.537497,66.716395 29.537497,66.716395 C 29.537497,66.716395 -24.461111,65.643662 13.564449,46.694861 L 118.61689,7.8363196 z "
     id="path1949"
     sodipodi:nodetypes="cszzccc" />
  <path
     style="opacity:0.4;fill:white;fill-opacity:1;fill-rule:evenodd;stroke:none;stroke-width:1px;stroke-linecap:butt;stroke-linejoin:miter;stroke-opacity:1"
     d="M 160.09572,0.01718058 C 134.65571,0.42236572 118.61641,7.8363194 118.61641,7.8363194 L 13.563959,46.69486 C -24.461601,65.643662 29.537008,66.716394 29.537008,66.716394 C 29.537008,66.716394 83.858002,66.78956 123.22443,66.842584 L 231.01128,16.362713 C 225.95669,14.350814 220.57221,12.249919 214.61363,9.965621 C 193.99926,2.0628481 175.35974,-0.22593002 160.09572,0.01718058 z "
     id="path5505" />
  <path
     style="opacity:0;fill:black;fill-opacity:1;fill-rule:evenodd;stroke:none;stroke-width:1px;stroke-linecap:butt;stroke-linejoin:miter;stroke-opacity:1"
     d="M 159.65814,103.695 C 129.68301,105.98814 136.94061,179.30295 138.2966,191.04939 C 153.65407,191.61853 169.89815,191.83719 186.56566,191.50553 C 185.95414,185.02339 195.15948,103.88174 161.21956,103.63693 C 160.68038,103.63304 160.17489,103.65547 159.65814,103.695 z "
     id="path8173"
     inkscape:export-filename="C:\Documents and Settings\Elembis\My Documents\Images\Shartak\Shartak.com\hut.png"
     inkscape:export-xdpi="45.376995"
     inkscape:export-ydpi="45.376995" />
  <path
     style="opacity:0;fill:black;fill-opacity:1;fill-rule:evenodd;stroke:none;stroke-width:1px;stroke-linecap:butt;stroke-linejoin:miter;stroke-opacity:1"
     d="M 163.15697,101.51372 C 162.29634,101.5197 161.45261,101.55469 160.62572,101.60747 C 118.51918,104.29498 119.71173,166.4841 121.71947,190.29497 C 126.68092,190.56559 131.78164,190.78418 136.96947,190.98247 C 133.65777,166.72954 130.38667,103.29561 188.96947,112.88872 C 182.78094,105.84195 174.41558,101.43548 163.15697,101.51372 z "
     id="path18900"
     inkscape:export-filename="C:\Documents and Settings\Elembis\My Documents\Images\Shartak\Shartak.com\hut.png"
     inkscape:export-xdpi="45.376995"
     inkscape:export-ydpi="45.376995" />
  <path
     style="fill:black;fill-opacity:0.6;fill-rule:evenodd;stroke:none;stroke-width:1px;stroke-linecap:butt;stroke-linejoin:miter;stroke-opacity:1"
     d="M 160.62668,101.61984 C 118.52014,104.30735 119.70021,166.47311 121.70795,190.28398 C 147.23475,191.67635 176.00076,192.21166 205.50591,190.85709 C 206.83129,160.60702 204.26548,101.24006 163.15618,101.52575 C 162.29555,101.53173 161.45357,101.56706 160.62668,101.61984 z "
     id="path14397"
     inkscape:export-filename="C:\Documents and Settings\Elembis\My Documents\Images\Shartak\Shartak.com\hut.png"
     inkscape:export-xdpi="45.376995"
     inkscape:export-ydpi="45.376995" />
  <path
     style="opacity:0.2;fill:black;fill-opacity:1;fill-rule:evenodd;stroke:none;stroke-width:1px;stroke-linecap:butt;stroke-linejoin:miter;stroke-opacity:1"
     d="M 163.15697,101.51343 C 162.29634,101.51941 161.45261,101.5544 160.62572,101.60718 C 118.51918,104.29469 119.71173,166.48381 121.71947,190.29468 C 124.91032,190.46873 128.15103,190.61818 131.43822,190.76343 C 141.2998,191.19917 151.57285,191.50327 162.12572,191.60718 C 176.19622,191.74573 190.74815,191.53447 205.50072,190.85718 C 205.58356,188.96655 205.64424,186.95361 205.68822,184.85718 C 205.7019,184.20514 205.71062,183.49513 205.71947,182.82593 C 205.73908,181.3644 205.75821,179.85891 205.75072,178.32593 C 205.74363,176.87469 205.72451,175.39163 205.68822,173.88843 C 193.98068,173.51562 182.4882,173.35016 171.34447,173.32593 C 153.50311,173.28713 151.56466,173.62311 135.93822,174.20093 C 135.93822,174.20093 128.04938,104.03589 189.03197,112.98218 C 182.83619,105.88604 174.46055,101.43488 163.15697,101.51343 z "
     id="path24262"
     inkscape:export-xdpi="45.376995"
     inkscape:export-ydpi="45.376995"
     inkscape:export-filename="C:\Documents and Settings\Elembis\My Documents\Images\Shartak\Shartak.com\hut.png" />
  <path
     style="opacity:0.4;fill:white;fill-opacity:1;fill-rule:evenodd;stroke:none;stroke-width:1px;stroke-linecap:butt;stroke-linejoin:miter;stroke-opacity:1"
     d="M 28.81299,65.013974 L 28.18799,65.045224 L 27.50049,181.13897 C 27.50049,181.13897 56.6087,186.05781 99.15674,189.32647 C 46.50982,168.80355 39.08441,161.13048 28.81299,65.013974 z "
     id="path28704" />
</svg>
