<?xml version="1.0" encoding="UTF-8" standalone="no"?>
<!-- Created with Inkscape (http://www.inkscape.org/) -->
<svg xmlns:dc="http://purl.org/dc/elements/1.1/" xmlns:cc="http://creativecommons.org/ns#" xmlns:rdf="http://www.w3.org/1999/02/22-rdf-syntax-ns#" xmlns:svg="http://www.w3.org/2000/svg" xmlns="http://www.w3.org/2000/svg" xmlns:xlink="http://www.w3.org/1999/xlink" xmlns:sodipodi="http://sodipodi.sourceforge.net/DTD/sodipodi-0.dtd" xmlns:inkscape="http://www.inkscape.org/namespaces/inkscape" sodipodi:docbase="/datas/Projs/Cliparts Stocker" inkscape:export-ydpi="72.000000" inkscape:export-xdpi="72.000000" inkscape:export-filename="i:\red_flower.png" sodipodi:docname="red_flower.svg" height="284" width="164" inkscape:version="0.46" sodipodi:version="0.32" id="svg4217" inkscape:output_extension="org.inkscape.output.svg.inkscape" version="1.0">
  <defs id="defs4219">
    <linearGradient id="linearGradient19932">
      <stop id="stop19933" offset="0.00000000" style="stop-color: rgb(18, 118, 30); stop-opacity: 1;"/>
      <stop id="stop19934" offset="1.0000000" style="stop-color: rgb(47, 87, 18); stop-opacity: 1;"/>
    </linearGradient>
    <linearGradient id="linearGradient9173">
      <stop id="stop9174" offset="0.00000000" style="stop-color: rgb(92, 10, 0); stop-opacity: 1;"/>
      <stop id="stop9175" offset="1.0000000" style="stop-color: rgb(145, 68, 18); stop-opacity: 0;"/>
    </linearGradient>
    <radialGradient fy="1502.953" fx="109.8041" r="71.718405" cy="1502.953" cx="109.8041" id="radialGradient15564" xlink:href="#linearGradient9173" inkscape:collect="always" gradientTransform="scale(3.4297, 0.291571)" gradientUnits="userSpaceOnUse"/>
    <linearGradient inkscape:collect="always" xlink:href="#linearGradient19932" id="linearGradient2438" gradientUnits="userSpaceOnUse" gradientTransform="matrix(0.564319, 0, 0, 1.77205, -265.157, -190.517)" x1="609.06337" y1="215.58102" x2="609.06337" y2="264.19566"/>
    <linearGradient inkscape:collect="always" xlink:href="#linearGradient19932" id="linearGradient2441" gradientUnits="userSpaceOnUse" gradientTransform="matrix(0.605657, 0, 0, 1.6511, -265.157, -190.517)" x1="570.50461" y1="230.32202" x2="570.50461" y2="278.93666"/>
    <linearGradient inkscape:collect="always" xlink:href="#linearGradient19932" id="linearGradient2444" gradientUnits="userSpaceOnUse" gradientTransform="matrix(0.462487, 0, 0, 2.16223, -265.157, -190.517)" x1="773.45211" y1="131.00178" x2="773.45211" y2="188.99572"/>
    <linearGradient inkscape:collect="always" xlink:href="#linearGradient19932" id="linearGradient2447" gradientUnits="userSpaceOnUse" gradientTransform="matrix(0.762026, 0, 0, 1.31229, -265.157, -190.517)" x1="465.05087" y1="291.87481" x2="465.05087" y2="340.48946"/>
    <linearGradient inkscape:collect="always" xlink:href="#linearGradient19932" id="linearGradient3286" gradientUnits="userSpaceOnUse" gradientTransform="matrix(0.462487, 0, 0, 2.16223, -265.157, -190.517)" x1="773.45211" y1="131.00178" x2="773.45211" y2="188.99572"/>
    <radialGradient inkscape:collect="always" xlink:href="#linearGradient9173" id="radialGradient3291" gradientUnits="userSpaceOnUse" gradientTransform="matrix(2.58261, 0, 0, 0.291571, -193.053, -172.407)" cx="109.8041" cy="1502.953" fx="109.8041" fy="1502.953" r="71.718405"/>
    <linearGradient inkscape:collect="always" xlink:href="#linearGradient19932" id="linearGradient3301" gradientUnits="userSpaceOnUse" gradientTransform="matrix(0.605657, 0, 0, 1.6511, -265.213, -190.52)" x1="570.50461" y1="230.32202" x2="570.50461" y2="278.93666"/>
    <linearGradient inkscape:collect="always" xlink:href="#linearGradient19932" id="linearGradient3311" gradientUnits="userSpaceOnUse" gradientTransform="matrix(0.762026, 0, 0, 1.31229, -265.151, -190.457)" x1="465.05087" y1="291.87481" x2="465.05087" y2="340.48946"/>
    <linearGradient inkscape:collect="always" xlink:href="#linearGradient19932" id="linearGradient3313" gradientUnits="userSpaceOnUse" gradientTransform="matrix(0.564319, 0, 0, 1.77205, -265.151, -190.457)" x1="609.06337" y1="215.58102" x2="609.06337" y2="264.19566"/>
  </defs>
  <sodipodi:namedview inkscape:current-layer="svg4217" showguides="false" inkscape:window-y="-4" inkscape:window-x="-4" inkscape:guide-points="true" inkscape:guide-bbox="true" gridhicolor="0.18431373" gridtolerance="1.0000000px" inkscape:grid-points="true" inkscape:grid-bbox="true" showgrid="false" inkscape:window-height="853" inkscape:window-width="1440" inkscape:cy="142" inkscape:cx="82" inkscape:zoom="2.2535211" inkscape:pageshadow="2" inkscape:pageopacity="0.0" borderopacity="1.0" bordercolor="#666666" pagecolor="#ffffff" id="base">
    <inkscape:grid id="GridFromPre046Settings" type="xygrid" originx="0px" originy="0.00000000pt" spacingx="1.0000000pt" spacingy="1.0000000pt" color="#3f3fff" empcolor="#0000ff" opacity="0.2" empopacity="0.4" empspacing="5" units="pt" visible="true" enabled="true"/>
  </sodipodi:namedview>
  <metadata id="metadata4220">
    <rdf:RDF>
      <cc:Work rdf:about="">
        <dc:format>image/svg+xml</dc:format>
        <dc:type rdf:resource="http://purl.org/dc/dcmitype/StillImage"/>
        <dc:title>Red Flower</dc:title>
        <dc:date>2004-08-04</dc:date>
        <dc:creator>
          <cc:Agent>
            <dc:title>Jean-Victor Balin</dc:title>
          </cc:Agent>
        </dc:creator>
        <dc:rights>
          <cc:Agent>
            <dc:title/>
          </cc:Agent>
        </dc:rights>
        <dc:source/>
        <cc:license rdf:resource="http://creativecommons.org/licenses/publicdomain/"/>
        <dc:language>fr-FR</dc:language>
        <dc:subject>
          <rdf:Bag>
            <rdf:li>garden</rdf:li>
            <rdf:li>flower</rdf:li>
          </rdf:Bag>
        </dc:subject>
        <dc:description>jean.victor.balin@gmail.com</dc:description>
      </cc:Work>
      <cc:License rdf:about="http://creativecommons.org/licenses/publicdomain/">
        <cc:permits rdf:resource="http://creativecommons.org/ns#Reproduction"/>
        <cc:permits rdf:resource="http://creativecommons.org/ns#Distribution"/>
        <cc:permits rdf:resource="http://creativecommons.org/ns#DerivativeWorks"/>
      </cc:License>
    </rdf:RDF>
  </metadata>
  <g id="g3323" transform="translate(0.0119892, -0.0341291)">
    <path sodipodi:nodetypes="cccccc" id="path3307" d="M 52.403489,224.80681 C 60.047069,243.28121 71.035559,258.16272 84.101469,270.39877 C 84.101469,270.39877 85.615059,271.86621 86.205619,272.38749 L 81.674989,260.36373 C 71.984229,237.50449 58.794489,223.82172 46.289539,203.37277 C 46.289539,203.37277 49.781339,218.41972 52.403489,224.80681 z" style="fill: url(#linearGradient3311) rgb(0, 0, 0); fill-opacity: 1; fill-rule: evenodd; stroke: none; stroke-width: 0.380639; stroke-linecap: round; stroke-linejoin: round; stroke-miterlimit: 4; stroke-opacity: 1;"/>
    <path id="path17432" d="M 46.21875,203.125 C 46.207155,203.13417 46.196668,203.14466 46.1875,203.15625 C 46.162051,203.17189 46.14064,203.1933 46.125,203.21875 C 46.113405,203.22792 46.102918,203.23841 46.09375,203.25 C 46.092893,203.2604 46.092893,203.27085 46.09375,203.28125 C 46.090306,203.30194 46.090306,203.32306 46.09375,203.34375 C 46.09375,203.34375 46.124891,203.40578 46.125,203.40625 C 46.152455,203.52465 49.589729,218.40867 52.21875,224.8125 C 59.873162,243.31308 70.885504,258.21646 83.96875,270.46875 C 83.96875,270.46875 85.460044,271.93697 86.0625,272.46875 C 86.081226,272.48293 86.102417,272.49353 86.125,272.5 C 86.143726,272.51418 86.164917,272.52478 86.1875,272.53125 C 86.220956,272.52927 86.253296,272.51849 86.28125,272.5 C 86.306699,272.48436 86.32811,272.46295 86.34375,272.4375 C 86.355345,272.42833 86.365832,272.41784 86.375,272.40625 C 86.375857,272.39585 86.375857,272.3854 86.375,272.375 C 86.378444,272.35431 86.378444,272.33319 86.375,272.3125 C 86.375857,272.3021 86.375857,272.29165 86.375,272.28125 C 86.375857,272.27085 86.375857,272.2604 86.375,272.25 L 81.84375,260.25 C 81.844607,260.2396 81.844607,260.22915 81.84375,260.21875 C 72.149236,237.35067 58.951123,223.67735 46.46875,203.28125 C 46.456108,203.26059 46.45014,203.23942 46.4375,203.21875 C 46.438357,203.20835 46.438357,203.1979 46.4375,203.1875 C 46.428332,203.17591 46.417845,203.16542 46.40625,203.15625 C 46.378296,203.13776 46.345956,203.12698 46.3125,203.125 C 46.302101,203.12414 46.291649,203.12414 46.28125,203.125 C 46.260559,203.12156 46.239441,203.12156 46.21875,203.125 z M 46.71875,204.3125 C 59.057177,224.25002 71.975464,237.90788 81.5,260.375 L 85.75,271.65625 C 85.086399,271.03287 84.21875,270.1875 84.21875,270.1875 C 71.170176,257.96769 60.195249,243.13572 52.5625,224.6875 C 50.11905,218.73569 47.109677,205.97718 46.71875,204.3125 z" style="fill: rgb(0, 0, 0); fill-opacity: 1; fill-rule: evenodd; stroke: none; stroke-width: 0.380639; stroke-linecap: round; stroke-linejoin: round; stroke-miterlimit: 4; stroke-opacity: 1;"/>
    <path id="path9159" d="M 69.78125,74.625 C 68.743604,74.713709 67.850595,75.393863 67.489327,76.370624 C 67.128059,77.347386 67.363562,78.444934 68.09375,79.1875 C 92.520067,104.51985 103.72461,140.30878 104.75,175.25 C 105.37527,198.7504 102.68205,222.68463 92.875,243.9375 L 92.875,243.96875 C 88.726248,253.34671 83.601991,262.30201 77.8125,270.8125 C 77.243115,271.60468 77.147683,272.64318 77.56316,273.52586 C 77.978636,274.40854 78.83978,274.99678 79.813116,275.0628 C 80.786452,275.12882 81.71914,274.66224 82.25,273.84375 C 88.197849,265.10048 93.4835,255.87101 97.78125,246.15625 C 108.07406,223.8507 110.76365,199.09691 110.125,175.09375 C 109.06919,139.11611 97.577457,102.02735 71.96875,75.46875 C 71.407148,74.86753 70.601122,74.556634 69.78125,74.625 z" style="fill: url(#linearGradient3286) rgb(0, 0, 0); fill-opacity: 1; fill-rule: evenodd; stroke: none; stroke-width: 5.375; stroke-linecap: round; stroke-linejoin: miter; stroke-miterlimit: 4; stroke-opacity: 1;"/>
    <path sodipodi:nodetypes="ccccc" d="M 121.03703,148.88655 C 133.4893,192.81716 127.74023,249.73194 82.144737,271.56658 M 82.144737,271.56658 C 109.69877,237.03987 116.05717,207.70715 120.22036,166.50821 L 121.03703,148.88655" style="fill: url(#linearGradient3301) rgb(0, 0, 0); fill-opacity: 1; fill-rule: evenodd; stroke: none; stroke-width: 0.624999; stroke-linecap: round; stroke-linejoin: round; stroke-miterlimit: 4; stroke-opacity: 1;" id="path3299"/>
    <path id="path9178" d="M 121.03125,148.5625 C 121.02011,148.57217 121.00967,148.58261 121,148.59375 C 120.98959,148.59323 120.97916,148.59323 120.96875,148.59375 C 120.95761,148.60342 120.94717,148.61386 120.9375,148.625 C 120.92709,148.62448 120.91666,148.62448 120.90625,148.625 C 120.87991,148.65221 120.85873,148.68397 120.84375,148.71875 C 120.83261,148.72842 120.82217,148.73886 120.8125,148.75 C 120.79978,148.7696 120.7893,148.79056 120.78125,148.8125 C 120.76802,148.86374 120.76802,148.91751 120.78125,148.96875 L 119.96875,166.46875 L 119.96875,166.5 C 115.81154,207.62249 109.49776,236.85921 82.0625,271.28125 C 82.048969,271.29823 82.013541,271.29552 82,271.3125 C 81.999479,271.32291 81.999479,271.33334 82,271.34375 C 81.990485,271.35568 81.97827,271.36307 81.96875,271.375 C 81.95834,271.37448 81.94791,271.37448 81.9375,271.375 C 81.936979,271.38541 81.936979,271.39584 81.9375,271.40625 C 81.922177,271.43564 81.911629,271.46729 81.90625,271.5 C 81.890927,271.52939 81.880379,271.56104 81.875,271.59375 C 81.874479,271.60416 81.874479,271.61459 81.875,271.625 C 81.884666,271.63614 81.895109,271.64658 81.90625,271.65625 C 81.904162,271.67703 81.904162,271.69797 81.90625,271.71875 C 81.91666,271.71927 81.92709,271.71927 81.9375,271.71875 C 81.936979,271.72916 81.936979,271.73959 81.9375,271.75 C 81.964706,271.77634 81.996472,271.79752 82.03125,271.8125 C 82.067665,271.8425 82.1104,271.86387 82.15625,271.875 C 82.177031,271.87709 82.197969,271.87709 82.21875,271.875 C 82.249822,271.87971 82.281428,271.87971 82.3125,271.875 C 82.323641,271.86533 82.334084,271.85489 82.34375,271.84375 C 82.365256,271.83345 82.384762,271.82281 82.40625,271.8125 C 82.417391,271.80283 82.427834,271.79239 82.4375,271.78125 C 105.26129,260.81041 118.13029,241.07644 123.71875,218.59375 C 129.31075,196.0968 127.63201,170.87287 121.40625,148.875 C 121.40834,148.85422 121.40834,148.83328 121.40625,148.8125 C 121.38609,148.76357 121.35383,148.72056 121.3125,148.6875 C 121.30283,148.67636 121.29239,148.66592 121.28125,148.65625 C 121.25404,148.62991 121.22228,148.60873 121.1875,148.59375 C 121.1679,148.58103 121.14694,148.57055 121.125,148.5625 C 121.11459,148.56198 121.10416,148.56198 121.09375,148.5625 C 121.07297,148.56041 121.05203,148.56041 121.03125,148.5625 z M 121.3125,151.03125 C 127.06027,172.46325 128.51701,196.74515 123.125,218.4375 C 117.66714,240.3948 105.18859,259.60377 83.28125,270.59375 C 110.09169,236.52112 116.47588,207.28167 120.59375,166.53125 L 121.3125,151.03125 z" style="fill: rgb(0, 0, 0); fill-opacity: 1; fill-rule: evenodd; stroke: none; stroke-width: 0.624999; stroke-linecap: round; stroke-linejoin: round; stroke-miterlimit: 4; stroke-opacity: 1;"/>
    <path sodipodi:nodetypes="cccccc" id="path3309" d="M 54.849219,200.32499 C 59.427029,230.46001 71.390009,256.6425 88.130469,279.76249 C 88.130469,279.76249 90.046699,282.51412 90.817969,283.51249 L 88.599219,264.07499 C 82.535809,226.6955 66.249969,201.40316 54.255469,166.44999 C 54.255469,166.44999 53.301559,189.91459 54.849219,200.32499 z" style="fill: url(#linearGradient3313) rgb(0, 0, 0); fill-opacity: 1; fill-rule: evenodd; stroke: none; stroke-width: 0.624999; stroke-linecap: round; stroke-linejoin: round; stroke-miterlimit: 4; stroke-opacity: 1;"/>
    <path id="path9179" d="M 54.21875,166.0625 C 54.107909,166.07586 54.012612,166.14733 53.96875,166.25 C 53.949764,166.28904 53.939121,166.33162 53.9375,166.375 C 53.9375,166.375 52.9708,189.81607 54.53125,200.3125 C 59.117163,230.50086 71.110288,256.72152 87.875,279.875 C 87.875,279.875 89.774493,282.63622 90.5625,283.65625 C 90.647237,283.78202 90.81004,283.82881 90.948626,283.76722 C 91.087211,283.70563 91.161576,283.55343 91.125,283.40625 L 88.90625,263.96875 C 82.839438,226.56827 66.539847,201.25706 54.5625,166.40625 C 54.548306,166.36495 54.545432,166.32258 54.53125,166.28125 C 54.48882,166.14585 54.360497,166.05602 54.21875,166.0625 z M 54.53125,168.03125 C 66.481188,202.21072 82.31976,227.3113 88.28125,264.0625 L 90.375,282.28125 C 89.520759,281.09854 88.375,279.53125 88.375,279.53125 C 71.658792,256.44475 59.725954,230.30041 55.15625,200.21875 C 53.717074,190.53807 54.433325,170.64431 54.53125,168.03125 z" style="fill: rgb(0, 0, 0); fill-opacity: 1; fill-rule: evenodd; stroke: none; stroke-width: 0.624999; stroke-linecap: round; stroke-linejoin: round; stroke-miterlimit: 4; stroke-opacity: 1;"/>
    <path transform="matrix(0.753012, 0, 0, 1, -193.545, -172.392)" sodipodi:end="6.2831853" sodipodi:start="3.1415927" d="M 267.5,455.96948 A 103.125,16.875 0 0 1 473.75,455.96948 L 370.625,455.96948 z" sodipodi:ry="16.875" sodipodi:rx="103.125" sodipodi:cy="455.96948" sodipodi:cx="370.625" id="path9172" style="fill: rgb(129, 57, 11); fill-opacity: 1; fill-rule: evenodd; stroke: none; stroke-width: 0.720243; stroke-linecap: round; stroke-linejoin: round; stroke-miterlimit: 4; stroke-opacity: 1;" sodipodi:type="arc"/>
    <path id="path3239" d="M 110.18094,51.410976 C 97.935962,63.552809 84.529418,69.948423 80.255621,65.6869 C 75.981825,61.425376 82.451192,48.112507 94.696174,35.970673 C 106.94116,23.82884 120.3477,17.433226 124.6215,21.69475 C 128.89529,25.956273 122.42593,39.269142 110.18094,51.410976 z" style="fill: rgb(203, 0, 0); fill-opacity: 1; fill-rule: evenodd; stroke: none; stroke-width: 0.833042pt; stroke-linecap: butt; stroke-linejoin: miter; stroke-opacity: 1;"/>
    <path id="path9147" d="M 124.89657,21.299351 C 123.68563,20.09189 121.85345,19.680116 119.71129,19.878762 C 117.56913,20.077408 115.06958,20.871557 112.32403,22.181329 C 106.83294,24.80086 100.39034,29.46862 94.232844,35.574249 C 88.075346,41.679879 83.363088,48.073012 80.713348,53.525736 C 79.388473,56.252097 78.58284,58.735287 78.37708,60.864782 C 78.17132,62.994277 78.580323,64.817242 79.791261,66.024703 C 81.0022,67.232164 82.834383,67.643937 84.976542,67.445292 C 87.1187,67.246646 89.618249,66.452496 92.363794,65.142725 C 97.854886,62.523194 104.29749,57.855434 110.45498,51.749804 C 116.61248,45.644175 121.32474,39.251042 123.97448,33.798318 C 125.29936,31.071956 126.10499,28.588761 126.31075,26.459272 C 126.5165,24.329783 126.10751,22.506812 124.89657,21.299351 z M 124.15714,22.032553 C 125.0831,22.955854 125.46504,24.403044 125.27714,26.347703 C 125.08925,28.292362 124.32253,30.685847 123.03366,33.338119 C 120.45592,38.64267 115.8051,44.978348 109.71761,51.014552 C 103.63013,57.050756 97.245484,61.657591 91.903608,64.205944 C 89.232673,65.480118 86.823453,66.235814 84.867224,66.417219 C 82.910996,66.598625 81.456652,66.214801 80.530693,65.291501 C 79.604733,64.3682 79.222789,62.92101 79.410686,60.976351 C 79.598584,59.031692 80.365298,56.638207 81.654165,53.985935 C 84.231906,48.681384 88.882731,42.345706 94.970214,36.309502 C 101.0577,30.273298 107.44235,25.666463 112.78422,23.118109 C 115.45516,21.843936 117.86438,21.08824 119.8206,20.906834 C 121.77683,20.725429 123.23118,21.109253 124.15714,22.032553 z" style="fill: rgb(0, 0, 0); fill-opacity: 1; fill-rule: evenodd; stroke: none; stroke-width: 1pt; stroke-linecap: butt; stroke-linejoin: miter; stroke-opacity: 1;"/>
    <path id="path3227" d="M 84.581764,33.519202 C 84.555775,51.686246 79.245252,66.423312 72.727918,66.414437 C 66.210585,66.405563 60.942247,51.654092 60.968236,33.487048 C 60.994225,15.320004 66.304748,0.58293801 72.822082,0.59181201 C 79.339416,0.60068701 84.607753,15.352157 84.581764,33.519202 z" style="fill: rgb(203, 0, 0); fill-opacity: 1; fill-rule: evenodd; stroke: none; stroke-width: 0.888532pt; stroke-linecap: butt; stroke-linejoin: miter; stroke-opacity: 1;"/>
    <path id="path9148" d="M 72.756252,0.11665346 C 70.909629,0.11413898 69.199273,1.1675543 67.72032,2.9072632 C 66.241366,4.6469721 64.946293,7.0970535 63.858747,10.115082 C 61.683645,16.151129 60.352464,24.424185 60.339395,33.559645 C 60.326326,42.695106 61.633832,50.971754 63.791656,57.013702 C 64.870563,60.03468 66.158621,62.48827 67.632591,64.232009 C 69.106561,65.975747 70.813897,67.033808 72.66052,67.036322 C 74.507143,67.038837 76.217499,65.985421 77.696452,64.245712 C 79.175406,62.506004 80.470479,60.055922 81.558025,57.037894 C 83.733127,51.001846 85.064308,42.728791 85.077377,33.59333 C 85.090446,24.45787 83.78294,16.181221 81.625116,10.139274 C 80.546209,7.1182954 79.258151,4.6646966 77.784181,2.9209668 C 76.310211,1.1772371 74.602875,0.11916794 72.756252,0.11665346 z M 72.754683,1.2136972 C 74.166727,1.2156199 75.565714,2.0130499 76.911748,3.6054325 C 78.257783,5.1978152 79.506784,7.555479 80.556375,10.494358 C 82.655557,16.372126 83.965844,24.560215 83.952923,33.591799 C 83.940003,42.623383 82.606294,50.807872 80.490304,56.6799 C 79.432309,59.61591 78.176567,61.970163 76.825981,63.558873 C 75.475396,65.147584 74.074133,65.941201 72.662089,65.939278 C 71.250045,65.937356 69.851058,65.139926 68.505024,63.547543 C 67.158989,61.95516 65.909988,59.597497 64.860397,56.658617 C 62.761215,50.78085 61.450928,42.59276 61.463848,33.561177 C 61.476769,24.529593 62.810477,16.345103 64.926468,10.473076 C 65.984463,7.5370661 67.240205,5.1828129 68.590791,3.5941022 C 69.941376,2.0053914 71.342639,1.2117745 72.754683,1.2136972 z" style="fill: rgb(0, 0, 0); fill-opacity: 1; fill-rule: evenodd; stroke: none; stroke-width: 1pt; stroke-linecap: butt; stroke-linejoin: miter; stroke-opacity: 1;"/>
    <path id="path2450" d="M 51.080247,36.01088 C 63.021704,48.186454 69.311771,61.517006 65.120575,65.766575 C 60.929379,70.016144 47.836211,63.583444 35.894753,51.40787 C 23.953296,39.232295 17.663229,25.901744 21.854425,21.652175 C 26.045621,17.402606 39.13879,23.835305 51.080247,36.01088 z" style="fill: rgb(203, 0, 0); fill-opacity: 1; fill-rule: evenodd; stroke: none; stroke-width: 0.823795pt; stroke-linecap: butt; stroke-linejoin: miter; stroke-opacity: 1;"/>
    <path id="path9144" d="M 21.599336,21.287856 C 20.411802,22.49193 20.006824,24.313727 20.202191,26.443743 C 20.397559,28.573759 21.178602,31.059139 22.466758,33.789122 C 25.043059,39.249088 29.633788,45.65517 35.638656,51.777766 C 41.643525,57.900362 47.931153,62.585911 53.29389,65.220632 C 55.975259,66.537998 58.417469,67.339065 60.511821,67.543659 C 62.606173,67.748254 64.399054,67.34157 65.586589,66.137496 C 66.774123,64.933422 67.179101,63.111625 66.983734,60.981609 C 66.788367,58.851593 66.007323,56.366213 64.719167,53.63623 C 62.142866,48.176264 57.552137,41.770182 51.547269,35.647586 C 45.5424,29.52499 39.254772,24.839441 33.892035,22.20472 C 31.210666,20.887354 28.768451,20.086281 26.674104,19.881693 C 24.579758,19.677104 22.786871,20.083782 21.599336,21.287856 z M 22.320439,22.023096 C 23.228502,21.102385 24.65181,20.722607 26.564376,20.90944 C 28.476942,21.096273 30.830928,21.858641 33.43943,23.140204 C 38.65644,25.703334 44.887561,30.327798 50.82415,36.380776 C 56.760739,42.433754 61.291548,48.782212 63.797845,54.093807 C 65.050992,56.749602 65.794216,59.145166 65.972628,61.090306 C 66.15104,63.035446 65.77355,64.481545 64.865486,65.402256 C 63.957423,66.322967 62.534115,66.702745 60.621549,66.515912 C 58.708983,66.329079 56.354997,65.566711 53.746495,64.285149 C 48.529485,61.722018 42.298364,57.097554 36.361775,51.044576 C 30.425186,44.991598 25.894378,38.64314 23.38808,33.331545 C 22.134934,30.67575 21.391709,28.280186 21.213297,26.335046 C 21.034886,24.389906 21.412375,22.943807 22.320439,22.023096 z" style="fill: rgb(0, 0, 0); fill-opacity: 1; fill-rule: evenodd; stroke: none; stroke-width: 1pt; stroke-linecap: butt; stroke-linejoin: miter; stroke-opacity: 1;"/>
    <path id="path3241" d="M 33.704467,61.4428 C 51.889313,61.468789 66.64082,66.779312 66.631936,73.296646 C 66.623053,79.81398 51.857128,85.082318 33.672281,85.056329 C 15.487435,85.03034 0.73592805,79.719817 0.74481205,73.202483 C 0.75369505,66.685149 15.51962,61.416811 33.704467,61.4428 z" style="fill: rgb(203, 0, 0); fill-opacity: 1; fill-rule: evenodd; stroke: none; stroke-width: 0.888967pt; stroke-linecap: butt; stroke-linejoin: miter; stroke-opacity: 1;"/>
    <path id="path9150" d="M 0.10003465,73.173328 C 0.097517699,75.019951 1.1519653,76.730307 2.8933789,78.20926 C 4.6347926,79.688214 7.0872748,80.983287 10.10826,82.070833 C 16.150223,84.245935 24.431385,85.577116 33.575798,85.590185 C 42.72021,85.603254 51.004969,84.295748 57.052837,82.137924 C 60.076776,81.059017 62.53277,79.770959 64.278217,78.296989 C 66.023664,76.823019 67.082761,75.115683 67.085278,73.26906 C 67.087795,71.422437 66.033348,69.712081 64.291934,68.233128 C 62.55052,66.754174 60.098038,65.459101 57.077053,64.371555 C 51.03509,62.196453 42.753928,60.865272 33.609515,60.852203 C 24.465103,60.839134 16.180344,62.14664 10.132476,64.304464 C 7.1085375,65.383371 4.6525344,66.671429 2.907096,68.145399 C 1.1616575,69.619369 0.1025516,71.326705 0.10003465,73.173328 z M 1.1981534,73.174897 C 1.200078,71.762853 1.9982894,70.363866 3.5922324,69.017832 C 5.1861754,67.671797 7.5461495,66.422796 10.487909,65.373205 C 16.371436,63.274023 24.567549,61.963736 33.607983,61.976657 C 42.648417,61.989577 50.840926,63.323286 56.718708,65.439276 C 59.657594,66.497271 62.014155,67.753013 63.604422,69.103599 C 65.19469,70.454184 65.989084,71.855447 65.98716,73.267491 C 65.985235,74.679535 65.187024,76.078522 63.593081,77.424556 C 61.999138,78.770591 59.639164,80.019592 56.697404,81.069183 C 50.813877,83.168365 42.617764,84.478652 33.57733,84.465732 C 24.536896,84.452811 16.344387,83.119103 10.466605,81.003112 C 7.5277186,79.945117 5.1711585,78.689375 3.5808909,77.338789 C 1.9906234,75.988204 1.1962288,74.586941 1.1981534,73.174897 z" style="fill: rgb(0, 0, 0); fill-opacity: 1; fill-rule: evenodd; stroke: none; stroke-width: 1pt; stroke-linecap: butt; stroke-linejoin: miter; stroke-opacity: 1;"/>
    <path id="path3243" d="M 37.154205,94.584437 C 49.162833,81.975032 62.3106,75.333133 66.501898,79.758771 C 70.693195,84.184408 64.348695,98.009949 52.340066,110.61935 C 40.331437,123.22876 27.18367,129.87066 22.992373,125.44502 C 18.801075,121.01938 25.145576,107.19384 37.154205,94.584437 z" style="fill: rgb(203, 0, 0); fill-opacity: 1; fill-rule: evenodd; stroke: none; stroke-width: 0.840697pt; stroke-linecap: butt; stroke-linejoin: miter; stroke-opacity: 1;"/>
    <path id="path9145" d="M 22.534294,125.79781 C 23.721857,127.05178 25.518674,127.47941 27.619483,127.27311 C 29.720293,127.06682 32.171593,126.24209 34.864144,124.88188 C 40.249244,122.16148 46.567488,117.31397 52.606134,110.97321 C 58.644781,104.63246 63.266084,97.993133 65.86468,92.330428 C 67.163984,89.499075 67.954067,86.920259 68.155857,84.708757 C 68.357647,82.497256 67.956541,80.604088 66.768977,79.350127 C 65.581414,78.096166 63.784597,77.668534 61.683788,77.874828 C 59.582978,78.081122 57.131678,78.905853 54.439127,80.266061 C 49.054027,82.986466 42.735783,87.833976 36.697137,94.174728 C 30.65849,100.51548 26.037187,107.15481 23.438591,112.81751 C 22.139287,115.64887 21.349198,118.22769 21.147414,120.43918 C 20.94563,122.65068 21.34673,124.54385 22.534294,125.79781 z M 23.259452,125.03638 C 22.351367,124.07752 21.976797,122.5746 22.161069,120.55505 C 22.34534,118.5355 23.097256,116.04985 24.361247,113.29544 C 26.889234,107.78661 31.45029,101.20695 37.420273,94.938296 C 43.390256,88.669643 49.651666,83.885404 54.89043,81.238917 C 57.50981,79.915677 59.872526,79.130882 61.790994,78.942492 C 63.709462,78.754101 65.135733,79.152707 66.043819,80.111565 C 66.951904,81.070422 67.326474,82.573344 67.142202,84.592891 C 66.957931,86.612438 66.206015,89.098096 64.942024,91.852506 C 62.414037,97.361332 57.852981,103.94099 51.882998,110.20965 C 45.913015,116.4783 39.651605,121.26254 34.412841,123.90902 C 31.793461,125.23226 29.430745,126.01706 27.512277,126.20545 C 25.593809,126.39384 24.167538,125.99523 23.259452,125.03638 z" style="fill: rgb(0, 0, 0); fill-opacity: 1; fill-rule: evenodd; stroke: none; stroke-width: 1pt; stroke-linecap: butt; stroke-linejoin: miter; stroke-opacity: 1;"/>
    <path id="path3245" d="M 113.30018,61.4428 C 131.92114,61.468789 147.02641,66.779312 147.01732,73.296646 C 147.00822,79.81398 131.88818,85.082318 113.26723,85.056329 C 94.64627,85.03034 79.540994,79.719817 79.550091,73.202483 C 79.559187,66.685149 94.679228,61.416811 113.30018,61.4428 z" style="fill: rgb(203, 0, 0); fill-opacity: 1; fill-rule: evenodd; stroke: none; stroke-width: 0.899564pt; stroke-linecap: butt; stroke-linejoin: miter; stroke-opacity: 1;"/>
    <path id="path9151" d="M 78.892131,73.173328 C 78.889554,75.019951 79.969289,76.730307 81.752465,78.20926 C 83.535641,79.688214 86.046939,80.983287 89.140373,82.070833 C 95.327234,84.245935 103.80699,85.577116 113.17071,85.590185 C 122.53442,85.603254 131.01786,84.295748 137.21077,82.137924 C 140.30723,81.059017 142.82212,79.770959 144.60943,78.296989 C 146.39674,76.823019 147.48123,75.115683 147.48381,73.26906 C 147.48639,71.422437 146.40665,69.712081 144.62348,68.233128 C 142.8403,66.754174 140.329,65.459101 137.23557,64.371555 C 131.04871,62.196453 122.56895,60.865272 113.20523,60.852203 C 103.84152,60.839134 95.358077,62.14664 89.16517,64.304464 C 86.068711,65.383371 83.553808,66.671429 81.766511,68.145399 C 79.979214,69.619369 78.894708,71.326705 78.892131,73.173328 z M 80.016585,73.174897 C 80.018555,71.762853 80.835909,70.363866 82.468078,69.017832 C 84.100247,67.671797 86.516818,66.422796 89.529126,65.373205 C 95.553751,63.274023 103.94642,61.963736 113.20366,61.976657 C 122.46091,61.989577 130.84989,63.323286 136.86863,65.439276 C 139.878,66.497271 142.29107,67.753013 143.91948,69.103599 C 145.54788,70.454184 146.36133,71.855447 146.35936,73.267491 C 146.35739,74.679535 145.54003,76.078522 143.90786,77.424556 C 142.27569,78.770591 139.85912,80.019592 136.84681,81.069183 C 130.82219,83.168365 122.42952,84.478652 113.17228,84.465732 C 103.91504,84.452811 95.526054,83.119103 89.507312,81.003112 C 86.497945,79.945117 84.08487,78.689375 82.456465,77.338789 C 80.82806,75.988204 80.014614,74.586941 80.016585,73.174897 z" style="fill: rgb(0, 0, 0); fill-opacity: 1; fill-rule: evenodd; stroke: none; stroke-width: 1pt; stroke-linecap: butt; stroke-linejoin: miter; stroke-opacity: 1;"/>
    <path id="path3247" d="M 110.86927,94.42125 C 123.35282,106.96945 129.92843,120.70797 125.54697,125.08759 C 121.16551,129.46721 107.47797,122.83765 94.994422,110.28945 C 82.510873,97.741258 75.935262,84.002738 80.316719,79.623114 C 84.698176,75.24349 98.385718,81.873054 110.86927,94.42125 z" style="fill: rgb(203, 0, 0); fill-opacity: 1; fill-rule: evenodd; stroke: none; stroke-width: 0.855077pt; stroke-linecap: butt; stroke-linejoin: miter; stroke-opacity: 1;"/>
    <path id="path9146" d="M 79.844284,79.215431 C 78.602841,80.456355 78.179479,82.333907 78.383716,84.52911 C 78.587952,86.724313 79.404452,89.285756 80.751086,92.099287 C 83.44434,97.72635 88.243469,104.32848 94.520933,110.63846 C 100.7984,116.94843 107.37146,121.77737 112.97764,124.49273 C 115.78073,125.85041 118.33381,126.67599 120.52323,126.88685 C 122.71266,127.0977 124.58693,126.67857 125.82837,125.43765 C 127.06981,124.19672 127.49318,122.31917 127.28894,120.12397 C 127.0847,117.92877 126.2682,115.36732 124.92157,112.55379 C 122.22832,106.92673 117.42919,100.3246 111.15172,94.014623 C 104.87426,87.704651 98.3012,82.875706 92.695017,80.160353 C 89.891925,78.80267 87.338844,77.977082 85.149424,77.766233 C 82.960003,77.555383 81.085727,77.974508 79.844284,79.215431 z M 80.598122,79.973173 C 81.547407,79.024284 83.035326,78.632883 85.034715,78.825433 C 87.034103,79.017984 89.494949,79.803683 92.221866,81.124466 C 97.675706,83.766038 104.18969,88.532029 110.39578,94.770252 C 116.60186,101.00848 121.33835,107.55122 123.95842,113.02537 C 125.26846,115.76245 126.04542,118.23132 126.23193,120.23599 C 126.41845,122.24066 126.02382,123.73102 125.07453,124.67991 C 124.12525,125.62879 122.63733,126.0202 120.63794,125.82765 C 118.63855,125.6351 116.17771,124.8494 113.45079,123.52861 C 107.99695,120.88704 101.48296,116.12105 95.276878,109.88283 C 89.070793,103.6446 84.334304,97.101858 81.714231,91.627706 C 80.404197,88.890633 79.627233,86.421755 79.440722,84.417086 C 79.25421,82.412417 79.648836,80.922061 80.598122,79.973173 z" style="fill: rgb(0, 0, 0); fill-opacity: 1; fill-rule: evenodd; stroke: none; stroke-width: 1pt; stroke-linecap: butt; stroke-linejoin: miter; stroke-opacity: 1;"/>
    <path id="path3249" d="M 85.734526,112.22396 C 85.708537,130.62878 80.398014,145.55873 73.88068,145.54974 C 67.363346,145.54075 62.095008,130.59621 62.120997,112.19138 C 62.146986,93.786555 67.457509,78.856602 73.974843,78.865593 C 80.492177,78.874584 85.760515,93.81913 85.734526,112.22396 z" style="fill: rgb(203, 0, 0); fill-opacity: 1; fill-rule: evenodd; stroke: none; stroke-width: 0.894328pt; stroke-linecap: butt; stroke-linejoin: miter; stroke-opacity: 1;"/>
    <path id="path9149" d="M 73.880552,78.280873 C 72.033929,78.278326 70.323573,79.345529 68.84462,81.108008 C 67.365666,82.870487 66.070593,85.352637 64.983047,88.410167 C 62.807945,94.525218 61.476764,102.90656 61.463695,112.16159 C 61.450626,121.41662 62.758132,129.8016 64.915956,135.92262 C 65.994863,138.98314 67.282921,141.46885 68.756891,143.23541 C 70.230861,145.00197 71.938197,146.07388 73.78482,146.07643 C 75.631443,146.07897 77.341799,145.01177 78.820752,143.24929 C 80.299706,141.48681 81.594779,139.00466 82.682325,135.94713 C 84.857427,129.83208 86.188608,121.45074 86.201677,112.19571 C 86.214746,102.94068 84.90724,94.555703 82.749416,88.434675 C 81.670509,85.374157 80.382451,82.888444 78.908481,81.121891 C 77.434511,79.355338 75.727175,78.283421 73.880552,78.280873 z M 73.878983,79.392276 C 75.291027,79.394224 76.690014,80.202091 78.036048,81.815315 C 79.382083,83.42854 80.631084,85.817062 81.680675,88.794407 C 83.779857,94.749106 85.090144,103.04437 85.077223,112.19416 C 85.064303,121.34396 83.730594,129.63557 81.614604,135.58445 C 80.556609,138.55889 79.300867,140.94396 77.950281,142.55346 C 76.599696,144.16297 75.198433,144.96697 73.786389,144.96502 C 72.374345,144.96308 70.975358,144.15521 69.629324,142.54198 C 68.283289,140.92876 67.034288,138.54024 65.984697,135.56289 C 63.885515,129.60819 62.575228,121.31293 62.588148,112.16314 C 62.601069,103.01334 63.934777,94.72173 66.050768,88.772846 C 67.108763,85.798409 68.364505,83.413342 69.715091,81.803837 C 71.065676,80.194332 72.466939,79.390328 73.878983,79.392276 z" style="fill: rgb(0, 0, 0); fill-opacity: 1; fill-rule: evenodd; stroke: none; stroke-width: 1pt; stroke-linecap: butt; stroke-linejoin: miter; stroke-opacity: 1;"/>
    <path id="path3276" d="M 97.23125,71.665625 C 97.23125,83.050625 86.87125,92.29063 74.10625,92.29063 C 61.34125,92.29063 50.98125,83.050625 50.98125,71.665625 C 50.98125,60.280625 61.34125,51.040625 74.10625,51.040625 C 86.87125,51.040625 97.23125,60.280625 97.23125,71.665625 z" style="fill: rgb(255, 204, 0); fill-opacity: 1; fill-rule: evenodd; stroke: none; stroke-width: 1pt; stroke-linecap: butt; stroke-linejoin: miter; stroke-opacity: 1;"/>
    <path id="path9143" d="M 74.21834,50.45129 C 61.15173,50.45129 50.46834,59.93713 50.46834,71.70129 C 50.46834,83.46544 61.15173,92.95129 74.21834,92.95129 C 87.28495,92.95129 97.96834,83.46544 97.96834,71.70129 C 97.96834,59.93714 87.28495,50.45129 74.21834,50.45129 z M 74.21834,51.70129 C 86.68173,51.70129 96.71834,60.69544 96.71834,71.70129 C 96.71834,82.70713 86.68173,91.70129 74.21834,91.70129 C 61.75495,91.70129 51.71834,82.70714 51.71834,71.70129 C 51.71834,60.69544 61.75495,51.70129 74.21834,51.70129 z" style="fill: rgb(0, 0, 0); fill-opacity: 1; fill-rule: evenodd; stroke: none; stroke-width: 1pt; stroke-linecap: butt; stroke-linejoin: miter; stroke-opacity: 1;"/>
    <path id="path12452" d="M 61.90584,58.57702 C 58.00619,61.78767 55.46834,66.49473 55.46834,71.82702 C 55.46834,81.48702 63.58834,89.32702 73.59334,89.32702 C 79.37578,89.32702 84.4614,86.65244 87.78084,82.57702 C 84.61587,85.1828 80.57561,86.82702 76.09334,86.82702 C 66.08834,86.82702 57.96834,78.98702 57.96834,69.32702 C 57.96834,65.25006 59.48186,61.55306 61.90584,58.57702 z" style="fill: rgb(255, 167, 0); fill-opacity: 1; fill-rule: evenodd; stroke: none; stroke-width: 1pt; stroke-linecap: butt; stroke-linejoin: miter; stroke-opacity: 1;"/>
    <path id="path14318" d="M 77.03084,54.51452 C 74.55534,54.51452 72.24671,55.10805 70.15584,56.07702 C 71.26846,55.8697 72.41795,55.76452 73.59334,55.76452 C 83.51298,55.76452 91.56209,63.51515 91.56209,73.04577 C 91.56209,74.42013 91.34713,75.73265 91.03084,77.01452 C 92.23024,74.86381 92.96834,72.43614 92.96834,69.82702 C 92.96834,61.37452 85.82835,54.51452 77.03084,54.51452 z" style="fill: rgb(255, 167, 0); fill-opacity: 1; fill-rule: evenodd; stroke: none; stroke-width: 1pt; stroke-linecap: butt; stroke-linejoin: miter; stroke-opacity: 1;"/>
    <path id="path14942" d="M 85.939013,266.32629 C 64.494405,266.32629 45.069783,268.23595 30.992668,271.29504 C 23.954107,272.82458 18.247443,274.63546 14.285214,276.67004 C 12.3041,277.68733 10.766668,278.75332 9.6965475,279.88879 C 8.6264271,281.02426 8.0022705,282.26307 8.0022705,283.57629 C 7.9990756,283.67699 8.0277989,283.77485 8.0814636,283.84612 C 8.1351283,283.91739 8.2088239,283.95553 8.28465,283.95129 L 85.939013,283.95129 L 163.59338,283.95129 C 163.6692,283.95553 163.7429,283.91739 163.79656,283.84612 C 163.85023,283.77485 163.87895,283.67699 163.87575,283.57629 C 163.87575,282.26307 163.2516,281.02426 162.18148,279.88879 C 161.11136,278.75332 159.57392,277.68733 157.59281,276.67004 C 153.63058,274.63546 147.92392,272.82458 140.88536,271.29504 C 126.80824,268.23595 107.38362,266.32629 85.939013,266.32629 z M 85.939013,267.07629 C 107.35961,267.07629 126.75747,268.96413 140.79123,272.01379 C 147.80811,273.53862 153.48076,275.35478 157.38103,277.35754 C 159.33116,278.35892 160.85218,279.39038 161.85203,280.45129 C 162.72853,281.38131 163.11311,282.30548 163.21687,283.20129 L 85.939013,283.20129 L 8.661156,283.20129 C 8.7649135,282.30548 9.1494993,281.38131 10.02599,280.45129 C 11.025847,279.39038 12.546864,278.35892 14.496999,277.35754 C 18.39727,275.35478 24.069913,273.53862 31.086795,272.01379 C 45.120559,268.96413 64.518411,267.07629 85.939013,267.07629 z" style="fill: rgb(0, 0, 0); fill-opacity: 1; fill-rule: evenodd; stroke: none; stroke-width: 0.720243; stroke-linecap: round; stroke-linejoin: round; stroke-miterlimit: 4; stroke-opacity: 1;"/>
    <path id="path20557" d="M 102.34334,88.10827 C 104.73813,90.27578 107.19815,92.731 109.59334,95.57702 C 119.74786,107.64282 125.15177,120.73464 122.03084,125.38952 C 122.73869,125.19286 123.33814,124.86287 123.81209,124.35827 C 127.60367,120.32149 121.9275,107.64292 111.12459,96.07702 C 108.20557,92.95183 105.23507,90.34429 102.34334,88.10827 z" style="fill: rgb(203, 97, 0); fill-opacity: 1; fill-rule: evenodd; stroke: none; stroke-width: 1pt; stroke-linecap: butt; stroke-linejoin: miter; stroke-opacity: 1;"/>
    <path id="path22424" d="M 103.59334,63.79979 C 106.8118,63.52659 110.28515,63.40191 114.00011,63.59115 C 129.74985,64.39346 143.01005,69.36988 144.28594,74.82702 C 144.62487,74.1752 144.79236,73.51173 144.74655,72.82098 C 144.38008,67.29491 131.23643,62.79944 115.41009,62.81227 C 111.13371,62.81572 107.2008,63.20988 103.59334,63.79979 z" style="fill: rgb(203, 97, 0); fill-opacity: 1; fill-rule: evenodd; stroke: none; stroke-width: 1pt; stroke-linecap: butt; stroke-linejoin: miter; stroke-opacity: 1;"/>
    <path id="path22425" d="M 62.40268,43.14201 C 62.24197,39.91597 62.23858,36.44038 62.55736,32.73429 C 63.90884,17.02214 69.34501,3.9437 74.84334,2.85903 C 74.20375,2.49756 73.54653,2.30702 72.8546,2.32869 C 67.31911,2.50208 62.36767,15.48084 61.82816,31.29798 C 61.68237,35.57188 61.93903,39.51615 62.40268,43.14201 z" style="fill: rgb(203, 97, 0); fill-opacity: 1; fill-rule: evenodd; stroke: none; stroke-width: 1pt; stroke-linecap: butt; stroke-linejoin: miter; stroke-opacity: 1;"/>
    <path id="path22426" d="M 43.59334,82.59821 C 40.37488,82.87141 36.90153,82.99609 33.18657,82.80685 C 17.43683,82.00454 4.17663,77.02812 2.90074,71.57098 C 2.56181,72.2228 2.39432,72.88627 2.44013,73.57702 C 2.8066,79.10309 15.95025,83.59856 31.77659,83.58573 C 36.05297,83.58228 39.98588,83.18812 43.59334,82.59821 z" style="fill: rgb(203, 97, 0); fill-opacity: 1; fill-rule: evenodd; stroke: none; stroke-width: 1pt; stroke-linecap: butt; stroke-linejoin: miter; stroke-opacity: 1;"/>
    <path id="path22427" d="M 83.74802,103.29404 C 83.90873,106.52008 83.91212,109.99567 83.59334,113.70176 C 82.24186,129.41391 76.80569,142.49235 71.30736,143.57702 C 71.94695,143.93849 72.60417,144.12903 73.2961,144.10736 C 78.83159,143.93397 83.78303,130.95521 84.32254,115.13807 C 84.46833,110.86417 84.21167,106.9199 83.74802,103.29404 z" style="fill: rgb(203, 97, 0); fill-opacity: 1; fill-rule: evenodd; stroke: none; stroke-width: 1pt; stroke-linecap: butt; stroke-linejoin: miter; stroke-opacity: 1;"/>
    <path id="path22428" d="M 58.67007,100.7153 C 56.63088,103.22028 54.30776,105.8054 51.59101,108.34627 C 40.07317,119.11838 27.28209,125.20004 22.47028,122.32702 C 22.70374,123.02359 23.06464,123.60495 23.59334,124.05182 C 27.82304,127.62697 40.18717,121.29506 51.17183,109.9016 C 54.13997,106.82306 56.58845,103.72013 58.67007,100.7153 z" style="fill: rgb(203, 97, 0); fill-opacity: 1; fill-rule: evenodd; stroke: none; stroke-width: 1pt; stroke-linecap: butt; stroke-linejoin: miter; stroke-opacity: 1;"/>
    <path id="path22429" d="M 87.91139,44.99596 C 90.03678,42.56368 92.44868,40.06123 95.25245,37.61672 C 107.13922,27.25317 120.13471,21.62159 124.84334,24.6608 C 124.6344,23.9565 124.29397,23.3629 123.78121,22.89786 C 119.67882,19.1773 107.10127,25.07387 95.72568,36.07702 C 92.6519,39.0501 90.0966,42.06567 87.91139,44.99596 z" style="fill: rgb(203, 97, 0); fill-opacity: 1; fill-rule: evenodd; stroke: none; stroke-width: 1pt; stroke-linecap: butt; stroke-linejoin: miter; stroke-opacity: 1;"/>
    <path id="path22430" d="M 46.09334,58.15614 C 43.58838,56.11689 41.00323,53.7938 38.46242,51.07702 C 27.69035,39.5592 21.60866,26.7682 24.48168,21.95633 C 23.78509,22.18978 23.2037,22.55069 22.75683,23.07942 C 19.18174,27.3091 25.51365,39.67319 36.90704,50.65789 C 39.98565,53.626 43.08856,56.07451 46.09334,58.15614 z" style="fill: rgb(203, 97, 0); fill-opacity: 1; fill-rule: evenodd; stroke: none; stroke-width: 1pt; stroke-linecap: butt; stroke-linejoin: miter; stroke-opacity: 1;"/>
    <path id="path3289" d="M 8.3776692,283.5625 C 8.3776692,274.2475 43.166823,266.6875 86.032031,266.6875 C 128.89724,266.6875 163.68639,274.2475 163.68639,283.5625 L 86.032031,283.5625 L 8.3776692,283.5625 z" style="fill: url(#radialGradient3291) rgb(0, 0, 0); fill-opacity: 0.368182; fill-rule: evenodd; stroke: none; stroke-width: 0.625; stroke-linecap: round; stroke-linejoin: round; stroke-miterlimit: 4; stroke-opacity: 1;"/>
  </g>
</svg>