<?xml version="1.0" encoding="UTF-8"?>
<!-- Generator: Adobe Illustrator 12.0.1, SVG Export Plug-In . SVG Version: 6.00 Build 51448)  -->
<!DOCTYPE svg PUBLIC "-//W3C//DTD SVG 1.1//EN" "http://www.w3.org/Graphics/SVG/1.1/DTD/svg11.dtd" [
	<!ENTITY ns_svg "http://www.w3.org/2000/svg">
	<!ENTITY ns_xlink "http://www.w3.org/1999/xlink">
]>
<svg version="1.1" id="Layer_1" xmlns="http://www.w3.org/2000/svg" xmlns:xlink="http://www.w3.org/1999/xlink" width="597" height="298.083" viewBox="0 0 597 298.083" overflow="visible" enable-background="new 0 0 597 298.083" xml:space="preserve">
<g>
	<path fill-rule="evenodd" clip-rule="evenodd" fill="#FFFFFF" d="M148,70.083c5.244-9.303,11.924-19.486,21-22   c11.373,7.587,13.214,13.667,21,23c20.086,3.995,18.489-13.443,28-12c-0.985,8.802-2.589,9.772-2,17   C197.5,77.695,165.007,73.009,148,70.083z"/>
	<path fill-rule="evenodd" clip-rule="evenodd" d="M294,64.083c1,0,2,0,3,0c-1.787,2.517,2.565,5.578,4,8   C297.243,74.794,294.98,67.47,294,64.083z"/>
	<path fill-rule="evenodd" clip-rule="evenodd" fill="#FFFFFF" d="M543,119.083c0.835,11.121,6.175,18.265,3,34   c-5.711-11.514-2.852-20.53-7-27c-17.403,3.628-15.394,17.589-14,33c-5.715,4.873-13.027,2.235-19,8   C500.033,135.797,521.195,105.688,543,119.083z"/>
	<path fill-rule="evenodd" clip-rule="evenodd" fill="#FFFFFF" d="M464,119.083c-4.301,17.22-5.713,35.534-6,46   c-9.628-1.51-24.549,1.698-37,0c0.043-16.092,2.773-32.845,9-48C436.094,114.576,453.304,125.931,464,119.083z"/>
	<path fill-rule="evenodd" clip-rule="evenodd" fill="#FFFFFF" d="M106,126.083c-4.443,14.758-14.65,34.445-17,48   c-17.499-3.32-33.373-9.318-45-16c5.666-15.822,10.875-26.35,16-41C76.751,118.858,89.087,125.287,106,126.083z"/>
	<path fill-rule="evenodd" clip-rule="evenodd" fill="#FFFFFF" d="M499,119.083c2.566,3.485,9.09,2.658,14,1   c-7.975,12.975-11.195,34.812-11,47c-11.624-1.986-21.908-2.371-33-1c-3.471-10.212,0.979-26.865,5-38   C485.67,131.525,493.037,129.545,499,119.083z"/>
	<path fill-rule="evenodd" clip-rule="evenodd" fill="#FFFFFF" d="M525,167.083c-2.697,18.754,1.33,38.646,0,55   c-8.432-0.152-11.956,2.616-17,5c-2.957-12.791-1.037-30.268-3-53C511.863,171.709,516.02,168.996,525,167.083z"/>
	<path fill-rule="evenodd" clip-rule="evenodd" fill="#FFFFFF" d="M502,174.083c1.636,14.504,2.623,43.544,3,51   c-9.841,1.513-29.562-3.701-38,1c-1.532-19.868-0.83-35.834,1-53C476.083,173.057,498.006,172.655,502,174.083z"/>
	<path fill-rule="evenodd" clip-rule="evenodd" d="M332,187.083c-5.605,2.677-11.724,3.681-15,4c-42.296,4.122-68.093,2.326-101,4   c8.443-4.58,23.702-1.99,38-3C277.582,190.417,309.462,188.775,332,187.083z"/>
	<path fill-rule="evenodd" clip-rule="evenodd" d="M95,59.083c-1.979-4.212-2.262-4.604-4-8c4.711-18.81,34.631-34.465,55-37   c0.836-0.104,1.911,2.01,2,2c6.708-0.761,20.544-3.889,29-2c21.91-14.291,56.471-19.562,75-7c12.369-5.792,29.228-2.391,34,0   c8.401,2.352,15.074,8.871,18,15c12.65-0.782,39.021,4.754,42,25c10.668,7.605,11.771,23.555,21,27   c5.967,12.392,10.308,43.83,29,36c8.666-3.63,8.48-12.847,20-10c3.559-10.169,21.045-8.426,25-4c7.657-9.705,22.904-13.581,35-6   c6.644-12.299,37.021-12.517,46,6c10.105-1.105,15.88,2.12,22,5c1.387,4.651,6.667,8.411,6,14c-1.146,9.602,3.062,19.628,4,33   c1.259,17.925-0.743,31.843,2,45c6.59,5.597,26.984,1.555,41,3c-0.941,3.438-6.727,3.393-8,1c-14.925,2.74-29.985-0.67-48,12   c-5.428,0.724-9.028-4.459-14-1c0.583,3.666,0.486,4.037,1,9c2.928,2.794,3.938,2.315,10,3c-5.413,6.255-16.164,4.337-23,7   c-2.673,1.042-5.346,5.695-8,6c-3.404,0.391-9.979-5.304-15-6c-10.562-1.464-19.808-0.056-27,6c-17.198-7.369-39.547,8.278-51,2   c3.936-1.963,9.074,0.402,13-1c-0.535-2.062-4.731-0.238-2-3c-34.922-0.254-55.325,7.032-72,28c-25.063-0.628-65.699,0.029-86,16   c-3.221-3.514,0.624-3.243,3-5c0.521-0.385,4.814-4.606,5-2c-0.43-6.039-29.391-8.228-36-8c-19.068,0.655-23.207,7.264-34,13   c0.09-2.729-1.666-2.013,0-4c-15.161-6.722-32.444,5.433-44,6c-5.327,0.262-12.146-3.537-19-4c-23.467-1.583-43.522,1.492-60,6   c1.818-2.443,13.102-6.378,16-7c2.424-0.52,8.275-0.484,1-5c-9.937-6.168-40.418-7.645-56-4c-0.013-26.363-31.347-21.978-43-24   c4.458-5.99,11.413,0.327,18-2c4.019-14.696,5.833-32.938,10-48c2.13-7.699,4.211-18.157,7-22c-1.472,2.029,4.214-2.096,4-1   c0.433-2.214-3.035-4.866-3-7c0.103-6.274,6.808-14.191,10-22c3.48-8.512,2.984-17.566,7-23c1.543-2.088,4.916-1.66,6-4   c0.678-1.463-1.161-5.275-1-6c1.02-4.587,8.282-10.665,12-15C78.305,77.4,89.981,72.171,95,59.083z M314,31.083   c3.898-0.905-5.835-0.423-4,0c-5.633-1.298-5.678-4.537-7-6c-3.136-3.469-10.616-5.191-10-10c-10.107-4.845-25.186-4.826-40-2   c-15.23-12.084-50.434-3.352-59-1c0.61,0.057,1.184,0.149,1,1c-25.808,12.485-33.072,4.307-59,10c-13.74,6.584-33.777,14.964-38,31   c9.048,5.631,15.988-6.137,21-11c17.507,10.105,32.209,1.154,52-1c-0.039,3.705,1.536,5.797,3,8c5.681,1.23,5.916-0.328,10,1   c-0.557,7.224,0.645,12.688,5,15c5.737-0.422,19.309-1.445,17-12c2.632-1.035,3.368-3.965,6-5c3.35,9.347,22.164,4.523,23-7   c12.301,4.7,21.681,8.965,32,2c3.736-2.521,5.463-9.896,9-9c6.185,14.558,20.661,2.81,31,2c-2.548,4.119-8.058,5.276-11,9   c0.991,1.956,0.039,3.879,2,8c8.074,3.765,20.413,0.848,27-5c16.525,11.078,18.762-5.222,10-14   C327.307,33.323,321.216,29.408,314,31.083z M227,80.083c21.651-3.969,41.048,0.216,64-6c-2.107,4.538,1.317-1.728,3,1   c-2.729-8.546-9.614-19.052-14-29c-13.315,4.349-16.904,10.251-31,8c-6.974-12.747-14.548,8.079-23,6   C227.852,65.716,220.183,76.742,227,80.083z M296,78.083c-11.372,3.107-27.015,2.005-34,6c12.944-1.125,18.548-1.842,39-2   c6.797,14.493,7.986,20.47,16,34c-1.577-12.042-8.759-24.227-17-36c2.084-0.294-1.484-2.706,2-3c2.213,1.44-1.259,2.44,1,3   c5.043-7.122,20.661-0.522,26-5c0.835-0.7-0.939,1.182,2,1c6.209-0.383,14.507-4.283,20-7c-16.591,4.33-29.79,5.275-49,8   c-0.239-1.427-1.646-1.687-2-3c20.25-3.688,32.162-2.223,51-11c0.537-2.317-4.165-3.277-4-8c-1.453,0.547-5.169-1.168-5,1   c-0.537,3.855-15.732,3.419-21,3c-10.486,8.801-25.697,2.351-28-12c-2.072,0.595-6.569-1.236-7,1c4.079,4.851,10.367,10.913,7,16   c-3.274-6.844-4.562-13.958-11-16C287.055,54.905,294.391,64.843,296,78.083z M222,60.083c-4.15,8.135,2.401,16.124-5,22   c-3.102,2.463-10.023-3.498-14,1c6.194,0.482,9.264,1.09,15,0c1.971,5.735-0.306,11.826-1,19c-1.172,12.116,1.307,25.551-5,31   c-36.65-1.533-59.85-5.263-94-8c-3.546-6.996,2.229-11.82,7-20c5.865-10.056,9.933-21.771,18-26c-7.25,13.931-19.881,25.461-22,41   c4.553,0.985,15.873,1.103,22,4c8.139-2.608,14.618,1.439,23,2c18.855,1.261,26.197,3.104,45,1c-0.148-14.477,5.31-29.341,3-41   c-22.747-0.922-49.259-3.069-70-8c19.839-2.013,38.562,7.095,59,3c-15.852-2.994-28.125-1.482-41-3c-5.349-0.631-12.198-3.665-18-4   c0.552,0.032,1.138,0.784,0,1c-15.706,2.983-30.415-9.102-46-5c8.876,2.201,11.724,0.725,19,2c5.826,1.021,21.382,3.731,22,7   c0.196,1.036-9.158,10.476-13,17c-4.502,7.647-9.931,17.758-14,27c-7.409-0.808-17.696-3.835-27-6c-7.43-1.729-16.486-7.194-22-2   c15.136,3.364,30.527,6.827,49,11c-2.815,5.639-6.761,11.378-10,20c-3.916,10.422-7.546,30.895-13,34   c-13.904-4.359-29.271-9.042-43-15c-0.294,2.039-2.706,1.961-3,4c19.598,6.52,31.355,10.985,48,13c-0.2,20.313-8.676,46.466-8,73   c-3.468-2.107-1.842,1.317-3,3c19.867,3.705,22.647,2.983,34,11c15.145-4.939,34.396,3.238,44,2c3.538-0.456,6.186-3.238,11-4   c13.117-2.074,26.453-0.249,39-4c-1.221-3.553-0.309-13.815,0-20c-3.501-9.934-0.902-25.975-3-45c-34.65-2.093-74.611-2.083-109-12   c30.604,3.07,67.138,8.285,94,10c7.816,0.499,14.458-1.981,20,2c-2.632,2.942-0.105,5.142,0,8c0.101,2.734-2.022,5.365-2,8   c0.018,2.084,1.899,4.555,2,7c0.492,11.882-1.373,32.028,4,44c2.621-1.151,12.312-6.475,15-7c-0.05,0.01,1.271,2.089,2,2   c10.252-1.252,38.162-3.727,36,0c6.582-3.233,13.148,4.038,20,4c1.816-0.01,6.445-3.199,10-4c15.64-3.523,36.052-1.652,46-6   c-1.434-21.367-8.357-41.79-8-66c3.251,15.221,5.212,39.039,8,54c1.327,7.121,2.278,12.774,7,7c-4.885-19.927-5.651-33.739-9-48   c-0.979-4.173-6.461-9.937-2-15c5.05,22.311,6.613,40.249,14,62c5.621-6.005,13.158-5.773,18-11c-4.232-11.279-2.199-36.409-4-57   c-11.246,3.759-18.419,6.575-27,7c8.225-8.559,27.029-2.952,28-14c-8.251,5.8-19.572,6.132-31,9c-1.984-7.081-4.39-16.734-7-26   c-1.871-6.642-3.165-17.863-8-20c5.295,14.087,7.244,29.422,11,43c0.255,0.923-1.147,3.277-3,4c-7.067,2.759-17.158,3.054-27,4   c-17.002,1.636-41.422,2.856-45,2c-8.923-2.136-22.392,4.461-44,2c-0.001-21.497-0.438-31.808,5-53   c-0.808,16.533-3.274,30.516-4,47c2.039,0.294,1.961,2.706,4,3c18.793-1.827,38.958-0.149,72-6c-3.296,2.824,3.84,1.031,4,1   c6.187-0.3,27.184-1.185,35-5c-2.851-15.956-6.43-33.071-12-48c-10.599,3.139-14.786,1.073-24,5c-25.268-1.27-45.945,7.108-72,2   c30.477-3.286,42.9-0.818,61-3c5.209-0.628,10.218-3.115,16-4c9.912-1.518,20.4-5.014,25,0c7.788,20.074,9.237,32.386,15,48   c9.351-3.404,22.153-5.447,32-11c-2.978-7.908,2.146-19.562,3-33c1.686-3.498,11.954-12.779,5-18c-17.955,5.707-34.191,8.668-54,10   c5.542-5.227,7.794-0.437,15-4c7.971-1.167-4.655-0.965-3-1c-5.58,0.119-11.966,2.714-16,3c0.075-1.742-0.224-3.11-1-4   c14.045-3.746,39.969-1.112,56-12c-4.84-8.717-10.105-21.677-17-35c-6.687-2.795-11.174,1.502-18,3c-12.721,2.792-24.59,1.17-37,6   c7.988,13.01,14.788,23.942,16,37c-1.889-0.111-0.694-3.306-3-3c-1.259,2.549,0.93,5.833,1,8c-31.59,7.841-62.199,7.874-98,9   c-0.239-1.427-1.646-1.687-2-3c1.909-6.504,0.275-13.334,3-20c1.758,3.368-1.831,14.177,0,18c11.509,1.11,32.477,1.076,46-2   c-0.036,0.548-1.274,2.306,0,2c5.805-1.392,16.893-2.916,27-4c6.186-0.664,17.155,0.107,19-5c2.683-7.428-13.488-26.721-14-34   c-30.974-0.169-43.95,2.46-75,2c-2.34,10.094,0.383,20.175-3,23c-0.371-2.912-2.076-21.399,4-25c-1.714-1.286-3.932-2.068-4-5   C222.346,79.012,225.643,61.269,222,60.083z M216,76.083c-0.589-7.228,1.015-8.198,2-17c-9.511-1.443-7.914,15.995-28,12   c-7.786-9.333-9.627-15.413-21-23c-9.076,2.514-15.756,12.697-21,22C165.007,73.009,197.5,77.695,216,76.083z M120,50.083   c-2.251,4.874-7.225,9.031-16,9c0.857,3.19-1.574,3.093-2,5c11.261,3.398,25.995,4.483,35,6c2.262-6.416,10.687-11.966,11-17   C139.371,56.688,132.087,50.898,120,50.083z M141,71.083c3.553,1.41,7.939-7.135,11-13c2.843-0.867,6.95-5.659,6-7   C149.933,57.175,146.163,66.479,141,71.083z M132,77.083c-15.815-0.216-32.103-7.808-42,0c-11.22,8.851-17.784,21.543-26,29   c16.703,9.167,31.577,8.219,45,14C114.999,103.197,124.809,92.472,132,77.083z M513,114.083c7.003-4.82,17.604,0.952,27-3   c2.473,1.173-2.426,4.155,2,4c1.143-3.705,0.098-5.797,1-8c-11.547-7.533-21.623,2.783-28-14c-12.179-7.234-29.618-5.126-38,4   c-12.128-7.64-27.406-3.098-31,6c-5.815-2.706-13.244-3.934-20-4c-2.258,12.527-16.543,4.239-20,13c7.207,2.086,11.791,3.09,23,0   c0.102,1.122-1.453,1.557,0,2c12.481-0.668,25.909,1.702,39-2c1.752,15.666,27.884,11.851,29-2c4.38,3.76,6.563-6.769,12-8   c-0.396,5.583-3.941,7.7-9,12C504.62,116.147,513.949,110.69,513,114.083z M407,168.083c8.252-12.7,3.6-34.956,15-51   c-4.84-1.131-11.814-1.467-18-1c-4.577,0.346-13.372-0.366-16,1c-12.718,6.608-14.377,40.156-16,49c15.872,0.591,24.147,2.406,35,1   C406.444,167.08,405.865,167.893,407,168.083z M506,167.083c5.973-5.765,13.285-3.127,19-8c-1.394-15.411-3.403-29.372,14-33   c4.148,6.47,1.289,15.486,7,27c3.175-15.735-2.165-22.879-3-34C521.195,105.688,500.033,135.797,506,167.083z M430,117.083   c-6.227,15.155-8.957,31.908-9,48c12.451,1.698,27.372-1.51,37,0c0.287-10.466,1.699-28.78,6-46   C453.304,125.931,436.094,114.576,430,117.083z M60,117.083c-5.125,14.65-10.334,25.178-16,41c11.627,6.682,27.501,12.68,45,16   c2.35-13.555,12.557-33.242,17-48C89.087,125.287,76.751,118.858,60,117.083z M345,120.083c-1.119,2.078-1.078,2.119,1,1   c8.371-1.447,10.84-0.118,17-4C355.433,119.674,354.914,117.762,345,120.083z M465,167.083c0.518-17.048,1.65-22.22,4-32   c0.636-2.646,5.712-9.371,0-12c-6.088,16.078-7.473,35.619-6,44c-14.013,3.888-28.348,1.662-42,1c-2.32,1.464,1.953,3.17-2,3   c-2.955-16.655,1.972-25.99,4-36c0.762-3.761,2.355-12.437,2-17c-9.984,17.207-5.981,38.75-14,55c0.613,1.386,3.85,0.15,4,2   c-0.759,16.723-2.765,40.537,2,51c0.709-19.93-2.918-28.051,0-46c0.263-1.615-2.542-6.965,3-7c-2.112,22.59-1.665,31.509-1,52   c9.272,4.219,25.929,4.275,37,4c2.245-29.318-1.703-31.971,2-55c-13.426-1.978-20.21,2.553-36-2c17.05-0.896,26.658-1.892,41,1   c-1.234,11.428-2.623,27.519-2,42c0.232,5.409,0.534,11.85,4,15c-0.672-32.369-2.72-39.193,2-60c8.441-1.922,30.217,2.68,34-1   C484.219,168.048,480.28,169.878,465,167.083z M474,128.083c-4.021,11.135-8.471,27.788-5,38c11.092-1.371,21.376-0.986,33,1   c-0.195-12.188,3.025-34.025,11-47c-4.91,1.658-11.434,2.485-14-1C493.037,129.545,485.67,131.525,474,128.083z M540,160.083   c2.754-3.108,5.088-2.763,7-5c-4.406-0.739-4.097,3.236-7,4c0.416-11.503,4.231-21.186-5-31c-0.239,2.761-3.718,2.282-5,4   c-4.224,9.812-4.187,20.42-3,29c-5.095,4.581-19.948,4.706-21,10c7.217-2.885,16.053-8.591,21-6c-0.301,15.18-1.972,21.721,1,40   c2.628-1.207,8.599,2.455,13,0C539.366,184.843,541.598,176.25,540,160.083z M547,202.083c3.499-7.82,0.263-28.156,0-43   c-3.213-0.616-1.37,3.6-4,1c0.588,24.398-2.468,32.749,1,45C544.032,203.639,550.289,203.566,547,202.083z M505,174.083   c1.963,22.732,0.043,40.209,3,53c5.044-2.384,8.568-5.152,17-5c1.33-16.354-2.697-36.246,0-55   C516.02,168.996,511.863,171.709,505,174.083z M56,258.083c6.422-1.527,15.8-0.146,22-1c-0.192-17.965,9.325-48.552,9-73   c-14.177-1.245-30.316-8.933-46-13c-5.477,25.602-14.268,44.687-14,67c1.777-1.823,3.971,4.381,4,0c4.494,3.475,13.915,9.321,16,8   C50.432,249.651,53.264,253.819,56,258.083z M372,173.083c-2.343,24.746-3.905,42.697,2,64c7.173-3.92,29.145-8.588,37-9   c-1.314-23.483-0.368-34.533-1-52c-14.488,0.225-19.693,1.096-37,1c4.508-6.608,20.508,0.281,28-5c2.04,2.411,6.561,1.302,8,1   C402.088,170.247,383.603,172.542,372,173.083z M468,173.083c-1.83,17.166-2.532,33.132-1,53c8.438-4.701,28.159,0.513,38-1   c-0.377-7.456-1.364-36.496-3-51C498.006,172.655,476.083,173.057,468,173.083z"/>
	<path fill-rule="evenodd" clip-rule="evenodd" fill="#FFFFFF" d="M335,35.083c8.762,8.778,6.525,25.078-10,14   c-6.587,5.848-18.926,8.765-27,5c-1.961-4.121-1.009-6.044-2-8c2.942-3.724,8.452-4.881,11-9c-10.339,0.81-24.815,12.558-31-2   c-3.537-0.896-5.264,6.479-9,9c-10.319,6.965-19.699,2.7-32-2c-0.836,11.523-19.65,16.347-23,7c-2.632,1.035-3.368,3.965-6,5   c2.309,10.555-11.263,11.578-17,12c-4.355-2.312-5.557-7.776-5-15c-4.084-1.328-4.319,0.23-10-1c-1.464-2.203-3.039-4.295-3-8   c-19.791,2.154-34.493,11.105-52,1c-5.012,4.863-11.952,16.631-21,11c4.223-16.036,24.26-24.416,38-31   c25.928-5.693,33.192,2.485,59-10c0.184-0.851-0.39-0.943-1-1c8.566-2.352,43.77-11.084,59,1c14.814-2.826,29.893-2.845,40,2   c-0.616,4.809,6.864,6.531,10,10c1.322,1.463,1.367,4.702,7,6c-1.835-0.423,7.898-0.905,4,0   C321.216,29.408,327.307,33.323,335,35.083z"/>
	<path fill-rule="evenodd" clip-rule="evenodd" fill="#FFFFFF" d="M226,60.083c8.452,2.079,16.026-18.747,23-6   c14.096,2.251,17.685-3.651,31-8c4.386,9.948,11.271,20.454,14,29c-1.683-2.728-5.107,3.538-3-1c-22.952,6.216-42.349,2.031-64,6   C220.183,76.742,227.852,65.716,226,60.083z"/>
	<path fill-rule="evenodd" clip-rule="evenodd" fill="#FFFFFF" d="M282,48.083c6.438,2.042,7.726,9.156,11,16   c3.367-5.087-2.921-11.149-7-16c0.431-2.236,4.928-0.405,7-1c2.303,14.351,17.514,20.801,28,12c5.268,0.419,20.463,0.855,21-3   c-0.169-2.168,3.547-0.453,5-1c-0.165,4.723,4.537,5.683,4,8c-18.838,8.777-30.75,7.312-51,11c0.354,1.313,1.761,1.573,2,3   c19.21-2.725,32.409-3.67,49-8c-5.493,2.717-13.791,6.617-20,7c-2.939,0.182-1.165-1.7-2-1c-5.339,4.478-20.957-2.122-26,5   c-2.259-0.56,1.213-1.56-1-3c-3.484,0.294,0.084,2.706-2,3c8.241,11.773,15.423,23.958,17,36c-8.014-13.53-9.203-19.507-16-34   c-20.452,0.158-26.056,0.875-39,2c6.985-3.995,22.628-2.893,34-6C294.391,64.843,287.055,54.905,282,48.083z M301,72.083   c-1.435-2.422-5.787-5.483-4-8c-1,0-2,0-3,0C294.98,67.47,297.243,74.794,301,72.083z"/>
	<path fill-rule="evenodd" clip-rule="evenodd" fill="#FFFFFF" d="M221,80.083c0.068,2.932,2.286,3.714,4,5   c-6.076,3.601-4.371,22.088-4,25c3.383-2.825,0.66-12.906,3-23c31.05,0.46,44.026-2.169,75-2c0.512,7.279,16.683,26.572,14,34   c-1.845,5.107-12.814,4.336-19,5c-10.107,1.084-21.195,2.608-27,4c-1.274,0.306-0.036-1.452,0-2c-13.523,3.076-34.491,3.11-46,2   c-1.831-3.823,1.758-14.632,0-18c-2.725,6.666-1.091,13.496-3,20c0.354,1.313,1.761,1.573,2,3c35.801-1.126,66.41-1.159,98-9   c-0.07-2.167-2.259-5.451-1-8c2.306-0.306,1.111,2.889,3,3c-1.212-13.058-8.012-23.99-16-37c12.41-4.83,24.279-3.208,37-6   c6.826-1.498,11.313-5.795,18-3c6.895,13.323,12.16,26.283,17,35c-16.031,10.888-41.955,8.254-56,12c0.776,0.89,1.075,2.258,1,4   c4.034-0.286,10.42-2.881,16-3c-1.655,0.035,10.971-0.167,3,1c-7.206,3.563-9.458-1.227-15,4c19.809-1.332,36.045-4.293,54-10   c6.954,5.221-3.314,14.502-5,18c-0.854,13.438-5.978,25.092-3,33c-9.847,5.553-22.649,7.596-32,11   c-5.763-15.614-7.212-27.926-15-48c-4.6-5.014-15.088-1.518-25,0c-5.782,0.885-10.791,3.372-16,4c-18.1,2.182-30.523-0.286-61,3   c26.055,5.108,46.732-3.27,72-2c9.214-3.927,13.401-1.861,24-5c5.57,14.929,9.149,32.044,12,48c-7.816,3.815-28.813,4.7-35,5   c-0.16,0.031-7.296,1.824-4-1c-33.042,5.851-53.207,4.173-72,6c-2.039-0.294-1.961-2.706-4-3c0.726-16.484,3.192-30.467,4-47   c-5.438,21.192-5.001,31.503-5,53c21.608,2.461,35.077-4.136,44-2c3.578,0.856,27.998-0.364,45-2c9.842-0.946,19.933-1.241,27-4   c1.853-0.723,3.255-3.077,3-4c-3.756-13.578-5.705-28.913-11-43c4.835,2.137,6.129,13.358,8,20c2.61,9.266,5.016,18.919,7,26   c11.428-2.868,22.749-3.2,31-9c-0.971,11.048-19.775,5.441-28,14c8.581-0.425,15.754-3.241,27-7c1.801,20.591-0.232,45.721,4,57   c-4.842,5.227-12.379,4.995-18,11c-7.387-21.751-8.95-39.689-14-62c-4.461,5.063,1.021,10.827,2,15c3.349,14.261,4.115,28.073,9,48   c-4.722,5.774-5.673,0.121-7-7c-2.788-14.961-4.749-38.779-8-54c-0.357,24.21,6.566,44.633,8,66c-9.948,4.348-30.36,2.477-46,6   c-3.555,0.801-8.184,3.99-10,4c-6.852,0.038-13.418-7.233-20-4c2.162-3.727-25.748-1.252-36,0c-0.729,0.089-2.05-1.99-2-2   c-2.688,0.525-12.379,5.849-15,7c-5.373-11.972-3.508-32.118-4-44c-0.101-2.445-1.982-4.916-2-7c-0.022-2.635,2.101-5.266,2-8   c-0.105-2.858-2.632-5.058,0-8c-5.542-3.981-12.184-1.501-20-2c-26.862-1.715-63.396-6.93-94-10c34.389,9.917,74.35,9.907,109,12   c2.098,19.025-0.501,35.066,3,45c-0.309,6.185-1.221,16.447,0,20c-12.547,3.751-25.883,1.926-39,4c-4.814,0.762-7.462,3.544-11,4   c-9.604,1.238-28.855-6.939-44-2c-11.353-8.017-14.133-7.295-34-11c1.158-1.683-0.468-5.107,3-3c-0.676-26.534,7.8-52.687,8-73   c-16.645-2.015-28.402-6.48-48-13c0.294-2.039,2.706-1.961,3-4c13.729,5.958,29.096,10.641,43,15c5.454-3.105,9.084-23.578,13-34   c3.239-8.622,7.185-14.361,10-20c-18.473-4.173-33.864-7.636-49-11c5.514-5.194,14.57,0.271,22,2c9.304,2.165,19.591,5.192,27,6   c4.069-9.242,9.498-19.353,14-27c3.842-6.524,13.196-15.964,13-17c-0.618-3.269-16.174-5.979-22-7c-7.276-1.275-10.124,0.201-19-2   c15.585-4.102,30.294,7.983,46,5c1.138-0.216,0.552-0.968,0-1c5.802,0.335,12.651,3.369,18,4c12.875,1.518,25.148,0.006,41,3   c-20.438,4.095-39.161-5.013-59-3c20.741,4.931,47.253,7.078,70,8c2.31,11.659-3.148,26.523-3,41c-18.803,2.104-26.145,0.261-45-1   c-8.382-0.561-14.861-4.608-23-2c-6.127-2.897-17.447-3.015-22-4c2.119-15.539,14.75-27.069,22-41   c-8.067,4.229-12.135,15.944-18,26c-4.771,8.18-10.546,13.004-7,20c34.15,2.737,57.35,6.467,94,8c6.307-5.449,3.828-18.884,5-31   c0.694-7.174,2.971-13.265,1-19c-5.736,1.09-8.806,0.482-15,0c3.977-4.498,10.898,1.463,14-1c7.401-5.876,0.85-13.865,5-22   C225.643,61.269,222.346,79.012,221,80.083z M254,192.083c-14.298,1.01-29.557-1.58-38,3c32.907-1.674,58.704,0.122,101-4   c3.276-0.319,9.395-1.323,15-4C309.462,188.775,277.582,190.417,254,192.083z M213,193.083c-2.709,15.715,0.076,26.298,1,37   c1.089,12.611-1.622,25.142,3,33C216.098,238.751,214.899,228.123,213,193.083z M116,126.083c-10.02,16.9-14.756,32.596-20,50   c4.639,7.1,20.247,7.706,28,9c29.486,4.92,56.301,4.354,82,7c5.275-2.792,2.903-8.734,3-10c0.876-11.5,5.128-29.582,4-43   c-3.772,21.609-4.876,32.227-5,46c-7.483-0.27-13.917,2.88-22,3c0.037-0.001,1.291-1.865,0-2c-6.607-0.688-15.747,0.928-25,0   c-11.447-1.148-23.21-4.605-34-6c-4.12-0.532-9.485,1.252-13,0c-0.29-0.104,1.052-1.991,1-2c-5.825-0.962-11.394,0.854-17-3   c6.476-15.684,9.758-33.174,19-46c39.619,3.326,59.81,13.708,97,8C184.891,137.98,150.332,131.07,116,126.083z M88,233.083   c-0.938,8.901-4.221,20.563,1,23c-3.627-15.598,4.775-41.77,5-68C90.611,200.95,89.462,219.2,88,233.083z"/>
	<path fill-rule="evenodd" clip-rule="evenodd" fill="#FFFFFF" d="M148,53.083c-0.313,5.034-8.738,10.584-11,17   c-9.005-1.517-23.739-2.602-35-6c0.426-1.907,2.857-1.81,2-5c8.775,0.031,13.749-4.126,16-9   C132.087,50.898,139.371,56.688,148,53.083z"/>
	<path fill-rule="evenodd" clip-rule="evenodd" fill="#FFFFFF" d="M158,51.083c0.95,1.341-3.157,6.133-6,7   c-3.061,5.865-7.447,14.41-11,13C146.163,66.479,149.933,57.175,158,51.083z"/>
	<path fill-rule="evenodd" clip-rule="evenodd" d="M217,263.083c-4.622-7.858-1.911-20.389-3-33c-0.924-10.702-3.709-21.285-1-37   C214.899,228.123,216.098,238.751,217,263.083z"/>
	<path fill-rule="evenodd" clip-rule="evenodd" d="M214,137.083c-37.19,5.708-57.381-4.674-97-8c-9.242,12.826-12.524,30.316-19,46   c5.606,3.854,11.175,2.038,17,3c0.052,0.009-1.29,1.896-1,2c3.515,1.252,8.88-0.532,13,0c10.79,1.395,22.553,4.852,34,6   c9.253,0.928,18.393-0.688,25,0c1.291,0.135,0.037,1.999,0,2c8.083-0.12,14.517-3.27,22-3c0.124-13.773,1.228-24.391,5-46   c1.128,13.418-3.124,31.5-4,43c-0.097,1.266,2.275,7.208-3,10c-25.699-2.646-52.514-2.08-82-7c-7.753-1.294-23.361-1.9-28-9   c5.244-17.404,9.98-33.1,20-50C150.332,131.07,184.891,137.98,214,137.083z"/>
	<path fill-rule="evenodd" clip-rule="evenodd" fill="#FFFFFF" d="M109,120.083c-13.423-5.781-28.297-4.833-45-14   c8.216-7.457,14.78-20.149,26-29c9.897-7.808,26.185-0.216,42,0C124.809,92.472,114.999,103.197,109,120.083z"/>
	<path fill-rule="evenodd" clip-rule="evenodd" fill="#FFFFFF" d="M500,114.083c5.059-4.3,8.604-6.417,9-12   c-5.437,1.231-7.62,11.76-12,8c-1.116,13.851-27.248,17.666-29,2c-13.091,3.702-26.519,1.332-39,2c-1.453-0.443,0.102-0.878,0-2   c-11.209,3.09-15.793,2.086-23,0c3.457-8.761,17.742-0.473,20-13c6.756,0.066,14.185,1.294,20,4c3.594-9.098,18.872-13.64,31-6   c8.382-9.126,25.821-11.234,38-4c6.377,16.783,16.453,6.467,28,14c-0.902,2.203,0.143,4.295-1,8c-4.426,0.155,0.473-2.827-2-4   c-9.396,3.952-19.997-1.82-27,3C513.949,110.69,504.62,116.147,500,114.083z"/>
	<path fill-rule="evenodd" clip-rule="evenodd" fill="#FFFFFF" d="M407,167.083c-10.853,1.406-19.128-0.409-35-1   c1.623-8.844,3.282-42.392,16-49c2.628-1.366,11.423-0.654,16-1c6.186-0.467,13.16-0.131,18,1c-11.4,16.044-6.748,38.3-15,51   C405.865,167.893,406.444,167.08,407,167.083z"/>
	<path fill-rule="evenodd" clip-rule="evenodd" fill="#FFFFFF" d="M363,117.083c-6.16,3.882-8.629,2.553-17,4   c-2.078,1.119-2.119,1.078-1-1C354.914,117.762,355.433,119.674,363,117.083z"/>
	<path fill-rule="evenodd" clip-rule="evenodd" fill="#FFFFFF" d="M501,169.083c-3.783,3.68-25.559-0.922-34,1   c-4.72,20.807-2.672,27.631-2,60c-3.466-3.15-3.768-9.591-4-15c-0.623-14.481,0.766-30.572,2-42c-14.342-2.892-23.95-1.896-41-1   c15.79,4.553,22.574,0.022,36,2c-3.703,23.029,0.245,25.682-2,55c-11.071,0.275-27.728,0.219-37-4c-0.665-20.491-1.112-29.41,1-52   c-5.542,0.035-2.737,5.385-3,7c-2.918,17.949,0.709,26.07,0,46c-4.765-10.463-2.759-34.277-2-51c-0.15-1.85-3.387-0.614-4-2   c8.019-16.25,4.016-37.793,14-55c0.355,4.563-1.238,13.239-2,17c-2.028,10.01-6.955,19.345-4,36c3.953,0.17-0.32-1.536,2-3   c13.652,0.662,27.987,2.888,42-1c-1.473-8.381-0.088-27.922,6-44c5.712,2.629,0.636,9.354,0,12c-2.35,9.78-3.482,14.952-4,32   C480.28,169.878,484.219,168.048,501,169.083z"/>
	<path fill-rule="evenodd" clip-rule="evenodd" fill="#FFFFFF" d="M541,205.083c-4.401,2.455-10.372-1.207-13,0   c-2.972-18.279-1.301-24.82-1-40c-4.947-2.591-13.783,3.115-21,6c1.052-5.294,15.905-5.419,21-10c-1.187-8.58-1.224-19.188,3-29   c1.282-1.718,4.761-1.239,5-4c9.231,9.814,5.416,19.497,5,31c2.903-0.764,2.594-4.739,7-4c-1.912,2.237-4.246,1.892-7,5   C541.598,176.25,539.366,184.843,541,205.083z"/>
	<path fill-rule="evenodd" clip-rule="evenodd" fill="#FFFFFF" d="M544,205.083c-3.468-12.251-0.412-20.602-1-45   c2.63,2.6,0.787-1.616,4-1c0.263,14.844,3.499,35.18,0,43C550.289,203.566,544.032,203.639,544,205.083z"/>
	<path fill-rule="evenodd" clip-rule="evenodd" fill="#FFFFFF" d="M47,246.083c-2.085,1.321-11.506-4.525-16-8   c-0.029,4.381-2.223-1.823-4,0c-0.268-22.313,8.523-41.398,14-67c15.684,4.067,31.823,11.755,46,13c0.325,24.448-9.192,55.035-9,73   c-6.2,0.854-15.578-0.527-22,1C53.264,253.819,50.432,249.651,47,246.083z"/>
	<path fill-rule="evenodd" clip-rule="evenodd" fill="#FFFFFF" d="M409,173.083c-1.439,0.302-5.96,1.411-8-1   c-7.492,5.281-23.492-1.608-28,5c17.307,0.096,22.512-0.775,37-1c0.632,17.467-0.314,28.517,1,52c-7.855,0.412-29.827,5.08-37,9   c-5.905-21.303-4.343-39.254-2-64C383.603,172.542,402.088,170.247,409,173.083z"/>
	<path fill-rule="evenodd" clip-rule="evenodd" d="M94,188.083c-0.225,26.23-8.627,52.402-5,68c-5.221-2.437-1.938-14.099-1-23   C89.462,219.2,90.611,200.95,94,188.083z"/>
	<path fill-rule="evenodd" clip-rule="evenodd" d="M448,265.083c-15.466-2.986-26.367,7.683-41,7c-6.577-12.326-24.188-14.9-33-3   c-9.104-1.844-20.84,1.501-31,4c8.809-9.312,21.662-4.19,27-10c13.923-5.522,29.292-4.031,41,5c0.249-0.666-0.475-1.185-1-1   C420.285,263.468,439.936,261.076,448,265.083z"/>
	<path fill-rule="evenodd" clip-rule="evenodd" d="M337,289.083c4.476-6.109,29.598-12.317,32-2c-11.404-5.678-26.587-3.381-34,8   c-13.1-7.137-18.716-9.689-30-8c-5.578,0.835-15.444,7.408-22,4c-2.235,2.321-8.719,1.501-10,2c-12.814-13.871-38.204-10.806-52,2   c-1.567-0.354,0.875-1.761-1-2c12.916-12.037,36.845-15.962,54-7c0.395,4.139,8.042,1.119,11,5   C307.37,283.576,319.15,281.252,337,289.083z"/>
	<path fill-rule="evenodd" clip-rule="evenodd" d="M62,293.083c8.402-5.751,18.802-1.797,29-1c12.746,0.996,21.023-4.964,29,1   c-19.84,4.072-35-4.081-52,5c-5.698-3.096-9.845-3.22-9-7c-8.667-3.031-30.323-2.232-37,4c3.526-6.542,10.571-7.926,16-9   c-1.928,0.381,9.054,1.165,8,1C51.92,288.009,56.865,288.942,62,293.083z"/>
</g>
</svg>