<?xml version="1.0" encoding="UTF-8" standalone="no"?>
<!-- Created with Inkscape (http://www.inkscape.org/) -->
<svg xmlns:dc="http://purl.org/dc/elements/1.1/" xmlns:cc="http://creativecommons.org/ns#" xmlns:rdf="http://www.w3.org/1999/02/22-rdf-syntax-ns#" xmlns:svg="http://www.w3.org/2000/svg" xmlns="http://www.w3.org/2000/svg" xmlns:sodipodi="http://sodipodi.sourceforge.net/DTD/sodipodi-0.dtd" xmlns:inkscape="http://www.inkscape.org/namespaces/inkscape" width="528.36816" height="809.54962" id="svg4772" sodipodi:version="0.32" inkscape:version="0.45+devel" sodipodi:docname="girafe-yeux-blancs.svg" inkscape:output_extension="org.inkscape.output.svg.inkscape" inkscape:export-filename="/Users/mdespont/Desktop/bug/CreÌations/girafe/girafe.png" inkscape:export-xdpi="89" inkscape:export-ydpi="89" version="1.0">
  <defs id="defs4774">
    <inkscape:perspective sodipodi:type="inkscape:persp3d" id="perspective2490" inkscape:vp_x="-50 : 600 : 1" inkscape:vp_y="0 : 1000 : 0" inkscape:vp_z="700 : 600 : 1" inkscape:persp3d-origin="300 : 400 : 1"/>
    <inkscape:perspective sodipodi:type="inkscape:persp3d" id="perspective4780" inkscape:vp_x="-50 : 600 : 1" inkscape:vp_y="0 : 1000 : 0" inkscape:vp_z="700 : 600 : 1" inkscape:persp3d-origin="300 : 400 : 1"/>
  </defs>
  <sodipodi:namedview id="base" pagecolor="#ffffff" bordercolor="#666666" borderopacity="1.0" inkscape:pageopacity="0.0" inkscape:pageshadow="2" inkscape:zoom="0.65563751" inkscape:cx="58.665015" inkscape:cy="549.08343" inkscape:document-units="px" inkscape:current-layer="layer1" showgrid="false" inkscape:window-width="1237" inkscape:window-height="922" inkscape:window-x="64" inkscape:window-y="22"/>
  <metadata id="metadata4777">
    <rdf:RDF>
      <cc:Work rdf:about="">
        <dc:format>image/svg+xml</dc:format>
        <dc:type rdf:resource="http://purl.org/dc/dcmitype/StillImage"/>
      </cc:Work>
    </rdf:RDF>
  </metadata>
  <g inkscape:label="Calque 1" inkscape:groupmode="layer" id="layer1" transform="translate(-91.4076, -35.5593)">
    <g id="g5680" transform="translate(-1.52523, 32.0299)">
      <g transform="translate(206.232, -182.054)" id="g5343">
        <g id="g5345" style="fill: rgb(255, 178, 0); fill-opacity: 0.941176; stroke: rgb(255, 178, 0); stroke-opacity: 1;" transform="translate(-2.29348, 10.628)">
          <path sodipodi:nodetypes="ccc" id="path5347" d="M 326.62414,826.5518 L 326.62414,826.5518 C 325.7794,872.06644 311.1381,905.57674 326.04437,964.57262" style="fill: rgb(255, 178, 0); fill-opacity: 0.941176; fill-rule: evenodd; stroke: rgb(255, 178, 0); stroke-width: 9.87068; stroke-linecap: butt; stroke-linejoin: miter; stroke-miterlimit: 4; stroke-dasharray: none; stroke-opacity: 1;"/>
          <path sodipodi:nodetypes="cccc" id="path5349" d="M 309.61033,796.02728 C 325.17486,819.3514 320.68543,845.37177 326.48635,868.69589 L 337.28133,820.53569 L 309.61033,796.02728 z" style="fill: rgb(255, 178, 0); fill-opacity: 0.941176; fill-rule: evenodd; stroke: rgb(255, 178, 0); stroke-width: 1px; stroke-linecap: butt; stroke-linejoin: miter; stroke-opacity: 1;"/>
        </g>
      </g>
      <g transform="translate(-11.1514, -174.351)" id="g5338">
        <g id="g5334" style="fill: rgb(255, 178, 0); fill-opacity: 0.941176; stroke: rgb(255, 178, 0); stroke-opacity: 1;" transform="translate(-2.29348, 10.628)">
          <path sodipodi:nodetypes="ccc" id="path5330" d="M 326.62414,826.5518 L 326.62414,826.5518 C 325.7794,872.06644 311.1381,905.57674 326.04437,964.57262" style="fill: rgb(255, 178, 0); fill-opacity: 0.941176; fill-rule: evenodd; stroke: rgb(255, 178, 0); stroke-width: 9.87068; stroke-linecap: butt; stroke-linejoin: miter; stroke-miterlimit: 4; stroke-dasharray: none; stroke-opacity: 1;"/>
          <path sodipodi:nodetypes="cccc" id="path5332" d="M 309.61033,796.02728 C 325.17486,819.3514 320.68543,845.37177 326.48635,868.69589 L 337.28133,820.53569 L 309.61033,796.02728 z" style="fill: rgb(255, 178, 0); fill-opacity: 0.941176; fill-rule: evenodd; stroke: rgb(255, 178, 0); stroke-width: 1px; stroke-linecap: butt; stroke-linejoin: miter; stroke-opacity: 1;"/>
        </g>
      </g>
      <path sodipodi:nodetypes="ccsscccsc" id="path4790" d="M 427.82108,510.45713 C 535.7894,506.57414 573.66912,554.39711 568.13784,606.43078 C 568.13784,657.95182 504.64749,697.12754 427.82108,697.12754 C 350.99467,697.12754 288.64279,655.31336 288.64279,603.79233 M 288.64279,603.79233 C 288.64279,578.03182 197.67492,142.55544 189.45888,121.03692 C 199.06991,111.69626 195.1542,109.2745 205.70215,105.71657 C 213.29077,155.16285 300.86485,456.21935 316.77378,488.75227 C 336.89026,529.88944 389.40788,510.45713 427.82108,510.45713" style="fill: rgb(255, 234, 0); fill-opacity: 1; stroke: none; stroke-width: 0.652983; stroke-linejoin: round; stroke-miterlimit: 4; stroke-opacity: 1;"/>
      <g transform="translate(-6.10093, -193.705)" id="g5554">
        <g id="g5537">
          <path sodipodi:nodetypes="csssssssc" id="path5206" d="M 198.26274,331.02363 C 188.42357,356.21179 194.68866,390.03243 187.58134,408.22709 C 180.20013,427.12292 148.99341,430.51258 132.78222,424.24562 C 116.57102,417.97868 93.048383,394.07419 100.42959,375.17832 C 106.88282,358.65821 139.62006,336.06022 149.45924,310.87204 C 159.29842,285.68387 155.74503,269.78101 163.12625,250.88517 C 169.15078,235.46241 190.90744,231.48987 207.11864,237.75683 C 223.32984,244.02378 238.62201,260.41175 232.16834,276.93306 C 224.78711,295.82891 208.10193,305.83546 198.26274,331.02363 z" style="fill: rgb(255, 234, 0); fill-opacity: 1; stroke: none; stroke-width: 0.735685; stroke-linejoin: round; stroke-miterlimit: 4; stroke-opacity: 1;"/>
          <path transform="matrix(1.2531, 0.509392, -0.450474, 1.07916, -11.9032, -290.329)" d="M 290.17559,499.46521 A 6.2915864,5.3383155 0 1 1 277.59242,499.46521 A 6.2915864,5.3383155 0 1 1 290.17559,499.46521 z" sodipodi:ry="5.3383155" sodipodi:rx="6.2915864" sodipodi:cy="499.46521" sodipodi:cx="283.884" id="path5239" style="fill: rgb(0, 0, 0); fill-opacity: 0.941176; stroke: rgb(0, 0, 0); stroke-width: 1; stroke-linejoin: round; stroke-miterlimit: 4; stroke-dasharray: none; stroke-opacity: 0.941176;" sodipodi:type="arc"/>
          <path transform="matrix(1.2531, 0.509392, -0.450474, 1.07916, 31.4064, -272.242)" sodipodi:type="arc" style="fill: rgb(0, 0, 0); fill-opacity: 0.941176; stroke: rgb(0, 0, 0); stroke-width: 1; stroke-linejoin: round; stroke-miterlimit: 4; stroke-dasharray: none; stroke-opacity: 0.941176;" id="path5241" sodipodi:cx="283.884" sodipodi:cy="499.46521" sodipodi:rx="6.2915864" sodipodi:ry="5.3383155" d="M 290.17559,499.46521 A 6.2915864,5.3383155 0 1 1 277.59242,499.46521 A 6.2915864,5.3383155 0 1 1 290.17559,499.46521 z"/>
          <g id="g5427">
            <path style="fill: rgb(255, 234, 0); fill-opacity: 0.941176; fill-rule: evenodd; stroke: none; stroke-width: 1.63684px; stroke-linecap: butt; stroke-linejoin: miter; stroke-opacity: 1;" d="M 168.26658,245.47211 C 152.48072,242.88416 136.70685,226.98519 136.04925,209.28281 C 156.44878,203.97602 174.08845,221.11591 179.29989,237.96944" id="path5254" sodipodi:nodetypes="ccc"/>
            <path style="fill: rgb(96, 67, 35); fill-opacity: 1; fill-rule: evenodd; stroke: none; stroke-width: 0.910465px; stroke-linecap: butt; stroke-linejoin: miter; stroke-opacity: 1;" d="M 174.37464,239.92345 C 173.62021,240.52526 171.49529,242.43675 170.33961,243.16949 C 161.86617,241.67779 146.11926,226.85149 145.76629,216.64785 C 156.71623,213.589 171.57727,230.20908 174.37464,239.92345 z" id="path5256" sodipodi:nodetypes="cccc"/>
          </g>
          <g id="g5431">
            <path style="fill: rgb(255, 234, 0); fill-opacity: 0.941176; fill-rule: evenodd; stroke: none; stroke-width: 1.63684px; stroke-linecap: butt; stroke-linejoin: miter; stroke-opacity: 1;" d="M 231.72647,263.88444 C 244.25109,253.93332 266.62513,252.93611 280.17654,264.34515 C 270.39798,283.01819 245.85115,284.56323 229.86817,277.09697" id="path5264" sodipodi:nodetypes="ccc"/>
            <path style="fill: rgb(60, 43, 23); fill-opacity: 0.941176; fill-rule: evenodd; stroke: none; stroke-width: 0.910465px; stroke-linecap: butt; stroke-linejoin: miter; stroke-opacity: 1;" d="M 231.73091,272.13647 C 231.79221,271.17337 231.8046,268.31523 232.0386,266.96699 C 238.83744,261.6944 260.39899,259.99632 268.1925,266.59178 C 263.09936,276.75631 240.80472,276.59294 231.73091,272.13647 z" id="path5266" sodipodi:nodetypes="cccc"/>
          </g>
          <g id="g5529">
            <path sodipodi:type="arc" id="path5280" sodipodi:cx="215.16129" sodipodi:cy="327.87802" sodipodi:rx="10" sodipodi:ry="10" style="fill: rgb(255, 234, 0); fill-opacity: 1; stroke: none; stroke-width: 1; stroke-linejoin: round; stroke-miterlimit: 4; stroke-dasharray: none; stroke-opacity: 0.941176;" d="M 225.16129,327.87802 A 10,10 0 1 1 205.16129,327.87802 A 10,10 0 1 1 225.16129,327.87802 z" transform="translate(-3.18789, -120.644)"/>
            <path style="fill: none; fill-opacity: 0.75; fill-rule: evenodd; stroke: rgb(255, 234, 0); stroke-width: 7.11; stroke-linecap: butt; stroke-linejoin: miter; stroke-miterlimit: 4; stroke-dasharray: none; stroke-opacity: 1;" d="M 211.47908,206.91948 L 202.49155,236.39857" id="path5286" sodipodi:nodetypes="cc"/>
          </g>
          <g id="g5533">
            <path sodipodi:type="arc" id="path5282" sodipodi:cx="215.16129" sodipodi:cy="327.87802" sodipodi:rx="10" sodipodi:ry="10" style="fill: rgb(255, 234, 0); fill-opacity: 1; stroke: none; stroke-width: 1; stroke-linejoin: round; stroke-miterlimit: 4; stroke-dasharray: none; stroke-opacity: 0.941176;" d="M 225.16129,327.87802 A 10,10 0 1 1 205.16129,327.87802 A 10,10 0 1 1 225.16129,327.87802 z" transform="translate(21.348, -106.084)"/>
            <path style="fill: none; fill-opacity: 0.75; fill-rule: evenodd; stroke: rgb(255, 234, 0); stroke-width: 7; stroke-linecap: butt; stroke-linejoin: miter; stroke-miterlimit: 4; stroke-dasharray: none; stroke-opacity: 1;" d="M 236.00062,221.7633 L 218.14424,243.93368 L 218.14424,243.93368 L 218.14424,243.93368 L 218.14424,243.93368" id="path5288"/>
          </g>
        </g>
        <path sodipodi:type="arc" style="fill: rgb(255, 255, 255); fill-opacity: 1; stroke: none; stroke-width: 1; stroke-linejoin: round; stroke-miterlimit: 4; stroke-dasharray: none; stroke-opacity: 1;" id="path5217" sodipodi:cx="382.5928" sodipodi:cy="401.91223" sodipodi:rx="15.607424" sodipodi:ry="26.152981" d="M 398.20023,401.91223 A 15.607424,26.152981 0 1 1 366.98538,401.91223 A 15.607424,26.152981 0 1 1 398.20023,401.91223 z" transform="matrix(0.702061, 0.285392, -0.20416, 0.489087, -12.7795, -18.1733)"/>
        <path sodipodi:type="arc" style="fill: rgb(0, 0, 0); fill-opacity: 1; stroke: rgb(0, 0, 0); stroke-width: 1; stroke-linejoin: round; stroke-miterlimit: 4; stroke-dasharray: none; stroke-opacity: 1;" id="path5219" sodipodi:cx="384.7019" sodipodi:cy="411.61417" sodipodi:rx="9.2800903" sodipodi:ry="13.920135" d="M 393.98199,411.61417 A 9.2800903,13.920135 0 1 1 375.42181,411.61417 A 9.2800903,13.920135 0 1 1 393.98199,411.61417 z" transform="matrix(0.583628, 0.237248, -0.147759, 0.353972, 10.2813, 53.7577)"/>
        <path sodipodi:type="arc" style="fill: rgb(255, 255, 255); fill-opacity: 1; stroke: none; stroke-width: 1; stroke-linejoin: round; stroke-miterlimit: 4; stroke-dasharray: none; stroke-opacity: 1;" id="path5221" sodipodi:cx="382.5928" sodipodi:cy="401.91223" sodipodi:rx="15.607424" sodipodi:ry="26.152981" d="M 398.20023,401.91223 A 15.607424,26.152981 0 1 1 366.98538,401.91223 A 15.607424,26.152981 0 1 1 398.20023,401.91223 z" transform="matrix(0.702061, 0.285392, -0.20416, 0.489087, 11.3141, -8.17953)"/>
        <path sodipodi:type="arc" style="fill: rgb(0, 0, 0); fill-opacity: 1; stroke: rgb(0, 0, 0); stroke-width: 1; stroke-linejoin: round; stroke-miterlimit: 4; stroke-dasharray: none; stroke-opacity: 1;" id="path5223" sodipodi:cx="384.7019" sodipodi:cy="411.61417" sodipodi:rx="9.2800903" sodipodi:ry="13.920135" d="M 393.98199,411.61417 A 9.2800903,13.920135 0 1 1 375.42181,411.61417 A 9.2800903,13.920135 0 1 1 393.98199,411.61417 z" transform="matrix(0.583628, 0.237248, -0.147759, 0.353972, 35.5189, 62.2262)"/>
      </g>
      <path sodipodi:nodetypes="ccc" id="path5322" d="M 334.5533,670.12288 L 334.5533,670.12288 C 333.70856,715.63752 319.06726,749.14782 333.97353,808.14374" style="fill: none; fill-opacity: 0.75; fill-rule: evenodd; stroke: rgb(255, 234, 0); stroke-width: 9.87068; stroke-linecap: butt; stroke-linejoin: miter; stroke-miterlimit: 4; stroke-dasharray: none; stroke-opacity: 1;"/>
      <path sodipodi:nodetypes="ccc" id="path5324" d="M 550.58339,642.78415 L 550.58339,642.78415 C 541.35755,731.34672 545.11968,771.49959 551.5479,801.71523" style="fill: none; fill-opacity: 0.75; fill-rule: evenodd; stroke: rgb(255, 234, 0); stroke-width: 10; stroke-linecap: butt; stroke-linejoin: miter; stroke-miterlimit: 4; stroke-dasharray: none; stroke-opacity: 1;"/>
      <path sodipodi:nodetypes="cccc" id="path5326" d="M 565.43162,624.53846 C 553.51586,658.50039 550.04432,679.83709 549.51296,713.98967 C 542.12859,695.93205 546.86285,671.05063 529.02142,658.22155 L 565.43162,624.53846 z" style="fill: rgb(255, 234, 0); fill-opacity: 1; fill-rule: evenodd; stroke: none; stroke-width: 1px; stroke-linecap: butt; stroke-linejoin: miter; stroke-opacity: 1;"/>
      <path sodipodi:nodetypes="cccc" id="path5328" d="M 308.37221,642.29462 C 323.93674,665.61874 328.61459,688.94285 334.41551,712.26697 L 336.04322,667.88153 L 308.37221,642.29462 z" style="fill: rgb(255, 234, 0); fill-opacity: 0.941176; fill-rule: evenodd; stroke: none; stroke-width: 1px; stroke-linecap: butt; stroke-linejoin: miter; stroke-opacity: 1;"/>
      <path sodipodi:nodetypes="cc" id="path5353" d="M 558.27183,563.4918 C 594.62124,624.80197 570.69444,655.37149 608.10536,664.43554" style="fill: none; fill-opacity: 0.75; fill-rule: evenodd; stroke: rgb(255, 234, 0); stroke-width: 5; stroke-linecap: butt; stroke-linejoin: miter; stroke-miterlimit: 4; stroke-dasharray: none; stroke-opacity: 1;"/>
      <path sodipodi:nodetypes="cccccccc" id="path5359" d="M 608.32407,662.12794 C 607.97538,663.11137 606.87152,665.63951 606.64725,666.93093 C 606.61363,671.17749 610.14218,673.9637 613.82298,677.36907 C 613.1136,671.54749 614.15287,670.3701 611.33747,667.28148 C 615.46933,672.45912 617.22585,670.00284 621.30104,669.42889 C 618.14063,664.06915 620.42074,663.73615 613.8544,664.07896 C 619.34066,664.1098 619.4323,661.95625 619.96455,657.37502 C 615.85069,657.92741 611.6279,657.99872 608.32407,662.12794 z" style="fill: rgb(65, 29, 17); fill-opacity: 1; fill-rule: evenodd; stroke: none; stroke-width: 1px; stroke-linecap: butt; stroke-linejoin: miter; stroke-opacity: 1;"/>
      <g transform="translate(-9.1514, -172.351)" id="g5474">
        <path style="fill: rgb(60, 43, 23); fill-opacity: 1; stroke: none; stroke-width: 5; stroke-linejoin: round; stroke-miterlimit: 4; stroke-opacity: 1;" d="M 240.56788,381.71463 C 227.76822,381.71463 216.93137,371.49917 216.93137,357.80649 C 216.93137,344.11381 220.53908,321.35639 227.16557,331.37755 C 233.65943,356.29122 233.81483,356.79773 240.56788,381.71463 z" id="path5363" sodipodi:nodetypes="cscc"/>
        <path style="fill: rgb(60, 43, 23); fill-opacity: 1; fill-rule: evenodd; stroke: none; stroke-width: 1px; stroke-linecap: butt; stroke-linejoin: miter; stroke-opacity: 1;" d="M 224.32855,406.60873 L 233.49582,448.13108 C 241.23377,439.22371 254.86268,425.81784 246.16823,413.88862 C 239.90351,408.27145 233.09095,404.37605 224.32855,406.60873 z" id="path5370" sodipodi:nodetypes="cccc"/>
        <path style="fill: rgb(60, 43, 23); fill-opacity: 1; fill-rule: evenodd; stroke: none; stroke-width: 1px; stroke-linecap: butt; stroke-linejoin: miter; stroke-opacity: 1;" d="M 258.03176,444.08669 L 274.47892,500.70808 C 270.18088,516.91742 263.76718,521.04879 259.11026,520.39075 C 252.41179,516.70193 251.48005,510.18349 249.40374,501.51696 C 245.38651,482.5584 247.67214,459.22725 258.03176,444.08669 z" id="path5372" sodipodi:nodetypes="ccccc"/>
        <path style="fill: rgb(60, 43, 23); fill-opacity: 1; fill-rule: evenodd; stroke: none; stroke-width: 1px; stroke-linecap: butt; stroke-linejoin: miter; stroke-opacity: 1;" d="M 252.90887,540.88231 L 263.15464,590.2238 C 275.80819,602.34604 279.2422,587.41495 277.98406,582.67428 L 270.16491,556.52059 C 265.60225,546.55042 259.6235,542.2446 252.90887,540.88231 z" id="path5374" sodipodi:nodetypes="ccccc"/>
        <path style="fill: rgb(60, 43, 23); fill-opacity: 1; fill-rule: evenodd; stroke: none; stroke-width: 1px; stroke-linecap: butt; stroke-linejoin: miter; stroke-opacity: 1;" d="M 295.50972,570.67594 L 313.17021,626.35364 C 306.25059,647.95637 293.94835,655.16689 283.64619,635.65573 C 280.09863,625.99414 279.64698,616.33256 281.48919,606.67097 C 282.95959,591.52783 285.19867,576.27118 295.50972,570.67594 z" id="path5376" sodipodi:nodetypes="ccccc"/>
        <path style="fill: rgb(60, 43, 23); fill-opacity: 1; fill-rule: evenodd; stroke: none; stroke-width: 1px; stroke-linecap: butt; stroke-linejoin: miter; stroke-opacity: 1;" d="M 283.37657,693.2208 C 288.7638,718.81621 293.53368,744.28815 297.12748,769.52487 C 307.73071,780.16281 319.69553,777.64344 331.36994,771.14262 C 341.29784,760.00192 344.8513,745.40839 346.19935,729.62027 C 346.63251,707.36585 334.69917,694.3863 322.47229,681.6269 C 304.44482,666.48063 288.59633,659.62661 283.37657,693.2208 z" id="path5378" sodipodi:nodetypes="cccccc"/>
        <path style="fill: rgb(60, 43, 23); fill-opacity: 1; fill-rule: evenodd; stroke: none; stroke-width: 1px; stroke-linecap: butt; stroke-linejoin: miter; stroke-opacity: 1;" d="M 358.04846,852.93796 C 380.29144,863.02721 402.53443,868.56931 424.77741,868.95291 C 462.28338,833.62046 456.1626,802.02785 413.20732,813.34404 C 383.21377,825.44381 373.47253,834.50372 358.04846,852.93796 z" id="path5380" sodipodi:nodetypes="cccc"/>
        <path style="fill: rgb(60, 43, 23); fill-opacity: 1; fill-rule: evenodd; stroke: none; stroke-width: 1px; stroke-linecap: butt; stroke-linejoin: miter; stroke-opacity: 1;" d="M 353.88117,766.48608 C 331.25536,773.103 325.04478,790.36763 328.98774,814.21833 C 337.75297,843.03037 347.16536,847.10102 363.30548,837.24684 C 410.13032,801.46196 424.96753,768.35196 353.88117,766.48608 z" id="path5382" sodipodi:nodetypes="cccc"/>
        <path style="fill: rgb(60, 43, 23); fill-opacity: 1; fill-rule: evenodd; stroke: none; stroke-width: 1px; stroke-linecap: butt; stroke-linejoin: miter; stroke-opacity: 1;" d="M 374.44472,701.93989 C 334.55034,723.62121 369.26199,772.36737 404.94938,764.76323 C 479.66424,745.08369 438.42283,678.04383 374.44472,701.93989 z" id="path5384" sodipodi:nodetypes="ccc"/>
        <path style="fill: rgb(60, 43, 23); fill-opacity: 1; fill-rule: evenodd; stroke: none; stroke-width: 1px; stroke-linecap: butt; stroke-linejoin: miter; stroke-opacity: 1;" d="M 481.21103,864.73538 C 503.35014,860.40609 519.93771,853.18034 533.83157,844.54918 C 528.80585,775.88628 499.39362,795.74976 468.62786,820.52676 C 444.98469,840.72123 469.26234,854.54836 481.21103,864.73538 z" id="path5386" sodipodi:nodetypes="cccc"/>
        <path style="fill: rgb(60, 43, 23); fill-opacity: 1; fill-rule: evenodd; stroke: none; stroke-width: 1px; stroke-linecap: butt; stroke-linejoin: miter; stroke-opacity: 1;" d="M 456.35264,807.86694 C 536.08403,800.21906 500.55522,729.56751 488.76384,730.08005 C 449.11686,717.90256 384.66257,807.35435 456.35264,807.86694 z" id="path5388" sodipodi:nodetypes="ccc"/>
        <path style="fill: rgb(60, 43, 23); fill-opacity: 1; fill-rule: evenodd; stroke: none; stroke-width: 1px; stroke-linecap: butt; stroke-linejoin: miter; stroke-opacity: 1;" d="M 437.74189,682.87447 C 438.30977,701.59965 448.83523,711.72511 465.19608,716.81091 C 482.84063,721.10647 495.11732,716.27667 505.61476,708.42213 L 520.10447,693.55111 C 495.40377,685.17361 468.19248,681.18966 437.74189,682.87447 z" id="path5390" sodipodi:nodetypes="ccccc"/>
        <path style="fill: rgb(60, 43, 23); fill-opacity: 1; fill-rule: evenodd; stroke: none; stroke-width: 1px; stroke-linecap: butt; stroke-linejoin: miter; stroke-opacity: 1;" d="M 528.87456,697.7455 C 507.51954,717.99908 500.91685,775.10072 535.46848,775.72072 C 551.074,777.07848 562.05632,769.18984 569.03484,753.29359 C 574.11437,727.18136 543.02458,698.68395 528.87456,697.7455 z" id="path5392" sodipodi:nodetypes="cccc"/>
        <path style="fill: rgb(60, 43, 23); fill-opacity: 1; fill-rule: evenodd; stroke: none; stroke-width: 1px; stroke-linecap: butt; stroke-linejoin: miter; stroke-opacity: 1;" d="M 566.24184,824.99077 C 552.14854,821.83123 540.86328,821.59512 536.24933,802.20083 C 534.34987,788.55146 541.93148,780.00525 557.46778,779.38776 L 577.07641,777.90878 C 578.88866,792.35053 567.47228,813.23453 566.24184,824.99077 z" id="path5394" sodipodi:nodetypes="ccccc"/>
      </g>
    </g>
  </g>
</svg>