<?xml version="1.0" encoding="UTF-8" standalone="no"?>
<!-- Created with Inkscape (http://www.inkscape.org/) -->
<svg
   xmlns:svg="http://www.w3.org/2000/svg"
   xmlns="http://www.w3.org/2000/svg"
   version="1.0"
   width="120"
   height="245"
   id="svg12694">
  <defs
     id="defs12696" />
  <g
     id="layer1">
    <g
       transform="translate(-131.229,-176.8738)"
       id="g15368">
      <path
         d="M 181.96864,199.68838 L 149.06764,201.78226 L 134.44071,202.49272 L 151.67822,203.39799 L 136.10748,206.79611 L 150.63234,205.14289 L 170.26168,202.49272 L 194.68506,200.86449 L 192.51409,195.43707 L 181.96864,199.68838 z "
         style="fill:#e20909;fill-opacity:1;fill-rule:evenodd;stroke:black;stroke-width:2;stroke-linecap:butt;stroke-linejoin:miter;stroke-miterlimit:4;stroke-dasharray:none;stroke-opacity:1"
         id="path9140" />
      <path
         d="M 200.65522,417.96123 C 205.33581,414.34146 211.43013,414.49163 212.0528,400.05075 C 211.79557,385.40872 197.47456,388.01345 194.15105,377.16368 C 196.51536,360.70328 234.7551,370.29515 238.64715,335.46447 C 238.03955,315.92263 227.70068,300.43549 192.51409,295.30157 C 177.10632,292.27046 176.92579,275.83577 192.51409,273.04916 C 236.25298,268.06882 246.79776,247.93202 248.4165,225.83061 C 248.41348,207.76278 237.33938,192.17094 216.93748,183.49675 C 203.91167,180.60213 190.88587,180.60213 177.86006,183.49675 L 157.23587,194.35159 L 159.94958,199.77901 L 175.14635,199.23627 L 188.17216,199.77901 L 187.08667,202.49272 L 169.71894,203.5782 L 164.29152,207.37739 C 178.22189,209.18333 192.15226,208.99902 206.08264,207.92013 C 225.31302,217.69133 227.73875,235.41721 207.16812,248.08303 L 178.4028,255.68142 C 160.56425,262.72358 157.04124,269.12486 154.52216,283.36125 C 155.84224,302.02869 164.85717,308.72683 176.23184,313.21205 C 200.0065,317.91321 216.4859,321.03215 215.85199,334.37898 C 217.37586,345.26253 207.76131,348.81336 189.80039,355.54591 C 182.08076,360.35 178.26072,361.79405 177.67624,378.34107 C 180.85242,393.52109 188.98773,392.77574 195.31972,396.44411 C 204.22071,400.59608 203.1406,410.96266 200.65522,417.96123 z "
         style="fill:#5ab532;fill-opacity:1;fill-rule:evenodd;stroke:black;stroke-width:3;stroke-linecap:butt;stroke-linejoin:miter;stroke-miterlimit:4;stroke-dasharray:none;stroke-opacity:1"
         id="path9138" />
      <path
         d="M -355.89721 91.890808 A 15.473791 4.4210835 0 1 1  -386.84479,91.890808 A 15.473791 4.4210835 0 1 1  -355.89721 91.890808 z"
         transform="matrix(0.467484,0,0,0.467484,365.0741,147.5642)"
         style="fill:none;fill-opacity:1;fill-rule:evenodd;stroke:black;stroke-width:4.27822113;stroke-linejoin:miter;stroke-miterlimit:4;stroke-dasharray:none;stroke-opacity:1"
         id="path10916" />
    </g>
  </g>
</svg>
