<?xml version="1.0" encoding="UTF-8" standalone="no"?>
<!-- Created with Inkscape (http://www.inkscape.org/) -->
<svg
   xmlns:dc="http://purl.org/dc/elements/1.1/"
   xmlns:cc="http://creativecommons.org/ns#"
   xmlns:rdf="http://www.w3.org/1999/02/22-rdf-syntax-ns#"
   xmlns:svg="http://www.w3.org/2000/svg"
   xmlns="http://www.w3.org/2000/svg"
   xmlns:sodipodi="http://sodipodi.sourceforge.net/DTD/sodipodi-0.dtd"
   xmlns:inkscape="http://www.inkscape.org/namespaces/inkscape"
   id="svg2"
   sodipodi:version="0.32"
   inkscape:version="0.46"
   width="900"
   height="454.5"
   version="1.0"
   sodipodi:docname="Rainbow-diagram-ROYGBIV.svg"
   inkscape:output_extension="org.inkscape.output.svg.inkscape">
  <metadata
     id="metadata7">
    <rdf:RDF>
      <cc:Work
         rdf:about="">
        <dc:format>image/svg+xml</dc:format>
        <dc:type
           rdf:resource="http://purl.org/dc/dcmitype/StillImage" />
      </cc:Work>
    </rdf:RDF>
  </metadata>
  <defs
     id="defs5">
    <inkscape:perspective
       sodipodi:type="inkscape:persp3d"
       inkscape:vp_x="0 : 526.18109 : 1"
       inkscape:vp_y="0 : 1000 : 0"
       inkscape:vp_z="744.09448 : 526.18109 : 1"
       inkscape:persp3d-origin="372.04724 : 350.78739 : 1"
       id="perspective9" />
    <inkscape:perspective
       id="perspective2463"
       inkscape:persp3d-origin="372.04724 : 350.78739 : 1"
       inkscape:vp_z="744.09448 : 526.18109 : 1"
       inkscape:vp_y="0 : 1000 : 0"
       inkscape:vp_x="0 : 526.18109 : 1"
       sodipodi:type="inkscape:persp3d" />
    <inkscape:perspective
       id="perspective2505"
       inkscape:persp3d-origin="372.04724 : 350.78739 : 1"
       inkscape:vp_z="744.09448 : 526.18109 : 1"
       inkscape:vp_y="0 : 1000 : 0"
       inkscape:vp_x="0 : 526.18109 : 1"
       sodipodi:type="inkscape:persp3d" />
    <inkscape:perspective
       id="perspective2547"
       inkscape:persp3d-origin="372.04724 : 350.78739 : 1"
       inkscape:vp_z="744.09448 : 526.18109 : 1"
       inkscape:vp_y="0 : 1000 : 0"
       inkscape:vp_x="0 : 526.18109 : 1"
       sodipodi:type="inkscape:persp3d" />
    <inkscape:perspective
       id="perspective2443"
       inkscape:persp3d-origin="372.04724 : 350.78739 : 1"
       inkscape:vp_z="744.09448 : 526.18109 : 1"
       inkscape:vp_y="0 : 1000 : 0"
       inkscape:vp_x="0 : 526.18109 : 1"
       sodipodi:type="inkscape:persp3d" />
    <inkscape:perspective
       id="perspective2485"
       inkscape:persp3d-origin="372.04724 : 350.78739 : 1"
       inkscape:vp_z="744.09448 : 526.18109 : 1"
       inkscape:vp_y="0 : 1000 : 0"
       inkscape:vp_x="0 : 526.18109 : 1"
       sodipodi:type="inkscape:persp3d" />
    <inkscape:perspective
       id="perspective2527"
       inkscape:persp3d-origin="372.04724 : 350.78739 : 1"
       inkscape:vp_z="744.09448 : 526.18109 : 1"
       inkscape:vp_y="0 : 1000 : 0"
       inkscape:vp_x="0 : 526.18109 : 1"
       sodipodi:type="inkscape:persp3d" />
  </defs>
  <sodipodi:namedview
     inkscape:window-height="719"
     inkscape:window-width="1024"
     inkscape:pageshadow="2"
     inkscape:pageopacity="0.0"
     guidetolerance="10.0"
     gridtolerance="10.0"
     objecttolerance="10.0"
     borderopacity="1.0"
     bordercolor="#666666"
     pagecolor="#ffffff"
     id="base"
     showgrid="false"
     inkscape:zoom="0.44039367"
     inkscape:cx="642.06983"
     inkscape:cy="519.80771"
     inkscape:window-x="0"
     inkscape:window-y="0"
     inkscape:current-layer="svg2" />
  <g
     id="g2531"
     transform="matrix(0.5625,0,0,0.5625,87.144665,74.442816)">
    <path
       id="path2384"
       d="M 126.1015,653.55709 C 127.63071,617.33449 131.27639,585.51469 136.64217,561.55709 C 137.75082,556.60709 139.34538,549.40709 140.18565,545.55709 C 143.85176,528.75939 151.50433,503.86209 159.85703,481.55709 C 167.43606,461.31809 169.67617,456.14829 178.2728,439.05703 C 182.83739,429.98203 186.57829,422.18811 186.58591,421.73721 C 186.59354,421.2863 187.87849,419.0363 189.44136,416.73721 C 191.00424,414.43811 194.87544,407.83203 198.04405,402.05703 C 204.36524,390.53623 214.17632,375.3535 220.3387,367.55588 C 222.5125,364.80523 225.09978,360.99082 226.08821,359.0794 C 232.28396,347.09814 275.28682,299.44007 294.01184,283.80279 C 308.5752,271.64091 336.01363,249.59821 340.09978,246.77797 C 355.0487,236.46028 361.35,232.24556 365.11632,230.04527 C 367.48104,228.6638 370.2447,226.81814 371.25779,225.9438 C 372.27089,225.06946 377.59978,221.95033 383.09978,219.01241 C 388.59978,216.07448 396.02478,211.79209 399.59978,209.496 C 403.17478,207.1999 407.22478,204.98382 408.59978,204.57139 C 409.97478,204.15895 415.37478,201.66607 420.59978,199.03165 C 425.82478,196.39723 433.47478,192.82902 437.59978,191.10229 C 441.72478,189.37556 447.12478,187.08965 449.59978,186.02249 C 461.21551,181.01408 492.60862,170.25056 507.59978,166.13648 C 533.96788,158.90019 566.9583,152.84926 601.59978,148.89551 C 617.03105,147.13428 674.19319,147.13613 689.59978,148.89835 C 712.59877,151.52901 752.41922,158.10862 765.59982,161.45598 C 803.87102,171.17543 809.38422,172.9604 844.43522,186.97979 C 853.97402,190.79501 896.02942,211.13585 897.92432,212.85069 C 898.93802,213.7681 904.17092,217.00233 909.55302,220.03788 C 921.80392,226.9475 936.26152,236.30057 942.96752,241.65478 C 945.79032,243.90854 949.66422,246.5603 951.57632,247.54757 C 955.59702,249.62365 977.25622,266.78572 986.19022,274.9746 C 989.53992,278.04494 994.16442,281.88988 996.46692,283.51891 C 998.76932,285.14795 1007.5036,293.54273 1015.8765,302.17399 C 1041.6741,328.76784 1049.4412,337.66505 1060.5204,353.31329 C 1069.6747,366.2428 1070.7017,367.67818 1074.2685,372.52838 C 1084.9831,387.09817 1112.124,434.78882 1116.0764,445.99089 C 1116.8853,448.28359 1118.2083,451.37389 1119.0164,452.85819 C 1119.8245,454.34259 1121.6089,458.25699 1122.9816,461.55709 C 1124.3544,464.85709 1126.8002,470.70709 1128.4168,474.55709 C 1133.8534,487.50399 1146.3742,527.41979 1150.0607,543.55709 C 1158.2182,579.26549 1159.1992,584.44239 1160.6723,599.55709 C 1163.4011,627.55339 1164.5604,643.87399 1164.5788,654.55709 L 1164.5996,666.55709 L 1141.5996,666.55709 L 1118.5997,666.55709 L 1118.5869,655.55709 C 1118.5584,631.09819 1112.7841,584.88419 1106.5295,559.05709 C 1105.3973,554.38209 1103.7794,547.63209 1102.934,544.05709 C 1102.0887,540.48209 1099.4746,531.70709 1097.1248,524.55709 C 1094.7751,517.40709 1091.6189,507.74979 1090.1112,503.09649 C 1088.6035,498.44319 1086.7736,493.71819 1086.0447,492.59649 C 1085.3158,491.47479 1083.5175,487.18209 1082.0484,483.05709 C 1075.4443,464.51369 1050.0734,417.29944 1037.7131,400.5505 C 1035.1758,397.1123 1031.5248,391.97754 1029.5998,389.13993 C 1023.3162,379.87739 1011.4077,364.68519 1005.6272,358.55703 C 1002.5144,355.25703 998.78082,350.92702 997.33032,348.93478 C 993.56272,343.76023 966.57022,317.42194 957.09982,309.67931 C 936.31562,292.68699 922.02202,281.69352 917.78102,279.43858 C 915.22472,278.07939 912.22572,276.15326 911.11652,275.15829 C 908.18222,272.52614 867.55082,248.433 864.59982,247.57536 C 863.22482,247.17575 861.06062,246.1928 859.79052,245.39103 C 854.91782,242.31505 840.62042,235.22122 836.94662,234.05676 C 834.83092,233.38612 831.53062,231.93907 829.61272,230.8411 C 825.37332,228.41406 796.68462,217.89009 783.59982,213.96201 C 761.21752,207.24285 742.28582,202.80728 722.59982,199.6701 C 698.29381,195.79668 691.61252,195.08403 667.84978,193.83025 C 643.09349,192.52404 610.08595,193.68077 590.09978,196.55495 C 584.04978,197.42499 574.37478,198.82748 568.59978,199.6716 C 553.99088,201.80694 527.20601,207.90165 514.09978,212.07269 C 510.79978,213.12291 505.17101,214.86023 501.59139,215.9334 C 492.12162,218.77245 467.83505,227.84149 462.59978,230.49358 C 460.12478,231.74737 456.41615,233.32068 454.35837,233.98983 C 444.33682,237.24867 387.94256,268.42156 380.09978,275.03755 C 378.99978,275.96548 375.87204,277.99633 373.14925,279.55054 C 362.0834,285.86709 342.76073,301.28317 320.84045,321.28375 C 299.35719,340.88558 269.17298,375.76299 258.7576,393.01959 C 256.9194,396.06518 254.37176,399.68203 253.09618,401.05703 C 246.61887,408.03916 218.59415,458.54749 212.59184,474.05709 C 211.42115,477.08209 209.89597,480.45709 209.20255,481.55709 C 207.59536,484.10659 196.57846,514.88039 193.27172,526.05709 C 185.1575,553.48279 179.37964,579.15869 176.61944,600.05709 C 174.22467,618.18869 172.62483,639.15059 172.61257,652.55709 L 172.59978,666.55709 L 149.07623,666.55709 L 125.55267,666.55709 L 126.1015,653.55709 z"
       style="fill:#30009b" />
    <path
       style="fill:#000083"
       d="M 80.589871,661.05709 C 80.655901,637.45779 85.727461,582.65619 89.128501,568.79149 C 89.906371,565.62049 91.012641,559.99549 91.586891,556.29149 C 92.926631,547.65019 95.107871,538.10079 98.607151,525.55709 C 100.14147,520.05709 101.70199,513.98209 102.075,512.05709 C 103.58302,504.27459 119.98664,457.16199 123.92402,449.30479 C 125.23256,446.69359 126.87399,442.79536 127.57168,440.64213 C 130.98089,430.12042 151.86881,390.3121 165.5762,368.21291 C 181.61718,342.35148 193.23061,326.17408 209.0762,307.6178 C 214.5762,301.17691 221.16591,293.42123 223.72003,290.38294 C 229.19905,283.86526 261.52217,252.12024 266.5762,248.29325 C 268.50119,246.83561 273.90119,242.226 278.5762,238.04966 C 283.25119,233.87333 288.65119,229.38198 290.5762,228.06889 C 292.50119,226.7558 297.4512,222.92139 301.5762,219.54797 C 305.7012,216.17455 311.1012,211.97639 313.5762,210.21872 C 323.8209,202.94324 336.39845,194.47037 341.20032,191.60972 C 344.0186,189.93077 348.74359,186.94308 351.70032,184.9704 C 365.5474,175.73187 404.3851,155.50224 421.0762,148.83415 C 426.02619,146.85663 434.51753,143.4082 439.94582,141.17098 C 453.61349,135.53797 490.61031,123.16105 497.44067,121.93664 C 500.5402,121.38102 506.00119,120.10309 509.5762,119.09679 C 513.15119,118.09049 519.67621,116.49054 524.07621,115.54136 C 528.4762,114.59217 535.67621,113.00989 540.0762,112.02519 C 547.92691,110.26823 574.84731,106.46127 597.5762,103.89382 C 612.9881,102.1529 677.99571,102.11933 693.5762,103.84425 C 713.161,106.01249 742.7821,110.12422 749.0762,111.54824 C 752.3762,112.29485 759.5762,113.88606 765.0762,115.08426 C 770.5762,116.28246 778.0012,118.07939 781.5762,119.07743 C 785.1512,120.07548 790.1012,121.20594 792.5762,121.58956 C 801.267,122.93663 845.5346,138.27981 861.5762,145.50501 C 865.7012,147.36292 870.1287,149.19021 871.4151,149.56566 C 879.5783,151.94817 921.9071,174.30579 942.3961,187.05709 C 961.6478,199.03829 978.2826,210.60636 990.5762,220.56206 C 993.6012,223.0118 1000.3512,228.43384 1005.5762,232.61105 C 1014.8014,239.9863 1055.5428,277.63706 1060.5761,283.43871 C 1061.9511,285.0236 1066.274,289.7486 1070.1825,293.93871 C 1077.1808,301.4413 1087.9638,314.4851 1094.3218,323.13923 C 1096.1069,325.56905 1099.0319,329.41226 1100.8218,331.6797 C 1107.2002,339.75992 1113.6915,349.06881 1116.9228,354.76938 C 1118.7271,357.95262 1121.7888,363.03209 1123.7265,366.05709 C 1125.6641,369.08209 1128.817,374.25709 1130.7329,377.55709 C 1132.6487,380.85709 1136.1273,386.78385 1138.4629,390.72767 C 1145.2998,402.27192 1165.8543,446.20199 1172.4677,463.40429 C 1180.944,485.45249 1191.3674,519.74689 1195.6133,539.55709 C 1196.7921,545.05709 1198.1463,550.90709 1198.6225,552.55709 C 1200.4074,558.74119 1206.7497,605.20939 1208.1082,622.05709 C 1208.8844,631.68209 1209.5326,645.63209 1209.5486,653.05709 L 1209.5778,666.55709 L 1187.077,666.27059 L 1164.5761,665.98409 L 1164.5553,654.27059 C 1164.5367,643.83959 1163.3641,627.41479 1160.6488,599.55709 C 1159.1757,584.44239 1158.1947,579.26549 1150.0372,543.55709 C 1146.5245,528.18059 1133.8553,487.48449 1129.0237,476.05709 C 1127.7447,473.03209 1125.3003,467.18209 1123.5916,463.05709 C 1121.883,458.93209 1119.8187,454.34259 1119.0042,452.85829 C 1118.1898,451.37389 1116.8617,448.28359 1116.0528,445.99089 C 1112.1004,434.78887 1084.9595,387.09823 1074.2449,372.52844 C 1070.6781,367.67823 1069.6511,366.24286 1060.4968,353.31335 C 1049.4176,337.66511 1041.6505,328.7679 1015.8529,302.17405 C 1007.48,293.54279 998.7457,285.14801 996.4433,283.51897 C 994.1408,281.88994 989.5163,278.045 986.1666,274.97466 C 977.2326,266.78578 955.5734,249.6237 951.5527,247.54762 C 949.6406,246.56035 945.7667,243.90859 942.9439,241.65483 C 936.2379,236.30062 921.7803,226.94755 909.5294,220.03793 C 904.1473,217.00238 898.9144,213.76815 897.9007,212.85074 C 896.0058,211.1359 853.9504,190.79506 844.4116,186.97984 C 809.3607,172.96045 803.8474,171.17548 765.5762,161.45603 C 752.3956,158.10867 712.5752,151.52906 689.5762,148.8984 C 674.16961,147.13618 617.00751,147.13433 601.5762,148.89556 C 566.9347,152.84931 533.94431,158.90024 507.5762,166.13653 C 492.58503,170.25061 461.19193,181.01413 449.5762,186.02254 C 447.1012,187.0897 441.7012,189.37561 437.5762,191.10234 C 433.4512,192.82907 425.8012,196.39728 420.5762,199.0317 C 415.3512,201.66612 409.9512,204.159 408.5762,204.57144 C 407.2012,204.98387 403.15119,207.19995 399.5762,209.49605 C 396.00119,211.79214 388.5762,216.07453 383.0762,219.01246 C 377.5762,221.95038 372.24731,225.06951 371.23421,225.94385 C 370.22111,226.81819 367.45746,228.66385 365.09273,230.04532 C 361.32642,232.24561 355.02511,236.46033 340.0762,246.77802 C 335.99005,249.59826 308.55162,271.64097 293.98826,283.80285 C 275.26324,299.44012 232.26038,347.0982 226.06463,359.07946 C 225.0762,360.99088 222.48891,364.80529 220.31512,367.55593 C 214.15274,375.35356 204.34165,390.53629 198.02046,402.05709 C 194.85186,407.83209 190.98066,414.43817 189.41778,416.73727 C 187.8549,419.03636 186.56995,421.28636 186.56233,421.73727 C 186.5547,422.18817 182.81381,429.98209 178.24921,439.05709 C 169.65258,456.14839 167.41248,461.31809 159.83345,481.55709 C 151.48075,503.86209 143.82819,528.75949 140.16208,545.55709 C 139.32181,549.40709 137.72689,556.60709 136.61783,561.55709 C 131.56933,584.08949 126.65759,624.50269 126.59095,644.05709 C 126.57503,648.73209 126.27661,655.57849 125.92784,659.27129 L 125.29369,665.98549 L 102.93407,666.27129 L 80.574471,666.55709 L 80.589871,661.05709 z"
       id="path2465" />
    <path
       style="fill:#009bfe"
       d="M 35.108709,655.55709 C 35.200329,627.82319 41.314029,574.38329 48.3795,539.55709 C 54.112279,511.29979 62.883149,481.65639 75.979289,446.27659 C 85.164919,421.46123 103.74802,382.47005 116.833,360.55709 C 120.44566,354.50709 125.64815,345.73209 128.39408,341.05709 C 131.14001,336.38209 134.38248,331.43209 135.59957,330.05709 C 136.81667,328.68209 141.02804,322.83209 144.95819,317.05709 C 148.88833,311.28209 154.33503,303.63209 157.06197,300.05709 C 159.78891,296.48209 163.47529,291.53209 165.25392,289.05709 C 167.03255,286.58209 177.89762,274.20709 189.39851,261.55709 C 208.68973,240.33838 235.94956,214.10044 254.10573,199.27552 C 257.66333,196.37066 264.3991,190.86092 269.0741,187.03167 C 282.31857,176.18322 285.86978,173.57275 296.3576,166.97575 C 301.73853,163.59106 308.17422,159.1417 310.65914,157.08828 C 313.14406,155.03486 318.64149,151.42295 322.87564,149.0618 C 327.10979,146.70066 335.9741,141.5694 342.5741,137.659 C 355.1658,130.19861 381.60419,116.78137 401.0741,107.9708 C 411.83486,103.10131 417.00942,101.06215 444.21016,90.972009 C 454.11524,87.297709 489.58556,76.936009 502.0741,74.068619 C 505.0991,73.374079 511.1741,71.924579 515.5741,70.847519 C 531.74367,66.889429 564.97769,61.506209 582.5741,59.994919 C 589.1741,59.428069 599.2991,58.558079 605.0741,58.061599 C 618.65184,56.894319 671.50136,56.894619 685.0741,58.062049 C 690.8491,58.558779 701.1991,59.439309 708.0741,60.018789 C 714.94912,60.598259 726.19912,62.007569 733.07412,63.150579 C 739.94912,64.293579 749.39912,65.850219 754.07412,66.609759 C 758.74912,67.369309 765.94912,68.865389 770.07412,69.934389 C 774.19912,71.003389 779.37412,72.183559 781.57412,72.556989 C 793.89422,74.648189 841.95532,89.079829 854.07412,94.327059 C 856.54912,95.398689 861.49912,97.288409 865.07412,98.526439 C 874.81042,101.89815 905.18922,115.03275 908.24202,117.19055 C 909.70932,118.22771 914.11272,120.43926 918.02742,122.10511 C 926.43402,125.68243 934.57152,130.00961 949.57412,138.88037 C 955.62412,142.45762 964.39912,147.63113 969.07412,150.37706 C 973.74912,153.12299 978.69912,156.36546 980.07412,157.58255 C 981.44912,158.79965 987.29912,163.01847 993.07412,166.95771 C 1006.581,176.17108 1012.8553,180.78372 1019.3379,186.26592 C 1022.2177,188.7014 1026.599,192.07101 1029.074,193.75392 C 1031.549,195.43684 1036.724,199.68455 1040.574,203.19329 C 1044.424,206.70202 1050.6346,212.21515 1054.3754,215.44469 C 1076.7644,234.77375 1114.9955,275.6102 1128.9085,295.05709 C 1130.6793,297.53209 1134.3583,302.48209 1137.0844,306.05709 C 1143.6295,314.64043 1152.5466,327.60681 1158.9195,337.80709 C 1161.7545,342.34459 1166.4121,349.76959 1169.2697,354.30709 C 1172.1273,358.84459 1175.8778,365.25709 1177.6041,368.55709 C 1191.9823,396.04339 1205.1058,423.19269 1207.0902,429.55709 C 1207.7762,431.75709 1210.485,438.73209 1213.1099,445.05709 C 1219.0614,459.39759 1231.0751,495.24719 1234.3896,508.55709 C 1239.3212,528.35969 1242.0802,540.71449 1243.5455,549.55709 C 1244.3658,554.50709 1245.4506,560.58209 1245.9565,563.05709 C 1247.1915,569.10089 1251.7845,606.73319 1253.0353,621.05709 C 1253.5877,627.38209 1254.2736,640.20709 1254.5597,649.55709 L 1255.0799,666.55709 L 1232.0769,666.27119 L 1209.0739,665.98539 L 1209.0456,652.77119 C 1209.03,645.50349 1208.3822,631.68209 1207.606,622.05709 C 1206.2475,605.20939 1199.9052,558.74119 1198.1204,552.55709 C 1197.6441,550.90709 1196.2899,545.05709 1195.1112,539.55709 C 1190.8652,519.74689 1180.4419,485.45249 1171.9655,463.40429 C 1165.6973,447.09969 1144.6163,401.83079 1138.7403,392.05709 C 1136.9217,389.03209 1133.486,383.18209 1131.1055,379.05709 C 1128.7249,374.93209 1125.1851,369.08209 1123.2392,366.05709 C 1121.2934,363.03209 1118.2249,357.95262 1116.4206,354.76938 C 1113.1893,349.06881 1106.698,339.75992 1100.3197,331.6797 C 1098.5298,329.41226 1095.6047,325.56905 1093.8197,323.13923 C 1087.4616,314.4851 1076.6786,301.4413 1069.6803,293.93871 C 1065.7718,289.7486 1061.4489,285.0236 1060.0739,283.43871 C 1055.0407,277.63706 1014.2992,239.9863 1005.0741,232.61105 C 999.84902,228.43384 993.09912,223.0118 990.07412,220.56206 C 964.60572,199.93694 926.40402,176.25302 889.41302,158.15513 C 880.52442,153.80637 872.19942,149.94111 870.91302,149.56566 C 869.62662,149.19021 865.19912,147.36292 861.07412,145.50501 C 845.03252,138.27981 800.76482,122.93663 792.07412,121.58956 C 789.59912,121.20594 784.64912,120.07548 781.07412,119.07743 C 777.49912,118.07939 770.07412,116.28246 764.57412,115.08426 C 759.07412,113.88606 751.87412,112.29485 748.57412,111.54824 C 742.28002,110.12422 712.65889,106.01249 693.0741,103.84425 C 677.49365,102.11933 612.48601,102.1529 597.0741,103.89382 C 574.34525,106.46127 547.42477,110.26823 539.5741,112.02519 C 535.1741,113.00989 527.9741,114.59217 523.5741,115.54136 C 519.1741,116.49054 512.6491,118.09049 509.0741,119.09679 C 505.4991,120.10309 500.03811,121.38102 496.93858,121.93664 C 490.10822,123.16105 453.1114,135.53797 439.44373,141.17098 C 434.01543,143.4082 425.5241,146.85663 420.5741,148.83415 C 403.883,155.50224 365.04531,175.73187 351.19823,184.9704 C 348.2415,186.94308 343.5165,189.93077 340.69823,191.60972 C 335.89636,194.47037 323.31881,202.94324 313.0741,210.21872 C 310.5991,211.97639 305.1991,216.17455 301.0741,219.54797 C 296.9491,222.92139 291.9991,226.7558 290.0741,228.06889 C 288.1491,229.38198 282.7491,233.87333 278.0741,238.04966 C 273.3991,242.226 267.9991,246.83561 266.0741,248.29325 C 261.02007,252.12024 228.69696,283.86526 223.21793,290.38294 C 220.66382,293.42123 214.0741,301.17691 208.5741,307.6178 C 197.53781,320.54205 194.10529,324.92385 186.30544,336.04497 C 166.80316,363.85154 150.64675,391.1344 136.20855,420.64213 C 131.8798,429.4889 127.76727,438.4889 127.06959,440.64213 C 126.3719,442.79536 124.73046,446.69359 123.42192,449.30479 C 119.48454,457.16199 103.08092,504.27459 101.57291,512.05709 C 101.1999,513.98209 99.639369,520.05709 98.105049,525.55709 C 94.605779,538.10079 92.424529,547.65019 91.084799,556.29149 C 90.510549,559.99549 89.404269,565.62049 88.626399,568.79149 C 85.247619,582.56549 80.153589,637.44449 80.088629,660.77059 L 80.074109,665.98409 L 57.573239,666.27059 L 35.072369,666.55709 L 35.108709,655.55709 z"
       id="path2507" />
    <path
       style="fill:#00bc00"
       d="M -10.031397,655.05709 C -9.9659967,621.23299 -3.0067867,559.24499 3.9458433,530.55709 C 5.0122033,526.15709 6.3521433,519.85709 6.9235033,516.55709 C 8.6814333,506.40369 16.184203,480.37459 23.929963,457.55709 C 33.659903,428.89456 42.407343,407.41362 54.590823,382.26371 C 58.132703,374.95236 61.440993,367.89091 61.942593,366.57161 C 63.499163,362.47753 91.064003,314.68617 93.243533,312.30268 C 94.377363,311.06275 97.587223,306.26953 100.37657,301.65108 C 107.55077,289.77243 129.74695,260.79605 145.20204,243.13292 C 168.39022,216.63188 193.49878,191.36505 211.44811,176.46928 C 215.29811,173.27424 221.43774,167.87755 225.09174,164.47663 C 231.80845,158.22512 240.89843,151.09873 254.96424,141.05709 C 259.2015,138.03209 263.9688,134.52292 265.55823,133.25894 C 284.60117,118.11523 348.55581,81.374199 375.44811,70.128789 C 380.94811,67.828879 389.49811,63.992889 394.44811,61.604379 C 406.32273,55.874539 461.84,37.359609 483.94811,31.756249 C 501.04252,27.423629 506.11251,26.367989 530.19811,22.126339 C 536.66061,20.988249 547.05764,19.144639 553.30263,18.029429 C 559.54761,16.914229 570.46011,15.555669 577.55263,15.010419 C 584.64514,14.465169 595.84811,13.591399 602.44811,13.068699 C 617.9462,11.841299 671.95002,11.841299 687.44811,13.068699 C 694.04811,13.591399 705.25108,14.465169 712.34359,15.010419 C 719.4361,15.555669 730.4611,16.934459 736.8436,18.074389 C 743.2261,19.214329 752.4981,20.848599 757.4481,21.706119 C 790.981,27.515189 814.1266,33.247969 843.4481,43.006799 C 881.4341,55.649399 893.2163,59.979069 899.4481,63.585489 C 901.6481,64.858659 907.4981,67.498729 912.4481,69.452319 C 930.0157,76.385589 977.3254,101.82147 995.4481,114.07692 C 999.2981,116.68048 1006.7231,121.64562 1011.948,125.11056 C 1017.1731,128.57551 1023.8634,133.24346 1026.8154,135.48378 C 1029.7675,137.7241 1034.5625,141.13209 1037.4711,143.05709 C 1044.5581,147.74749 1057.8728,158.2819 1065.3582,165.12081 C 1068.7076,168.18086 1075.6081,174.17192 1080.6928,178.43429 C 1097.4724,192.50038 1133.951,229.91969 1147.1534,246.60897 C 1149.7413,249.88044 1154.3821,255.70709 1157.466,259.55709 C 1160.5501,263.40709 1164.925,269.03209 1167.1882,272.05709 C 1169.4513,275.08209 1173.1355,279.63068 1175.3754,282.16507 C 1181.3881,288.96829 1200.2957,317.57567 1211.1542,336.29838 C 1220.9206,353.13831 1239.1687,389.2392 1244.6463,402.55709 C 1256.3007,430.89226 1261.6285,445.02879 1267.4478,463.05709 C 1274.3526,484.44739 1284.6215,524.01269 1287.9518,542.05709 C 1289.119,548.38209 1290.6789,556.70709 1291.418,560.55709 C 1294.5901,577.08079 1298.6589,620.51829 1299.5674,647.55709 L 1300.2059,666.55709 L 1277.7223,666.27129 L 1255.2389,665.98549 L 1254.5995,657.77129 C 1254.2476,653.25349 1253.9615,645.05709 1253.9636,639.55709 C 1253.9656,634.05709 1253.4949,625.05709 1252.9177,619.55709 C 1251.0481,601.74459 1246.7749,567.67899 1245.8305,563.05709 C 1245.3246,560.58209 1244.2398,554.50709 1243.4196,549.55709 C 1241.9542,540.71449 1239.1952,528.35969 1234.2637,508.55709 C 1230.9491,495.24719 1218.9353,459.39759 1212.984,445.05709 C 1210.359,438.73209 1207.6502,431.75709 1206.9642,429.55709 C 1204.9797,423.19269 1191.8563,396.04339 1177.4781,368.55709 C 1175.7519,365.25709 1172.0013,358.84459 1169.1436,354.30709 C 1166.2861,349.76959 1161.6285,342.34459 1158.7936,337.80709 C 1152.4206,327.60681 1143.5035,314.64043 1136.9585,306.05709 C 1134.2323,302.48209 1130.5533,297.53209 1128.7826,295.05709 C 1114.8696,275.6102 1076.6385,234.77375 1054.2494,215.44469 C 1050.5086,212.21515 1044.2981,206.70202 1040.448,203.19329 C 1036.5981,199.68455 1031.4231,195.43684 1028.948,193.75392 C 1026.4731,192.07101 1022.0918,188.7014 1019.2118,186.26592 C 1012.7294,180.78372 1006.4551,176.17108 992.9481,166.95771 C 987.1731,163.01847 981.3231,158.79965 979.9481,157.58255 C 978.5731,156.36546 973.6231,153.12299 968.9481,150.37706 C 964.2731,147.63113 955.4981,142.45762 949.4481,138.88037 C 934.4455,130.00961 926.308,125.68243 917.9014,122.10511 C 913.9867,120.43926 909.5833,118.22771 908.116,117.19055 C 905.0632,115.03275 874.6844,101.89814 864.9481,98.526429 C 861.3731,97.288399 856.4231,95.398679 853.9481,94.327049 C 841.8293,89.079819 793.7682,74.648179 781.4481,72.556979 C 779.2481,72.183549 774.0731,71.003379 769.9481,69.934379 C 765.8231,68.865379 758.6231,67.369299 753.9481,66.609749 C 749.2731,65.850209 739.8231,64.293569 732.9481,63.150569 C 726.0731,62.007559 714.8231,60.598249 707.94811,60.018779 C 701.07311,59.439299 690.72311,58.558769 684.94811,58.062039 C 671.37537,56.894609 618.52585,56.894309 604.94811,58.061589 C 599.17311,58.558069 589.04811,59.428059 582.44811,59.994909 C 564.8517,61.506199 531.61768,66.889419 515.44811,70.847509 C 511.04811,71.924569 504.97311,73.374069 501.94811,74.068609 C 489.45957,76.935999 453.98925,87.297699 444.08417,90.971999 C 416.88343,101.06214 411.70887,103.1013 400.94811,107.97079 C 381.4782,116.78137 355.03981,130.19861 342.44811,137.659 C 335.84811,141.5694 326.9838,146.70066 322.74965,149.0618 C 318.5155,151.42295 313.01807,155.03486 310.53315,157.08828 C 308.04823,159.1417 301.61254,163.59106 296.23161,166.97575 C 285.74379,173.57275 282.19258,176.18322 268.94811,187.03167 C 264.27311,190.86092 257.53734,196.37066 253.97974,199.27552 C 235.82357,214.10044 208.56374,240.33838 189.27252,261.55709 C 177.77163,274.20709 166.90656,286.58209 165.12793,289.05709 C 163.3493,291.53209 159.66292,296.48209 156.93598,300.05709 C 154.20904,303.63209 148.76234,311.28209 144.83219,317.05709 C 140.90204,322.83209 136.69067,328.68209 135.47357,330.05709 C 134.25648,331.43209 131.01401,336.38209 128.26808,341.05709 C 125.52215,345.73209 120.31966,354.50709 116.707,360.55709 C 87.384583,409.66233 60.167253,480.83329 48.253504,539.55709 C 41.221163,574.21999 35.074463,627.81919 34.983583,655.27059 L 34.948113,665.98409 L 12.447243,666.27059 L -10.053627,666.55709 L -10.031397,655.05709 z"
       id="path2549" />
    <path
       style="fill:#fef600"
       d="M -55.048012,654.05709 C -54.984752,626.33559 -50.109981,572.50389 -45.222621,545.55609 C -38.830151,510.30939 -19.176081,438.71744 -9.8086412,416.55707 C -8.1812012,412.70707 -5.3095712,405.73207 -3.4272412,401.05707 C 7.2509288,374.53655 26.237689,335.76984 38.318319,315.82201 C 42.227109,309.36772 46.843559,301.71772 48.577089,298.82201 C 58.929329,281.52951 88.427509,240.63248 105.42521,220.00634 C 121.4271,200.58857 163.26612,157.93465 180.92521,143.03582 C 185.05021,139.55559 191.12521,134.15515 194.42521,131.03484 C 197.72521,127.91453 204.25021,122.57814 208.92521,119.17621 C 213.60021,115.77428 221.02521,110.11531 225.42521,106.60073 C 232.70695,100.78431 246.96619,90.878209 265.42521,78.812139 C 293.90891,60.193269 349.13015,30.724459 369.85646,23.082429 C 374.25672,21.459999 379.64961,19.218009 381.84066,18.100209 C 387.94465,14.986189 415.94037,4.795989 429.92521,0.597849 C 436.80021,-1.465971 448.72521,-5.081941 456.42521,-7.437641 C 464.12521,-9.793341 475.37521,-12.860321 481.42521,-14.253151 C 492.15748,-16.723941 495.54068,-17.402861 522.42518,-22.480741 C 544.96268,-26.737581 591.29658,-31.740381 619.17518,-32.927141 C 677.90068,-35.427011 741.94644,-29.105471 807.92514,-14.296911 C 814.25014,-12.877301 826.40014,-9.568281 834.92514,-6.943531 C 843.45014,-4.318791 855.37514,-0.707751 861.42514,1.080989 C 873.89324,4.767299 902.01074,15.039759 908.00964,18.100209 C 910.20074,19.218009 915.59604,21.460879 919.99914,23.084379 C 924.40234,24.707879 932.37454,28.210409 937.71504,30.867769 C 969.18434,46.526339 983.71714,54.145529 994.16024,60.460659 C 1015.0541,73.095629 1016.3196,73.866279 1024.1828,78.744409 C 1032.0449,83.621799 1064.7455,106.81009 1075.3918,115.05707 C 1078.5868,117.53207 1085.9042,123.60707 1091.6526,128.55707 C 1097.4009,133.50707 1104.4263,139.33178 1107.2646,141.50086 C 1114.148,146.76132 1170.0521,202.81614 1176.6338,211.05707 C 1179.4891,214.63207 1183.8802,220.03207 1186.3918,223.05707 C 1188.9035,226.08207 1193.7634,232.34722 1197.1917,236.97962 C 1200.62,241.61202 1205.3129,247.68702 1207.6202,250.47962 C 1209.9275,253.27222 1213.9775,258.84811 1216.6202,262.87049 C 1219.2628,266.89287 1223.45,272.91827 1225.925,276.26025 C 1235.4552,289.12888 1239.8012,295.8374 1248.4669,311.05707 C 1250.5024,314.63207 1254.3601,321.38207 1257.0394,326.05707 C 1262.4128,335.43306 1280.3571,371.43683 1286.6943,385.55707 C 1291.161,395.51008 1310.925,448.15469 1310.925,450.09989 C 1310.925,450.77489 1313.1376,458.35399 1315.8419,466.94219 C 1323.2124,490.34889 1332.9986,533.22969 1335.9513,555.05709 C 1336.5093,559.18209 1337.593,565.93209 1338.3594,570.05709 C 1339.1258,574.18209 1340.2614,583.63209 1340.8831,591.05709 C 1341.5047,598.48209 1342.4633,608.83209 1343.0132,614.05709 C 1343.5631,619.28209 1344.2867,633.23209 1344.6209,645.05709 L 1345.2288,666.55709 L 1322.7085,666.27119 L 1300.1882,665.98539 L 1299.5433,647.27119 C 1298.6142,620.30559 1294.5384,576.93059 1291.3951,560.55709 C 1290.656,556.70709 1289.0961,548.38209 1287.9289,542.05709 C 1284.5985,524.01269 1274.3296,484.44739 1267.4249,463.05709 C 1261.6055,445.02879 1256.2777,430.89224 1244.6234,402.55707 C 1239.1457,389.23918 1220.8976,353.13829 1211.1312,336.29836 C 1200.2728,317.57565 1181.3652,288.96827 1175.3525,282.16505 C 1173.1127,279.63066 1169.4283,275.08207 1167.1653,272.05707 C 1164.902,269.03207 1160.5271,263.40707 1157.4431,259.55707 C 1154.3591,255.70707 1149.7184,249.88042 1147.1304,246.60895 C 1133.928,229.91967 1097.4495,192.50036 1080.6698,178.43427 C 1075.5852,174.1719 1068.6846,168.18084 1065.3353,165.12079 C 1057.8499,158.28188 1044.5351,147.74747 1037.4481,143.05707 C 1034.5395,141.13207 1029.7445,137.72408 1026.7924,135.48376 C 1023.8404,133.24344 1017.1501,128.57549 1011.9251,125.11054 C 1006.7001,121.6456 999.27514,116.68046 995.42514,114.0769 C 977.30244,101.82146 929.99274,76.385579 912.42514,69.452309 C 907.47514,67.498719 901.62514,64.858659 899.42514,63.585489 C 893.19334,59.979069 881.41114,55.649399 843.42514,43.006799 C 814.10374,33.247969 790.95804,27.515189 757.42514,21.706119 C 752.47514,20.848599 743.20314,19.214329 736.82064,18.074389 C 730.43814,16.934459 719.41314,15.555669 712.32068,15.010419 C 705.22818,14.465169 694.02518,13.591399 687.42518,13.068699 C 680.82518,12.545999 661.70018,12.118339 644.92518,12.118339 C 628.15018,12.118339 609.02518,12.545999 602.42518,13.068699 C 595.82518,13.591399 584.62228,14.465169 577.52968,15.010419 C 570.43718,15.555669 559.41218,16.932539 553.02968,18.070129 C 546.64728,19.207709 537.82518,20.763989 533.42518,21.528509 C 510.30018,25.546629 499.84088,27.705909 483.92521,31.747619 C 461.77074,37.373649 406.27341,55.887289 394.42521,61.604379 C 389.47521,63.992889 380.92521,67.828869 375.42521,70.128779 C 348.53291,81.374189 284.57827,118.11521 265.53533,133.25892 C 263.9459,134.5229 259.1786,138.03207 254.94134,141.05707 C 240.87553,151.09871 231.78555,158.2251 225.06884,164.47661 C 221.41484,167.87753 215.27521,173.27422 211.42521,176.46926 C 193.47588,191.36503 168.36732,216.63186 145.17914,243.1329 C 129.72405,260.79603 107.52787,289.77241 100.35367,301.65106 C 97.564319,306.26951 94.354459,311.06273 93.220629,312.30266 C 91.041099,314.68615 63.476259,362.47751 61.919689,366.57159 C 61.418089,367.89089 58.109799,374.95234 54.567919,382.26369 C 42.384439,407.4136 33.636999,428.89454 23.907059,457.55709 C 16.161299,480.37459 8.6585288,506.40369 6.9005988,516.55709 C 6.3292388,519.85709 4.9892988,526.15709 3.9229388,530.55709 C -3.0017412,559.12959 -9.9895312,621.23289 -10.053431,654.77059 L -10.074791,665.98409 L -32.575661,666.27059 L -55.076532,666.55709 L -55.048012,654.05709 z"
       id="path2445" />
    <path
       style="fill:#fe6230"
       d="M -99.933416,649.55709 C -99.955432,625.98284 -96.704834,585.24048 -92.952295,562.05709 C -91.928509,555.73209 -90.790723,547.85709 -90.423881,544.55709 C -89.452068,535.81496 -74.501257,469.52627 -70.463507,456.05709 C -64.982167,437.77232 -51.571957,399.77445 -45.406187,385.05709 C -42.295517,377.63209 -39.143937,369.90174 -38.402677,367.87853 C -36.309857,362.16637 -15.377327,319.53658 -10.523047,311.10075 C -8.1355568,306.95174 -3.7840068,299.28209 -0.85292683,294.05709 C 15.892623,264.20616 53.330013,211.21821 77.924783,182.55709 C 100.31039,156.47037 152.94217,105.3277 168.92397,94.132546 C 170.76084,92.845826 175.75202,88.814966 180.01549,85.175076 C 186.61326,79.542286 203.56247,66.562956 216.92277,56.912296 C 220.18449,54.556226 228.91889,48.835146 255.5842,31.588826 C 259.9842,28.743046 268.3092,23.787186 274.0842,20.575806 C 279.8592,17.364426 286.68321,13.486806 289.24868,11.958876 C 301.03379,4.939926 346.27231,-16.265974 362.89368,-22.562796 C 366.3639,-23.877446 370.53581,-25.642206 372.16459,-26.484486 C 375.87958,-28.405586 429.80498,-46.882987 440.5842,-49.928295 C 444.9842,-51.171368 452.4092,-53.0544 457.0842,-54.112812 C 461.7592,-55.171224 469.10526,-57.144248 473.40879,-58.497311 C 477.71231,-59.850374 487.38731,-62.055592 494.90879,-63.397795 C 502.43026,-64.739999 515.1092,-67.003072 523.0842,-68.426847 C 553.97588,-73.941929 611.14683,-78.86389 644.5842,-78.88703 C 679.05348,-78.91088 735.01775,-74.123641 766.0842,-68.493807 C 773.5092,-67.148255 785.8842,-64.915082 793.5842,-63.531199 C 801.2842,-62.147317 810.9592,-60.100125 815.0842,-58.981883 C 819.2092,-57.863642 826.40919,-56.008928 831.08419,-54.860296 C 855.12879,-48.952615 900.89619,-33.669063 925.08419,-23.469956 C 932.50919,-20.339136 940.23959,-17.171054 942.26279,-16.429794 C 947.97489,-14.336974 990.60469,6.595556 999.04046,11.449836 C 1003.1895,13.837326 1010.8591,18.172326 1016.0841,21.083176 C 1037.673,33.110366 1064.5215,50.550226 1082.3597,64.133576 C 1087.7216,68.216506 1094.7635,73.379876 1098.0084,75.607726 C 1101.2532,77.835576 1106.7602,82.137006 1110.2461,85.166466 C 1113.732,88.195926 1118.3841,91.994426 1120.5841,93.607586 C 1132.0181,101.9916 1149.4756,117.90904 1174.9127,143.14343 C 1192.7966,160.88481 1229.9828,203.14261 1235.5629,212.06548 C 1237.1078,214.53586 1239.7804,218.13335 1241.502,220.05988 C 1243.2236,221.98642 1247.2056,227.47033 1250.3509,232.24636 C 1253.4961,237.02239 1256.5113,241.20307 1257.0512,241.53677 C 1258.4188,242.38196 1273.0811,264.69586 1283.6769,282.05709 C 1297.0257,303.92911 1317.4601,342.50442 1323.4064,357.05709 C 1325.3167,361.73209 1328.6603,369.38209 1330.8366,374.05709 C 1333.013,378.73209 1335.821,385.70709 1337.0767,389.55709 C 1338.3323,393.40709 1340.2188,398.2681 1341.2689,400.35933 C 1343.8249,405.44983 1355.7427,439.84599 1357.5961,447.48173 C 1358.4071,450.82318 1360.6478,458.73209 1362.5753,465.05709 C 1367.2064,480.25396 1377.2894,525.83458 1380.051,544.05709 C 1381.2596,552.03209 1383.1155,563.96261 1384.1751,570.56935 C 1386.7826,586.82684 1389.9561,631.49188 1390.0359,653.05709 L 1390.0858,666.55709 L 1367.7424,666.27137 L 1345.3989,665.98565 L 1344.782,644.77137 C 1344.4428,633.10352 1343.7168,619.28209 1343.1688,614.05709 C 1342.6208,608.83209 1341.6638,598.48209 1341.0422,591.05709 C 1340.4205,583.63209 1339.2849,574.18209 1338.5185,570.05709 C 1337.7521,565.93209 1336.6684,559.18209 1336.1104,555.05709 C 1333.1576,533.22974 1323.3714,490.34892 1316.001,466.94217 C 1313.2967,458.35397 1311.0841,450.77495 1311.0841,450.09991 C 1311.0841,448.15473 1291.3201,395.5101 1286.8533,385.55709 C 1280.5162,371.43685 1262.5719,335.43308 1257.1984,326.05709 C 1254.5191,321.38209 1250.6615,314.63209 1248.626,311.05709 C 1239.9602,295.83742 1235.6143,289.1289 1226.0841,276.26027 C 1223.6091,272.91829 1219.4219,266.89289 1216.7793,262.87051 C 1214.1366,258.84813 1210.0866,253.27224 1207.7793,250.47964 C 1205.4719,247.68704 1200.7791,241.61204 1197.3508,236.97964 C 1193.9225,232.34724 1189.0626,226.08209 1186.5509,223.05709 C 1184.0393,220.03209 1179.6482,214.63209 1176.7929,211.05709 C 1170.2111,202.81616 1114.307,146.76134 1107.4237,141.50088 C 1104.5854,139.3318 1097.56,133.50709 1091.8116,128.55709 C 1086.0633,123.60709 1078.7459,117.53209 1075.5509,115.05709 C 1064.9046,106.81011 1032.2039,83.621816 1024.3418,78.744426 C 1016.4786,73.866296 1015.2131,73.095646 994.31929,60.460666 C 983.87619,54.145536 969.34339,46.526346 937.87409,30.867776 C 932.53359,28.210416 924.56139,24.707886 920.15819,23.084386 C 915.75509,21.460886 910.35979,19.218016 908.16869,18.100216 C 902.16979,15.039766 874.05229,4.767306 861.58419,1.080996 C 855.53419,-0.707744 843.60919,-4.318784 835.08419,-6.943524 C 820.35876,-11.477314 806.38544,-14.938384 788.5842,-18.461186 C 763.07606,-23.509156 751.72882,-25.300846 725.5842,-28.408656 C 668.61855,-35.180164 621.6962,-35.172853 564.5842,-28.383576 C 548.6342,-26.487486 529.7342,-23.831216 522.5842,-22.480736 C 495.69972,-17.402854 492.3165,-16.723934 481.5842,-14.253144 C 475.5342,-12.860314 464.2842,-9.793334 456.5842,-7.437634 C 448.8842,-5.081934 436.9592,-1.465964 430.0842,0.597856 C 416.09936,4.795996 388.10364,14.986196 381.99965,18.100216 C 379.8086,19.218016 374.41571,21.460006 370.01545,23.082436 C 349.28914,30.724466 294.0679,60.193276 265.5842,78.812156 C 247.12518,90.878226 232.86594,100.78433 225.5842,106.60075 C 221.1842,110.11533 213.7592,115.7743 209.0842,119.17623 C 204.4092,122.57816 197.8842,127.91455 194.5842,131.03486 C 191.2842,134.15517 185.2092,139.55561 181.0842,143.03584 C 170.83202,151.68552 133.82,188.16528 121.5842,201.68018 C 103.93703,221.17214 95.555923,231.76054 73.793643,262.05709 C 58.218763,283.73978 54.489583,289.21131 48.736083,298.82203 C 47.002553,301.71774 42.386103,309.36774 38.477313,315.82203 C 26.396683,335.76986 7.4099231,374.53657 -3.2682468,401.05709 C -5.1505768,405.73209 -8.0222068,412.70709 -9.6496468,416.55709 C -19.017087,438.71746 -38.671157,510.30936 -45.063627,545.55606 C -49.928057,572.37747 -54.826007,626.3271 -54.888147,653.77058 L -54.915797,665.98407 L -77.416667,666.27058 L -99.917539,666.55709 L -99.933416,649.55709 z"
       id="path2487" />
    <path
       style="fill:#dd0000"
       d="M -145.42278,664.55709 C -145.41973,663.45709 -144.96323,650.40709 -144.40834,635.55709 C -142.98464,597.45609 -139.39561,563.43499 -133.43695,531.55709 C -132.40888,526.05709 -130.8155,516.83869 -129.89611,511.07179 C -128.97671,505.30489 -127.31973,497.20489 -126.21393,493.07179 C -125.10813,488.93869 -122.9569,480.38209 -121.43341,474.05709 C -114.88569,446.87319 -102.54722,408.03339 -92.524884,383.05707 C -90.207524,377.28207 -87.594774,370.53207 -86.718754,368.05707 C -83.901764,360.09822 -65.509994,319.14937 -62.883984,314.98949 C -61.486924,312.77642 -58.737384,307.27377 -56.773884,302.76139 C -54.810384,298.24902 -47.82713,285.78207 -41.25555,275.05707 C -34.68396,264.33207 -25.80119,249.81419 -21.51606,242.79512 C -13.58789,229.80873 -8.6155502,222.41458 2.0421498,207.76275 C 5.3249798,203.24963 10.04998,196.58857 12.54215,192.96039 C 18.13574,184.81707 25.05039,176.01608 33.62988,166.11985 C 37.23596,161.96032 42.25224,155.85707 44.77716,152.55707 C 49.91043,145.84803 98.17844,95.799543 102.81354,92.379873 C 104.44686,91.174843 111.02349,85.301823 117.42829,79.328693 C 123.83308,73.355573 131.91981,66.238403 135.39879,63.512773 C 138.87778,60.787133 144.95278,55.962543 148.89879,52.791453 C 176.60223,30.528443 199.84735,13.412773 214.07336,4.8026133 C 219.02336,1.8066733 233.54884,-6.9763667 246.3522,-14.715267 C 275.06794,-32.072272 319.8644,-54.516362 345.57336,-64.427432 C 350.24836,-66.229692 358.34836,-69.390042 363.57336,-71.450432 C 376.96058,-76.729452 421.50544,-91.603512 431.07336,-93.989482 C 435.47336,-95.086722 444.02336,-97.329252 450.07336,-98.972882 C 466.86702,-103.5353 499.39629,-110.43207 515.57336,-112.86001 C 523.54836,-114.05695 532.12962,-115.44308 534.64282,-115.94031 C 537.15602,-116.43754 552.68102,-118.28398 569.14282,-120.04352 C 598.36923,-123.1674 600.1673,-123.24266 645.57336,-123.24266 C 690.97944,-123.24266 692.77754,-123.1674 722.00394,-120.04352 C 738.46574,-118.28398 753.99074,-116.43754 756.50394,-115.94031 C 759.01714,-115.44308 767.59834,-114.05746 775.57334,-112.86115 C 792.88224,-110.26469 825.67564,-103.64099 834.07334,-101.04514 C 837.37334,-100.02507 844.79834,-97.968542 850.57336,-96.475082 C 865.36996,-92.648562 901.63936,-81.344942 910.57336,-77.775622 C 914.69836,-76.127602 924.14836,-72.551952 931.57336,-69.829732 C 938.99836,-67.107512 949.34836,-62.905802 954.57336,-60.492602 C 959.79836,-58.079402 970.25826,-53.375812 977.81756,-50.040172 C 985.37676,-46.704542 993.38126,-42.826752 995.60516,-41.422852 C 997.82906,-40.018962 1003.5692,-37.144032 1008.361,-35.034112 C 1016.6551,-31.382072 1065.2286,-2.9016167 1080.0734,7.0135633 C 1096.4526,17.953593 1103.7631,23.141623 1115.401,32.084343 C 1122.1811,37.294343 1132.1605,44.967733 1137.5774,49.136303 C 1164.1857,69.612713 1202.6955,105.39487 1230.7099,135.67222 C 1246.8764,153.14453 1249.6203,156.36342 1263.0734,173.63759 C 1280.6629,196.22304 1286.3835,203.7944 1289.8348,209.05707 C 1291.8186,212.08207 1296.5941,219.05707 1300.447,224.55707 C 1307.6466,234.83434 1311.9041,241.54331 1329.3208,270.05707 C 1343.5727,293.38965 1368.801,343.8267 1373.5878,358.55707 C 1374.3028,360.75707 1376.2267,365.48207 1377.8632,369.05707 C 1380.5928,375.02009 1383.4484,382.56012 1394.7162,413.55709 C 1396.9155,419.60709 1399.3853,427.48209 1400.2046,431.05709 C 1401.0239,434.63209 1403.1947,442.50709 1405.0284,448.55709 C 1406.8622,454.60709 1409.3094,462.93209 1410.4666,467.05709 C 1413.9451,479.45649 1424.1837,529.53989 1426.4122,545.05709 C 1431.2822,578.96739 1432.5392,589.13079 1433.0906,599.05709 C 1433.4114,604.83209 1434.0792,615.63209 1434.5745,623.05709 C 1435.0699,630.48209 1435.4977,643.30709 1435.5252,651.55709 L 1435.5751,666.55709 L 1413.0743,666.27059 L 1390.5734,665.98409 L 1390.5243,652.77059 C 1390.4452,631.47309 1387.255,586.72099 1384.6644,570.56929 C 1383.6048,563.96259 1381.7489,552.03209 1380.5403,544.05709 C 1377.7787,525.83459 1367.6957,480.25399 1363.0646,465.05709 C 1361.1371,458.73209 1358.8964,450.82319 1358.0854,447.48169 C 1356.232,439.84599 1344.3142,405.44979 1341.7582,400.35931 C 1340.7081,398.26808 1338.8216,393.40707 1337.566,389.55707 C 1336.3103,385.70707 1333.5023,378.73207 1331.3259,374.05707 C 1329.1496,369.38207 1325.806,361.73207 1323.8957,357.05707 C 1317.9494,342.5044 1297.515,303.92909 1284.1662,282.05707 C 1273.5704,264.69584 1258.9081,242.38194 1257.5405,241.53675 C 1257.0006,241.20305 1253.9854,237.02237 1250.8402,232.24634 C 1247.6949,227.47031 1243.7129,221.9864 1241.9913,220.05986 C 1240.2697,218.13333 1237.5971,214.53584 1236.0522,212.06546 C 1230.4721,203.14259 1193.2859,160.88479 1175.402,143.14341 C 1149.9649,117.90902 1132.5074,101.99158 1121.0734,93.607573 C 1118.8734,91.994413 1114.2213,88.195913 1110.7354,85.166453 C 1107.2495,82.136993 1101.7425,77.835563 1098.4977,75.607713 C 1095.2528,73.379863 1088.2109,68.216493 1082.849,64.133563 C 1065.0108,50.550213 1038.1623,33.110353 1016.5734,21.083163 C 1011.3484,18.172313 1003.6788,13.837313 999.52966,11.449823 C 991.09386,6.5955433 948.46406,-14.336987 942.75196,-16.429807 C 940.72876,-17.171067 932.99836,-20.339147 925.57336,-23.469967 C 901.38536,-33.669062 855.61796,-48.952622 831.57334,-54.860302 C 826.89834,-56.008932 819.69834,-57.863642 815.57334,-58.981882 C 811.44834,-60.100132 801.77334,-62.147322 794.07334,-63.531202 C 786.37334,-64.915082 773.99834,-67.148262 766.57334,-68.493812 C 735.50694,-74.123642 679.54264,-78.910882 645.07336,-78.887032 C 611.63599,-78.863892 554.46504,-73.941932 523.57336,-68.426852 C 515.59836,-67.003072 502.91942,-64.740002 495.39795,-63.397802 C 487.87647,-62.055592 478.20147,-59.850382 473.89795,-58.497312 C 469.59442,-57.144252 462.24836,-55.171232 457.57336,-54.112812 C 452.89836,-53.054402 445.47336,-51.171372 441.07336,-49.928302 C 430.29414,-46.882992 376.36874,-28.405592 372.65375,-26.484497 C 371.02497,-25.642217 366.85306,-23.877457 363.38284,-22.562807 C 346.76147,-16.265987 301.52295,4.9399133 289.73784,11.958863 C 287.17237,13.486793 280.34836,17.364413 274.57336,20.575793 C 268.79836,23.787173 260.47336,28.743033 256.07336,31.588813 C 229.40805,48.835133 220.67365,54.556213 217.41193,56.912283 C 204.05163,66.562943 187.10242,79.542273 180.50465,85.175063 C 176.24118,88.814953 171.25,92.845813 169.41313,94.132533 C 153.43133,105.32768 100.79955,156.47035 78.41394,182.55707 C 53.81917,211.21819 16.38178,264.20614 -0.36377024,294.05707 C -3.2948502,299.28207 -7.6464002,306.95172 -10.03389,311.10073 C -14.88817,319.53656 -35.8207,362.16635 -37.91352,367.87851 C -38.65478,369.90172 -41.80636,377.63207 -44.91703,385.05707 C -51.0828,399.77443 -64.493004,437.77229 -69.974354,456.05709 C -74.012104,469.52629 -88.962914,535.81499 -89.934724,544.55709 C -90.301564,547.85709 -91.439354,555.73209 -92.463144,562.05709 C -96.197014,585.12519 -99.466734,625.97839 -99.443394,649.27119 L -99.426644,665.98539 L -122.42748,666.27119 C -144.85851,666.54999 -145.42819,666.50749 -145.42278,664.55709 z"
       id="path2529" />
  </g>
</svg>
