<?xml version="1.0" encoding="UTF-8" standalone="no"?>
<!-- Created with Inkscape (http://www.inkscape.org/) -->
<svg xmlns:dc="http://purl.org/dc/elements/1.1/" xmlns:cc="http://creativecommons.org/ns#" xmlns:rdf="http://www.w3.org/1999/02/22-rdf-syntax-ns#" xmlns:svg="http://www.w3.org/2000/svg" xmlns="http://www.w3.org/2000/svg" xmlns:sodipodi="http://sodipodi.sourceforge.net/DTD/sodipodi-0.dtd" xmlns:inkscape="http://www.inkscape.org/namespaces/inkscape" width="599.10846" height="327.50723" id="svg2422" sodipodi:version="0.32" inkscape:version="0.46" version="1.0" sodipodi:docname="whale_cartoon.svg" inkscape:output_extension="org.inkscape.output.svg.inkscape" inkscape:export-filename="/home/roger/mis-dibujos/open/whale_cartoon.png" inkscape:export-xdpi="90" inkscape:export-ydpi="90">
  <defs id="defs3">
    <inkscape:perspective sodipodi:type="inkscape:persp3d" inkscape:vp_x="0 : 526.18109 : 1" inkscape:vp_y="0 : 1000 : 0" inkscape:vp_z="744.09448 : 526.18109 : 1" inkscape:persp3d-origin="372.04724 : 350.78739 : 1" id="perspective2428"/>
  </defs>
  <sodipodi:namedview inkscape:document-units="mm" id="base" pagecolor="#ffffff" bordercolor="#666666" borderopacity="1.0" inkscape:pageopacity="0.0" inkscape:pageshadow="2" inkscape:zoom="0.35" inkscape:cx="350" inkscape:cy="520" inkscape:current-layer="layer1" showgrid="false" inkscape:window-width="640" inkscape:window-height="654" inkscape:window-x="0" inkscape:window-y="0"/>
  <metadata id="metadata4">
    <rdf:RDF>
      <cc:Work rdf:about="">
        <dc:format>image/svg+xml</dc:format>
        <dc:type rdf:resource="http://purl.org/dc/dcmitype/StillImage"/>
      </cc:Work>
    </rdf:RDF>
  </metadata>
  <g inkscape:label="Layer 1" inkscape:groupmode="layer" id="layer1" transform="translate(-91.8743, -28.6086)">
    <path sodipodi:nodetypes="ccsc" id="path4306" d="M 292.22483,258.86454 C 289.70463,289.94212 288.07623,351.82041 246.81061,351.87316 C 226.81061,344.87316 259.81671,279.15386 276.56673,253.65386 C 293.31673,228.15386 295.22483,271.86454 292.22483,258.86454 z" style="fill: rgb(147, 193, 207); fill-opacity: 1; fill-rule: evenodd; stroke: none; stroke-width: 1px; stroke-linecap: butt; stroke-linejoin: miter; stroke-opacity: 1;"/>
    <path transform="matrix(-1.66103, 0, 0, 1.11111, 535.61, -70.9865)" d="M 255.97266,305.65741 A 3.1819806,6.3639612 0 1 1 249.6087,305.65741 A 3.1819806,6.3639612 0 1 1 255.97266,305.65741 z" sodipodi:ry="6.3639612" sodipodi:rx="3.1819806" sodipodi:cy="305.65741" sodipodi:cx="252.79068" id="path4288" style="opacity: 1; fill: rgb(0, 43, 34); fill-opacity: 1; fill-rule: nonzero; stroke: none; stroke-width: 6; stroke-linecap: round; stroke-linejoin: round; stroke-miterlimit: 4; stroke-dasharray: none; stroke-dashoffset: 0pt; stroke-opacity: 1;" sodipodi:type="arc"/>
    <path style="opacity: 1; fill: rgb(188, 222, 232); fill-opacity: 1; fill-rule: nonzero; stroke: none; stroke-width: 2.12598; stroke-linecap: round; stroke-linejoin: round; stroke-miterlimit: 4; stroke-dasharray: none; stroke-dashoffset: 0pt; stroke-opacity: 1;" d="M 270.26533,95.014658 C 176.90192,94.645648 84.601129,122.07829 92.327859,200.23341 C 96.897459,234.35634 107.42336,261.42791 122.51536,281.88966 C 121.87948,283.00257 121.48411,284.43511 121.48411,286.01466 C 121.48411,289.52757 123.39218,292.38965 125.73411,292.38966 C 152.35935,328.04013 218.94179,332.45024 262.89036,327.76466 C 342.52113,310.95952 558.27783,202.06689 580.74333,219.45282 C 639.61253,222.27025 662.59143,227.23163 690.98283,192.12917 C 690.98283,192.12917 596.77763,196.79767 594.65633,156.49258 C 539.46853,249.1738 475.69883,128.04589 403.60913,115.20216 C 368.35423,103.04279 319.17003,95.207948 270.26533,95.014658 z" id="path4314" sodipodi:nodetypes="cccsccccccc"/>
    <path style="fill: rgb(215, 238, 244); fill-opacity: 1; fill-rule: evenodd; stroke: none; stroke-width: 1px; stroke-linecap: butt; stroke-linejoin: miter; stroke-opacity: 1;" d="M 274.20263,97.840698 C 185.42723,97.478838 97.662319,124.38101 105.00934,201.02488 C 112.28726,257.0755 135.49446,293.71954 168.27109,313.00438 C 146.22291,291.92599 130.8627,260.01037 125.18536,216.28645 C 113.98988,99.495788 323.64993,98.210698 421.16953,132.89941 C 441.93033,136.71417 462.50193,155.49549 485.54883,168.43812 C 431.65013,112.0319 348.50303,100.4762 274.20263,97.840698 z" id="path4266" sodipodi:nodetypes="ccccccc"/>
    <path style="fill: none; fill-rule: evenodd; stroke: rgb(147, 193, 207); stroke-width: 2.83465; stroke-linecap: butt; stroke-linejoin: miter; stroke-miterlimit: 4; stroke-dasharray: none; stroke-opacity: 1;" d="M 125.81929,285.45895 C 138.90076,293.59068 158.99948,338.06555 289.89393,284.07417" id="path4278" sodipodi:nodetypes="cc"/>
    <path transform="matrix(1.17678, 0, 0, 2.95711, -17.2882, -318.764)" d="M 205,144.36218 A 10,2 0 1 1 185,144.36218 A 10,2 0 1 1 205,144.36218 z" sodipodi:ry="2" sodipodi:rx="10" sodipodi:cy="144.36218" sodipodi:cx="195" id="path4292" style="opacity: 1; fill: rgb(147, 193, 207); fill-opacity: 1; fill-rule: nonzero; stroke: none; stroke-width: 2.12598; stroke-linecap: round; stroke-linejoin: round; stroke-miterlimit: 4; stroke-dasharray: none; stroke-dashoffset: 0pt; stroke-opacity: 1;" sodipodi:type="arc"/>
    <path sodipodi:type="arc" style="opacity: 1; fill: rgb(0, 102, 128); fill-opacity: 1; fill-rule: nonzero; stroke: none; stroke-width: 2.12598; stroke-linecap: round; stroke-linejoin: round; stroke-miterlimit: 4; stroke-dasharray: none; stroke-dashoffset: 0pt; stroke-opacity: 1;" id="path4290" sodipodi:cx="195" sodipodi:cy="144.36218" sodipodi:rx="10" sodipodi:ry="2" d="M 205,144.36218 A 10,2 0 1 1 185,144.36218 A 10,2 0 1 1 205,144.36218 z" transform="matrix(1, 0, 0, 2.25, 16.4761, -218.099)"/>
    <path style="fill: rgb(147, 193, 207); fill-opacity: 1; fill-rule: evenodd; stroke: none; stroke-width: 1px; stroke-linecap: butt; stroke-linejoin: miter; stroke-opacity: 1;" d="M 328.01173,263.10718 C 330.53183,294.18476 332.16023,356.06305 373.42593,356.1158 C 393.42593,349.1158 368.22933,275.99739 343.66983,257.8965 C 333.28373,251.48838 325.71883,257.0153 328.01173,263.10718 z" id="path4296" sodipodi:nodetypes="cccc"/>
    <path style="fill: rgb(215, 238, 244); fill-opacity: 1; fill-rule: evenodd; stroke: none; stroke-width: 1px; stroke-linecap: butt; stroke-linejoin: miter; stroke-opacity: 1;" d="M 341.47823,316.16696 C 347.47023,340.31552 346.38413,351.16498 372.56953,351.19846 C 376.74553,349.73688 378.62813,344.67718 378.14433,338.34815 C 345.70243,342.11367 348.90013,328.51805 341.47823,316.16696 z" id="path4298" sodipodi:nodetypes="cccc"/>
    <path style="fill: rgb(147, 193, 207); fill-opacity: 1; fill-rule: evenodd; stroke: none; stroke-width: 1px; stroke-linecap: butt; stroke-linejoin: miter; stroke-opacity: 1;" d="M 595.95013,167.57727 C 595.95013,167.57727 586.75773,193.03311 576.50473,199.04351 C 589.23263,203.99325 662.06463,206.82168 667.01443,194.09376 C 642.97273,196.33011 604.78903,191.41197 595.95013,167.57727 z" id="path4317" sodipodi:nodetypes="cccc"/>
    <path style="fill: rgb(242, 242, 242); fill-opacity: 1; fill-rule: evenodd; stroke: none; stroke-width: 7.08661; stroke-linecap: butt; stroke-linejoin: miter; stroke-miterlimit: 4; stroke-dasharray: none; stroke-opacity: 1;" d="M 178.69366,28.616976 C 162.02161,29.087126 145.77539,47.108511 154.09991,63.429478 C 158.99691,80.563428 185.41428,63.813968 172.00616,59.148226 C 170.26257,70.883578 153.0601,58.71208 160.00616,48.929476 C 168.67183,28.750666 197.71615,34.474846 208.00616,50.179476 C 219.76717,65.830048 218.64015,88.267218 208.91241,104.61698 C 218.23137,114.07939 220.02533,95.535138 222.41241,89.085728 C 223.94148,83.027948 224.20503,76.659438 223.38116,70.429478 C 223.40119,70.417678 223.42363,70.410028 223.44366,70.398228 C 223.41249,70.345068 223.38072,70.295368 223.34991,70.241978 C 222.73447,65.712858 221.52487,61.268905 219.78741,57.054476 C 219.79609,54.506702 220.21652,51.944883 221.06866,49.523226 C 223.16508,43.256216 228.81831,38.228436 235.44366,37.398226 C 240.30297,36.645056 245.78329,39.413356 247.19366,44.304476 C 248.05619,46.664978 247.22748,49.889768 244.63116,50.710726 C 243.52518,51.474396 242.75167,49.667345 242.25616,50.960726 C 241.78375,49.87517 241.32232,48.765032 240.84991,47.679476 C 239.25673,48.407243 238.81061,50.605425 239.66241,52.054476 C 241.10528,54.724242 244.8305,54.96697 247.19366,53.429476 C 250.75526,51.310381 251.81338,46.532103 250.41241,42.804476 C 248.54059,37.009576 242.30858,33.463926 236.38116,33.804476 C 229.23235,34.109266 222.59484,38.609276 219.25616,44.866976 C 218.16896,46.842527 217.40788,48.953106 216.91241,51.116976 C 210.68814,40.188776 200.52999,31.746196 187.53741,29.398226 C 185.7139,29.045876 183.86238,28.839896 182.00616,28.773226 C 180.89811,28.642836 179.80513,28.585636 178.69366,28.616976 z" id="path4319"/>
    <path style="fill: rgb(188, 222, 232); fill-opacity: 1; fill-rule: evenodd; stroke: none; stroke-width: 7.08661; stroke-linecap: butt; stroke-linejoin: miter; stroke-miterlimit: 4; stroke-dasharray: none; stroke-opacity: 1;" d="M 179.39861,29.850506 C 166.52721,30.213476 153.94462,41.477226 153.63805,54.019797 C 155.69914,42.761156 167.25386,33.246116 179.06835,32.912946 C 180.13621,32.882836 181.18632,32.937786 182.25089,33.063066 C 184.03429,33.127116 185.81318,33.325016 187.56513,33.663546 C 200.04798,35.919396 209.8076,44.030746 215.78766,54.530205 C 216.26369,52.45123 216.99492,50.423455 218.03946,48.525411 C 221.24715,42.513226 227.62426,38.189756 234.4926,37.896926 C 240.18746,37.569736 246.17498,40.976276 247.97336,46.543829 C 248.28897,47.383601 248.48855,48.281117 248.54381,49.185939 C 249.05745,47.336068 248.97663,45.272076 248.30362,43.481386 C 246.50523,37.913836 240.51773,34.507286 234.82286,34.834486 C 227.95451,35.127306 221.57742,39.450776 218.36972,45.462966 C 217.32517,47.361009 216.59396,49.388785 216.11793,51.46776 C 210.13784,40.968306 200.37824,32.856956 187.8954,30.601106 C 186.14342,30.262576 184.36455,30.064676 182.58115,30.000626 C 181.51657,29.875346 180.46648,29.820386 179.39861,29.850506 z M 239.11629,48.165124 C 237.70296,48.810725 237.2454,50.662428 237.82526,52.038216 C 238.0728,51.697329 238.38314,51.411603 238.78602,51.227568 C 239.21851,52.221384 239.64548,53.234128 240.07705,54.229965 C 240.11682,54.246243 240.1569,54.274814 240.19715,54.290013 C 240.67468,53.290954 241.39442,54.847314 242.41892,54.139893 C 244.62098,53.443601 245.51547,50.961469 245.12108,48.825651 C 244.68527,49.860624 243.89695,50.714525 242.74919,51.077449 C 241.68659,51.811156 240.94343,50.075003 240.46736,51.31764 C 240.01348,50.274672 239.57016,49.20809 239.11629,48.165124 z M 159.91306,54.890492 C 157.17648,63.677468 171.11095,72.559418 172.64322,62.246368 C 174.53997,62.906388 175.58006,63.836018 176.00591,64.858458 C 177.2147,62.705118 176.66743,60.469336 172.97349,59.18392 C 171.6215,68.283548 160.60916,62.431738 159.91306,54.890492 z M 218.94018,56.211547 C 218.69276,57.542169 218.55446,58.887615 218.54987,60.234759 C 220.21916,64.283838 221.38132,68.553438 221.9726,72.904878 C 222.0022,72.956168 222.03274,73.003908 222.06267,73.054998 C 222.04343,73.066338 222.02188,73.073678 222.00262,73.085018 C 222.47091,76.626148 222.57132,80.228618 222.27284,83.773558 C 222.96241,79.241098 222.93715,74.591918 222.33289,70.022578 C 222.35212,70.011238 222.37369,70.003888 222.39294,69.992548 C 222.36298,69.941478 222.33247,69.893728 222.30286,69.842428 C 221.71156,65.491008 220.54943,61.221398 218.88013,57.172314 C 218.88123,56.851079 218.92541,56.532912 218.94018,56.211547 z M 215.24723,83.443288 C 214.2787,90.306278 211.92674,96.994708 208.43179,102.8688 C 208.73512,103.1768 209.04547,103.46174 209.33251,103.70947 C 212.6136,97.496318 214.67689,90.508388 215.24723,83.443288 z" id="path4334"/>
    <path sodipodi:type="arc" style="opacity: 1; fill: rgb(147, 193, 207); fill-opacity: 1; fill-rule: nonzero; stroke: none; stroke-width: 6; stroke-linecap: round; stroke-linejoin: round; stroke-miterlimit: 4; stroke-dasharray: none; stroke-dashoffset: 0pt; stroke-opacity: 1;" id="path4274" sodipodi:cx="244.65895" sodipodi:cy="280.20157" sodipodi:rx="9.8994951" sodipodi:ry="9.8994951" d="M 254.55845,280.20157 A 9.8994951,9.8994951 0 1 1 234.75946,280.20157 A 9.8994951,9.8994951 0 1 1 254.55845,280.20157 z" transform="matrix(1.25254, 0, 0, 2.14286, -39.8243, -340.284)"/>
    <path transform="matrix(0.924239, 0, 0, 1.67825, 40.7471, -206.003)" d="M 254.55845,280.20157 A 9.8994951,9.8994951 0 1 1 234.75946,280.20157 A 9.8994951,9.8994951 0 1 1 254.55845,280.20157 z" sodipodi:ry="9.8994951" sodipodi:rx="9.8994951" sodipodi:cy="280.20157" sodipodi:cx="244.65895" id="path4312" style="opacity: 1; fill: rgb(112, 173, 192); fill-opacity: 1; fill-rule: nonzero; stroke: none; stroke-width: 6; stroke-linecap: round; stroke-linejoin: round; stroke-miterlimit: 4; stroke-dasharray: none; stroke-dashoffset: 0pt; stroke-opacity: 1;" sodipodi:type="arc"/>
    <path sodipodi:type="arc" style="opacity: 1; fill: rgb(0, 0, 0); fill-opacity: 1; fill-rule: nonzero; stroke: none; stroke-width: 6; stroke-linecap: round; stroke-linejoin: round; stroke-miterlimit: 4; stroke-dasharray: none; stroke-dashoffset: 0pt; stroke-opacity: 1;" id="path4276" sodipodi:cx="252.79068" sodipodi:cy="305.65741" sodipodi:rx="3.1819806" sodipodi:ry="6.3639612" d="M 255.97266,305.65741 A 3.1819806,6.3639612 0 1 1 249.6087,305.65741 A 3.1819806,6.3639612 0 1 1 255.97266,305.65741 z" transform="matrix(-2.22222, 0, 0, 1.11111, 829.67, -68.9865)"/>
    <path transform="matrix(-1.20085, 0, 0, 0.600423, 574.726, 84.3592)" d="M 255.97266,305.65741 A 3.1819806,6.3639612 0 1 1 249.6087,305.65741 A 3.1819806,6.3639612 0 1 1 255.97266,305.65741 z" sodipodi:ry="6.3639612" sodipodi:rx="3.1819806" sodipodi:cy="305.65741" sodipodi:cx="252.79068" id="path4310" style="opacity: 1; fill: rgb(255, 255, 255); fill-opacity: 1; fill-rule: nonzero; stroke: none; stroke-width: 6; stroke-linecap: round; stroke-linejoin: round; stroke-miterlimit: 4; stroke-dasharray: none; stroke-dashoffset: 0pt; stroke-opacity: 1;" sodipodi:type="arc"/>
    <path style="fill: none; fill-rule: evenodd; stroke: rgb(147, 193, 207); stroke-width: 2.12598; stroke-linecap: butt; stroke-linejoin: miter; stroke-miterlimit: 4; stroke-dasharray: none; stroke-opacity: 1;" d="M 289.89033,279.75184 C 289.89033,279.75184 299.89033,286.75184 293.89033,291.75184" id="path4284"/>
    <path style="fill: rgb(147, 193, 207); fill-opacity: 1; fill-rule: evenodd; stroke: none; stroke-width: 1px; stroke-linecap: butt; stroke-linejoin: miter; stroke-opacity: 1;" d="M 153.30131,308.64506 C 155.06907,310.41283 182.29268,319.95877 205.62721,313.94836 C 210.71703,312.63735 181.96468,324.80963 170.97897,318.89811 C 160.35817,313.18296 153.30131,308.64506 153.30131,308.64506 z" id="path4282" sodipodi:nodetypes="cssc"/>
  </g>
</svg>