<?xml version="1.0" encoding="UTF-8" standalone="no"?>
<!-- Created with Inkscape (http://www.inkscape.org/) -->
<svg xmlns:dc="http://purl.org/dc/elements/1.1/" xmlns:cc="http://creativecommons.org/ns#" xmlns:rdf="http://www.w3.org/1999/02/22-rdf-syntax-ns#" xmlns:svg="http://www.w3.org/2000/svg" xmlns="http://www.w3.org/2000/svg" xmlns:sodipodi="http://sodipodi.sourceforge.net/DTD/sodipodi-0.dtd" xmlns:inkscape="http://www.inkscape.org/namespaces/inkscape" width="244.94029" height="150.1288" id="svg2" sodipodi:version="0.32" inkscape:version="0.46" version="1.0" sodipodi:docname="Bike.svg" inkscape:output_extension="org.inkscape.output.svg.inkscape" inkscape:export-filename="/Users/schoolfreeware/Desktop/S4m_Pics/123/CD.png" inkscape:export-xdpi="90" inkscape:export-ydpi="90">
  <defs id="defs4">
    <inkscape:perspective sodipodi:type="inkscape:persp3d" inkscape:vp_x="0 : 526.18109 : 1" inkscape:vp_y="0 : 1000 : 0" inkscape:vp_z="744.09448 : 526.18109 : 1" inkscape:persp3d-origin="372.04724 : 350.78739 : 1" id="perspective10"/>
  </defs>
  <sodipodi:namedview id="base" pagecolor="#ffffff" bordercolor="#666666" borderopacity="1.0" gridtolerance="10000" guidetolerance="10" objecttolerance="10" inkscape:pageopacity="0.0" inkscape:pageshadow="2" inkscape:zoom="1.4" inkscape:cx="95.941857" inkscape:cy="98.361161" inkscape:document-units="px" inkscape:current-layer="layer2" showgrid="false" inkscape:window-width="1086" inkscape:window-height="809" inkscape:window-x="199" inkscape:window-y="0"/>
  <metadata id="metadata7">
    <rdf:RDF>
      <cc:Work rdf:about="">
        <dc:format>image/svg+xml</dc:format>
        <dc:type rdf:resource="http://purl.org/dc/dcmitype/StillImage"/>
      </cc:Work>
    </rdf:RDF>
  </metadata>
  <g inkscape:label="Layer 1" inkscape:groupmode="layer" id="layer1" transform="translate(-1.35701, -40.599)"/>
  <g inkscape:groupmode="layer" id="layer2" inkscape:label="Color" transform="translate(-1.35701, -40.599)">
    <path sodipodi:type="arc" style="opacity: 1; fill: none; fill-opacity: 1; stroke: rgb(0, 0, 0); stroke-width: 5.8; stroke-miterlimit: 4; stroke-dasharray: none; stroke-opacity: 1;" id="path4846" sodipodi:cx="50.357143" sodipodi:cy="143.21428" sodipodi:rx="39.642857" sodipodi:ry="39.642857" d="M 90,143.21428 A 39.642857,39.642857 0 1 1 10.714287,143.21428 A 39.642857,39.642857 0 1 1 90,143.21428 z" transform="matrix(1.05818, 0, 0, 1.11776, -6.82674, -16.8171)"/>
    <path sodipodi:type="arc" style="opacity: 1; fill: none; fill-opacity: 1; stroke: rgb(0, 0, 0); stroke-width: 6.1; stroke-miterlimit: 4; stroke-dasharray: none; stroke-opacity: 1;" id="path4848" sodipodi:cx="50.357143" sodipodi:cy="143.21428" sodipodi:rx="39.642857" sodipodi:ry="39.642857" d="M 90,143.21428 A 39.642857,39.642857 0 1 1 10.714287,143.21428 A 39.642857,39.642857 0 1 1 90,143.21428 z" transform="matrix(1.05818, 0, 0, 1.11776, 147.744, -18.0147)"/>
    <path style="fill: none; fill-rule: evenodd; stroke: rgb(0, 0, 0); stroke-width: 5.43783; stroke-linecap: butt; stroke-linejoin: miter; stroke-miterlimit: 4; stroke-dasharray: none; stroke-opacity: 1;" d="M 201.0308,142.86336 C 157.19176,74.999169 157.19176,74.999169 157.19176,74.999169 L 74.04874,75.797572 L 74.04874,75.797572 L 104.28256,142.86336" id="path4852"/>
    <path style="fill: none; fill-rule: evenodd; stroke: rgb(0, 0, 0); stroke-width: 2.82767; stroke-linecap: butt; stroke-linejoin: miter; stroke-miterlimit: 4; stroke-dasharray: none; stroke-opacity: 1;" d="M 46.082455,142.06497 L 103.52672,142.06497" id="path4854"/>
    <path style="fill: none; fill-rule: evenodd; stroke: rgb(0, 0, 0); stroke-width: 4.05227; stroke-linecap: butt; stroke-linejoin: miter; stroke-miterlimit: 4; stroke-dasharray: none; stroke-opacity: 1;" d="M 77.058469,82.199214 L 46.851955,142.05055" id="path4856"/>
    <path style="fill: none; fill-rule: evenodd; stroke: rgb(0, 0, 0); stroke-width: 4.39485; stroke-linecap: butt; stroke-linejoin: miter; stroke-miterlimit: 4; stroke-dasharray: none; stroke-opacity: 1;" d="M 73.429957,75.143949 L 60.306457,46.111908" id="path4858"/>
    <path style="fill: none; fill-rule: evenodd; stroke: rgb(0, 0, 0); stroke-width: 4.89405; stroke-linecap: butt; stroke-linejoin: miter; stroke-miterlimit: 4; stroke-dasharray: none; stroke-opacity: 1;" d="M 157.19176,74.200767 L 157.19176,57.434319 L 157.19176,57.434319 L 157.19176,56.635917" id="path4860"/>
    <path style="fill: none; fill-rule: evenodd; stroke: rgb(0, 0, 0); stroke-width: 4.019; stroke-linecap: butt; stroke-linejoin: miter; stroke-miterlimit: 4; stroke-dasharray: none; stroke-opacity: 1;" d="M 107.76228,134.92909 L 160.30684,79.698479" id="path4862"/>
    <path sodipodi:type="arc" style="opacity: 1; fill: rgb(51, 51, 51); fill-opacity: 1; stroke: rgb(0, 0, 0); stroke-width: 1.6; stroke-miterlimit: 4; stroke-dasharray: none; stroke-opacity: 1;" id="path4864" sodipodi:cx="-118.21429" sodipodi:cy="59.285713" sodipodi:rx="7.5" sodipodi:ry="7.8571429" d="M -110.71429,59.285713 A 7.5,7.8571429 0 1 1 -125.71429,59.285713 A 7.5,7.8571429 0 1 1 -110.71429,59.285713 z" transform="matrix(1.33674, 0, 0, 1.29701, 264.194, 64.3723)"/>
    <rect style="opacity: 1; fill: rgb(51, 51, 51); fill-opacity: 1; stroke: rgb(0, 0, 0); stroke-width: 1.94161; stroke-miterlimit: 4; stroke-dasharray: none; stroke-opacity: 1;" id="rect4866" width="30.037764" height="6.9785223" x="49.203869" y="41.56982" ry="3.4892612"/>
    <path style="fill: none; fill-rule: evenodd; stroke: rgb(0, 0, 0); stroke-width: 4.35026; stroke-linecap: butt; stroke-linejoin: miter; stroke-miterlimit: 4; stroke-dasharray: none; stroke-opacity: 1;" d="M 156.4359,58.232722 C 156.4359,58.232722 172.30866,47.853491 178.35542,47.05509 C 184.40219,46.256687 201.0308,82.18479 168.52943,74.999169" id="path4868" sodipodi:nodetypes="css"/>
    <path sodipodi:type="star" style="opacity: 1; fill: rgb(51, 51, 51); fill-opacity: 1; stroke: rgb(0, 0, 0); stroke-width: 4.5; stroke-miterlimit: 4; stroke-dasharray: none; stroke-opacity: 1;" id="path4872" sodipodi:sides="19" sodipodi:cx="302.85715" sodipodi:cy="17.142857" sodipodi:r1="31.143185" sodipodi:r2="15.571592" sodipodi:arg1="0.93188234" sodipodi:arg2="1.0972293" inkscape:flatsided="false" inkscape:rounded="0" inkscape:randomized="0" d="M 321.42858,42.142856 L 309.95878,31.000751 L 312.30484,46.81842 L 305.07435,32.55579 L 302.1573,48.278177 L 299.94964,32.440598 L 292.08559,46.363938 L 295.14001,30.667659 L 283.18116,41.283142 L 291.16665,27.429098 L 276.40892,33.586371 L 288.46014,23.075862 L 272.50276,24.10769 L 287.31376,18.079694 L 271.88596,13.874261 L 287.85175,12.982004 L 274.62538,3.9950359 L 290.01582,8.3352079 L 280.42414,-4.4594192 L 293.57143,4.6428569 L 288.65387,-10.572933 L 298.1333,2.3050748 L 298.42275,-13.68301 L 303.20707,1.5751965 L 308.67216,-13.452627 L 308.24292,2.5323158 L 318.29142,-9.9067479 L 312.69514,5.0727139 L 326.23814,-3.4296247 L 316.08126,8.9210993 L 331.65117,5.276846 L 318.03434,13.66044 L 333.94392,15.269183 L 318.34274,18.777154 L 332.86793,25.464562 L 316.97303,23.716767 L 328.53981,34.758155 L 314.07365,27.943994 L 321.42858,42.142856 z" transform="matrix(0.495633, 0, 0, 0.494845, -103.291, 132.667)"/>
    <path sodipodi:type="arc" style="opacity: 1; fill: rgb(51, 51, 51); fill-opacity: 1; stroke: rgb(0, 0, 0); stroke-width: 4.5; stroke-miterlimit: 4; stroke-dasharray: none; stroke-opacity: 1;" id="path4874" sodipodi:cx="345.35715" sodipodi:cy="45.357143" sodipodi:rx="4.6428571" sodipodi:ry="4.6428571" d="M 350,45.357143 A 4.6428571,4.6428571 0 1 1 340.71429,45.357143 A 4.6428571,4.6428571 0 1 1 350,45.357143 z" transform="translate(-144.286, 97.1429)"/>
  </g>
</svg>