<?xml version="1.0" encoding="UTF-8" standalone="no"?>
<!DOCTYPE svg PUBLIC "-//W3C//DTD SVG 20010904//EN" "http://www.w3.org/TR/2001/REC-SVG-20010904/DTD/svg10.dtd">
<!-- Created with Inkscape (http://www.inkscape.org/) -->
<svg id="svg1" sodipodi:version="0.32" inkscape:version="0.40" width="160.00000pt" height="160.00000pt" sodipodi:docbase="/home/nicu/Desktop/winter" sodipodi:docname="sledge.svg" xmlns="http://www.w3.org/2000/svg" xmlns:cc="http://web.resource.org/cc/" xmlns:inkscape="http://www.inkscape.org/namespaces/inkscape" xmlns:sodipodi="http://sodipodi.sourceforge.net/DTD/sodipodi-0.dtd" xmlns:rdf="http://www.w3.org/1999/02/22-rdf-syntax-ns#" xmlns:dc="http://purl.org/dc/elements/1.1/" xmlns:xlink="http://www.w3.org/1999/xlink">
  <defs id="defs3">
    <linearGradient id="linearGradient1644">
      <stop style="stop-color: rgb(104, 104, 104); stop-opacity: 1;" offset="0.0000000" id="stop1645"/>
      <stop style="stop-color: rgb(150, 150, 150); stop-opacity: 1;" offset="1.0000000" id="stop1646"/>
    </linearGradient>
    <linearGradient id="linearGradient1577">
      <stop style="stop-color: rgb(97, 52, 2); stop-opacity: 1;" offset="0.0000000" id="stop1578"/>
      <stop style="stop-color: rgb(131, 100, 89); stop-opacity: 1;" offset="1.0000000" id="stop1579"/>
    </linearGradient>
    <linearGradient inkscape:collect="always" xlink:href="#linearGradient1577" id="linearGradient1580" x1="0.91417909" y1="1.0000000" x2="0.070895523" y2="0.058823530"/>
    <linearGradient inkscape:collect="always" xlink:href="#linearGradient1577" id="linearGradient1582" x1="0.62500000" y1="0.50000000" x2="0.51785713" y2="0.36718750"/>
    <linearGradient inkscape:collect="always" xlink:href="#linearGradient1644" id="linearGradient2955" gradientTransform="scale(1.70196, 0.587559)" x1="79.636971" y1="214.70096" x2="36.795177" y2="137.54723" gradientUnits="userSpaceOnUse"/>
    <linearGradient inkscape:collect="always" xlink:href="#linearGradient1644" id="linearGradient2962" gradientTransform="scale(0.981336, 1.01902)" x1="61.627090" y1="113.85464" x2="53.879700" y2="106.00007" gradientUnits="userSpaceOnUse"/>
    <linearGradient inkscape:collect="always" xlink:href="#linearGradient1644" id="linearGradient2969" gradientTransform="scale(0.868413, 1.15153)" x1="153.26562" y1="104.03659" x2="142.76176" y2="93.793236" gradientUnits="userSpaceOnUse"/>
    <linearGradient inkscape:collect="always" xlink:href="#linearGradient1644" id="linearGradient2976" gradientTransform="scale(1.86132, 0.537254)" x1="93.122017" y1="168.00035" x2="44.997490" y2="101.82324" gradientUnits="userSpaceOnUse"/>
    <linearGradient inkscape:collect="always" xlink:href="#linearGradient1577" id="linearGradient2983" gradientTransform="scale(3.51467, 0.284522)" x1="27.519945" y1="361.88638" x2="28.999371" y2="345.18854" gradientUnits="userSpaceOnUse"/>
    <linearGradient inkscape:collect="always" xlink:href="#linearGradient1577" id="linearGradient3000" gradientTransform="scale(0.655824, 1.5248)" x1="248.81599" y1="66.742897" x2="230.88255" y2="53.469612" gradientUnits="userSpaceOnUse"/>
  </defs>
  <sodipodi:namedview id="base" pagecolor="#ffffff" bordercolor="#666666" borderopacity="1.0" inkscape:pageopacity="0.0" inkscape:pageshadow="2" inkscape:zoom="3.8312500" inkscape:cx="80.000000" inkscape:cy="80.000000" inkscape:window-width="1152" inkscape:window-height="793" inkscape:window-x="0" inkscape:window-y="25" inkscape:current-layer="svg1"/>
  <metadata id="metadata4">
    <rdf:RDF id="RDF5">
      <cc:Work rdf:about="" id="Work6">
        <dc:format id="format7">image/svg+xml</dc:format>
        <dc:type id="type9" rdf:resource="http://purl.org/dc/dcmitype/StillImage"/>
      </cc:Work>
    </rdf:RDF>
  </metadata>
  <g id="g3011">
    <g id="g3006">
      <path style="fill: url(&quot;#linearGradient2969&quot;) rgb(0, 0, 0); fill-opacity: 1; fill-rule: evenodd; stroke: none; stroke-width: 1pt; stroke-linecap: butt; stroke-linejoin: miter; stroke-opacity: 1;" d="M 128.36218,104.50558 L 121.66362,105.14354 C 125.81035,108.01435 128.16583,119.96405 126.88991,121.55894 C 126.88991,121.87792 133.19577,121.43632 134.15270,122.39325 C 136.38555,120.47938 135.06075,105.78151 128.36218,104.50558 z " id="path1641" sodipodi:nodetypes="ccccc"/>
      <path style="fill: url(&quot;#linearGradient2962&quot;) rgb(0, 0, 0); fill-opacity: 1; fill-rule: evenodd; stroke: none; stroke-width: 1pt; stroke-linecap: butt; stroke-linejoin: miter; stroke-opacity: 1;" d="M 55.183413,103.66826 L 61.562998,103.66826 C 57.416268,106.53907 54.545454,115.47050 55.821371,117.06539 C 55.821371,117.38437 50.079744,117.38437 49.441786,117.06539 C 47.208931,115.15152 48.484848,104.94419 55.183413,103.66826 z " id="path955" sodipodi:nodetypes="ccccc"/>
      <path style="fill: url(&quot;#linearGradient2955&quot;) rgb(0, 0, 0); fill-opacity: 1; fill-rule: evenodd; stroke: none; stroke-width: 1pt; stroke-linecap: butt; stroke-linejoin: miter; stroke-opacity: 1;" d="M 31.578947,73.365235 C 14.673046,75.279115 7.3365231,82.934605 7.3365231,96.331745 C 7.0175441,105.90110 9.2503991,120.25517 26.156300,121.53109 C 43.700159,122.80701 176.71452,130.78149 176.39554,131.73843 L 171.92983,123.12599 L 33.492823,116.10844 C 18.500798,114.83252 16.267942,107.17703 15.948964,99.202545 C 16.267942,91.228075 16.267943,82.934605 30.622009,80.701755 C 30.940989,79.744815 31.578947,73.365235 31.578947,73.365235 z " id="path953" sodipodi:nodetypes="ccccccccc"/>
      <path style="fill: url(&quot;#linearGradient2976&quot;) rgb(0, 0, 0); fill-opacity: 1; fill-rule: evenodd; stroke: none; stroke-width: 1pt; stroke-linecap: butt; stroke-linejoin: miter; stroke-opacity: 1;" d="M 55.196853,47.368422 C 40.842785,49.282302 34.463199,53.748004 34.463199,65.231264 C 34.144220,72.248794 36.058096,80.861229 48.817268,81.818170 C 66.361126,83.094090 187.25428,90.430620 186.93530,91.387560 L 183.42653,84.688990 L 57.110729,76.395524 C 46.903392,75.757563 41.161764,74.800638 40.842786,65.231251 C 40.842785,58.213721 41.799724,54.385955 54.877874,52.153105 C 55.196854,51.196165 55.196853,47.368422 55.196853,47.368422 z " id="path1642" sodipodi:nodetypes="ccccccccc"/>
    </g>
    <path style="fill: rgb(0, 0, 0); fill-opacity: 1; fill-rule: evenodd; stroke: none; stroke-width: 1pt; stroke-linecap: butt; stroke-linejoin: miter; stroke-opacity: 1;" d="M 55.343750,46.718750 C 47.595665,47.732345 37.273085,49.558131 33.990960,57.699071 C 31.990976,64.243225 31.021977,72.552320 35.871969,77.991484 C 41.954219,84.023442 52.489473,82.328742 60.252765,83.332350 C 101.61738,86.108030 143.34333,88.975374 184.66072,92.399530 C 186.97191,93.713288 187.71706,92.629875 186.37335,89.987835 C 185.36569,88.053267 184.97958,86.127085 183.98171,84.187500 C 140.29018,81.249671 95.625455,78.199490 51.941300,75.168190 C 46.518405,75.162732 41.309050,72.309949 41.650381,66.128130 C 40.088487,59.405979 44.831042,54.101188 51.201553,53.506772 C 56.452571,54.277687 55.153425,50.134351 55.343750,46.718750 z M 54.093750,48.218750 C 56.899318,55.033718 43.737270,51.405889 41.346441,57.452354 C 38.949873,62.269836 38.866102,69.065088 42.536734,73.316247 C 47.972963,77.775322 55.453733,76.705063 62.037331,77.451614 C 102.21239,80.092743 142.38744,82.733871 182.56250,85.375000 C 183.39580,87.083139 183.97876,89.025159 184.58079,90.593750 C 146.22193,87.334229 108.40835,85.279472 69.998772,82.705324 C 61.419385,81.938923 52.724175,82.036715 44.227910,80.605113 C 37.809279,79.394788 34.149052,72.814418 34.563645,66.646678 C 34.145310,60.753928 36.261558,54.100879 42.047878,51.543281 C 45.791600,49.644824 49.977293,48.837512 54.093750,48.218750 z M 31.812500,72.718750 C 22.233247,73.540840 11.092091,77.228240 7.6867523,87.211537 C 5.2333239,95.686883 5.4608937,105.49484 9.7862616,113.34944 C 13.833221,120.57644 22.557899,122.56986 30.213650,122.53324 C 78.012240,125.70193 125.85625,128.26481 173.60733,132.09958 C 175.73837,132.89309 176.50526,131.98705 176.11088,130.83645 C 174.69002,128.08811 174.53294,125.34595 173.11967,122.59375 C 160.93380,121.94450 147.78746,121.34782 135.60023,120.71875 C 136.86506,115.27777 136.09755,108.73785 131.77238,105.05697 C 128.91484,102.95179 124.05165,104.70578 120.83667,104.62280 C 117.62824,104.71684 125.38239,108.52447 124.48511,111.24028 C 125.23919,113.92064 128.81716,120.83973 123.59232,119.51338 C 101.00947,118.36919 79.064567,117.54397 56.481709,116.39977 C 56.239044,111.13004 59.191328,106.88927 63.700459,104.08194 C 60.464639,104.28457 56.469885,102.68790 53.318742,103.48524 C 47.312554,104.88729 47.962125,113.69968 46.851031,116.26372 C 39.011992,115.53736 30.450645,115.88181 23.101328,112.53673 C 15.954061,109.23315 16.409397,100.99806 17.373691,94.117830 C 17.526393,88.294628 22.532128,83.894206 28.249446,82.806350 C 34.642241,83.507354 30.686404,76.723508 31.812500,72.718750 z M 30.406250,74.187500 C 31.944124,81.082395 28.880278,81.495955 23.960588,81.780999 C 17.850897,83.746013 14.885024,90.204495 14.976593,96.246772 C 14.169941,103.34793 16.344744,111.95839 23.734294,114.70360 C 31.466391,117.72833 39.911709,116.84842 48.031423,117.58342 C 52.741400,116.89365 48.179321,118.40503 48.886074,111.24965 C 49.437044,106.73435 53.611767,103.56971 58.021519,104.37500 C 62.016679,104.00912 54.412351,109.18695 55.213611,111.78383 C 54.365850,114.34845 54.950396,117.76666 51.959895,117.24486 C 53.184741,117.47985 57.789107,117.45202 59.196467,118.02481 C 97.229157,119.95349 133.02850,121.88250 171.06250,123.78125 C 172.30208,126.17708 173.54167,128.57292 174.78125,130.96875 C 136.63056,127.75805 98.389778,125.05779 60.187073,122.54960 C 47.499112,121.59342 34.734688,120.98661 22.104270,119.49817 C 13.752525,118.18186 9.3082689,111.13530 8.7072050,103.10837 C 7.6956173,94.636391 7.4860713,84.311447 15.351978,79.187562 C 19.784909,76.152664 25.149872,74.876732 30.406250,74.187500 z M 127.78125,105.21875 C 133.19518,107.08606 133.93940,113.86850 133.80278,118.96698 C 134.52839,122.78581 129.06541,120.05070 127.53125,120.29896 C 128.63097,115.42286 123.39395,108.04515 123.58321,105.62583 C 124.98256,105.49014 126.38190,105.35444 127.78125,105.21875 z " id="path1650" sodipodi:nodetypes="cccccccccccccccccccccccccccccccccccccccccccccccccccccccccccccccc"/>
    <g id="g3001">
      <path style="fill: url(&quot;#linearGradient1580&quot;) rgb(0, 0, 0); fill-opacity: 1; fill-rule: evenodd; stroke: none; stroke-width: 1pt; stroke-linecap: butt; stroke-linejoin: miter; stroke-opacity: 1;" d="M 68.580543,66.028705 L 42.382951,96.609429 L 150.23923,97.844050 L 166.18819,66.347690 L 68.580543,66.028705 z " id="path950" sodipodi:nodetypes="ccccc"/>
      <path style="fill: url(&quot;#linearGradient2983&quot;) rgb(0, 0, 0); fill-opacity: 1; fill-rule: evenodd; stroke: none; stroke-width: 1pt; stroke-linecap: butt; stroke-linejoin: miter; stroke-opacity: 1;" d="M 42.326688,96.234182 L 42.326689,103.66826 L 149.92026,104.94418 L 149.92025,97.288676 L 42.326688,96.234182 z " id="path951" sodipodi:nodetypes="ccccc"/>
      <path style="fill: url(&quot;#linearGradient3000&quot;) rgb(0, 0, 0); fill-opacity: 1; fill-rule: evenodd; stroke: none; stroke-width: 1pt; stroke-linecap: butt; stroke-linejoin: miter; stroke-opacity: 1;" d="M 149.50372,97.566362 L 166.09064,66.070004 L 166.18820,74.003193 L 149.86399,104.86160 L 149.50372,97.566362 z " id="path952" sodipodi:nodetypes="ccccc"/>
      <path style="fill: rgb(0, 0, 0); fill-opacity: 1; fill-rule: evenodd; stroke: none; stroke-width: 1pt; stroke-linecap: butt; stroke-linejoin: miter; stroke-opacity: 1;" d="M 68.362440,64.941343 C 67.283018,66.200462 64.644746,68.257177 63.549940,69.535093 C 62.455134,70.813010 64.468234,70.025001 63.362440,71.316343 C 62.256646,72.607688 59.707214,74.807288 58.206190,75.847593 C 58.389260,76.110628 57.923045,77.152898 57.456190,78.066343 C 56.341605,79.368428 53.153236,82.218655 52.299940,82.222593 C 52.353462,82.096989 52.275619,83.914212 52.206190,83.910093 C 51.100394,85.201432 46.764631,89.467980 46.706190,89.191343 C 46.936061,89.053022 47.044340,90.398799 47.018690,90.191343 C 46.086218,91.538436 42.433403,95.218036 41.893690,95.847593 C 41.985049,95.706444 41.768921,98.441487 41.737440,98.316343 C 41.737440,100.13615 41.737440,101.96528 41.737440,103.78509 C 78.017232,104.26770 113.70635,104.82330 149.98744,105.25384 C 150.02224,105.23258 153.29004,100.44383 153.65112,99.796214 C 153.83166,99.472406 154.33775,97.763733 154.37564,97.690957 C 154.30830,97.723405 157.24514,93.078315 157.23641,92.984661 C 157.11372,93.113025 158.15132,90.612796 157.99751,90.499322 C 157.94893,90.491072 160.39179,87.608381 161.29086,85.919583 C 161.24290,86.124815 161.43996,84.051549 161.52959,83.978567 C 161.40880,84.010808 163.70596,80.782136 164.59630,79.097451 C 164.64484,78.991125 165.07536,77.061619 165.11455,77.166821 C 165.04852,76.009335 166.27474,74.782076 166.86244,73.660093 C 166.92333,71.107032 166.49788,67.634146 166.76869,65.128843 C 165.34209,65.214991 100.28511,65.042105 68.362440,64.941343 z M 68.924940,66.191343 C 101.04994,66.295274 133.17494,66.399912 165.29994,66.503843 C 164.53102,68.036528 164.31599,69.767670 163.47401,71.378843 L 65.081190,70.253843 C 66.278720,68.857681 67.727763,67.587811 68.924940,66.191343 z M 165.51869,67.503843 C 165.54158,69.520035 165.69785,71.567558 165.51869,73.535093 C 165.06793,74.387690 164.62570,75.244967 164.17494,76.097593 L 163.91151,72.109067 C 164.69725,70.599547 164.81382,68.908863 165.51869,67.503843 z M 65.518690,71.378843 L 162.08119,72.628843 C 161.20768,74.288267 160.77837,76.224539 159.87709,77.913265 L 60.081190,76.472593 L 65.518690,71.378843 z M 162.54994,73.253843 L 163.63539,78.240410 C 162.77081,79.875791 161.69598,80.774764 160.83119,82.410093 C 160.77146,81.864918 160.35613,78.873033 160.26039,78.654963 C 160.25493,78.642523 161.71898,74.858816 162.54994,73.253843 z M 59.674940,77.722593 L 158.76869,78.910093 C 157.63093,81.037735 157.15167,82.925392 156.01356,85.054869 L 54.331190,83.191343 C 55.893690,81.368427 58.111704,79.544878 59.674940,77.722593 z M 159.14369,79.785093 C 159.22502,80.192334 160.57923,84.646660 160.57923,84.646660 C 160.57923,84.646660 158.04739,87.648276 157.04994,89.535093 L 156.65516,85.725765 C 156.65516,85.725765 158.06776,81.843870 159.14369,79.785093 z M 54.174940,84.035093 L 154.95619,86.160093 C 153.84628,88.241432 153.34934,90.440038 152.26356,92.495541 L 48.424940,89.910093 C 49.956341,88.118555 52.641213,85.824638 54.174940,84.035093 z M 155.45619,86.847593 L 156.40834,91.865410 C 156.40834,91.865410 154.26021,94.848588 153.26869,96.722593 L 152.68959,93.498713 C 153.85752,91.238853 154.06772,89.550049 155.45619,86.847593 z M 48.268690,91.160093 L 151.17494,93.347593 C 150.51287,94.611929 149.76212,95.976865 149.17494,97.160093 L 43.456190,95.878843 C 44.840879,94.263640 46.886251,92.777225 48.268690,91.160093 z M 151.61244,94.253843 L 152.68959,98.799739 C 152.68959,98.799739 150.77064,101.43208 149.95619,102.97259 L 149.64369,98.035093 C 149.66087,98.067229 151.01855,95.391360 151.61244,94.253843 z M 42.893690,96.972593 L 149.20619,98.378843 L 149.36244,103.84759 C 113.90410,103.42101 78.445779,102.99292 42.987440,102.56634 C 43.008602,100.52500 42.820334,98.961737 42.893690,96.972593 z " id="path1583" sodipodi:nodetypes="cccccccccccccsccccccccccccccccccccccccccccccccccccccccccccccccccccccccccccccccc"/>
    </g>
  </g>
</svg>