<?xml version="1.0" encoding="UTF-8" standalone="no"?>
<!-- Created with Inkscape (http://www.inkscape.org/) -->
<svg xmlns:dc="http://purl.org/dc/elements/1.1/" xmlns:cc="http://web.resource.org/cc/" xmlns:rdf="http://www.w3.org/1999/02/22-rdf-syntax-ns#" xmlns:svg="http://www.w3.org/2000/svg" xmlns="http://www.w3.org/2000/svg" xmlns:xlink="http://www.w3.org/1999/xlink" xmlns:sodipodi="http://sodipodi.sourceforge.net/DTD/sodipodi-0.dtd" xmlns:inkscape="http://www.inkscape.org/namespaces/inkscape" width="213.21921" height="184.73712" id="svg3014" sodipodi:version="0.32" inkscape:version="0.45+devel" version="1.0" sodipodi:docname="sea_lion.svg" inkscape:output_extension="org.inkscape.output.svg.inkscape">
  <defs id="defs3016">
    <linearGradient inkscape:collect="always" id="linearGradient11619">
      <stop style="stop-color: rgb(211, 215, 207); stop-opacity: 1;" offset="0" id="stop11621"/>
      <stop style="stop-color: rgb(211, 215, 207); stop-opacity: 0;" offset="1" id="stop11623"/>
    </linearGradient>
    <linearGradient inkscape:collect="always" xlink:href="#linearGradient11619" id="linearGradient18785" gradientUnits="userSpaceOnUse" gradientTransform="matrix(0.285658, 0, 0, 0.285658, 55.0727, 38.2235)" x1="538.76031" y1="246.763" x2="448.11984" y2="445.83325"/>
    <filter inkscape:collect="always" id="filter12604">
      <feGaussianBlur inkscape:collect="always" stdDeviation="1.2121533" id="feGaussianBlur12606"/>
    </filter>
  </defs>
  <sodipodi:namedview id="base" pagecolor="#ffffff" bordercolor="#666666" borderopacity="1.0" inkscape:pageopacity="0.0" inkscape:pageshadow="2" inkscape:zoom="2.652418" inkscape:cx="106.6096" inkscape:cy="89.337771" inkscape:document-units="px" inkscape:current-layer="layer1" inkscape:window-width="1024" inkscape:window-height="689" inkscape:window-x="0" inkscape:window-y="26"/>
  <metadata id="metadata3019">
    <rdf:RDF>
      <cc:Work rdf:about="">
        <dc:format>image/svg+xml</dc:format>
        <dc:type rdf:resource="http://purl.org/dc/dcmitype/StillImage"/>
      </cc:Work>
    </rdf:RDF>
  </metadata>
  <g inkscape:label="Camada 1" inkscape:groupmode="layer" id="layer1" transform="translate(-224.819, -265.708)">
    <g id="g18649" transform="matrix(1.47033, 0, 0, 1.47033, 106.188, 156.722)">
      <path id="path11577" d="M 181.61919,79.233245 C 180.45236,79.249715 179.63475,79.374585 179.03042,79.599235 C 178.42609,79.823895 178.03082,80.156565 177.77174,80.509775 C 177.51266,80.862985 177.37648,81.220135 177.21828,81.518505 C 177.06007,81.816875 176.89336,82.063345 176.56662,82.277285 C 176.53572,82.299605 176.5086,82.326725 176.48628,82.357625 C 175.28271,83.917415 174.66092,85.084435 173.95999,86.294345 C 172.98459,86.113385 171.95865,86.378935 170.96058,86.928155 C 169.86305,87.532105 168.77802,88.459937 167.77371,89.499077 C 165.79677,91.544557 164.15265,94.017021 163.42636,95.497891 C 158.6601,100.86037 159.12313,106.03864 158.5791,111.10194 C 158.5785,111.11384 158.5785,111.12576 158.5791,111.13765 C 158.45071,116.58629 157.43094,121.25783 153.43725,126.49176 C 153.43049,126.50061 153.42616,126.50969 153.41939,126.51854 C 149.68754,130.68191 148.03617,135.39262 146.20653,139.9891 C 142.0432,145.95907 137.02528,150.00144 132.3432,154.95936 C 127.69649,159.73265 124.25925,165.07213 120.28308,170.10816 C 120.27341,170.11949 120.26447,170.13141 120.2563,170.14386 C 117.03116,175.36734 112.90325,179.28358 107.28564,181.19525 C 100.52059,183.25145 94.485373,184.74617 87.173543,188.32777 C 87.154973,188.33518 87.137063,188.34414 87.119983,188.35455 C 86.734593,188.63827 86.525753,189.04134 86.593303,189.41684 C 86.660853,189.79234 86.935963,190.05286 87.253893,190.23811 C 87.819013,190.5674 88.600163,190.6864 89.289193,190.4345 C 89.600203,190.82057 89.983133,191.08732 90.413973,191.18435 C 90.868463,191.2867 91.340703,191.2713 91.806563,191.23791 C 91.917963,191.39791 92.072143,191.55609 92.333243,191.68425 C 92.694033,191.86136 93.226453,191.91902 93.904363,191.8003 C 94.271173,192.23976 94.924533,192.5065 95.725423,192.37162 C 96.146513,193.19386 96.959203,193.83565 97.894643,194.22839 C 98.921083,194.65935 100.08264,194.80586 101.05473,194.47834 C 101.06023,194.47649 101.06709,194.48023 101.07258,194.47834 L 101.07258,194.46942 C 102.29625,194.12152 103.11751,193.25405 103.95594,192.59479 C 104.21061,193.14362 104.6802,193.61552 105.21462,193.94274 C 105.90495,194.3654 106.7545,194.56869 107.44632,194.18376 C 107.45228,194.18045 107.45824,194.17823 107.46418,194.17483 C 107.47318,194.17097 107.48196,194.16977 107.49096,194.16591 C 114.09851,191.32798 118.78051,187.8385 122.76473,184.13217 C 122.77089,184.12643 122.77684,184.12048 122.78258,184.11432 C 124.43404,182.34989 127.88926,181.2444 131.88793,180.40076 C 133.02332,180.59177 134.06289,180.70904 134.92305,180.64179 C 135.68712,180.58205 136.33786,180.35609 136.74411,179.88301 C 137.63804,180.15946 138.50459,180.3869 139.30611,180.42755 C 140.11531,180.46859 140.87438,180.31042 141.47532,179.8473 C 144.54741,180.25059 146.22596,179.1104 147.63482,177.90126 C 147.87919,177.9653 148.14265,178.06303 148.46501,178.08872 C 148.65186,178.10361 148.85653,178.07361 149.05418,177.99053 C 149.50497,180.60395 149.57268,183.13586 150.42891,184.92666 C 150.89014,185.89132 151.6332,186.64704 152.76774,186.97982 C 153.87589,187.30486 155.34236,187.24142 157.31149,186.75665 C 159.13513,187.79023 161.26199,187.87532 163.51562,187.41724 C 164.98042,188.62707 166.55074,189.09022 168.13079,189.13118 C 169.72972,189.17264 171.3395,188.81018 172.92448,188.43489 C 175.73702,189.33042 178.66677,190.13553 181.76202,188.76519 C 183.21395,188.11454 184.59193,188.51251 186.00226,188.96158 C 187.41259,189.41064 188.87363,189.93818 190.2782,189.22938 C 190.29042,189.2241 190.30234,189.21814 190.31391,189.21152 C 190.99146,188.76897 191.77321,188.35681 192.11712,187.57792 C 192.28908,187.18848 192.31622,186.71619 192.16176,186.19427 C 192.00729,185.67234 191.68288,185.09744 191.1441,184.39998 C 191.14129,184.39394 191.13831,184.38799 191.13517,184.38212 C 189.85463,182.85059 188.08658,181.96417 186.18972,181.02564 C 184.29791,180.08961 182.27025,179.10068 180.37837,177.44599 L 180.36051,177.43706 L 177.70925,174.85722 C 181.12571,174.75857 183.77821,174.27051 185.73446,173.13434 C 187.25178,172.2531 188.33109,170.96728 189.07308,169.26904 C 189.23718,170.26925 189.62062,171.21781 190.21571,172.09883 C 191.26268,173.64885 192.88243,175.02243 194.8398,176.32121 C 198.75453,178.91878 204.02767,181.20364 208.83704,183.6769 C 211.37317,184.98113 213.58948,186.13792 216.00526,187.42617 C 216.01113,187.4293 216.01708,187.43228 216.02312,187.43509 C 216.93059,187.86254 217.6644,188.07414 218.25482,188.11353 C 218.84524,188.15291 219.3228,188.03165 219.60277,187.69397 C 219.88274,187.35628 219.84521,186.86335 219.61169,186.471 C 219.38076,186.08298 218.97415,185.72462 218.39765,185.42656 C 218.3916,185.42296 218.38584,185.42123 218.3798,185.41763 C 206.98285,178.6342 202.27709,173.11159 200.04413,168.24245 C 197.82074,163.39419 198.04658,159.12241 196.63409,154.78082 L 195.33077,145.61299 C 195.33099,145.60988 195.33056,145.60717 195.33077,145.60406 C 196.00042,135.87606 194.86897,129.71811 193.26868,124.50109 C 191.67207,119.29607 189.62437,115.04976 188.42142,109.06663 L 188.42142,109.0577 L 187.5823,92.168187 C 187.55151,91.702647 187.51091,91.243537 187.47518,90.784527 C 187.87999,91.725297 188.27692,92.777817 188.71601,93.908921 C 188.3297,92.822867 187.96372,91.501087 187.43947,90.248927 C 187.43798,90.245367 187.43204,90.243557 187.43055,90.239997 C 187.39904,89.865877 187.37833,89.499707 187.34128,89.133077 C 188.45836,91.161137 189.39181,93.730321 190.5103,96.640521 C 189.64211,94.173401 188.82218,90.952687 187.25201,88.374297 C 187.23328,88.212427 187.2187,88.052045 187.19845,87.892245 C 189.14983,89.842577 190.7584,92.891737 192.75985,96.461991 C 191.30507,93.683741 189.76295,89.827667 187.13596,87.436975 C 187.00453,86.486895 186.84297,85.578615 186.63606,84.732155 C 186.62232,84.668535 186.59145,84.609885 186.54679,84.562545 C 186.40941,84.420395 186.21917,84.007215 186.02904,83.482405 C 185.8389,82.957585 185.62519,82.326255 185.3149,81.705965 C 184.6943,80.465395 183.60938,79.260255 181.62812,79.233245 C 181.62514,79.233205 181.62217,79.233205 181.61919,79.233245 z" style="fill: rgb(46, 52, 54); fill-rule: evenodd; stroke: none; stroke-width: 0.697864px; stroke-linecap: butt; stroke-linejoin: miter; stroke-opacity: 1;"/>
      <path id="path11575" d="M 182.86002,81.161435 C 182.83314,81.165835 182.80248,81.180055 182.77968,81.197135 C 182.41515,81.470525 182.9642,82.562945 182.23514,82.562945 C 181.50614,82.562945 181.68578,82.108055 181.04788,81.652405 C 180.40997,81.196755 179.50095,82.655545 178.31628,82.928935 C 177.61101,83.091695 177.36125,82.478205 177.27184,81.955915 C 177.12895,82.164245 176.95257,82.365285 176.69159,82.536155 C 175.43887,84.159665 174.8342,85.348505 174.07604,86.642495 C 170.33504,85.565215 164.98268,92.865137 163.62275,95.694281 C 158.93924,100.96361 159.41351,105.99234 158.86476,111.10194 C 158.73518,116.60003 157.68927,121.38453 153.63364,126.68815 C 149.92722,130.81203 148.29288,135.50047 146.44756,140.13193 C 142.2477,146.16169 137.20595,150.2234 132.53959,155.16467 C 127.92438,159.90563 124.4784,165.23313 120.48839,170.28669 C 117.23341,175.5585 113.03843,179.54735 107.33028,181.48984 C 100.55473,183.54922 94.540093,185.03982 87.262813,188.6045 C 85.978593,189.54991 88.132313,190.61889 89.307053,189.98816 C 89.299193,189.80198 89.297743,189.56493 89.324903,189.30972 C 89.383833,188.75812 89.572953,188.10993 90.137243,187.84573 C 90.140843,187.84362 90.142573,187.83889 90.146173,187.8368 C 93.667363,185.78863 97.123563,184.95173 100.16205,184.25715 C 103.20362,183.56186 105.81925,183.00834 107.67842,181.5791 C 107.69839,181.56066 107.72341,181.54827 107.74984,181.5434 C 107.81665,181.53017 107.88438,181.56972 107.91052,181.63266 C 107.93648,181.69561 107.91363,181.76442 107.85696,181.80227 C 105.92354,183.28839 103.26299,183.83931 100.22454,184.53388 C 97.186083,185.22844 93.763953,186.06673 90.280073,188.09567 C 90.274133,188.09604 90.268163,188.09605 90.262223,188.09567 C 89.834823,188.28995 89.665213,188.8228 89.610563,189.3365 C 89.556113,189.8502 89.619493,190.31845 89.619493,190.31845 C 89.622293,190.3408 89.626293,190.36095 89.619493,190.38094 C 90.142873,190.87744 90.900283,190.90016 91.699433,190.84513 C 91.660123,190.75999 91.626013,190.65647 91.601243,190.53269 C 91.538053,190.21675 91.570403,189.77775 91.913683,189.3365 C 91.923843,189.32575 91.936043,189.31672 91.949393,189.30972 C 95.200313,187.16345 98.538383,186.28283 101.59927,185.48012 C 104.66015,184.67741 107.44041,183.95166 109.58876,182.13257 C 109.60358,182.11675 109.62227,182.10454 109.64232,182.09686 C 109.65869,182.09261 109.67119,182.08675 109.68696,182.08793 C 109.73429,182.09149 109.78012,182.12302 109.803,182.16827 C 109.83317,182.22861 109.8198,182.30477 109.7673,182.34681 C 107.5555,184.21978 104.73142,184.95419 101.67068,185.75685 C 98.618773,186.55719 95.325143,187.42976 92.127923,189.53289 C 91.848203,189.90266 91.828153,190.23069 91.877973,190.47913 C 91.928243,190.73186 92.047583,190.88976 92.047583,190.88977 C 92.090683,190.9281 92.102113,190.98698 92.083293,191.04152 C 92.080553,191.04948 92.069383,191.05209 92.065433,191.05938 C 92.294363,191.31992 92.817653,191.62662 93.850793,191.41645 C 93.832233,191.2684 93.823463,191.10006 93.850793,190.91655 C 93.937233,190.33619 94.350403,189.62788 95.520113,189.11333 C 95.523023,189.11323 95.526063,189.11324 95.529033,189.11333 C 97.973923,188.26386 101.40387,187.4617 104.52726,186.39958 C 107.65064,185.33745 110.45597,184.00086 111.65085,182.15935 C 111.67119,182.12754 111.70327,182.10507 111.74012,182.09686 C 111.79885,182.08106 111.85797,182.10012 111.89187,182.15042 C 111.92613,182.20072 111.92847,182.27122 111.89187,182.32003 C 110.62144,184.27816 107.75879,185.59885 104.61653,186.66739 C 101.48126,187.73354 98.054373,188.53375 95.636163,189.37221 C 95.635443,189.37245 95.636873,189.38089 95.636163,189.38114 C 94.530863,189.86745 94.209243,190.47242 94.136453,190.96118 C 94.105323,191.17021 94.109833,191.38858 94.118603,191.57713 C 94.435743,191.92333 95.027723,192.1654 95.787913,191.96098 C 95.820913,191.73858 95.889863,191.49827 96.002153,191.24684 C 96.277193,190.6315 97.096443,190.13958 97.992833,189.7025 C 98.889233,189.26542 99.878993,188.90429 100.51912,188.64914 C 100.86759,188.51015 101.58841,188.34183 102.54551,188.1046 C 103.50269,187.86737 104.68327,187.56138 105.94662,187.18514 C 108.47272,186.43266 111.28771,185.37592 113.07021,183.90008 C 113.09432,183.87555 113.12506,183.85823 113.15948,183.85544 C 113.22452,183.8497 113.28964,183.88306 113.31124,183.94471 C 113.33283,184.00636 113.30345,184.07818 113.24875,184.11432 C 111.40517,185.6408 108.56798,186.70497 106.02696,187.46187 C 104.75647,187.84031 103.56589,188.14394 102.60799,188.38133 C 101.65027,188.61872 100.92121,188.79032 100.62624,188.90801 C 99.978773,189.1662 98.995493,189.52449 98.117813,189.95245 C 97.240073,190.3804 96.477463,190.89827 96.269963,191.36289 C 96.103083,191.7363 96.053943,192.07468 96.055723,192.35376 C 96.648513,193.2973 97.921193,193.9974 99.171173,194.19268 C 98.900573,193.7096 99.954023,192.77605 99.849613,192.88044 C 107.23658,188.23655 112.9499,186.94524 119.22971,184.51603 C 114.1999,187.04783 109.17321,187.82287 104.14341,192.24664 C 104.57035,193.39511 106.25404,194.40289 107.23208,193.81776 C 113.82266,190.994 118.47899,187.52484 122.45229,183.82866 C 124.225,181.93467 127.75253,180.84792 131.78973,179.99906 C 134.10642,180.39601 135.97518,180.43526 136.54772,179.43667 C 138.47717,180.0529 140.25425,180.38422 141.31464,179.43667 C 144.48356,179.89819 146.02634,178.74156 147.47414,177.4817 C 148.07608,177.6039 148.726,177.95383 149.18809,177.37458 C 148.82482,172.35316 148.26908,167.32169 147.62589,161.95798 C 146.55456,158.51939 145.39144,154.93697 144.13551,150.99586 C 143.75964,149.91251 143.4208,148.8656 143.15356,147.88932 C 143.48696,148.95132 143.81312,149.98329 144.13551,150.99586 C 145.0615,153.66418 146.24305,156.62481 147.35809,159.75305 C 146.98925,156.73197 146.60027,153.59099 146.1976,150.27278 C 145.9641,148.70689 145.77255,147.21397 145.662,145.82723 C 145.84016,147.35062 146.02155,148.82212 146.1976,150.27278 C 147.39422,158.29795 149.80409,168.40845 149.37555,178.02623 C 149.63141,179.53316 149.76499,180.98613 149.98257,182.26647 C 151.46736,185.41685 154.38321,185.81205 157.18652,186.36387 C 157.21683,186.35633 157.24539,186.35377 157.27578,186.34602 C 157.31175,186.36759 157.34689,186.38774 157.38291,186.40851 C 157.38862,186.40965 157.39487,186.40736 157.40076,186.40851 C 156.05614,181.97269 155.20615,178.02382 154.19603,173.00937 C 155.38451,176.31935 156.30562,184.00247 158.85583,185.66758 C 160.18808,186.53742 161.71518,186.52819 163.39065,187.02446 C 163.43841,187.01469 163.48555,187.00793 163.53348,186.99768 C 163.55476,187.01607 163.57483,187.03318 163.59596,187.05124 C 162.96829,182.68319 160.47532,177.30281 158.18632,172.29522 C 164.40075,183.48531 162.4906,184.06108 164.53328,185.82827 C 166.41922,187.45985 168.59704,188.67621 171.96931,188.2385 C 172.26777,188.17132 172.56283,188.10409 172.86199,188.03319 C 172.89165,188.04266 172.92175,188.05052 172.95126,188.05997 C 175.54975,186.54894 166.36192,178.75134 164.17621,173.00937 C 166.26045,176.63626 171.67126,183.44826 174.05819,185.89968 C 175.62865,187.51244 177.64676,187.93378 179.71778,186.97982 C 180.74693,186.5698 181.60848,188.09511 183.27958,186.83699 C 184.1083,186.1909 185.98803,187.02633 188.26967,187.8368 C 189.52482,188.32247 190.64286,187.85261 191.71542,187.39046 C 191.98422,186.76842 191.82654,185.92448 190.78703,184.57851 C 188.34677,181.65999 183.93512,181.06975 180.057,177.66916 L 176.78979,174.49122 C 176.81736,174.49097 176.84265,174.49151 176.87013,174.49122 C 172.34579,170.14887 172.56323,163.19759 171.36229,156.56618 C 172.98594,163.6327 173.69302,170.83384 177.29862,174.48229 C 183.41444,174.35739 186.89741,172.98228 188.59996,169.32259 C 188.82865,168.69076 189.05368,168.06194 189.26947,167.43011 C 189.27424,167.41218 189.28253,167.39457 189.28732,167.37655 C 189.32563,167.22964 189.35962,167.08259 189.39445,166.93021 C 189.37477,167.02293 189.35645,167.11523 189.34089,167.20694 C 191.12896,161.93833 192.51873,156.66618 194.18814,151.39756 C 192.47442,157.13073 191.23947,162.54672 189.26054,168.45669 C 189.49315,174.80006 199.97284,178.71552 208.9263,183.31983 C 211.46395,184.62483 213.68622,185.78907 216.10346,187.07802 C 219.6204,188.73459 220.31807,186.80437 218.1477,185.69436 C 195.2552,172.07461 199.02439,163.35836 196.2056,154.78975 L 194.90229,145.5505 C 196.23914,126.1589 190.41414,121.15421 187.99293,109.04878 L 187.15382,92.150337 C 186.99667,89.774737 186.79196,87.471865 186.37718,85.482005 L 186.32362,85.482005 C 185.56278,83.587765 184.18459,84.446265 183.03856,84.285815 C 179.77672,84.266335 178.79538,86.799995 176.08457,89.641907 C 177.46138,87.410675 178.4145,85.932105 180.00344,84.125125 C 181.66737,82.970795 183.72552,82.768445 185.52914,83.330645 C 185.37539,82.901745 185.20221,82.434465 184.9846,81.973765 C 184.93147,82.033255 184.86688,82.078155 184.78821,82.107675 C 184.10475,82.363975 183.26314,81.095355 182.86002,81.161435 z M 177.7271,84.642885 L 178.04847,84.883905 C 177.46201,85.153565 176.95253,85.473365 176.50413,85.830155 C 176.64251,85.790425 176.77955,85.747755 176.92369,85.714105 L 177.17364,86.026545 C 176.72824,86.102625 176.31421,86.213025 175.92389,86.347905 C 175.77389,86.499735 175.62832,86.656945 175.4954,86.821025 C 175.65103,86.742105 175.80617,86.664285 175.97745,86.597855 L 176.16492,86.776395 C 175.81536,86.888305 175.5037,87.022725 175.21867,87.187025 C 173.28777,89.943567 173.36347,94.231761 173.27263,99.666701 C 173.22984,96.053561 172.59452,91.112447 174.63843,87.597655 C 172.81216,89.110727 172.51853,92.017987 171.99609,95.783551 C 172.29715,93.040347 172.21412,89.026117 174.91516,87.160245 C 175.05073,86.958485 175.19643,86.761345 175.35257,86.571075 C 173.15358,87.555665 171.85432,89.561877 170.7999,92.284237 C 170.80853,92.396457 170.80931,92.505027 170.79097,92.614527 C 170.74591,92.883587 170.62587,93.095197 170.45175,93.239411 C 169.8389,94.994421 169.28551,96.997231 168.65747,99.193581 C 169.0955,97.477741 169.48301,95.420171 170.09468,93.426871 C 169.87674,93.481551 169.62557,93.455391 169.37161,93.346531 C 168.70281,93.059837 168.25604,92.270227 168.37181,91.579017 C 168.48758,90.887807 169.12237,90.560337 169.79117,90.847017 C 170.18856,91.017367 170.50515,91.366017 170.67493,91.766477 C 171.66662,89.263377 173.17257,87.059315 175.8257,86.044395 C 176.35208,85.514415 176.98257,85.041125 177.7271,84.642885 z M 176.87906,86.285415 L 177.13794,86.419315 C 173.86381,88.525417 174.52905,92.301537 175.19189,97.622471 C 174.65525,94.130791 173.1154,89.039927 176.87906,86.285415 z M 162.91753,97.497501 C 162.58558,98.429891 162.87454,99.150881 163.71201,99.693481 C 162.65508,100.24326 161.55282,98.555811 162.91753,97.497501 z M 169.59478,150.44239 C 170.42765,152.3201 170.94005,154.31625 171.31766,156.34301 C 170.85046,154.33511 170.3061,152.3374 169.59478,150.44239 z M 139.46679,152.74551 C 143.07833,162.8172 147.12702,169.16722 147.48307,177.16926 C 144.11324,169.02901 142.24478,160.88576 139.46679,152.74551 z M 133.51261,159.67271 C 137.15981,165.98576 140.43263,172.36706 141.28786,178.99033 C 138.41245,172.59153 136.38781,166.07152 133.51261,159.67271 z M 130.35252,163.9308 C 132.90702,168.9454 135.65046,173.80517 136.43167,179.11531 C 133.91897,173.56343 132.56791,168.88753 130.35252,163.9308 z M 167.94332,168.54596 C 171.07219,174.95959 172.89132,177.981 177.90564,182.06115 C 175.95637,180.51287 174.01574,178.96503 172.96912,177.64238 C 173.52695,179.14363 174.97149,180.64025 176.43272,182.14149 C 171.53569,178.1997 169.6719,173.39304 167.94332,168.54596 z M 130.35252,172.79512 C 131.30702,175.14406 131.77098,177.3734 132.42354,179.72233 C 130.11573,177.3734 130.84039,175.14406 130.35252,172.79512 z M 102.71512,193.02327 C 102.2027,193.36694 101.61281,193.75189 101.0458,194.04093 C 101.67639,193.82865 102.20722,193.44419 102.71512,193.02327 z M 99.653223,194.24625 C 99.779633,194.25235 99.905093,194.25193 100.02815,194.24625 C 99.903833,194.25126 99.780913,194.25307 99.653223,194.24625 z" style="fill: rgb(136, 138, 133); fill-opacity: 1; fill-rule: evenodd; stroke: none; stroke-width: 1; stroke-linecap: round; stroke-linejoin: round; stroke-miterlimit: 4; stroke-dasharray: none; stroke-opacity: 1;"/>
      <path transform="matrix(0.285658, 0, 0, 0.285658, 59.9124, -9.68915)" id="path2182" d="M 276.42734,572.58262 C 276.42744,572.58261 274.78244,594.87621 281.52114,605.95762 C 288.25984,617.03904 291.38954,629.63256 291.23994,622.14512 C 291.09014,614.65767 278.07464,573.93036 276.42734,572.58262 z M 256.55234,605.92637 C 256.52544,605.92381 256.49914,605.92954 256.48994,605.95762 C 256.48984,606.55662 254.84634,612.71641 258.73994,617.95762 C 262.63344,623.19882 262.80094,627.53815 265.64614,630.83262 C 268.49134,634.1271 268.31974,625.44381 263.67734,617.20762 C 259.32524,609.48619 256.95614,605.96475 256.55234,605.92637 z M 245.52114,617.80137 C 245.51944,617.81215 245.52124,617.84885 245.52114,617.86387 C 245.52894,617.8522 245.55254,617.80137 245.55234,617.80137 C 245.54644,617.8096 245.52404,617.78251 245.52114,617.80137 z M 245.52114,617.86387 C 245.30324,618.18929 242.25064,622.93289 245.86494,628.42637 C 249.60864,634.11682 250.37394,636.35737 252.02114,636.20762 C 253.66844,636.05787 249.29874,626.34983 247.05234,621.70762 C 245.72874,618.97203 245.51874,618.11175 245.52114,617.86387 z M 384.45864,651.64512 C 384.81604,652.21096 390.27894,660.89538 389.80234,662.80137 C 389.80234,662.80136 388.12524,665.98189 387.48994,665.77012 C 386.85464,665.55834 385.98994,665.33262 385.98994,665.33262 C 385.98984,665.33261 398.06354,683.14202 403.14614,685.89512 C 408.22884,688.64821 419.23994,686.30137 419.23994,686.30137 C 419.23994,686.30136 391.92664,663.01547 386.20864,654.33262 C 384.77914,652.16191 384.33954,651.45651 384.45864,651.64512 z M 326.48994,652.42637 C 326.32364,652.42596 326.18954,652.60134 326.08364,653.05137 C 325.23644,656.65157 323.52494,665.32669 326.48994,672.73887 C 329.45474,680.15106 336.67064,683.55833 338.36494,683.77012 C 340.05904,683.9819 331.98994,658.14511 331.98994,658.14512 C 330.13684,661.85122 327.65384,652.42926 326.48994,652.42637 z M 402.73994,652.83262 C 417.56424,672.52787 414.81634,673.60714 415.23994,675.30137 C 415.55764,676.57203 409.44214,671.65519 406.36494,669.11387 C 408.73114,671.07281 416.09234,677.17875 419.89614,680.80137 C 424.34344,685.03691 423.27144,687.79802 425.17734,688.64512 C 427.08334,689.49223 428.36494,688.42636 428.36494,688.42637 C 428.36494,688.42637 431.31794,683.35071 443.17734,688.64512 C 455.03694,693.93954 456.73994,689.70761 456.73994,689.70762 C 456.73994,689.70762 444.65884,679.53716 435.55234,677.20762 C 426.44604,674.87807 402.73994,652.83262 402.73994,652.83262 z M 368.95864,653.92637 C 367.93914,654.04363 367.05344,655.35186 367.14614,659.61387 C 367.35784,669.35561 365.45864,668.30137 365.45864,668.30137 C 365.45864,668.30137 371.17764,676.36439 373.08364,680.17637 C 374.07354,681.71017 372.39764,681.70018 376.89614,685.23887 C 376.89614,685.23888 391.08424,693.31144 394.89614,690.77012 C 398.70814,688.2288 396.39134,687.99404 385.80234,674.86387 C 375.21354,661.73372 371.80234,655.61387 371.80234,655.61387 C 371.80244,655.61386 370.26944,653.7756 368.95864,653.92637 z M 220.77114,655.70762 C 220.21034,655.73376 219.56634,655.81069 218.80234,655.89512 C 211.77734,659.2727 200.42404,680.89067 217.30234,666.89512 C 219.66914,665.07013 221.13934,662.35277 222.33364,659.98887 C 223.93354,656.82233 224.69694,655.52463 220.77114,655.70762 z M 345.95864,657.61387 C 345.84274,657.57804 345.77114,657.83662 345.77114,658.55137 C 345.77114,662.36336 345.34104,672.76729 349.36494,677.42637 C 353.38864,682.08546 357.82344,686.73525 360.36494,685.67637 C 361.02544,682.41527 359.42344,678.93596 358.05234,675.45762 C 355.77664,669.68335 353.72904,663.89178 350.83364,658.98887 C 350.62194,659.20064 349.79864,660.05162 348.73994,661.95762 C 347.87954,663.50624 346.46074,657.76913 345.95864,657.61387 z M 112.05234,693.98887 C 110.98324,694.03644 109.83004,694.46305 108.77114,696.05137 C 108.77114,696.05137 109.41364,697.31867 110.89614,696.89512 C 112.37854,696.47156 115.34724,694.35689 113.86494,694.14512 C 113.30894,694.06571 112.69404,693.96033 112.05234,693.98887 z M 132.92734,696.36387 C 130.68764,696.55414 126.52674,697.88208 123.61494,700.92637 C 123.61494,700.92639 125.31294,704.50953 126.58364,703.23887 C 126.89414,702.92838 127.41464,702.49204 128.02114,701.98887 C 128.03244,701.9789 128.04104,701.96757 128.05234,701.95762 C 128.07284,701.94069 128.09424,701.91219 128.11494,701.89512 C 128.42714,701.62591 128.75364,701.36953 129.11494,701.11387 C 130.89404,699.68723 133.01954,698.03872 134.20864,697.11387 C 134.92334,696.55796 134.27134,696.24971 132.92734,696.36387 z M 148.08364,699.27012 C 145.46294,699.27012 141.83344,699.86051 139.92734,700.70762 C 136.11534,702.4018 134.20864,705.57565 134.20864,705.36387 C 134.20864,705.36387 137.79944,708.96795 140.55234,708.33262 C 143.30554,707.69726 145.63634,704.2975 150.08364,701.33262 C 152.30724,699.85017 150.70434,699.27012 148.08364,699.27012 z M 180.58364,701.55137 C 180.58364,701.55134 169.55874,708.54078 164.05234,707.27012 C 158.54614,705.99945 157.29234,706.63143 159.83364,708.11387 C 159.83364,708.11386 160.26164,710.67611 166.61494,708.77012 C 172.96824,706.86413 180.58364,701.55137 180.58364,701.55137 z" style="fill: rgb(186, 189, 182); fill-opacity: 0.411523; fill-rule: evenodd; stroke: none; stroke-width: 1; stroke-linecap: round; stroke-linejoin: round; stroke-miterlimit: 4; stroke-dasharray: none; stroke-opacity: 1; filter: url(#filter12604);"/>
      <path id="path11617" d="M 177.92813,172.18007 C 177.92813,172.18007 187.16794,169.44235 186.48351,150.96271 C 185.79908,132.48307 171.42603,131.11421 177.92813,122.90104 C 184.43022,114.68786 191.61675,121.18996 192.64339,127.34984 C 193.67004,133.50972 194.35447,136.93187 193.32782,145.82948 C 192.30118,154.72708 190.5901,160.20253 188.87902,166.36241 C 187.16794,172.52229 185.45687,172.86451 182.71914,173.54894 C 179.98142,174.23337 177.2437,172.86451 177.92813,172.18007 z" style="fill: url(#linearGradient18785) rgb(0, 0, 0); fill-opacity: 1; fill-rule: evenodd; stroke: none; stroke-width: 1px; stroke-linecap: butt; stroke-linejoin: miter; stroke-opacity: 1;"/>
    </g>
  </g>
</svg>