<?xml version="1.0" encoding="UTF-8" standalone="no"?>
<!-- Created with Inkscape (http://www.inkscape.org/) -->
<svg xmlns:dc="http://purl.org/dc/elements/1.1/" xmlns:cc="http://web.resource.org/cc/" xmlns:rdf="http://www.w3.org/1999/02/22-rdf-syntax-ns#" xmlns:svg="http://www.w3.org/2000/svg" xmlns="http://www.w3.org/2000/svg" xmlns:sodipodi="http://sodipodi.sourceforge.net/DTD/sodipodi-0.dtd" xmlns:inkscape="http://www.inkscape.org/namespaces/inkscape" width="273.28461" height="278.99719" id="svg2221" sodipodi:version="0.32" inkscape:version="0.45+devel" sodipodi:docbase="/home/valessio/Desktop" sodipodi:docname="clock_alarm.svg" inkscape:output_extension="org.inkscape.output.svg.inkscape" version="1.0">
  <defs id="defs2223">
    <filter inkscape:collect="always" x="-0.044406649" width="1.0888133" y="-0.56152976" height="2.1230595" id="filter9326">
      <feGaussianBlur inkscape:collect="always" stdDeviation="23.332558" id="feGaussianBlur9328"/>
    </filter>
  </defs>
  <sodipodi:namedview id="base" pagecolor="#ffffff" bordercolor="#666666" borderopacity="1.0" inkscape:pageopacity="0.0" inkscape:pageshadow="2" inkscape:zoom="1.741953" inkscape:cx="136.6423" inkscape:cy="139.4986" inkscape:document-units="px" inkscape:current-layer="layer1" showguides="true" inkscape:guide-bbox="true" inkscape:window-width="1024" inkscape:window-height="693" inkscape:window-x="0" inkscape:window-y="25"/>
  <metadata id="metadata2226">
    <rdf:RDF>
      <cc:Work rdf:about="">
        <dc:format>image/svg+xml</dc:format>
        <dc:type rdf:resource="http://purl.org/dc/dcmitype/StillImage"/>
      </cc:Work>
    </rdf:RDF>
  </metadata>
  <g inkscape:label="Camada 1" inkscape:groupmode="layer" id="layer1" transform="translate(-238.806, -381.189)">
    <g id="g9596">
      <path id="rect7318" d="M -1150.3623,-1103.8678 L -338.89437,-1103.8678 C -272.58312,-1103.8678 -219.19897,-1085.3357 -219.19897,-1062.316 C -219.19897,-1039.2963 -272.58312,-1020.7643 -338.89437,-1020.7643 L -1150.3623,-1020.7643 C -1216.6736,-1020.7643 -1270.0577,-1039.2963 -1270.0577,-1062.316 C -1270.0577,-1085.3357 -1216.6736,-1103.8678 -1150.3623,-1103.8678 z" style="fill: rgb(18, 118, 178); fill-opacity: 1; stroke: none; stroke-width: 0.417; stroke-linecap: round; stroke-linejoin: round; stroke-miterlimit: 4; stroke-opacity: 1; filter: url(#filter9326);" transform="matrix(0.190027, 0, 0, -0.190027, 516.069, 417.345)"/>
      <path id="rect2241" d="M 308.65274,414.26477 L 442.24469,414.26477 C 462.99056,414.26477 479.69211,430.96632 479.69211,451.71218 L 479.69211,585.30414 C 479.69211,606.05001 462.99056,622.75156 442.24469,622.75156 L 308.65274,622.75156 C 287.90687,622.75156 271.20532,606.05001 271.20532,585.30414 L 271.20532,451.71218 C 271.20532,430.96632 287.90687,414.26477 308.65274,414.26477 z" style="fill: rgb(31, 150, 209); fill-opacity: 1; stroke: none; stroke-width: 0.417; stroke-linecap: round; stroke-linejoin: round; stroke-miterlimit: 4; stroke-opacity: 1;"/>
      <path id="rect2239" d="M 312.4796,420.23703 L 438.41784,420.23703 C 457.97515,420.23703 473.71983,435.98172 473.71983,455.53902 L 473.71983,581.47726 C 473.71983,601.03456 457.97515,616.77925 438.41784,616.77925 L 312.4796,616.77925 C 292.9223,616.77925 277.17761,601.03456 277.17761,581.47726 L 277.17761,455.53902 C 277.17761,435.98172 292.9223,420.23703 312.4796,420.23703 z" style="fill: rgb(138, 197, 226); fill-opacity: 1; stroke: none; stroke-width: 0.417; stroke-linecap: round; stroke-linejoin: round; stroke-miterlimit: 4; stroke-opacity: 1;"/>
      <path id="rect4183" d="M 316.67298,426.78131 L 434.22447,426.78131 C 452.47937,426.78131 467.17555,441.47749 467.17555,459.7324 L 467.17555,577.28389 C 467.17555,595.53879 452.47937,610.23497 434.22447,610.23497 L 316.67298,610.23497 C 298.41808,610.23497 283.72189,595.53879 283.72189,577.28389 L 283.72189,459.7324 C 283.72189,441.47749 298.41808,426.78131 316.67298,426.78131 z" style="fill: rgb(255, 255, 255); fill-opacity: 1; stroke: none; stroke-width: 0.417; stroke-linecap: round; stroke-linejoin: round; stroke-miterlimit: 4; stroke-opacity: 1;"/>
      <path id="path5158" d="M -34.842031,231.52493 C -34.842031,233.78762 -36.678411,235.624 -38.941093,235.624 C -41.203776,235.624 -43.040156,233.78762 -43.040156,231.52493 C -43.040156,229.26225 -41.203776,227.42587 -38.941093,227.42587 C -36.678411,227.42587 -34.842031,229.26225 -34.842031,231.52493 z" style="fill: rgb(0, 0, 0); fill-opacity: 1; stroke: none; stroke-width: 6.017; stroke-linecap: round; stroke-linejoin: round; stroke-miterlimit: 4; stroke-dasharray: 6.017, 72.204; stroke-dashoffset: 0pt; stroke-opacity: 1;" transform="matrix(0.190027, 0, 0, 0.190027, 301.885, 414.391)"/>
      <path id="path6137" d="M -34.842031,231.52493 C -34.842031,233.78762 -36.678411,235.624 -38.941093,235.624 C -41.203776,235.624 -43.040156,233.78762 -43.040156,231.52493 C -43.040156,229.26225 -41.203776,227.42587 -38.941093,227.42587 C -36.678411,227.42587 -34.842031,229.26225 -34.842031,231.52493 z" style="fill: rgb(0, 0, 0); fill-opacity: 1; stroke: none; stroke-width: 6.017; stroke-linecap: round; stroke-linejoin: round; stroke-miterlimit: 4; stroke-dasharray: 6.017, 72.204; stroke-dashoffset: 0pt; stroke-opacity: 1;" transform="matrix(0.190027, 0, 0, 0.190027, 307.313, 404.825)"/>
      <path id="path6139" d="M -34.842031,231.52493 C -34.842031,233.78762 -36.678411,235.624 -38.941093,235.624 C -41.203776,235.624 -43.040156,233.78762 -43.040156,231.52493 C -43.040156,229.26225 -41.203776,227.42587 -38.941093,227.42587 C -36.678411,227.42587 -34.842031,229.26225 -34.842031,231.52493 z" style="fill: rgb(0, 0, 0); fill-opacity: 1; stroke: none; stroke-width: 6.017; stroke-linecap: round; stroke-linejoin: round; stroke-miterlimit: 4; stroke-dasharray: 6.017, 72.204; stroke-dashoffset: 0pt; stroke-opacity: 1;" transform="matrix(0.190027, 0, 0, 0.190027, 314.908, 397.231)"/>
      <path id="path6141" d="M -34.842031,231.52493 C -34.842031,233.78762 -36.678411,235.624 -38.941093,235.624 C -41.203776,235.624 -43.040156,233.78762 -43.040156,231.52493 C -43.040156,229.26225 -41.203776,227.42587 -38.941093,227.42587 C -36.678411,227.42587 -34.842031,229.26225 -34.842031,231.52493 z" style="fill: rgb(0, 0, 0); fill-opacity: 1; stroke: none; stroke-width: 6.017; stroke-linecap: round; stroke-linejoin: round; stroke-miterlimit: 4; stroke-dasharray: 6.017, 72.204; stroke-dashoffset: 0pt; stroke-opacity: 1;" transform="matrix(0.190027, 0, 0, 0.190027, 324.45, 392.168)"/>
      <path id="path6143" d="M -34.842031,231.52493 C -34.842031,233.78762 -36.678411,235.624 -38.941093,235.624 C -41.203776,235.624 -43.040156,233.78762 -43.040156,231.52493 C -43.040156,229.26225 -41.203776,227.42587 -38.941093,227.42587 C -36.678411,227.42587 -34.842031,229.26225 -34.842031,231.52493 z" style="fill: rgb(0, 0, 0); fill-opacity: 1; stroke: none; stroke-width: 6.017; stroke-linecap: round; stroke-linejoin: round; stroke-miterlimit: 4; stroke-dasharray: 6.017, 72.204; stroke-dashoffset: 0pt; stroke-opacity: 1;" transform="matrix(0.190027, 0, 0, 0.190027, 347.233, 390.021)"/>
      <path id="path6145" d="M -34.842031,231.52493 C -34.842031,233.78762 -36.678411,235.624 -38.941093,235.624 C -41.203776,235.624 -43.040156,233.78762 -43.040156,231.52493 C -43.040156,229.26225 -41.203776,227.42587 -38.941093,227.42587 C -36.678411,227.42587 -34.842031,229.26225 -34.842031,231.52493 z" style="fill: rgb(0, 0, 0); fill-opacity: 1; stroke: none; stroke-width: 6.017; stroke-linecap: round; stroke-linejoin: round; stroke-miterlimit: 4; stroke-dasharray: 6.017, 72.204; stroke-dashoffset: 0pt; stroke-opacity: 1;" transform="matrix(0.190027, 0, 0, 0.190027, 357.165, 390.021)"/>
      <path id="path6147" d="M -34.842031,231.52493 C -34.842031,233.78762 -36.678411,235.624 -38.941093,235.624 C -41.203776,235.624 -43.040156,233.78762 -43.040156,231.52493 C -43.040156,229.26225 -41.203776,227.42587 -38.941093,227.42587 C -36.678411,227.42587 -34.842031,229.26225 -34.842031,231.52493 z" style="fill: rgb(0, 0, 0); fill-opacity: 1; stroke: none; stroke-width: 6.017; stroke-linecap: round; stroke-linejoin: round; stroke-miterlimit: 4; stroke-dasharray: 6.017, 72.204; stroke-dashoffset: 0pt; stroke-opacity: 1;" transform="matrix(0.190027, 0, 0, 0.190027, 366.317, 390.021)"/>
      <path id="path6149" d="M -34.842031,231.52493 C -34.842031,233.78762 -36.678411,235.624 -38.941093,235.624 C -41.203776,235.624 -43.040156,233.78762 -43.040156,231.52493 C -43.040156,229.26225 -41.203776,227.42587 -38.941093,227.42587 C -36.678411,227.42587 -34.842031,229.26225 -34.842031,231.52493 z" style="fill: rgb(0, 0, 0); fill-opacity: 1; stroke: none; stroke-width: 6.017; stroke-linecap: round; stroke-linejoin: round; stroke-miterlimit: 4; stroke-dasharray: 6.017, 72.204; stroke-dashoffset: 0pt; stroke-opacity: 1;" transform="matrix(0.190027, 0, 0, 0.190027, 375.665, 390.021)"/>
      <path id="path6151" d="M -34.842031,231.52493 C -34.842031,233.78762 -36.678411,235.624 -38.941093,235.624 C -41.203776,235.624 -43.040156,233.78762 -43.040156,231.52493 C -43.040156,229.26225 -41.203776,227.42587 -38.941093,227.42587 C -36.678411,227.42587 -34.842031,229.26225 -34.842031,231.52493 z" style="fill: rgb(0, 0, 0); fill-opacity: 1; stroke: none; stroke-width: 6.017; stroke-linecap: round; stroke-linejoin: round; stroke-miterlimit: 4; stroke-dasharray: 6.017, 72.204; stroke-dashoffset: 0pt; stroke-opacity: 1;" transform="matrix(0.190027, 0, 0, 0.190027, 392.217, 390.021)"/>
      <path id="path6153" d="M -34.842031,231.52493 C -34.842031,233.78762 -36.678411,235.624 -38.941093,235.624 C -41.203776,235.624 -43.040156,233.78762 -43.040156,231.52493 C -43.040156,229.26225 -41.203776,227.42587 -38.941093,227.42587 C -36.678411,227.42587 -34.842031,229.26225 -34.842031,231.52493 z" style="fill: rgb(0, 0, 0); fill-opacity: 1; stroke: none; stroke-width: 6.017; stroke-linecap: round; stroke-linejoin: round; stroke-miterlimit: 4; stroke-dasharray: 6.017, 72.204; stroke-dashoffset: 0pt; stroke-opacity: 1;" transform="matrix(0.190027, 0, 0, 0.190027, 402.148, 390.021)"/>
      <path id="path6155" d="M -34.842031,231.52493 C -34.842031,233.78762 -36.678411,235.624 -38.941093,235.624 C -41.203776,235.624 -43.040156,233.78762 -43.040156,231.52493 C -43.040156,229.26225 -41.203776,227.42587 -38.941093,227.42587 C -36.678411,227.42587 -34.842031,229.26225 -34.842031,231.52493 z" style="fill: rgb(0, 0, 0); fill-opacity: 1; stroke: none; stroke-width: 6.017; stroke-linecap: round; stroke-linejoin: round; stroke-miterlimit: 4; stroke-dasharray: 6.017, 72.204; stroke-dashoffset: 0pt; stroke-opacity: 1;" transform="matrix(0.190027, 0, 0, 0.190027, 411.301, 390.021)"/>
      <path id="path6157" d="M -34.842031,231.52493 C -34.842031,233.78762 -36.678411,235.624 -38.941093,235.624 C -41.203776,235.624 -43.040156,233.78762 -43.040156,231.52493 C -43.040156,229.26225 -41.203776,227.42587 -38.941093,227.42587 C -36.678411,227.42587 -34.842031,229.26225 -34.842031,231.52493 z" style="fill: rgb(0, 0, 0); fill-opacity: 1; stroke: none; stroke-width: 6.017; stroke-linecap: round; stroke-linejoin: round; stroke-miterlimit: 4; stroke-dasharray: 6.017, 72.204; stroke-dashoffset: 0pt; stroke-opacity: 1;" transform="matrix(0.190027, 0, 0, 0.190027, 420.648, 390.021)"/>
      <path id="path6163" d="M -34.842031,231.52493 C -34.842031,233.78762 -36.678411,235.624 -38.941093,235.624 C -41.203776,235.624 -43.040156,233.78762 -43.040156,231.52493 C -43.040156,229.26225 -41.203776,227.42587 -38.941093,227.42587 C -36.678411,227.42587 -34.842031,229.26225 -34.842031,231.52493 z" style="fill: rgb(0, 0, 0); fill-opacity: 1; stroke: none; stroke-width: 6.017; stroke-linecap: round; stroke-linejoin: round; stroke-miterlimit: 4; stroke-dasharray: 6.017, 72.204; stroke-dashoffset: 0pt; stroke-opacity: 1;" transform="matrix(-0.190027, 0, 0, 0.190027, 449.833, 413.783)"/>
      <path id="path6165" d="M -34.842031,231.52493 C -34.842031,233.78762 -36.678411,235.624 -38.941093,235.624 C -41.203776,235.624 -43.040156,233.78762 -43.040156,231.52493 C -43.040156,229.26225 -41.203776,227.42587 -38.941093,227.42587 C -36.678411,227.42587 -34.842031,229.26225 -34.842031,231.52493 z" style="fill: rgb(0, 0, 0); fill-opacity: 1; stroke: none; stroke-width: 6.017; stroke-linecap: round; stroke-linejoin: round; stroke-miterlimit: 4; stroke-dasharray: 6.017, 72.204; stroke-dashoffset: 0pt; stroke-opacity: 1;" transform="matrix(-0.190027, 0, 0, 0.190027, 444.697, 403.852)"/>
      <path id="path6167" d="M -34.842031,231.52493 C -34.842031,233.78762 -36.678411,235.624 -38.941093,235.624 C -41.203776,235.624 -43.040156,233.78762 -43.040156,231.52493 C -43.040156,229.26225 -41.203776,227.42587 -38.941093,227.42587 C -36.678411,227.42587 -34.842031,229.26225 -34.842031,231.52493 z" style="fill: rgb(0, 0, 0); fill-opacity: 1; stroke: none; stroke-width: 6.017; stroke-linecap: round; stroke-linejoin: round; stroke-miterlimit: 4; stroke-dasharray: 6.017, 72.204; stroke-dashoffset: 0pt; stroke-opacity: 1;" transform="matrix(-0.190027, 0, 0, 0.190027, 437.103, 396.257)"/>
      <path id="path6169" d="M -34.842031,231.52493 C -34.842031,233.78762 -36.678411,235.624 -38.941093,235.624 C -41.203776,235.624 -43.040156,233.78762 -43.040156,231.52493 C -43.040156,229.26225 -41.203776,227.42587 -38.941093,227.42587 C -36.678411,227.42587 -34.842031,229.26225 -34.842031,231.52493 z" style="fill: rgb(0, 0, 0); fill-opacity: 1; stroke: none; stroke-width: 6.017; stroke-linecap: round; stroke-linejoin: round; stroke-miterlimit: 4; stroke-dasharray: 6.017, 72.204; stroke-dashoffset: 0pt; stroke-opacity: 1;" transform="matrix(-0.190027, 0, 0, 0.190027, 427.561, 391.194)"/>
      <path id="path6171" d="M -34.842031,231.52493 C -34.842031,233.78762 -36.678411,235.624 -38.941093,235.624 C -41.203776,235.624 -43.040156,233.78762 -43.040156,231.52493 C -43.040156,229.26225 -41.203776,227.42587 -38.941093,227.42587 C -36.678411,227.42587 -34.842031,229.26225 -34.842031,231.52493 z" style="fill: rgb(0, 0, 0); fill-opacity: 1; stroke: none; stroke-width: 6.017; stroke-linecap: round; stroke-linejoin: round; stroke-miterlimit: 4; stroke-dasharray: 6.017, 72.204; stroke-dashoffset: 0pt; stroke-opacity: 1;" transform="matrix(0.190027, 0, 0, -0.190027, 301.885, 618.59)"/>
      <path id="path6173" d="M -34.842031,231.52493 C -34.842031,233.78762 -36.678411,235.624 -38.941093,235.624 C -41.203776,235.624 -43.040156,233.78762 -43.040156,231.52493 C -43.040156,229.26225 -41.203776,227.42587 -38.941093,227.42587 C -36.678411,227.42587 -34.842031,229.26225 -34.842031,231.52493 z" style="fill: rgb(0, 0, 0); fill-opacity: 1; stroke: none; stroke-width: 6.017; stroke-linecap: round; stroke-linejoin: round; stroke-miterlimit: 4; stroke-dasharray: 6.017, 72.204; stroke-dashoffset: 0pt; stroke-opacity: 1;" transform="matrix(0.190027, 0, 0, -0.190027, 307.751, 628.887)"/>
      <path id="path6175" d="M -34.842031,231.52493 C -34.842031,233.78762 -36.678411,235.624 -38.941093,235.624 C -41.203776,235.624 -43.040156,233.78762 -43.040156,231.52493 C -43.040156,229.26225 -41.203776,227.42587 -38.941093,227.42587 C -36.678411,227.42587 -34.842031,229.26225 -34.842031,231.52493 z" style="fill: rgb(0, 0, 0); fill-opacity: 1; stroke: none; stroke-width: 6.017; stroke-linecap: round; stroke-linejoin: round; stroke-miterlimit: 4; stroke-dasharray: 6.017, 72.204; stroke-dashoffset: 0pt; stroke-opacity: 1;" transform="matrix(0.190027, 0, 0, -0.190027, 315.346, 636.482)"/>
      <path id="path6177" d="M -34.842031,231.52493 C -34.842031,233.78762 -36.678411,235.624 -38.941093,235.624 C -41.203776,235.624 -43.040156,233.78762 -43.040156,231.52493 C -43.040156,229.26225 -41.203776,227.42587 -38.941093,227.42587 C -36.678411,227.42587 -34.842031,229.26225 -34.842031,231.52493 z" style="fill: rgb(0, 0, 0); fill-opacity: 1; stroke: none; stroke-width: 6.017; stroke-linecap: round; stroke-linejoin: round; stroke-miterlimit: 4; stroke-dasharray: 6.017, 72.204; stroke-dashoffset: 0pt; stroke-opacity: 1;" transform="matrix(0.190027, 0, 0, -0.190027, 324.888, 641.545)"/>
      <path id="path6179" d="M -34.842031,231.52493 C -34.842031,233.78762 -36.678411,235.624 -38.941093,235.624 C -41.203776,235.624 -43.040156,233.78762 -43.040156,231.52493 C -43.040156,229.26225 -41.203776,227.42587 -38.941093,227.42587 C -36.678411,227.42587 -34.842031,229.26225 -34.842031,231.52493 z" style="fill: rgb(0, 0, 0); fill-opacity: 1; stroke: none; stroke-width: 6.017; stroke-linecap: round; stroke-linejoin: round; stroke-miterlimit: 4; stroke-dasharray: 6.017, 72.204; stroke-dashoffset: 0pt; stroke-opacity: 1;" transform="matrix(0.190027, 0, 0, -0.190027, 347.672, 643.089)"/>
      <path id="path6181" d="M -34.842031,231.52493 C -34.842031,233.78762 -36.678411,235.624 -38.941093,235.624 C -41.203776,235.624 -43.040156,233.78762 -43.040156,231.52493 C -43.040156,229.26225 -41.203776,227.42587 -38.941093,227.42587 C -36.678411,227.42587 -34.842031,229.26225 -34.842031,231.52493 z" style="fill: rgb(0, 0, 0); fill-opacity: 1; stroke: none; stroke-width: 6.017; stroke-linecap: round; stroke-linejoin: round; stroke-miterlimit: 4; stroke-dasharray: 6.017, 72.204; stroke-dashoffset: 0pt; stroke-opacity: 1;" transform="matrix(0.190027, 0, 0, -0.190027, 357.603, 643.089)"/>
      <path id="path6183" d="M -34.842031,231.52493 C -34.842031,233.78762 -36.678411,235.624 -38.941093,235.624 C -41.203776,235.624 -43.040156,233.78762 -43.040156,231.52493 C -43.040156,229.26225 -41.203776,227.42587 -38.941093,227.42587 C -36.678411,227.42587 -34.842031,229.26225 -34.842031,231.52493 z" style="fill: rgb(0, 0, 0); fill-opacity: 1; stroke: none; stroke-width: 6.017; stroke-linecap: round; stroke-linejoin: round; stroke-miterlimit: 4; stroke-dasharray: 6.017, 72.204; stroke-dashoffset: 0pt; stroke-opacity: 1;" transform="matrix(0.190027, 0, 0, -0.190027, 366.755, 643.089)"/>
      <path id="path6185" d="M -34.842031,231.52493 C -34.842031,233.78762 -36.678411,235.624 -38.941093,235.624 C -41.203776,235.624 -43.040156,233.78762 -43.040156,231.52493 C -43.040156,229.26225 -41.203776,227.42587 -38.941093,227.42587 C -36.678411,227.42587 -34.842031,229.26225 -34.842031,231.52493 z" style="fill: rgb(0, 0, 0); fill-opacity: 1; stroke: none; stroke-width: 6.017; stroke-linecap: round; stroke-linejoin: round; stroke-miterlimit: 4; stroke-dasharray: 6.017, 72.204; stroke-dashoffset: 0pt; stroke-opacity: 1;" transform="matrix(0.190027, 0, 0, -0.190027, 376.103, 643.089)"/>
      <path id="path6187" d="M -34.842031,231.52493 C -34.842031,233.78762 -36.678411,235.624 -38.941093,235.624 C -41.203776,235.624 -43.040156,233.78762 -43.040156,231.52493 C -43.040156,229.26225 -41.203776,227.42587 -38.941093,227.42587 C -36.678411,227.42587 -34.842031,229.26225 -34.842031,231.52493 z" style="fill: rgb(0, 0, 0); fill-opacity: 1; stroke: none; stroke-width: 6.017; stroke-linecap: round; stroke-linejoin: round; stroke-miterlimit: 4; stroke-dasharray: 6.017, 72.204; stroke-dashoffset: 0pt; stroke-opacity: 1;" transform="matrix(0.190027, 0, 0, -0.190027, 392.655, 643.089)"/>
      <path id="path6189" d="M -34.842031,231.52493 C -34.842031,233.78762 -36.678411,235.624 -38.941093,235.624 C -41.203776,235.624 -43.040156,233.78762 -43.040156,231.52493 C -43.040156,229.26225 -41.203776,227.42587 -38.941093,227.42587 C -36.678411,227.42587 -34.842031,229.26225 -34.842031,231.52493 z" style="fill: rgb(0, 0, 0); fill-opacity: 1; stroke: none; stroke-width: 6.017; stroke-linecap: round; stroke-linejoin: round; stroke-miterlimit: 4; stroke-dasharray: 6.017, 72.204; stroke-dashoffset: 0pt; stroke-opacity: 1;" transform="matrix(0.190027, 0, 0, -0.190027, 402.586, 643.089)"/>
      <path id="path6191" d="M -34.842031,231.52493 C -34.842031,233.78762 -36.678411,235.624 -38.941093,235.624 C -41.203776,235.624 -43.040156,233.78762 -43.040156,231.52493 C -43.040156,229.26225 -41.203776,227.42587 -38.941093,227.42587 C -36.678411,227.42587 -34.842031,229.26225 -34.842031,231.52493 z" style="fill: rgb(0, 0, 0); fill-opacity: 1; stroke: none; stroke-width: 6.017; stroke-linecap: round; stroke-linejoin: round; stroke-miterlimit: 4; stroke-dasharray: 6.017, 72.204; stroke-dashoffset: 0pt; stroke-opacity: 1;" transform="matrix(0.190027, 0, 0, -0.190027, 411.739, 643.089)"/>
      <path id="path6193" d="M -34.842031,231.52493 C -34.842031,233.78762 -36.678411,235.624 -38.941093,235.624 C -41.203776,235.624 -43.040156,233.78762 -43.040156,231.52493 C -43.040156,229.26225 -41.203776,227.42587 -38.941093,227.42587 C -36.678411,227.42587 -34.842031,229.26225 -34.842031,231.52493 z" style="fill: rgb(0, 0, 0); fill-opacity: 1; stroke: none; stroke-width: 6.017; stroke-linecap: round; stroke-linejoin: round; stroke-miterlimit: 4; stroke-dasharray: 6.017, 72.204; stroke-dashoffset: 0pt; stroke-opacity: 1;" transform="matrix(0.190027, 0, 0, -0.190027, 421.086, 643.089)"/>
      <path id="path6195" d="M -34.842031,231.52493 C -34.842031,233.78762 -36.678411,235.624 -38.941093,235.624 C -41.203776,235.624 -43.040156,233.78762 -43.040156,231.52493 C -43.040156,229.26225 -41.203776,227.42587 -38.941093,227.42587 C -36.678411,227.42587 -34.842031,229.26225 -34.842031,231.52493 z" style="fill: rgb(0, 0, 0); fill-opacity: 1; stroke: none; stroke-width: 6.017; stroke-linecap: round; stroke-linejoin: round; stroke-miterlimit: 4; stroke-dasharray: 6.017, 72.204; stroke-dashoffset: 0pt; stroke-opacity: 1;" transform="matrix(-0.190027, 0, 0, -0.190027, 449.833, 619.929)"/>
      <path id="path6197" d="M -34.842031,231.52493 C -34.842031,233.78762 -36.678411,235.624 -38.941093,235.624 C -41.203776,235.624 -43.040156,233.78762 -43.040156,231.52493 C -43.040156,229.26225 -41.203776,227.42587 -38.941093,227.42587 C -36.678411,227.42587 -34.842031,229.26225 -34.842031,231.52493 z" style="fill: rgb(0, 0, 0); fill-opacity: 1; stroke: none; stroke-width: 6.017; stroke-linecap: round; stroke-linejoin: round; stroke-miterlimit: 4; stroke-dasharray: 6.017, 72.204; stroke-dashoffset: 0pt; stroke-opacity: 1;" transform="matrix(-0.190027, 0, 0, -0.190027, 445.136, 629.861)"/>
      <path id="path6199" d="M -34.842031,231.52493 C -34.842031,233.78762 -36.678411,235.624 -38.941093,235.624 C -41.203776,235.624 -43.040156,233.78762 -43.040156,231.52493 C -43.040156,229.26225 -41.203776,227.42587 -38.941093,227.42587 C -36.678411,227.42587 -34.842031,229.26225 -34.842031,231.52493 z" style="fill: rgb(0, 0, 0); fill-opacity: 1; stroke: none; stroke-width: 6.017; stroke-linecap: round; stroke-linejoin: round; stroke-miterlimit: 4; stroke-dasharray: 6.017, 72.204; stroke-dashoffset: 0pt; stroke-opacity: 1;" transform="matrix(-0.190027, 0, 0, -0.190027, 437.541, 637.455)"/>
      <path id="path6201" d="M -34.842031,231.52493 C -34.842031,233.78762 -36.678411,235.624 -38.941093,235.624 C -41.203776,235.624 -43.040156,233.78762 -43.040156,231.52493 C -43.040156,229.26225 -41.203776,227.42587 -38.941093,227.42587 C -36.678411,227.42587 -34.842031,229.26225 -34.842031,231.52493 z" style="fill: rgb(0, 0, 0); fill-opacity: 1; stroke: none; stroke-width: 6.017; stroke-linecap: round; stroke-linejoin: round; stroke-miterlimit: 4; stroke-dasharray: 6.017, 72.204; stroke-dashoffset: 0pt; stroke-opacity: 1;" transform="matrix(-0.190027, 0, 0, -0.190027, 427.999, 642.518)"/>
      <path id="path6203" d="M -34.842031,231.52493 C -34.842031,233.78762 -36.678411,235.624 -38.941093,235.624 C -41.203776,235.624 -43.040156,233.78762 -43.040156,231.52493 C -43.040156,229.26225 -41.203776,227.42587 -38.941093,227.42587 C -36.678411,227.42587 -34.842031,229.26225 -34.842031,231.52493 z" style="fill: rgb(0, 0, 0); fill-opacity: 1; stroke: none; stroke-width: 6.017; stroke-linecap: round; stroke-linejoin: round; stroke-miterlimit: 4; stroke-dasharray: 6.017, 72.204; stroke-dashoffset: 0pt; stroke-opacity: 1;" transform="matrix(0, 0.190027, -0.190027, 0, 337.823, 488.084)"/>
      <path id="path6205" d="M -34.842031,231.52493 C -34.842031,233.78762 -36.678411,235.624 -38.941093,235.624 C -41.203776,235.624 -43.040156,233.78762 -43.040156,231.52493 C -43.040156,229.26225 -41.203776,227.42587 -38.941093,227.42587 C -36.678411,227.42587 -34.842031,229.26225 -34.842031,231.52493 z" style="fill: rgb(0, 0, 0); fill-opacity: 1; stroke: none; stroke-width: 6.017; stroke-linecap: round; stroke-linejoin: round; stroke-miterlimit: 4; stroke-dasharray: 6.017, 72.204; stroke-dashoffset: 0pt; stroke-opacity: 1;" transform="matrix(0, 0.190027, -0.190027, 0, 337.823, 498.015)"/>
      <path id="path6207" d="M -34.842031,231.52493 C -34.842031,233.78762 -36.678411,235.624 -38.941093,235.624 C -41.203776,235.624 -43.040156,233.78762 -43.040156,231.52493 C -43.040156,229.26225 -41.203776,227.42587 -38.941093,227.42587 C -36.678411,227.42587 -34.842031,229.26225 -34.842031,231.52493 z" style="fill: rgb(0, 0, 0); fill-opacity: 1; stroke: none; stroke-width: 6.017; stroke-linecap: round; stroke-linejoin: round; stroke-miterlimit: 4; stroke-dasharray: 6.017, 72.204; stroke-dashoffset: 0pt; stroke-opacity: 1;" transform="matrix(0, 0.190027, -0.190027, 0, 337.823, 507.168)"/>
      <path id="path6209" d="M -34.842031,231.52493 C -34.842031,233.78762 -36.678411,235.624 -38.941093,235.624 C -41.203776,235.624 -43.040156,233.78762 -43.040156,231.52493 C -43.040156,229.26225 -41.203776,227.42587 -38.941093,227.42587 C -36.678411,227.42587 -34.842031,229.26225 -34.842031,231.52493 z" style="fill: rgb(0, 0, 0); fill-opacity: 1; stroke: none; stroke-width: 6.017; stroke-linecap: round; stroke-linejoin: round; stroke-miterlimit: 4; stroke-dasharray: 6.017, 72.204; stroke-dashoffset: 0pt; stroke-opacity: 1;" transform="matrix(0, 0.190027, -0.190027, 0, 337.823, 516.515)"/>
      <path id="path6211" d="M -34.842031,231.52493 C -34.842031,233.78762 -36.678411,235.624 -38.941093,235.624 C -41.203776,235.624 -43.040156,233.78762 -43.040156,231.52493 C -43.040156,229.26225 -41.203776,227.42587 -38.941093,227.42587 C -36.678411,227.42587 -34.842031,229.26225 -34.842031,231.52493 z" style="fill: rgb(0, 0, 0); fill-opacity: 1; stroke: none; stroke-width: 6.017; stroke-linecap: round; stroke-linejoin: round; stroke-miterlimit: 4; stroke-dasharray: 6.017, 72.204; stroke-dashoffset: 0pt; stroke-opacity: 1;" transform="matrix(0, 0.190027, -0.190027, 0, 337.823, 533.067)"/>
      <path id="path6213" d="M -34.842031,231.52493 C -34.842031,233.78762 -36.678411,235.624 -38.941093,235.624 C -41.203776,235.624 -43.040156,233.78762 -43.040156,231.52493 C -43.040156,229.26225 -41.203776,227.42587 -38.941093,227.42587 C -36.678411,227.42587 -34.842031,229.26225 -34.842031,231.52493 z" style="fill: rgb(0, 0, 0); fill-opacity: 1; stroke: none; stroke-width: 6.017; stroke-linecap: round; stroke-linejoin: round; stroke-miterlimit: 4; stroke-dasharray: 6.017, 72.204; stroke-dashoffset: 0pt; stroke-opacity: 1;" transform="matrix(0, 0.190027, -0.190027, 0, 337.823, 542.999)"/>
      <path id="path6215" d="M -34.842031,231.52493 C -34.842031,233.78762 -36.678411,235.624 -38.941093,235.624 C -41.203776,235.624 -43.040156,233.78762 -43.040156,231.52493 C -43.040156,229.26225 -41.203776,227.42587 -38.941093,227.42587 C -36.678411,227.42587 -34.842031,229.26225 -34.842031,231.52493 z" style="fill: rgb(0, 0, 0); fill-opacity: 1; stroke: none; stroke-width: 6.017; stroke-linecap: round; stroke-linejoin: round; stroke-miterlimit: 4; stroke-dasharray: 6.017, 72.204; stroke-dashoffset: 0pt; stroke-opacity: 1;" transform="matrix(0, 0.190027, -0.190027, 0, 337.823, 552.151)"/>
      <path id="path6217" d="M -34.842031,231.52493 C -34.842031,233.78762 -36.678411,235.624 -38.941093,235.624 C -41.203776,235.624 -43.040156,233.78762 -43.040156,231.52493 C -43.040156,229.26225 -41.203776,227.42587 -38.941093,227.42587 C -36.678411,227.42587 -34.842031,229.26225 -34.842031,231.52493 z" style="fill: rgb(0, 0, 0); fill-opacity: 1; stroke: none; stroke-width: 6.017; stroke-linecap: round; stroke-linejoin: round; stroke-miterlimit: 4; stroke-dasharray: 6.017, 72.204; stroke-dashoffset: 0pt; stroke-opacity: 1;" transform="matrix(0, 0.190027, -0.190027, 0, 337.823, 561.498)"/>
      <path id="path6219" d="M -34.842031,231.52493 C -34.842031,233.78762 -36.678411,235.624 -38.941093,235.624 C -41.203776,235.624 -43.040156,233.78762 -43.040156,231.52493 C -43.040156,229.26225 -41.203776,227.42587 -38.941093,227.42587 C -36.678411,227.42587 -34.842031,229.26225 -34.842031,231.52493 z" style="fill: rgb(0, 0, 0); fill-opacity: 1; stroke: none; stroke-width: 6.017; stroke-linecap: round; stroke-linejoin: round; stroke-miterlimit: 4; stroke-dasharray: 6.017, 72.204; stroke-dashoffset: 0pt; stroke-opacity: 1;" transform="matrix(0, 0.190027, -0.190027, 0, 501.899, 487.281)"/>
      <path id="path6221" d="M -34.842031,231.52493 C -34.842031,233.78762 -36.678411,235.624 -38.941093,235.624 C -41.203776,235.624 -43.040156,233.78762 -43.040156,231.52493 C -43.040156,229.26225 -41.203776,227.42587 -38.941093,227.42587 C -36.678411,227.42587 -34.842031,229.26225 -34.842031,231.52493 z" style="fill: rgb(0, 0, 0); fill-opacity: 1; stroke: none; stroke-width: 6.017; stroke-linecap: round; stroke-linejoin: round; stroke-miterlimit: 4; stroke-dasharray: 6.017, 72.204; stroke-dashoffset: 0pt; stroke-opacity: 1;" transform="matrix(0, 0.190027, -0.190027, 0, 501.899, 497.212)"/>
      <path id="path6223" d="M -34.842031,231.52493 C -34.842031,233.78762 -36.678411,235.624 -38.941093,235.624 C -41.203776,235.624 -43.040156,233.78762 -43.040156,231.52493 C -43.040156,229.26225 -41.203776,227.42587 -38.941093,227.42587 C -36.678411,227.42587 -34.842031,229.26225 -34.842031,231.52493 z" style="fill: rgb(0, 0, 0); fill-opacity: 1; stroke: none; stroke-width: 6.017; stroke-linecap: round; stroke-linejoin: round; stroke-miterlimit: 4; stroke-dasharray: 6.017, 72.204; stroke-dashoffset: 0pt; stroke-opacity: 1;" transform="matrix(0, 0.190027, -0.190027, 0, 501.899, 506.365)"/>
      <path id="path6225" d="M -34.842031,231.52493 C -34.842031,233.78762 -36.678411,235.624 -38.941093,235.624 C -41.203776,235.624 -43.040156,233.78762 -43.040156,231.52493 C -43.040156,229.26225 -41.203776,227.42587 -38.941093,227.42587 C -36.678411,227.42587 -34.842031,229.26225 -34.842031,231.52493 z" style="fill: rgb(0, 0, 0); fill-opacity: 1; stroke: none; stroke-width: 6.017; stroke-linecap: round; stroke-linejoin: round; stroke-miterlimit: 4; stroke-dasharray: 6.017, 72.204; stroke-dashoffset: 0pt; stroke-opacity: 1;" transform="matrix(0, 0.190027, -0.190027, 0, 501.899, 515.712)"/>
      <path id="path6227" d="M -34.842031,231.52493 C -34.842031,233.78762 -36.678411,235.624 -38.941093,235.624 C -41.203776,235.624 -43.040156,233.78762 -43.040156,231.52493 C -43.040156,229.26225 -41.203776,227.42587 -38.941093,227.42587 C -36.678411,227.42587 -34.842031,229.26225 -34.842031,231.52493 z" style="fill: rgb(0, 0, 0); fill-opacity: 1; stroke: none; stroke-width: 6.017; stroke-linecap: round; stroke-linejoin: round; stroke-miterlimit: 4; stroke-dasharray: 6.017, 72.204; stroke-dashoffset: 0pt; stroke-opacity: 1;" transform="matrix(0, 0.190027, -0.190027, 0, 501.899, 532.264)"/>
      <path id="path6229" d="M -34.842031,231.52493 C -34.842031,233.78762 -36.678411,235.624 -38.941093,235.624 C -41.203776,235.624 -43.040156,233.78762 -43.040156,231.52493 C -43.040156,229.26225 -41.203776,227.42587 -38.941093,227.42587 C -36.678411,227.42587 -34.842031,229.26225 -34.842031,231.52493 z" style="fill: rgb(0, 0, 0); fill-opacity: 1; stroke: none; stroke-width: 6.017; stroke-linecap: round; stroke-linejoin: round; stroke-miterlimit: 4; stroke-dasharray: 6.017, 72.204; stroke-dashoffset: 0pt; stroke-opacity: 1;" transform="matrix(0, 0.190027, -0.190027, 0, 501.899, 542.196)"/>
      <path id="path6231" d="M -34.842031,231.52493 C -34.842031,233.78762 -36.678411,235.624 -38.941093,235.624 C -41.203776,235.624 -43.040156,233.78762 -43.040156,231.52493 C -43.040156,229.26225 -41.203776,227.42587 -38.941093,227.42587 C -36.678411,227.42587 -34.842031,229.26225 -34.842031,231.52493 z" style="fill: rgb(0, 0, 0); fill-opacity: 1; stroke: none; stroke-width: 6.017; stroke-linecap: round; stroke-linejoin: round; stroke-miterlimit: 4; stroke-dasharray: 6.017, 72.204; stroke-dashoffset: 0pt; stroke-opacity: 1;" transform="matrix(0, 0.190027, -0.190027, 0, 501.899, 551.348)"/>
      <path id="path6233" d="M -34.842031,231.52493 C -34.842031,233.78762 -36.678411,235.624 -38.941093,235.624 C -41.203776,235.624 -43.040156,233.78762 -43.040156,231.52493 C -43.040156,229.26225 -41.203776,227.42587 -38.941093,227.42587 C -36.678411,227.42587 -34.842031,229.26225 -34.842031,231.52493 z" style="fill: rgb(0, 0, 0); fill-opacity: 1; stroke: none; stroke-width: 6.017; stroke-linecap: round; stroke-linejoin: round; stroke-miterlimit: 4; stroke-dasharray: 6.017, 72.204; stroke-dashoffset: 0pt; stroke-opacity: 1;" transform="matrix(0, 0.190027, -0.190027, 0, 501.899, 560.695)"/>
      <path id="path6235" d="M 137.69542,104.4044 C 137.69542,108.39641 134.45553,111.63631 130.46352,111.63631 C 126.47151,111.63631 123.23161,108.39641 123.23161,104.4044 C 123.23161,100.41239 126.47151,97.172501 130.46352,97.172501 C 134.45553,97.172501 137.69542,100.41239 137.69542,104.4044 z" style="fill: rgb(0, 0, 0); fill-opacity: 1; stroke: none; stroke-width: 6.017; stroke-linecap: round; stroke-linejoin: round; stroke-miterlimit: 4; stroke-dasharray: 6.017, 72.204; stroke-dashoffset: 0pt; stroke-opacity: 1;" transform="matrix(0.250836, 0, 0, 0.250836, 295.51, 407.829)"/>
      <path id="path6237" d="M 137.69542,104.4044 C 137.69542,108.39641 134.45553,111.63631 130.46352,111.63631 C 126.47151,111.63631 123.23161,108.39641 123.23161,104.4044 C 123.23161,100.41239 126.47151,97.172501 130.46352,97.172501 C 134.45553,97.172501 137.69542,100.41239 137.69542,104.4044 z" style="fill: rgb(0, 0, 0); fill-opacity: 1; stroke: none; stroke-width: 6.017; stroke-linecap: round; stroke-linejoin: round; stroke-miterlimit: 4; stroke-dasharray: 6.017, 72.204; stroke-dashoffset: 0pt; stroke-opacity: 1;" transform="matrix(0.250836, 0, 0, 0.250836, 343.06, 407.829)"/>
      <path id="path6239" d="M 137.69542,104.4044 C 137.69542,108.39641 134.45553,111.63631 130.46352,111.63631 C 126.47151,111.63631 123.23161,108.39641 123.23161,104.4044 C 123.23161,100.41239 126.47151,97.172501 130.46352,97.172501 C 134.45553,97.172501 137.69542,100.41239 137.69542,104.4044 z" style="fill: rgb(0, 0, 0); fill-opacity: 1; stroke: none; stroke-width: 6.017; stroke-linecap: round; stroke-linejoin: round; stroke-miterlimit: 4; stroke-dasharray: 6.017, 72.204; stroke-dashoffset: 0pt; stroke-opacity: 1;" transform="matrix(0.250836, 0, 0, 0.250836, 296.417, 572.904)"/>
      <path id="path6241" d="M 137.69542,104.4044 C 137.69542,108.39641 134.45553,111.63631 130.46352,111.63631 C 126.47151,111.63631 123.23161,108.39641 123.23161,104.4044 C 123.23161,100.41239 126.47151,97.172501 130.46352,97.172501 C 134.45553,97.172501 137.69542,100.41239 137.69542,104.4044 z" style="fill: rgb(0, 0, 0); fill-opacity: 1; stroke: none; stroke-width: 6.017; stroke-linecap: round; stroke-linejoin: round; stroke-miterlimit: 4; stroke-dasharray: 6.017, 72.204; stroke-dashoffset: 0pt; stroke-opacity: 1;" transform="matrix(0.250836, 0, 0, 0.250836, 343.967, 572.904)"/>
      <path id="path6243" d="M 137.69542,104.4044 C 137.69542,108.39641 134.45553,111.63631 130.46352,111.63631 C 126.47151,111.63631 123.23161,108.39641 123.23161,104.4044 C 123.23161,100.41239 126.47151,97.172501 130.46352,97.172501 C 134.45553,97.172501 137.69542,100.41239 137.69542,104.4044 z" style="fill: rgb(0, 0, 0); fill-opacity: 1; stroke: none; stroke-width: 6.017; stroke-linecap: round; stroke-linejoin: round; stroke-miterlimit: 4; stroke-dasharray: 6.017, 72.204; stroke-dashoffset: 0pt; stroke-opacity: 1;" transform="matrix(0.250836, 0, 0, 0.250836, 261.102, 537.923)"/>
      <path id="path6245" d="M 137.69542,104.4044 C 137.69542,108.39641 134.45553,111.63631 130.46352,111.63631 C 126.47151,111.63631 123.23161,108.39641 123.23161,104.4044 C 123.23161,100.41239 126.47151,97.172501 130.46352,97.172501 C 134.45553,97.172501 137.69542,100.41239 137.69542,104.4044 z" style="fill: rgb(0, 0, 0); fill-opacity: 1; stroke: none; stroke-width: 6.017; stroke-linecap: round; stroke-linejoin: round; stroke-miterlimit: 4; stroke-dasharray: 6.017, 72.204; stroke-dashoffset: 0pt; stroke-opacity: 1;" transform="matrix(-0.250836, 0, 0, 0.250836, 456.677, 572.904)"/>
      <path id="path6247" d="M 137.69542,104.4044 C 137.69542,108.39641 134.45553,111.63631 130.46352,111.63631 C 126.47151,111.63631 123.23161,108.39641 123.23161,104.4044 C 123.23161,100.41239 126.47151,97.172501 130.46352,97.172501 C 134.45553,97.172501 137.69542,100.41239 137.69542,104.4044 z" style="fill: rgb(0, 0, 0); fill-opacity: 1; stroke: none; stroke-width: 6.017; stroke-linecap: round; stroke-linejoin: round; stroke-miterlimit: 4; stroke-dasharray: 6.017, 72.204; stroke-dashoffset: 0pt; stroke-opacity: 1;" transform="matrix(-0.250836, 0, 0, 0.250836, 490.628, 537.469)"/>
      <path id="path6249" d="M 137.69542,104.4044 C 137.69542,108.39641 134.45553,111.63631 130.46352,111.63631 C 126.47151,111.63631 123.23161,108.39641 123.23161,104.4044 C 123.23161,100.41239 126.47151,97.172501 130.46352,97.172501 C 134.45553,97.172501 137.69542,100.41239 137.69542,104.4044 z" style="fill: rgb(0, 0, 0); fill-opacity: 1; stroke: none; stroke-width: 6.017; stroke-linecap: round; stroke-linejoin: round; stroke-miterlimit: 4; stroke-dasharray: 6.017, 72.204; stroke-dashoffset: 0pt; stroke-opacity: 1;" transform="matrix(-0.250836, 0, 0, -0.250836, 456.237, 460.205)"/>
      <path id="path6251" d="M 137.69542,104.4044 C 137.69542,108.39641 134.45553,111.63631 130.46352,111.63631 C 126.47151,111.63631 123.23161,108.39641 123.23161,104.4044 C 123.23161,100.41239 126.47151,97.172501 130.46352,97.172501 C 134.45553,97.172501 137.69542,100.41239 137.69542,104.4044 z" style="fill: rgb(0, 0, 0); fill-opacity: 1; stroke: none; stroke-width: 6.017; stroke-linecap: round; stroke-linejoin: round; stroke-miterlimit: 4; stroke-dasharray: 6.017, 72.204; stroke-dashoffset: 0pt; stroke-opacity: 1;" transform="matrix(-0.250836, 0, 0, -0.250836, 490.628, 495.324)"/>
      <path id="path6253" d="M 137.69542,104.4044 C 137.69542,108.39641 134.45553,111.63631 130.46352,111.63631 C 126.47151,111.63631 123.23161,108.39641 123.23161,104.4044 C 123.23161,100.41239 126.47151,97.172501 130.46352,97.172501 C 134.45553,97.172501 137.69542,100.41239 137.69542,104.4044 z" style="fill: rgb(0, 0, 0); fill-opacity: 1; stroke: none; stroke-width: 6.017; stroke-linecap: round; stroke-linejoin: round; stroke-miterlimit: 4; stroke-dasharray: 6.017, 72.204; stroke-dashoffset: 0pt; stroke-opacity: 1;" transform="matrix(-0.250836, 0, 0, -0.250836, 490.628, 542.805)"/>
      <path id="path6257" d="M 137.69542,104.4044 C 137.69542,108.39641 134.45553,111.63631 130.46352,111.63631 C 126.47151,111.63631 123.23161,108.39641 123.23161,104.4044 C 123.23161,100.41239 126.47151,97.172501 130.46352,97.172501 C 134.45553,97.172501 137.69542,100.41239 137.69542,104.4044 z" style="fill: rgb(0, 0, 0); fill-opacity: 1; stroke: none; stroke-width: 6.017; stroke-linecap: round; stroke-linejoin: round; stroke-miterlimit: 4; stroke-dasharray: 6.017, 72.204; stroke-dashoffset: 0pt; stroke-opacity: 1;" transform="matrix(-0.250836, 0, 0, -0.250836, 326.552, 495.984)"/>
      <path id="path6259" d="M 137.69542,104.4044 C 137.69542,108.39641 134.45553,111.63631 130.46352,111.63631 C 126.47151,111.63631 123.23161,108.39641 123.23161,104.4044 C 123.23161,100.41239 126.47151,97.172501 130.46352,97.172501 C 134.45553,97.172501 137.69542,100.41239 137.69542,104.4044 z" style="fill: rgb(0, 0, 0); fill-opacity: 1; stroke: none; stroke-width: 6.017; stroke-linecap: round; stroke-linejoin: round; stroke-miterlimit: 4; stroke-dasharray: 6.017, 72.204; stroke-dashoffset: 0pt; stroke-opacity: 1;" transform="matrix(-0.250836, 0, 0, -0.250836, 326.552, 543.465)"/>
      <path id="text6279" d="M 304.77369,484.37259 L 309.68902,468.51618 C 309.2862,468.98432 308.92694,469.37624 308.61124,469.69193 C 308.09956,470.20362 307.71853,470.58465 307.46814,470.83503 C 306.71695,471.52091 305.98211,472.11967 305.26359,472.63133 L 305.13295,472.63133 L 304.93699,472.37005 L 304.96965,472.17409 L 307.27218,470.01853 C 307.96892,469.33269 308.50236,468.7557 308.87252,468.28756 C 308.99226,468.17871 309.16101,467.94464 309.37875,467.58537 C 309.50938,467.4112 309.64546,467.22068 309.787,467.01382 C 310.25511,466.3062 310.66881,465.9415 311.02808,465.91971 L 312.02421,465.8054 L 312.22017,465.83806 L 312.28549,466.01769 L 312.25283,466.14833 L 312.18751,466.34429 L 306.97824,484.20929 L 306.76595,484.68286 L 306.40669,484.8135 L 305.06763,484.91148 L 304.77369,484.84616 L 304.69204,484.63387 L 304.77369,484.37259 M 318.81748,480.02882 C 318.81748,481.45497 319.07331,482.56541 319.58499,483.36013 C 320.09666,484.14397 320.79885,484.53589 321.69156,484.53589 C 322.45362,484.53589 323.18302,484.19296 323.87978,483.5071 C 324.5874,482.81036 325.2406,481.7598 325.83937,480.35541 C 326.44902,478.97282 326.92803,477.44869 327.27641,475.78302 C 327.61389,474.10648 327.78263,472.47893 327.78264,470.90035 C 327.78263,469.37624 327.54857,468.20048 327.08045,467.37308 C 326.61231,466.53482 325.96456,466.11569 325.13718,466.11567 C 324.69082,466.11569 324.25536,466.24633 323.83079,466.50759 C 323.38442,466.80155 322.93807,467.21524 322.49173,467.74867 C 321.95827,468.42366 321.46837,469.25104 321.02203,470.23082 C 320.5539,471.23241 320.10754,472.5007 319.68297,474.03571 C 319.42169,474.92843 319.2094,475.91367 319.0461,476.99144 C 318.89368,478.05834 318.81748,479.0708 318.81748,480.02882 M 321.46294,485.20542 C 320.01501,485.20542 318.81748,484.57944 317.87034,483.32747 C 316.93409,482.06462 316.46596,480.4534 316.46596,478.4938 C 316.46596,477.81883 316.53672,477.09487 316.67825,476.32191 C 316.74357,475.87556 316.80889,475.51631 316.87421,475.24413 C 316.91776,474.99375 317.0484,474.52562 317.26613,473.83975 C 317.47298,473.14302 317.69615,472.49526 317.93566,471.89648 C 318.18605,471.29773 318.47999,470.72074 318.81748,470.1655 C 319.39447,469.10951 320.10754,468.17326 320.95671,467.35675 C 321.69699,466.68179 322.3883,466.20278 323.03062,465.91971 C 323.68381,465.62579 324.32068,465.47882 324.94122,465.4788 C 326.32382,465.47882 327.40704,466.07214 328.19089,467.25877 C 328.94206,468.43454 329.31765,470.10564 329.31766,472.27207 C 329.31765,474.10104 329.04004,475.93 328.48483,477.75895 C 327.90783,479.60968 327.09677,481.19913 326.05166,482.5273 C 325.35491,483.42001 324.62006,484.08954 323.84712,484.53589 C 323.08504,484.98224 322.29032,485.20542 321.46294,485.20542" style="font-size: 33.4438px; font-style: normal; font-variant: normal; font-weight: normal; font-stretch: normal; text-align: start; line-height: 125%; text-anchor: start; fill: rgb(0, 0, 0); fill-opacity: 1; stroke: none; stroke-width: 1px; stroke-linecap: butt; stroke-linejoin: miter; stroke-opacity: 1; font-family: Amaze;"/>
      <path id="text6283" d="M 308.23397,527.78529 L 308.0118,527.78529 L 307.73408,527.45203 L 307.82665,527.22986 C 310.27052,525.14393 312.14663,522.71239 313.45498,519.93525 C 314.77565,517.15813 315.43599,514.2514 315.436,511.21505 C 315.43599,509.49941 315.18296,508.17256 314.67692,507.23449 C 314.17085,506.32114 313.41177,505.86446 312.39967,505.86444 C 311.79486,505.86446 311.19006,506.0496 310.58527,506.41986 C 309.95578,506.81485 309.40036,507.33942 308.91899,507.99357 C 308.61042,508.42559 308.35739,508.81439 308.15991,509.15997 C 307.95008,509.54261 307.75876,509.97461 307.58597,510.45597 C 307.30208,511.36935 307.16014,512.2642 307.16014,513.14053 C 307.16014,514.36248 307.39465,515.27585 307.86368,515.88064 C 308.28333,516.53482 308.91282,516.8619 309.75213,516.86189 C 310.71487,516.8619 311.53566,516.40522 312.21453,515.49184 C 312.86869,514.61551 313.35006,513.31334 313.65864,511.58533 L 313.76972,511.47425 L 314.19555,511.51128 L 314.30664,511.69642 C 313.99805,513.85643 313.35006,515.61528 312.36264,516.97298 C 311.35052,518.36772 310.21498,519.06509 308.95602,519.06508 C 307.89453,519.06509 307.03671,518.64544 306.38254,517.80612 C 305.69134,517.00384 305.34574,515.96705 305.34575,514.69573 C 305.34574,513.53551 305.58643,512.36295 306.0678,511.17802 C 306.52448,509.99313 307.20951,508.85142 308.12288,507.75289 C 308.48082,507.33325 308.84493,506.93828 309.21522,506.56798 C 309.57316,506.24708 309.95578,505.95703 310.3631,505.69781 C 311.16538,505.27817 311.99852,505.06835 312.86253,505.06832 C 314.33131,505.06835 315.55325,505.7472 316.52834,507.10489 C 317.51575,508.45028 318.00947,510.11038 318.00948,512.08522 C 318.00947,514.43037 317.12696,517.07173 315.36195,520.00931 C 314.47325,521.42874 313.43646,522.78028 312.25156,524.06393 C 311.06664,525.38461 309.72744,526.62506 308.23397,527.78529" style="font-size: 37.9172px; font-style: normal; font-variant: normal; font-weight: normal; font-stretch: normal; text-align: start; line-height: 125%; text-anchor: start; fill: rgb(0, 0, 0); fill-opacity: 1; stroke: none; stroke-width: 1px; stroke-linecap: butt; stroke-linejoin: miter; stroke-opacity: 1; font-family: Amaze;"/>
      <path id="text6287" d="M 311.38576,556.7184 C 312.24974,555.85441 312.94711,554.86699 313.47787,553.75612 C 314.00859,552.64528 314.27397,551.53443 314.27398,550.42356 C 314.27397,549.41147 314.02094,548.61535 313.5149,548.03522 C 313.0582,547.45513 312.39786,547.16507 311.53387,547.16505 C 310.69455,547.16507 309.98484,547.46747 309.40474,548.07225 C 308.79993,548.67707 308.49753,549.46084 308.49754,550.42356 C 308.49753,551.05306 308.71353,551.83683 309.14554,552.77487 C 309.31833,553.20688 309.60838,553.76231 310.0157,554.44115 C 310.39832,555.13236 310.85501,555.89144 311.38576,556.7184 M 308.27537,556.34811 C 306.80656,557.65646 305.73891,558.92777 305.0724,560.16205 C 304.41823,561.40868 304.09115,562.6121 304.09115,563.77232 C 304.09115,564.98192 304.40589,565.97552 305.03538,566.75311 C 305.6772,567.51837 306.52885,567.901 307.59034,567.901 C 308.72587,567.901 309.66393,567.48751 310.4045,566.66054 C 311.13272,565.82123 311.49683,564.78444 311.49684,563.55015 C 311.49683,562.7849 311.26849,561.88388 310.81182,560.84707 C 310.61432,560.36571 310.31192,559.76091 309.90462,559.03268 C 309.4973,558.30446 308.95421,557.40961 308.27537,556.34811 M 307.84954,555.62606 C 307.29411,554.76207 306.91765,554.00299 306.72017,553.34881 C 306.43628,552.58357 306.29434,551.86151 306.29434,551.18264 C 306.29434,549.87432 306.78805,548.75113 307.77548,547.81305 C 308.73821,546.87502 309.91695,546.40599 311.3117,546.40597 C 312.62003,546.40599 313.68151,546.78245 314.49615,547.53534 C 315.27373,548.30061 315.66253,549.32507 315.66255,550.6087 C 315.66253,551.47272 315.36013,552.47248 314.75535,553.60801 C 314.12585,554.74356 313.15077,556.04573 311.8301,557.51451 C 312.13866,557.97121 312.42254,558.44023 312.68175,558.92159 C 312.90391,559.42766 313.08906,559.89668 313.23718,560.32867 C 313.38528,560.78537 313.50871,561.26674 313.60747,561.77278 C 313.7062,562.2665 313.75557,562.67999 313.75558,563.01324 C 313.75557,564.55609 313.18163,565.88295 312.03376,566.9938 C 310.86118,568.12934 309.42941,568.69711 307.73845,568.69711 C 306.22028,568.69711 304.9428,568.24042 303.90601,567.32705 C 302.86921,566.40134 302.35081,565.25346 302.35081,563.88341 C 302.35081,562.72319 302.78281,561.52593 303.64681,560.29165 C 304.12817,559.55108 304.6836,558.82903 305.31309,558.12548 C 305.91788,557.44664 306.76336,556.6135 307.84954,555.62606" style="font-size: 37.9172px; font-style: normal; font-variant: normal; font-weight: normal; font-stretch: normal; text-align: start; line-height: 125%; text-anchor: start; fill: rgb(0, 0, 0); fill-opacity: 1; stroke: none; stroke-width: 1px; stroke-linecap: butt; stroke-linejoin: miter; stroke-opacity: 1; font-family: Amaze;"/>
      <path id="text6291" d="M 335.04572,593.75899 L 332.86104,593.98116 L 332.58332,593.87008 L 332.50927,593.72196 C 332.50927,593.28997 333.82377,591.29043 336.4528,587.72335 C 338.9337,584.34143 342.24774,580.10784 346.39494,575.02259 L 342.74764,574.9115 L 340.6185,574.87447 C 339.64341,574.87449 338.93987,574.98558 338.50788,575.20773 C 338.05119,575.46695 337.64387,575.93597 337.28594,576.61481 L 337.21188,577.04064 C 337.08845,577.38625 336.84776,577.5714 336.48983,577.59607 L 336.34171,577.52201 L 336.30468,577.29984 L 336.63794,576.04087 C 336.74902,575.71997 336.91565,575.33118 337.13783,574.87447 C 337.28593,574.56592 337.41553,574.31289 337.52662,574.11539 C 337.82285,573.51061 338.27336,573.04158 338.87816,572.70831 C 339.45827,572.48616 340.63701,572.37507 342.41438,572.37505 C 342.75997,572.37507 343.26602,572.38742 343.93255,572.41208 C 344.58671,572.43679 345.0619,572.44913 345.35815,572.44911 C 345.6667,572.44913 345.97527,572.44913 346.28386,572.44911 C 346.55538,572.47382 347.08612,572.53553 347.87608,572.63425 L 348.32042,572.30099 L 348.56111,572.24545 L 348.74625,572.48614 L 348.74625,572.74534 C 348.24018,573.55998 347.05527,575.29415 345.19152,577.94784 C 344.42625,578.98465 343.79059,579.8795 343.28455,580.6324 C 342.55631,581.71858 341.71083,582.99606 340.7481,584.46485 L 338.43382,588.33432 C 338.17462,588.79101 337.7673,589.52541 337.21188,590.53752 C 336.48365,591.87054 336.03931,592.69134 335.87886,592.99991 C 335.73074,593.29614 335.59497,593.49979 335.47154,593.61088 L 335.04572,593.75899" style="font-size: 37.9172px; font-style: normal; font-variant: normal; font-weight: normal; font-stretch: normal; text-align: start; line-height: 125%; text-anchor: start; fill: rgb(0, 0, 0); fill-opacity: 1; stroke: none; stroke-width: 1px; stroke-linecap: butt; stroke-linejoin: miter; stroke-opacity: 1; font-family: Amaze;"/>
      <path id="text6295" d="M 375.69336,588.22324 L 375.58228,588.40838 L 375.24902,588.44541 L 375.10091,588.22324 C 375.1009,587.23582 375.24901,586.28542 375.54525,585.37204 C 375.85381,584.48337 376.26112,583.71194 376.76719,583.05776 C 377.80398,581.70007 378.97654,581.02121 380.28489,581.0212 C 381.32168,581.02121 382.19802,581.4347 382.91391,582.26165 C 383.59275,583.12566 383.93218,584.18714 383.9322,585.4461 C 383.93218,586.38416 383.74704,587.37159 383.37677,588.40838 C 383.0435,589.42049 382.54361,590.37089 381.87712,591.25957 C 381.09951,592.20997 380.27871,592.9382 379.41472,593.44425 C 378.56306,593.95031 377.63118,594.20333 376.61907,594.20333 C 375.02684,594.20333 373.74936,593.66025 372.78663,592.57408 C 371.7992,591.48791 371.30549,590.02529 371.30549,588.18621 C 371.30549,585.68062 372.19417,582.94669 373.97154,579.9844 C 375.71187,577.05917 378.1866,574.24501 381.39575,571.54191 L 381.61792,571.50488 L 382.00671,571.9122 L 381.89563,572.20842 C 379.41471,574.61529 377.43986,577.36157 375.97107,580.44726 C 374.47759,583.53297 373.73085,586.41502 373.73085,589.0934 C 373.73085,589.84632 373.79873,590.43878 373.93451,590.87077 C 374.0209,591.32746 374.21839,591.7718 374.52696,592.2038 C 375.0577,592.95671 375.76741,593.33317 376.6561,593.33316 C 377.91506,593.33317 379.03826,592.51237 380.02569,590.87077 C 381.01311,589.22918 381.50682,587.30987 381.50683,585.11284 C 381.50682,584.1748 381.35253,583.45275 381.04397,582.94668 C 380.74774,582.45298 380.29105,582.20612 379.67392,582.20611 C 378.77289,582.20612 377.93975,582.76772 377.1745,583.89091 C 376.42158,585.05114 375.92787,586.49525 375.69336,588.22324" style="font-size: 37.9172px; font-style: normal; font-variant: normal; font-weight: normal; font-stretch: normal; text-align: start; line-height: 125%; text-anchor: start; fill: rgb(0, 0, 0); fill-opacity: 1; stroke: none; stroke-width: 1px; stroke-linecap: butt; stroke-linejoin: miter; stroke-opacity: 1; font-family: Amaze;"/>
      <path id="text6299" d="M 411.48132,593.39329 L 411.40726,593.11558 L 411.55538,592.85638 L 411.70349,592.78232 L 412.81435,593.04152 L 413.94371,593.11558 C 414.67194,593.11558 415.43102,592.96746 416.22096,592.67124 C 416.99856,592.36267 417.73295,591.90598 418.42416,591.30118 C 419.41157,590.47422 420.183,589.46211 420.73844,588.26485 C 421.29385,587.10463 421.57157,585.93206 421.57158,584.74714 C 421.57157,583.6363 421.28151,582.73527 420.70141,582.04406 C 420.08426,581.40225 419.30049,581.08134 418.3501,581.08132 C 417.41204,581.08134 416.46164,581.43311 415.49891,582.13664 C 415.09159,582.43287 414.70279,582.69825 414.33251,582.93275 C 414.19674,583.00682 414.04245,583.09322 413.86966,583.19195 C 413.74622,583.16727 413.67217,583.14259 413.64749,583.11789 L 413.57343,582.89572 L 413.61046,582.54395 L 413.64749,582.43286 L 416.72085,572.87952 C 416.81958,572.59565 416.91833,572.41668 417.01708,572.34261 C 417.11581,572.29326 417.34415,572.25623 417.7021,572.23152 L 423.77477,572.12044 C 424.09567,572.12046 424.40424,572.06491 424.70048,571.95381 C 425.00904,571.8304 425.28058,571.6576 425.51511,571.43541 L 425.70025,571.50947 C 425.55212,572.6944 425.0831,573.49051 424.29317,573.8978 C 423.54025,574.35451 421.88631,574.58285 419.33136,574.58283 L 417.9613,574.58283 L 417.01708,574.5458 L 414.66577,581.78487 C 415.39399,581.20477 416.15307,580.79128 416.94302,580.54441 C 417.69592,580.23585 418.49204,580.08157 419.33136,580.08156 C 420.77546,580.08157 421.92951,580.51974 422.79352,581.39607 C 423.66984,582.26008 424.10801,583.3771 424.10803,584.74714 C 424.10801,585.858 423.81796,586.9812 423.23786,588.11673 C 422.63305,589.27696 421.76288,590.3261 420.62735,591.26415 C 419.63992,592.07878 418.57844,592.69592 417.4429,593.11558 C 416.27033,593.5846 415.09159,593.81912 413.90669,593.81912 L 412.4996,593.70803 C 412.10463,593.65866 411.7652,593.55375 411.48132,593.39329" style="font-size: 37.9172px; font-style: normal; font-variant: normal; font-weight: normal; font-stretch: normal; text-align: start; line-height: 125%; text-anchor: start; fill: rgb(0, 0, 0); fill-opacity: 1; stroke: none; stroke-width: 1px; stroke-linecap: butt; stroke-linejoin: miter; stroke-opacity: 1; font-family: Amaze;"/>
      <path id="text6303" d="M 443.62478,566.06791 L 445.4762,559.40278 L 436.57085,559.66198 L 436.33017,559.62495 L 436.25611,559.32872 L 436.33017,559.05101 C 438.05816,556.70588 439.51461,554.60761 440.69953,552.75617 C 442.03255,550.63322 443.13106,548.78797 443.99506,547.22042 L 444.29129,546.59093 C 444.62454,545.87507 444.98248,545.45541 445.36512,545.33196 L 447.75345,544.83208 L 448.04968,544.94316 L 448.14225,545.22088 C 448.14224,545.62821 447.14247,547.12786 445.14295,549.71984 C 443.34088,552.02796 440.81061,555.0396 437.55211,558.75478 L 445.7354,558.60667 L 447.0314,553.83 C 447.05607,553.66955 447.11778,553.53995 447.21654,553.4412 L 447.60534,553.29308 L 448.99391,553.10794 L 449.27162,553.21903 L 449.34568,553.4412 L 449.34568,553.58931 L 449.30865,553.71891 L 448.10522,558.49558 L 449.01242,558.49558 L 449.23459,558.6437 L 449.16053,559.05101 L 448.97539,559.25467 L 447.86454,559.2917 L 446.23529,565.80871 L 446.05014,566.21602 L 445.77243,566.38265 L 443.88398,566.80848 L 443.73586,566.80848 L 443.53221,566.77145 L 443.51369,566.60482 L 443.55072,566.29008 C 443.5754,566.16665 443.60008,566.09259 443.62478,566.06791" style="font-size: 37.9172px; font-style: normal; font-variant: normal; font-weight: normal; font-stretch: normal; text-align: start; line-height: 125%; text-anchor: start; fill: rgb(0, 0, 0); fill-opacity: 1; stroke: none; stroke-width: 1px; stroke-linecap: butt; stroke-linejoin: miter; stroke-opacity: 1; font-family: Amaze;"/>
      <path id="text6307" d="M 438.35778,526.01251 L 438.32075,525.82736 L 438.52441,525.60519 L 438.70955,525.53114 C 439.04281,525.67925 439.46246,525.80268 439.96852,525.90142 C 440.43754,526.02485 440.93743,526.08656 441.46817,526.08656 C 441.70268,526.08656 441.96805,526.07422 442.26428,526.04953 C 442.57285,526.04953 442.9925,525.95696 443.52325,525.77182 C 444.05399,525.57434 444.58473,525.27811 445.11548,524.88314 C 446.05352,524.11788 446.84963,523.10577 447.50381,521.8468 C 448.13329,520.5755 448.44803,519.35973 448.44804,518.1995 C 448.44803,517.23677 448.13329,516.453 447.50381,515.84819 C 446.87432,515.2434 446.07821,514.94101 445.11548,514.94099 C 444.8069,514.94101 444.45513,514.99038 444.06016,515.08911 L 442.57903,515.47791 L 442.30131,515.36682 L 442.19023,515.01505 L 442.26428,514.82991 C 444.5477,513.81781 446.26952,512.73164 447.42976,511.5714 C 448.58997,510.41119 449.17008,509.17074 449.17009,507.85004 C 449.17008,507.22058 448.99728,506.71452 448.65169,506.33187 C 448.29374,505.9863 447.83706,505.8135 447.28164,505.81348 C 446.59043,505.8135 445.86838,506.10355 445.11548,506.68364 C 444.33787,507.26378 443.59113,508.09692 442.87525,509.18307 L 442.69011,509.18307 L 442.35685,508.9609 L 442.30131,508.75724 C 443.04188,507.4736 443.9429,506.44915 445.00439,505.68388 C 446.06586,504.95567 447.12735,504.59156 448.18884,504.59154 C 449.22562,504.59156 450.08345,504.88161 450.76232,505.46171 C 451.41647,506.06652 451.74356,506.87498 451.74357,507.88707 C 451.74356,509.13371 451.22516,510.24457 450.18838,511.21963 C 449.16391,512.20707 447.44826,513.16981 445.04142,514.10785 C 446.88049,514.10787 448.36163,514.52752 449.48484,515.36682 C 450.59568,516.1938 451.1511,517.317 451.15112,518.73641 C 451.1511,519.72384 450.85488,520.73595 450.26243,521.77275 C 449.68231,522.80955 448.86151,523.80931 447.80004,524.77205 C 447.0718,525.40154 446.18929,525.93228 445.1525,526.36428 C 444.1157,526.7469 443.10359,526.93822 442.11617,526.93822 C 441.33857,526.93822 440.65971,526.85799 440.0796,526.69753 C 439.4748,526.5741 438.90086,526.34576 438.35778,526.01251" style="font-size: 37.9172px; font-style: normal; font-variant: normal; font-weight: normal; font-stretch: normal; text-align: start; line-height: 125%; text-anchor: start; fill: rgb(0, 0, 0); fill-opacity: 1; stroke: none; stroke-width: 1px; stroke-linecap: butt; stroke-linejoin: miter; stroke-opacity: 1; font-family: Amaze;"/>
      <path id="text6311" d="M 439.09355,484.25841 L 436.96442,486.36903 L 436.40899,486.05429 L 436.48305,485.81361 L 438.90841,482.11076 L 439.09355,481.96264 L 439.35275,481.92562 L 439.70452,481.92562 L 439.9267,481.99967 C 441.24737,480.5062 442.42611,479.08677 443.46291,477.7414 C 444.47502,476.40838 445.31433,475.15559 445.98085,473.98301 C 447.40026,471.58852 448.10998,469.59515 448.10999,468.00291 C 448.10998,467.1883 447.92483,466.54031 447.55456,466.05892 C 447.14724,465.6146 446.56712,465.39243 445.81422,465.3924 C 444.69102,465.39243 443.67891,465.93551 442.77789,467.02166 C 441.83983,468.13253 441.25972,469.54578 441.03755,471.26142 L 440.90795,471.40953 L 440.46361,471.40953 L 440.31549,471.18736 C 440.53766,469.11378 441.22886,467.43516 442.38909,466.15149 C 443.54931,464.85551 444.92553,464.20752 446.51776,464.20749 C 447.76438,464.20752 448.80734,464.621 449.64667,465.44795 C 450.49831,466.26259 450.92414,467.29322 450.92415,468.53982 C 450.92414,470.50235 447.76438,474.82233 441.44486,481.49979 L 440.75984,482.22184 L 441.74109,482.66619 C 443.01239,483.23396 444.04919,483.65361 444.85148,483.92515 C 445.64141,484.23373 446.1845,484.38801 446.48073,484.38801 C 447.09786,484.38801 447.67181,484.17201 448.20256,483.74001 C 448.73329,483.3327 449.32574,482.64768 449.97992,481.68493 L 450.09101,481.61087 L 450.38724,481.83305 L 450.42427,481.99967 C 449.97991,482.77727 449.56643,483.4191 449.18381,483.92515 C 448.80117,484.43121 448.38152,484.90024 447.92484,485.33224 C 447.09786,486.12218 446.3141,486.51715 445.57354,486.51715 C 445.04279,486.51715 444.01833,486.20858 442.50017,485.59143 L 439.09355,484.25841" style="font-size: 37.9172px; font-style: normal; font-variant: normal; font-weight: normal; font-stretch: normal; text-align: start; line-height: 125%; text-anchor: start; fill: rgb(0, 0, 0); fill-opacity: 1; stroke: none; stroke-width: 1px; stroke-linecap: butt; stroke-linejoin: miter; stroke-opacity: 1; font-family: Amaze;"/>
      <path id="text6315" d="M 416.14561,459.31076 L 421.14907,443.17003 C 420.73903,443.64657 420.37333,444.04551 420.05197,444.36687 C 419.53111,444.88774 419.14325,445.2756 418.88837,445.53047 C 418.12372,446.22864 417.37569,446.83814 416.6443,447.35897 L 416.51131,447.35897 L 416.31184,447.09301 L 416.34509,446.89354 L 418.6889,444.69933 C 419.39813,444.00119 419.94114,443.41385 420.31793,442.93731 C 420.43982,442.82651 420.61159,442.58825 420.83324,442.22253 C 420.96621,442.04524 421.10473,441.85131 421.24881,441.64074 C 421.72532,440.92043 422.14643,440.54919 422.51214,440.52701 L 423.52613,440.41065 L 423.7256,440.4439 L 423.79209,440.62675 L 423.75885,440.75973 L 423.69236,440.9592 L 418.38969,459.14453 L 418.17359,459.62659 L 417.80789,459.75957 L 416.44482,459.85931 L 416.14561,459.79282 L 416.0625,459.57672 L 416.14561,459.31076" style="font-size: 34.0435px; font-style: normal; font-variant: normal; font-weight: normal; font-stretch: normal; text-align: start; line-height: 125%; text-anchor: start; fill: rgb(0, 0, 0); fill-opacity: 1; stroke: none; stroke-width: 1px; stroke-linecap: butt; stroke-linejoin: miter; stroke-opacity: 1; font-family: Amaze;"/>
      <path id="text6319" d="M 365.62134,457.31524 L 370.28563,442.26866 C 369.90338,442.71289 369.56247,443.08479 369.26289,443.38437 C 368.77735,443.86992 368.41577,444.23149 368.17818,444.46908 C 367.46535,445.11993 366.76804,445.68811 366.08622,446.17364 L 365.96225,446.17364 L 365.7763,445.9257 L 365.80729,445.73975 L 367.99222,443.69428 C 368.65338,443.04347 369.15958,442.49595 369.51083,442.05171 C 369.62446,441.94842 369.78458,441.72631 369.9912,441.38539 C 370.11516,441.22011 370.24429,441.03933 370.3786,440.84303 C 370.82281,440.17155 371.21537,439.82548 371.55629,439.8048 L 372.50155,439.69633 L 372.6875,439.72732 L 372.74948,439.89777 L 372.71849,440.02174 L 372.65651,440.20769 L 367.7133,457.16028 L 367.51185,457.60966 L 367.17094,457.73363 L 365.90027,457.8266 L 365.62134,457.76462 L 365.54386,457.56317 L 365.62134,457.31524 M 378.21956,456.26151 L 376.43752,458.02805 L 375.97264,457.76462 L 376.03463,457.56317 L 378.0646,454.46398 L 378.21956,454.34001 L 378.4365,454.30902 L 378.73093,454.30902 L 378.91688,454.371 C 380.02225,453.121 381.00883,451.93298 381.87661,450.80693 C 382.72371,449.69123 383.42619,448.64267 383.98406,447.66125 C 385.17207,445.65712 385.76608,443.98872 385.76609,442.65606 C 385.76608,441.97425 385.61112,441.43189 385.30121,441.02898 C 384.96029,440.65709 384.47475,440.47114 383.84459,440.47112 C 382.9045,440.47114 382.05739,440.92569 381.30325,441.83477 C 380.51812,442.76454 380.03258,443.9474 379.84663,445.38334 L 379.73816,445.50731 L 379.36626,445.50731 L 379.24229,445.32136 C 379.42824,443.58583 380.00676,442.18086 380.97784,441.10646 C 381.94891,440.02176 383.10078,439.4794 384.43344,439.47938 C 385.47682,439.4794 386.34976,439.82548 387.05226,440.51761 C 387.76506,441.19945 388.12147,442.06206 388.12148,443.10544 C 388.12147,444.74802 385.47682,448.36374 380.18755,453.95261 L 379.61419,454.55695 L 380.43548,454.92886 C 381.49953,455.40407 382.3673,455.75531 383.0388,455.98258 C 383.69996,456.24085 384.1545,456.36998 384.40245,456.36998 C 384.91897,456.36998 385.39934,456.1892 385.84357,455.82762 C 386.28778,455.48671 386.78365,454.91336 387.33118,454.10757 L 387.42416,454.04559 L 387.67209,454.23154 L 387.70309,454.371 C 387.33117,455.02184 386.9851,455.55903 386.66486,455.98258 C 386.3446,456.40614 385.99336,456.7987 385.61113,457.16028 C 384.91897,457.82144 384.26297,458.15202 383.64314,458.15202 C 383.19892,458.15202 382.34148,457.89375 381.07082,457.37722 L 378.21956,456.26151" style="font-size: 31.7357px; font-style: normal; font-variant: normal; font-weight: normal; font-stretch: normal; text-align: start; line-height: 125%; text-anchor: start; fill: rgb(0, 0, 0); fill-opacity: 1; stroke: none; stroke-width: 1px; stroke-linecap: butt; stroke-linejoin: miter; stroke-opacity: 1; font-family: Amaze;"/>
      <path id="text6323" d="M 327.89402,457.65454 L 332.23416,443.65362 C 331.87848,444.06698 331.56126,444.41304 331.2825,444.6918 C 330.83069,445.14361 330.49425,445.48005 330.27316,445.70113 C 329.60988,446.30674 328.96102,446.83544 328.32659,447.28723 L 328.21124,447.28723 L 328.03821,447.05652 L 328.06705,446.8835 L 330.10014,444.98018 C 330.71534,444.37459 331.18636,443.86512 331.5132,443.45176 C 331.61894,443.35564 331.76793,443.14897 331.9602,442.83174 C 332.07554,442.67795 332.1957,442.50973 332.32067,442.32707 C 332.73401,441.70226 333.09929,441.38023 333.41652,441.36099 L 334.29608,441.26006 L 334.46911,441.2889 L 334.52679,441.44751 L 334.49795,441.56286 L 334.44027,441.73589 L 329.84059,457.51035 L 329.65314,457.9285 L 329.33592,458.04385 L 328.15356,458.13037 L 327.89402,458.07269 L 327.82192,457.88524 L 327.89402,457.65454 M 341.15956,457.65454 L 345.4997,443.65362 C 345.14402,444.06698 344.8268,444.41304 344.54804,444.6918 C 344.09624,445.14361 343.75979,445.48005 343.53871,445.70113 C 342.87542,446.30674 342.22657,446.83544 341.59213,447.28723 L 341.47678,447.28723 L 341.30375,447.05652 L 341.33259,446.8835 L 343.36568,444.98018 C 343.98089,444.37459 344.45191,443.86512 344.77875,443.45176 C 344.88448,443.35564 345.03348,443.14897 345.22574,442.83174 C 345.34108,442.67795 345.46124,442.50973 345.58621,442.32707 C 345.99955,441.70226 346.36484,441.38023 346.68206,441.36099 L 347.56163,441.26006 L 347.73466,441.2889 L 347.79233,441.44751 L 347.76349,441.56286 L 347.70582,441.73589 L 343.10614,457.51035 L 342.91869,457.9285 L 342.60147,458.04385 L 341.4191,458.13037 L 341.15956,458.07269 L 341.08747,457.88524 L 341.15956,457.65454" style="font-size: 29.5303px; font-style: normal; font-variant: normal; font-weight: normal; font-stretch: normal; text-align: start; line-height: 125%; text-anchor: start; fill: rgb(0, 0, 0); fill-opacity: 1; stroke: none; stroke-width: 1px; stroke-linecap: butt; stroke-linejoin: miter; stroke-opacity: 1; font-family: Amaze;"/>
      <g transform="matrix(0.190027, 0, 0, 0.190027, 245.939, 418.513)" id="g7309">
        <path style="fill: rgb(255, 255, 0); fill-rule: evenodd; stroke: none; stroke-width: 1px; stroke-linecap: butt; stroke-linejoin: miter; stroke-opacity: 1;" d="M 447.7994,766.55739 L 663.02082,545.55045 L 675.74897,559.43571 L 457.05624,776.97133 L 447.7994,766.55739 z" id="path6334"/>
        <path style="fill: rgb(0, 0, 0); fill-rule: evenodd; stroke: rgb(0, 0, 0); stroke-width: 1px; stroke-linecap: butt; stroke-linejoin: miter; stroke-opacity: 1;" d="M 726.66157,491.16655 L 967.33928,345.37139 L 999.73821,345.37139 L 983.53874,376.61321 L 744.01813,521.25126 C 751.6358,549.78249 728.36785,581.59723 691.94843,583.7349 C 661.15761,584.441 635.05036,557.32145 634.09321,516.62284 L 454.74203,399.7553 L 437.38547,365.04217 L 476.72701,365.04217 L 661.86372,484.22392 C 669.79612,477.23739 710.34011,464.45272 726.66157,491.16655 z" id="path6332" sodipodi:nodetypes="cccccccccccc"/>
        <path style="opacity: 1; fill: rgb(255, 0, 0); fill-opacity: 1; stroke: none; stroke-width: 6.017; stroke-linecap: round; stroke-linejoin: round; stroke-miterlimit: 4; stroke-dasharray: 6.017, 72.204; stroke-dashoffset: 0pt; stroke-opacity: 1;" d="M 685,443.71875 L 688.5625,481.375 C 664.25519,485.21676 645.65623,506.27428 645.65625,531.65625 C 645.65625,559.76 668.45878,582.56253 696.5625,582.5625 C 697.09567,582.5625 697.62702,582.54755 698.15625,582.53125 L 726.65625,883.4375 L 740.53125,881.125 L 711.59375,580.3125 C 732.37717,573.90115 747.50002,554.53519 747.5,531.65625 C 747.5,505.40625 727.58891,483.77059 702.0625,481.03125 L 698.90625,448.34375 L 685,443.71875 z" id="path6327"/>
        <path style="fill: rgb(0, 128, 0); fill-rule: evenodd; stroke: rgb(0, 0, 0); stroke-width: 1px; stroke-linecap: butt; stroke-linejoin: miter; stroke-opacity: 1;" d="M 503.34042,400.9124 L 557.72432,432.15422 L 549.62459,444.88237 L 497.55489,412.48345 L 503.34042,400.9124 z" id="path7305"/>
        <path id="path7307" d="M 954.36558,383.13133 L 869.61406,433.36168 L 862.88729,422.24366 L 945.84332,373.39102 L 954.36558,383.13133 z" style="fill: rgb(0, 128, 0); fill-rule: evenodd; stroke: rgb(0, 0, 0); stroke-width: 1px; stroke-linecap: butt; stroke-linejoin: miter; stroke-opacity: 1;" sodipodi:nodetypes="ccccc"/>
      </g>
    </g>
  </g>
</svg>