<?xml version="1.0" encoding="UTF-8" standalone="no"?>
<!-- Criado com Inkscape (http://www.inkscape.org/) -->
<svg xmlns:dc="http://purl.org/dc/elements/1.1/" xmlns:cc="http://web.resource.org/cc/" xmlns:rdf="http://www.w3.org/1999/02/22-rdf-syntax-ns#" xmlns:svg="http://www.w3.org/2000/svg" xmlns="http://www.w3.org/2000/svg" xmlns:xlink="http://www.w3.org/1999/xlink" xmlns:sodipodi="http://sodipodi.sourceforge.net/DTD/sodipodi-0.dtd" xmlns:inkscape="http://www.inkscape.org/namespaces/inkscape" width="457.14285" height="277.14285" id="svg2621" sodipodi:version="0.32" inkscape:version="0.45pre2" version="1.0" sodipodi:docbase="/home/valessio/Desktop" sodipodi:docname="banco_madeira.svg" inkscape:output_extension="org.inkscape.output.svg.inkscape" inkscape:export-filename="/home/valessio/Desktop/banco_madeira.png" inkscape:export-xdpi="59.099998" inkscape:export-ydpi="59.099998" sodipodi:modified="TRUE">
  <defs id="defs2623">
    <linearGradient id="linearGradient3796">
      <stop id="stop3798" offset="0" style="stop-color: rgb(40, 20, 0); stop-opacity: 1;"/>
      <stop id="stop3800" offset="1" style="stop-color: rgb(69, 48, 0); stop-opacity: 1;"/>
    </linearGradient>
    <linearGradient id="linearGradient2797">
      <stop style="stop-color: rgb(102, 55, 20); stop-opacity: 1;" offset="0" id="stop2799"/>
      <stop style="stop-color: rgb(135, 109, 61); stop-opacity: 1;" offset="1" id="stop2801"/>
    </linearGradient>
    <linearGradient inkscape:collect="always" xlink:href="#linearGradient2797" id="linearGradient4783" gradientUnits="userSpaceOnUse" x1="261.83698" y1="455.54358" x2="261.83698" y2="512.34375"/>
    <linearGradient inkscape:collect="always" xlink:href="#linearGradient2797" id="linearGradient4787" gradientUnits="userSpaceOnUse" x1="262.35764" y1="461.27097" x2="262.35764" y2="504.48978"/>
    <linearGradient inkscape:collect="always" xlink:href="#linearGradient2797" id="linearGradient4803" gradientUnits="userSpaceOnUse" x1="214.51636" y1="116.77625" x2="214.51636" y2="157.92412" gradientTransform="translate(140, 263.791)"/>
    <radialGradient inkscape:collect="always" xlink:href="#linearGradient2797" id="radialGradient4807" gradientUnits="userSpaceOnUse" gradientTransform="matrix(-3.05204e-05, -10.7397, 6.72425, -1.91081e-05, -2031.7, 2613.7)" cx="209.67389" cy="380.19101" fx="209.67381" fy="380.19104" r="6.723627"/>
    <radialGradient inkscape:collect="always" xlink:href="#linearGradient2797" id="radialGradient4811" gradientUnits="userSpaceOnUse" gradientTransform="matrix(1.20205, -0.0218078, 0.011739, 0.646929, 93.66, 250.784)" cx="226.92119" cy="176.87444" fx="226.92119" fy="176.87444" r="163.52893"/>
    <radialGradient inkscape:collect="always" xlink:href="#linearGradient2797" id="radialGradient4815" gradientUnits="userSpaceOnUse" gradientTransform="matrix(-1.15844e-05, -11.2598, 6.63029, -6.82143e-06, -1999.65, 2722.72)" cx="209.75632" cy="333.23007" fx="209.75624" fy="333.2301" r="7.0394197"/>
  </defs>
  <sodipodi:namedview id="base" pagecolor="#ffffff" bordercolor="#666666" borderopacity="1.0" inkscape:pageopacity="0.0" inkscape:pageshadow="2" inkscape:zoom="1.3627989" inkscape:cx="229.33772" inkscape:cy="138.46713" inkscape:document-units="px" inkscape:current-layer="layer1" showguides="true" inkscape:guide-bbox="true" inkscape:window-width="1024" inkscape:window-height="693" inkscape:window-x="0" inkscape:window-y="25"/>
  <metadata id="metadata2626">
    <rdf:RDF>
      <cc:Work rdf:about="">
        <dc:format>image/svg+xml</dc:format>
        <dc:type rdf:resource="http://purl.org/dc/dcmitype/StillImage"/>
      </cc:Work>
    </rdf:RDF>
  </metadata>
  <g inkscape:label="Preenchimento" inkscape:groupmode="layer" id="layer1" transform="translate(-140, -263.791)" style="display: inline;">
    <path style="fill: rgb(47, 26, 0); fill-opacity: 1; fill-rule: evenodd; stroke: none; display: inline;" d="M 465.53918,443.51422 C 470.69626,443.56235 475.85285,443.64219 481.00793,443.79547 C 478.87209,448.07518 479.11601,452.51308 478.78918,457.01422 C 475.94458,468.00146 475.98135,479.57632 476.63293,490.88922 C 475.84987,501.71022 478.48834,512.41642 479.66418,522.79547 C 480.4895,527.19397 478.78834,528.3591 475.66418,525.38922 C 466.31104,516.71746 457.8191,511.27958 449.16418,499.86274 C 445.54826,495.78318 438.85514,489.11138 436.48425,484.13688 C 437.24169,482.91329 440.27646,476.02869 440.8627,474.73513 C 444.71951,466.22499 445.06672,456.34673 444.47593,447.02216 C 442.25672,440.83673 451.26062,444.45814 454.91418,443.48297 C 458.45585,443.48468 461.99752,443.50519 465.53918,443.51422 z " id="path4817" sodipodi:nodetypes="ccccccccsccc"/>
    <path style="fill: url(#radialGradient4815) rgb(0, 0, 0); fill-opacity: 1; fill-rule: evenodd; stroke: none;" d="M 193.15625,279.6875 C 187.27981,278.78949 188.76355,286.18157 188.78125,289.78125 C 189.31209,301.86659 188.36834,314.11713 188.5,326.09375 C 187.05318,329.64505 189.58592,333.88525 188.92041,337.93647 C 189.78743,347.13723 187.75442,355.99911 188.59108,365.24974 C 189.05626,370.55711 186.25386,379.02164 194.55512,376.89904 C 198.32271,376.769 206.33493,378.40018 204.73248,372.40684 C 203.88999,360.43656 205.10713,348.29398 204.0625,336.40625 C 206.4001,331.5179 203.96887,324.88102 204.91305,319.43752 C 205.14863,313.73765 204.32578,308.07804 205.5,302.625 C 204.93848,296.46432 207.21307,289.60021 204.78125,283.8125 C 207.41652,280.10335 201.30328,279.21457 198.71875,279.71875 C 196.86509,279.65707 195.01041,279.6236 193.15625,279.6875 z " id="path2792"/>
    <path style="fill: url(#radialGradient4811) rgb(0, 0, 0); fill-opacity: 1; fill-rule: evenodd; stroke: none;" d="M 530.8125,280.47824 C 526.35517,282.66972 520.61521,281.54044 515.62509,282.39765 C 475.46702,281.71773 435.25172,281.40243 395.1564,284.09683 C 342.36907,284.95732 289.55837,286.33701 236.78165,284.70289 C 226.30487,284.44135 215.70341,283.78311 205.4375,285.00949 C 203.17597,288.2477 204.7611,295.39169 204,300.16574 C 202.85452,303.60807 203.89878,307.70341 208.125,307.41574 C 202.22653,307.16697 204.47877,314.60943 203.968,318.22798 C 204.29929,324.09846 203.05217,330.72191 203.90625,336.22824 C 201.91824,343.4989 203.46488,351.9136 203.04195,359.5717 C 203.51788,362.39234 202.17459,366.17587 204.5,368.35324 C 202.36966,368.63269 202.76631,373.94545 204.625,375.66574 C 215.53696,378.31263 227.18303,375.71643 238.34366,376.17757 C 264.58221,375.89757 290.83752,376.45584 317.062,376.49606 C 335.80263,375.79439 354.87273,376.24618 373.4375,375.10324 C 398.36939,374.585 423.41955,371.91556 448.40586,373.29909 C 468.57199,374.00771 488.7487,374.08967 508.90564,373.29443 C 515.91231,372.76321 523.84386,375.35982 530.40625,372.41574 C 532.04967,368.20792 530.85611,363.23758 532.25,358.88449 C 532.93698,342.42179 531.74839,326.2178 532.625,309.79074 C 532.61795,300.88728 532.88073,291.211 533.9375,282.19699 C 533.44876,280.93829 532.18879,280.04133 530.8125,280.47824 z M 315.4375,306.29074 C 321.33723,306.40765 313.18294,306.29305 315.4375,306.29074 z M 358.875,366.29074 C 360.26282,367.66845 355.59237,366.01533 355.53125,366.97824 C 351.61818,366.73841 349.28462,367.18286 344.53125,366.91574 C 301.3541,366.11087 258.1521,367.82872 214.96875,368.19699 C 212.56083,367.77073 209.87281,368.17908 204.5,368.35324 C 255.95833,367.66574 307.41667,366.97824 358.875,366.29074 z M 358.90625,366.29074 L 358.9375,366.32199 L 358.90625,366.29074 z " id="path2790"/>
    <path style="fill: url(#radialGradient4807) rgb(0, 0, 0); fill-opacity: 1; fill-rule: evenodd; stroke: none;" d="M 532.6875,281.65625 C 529.61341,285.94936 531.87716,292.5376 531.09375,297.625 C 531.37263,322.05832 530.86342,346.52154 530.90625,370.9375 C 529.66436,377.8978 536.27375,375.3533 540.8369,375.13316 C 544.65416,375.57075 546.86993,372.29451 546.1875,368.71875 C 546.87754,340.60686 548.7298,312.44259 547.78125,284.34375 C 546.51932,280.46763 542.10408,282.13691 539.4375,282.65625 C 537.2579,282.48835 534.71305,280.69895 532.6875,281.65625 z " id="path2788"/>
    <path style="fill: url(#linearGradient4803) rgb(0, 0, 0); fill-opacity: 1; fill-rule: evenodd; stroke: none;" d="M 442.8125,371.79074 C 440.90975,371.71191 438.16022,371.85306 437.6875,373.85324 C 429.68319,371.2328 420.60632,373.51107 412.25017,372.87159 C 397.37707,373.09417 382.91986,374.9333 367.875,375.19699 C 362.60873,376.42546 357.00383,374.58119 351.37506,375.30661 C 340.95244,375.38328 330.80281,375.83537 320.75,375.54074 C 286.54589,374.94047 252.39071,374.36055 218.28125,375.07199 C 214.30537,376.57296 212.8449,381.7495 209.34405,384.11096 C 204.75916,389.0371 201.27665,394.79404 195.39501,398.18921 C 184.83235,408.18744 175.24471,419.35639 164.96875,429.47824 C 162.30636,433.99042 169.44271,433.38288 172.15625,433.32199 C 187.0436,433.29297 202.05188,433.51555 216.875,432.63449 C 218.96857,432.17166 219.91661,430.06492 221.21875,432.60324 C 228.54907,435.44243 237.03907,432.8292 244.74704,433.35576 C 253.02257,433.03051 261.29406,432.60487 269.5625,432.13449 C 271.20252,431.17289 275.74563,432.61526 278.56161,432.30171 C 290.76389,432.7588 302.9792,432.60981 315.1875,432.72824 C 316.17662,428.7247 317.05199,434.04727 320.03125,432.79074 C 336.44742,432.507 353.08131,433.80425 369.375,432.04074 C 370.17737,431.71084 372.90056,432.92976 374.1875,431.35324 C 392.21029,431.27061 410.99166,432.65433 428.53125,431.57199 C 443.2837,433.44309 458.19655,430.25819 473.03125,431.32199 C 475.55328,430.96132 476.80523,430.74071 479.25,431.47824 C 493.45889,431.49019 507.84527,432.16393 521.96875,431.13449 C 523.464,428.97736 525.80864,432.58626 527.96875,430.60324 C 543.91797,430.34281 560.11655,430.83104 575.9375,429.38449 C 579.68235,427.74802 575.63289,423.52189 573,424.60324 C 566.45934,417.65765 558.28779,412.65661 552.21875,405.16574 C 545.49485,399.63766 540.39275,391.59643 532.53125,387.79074 C 530.14254,386.08868 529.07814,382.21306 526,380.54074 C 523.41876,376.90973 517.92856,376.44594 516.46875,372.19699 C 504.47327,372.16543 492.81645,372.02394 480.84375,373.19699 C 473.08362,371.8436 464.06071,373.36462 455.84375,371.94699 C 451.50418,371.7424 447.15579,371.72824 442.8125,371.79074 z " id="path2766"/>
    <path style="fill: rgb(57, 36, 0); fill-opacity: 1; fill-rule: evenodd; stroke: none;" d="M 516.125,375.84375 C 520.68118,378.08234 523.95182,383.13013 529.15625,383.84375 C 532.08508,381.96694 531.43428,376.74263 529.96875,373.9375 C 524.70047,370.32383 517.23866,373.16326 511.25,372.1875 C 509.81697,372.14284 515.63174,375.25559 516.125,375.84375 z " id="path2762"/>
    <path style="fill: rgb(69, 48, 0); fill-opacity: 1; fill-rule: evenodd; stroke: none;" d="M 532.4375,373.40625 C 527.61285,374.92056 530.00342,381.67682 530.1875,385.40625 C 531.69769,390.89016 538.84631,387.6127 542.7778,388.0107 C 546.75696,388.5029 550.61829,385.94272 549.90625,381.5625 C 550.36134,378.40579 549.98014,373.1801 545.59375,373.625 C 541.1904,373.72114 536.80646,373.73774 532.4375,373.40625 z " id="path2758"/>
    <path style="fill: rgb(0, 0, 0); fill-rule: evenodd; stroke: none;" d="M 186.1875,374.8125 C 182.87146,376.70485 185.97444,382.82338 188.71875,378.90625 C 190.36197,377.03178 189.05568,373.14384 186.1875,374.8125 z " id="path2754"/>
    <path style="fill: rgb(69, 48, 0); fill-opacity: 1; fill-rule: evenodd; stroke: none;" d="M 191.28125,374.53125 C 185.47526,374.80362 187.79325,382.44426 188.28125,386.1875 C 189.64386,392.21281 197.45451,389.96842 201.875,390 C 206.79663,387.76966 203.76701,380.63678 204.90529,376.53171 C 203.94809,373.99959 198.83583,376.41122 196.125,375.21875 C 194.59803,374.63005 192.91613,374.42241 191.28125,374.53125 z " id="path2752"/>
    <path style="fill: rgb(57, 36, 0); fill-opacity: 1; fill-rule: evenodd; stroke: none;" d="M 206.3125,375.0625 C 201.62106,375.72645 203.76553,382.21204 203.71875,385.59375 C 204.622,390.6436 209.56914,386.29379 211.21875,384.0625 C 212.93949,381.67596 218.07544,377.87893 213.6875,375.46875 C 211.28639,374.98494 208.76512,375.01508 206.3125,375.0625 z " id="path2746"/>
    <path style="fill: rgb(69, 48, 0); fill-opacity: 1; fill-rule: evenodd; stroke: none;" d="M 425.59375,429.63449 C 410.41009,430.20956 395.08641,429.88532 379.97155,430.24053 C 376.56489,430.12355 371.80018,430.68983 369.5625,432.25949 C 365.4211,428.56095 358.80104,431.74359 353.81293,430.94514 C 342.70228,431.02552 331.03292,431.8688 320.1875,431.32199 C 318.19245,428.98246 315.82375,434.09465 315.65625,429.91574 C 300.51303,431.92819 283.84209,430.25527 269.375,431.35324 C 266.82526,427.87689 261.03062,431.02634 257.15625,431.07199 C 245.05239,432.23009 231.14389,432.19879 219.9375,432.94699 C 217.77476,428.57666 211.35165,432.48149 207.56355,431.33876 C 193.4109,432.16938 179.0949,431.04988 165.03125,432.57199 C 159.96189,434.67482 158.39034,441.38099 161.8125,445.69699 C 165.12516,449.77585 171.59001,446.65988 176.02974,447.46313 C 179.7978,447.45311 183.26676,446.16784 186.5,448.10324 C 198.11993,448.22716 209.97626,449.31013 221.5,447.97824 C 223.36091,447.77949 222.59377,444.30609 224.59375,446.44699 C 233.29278,448.34676 242.61174,446.96786 251.4375,446.54074 C 257.23272,445.96723 264.85659,446.69578 269.59375,445.82199 C 271.71216,448.11277 275.52148,446.3143 278.375,447.29074 C 291.44574,446.8396 304.45742,448.85892 317.53125,448.22824 C 317.41395,447.15748 320.35212,448.74576 321.78125,447.85324 C 333.04463,447.55559 344.41098,447.00636 355.5625,447.47824 C 357.8696,446.06942 359.91223,445.85575 362.4375,446.44699 C 365.52511,446.69434 368.29132,444.69454 370.4375,445.75949 C 388.55082,444.99985 406.87324,445.74331 424.875,444.10324 C 426.98893,444.15191 429.9913,444.71793 432.625,444.32199 C 442.84304,446.39063 454.00246,444.18043 464.5303,444.57298 C 467.8337,443.93831 472.87599,445.48403 475.1875,442.72824 C 476.84279,446.19773 483.39103,443.34526 487.15625,444.25949 C 499.16379,444.70061 511.18808,443.44195 523.1875,444.54074 C 523.395,443.59815 526.16331,447.60965 527.75,445.41574 C 535.93051,446.39937 544.38992,445.69605 552.6875,444.19699 C 560.27062,443.00167 568.80602,446.16239 575.8125,442.66574 C 579.63669,439.45754 578.69492,433.74922 578.9375,429.60324 C 576.40814,425.36871 570.12691,428.26765 566.21875,428.29074 C 552.24484,428.05762 538.13934,429.88365 524.125,428.91574 C 524.50412,431.44712 521.0425,428.02384 519.3125,429.22824 C 505.11981,430.67786 490.60827,428.80828 476.53125,430.54074 C 474.9592,432.9275 474.05658,428.65589 471.53125,429.69699 C 457.30313,428.46972 443.36943,431.43514 429.15625,430.54074 C 426.38305,429.72968 426.89536,421.90879 425.59375,429.63449 z " id="path2740"/>
    <path style="fill: url(#linearGradient4787) rgb(0, 0, 0); fill-opacity: 1; fill-rule: evenodd; stroke: none;" d="M 514.9375,441.625 C 501.65601,443.97227 487.72903,441.98717 474.28125,443.0625 C 471.51521,445.63555 471.60243,450.3586 470.53125,453.9375 C 466.99879,469.89609 465.75769,486.49346 468.11122,502.81131 C 468.64646,511.18138 471.55271,519.06907 474.9375,526.6875 C 492.99393,525.47535 511.31594,526.282 529.21875,524.125 C 532.91485,521.40966 527.05596,519.27454 525.3125,517.375 C 520.25366,511.95156 516.33684,505.31399 514.03125,498.1875 C 511.19887,481.80778 509.92445,462.66329 520.75,448.8125 C 523.36913,448.75425 526.19908,445.7343 523.78125,443.28125 C 521.45422,441.35065 517.85234,441.71378 514.9375,441.625 z " id="path2724"/>
    <path style="fill: url(#linearGradient4783) rgb(0, 0, 0); fill-opacity: 1; fill-rule: evenodd; stroke: none;" d="M 260.78125,443.96875 C 249.14185,445.6831 237.00551,444.50206 225.375,446.15625 C 221.64814,448.23843 227.52533,451.66039 229.09375,454.0625 C 233.92656,461.54511 233.30397,470.88705 234.5625,479.46875 C 235.74236,484.38791 232.08711,489.93379 235.0625,494.28125 C 234.8973,498.26528 233.78583,502.00855 232.65625,505.65625 C 231.35567,511.013 227.44029,515.14054 225.0625,519.84375 C 224.822,522.87138 222.13683,528.64795 227.34362,527.04648 C 243.65198,526.7765 260.00846,526.48039 276.25,528.1875 C 276.29726,519.75228 280.01242,511.897 279.64219,503.28433 C 280.59948,487.49545 281.08907,471.60861 277.85715,456.04151 C 277.32629,452.27515 277.15184,446.50309 272.53125,446 C 269.10297,443.88109 264.85587,443.93134 260.78125,443.96875 z " id="path2722"/>
    <path style="fill: rgb(47, 26, 0); fill-opacity: 1; fill-rule: evenodd; stroke: none;" d="M 289.46875,445.5625 C 284.31167,445.61063 279.15508,445.69047 274,445.84375 C 276.13584,450.12346 275.89192,454.56136 276.21875,459.0625 C 279.06335,470.04974 279.02658,481.6246 278.375,492.9375 C 279.15806,503.7585 276.51959,514.4647 275.34375,524.84375 C 274.51843,529.24225 276.21959,530.40738 279.34375,527.4375 C 286.62538,515.21459 297.18883,505.04184 305.84375,493.625 C 309.45967,489.54544 313.78536,485.537 316.15625,480.5625 C 310.41564,471.28908 309.85141,459.81236 310.532,449.07044 C 312.75121,442.88501 303.74731,446.50642 300.09375,445.53125 C 296.55208,445.53296 293.01041,445.55347 289.46875,445.5625 z " id="path2203"/>
  </g>
  <g inkscape:groupmode="layer" id="layer2" inkscape:label="Contorno" style="display: inline;">
    <path id="path2711" d="M 59.759593,14.824251 C 56.845153,14.892321 55.406253,15.122901 55.290843,15.511751 C 55.193254,15.825331 54.290553,16.116711 53.290843,16.136751 C 50.950904,16.183652 50.015873,17.555431 49.353343,22.105501 C 49.154183,23.49857 48.942613,23.900171 48.353343,23.668001 C 47.676511,23.40615 47.618243,23.845541 48.040843,27.574251 C 48.694464,33.308211 48.644613,31.197621 48.447093,74.136751 C 48.409973,82.650614 48.401873,101.59595 48.415843,106.51175 C 48.428422,108.94656 48.224253,110.98751 47.978343,111.01175 C 47.725332,111.0434 47.387003,111.12834 47.103343,111.19925 C 46.850954,111.2623 46.191543,111.37122 45.665843,111.418 C 44.382724,111.52104 44.414843,112.47496 45.697093,112.44925 C 46.264574,112.43789 46.625913,112.6688 46.509593,113.01175 C 46.402733,113.34484 46.596953,114.57118 46.978343,115.76175 C 47.965413,118.84619 47.881353,119.57819 46.228343,121.3555 C 45.090665,122.56685 44.917843,122.993 45.540843,122.9805 C 45.965834,122.97198 46.360363,122.61188 46.353343,122.26175 C 46.346192,121.90436 46.681533,121.49215 47.103343,121.32425 C 47.786632,121.06417 47.863943,121.37085 47.634593,123.668 L 47.353343,126.293 L 48.665843,126.19925 C 49.399174,126.14593 50.593683,126.27784 51.353343,126.57425 C 52.210173,126.89769 54.096213,127.00072 56.384593,126.793 C 58.381234,126.61288 60.320803,126.63534 60.665843,126.8555 C 61.114001,127.15816 57.417253,131.24136 47.384593,141.6055 C 39.749312,149.48654 33.142163,156.33957 32.697093,156.793 C 32.363862,157.13417 31.869783,157.40592 31.228343,157.63675 L 26.947093,162.1055 C 26.905354,162.23077 26.805783,162.36747 26.603343,162.543 C 26.553264,162.58635 26.507243,162.6031 26.447093,162.63675 L 22.572093,166.69925 C 22.594073,166.86391 22.666983,167.02371 22.822093,167.26175 C 23.437643,168.21709 22.453313,169.93132 20.947093,171.32425 L 19.353343,175.13675 C 19.575083,175.28132 19.633773,175.77167 19.728343,176.76175 C 19.780003,177.32579 19.802383,177.8375 19.790843,178.2305 L 20.165843,179.51175 C 20.673543,179.61525 21.094043,179.96655 21.353343,180.51175 C 21.628643,181.11015 22.276993,182.21098 22.822093,183.01175 C 23.104514,183.43423 23.381353,184.04594 23.572093,184.69925 L 29.103343,184.668 C 31.178584,184.44565 35.035223,184.2292 37.853343,184.168 C 39.051064,184.142 40.010183,184.15615 40.572093,184.19925 C 41.479325,184.26565 42.780903,184.30509 43.384593,184.293 C 43.763114,184.28539 44.069523,184.38674 44.322093,184.57425 L 55.165843,184.51175 L 55.228343,184.51175 C 56.082833,184.36566 57.597343,184.20861 59.103343,184.13675 C 59.939625,184.09884 60.583793,184.07078 61.103343,184.07425 C 62.661922,184.08468 63.035663,184.35864 63.853343,185.19925 L 63.884593,185.168 C 63.985695,185.27226 64.071373,185.41723 64.165843,185.543 L 67.415843,186.168 C 67.98435,186.04221 69.103313,185.93815 70.447093,185.918 C 72.362196,185.8893 74.562663,185.71602 75.353343,185.51175 C 75.75595,185.40946 76.179183,185.34453 76.603343,185.32425 C 77.027483,185.30397 77.431143,185.316 77.697093,185.38675 C 77.757332,185.40203 77.926333,185.40333 78.009593,185.418 C 78.018695,185.41957 78.031493,185.41642 78.040843,185.418 C 78.040832,185.41801 79.930053,184.9317 81.665843,185.668 C 82.651473,185.7141 82.939093,185.93967 83.072093,186.63675 C 83.082946,186.64837 83.092573,186.65618 83.103343,186.668 C 83.715817,187.3403 84.556543,188.18571 85.447093,189.043 C 85.480582,189.0017 85.578793,188.92226 85.603343,188.88675 L 86.353343,187.793 L 87.540843,189.043 C 88.168163,189.72859 89.249253,191.48736 89.947093,192.918 C 90.69984,194.46852 91.251433,196.41649 91.322093,197.793 C 91.322636,197.80342 91.321603,197.81389 91.322093,197.82425 C 91.8239,199.48789 92.376673,201.60088 92.853343,204.19925 L 92.884593,204.13675 C 93.01537,204.46532 93.112563,205.25017 93.165843,206.043 C 93.339945,207.14175 93.486653,208.35067 93.634593,209.6055 C 93.660594,209.69445 93.701173,209.77778 93.728343,209.8555 C 94.238579,211.32855 94.895943,219.12899 94.509593,219.13675 C 94.485306,219.13724 94.408793,219.06766 94.353343,219.043 C 94.445186,221.39878 94.487053,223.49756 94.478343,225.3555 C 94.802514,225.93833 95.022413,226.54143 95.040843,227.13675 C 95.067732,227.99625 94.921423,228.78064 94.697093,228.918 C 94.570512,228.99311 94.439593,229.29425 94.353343,229.668 C 94.081634,235.11022 93.414883,237.66231 93.072093,238.6055 C 93.07957,239.09237 92.901823,239.84624 92.509593,240.82425 C 92.498794,240.86872 92.489683,240.84081 92.478343,240.88675 C 92.467273,240.91397 92.458463,240.92164 92.447093,240.94925 C 92.0951,242.36526 91.484503,244.45761 90.572093,246.6055 L 90.384593,247.2305 L 90.322093,247.2305 C 89.588514,248.85595 88.664483,250.46593 87.540843,251.8555 C 87.314185,252.28568 86.988093,252.79684 86.572093,253.26175 C 85.714784,254.24042 85.070233,255.70969 84.728343,257.57425 C 84.42761,259.20929 84.067123,260.24907 83.478343,260.918 L 86.322093,263.168 C 87.077596,263.05931 88.520043,262.96674 90.322093,262.918 C 94.688672,262.79991 100.86951,262.85647 102.72834,263.168 L 102.72834,263.2305 C 103.51377,263.36697 106.31271,263.54475 108.94709,263.6055 C 110.66242,263.6435 111.34277,263.671 112.29084,263.69925 L 113.22834,263.6055 L 119.19709,264.07425 L 123.94709,264.19925 C 127.29939,264.28187 130.81065,264.54402 131.75959,264.76175 C 132.17639,264.85522 132.53193,264.94937 132.85334,265.043 L 132.88459,265.043 L 133.35334,265.07425 L 137.94709,266.9805 C 138.22409,266.54549 138.60127,266.0356 139.07209,265.4805 L 143.07209,258.76175 C 142.95075,258.76231 142.8475,258.757 142.82209,258.7305 C 142.71599,258.6191 143.90856,257.09715 145.47834,255.38675 C 147.0386,253.68377 149.08545,251.36207 149.97834,250.2305 C 150.45797,249.62219 150.78835,249.18761 151.13459,248.88675 C 152.11275,247.72281 152.43504,247.36216 153.57209,246.01175 C 153.74448,245.60864 154.13502,245.09324 154.75959,244.38675 C 155.71161,243.312 157.21484,241.38278 158.04084,240.168 C 158.86457,238.96052 159.72976,237.92237 159.94709,237.918 C 160.15477,237.91382 160.99532,236.93 161.79084,235.76175 C 162.65094,234.51437 163.42478,233.73256 164.47834,233.168 C 165.58361,231.87458 166.70072,230.56178 167.63459,229.4805 C 167.55496,229.38277 167.58982,229.20711 167.66584,228.9805 C 167.80702,228.55251 168.06882,228.20307 168.25959,228.19925 C 168.43826,228.19566 169.93089,226.53928 171.54084,224.543 L 174.47834,220.88675 L 174.91584,220.88675 C 175.00943,220.68384 175.10334,220.57425 175.10334,220.57425 L 178.22834,217.26175 C 178.11708,217.13188 178.03389,216.99784 178.00959,216.8555 C 177.92439,216.34024 177.44107,215.6782 176.91584,215.38675 C 175.58004,214.66948 174.91321,213.7273 174.25959,211.7305 C 174.22091,211.60919 174.22849,211.52695 174.19709,211.418 L 173.82209,211.043 L 173.41584,207.94925 C 173.38532,207.96902 173.36477,207.97964 173.32209,207.9805 C 173.07578,207.98541 172.73976,207.2363 172.54084,206.2305 C 172.35178,205.23419 172.0738,203.88746 171.94709,203.2305 C 171.82053,202.58074 171.54446,200.06862 171.38459,197.63675 L 171.10334,193.2305 L 171.41584,193.418 L 171.47834,191.94925 C 170.95777,191.48763 170.9584,190.95933 171.16584,189.418 C 171.32073,188.22636 171.81862,186.67042 172.25959,186.01175 C 172.70754,185.34082 172.99485,184.5496 172.88459,184.2305 C 172.73586,183.80105 174.56207,183.58457 180.44709,183.3555 C 186.78342,183.10531 190.21413,182.99736 192.07209,182.94925 C 193.93003,182.90113 194.22655,182.89114 194.22834,182.9805 C 194.2287,182.99813 194.20333,183.05182 194.19709,183.07425 C 211.58211,182.68026 256.04316,181.69758 272.69709,181.32425 C 275.12747,181.26975 283.87283,181.04888 284.16584,181.043 C 286.80254,180.99019 305.65827,181.6633 305.79084,181.668 L 305.75959,181.543 L 311.60334,181.32425 C 314.81869,181.20423 320.11879,180.86968 323.41584,180.6055 C 324.76524,180.49572 326.02952,180.40866 327.13459,180.3555 C 330.44984,180.19597 332.52662,180.3225 332.91584,180.668 C 332.99624,180.83387 332.66695,182.44579 332.13459,184.32425 C 331.58856,186.2509 330.92037,188.59106 330.66584,189.51175 C 330.4184,190.42259 329.90577,191.87122 329.57209,192.69925 C 329.23152,193.54433 328.95714,195.07908 328.97834,196.13675 C 328.99935,197.18474 328.84382,198.64013 328.60334,199.418 C 328.15178,200.87168 327.74956,204.68559 326.82209,216.38675 C 326.3125,222.90021 326.5425,228.52354 327.60334,234.32425 C 327.74214,235.1042 327.97987,237.03352 328.13459,238.6055 C 328.69482,244.38001 330.52699,252.44986 332.07209,256.13675 C 332.60728,257.40877 332.59467,257.44409 331.60334,256.918 C 331.03929,256.61767 329.96666,255.69393 329.25959,254.88675 C 327.24223,252.58633 323.22812,248.37143 321.60334,246.8555 C 309.70715,235.7133 309.38307,235.35743 308.75959,233.418 C 308.27699,231.87917 306.85696,230.25679 302.75959,226.38675 C 297.6428,221.55389 296.81429,220.31507 297.97834,219.57425 C 298.25991,219.39948 299.40025,217.20487 300.50959,214.69925 C 302.78668,209.58777 304.73576,202.00113 304.66584,198.51175 C 304.64103,197.27538 304.83102,195.77694 305.10334,195.26175 C 305.55648,194.36611 305.917,188.49715 305.82209,183.76175 L 305.79084,181.69925 L 303.69709,182.57425 C 303.67926,182.58178 303.68217,182.59804 303.66584,182.6055 C 303.29583,182.77422 303.27859,182.92475 303.66584,183.19925 C 304.07756,183.49298 304.09326,184.78542 303.75959,188.38675 C 303.73445,188.65119 303.75127,188.77573 303.72834,189.01175 L 303.88459,189.63675 C 303.88461,189.63677 304.0276,196.00936 303.54084,198.13675 C 303.48788,198.36815 303.32481,198.9797 303.22834,199.38675 C 303.02561,200.24201 302.74283,201.2414 302.38459,202.6055 C 302.36018,202.70677 302.34626,202.78549 302.32209,202.88675 C 302.05989,203.98571 301.82656,205.1074 301.66584,205.918 C 301.46361,206.92972 301.27982,207.53048 300.94709,207.82425 C 300.13142,210.37475 299.22189,212.74848 298.32209,214.1055 C 298.24307,214.22466 298.14861,214.36093 298.07209,214.4805 C 298.06592,214.49434 298.04705,214.49789 298.04084,214.51175 C 297.32476,216.11421 296.46342,217.79447 295.82209,218.69925 C 295.13006,220.23648 294.72834,221.32425 294.72834,221.32425 C 294.72833,221.32424 299.767,226.08007 303.66584,230.418 C 303.73744,230.45769 303.87151,230.52958 303.91584,230.543 C 304.392,230.67598 304.75355,231.0224 304.75959,231.32425 C 304.76186,231.4372 304.80736,231.59356 304.88459,231.76175 C 306.15091,233.24402 307.19488,234.6212 307.72834,235.63675 C 308.00354,236.16064 308.65527,237.00196 309.57209,238.07425 C 309.61915,238.11248 309.64241,238.18359 309.69709,238.2305 C 310.19165,238.65471 310.97094,239.37287 311.82209,240.26175 L 311.85334,240.26175 C 312.93882,241.39575 313.66424,242.24813 314.16584,243.043 C 315.49715,244.43355 316.90153,245.85909 318.41584,247.38675 C 318.48709,247.31801 318.56564,247.26111 318.63459,247.26175 C 318.96318,247.26481 320.05725,248.23272 321.07209,249.44925 C 322.08687,250.66339 323.57458,252.38175 324.38459,253.26175 C 324.49843,253.38607 324.56725,253.48908 324.66584,253.6055 C 327.89334,256.7743 330.51033,259.34273 332.54084,261.293 C 332.55267,261.29292 332.5602,261.29323 332.57209,261.293 C 333.33513,261.27769 333.83832,261.60841 334.00959,262.19925 C 334.41505,263.6261 335.69781,263.78999 336.57209,262.57425 C 337.26626,261.60117 338.22617,261.65211 338.19709,262.44925 L 341.35334,262.38675 C 341.35738,262.20294 341.45188,262.133 341.60334,262.13675 C 341.70433,262.13928 341.83139,262.16764 342.00959,262.2305 C 342.16117,262.28351 342.65313,262.32182 343.25959,262.3555 L 358.75959,262.043 C 359.72808,261.88487 361.42874,261.8587 364.32209,261.918 L 379.97834,261.6055 C 380.51232,261.56211 380.98443,261.52695 381.32209,261.4805 C 381.98947,261.39104 382.69436,261.3037 383.22834,261.293 C 383.7623,261.28229 384.1313,261.34446 384.25959,261.418 C 384.29441,261.43722 384.30074,261.46845 384.32209,261.51175 L 386.47834,261.4805 L 386.50959,261.418 L 388.91584,261.293 C 390.2553,261.22749 391.78125,260.95433 392.44709,260.668 C 392.65729,260.57865 392.88914,260.51764 393.10334,260.4805 C 393.26402,260.45265 393.43614,260.44769 393.60334,260.44925 C 393.96559,260.45265 394.37783,260.5571 394.82209,260.69925 L 395.91584,260.13675 C 395.8857,260.124 395.81989,260.11843 395.79084,260.1055 C 393.69979,259.17357 392.98474,258.62866 392.50959,257.418 L 389.47834,255.07425 L 389.41584,254.9805 L 389.38459,254.9805 C 387.78687,254.85931 383.27038,250.77546 381.44709,247.3555 C 380.76939,246.08386 379.9616,244.90335 379.66584,244.7305 C 378.89739,244.27998 376.73311,239.31982 376.13459,237.13675 L 376.00959,236.9805 L 375.69709,235.3555 C 375.62929,235.4501 375.44292,235.42277 375.22834,235.293 C 374.97897,235.14579 374.73704,234.66516 374.72834,234.2305 C 374.72118,233.87312 374.75778,233.68228 374.82209,233.668 C 374.88643,233.65372 375.00951,233.82588 375.22834,234.13675 C 375.35336,234.31584 375.48032,234.50525 375.57209,234.69925 L 374.91584,231.4805 C 374.83641,231.61884 374.77155,231.72901 374.69709,231.7305 C 374.12961,231.74187 373.20405,226.62462 372.79084,221.07425 L 372.41584,215.9805 L 372.75959,215.9805 L 372.91584,213.9805 C 372.88774,213.50139 372.89513,212.78043 372.91584,211.668 C 372.98794,207.08335 373.43109,203.61214 374.10334,201.9805 L 374.10334,201.94925 L 374.50959,199.19925 L 374.60334,198.94925 C 374.44561,197.47346 375.16061,193.98147 376.00959,193.1055 C 376.17498,192.921 376.30521,192.13519 376.29084,191.418 C 376.27648,190.70077 376.50668,189.95027 376.75959,189.793 C 377.01964,189.62834 377.17435,189.18676 377.16584,188.76175 C 377.15046,187.99625 380.71559,183.27795 381.29084,183.293 C 381.42488,183.29744 381.78848,183.64999 382.16584,184.07425 L 384.85334,183.32425 C 385.19008,182.99362 385.7979,182.68936 386.29084,182.6055 C 386.86033,182.51437 392.57263,182.35135 398.13459,182.2305 C 399.09587,182.20963 399.83738,182.18525 400.75959,182.168 C 403.97911,181.93851 407.3578,181.65949 410.47834,181.26175 C 412.56273,180.99607 414.75959,180.847 416.97834,180.7305 C 424.89298,180.31488 432.28092,180.64018 433.94709,180.7305 C 433.95579,180.73099 433.96997,180.73004 433.97834,180.7305 C 434.25275,180.61283 434.67394,180.52761 435.07209,180.51175 L 436.72834,179.168 C 436.94044,178.76708 437.18674,178.56165 437.50959,178.543 L 438.10334,178.07425 L 438.16584,177.57425 C 437.95944,177.20532 437.82595,176.98988 438.10334,176.9805 C 438.11874,176.98 438.17956,176.97991 438.19709,176.9805 L 438.29084,175.918 C 438.22317,175.54706 438.23128,174.96195 438.35334,174.07425 C 438.48686,173.0699 438.6511,171.37148 438.79084,169.918 L 439.00959,167.8555 L 439.32209,164.19925 C 439.32209,164.19924 439.32306,163.06936 433.69709,159.1055 C 433.68875,159.09962 433.64295,159.11138 433.63459,159.1055 C 432.78784,159.31341 432.14521,159.22876 432.13459,158.69925 C 432.13006,158.47269 431.4265,157.61285 430.47834,156.6055 C 427.29796,153.8953 423.98509,150.60767 421.54084,148.1055 L 419.82209,148.01175 L 416.85334,144.9805 C 409.89709,137.80501 408.45868,136.35853 407.13459,135.26175 C 405.53294,133.93618 396.55023,124.81346 396.69709,124.668 C 396.95746,124.39944 402.40913,124.2768 405.38459,124.4805 C 408.39875,124.68581 408.71157,124.64843 409.63459,123.57425 C 410.53882,122.527 410.6508,121.77175 410.63459,116.26175 C 410.61874,109.80718 410.33302,108.9427 408.44709,108.9805 C 407.62608,108.99696 407.30454,108.64313 407.13459,107.63675 C 406.68298,104.87009 407.06263,89.886131 407.91584,77.855501 C 407.97237,76.938803 408.14823,70.498531 408.29084,63.511751 C 408.4262,56.525093 408.64819,48.559481 408.79084,45.793001 C 409.09597,39.803063 408.57275,20.256011 408.07209,18.418001 C 407.36122,15.85463 405.92003,15.451011 397.97834,15.636751 C 392.0551,15.765121 390.81986,15.917511 390.82209,16.511751 C 390.83247,17.511651 390.13103,18.469681 389.63459,18.168001 C 389.39492,18.02303 382.13288,17.972181 373.41584,18.043001 C 364.70606,18.113671 357.43866,18.046661 357.22834,17.918001 C 357.01802,17.789371 351.77654,17.653301 345.60334,17.605501 C 339.43023,17.560132 334.26513,17.465171 334.07209,17.355501 C 333.89131,17.255241 330.55938,17.221741 326.63459,17.261751 C 322.70981,17.30174 319.18441,17.133521 318.72834,16.918001 C 318.25272,16.690801 317.78907,16.702161 317.63459,16.949251 C 317.49687,17.18876 308.25742,17.599471 296.44709,17.855501 C 284.92152,18.096141 274.14964,18.524551 272.44709,18.793001 C 266.95434,19.668881 169.80434,21.027941 163.57209,20.324251 C 161.77557,20.12349 147.94474,19.811931 143.72834,19.886751 C 141.87137,19.923972 140.61645,20.178661 140.50959,20.511751 C 140.39601,20.871551 140.08722,20.832301 139.66584,20.418001 C 139.22206,19.972731 138.38783,19.896371 136.75959,20.136751 C 134.06931,20.540972 118.07566,20.726361 112.13459,20.449251 C 109.89544,20.34194 102.48553,20.254911 95.634593,20.261751 C 88.79326,20.266001 82.711783,20.185891 82.134593,20.074251 C 80.705865,19.814385 73.406695,19.881333 69.884593,20.105501 C 69.719257,20.044574 69.540343,20.011751 69.353343,20.011751 L 66.728343,20.011751 C 66.820476,17.814148 66.884744,17.111041 66.978343,16.761751 C 67.329335,15.471962 64.552553,14.708871 59.759593,14.824251 z M 56.384593,17.730501 C 59.663938,17.758953 63.349055,17.924433 63.603343,18.136751 C 63.738412,18.247602 63.531613,18.621781 63.103343,18.949251 C 62.351644,19.532012 62.106943,21.779031 62.853343,21.293001 C 63.766863,20.709411 64.122943,22.507851 63.978343,27.105501 C 63.898094,29.730612 63.790183,33.381841 63.759593,35.230501 C 63.669704,41.112252 63.686733,41.243801 62.790843,41.261751 C 62.167841,41.274252 62.090673,41.353461 62.540843,41.636751 C 63.152281,42.011013 63.238863,45.262961 63.040843,62.261751 C 63.032793,63.307909 63.096153,69.089551 63.134593,70.043001 C 63.174513,71.071308 62.399073,71.350941 60.197093,71.168001 C 59.241363,71.09295 58.341723,71.223931 58.197093,71.480501 C 58.049913,71.729857 58.750203,71.906971 59.759593,71.886751 C 62.664584,71.828532 62.916393,72.639781 62.634593,80.636751 C 62.510725,84.340151 62.540743,92.625371 62.697093,98.980504 L 62.978343,110.543 L 61.540843,110.88675 C 60.759463,111.07393 58.048553,111.13238 55.509593,111.01175 L 50.884593,110.7305 L 50.790843,101.6055 C 50.748204,96.586409 50.728693,91.119851 50.697093,89.543001 C 50.660805,87.731911 50.790693,86.935971 51.072093,87.355501 C 51.801944,88.454519 51.054603,66.243601 50.322093,65.011751 C 49.814693,64.164339 49.796683,64.042311 50.290843,64.230501 C 50.755661,64.399983 50.869793,62.885211 50.759593,57.386751 C 50.682093,53.518292 50.781143,47.654541 50.978343,44.355501 C 51.168522,41.068682 51.206633,33.823991 51.040843,28.324251 C 50.825614,20.960492 50.871113,18.220991 51.290843,17.949251 C 51.430352,17.858891 52.240663,17.791661 53.384593,17.761751 C 54.242546,17.739321 55.291478,17.721017 56.384593,17.730501 z M 391.72834,18.449251 C 392.14061,18.490998 392.42915,19.09939 392.07209,19.793001 C 391.57243,20.77658 390.8082,33.152721 390.94709,37.793001 C 390.98829,39.367261 390.96957,41.239121 390.85334,41.949251 L 390.63459,43.230501 L 386.44709,43.136751 C 384.1532,43.069173 381.64767,42.890611 380.85334,42.793001 C 380.06868,42.695191 376.311,42.575051 372.47834,42.511751 C 366.49258,42.41431 359.59847,41.997081 354.50959,41.449251 C 353.72534,41.37077 349.19533,41.232271 344.44709,41.168001 C 334.92401,41.037551 326.81262,40.865591 319.54084,40.605501 C 316.91555,40.51798 304.5316,40.555051 292.04084,40.730501 C 279.55971,40.905752 268.73244,40.916991 268.04084,40.761751 C 267.29108,40.595619 266.14042,40.784541 265.10334,41.230501 C 264.15724,41.635981 263.35692,41.846691 263.35334,41.668001 C 263.34974,41.48932 255.97635,41.451731 246.97834,41.605501 C 237.98773,41.766363 228.8564,41.816661 226.75959,41.699251 C 224.63399,41.589661 221.00422,41.363421 218.60334,41.261751 C 216.21449,41.15745 213.04363,40.994861 211.44709,40.886751 C 205.02987,40.47667 191.88232,40.335811 188.19709,40.636751 C 187.01033,40.725742 183.71969,40.711381 180.79084,40.543001 C 174.11105,40.169561 167.44849,40.290361 155.69709,41.074251 C 145.35715,41.77188 121.41352,42.268661 110.72834,42.011751 C 95.791704,41.649183 87.249183,41.773821 87.259593,42.293001 C 87.270914,42.858072 84.972883,42.764171 84.103343,42.168001 C 83.767825,41.940382 83.401323,42.004471 83.228343,42.293001 C 83.071812,42.559459 82.614713,42.785251 82.228343,42.793001 C 81.803346,42.8015 81.630723,42.596541 81.822093,42.261751 C 82.02275,41.907451 81.883283,41.799621 81.415843,41.980501 C 80.993857,42.13876 80.452333,42.035771 80.134593,41.730501 C 79.720771,41.332942 79.656093,41.395791 79.884593,41.949251 C 80.141515,42.59394 79.653963,42.738771 76.353343,42.824251 C 72.053014,42.929781 71.040483,42.238661 74.978343,41.886751 C 76.458951,41.753199 75.616773,41.658531 72.853343,41.668001 C 68.360155,41.673483 65.498173,41.153511 65.915843,40.418001 C 66.03487,40.210262 66.190823,37.271131 66.290843,33.824251 C 66.455778,28.153107 66.546886,25.567867 66.634593,23.074251 L 69.353343,23.074251 C 69.703269,23.074251 70.033753,22.958119 70.290843,22.761751 C 70.887193,22.713613 71.497919,22.664342 72.165843,22.574251 C 74.085861,22.308701 77.749363,22.175211 80.197093,22.324251 C 82.651849,22.463492 91.999233,22.708861 100.94709,22.824251 C 109.89467,22.927581 117.99145,23.058651 118.91584,23.136751 C 123.4368,23.553441 132.26286,23.695831 149.29084,23.543001 C 159.57525,23.450432 169.35348,23.399131 171.07209,23.449251 C 173.83967,23.526652 202.99633,23.076931 242.13459,22.386751 C 249.78479,22.24307 256.65485,22.142961 257.44709,22.136751 C 258.7851,22.119591 267.67398,21.627451 281.10334,20.793001 C 284.39446,20.594181 289.65351,20.399681 292.82209,20.355501 C 324.87766,19.92081 341.49992,19.848111 351.19709,20.105501 C 368.05092,20.543192 378.42361,20.608851 379.22834,20.261751 C 379.6117,20.104302 382.35046,19.869631 385.32209,19.761751 C 389.18687,19.619072 390.80831,19.377451 391.07209,18.918001 C 391.22043,18.664996 391.37501,18.528276 391.54084,18.480501 C 391.60303,18.462585 391.66944,18.443287 391.72834,18.449251 z M 394.00959,19.418001 C 394.15226,19.367962 394.33211,19.441071 394.57209,19.511751 C 395.12102,19.660182 396.73854,20.069131 398.13459,20.418001 L 398.10334,20.449251 C 400.36137,21.017612 400.81714,20.981701 402.04084,20.324251 C 403.64671,19.451391 405.70418,19.750221 406.00959,20.886751 C 406.41045,22.444122 406.44328,43.823611 406.04084,51.105501 C 405.82111,55.207032 405.60414,62.637761 405.57209,67.668001 C 405.53985,72.688571 405.4407,77.693391 405.32209,78.886751 C 405.1166,80.927343 404.70639,92.074111 404.44709,102.76175 C 404.38826,105.49032 404.17846,107.97465 403.97834,108.3555 C 403.71495,108.83426 402.17816,109.13735 398.54084,109.418 L 393.47834,109.82425 L 393.10334,106.76175 C 392.90813,105.0964 392.82638,102.31991 392.91584,100.63675 C 393.20949,95.035971 393.3792,79.522911 393.29084,68.605501 C 393.23975,62.680684 393.27441,55.278971 393.35334,52.105501 C 393.43012,48.944162 393.44164,42.368221 393.35334,37.480501 C 393.26529,32.604871 393.27498,26.524381 393.38459,23.918001 C 393.52176,20.547072 393.58161,19.568121 394.00959,19.418001 z M 146.91584,20.449251 C 147.39827,20.418961 147.88097,20.506741 148.07209,20.761751 C 148.20927,20.976442 147.69499,21.197181 146.88459,21.261751 C 146.02604,21.334491 145.58656,21.204111 145.75959,20.918001 C 145.929,20.631961 146.42122,20.480301 146.91584,20.449251 z M 143.07209,20.511751 C 143.59129,20.50134 144.06735,20.681341 144.07209,20.918001 C 144.07677,21.152242 143.63479,21.256541 143.10334,21.136751 C 142.58414,21.02395 142.16793,20.803101 142.16584,20.699251 C 142.16375,20.595411 142.54567,20.522291 143.07209,20.511751 z M 66.697093,41.668001 C 67.073777,41.660442 67.411493,41.825661 67.415843,42.043001 C 67.420013,42.250663 67.083453,42.472761 66.697093,42.480501 C 66.317955,42.48811 65.982693,42.291571 65.978343,42.074251 C 65.973982,41.85691 66.310733,41.675741 66.697093,41.668001 z M 71.040843,42.043001 C 71.463405,42.034512 71.665873,42.264471 71.509593,42.543001 C 71.346215,42.82891 71.034883,42.974981 70.759593,42.980501 C 70.496381,42.985759 70.296503,42.825531 70.290843,42.543001 C 70.285332,42.267709 70.615823,42.051501 71.040843,42.043001 z M 192.82209,42.605501 C 193.34205,42.633721 193.67896,42.822821 193.54084,43.043001 C 193.19254,43.576451 191.92704,43.538601 191.91584,42.980501 C 191.91232,42.803002 192.1147,42.679991 192.44709,42.636751 C 192.55788,42.622331 192.69208,42.596631 192.82209,42.605501 z M 177.72834,42.793001 C 177.84909,42.790561 178.05123,42.982671 178.22834,43.261751 C 178.39298,43.521782 178.31371,43.693781 178.04084,43.699251 C 177.75832,43.704911 177.54629,43.534621 177.54084,43.261751 C 177.53517,42.97924 177.60518,42.795471 177.72834,42.793001 z M 175.88459,42.824251 C 176.00772,42.821772 176.09768,43.010481 176.10334,43.293001 C 176.1086,43.556232 175.92678,43.755901 175.63459,43.761751 C 175.35208,43.767409 175.25226,43.600521 175.41584,43.324251 C 175.57921,43.038352 175.75418,42.826871 175.88459,42.824251 z M 309.32209,43.043001 C 319.01344,43.056507 326.05547,43.160981 326.38459,43.355501 C 326.56555,43.46541 332.26834,43.489131 339.07209,43.418001 C 345.86364,43.339881 352.23682,43.416361 353.16584,43.605501 C 356.66128,44.32058 375.11903,45.147881 385.16584,45.011751 C 390.09015,44.942051 390.99815,45.050861 390.82209,45.668001 C 390.71636,46.05663 390.53714,50.459391 390.47834,55.480501 C 390.4268,60.503883 390.35033,65.354831 390.32209,66.355501 C 390.29624,67.356143 390.41348,68.190661 390.60334,68.261751 C 390.78316,68.316107 390.83957,71.822251 390.69709,76.043001 C 390.54474,80.254311 390.46244,86.739751 390.50959,90.418001 C 390.56493,94.144404 390.41555,96.671081 390.19709,96.136751 C 389.94855,95.547451 389.71074,97.220351 389.57209,100.668 C 389.45367,103.68039 389.31097,106.44005 389.29084,106.76175 C 389.20816,107.81911 385.28186,108.00248 372.63459,107.4805 C 369.3393,107.34845 366.25664,107.25586 365.72834,107.293 C 359.47101,107.74938 335.89355,108.24768 332.22834,107.9805 C 329.5722,107.79942 324.67384,107.60667 321.22834,107.57425 C 310.22238,107.46389 300.71037,107.21878 298.97834,106.9805 C 295.50716,106.51134 250.9462,108.17201 237.32209,109.293 C 235.56138,109.43217 233.96679,109.33768 233.60334,109.043 C 233.26685,108.76711 232.79121,108.6598 232.54084,108.82425 C 231.72077,109.36974 223.82573,109.85511 214.54084,109.918 C 200.75611,110.01548 196.1277,110.0892 180.82209,110.4805 C 173.07886,110.68399 166.05406,110.77286 165.25959,110.668 C 162.58332,110.32548 155.28811,110.22962 137.54084,110.293 C 127.78449,110.33634 117.11683,110.27107 113.82209,110.168 C 110.5273,110.06251 106.76744,110.05247 105.44709,110.1055 C 104.11694,110.15151 101.59776,110.21237 99.72834,110.2305 C 95.530132,110.24944 91.025743,110.36914 82.509593,110.69925 C 75.345385,110.98537 68.333933,110.80544 66.540843,110.293 C 65.695432,110.05629 65.507093,109.63363 65.478343,108.19925 L 65.447093,106.418 L 108.57209,105.7305 C 165.07975,104.80574 194.38032,104.46648 199.41584,104.76175 C 204.51635,105.04606 207.3678,105.11079 216.41584,105.043 C 225.74641,104.96712 225.27322,104.97991 225.54084,104.2305 C 225.70983,103.74398 226.38366,103.60364 228.00959,103.7305 C 229.2289,103.81961 236.19526,103.92261 243.41584,103.918 C 250.63408,103.91588 259.37444,103.92352 262.79084,103.94925 C 266.20699,103.96536 277.08656,103.97777 286.94709,103.94925 C 296.79801,103.92333 306.97637,103.96027 309.47834,104.043 C 311.98027,104.12571 317.11516,104.20342 320.94709,104.2305 C 324.7694,104.25777 328.25142,104.40262 328.72834,104.57425 C 329.20283,104.74349 331.05381,104.7237 332.82209,104.4805 C 334.58314,104.23745 336.41689,104.04848 336.94709,104.1055 C 337.46739,104.15063 345.76391,104.06992 355.38459,103.88675 C 372.55145,103.55238 387.72538,102.8366 388.57209,102.293 C 390.46331,101.07379 378.02901,100.86447 348.16584,101.6055 C 340.03599,101.80467 319.4584,101.68975 311.07209,101.38675 C 306.32175,101.21864 298.48178,101.13047 293.60334,101.19925 C 271.16017,101.51859 237.32906,101.56515 228.72834,101.293 C 223.61095,101.13226 218.93344,101.58079 218.94709,102.26175 C 218.95159,102.48635 219.27946,102.67576 219.66584,102.668 C 220.0425,102.66045 220.41147,102.85691 220.41584,103.07425 C 220.42039,103.30123 219.80183,103.36844 218.97834,103.26175 C 218.16473,103.16694 217.62064,102.9955 217.72834,102.82425 C 217.82878,102.65073 214.78622,102.46589 210.91584,102.44925 C 207.04811,102.44222 201.33799,102.33376 198.16584,102.19925 C 195.0011,102.07422 183.71027,102.09382 173.04084,102.26175 C 117.78066,103.11319 79.761133,103.58386 78.040843,103.44925 C 77.000393,103.36621 73.800363,103.28249 70.978343,103.26175 C 65.957821,103.23193 65.783193,103.18181 65.478343,102.07425 C 65.060416,100.50755 65.079843,74.435001 65.509593,73.699251 C 65.764275,73.268982 70.016793,73.093401 82.415843,73.043001 C 110.6465,72.931395 118.94038,73.174131 120.07209,74.074251 C 120.35935,74.305241 129.98127,74.403641 141.41584,74.324251 C 175.05299,74.094609 182.82289,74.120991 190.38459,74.261751 C 194.35992,74.331872 199.70451,74.324511 202.35334,74.261751 C 221.63387,73.800451 234.14268,74.022151 235.10334,74.824251 C 235.69794,75.322068 237.05023,75.388031 240.91584,75.168001 C 255.01521,74.37572 275.62207,73.900181 280.60334,74.261751 C 287.55869,74.764928 302.91985,74.606971 334.44709,73.605501 C 339.71019,73.444481 345.09534,73.276281 346.41584,73.230501 C 347.73652,73.194342 351.45476,73.262131 354.75959,73.386751 C 358.05448,73.499458 365.57497,73.524551 371.50959,73.480501 C 377.43458,73.436639 382.77506,73.563331 383.35334,73.730501 C 384.01914,73.924923 385.08764,73.715241 386.22834,73.136751 C 387.2184,72.633759 388.35429,72.270031 388.79084,72.355501 C 389.21751,72.431515 389.72103,72.288021 389.88459,72.011751 C 390.06671,71.696473 389.5033,71.484031 388.35334,71.480501 C 387.35322,71.481213 386.13425,71.417491 385.60334,71.324251 C 385.08452,71.230759 380.32913,71.123351 375.07209,71.105501 C 369.81522,71.09733 361.82649,71.028701 357.35334,70.949251 C 352.85847,70.870244 347.61713,70.815771 345.63459,70.855501 C 343.67381,70.894803 339.58071,71.004281 336.57209,71.074251 C 333.53446,71.144807 325.2685,71.208471 318.13459,71.199251 C 311.03719,71.201391 290.22145,71.448821 271.94709,71.730501 C 253.67534,72.021829 238.72912,72.206611 238.72834,72.168001 C 238.72765,72.13177 236.54983,72.115681 233.91584,72.074251 C 228.99833,72.001271 220.822,71.731461 214.54084,71.480501 C 207.48616,71.206383 176.83507,71.205381 143.82209,71.480501 C 132.68022,71.580592 123.37169,71.555771 123.13459,71.418001 C 122.89514,71.282682 119.29792,71.123681 115.13459,71.074251 C 110.97386,71.034435 105.71748,70.900321 103.47834,70.793001 C 100.42673,70.646398 70.443253,70.674561 66.228343,70.824251 C 65.719036,70.844132 65.630613,70.351261 65.822093,68.574251 C 65.946655,67.315584 66.095283,61.741611 66.134593,56.230501 C 66.176556,50.728992 66.316943,46.115991 66.447093,45.980501 C 66.807803,45.596433 68.922403,45.324931 71.509593,45.230501 C 74.096785,45.136072 77.159433,45.229111 79.509593,45.511751 L 79.447093,45.480501 C 80.098395,45.554409 94.629123,45.355061 111.75959,45.011751 C 160.65893,44.031691 168.83524,43.921601 173.44709,44.293001 C 175.82069,44.479742 184.00631,44.485021 191.66584,44.324251 C 199.3157,44.161261 211.02112,44.059371 217.75959,44.105501 C 229.80125,44.183033 243.05556,44.043711 257.44709,43.605501 C 269.64237,43.243306 293.16983,43.020491 309.32209,43.043001 z M 307.38459,109.82425 C 312.19112,109.83174 317.73257,110.00336 318.60334,110.26175 L 318.63459,110.293 C 319.84974,110.65515 324.48677,110.77252 334.29084,110.69925 L 339.60334,110.668 L 341.85334,113.793 C 343.09604,115.53159 344.13022,117.10692 344.13459,117.32425 C 344.13857,117.52227 344.76972,118.25176 345.50959,118.88675 C 347.7962,120.87985 351.89843,125.34163 353.25959,127.32425 C 353.93884,128.31077 354.74169,129.17274 354.97834,129.168 C 355.215,129.16328 355.53756,129.53242 355.72834,130.01175 C 356.23516,131.31335 358.39221,134.12522 361.94709,138.168 C 362.31299,138.58582 362.69834,139.20114 362.88459,139.57425 C 363.06323,139.93062 364.06245,141.31866 365.07209,142.63675 C 366.06954,143.94785 368.45921,147.15172 370.32209,149.69925 C 372.18486,152.23952 374.7583,155.47008 376.00959,156.793 C 378.96174,159.93228 382.05863,164.36334 381.79084,165.1055 C 381.6493,165.51417 380.06067,165.66194 376.13459,165.63675 C 373.13389,165.62202 364.11094,165.66133 356.07209,165.69925 C 348.03102,165.74687 340.60857,165.66172 339.54084,165.543 C 337.72482,165.33297 337.60176,165.242 337.57209,163.76175 C 337.54982,162.64856 337.08541,161.6923 335.97834,160.57425 C 335.11258,159.68569 334.39064,158.7511 334.38459,158.44925 C 334.37895,158.16672 334.19754,157.85157 333.97834,157.76175 C 333.76163,157.67914 331.5886,154.72164 329.19709,151.2305 C 326.8056,147.74179 324.1192,143.97517 323.22834,142.918 C 322.32984,141.84168 321.60769,140.82284 321.60334,140.6055 C 321.59915,140.39784 320.78748,139.39425 319.82209,138.3555 C 318.84945,137.31689 317.50134,135.29149 316.82209,133.82425 C 315.08509,130.08326 314.49514,128.86058 314.19709,128.57425 C 313.49508,127.89983 310.75307,124.23515 309.04084,121.7305 C 307.12665,118.91104 304.697,116.00795 301.32209,112.38675 C 300.18413,111.17267 299.74542,110.31981 300.07209,110.1055 C 300.24682,109.9939 301.3876,109.89851 303.04084,109.8555 C 304.28077,109.82323 305.78241,109.82175 307.38459,109.82425 z M 360.22834,110.07425 C 360.45161,110.07944 360.74476,110.12363 361.00959,110.19925 C 361.53195,110.34822 362.42888,110.44545 362.94709,110.38675 C 364.11708,110.27659 369.37198,110.25025 375.35334,110.26175 C 375.44892,110.54285 375.61025,110.80682 375.63459,110.8555 C 375.98903,111.56438 376.71077,112.18871 377.35334,112.57425 C 377.83889,112.86558 378.30894,113.11455 378.79084,113.3555 C 379.19731,113.8719 379.77227,114.36276 380.13459,114.3555 C 380.37125,114.35076 382.50174,116.04173 384.88459,118.13675 C 387.70764,120.61913 389.06384,122.14774 388.88459,122.6055 C 388.74927,122.96574 389.05092,123.6112 389.54084,123.94925 C 390.36174,124.52706 390.38762,124.60232 389.63459,124.63675 C 389.16387,124.65584 388.81643,124.88548 388.82209,125.168 C 388.82755,125.44086 389.07912,125.61738 389.41584,125.543 C 389.73592,125.48099 390.93312,125.5762 392.04084,125.76175 C 393.87822,126.0728 395.115,127.12748 406.25959,138.01175 C 412.97892,144.57597 418.47452,150.10224 418.47834,150.293 C 418.48212,150.48134 420.21856,151.98952 422.25959,153.543 C 426.77345,156.98196 430.53131,160.38863 431.94709,162.32425 C 432.87831,163.58834 433.03498,163.6518 433.75959,163.043 C 434.4651,162.44426 434.68259,162.43108 435.38459,163.1055 C 436.13582,163.82481 435.3768,163.91558 424.22834,164.168 C 397.92264,164.74108 388.00822,164.83726 387.75959,164.6055 C 387.63399,164.48482 387.2508,164.63588 386.91584,164.918 C 385.96116,165.73919 384.83887,165.10284 384.00959,163.26175 C 383.62473,162.38046 381.48415,159.48999 379.25959,156.8555 C 374.86227,151.64109 370.29697,145.79926 369.72834,144.668 C 369.5395,144.28528 368.54545,143.02408 367.57209,141.94925 C 366.59632,140.87447 365.39005,139.21162 364.94709,138.32425 C 364.49428,137.42741 363.9154,136.57486 363.66584,136.418 C 363.41898,136.27319 361.95797,134.49138 360.44709,132.51175 C 358.93402,130.54183 357.02522,128.09254 356.25959,127.13675 C 355.50402,126.20007 354.85673,125.27452 354.85334,125.1055 C 354.84986,124.93406 352.90945,122.96655 350.57209,120.7305 C 348.2347,118.49445 345.65881,115.71042 344.85334,114.57425 C 344.0481,113.45017 343.00067,112.29484 342.54084,112.01175 C 342.06411,111.72901 341.70072,111.38036 341.69709,111.19925 C 341.69372,111.03022 345.67051,110.79585 350.60334,110.668 C 355.52669,110.54999 359.67311,110.32014 359.79084,110.168 C 359.85099,110.09553 360.00508,110.06906 360.22834,110.07425 z M 377.44709,110.26175 C 378.47176,110.26617 379.26759,110.25382 380.32209,110.26175 C 389.12891,110.33165 389.24752,110.36843 389.16584,114.7305 C 389.14039,116.35439 389.0517,117.77914 388.97834,117.8555 C 388.62854,118.23938 385.5271,116.32532 383.13459,114.2305 C 381.87744,113.12521 380.85379,112.43584 380.04084,112.13675 C 379.61541,111.71375 379.08822,111.19169 378.60334,110.94925 C 378.21708,110.75612 377.81627,110.5271 377.44709,110.26175 z M 286.50959,110.793 C 293.81142,110.7753 295.49165,110.94761 296.50959,111.44925 L 296.54084,111.44925 C 298.0113,112.20761 302.4633,116.79297 302.47834,117.543 C 302.48196,117.72169 302.80679,118.12486 303.13459,118.44925 C 304.49292,119.80866 306.41188,122.03248 306.41584,122.2305 C 306.41852,122.3633 307.08145,123.34733 307.91584,124.4805 C 312.32867,130.4701 313.30314,131.92753 313.32209,132.51175 C 313.34856,133.35191 315.62067,136.87125 318.16584,140.07425 C 319.28849,141.48671 320.22287,142.86387 320.22834,143.13675 C 320.234,143.41926 320.41779,143.711 320.66584,143.793 C 321.11338,143.94347 323.42762,147.114 328.94709,155.043 C 333.44443,161.51164 335.33372,164.76172 334.85334,165.26175 C 334.70666,165.41687 330.50981,165.47154 325.57209,165.3555 C 320.31518,165.22409 314.9121,165.34522 312.54084,165.63675 C 307.81527,166.22185 294.22251,166.45395 290.85334,166.01175 C 288.64905,165.71528 288.4279,165.54561 287.16584,163.32425 C 286.42426,162.00078 285.33956,159.93399 284.72834,158.6055 C 284.11733,157.28666 282.78025,154.7318 281.66584,152.88675 C 280.554,151.04892 279.29935,148.87584 278.88459,147.94925 C 278.47987,147.0418 277.04174,144.14923 275.69709,141.543 C 274.36205,138.93661 273.10167,136.25676 272.91584,135.543 C 272.7324,134.8292 272.28908,134.03225 271.91584,133.7305 C 271.53289,133.42655 271.23458,132.94827 271.22834,132.63675 C 271.2223,132.3349 269.82898,129.32523 268.07209,125.918 C 266.32478,122.50815 264.63721,119.22985 264.32209,118.57425 C 264.01468,117.94023 263.1764,116.6709 262.50959,115.82425 C 261.85012,114.97988 261.43396,114.07569 261.57209,113.8555 C 261.71018,113.63533 261.24964,113.1181 260.57209,112.69925 C 259.90173,112.27787 259.35808,111.7484 259.35334,111.51175 C 259.34976,111.33425 263.63442,111.11281 270.07209,110.9805 C 272.21799,110.93641 274.62984,110.91402 277.16584,110.88675 C 281.0401,110.84451 284.07565,110.7989 286.50959,110.793 z M 393.13459,111.44925 C 393.59805,111.43396 394.23123,111.49958 395.04084,111.63675 C 395.82613,111.76355 398.88151,111.82873 401.85334,111.7305 C 406.82181,111.57539 407.3024,111.64461 407.79084,112.51175 C 408.33958,113.49361 408.23456,118.92916 407.63459,120.57425 C 407.22464,121.69611 406.63351,121.81241 399.41584,122.32425 C 393.15837,122.77095 393.18863,122.77897 392.57209,121.668 C 392.22117,121.03487 391.8995,118.7054 391.82209,116.168 C 391.71259,112.51214 391.74427,111.49512 393.13459,111.44925 z M 255.60334,111.543 C 256.50698,111.42377 257.86786,111.79375 258.13459,112.3555 L 258.16584,112.3555 C 258.38297,112.82222 258.49542,113.46333 258.44709,113.82425 C 258.40534,114.15363 258.6151,114.31125 258.88459,114.13675 C 259.39735,113.80518 264.33025,122.8762 264.38459,124.26175 C 264.4028,124.68656 264.72817,125.40676 265.13459,125.918 C 265.53131,126.42944 265.84411,127.20676 265.85334,127.668 C 265.86189,128.09301 266.05988,128.5562 266.25959,128.63675 C 266.72459,128.81585 270.80772,136.4508 270.82209,137.168 C 270.83211,137.66787 277.63328,150.82189 281.32209,157.44925 C 282.27172,159.14782 283.63508,161.71347 284.35334,163.19925 L 285.60334,165.8555 L 275.60334,166.07425 C 270.10474,166.17718 264.58441,166.0795 263.35334,165.88675 C 262.11283,165.70625 255.25823,165.58594 248.13459,165.6055 C 241.00871,165.63481 234.90673,165.54726 234.47834,165.38675 C 234.05232,165.22377 233.37082,165.39059 232.94709,165.82425 C 231.75407,167.04636 230.81642,166.24414 230.54084,163.82425 C 230.40258,162.59258 230.16525,157.63604 230.00959,152.76175 C 229.86597,147.88479 229.61565,142.94755 229.47834,141.76175 C 228.5262,133.78955 227.93684,128.68539 227.66584,126.01175 C 227.4986,124.29751 227.16747,122.68655 226.94709,122.418 C 226.72432,122.14949 226.47188,120.65724 226.38459,119.07425 C 226.30474,117.50078 226.09059,115.90623 225.88459,115.51175 C 225.1877,114.1294 225.98317,113.33574 228.22834,113.26175 C 237.93298,112.92715 254.7218,112.02623 254.91584,111.82425 C 255.06138,111.67277 255.30214,111.58274 255.60334,111.543 z M 47.509593,112.543 C 47.552254,112.52974 47.570133,112.54412 47.603343,112.57425 C 47.738424,112.68509 47.647793,113.14834 47.384593,113.63675 C 46.846261,114.6187 46.685063,114.32401 47.103343,113.13675 C 47.211065,112.81571 47.381633,112.58283 47.509593,112.543 z M 51.978343,112.57425 C 53.222022,112.52768 54.464603,112.73851 55.634593,113.168 C 56.442514,113.46344 57.828103,113.66346 58.790843,113.6055 C 59.741482,113.54779 61.053763,113.5288 61.790843,113.543 L 63.072093,113.543 L 62.915843,117.918 C 62.696464,124.81213 63.108723,124.31804 57.728343,124.293 C 55.153093,124.28906 52.557803,124.15521 52.009593,124.043 C 50.692323,123.76742 49.851693,120.85709 49.759593,116.26175 C 49.697414,113.15876 49.782033,112.89263 50.759593,112.7305 C 51.176122,112.66117 51.563793,112.58977 51.978343,112.57425 z M 86.478343,112.82425 C 90.877362,112.82064 100.17219,112.82189 107.16584,112.82425 L 107.13459,112.8555 C 109.94006,112.85458 112.71867,112.88143 115.57209,112.88675 C 115.49506,113.10692 115.443,113.33242 115.32209,113.57425 C 115.28308,113.65227 115.23722,113.81991 115.19709,113.94925 C 114.99385,114.05989 114.8483,114.26023 114.85334,114.51175 C 114.86051,114.86912 114.3535,115.65658 113.69709,116.293 C 113.03809,116.91981 112.5346,117.66901 112.54084,117.9805 C 112.5469,118.28236 111.70289,119.36811 110.66584,120.418 C 109.64065,121.458 108.81793,122.49157 108.82209,122.69925 C 108.82619,122.90449 107.5057,124.71935 105.88459,126.76175 C 104.27538,128.79422 102.60108,131.11854 102.13459,131.94925 C 101.18761,133.63754 96.120823,140.8382 92.103343,146.13675 C 90.670015,148.0256 89.307413,149.85282 89.040843,150.293 C 86.036525,155.27892 81.511353,162.15105 79.947093,164.13675 C 77.600737,167.1165 77.344153,167.16923 67.634593,167.13675 C 61.715723,167.12251 56.760913,167.18187 49.197093,167.418 C 43.697353,167.58379 26.823333,167.40938 26.572093,167.168 C 26.446453,167.04731 27.803003,165.4926 29.540843,163.7305 C 31.974823,161.26597 33.055583,160.46682 34.165843,160.418 C 35.024913,160.37182 35.269553,160.26905 34.759593,160.13675 C 34.283653,160.01584 33.958663,159.71888 34.040843,159.4805 C 34.172384,159.05268 42.837613,149.92748 52.353343,140.168 C 55.728984,136.71346 58.617833,134.14711 59.134593,134.13675 C 60.040133,134.1186 66.308203,127.84742 66.290843,126.9805 C 66.285726,126.72453 68.689323,123.94225 71.665843,120.82425 C 74.632762,117.70886 77.044423,115.03418 77.040843,114.8555 C 77.037085,114.66713 77.344283,114.15948 77.759593,113.668 C 78.23757,113.10764 78.901313,112.91384 82.197093,112.8555 C 83.295665,112.83604 84.709373,112.82227 86.478343,112.82425 z M 116.69709,112.88675 C 129.03534,112.91313 141.31531,112.97121 149.25959,113.07425 C 150.49615,113.08986 151.97324,113.11803 153.47834,113.13675 C 153.39733,113.36789 153.32464,113.6004 153.19709,113.8555 C 153.16369,113.92229 153.13772,114.06178 153.10334,114.168 C 152.35192,114.84114 150.91642,116.88995 149.94709,118.88675 C 149.3856,120.04067 148.9376,121.38219 148.94709,121.8555 C 148.95653,122.32638 148.73571,122.85845 148.44709,123.043 C 148.15589,123.21792 147.53504,124.34906 147.04084,125.6055 C 146.54663,126.86194 145.68519,128.91113 145.07209,130.26175 C 144.45661,131.61481 143.6224,133.61688 143.16584,134.82425 C 142.72547,135.99506 141.67996,138.30977 140.85334,139.8555 C 140.03401,141.40109 138.98032,143.84081 138.57209,145.168 C 138.16668,146.51686 137.39717,148.38937 136.91584,149.32425 C 135.31738,152.37596 131.90588,159.14931 130.16584,162.7305 L 128.47834,166.26175 L 123.54084,166.543 C 99.16186,167.78772 86.164923,168.14218 84.134593,167.6055 C 81.9223,167.02897 81.437583,166.2546 82.634593,165.2305 C 83.005066,164.91143 83.357313,164.45976 83.353343,164.26175 C 83.349507,164.07099 84.273003,162.43524 85.415843,160.63675 C 86.561347,158.8503 87.482503,157.21943 87.478343,157.01175 C 87.474169,156.80408 88.787113,154.86664 90.384593,152.7305 C 91.984671,150.60399 94.147883,147.62608 95.165843,146.1055 C 96.181583,144.59464 98.57014,141.25813 100.41584,138.7305 C 102.26176,136.21255 103.76375,133.90694 103.75959,133.69925 C 103.75544,133.49156 104.59234,132.23304 105.69709,130.82425 C 111.36576,123.53333 116.52447,114.75835 115.69709,113.918 C 116.0506,113.55816 116.49718,113.15805 116.69709,112.88675 z M 67.134593,113.1055 C 69.255351,113.04578 73.245373,113.26446 73.540843,113.543 C 73.964507,113.95002 73.012993,115.70808 72.197093,115.9805 C 71.726815,116.13971 71.315453,116.55593 71.322093,116.88675 C 71.335677,117.5653 66.851783,122.05987 66.134593,122.07425 C 65.627503,122.08442 65.344753,113.801 65.853343,113.26175 C 65.934335,113.17498 66.427663,113.1254 67.134593,113.1055 z M 154.57209,113.13675 C 157.6762,113.17473 160.95029,113.21615 163.13459,113.2305 C 166.67393,113.24414 170.66445,113.31147 171.97834,113.418 C 173.30188,113.52435 177.30429,113.61327 180.94709,113.6055 C 184.58008,113.59065 187.53836,113.66983 187.54084,113.793 C 187.54311,113.9065 187.16723,115.2378 186.69709,116.7305 C 186.23638,118.21092 185.31987,122.00235 184.66584,125.168 C 184.02148,128.33349 183.24231,131.91765 182.91584,133.1055 C 182.6016,134.30038 181.42498,138.92598 180.29084,143.44925 C 179.15415,147.96531 178.00346,152.09042 177.75959,152.69925 C 177.51847,153.32492 177.37022,154.38829 177.38459,155.1055 C 177.39879,155.81303 177.22997,157.00814 177.00959,157.82425 C 176.79847,158.62083 176.38615,160.4798 176.10334,161.918 C 175.82058,163.35863 175.2518,165.06638 174.88459,165.668 L 174.22834,166.793 L 162.91584,166.7305 C 148.46863,166.67942 140.49505,166.52423 135.97834,166.19925 C 134.02375,166.0669 132.13307,165.97893 131.82209,166.01175 C 131.11775,166.06451 131.54148,164.95476 133.13459,162.4805 C 133.84919,161.37184 134.42189,160.18861 134.41584,159.88675 C 134.4098,159.58492 135.44731,157.38795 136.72834,155.01175 C 138.00236,152.64536 139.45478,149.54984 139.94709,148.19925 C 140.44887,146.83877 141.66088,144.02565 142.66584,141.8555 C 146.4989,133.5023 151.57548,120.84509 152.41584,117.57425 C 152.69575,116.4743 153.08446,115.41278 153.25959,115.2305 C 153.43075,115.05234 153.60375,114.56465 153.60334,114.13675 C 153.9535,113.78325 154.37834,113.39969 154.57209,113.13675 z M 216.94709,113.3555 C 221.02101,113.38831 223.4479,113.51796 223.75959,113.76175 C 224.13512,114.05621 224.47316,116.41927 224.69709,120.4805 C 224.87718,123.92174 225.304,127.98966 225.63459,129.418 C 226.39924,132.73397 226.63284,135.30292 227.00959,145.543 C 227.1657,150.07909 227.43416,153.92624 227.63459,154.043 C 227.82538,154.16237 227.84055,154.75242 227.63459,155.32425 C 227.43118,155.90326 227.5113,158.56218 227.82209,161.293 C 228.13996,164.01403 228.29598,166.34502 228.16584,166.4805 C 227.90794,166.74897 207.97993,167.14295 202.94709,166.9805 C 200.97453,166.91616 194.71496,166.87791 188.97834,166.918 C 183.24176,166.95806 178.53215,166.86065 178.50959,166.69925 C 178.15691,164.65051 178.17746,163.69736 178.66584,161.668 C 179.40725,158.64311 180.11636,155.02788 180.44709,152.6055 C 180.57637,151.58344 181.1837,149.17433 181.75959,147.293 C 182.33292,145.40445 183.58767,140.25077 184.57209,135.7305 C 185.54945,131.22001 186.54878,126.69729 186.79084,125.63675 C 187.0258,124.5836 187.30891,122.93608 187.38459,122.01175 C 187.45096,121.10452 187.74104,119.88361 188.04084,119.293 C 188.33129,118.71948 188.45985,117.97416 188.32209,117.7305 C 188.16712,117.47031 188.24741,117.18852 188.50959,117.01175 C 188.74082,116.85733 188.81345,116.35439 188.66584,115.9805 C 188.27428,115.00544 189.51443,113.66367 190.69709,113.543 C 190.86605,113.52576 191.00352,113.53612 191.16584,113.57425 C 191.77252,113.71184 195.86541,113.69855 200.25959,113.57425 L 200.32209,113.57425 C 207.15972,113.38527 212.87317,113.32269 216.94709,113.3555 z M 435.75959,165.543 C 436.78647,165.57452 437.07631,165.80247 437.25959,166.44925 L 437.22834,166.4805 C 437.38938,167.04254 437.34153,167.57721 437.16584,167.7305 C 436.99,167.87658 436.84675,169.45505 436.85334,171.2305 C 436.86935,173.95758 436.68782,174.74258 435.60334,176.19925 C 434.74003,177.35924 433.99001,177.87546 433.29084,177.82425 C 432.72236,177.78735 431.89444,177.90974 431.41584,178.13675 C 430.94911,178.35387 427.90769,178.41707 424.69709,178.293 C 415.35757,177.92215 414.4293,177.94063 409.60334,178.69925 C 400.44986,180.13646 399.04895,180.22983 399.00959,179.2305 C 398.97548,178.37356 398.9477,178.36686 398.50959,179.168 C 398.17413,179.78835 397.42365,180.03964 395.69709,180.07425 C 394.41483,180.09994 393.23675,179.89677 393.07209,179.63675 C 392.90486,179.3671 392.46835,179.32894 392.04084,179.57425 C 391.63,179.80719 390.35388,179.83634 389.10334,179.63675 C 387.56927,179.39213 386.80376,179.45022 386.69709,179.793 C 386.59949,180.10655 386.21952,180.00976 385.63459,179.51175 C 384.7126,178.70888 384.28446,176.05064 384.97834,175.3555 C 385.182,175.1533 385.53709,173.19989 385.75959,171.043 L 386.13459,167.1055 L 388.07209,167.2305 C 391.12449,167.4157 412.3365,166.83248 419.50959,166.38675 C 424.56909,166.07034 426.09461,166.10834 426.10334,166.543 C 426.11125,166.93907 426.30104,166.98126 426.72834,166.6055 C 427.29343,166.11345 429.51114,165.79458 434.47834,165.57425 C 435.016,165.55139 435.4173,165.53249 435.75959,165.543 z M 379.63459,167.293 C 382.2455,167.18476 383.06795,167.47078 382.79084,168.19925 C 382.65816,168.5691 382.85165,168.86305 383.22834,168.8555 C 383.77652,168.84452 383.89155,169.25946 383.69709,170.88675 C 383.56934,171.98359 383.19556,173.33953 382.88459,173.8555 C 382.57381,174.37871 382.16825,175.6647 382.00959,176.668 L 381.69709,178.51175 L 377.32209,178.293 C 372.44685,178.04041 363.95556,178.08041 358.07209,178.38675 C 355.97014,178.4965 352.84426,178.53577 351.13459,178.44925 C 349.43452,178.36011 345.62197,178.26337 342.69709,178.293 L 337.35334,178.3555 L 337.07209,177.07425 C 336.91765,176.35981 336.90014,174.0551 337.00959,172.043 C 337.19065,168.78535 337.32078,168.34968 338.19709,168.19925 C 338.51916,168.14811 340.11515,168.09373 342.38459,168.043 C 349.19295,167.89083 362.27445,167.76615 366.94709,167.8555 L 366.94709,167.88675 C 369.58128,167.93782 373.83318,167.77352 376.41584,167.543 C 377.70343,167.42238 378.76429,167.32908 379.63459,167.293 z M 320.91584,167.51175 C 325.67636,167.47134 330.75647,167.57309 332.25959,167.8555 L 332.25959,167.918 C 333.74608,168.19985 333.92032,168.39066 333.82209,169.63675 C 333.74256,170.73265 333.80025,170.88719 334.16584,170.32425 C 334.56928,169.71948 334.65166,169.74172 334.66584,170.44925 C 334.67526,170.92015 334.38097,171.41397 333.97834,171.57425 C 333.60429,171.7146 333.28571,172.06829 333.29084,172.32425 C 333.29654,172.60677 333.58413,172.57723 334.00959,172.2305 C 334.61309,171.72558 334.67157,171.86418 334.69709,173.13675 C 334.7171,174.13645 334.59974,174.53424 334.22834,174.32425 C 333.86417,174.11413 333.76781,174.17099 334.00959,174.543 C 334.20661,174.8507 334.1162,175.43184 333.82209,175.82425 C 333.52058,176.20718 333.39749,176.95674 333.54084,177.4805 C 333.79399,178.42 333.56733,178.41288 317.25959,178.82425 C 297.31054,179.31828 295.15396,179.31324 294.32209,178.668 C 293.95662,178.39263 292.31164,178.27674 290.44709,178.418 C 287.25308,178.64147 287.2396,178.66042 287.29084,177.4805 C 287.31663,176.83737 287.16002,175.16009 286.91584,173.82425 C 286.67412,172.49075 286.5716,170.84725 286.72834,170.2305 L 287.00959,169.07425 L 287.38459,170.293 L 287.72834,171.44925 L 287.75959,170.19925 C 287.7917,168.54626 289.05283,168.28381 294.94709,168.63675 C 299.97316,168.94187 307.42608,168.6153 312.19709,167.88675 C 313.04361,167.75624 314.58596,167.67153 316.41584,167.6055 C 317.78826,167.55597 319.329,167.52522 320.91584,167.51175 z M 284.85334,167.69925 L 284.91584,170.57425 C 284.94738,172.1487 284.73378,174.26617 284.47834,175.26175 C 284.18246,176.41035 284.21626,177.38515 284.50959,177.918 C 284.95049,178.7015 283.66026,178.74391 257.82209,179.26175 L 230.60334,179.82425 L 230.66584,175.7305 C 230.73627,168.87799 230.88522,168.75074 238.44709,168.418 C 240.68951,168.32718 242.59533,168.14893 242.69709,168.043 C 242.72251,168.01653 242.82027,167.98809 242.97834,167.9805 C 243.45258,167.95776 244.45905,168.01774 245.57209,168.13675 C 247.0368,168.2958 256.51695,168.27577 266.57209,168.07425 L 284.85334,167.69925 z M 127.50959,167.82425 C 127.69723,167.78424 127.85909,168.87625 127.91584,170.26175 L 127.94709,170.26175 C 127.99418,171.64742 128.12196,174.42681 128.22834,176.4805 C 128.35295,178.96143 128.27487,180.2159 127.91584,180.26175 C 127.6337,180.2867 126.42626,180.27866 125.22834,180.293 C 114.08628,180.38344 111.36701,180.46843 110.94709,180.7305 C 110.69437,180.89744 105.25012,181.14144 98.88459,181.26175 C 84.489682,181.53092 84.491273,181.52956 83.603343,176.76175 C 83.26522,174.9567 82.962053,172.88292 82.947093,172.13675 L 82.915843,170.793 L 88.322093,170.6055 C 107.11733,169.91717 117.16383,169.40072 117.79084,169.1055 C 118.20961,168.90624 120.46164,168.56062 122.85334,168.32425 C 125.23556,168.09773 127.31255,167.87652 127.50959,167.82425 z M 174.57209,168.1055 L 175.16584,169.51175 C 175.56312,170.40971 175.78005,172.92589 175.75959,176.6055 L 175.72834,182.32425 L 172.16584,182.38675 C 168.3553,182.46308 161.0598,182.17225 153.29084,181.57425 C 150.73105,181.37914 145.69612,181.28539 142.19709,181.3555 C 138.70773,181.42546 135.72895,181.27659 135.57209,181.043 C 135.42734,180.81153 134.4226,180.775 133.32209,180.94925 C 131.56145,181.21162 131.34557,181.14563 131.60334,180.38675 C 131.76538,179.9124 131.70707,179.26533 131.44709,178.94925 C 130.85859,178.27258 130.13808,170.31569 130.60334,169.543 C 130.88603,169.06386 140.56109,168.89245 164.25959,169.01175 C 164.64615,169.01369 167.13145,168.82501 169.75959,168.57425 L 174.57209,168.1055 z M 224.22834,168.668 C 227.35593,168.6322 228.11702,168.94769 228.13459,169.82425 C 228.14706,170.44723 227.8831,170.76579 227.35334,170.7305 C 226.40037,170.67232 226.15822,171.32123 227.04084,171.6055 C 227.36412,171.7029 227.68798,172.50451 227.79084,173.418 C 228.46358,179.62264 228.35274,179.86601 224.54084,180.3555 C 222.59387,180.60226 221.06727,180.5587 220.44709,180.2305 C 219.66329,179.81382 219.03939,179.92694 217.29084,180.793 C 215.31029,181.77482 214.78956,181.84328 212.38459,181.418 C 210.89849,181.15543 209.2089,181.08652 208.54084,181.26175 C 207.88461,181.42471 205.46905,181.5386 203.07209,181.51175 C 194.55752,181.43839 182.39868,181.72626 180.69709,182.043 C 179.17369,182.32961 179.02508,182.24115 178.97834,181.3555 C 178.95772,180.80755 178.75146,178.74312 178.54084,176.793 C 178.01485,171.64108 178.00635,170.36256 178.35334,169.3555 C 178.48694,168.96991 178.56935,168.78366 178.72834,168.76175 C 178.88734,168.73983 179.09893,168.89161 179.47834,169.19925 C 180.08257,169.69688 181.14215,169.8324 183.19709,169.668 C 184.76015,169.55211 188.53106,169.46125 191.54084,169.44925 C 200.87157,169.38301 215.49083,169.03111 220.25959,168.793 C 221.88369,168.70851 223.18581,168.67993 224.22834,168.668 z M 77.790843,168.9805 C 77.961821,169.03965 78.146598,169.30472 78.259593,169.69925 C 78.422905,170.25402 78.991523,170.82061 79.572093,170.9805 C 80.235116,171.15566 80.561383,171.56031 80.509593,172.2305 C 80.472442,172.78685 80.553133,173.75234 80.728343,174.418 C 81.393262,176.97987 81.722333,182.14693 81.197093,181.8555 C 80.92103,181.70159 80.721703,181.80592 80.728343,182.13675 C 80.736993,182.56897 77.959703,182.65875 68.915843,182.57425 C 45.0295,182.36448 46.296043,182.43809 45.228343,181.3555 C 44.177704,180.28221 43.796693,180.19629 43.103343,180.918 C 42.604044,181.43772 25.911893,182.03244 24.665843,181.57425 C 23.733823,181.23537 22.790943,179.38139 22.259593,176.8555 C 21.914793,175.20037 22.037623,174.76431 23.478343,172.76175 C 25.067634,170.57749 25.161873,170.52464 28.259593,170.19925 C 30.019512,170.02141 31.755943,169.92272 32.134593,170.01175 C 32.493654,170.08914 42.805473,169.95352 55.009593,169.69925 L 55.040843,169.69925 C 67.237705,169.4451 77.429543,169.1463 77.634593,169.01175 C 77.68348,168.97997 77.73385,168.96078 77.790843,168.9805 z M 375.72834,179.668 C 377.71871,179.59278 381.37173,179.97055 382.16584,180.44925 L 382.19709,180.44925 C 383.43915,181.19017 382.86218,182.79112 381.47834,182.44925 C 378.86903,181.83238 372.45245,193.94121 371.47834,201.38675 C 371.34962,202.43773 371.01547,204.57689 370.69709,206.168 C 370.00415,209.6823 370.40477,224.9751 371.29084,229.168 C 371.62427,230.73641 371.98304,232.86535 372.13459,233.918 C 372.44335,236.06423 372.62677,236.47595 374.79084,240.793 C 375.64387,242.49353 376.3473,244.14741 376.35334,244.44925 C 376.35923,244.74143 377.02749,245.73196 377.79084,246.57425 C 378.54456,247.41914 379.29852,248.53914 379.47834,249.07425 C 379.65054,249.59016 380.20405,250.51129 380.66584,251.01175 C 381.13,251.51221 382.34687,252.84275 383.32209,254.01175 C 384.29976,255.18072 385.8677,256.55241 386.82209,257.043 C 387.78617,257.53342 388.56773,258.10693 388.57209,258.32425 C 388.57625,258.53193 387.20546,258.71482 385.57209,258.69925 C 383.92913,258.68627 380.00973,258.90891 376.85334,259.19925 C 373.70883,259.47965 370.57769,259.69564 369.91584,259.69925 C 369.25643,259.70278 366.84333,259.6899 364.44709,259.69925 C 362.0871,259.71029 354.78877,259.93616 348.29084,260.19925 L 336.47834,260.69925 L 336.04084,259.6055 C 333.30744,253.15945 332.52633,251.10562 332.19709,249.26175 C 331.98511,248.08709 331.5015,245.96756 331.10334,244.543 C 330.71761,243.13511 330.35369,240.6511 330.32209,239.07425 C 330.29016,237.4805 330.05015,234.79569 329.75959,233.07425 C 329.05463,228.88012 328.80424,217.76203 329.32209,213.94925 C 329.55073,212.21742 329.81084,209.3524 329.91584,207.4805 C 330.01869,205.62073 330.33289,203.18351 330.57209,201.9805 C 330.80441,200.79454 331.15265,198.44777 331.38459,196.76175 C 331.60468,195.08805 332.00621,193.31973 332.25959,192.82425 C 332.51519,192.31904 332.71355,191.30152 332.69709,190.4805 C 332.68141,189.69811 333.17534,187.56431 333.79084,185.7305 C 334.40409,183.9064 334.89387,182.00663 334.88459,181.543 C 334.86907,180.77029 335.48868,180.73612 343.63459,180.8555 C 358.03909,181.06686 373.782,180.57166 374.44709,179.88675 C 374.57192,179.75681 375.0649,179.69307 375.72834,179.668 z M 122.91584,182.01175 C 125.22503,182.06751 128.50108,182.33212 128.75959,182.57425 L 128.82209,182.57425 C 129.07094,182.81567 129.67833,183.05152 130.10334,183.043 C 130.52834,183.03447 131.19034,183.31913 131.50959,183.69925 C 131.83889,184.09853 132.54526,184.39918 133.16584,184.38675 C 134.83687,184.35325 135.23329,185.68239 136.75959,197.2305 C 136.83805,197.89085 137.19562,200.33921 137.57209,202.7305 C 138.59152,209.23988 138.75243,212.84482 138.44709,223.043 C 137.95971,239.70699 137.54787,246.21355 136.88459,248.918 C 136.53662,250.35992 136.15758,252.31323 136.07209,253.2305 C 135.98639,254.13811 135.68063,255.57652 135.38459,256.3555 C 134.70532,258.14355 134.5008,259.31147 134.69709,260.13675 C 134.69952,260.14698 134.69452,260.15787 134.69709,260.168 C 134.54105,260.40773 134.44709,260.70319 134.44709,261.01175 L 134.44709,262.1055 C 134.29814,262.09638 134.15663,262.0793 134.00959,262.07425 C 132.8276,262.03997 130.15945,261.78319 128.04084,261.543 C 123.36782,261.01341 109.41408,260.78271 96.290843,260.9805 L 86.509593,261.13675 L 86.790843,258.793 C 87.079686,256.20957 87.669833,254.65108 88.384593,254.63675 C 88.640556,254.63165 88.890253,254.38804 88.884593,254.1055 C 88.878883,253.82058 89.278663,253.02136 89.822093,252.293 C 91.715335,249.72577 92.933743,247.45472 93.697093,245.043 C 94.124215,243.69367 94.638823,242.46867 94.853343,242.32425 C 95.07747,242.17721 95.376943,241.01202 95.540843,239.668 C 95.692672,238.3242 96.036283,236.99261 96.322093,236.668 C 96.598371,236.3508 96.869393,235.21673 96.884593,234.168 C 96.902281,233.12158 97.048283,231.53662 97.228343,230.63675 C 97.476487,229.39734 97.371943,228.88148 96.790843,228.57425 C 95.875281,228.09249 95.690623,225.59869 96.415843,223.57425 C 97.058409,221.76644 96.844243,211.93529 96.103343,208.3555 C 95.779405,206.77729 95.381413,204.11033 95.197093,202.38675 C 94.33625,194.27018 92.769793,190.4618 88.853343,186.69925 C 87.545333,185.44028 86.482713,184.22909 86.478343,184.01175 C 86.474187,183.80411 90.998643,183.53033 96.603343,183.418 C 105.26275,183.24448 120.3797,182.44445 120.66584,182.13675 C 120.704,182.09702 120.84059,182.06127 121.07209,182.043 C 121.47719,182.01102 122.14611,181.99316 122.91584,182.01175 z M 158.97834,183.6055 C 160.83568,183.58759 163.77159,183.60584 165.60334,183.63675 L 168.88459,183.668 L 168.60334,185.918 C 168.27767,188.47312 168.45616,194.75305 168.94709,199.4805 C 169.70411,206.63529 171.07406,211.66062 173.13459,214.668 C 173.74677,215.56162 174.25542,216.42908 174.25959,216.63675 C 174.2698,217.14625 166.34193,226.79861 164.97834,227.94925 C 164.39394,228.44172 162.73366,230.42554 161.29084,232.32425 C 159.85747,234.21069 158.37591,236.02361 158.07209,236.293 C 157.76573,236.55523 156.06886,238.60509 154.32209,240.88675 C 152.57292,243.16848 150.90842,245.20352 150.57209,245.418 C 150.21905,245.6425 149.72602,246.10133 149.38459,246.543 C 149.06187,246.95536 147.94645,248.34736 146.88459,249.6055 C 143.40277,253.78931 140.21965,258.26312 138.79084,260.9805 C 138.33735,261.85776 137.98611,262.31618 137.63459,262.4805 L 137.63459,261.01175 C 137.63459,260.6942 137.54908,260.38063 137.38459,260.13675 C 137.76654,259.13328 138.05244,257.6212 138.22834,255.57425 C 138.37262,253.85374 138.77964,251.28627 139.16584,249.82425 C 139.54284,248.38418 139.97124,245.57216 140.10334,243.6055 C 140.22342,241.64156 140.39018,239.32747 140.47834,238.543 C 140.56647,237.75852 140.61944,234.13717 140.57209,230.44925 C 140.51765,226.76876 140.68169,221.74468 140.91584,219.32425 C 141.25367,215.93057 141.15191,213.61118 140.60334,209.26175 C 140.20065,206.16559 139.80959,202.49956 139.69709,201.1055 C 139.59426,199.71128 139.15176,197.38976 138.69709,195.918 C 138.14163,194.11732 137.98972,192.63789 138.19709,191.293 C 138.37319,190.19512 138.44317,189.11942 138.35334,188.8555 C 138.27339,188.60344 137.90383,187.3736 137.54084,186.13675 L 136.85334,183.8555 L 140.29084,183.76175 C 142.1766,183.71428 146.36145,183.65466 149.66584,183.63675 C 152.95812,183.61667 157.12802,183.61358 158.97834,183.6055 z " style="fill: rgb(0, 0, 0); fill-rule: evenodd; stroke: none;"/>
  </g>
</svg>