<?xml version="1.0" encoding="UTF-8" standalone="no"?>
<!-- Created with Inkscape (http://www.inkscape.org/) -->
<svg xmlns:dc="http://purl.org/dc/elements/1.1/" xmlns:cc="http://creativecommons.org/ns#" xmlns:rdf="http://www.w3.org/1999/02/22-rdf-syntax-ns#" xmlns:svg="http://www.w3.org/2000/svg" xmlns="http://www.w3.org/2000/svg" xmlns:xlink="http://www.w3.org/1999/xlink" xmlns:sodipodi="http://sodipodi.sourceforge.net/DTD/sodipodi-0.dtd" xmlns:inkscape="http://www.inkscape.org/namespaces/inkscape" height="107.31609" id="svg6267" inkscape:version="0.45+devel" sodipodi:docbase="/home/yves/Desktop" sodipodi:docname="voilier_yves_guillou_01.svg" sodipodi:version="0.32" width="90.280876" inkscape:output_extension="org.inkscape.output.svg.inkscape" version="1.0" inkscape:export-filename="/home/yves/Bureau/openclipart/voilier_yves_guillou_01.png" inkscape:export-xdpi="299.06665" inkscape:export-ydpi="299.06665">
  <metadata id="metadata3">
    <rdf:RDF>
      <cc:Work rdf:about="">
        <dc:title>voilier</dc:title>
        <dc:description/>
        <dc:subject>
          <rdf:Bag>
            <rdf:li>transport</rdf:li>
          </rdf:Bag>
        </dc:subject>
        <dc:publisher>
          <cc:Agent rdf:about="http://www.openclipart.org/">
            <dc:title>Open Clip Art Library</dc:title>
          </cc:Agent>
        </dc:publisher>
        <dc:creator>
          <cc:Agent>
            <dc:title>yves GUILLOU</dc:title>
          </cc:Agent>
        </dc:creator>
        <dc:rights>
          <cc:Agent>
            <dc:title/>
          </cc:Agent>
        </dc:rights>
        <dc:date/>
        <dc:format>image/svg+xml</dc:format>
        <dc:type rdf:resource="http://purl.org/dc/dcmitype/StillImage"/>
        <cc:license rdf:resource="http://web.resource.org/cc/PublicDomain"/>
        <dc:language>en</dc:language>
        <dc:identifier/>
        <dc:source/>
        <dc:relation/>
        <dc:coverage/>
        <dc:contributor>
          <cc:Agent>
            <dc:title/>
          </cc:Agent>
        </dc:contributor>
      </cc:Work>
      <cc:License rdf:about="http://web.resource.org/cc/PublicDomain">
        <cc:permits rdf:resource="http://web.resource.org/cc/Reproduction"/>
        <cc:permits rdf:resource="http://web.resource.org/cc/Distribution"/>
        <cc:permits rdf:resource="http://web.resource.org/cc/DerivativeWorks"/>
      </cc:License>
    </rdf:RDF>
  </metadata>
  <defs id="defs6269">
    <inkscape:perspective sodipodi:type="inkscape:persp3d" id="perspective20" inkscape:vp_x="-50 : 600 : 1" inkscape:vp_y="0 : 1000 : 0" inkscape:vp_z="700 : 600 : 1" inkscape:persp3d-origin="300 : 400 : 1"/>
    <linearGradient id="linearGradient27735">
      <stop id="stop27737" offset="0" style="stop-color: rgb(9, 160, 255); stop-opacity: 1;"/>
      <stop id="stop27739" offset="1" style="stop-color: rgb(18, 84, 245); stop-opacity: 0;"/>
    </linearGradient>
    <radialGradient cx="438.01651" cy="-641.72571" fx="438.01651" fy="-641.72571" gradientTransform="matrix(1.07729, 1.05514e-06, -3.57981e-07, 0.362811, -33.8536, -269.766)" gradientUnits="userSpaceOnUse" id="radialGradient31354" inkscape:collect="always" r="263.40692" xlink:href="#linearGradient27735"/>
  </defs>
  <sodipodi:namedview bordercolor="#666666" borderopacity="1.0" id="base" inkscape:current-layer="layer1" inkscape:cx="375" inkscape:cy="520" inkscape:document-units="px" inkscape:pageopacity="0.0" inkscape:pageshadow="2" inkscape:window-height="694" inkscape:window-width="838" inkscape:window-x="0" inkscape:window-y="12" inkscape:zoom="0.35" pagecolor="#ffffff" showgrid="false"/>
  <g id="layer1" inkscape:groupmode="layer" inkscape:label="Calque 1" transform="translate(-297.717, -458.704)">
    <g id="g31338" transform="matrix(0.469708, 0, 0, 0.469708, 179.723, 396.936)">
      <g id="g31340" transform="matrix(0.362781, 0, 0, 0.362781, 181.19, 452.913)">
        <path d="M 644.15625,-535.5 L 275.53125,-525.8125 C 275.53126,-525.81249 277.34029,-513.4611 283.96875,-499.4375 C 300.1809,-490.94345 308.54419,-467.94719 325.96875,-469.53125 C 347.31174,-471.47152 355.07509,-492.84098 390,-494.78125 C 424.92489,-496.72153 424.92717,-473.44027 454.03125,-471.5 C 483.13535,-469.55972 496.69733,-498.65625 533.5625,-498.65625 C 565.38754,-498.65625 575.53654,-478.41046 596.4375,-472.875 L 644.15625,-535.5 z" id="path31342" style="fill: rgb(216, 144, 85); fill-opacity: 1; fill-rule: evenodd; stroke: rgb(0, 0, 0); stroke-width: 3.3; stroke-linecap: butt; stroke-linejoin: miter; stroke-miterlimit: 4; stroke-dasharray: none; stroke-opacity: 1;"/>
        <path d="M 195.96752,-471.54593 C 195.96752,-471.54593 246.41461,-502.5903 271.63815,-502.5903 C 296.86169,-502.5903 304.62278,-467.66538 325.96578,-469.60566 C 347.30878,-471.54593 355.06986,-492.88893 389.99477,-494.8292 C 424.91967,-496.76948 424.91967,-473.4862 454.02375,-471.54593 C 483.12784,-469.60566 496.70975,-498.70975 533.57492,-498.70975 C 570.44009,-498.70975 578.20118,-471.54593 607.30527,-471.54593 C 636.40936,-471.54593 622.82745,-496.76948 671.33426,-496.76948 C 719.84108,-496.76948 721.78135,-492.88893 721.78135,-492.88893 L 613.12609,-256.1757 L 217.31052,-267.81733 L 195.96752,-471.54593 z" id="path31344" style="fill: url(#radialGradient31354) rgb(0, 0, 0); fill-opacity: 1; fill-rule: evenodd; stroke: none; stroke-width: 1px; stroke-linecap: butt; stroke-linejoin: miter; stroke-opacity: 1;"/>
        <path d="M 194.99738,-471.54593 C 194.99738,-471.54593 245.44447,-502.5903 270.66801,-502.5903 C 295.89155,-502.5903 303.65264,-467.66538 324.99564,-469.60566 C 346.33864,-471.54593 354.09972,-492.88893 389.02463,-494.8292 C 423.94953,-496.76948 423.94953,-473.4862 453.05361,-471.54593 C 482.1577,-469.60566 495.73961,-498.70975 532.60478,-498.70975 C 569.46995,-498.70975 577.23104,-471.54593 606.33513,-471.54593 C 635.43922,-471.54593 621.85731,-496.76948 670.36412,-496.76948 C 718.87094,-496.76948 720.81121,-492.88893 720.81121,-492.88893" id="path31346" style="fill: none; fill-opacity: 0.75; fill-rule: evenodd; stroke: rgb(0, 0, 0); stroke-width: 4; stroke-linecap: butt; stroke-linejoin: miter; stroke-miterlimit: 4; stroke-dasharray: none; stroke-opacity: 1;"/>
      </g>
      <path d="M 424.91967,186.26615 C 424.91967,186.58953 424.91967,186.91291 424.91967,186.26615 z" id="path31348" style="fill: none; fill-opacity: 0.75; fill-rule: evenodd; stroke: rgb(0, 0, 0); stroke-width: 1px; stroke-linecap: butt; stroke-linejoin: miter; stroke-opacity: 1;"/>
      <path d="M 350.3136,255.60417 L 349.56431,132.75277 C 349.56431,132.75277 348.81502,206.19654 334.57857,226.22667 C 320.34212,246.25678 285.12562,256.27185 285.12562,256.27185 L 350.3136,255.60417 z" id="path31350" style="fill: rgb(255, 255, 255); fill-opacity: 1; fill-rule: evenodd; stroke: rgb(0, 0, 0); stroke-width: 2.5; stroke-linecap: butt; stroke-linejoin: miter; stroke-miterlimit: 4; stroke-dasharray: none; stroke-opacity: 1;"/>
      <path d="M 355.06986,139.28236 C 355.06986,139.28236 393.87531,213.54921 396.78572,227.9033 C 399.69613,242.2574 398.72599,254.11513 398.72599,254.11513 L 356.04,253.49104 L 355.06986,139.28236 z" id="path31352" style="fill: rgb(255, 255, 255); fill-opacity: 1; fill-rule: evenodd; stroke: rgb(0, 0, 0); stroke-width: 2.5; stroke-linecap: butt; stroke-linejoin: miter; stroke-miterlimit: 4; stroke-dasharray: none; stroke-opacity: 1;"/>
    </g>
  </g>
</svg>