<?xml version="1.0" encoding="UTF-8" standalone="no"?>
<!-- Created with Inkscape (http://www.inkscape.org/) -->
<svg
   xmlns:dc="http://purl.org/dc/elements/1.1/"
   xmlns:cc="http://creativecommons.org/ns#"
   xmlns:rdf="http://www.w3.org/1999/02/22-rdf-syntax-ns#"
   xmlns:svg="http://www.w3.org/2000/svg"
   xmlns="http://www.w3.org/2000/svg"
   xmlns:xlink="http://www.w3.org/1999/xlink"
   xmlns:sodipodi="http://sodipodi.sourceforge.net/DTD/sodipodi-0.dtd"
   xmlns:inkscape="http://www.inkscape.org/namespaces/inkscape"
   id="svg1"
   sodipodi:version="0.32"
   inkscape:version="0.46"
   width="85.581314"
   height="94.134644"
   sodipodi:docbase="/home/nicu/Desktop/svg/game_elements"
   sodipodi:docname="grey.svg"
   version="1.0"
   inkscape:output_extension="org.inkscape.output.svg.inkscape">
  <metadata
     id="metadata19" />
  <defs
     id="defs3">
    <inkscape:perspective
       sodipodi:type="inkscape:persp3d"
       inkscape:vp_x="0 : 150 : 1"
       inkscape:vp_y="0 : 1000 : 0"
       inkscape:vp_z="300 : 150 : 1"
       inkscape:persp3d-origin="150 : 100 : 1"
       id="perspective185" />
    <linearGradient
       id="linearGradient4889">
      <stop
         style="stop-color: rgb(167, 167, 167); stop-opacity: 1;"
         offset="0"
         id="stop4891" />
      <stop
         style="stop-color: rgb(233, 233, 233); stop-opacity: 1;"
         offset="1"
         id="stop4893" />
    </linearGradient>
    <linearGradient
       inkscape:collect="always"
       id="linearGradient2193">
      <stop
         style="stop-color: rgb(255, 255, 255); stop-opacity: 1;"
         offset="0"
         id="stop2195" />
      <stop
         style="stop-color: rgb(255, 255, 255); stop-opacity: 0;"
         offset="1"
         id="stop2197" />
    </linearGradient>
    <linearGradient
       inkscape:collect="always"
       xlink:href="#linearGradient2193"
       id="linearGradient3140"
       gradientUnits="userSpaceOnUse"
       x1="40.463459"
       y1="18.538324"
       x2="58.823528"
       y2="44.385025" />
    <linearGradient
       inkscape:collect="always"
       xlink:href="#linearGradient2193"
       id="linearGradient3142"
       gradientUnits="userSpaceOnUse"
       x1="77.607864"
       y1="13.039945"
       x2="83.677795"
       y2="15.178982" />
    <radialGradient
       inkscape:collect="always"
       xlink:href="#linearGradient1452"
       id="radialGradient4089"
       cx="47"
       cy="46.831635"
       fx="47"
       fy="46.831635"
       r="30.562983"
       gradientTransform="matrix(1.76626,-7.17189e-2,6.7637e-2,1.66563,-39.1819,-27.6334)"
       gradientUnits="userSpaceOnUse" />
    <linearGradient
       inkscape:collect="always"
       xlink:href="#linearGradient1452"
       id="linearGradient4093"
       x1="79.853928"
       y1="10.849888"
       x2="86.638618"
       y2="27.387547"
       gradientUnits="userSpaceOnUse" />
    <radialGradient
       inkscape:collect="always"
       xlink:href="#linearGradient1549"
       id="radialGradient4135"
       gradientUnits="userSpaceOnUse"
       gradientTransform="matrix(1.76626,-7.17189e-2,6.7637e-2,1.66563,-39.1819,-27.6334)"
       cx="47"
       cy="46.831635"
       fx="47"
       fy="46.831635"
       r="30.562983" />
    <linearGradient
       inkscape:collect="always"
       xlink:href="#linearGradient2193"
       id="linearGradient4137"
       gradientUnits="userSpaceOnUse"
       x1="40.463459"
       y1="18.538324"
       x2="58.823528"
       y2="44.385025" />
    <linearGradient
       inkscape:collect="always"
       xlink:href="#linearGradient1549"
       id="linearGradient4139"
       gradientUnits="userSpaceOnUse"
       x1="79.853928"
       y1="10.849888"
       x2="86.638618"
       y2="27.387547" />
    <linearGradient
       inkscape:collect="always"
       xlink:href="#linearGradient2193"
       id="linearGradient4141"
       gradientUnits="userSpaceOnUse"
       x1="77.607864"
       y1="13.039945"
       x2="83.677795"
       y2="15.178982" />
    <radialGradient
       inkscape:collect="always"
       xlink:href="#linearGradient1524"
       id="radialGradient4165"
       gradientUnits="userSpaceOnUse"
       gradientTransform="matrix(1.76626,-7.17189e-2,6.7637e-2,1.66563,-39.1819,-27.6334)"
       cx="47"
       cy="46.831635"
       fx="47"
       fy="46.831635"
       r="30.562983" />
    <linearGradient
       inkscape:collect="always"
       xlink:href="#linearGradient2193"
       id="linearGradient4167"
       gradientUnits="userSpaceOnUse"
       x1="40.463459"
       y1="18.538324"
       x2="58.823528"
       y2="44.385025" />
    <linearGradient
       inkscape:collect="always"
       xlink:href="#linearGradient1524"
       id="linearGradient4169"
       gradientUnits="userSpaceOnUse"
       x1="79.853928"
       y1="10.849888"
       x2="86.638618"
       y2="27.387547" />
    <linearGradient
       inkscape:collect="always"
       xlink:href="#linearGradient2193"
       id="linearGradient4171"
       gradientUnits="userSpaceOnUse"
       x1="77.607864"
       y1="13.039945"
       x2="83.677795"
       y2="15.178982" />
    <radialGradient
       inkscape:collect="always"
       xlink:href="#linearGradient2198"
       id="radialGradient4195"
       gradientUnits="userSpaceOnUse"
       gradientTransform="matrix(1.76626,-7.17189e-2,6.7637e-2,1.66563,-39.1819,-27.6334)"
       cx="47"
       cy="46.831635"
       fx="47"
       fy="46.831635"
       r="30.562983" />
    <linearGradient
       inkscape:collect="always"
       xlink:href="#linearGradient2193"
       id="linearGradient4197"
       gradientUnits="userSpaceOnUse"
       x1="40.463459"
       y1="18.538324"
       x2="58.823528"
       y2="44.385025" />
    <linearGradient
       inkscape:collect="always"
       xlink:href="#linearGradient2198"
       id="linearGradient4199"
       gradientUnits="userSpaceOnUse"
       x1="79.853928"
       y1="10.849888"
       x2="86.638618"
       y2="27.387547" />
    <linearGradient
       inkscape:collect="always"
       xlink:href="#linearGradient2193"
       id="linearGradient4201"
       gradientUnits="userSpaceOnUse"
       x1="77.607864"
       y1="13.039945"
       x2="83.677795"
       y2="15.178982" />
    <radialGradient
       inkscape:collect="always"
       xlink:href="#linearGradient1541"
       id="radialGradient4225"
       gradientUnits="userSpaceOnUse"
       gradientTransform="matrix(1.76626,-7.17189e-2,6.7637e-2,1.66563,-39.1819,-27.6334)"
       cx="47"
       cy="46.831635"
       fx="47"
       fy="46.831635"
       r="30.562983" />
    <linearGradient
       inkscape:collect="always"
       xlink:href="#linearGradient2193"
       id="linearGradient4227"
       gradientUnits="userSpaceOnUse"
       x1="40.463459"
       y1="18.538324"
       x2="58.823528"
       y2="44.385025" />
    <linearGradient
       inkscape:collect="always"
       xlink:href="#linearGradient1541"
       id="linearGradient4229"
       gradientUnits="userSpaceOnUse"
       x1="79.853928"
       y1="10.849888"
       x2="86.638618"
       y2="27.387547" />
    <linearGradient
       inkscape:collect="always"
       xlink:href="#linearGradient2193"
       id="linearGradient4231"
       gradientUnits="userSpaceOnUse"
       x1="77.607864"
       y1="13.039945"
       x2="83.677795"
       y2="15.178982" />
    <radialGradient
       inkscape:collect="always"
       xlink:href="#linearGradient1516"
       id="radialGradient4255"
       gradientUnits="userSpaceOnUse"
       gradientTransform="matrix(1.76626,-7.17189e-2,6.7637e-2,1.66563,-39.1819,-27.6334)"
       cx="47"
       cy="46.831635"
       fx="47"
       fy="46.831635"
       r="30.562983" />
    <linearGradient
       inkscape:collect="always"
       xlink:href="#linearGradient2193"
       id="linearGradient4257"
       gradientUnits="userSpaceOnUse"
       x1="40.463459"
       y1="18.538324"
       x2="58.823528"
       y2="44.385025" />
    <linearGradient
       inkscape:collect="always"
       xlink:href="#linearGradient1516"
       id="linearGradient4259"
       gradientUnits="userSpaceOnUse"
       x1="79.853928"
       y1="10.849888"
       x2="86.638618"
       y2="27.387547" />
    <linearGradient
       inkscape:collect="always"
       xlink:href="#linearGradient2193"
       id="linearGradient4261"
       gradientUnits="userSpaceOnUse"
       x1="77.607864"
       y1="13.039945"
       x2="83.677795"
       y2="15.178982" />
    <radialGradient
       inkscape:collect="always"
       xlink:href="#linearGradient1480"
       id="radialGradient4285"
       gradientUnits="userSpaceOnUse"
       gradientTransform="matrix(1.76626,-7.17189e-2,6.7637e-2,1.66563,-39.1819,-27.6334)"
       cx="47"
       cy="46.831635"
       fx="47"
       fy="46.831635"
       r="30.562983" />
    <linearGradient
       inkscape:collect="always"
       xlink:href="#linearGradient2193"
       id="linearGradient4287"
       gradientUnits="userSpaceOnUse"
       x1="40.463459"
       y1="18.538324"
       x2="58.823528"
       y2="44.385025" />
    <linearGradient
       inkscape:collect="always"
       xlink:href="#linearGradient1480"
       id="linearGradient4289"
       gradientUnits="userSpaceOnUse"
       x1="79.853928"
       y1="10.849888"
       x2="86.638618"
       y2="27.387547" />
    <linearGradient
       inkscape:collect="always"
       xlink:href="#linearGradient2193"
       id="linearGradient4291"
       gradientUnits="userSpaceOnUse"
       x1="77.607864"
       y1="13.039945"
       x2="83.677795"
       y2="15.178982" />
    <radialGradient
       inkscape:collect="always"
       xlink:href="#linearGradient1533"
       id="radialGradient4315"
       gradientUnits="userSpaceOnUse"
       gradientTransform="matrix(1.76626,-7.17189e-2,6.7637e-2,1.66563,-39.1819,-27.6334)"
       cx="47"
       cy="46.831635"
       fx="47"
       fy="46.831635"
       r="30.562983" />
    <linearGradient
       inkscape:collect="always"
       xlink:href="#linearGradient2193"
       id="linearGradient4317"
       gradientUnits="userSpaceOnUse"
       x1="40.463459"
       y1="18.538324"
       x2="58.823528"
       y2="44.385025" />
    <linearGradient
       inkscape:collect="always"
       xlink:href="#linearGradient1533"
       id="linearGradient4319"
       gradientUnits="userSpaceOnUse"
       x1="79.853928"
       y1="10.849888"
       x2="86.638618"
       y2="27.387547" />
    <linearGradient
       inkscape:collect="always"
       xlink:href="#linearGradient2193"
       id="linearGradient4321"
       gradientUnits="userSpaceOnUse"
       x1="77.607864"
       y1="13.039945"
       x2="83.677795"
       y2="15.178982" />
    <radialGradient
       inkscape:collect="always"
       xlink:href="#linearGradient1496"
       id="radialGradient4345"
       gradientUnits="userSpaceOnUse"
       gradientTransform="matrix(1.76626,-7.17189e-2,6.7637e-2,1.66563,-39.1819,-27.6334)"
       cx="47"
       cy="46.831635"
       fx="47"
       fy="46.831635"
       r="30.562983" />
    <linearGradient
       inkscape:collect="always"
       xlink:href="#linearGradient2193"
       id="linearGradient4347"
       gradientUnits="userSpaceOnUse"
       x1="40.463459"
       y1="18.538324"
       x2="58.823528"
       y2="44.385025" />
    <linearGradient
       inkscape:collect="always"
       xlink:href="#linearGradient1496"
       id="linearGradient4349"
       gradientUnits="userSpaceOnUse"
       x1="79.853928"
       y1="10.849888"
       x2="86.638618"
       y2="27.387547" />
    <linearGradient
       inkscape:collect="always"
       xlink:href="#linearGradient2193"
       id="linearGradient4351"
       gradientUnits="userSpaceOnUse"
       x1="77.607864"
       y1="13.039945"
       x2="83.677795"
       y2="15.178982" />
    <linearGradient
       id="linearGradient2198">
      <stop
         id="stop2200"
         offset="0"
         style="stop-color: rgb(255, 60, 73); stop-opacity: 1;" />
      <stop
         id="stop2202"
         offset="1"
         style="stop-color: rgb(180, 0, 12); stop-opacity: 1;" />
    </linearGradient>
    <linearGradient
       id="linearGradient1452">
      <stop
         style="stop-color: rgb(92, 92, 241); stop-opacity: 1;"
         offset="0"
         id="stop1454" />
      <stop
         style="stop-color: rgb(17, 16, 179); stop-opacity: 1;"
         offset="1"
         id="stop1456" />
    </linearGradient>
    <linearGradient
       id="linearGradient1480">
      <stop
         id="stop1482"
         offset="0"
         style="stop-color: rgb(169, 169, 169); stop-opacity: 1;" />
      <stop
         id="stop1484"
         offset="1"
         style="stop-color: rgb(114, 114, 114); stop-opacity: 1;" />
    </linearGradient>
    <linearGradient
       id="linearGradient1496">
      <stop
         id="stop1498"
         offset="0"
         style="stop-color: rgb(243, 194, 80); stop-opacity: 1;" />
      <stop
         id="stop1500"
         offset="1"
         style="stop-color: rgb(189, 136, 13); stop-opacity: 1;" />
    </linearGradient>
    <linearGradient
       id="linearGradient1516">
      <stop
         id="stop1518"
         offset="0"
         style="stop-color: rgb(70, 241, 70); stop-opacity: 1;" />
      <stop
         id="stop1520"
         offset="1"
         style="stop-color: rgb(13, 171, 13); stop-opacity: 1;" />
    </linearGradient>
    <linearGradient
       id="linearGradient1524">
      <stop
         id="stop1526"
         offset="0"
         style="stop-color: rgb(240, 236, 94); stop-opacity: 1;" />
      <stop
         id="stop1528"
         offset="1"
         style="stop-color: rgb(199, 194, 18); stop-opacity: 1;" />
    </linearGradient>
    <linearGradient
       id="linearGradient1533">
      <stop
         id="stop1535"
         offset="0"
         style="stop-color: rgb(218, 97, 220); stop-opacity: 1;" />
      <stop
         id="stop1537"
         offset="1"
         style="stop-color: rgb(130, 30, 131); stop-opacity: 1;" />
    </linearGradient>
    <linearGradient
       id="linearGradient1541">
      <stop
         id="stop1543"
         offset="0"
         style="stop-color: rgb(239, 76, 164); stop-opacity: 1;" />
      <stop
         id="stop1545"
         offset="1"
         style="stop-color: rgb(162, 14, 94); stop-opacity: 1;" />
    </linearGradient>
    <linearGradient
       id="linearGradient1549">
      <stop
         id="stop1551"
         offset="0"
         style="stop-color: rgb(55, 237, 233); stop-opacity: 1;" />
      <stop
         id="stop1553"
         offset="1"
         style="stop-color: rgb(15, 176, 172); stop-opacity: 1;" />
    </linearGradient>
    <linearGradient
       inkscape:collect="always"
       xlink:href="#linearGradient4889"
       id="linearGradient4895"
       x1="26.582729"
       y1="86.702026"
       x2="22.758512"
       y2="82.8778"
       gradientUnits="userSpaceOnUse" />
    <linearGradient
       inkscape:collect="always"
       xlink:href="#linearGradient4889"
       id="linearGradient4897"
       x1="28.450109"
       y1="86.011131"
       x2="23.91074"
       y2="82.334"
       gradientUnits="userSpaceOnUse" />
    <linearGradient
       inkscape:collect="always"
       xlink:href="#linearGradient4889"
       id="linearGradient4899"
       x1="30.194855"
       y1="85.569878"
       x2="24.940338"
       y2="81.010231"
       gradientUnits="userSpaceOnUse" />
    <linearGradient
       inkscape:collect="always"
       xlink:href="#linearGradient4889"
       id="linearGradient4901"
       x1="28.450109"
       y1="86.305305"
       x2="24.204912"
       y2="82.334"
       gradientUnits="userSpaceOnUse" />
    <linearGradient
       inkscape:collect="always"
       xlink:href="#linearGradient4889"
       id="linearGradient4903"
       x1="28.450109"
       y1="86.746559"
       x2="23.763655"
       y2="82.92234"
       gradientUnits="userSpaceOnUse" />
    <linearGradient
       inkscape:collect="always"
       xlink:href="#linearGradient4889"
       id="linearGradient4905"
       x1="28.450109"
       y1="85.716965"
       x2="24.057825"
       y2="82.186913"
       gradientUnits="userSpaceOnUse" />
    <linearGradient
       inkscape:collect="always"
       xlink:href="#linearGradient4889"
       id="linearGradient4907"
       x1="27.694403"
       y1="86.599472"
       x2="23.61657"
       y2="83.069427"
       gradientUnits="userSpaceOnUse" />
    <linearGradient
       inkscape:collect="always"
       xlink:href="#linearGradient4889"
       id="linearGradient4909"
       x1="26.223549"
       y1="88.952843"
       x2="22.145716"
       y2="85.422791"
       gradientUnits="userSpaceOnUse" />
    <linearGradient
       inkscape:collect="always"
       xlink:href="#linearGradient4889"
       id="linearGradient4911"
       x1="26.958977"
       y1="87.776161"
       x2="22.586971"
       y2="83.363594"
       gradientUnits="userSpaceOnUse" />
    <linearGradient
       inkscape:collect="always"
       xlink:href="#linearGradient1452"
       id="linearGradient5788"
       x1="-531"
       y1="-154.5"
       x2="-421"
       y2="-154.5"
       gradientUnits="userSpaceOnUse" />
  </defs>
  <sodipodi:namedview
     id="base"
     pagecolor="#ffffff"
     bordercolor="#666666"
     borderopacity="1.0"
     inkscape:pageopacity="0.0"
     inkscape:pageshadow="2"
     inkscape:zoom="1.8266925"
     inkscape:cx="80.201718"
     inkscape:cy="-60.90584"
     inkscape:window-width="1920"
     inkscape:window-height="992"
     inkscape:window-x="-5"
     inkscape:window-y="0"
     inkscape:current-layer="svg1"
     showgrid="false" />
  <metadata
     id="metadata21">
    <rdf:RDF>
      <cc:Work
         rdf:about="">
        <dc:title>Candy</dc:title>
        <dc:rights>
          <cc:Agent>
            <dc:title>Nicu Buculei</dc:title>
          </cc:Agent>
        </dc:rights>
        <dc:type
           rdf:resource="http://purl.org/dc/dcmitype/StillImage" />
        <cc:license
           rdf:resource="http://web.resource.org/cc/PublicDomain" />
        <dc:format>image/svg+xml</dc:format>
      </cc:Work>
      <cc:License
         rdf:about="http://web.resource.org/cc/PublicDomain">
        <cc:permits
           rdf:resource="http://web.resource.org/cc/Reproduction" />
        <cc:permits
           rdf:resource="http://web.resource.org/cc/Distribution" />
        <cc:permits
           rdf:resource="http://web.resource.org/cc/DerivativeWorks" />
      </cc:License>
    </rdf:RDF>
  </metadata>
  <g
     id="use4101"
     transform="translate(207.79859,165.87065)">
    <path
       id="path4265"
       d="M -138.17741,-164.98972 C -138.17741,-164.98972 -141.40532,-157.74177 -142.36491,-155.58347 C -142.3668,-155.58378 -142.39415,-155.58333 -142.39616,-155.58347 C -142.76338,-155.55091 -143.12342,-155.4163 -143.45866,-155.27097 C -143.74916,-155.17081 -144.0328,-155.02851 -144.30241,-154.86472 C -152.74804,-159.73783 -163.84282,-160.71206 -174.23991,-155.20847 C -191.93082,-143.80374 -191.98577,-121.6263 -183.61491,-112.67722 C -180.66643,-104.66309 -184.41511,-102.82494 -189.23991,-102.20847 C -189.72993,-102.14586 -190.10572,-102.04664 -190.33366,-101.92722 C -190.35889,-101.91322 -190.40535,-101.87937 -190.42741,-101.86472 C -190.50446,-101.81023 -190.57832,-101.73968 -190.61491,-101.67722 C -190.62693,-101.65426 -190.63918,-101.60738 -190.64616,-101.58347 C -190.6476,-101.57744 -190.64503,-101.55831 -190.64616,-101.55222 C -190.64781,-101.53993 -190.67697,-101.50223 -190.67741,-101.48972 C -190.6771,-101.46448 -190.65115,-101.42204 -190.64616,-101.39597 C -190.64309,-101.38284 -190.65036,-101.3468 -190.64616,-101.33347 C -190.64378,-101.32676 -190.61757,-101.30898 -190.61491,-101.30222 C -190.60904,-101.28861 -190.59061,-101.2535 -190.58366,-101.23972 C -190.57617,-101.22585 -190.56096,-101.19126 -190.55241,-101.17722 C -190.5388,-101.15603 -190.50584,-101.10501 -190.48991,-101.08347 C -190.02821,-100.4843 -188.69231,-99.753245 -187.14616,-99.114715 L -205.27116,-76.270965 C -207.34851,-72.99862 -204.11939,-69.857673 -200.86491,-72.489715 C -199.46606,-74.11548 -185.08899,-88.026066 -177.89616,-95.864715 L -177.73991,-95.395965 C -177.7112,-94.97089 -177.7983,-94.48354 -177.98991,-93.895965 C -178.31031,-92.913462 -178.11598,-92.247883 -177.77116,-91.833465 C -177.24848,-91.229015 -176.39616,-91.114715 -176.39616,-91.114715 C -176.39616,-91.114715 -175.30241,-92.036617 -175.30241,-95.427215 C -175.30241,-96.274864 -175.2436,-96.726677 -175.11491,-96.958465 C -175.10661,-96.972137 -175.09247,-97.008853 -175.08366,-97.020965 C -175.07913,-97.026648 -175.05707,-97.046892 -175.05241,-97.052215 C -175.04762,-97.057189 -175.02608,-97.078828 -175.02116,-97.083465 C -175.00603,-97.096399 -174.97495,-97.104498 -174.95866,-97.114715 C -174.9531,-97.117842 -174.9331,-97.143105 -174.92741,-97.145965 C -174.92159,-97.148571 -174.9021,-97.143603 -174.89616,-97.145965 C -174.88401,-97.150227 -174.84632,-97.173808 -174.83366,-97.177215 C -174.82074,-97.180229 -174.7846,-97.174915 -174.77116,-97.177215 C -174.2642,-97.250403 -173.38587,-96.917175 -172.14616,-98.520965 C -172.08753,-98.59682 -172.02223,-98.673322 -171.95866,-98.739715 C -169.68146,-101.04535 -164.2732,-97.625153 -154.14616,-98.520965 C -136.99134,-100.98686 -123.37084,-125.75998 -132.39616,-141.83347 C -132.94814,-143.09921 -133.62271,-144.29659 -134.36491,-145.45847 C -134.23783,-145.86743 -134.16346,-146.30615 -134.11491,-146.58347 C -134.07715,-146.79911 -134.14483,-146.93033 -134.27116,-146.98972 C -127.97313,-147.69984 -124.11835,-145.50767 -122.02116,-147.80222 C -123.08219,-149.8918 -126.92528,-154.53 -129.89616,-153.83347 C -131.3461,-153.49353 -131.92306,-154.53192 -132.27116,-155.95847 C -132.26481,-156.07226 -132.2747,-156.18529 -132.27116,-156.30222 L -132.45866,-156.83347 C -132.69402,-158.14424 -132.83017,-159.58725 -133.27116,-160.55222 C -134.33218,-162.87397 -138.17742,-164.98973 -138.17741,-164.98972 z M -143.02116,-154.14597 C -143.01781,-154.1491 -142.99328,-154.14272 -142.98991,-154.14597 C -142.99323,-154.12965 -142.98718,-154.10022 -142.98991,-154.08347 C -143.00128,-154.09081 -143.00978,-154.1074 -143.02116,-154.11472 C -143.01452,-154.12052 -143.02787,-154.1397 -143.02116,-154.14597 z M -135.11491,-146.86472 C -135.11874,-146.86238 -135.11115,-146.83584 -135.11491,-146.83347 C -135.12933,-146.82376 -135.16432,-146.81233 -135.17741,-146.80222 C -135.18359,-146.79708 -135.20286,-146.77619 -135.20866,-146.77097 C -135.21405,-146.76568 -135.23494,-146.74507 -135.23991,-146.73972 C -135.25975,-146.76718 -135.28246,-146.80608 -135.30241,-146.83347 C -135.23608,-146.844 -135.18073,-146.85485 -135.11491,-146.86472 z"
       style="fill:#000000;fill-opacity:0.37647101;fill-rule:evenodd;stroke:none;stroke-width:1.25;stroke-linejoin:round;stroke-dasharray:none" />
    <path
       style="fill:#000000;fill-opacity:0.37647101;fill-rule:evenodd;stroke:none;stroke-width:1.25;stroke-linejoin:round;stroke-dasharray:none"
       d="M -139.01058,-165.15635 C -139.01058,-165.15635 -142.23849,-157.9084 -143.19808,-155.7501 C -143.19997,-155.75041 -143.22732,-155.74996 -143.22933,-155.7501 C -143.59655,-155.71754 -143.95659,-155.58293 -144.29183,-155.4376 C -144.58233,-155.33744 -144.86597,-155.19514 -145.13558,-155.03135 C -153.58121,-159.90446 -164.67599,-160.87869 -175.07308,-155.3751 C -192.76399,-143.97037 -192.81894,-121.79293 -184.44808,-112.84385 C -181.4996,-104.82972 -185.24828,-102.99157 -190.07308,-102.3751 C -190.5631,-102.31249 -190.93889,-102.21327 -191.16683,-102.09385 C -191.19206,-102.07985 -191.23852,-102.046 -191.26058,-102.03135 C -191.33763,-101.97686 -191.41149,-101.90631 -191.44808,-101.84385 C -191.4601,-101.82089 -191.47235,-101.77401 -191.47933,-101.7501 C -191.48077,-101.74407 -191.4782,-101.72494 -191.47933,-101.71885 C -191.48098,-101.70656 -191.51014,-101.66886 -191.51058,-101.65635 C -191.51027,-101.63111 -191.48432,-101.58867 -191.47933,-101.5626 C -191.47626,-101.54947 -191.48353,-101.51343 -191.47933,-101.5001 C -191.47695,-101.49339 -191.45074,-101.47561 -191.44808,-101.46885 C -191.44221,-101.45524 -191.42378,-101.42013 -191.41683,-101.40635 C -191.40934,-101.39248 -191.39413,-101.35789 -191.38558,-101.34385 C -191.37197,-101.32266 -191.33901,-101.27164 -191.32308,-101.2501 C -190.86138,-100.65093 -189.52548,-99.919879 -187.97933,-99.281349 L -206.10433,-76.437599 C -208.18168,-73.165254 -204.95256,-70.024307 -201.69808,-72.656349 C -200.29923,-74.282114 -185.92216,-88.1927 -178.72933,-96.031349 L -178.57308,-95.562599 C -178.54437,-95.137524 -178.63147,-94.650174 -178.82308,-94.062599 C -179.14348,-93.080096 -178.94915,-92.414517 -178.60433,-92.000099 C -178.08165,-91.395649 -177.22933,-91.281349 -177.22933,-91.281349 C -177.22933,-91.281349 -176.13558,-92.203251 -176.13558,-95.593849 C -176.13558,-96.441498 -176.07677,-96.893311 -175.94808,-97.125099 C -175.93978,-97.138771 -175.92564,-97.175487 -175.91683,-97.187599 C -175.9123,-97.193282 -175.89024,-97.213526 -175.88558,-97.218849 C -175.88079,-97.223823 -175.85925,-97.245462 -175.85433,-97.250099 C -175.8392,-97.263033 -175.80812,-97.271132 -175.79183,-97.281349 C -175.78627,-97.284476 -175.76627,-97.309739 -175.76058,-97.312599 C -175.75476,-97.315205 -175.73527,-97.310237 -175.72933,-97.312599 C -175.71718,-97.316861 -175.67949,-97.340442 -175.66683,-97.343849 C -175.65391,-97.346863 -175.61777,-97.341549 -175.60433,-97.343849 C -175.09737,-97.417037 -174.21904,-97.083809 -172.97933,-98.687599 C -172.9207,-98.763454 -172.8554,-98.839956 -172.79183,-98.906349 C -170.51463,-101.21198 -165.10637,-97.791787 -154.97933,-98.687599 C -137.82451,-101.15349 -124.20401,-125.92661 -133.22933,-142.0001 C -133.78131,-143.26584 -134.45588,-144.46322 -135.19808,-145.6251 C -135.071,-146.03406 -134.99663,-146.47278 -134.94808,-146.7501 C -134.91032,-146.96574 -134.978,-147.09696 -135.10433,-147.15635 C -128.8063,-147.86647 -124.95152,-145.6743 -122.85433,-147.96885 C -123.91536,-150.05843 -127.75845,-154.69663 -130.72933,-154.0001 C -132.17927,-153.66016 -132.75623,-154.69855 -133.10433,-156.1251 C -133.09798,-156.23889 -133.10787,-156.35192 -133.10433,-156.46885 L -133.29183,-157.0001 C -133.52719,-158.31087 -133.66334,-159.75388 -134.10433,-160.71885 C -135.16535,-163.0406 -139.01059,-165.15636 -139.01058,-165.15635 z M -143.85433,-154.3126 C -143.85098,-154.31573 -143.82645,-154.30935 -143.82308,-154.3126 C -143.8264,-154.29628 -143.82035,-154.26685 -143.82308,-154.2501 C -143.83445,-154.25744 -143.84295,-154.27403 -143.85433,-154.28135 C -143.84769,-154.28715 -143.86104,-154.30633 -143.85433,-154.3126 z M -135.94808,-147.03135 C -135.95191,-147.02901 -135.94432,-147.00247 -135.94808,-147.0001 C -135.9625,-146.99039 -135.99749,-146.97896 -136.01058,-146.96885 C -136.01676,-146.96371 -136.03603,-146.94282 -136.04183,-146.9376 C -136.04722,-146.93231 -136.06811,-146.9117 -136.07308,-146.90635 C -136.09292,-146.93381 -136.11563,-146.97271 -136.13558,-147.0001 C -136.06925,-147.01063 -136.0139,-147.02148 -135.94808,-147.03135 z"
       id="path4267" />
    <g
       id="g4269"
       transform="translate(-220,-171)">
      <path
         sodipodi:nodetypes="ccccc"
         id="path4271"
         d="M 37.468959,63.31134 L 13.052926,94.047775 C 10.975584,97.32012 14.215881,100.46486 17.47036,97.832818 C 19.335496,95.66513 44.292919,71.654378 44.497056,69.321897 C 44.701192,66.989414 39.306194,62.463165 37.468959,63.31134 z"
         style="fill:url(#linearGradient4897);fill-opacity:1;fill-rule:evenodd;stroke:none;stroke-width:1.25;stroke-linejoin:round;stroke-dasharray:none" />
      <path
         sodipodi:nodetypes="ccccccccccc"
         id="path4273"
         d="M 34.707671,57.647339 C 26.336814,48.698257 26.398304,26.515503 44.089213,15.110769 C 60.97599,6.1719253 79.739073,14.328873 85.922427,28.507729 C 94.947736,44.581231 81.347342,69.360307 64.192518,71.826195 C 53.7388,72.750904 48.32104,69.045554 46.176689,71.819677 C 44.032337,74.593802 43.017036,71.51796 43.017036,74.908556 C 43.017036,78.299152 41.94486,79.223861 41.94486,79.223861 C 41.94486,79.223861 39.532463,78.915625 40.336596,76.449736 C 41.140728,73.983849 40.068552,73.059141 36.58398,72.750903 C 33.099407,72.442667 24.253951,68.743836 29.078745,68.127364 C 33.903539,67.510892 37.656154,65.661475 34.707671,57.647339 z"
         style="fill:url(#radialGradient4285);fill-opacity:1;fill-rule:evenodd;stroke:none;stroke-width:1.25;stroke-linejoin:round;stroke-dasharray:none" />
      <path
         sodipodi:nodetypes="ccc"
         id="path4275"
         d="M 33.749307,51.659401 C 33.664873,13.29726 81.285222,29.900686 70.30447,17.111838 C 55.712794,7.7693752 24.626942,21.957974 33.749307,51.659401 z"
         style="fill:url(#linearGradient4287);fill-opacity:1;fill-rule:evenodd;stroke:none;stroke-width:1pt;stroke-linecap:butt;stroke-linejoin:miter;stroke-opacity:1" />
      <path
         sodipodi:nodetypes="cccc"
         id="path4277"
         d="M 16.285538,98.323551 L 40.343451,74.089483 L 36.531087,72.503818 L 16.285538,98.323551 z"
         style="fill:#000000;fill-opacity:0.15;fill-rule:evenodd;stroke:none;stroke-width:1pt;stroke-linecap:butt;stroke-linejoin:miter;stroke-opacity:1" />
      <path
         sodipodi:nodetypes="ccccccc"
         id="path4279"
         d="M 75.350002,16.201103 C 75.350002,16.201103 80.171316,5.3570547 80.171316,5.3570547 C 80.171316,5.3570547 83.991016,7.4466302 85.052044,9.7683808 C 86.113072,12.090132 85.476455,17.197982 88.447332,16.501457 C 91.41821,15.804932 95.237909,20.448433 96.298942,22.538009 C 93.964679,25.091935 89.474408,22.090146 81.835009,23.715371 C 79.288542,23.928829 74.925592,18.290679 75.350002,16.201103 z"
         style="fill:url(#linearGradient4289);fill-opacity:1;fill-rule:evenodd;stroke:none;stroke-width:1.25;stroke-linejoin:round;stroke-dasharray:none" />
      <path
         sodipodi:nodetypes="ccc"
         id="path4281"
         d="M 80.588369,6.4887745 C 81.306305,8.642584 80.408885,19.591115 77.716623,19.591116 C 76.998686,18.334726 80.049916,8.642584 80.588369,6.4887745 z"
         style="fill:url(#linearGradient4291);fill-opacity:0.75;fill-rule:evenodd;stroke:none;stroke-width:1pt;stroke-linecap:butt;stroke-linejoin:miter;stroke-opacity:1" />
      <path
         sodipodi:nodetypes="csccsccccccccccssssssssssssssssccsccsssccccsssssssssssssssscssscsssccsccscccsccscscccsssccsccccsccsccc"
         id="path4283"
         d="M 81.4375,6.5 C 81.4375,6.5000001 81.808956,8.1548003 81.9375,9.71875 C 82.060018,11.20939 82.402431,13.854459 81.6875,14.90625 L 81.9375,14.8125 C 83.229753,13.412559 83.328183,11.305385 83.1875,9.59375 C 83.05561,7.9890917 82.839774,7.3824862 82.8125,7.3125 L 81.4375,6.5 z M 85.4375,12.21875 C 85.272349,17.668657 81.219758,21.751404 78.6875,22 C 81.884526,21.909852 85.878914,20.089504 86.0625,14.03125 L 85.4375,12.21875 z M 75.9375,14.75 C 75.570284,14.782555 75.210239,14.917171 74.875,15.0625 C 74.238289,15.282029 73.577058,15.626111 73.21875,16.21875 C 72.863176,16.86085 72.914574,17.63849 73.15625,18.3125 C 73.389279,19.060159 74.009751,20.804491 74.28125,21.15625 C 74.290202,21.166717 74.304413,21.180503 74.3125,21.1875 C 74.3162,21.189634 74.340288,21.217556 74.34375,21.21875 C 74.395767,21.230442 74.421465,21.242248 74.4375,21.25 C 74.440064,21.251557 74.467308,21.248877 74.46875,21.25 C 74.470214,21.247388 74.466156,21.222172 74.46875,21.21875 C 74.472795,21.214463 74.494181,21.192705 74.5,21.1875 C 74.502462,21.184226 74.529182,21.164363 74.53125,21.15625 C 74.532187,21.151035 74.530408,21.131338 74.53125,21.125 C 74.575329,20.686763 74.451019,18.386055 74.28125,17.75 C 74.246047,17.588055 74.210458,17.387274 74.21875,17.21875 C 74.221968,17.174537 74.240955,17.105693 74.25,17.0625 C 74.258273,17.028163 74.268485,16.970785 74.28125,16.9375 C 74.284744,16.929256 74.308695,16.914412 74.3125,16.90625 C 74.37428,16.791226 74.465481,16.673369 74.5625,16.59375 C 74.743158,16.453807 74.976459,16.361017 75.1875,16.28125 C 75.573311,16.11735 76.223112,14.724679 75.9375,14.75 z M 92,18.84375 C 91.502362,18.855683 90.890588,18.900156 90.1875,18.96875 C 89.257373,19.059494 85.664896,19.899813 85.03125,20.375 L 85.625,20.625 C 85.62739,20.623088 85.653481,20.626892 85.65625,20.625 C 85.659763,20.623148 85.683624,20.595582 85.6875,20.59375 C 86.247109,20.374943 89.421282,20.30265 90.28125,20.21875 C 92.085773,20.042699 94.21875,20.03125 94.21875,20.03125 L 93.34375,18.875 C 93.34375,18.875 92.829397,18.823861 92,18.84375 z M 83.026627,23.724488 C 82.993377,23.938695 82.733428,25.087257 82.53125,25.25 C 82.527362,25.252663 82.503924,25.278801 82.5,25.28125 C 82.496007,25.28325 82.472776,25.279484 82.46875,25.28125 C 82.464691,25.282775 82.441591,25.311223 82.4375,25.3125 C 82.433347,25.313261 82.410433,25.312008 82.40625,25.3125 C 81.971678,25.385714 79.727546,25.363976 78.9375,25.25 C 78.940171,25.252522 78.934877,25.278634 78.9375,25.28125 C 78.947506,25.292459 78.960137,25.331079 78.96875,25.34375 C 78.972604,25.350444 78.996668,25.367951 79,25.375 C 79.001522,25.378612 78.99863,25.402551 79,25.40625 C 79.002078,25.413993 79.029903,25.429416 79.03125,25.4375 C 79.031728,25.441626 79.030977,25.46454 79.03125,25.46875 C 79.03131,25.473043 79.031412,25.495624 79.03125,25.5 C 79.030857,25.504458 79.031882,25.526711 79.03125,25.53125 C 79.031986,25.532318 79.030289,25.561401 79.03125,25.5625 C 79.035746,25.565057 79.057191,25.591082 79.0625,25.59375 C 79.41624,25.754732 81.0873,26.092921 81.84375,26.21875 C 82.388286,26.282638 82.995716,26.193661 83.4375,25.84375 C 83.886242,25.484768 84.12164,24.305747 84.21875,23.751114 C 84.352993,22.984404 83.081174,23.373065 83.026627,23.724488 z M 78.78125,25.1875 C 78.783208,25.188967 78.779001,25.217167 78.78125,25.21875 C 78.79118,25.220912 78.801597,25.216637 78.8125,25.21875 C 78.809933,25.217399 78.815002,25.18875 78.8125,25.1875 C 78.80781,25.185409 78.785558,25.189178 78.78125,25.1875 z M 78.875,25.21875 C 78.886051,25.226146 78.895199,25.241052 78.90625,25.25 C 78.886466,25.247015 78.892763,25.221846 78.875,25.21875 z M 70.40625,55.78125 C 68.24743,63.999396 61.914489,66.535169 56.375,67.1875 C 50.835511,67.839831 45.251073,66.28413 43.28125,65.65625 L 42.9375,65.53125 L 42.65625,65.78125 C 41.374317,66.945803 39.761467,68.516362 38.03125,69.6875 C 36.301033,70.858638 34.522443,71.582575 32.875,71.25 L 33.875,72.125 C 36.028587,72.559752 36.890356,71.977494 38.75,70.71875 C 40.510182,69.52733 41.836963,67.342246 43.0625,66.21875 C 45.264485,66.906606 50.825352,69.105747 56.5,68.4375 C 62.363599,67.747002 68.443036,64.569383 70.71875,55.90625 L 70.40625,55.78125 z M 39.09375,63.84375 C 38.718947,63.874878 38.24404,63.956177 37.6875,64.09375 C 37.173771,64.22074 36.923856,64.264656 36.71875,64.34375 C 36.684939,64.35757 36.627486,64.389102 36.59375,64.40625 C 36.304143,64.560726 35.946516,64.875136 34.84375,65.71875 L 32.875,67.71875 C 34.743727,66.364481 36.808923,65.599201 37.96875,65.3125 C 39.185618,65.011699 39.875,64.15625 39.875,64.15625 L 39.96875,63.84375 C 39.96875,63.84375 39.641539,63.798256 39.09375,63.84375 z M 43.5625,68.1875 C 43.240521,68.235032 42.314583,68.447921 41.5,69.21875 C 40.497436,70.167463 39.714988,70.520503 40.15625,73.59375 L 40.78125,75.5 C 40.608549,72.934636 41.705256,70.729197 42.34375,70.125 C 43.030533,69.475107 43.75,68.375 43.75,68.375 L 43.6875,68.1875 C 43.669653,68.189172 43.612035,68.180187 43.5625,68.1875 z"
         style="fill:#555555;fill-opacity:1;fill-rule:evenodd;stroke:none;stroke-width:1pt;stroke-linecap:butt;stroke-linejoin:miter;stroke-opacity:1" />
    </g>
  </g>
</svg>
