<?xml version="1.0" encoding="UTF-8" standalone="no"?>
<svg
   xmlns:dc="http://purl.org/dc/elements/1.1/"
   xmlns:cc="http://creativecommons.org/ns#"
   xmlns:rdf="http://www.w3.org/1999/02/22-rdf-syntax-ns#"
   xmlns:svg="http://www.w3.org/2000/svg"
   xmlns="http://www.w3.org/2000/svg"
   xmlns:xlink="http://www.w3.org/1999/xlink"
   xmlns:sodipodi="http://sodipodi.sourceforge.net/DTD/sodipodi-0.dtd"
   xmlns:inkscape="http://www.inkscape.org/namespaces/inkscape"
   version="1.0"
   baseProfile="full"
   id="body"
   width="500"
   height="500"
   viewBox="0 0 1 1"
   preserveAspectRatio="none"
   sodipodi:version="0.32"
   inkscape:version="0.46"
   sodipodi:docname="01.svg"
   inkscape:output_extension="org.inkscape.output.svg.inkscape">
  <metadata
     id="metadata80">
    <rdf:RDF>
      <cc:Work
         rdf:about="">
        <dc:format>image/svg+xml</dc:format>
        <dc:type
           rdf:resource="http://purl.org/dc/dcmitype/StillImage" />
      </cc:Work>
    </rdf:RDF>
  </metadata>
  <defs
     id="defs78">
    <linearGradient
       id="linearGradient4678">
      <stop
         style="stop-color:#ff0000;stop-opacity:1;"
         offset="0"
         id="stop4680" />
      <stop
         style="stop-color:#dc0000;stop-opacity:1;"
         offset="1"
         id="stop4682" />
    </linearGradient>
    <inkscape:perspective
       sodipodi:type="inkscape:persp3d"
       inkscape:vp_x="0 : 384 : 1"
       inkscape:vp_y="0 : 1000 : 0"
       inkscape:vp_z="1024 : 384 : 1"
       inkscape:persp3d-origin="512 : 256 : 1"
       id="perspective32" />
    <radialGradient
       inkscape:collect="always"
       xlink:href="#linearGradient4678"
       id="radialGradient4684"
       cx="0.49593546"
       cy="0.50201694"
       fx="0.49593546"
       fy="0.50201694"
       r="0.48402571"
       gradientTransform="matrix(1,0,0,0.4784264,0,0.2618388)"
       gradientUnits="userSpaceOnUse" />
  </defs>
  <sodipodi:namedview
     inkscape:window-height="992"
     inkscape:window-width="1920"
     inkscape:pageshadow="2"
     inkscape:pageopacity="0.0"
     guidetolerance="10.0"
     gridtolerance="10.0"
     objecttolerance="10.0"
     borderopacity="1.0"
     bordercolor="#666666"
     pagecolor="#ffffff"
     id="base"
     showgrid="false"
     inkscape:zoom="1.55"
     inkscape:cx="250"
     inkscape:cy="250"
     inkscape:window-x="-5"
     inkscape:window-y="0"
     inkscape:current-layer="body"
     units="px"
     borderlayer="false" />
  <title
     id="title3">SVG drawing</title>
  <desc
     id="desc5">This was produced by version 4.2 of GNU libplot, a free library for exporting 2-D vector graphics.</desc>
  <path
     style="font-style:normal;font-variant:normal;font-weight:normal;font-stretch:normal;letter-spacing:normal;word-spacing:normal;text-anchor:start;fill:url(#radialGradient4684);fill-opacity:1;stroke:#000000;stroke-width:0.004;stroke-linecap:butt;stroke-linejoin:miter;stroke-miterlimit:10.43299961;stroke-dasharray:none;stroke-dashoffset:0;stroke-opacity:1"
     id="path11"
     d="M 0.29627025,0.43878617 L 0.29627025,0.43878617 L 0.29627025,0.43878617 L 0.29627025,0.43865189 L 0.29640452,0.43838334 L 0.29640452,0.4379805 L 0.2965388,0.43757767 L 0.2965388,0.43704052 L 0.29667308,0.4365034 L 0.29680736,0.43583193 L 0.29694164,0.43516054 L 0.29707591,0.43435484 L 0.29721019,0.43341481 L 0.29734455,0.43247486 L 0.29761311,0.43153488 L 0.29774739,0.43046057 L 0.29788166,0.42938627 L 0.29815022,0.42817781 L 0.29841877,0.42696922 L 0.29855305,0.42576068 L 0.29882165,0.42441782 L 0.29895593,0.423075 L 0.29922448,0.42173214 L 0.29949304,0.42038932 L 0.29976159,0.41891218 L 0.29989587,0.41756936 L 0.30043307,0.41461512 L 0.3008359,0.4116608 L 0.30137309,0.40870657 L 0.30177589,0.40575233 C 0.30365586,0.39366675 0.30459584,0.38211831 0.30459584,0.38211831 C 0.30459584,0.38211831 0.30459584,0.37124131 0.29815022,0.36291572 C 0.2939874,0.35741008 0.28257329,0.35338153 0.28257329,0.35338153 C 0.28257329,0.35338153 0.25343363,0.34774162 0.23664807,0.32692752 C 0.22254828,0.30920206 0.22026543,0.27563102 0.22026543,0.27563102 C 0.22026543,0.27563102 0.22429397,0.28207669 0.23557389,0.28798516 C 0.24430228,0.29255086 0.25316507,0.29510226 0.2639078,0.29993643 C 0.28324468,0.30866494 0.30352158,0.31900475 0.30352158,0.31900475 C 0.30352158,0.31900475 0.31037004,0.32101904 0.31923283,0.32101904 C 0.32755843,0.32101904 0.33776404,0.31900475 0.33776404,0.31900475 C 0.33776404,0.31900475 0.35790667,0.31658763 0.37724355,0.31618479 C 0.39214905,0.31578196 0.40759179,0.31739338 0.40759179,0.31739338 C 0.40759179,0.31739338 0.41954306,0.30866494 0.43605998,0.30033926 C 0.44868267,0.29402796 0.46546823,0.28879087 0.47419662,0.28368807 C 0.47406234,0.28382234 0.49165357,0.26260545 0.50132203,0.27361673 C 0.50454486,0.2772424 0.49930778,0.28932798 0.49930778,0.28932798 C 0.49930778,0.28932798 0.49595066,0.3063821 0.47527093,0.32504759 C 0.45996259,0.33887882 0.42558581,0.35606721 0.42558581,0.35606721 C 0.42558581,0.35606721 0.43324002,0.36224424 0.43391141,0.36801852 C 0.43471716,0.37352416 0.42827149,0.37876124 0.42827149,0.37876124 C 0.42827149,0.37876124 0.42491442,0.3873554 0.42370588,0.39702382 C 0.42222874,0.40803518 0.42303441,0.42025504 0.42303441,0.42025504 C 0.42303441,0.42025504 0.42343724,0.42898343 0.42303441,0.4379805 C 0.42263157,0.44697757 0.42128875,0.45624312 0.42128875,0.45624312 C 0.42128875,0.45624312 0.44545988,0.44751468 0.47016812,0.44281467 C 0.49017647,0.43892053 0.51166192,0.43878617 0.51166192,0.43878617 C 0.51166192,0.43878617 0.52052467,0.43838334 0.53731018,0.43435484 C 0.5563785,0.42978918 0.58524961,0.42146358 0.61506069,0.4199864 C 0.66286584,0.41770364 0.70395672,0.42871492 0.72087655,0.42871492 C 0.73766211,0.42871492 0.75511901,0.42723778 0.78076728,0.43126632 C 0.7987613,0.43408628 0.81084688,0.44308331 0.81084688,0.44308331 C 0.81084688,0.44308331 0.8422693,0.45140891 0.87449752,0.47289435 C 0.90793423,0.49518547 0.94204245,0.53077079 0.94204245,0.53077079 C 0.94204245,0.53077079 0.96057366,0.55641906 0.96957065,0.58394734 C 0.97950771,0.61389266 0.97991054,0.64612083 0.97991054,0.64612083 C 0.97991054,0.64612083 0.9812534,0.6540436 0.97010785,0.65672928 C 0.95533658,0.66022063 0.92727119,0.65874349 0.92727119,0.65874349 C 0.92727119,0.65874349 0.87986888,0.66559199 0.83716658,0.66988913 C 0.8013127,0.67338048 0.76881597,0.67445478 0.76881597,0.67445478 C 0.76881597,0.67445478 0.77700729,0.68331753 0.75914756,0.68801746 C 0.74115342,0.69285171 0.69697398,0.6935231 0.69697398,0.6935231 C 0.69697398,0.6935231 0.65776303,0.69580595 0.62808626,0.69970017 C 0.60968929,0.7021173 0.59491806,0.70695151 0.59491806,0.70695151 C 0.59491806,0.70695151 0.58350395,0.71608281 0.57061266,0.72024563 C 0.5594671,0.7238713 0.54671009,0.7223942 0.54671009,0.7223942 C 0.54671009,0.7223942 0.49527927,0.72789984 0.48923652,0.71527711 C 0.48695368,0.71057717 0.50038208,0.70856288 0.50038208,0.70856288 C 0.50038208,0.70856288 0.46237963,0.70775722 0.44075991,0.70144587 C 0.43095717,0.69862591 0.42719722,0.68734607 0.42719722,0.68734607 C 0.42719722,0.68734607 0.39470046,0.69137457 0.3655608,0.69137457 C 0.34071828,0.69124021 0.31842708,0.68707744 0.31842708,0.68707744 C 0.31842708,0.68707744 0.29922448,0.69137457 0.28082755,0.69459737 C 0.26269926,0.69782016 0.24551087,0.69983445 0.24551087,0.69983445 C 0.24551087,0.69983445 0.22711393,0.70386299 0.21099985,0.70426583 C 0.19797432,0.7046687 0.1866273,0.70158015 0.1866273,0.70158015 C 0.1866273,0.70158015 0.16271133,0.70601156 0.14477096,0.71124856 C 0.13081885,0.71541138 0.12184871,0.72064847 0.12184871,0.72064847 C 0.12184871,0.72064847 0.11649071,0.72413986 0.10468717,0.72601983 C 0.094145859,0.72776557 0.076944066,0.72789984 0.076944066,0.72789984 C 0.076944066,0.72789984 0.057271452,0.73313693 0.040485977,0.73353976 C 0.028051254,0.73407687 0.017254753,0.72991405 0.017254753,0.72991405 C 0.017254753,0.72991405 0.010688294,0.72346843 0.012111738,0.7198428 C 0.013320239,0.7167542 0.022545614,0.71621709 0.022545614,0.71621709 C 0.022545614,0.71621709 0.017254753,0.70735434 0.01667735,0.70171442 C 0.016355059,0.69849163 0.020611906,0.69674594 0.020611906,0.69674594 C 0.020611906,0.69674594 0.030360949,0.6924488 0.044729298,0.69164313 C 0.057741383,0.6909717 0.075574316,0.69406026 0.075574316,0.69406026 C 0.075574316,0.69406026 0.087431637,0.69150885 0.099973789,0.69124021 C 0.10988396,0.69110594 0.12100267,0.69312027 0.12100267,0.69312027 C 0.12100267,0.69312027 0.14601984,0.6866746 0.16343645,0.678349 C 0.17119805,0.67458902 0.18016823,0.66451777 0.18016823,0.66451777 C 0.18016823,0.66451777 0.18531129,0.66062354 0.19488576,0.65901204 C 0.20334568,0.65753495 0.21637121,0.65834065 0.21637121,0.65834065 C 0.21637121,0.65834065 0.22550252,0.65981779 0.22832247,0.6555207 C 0.23100816,0.65122364 0.22751685,0.64128658 0.22751685,0.64128658 C 0.22751685,0.64128658 0.21865406,0.59751002 0.22523396,0.56863888 C 0.2267111,0.56219325 0.22765113,0.55252479 0.23275385,0.54836202 C 0.23919948,0.54312493 0.2499422,0.54393064 0.2499422,0.54393064 C 0.2499422,0.54393064 0.26041641,0.54070777 0.26780206,0.52687657 C 0.27760476,0.50847959 0.28539324,0.47839999 0.28539324,0.47839999 L 0.29627025,0.43878617 z" />
</svg>
