<?xml version="1.0" encoding="UTF-8" standalone="no"?>
<!-- Created with Inkscape (http://www.inkscape.org/) -->
<svg
   xmlns:dc="http://purl.org/dc/elements/1.1/"
   xmlns:cc="http://creativecommons.org/ns#"
   xmlns:rdf="http://www.w3.org/1999/02/22-rdf-syntax-ns#"
   xmlns:svg="http://www.w3.org/2000/svg"
   xmlns="http://www.w3.org/2000/svg"
   xmlns:xlink="http://www.w3.org/1999/xlink"
   xmlns:sodipodi="http://sodipodi.sourceforge.net/DTD/sodipodi-0.dtd"
   xmlns:inkscape="http://www.inkscape.org/namespaces/inkscape"
   width="360"
   height="240"
   id="svg2"
   sodipodi:version="0.32"
   inkscape:version="0.46"
   version="1.0"
   sodipodi:docbase="/home/nicu/Desktop/game_elements"
   sodipodi:docname="thumbnail.svg"
   inkscape:output_extension="org.inkscape.output.svg.inkscape">
  <defs
     id="defs4">
    <linearGradient
       inkscape:collect="always"
       id="linearGradient4094">
      <stop
         style="stop-color: rgb(255, 255, 255); stop-opacity: 1;"
         offset="0"
         id="stop4096" />
      <stop
         style="stop-color: rgb(255, 255, 255); stop-opacity: 0;"
         offset="1"
         id="stop4098" />
    </linearGradient>
    <linearGradient
       id="linearGradient2250">
      <stop
         style="stop-color: rgb(0, 137, 27); stop-opacity: 1;"
         offset="0"
         id="stop2252" />
      <stop
         style="stop-color: rgb(0, 97, 19); stop-opacity: 1;"
         offset="1"
         id="stop2254" />
    </linearGradient>
    <linearGradient
       id="linearGradient2242">
      <stop
         style="stop-color: rgb(167, 147, 66); stop-opacity: 1;"
         offset="0"
         id="stop2244" />
      <stop
         style="stop-color: rgb(126, 111, 50); stop-opacity: 1;"
         offset="1"
         id="stop2246" />
    </linearGradient>
    <linearGradient
       id="linearGradient2234">
      <stop
         style="stop-color: rgb(48, 250, 250); stop-opacity: 1;"
         offset="0"
         id="stop2236" />
      <stop
         style="stop-color: rgb(4, 194, 194); stop-opacity: 1;"
         offset="1"
         id="stop2238" />
    </linearGradient>
    <linearGradient
       id="linearGradient2226">
      <stop
         style="stop-color: rgb(31, 30, 226); stop-opacity: 1;"
         offset="0"
         id="stop2228" />
      <stop
         style="stop-color: rgb(22, 21, 170); stop-opacity: 1;"
         offset="1"
         id="stop2230" />
    </linearGradient>
    <linearGradient
       id="linearGradient2218">
      <stop
         style="stop-color: rgb(238, 38, 11); stop-opacity: 1;"
         offset="0"
         id="stop2220" />
      <stop
         style="stop-color: rgb(194, 31, 8); stop-opacity: 1;"
         offset="1"
         id="stop2222" />
    </linearGradient>
    <linearGradient
       id="linearGradient2210">
      <stop
         style="stop-color: rgb(248, 248, 19); stop-opacity: 1;"
         offset="0"
         id="stop2212" />
      <stop
         style="stop-color: rgb(215, 215, 6); stop-opacity: 1;"
         offset="1"
         id="stop2214" />
    </linearGradient>
    <linearGradient
       id="linearGradient2202">
      <stop
         style="stop-color: rgb(55, 236, 10); stop-opacity: 1;"
         offset="0"
         id="stop2204" />
      <stop
         style="stop-color: rgb(45, 195, 8); stop-opacity: 1;"
         offset="1"
         id="stop2206" />
    </linearGradient>
    <linearGradient
       id="linearGradient2194">
      <stop
         style="stop-color: rgb(217, 23, 217); stop-opacity: 1;"
         offset="0"
         id="stop2196" />
      <stop
         style="stop-color: rgb(170, 18, 170); stop-opacity: 1;"
         offset="1"
         id="stop2198" />
    </linearGradient>
    <linearGradient
       id="linearGradient2186">
      <stop
         style="stop-color: rgb(231, 27, 109); stop-opacity: 1;"
         offset="0"
         id="stop2188" />
      <stop
         style="stop-color: rgb(166, 17, 77); stop-opacity: 1;"
         offset="1"
         id="stop2190" />
    </linearGradient>
    <radialGradient
       inkscape:collect="always"
       xlink:href="#linearGradient2218"
       id="radialGradient2224"
       cx="-225"
       cy="-79.051216"
       fx="-225"
       fy="-79.051216"
       r="53.136295"
       gradientTransform="matrix(1.27471,-7.70814e-2,7.08525e-2,1.17171,67.4099,-3.71825)"
       gradientUnits="userSpaceOnUse" />
    <linearGradient
       inkscape:collect="always"
       xlink:href="#linearGradient4094"
       id="linearGradient4102"
       x1="-289.20667"
       y1="-152.01428"
       x2="-188.79752"
       y2="-28.65625"
       gradientUnits="userSpaceOnUse" />
    <radialGradient
       inkscape:collect="always"
       xlink:href="#linearGradient2242"
       id="radialGradient1442"
       gradientUnits="userSpaceOnUse"
       gradientTransform="matrix(1.07018,-3.50877e-2,3.27693e-2,0.999463,13.1217,-7.51164)"
       cx="-215"
       cy="60"
       fx="-215"
       fy="60"
       r="57" />
    <linearGradient
       inkscape:collect="always"
       xlink:href="#linearGradient4094"
       id="linearGradient1444"
       gradientUnits="userSpaceOnUse"
       x1="-285.29205"
       y1="-37.468037"
       x2="-160.76346"
       y2="96.547729" />
    <radialGradient
       inkscape:collect="always"
       xlink:href="#linearGradient2210"
       id="radialGradient1446"
       gradientUnits="userSpaceOnUse"
       gradientTransform="matrix(1.03875,-0.115894,0.110889,0.993833,-6.7264,3.50106)"
       cx="27.49255"
       cy="51.051094"
       fx="27.49255"
       fy="51.051094"
       r="70.364243" />
    <linearGradient
       inkscape:collect="always"
       xlink:href="#linearGradient4094"
       id="linearGradient1448"
       gradientUnits="userSpaceOnUse"
       x1="-134.2684"
       y1="-117.23493"
       x2="-59.112095"
       y2="-41.574501" />
    <radialGradient
       inkscape:collect="always"
       xlink:href="#linearGradient2202"
       id="radialGradient1454"
       gradientUnits="userSpaceOnUse"
       gradientTransform="matrix(1.07693,0.221245,-0.201235,0.979543,3.33576,-3.52158)"
       cx="18.089182"
       cy="23.491594"
       fx="18.089182"
       fy="23.491594"
       r="66.677559" />
    <linearGradient
       inkscape:collect="always"
       xlink:href="#linearGradient4094"
       id="linearGradient1456"
       gradientUnits="userSpaceOnUse"
       x1="-17.630493"
       y1="-131.34375"
       x2="85.657509"
       y2="-33.09375" />
    <radialGradient
       inkscape:collect="always"
       xlink:href="#linearGradient2186"
       id="radialGradient1458"
       gradientUnits="userSpaceOnUse"
       gradientTransform="matrix(1.21239,-1.76991e-2,1.4597e-2,0.999893,-16.9284,1.31858)"
       cx="74"
       cy="83"
       fx="74"
       fy="83"
       r="56.5" />
    <linearGradient
       inkscape:collect="always"
       xlink:href="#linearGradient4094"
       id="linearGradient1460"
       gradientUnits="userSpaceOnUse"
       x1="77.535149"
       y1="-152.43996"
       x2="216.79633"
       y2="-42.687641" />
    <radialGradient
       inkscape:collect="always"
       xlink:href="#linearGradient2226"
       id="radialGradient1470"
       gradientUnits="userSpaceOnUse"
       gradientTransform="matrix(1.05771,-1.67891e-2,1.59127e-2,1.0025,-18.0375,4.84336)"
       cx="296"
       cy="59.976471"
       fx="296"
       fy="59.976471"
       r="59.5625" />
    <linearGradient
       inkscape:collect="always"
       xlink:href="#linearGradient4094"
       id="linearGradient1472"
       gradientUnits="userSpaceOnUse"
       x1="209.26109"
       y1="-25.296465"
       x2="348.68509"
       y2="79.284271" />
    <radialGradient
       inkscape:collect="always"
       xlink:href="#linearGradient2194"
       id="radialGradient2480"
       gradientUnits="userSpaceOnUse"
       gradientTransform="matrix(0.934868,-0.959508,0.996366,0.970776,262.08,137.796)"
       cx="151.3208"
       cy="-253.14415"
       fx="151.3208"
       fy="-253.14415"
       r="40.48177" />
    <linearGradient
       inkscape:collect="always"
       xlink:href="#linearGradient4094"
       id="linearGradient2482"
       gradientUnits="userSpaceOnUse"
       x1="212.30031"
       y1="-147.17514"
       x2="327.52454"
       y2="-47.301514" />
    <radialGradient
       inkscape:collect="always"
       xlink:href="#linearGradient2194"
       id="radialGradient2496"
       gradientUnits="userSpaceOnUse"
       gradientTransform="matrix(0.934868,-0.959508,0.996366,0.970776,262.08,137.796)"
       cx="151.3208"
       cy="-253.14415"
       fx="151.3208"
       fy="-253.14415"
       r="40.48177" />
    <linearGradient
       inkscape:collect="always"
       xlink:href="#linearGradient4094"
       id="linearGradient2498"
       gradientUnits="userSpaceOnUse"
       x1="212.30031"
       y1="-147.17514"
       x2="327.52454"
       y2="-47.301514" />
    <radialGradient
       inkscape:collect="always"
       xlink:href="#linearGradient2234"
       id="radialGradient3285"
       cx="-445.77603"
       cy="237.75246"
       fx="-445.77603"
       fy="237.75246"
       r="108.4146"
       gradientTransform="matrix(1,0,0,0.9719774,0,6.6624454)"
       gradientUnits="userSpaceOnUse" />
    <radialGradient
       inkscape:collect="always"
       xlink:href="#linearGradient2194"
       id="radialGradient3363"
       gradientUnits="userSpaceOnUse"
       gradientTransform="matrix(0.934868,-0.959508,0.996366,0.970776,262.08,137.796)"
       cx="151.3208"
       cy="-253.14415"
       fx="151.3208"
       fy="-253.14415"
       r="40.48177" />
    <linearGradient
       inkscape:collect="always"
       xlink:href="#linearGradient4094"
       id="linearGradient3365"
       gradientUnits="userSpaceOnUse"
       x1="212.30031"
       y1="-147.17514"
       x2="327.52454"
       y2="-47.301514" />
    <linearGradient
       inkscape:collect="always"
       xlink:href="#linearGradient2250"
       id="linearGradient3377"
       x1="-187.54581"
       y1="208.87883"
       x2="-72.545799"
       y2="208.87883"
       gradientUnits="userSpaceOnUse"
       gradientTransform="matrix(0.9028832,0,0,0.9028832,666.35939,19.856093)" />
    <linearGradient
       inkscape:collect="always"
       xlink:href="#linearGradient2210"
       id="linearGradient3379"
       gradientUnits="userSpaceOnUse"
       x1="-552.70135"
       y1="185.31625"
       x2="-451.3028"
       y2="185.31625" />
  </defs>
  <sodipodi:namedview
     id="base"
     pagecolor="#ffffff"
     bordercolor="#666666"
     borderopacity="1.0"
     inkscape:pageopacity="0.0"
     inkscape:pageshadow="2"
     inkscape:zoom="1.1639948"
     inkscape:cx="384.57324"
     inkscape:cy="60.54919"
     inkscape:document-units="px"
     inkscape:current-layer="layer1"
     inkscape:window-width="1920"
     inkscape:window-height="992"
     inkscape:window-x="-5"
     inkscape:window-y="0"
     showgrid="false" />
  <metadata
     id="metadata7">
    <rdf:RDF>
      <cc:Work
         rdf:about="">
        <dc:format>image/svg+xml</dc:format>
        <dc:type
           rdf:resource="http://purl.org/dc/dcmitype/StillImage" />
      </cc:Work>
    </rdf:RDF>
  </metadata>
  <g
     inkscape:label="Layer 1"
     inkscape:groupmode="layer"
     id="layer1"
     transform="translate(-19.999527,-17.628176)">
    <g
       id="g1400"
       transform="matrix(0.9020901,0,0,0.9020901,271.39508,158.94655)">
      <path
         transform="matrix(0.844204,-0.229139,0.229139,0.844204,23.9578,-76.4635)"
         d="M 86.879336,82.879335 L -45.332592,47.453257 L 51.453256,-49.332592 L 86.879336,82.879335 z"
         inkscape:randomized="0"
         inkscape:rounded="0"
         inkscape:flatsided="true"
         sodipodi:arg2="1.8325957"
         sodipodi:arg1="0.78539816"
         sodipodi:r2="39.512657"
         sodipodi:r1="79.025314"
         sodipodi:cy="27"
         sodipodi:cx="31"
         sodipodi:sides="3"
         id="path3149"
         style="opacity:1;fill:#000000;fill-opacity:0.36800005;stroke:none;stroke-width:1.14319003;stroke-miterlimit:4;stroke-dasharray:none;stroke-dashoffset:0;stroke-opacity:1"
         sodipodi:type="star" />
      <path
         sodipodi:type="star"
         style="opacity:1;fill:#000000;fill-opacity:0.36800005;stroke:none;stroke-width:1.14319003;stroke-miterlimit:4;stroke-dasharray:none;stroke-dashoffset:0;stroke-opacity:1"
         id="path2258"
         sodipodi:sides="3"
         sodipodi:cx="31"
         sodipodi:cy="27"
         sodipodi:r1="79.025314"
         sodipodi:r2="39.512657"
         sodipodi:arg1="0.78539816"
         sodipodi:arg2="1.8325957"
         inkscape:flatsided="true"
         inkscape:rounded="0"
         inkscape:randomized="0"
         d="M 86.879336,82.879335 L -45.332592,47.453257 L 51.453256,-49.332592 L 86.879336,82.879335 z"
         transform="matrix(0.844204,-0.229139,0.229139,0.844204,22.2167,-78.2046)" />
      <path
         transform="matrix(0.844204,-0.229139,0.229139,0.844204,21.3462,-81.6868)"
         d="M 86.879336,82.879335 L -45.332592,47.453257 L 51.453256,-49.332592 L 86.879336,82.879335 z"
         inkscape:randomized="0"
         inkscape:rounded="0"
         inkscape:flatsided="true"
         sodipodi:arg2="1.8325957"
         sodipodi:arg1="0.78539816"
         sodipodi:r2="39.512657"
         sodipodi:r1="79.025314"
         sodipodi:cy="27"
         sodipodi:cx="31"
         sodipodi:sides="3"
         id="path2186"
         style="opacity:1;fill:url(#radialGradient1454);fill-opacity:1;stroke:#197804;stroke-width:1.14319003;stroke-miterlimit:4;stroke-dasharray:none;stroke-dashoffset:0;stroke-opacity:1"
         sodipodi:type="star" />
      <path
         id="path3167"
         d="M -2.78125,-33.09375 C 34.947917,-33.229167 72.677083,-33.364583 110.40625,-33.5 C 91.4375,-66.114583 72.46875,-98.729167 53.5,-131.34375 C 34.739583,-98.59375 15.979167,-65.84375 -2.78125,-33.09375 z"
         style="opacity:1;fill:url(#linearGradient1456);fill-opacity:1;stroke:none;stroke-width:1.14319003;stroke-miterlimit:4;stroke-dasharray:none;stroke-dashoffset:0;stroke-opacity:1" />
    </g>
    <g
       id="g1394"
       transform="matrix(0.8383894,0,0,0.8383894,151.74913,140.80899)">
      <path
         transform="matrix(0.834812,0.120503,-0.120503,0.834812,-113.188,-109.708)"
         d="M 91.521426,100.52143 L 45.894232,84.366358 L 5.2791694,114.18086 L 6.5439732,65.794626 L -34.362045,36.380594 L 12.046841,22.631326 L 27.380593,-25.362045 L 54.798058,14.526671 L 105.18086,14.279169 L 75.716896,52.681019 L 91.521426,100.52143 z"
         inkscape:randomized="0"
         inkscape:rounded="0"
         inkscape:flatsided="false"
         sodipodi:arg2="1.3834425"
         sodipodi:arg1="0.78539816"
         sodipodi:r2="37.014084"
         sodipodi:r1="74.276512"
         sodipodi:cy="48"
         sodipodi:cx="39"
         sodipodi:sides="5"
         id="path3151"
         style="opacity:1;fill:#000000;fill-opacity:0.36800005;stroke:none;stroke-width:1.18559003;stroke-miterlimit:4;stroke-dasharray:none;stroke-dashoffset:0;stroke-opacity:1"
         sodipodi:type="star" />
      <path
         sodipodi:type="star"
         style="opacity:1;fill:#000000;fill-opacity:0.36800005;stroke:none;stroke-width:1.18559003;stroke-miterlimit:4;stroke-dasharray:none;stroke-dashoffset:0;stroke-opacity:1"
         id="path2260"
         sodipodi:sides="5"
         sodipodi:cx="39"
         sodipodi:cy="48"
         sodipodi:r1="74.276512"
         sodipodi:r2="37.014084"
         sodipodi:arg1="0.78539816"
         sodipodi:arg2="1.3834425"
         inkscape:flatsided="false"
         inkscape:rounded="0"
         inkscape:randomized="0"
         d="M 91.521426,100.52143 L 45.894232,84.366358 L 5.2791694,114.18086 L 6.5439732,65.794626 L -34.362045,36.380594 L 12.046841,22.631326 L 27.380593,-25.362045 L 54.798058,14.526671 L 105.18086,14.279169 L 75.716896,52.681019 L 91.521426,100.52143 z"
         transform="matrix(0.834812,0.120503,-0.120503,0.834812,-114.929,-111.449)" />
      <path
         transform="matrix(0.834812,0.120503,-0.120503,0.834812,-115.799,-114.931)"
         d="M 91.521426,100.52143 L 45.894232,84.366358 L 5.2791694,114.18086 L 6.5439732,65.794626 L -34.362045,36.380594 L 12.046841,22.631326 L 27.380593,-25.362045 L 54.798058,14.526671 L 105.18086,14.279169 L 75.716896,52.681019 L 91.521426,100.52143 z"
         inkscape:randomized="0"
         inkscape:rounded="0"
         inkscape:flatsided="false"
         sodipodi:arg2="1.3834425"
         sodipodi:arg1="0.78539816"
         sodipodi:r2="37.014084"
         sodipodi:r1="74.276512"
         sodipodi:cy="48"
         sodipodi:cx="39"
         sodipodi:sides="5"
         id="path2190"
         style="opacity:1;fill:url(#radialGradient1446);fill-opacity:1;stroke:#8c8a05;stroke-width:1.18559003;stroke-miterlimit:4;stroke-dasharray:none;stroke-dashoffset:0;stroke-opacity:1"
         sodipodi:type="star" />
      <path
         id="path3169"
         d="M -106.84375,-93.78125 C -118.83963,-90.189437 -132.30112,-89.7068 -144.875,-87.4375 C -135.54191,-78.016353 -124.9856,-69.060585 -116.375,-59.375 C -118.46614,-47.039444 -120.56721,-34.705583 -122.6875,-22.375 C -110.84712,-28.335181 -99.001036,-35.664901 -87.15625,-40.78125 C -76.097224,-34.972542 -65.035565,-29.168857 -53.96875,-23.375 C -55.970143,-36.479989 -59.354831,-49.977502 -60.53125,-62.84375 C -51.538099,-71.537133 -42.596755,-80.283805 -33.65625,-89.03125 C -46.750427,-91.174663 -60.624962,-92.15977 -73.25,-95 C -78.776154,-106.23157 -84.362802,-117.43322 -89.90625,-128.65625 C -95.552083,-117.03125 -101.19792,-105.40625 -106.84375,-93.78125 z"
         style="opacity:1;fill:url(#linearGradient1448);fill-opacity:1;stroke:none;stroke-width:1.18559003;stroke-miterlimit:4;stroke-dasharray:none;stroke-dashoffset:0;stroke-opacity:1" />
    </g>
    <g
       id="g1388"
       transform="matrix(0.9603674,0,0,0.9603674,399.14457,154.6946)">
      <path
         id="path3157"
         d="M -233.58892,-122.2893 C -243.66679,-121.47252 -250.58688,-112.83891 -255.88417,-105.09167 C -260.94361,-97.228867 -262.16205,-86.748557 -257.57168,-78.375462 C -250.90415,-65.079625 -238.82041,-55.837048 -228.34561,-45.678975 C -220.61412,-38.246839 -212.61789,-30.340544 -208.60699,-20.20249 C -207.19819,-15.009454 -206.3948,-24.444491 -204.43066,-25.608808 C -193.2701,-44.110835 -173.41522,-55.038655 -161.27824,-72.757118 C -155.89275,-80.020762 -153.41223,-89.719186 -156.5079,-98.441079 C -160.16589,-107.43789 -166.62493,-115.6352 -175.15635,-120.45932 C -181.8836,-124.1573 -190.32067,-121.76674 -195.36668,-116.35926 C -201.06824,-111.02939 -204.79589,-104.00101 -207.8139,-96.896927 C -212.06322,-106.77502 -217.91997,-117.46618 -228.48978,-121.56555 C -230.1313,-122.09351 -231.86299,-122.36774 -233.58892,-122.2893 z"
         style="fill:#000000;fill-opacity:0.36800005;stroke:none;stroke-width:1;stroke-miterlimit:4;stroke-dasharray:none;stroke-dashoffset:0;stroke-opacity:1" />
      <path
         style="fill:#000000;fill-opacity:0.36800005;stroke:none;stroke-width:1;stroke-miterlimit:4;stroke-dasharray:none;stroke-dashoffset:0;stroke-opacity:1"
         d="M -235.33002,-124.0304 C -245.40789,-123.21362 -252.32798,-114.58001 -257.62527,-106.83277 C -262.68471,-98.969968 -263.90315,-88.489658 -259.31278,-80.116563 C -252.64525,-66.820726 -240.56151,-57.578149 -230.08671,-47.420076 C -222.35522,-39.98794 -214.35899,-32.081645 -210.34809,-21.943591 C -208.93929,-16.750555 -208.1359,-26.185592 -206.17176,-27.349909 C -195.0112,-45.851936 -175.15632,-56.779756 -163.01934,-74.498219 C -157.63385,-81.761863 -155.15333,-91.460287 -158.249,-100.18218 C -161.90699,-109.17899 -168.36603,-117.3763 -176.89745,-122.20042 C -183.6247,-125.8984 -192.06177,-123.50784 -197.10778,-118.10036 C -202.80934,-112.77049 -206.53699,-105.74211 -209.555,-98.638028 C -213.80432,-108.51612 -219.66107,-119.20728 -230.23088,-123.30665 C -231.8724,-123.83461 -233.60409,-124.10884 -235.33002,-124.0304 z"
         id="path2266" />
      <path
         id="path2196"
         d="M -236.20057,-127.5126 C -246.27844,-126.69582 -253.19853,-118.06221 -258.49582,-110.31497 C -263.55526,-102.45217 -264.7737,-91.97186 -260.18333,-83.598765 C -253.5158,-70.302928 -241.43206,-61.060351 -230.95726,-50.902278 C -223.22577,-43.470142 -215.22954,-35.563847 -211.21864,-25.425793 C -209.80984,-20.232757 -209.00645,-29.667794 -207.04231,-30.832111 C -195.88175,-49.334138 -176.02687,-60.261958 -163.88989,-77.980421 C -158.5044,-85.244065 -156.02388,-94.942489 -159.11955,-103.66438 C -162.77754,-112.66119 -169.23658,-120.8585 -177.768,-125.68262 C -184.49525,-129.3806 -192.93232,-126.99004 -197.97833,-121.58256 C -203.67989,-116.25269 -207.40754,-109.22431 -210.42555,-102.12023 C -214.67487,-111.99832 -220.53162,-122.68948 -231.10143,-126.78885 C -232.74295,-127.31681 -234.47464,-127.59104 -236.20057,-127.5126 z"
         style="fill:url(#radialGradient2224);fill-opacity:1;stroke:#801204;stroke-width:1;stroke-miterlimit:4;stroke-dasharray:none;stroke-dashoffset:0;stroke-opacity:1" />
      <path
         id="path3175"
         d="M -237.03125,-125.34375 C -249.16053,-122.73118 -257.47885,-110.86991 -260.75,-99.5625 C -263.00017,-83.559608 -249.69968,-71.321811 -239.22371,-61.324663 C -228.65185,-51.47759 -217.03048,-41.81232 -210.375,-28.65625 C -199.54363,-51.140314 -174.09617,-62.109549 -162.71875,-84.0625 C -154.62544,-98.502613 -164.97331,-115.6584 -177.8125,-123.28125 C -186.93938,-129.61018 -198.32163,-120.98069 -202.75,-112.65625 C -205.90704,-107.83239 -208.08865,-102.46732 -210.4375,-97.21875 C -215.42433,-108.26854 -220.93058,-122.69032 -234.28125,-125.3125 C -235.20377,-125.34315 -236.1127,-125.71092 -237.03125,-125.34375 z"
         style="fill:url(#linearGradient4102);fill-opacity:1;stroke:none;stroke-width:1;stroke-miterlimit:4;stroke-dasharray:none;stroke-dashoffset:0;stroke-opacity:1" />
    </g>
    <g
       id="g1436"
       transform="matrix(0.8795342,0,0,0.8795342,-198.84665,149.86194)">
      <path
         id="path3161"
         d="M 302.0804,-2.9954466 L 302.0804,29.317053 L 274.0804,13.160803 L 258.54915,40.067053 L 286.54915,56.223303 L 258.54915,72.379553 L 274.0804,99.285803 L 302.0804,83.129553 L 302.0804,115.44205 L 333.1429,115.44205 L 333.1429,83.129553 L 361.1429,99.285803 L 376.67415,72.379553 L 348.67415,56.223303 L 376.67415,40.067053 L 361.1429,13.160803 L 333.1429,29.317053 L 333.1429,-2.9954466 L 302.0804,-2.9954466 z"
         style="opacity:1;fill:#000000;fill-opacity:0.36800005;stroke:none;stroke-width:1;stroke-miterlimit:4;stroke-dasharray:none;stroke-dashoffset:0;stroke-opacity:1" />
      <path
         style="opacity:1;fill:#000000;fill-opacity:0.36800005;stroke:none;stroke-width:1;stroke-miterlimit:4;stroke-dasharray:none;stroke-dashoffset:0;stroke-opacity:1"
         d="M 300.3393,-4.7365477 L 300.3393,27.575952 L 272.3393,11.419702 L 256.80805,38.325952 L 284.80805,54.482202 L 256.80805,70.638452 L 272.3393,97.544702 L 300.3393,81.388452 L 300.3393,113.70095 L 331.4018,113.70095 L 331.4018,81.388452 L 359.4018,97.544702 L 374.93305,70.638452 L 346.93305,54.482202 L 374.93305,38.325952 L 359.4018,11.419702 L 331.4018,27.575952 L 331.4018,-4.7365477 L 300.3393,-4.7365477 z"
         id="path2270" />
      <path
         id="rect2219"
         d="M 299.46875,-8.21875 L 299.46875,24.09375 L 271.46875,7.9375 L 255.9375,34.84375 L 283.9375,51 L 255.9375,67.15625 L 271.46875,94.0625 L 299.46875,77.90625 L 299.46875,110.21875 L 330.53125,110.21875 L 330.53125,77.90625 L 358.53125,94.0625 L 374.0625,67.15625 L 346.0625,51 L 374.0625,34.84375 L 358.53125,7.9375 L 330.53125,24.09375 L 330.53125,-8.21875 L 299.46875,-8.21875 z"
         style="opacity:1;fill:url(#radialGradient1470);fill-opacity:1;stroke:#090952;stroke-width:1;stroke-miterlimit:4;stroke-dasharray:none;stroke-dashoffset:0;stroke-opacity:1" />
      <path
         id="path3179"
         d="M 301.46875,24.09375 C 299.67684,27.866494 294.7234,23.915795 292.5,22.5 C 287.04504,18.697069 280.70552,16.387784 275.4375,12.1875 C 271.33277,8.9849886 269.77156,15.098954 268.12108,17.778665 C 264.97656,23.217026 261.83203,28.655388 258.6875,34.09375 C 268.44358,39.71863 278.1988,45.345077 287.9375,51 C 278.19875,56.654823 268.44362,62.281431 258.6875,67.90625 C 263.19792,75.708333 267.70833,83.510417 272.21875,91.3125 C 281.97061,85.70121 291.69991,80.050276 301.46875,74.46875 C 301.46875,85.71875 301.46875,96.96875 301.46875,108.21875 C 310.48958,108.21875 319.51042,108.21875 328.53125,108.21875 C 328.53125,96.96875 328.53125,85.71875 328.53125,74.46875 C 338.29973,80.050898 348.02963,85.700786 357.78125,91.3125 C 362.29167,83.510417 366.80208,75.708333 371.3125,67.90625 C 361.55642,62.28137 351.8012,56.654923 342.0625,51 C 351.80125,45.345177 361.55638,39.718569 371.3125,34.09375 C 366.80208,26.291667 362.29167,18.489583 357.78125,10.6875 C 348.02939,16.29879 338.30009,21.949724 328.53125,27.53125 C 328.53125,16.28125 328.53125,5.03125 328.53125,-6.21875 C 319.51042,-6.21875 310.48958,-6.21875 301.46875,-6.21875 C 301.46875,3.8854167 301.46875,13.989583 301.46875,24.09375 z"
         style="opacity:1;fill:url(#linearGradient1472);fill-opacity:1;stroke:none;stroke-width:1;stroke-miterlimit:4;stroke-dasharray:none;stroke-dashoffset:0;stroke-opacity:1" />
    </g>
    <path
       sodipodi:type="spiral"
       style="fill:none;fill-rule:evenodd;stroke:url(#radialGradient3285);stroke-width:5.86931467;stroke-linecap:butt;stroke-linejoin:miter;stroke-miterlimit:4;stroke-dasharray:none;stroke-opacity:1"
       id="path2505"
       sodipodi:cx="-448.81598"
       sodipodi:cy="247.83324"
       sodipodi:expansion="1"
       sodipodi:revolution="3"
       sodipodi:radius="121.47734"
       sodipodi:argument="-19.285719"
       sodipodi:t0="0"
       d="M -448.81598,247.83324 C -443.29551,245.26014 -442.62389,254.00524 -444.53932,257.00862 C -449.73002,265.14758 -461.59046,262.44072 -467.16674,256.38655 C -477.14139,245.55708 -472.57196,228.5318 -461.64595,220.3071 C -445.61159,208.23701 -422.82084,214.87366 -412.11446,230.7266 C -397.84454,251.85608 -406.62599,280.58392 -427.43269,293.71013 C -453.6158,310.22813 -488.35233,299.2682 -503.86825,273.49319 C -522.66012,242.27619 -509.50447,201.49413 -478.75259,183.60558 C -442.51256,162.52455 -395.66343,177.88583 -375.41295,213.61997 C -352.03296,254.87645 -369.60606,307.80635 -410.32605,330.41165 C -456.5947,356.09723 -515.61466,336.30818 -540.56977,290.59982 C -568.56564,239.32195 -546.55776,174.20535 -495.85922,146.90407 C -439.57423,116.59446 -368.35615,140.82326 -338.71143,196.51334"
       transform="matrix(0.4731387,0,0,0.4731387,411.53343,86.058509)" />
    <g
       id="g3351"
       transform="matrix(0,0.95,0.65,0,200.81362,-161.93975)">
      <g
         transform="translate(75.0425,255.043)"
         id="g3353">
        <rect
           style="opacity:1;fill:#000000;fill-opacity:0.36800005;stroke:none;stroke-width:1;stroke-miterlimit:4;stroke-dasharray:none;stroke-dashoffset:0;stroke-opacity:1"
           id="rect3355"
           width="79.963585"
           height="79.963585"
           x="123.24339"
           y="-304.71463"
           transform="matrix(0.707107,0.707107,-0.707107,0.707107,0,0)" />
        <rect
           transform="matrix(0.707107,0.707107,-0.707107,0.707107,0,0)"
           y="-304.71454"
           x="120.78107"
           height="79.963562"
           width="79.963562"
           id="rect3357"
           style="opacity:1;fill:#000000;fill-opacity:0.36800005;stroke:none;stroke-width:1;stroke-miterlimit:4;stroke-dasharray:none;stroke-dashoffset:0;stroke-opacity:1" />
        <rect
           style="opacity:1;fill:url(#radialGradient3363);fill-opacity:1;stroke:#6a0a6b;stroke-width:1;stroke-miterlimit:4;stroke-dasharray:none;stroke-dashoffset:0;stroke-opacity:1"
           id="rect3359"
           width="79.963539"
           height="79.963539"
           x="117.70317"
           y="-306.56116"
           transform="matrix(0.707107,0.707107,-0.707107,0.707107,0,0)" />
        <path
           style="opacity:1;fill:url(#linearGradient3365);fill-opacity:1;stroke:none;stroke-width:1;stroke-miterlimit:4;stroke-dasharray:none;stroke-dashoffset:0;stroke-opacity:1"
           d="M 246.3125,-77 C 264.20833,-59.104167 282.10417,-41.208333 300,-23.3125 C 317.89583,-41.208333 335.79167,-59.104167 353.6875,-77 C 335.79167,-94.895833 317.89583,-112.79167 300,-130.6875 C 282.10417,-112.79167 264.20833,-94.895833 246.3125,-77 z"
           id="path3361" />
      </g>
    </g>
  </g>
</svg>
