<?xml version="1.0" encoding="UTF-8" standalone="no"?>
<!-- Created with Inkscape (http://www.inkscape.org/) -->
<svg
   xmlns:dc="http://purl.org/dc/elements/1.1/"
   xmlns:cc="http://creativecommons.org/ns#"
   xmlns:rdf="http://www.w3.org/1999/02/22-rdf-syntax-ns#"
   xmlns:svg="http://www.w3.org/2000/svg"
   xmlns="http://www.w3.org/2000/svg"
   xmlns:sodipodi="http://sodipodi.sourceforge.net/DTD/sodipodi-0.dtd"
   xmlns:inkscape="http://www.inkscape.org/namespaces/inkscape"
   width="665.85626"
   height="666.09589"
   id="svg1901"
   sodipodi:version="0.32"
   inkscape:version="0.46"
   sodipodi:docname="purzen_A_cartoon_moon_rocket.svg"
   sodipodi:docbase="/home/tsoots/ohj/translations/po"
   version="1.0"
   inkscape:output_extension="org.inkscape.output.svg.inkscape">
  <defs
     id="defs1903">
    <inkscape:perspective
       sodipodi:type="inkscape:persp3d"
       inkscape:vp_x="0 : 526.18109 : 1"
       inkscape:vp_y="0 : 1000 : 0"
       inkscape:vp_z="744.09448 : 526.18109 : 1"
       inkscape:persp3d-origin="372.04724 : 350.78739 : 1"
       id="perspective7" />
  </defs>
  <sodipodi:namedview
     id="base"
     pagecolor="#ffffff"
     bordercolor="#666666"
     borderopacity="1.0"
     inkscape:pageopacity="0.0"
     inkscape:pageshadow="2"
     inkscape:zoom="0.5"
     inkscape:cx="-0.97558791"
     inkscape:cy="421.10775"
     inkscape:document-units="px"
     inkscape:current-layer="layer1"
     gridtolerance="10000"
     inkscape:window-width="1099"
     inkscape:window-height="938"
     inkscape:window-x="105"
     inkscape:window-y="23"
     showgrid="false"
     showguides="true"
     inkscape:guide-bbox="true" />
  <metadata
     id="metadata1906">
    <rdf:RDF>
      <cc:Work
         rdf:about="">
        <dc:format>image/svg+xml</dc:format>
        <dc:type
           rdf:resource="http://purl.org/dc/dcmitype/StillImage" />
      </cc:Work>
    </rdf:RDF>
  </metadata>
  <g
     inkscape:label="Taso 1"
     inkscape:groupmode="layer"
     id="layer1"
     style="opacity:1"
     transform="translate(698.91128,190.57627)">
    <g
       id="g3266"
       transform="matrix(0.7071068,0.7071068,-0.7071068,0.7071068,31.649749,262.4873)">
      <path
         style="fill:#ececec;fill-rule:evenodd;stroke:#000000;stroke-width:10;stroke-linecap:butt;stroke-linejoin:miter;stroke-opacity:1"
         d="M -367.54018,-263.72321 C -398.33069,-239.21753 -634.9973,-33.827355 -455.72768,359.49554 L -277.13393,359.49554 L -276.47768,359.49554 C -97.208896,-33.825513 -333.8739,-239.18519 -364.66518,-263.69196 L -367.54018,-263.72321 z"
         id="path3217"
         sodipodi:nodetypes="cccccc" />
      <path
         sodipodi:nodetypes="cccccccc"
         id="path2419"
         d="M -486.89353,-102.24218 L -443.45697,-182.04423 L -382.84781,-250.7346 L -365.67522,-263.86658 L -301.02546,-196.18636 L -250.51783,-114.36401 L -246.47722,-97.191414 L -487.90368,-98.201567"
         style="fill:#ff0000;fill-rule:evenodd;stroke:#000000;stroke-width:1px;stroke-linecap:butt;stroke-linejoin:miter;stroke-opacity:1" />
      <path
         sodipodi:nodetypes="css"
         id="path2408"
         d="M -511.13719,201.81368 C -511.13719,201.81368 -618.21336,200.48008 -553.56359,472.53463 C -553.56359,472.53463 -547.50267,245.37465 -490.93413,273.38027"
         style="fill:#ff0000;fill-rule:evenodd;stroke:#000000;stroke-width:10;stroke-linecap:butt;stroke-linejoin:miter;stroke-opacity:1" />
      <path
         style="fill:#ff0000;fill-rule:evenodd;stroke:#000000;stroke-width:10;stroke-linecap:butt;stroke-linejoin:miter;stroke-opacity:1"
         d="M -220.75895,201.81368 C -220.75895,201.81368 -113.68278,200.48008 -178.33255,472.53463 C -178.33255,472.53463 -184.39347,245.37465 -240.96201,273.38027"
         id="path2410"
         sodipodi:nodetypes="css" />
      <path
         id="path2423"
         d="M -481.84276,303.83915 L -455.5788,359.39754 L -275.77164,358.38738 L -254.55844,303.83915 L -481.84276,303.83915 z"
         style="fill:#b3b3b3;fill-rule:evenodd;stroke:#000000;stroke-width:1px;stroke-linecap:butt;stroke-linejoin:miter;stroke-opacity:1" />
      <path
         sodipodi:nodetypes="cccccccc"
         id="path3209"
         d="M -195.96959,229.08786 L -216.17264,279.59549 L -228.29448,269.49396 L -242.43661,275.55488 L -223.24371,199.79343 L -188.89853,216.96603 C -188.89853,216.96603 -129.29952,258.38228 -175.76654,464.4534 C -148.49242,251.31121 -196.97975,229.08786 -195.96959,229.08786 z"
         style="fill:#d20000;fill-opacity:1;fill-rule:evenodd;stroke:none;stroke-width:1px;stroke-linecap:butt;stroke-linejoin:miter;stroke-opacity:1" />
      <path
         sodipodi:nodetypes="cscccc"
         id="path3213"
         d="M -556.59405,469.50416 C -556.59405,469.50416 -566.65496,249.1354 -498.0052,248.28076 C -490.42964,248.18645 -490.93414,272.52442 -490.93414,272.52442 L -518.20826,278.58533 L -539.42146,345.2554 L -556.59405,469.50416 z"
         style="fill:#d20000;fill-opacity:1;fill-rule:evenodd;stroke:none;stroke-width:1px;stroke-linecap:butt;stroke-linejoin:miter;stroke-opacity:1" />
      <path
         id="path3232"
         d="M -320.4375,303.84375 C -316.38458,316.05397 -313.98948,333.09143 -315.15625,357.375 C -314.29405,357.67881 -313.3808,358.10501 -312.4375,358.59375 L -275.78125,358.375 L -258.6875,314.4375 C -259.37704,310.68329 -260.17377,307.33275 -260.9375,303.84375 L -320.4375,303.84375 z"
         style="fill:#999999;fill-opacity:1;fill-rule:evenodd;stroke:none;stroke-width:1px;stroke-linecap:butt;stroke-linejoin:miter;stroke-opacity:1" />
      <path
         id="path3227"
         d="M -346.46717,197.19765 C -353.2857,196.69258 -357.59217,197.76015 -357.59217,197.76015 L -362.65467,275.5414 C -362.65467,275.5414 -338.31931,270.73597 -326.84217,303.8539 L -267.21717,303.8539 C -286.58294,213.54516 -326.884,198.64825 -346.46717,197.19765 z"
         style="fill:#cccccc;fill-opacity:1;fill-rule:evenodd;stroke:none;stroke-width:1px;stroke-linecap:butt;stroke-linejoin:miter;stroke-opacity:1" />
      <path
         id="path3241"
         d="M -479,308.36218 L -459,358.36218 L -431,360.36218 L -439,303.36218 L -479,308.36218 z"
         style="fill:#cccccc;fill-rule:evenodd;stroke:none;stroke-width:1px;stroke-linecap:butt;stroke-linejoin:miter;stroke-opacity:1" />
      <path
         sodipodi:nodetypes="cccccc"
         id="path2382"
         d="M -367.54018,-263.72321 C -398.33069,-239.21753 -634.9973,-33.827355 -455.72768,359.49554 L -277.13393,359.49554 L -276.47768,359.49554 C -97.208896,-33.825513 -333.8739,-239.18519 -364.66518,-263.69196 L -367.54018,-263.72321 z"
         style="fill:none;fill-rule:evenodd;stroke:#000000;stroke-width:10;stroke-linecap:butt;stroke-linejoin:miter;stroke-opacity:1" />
      <path
         id="path2394"
         d="M -486.89353,-100.22187 L -249.50768,-100.22187"
         style="fill:none;fill-rule:evenodd;stroke:#000000;stroke-width:10;stroke-linecap:butt;stroke-linejoin:miter;stroke-opacity:1" />
      <path
         id="path2417"
         d="M -478.81231,304.8493 L -254.55844,304.8493"
         style="fill:none;fill-rule:evenodd;stroke:#000000;stroke-width:10;stroke-linecap:butt;stroke-linejoin:miter;stroke-opacity:1" />
      <path
         id="rect2414"
         d="M -375.19417,199.79343 L -357.01142,199.79343 L -357.01142,472.5346 L -375.19417,472.5346 L -375.19417,199.79343 z"
         style="fill:#ff0000;fill-opacity:1;fill-rule:nonzero;stroke:#000000;stroke-width:10;stroke-linecap:round;stroke-linejoin:miter;stroke-miterlimit:4;stroke-opacity:1" />
      <path
         sodipodi:nodetypes="cccc"
         id="path2425"
         d="M -264.65997,291.71732 C -264.65997,291.71732 -183.84777,105.84925 -248.49753,-72.947753 C -245.46707,244.24015 -332.34019,291.71732 -332.34019,291.71732 L -264.65997,291.71732 z"
         style="fill:#cccccc;fill-rule:evenodd;stroke:none;stroke-width:1px;stroke-linecap:butt;stroke-linejoin:miter;stroke-opacity:1" />
      <path
         sodipodi:nodetypes="cccc"
         id="path2437"
         d="M -273.75134,-115.37416 C -273.75134,-115.37416 -305.06607,-197.19653 -364.66507,-240.63308 C -310.11683,-135.57721 -338.4011,-115.37415 -338.4011,-115.37415 L -273.75134,-115.37416 z"
         style="fill:#d20000;fill-opacity:1;fill-rule:evenodd;stroke:none;stroke-width:1px;stroke-linecap:butt;stroke-linejoin:miter;stroke-opacity:1" />
      <path
         sodipodi:nodetypes="css"
         id="path3211"
         d="M -220.75895,201.81368 C -220.75895,201.81368 -113.68278,200.48008 -178.33255,472.53463 C -178.33255,472.53463 -184.39347,245.37465 -240.96201,273.38027"
         style="fill:none;fill-rule:evenodd;stroke:#000000;stroke-width:10;stroke-linecap:butt;stroke-linejoin:miter;stroke-opacity:1" />
      <path
         style="fill:none;fill-rule:evenodd;stroke:#000000;stroke-width:10;stroke-linecap:butt;stroke-linejoin:miter;stroke-opacity:1"
         d="M -511.13719,201.81368 C -511.13719,201.81368 -618.21336,200.48008 -553.56359,472.53463 C -553.56359,472.53463 -547.50267,245.37465 -490.93413,273.38027"
         id="path3215"
         sodipodi:nodetypes="css" />
      <path
         id="path3237"
         d="M -472.75139,-118.40461 C -472.75139,-118.40461 -419.21331,-222.45032 -374.7666,-249.72444 C -330.31989,-276.99856 -471.74124,-116.38431 -472.75139,-118.40461 z"
         style="fill:#ffffff;fill-rule:evenodd;stroke:none;stroke-width:1px;stroke-linecap:butt;stroke-linejoin:miter;stroke-opacity:1" />
      <path
         sodipodi:nodetypes="ccss"
         id="path3239"
         d="M -504.28571,158.07647 C -507.44955,156.31977 -527.00981,12.115652 -478.57143,-77.637818 C -448.70448,-101.677 -408.06909,-89.034604 -410,-79.06639 C -426.72675,7.2843505 -485.46947,168.52403 -504.28571,158.07647 z"
         style="fill:#ffffff;fill-rule:evenodd;stroke:none;stroke-width:1px;stroke-linecap:butt;stroke-linejoin:miter;stroke-opacity:1" />
      <g
         transform="matrix(1.1973808,0,0,1,83.198551,30)"
         id="g3261">
        <rect
           style="opacity:1;fill:#80e5ff;fill-opacity:1;stroke:none;stroke-width:10;stroke-linejoin:round;stroke-miterlimit:4;stroke-dasharray:none;stroke-dashoffset:0;stroke-opacity:1"
           id="rect3255"
           width="75"
           height="46"
           x="166"
           y="196.25781"
           transform="translate(-579.312,-268.723)"
           ry="19" />
        <rect
           style="fill:#ffffff;fill-opacity:1;fill-rule:nonzero;stroke:none;stroke-width:10;stroke-linecap:round;stroke-linejoin:miter;stroke-miterlimit:4;stroke-dasharray:none;stroke-opacity:1"
           id="rect2429"
           width="29.078325"
           height="70.618782"
           x="-281.75885"
           y="145.60179"
           transform="matrix(0.8344162,0.5511349,-0.8344162,0.5511349,0,0)"
           ry="0" />
        <rect
           style="opacity:1;fill:none;fill-opacity:1;stroke:#000000;stroke-width:10;stroke-linejoin:round;stroke-miterlimit:4;stroke-dasharray:none;stroke-dashoffset:0;stroke-opacity:1"
           id="rect3259"
           width="75"
           height="46"
           x="-413.31201"
           y="-72.465187"
           ry="21" />
      </g>
    </g>
  </g>
</svg>
