<?xml version="1.0" encoding="UTF-8" standalone="no"?>
<!-- Created with Inkscape (http://www.inkscape.org/) -->
<svg xmlns:dc="http://purl.org/dc/elements/1.1/" xmlns:cc="http://creativecommons.org/ns#" xmlns:rdf="http://www.w3.org/1999/02/22-rdf-syntax-ns#" xmlns:svg="http://www.w3.org/2000/svg" xmlns="http://www.w3.org/2000/svg" xmlns:sodipodi="http://sodipodi.sourceforge.net/DTD/sodipodi-0.dtd" xmlns:inkscape="http://www.inkscape.org/namespaces/inkscape" width="240" height="124" id="svg2" version="1.1" inkscape:version="0.47 r22583" sodipodi:docname="locotoy.svg" inkscape:output_extension="org.inkscape.output.svg.inkscape" inkscape:export-filename="D:\Cliparts\locotoy.png" inkscape:export-xdpi="96.276451" inkscape:export-ydpi="96.276451">
  <title id="title3365">Loco Train</title>
  <sodipodi:namedview id="base" pagecolor="#ffffff" bordercolor="#666666" borderopacity="1.0" inkscape:pageopacity="0.0" inkscape:pageshadow="2" inkscape:zoom="4.9166667" inkscape:cx="120" inkscape:cy="62" inkscape:document-units="px" inkscape:current-layer="layer1" showgrid="false" inkscape:window-width="1280" inkscape:window-height="977" inkscape:window-x="-4" inkscape:window-y="-4" inkscape:window-maximized="1" inkscape:showpageshadow="false" inkscape:snap-global="true" gridtolerance="10000" showguides="true" inkscape:guide-bbox="true" objecttolerance="10000">
    <inkscape:grid type="xygrid" id="grid3110" empspacing="5" visible="true" enabled="true" snapvisiblegridlinesonly="false"/>
  </sodipodi:namedview>
  <defs id="defs4"/>
  <metadata id="metadata7">
    <rdf:RDF>
      <cc:Work rdf:about="">
        <dc:format>image/svg+xml</dc:format>
        <dc:type rdf:resource="http://purl.org/dc/dcmitype/StillImage"/>
        <dc:title>Loco Train</dc:title>
        <dc:date>2009-11-30</dc:date>
        <dc:creator>
          <cc:Agent>
            <dc:title>Jean-Victor Balin</dc:title>
          </cc:Agent>
        </dc:creator>
        <dc:language>fr-FR</dc:language>
        <dc:subject>
          <rdf:Bag>
            <rdf:li>train</rdf:li>
            <rdf:li>toys</rdf:li>
            <rdf:li>transport</rdf:li>
            <rdf:li>children</rdf:li>
            <rdf:li>game</rdf:li>
            <rdf:li>locomotive</rdf:li>
            <rdf:li>railway</rdf:li>
          </rdf:Bag>
        </dc:subject>
        <dc:description>jean.victor.balin@gmail.com</dc:description>
        <cc:license rdf:resource="http://creativecommons.org/licenses/publicdomain/"/>
      </cc:Work>
      <cc:License rdf:about="http://creativecommons.org/licenses/publicdomain/">
        <cc:permits rdf:resource="http://creativecommons.org/ns#Reproduction"/>
        <cc:permits rdf:resource="http://creativecommons.org/ns#Distribution"/>
        <cc:permits rdf:resource="http://creativecommons.org/ns#DerivativeWorks"/>
      </cc:License>
    </rdf:RDF>
  </metadata>
  <g inkscape:label="Calque 1" inkscape:groupmode="layer" id="layer1" transform="translate(0, -928.362)">
    <g id="g2980">
      <path id="rect6969" d="m 164.44891,978.93509 6.20194,0 c 1.32906,0 2.39903,1.06997 2.39903,2.39903 l 0,40.20198 c 0,1.329 -1.06997,2.399 -2.39903,2.399 l -6.20194,0 c -1.32906,0 -2.39903,-1.07 -2.39903,-2.399 l 0,-40.20198 c 0,-1.32906 1.06997,-2.39903 2.39903,-2.39903 z" style="fill: rgb(214, 150, 0); fill-opacity: 1; fill-rule: nonzero; stroke: none;"/>
      <path id="rect6969-1" d="m 166.03779,979.93509 3.02417,0 c 1.32906,0 2.39902,1.06997 2.39902,2.39903 l 0,38.20198 c 0,1.329 -1.06996,2.399 -2.39902,2.399 l -3.02417,0 c -1.32906,0 -2.39903,-1.07 -2.39903,-2.399 l 0,-38.20198 c 0,-1.32906 1.06997,-2.39903 2.39903,-2.39903 z" style="fill: rgb(255, 213, 67); fill-opacity: 1; fill-rule: nonzero; stroke: none;"/>
      <path id="rect6969-1-4-0" d="m 166.04988,979.93509 c -1.32906,0 -2.40625,1.07719 -2.40625,2.40625 l 0,38.18746 c 0,1.0799 0.70974,1.9784 1.6875,2.2813 -0.37394,-0.4228 -0.625,-0.9823 -0.625,-1.5938 l 0,-38.18746 c 0,-1.32906 1.07719,-2.40625 2.40625,-2.40625 l 3.03125,0 c 0.25437,0 0.48905,0.0523 0.71875,0.125 -0.439,-0.49899 -1.09259,-0.8125 -1.8125,-0.8125 l -3,0 z" style="fill: rgb(255, 231, 145); fill-opacity: 1; fill-rule: nonzero; stroke: none;"/>
      <path id="rect6969-4" d="m 209.03781,978.93509 6.20194,0 c 1.32906,0 2.39903,1.06997 2.39903,2.39903 l 0,40.20198 c 0,1.329 -1.06997,2.399 -2.39903,2.399 l -6.20194,0 c -1.32907,0 -2.39903,-1.07 -2.39903,-2.399 l 0,-40.20198 c 0,-1.32906 1.06996,-2.39903 2.39903,-2.39903 z" style="fill: rgb(214, 150, 0); fill-opacity: 1; fill-rule: nonzero; stroke: none;"/>
      <path id="rect6969-1-9" d="m 210.62669,979.93509 3.02416,0 c 1.32907,0 2.39903,1.06997 2.39903,2.39903 l 0,38.20198 c 0,1.329 -1.06996,2.399 -2.39903,2.399 l -3.02416,0 c -1.32906,0 -2.39903,-1.07 -2.39903,-2.399 l 0,-38.20198 c 0,-1.32906 1.06997,-2.39903 2.39903,-2.39903 z" style="fill: rgb(255, 213, 67); fill-opacity: 1; fill-rule: nonzero; stroke: none;"/>
      <path id="rect6969-1-4-0-7" d="m 210.63391,979.93509 c -1.32906,0 -2.40625,1.07719 -2.40625,2.40625 l 0,38.18746 c 0,1.0799 0.70974,1.9784 1.6875,2.2813 -0.37394,-0.4228 -0.625,-0.9823 -0.625,-1.5938 l 0,-38.18746 c 0,-1.32906 1.07719,-2.40625 2.40625,-2.40625 l 3.03125,0 c 0.25437,0 0.48905,0.0523 0.71875,0.125 -0.439,-0.49899 -1.09259,-0.8125 -1.8125,-0.8125 l -3,0 z" style="fill: rgb(255, 231, 145); fill-opacity: 1; fill-rule: nonzero; stroke: none;"/>
      <path id="rect6562-63" d="m 146.44891,1008.9351 86.20194,0 c 1.32906,0 2.39903,1.07 2.39903,2.399 l 0,5.202 c 0,1.329 -1.06997,2.399 -2.39903,2.399 l -86.20194,0 c -1.32906,0 -2.39903,-1.07 -2.39903,-2.399 l 0,-5.202 c 0,-1.329 1.06997,-2.399 2.39903,-2.399 z" style="fill: rgb(92, 53, 102); fill-opacity: 1; fill-rule: nonzero; stroke: none;"/>
      <path id="path7072" d="m 146.47,1010.0288 c -0.74884,0 -1.3125,0.5498 -1.3125,1.2813 l 0,5.2187 c 0,0.7315 0.581,1.3125 1.3125,1.3125 l 86.1875,0 c 0.7315,0 1.3125,-0.581 1.3125,-1.3125 l 0,-5.2187 c 0,-0.7315 -0.56366,-1.2813 -1.3125,-1.2813 l -86.1875,0 z" style="fill: rgb(117, 80, 123); fill-opacity: 1; fill-rule: nonzero; stroke: none;"/>
      <path id="rect6562-63-2" d="m 146.44891,998.93509 86.20194,0 c 1.32906,0 2.39903,1.07001 2.39903,2.39901 l 0,5.202 c 0,1.329 -1.06997,2.399 -2.39903,2.399 l -86.20194,0 c -1.32906,0 -2.39903,-1.07 -2.39903,-2.399 l 0,-5.202 c 0,-1.329 1.06997,-2.39901 2.39903,-2.39901 z" style="fill: rgb(206, 92, 0); fill-opacity: 1; fill-rule: nonzero; stroke: none;"/>
      <path id="path7072-9" d="m 146.38178,999.93506 c -0.75009,0 -1.3147,0.56284 -1.3147,1.31174 l 0,5.3432 c 0,0.7489 0.58198,1.3438 1.3147,1.3438 l 86.33205,0 c 0.73273,0 1.3147,-0.5949 1.3147,-1.3438 l 0,-5.3432 c 0,-0.7489 -0.56461,-1.31174 -1.3147,-1.31174 l -86.33205,0 z" style="fill: rgb(245, 121, 0); fill-opacity: 1; fill-rule: nonzero; stroke: none;"/>
      <path id="rect6562-63-5" d="m 146.44891,988.93509 86.22325,0 c 1.32906,0 2.39903,1.06997 2.39903,2.39903 l 0,5.20195 c 0,1.32907 -1.06997,2.39903 -2.39903,2.39903 l -86.22325,0 c -1.32906,0 -2.39903,-1.06996 -2.39903,-2.39903 l 0,-5.20195 c 0,-1.32906 1.06997,-2.39903 2.39903,-2.39903 z" style="fill: rgb(78, 154, 6); fill-opacity: 1; fill-rule: nonzero; stroke: none;"/>
      <path id="path7072-98" d="m 146.38777,989.93505 c -0.75041,0 -1.31526,0.56023 -1.31526,1.30568 l 0,5.31825 c 0,0.74544 0.58222,1.33752 1.31526,1.33752 l 86.36818,0 c 0.73303,0 1.31525,-0.59208 1.31525,-1.33752 l 0,-5.31825 c 0,-0.74545 -0.56484,-1.30568 -1.31525,-1.30568 l -86.36818,0 z" style="fill: rgb(115, 210, 22); fill-opacity: 1; fill-rule: nonzero; stroke: none;"/>
      <path sodipodi:nodetypes="ccscc" id="rect3649-4" d="m 129.04988,1026.9351 105,0 c 2,0 2,5 0,5 0,0 -105,0 -105,0 l 0,-5 z" style="fill: rgb(90, 81, 72); fill-opacity: 1; fill-rule: nonzero; stroke: none;"/>
      <path sodipodi:nodetypes="ccccc" id="rect4566" d="m 8.0498787,946.93509 21.0000003,0 -1,35 -10,5 -10.0000003,-40 z" style="fill: rgb(214, 150, 0); fill-opacity: 1; fill-rule: nonzero; stroke: none;"/>
      <path id="path4619" d="m 10.299879,948.69791 8.9375,35.6875 7.09375,-3.53125 0.90625,-32.15625 -16.9375,0 z" style="fill: rgb(255, 213, 67); fill-opacity: 1; fill-rule: nonzero; stroke: none;"/>
      <path id="rect3649" d="m 18.049879,1026.9351 105.000001,0 0,5 -105.000001,0 0,-5 z" style="fill: rgb(90, 81, 72); fill-opacity: 1; fill-rule: nonzero; stroke: none;"/>
      <path sodipodi:nodetypes="ccccc" id="rect3536" d="m 18.049879,1026.9351 10,0 -3,22 -25.0000003,0 18.0000003,-22 z" style="fill: rgb(90, 81, 72); fill-opacity: 1; fill-rule: nonzero; stroke: none;"/>
      <path sodipodi:nodetypes="ccccc" id="rect3536-2-2-1-6-8" d="m 27.049879,1026.9351 -3,19 -7,2 7,-21 3,0 z" style="fill: rgb(141, 124, 106); fill-opacity: 1; fill-rule: nonzero; stroke: none;"/>
      <g transform="matrix(0.868716, 0, 0, 1.67091, 16.5423, -449.689)" id="g3532">
        <path id="path3167-4-2" d="m 80,131 c 0,13.80712 -11.192881,25 -25,25 -13.807119,0 -25,-11.19288 -25,-25 0,-13.80712 11.192881,-25 25,-25 13.807119,0 25,11.19288 25,25 z" style="fill: rgb(214, 150, 0); fill-opacity: 1; fill-rule: nonzero; stroke: none;" transform="matrix(0.379696, 0, 0, 0.239391, -30.3756, 838.002)"/>
        <path id="path3260-7" d="m 55,109.84375 c -11.729571,0 -21.15625,9.42668 -21.15625,21.15625 0,11.72957 9.426679,21.15625 21.15625,21.15625 11.729571,0 21.15625,-9.42668 21.15625,-21.15625 0,-11.72957 -9.426679,-21.15625 -21.15625,-21.15625 z" style="fill: rgb(255, 213, 67); fill-opacity: 1; fill-rule: nonzero; stroke: none;" transform="matrix(0.379696, 0, 0, 0.239391, -30.3756, 838.002)"/>
      </g>
      <path id="path3260-1-4-6" d="m 2.1443337,1003.7929 c -0.807393,-4.02151 1.776877,-7.90414 5.798348,-8.71154 0.427881,-0.0859 0.85849,-0.11805 1.279658,-0.12953 -4.308251,1.05861 -7.040974,5.29807 -6.158899,9.69147 0.241189,1.2013 0.739813,2.2732 1.407655,3.2045 -1.147647,-1.0284 -1.998421,-2.4195 -2.326762,-4.0549 z" style="fill: rgb(255, 231, 145); fill-opacity: 1; fill-rule: nonzero; stroke: none;"/>
      <path sodipodi:nodetypes="ccccc" id="rect3112" d="m 53.049879,941.93509 c 0,0 46.27937,-14.55144 60.000001,0 5,30 5,40 0,85.00001 -10,0 -50.000001,0 -50.000001,0 l -10,-85.00001 z" style="fill: rgb(164, 0, 0); fill-opacity: 1; fill-rule: nonzero; stroke: none;"/>
      <path sodipodi:nodetypes="ccccc" id="rect4811" d="m 13.408497,953.34195 2.909522,-0.2771 3.740816,28.67959 -0.831292,0.76201 -5.819046,-29.1645 z" style="fill: rgb(255, 231, 145); fill-opacity: 1; fill-rule: nonzero; stroke: none;"/>
      <path sodipodi:nodetypes="ccccc" id="rect3118" d="m 13.049879,986.93509 c 1.945446,-2.21267 4.384833,-4.046 7.176996,-5.55827 2.558182,-1.38554 5.412494,-2.50159 8.454369,-3.39298 2.836383,-0.83118 5.835843,-1.46702 8.910363,-1.94389 2.979954,-0.4622 6.030421,-0.77505 9.07126,-0.97165 3.0776,-0.19898 6.145337,-0.27888 9.120128,-0.27403 3.180064,0.005 6.253912,0.10725 9.120045,0.26425 3.375828,0.18491 6.463496,0.44605 9.097158,0.71491 5.523223,0.56384 9.049681,1.16166 9.049681,1.16166 0,0 0,4.12247 0,9.99995 0,2.9844 0,6.42129 0,10.00073 0,3.29303 0,6.70663 0,9.99963 0,3.5789 0,7.0153 0,9.9993 0,5.8777 0,10.0004 0,10.0004 0,0 -3.678288,0 -9.284848,0 -2.710613,0 -5.871949,0 -9.286242,0 -2.948875,0 -6.086444,0 -9.285291,0 -3.076571,0 -6.209824,0 -9.286405,0 -3.199112,0 -6.336947,0 -9.28606,0 -3.413896,0 -6.574896,0 -9.285303,0 -5.607124,0 -9.285851,0 -9.285851,0 0,0 -2.35124,-2.8785 -4.814427,-7.311 -1.278471,-2.3005 -2.587099,-5.0197 -3.6127803,-7.9723 -0.937312,-2.6981 -1.638332,-5.5912 -1.86411,-8.5378 -0.220643,-2.8796 0.01258,-5.81039 0.9227,-8.66036 0.832675,-2.60748 2.2319503,-5.14734 4.3686173,-7.51855 0,0 0,0 0,0" style="fill: rgb(164, 0, 0); fill-opacity: 1; fill-rule: nonzero; stroke: none;"/>
      <path sodipodi:nodetypes="ccccccssccccccc" id="path3382" d="m 90.700408,938.64321 c -2.970293,0.0329 -5.991095,0.24052 -8.952472,0.56028 -3.063871,0.33083 -6.064133,0.78168 -8.879038,1.28322 -3.23332,0.57608 -6.222084,1.21905 -8.781789,1.82381 -4.82508,1.13998 -8.125588,2.14421 -8.665703,2.30888 0,0 0.384802,3.24684 0.903242,7.62128 0.27583,2.32737 0.589487,4.97392 0.903148,7.62049 0.313689,2.64681 0.627382,5.29365 0.903239,7.62126 0.51846,4.3746 0.903281,7.6216 0.903281,7.6216 0.06286,0.60075 -0.485607,1.19143 -1.092981,1.17713 -2.669135,-0.0559 -5.611788,-0.0125 -8.629726,0.13635 -2.855702,0.14085 -5.778812,0.37609 -8.60138,0.71082 -3.019392,0.35807 -5.923732,0.82998 -8.507424,1.422 -2.164795,0.56285 -4.363553,1.3192 -6.466733,2.21476 -2.16853,0.92338 -4.235448,1.99476 -6.058755,3.15463 -2.152345,1.36918 -3.965227,2.86169 -5.205047,4.37965 -1.616057,1.89279 -2.770848,3.59577 -3.568384,5.27952 -0.9409933,1.98662 -1.3846563,3.94648 -1.5018343,6.15976 -0.10853,2.05005 0.09152,4.13885 0.504802,6.19505 0.4110683,2.0451 1.0330863,4.0581 1.7722423,5.9686 0.993234,2.5673 2.160421,4.8991 3.274523,6.8665 2.045565,3.6122 3.912115,5.9961 4.194182,6.3536 0,0 3.69414,-0.023 8.96095,-0.055 2.674317,-0.016 5.754113,-0.036 8.961651,-0.055 2.950868,-0.018 6.009851,-0.037 8.960695,-0.055 3.207058,-0.02 6.286384,-0.039 8.960359,-0.055 5.267009,-0.033 8.961323,-0.055 8.961323,-0.055 0,0 4.857694,0 9.715388,0 4.857694,0 9.715388,0 9.715388,0 0,0 4.218876,0 9.391531,0 3.021983,0 6.369503,0 9.391494,0 5.17268,0 9.3916,0 9.3916,0 0.35069,-3.15 0.67524,-6.12 0.97363,-8.931 0.33665,-3.1716 0.64001,-6.1408 0.91006,-8.938 0.30812,-3.1915 0.57287,-6.159 0.79425,-8.94744 0.25414,-3.20124 0.45111,-6.16653 0.59087,-8.96381 0.15871,-3.1764 0.24365,-6.13618 0.25477,-8.97885 0.0121,-3.08877 -0.063,-6.03927 -0.22525,-8.97918 -0.16288,-2.95091 -0.41364,-5.89125 -0.75233,-8.95002 -0.3137,-2.83306 -0.70283,-5.76771 -1.16744,-8.90657 -0.41066,-2.77433 -0.88029,-5.70818 -1.40892,-8.87239 -1.61805,-1.63528 -3.7578,-2.86975 -6.26643,-3.76662 -2.15639,-0.77093 -4.58534,-1.29241 -7.189801,-1.60455 -2.33893,-0.28032 -4.819412,-0.39182 -7.371133,-0.36356 0,0 -4.8e-5,0 -4.8e-5,0 0,0 0,0 0,0" style="fill: rgb(239, 41, 42); fill-opacity: 1; fill-rule: nonzero; stroke: none;"/>
      <path style="fill: rgb(164, 0, 0); fill-opacity: 1; fill-rule: nonzero; stroke: none;" d="m 86.549879,945.60416 c -11.1149,0.49856 -22.4375,4.40625 -22.4375,4.40625 a 1.1093715,1.1093715 0 0 0 -0.71875,1.1875 l 2.96875,26.96875 a 1.1093715,1.1093715 0 0 0 0.875,0.96875 c 0,0 7.90671,1.5058 16.625,3.03125 4.359145,0.76272 8.924278,1.55127 12.8125,2.125 3.888221,0.57373 7.051991,0.9375 8.843751,0.9375 a 1.1093715,1.1093715 0 0 0 1.09375,-1.09375 c 0,-4.89716 0.71015,-11.94411 0.78125,-18.40625 0.0356,-3.23107 -0.0694,-6.30363 -0.53125,-8.96875 -0.46186,-2.66512 -1.25876,-4.94626 -2.78125,-6.46875 -4.132631,-4.13263 -10.863713,-4.98657 -17.531251,-4.6875 z" id="path3419"/>
      <path style="fill: rgb(164, 0, 0); fill-opacity: 1; fill-rule: nonzero; stroke: none;" d="m 76.712464,930.04348 c -14.437462,2.90983 -28.203443,10.22332 -35.948355,20.84434 -1.035715,1.42033 -1.079127,2.93889 -0.967592,4.43202 0.05577,0.74657 0.137185,1.45267 0.618938,2.22243 0.240877,0.38488 0.641151,0.84563 1.265016,1.07271 0.623865,0.22709 1.373671,0.13475 1.87627,-0.10421 28.506216,-13.55291 32.772364,-14.02972 73.065459,-13.93701 0.55948,10e-4 1.21124,-0.20399 1.66031,-0.58147 0.44907,-0.37745 0.68412,-0.84527 0.82077,-1.2656 0.27331,-0.84066 0.21748,-1.60288 0.0907,-2.34095 -0.25371,-1.47614 -0.68789,-2.9122 -2.12275,-3.9585 -10.68757,-7.79344 -25.921266,-9.29359 -40.358726,-6.38376 z" id="path3165"/>
      <path id="path3167" d="m 113.04988,1026.9351 c 0,13.8071 -11.19288,25 -25.000001,25 -13.807119,0 -25,-11.1929 -25,-25 0,-13.8071 11.192881,-25 25,-25 13.807121,0 25.000001,11.1929 25.000001,25 z" style="fill: rgb(214, 150, 0); fill-opacity: 1; fill-rule: nonzero; stroke: none;"/>
      <path id="path3167-4" d="m 60.549879,1034.4351 c 0,9.665 -7.835017,17.5 -17.5,17.5 -9.664983,0 -17.5,-7.835 -17.5,-17.5 0,-9.665 7.835017,-17.5 17.5,-17.5 9.664983,0 17.5,7.835 17.5,17.5 z" style="fill: rgb(214, 150, 0); fill-opacity: 1; fill-rule: nonzero; stroke: none;"/>
      <path id="path3236" d="m 88.049879,1005.5913 c -11.825968,0 -21.34375,9.5178 -21.34375,21.3438 0,11.826 9.517782,21.3437 21.34375,21.3437 11.82597,0 21.343751,-9.5177 21.343751,-21.3437 0,-11.826 -9.517781,-21.3438 -21.343751,-21.3438 z" style="fill: rgb(255, 213, 67); fill-opacity: 1; fill-rule: nonzero; stroke: none;"/>
      <path id="path3260" d="m 43.049879,1019.6257 c -8.2107,0 -14.809375,6.5987 -14.809375,14.8094 0,8.2107 6.598675,14.8094 14.809375,14.8094 8.2107,0 14.809375,-6.5987 14.809375,-14.8094 0,-8.2107 -6.598675,-14.8094 -14.809375,-14.8094 z" style="fill: rgb(255, 213, 67); fill-opacity: 1; fill-rule: nonzero; stroke: none;"/>
      <path style="fill: rgb(115, 159, 208); fill-opacity: 1; fill-rule: nonzero; stroke: none;" d="m 86.674879,947.22916 c -10.298759,0.46195 -20.704847,3.92555 -21.65625,4.25 l 2.90625,26.25 c 0.317295,0.0611 7.728182,1.47768 16.25,2.96875 4.35103,0.7613 8.885165,1.52347 12.75,2.09375 3.618911,0.53399 6.546751,0.86203 8.187501,0.90625 0.0377,-5.00479 0.68202,-11.73532 0.75,-17.90625 0.035,-3.17663 -0.0969,-6.18413 -0.53125,-8.6875 -0.43433,-2.50337 -1.17481,-4.48731 -2.3125,-5.625 -3.592961,-3.59296 -9.869888,-4.54039 -16.343751,-4.25 z" id="path3423"/>
      <path id="path3236-8" d="m 88.049879,1009.4351 c -9.754534,0 -17.5,7.7454 -17.5,17.5 0,9.7545 7.745466,17.5 17.5,17.5 9.75453,0 17.500001,-7.7455 17.500001,-17.5 0,-9.7546 -7.745471,-17.5 -17.500001,-17.5 z" style="fill: rgb(141, 124, 106); fill-opacity: 1; fill-rule: nonzero; stroke: none;"/>
      <path id="path3260-1-3-8-1" d="m 89.123869,1011.6914 c 7.69571,0 13.883431,6.1877 13.883431,13.8835 0,0.8188 -0.0999,1.6228 -0.23432,2.4017 -0.35621,-8.316 -7.145411,-14.9085 -15.552947,-14.9085 -2.29891,0 -4.45475,0.5213 -6.41449,1.4059 2.3155,-1.7313 5.18875,-2.7826 8.318326,-2.7826 z" style="fill: rgb(168, 146, 122); fill-opacity: 1; fill-rule: nonzero; stroke: none;"/>
      <path id="path3260-2" d="m 43.049879,1028.1351 c -3.613164,0 -6.3,2.6868 -6.3,6.3 0,3.6132 2.686836,6.3 6.3,6.3 3.613164,0 6.3,-2.6868 6.3,-6.3 0,-3.6132 -2.686836,-6.3 -6.3,-6.3 z" style="fill: rgb(141, 124, 106); fill-opacity: 1; fill-rule: nonzero; stroke: none;"/>
      <path id="path3260-1-4-2" d="m 43.606188,1043.3422 c 4.101722,0 7.399704,-3.298 7.399704,-7.3997 0,-0.4364 -0.05325,-0.8649 -0.12489,-1.2801 -0.189853,4.4323 -3.80842,7.9461 -8.289542,7.9461 -1.225289,0 -2.374329,-0.2779 -3.41885,-0.7494 1.234139,0.9228 2.765545,1.4831 4.433578,1.4831 z" style="fill: rgb(255, 231, 145); fill-opacity: 1; fill-rule: nonzero; stroke: none;"/>
      <path id="rect3354" d="m 45.133269,1035.3659 38.278336,-20.3918 1.493162,2.3447 -38.278344,20.3919 -1.493154,-2.3448 z" style="fill: rgb(49, 44, 41); fill-opacity: 1; fill-rule: nonzero; stroke: none;"/>
      <path id="path3260-1-3-8-3-9" d="m 88.616202,1017.3374 c 5.114858,0 9.227447,4.1126 9.227447,9.2275 0,0.5442 -0.0664,1.0786 -0.15573,1.5963 -0.23675,-5.5271 -4.749114,-9.9088 -10.337084,-9.9088 -1.52794,0 -2.960796,0.3465 -4.263316,0.9344 1.538974,-1.1507 3.448642,-1.8494 5.528683,-1.8494 z" style="fill: rgb(168, 146, 122); fill-opacity: 1; fill-rule: nonzero; stroke: none;"/>
      <path id="path3330" d="m 90.956295,1012.8896 c 1.372099,2.6501 -1.151199,6.6808 -5.635932,9.0027 -4.484743,2.3221 -9.232647,2.0562 -10.604763,-0.5935 -1.3721,-2.6501 1.151189,-6.6808 5.63593,-9.0027 4.484743,-2.3221 9.232649,-2.0562 10.604765,0.5935 z" style="fill: rgb(90, 81, 72); fill-opacity: 1; fill-rule: nonzero; stroke: none;"/>
      <path id="path3330-4" d="m 47.088577,1035.8636 c 0.57239,1.0575 -0.414511,2.7001 -2.20422,3.6688 -1.78975,0.9687 -3.704632,0.8966 -4.277008,-0.161 -0.57239,-1.0575 0.414527,-2.7002 2.20422,-3.6688 1.789749,-0.9687 3.704618,-0.8965 4.277008,0.161 z" style="fill: rgb(90, 81, 72); fill-opacity: 1; fill-rule: nonzero; stroke: none;"/>
      <path sodipodi:nodetypes="cssss" id="rect3115" d="m 42.182648,951.92878 c 14.762522,-20.24464 53.588641,-28.85668 73.833292,-14.09416 1.34665,0.98199 2.27542,4.96664 0.60875,4.9628 -40.311178,-0.0927 -45.273982,0.51602 -73.833285,14.09417 -1.505209,0.71563 -1.590746,-3.61615 -0.608757,-4.96281 z" style="fill: rgb(239, 41, 42); fill-opacity: 1; fill-rule: nonzero; stroke: none;"/>
      <path sodipodi:nodetypes="ccccc" id="rect3536-2" d="m 20.049879,1026.9351 2,0 -14.0000003,20 -6,1 18.0000003,-21 z" style="fill: rgb(141, 124, 106); fill-opacity: 1; fill-rule: nonzero; stroke: none;"/>
      <path sodipodi:nodetypes="cccccc" id="rect3536-2-2-1-6" d="m 22.049879,1026.9346 1.999988,0.01 -7.999988,18.9935 -6,2 12,-21 0,-5e-4 z" style="fill: rgb(141, 124, 106); fill-opacity: 1; fill-rule: nonzero; stroke: none;"/>
      <path id="rect3651" d="m 123.04988,1024.9351 8,0 c 1.662,0 3,1.338 3,3 l 0,3 c 0,1.662 -1.338,3 -3,3 l -8,0 c -1.662,0 -3,-1.338 -3,-3 l 0,-3 c 0,-1.662 1.338,-3 3,-3 z" style="fill: rgb(141, 124, 106); fill-opacity: 1; fill-rule: nonzero; stroke: none;"/>
      <path id="rect3699" d="m 78.143629,948.21634 c -2.475473,0.43091 -4.754114,0.94401 -6.71875,1.4375 l 3,29.28125 c 1.291016,0.23796 2.956721,0.53375 4.5,0.8125 l -0.78125,-31.53125 z" style="fill: rgb(151, 184, 220); fill-opacity: 1; fill-rule: nonzero; stroke: none;"/>
      <path id="rect3699-1" d="m 80.362379,947.84134 c -0.421796,0.0611 -0.835667,0.1206 -1.25,0.1875 l 0.84375,31.90625 c 0.308551,0.0554 0.55996,0.0999 0.875,0.15625 l -0.46875,-32.25 z" style="fill: rgb(151, 184, 220); fill-opacity: 1; fill-rule: nonzero; stroke: none;"/>
      <path id="rect4571" d="m 6.5707307,944.56863 23.0835883,-2.34054 c 1.322282,-0.13407 2.494726,0.8225 2.628798,2.14478 l 0.524756,5.17541 c 0.134072,1.32228 -0.822501,2.49473 -2.144783,2.6288 l -23.0835883,2.34054 c -1.322282,0.13407 -2.494726,-0.8225 -2.628797,-2.14478 l -0.524757,-5.17541 c -0.134072,-1.32228 0.822501,-2.49473 2.144783,-2.6288 z" style="fill: rgb(214, 150, 0); fill-opacity: 1; fill-rule: nonzero; stroke: none;"/>
      <path id="path4595" d="m 6.7257767,946.04214 c -0.558428,0.0566 -0.895605,0.46059 -0.841298,0.9962 l 0.526452,5.19213 c 0.05431,0.5356 0.491685,0.89245 1.02729,0.83814 l 23.0692183,-2.33909 c 0.535606,-0.0543 0.892453,-0.49168 0.838146,-1.02729 l -0.526452,-5.19212 c -0.05431,-0.53561 -0.46571,-0.86368 -1.024138,-0.80706 l -23.0692183,2.33909 z" style="fill: rgb(255, 231, 145); fill-opacity: 1; fill-rule: nonzero; stroke: none;"/>
      <path id="path4621" d="m 46.444897,983.45361 c 1.037209,3.35419 -4.621485,8.08312 -12.639044,10.56238 -8.01756,2.47926 -15.357898,1.77 -16.395107,-1.58419 -1.037207,-3.35417 4.621485,-8.08311 12.639045,-10.56237 8.017559,-2.47925 15.357899,-1.76999 16.395106,1.58418 z" style="fill: rgb(244, 110, 111); fill-opacity: 1; fill-rule: nonzero; stroke: none;"/>
      <path style="fill: rgb(244, 110, 111); fill-opacity: 1; fill-rule: nonzero; stroke: none;" d="m 62.160259,939.76822 c -1.093492,-1.39593 3.795905,-4.01857 10.920768,-5.85782 7.124864,-1.83925 13.787154,-2.19863 14.880645,-0.80269 1.093488,1.39593 -3.795906,4.01857 -10.92077,5.85782 -7.124863,1.83925 -13.787156,2.19863 -14.880643,0.80269 z" id="path4621-9"/>
      <path id="path3236-8-4" d="m 88.049879,1023.6851 c -2.053249,0 -3.25,1.1967 -3.25,3.25 0,2.0532 1.196751,3.25 3.25,3.25 2.053249,0 3.25,-1.1968 3.25,-3.25 0,-2.0533 -1.196751,-3.25 -3.25,-3.25 z" style="fill: rgb(49, 44, 41); fill-opacity: 1; fill-rule: nonzero; stroke: none;"/>
      <path id="path3260-2-1" d="m 43.049879,1033.4254 c -0.579075,0 -1.009688,0.4306 -1.009688,1.0097 0,0.5791 0.430613,1.0097 1.009688,1.0097 0.579074,0 1.009688,-0.4306 1.009688,-1.0097 0,-0.5791 -0.430614,-1.0097 -1.009688,-1.0097 z" style="fill: rgb(49, 44, 41); fill-opacity: 1; fill-rule: nonzero; stroke: none;"/>
      <path id="rect4735" d="m 25.052612,951.26032 4.125,-0.40625 -0.71875,-7.03125 -4.125,0.40625 0.71875,7.03125 z" style="fill: rgb(255, 213, 67); fill-opacity: 1; fill-rule: nonzero; stroke: none;"/>
      <path id="rect4735-2" d="m 23.458862,951.41657 0.96875,-0.0937 -0.625,-7.03125 -0.96875,0.0937 0.625,7.03125 z" style="fill: rgb(255, 213, 67); fill-opacity: 1; fill-rule: nonzero; stroke: none;"/>
      <path id="path3260-1" d="m 41.219339,1022.614 c -5.527979,0 -9.972741,4.4447 -9.972741,9.9727 0,0.5882 0.07177,1.1657 0.168317,1.7253 0.255869,-5.9736 5.132689,-10.7092 11.171994,-10.7092 1.651349,0 3.199935,0.3745 4.607658,1.0099 -1.663275,-1.2436 -3.727184,-1.9987 -5.975228,-1.9987 z" style="fill: rgb(255, 231, 145); fill-opacity: 1; fill-rule: nonzero; stroke: none;"/>
      <path id="path3260-1-3" d="m 43.678307,1046.8107 c 5.527979,0 9.972741,-4.4448 9.972741,-9.9728 0,-0.5881 -0.07177,-1.1657 -0.168317,-1.7252 -0.255869,5.9735 -5.132689,10.7091 -11.171994,10.7091 -1.651349,0 -3.199935,-0.3745 -4.607658,-1.0099 1.663275,1.2437 3.727184,1.9988 5.975228,1.9988 z" style="fill: rgb(255, 231, 145); fill-opacity: 1; fill-rule: nonzero; stroke: none;"/>
      <path id="path3260-1-3-8" d="m 87.777546,1041.7871 c -7.695704,0 -13.883422,-6.1877 -13.883422,-13.8834 0,-0.8188 0.09991,-1.6228 0.234321,-2.4018 0.356205,8.316 7.145406,14.9086 15.552945,14.9086 2.298905,0 4.454749,-0.5214 6.414489,-1.4059 -2.315504,1.7313 -5.188748,2.7825 -8.318333,2.7825 z" style="fill: rgb(168, 146, 122); fill-opacity: 1; fill-rule: nonzero; stroke: none;"/>
      <path id="path3260-1-4" d="m 42.065752,1025.6888 c -4.101722,0 -7.399704,3.298 -7.399704,7.3997 0,0.4364 0.05325,0.8649 0.12489,1.2801 0.189853,-4.4323 3.80842,-7.9461 8.289542,-7.9461 1.225289,0 2.374329,0.2779 3.41885,0.7494 -1.234139,-0.9228 -2.765545,-1.4831 -4.433578,-1.4831 z" style="fill: rgb(255, 231, 145); fill-opacity: 1; fill-rule: nonzero; stroke: none;"/>
      <path id="path3260-1-3-8-3" d="m 88.305214,1036.6485 c -5.114858,0 -9.227451,-4.1126 -9.227451,-9.2274 0,-0.5442 0.0664,-1.0786 0.155739,-1.5963 0.236747,5.5271 4.749109,9.9088 10.337079,9.9088 1.52794,0 2.960796,-0.3465 4.263316,-0.9345 -1.538974,1.1507 -3.448642,1.8494 -5.528683,1.8494 z" style="fill: rgb(168, 146, 122); fill-opacity: 1; fill-rule: nonzero; stroke: none;"/>
      <path id="path5092" d="m 58.28781,980.25583 c 1.946114,5.16056 3.189175,11.26167 3.486677,17.83851 0.319042,7.05306 -0.508638,13.66366 -2.205112,19.22456 2.974784,-4.3299 4.709367,-11.282 4.357512,-19.06038 -0.335687,-7.42097 -2.527463,-13.90781 -5.639077,-18.00269 z" style="fill: rgb(204, 0, 1); fill-opacity: 1; fill-rule: nonzero; stroke: none;"/>
      <path sodipodi:nodetypes="ccccc" id="rect6562" d="m 141.44891,1018.9351 95.20194,0 c 4.39903,0 4.39903,8 0,8 l -95.20194,0 c -4.39903,0 -4.39903,-8 0,-8 z" style="fill: rgb(164, 0, 0); fill-opacity: 1; fill-rule: nonzero; stroke: none;"/>
      <path sodipodi:nodetypes="ccccc" id="path7329" d="m 141.04988,1019.9351 c -3,0 -3,6 0,6 9,0 88,0 96,0 3,0 3,-6 0,-6 -8,0 -87,0 -96,0 z" style="fill: rgb(239, 41, 42); fill-opacity: 1; fill-rule: nonzero; stroke: none;"/>
      <path id="path3167-4-0" d="m 184.92145,1034.5595 c 0,9.665 -7.83501,17.5 -17.5,17.5 -9.66498,0 -17.5,-7.835 -17.5,-17.5 0,-9.665 7.83502,-17.5 17.5,-17.5 9.66499,0 17.5,7.835 17.5,17.5 z" style="fill: rgb(214, 150, 0); fill-opacity: 1; fill-rule: nonzero; stroke: none;"/>
      <path id="path3260-28" d="m 167.42145,1019.7501 c -8.2107,0 -14.80937,6.5987 -14.80937,14.8094 0,8.2107 6.59867,14.8094 14.80937,14.8094 8.2107,0 14.80938,-6.5987 14.80938,-14.8094 0,-8.2107 -6.59868,-14.8094 -14.80938,-14.8094 z" style="fill: rgb(255, 213, 67); fill-opacity: 1; fill-rule: nonzero; stroke: none;"/>
      <path id="path3260-2-6" d="m 167.42145,1028.2595 c -3.61316,0 -6.3,2.6869 -6.3,6.3 0,3.6132 2.68684,6.3 6.3,6.3 3.61317,0 6.3,-2.6868 6.3,-6.3 0,-3.6131 -2.68683,-6.3 -6.3,-6.3 z" style="fill: rgb(141, 124, 106); fill-opacity: 1; fill-rule: nonzero; stroke: none;"/>
      <path id="path3260-1-4-2-0" d="m 167.97776,1043.4666 c 4.10172,0 7.3997,-3.2979 7.3997,-7.3997 0,-0.4364 -0.0533,-0.8649 -0.12489,-1.2801 -0.18985,4.4324 -3.80842,7.9461 -8.28954,7.9461 -1.22529,0 -2.37433,-0.2779 -3.41885,-0.7493 1.23414,0.9227 2.76555,1.483 4.43358,1.483 z" style="fill: rgb(255, 231, 145); fill-opacity: 1; fill-rule: nonzero; stroke: none;"/>
      <path id="path3260-2-1-8" d="m 167.42145,1033.5498 c -0.57907,0 -1.00969,0.4307 -1.00969,1.0097 0,0.5791 0.43062,1.0097 1.00969,1.0097 0.57908,0 1.00969,-0.4306 1.00969,-1.0097 0,-0.579 -0.43061,-1.0097 -1.00969,-1.0097 z" style="fill: rgb(49, 44, 41); fill-opacity: 1; fill-rule: nonzero; stroke: none;"/>
      <path id="path3260-1-6" d="m 165.59091,1022.7384 c -5.52798,0 -9.97274,4.4448 -9.97274,9.9728 0,0.5881 0.0718,1.1656 0.16832,1.7252 0.25587,-5.9736 5.13269,-10.7091 11.17199,-10.7091 1.65135,0 3.19994,0.3745 4.60766,1.0099 -1.66328,-1.2437 -3.72718,-1.9988 -5.97523,-1.9988 z" style="fill: rgb(255, 231, 145); fill-opacity: 1; fill-rule: nonzero; stroke: none;"/>
      <path id="path3260-1-3-5" d="m 168.04988,1046.9351 c 5.52798,0 9.97274,-4.4448 9.97274,-9.9727 0,-0.5882 -0.0718,-1.1657 -0.16832,-1.7253 -0.25587,5.9736 -5.13269,10.7091 -11.17199,10.7091 -1.65135,0 -3.19993,-0.3745 -4.60766,-1.0099 1.66328,1.2437 3.72719,1.9988 5.97523,1.9988 z" style="fill: rgb(255, 231, 145); fill-opacity: 1; fill-rule: nonzero; stroke: none;"/>
      <path id="path3260-1-4-0" d="m 166.43733,1025.8132 c -4.10173,0 -7.39971,3.298 -7.39971,7.3997 0,0.4365 0.0532,0.865 0.12489,1.2802 0.18985,-4.4324 3.80842,-7.9461 8.28954,-7.9461 1.22529,0 2.37433,0.2778 3.41885,0.7493 -1.23414,-0.9228 -2.76554,-1.4831 -4.43357,-1.4831 z" style="fill: rgb(255, 231, 145); fill-opacity: 1; fill-rule: nonzero; stroke: none;"/>
      <path id="path3167-4-0-0" d="m 229.92145,1034.5595 c 0,9.665 -7.83501,17.5 -17.5,17.5 -9.66498,0 -17.5,-7.835 -17.5,-17.5 0,-9.665 7.83502,-17.5 17.5,-17.5 9.66499,0 17.5,7.835 17.5,17.5 z" style="fill: rgb(214, 150, 0); fill-opacity: 1; fill-rule: nonzero; stroke: none;"/>
      <path id="path3260-28-0" d="m 212.42145,1019.7501 c -8.2107,0 -14.80937,6.5987 -14.80937,14.8094 0,8.2107 6.59867,14.8094 14.80937,14.8094 8.2107,0 14.80938,-6.5987 14.80938,-14.8094 0,-8.2107 -6.59868,-14.8094 -14.80938,-14.8094 z" style="fill: rgb(255, 213, 67); fill-opacity: 1; fill-rule: nonzero; stroke: none;"/>
      <path id="path3260-2-6-6" d="m 212.42145,1028.2595 c -3.61316,0 -6.3,2.6869 -6.3,6.3 0,3.6132 2.68684,6.3 6.3,6.3 3.61317,0 6.3,-2.6868 6.3,-6.3 0,-3.6131 -2.68683,-6.3 -6.3,-6.3 z" style="fill: rgb(141, 124, 106); fill-opacity: 1; fill-rule: nonzero; stroke: none;"/>
      <path id="path3260-1-4-2-0-1" d="m 212.97776,1043.4666 c 4.10172,0 7.3997,-3.2979 7.3997,-7.3997 0,-0.4364 -0.0533,-0.8649 -0.12489,-1.2801 -0.18985,4.4324 -3.80842,7.9461 -8.28954,7.9461 -1.22529,0 -2.37433,-0.2779 -3.41885,-0.7493 1.23414,0.9227 2.76555,1.483 4.43358,1.483 z" style="fill: rgb(255, 231, 145); fill-opacity: 1; fill-rule: nonzero; stroke: none;"/>
      <path id="path3260-2-1-8-3" d="m 212.42145,1033.5498 c -0.57907,0 -1.00969,0.4307 -1.00969,1.0097 0,0.5791 0.43062,1.0097 1.00969,1.0097 0.57908,0 1.00969,-0.4306 1.00969,-1.0097 0,-0.579 -0.43061,-1.0097 -1.00969,-1.0097 z" style="fill: rgb(49, 44, 41); fill-opacity: 1; fill-rule: nonzero; stroke: none;"/>
      <path id="path3260-1-6-8" d="m 210.59091,1022.7384 c -5.52798,0 -9.97274,4.4448 -9.97274,9.9728 0,0.5881 0.0718,1.1656 0.16832,1.7252 0.25587,-5.9736 5.13269,-10.7091 11.17199,-10.7091 1.65135,0 3.19994,0.3745 4.60766,1.0099 -1.66328,-1.2437 -3.72718,-1.9988 -5.97523,-1.9988 z" style="fill: rgb(255, 231, 145); fill-opacity: 1; fill-rule: nonzero; stroke: none;"/>
      <path id="path3260-1-3-5-9" d="m 213.04988,1046.9351 c 5.52798,0 9.97274,-4.4448 9.97274,-9.9727 0,-0.5882 -0.0718,-1.1657 -0.16832,-1.7253 -0.25587,5.9736 -5.13269,10.7091 -11.17199,10.7091 -1.65135,0 -3.19993,-0.3745 -4.60766,-1.0099 1.66328,1.2437 3.72719,1.9988 5.97523,1.9988 z" style="fill: rgb(255, 231, 145); fill-opacity: 1; fill-rule: nonzero; stroke: none;"/>
      <path id="path3260-1-4-0-3" d="m 211.43733,1025.8132 c -4.10173,0 -7.39971,3.298 -7.39971,7.3997 0,0.4365 0.0532,0.865 0.12489,1.2802 0.18985,-4.4324 3.80842,-7.9461 8.28954,-7.9461 1.22529,0 2.37433,0.2778 3.41885,0.7493 -1.23414,-0.9228 -2.76554,-1.4831 -4.43357,-1.4831 z" style="fill: rgb(255, 231, 145); fill-opacity: 1; fill-rule: nonzero; stroke: none;"/>
    </g>
  </g>
</svg>