<?xml version="1.0" encoding="UTF-8" standalone="no"?>
<!-- Created with Inkscape (http://www.inkscape.org/) -->
<svg xmlns:dc="http://purl.org/dc/elements/1.1/" xmlns:cc="http://creativecommons.org/ns#" xmlns:rdf="http://www.w3.org/1999/02/22-rdf-syntax-ns#" xmlns:svg="http://www.w3.org/2000/svg" xmlns="http://www.w3.org/2000/svg" xmlns:sodipodi="http://sodipodi.sourceforge.net/DTD/sodipodi-0.dtd" xmlns:inkscape="http://www.inkscape.org/namespaces/inkscape" width="896.16241" height="423.73257" id="svg2" sodipodi:version="0.32" inkscape:version="0.45.1+0.46pre1+devel" sodipodi:docname="Snowmobil.svg" inkscape:output_extension="org.inkscape.output.svg.inkscape" version="1.0" inkscape:export-filename="C:\Documents and Settings\Dan\Skrivbord\Clipart egna (InkScape)\Original\Kanske Upload\Snowmobil.png" inkscape:export-xdpi="310" inkscape:export-ydpi="310">
  <defs id="defs4">
    <inkscape:perspective sodipodi:type="inkscape:persp3d" inkscape:vp_x="-50 : 600 : 1" inkscape:vp_y="0 : 1000 : 0" inkscape:vp_z="700 : 600 : 1" inkscape:persp3d-origin="300 : 400 : 1" id="perspective10"/>
    <inkscape:perspective id="perspective2395" inkscape:persp3d-origin="300 : 400 : 1" inkscape:vp_z="700 : 600 : 1" inkscape:vp_y="0 : 1000 : 0" inkscape:vp_x="-50 : 600 : 1" sodipodi:type="inkscape:persp3d"/>
    <filter inkscape:collect="always" id="filter3359">
      <feGaussianBlur inkscape:collect="always" stdDeviation="0.92236288" id="feGaussianBlur3361"/>
    </filter>
    <filter inkscape:collect="always" id="filter3363" x="-0.12732632" width="1.2546527" y="-0.21717773" height="1.4343555">
      <feGaussianBlur inkscape:collect="always" stdDeviation="0.92236288" id="feGaussianBlur3365"/>
    </filter>
    <filter inkscape:collect="always" id="filter3399">
      <feGaussianBlur inkscape:collect="always" stdDeviation="0.21024378" id="feGaussianBlur3401"/>
    </filter>
    <filter inkscape:collect="always" id="filter3403">
      <feGaussianBlur inkscape:collect="always" stdDeviation="0.21024378" id="feGaussianBlur3405"/>
    </filter>
    <filter inkscape:collect="always" id="filter3407">
      <feGaussianBlur inkscape:collect="always" stdDeviation="0.21024378" id="feGaussianBlur3409"/>
    </filter>
    <filter inkscape:collect="always" id="filter3411">
      <feGaussianBlur inkscape:collect="always" stdDeviation="0.21024378" id="feGaussianBlur3413"/>
    </filter>
    <filter inkscape:collect="always" id="filter3563" x="-0.18527558" width="1.3705512" y="-0.20173226" height="1.4034646">
      <feGaussianBlur inkscape:collect="always" stdDeviation="0.72575731" id="feGaussianBlur3565"/>
    </filter>
    <filter inkscape:collect="always" id="filter3567" x="-0.23759229" width="1.4751846" y="-0.1764797" height="1.3529594">
      <feGaussianBlur inkscape:collect="always" stdDeviation="0.72575731" id="feGaussianBlur3569"/>
    </filter>
    <filter inkscape:collect="always" id="filter3571">
      <feGaussianBlur inkscape:collect="always" stdDeviation="0.72575731" id="feGaussianBlur3573"/>
    </filter>
    <filter inkscape:collect="always" id="filter3625">
      <feGaussianBlur inkscape:collect="always" stdDeviation="0.53008039" id="feGaussianBlur3627"/>
    </filter>
    <filter inkscape:collect="always" id="filter3655">
      <feGaussianBlur inkscape:collect="always" stdDeviation="0.46251211" id="feGaussianBlur3657"/>
    </filter>
    <filter inkscape:collect="always" id="filter3689">
      <feGaussianBlur inkscape:collect="always" stdDeviation="0.44159187" id="feGaussianBlur3691"/>
    </filter>
    <filter inkscape:collect="always" id="filter3815" x="-0.23213151" width="1.464263" y="-0.25693089" height="1.5138618">
      <feGaussianBlur inkscape:collect="always" stdDeviation="4.7107895" id="feGaussianBlur3817"/>
    </filter>
    <filter inkscape:collect="always" id="filter3875">
      <feGaussianBlur inkscape:collect="always" stdDeviation="1.3374707" id="feGaussianBlur3877"/>
    </filter>
    <filter inkscape:collect="always" id="filter3943">
      <feGaussianBlur inkscape:collect="always" stdDeviation="1.1511587" id="feGaussianBlur3945"/>
    </filter>
    <filter inkscape:collect="always" id="filter3947">
      <feGaussianBlur inkscape:collect="always" stdDeviation="1.1511587" id="feGaussianBlur3949"/>
    </filter>
    <filter inkscape:collect="always" id="filter4003">
      <feGaussianBlur inkscape:collect="always" stdDeviation="0.47052753" id="feGaussianBlur4005"/>
    </filter>
    <filter inkscape:collect="always" id="filter4273" x="-0.31419811" width="1.6283962" y="-0.47570258" height="1.951405">
      <feGaussianBlur inkscape:collect="always" stdDeviation="2.9005187" id="feGaussianBlur4275"/>
    </filter>
    <filter inkscape:collect="always" id="filter4277" x="-0.21544978" width="1.4308996" y="-0.37560862" height="1.7512172">
      <feGaussianBlur inkscape:collect="always" stdDeviation="2.9005187" id="feGaussianBlur4279"/>
    </filter>
    <filter inkscape:collect="always" id="filter4281" x="-1.330737" width="3.661474" y="-0.50836647" height="2.0167329">
      <feGaussianBlur inkscape:collect="always" stdDeviation="2.9005187" id="feGaussianBlur4283"/>
    </filter>
    <filter inkscape:collect="always" id="filter4285" x="-0.32496884" width="1.6499377" y="-0.50836647" height="2.0167329">
      <feGaussianBlur inkscape:collect="always" stdDeviation="2.9005187" id="feGaussianBlur4287"/>
    </filter>
    <filter inkscape:collect="always" id="filter4289" x="-0.053354219" width="1.1067084" y="-0.2338215" height="1.467643">
      <feGaussianBlur inkscape:collect="always" stdDeviation="2.9005187" id="feGaussianBlur4291"/>
    </filter>
    <filter inkscape:collect="always" id="filter4293" x="-0.24066217" width="1.4813243" y="-0.21544985" height="1.4308997">
      <feGaussianBlur inkscape:collect="always" stdDeviation="2.9005187" id="feGaussianBlur4295"/>
    </filter>
    <filter inkscape:collect="always" id="filter4297" x="-0.70642191" width="2.4128439" y="-0.70642191" height="2.4128439">
      <feGaussianBlur inkscape:collect="always" stdDeviation="2.9005187" id="feGaussianBlur4299"/>
    </filter>
    <filter inkscape:collect="always" id="filter4301" x="-0.70642191" width="2.4128439" y="-0.70642191" height="2.4128439">
      <feGaussianBlur inkscape:collect="always" stdDeviation="2.9005187" id="feGaussianBlur4303"/>
    </filter>
    <filter inkscape:collect="always" id="filter4305" x="-0.11240848" width="1.224817" y="-0.28189716" height="1.5637943">
      <feGaussianBlur inkscape:collect="always" stdDeviation="2.9005187" id="feGaussianBlur4307"/>
    </filter>
    <filter inkscape:collect="always" id="filter4333" x="-0.029705849" width="1.0594116" y="-0.13630301" height="1.272606">
      <feGaussianBlur inkscape:collect="always" stdDeviation="3.0790884" id="feGaussianBlur4335"/>
    </filter>
    <filter inkscape:collect="always" id="filter4365">
      <feGaussianBlur inkscape:collect="always" stdDeviation="1.6092362" id="feGaussianBlur4367"/>
    </filter>
    <filter inkscape:collect="always" id="filter4389" x="-0.067857139" width="1.1357143" y="-0.14615387" height="1.2923077">
      <feGaussianBlur inkscape:collect="always" stdDeviation="0.66992726" id="feGaussianBlur4391"/>
    </filter>
    <filter inkscape:collect="always" id="filter4445">
      <feGaussianBlur inkscape:collect="always" stdDeviation="1.2754583" id="feGaussianBlur4447"/>
    </filter>
    <filter inkscape:collect="always" id="filter4643">
      <feGaussianBlur inkscape:collect="always" stdDeviation="0.52083342" id="feGaussianBlur4645"/>
    </filter>
    <filter inkscape:collect="always" id="filter4647">
      <feGaussianBlur inkscape:collect="always" stdDeviation="0.52083342" id="feGaussianBlur4649"/>
    </filter>
    <filter inkscape:collect="always" id="filter4651">
      <feGaussianBlur inkscape:collect="always" stdDeviation="0.52083342" id="feGaussianBlur4653"/>
    </filter>
    <filter inkscape:collect="always" id="filter4655" x="-0.057190068" width="1.1143801" y="-0.16069299" height="1.321386">
      <feGaussianBlur inkscape:collect="always" stdDeviation="0.52083342" id="feGaussianBlur4657"/>
    </filter>
    <filter inkscape:collect="always" id="filter4691">
      <feGaussianBlur inkscape:collect="always" stdDeviation="0.13941706" id="feGaussianBlur4693"/>
    </filter>
    <filter inkscape:collect="always" id="filter4761" x="-0.11686742" width="1.2337348" y="-0.12749743" height="1.2549949">
      <feGaussianBlur inkscape:collect="always" stdDeviation="0.70051352" id="feGaussianBlur4763"/>
    </filter>
    <filter inkscape:collect="always" id="filter4857" x="-0.055182599" width="1.1103652" y="-0.11123759" height="1.2224752">
      <feGaussianBlur inkscape:collect="always" stdDeviation="0.86937289" id="feGaussianBlur4859"/>
    </filter>
    <filter inkscape:collect="always" id="filter4861">
      <feGaussianBlur inkscape:collect="always" stdDeviation="0.86937289" id="feGaussianBlur4863"/>
    </filter>
    <filter inkscape:collect="always" id="filter4865" x="-0.057744872" width="1.1154897" y="-0.16738313" height="1.3347663">
      <feGaussianBlur inkscape:collect="always" stdDeviation="0.86937289" id="feGaussianBlur4867"/>
    </filter>
    <filter inkscape:collect="always" id="filter4943">
      <feGaussianBlur inkscape:collect="always" stdDeviation="0.93686328" id="feGaussianBlur4945"/>
    </filter>
    <filter inkscape:collect="always" id="filter4947">
      <feGaussianBlur inkscape:collect="always" stdDeviation="0.93686328" id="feGaussianBlur4949"/>
    </filter>
    <filter inkscape:collect="always" id="filter4951">
      <feGaussianBlur inkscape:collect="always" stdDeviation="0.93686328" id="feGaussianBlur4953"/>
    </filter>
    <filter inkscape:collect="always" id="filter4955">
      <feGaussianBlur inkscape:collect="always" stdDeviation="0.93686328" id="feGaussianBlur4957"/>
    </filter>
    <filter inkscape:collect="always" id="filter5015">
      <feGaussianBlur inkscape:collect="always" stdDeviation="0.80707573" id="feGaussianBlur5017"/>
    </filter>
    <filter inkscape:collect="always" id="filter5019">
      <feGaussianBlur inkscape:collect="always" stdDeviation="0.80707573" id="feGaussianBlur5021"/>
    </filter>
    <filter inkscape:collect="always" id="filter5023">
      <feGaussianBlur inkscape:collect="always" stdDeviation="0.80707573" id="feGaussianBlur5025"/>
    </filter>
    <filter inkscape:collect="always" id="filter5125" x="-0.14634146" width="1.2926829" y="-0.14634146" height="1.2926829">
      <feGaussianBlur inkscape:collect="always" stdDeviation="0.46519666" id="feGaussianBlur5127"/>
    </filter>
    <filter inkscape:collect="always" id="filter5141">
      <feGaussianBlur inkscape:collect="always" stdDeviation="0.4088022" id="feGaussianBlur5143"/>
    </filter>
    <filter inkscape:collect="always" id="filter5225" x="-0.03463427" width="1.0692685" y="-0.13255404" height="1.2651081">
      <feGaussianBlur inkscape:collect="always" stdDeviation="1.1572382" id="feGaussianBlur5227"/>
    </filter>
    <filter inkscape:collect="always" id="filter5229" x="-0.052548539" width="1.1050971" y="-0.1601923" height="1.3203846">
      <feGaussianBlur inkscape:collect="always" stdDeviation="1.1572382" id="feGaussianBlur5231"/>
    </filter>
    <filter inkscape:collect="always" id="filter5245">
      <feGaussianBlur inkscape:collect="always" stdDeviation="0.32114646" id="feGaussianBlur5247"/>
    </filter>
    <filter inkscape:collect="always" id="filter5313" x="-0.24726307" width="1.4945261" y="-1.4703836" height="3.9407673">
      <feGaussianBlur inkscape:collect="always" stdDeviation="2.4456462" id="feGaussianBlur5315"/>
    </filter>
    <filter inkscape:collect="always" id="filter5317">
      <feGaussianBlur inkscape:collect="always" stdDeviation="2.4456462" id="feGaussianBlur5319"/>
    </filter>
    <filter inkscape:collect="always" id="filter5321">
      <feGaussianBlur inkscape:collect="always" stdDeviation="2.4456462" id="feGaussianBlur5323"/>
    </filter>
    <filter inkscape:collect="always" id="filter5325">
      <feGaussianBlur inkscape:collect="always" stdDeviation="2.4456462" id="feGaussianBlur5327"/>
    </filter>
    <filter inkscape:collect="always" id="filter5345" x="-0.013550136" width="1.0271003" y="-0.12195122" height="1.2439024">
      <feGaussianBlur inkscape:collect="always" stdDeviation="0.48648018" id="feGaussianBlur5347"/>
    </filter>
    <filter inkscape:collect="always" id="filter5403">
      <feGaussianBlur inkscape:collect="always" stdDeviation="1.0429349" id="feGaussianBlur5405"/>
    </filter>
    <filter inkscape:collect="always" id="filter5455" x="-0.035981201" width="1.0719624" y="-0.45411876" height="1.9082375">
      <feGaussianBlur inkscape:collect="always" stdDeviation="0.64302646" id="feGaussianBlur5457"/>
    </filter>
    <filter inkscape:collect="always" id="filter5459">
      <feGaussianBlur inkscape:collect="always" stdDeviation="0.64302646" id="feGaussianBlur5461"/>
    </filter>
    <filter inkscape:collect="always" id="filter5605" x="-0.13829662" width="1.2765932" y="-0.51144248" height="2.0228848">
      <feGaussianBlur inkscape:collect="always" stdDeviation="0.85066945" id="feGaussianBlur5607"/>
    </filter>
    <filter inkscape:collect="always" id="filter5609" x="-0.1329094" width="1.2658188" y="-0.51144248" height="2.0228848">
      <feGaussianBlur inkscape:collect="always" stdDeviation="0.85066945" id="feGaussianBlur5611"/>
    </filter>
    <filter inkscape:collect="always" id="filter5613" x="-0.13829662" width="1.2765932" y="-0.44477317" height="1.8895463">
      <feGaussianBlur inkscape:collect="always" stdDeviation="0.85066945" id="feGaussianBlur5615"/>
    </filter>
    <filter inkscape:collect="always" id="filter5617" x="-0.095649801" width="1.1912996" y="-0.35279372" height="1.7055874">
      <feGaussianBlur inkscape:collect="always" stdDeviation="0.85066945" id="feGaussianBlur5619"/>
    </filter>
    <filter inkscape:collect="always" id="filter5621" x="-0.10133119" width="1.2026623" y="-0.31973344" height="1.6394669">
      <feGaussianBlur inkscape:collect="always" stdDeviation="0.85066945" id="feGaussianBlur5623"/>
    </filter>
    <filter inkscape:collect="always" id="filter5625" x="-0.10133119" width="1.2026623" y="-0.24957174" height="1.4991435">
      <feGaussianBlur inkscape:collect="always" stdDeviation="0.85066945" id="feGaussianBlur5627"/>
    </filter>
    <filter inkscape:collect="always" id="filter5693">
      <feGaussianBlur inkscape:collect="always" stdDeviation="0.91930559" id="feGaussianBlur5695"/>
    </filter>
    <filter inkscape:collect="always" id="filter5697" x="-0.040663555" width="1.0813271" y="-0.25123158" height="1.5024632">
      <feGaussianBlur inkscape:collect="always" stdDeviation="0.91930559" id="feGaussianBlur5699"/>
    </filter>
    <filter inkscape:collect="always" id="filter5709" x="-0.013378018" width="1.026756" y="-0.13792132" height="1.2758425">
      <feGaussianBlur inkscape:collect="always" stdDeviation="1.7655894" id="feGaussianBlur5711"/>
    </filter>
  </defs>
  <sodipodi:namedview id="base" pagecolor="#ffffff" bordercolor="#666666" borderopacity="1.0" gridtolerance="10000" guidetolerance="10" objecttolerance="10" inkscape:pageopacity="0.0" inkscape:pageshadow="2" inkscape:zoom="0.41780127" inkscape:cx="560.36695" inkscape:cy="253.18382" inkscape:document-units="px" inkscape:current-layer="layer2" showgrid="false" inkscape:window-width="1152" inkscape:window-height="838" inkscape:window-x="-4" inkscape:window-y="-4" showguides="true" inkscape:guide-bbox="true"/>
  <metadata id="metadata7">
    <rdf:RDF>
      <cc:Work rdf:about="">
        <dc:format>image/svg+xml</dc:format>
        <dc:type rdf:resource="http://purl.org/dc/dcmitype/StillImage"/>
      </cc:Work>
    </rdf:RDF>
  </metadata>
  <g inkscape:groupmode="layer" id="layer2" transform="translate(37.1883, -636.738)">
    <g id="g5715">
      <path id="path3659" d="M 106.6242,936.42951 C 106.6242,936.42951 108.73976,921.19748 111.70155,922.04371 C 114.66333,922.88993 107.89354,936.85262 111.27844,936.85262 C 114.66333,936.85262 115.50955,919.92815 118.89445,920.77437 C 122.27935,921.62059 116.77889,938.12196 119.74067,938.12196 C 122.70246,938.12196 123.97179,921.62059 126.51046,921.62059 C 129.04914,921.62059 124.81802,938.54507 126.51046,938.54507 C 128.20291,938.54507 129.89536,922.46682 133.28026,922.88993 C 136.66515,923.31304 132.43403,938.54507 134.9727,938.96818 C 137.51137,939.39129 140.05005,924.58238 143.01183,925.4286 C 145.97361,926.27483 140.47316,940.23752 144.28117,940.23752 C 148.08917,940.23752 146.81984,925.4286 149.35851,925.4286 C 151.89718,925.4286 151.05096,940.23752 153.16652,939.81441 C 155.28208,939.39129 156.55141,931.35217 156.55141,931.35217" style="fill: none; fill-rule: evenodd; stroke: rgb(0, 0, 0); stroke-width: 1.5; stroke-linecap: butt; stroke-linejoin: miter; stroke-miterlimit: 4; stroke-dasharray: none; stroke-opacity: 1; filter: url(&quot;#filter3689&quot;);"/>
      <path id="path5361" d="M 599.97801,990.67664 L 591.00246,962.55322 L 607.15846,960.15974 L 616.13402,988.88153 L 599.97801,990.67664 z" style="fill: rgb(191, 191, 192); fill-opacity: 1; fill-rule: evenodd; stroke: none; stroke-width: 1px; stroke-linecap: butt; stroke-linejoin: miter; stroke-opacity: 1;"/>
      <path sodipodi:nodetypes="ccccccscsscccccssscccc" id="path5145" d="M 401.31897,811.76383 L 425.25379,821.33776 L 446.19677,820.14102 L 634.68351,869.80578 L 664.00367,865.61718 L 667.59389,857.83837 C 667.59389,857.83837 750.16904,876.98623 750.16904,874.59274 C 750.16904,872.19926 751.96415,868.60904 751.96415,868.60904 C 751.96415,868.60904 692.12709,830.91169 681.95479,826.12472 C 671.78249,821.33776 582.62527,787.23063 576.64156,784.83715 C 570.65785,782.44367 554.50185,778.25507 554.50185,778.25507 L 531.16539,770.47626 L 516.8045,769.87789 L 475.51693,739.95935 L 442.00817,741.1561 C 442.00817,741.1561 440.21306,733.37728 436.02447,733.97565 C 431.83587,734.57402 431.83587,736.06994 428.84402,737.26668 C 425.85217,738.46342 414.18393,738.16424 410.59371,741.1561 C 407.00349,744.14795 401.31897,753.12351 401.31897,753.12351 L 409.69616,754.91862 L 394.73689,812.3622 L 401.31897,811.76383 z" style="fill: rgb(0, 87, 159); fill-opacity: 1; fill-rule: evenodd; stroke: none; stroke-width: 1px; stroke-linecap: butt; stroke-linejoin: miter; stroke-opacity: 1;"/>
      <path id="path5027" d="M 379.02966,694.33359 L 363.17284,704.65549 C 363.17284,704.65549 356.29158,707.79693 351.35502,707.49775 C 346.41847,707.19856 344.02498,705.85223 344.02498,702.71078 C 344.02498,699.56934 347.01684,695.38074 348.36317,694.93196 C 349.7095,694.48319 368.55818,687.15315 368.55818,687.15315 L 368.70777,683.26374 C 368.70777,683.26374 369.60533,681.46863 372.44759,680.42148 C 375.28985,679.37433 383.21826,679.22474 383.21826,679.22474 L 387.70604,688.64907 L 379.02966,694.33359 z" style="fill: rgb(33, 33, 33); fill-opacity: 1; fill-rule: evenodd; stroke: none; stroke-width: 1px; stroke-linecap: butt; stroke-linejoin: miter; stroke-opacity: 1;"/>
      <path id="path4965" d="M 426.49682,738.83624 L 428.18926,736.29757 L 389.68608,679.60058 L 384.60874,677.90813 C 384.60874,677.90813 385.03185,687.21659 385.87807,690.17837 C 386.7243,693.14016 405.34122,726.14289 405.34122,727.83533 C 405.34122,729.52778 417.61147,737.99002 417.61147,737.99002 L 426.49682,738.83624 z" style="fill: rgb(89, 89, 89); fill-opacity: 1; fill-rule: evenodd; stroke: none; stroke-width: 1px; stroke-linecap: butt; stroke-linejoin: miter; stroke-opacity: 1; filter: url(&quot;#filter5023&quot;);"/>
      <path id="path4959" d="M 358.79891,756.60695 L 358.79891,754.49139 L 355.83713,752.79894 L 355.41401,749.41404 L 357.52957,748.99093 L 360.91447,746.45226 L 375.30027,746.02915 L 379.95451,748.56782 C 379.95451,748.56782 381.64695,750.68338 379.95451,750.68338 C 378.26206,750.68338 376.1465,752.37583 376.1465,752.37583 L 376.1465,754.06827 L 358.79891,756.60695 z" style="fill: rgb(1, 1, 1); fill-opacity: 1; fill-rule: evenodd; stroke: rgb(0, 0, 0); stroke-width: 1px; stroke-linecap: butt; stroke-linejoin: miter; stroke-opacity: 1;"/>
      <path sodipodi:nodetypes="cssccscccsscccccc" id="path4765" d="M 375.30027,884.38675 C 375.30027,884.38675 408.303,853.49958 421.84259,847.99912 C 435.38217,842.49867 456.96087,834.88265 474.30846,834.45954 C 491.65605,834.03643 504.34941,834.88265 504.34941,834.88265 L 444.26752,817.95817 C 444.26752,817.95817 435.80528,819.22751 426.91993,818.8044 C 418.03458,818.38129 403.22566,811.61149 403.22566,811.61149 L 402.37944,805.26482 L 399.41765,810.76527 C 399.41765,810.76527 397.72521,812.03461 395.18653,811.61149 C 392.64786,811.18838 378.88169,802.62348 371.68878,805.16215 C 364.49588,807.70083 357.10646,811.18838 357.10646,811.18838 L 285.24562,861.7653 L 321.98817,866.19293 L 369.37671,881.42496 L 370.64604,892.42587 L 375.30027,884.38675 z" style="fill: rgb(21, 21, 21); fill-opacity: 1; fill-rule: evenodd; stroke: none; stroke-width: 1px; stroke-linecap: butt; stroke-linejoin: miter; stroke-opacity: 1;"/>
      <path id="path3961" d="M 318.14545,790.22249 L 310.96501,786.03389 C 310.96501,786.03389 281.04648,795.60782 262.49699,795.00945 C 243.9475,794.41108 177.52836,786.63226 169.74954,783.64041 C 161.97072,780.64856 133.24893,778.25507 124.87175,768.08277 C 116.49456,757.91047 116.49456,753.12351 116.49456,753.12351 L 106.32226,754.91862 L 118.28967,774.66485 L 158.3805,795.00945 L 218.81593,806.97686 C 218.81593,806.97686 269.07906,811.76383 272.07092,811.76383 C 275.06277,811.76383 301.39108,804.58338 305.57967,803.38664 C 309.76827,802.1899 318.74382,790.22249 318.14545,790.22249 z" style="fill: rgb(61, 61, 61); fill-opacity: 1; fill-rule: evenodd; stroke: none; stroke-width: 1px; stroke-linecap: butt; stroke-linejoin: miter; stroke-opacity: 1;"/>
      <path id="path3959" d="M 327.12101,794.41108 L 317.54708,789.62412 C 317.54708,789.62412 299.59597,806.97686 259.50513,805.18175 C 219.4143,803.38664 144.61798,784.23878 144.61798,784.23878 C 144.61798,784.23878 129.06034,778.85344 124.27337,774.06648 C 119.48641,769.27951 105.72389,753.72188 105.72389,753.72188 L 105.72389,758.50884 L 115.89619,780.05019 L 130.25708,793.21434 L 194.28274,815.95242 C 194.28274,815.95242 258.30839,828.51821 260.70188,828.51821 C 263.09536,828.51821 293.01389,816.55079 293.01389,816.55079 L 327.12101,794.41108 z" style="fill: rgb(32, 32, 32); fill-opacity: 1; fill-rule: evenodd; stroke: none; stroke-width: 1px; stroke-linecap: butt; stroke-linejoin: miter; stroke-opacity: 1;"/>
      <path id="path3829" d="M 83.584172,862.62533 L 27.935705,845.27258 L 30.329187,836.89539 L 93.158102,853.64977 L 83.584172,862.62533 z" style="fill: rgb(2, 2, 2); fill-opacity: 1; fill-rule: evenodd; stroke: rgb(0, 0, 0); stroke-width: 1px; stroke-linecap: butt; stroke-linejoin: miter; stroke-opacity: 1;"/>
      <path sodipodi:nodetypes="cscccsccccccccc" id="path3827" d="M 336.80383,936.26122 C 336.80383,936.26122 368.37851,902.39571 370.17362,897.60875 C 371.96874,892.82178 370.80207,880.57645 370.80207,880.57645 L 315.75197,863.82207 L 282.84159,861.42859 C 282.84159,861.42859 273.26766,870.40415 267.88232,872.19926 C 262.49699,873.99437 252.92306,871.60089 252.92306,871.60089 L 252.95313,872.61614 L 79.993948,856.04325 L 79.993948,859.63348 L 109.31411,870.40415 L 127.26523,903.9129 L 238.56216,926.05262 L 305.57967,938.02003 L 336.80383,936.26122 z" style="fill: rgb(58, 58, 58); fill-opacity: 1; fill-rule: evenodd; stroke: none; stroke-width: 1px; stroke-linecap: butt; stroke-linejoin: miter; stroke-opacity: 1;"/>
      <path id="path2424" d="M 398.14832,976.20203 C 396.03276,974.9327 386.30118,967.31668 384.18562,967.31668 C 382.07006,967.31668 337.64331,983.81805 337.64331,983.81805 C 337.64331,983.81805 318.60328,986.35672 312.67971,987.20294 C 306.75614,988.04917 271.21474,988.89539 271.21474,988.89539 L 150.62784,989.3185 C 150.62784,989.3185 118.47134,993.54962 112.97088,993.54962 C 107.47043,993.54962 76.583257,991.43406 71.929026,988.89539 C 67.274795,986.35672 38.080073,973.66336 38.080073,973.66336 L 31.733394,973.66336 L 13.116469,1000.3194 L 4.6542313,1015.9746 L 108.31665,1016.8208 L 192.51592,1015.1283 L 260.21383,1016.3977 C 260.21383,1016.3977 305.90992,1013.859 307.60237,1013.859 C 309.29481,1013.859 335.10464,1010.051 335.10464,1010.051 L 380.37762,988.47228 L 398.14832,976.20203 z" style="fill: rgb(141, 141, 141); fill-opacity: 1; fill-rule: evenodd; stroke: rgb(0, 0, 0); stroke-width: 1px; stroke-linecap: butt; stroke-linejoin: miter; stroke-opacity: 1;"/>
      <path id="path3693" d="M 37.233849,1017.2439 C 37.233849,1017.2439 43.580527,1001.1656 44.003639,996.5114 C 44.426751,991.85717 41.88808,978.31759 40.195632,976.20203 C 38.503184,974.08647 38.503184,973.24025 38.503184,973.24025 L 27.079163,975.77892 L -4.6542311,1008.7817 L 9.3084623,1016.3977 L 26.232939,1016.8208 L 37.233849,1017.2439 z" style="fill: rgb(37, 37, 37); fill-opacity: 1; fill-rule: evenodd; stroke: none; stroke-width: 1px; stroke-linecap: butt; stroke-linejoin: miter; stroke-opacity: 1; filter: url(&quot;#filter3815&quot;);"/>
      <path id="path2402" d="M 442.60654,958.36463 C 442.60654,958.36463 334.00228,1005.3367 328.31775,1006.5335 C 322.63323,1007.7302 311.86256,1011.0212 305.28049,1011.3204 C 298.69841,1011.6196 272.96847,1011.6196 272.96847,1011.6196 L 144.31879,1012.218 L 12.078883,1013.7139 C 12.078883,1013.7139 -20.23313,1008.6278 -19.634759,987.3856 C -19.036389,966.14345 -0.48689922,962.25404 -0.48689922,962.25404 L 59.948533,925.45425 L 60.247718,910.19579 C 60.247718,910.19579 52.768085,906.30639 51.571344,910.49498 C 50.374603,914.68357 56.95668,918.2738 56.95668,918.2738 L 44.091711,924.85587 C 44.091711,924.85587 39.005561,918.2738 36.312893,919.17135 C 33.620226,920.06891 33.919411,924.55669 33.919411,924.55669 L 38.108005,930.5404 L 27.636519,937.42166 C 27.636519,937.42166 20.755257,929.34365 18.361775,930.5404 C 15.968292,931.73714 18.66096,937.72084 18.66096,937.72084 L 21.951999,941.31107 L 9.6854013,946.39722 C 9.6854013,946.39722 0.41065668,942.50781 -1.0852698,944.00373 C -2.5811964,945.49966 0.70984198,949.68826 0.70984198,949.68826 L 2.8041392,951.48337 L -6.7697907,957.16789 C -6.7697907,957.16789 -18.438018,952.68011 -20.8315,955.07359 C -23.224983,957.46707 -18.438018,960.75811 -18.438018,960.75811 L -13.950238,961.95485 L -24.421724,968.83611 C -24.421724,968.83611 -36.688322,970.63123 -36.688322,973.32389 C -36.688322,976.01656 -31.003801,976.01656 -31.003801,976.01656 L -25.31928,976.31575 C -25.31928,976.31575 -28.011948,979.90597 -28.311133,983.19701 C -28.610318,986.48805 -27.712763,989.18072 -27.712763,989.18072 C -27.712763,989.18072 -37.286692,994.86524 -36.389136,996.66035 C -35.491581,998.45546 -32.499727,998.75465 -31.003801,997.5579 C -29.507874,996.36116 -27.114392,995.46361 -27.114392,995.46361 C -27.114392,995.46361 -25.020095,1000.8489 -22.327427,1003.5416 C -19.634759,1006.2343 -17.241277,1007.7302 -17.241277,1007.7302 C -17.241277,1007.7302 -24.122539,1011.0212 -22.626612,1013.7139 C -21.130686,1016.4066 -16.343721,1014.6115 -16.343721,1014.6115 L -11.556756,1011.3204 C -11.556756,1011.3204 -10.060829,1012.8164 -6.7697907,1014.3123 C -3.4787523,1015.8082 0.41065668,1017.9025 0.41065668,1017.9025 C 0.41065668,1017.9025 -5.2738642,1025.9805 -1.3844552,1027.4764 C 2.5049538,1028.9724 4.3000653,1025.6813 4.3000653,1025.6813 L 5.7959923,1020.8944 C 5.7959923,1020.8944 10.283772,1022.9887 12.378069,1022.6895 C 14.472366,1022.3903 29.431631,1022.0911 29.431631,1022.0911 C 29.431631,1022.0911 29.132446,1028.0748 32.72267,1028.9724 C 36.312893,1029.8699 37.210449,1025.3821 37.210449,1025.3821 L 37.509635,1021.4927 L 56.95668,1021.7919 C 56.95668,1021.7919 56.657494,1029.2716 60.846089,1029.2716 C 65.034683,1029.2716 65.633054,1022.3903 65.633054,1022.3903 L 84.182543,1022.6895 C 84.182543,1022.6895 83.883357,1029.2716 88.670322,1029.5707 C 93.457289,1029.8699 93.158102,1020.8944 93.158102,1020.8944 L 109.61329,1019.6976 C 109.61329,1019.6976 108.41655,1029.5707 112.90433,1029.2716 C 117.39211,1028.9724 116.79374,1019.0993 116.79374,1019.0993 L 134.74486,1018.8001 C 134.74486,1018.8001 134.44568,1030.1691 138.33508,1029.8699 C 142.22449,1029.5707 142.22449,1019.3984 142.22449,1019.3984 L 166.4585,1019.6976 C 166.4585,1019.6976 163.46665,1028.374 166.15932,1028.9724 C 168.85199,1029.5707 173.33977,1019.3984 173.33977,1019.3984 L 190.09414,1018.5009 C 190.09414,1018.5009 188.8974,1028.9724 193.086,1028.6732 C 197.27459,1028.374 196.37703,1018.5009 196.37703,1018.5009 L 226.89394,1019.9968 C 226.89394,1019.9968 221.80779,1029.5707 227.49231,1029.2716 C 233.17683,1028.9724 231.98009,1019.6976 233.17683,1019.3984 C 234.37357,1019.0993 254.1198,1020.296 254.1198,1020.296 C 254.1198,1020.296 255.01735,1028.9724 258.90676,1028.9724 C 262.79617,1028.9724 263.39454,1019.6976 263.39454,1019.6976 L 283.14077,1019.3984 C 283.14077,1019.3984 282.24322,1030.4683 287.32937,1029.5707 C 292.41552,1028.6732 290.02204,1018.2017 290.02204,1018.2017 L 305.57967,1018.2017 C 305.57967,1018.2017 310.66582,1027.7756 314.55523,1027.4764 C 318.44464,1027.1773 316.35034,1016.4066 316.35034,1016.4066 C 316.35034,1016.4066 320.83812,1016.4066 322.93242,1015.8082 C 325.02672,1015.2098 329.81368,1013.4147 329.81368,1013.4147 C 329.81368,1013.4147 336.99413,1022.3903 340.88354,1020.5952 C 344.77295,1018.8001 341.78109,1009.8245 341.78109,1009.8245 C 341.78109,1009.8245 348.96154,1007.431 350.15828,1007.431 C 351.35502,1007.431 355.24443,1004.4392 355.24443,1004.4392 C 355.24443,1004.4392 364.21999,1008.927 366.91266,1006.5335 C 369.60533,1004.14 363.62162,999.6522 363.62162,999.6522 L 377.38415,994.26687 C 377.38415,994.26687 385.76133,1000.8489 389.05237,998.45546 C 392.34341,996.06198 383.96622,990.67664 385.46215,990.07827 C 386.95808,989.4799 398.32712,985.29131 398.32712,985.29131 C 398.32712,985.29131 407.90105,992.17257 409.99534,990.07827 C 412.08964,987.98397 406.40512,982.00027 406.40512,982.00027 L 418.07335,976.61493 C 418.07335,976.61493 430.63913,980.80353 433.93017,978.70923 C 437.22121,976.61493 427.94646,971.82797 427.94646,971.82797 L 442.60654,965.84426 C 442.60654,965.84426 454.57395,970.33204 455.7707,969.1353 C 456.96744,967.93856 452.77884,962.85241 452.77884,962.85241 L 456.66825,960.15974 L 442.60654,958.36463 z" style="fill: rgb(4, 4, 4); fill-opacity: 1; fill-rule: evenodd; stroke: rgb(0, 0, 0); stroke-width: 1px; stroke-linecap: butt; stroke-linejoin: miter; stroke-opacity: 1;"/>
      <path id="path2426" d="M 32.156506,1002.8581 L 280.10009,1004.1274 C 280.10009,1004.1274 313.10282,1002.8581 322.8344,999.8963 C 332.56597,996.93452 379.10828,979.58693 379.10828,979.58693" style="fill: none; fill-rule: evenodd; stroke: rgb(197, 197, 197); stroke-width: 1px; stroke-linecap: butt; stroke-linejoin: miter; stroke-opacity: 1;"/>
      <path id="path2428" d="M 38.080073,996.93452 L 302.10191,997.35763 C 302.10191,997.35763 327.06551,994.81896 333.41219,993.12651 C 339.75887,991.43406 390.10919,974.50958 390.10919,974.50958" style="fill: none; fill-rule: evenodd; stroke: rgb(197, 197, 197); stroke-width: 1px; stroke-linecap: butt; stroke-linejoin: miter; stroke-opacity: 1;"/>
      <path id="path2430" d="M 41.88808,984.66427 C 43.157416,982.54871 67.697907,949.54598 67.697907,949.54598 L 73.198362,954.20021 L 46.965423,988.04917 L 41.88808,984.66427 z" style="fill: rgb(2, 2, 2); fill-opacity: 1; fill-rule: evenodd; stroke: rgb(0, 0, 0); stroke-width: 1px; stroke-linecap: butt; stroke-linejoin: miter; stroke-opacity: 1;"/>
      <path sodipodi:nodetypes="ccsccc" id="path2432" d="M 103.98287,932.19839 L 156.1283,937.69885 C 156.1283,937.69885 156.1283,936.0064 157.39764,933.04462 C 158.66697,930.08283 156.97452,928.39038 156.97452,928.39038 L 107.89354,922.46682 L 103.98287,932.19839 z" style="fill: rgb(2, 2, 2); fill-opacity: 1; fill-rule: evenodd; stroke: rgb(0, 0, 0); stroke-width: 1px; stroke-linecap: butt; stroke-linejoin: miter; stroke-opacity: 1;"/>
      <path id="path2434" d="M 249.21292,942.35308 L 189.13103,970.70158 L 176.86078,984.24116 L 177.70701,989.3185 L 190.82348,985.51049 L 203.93995,976.20203 L 249.63603,951.23843 L 249.21292,942.35308 z" style="fill: rgb(12, 12, 12); fill-opacity: 1; fill-rule: evenodd; stroke: rgb(0, 0, 0); stroke-width: 1px; stroke-linecap: butt; stroke-linejoin: miter; stroke-opacity: 1;"/>
      <path id="path2436" d="M 250.90537,942.35308 L 235.25023,980.01004 C 235.25023,980.01004 247.09736,985.08738 247.94359,982.1256 C 248.78981,979.16382 262.7525,942.77619 262.7525,942.77619 L 250.90537,942.35308 z" style="fill: rgb(12, 12, 12); fill-opacity: 1; fill-rule: evenodd; stroke: rgb(0, 0, 0); stroke-width: 1px; stroke-linecap: butt; stroke-linejoin: miter; stroke-opacity: 1;"/>
      <path id="path2438" d="M 155.70519,923.73615 L 154.01274,938.96818 L 155.70519,942.35308 L 164.16743,942.77619 L 170.5141,925.85171 L 155.70519,923.73615 z" style="fill: rgb(2, 2, 2); fill-opacity: 1; fill-rule: evenodd; stroke: rgb(0, 0, 0); stroke-width: 1px; stroke-linecap: butt; stroke-linejoin: miter; stroke-opacity: 1;"/>
      <path transform="translate(-7.1929, 370.646)" d="M 42.734304,614.2298 A 26.021383,26.021383 0 1 1 -9.3084621,614.2298 A 26.021383,26.021383 0 1 1 42.734304,614.2298 z" sodipodi:ry="26.021383" sodipodi:rx="26.021383" sodipodi:cy="614.2298" sodipodi:cx="16.712921" id="path2440" style="opacity: 1; fill: rgb(18, 18, 18); fill-opacity: 1; fill-rule: nonzero; stroke: rgb(0, 0, 0); stroke-width: 2; stroke-linecap: butt; stroke-linejoin: round; stroke-miterlimit: 4; stroke-dasharray: none; stroke-opacity: 1;" sodipodi:type="arc"/>
      <path transform="matrix(0.718149, 0, 0, 0.718149, -1.84767, 543.979)" d="M 42.734304,614.2298 A 26.021383,26.021383 0 1 1 -9.3084621,614.2298 A 26.021383,26.021383 0 1 1 42.734304,614.2298 z" sodipodi:ry="26.021383" sodipodi:rx="26.021383" sodipodi:cy="614.2298" sodipodi:cx="16.712921" id="path2455" style="opacity: 1; fill: rgb(62, 62, 62); fill-opacity: 1; fill-rule: nonzero; stroke: rgb(0, 0, 0); stroke-width: 2; stroke-linecap: butt; stroke-linejoin: round; stroke-miterlimit: 4; stroke-dasharray: none; stroke-opacity: 1;" sodipodi:type="arc"/>
      <path id="path3227" d="M 1.6924477,990.58784 C 1.2693358,988.47228 -0.42311192,978.7407 -0.42311192,978.7407 L -7.1929026,980.43315 C -7.1929026,980.43315 -10.577798,984.24116 -9.3084622,987.20294 C -8.0391265,990.16473 -6.7697907,993.97273 -6.7697907,993.97273 L 1.6924477,990.58784 z" style="fill: rgb(18, 18, 18); fill-opacity: 1; fill-rule: evenodd; stroke: rgb(0, 0, 0); stroke-width: 1px; stroke-linecap: butt; stroke-linejoin: miter; stroke-opacity: 1; filter: url(&quot;#filter3411&quot;);"/>
      <path id="path3229" d="M 13.962693,980.43315 L 13.539581,969.43224 C 13.539581,969.43224 20.732484,970.70158 22.848043,973.66336 C 24.963603,976.62514 24.540491,982.54871 24.540491,982.54871 L 15.232029,982.54871 L 13.962693,980.43315 z" style="fill: rgb(18, 18, 18); fill-opacity: 1; fill-rule: evenodd; stroke: rgb(0, 0, 0); stroke-width: 1px; stroke-linecap: butt; stroke-linejoin: miter; stroke-opacity: 1; filter: url(&quot;#filter3407&quot;);"/>
      <path id="path3231" d="M 6.3466793,999.8963 L 16.078253,993.54962 C 16.078253,993.54962 19.040036,997.78074 16.501365,1000.7425 C 13.962693,1003.7043 6.7697903,1001.5888 6.3466793,999.8963 z" style="fill: rgb(18, 18, 18); fill-opacity: 1; fill-rule: evenodd; stroke: rgb(0, 0, 0); stroke-width: 1px; stroke-linecap: butt; stroke-linejoin: miter; stroke-opacity: 1; filter: url(&quot;#filter3399&quot;);"/>
      <path id="path3233" d="M 10.577798,982.97182 L 5.0773433,983.81805 L 4.2311193,988.89539 L 9.7315743,990.58784 L 15.232029,988.89539 L 14.808917,985.08738 L 10.577798,982.97182 z" style="fill: rgb(18, 18, 18); fill-opacity: 1; fill-rule: evenodd; stroke: rgb(0, 0, 0); stroke-width: 1px; stroke-linecap: butt; stroke-linejoin: miter; stroke-opacity: 1; filter: url(&quot;#filter3403&quot;);"/>
      <path sodipodi:nodetypes="csc" id="path3235" d="M -7.1929027,978.7407 C -5.5004549,977.89448 -5.9235669,974.50959 -2.1155596,971.5478 C 0.96362078,969.15287 5.9235673,969.00913 5.9235673,969.00913" style="fill: none; fill-rule: evenodd; stroke: rgb(187, 187, 187); stroke-width: 3; stroke-linecap: butt; stroke-linejoin: miter; stroke-miterlimit: 4; stroke-dasharray: none; stroke-opacity: 1; filter: url(&quot;#filter3363&quot;);"/>
      <path id="path3237" d="M 10.154686,960.54689 C 10.154686,960.54689 -6.7697907,962.66245 -10.577798,970.70158 C -14.385805,978.7407 -14.808917,982.97182 -14.808917,982.97182" style="fill: none; fill-rule: evenodd; stroke: rgb(187, 187, 187); stroke-width: 3; stroke-linecap: butt; stroke-linejoin: miter; stroke-miterlimit: 4; stroke-dasharray: none; stroke-opacity: 1; filter: url(&quot;#filter3359&quot;);"/>
      <g transform="translate(-80.3913, 352.452)" id="g3419">
        <path sodipodi:type="arc" style="opacity: 1; fill: rgb(2, 2, 2); fill-opacity: 1; fill-rule: nonzero; stroke: rgb(1, 1, 1); stroke-width: 1.3; stroke-linecap: butt; stroke-linejoin: round; stroke-miterlimit: 4; stroke-dasharray: none; stroke-opacity: 1;" id="path3415" sodipodi:cx="86.314835" sodipodi:cy="564.51416" sodipodi:rx="19.040037" sodipodi:ry="19.040037" d="M 105.35487,564.51416 A 19.040037,19.040037 0 1 1 67.274797,564.51416 A 19.040037,19.040037 0 1 1 105.35487,564.51416 z" transform="translate(76.5833, 21.5787)"/>
        <path sodipodi:type="arc" style="opacity: 1; fill: rgb(2, 2, 2); fill-opacity: 1; fill-rule: nonzero; stroke: rgb(74, 74, 74); stroke-width: 1.3; stroke-linecap: butt; stroke-linejoin: round; stroke-miterlimit: 4; stroke-dasharray: none; stroke-opacity: 1;" id="path3417" sodipodi:cx="86.314835" sodipodi:cy="564.51416" sodipodi:rx="19.040037" sodipodi:ry="19.040037" d="M 105.35487,564.51416 A 19.040037,19.040037 0 1 1 67.274797,564.51416 A 19.040037,19.040037 0 1 1 105.35487,564.51416 z" transform="matrix(0.677671, 0, 0, 0.677671, 104.405, 203.961)"/>
      </g>
      <path id="path3423" d="M 59.65878,907.23479 L 59.65878,938.96818 L 100.70064,938.96818 L 110.85532,916.54325 L 59.65878,907.23479 z" style="fill: rgb(36, 36, 36); fill-opacity: 1; fill-rule: evenodd; stroke: none; stroke-width: 1px; stroke-linecap: butt; stroke-linejoin: miter; stroke-opacity: 1;"/>
      <path id="path3425" d="M 70.65969,912.73524 L 70.65969,930.50594" style="fill: none; fill-rule: evenodd; stroke: rgb(69, 69, 69); stroke-width: 1px; stroke-linecap: butt; stroke-linejoin: miter; stroke-opacity: 1;"/>
      <path id="path3427" d="M 91.392174,916.12014 L 91.392174,930.92906" style="fill: none; fill-rule: evenodd; stroke: rgb(69, 69, 69); stroke-width: 1px; stroke-linecap: butt; stroke-linejoin: miter; stroke-opacity: 1;"/>
      <path id="path3429" d="M 96.469519,916.96636 L 96.469519,932.6215" style="fill: none; fill-rule: evenodd; stroke: rgb(69, 69, 69); stroke-width: 1px; stroke-linecap: butt; stroke-linejoin: miter; stroke-opacity: 1;"/>
      <path id="path3431" d="M 75.737033,930.08283 L 85.468608,929.23661" style="fill: none; fill-rule: evenodd; stroke: rgb(69, 69, 69); stroke-width: 1px; stroke-linecap: butt; stroke-linejoin: miter; stroke-opacity: 1;"/>
      <path id="path3433" d="M 74.044586,912.73524 L 74.044586,928.39038 L 89.276615,928.39038 L 89.276615,913.58147 L 74.044586,912.73524 z" style="fill: rgb(2, 2, 2); fill-opacity: 1; fill-rule: evenodd; stroke: rgb(0, 0, 0); stroke-width: 1px; stroke-linecap: butt; stroke-linejoin: miter; stroke-opacity: 1;"/>
      <g transform="translate(-6.76979, 375.723)" id="g3575">
        <path sodipodi:type="arc" style="opacity: 1; fill: rgb(12, 12, 12); fill-opacity: 1; fill-rule: nonzero; stroke: none; stroke-width: 1.3; stroke-linecap: butt; stroke-linejoin: round; stroke-miterlimit: 4; stroke-dasharray: none; stroke-opacity: 1;" id="path3435" sodipodi:cx="193.78526" sodipodi:cy="611.05646" sodipodi:rx="16.501366" sodipodi:ry="16.501366" d="M 210.28663,611.05646 A 16.501366,16.501366 0 1 1 177.2839,611.05646 A 16.501366,16.501366 0 1 1 210.28663,611.05646 z" transform="matrix(1.05128, 0, 0, 1.05128, -3.16791, -24.1433)"/>
        <path style="fill: none; fill-rule: evenodd; stroke: rgb(86, 86, 86); stroke-width: 3.1; stroke-linecap: butt; stroke-linejoin: miter; stroke-miterlimit: 4; stroke-dasharray: none; stroke-opacity: 1; filter: url(&quot;#filter3571&quot;);" d="M 186.59236,616.98002 C 186.59236,616.98002 187.01547,608.94089 191.6697,605.97911 C 196.32393,603.01732 202.67061,602.59421 202.67061,602.59421" id="path3437"/>
        <path style="fill: none; fill-rule: evenodd; stroke: rgb(86, 86, 86); stroke-width: 3.1; stroke-linecap: butt; stroke-linejoin: miter; stroke-miterlimit: 4; stroke-dasharray: none; stroke-opacity: 1; filter: url(&quot;#filter3567&quot;);" d="M 210.70974,627.55781 C 210.70974,627.55781 213.24841,626.28848 213.67152,624.59603 C 214.09463,622.90358 214.94086,620.78802 214.94086,620.78802" id="path3439"/>
        <path style="fill: none; fill-rule: evenodd; stroke: rgb(86, 86, 86); stroke-width: 3.1; stroke-linecap: butt; stroke-linejoin: miter; stroke-miterlimit: 4; stroke-dasharray: none; stroke-opacity: 1; filter: url(&quot;#filter3563&quot;);" d="M 198.43949,620.36491 C 198.43949,620.36491 197.17015,617.40313 199.28571,615.71068 C 201.40127,614.01823 204.36306,615.28757 204.36306,615.28757" id="path3441"/>
      </g>
      <g transform="translate(37.657, 376.147)" id="g3581">
        <path sodipodi:type="arc" style="opacity: 1; fill: rgb(12, 12, 12); fill-opacity: 1; fill-rule: nonzero; stroke: none; stroke-width: 1.3; stroke-linecap: butt; stroke-linejoin: round; stroke-miterlimit: 4; stroke-dasharray: none; stroke-opacity: 1;" id="path3583" sodipodi:cx="193.78526" sodipodi:cy="611.05646" sodipodi:rx="16.501366" sodipodi:ry="16.501366" d="M 210.28663,611.05646 A 16.501366,16.501366 0 1 1 177.2839,611.05646 A 16.501366,16.501366 0 1 1 210.28663,611.05646 z" transform="matrix(1.05128, 0, 0, 1.05128, -3.16791, -24.1433)"/>
        <path style="fill: none; fill-rule: evenodd; stroke: rgb(86, 86, 86); stroke-width: 3.1; stroke-linecap: butt; stroke-linejoin: miter; stroke-miterlimit: 4; stroke-dasharray: none; stroke-opacity: 1; filter: url(&quot;#filter3571&quot;);" d="M 186.59236,616.98002 C 186.59236,616.98002 187.01547,608.94089 191.6697,605.97911 C 196.32393,603.01732 202.67061,602.59421 202.67061,602.59421" id="path3585"/>
        <path style="fill: none; fill-rule: evenodd; stroke: rgb(86, 86, 86); stroke-width: 3.1; stroke-linecap: butt; stroke-linejoin: miter; stroke-miterlimit: 4; stroke-dasharray: none; stroke-opacity: 1; filter: url(&quot;#filter3567&quot;);" d="M 210.70974,627.55781 C 210.70974,627.55781 213.24841,626.28848 213.67152,624.59603 C 214.09463,622.90358 214.94086,620.78802 214.94086,620.78802" id="path3587"/>
        <path style="fill: none; fill-rule: evenodd; stroke: rgb(86, 86, 86); stroke-width: 3.1; stroke-linecap: butt; stroke-linejoin: miter; stroke-miterlimit: 4; stroke-dasharray: none; stroke-opacity: 1; filter: url(&quot;#filter3563&quot;);" d="M 198.43949,620.36491 C 198.43949,620.36491 197.17015,617.40313 199.28571,615.71068 C 201.40127,614.01823 204.36306,615.28757 204.36306,615.28757" id="path3589"/>
      </g>
      <path id="path3591" d="M 233.13467,963.50867 L 256.40582,966.47046 C 256.40582,966.47046 260.63694,966.89357 260.63694,964.3549 C 260.63694,961.81623 241.59691,958.00822 242.44313,955.04644 C 243.28935,952.08465 267.40673,956.31577 267.82985,952.08465 C 268.25296,947.85353 249.63603,943.1993 249.63603,943.1993" style="fill: none; fill-rule: evenodd; stroke: rgb(0, 0, 0); stroke-width: 3.6; stroke-linecap: butt; stroke-linejoin: miter; stroke-miterlimit: 4; stroke-dasharray: none; stroke-opacity: 1; filter: url(&quot;#filter3625&quot;);"/>
      <path id="path3629" d="M 202.2475,966.89357 C 205.63239,966.04735 238.63512,950.3922 238.63512,950.3922" style="fill: none; fill-rule: evenodd; stroke: rgb(96, 96, 96); stroke-width: 2; stroke-linecap: butt; stroke-linejoin: miter; stroke-miterlimit: 4; stroke-dasharray: none; stroke-opacity: 1; filter: url(&quot;#filter3655&quot;);"/>
      <path id="path3819" d="M 335.4982,955.97115 L -14.548609,894.33897 C -14.548609,894.33897 -19.335574,887.15853 -19.335574,883.5683 C -19.335574,879.97808 1.0090273,875.78948 1.0090273,875.78948 L 115.89619,900.92105 L 164.96258,909.89661 L 227.19312,915.28194 L 337.89168,936.82329 C 337.89168,936.82329 340.88354,942.80699 339.6868,946.99559 C 338.49006,951.18418 335.4982,954.77441 335.4982,955.97115 z" style="fill: rgb(125, 124, 124); fill-opacity: 1; fill-rule: evenodd; stroke: none; stroke-width: 1px; stroke-linecap: butt; stroke-linejoin: miter; stroke-opacity: 1;"/>
      <path id="path3821" d="M 118.88804,902.11779 L 95.551589,868.60904 C 95.551589,868.60904 91.961361,865.01881 85.379284,862.02696 C 78.797207,859.03511 10.582957,840.48562 10.582957,840.48562 C 10.582957,840.48562 -3.179567,858.43674 -0.18771392,863.82207 C 2.8041392,869.20741 29.730817,882.96993 29.730817,882.96993 L 118.88804,902.11779 z" style="fill: rgb(31, 31, 31); fill-opacity: 1; fill-rule: evenodd; stroke: none; stroke-width: 1px; stroke-linecap: butt; stroke-linejoin: miter; stroke-opacity: 1;"/>
      <path id="path3823" d="M 84.182543,882.96993 L 62.04283,878.18297 L 63.837942,868.60904 L 87.772766,873.99437 L 84.182543,882.96993 z" style="fill: rgb(205, 2, 2); fill-opacity: 1; fill-rule: evenodd; stroke: rgb(0, 0, 0); stroke-width: 1px; stroke-linecap: butt; stroke-linejoin: miter; stroke-opacity: 1; filter: url(&quot;#filter4003&quot;);"/>
      <path sodipodi:nodetypes="ccccccc" id="path3825" d="M 128.46197,903.31453 L 108.96982,869.77571 L 88.412805,862.65781 L 46.485194,851.85466 L 94.977059,868.00444 L 119.83693,902.5046 L 128.46197,903.31453 z" style="fill: rgb(1, 1, 1); fill-opacity: 1; fill-rule: evenodd; stroke: rgb(0, 0, 0); stroke-width: 1px; stroke-linecap: butt; stroke-linejoin: miter; stroke-opacity: 1;"/>
      <path id="path3831" d="M 252.92306,872.19926 C 247.53772,872.19926 172.14302,861.42859 172.14302,861.42859 C 172.14302,861.42859 149.40494,853.64977 144.01961,849.46118 C 138.63427,845.27258 107.519,817.74753 103.3304,814.75568 C 99.141809,811.76383 52.4689,778.85344 47.681935,778.85344 C 42.89497,778.85344 27.935705,777.05833 27.935705,777.05833 C 27.935705,777.05833 15.968292,795.00945 15.968292,803.98501 C 15.968292,812.96057 20.755257,833.90354 20.755257,833.90354 C 20.755257,833.90354 91.36299,857.83837 95.551589,857.83837 C 99.740179,857.83837 252.92306,873.396 252.92306,872.19926 z" style="fill: rgb(33, 33, 33); fill-opacity: 1; fill-rule: evenodd; stroke: rgb(0, 0, 0); stroke-width: 1px; stroke-linecap: butt; stroke-linejoin: miter; stroke-opacity: 1;"/>
      <path id="path3833" d="M 99.141809,844.07584 C 93.756469,842.28073 38.706376,825.52635 36.312893,824.32961 C 33.919411,823.13287 20.755257,818.34591 25.542222,815.35405 C 30.329187,812.3622 54.862382,820.73939 58.452606,822.5345 C 62.04283,824.32961 97.945069,844.67421 99.141809,844.07584 z" style="fill: rgb(98, 98, 98); fill-opacity: 1; fill-rule: evenodd; stroke: none; stroke-width: 1px; stroke-linecap: butt; stroke-linejoin: miter; stroke-opacity: 1; filter: url(&quot;#filter3943&quot;);"/>
      <path id="path3835" d="M 102.73203,833.30517 C 99.141809,832.7068 54.862382,815.95242 51.272159,812.3622 C 47.681935,808.77198 30.329187,802.1899 33.32104,797.40293 C 36.312893,792.61597 67.428165,807.57523 67.428165,807.57523 L 102.73203,833.30517 z" style="fill: rgb(98, 98, 98); fill-opacity: 1; fill-rule: evenodd; stroke: none; stroke-width: 1px; stroke-linecap: butt; stroke-linejoin: miter; stroke-opacity: 1; filter: url(&quot;#filter3947&quot;);"/>
      <path id="path3837" d="M 115.29782,836.29702 C 115.29782,836.29702 72.813501,803.38664 68.026536,802.1899 C 63.239571,800.99316 31.525928,784.23878 31.525928,784.23878" style="fill: none; fill-rule: evenodd; stroke: rgb(203, 203, 203); stroke-width: 5.2; stroke-linecap: butt; stroke-linejoin: miter; stroke-miterlimit: 4; stroke-dasharray: none; stroke-opacity: 1; filter: url(&quot;#filter3875&quot;);"/>
      <path sodipodi:nodetypes="ccscscsc" id="path3951" d="M 261.88101,872.65867 L 108.18997,802.36516 C 108.18997,802.36516 57.418668,774.87017 49.041479,774.87017 C 40.664291,774.87017 27.935705,778.25507 27.935705,778.25507 C 27.935705,778.25507 62.6412,787.829 68.026536,791.41923 C 73.411872,795.00945 138.73693,846.01614 138.73693,846.01614 C 138.73693,846.01614 158.63459,860.41334 167.29592,861.61008 C 174.5069,862.60642 262.47938,873.25704 261.88101,872.65867 z" style="fill: rgb(38, 38, 38); fill-opacity: 1; fill-rule: evenodd; stroke: none; stroke-width: 1px; stroke-linecap: butt; stroke-linejoin: miter; stroke-opacity: 1;"/>
      <path id="path3953" d="M 284.6367,861.42859 C 288.82529,861.42859 350.45747,818.34591 350.45747,818.34591 C 350.45747,818.34591 360.0314,815.95242 357.03954,811.76383 C 354.04769,807.57523 333.10472,798.0013 333.10472,798.0013 C 333.10472,798.0013 329.5145,793.81271 324.72753,795.60782 C 319.94057,797.40293 283.43996,817.14916 283.43996,817.14916 C 283.43996,817.14916 267.88232,824.92798 261.89862,824.92798 C 255.91491,824.92798 183.51207,807.57523 183.51207,807.57523 C 183.51207,807.57523 138.0359,795.60782 132.05219,790.22249 C 126.06849,784.83715 113.5027,771.673 112.30596,769.27951 C 111.10922,766.88603 103.3304,752.52514 103.3304,752.52514 L 10.582957,744.74632 C 10.582957,744.74632 19.558516,765.09092 24.345481,768.68114 C 29.132446,772.27137 35.116152,778.25507 35.116152,778.25507 L 49.477047,774.66485 L 239.7589,866.21555 C 239.7589,866.21555 260.70188,875.19111 269.07906,872.19926 C 277.45625,869.20741 285.83344,860.83022 284.6367,861.42859 z" style="fill: rgb(1, 20, 143); fill-opacity: 1; fill-rule: evenodd; stroke: none; stroke-width: 1px; stroke-linecap: butt; stroke-linejoin: miter; stroke-opacity: 1;"/>
      <path id="path3955" d="M 345.07213,811.76383 L 276.85788,856.04325 C 276.85788,856.04325 271.47255,859.03511 264.2921,859.03511 C 257.11165,859.03511 124.87175,802.78827 124.87175,802.78827 L 68.026536,775.86159 L 52.4689,769.87789 L 69.223277,784.23878 L 251.12795,870.40415 C 251.12795,870.40415 265.48884,873.99437 270.27581,872.79763 C 275.06277,871.60089 291.81715,856.64162 291.81715,856.64162 C 291.81715,856.64162 359.43303,812.96057 356.44117,812.96057 C 353.44932,812.96057 342.67865,812.96057 345.07213,811.76383 z" style="fill: rgb(0, 13, 99); fill-opacity: 1; fill-rule: evenodd; stroke: none; stroke-width: 1px; stroke-linecap: butt; stroke-linejoin: miter; stroke-opacity: 1;"/>
      <path id="path3957" d="M 20.156887,765.68929 L 15.369922,766.28766 L 11.181327,756.71373 L 15.968292,756.71373 L 20.156887,765.68929 z" style="fill: rgb(251, 5, 5); fill-opacity: 1; fill-rule: evenodd; stroke: none; stroke-width: 1px; stroke-linecap: butt; stroke-linejoin: miter; stroke-opacity: 1;"/>
      <path transform="translate(-6.76979, 375.723)" d="M 151.89718,523.26074 A 2.3271155,2.3271155 0 1 1 147.24295,523.26074 A 2.3271155,2.3271155 0 1 1 151.89718,523.26074 z" sodipodi:ry="2.3271155" sodipodi:rx="2.3271155" sodipodi:cy="523.26074" sodipodi:cx="149.57007" id="path4007" style="opacity: 1; fill: rgb(125, 124, 124); fill-opacity: 1; fill-rule: nonzero; stroke: none; stroke-width: 5.2; stroke-linecap: butt; stroke-linejoin: round; stroke-miterlimit: 4; stroke-dasharray: none; stroke-opacity: 1;" sodipodi:type="arc"/>
      <path transform="translate(28.56, 380.166)" d="M 151.89718,523.26074 A 2.3271155,2.3271155 0 1 1 147.24295,523.26074 A 2.3271155,2.3271155 0 1 1 151.89718,523.26074 z" sodipodi:ry="2.3271155" sodipodi:rx="2.3271155" sodipodi:cy="523.26074" sodipodi:cx="149.57007" id="path4009" style="opacity: 1; fill: rgb(125, 124, 124); fill-opacity: 1; fill-rule: nonzero; stroke: none; stroke-width: 5.2; stroke-linecap: butt; stroke-linejoin: round; stroke-miterlimit: 4; stroke-dasharray: none; stroke-opacity: 1;" sodipodi:type="arc"/>
      <path transform="translate(67.0632, 384.397)" d="M 151.89718,523.26074 A 2.3271155,2.3271155 0 1 1 147.24295,523.26074 A 2.3271155,2.3271155 0 1 1 151.89718,523.26074 z" sodipodi:ry="2.3271155" sodipodi:rx="2.3271155" sodipodi:cy="523.26074" sodipodi:cx="149.57007" id="path4011" style="opacity: 1; fill: rgb(125, 124, 124); fill-opacity: 1; fill-rule: nonzero; stroke: none; stroke-width: 5.2; stroke-linecap: butt; stroke-linejoin: round; stroke-miterlimit: 4; stroke-dasharray: none; stroke-opacity: 1;" sodipodi:type="arc"/>
      <path transform="translate(106.836, 388.628)" d="M 151.89718,523.26074 A 2.3271155,2.3271155 0 1 1 147.24295,523.26074 A 2.3271155,2.3271155 0 1 1 151.89718,523.26074 z" sodipodi:ry="2.3271155" sodipodi:rx="2.3271155" sodipodi:cy="523.26074" sodipodi:cx="149.57007" id="path4013" style="opacity: 1; fill: rgb(125, 124, 124); fill-opacity: 1; fill-rule: nonzero; stroke: none; stroke-width: 5.2; stroke-linecap: butt; stroke-linejoin: round; stroke-miterlimit: 4; stroke-dasharray: none; stroke-opacity: 1;" sodipodi:type="arc"/>
      <path transform="translate(138.569, 392.436)" d="M 151.89718,523.26074 A 2.3271155,2.3271155 0 1 1 147.24295,523.26074 A 2.3271155,2.3271155 0 1 1 151.89718,523.26074 z" sodipodi:ry="2.3271155" sodipodi:rx="2.3271155" sodipodi:cy="523.26074" sodipodi:cx="149.57007" id="path4015" style="opacity: 1; fill: rgb(125, 124, 124); fill-opacity: 1; fill-rule: nonzero; stroke: none; stroke-width: 5.2; stroke-linecap: butt; stroke-linejoin: round; stroke-miterlimit: 4; stroke-dasharray: none; stroke-opacity: 1;" sodipodi:type="arc"/>
      <path transform="translate(165.648, 398.36)" d="M 151.89718,523.26074 A 2.3271155,2.3271155 0 1 1 147.24295,523.26074 A 2.3271155,2.3271155 0 1 1 151.89718,523.26074 z" sodipodi:ry="2.3271155" sodipodi:rx="2.3271155" sodipodi:cy="523.26074" sodipodi:cx="149.57007" id="path4017" style="opacity: 1; fill: rgb(125, 124, 124); fill-opacity: 1; fill-rule: nonzero; stroke: none; stroke-width: 5.2; stroke-linecap: butt; stroke-linejoin: round; stroke-miterlimit: 4; stroke-dasharray: none; stroke-opacity: 1;" sodipodi:type="arc"/>
      <path transform="translate(195.689, 383.974)" d="M 151.89718,523.26074 A 2.3271155,2.3271155 0 1 1 147.24295,523.26074 A 2.3271155,2.3271155 0 1 1 151.89718,523.26074 z" sodipodi:ry="2.3271155" sodipodi:rx="2.3271155" sodipodi:cy="523.26074" sodipodi:cx="149.57007" id="path4019" style="opacity: 1; fill: rgb(131, 131, 131); fill-opacity: 1; fill-rule: nonzero; stroke: rgb(131, 131, 131); stroke-width: 5.2; stroke-linecap: butt; stroke-linejoin: round; stroke-miterlimit: 4; stroke-dasharray: none; stroke-opacity: 1; filter: url(&quot;#filter4301&quot;);" sodipodi:type="arc"/>
      <path transform="translate(206.267, 364.088)" d="M 151.89718,523.26074 A 2.3271155,2.3271155 0 1 1 147.24295,523.26074 A 2.3271155,2.3271155 0 1 1 151.89718,523.26074 z" sodipodi:ry="2.3271155" sodipodi:rx="2.3271155" sodipodi:cy="523.26074" sodipodi:cx="149.57007" id="path4021" style="opacity: 1; fill: rgb(131, 131, 131); fill-opacity: 1; fill-rule: nonzero; stroke: rgb(131, 131, 131); stroke-width: 5.2; stroke-linecap: butt; stroke-linejoin: round; stroke-miterlimit: 4; stroke-dasharray: none; stroke-opacity: 1; filter: url(&quot;#filter4297&quot;);" sodipodi:type="arc"/>
      <path transform="translate(192.304, 358.164)" d="M 151.89718,523.26074 A 2.3271155,2.3271155 0 1 1 147.24295,523.26074 A 2.3271155,2.3271155 0 1 1 151.89718,523.26074 z" sodipodi:ry="2.3271155" sodipodi:rx="2.3271155" sodipodi:cy="523.26074" sodipodi:cx="149.57007" id="path4023" style="opacity: 1; fill: rgb(125, 124, 124); fill-opacity: 1; fill-rule: nonzero; stroke: none; stroke-width: 5.2; stroke-linecap: butt; stroke-linejoin: round; stroke-miterlimit: 4; stroke-dasharray: none; stroke-opacity: 1;" sodipodi:type="arc"/>
      <path transform="translate(141.108, 346.317)" d="M 151.89718,523.26074 A 2.3271155,2.3271155 0 1 1 147.24295,523.26074 A 2.3271155,2.3271155 0 1 1 151.89718,523.26074 z" sodipodi:ry="2.3271155" sodipodi:rx="2.3271155" sodipodi:cy="523.26074" sodipodi:cx="149.57007" id="path4025" style="opacity: 1; fill: rgb(125, 124, 124); fill-opacity: 1; fill-rule: nonzero; stroke: none; stroke-width: 5.2; stroke-linecap: butt; stroke-linejoin: round; stroke-miterlimit: 4; stroke-dasharray: none; stroke-opacity: 1;" sodipodi:type="arc"/>
      <path transform="translate(111.49, 356.049)" d="M 151.89718,523.26074 A 2.3271155,2.3271155 0 1 1 147.24295,523.26074 A 2.3271155,2.3271155 0 1 1 151.89718,523.26074 z" sodipodi:ry="2.3271155" sodipodi:rx="2.3271155" sodipodi:cy="523.26074" sodipodi:cx="149.57007" id="path4027" style="opacity: 1; fill: rgb(125, 124, 124); fill-opacity: 1; fill-rule: nonzero; stroke: none; stroke-width: 5.2; stroke-linecap: butt; stroke-linejoin: round; stroke-miterlimit: 4; stroke-dasharray: none; stroke-opacity: 1;" sodipodi:type="arc"/>
      <path transform="translate(47.6001, 354.356)" d="M 151.89718,523.26074 A 2.3271155,2.3271155 0 1 1 147.24295,523.26074 A 2.3271155,2.3271155 0 1 1 151.89718,523.26074 z" sodipodi:ry="2.3271155" sodipodi:rx="2.3271155" sodipodi:cy="523.26074" sodipodi:cx="149.57007" id="path4029" style="opacity: 1; fill: rgb(125, 124, 124); fill-opacity: 1; fill-rule: nonzero; stroke: none; stroke-width: 5.2; stroke-linecap: butt; stroke-linejoin: round; stroke-miterlimit: 4; stroke-dasharray: none; stroke-opacity: 1;" sodipodi:type="arc"/>
      <path transform="translate(0.634663, 346.74)" d="M 151.89718,523.26074 A 2.3271155,2.3271155 0 1 1 147.24295,523.26074 A 2.3271155,2.3271155 0 1 1 151.89718,523.26074 z" sodipodi:ry="2.3271155" sodipodi:rx="2.3271155" sodipodi:cy="523.26074" sodipodi:cx="149.57007" id="path4031" style="opacity: 1; fill: rgb(125, 124, 124); fill-opacity: 1; fill-rule: nonzero; stroke: none; stroke-width: 5.2; stroke-linecap: butt; stroke-linejoin: round; stroke-miterlimit: 4; stroke-dasharray: none; stroke-opacity: 1;" sodipodi:type="arc"/>
      <path transform="translate(-23.9058, 350.548)" d="M 151.89718,523.26074 A 2.3271155,2.3271155 0 1 1 147.24295,523.26074 A 2.3271155,2.3271155 0 1 1 151.89718,523.26074 z" sodipodi:ry="2.3271155" sodipodi:rx="2.3271155" sodipodi:cy="523.26074" sodipodi:cx="149.57007" id="path4033" style="opacity: 1; fill: rgb(125, 124, 124); fill-opacity: 1; fill-rule: nonzero; stroke: none; stroke-width: 5.2; stroke-linecap: butt; stroke-linejoin: round; stroke-miterlimit: 4; stroke-dasharray: none; stroke-opacity: 1;" sodipodi:type="arc"/>
      <path sodipodi:nodetypes="csscsccscccscccc" id="path4035" d="M 371.49227,887.77164 C 371.49227,887.77164 408.09145,848.63379 433.47816,841.864 C 458.86488,835.09421 476.00091,833.61331 481.92448,833.61331 C 487.84804,833.61331 636.36033,867.03916 636.36033,867.03916 C 636.36033,867.03916 649.05369,867.88538 654.13103,865.34671 C 659.20837,862.80804 664.28572,856.88447 664.28572,856.88447 L 750.60055,873.80895 C 750.60055,873.80895 759.06279,873.80895 759.06279,878.88629 C 759.06279,883.96363 748.9081,896.65699 748.9081,896.65699 L 697.28844,950.81532 L 695.596,944.04553 C 695.596,944.04553 597.43403,965.20112 558.50774,966.04735 C 519.58144,966.89357 484.88626,967.73979 484.88626,967.73979 L 335.95087,935.58329 L 367.26115,900.04189 L 371.49227,887.77164 z" style="fill: rgb(23, 23, 23); fill-opacity: 1; fill-rule: evenodd; stroke: none; stroke-width: 1px; stroke-linecap: butt; stroke-linejoin: miter; stroke-opacity: 1;"/>
      <path id="path4037" d="M 356.26024,925.4286 C 360.49136,921.19748 384.18562,894.11832 384.18562,894.11832" style="fill: rgb(131, 131, 131); fill-opacity: 1; fill-rule: evenodd; stroke: rgb(131, 131, 131); stroke-width: 1px; stroke-linecap: butt; stroke-linejoin: miter; stroke-opacity: 1; filter: url(&quot;#filter4293&quot;);"/>
      <path id="path4039" d="M 379.10828,886.50231 C 379.10828,886.50231 415.49591,853.49958 433.26661,848.42223 C 451.03731,843.34489 484.88626,837.42132 491.65605,838.26755 C 498.42584,839.11377 621.97452,868.7316 621.97452,868.7316" style="fill: none; fill-opacity: 1; fill-rule: evenodd; stroke: rgb(131, 131, 131); stroke-width: 5.9; stroke-linecap: butt; stroke-linejoin: miter; stroke-miterlimit: 4; stroke-dasharray: none; stroke-opacity: 1; filter: url(&quot;#filter4333&quot;);"/>
      <path id="path4041" d="M 477.27025,850.11468 L 544.96815,882.27119 C 544.96815,882.27119 553.43039,887.34853 551.73794,894.96454 C 550.0455,902.58056 550.0455,902.58056 550.0455,902.58056" style="fill: none; fill-rule: evenodd; stroke: rgb(139, 139, 139); stroke-width: 2.4; stroke-linecap: butt; stroke-linejoin: miter; stroke-miterlimit: 4; stroke-dasharray: none; stroke-opacity: 1; filter: url(&quot;#filter4365&quot;);"/>
      <path id="path4043" d="M 420.57325,861.96181 L 480.65514,885.65608 L 419.72703,870.42405 L 420.57325,861.96181 z" style="fill: rgb(131, 131, 131); fill-opacity: 1; fill-rule: evenodd; stroke: rgb(131, 131, 131); stroke-width: 1px; stroke-linecap: butt; stroke-linejoin: miter; stroke-opacity: 1; filter: url(&quot;#filter4305&quot;);"/>
      <path id="path4045" d="M 412.95723,948.27665 C 412.95723,948.27665 418.03458,940.66063 418.03458,937.27574 C 418.03458,933.89084 412.95723,924.58238 412.95723,924.58238 L 542.42948,919.50503 L 423.11192,929.65972 L 422.2657,938.96818 L 412.95723,948.27665 z" style="fill: rgb(131, 131, 131); fill-opacity: 1; fill-rule: evenodd; stroke: rgb(131, 131, 131); stroke-width: 1px; stroke-linecap: butt; stroke-linejoin: miter; stroke-opacity: 1; filter: url(&quot;#filter4289&quot;);"/>
      <path id="path4047" d="M 361.33758,931.35217 L 378.26206,927.96727 C 378.26206,927.96727 382.49318,930.50594 381.64695,935.58329 C 380.80073,940.66063 380.80073,940.66063 380.80073,940.66063" style="fill: rgb(131, 131, 131); fill-opacity: 1; fill-rule: evenodd; stroke: rgb(131, 131, 131); stroke-width: 1px; stroke-linecap: butt; stroke-linejoin: miter; stroke-opacity: 1; filter: url(&quot;#filter4285&quot;);"/>
      <path id="path4049" d="M 389.26297,927.96727 L 393.49409,934.73706 L 390.10919,940.66063" style="fill: rgb(131, 131, 131); fill-opacity: 1; fill-rule: evenodd; stroke: rgb(131, 131, 131); stroke-width: 1px; stroke-linecap: butt; stroke-linejoin: miter; stroke-opacity: 1; filter: url(&quot;#filter4281&quot;);"/>
      <path id="path4051" d="M 509.42675,889.04098 L 533.12102,891.57965 L 531.42857,900.04189 L 511.1192,897.50322 L 509.42675,889.04098 z" style="fill: rgb(226, 139, 0); fill-opacity: 1; fill-rule: evenodd; stroke: none; stroke-width: 1px; stroke-linecap: butt; stroke-linejoin: miter; stroke-opacity: 1; filter: url(&quot;#filter4389&quot;);"/>
      <path id="path4053" d="M 577.97088,888.19475 C 577.97088,888.19475 591.51046,880.57874 599.9727,889.04098 C 608.43494,897.50322 609.28117,902.58056 609.28117,902.58056" style="fill: rgb(131, 131, 131); fill-opacity: 1; fill-rule: evenodd; stroke: rgb(131, 131, 131); stroke-width: 1px; stroke-linecap: butt; stroke-linejoin: miter; stroke-opacity: 1; filter: url(&quot;#filter4277&quot;);"/>
      <path id="path4055" d="M 578.81711,904.27301 C 578.81711,904.27301 591.51046,898.34944 595.74158,904.27301 C 599.9727,910.19657 599.9727,915.27392 599.9727,915.27392" style="fill: rgb(131, 131, 131); fill-opacity: 1; fill-rule: evenodd; stroke: rgb(131, 131, 131); stroke-width: 1px; stroke-linecap: butt; stroke-linejoin: miter; stroke-opacity: 1; filter: url(&quot;#filter4273&quot;);"/>
      <path id="path4393" d="M 652.93381,891.34712 L 652.93381,912.29009 L 656.22485,912.29009 L 656.22485,917.07706 L 632.29003,917.07706 L 632.29003,914.0852 L 639.17129,914.0852 L 639.17129,898.82675 C 639.17129,898.82675 644.25744,891.94549 647.24929,891.04793 C 650.24115,890.15038 653.233,891.34712 652.93381,891.34712 z" style="fill: rgb(211, 211, 211); fill-opacity: 1; fill-rule: evenodd; stroke: none; stroke-width: 1px; stroke-linecap: butt; stroke-linejoin: miter; stroke-opacity: 1; filter: url(&quot;#filter4647&quot;);"/>
      <path id="path4395" d="M 639.76966,917.37624 L 639.76966,933.83143 L 652.63463,933.83143 L 652.63463,917.07706 L 639.76966,917.37624 z" style="fill: rgb(211, 211, 211); fill-opacity: 1; fill-rule: evenodd; stroke: none; stroke-width: 1px; stroke-linecap: butt; stroke-linejoin: miter; stroke-opacity: 1; filter: url(&quot;#filter4643&quot;);"/>
      <path id="path4399" d="M 640.66722,948.49151 L 666.69634,944.90129 L 665.20041,936.82329 L 638.8721,940.11433 C 638.8721,940.11433 636.17944,942.80699 636.77781,944.6021 C 637.37618,946.39722 640.9664,949.08988 640.66722,948.49151 z" style="fill: none; fill-rule: evenodd; stroke: rgb(0, 0, 0); stroke-width: 1px; stroke-linecap: butt; stroke-linejoin: miter; stroke-opacity: 1;"/>
      <path id="path4401" d="M 644.85581,950.28663 L 672.68004,948.7907 L 673.27842,944.30292 L 669.38901,942.50781 C 669.38901,942.50781 671.4833,941.01188 671.4833,939.51595 C 671.4833,938.02003 667.59389,936.5241 667.59389,936.5241 C 667.59389,936.5241 672.97923,929.64284 669.68819,927.24936 C 666.39715,924.85587 657.12241,934.13062 657.12241,934.13062 L 650.83952,931.73714 L 636.47862,935.32736 L 636.77781,938.31921 L 631.69166,940.11433 C 631.69166,940.11433 628.10143,943.70455 631.69166,947.59396 C 635.28188,951.48337 640.06885,954.17603 641.86396,953.87685 C 643.65907,953.57766 646.05255,950.885 644.85581,950.28663 z" style="fill: rgb(173, 173, 173); fill-opacity: 1; fill-rule: evenodd; stroke: none; stroke-width: 1px; stroke-linecap: butt; stroke-linejoin: miter; stroke-opacity: 1; filter: url(&quot;#filter4651&quot;);"/>
      <path id="path4403" d="M 631.99084,926.05262 C 631.99084,926.05262 620.92099,934.13062 617.92913,940.11433 C 614.93728,946.09803 613.14217,949.08988 613.44135,951.18418 C 613.74054,953.27848 614.03972,952.97929 614.03972,952.97929 L 628.10143,952.97929 C 628.10143,952.97929 627.50306,940.41351 629.59736,938.6184 C 631.69166,936.82329 633.48677,936.22492 633.48677,936.22492 L 631.99084,926.05262 z" style="fill: rgb(154, 154, 154); fill-opacity: 1; fill-rule: evenodd; stroke: none; stroke-width: 1px; stroke-linecap: butt; stroke-linejoin: miter; stroke-opacity: 1;"/>
      <path id="path4405" d="M 634.38433,925.15506 L 654.13056,917.07706" style="fill: none; fill-rule: evenodd; stroke: rgb(0, 0, 0); stroke-width: 1px; stroke-linecap: butt; stroke-linejoin: miter; stroke-opacity: 1;"/>
      <path id="path4407" d="M 634.9827,929.64284 L 654.72893,925.45425" style="fill: none; fill-rule: evenodd; stroke: rgb(0, 0, 0); stroke-width: 1px; stroke-linecap: butt; stroke-linejoin: miter; stroke-opacity: 1;"/>
      <path id="path4409" d="M 635.28188,934.4298 C 636.77781,934.4298 655.3273,930.24121 655.3273,930.24121" style="fill: none; fill-rule: evenodd; stroke: rgb(0, 0, 0); stroke-width: 1px; stroke-linecap: butt; stroke-linejoin: miter; stroke-opacity: 1;"/>
      <path id="path4411" d="M 696.31568,950.885 C 696.31568,950.885 694.81976,931.43795 692.12709,926.65099 C 689.43442,921.86402 679.86049,905.40883 679.86049,905.40883 C 679.86049,905.40883 683.15153,903.61372 686.44257,907.50313 C 689.73361,911.39254 700.80346,912.88846 705.29124,909.89661 C 709.77902,906.90476 715.76273,897.63001 718.75458,898.82675 C 721.74644,900.02349 721.14806,901.81861 725.63584,902.71616 C 730.12362,903.61372 740.29592,906.0072 740.29592,906.0072 L 695.41813,952.38092 L 697.51243,950.885 L 696.31568,950.885 z" style="fill: rgb(81, 81, 81); fill-opacity: 1; fill-rule: evenodd; stroke: none; stroke-width: 1px; stroke-linecap: butt; stroke-linejoin: miter; stroke-opacity: 1; filter: url(&quot;#filter4445&quot;);"/>
      <path id="path4397" d="M 629.89655,940.7127 L 611.94543,940.7127 C 611.94543,940.7127 608.05602,942.50781 608.3552,944.90129 C 608.65439,947.29477 613.44135,948.49151 613.44135,948.49151 L 630.19573,948.49151 L 629.89655,940.7127 z" style="fill: rgb(211, 211, 211); fill-opacity: 1; fill-rule: evenodd; stroke: none; stroke-width: 1px; stroke-linecap: butt; stroke-linejoin: miter; stroke-opacity: 1; filter: url(&quot;#filter4655&quot;);"/>
      <path id="path4449" d="M 639.76966,942.50781 C 640.9664,942.20862 645.75337,941.61025 645.75337,941.61025 L 646.05255,945.49966 L 640.06885,945.79885 L 639.76966,942.50781 z" style="fill: rgb(13, 13, 13); fill-opacity: 1; fill-rule: evenodd; stroke: rgb(0, 0, 0); stroke-width: 1px; stroke-linecap: butt; stroke-linejoin: miter; stroke-opacity: 1; filter: url(&quot;#filter4691&quot;);"/>
      <path id="path4695" d="M 639.11056,903.00367 C 641.86078,902.15745 652.43858,895.1761 652.43858,895.1761 L 653.07325,891.15654 C 653.07325,891.15654 652.22703,888.82942 648.63057,890.31031 C 645.03412,891.7912 640.37989,896.44543 639.53367,898.13788 C 638.68744,899.83033 638.68744,900.465 638.68744,900.465 L 639.11056,903.00367 z" style="fill: rgb(108, 108, 108); fill-opacity: 1; fill-rule: evenodd; stroke: none; stroke-width: 1px; stroke-linecap: butt; stroke-linejoin: miter; stroke-opacity: 1; filter: url(&quot;#filter4761&quot;);"/>
      <path id="path4767" d="M 401.53321,860.69248 C 401.53321,860.69248 373.18471,854.3458 372.33849,850.11468 C 371.49227,845.88356 407.45678,858.15381 407.45678,858.15381 L 401.53321,860.69248 z" style="fill: rgb(38, 38, 38); fill-opacity: 1; fill-rule: evenodd; stroke: rgb(9, 9, 9); stroke-width: 1px; stroke-linecap: butt; stroke-linejoin: miter; stroke-opacity: 1; filter: url(&quot;#filter4865&quot;);"/>
      <path id="path4769" d="M 412.11101,853.07646 L 392.64786,839.53688 C 392.64786,839.53688 384.18562,833.61331 385.45496,831.92087 C 386.7243,830.22842 401.95632,837.42132 401.95632,837.42132 L 420.57325,848.84534 L 412.11101,853.07646 z" style="fill: rgb(38, 38, 38); fill-opacity: 1; fill-rule: evenodd; stroke: rgb(9, 9, 9); stroke-width: 1px; stroke-linecap: butt; stroke-linejoin: miter; stroke-opacity: 1; filter: url(&quot;#filter4861&quot;);"/>
      <path id="path4771" d="M 433.68972,842.92178 L 411.26479,831.07464 C 411.26479,831.07464 404.91811,827.68975 404.91811,825.57419 C 404.91811,823.45863 422.68881,830.22842 422.68881,830.22842 L 441.72885,840.80622 L 433.68972,842.92178 z" style="fill: rgb(38, 38, 38); fill-opacity: 1; fill-rule: evenodd; stroke: rgb(9, 9, 9); stroke-width: 1px; stroke-linecap: butt; stroke-linejoin: miter; stroke-opacity: 1; filter: url(&quot;#filter4857&quot;);"/>
      <path id="path4869" d="M 358.3758,812.45772 C 358.3758,812.45772 371.06915,803.99548 376.99272,805.68793 C 382.91629,807.38038 392.64786,812.45772 396.45587,811.18838 C 400.26388,809.91905 402.37944,806.11104 402.37944,806.11104 L 412.95723,765.91541 C 412.95723,765.91541 413.38035,754.49139 407.45678,753.22205 C 401.53321,751.95271 386.30118,752.79894 386.30118,752.79894 C 386.30118,752.79894 352.87534,755.76072 344.4131,760.83806 C 335.95087,765.91541 313.10282,787.49412 313.10282,787.49412 L 358.3758,812.45772 z" style="fill: rgb(2, 35, 202); fill-opacity: 1; fill-rule: evenodd; stroke: none; stroke-width: 1px; stroke-linecap: butt; stroke-linejoin: miter; stroke-opacity: 1;"/>
      <path id="path4871" d="M 346.95178,805.68793 C 348.22111,803.57237 371.91538,798.49503 371.91538,798.49503 C 371.91538,798.49503 390.5323,804.41859 393.49409,801.0337 C 396.45587,797.6488 403.22566,778.18565 403.22566,778.18565 C 403.22566,778.18565 409.14923,766.76163 409.99545,763.37674 C 410.84168,759.99184 411.6879,757.45317 411.6879,757.45317 C 411.6879,757.45317 413.80346,764.64607 413.38035,766.76163 C 412.95723,768.87719 401.53321,809.07282 401.53321,809.07282 C 401.53321,809.07282 398.14832,812.03461 395.18653,812.03461 C 392.22475,812.03461 375.72339,804.41859 373.60783,804.41859 C 371.49227,804.41859 357.10646,811.61149 357.10646,811.61149 L 346.95178,805.68793 z" style="fill: rgb(1, 26, 150); fill-opacity: 1; fill-rule: evenodd; stroke: none; stroke-width: 1px; stroke-linecap: butt; stroke-linejoin: miter; stroke-opacity: 1; filter: url(&quot;#filter4943&quot;);"/>
      <path id="path4873" d="M 348.22111,803.99548 C 348.22111,803.99548 347.798,796.80258 349.91356,794.68702 C 352.02912,792.57146 368.10737,784.95544 371.91538,784.10922 C 375.72339,783.263 398.99454,777.76254 398.99454,777.76254 L 399.41765,770.56964 C 399.41765,770.56964 360.91447,779.03188 357.52957,781.57055 C 354.14468,784.10922 349.06733,785.37856 345.68244,790.4559 C 342.29754,795.53324 341.87443,803.14926 341.87443,803.14926 L 348.22111,803.99548 z" style="fill: rgb(77, 107, 254); fill-opacity: 1; fill-rule: evenodd; stroke: none; stroke-width: 1px; stroke-linecap: butt; stroke-linejoin: miter; stroke-opacity: 1; filter: url(&quot;#filter4955&quot;);"/>
      <path id="path4875" d="M 319.4495,789.18656 L 340.18198,768.03097 C 340.18198,768.03097 349.91356,762.53051 352.45223,761.68429 C 354.9909,760.83806 370.22293,759.56873 371.91538,759.56873 C 373.60783,759.56873 371.06915,764.64607 371.06915,764.64607 C 371.06915,764.64607 352.02912,764.22296 347.798,768.87719 C 343.56688,773.53142 322.8344,792.57146 322.8344,792.57146 L 319.4495,789.18656 z" style="fill: rgb(77, 107, 254); fill-opacity: 1; fill-rule: evenodd; stroke: none; stroke-width: 1px; stroke-linecap: butt; stroke-linejoin: miter; stroke-opacity: 1; filter: url(&quot;#filter4951&quot;);"/>
      <path id="path4877" d="M 318.18016,788.76345 L 340.18198,767.60786 L 347.37489,764.64607 L 340.18198,762.53051 L 314.37216,786.22478 L 318.18016,788.76345 z" style="fill: rgb(166, 181, 255); fill-opacity: 1; fill-rule: evenodd; stroke: none; stroke-width: 1px; stroke-linecap: butt; stroke-linejoin: miter; stroke-opacity: 1; filter: url(&quot;#filter4947&quot;);"/>
      <path id="path4961" d="M 403.22566,751.95271 C 403.22566,751.95271 408.72612,741.79803 412.11101,740.52869 C 415.49591,739.25936 427.76615,738.83624 427.76615,738.83624 C 427.76615,738.83624 412.95723,732.06645 409.99545,728.25845 C 407.03367,724.45044 391.37853,692.29393 391.37853,692.29393 C 391.37853,692.29393 390.5323,687.21659 386.7243,687.6397 C 382.91629,688.06281 363.87625,703.71796 363.87625,703.71796 L 366.41492,709.64152 L 362.1838,713.02642 L 403.22566,751.95271 z" style="fill: rgb(1, 1, 1); fill-opacity: 1; fill-rule: evenodd; stroke: rgb(0, 0, 0); stroke-width: 1px; stroke-linecap: butt; stroke-linejoin: miter; stroke-opacity: 1; filter: url(&quot;#filter5019&quot;);"/>
      <path id="path4963" d="M 428.18926,737.56691 C 428.18926,737.56691 432.42038,734.18201 436.6515,734.60513 C 440.88262,735.02824 440.45951,735.45135 440.45951,735.45135 C 440.45951,735.45135 425.65059,697.37128 421.84259,693.56327 C 418.03458,689.75526 401.53321,672.40767 396.45587,672.40767 C 391.37853,672.40767 382.49318,677.90813 382.49318,677.90813 C 382.49318,677.90813 393.07097,687.6397 396.45587,691.87082 C 399.84077,696.10194 415.07279,725.29666 415.07279,725.29666 L 428.18926,737.56691 z" style="fill: rgb(124, 124, 124); fill-opacity: 1; fill-rule: evenodd; stroke: none; stroke-width: 1px; stroke-linecap: butt; stroke-linejoin: miter; stroke-opacity: 1; filter: url(&quot;#filter5015&quot;);"/>
      <path id="path5029" d="M 352.55177,698.07341 C 353.74851,697.62463 372.1484,688.94826 372.1484,688.94826" style="fill: none; fill-rule: evenodd; stroke: rgb(124, 124, 124); stroke-width: 2.4; stroke-linecap: butt; stroke-linejoin: miter; stroke-miterlimit: 4; stroke-dasharray: none; stroke-opacity: 1; filter: url(&quot;#filter5141&quot;);"/>
      <path transform="translate(-7.81694, 375.275)" d="M 392.53113,307.91434 A 3.8146126,3.8146126 0 1 1 384.90191,307.91434 A 3.8146126,3.8146126 0 1 1 392.53113,307.91434 z" sodipodi:ry="3.8146126" sodipodi:rx="3.8146126" sodipodi:cy="307.91434" sodipodi:cx="388.71652" id="path5031" style="opacity: 1; fill: rgb(221, 1, 1); fill-opacity: 1; fill-rule: nonzero; stroke: none; stroke-width: 2.4; stroke-linecap: butt; stroke-linejoin: round; stroke-miterlimit: 4; stroke-dasharray: none; stroke-opacity: 1; filter: url(&quot;#filter5125&quot;);" sodipodi:type="arc"/>
      <path id="path5147" d="M 463.54951,762.09907 L 445.00002,746.54143 L 413.28638,757.91047 L 400.7206,810.56709 L 462.35277,829.11658 L 553.30511,851.85466 C 553.30511,851.85466 626.90469,870.40415 629.29817,870.40415 C 631.69166,870.40415 658.61833,869.80578 661.61019,868.60904 C 664.60204,867.4123 672.97923,861.42859 672.97923,861.42859 C 672.97923,861.42859 748.9723,879.97808 748.9723,877.5846 C 748.9723,875.19111 750.76741,867.4123 750.76741,867.4123 L 725.63584,851.85466 C 725.63584,851.85466 653.83137,835.69865 646.65092,835.69865 C 639.47047,835.69865 512.01753,818.34591 502.4436,818.34591 C 492.86967,818.34591 433.03261,810.56709 429.44239,810.56709 C 425.85217,810.56709 415.67986,811.16546 413.28638,806.37849 C 410.8929,801.59153 421.66357,759.10721 421.66357,759.10721 L 443.80328,751.92677 L 460.55766,764.49255 L 463.54951,762.09907 z" style="fill: rgb(0, 53, 97); fill-opacity: 1; fill-rule: evenodd; stroke: none; stroke-width: 1px; stroke-linecap: butt; stroke-linejoin: miter; stroke-opacity: 1; filter: url(&quot;#filter5317&quot;);"/>
      <path id="path5149" d="M 428.24565,765.09092 L 450.98373,762.09907" style="fill: none; fill-rule: evenodd; stroke: rgb(0, 0, 0); stroke-width: 1px; stroke-linecap: butt; stroke-linejoin: miter; stroke-opacity: 1; filter: url(&quot;#filter5313&quot;);"/>
      <path id="path5153" d="M 415.08149,790.22249 C 413.28638,807.57523 409.69616,806.97686 416.27824,808.1736 C 422.86031,809.37035 444.40165,815.95242 444.40165,815.95242 C 444.40165,815.95242 477.31204,811.76383 496.4599,815.35405 C 515.60776,818.94428 556.89533,830.31332 564.07578,834.50191 C 571.25622,838.69051 602.3715,865.01881 606.56009,857.83837 C 610.74869,850.65792 565.27252,824.92798 565.27252,824.92798 C 565.27252,824.92798 521.59146,809.37035 504.83709,805.78012 C 488.08271,802.1899 440.21306,796.20619 434.82772,796.20619 C 429.44239,796.20619 415.67986,790.82086 415.08149,790.22249 z" style="fill: rgb(213, 236, 255); fill-opacity: 1; fill-rule: evenodd; stroke: rgb(0, 0, 0); stroke-width: 1px; stroke-linecap: butt; stroke-linejoin: miter; stroke-opacity: 1; filter: url(&quot;#filter5321&quot;);"/>
      <path id="path5155" d="M 483.89411,780.64856 C 483.89411,780.64856 614.93728,809.96872 625.70795,813.55894 C 636.47862,817.14916 712.47169,849.46118 712.47169,846.46932 C 712.47169,843.47747 683.15153,825.52635 683.15153,825.52635 C 683.15153,825.52635 601.17476,795.60782 597.58453,793.81271 C 593.99431,792.0176 568.26437,780.05019 565.27252,780.05019 C 562.28067,780.05019 547.3214,777.6567 547.3214,777.6567 C 547.3214,777.6567 511.41916,777.6567 508.42731,777.05833 C 505.43546,776.45996 485.09086,780.05019 483.89411,780.64856 z" style="fill: rgb(213, 236, 255); fill-opacity: 1; fill-rule: evenodd; stroke: none; stroke-width: 1px; stroke-linecap: butt; stroke-linejoin: miter; stroke-opacity: 1; filter: url(&quot;#filter5325&quot;);"/>
      <path id="path5157" d="M 545.52629,776.45996 L 480.90226,777.05833 L 467.73811,767.4844 C 467.73811,767.4844 522.7882,771.07463 528.77191,771.07463 C 534.75562,771.07463 553.90348,776.45996 553.90348,776.45996 L 545.52629,776.45996 z" style="fill: rgb(0, 54, 99); fill-opacity: 1; fill-rule: evenodd; stroke: none; stroke-width: 1px; stroke-linecap: butt; stroke-linejoin: miter; stroke-opacity: 1; filter: url(&quot;#filter5345&quot;);"/>
      <path id="path5151" d="M 416.87661,787.829 C 416.87661,787.829 433.03261,798.0013 434.22935,803.98501 C 435.4261,809.96872 436.62284,816.55079 436.62284,816.55079" style="fill: none; fill-rule: evenodd; stroke: rgb(77, 77, 77); stroke-width: 2.1; stroke-linecap: butt; stroke-linejoin: miter; stroke-miterlimit: 4; stroke-dasharray: none; stroke-opacity: 1; filter: url(&quot;#filter5245&quot;);"/>
      <path id="path5159" d="M 458.76255,740.55773 L 451.5821,720.81149 C 451.5821,720.81149 449.78699,717.22127 451.5821,714.82779 C 453.37721,712.43431 465.943,704.05712 465.943,693.88482 C 465.943,683.71252 456.36907,668.15488 456.36907,668.15488 L 454.57395,644.81843 L 456.96744,638.23635" style="fill: none; fill-rule: evenodd; stroke: rgb(0, 0, 0); stroke-width: 1.8; stroke-linecap: butt; stroke-linejoin: miter; stroke-miterlimit: 4; stroke-dasharray: none; stroke-opacity: 1;"/>
      <path id="path5161" d="M 481.50063,768.68114 L 465.943,724.40172 C 465.943,724.40172 461.7544,715.42616 465.943,710.04082 C 470.13159,704.65549 474.91856,700.46689 474.91856,693.88482 C 474.91856,687.30274 462.95114,662.17117 462.95114,662.17117 C 462.95114,662.17117 456.96744,645.4168 457.56581,641.82657 C 458.16418,638.23635 458.16418,638.23635 458.16418,638.23635 C 458.16418,638.23635 519.79635,712.43431 529.96865,720.21312 C 540.14095,727.99194 573.05134,750.13166 573.05134,750.13166 C 573.05134,750.13166 582.62527,763.29581 580.23178,768.68114 C 577.8383,774.06648 564.67415,780.05019 564.67415,780.05019 C 564.67415,780.05019 536.55073,769.27951 528.17354,769.27951 C 519.79635,769.27951 481.50063,768.08277 481.50063,768.68114 z" style="fill: rgb(192, 226, 255); fill-opacity: 1; fill-rule: evenodd; stroke: rgb(148, 148, 148); stroke-width: 1px; stroke-linecap: butt; stroke-linejoin: miter; stroke-opacity: 1;"/>
      <path id="path5165" d="M 515.00939,768.68114 L 472.52507,738.16424" style="fill: none; fill-rule: evenodd; stroke: rgb(0, 0, 0); stroke-width: 1px; stroke-linecap: butt; stroke-linejoin: miter; stroke-opacity: 1;"/>
      <path id="path5167" d="M 489.27945,730.38542 L 521.59146,754.32025 C 521.59146,754.32025 528.77191,762.69744 523.38658,765.68929 C 518.00124,768.68114 512.6159,766.88603 512.6159,766.88603 L 472.52507,739.36098 L 463.54951,738.16424 C 463.54951,738.16424 459.95929,723.20498 467.13974,720.81149 C 474.32019,718.41801 489.87782,730.38542 489.27945,730.38542 z" style="fill: rgb(164, 164, 164); fill-opacity: 1; fill-rule: evenodd; stroke: none; stroke-width: 1px; stroke-linecap: butt; stroke-linejoin: miter; stroke-opacity: 1;"/>
      <path id="path5169" d="M 484.49249,765.68929 C 484.49249,765.68929 494.06642,750.73003 500.05012,750.73003 C 506.03383,750.73003 523.38658,756.71373 530.56702,754.91862 C 537.74747,753.12351 561.08392,748.33654 561.08392,748.33654" style="fill: none; fill-rule: evenodd; stroke: rgb(249, 249, 249); stroke-width: 3.6; stroke-linecap: butt; stroke-linejoin: miter; stroke-miterlimit: 4; stroke-dasharray: none; stroke-opacity: 1; filter: url(&quot;#filter5225&quot;);"/>
      <path id="path5171" d="M 479.70552,756.11536 C 479.10715,753.72188 474.91856,744.74632 480.90226,742.95121 C 486.88597,741.1561 526.9768,744.14795 526.9768,744.14795" style="fill: none; fill-rule: evenodd; stroke: rgb(249, 249, 249); stroke-width: 3.6; stroke-linecap: butt; stroke-linejoin: miter; stroke-miterlimit: 4; stroke-dasharray: none; stroke-opacity: 1; filter: url(&quot;#filter5229&quot;);"/>
      <path id="path5173" d="M 538.34584,760.90233 C 538.34584,760.90233 556.29696,766.28766 561.68229,765.09092 C 567.06763,763.89418 573.64971,760.30396 574.84645,763.89418 C 576.04319,767.4844 578.43667,772.86974 573.64971,774.66485 C 568.86274,776.45996 562.28067,778.85344 562.28067,778.85344 C 562.28067,778.85344 534.75562,767.4844 532.36213,767.4844 C 529.96865,767.4844 527.57517,763.89418 529.96865,763.89418 C 532.36213,763.89418 537.1491,759.10721 538.34584,760.90233 z" style="fill: rgb(247, 247, 247); fill-opacity: 1; fill-rule: evenodd; stroke: none; stroke-width: 1px; stroke-linecap: butt; stroke-linejoin: miter; stroke-opacity: 1;"/>
      <path id="path5175" d="M 526.37843,741.75447 C 526.37843,741.75447 485.09086,723.20498 479.70552,716.6229 C 474.32019,710.04082 468.93485,708.24571 472.52507,704.05712 C 476.1153,699.86852 479.10715,699.27015 478.50878,695.08156 C 477.91041,690.89296 465.943,657.98258 468.93485,657.98258 C 471.9267,657.98258 506.03383,699.86852 506.03383,699.86852 C 506.03383,699.86852 537.74747,727.39357 537.1491,732.77891 C 536.55073,738.16424 535.35399,741.1561 531.16539,742.95121 C 526.9768,744.74632 525.78006,741.1561 526.37843,741.75447 z" style="fill: rgb(247, 247, 247); fill-opacity: 1; fill-rule: evenodd; stroke: none; stroke-width: 1px; stroke-linecap: butt; stroke-linejoin: miter; stroke-opacity: 1;"/>
      <path id="path5163" d="M 482.099,769.27951 L 465.34463,721.40987 C 465.34463,721.40987 462.35277,716.02453 464.74626,710.63919 C 467.13974,705.25386 476.71367,702.86038 476.1153,695.67993 C 475.51693,688.49948 460.55766,656.18747 460.55766,656.18747 L 458.16418,637.63798" style="fill: none; fill-rule: evenodd; stroke: rgb(0, 0, 0); stroke-width: 1.8; stroke-linecap: butt; stroke-linejoin: miter; stroke-miterlimit: 4; stroke-dasharray: none; stroke-opacity: 1;"/>
      <path id="path5349" d="M 468.33648,995.46361 C 468.33648,995.46361 512.6159,1018.2017 530.56702,1019.3984 C 548.51814,1020.5952 616.13402,1020.5952 616.13402,1020.5952 L 696.31568,1019.9968 C 696.31568,1019.9968 732.21792,1012.218 739.99674,1006.8327 C 747.77556,1001.4473 776.49735,976.91412 780.68594,971.52878 C 784.87453,966.14345 792.05498,950.58581 792.05498,950.58581 L 786.07128,949.38907 C 786.07128,949.38907 763.33319,977.51249 748.37393,982.29945 C 733.41466,987.08642 682.55316,990.07827 682.55316,990.07827 L 532.36213,998.45546 L 476.71367,994.86524 L 468.33648,995.46361 z" style="fill: rgb(35, 35, 36); fill-opacity: 1; fill-rule: evenodd; stroke: none; stroke-width: 1px; stroke-linecap: butt; stroke-linejoin: miter; stroke-opacity: 1;"/>
      <path id="path5351" d="M 483.29574,1002.6441 C 483.29574,1002.6441 573.05134,1011.0212 578.43667,1011.0212 C 583.82201,1011.0212 698.70917,1003.2424 701.70102,1003.2424 C 704.69287,1003.2424 756.15275,988.88153 760.93971,985.29131 C 765.72667,981.70108 777.69409,968.53693 777.69409,968.53693" style="fill: none; fill-rule: evenodd; stroke: rgb(143, 143, 143); stroke-width: 2.6; stroke-linecap: butt; stroke-linejoin: miter; stroke-miterlimit: 4; stroke-dasharray: none; stroke-opacity: 1; filter: url(&quot;#filter5403&quot;);"/>
      <path id="path5353" d="M 686.14338,998.45546 L 691.52872,997.25872 L 724.4391,966.14345 L 725.63584,942.20862 C 725.63584,942.20862 726.23421,932.63469 729.82444,932.03632 C 733.41466,931.43795 780.68594,930.24121 780.68594,930.24121 C 780.68594,930.24121 789.06313,932.03632 789.06313,935.62655 C 789.06313,939.21677 789.06313,948.7907 789.06313,948.7907 L 778.29246,964.34834 C 778.29246,964.34834 772.90712,968.53693 772.30875,965.54508 C 771.71038,962.55322 772.90712,957.16789 772.90712,957.16789 C 772.90712,957.16789 781.88268,946.39722 780.08757,944.00373 C 778.29246,941.61025 750.76741,942.20862 750.76741,942.20862 L 741.79185,938.6184 C 741.79185,938.6184 735.20977,935.02818 735.20977,938.6184 C 735.20977,942.20862 732.81629,966.74182 732.81629,966.74182 C 732.81629,966.74182 727.43096,977.51249 725.63584,980.50434 C 723.84073,983.4962 710.67658,996.06198 706.48798,997.85709 C 702.29939,999.6522 686.74175,1000.2506 686.14338,998.45546 z" style="fill: rgb(2, 2, 167); fill-opacity: 1; fill-rule: evenodd; stroke: none; stroke-width: 1px; stroke-linecap: butt; stroke-linejoin: miter; stroke-opacity: 1;"/>
      <path id="path5355" d="M 690.93035,999.05383 L 720.84888,973.32389" style="fill: none; fill-rule: evenodd; stroke: rgb(173, 173, 173); stroke-width: 2.8; stroke-linecap: butt; stroke-linejoin: miter; stroke-miterlimit: 4; stroke-dasharray: none; stroke-opacity: 1; filter: url(&quot;#filter5459&quot;);"/>
      <path id="path5357" d="M 737.60326,933.83143 L 777.69409,933.23306" style="fill: none; fill-rule: evenodd; stroke: rgb(173, 173, 173); stroke-width: 2.8; stroke-linecap: butt; stroke-linejoin: miter; stroke-miterlimit: 4; stroke-dasharray: none; stroke-opacity: 1; filter: url(&quot;#filter5455&quot;);"/>
      <path id="path5359" d="M 547.3214,1006.2343 C 547.3214,1006.2343 558.69044,994.86524 568.26437,993.6685 C 577.8383,992.47175 622.7161,989.4799 622.7161,989.4799 L 627.50306,992.47175 L 664.60204,997.25872 L 664.60204,1000.8489 L 547.3214,1006.2343 z" style="fill: rgb(147, 147, 149); fill-opacity: 1; fill-rule: evenodd; stroke: none; stroke-width: 1px; stroke-linecap: butt; stroke-linejoin: miter; stroke-opacity: 1;"/>
      <path transform="translate(-6.76979, 375.723)" d="M 619.35085,623.03125 A 4.3568282,2.6926677 0 1 1 610.63719,623.03125 A 4.3568282,2.6926677 0 1 1 619.35085,623.03125 z" sodipodi:ry="2.6926677" sodipodi:rx="4.3568282" sodipodi:cy="623.03125" sodipodi:cx="614.99402" id="path5363" style="opacity: 1; fill: rgb(209, 209, 210); fill-opacity: 1; fill-rule: nonzero; stroke: none; stroke-width: 2.1; stroke-linecap: butt; stroke-linejoin: round; stroke-miterlimit: 4; stroke-dasharray: none; stroke-opacity: 1;" sodipodi:type="arc"/>
      <path id="path5365" d="M 597.28535,979.90597 L 611.04787,976.31575" style="fill: none; fill-rule: evenodd; stroke: rgb(59, 59, 59); stroke-width: 1px; stroke-linecap: butt; stroke-linejoin: miter; stroke-opacity: 1; filter: url(&quot;#filter5613&quot;);"/>
      <path id="path5367" d="M 598.48209,984.69294 L 612.84298,981.70108" style="fill: none; fill-rule: evenodd; stroke: rgb(59, 59, 59); stroke-width: 1px; stroke-linecap: butt; stroke-linejoin: miter; stroke-opacity: 1; filter: url(&quot;#filter5609&quot;);"/>
      <path id="path5369" d="M 600.2772,989.18072 L 614.03972,986.18886" style="fill: none; fill-rule: evenodd; stroke: rgb(59, 59, 59); stroke-width: 1px; stroke-linecap: butt; stroke-linejoin: miter; stroke-opacity: 1; filter: url(&quot;#filter5605&quot;);"/>
      <path id="path5463" d="M 616.73239,1059.4893 L 755.55437,1055.3007 C 755.55437,1055.3007 808.80936,1043.3333 817.78492,1036.1528 C 826.76048,1028.9724 858.47412,996.06198 858.47412,993.07012 C 858.47412,990.07827 853.08878,986.48805 853.08878,986.48805 C 853.08878,986.48805 836.93278,1004.4392 824.367,1009.2261 C 811.80121,1014.0131 796.24358,1019.3984 787.86639,1020.5952 C 779.4892,1021.7919 595.78942,1028.9724 595.78942,1028.9724 C 595.78942,1028.9724 580.23178,1032.5626 576.04319,1032.5626 C 571.8546,1032.5626 528.17354,1031.3658 520.39472,1028.9724 C 512.6159,1026.5789 506.03383,1025.3821 506.03383,1025.3821 L 500.64849,1028.374 C 500.64849,1028.374 543.13281,1051.7105 568.86274,1054.7023 C 594.59268,1057.6942 619.12587,1061.2844 616.73239,1059.4893 z" style="fill: rgb(33, 33, 33); fill-opacity: 1; fill-rule: evenodd; stroke: rgb(0, 0, 0); stroke-width: 1px; stroke-linecap: butt; stroke-linejoin: miter; stroke-opacity: 1;"/>
      <path id="path5465" d="M 650.83952,949.98744 L 668.79064,1025.3821 L 647.84766,1026.5789 L 631.09329,955.37278 L 650.83952,949.98744 z" style="fill: rgb(186, 186, 188); fill-opacity: 1; fill-rule: evenodd; stroke: none; stroke-width: 1px; stroke-linecap: butt; stroke-linejoin: miter; stroke-opacity: 1;"/>
      <path id="path5467" d="M 515.00939,1033.161 C 515.00939,1033.161 619.72424,1044.53 656.82322,1044.53 C 693.9222,1044.53 774.10386,1037.9479 779.4892,1036.7512 C 784.87453,1035.5544 829.15396,1016.4066 829.15396,1016.4066" style="fill: none; fill-rule: evenodd; stroke: rgb(161, 161, 161); stroke-width: 2.6; stroke-linecap: butt; stroke-linejoin: miter; stroke-miterlimit: 4; stroke-dasharray: none; stroke-opacity: 1; filter: url(&quot;#filter5709&quot;);"/>
      <path id="path5469" d="M 587.41223,1037.9479 C 587.41223,1037.9479 606.56009,1024.7838 613.74054,1024.7838 C 620.92099,1024.7838 695.11894,1023.587 698.70917,1024.1854 C 702.29939,1024.7838 720.84888,1033.7593 720.84888,1033.7593 C 720.84888,1033.7593 626.90469,1036.7512 619.72424,1037.9479 C 612.5438,1039.1447 599.97801,1043.3333 595.19105,1040.9398 C 590.40408,1038.5463 588.60897,1037.3496 587.41223,1037.9479 z" style="fill: rgb(165, 165, 167); fill-opacity: 1; fill-rule: evenodd; stroke: none; stroke-width: 1px; stroke-linecap: butt; stroke-linejoin: miter; stroke-opacity: 1;"/>
      <path transform="translate(-6.76979, 375.723)" d="M 670.17506,656.54004 A 5.6845207,3.2910383 0 1 1 658.80602,656.54004 A 5.6845207,3.2910383 0 1 1 670.17506,656.54004 z" sodipodi:ry="3.2910383" sodipodi:rx="5.6845207" sodipodi:cy="656.54004" sodipodi:cx="664.49054" id="path5471" style="opacity: 1; fill: rgb(210, 210, 211); fill-opacity: 1; fill-rule: nonzero; stroke: none; stroke-width: 2.8; stroke-linecap: butt; stroke-linejoin: round; stroke-miterlimit: 4; stroke-dasharray: none; stroke-opacity: 1;" sodipodi:type="arc"/>
      <path id="path5473" d="M 741.79185,1030.7675 L 750.16904,1030.7675 L 786.07128,998.45546 L 788.46476,993.07012 L 792.05498,967.34019 C 792.05498,967.34019 796.24358,955.97115 798.63706,955.97115 C 801.03054,955.97115 852.49041,955.97115 852.49041,955.97115 C 852.49041,955.97115 857.27738,956.56952 857.87575,958.963 C 858.47412,961.35648 857.27738,981.10271 857.27738,981.10271 L 848.30182,990.67664 C 848.30182,990.67664 842.31811,994.86524 842.31811,992.47175 C 842.31811,990.07827 841.12137,985.88968 841.12137,985.88968 L 848.90019,974.52064 C 848.90019,974.52064 853.68716,969.1353 848.30182,967.34019 C 842.91648,965.54508 824.96537,970.93041 821.37514,970.33204 C 817.78492,969.73367 813.59632,963.15159 809.40773,963.74996 C 805.21914,964.34834 801.62891,964.34834 801.62891,964.34834 L 799.8338,984.09457 C 799.8338,984.09457 796.84195,1000.2506 795.04684,1003.8408 C 793.25172,1007.431 771.71038,1028.9724 771.71038,1028.9724 C 771.71038,1028.9724 759.74297,1034.3577 757.34949,1034.3577 C 754.956,1034.3577 744.7837,1034.3577 744.7837,1034.3577 L 741.79185,1030.7675 z" style="fill: rgb(3, 3, 156); fill-opacity: 1; fill-rule: evenodd; stroke: none; stroke-width: 1px; stroke-linecap: butt; stroke-linejoin: miter; stroke-opacity: 1;"/>
      <path id="path5475" d="M 745.98044,1033.161 L 752.56252,1032.5626 L 788.46476,999.6522" style="fill: none; fill-rule: evenodd; stroke: rgb(133, 133, 133); stroke-width: 3; stroke-linecap: butt; stroke-linejoin: miter; stroke-miterlimit: 4; stroke-dasharray: none; stroke-opacity: 1; filter: url(&quot;#filter5693&quot;);"/>
      <path id="path5477" d="M 794.44846,963.74996 C 794.44846,963.74996 796.24358,960.75811 799.23543,959.56137 C 802.22728,958.36463 805.21914,957.16789 805.21914,957.16789 L 846.50671,957.16789" style="fill: none; fill-rule: evenodd; stroke: rgb(133, 133, 133); stroke-width: 3; stroke-linecap: butt; stroke-linejoin: miter; stroke-miterlimit: 4; stroke-dasharray: none; stroke-opacity: 1; filter: url(&quot;#filter5697&quot;);"/>
      <path id="path5479" d="M 647.24929,1023.587 L 667.59389,1018.8001" style="fill: none; fill-rule: evenodd; stroke: rgb(59, 59, 59); stroke-width: 1px; stroke-linecap: butt; stroke-linejoin: miter; stroke-opacity: 1; filter: url(&quot;#filter5617&quot;);"/>
      <path id="path5481" d="M 645.45418,1016.4066 L 664.60204,1011.0212" style="fill: none; fill-rule: evenodd; stroke: rgb(59, 59, 59); stroke-width: 1px; stroke-linecap: butt; stroke-linejoin: miter; stroke-opacity: 1; filter: url(&quot;#filter5621&quot;);"/>
      <path id="path5483" d="M 643.65907,1010.4229 L 662.80693,1003.2424" style="fill: none; fill-rule: evenodd; stroke: rgb(59, 59, 59); stroke-width: 1px; stroke-linecap: butt; stroke-linejoin: miter; stroke-opacity: 1; filter: url(&quot;#filter5625&quot;);"/>
      <path transform="translate(-0.299185, 1.19674)" d="M 48.46802,981.75446 A 1.1967412,1.1967412 0 1 1 46.074537,981.75446 A 1.1967412,1.1967412 0 1 1 48.46802,981.75446 z" sodipodi:ry="1.1967412" sodipodi:rx="1.1967412" sodipodi:cy="981.75446" sodipodi:cx="47.271278" id="path5713" style="opacity: 1; fill: rgb(2, 2, 2); fill-opacity: 1; fill-rule: nonzero; stroke: rgb(161, 161, 161); stroke-width: 2.6; stroke-linecap: butt; stroke-linejoin: round; stroke-miterlimit: 4; stroke-dasharray: none; stroke-opacity: 1;" sodipodi:type="arc"/>
    </g>
  </g>
</svg>