<?xml version="1.0" encoding="UTF-8" standalone="no"?>
<!-- Generator: Adobe Illustrator 10.0, SVG Export Plug-In . SVG Version: 3.0.0 Build 76)  -->
<svg
   xmlns:dc="http://purl.org/dc/elements/1.1/"
   xmlns:cc="http://creativecommons.org/ns#"
   xmlns:rdf="http://www.w3.org/1999/02/22-rdf-syntax-ns#"
   xmlns:svg="http://www.w3.org/2000/svg"
   xmlns="http://www.w3.org/2000/svg"
   xmlns:xlink="http://www.w3.org/1999/xlink"
   xmlns:sodipodi="http://sodipodi.sourceforge.net/DTD/sodipodi-0.dtd"
   xmlns:inkscape="http://www.inkscape.org/namespaces/inkscape"
   width="238.91563"
   height="89.970573"
   viewBox="0 0 400 120"
   overflow="visible"
   enable-background="new 0 0 400 120"
   xml:space="preserve"
   id="svg2"
   sodipodi:version="0.32"
   inkscape:version="0.46"
   sodipodi:docname="Blue_danube_easy.svg"
   inkscape:output_extension="org.inkscape.output.svg.inkscape"
   version="1.0"
   style="overflow:visible"><metadata
   id="metadata190"><rdf:RDF><cc:Work
       rdf:about=""><dc:format>image/svg+xml</dc:format><dc:type
         rdf:resource="http://purl.org/dc/dcmitype/StillImage" /></cc:Work></rdf:RDF></metadata><defs
   id="defs188"><linearGradient
   inkscape:collect="always"
   xlink:href="#linearGradient4526"
   id="linearGradient4614"
   gradientUnits="userSpaceOnUse"
   x1="208"
   y1="631.36218"
   x2="235"
   y2="713.86218" /><linearGradient
   id="linearGradient4526"><stop
     style="stop-color: rgb(94, 95, 97); stop-opacity: 1;"
     offset="0"
     id="stop4528" /><stop
     style="stop-color: rgb(240, 237, 235); stop-opacity: 1;"
     offset="1"
     id="stop4530" /></linearGradient><linearGradient
   inkscape:collect="always"
   xlink:href="#linearGradient4526"
   id="linearGradient4568"
   gradientUnits="userSpaceOnUse"
   x1="208"
   y1="631.36218"
   x2="235"
   y2="713.86218" /><linearGradient
   inkscape:collect="always"
   id="linearGradient4482"><stop
     style="stop-color: rgb(52, 101, 164); stop-opacity: 1;"
     offset="0"
     id="stop4484" /><stop
     style="stop-color: rgb(52, 101, 164); stop-opacity: 0;"
     offset="1"
     id="stop4486" /></linearGradient><linearGradient
   inkscape:collect="always"
   xlink:href="#linearGradient4482"
   id="linearGradient4572"
   gradientUnits="userSpaceOnUse"
   x1="221"
   y1="719.50104"
   x2="187.86905"
   y2="617.22723" /><linearGradient
   xlink:href="#linearGradient167"
   id="linearGradient1439"
   gradientUnits="userSpaceOnUse"
   x1="288.82358"
   y1="398.85422"
   x2="288.37628"
   y2="482.55939"
   gradientTransform="scale(1.221941,0.81837)" /><linearGradient
   xlink:href="#linearGradient162"
   id="linearGradient1437"
   gradientUnits="userSpaceOnUse"
   x1="284.68652"
   y1="410.46326"
   x2="285.45923"
   y2="485.69934"
   gradientTransform="scale(1.218684,0.820557)" /><linearGradient
   xlink:href="#linearGradient167"
   id="linearGradient1435"
   gradientUnits="userSpaceOnUse"
   x1="316.93988"
   y1="474.01779"
   x2="371.60889"
   y2="582.63507"
   gradientTransform="scale(1.065499,0.938527)" /><linearGradient
   xlink:href="#linearGradient167"
   id="linearGradient1433"
   gradientUnits="userSpaceOnUse"
   x1="223.10072"
   y1="570.41809"
   x2="230.53499"
   y2="710.97723"
   gradientTransform="scale(0.999504,1.000496)" /><linearGradient
   xlink:href="#linearGradient167"
   id="linearGradient1431"
   gradientUnits="userSpaceOnUse"
   gradientTransform="scale(1.007724,0.992335)"
   x1="117.88966"
   y1="587.23602"
   x2="182.24524"
   y2="704.73077" /><linearGradient
   xlink:href="#linearGradient162"
   id="linearGradient1429"
   gradientUnits="userSpaceOnUse"
   x1="218.11714"
   y1="630.30475"
   x2="203.12654"
   y2="737.8537"
   gradientTransform="scale(1.009851,0.990245)" /><linearGradient
   xlink:href="#linearGradient153"
   id="linearGradient1427"
   gradientUnits="userSpaceOnUse"
   x1="381.56607"
   y1="655.73102"
   x2="279.64313"
   y2="386.66583"
   gradientTransform="scale(1.065499,0.938527)" /><linearGradient
   id="linearGradient162"><stop
     style="stop-color:#ffa63f;stop-opacity:1;"
     offset="0"
     id="stop163" /><stop
     style="stop-color:#ffff00;stop-opacity:1;"
     offset="1"
     id="stop164" /></linearGradient><linearGradient
   xlink:href="#linearGradient162"
   id="linearGradient1425"
   gradientUnits="userSpaceOnUse"
   x1="236.25362"
   y1="657.11133"
   x2="212.5099"
   y2="737.41229"
   gradientTransform="scale(1.011514,0.988617)" /><linearGradient
   xlink:href="#linearGradient167"
   id="linearGradient1423"
   gradientUnits="userSpaceOnUse"
   x1="867.34546"
   y1="234.73897"
   x2="867.33453"
   y2="314.83911"
   gradientTransform="scale(0.572667,1.746214)" /><linearGradient
   xlink:href="#linearGradient167"
   id="linearGradient1421"
   gradientUnits="userSpaceOnUse"
   x1="411.2215"
   y1="242.94365"
   x2="411.2215"
   y2="331.44858"
   gradientTransform="scale(0.571707,1.749147)" /><linearGradient
   xlink:href="#linearGradient167"
   id="linearGradient1419"
   gradientUnits="userSpaceOnUse"
   x1="322.48257"
   y1="435.26761"
   x2="323.2514"
   y2="488.48251"
   gradientTransform="scale(1.077001,0.928504)" /><linearGradient
   xlink:href="#linearGradient138"
   id="linearGradient1417"
   gradientUnits="userSpaceOnUse"
   x1="320.75104"
   y1="498.17776"
   x2="321.32224"
   y2="614.50439"
   gradientTransform="scale(1.074798,0.930408)" /><linearGradient
   xlink:href="#linearGradient153"
   id="linearGradient1415"
   gradientUnits="userSpaceOnUse"
   x1="375.17325"
   y1="419.78485"
   x2="377.48541"
   y2="324.03815"
   gradientTransform="scale(0.649784,1.538974)" /><linearGradient
   xlink:href="#linearGradient153"
   id="linearGradient1413"
   gradientUnits="userSpaceOnUse"
   spreadMethod="reflect"
   x1="437.57941"
   y1="528.87177"
   x2="437.57941"
   y2="394.10361"
   gradientTransform="scale(0.812855,1.230232)" /><linearGradient
   xlink:href="#linearGradient167"
   id="linearGradient1411"
   gradientUnits="userSpaceOnUse"
   x1="389.63535"
   y1="242.28218"
   x2="387.06866"
   y2="281.32513"
   gradientTransform="scale(0.816497,1.224744)" /><linearGradient
   id="linearGradient167"><stop
     style="stop-color:#ffffff;stop-opacity:0.65;"
     offset="0"
     id="stop168" /><stop
     style="stop-color:#ffffff;stop-opacity:0;"
     offset="1"
     id="stop169" /></linearGradient><linearGradient
   xlink:href="#linearGradient167"
   id="linearGradient1409"
   gradientUnits="userSpaceOnUse"
   gradientTransform="scale(0.816497,1.224744)"
   x1="379.09573"
   y1="240.92712"
   x2="376.79556"
   y2="281.01636" /><linearGradient
   xlink:href="#linearGradient153"
   id="linearGradient1407"
   gradientUnits="userSpaceOnUse"
   x1="381.38742"
   y1="277.495"
   x2="380.5517"
   y2="245.68338"
   gradientTransform="scale(0.816497,1.224744)" /><linearGradient
   xlink:href="#linearGradient153"
   id="linearGradient1405"
   gradientUnits="userSpaceOnUse"
   gradientTransform="scale(0.816497,1.224744)"
   x1="378.93771"
   y1="278.60202"
   x2="380.27319"
   y2="243.91606" /><linearGradient
   id="linearGradient138"><stop
     style="stop-color:#ffffff;stop-opacity:0.8;"
     offset="0"
     id="stop139" /><stop
     style="stop-color:#ffffff;stop-opacity:0;"
     offset="1"
     id="stop140" /></linearGradient><linearGradient
   xlink:href="#linearGradient138"
   id="linearGradient1403"
   gradientUnits="userSpaceOnUse"
   x1="303.01761"
   y1="237.93179"
   x2="297.0856"
   y2="330.09561"
   gradientTransform="scale(1.116071,0.896001)" /><linearGradient
   id="linearGradient153"><stop
     style="stop-color:#ffeed7;stop-opacity:1;"
     offset="0"
     id="stop154" /><stop
     style="stop-color:#bdbfc2;stop-opacity:1;"
     offset="1"
     id="stop155" /></linearGradient><linearGradient
   xlink:href="#linearGradient153"
   id="linearGradient1401"
   gradientUnits="userSpaceOnUse"
   x1="400.57785"
   y1="369.53015"
   x2="400.84448"
   y2="304.07886"
   gradientTransform="scale(0.575262,1.738339)" /><linearGradient
   id="linearGradient172"><stop
     style="stop-color:#3f2600;stop-opacity:0.6;"
     offset="0"
     id="stop173" /><stop
     style="stop-color:#3f2600;stop-opacity:0;"
     offset="1"
     id="stop174" /></linearGradient><radialGradient
   xlink:href="#linearGradient172"
   id="radialGradient1399"
   gradientTransform="scale(1.045233,0.956725)"
   cx="446.77762"
   cy="1219.4125"
   fx="446.77762"
   fy="1219.4125"
   r="195.07191"
   gradientUnits="userSpaceOnUse" /><inkscape:perspective
   sodipodi:type="inkscape:persp3d"
   inkscape:vp_x="0 : 60 : 1"
   inkscape:vp_y="0 : 1000 : 0"
   inkscape:vp_z="400 : 60 : 1"
   inkscape:persp3d-origin="200 : 40 : 1"
   id="perspective192" /><linearGradient
   inkscape:collect="always"
   xlink:href="#linearGradient4482"
   id="linearGradient5884"
   gradientUnits="userSpaceOnUse"
   x1="221"
   y1="719.50104"
   x2="187.86905"
   y2="617.22723" /><linearGradient
   inkscape:collect="always"
   xlink:href="#linearGradient4526"
   id="linearGradient5886"
   gradientUnits="userSpaceOnUse"
   x1="208"
   y1="631.36218"
   x2="235"
   y2="713.86218" /><linearGradient
   inkscape:collect="always"
   xlink:href="#linearGradient4526"
   id="linearGradient5888"
   gradientUnits="userSpaceOnUse"
   x1="208"
   y1="631.36218"
   x2="235"
   y2="713.86218" />
		
		
		
		
		
		
		
		
		
		
		
		
			
		
			
		
			
		
			
		
			
		
		
		
		
			
		
			
		
			
		
		
		
			
		
			
		
		
		
			
		
			
		
		
		
			
		
			
		
		
		
		
		
			
		
			
		
			
	</defs><sodipodi:namedview
   inkscape:window-height="992"
   inkscape:window-width="1920"
   inkscape:pageshadow="2"
   inkscape:pageopacity="0.0"
   guidetolerance="10.0"
   gridtolerance="10.0"
   objecttolerance="10.0"
   borderopacity="1.0"
   bordercolor="#666666"
   pagecolor="#ffffff"
   id="base"
   showgrid="false"
   inkscape:zoom="4.5425"
   inkscape:cx="78.776654"
   inkscape:cy="54.926741"
   inkscape:window-x="-5"
   inkscape:window-y="0"
   inkscape:current-layer="svg2" />
	<rect
   style="fill:#ffffff;fill-opacity:0.36862745000000002;stroke:none;stroke-width:0.27000001000000001;stroke-miterlimit:4;stroke-dasharray:none;stroke-opacity:1"
   id="rect2541"
   width="400.26749"
   height="151.48245"
   x="0.36857042"
   y="-15.798106"
   ry="12.162824" /><symbol
   id="Sharp"
   viewBox="-10 -26.3 20 52.6"
   transform="translate(0.8224623,-2.8457269)">
		<g
   id="g5">
			<g
   id="g7">
				<path
   d="M -5,-26.3 L -3.5,-26.3 L -3.5,23.7 L -5,23.7 L -5,-26.3 z"
   id="path9" />
				<path
   d="M 3.5,-23.7 L 5,-23.7 L 5,26.3 L 3.5,26.3 L 3.5,-23.7 z"
   id="path11" />
				<path
   d="M 10,-10.5 L -10,-16.5 L -10,-10.5 L 10,-4.5 L 10,-10.5 z"
   id="path13" />
				<path
   d="M 10,10.1 L -10,4.1 L -10,10.1 L 10,16.1 L 10,10.1 z"
   id="path15" />
			</g>
		</g>
	</symbol>
	<symbol
   id="Treble_clef"
   viewBox="-25.9 -76.3 51.8 152.6"
   transform="translate(0.8224623,-2.8457269)">
		<g
   id="g18">
			<path
   d="M 22,-12.5 C 17.6,-7.5 12.2,-2.9 5.3,-3.2 C 4.2,2.9 2.6,8.4 1.1,14.6 C 1.1,14.6 10.7,26.5 15.4,35 C 20.1,43.6 15.4,65.4 6.8,76.2 C 2.3,72.8 -1,68.6 -3.6,63.6 C -9.9,51.4 -3.5,21.7 -3.5,21.7 C -3.5,21.7 -21,1.1 -22.2,-1.8 C -24.3,-6.2 -27.3,-9.9 -25.3,-21.4 C -23.3,-33 -16.8,-38.6 -9,-43 C -3.5,-45.7 -0.1,-46.5 8.5,-45.6 C 9,-55.9 8.2,-69.9 -3.2,-73.8 C -8.7,-75.4 -15.7,-71.9 -16.1,-65.8 C -12.8,-67.5 -9.2,-65.8 -7.5,-62.9 C -6.6,-60.7 -6.5,-58.4 -7.1,-56.1 C -9.1,-51 -15.9,-49.9 -19.9,-53 C -24.8,-57.3 -23.7,-64.6 -20.2,-69.7 C -16.6,-74.1 -11.4,-76.9 -5.7,-76.3 C 12.9,-74.3 11.4,-48.4 11.4,-45.1 C 15.6,-43.3 21.1,-40.5 24.1,-32.8 C 27.3,-25.2 26.4,-17.5 22,-12.5 z M -3.3,38.5 C -3.3,50.5 2.1,57.9 10.1,63.9 C 16.3,55.5 11.6,43.9 8.4,38.1 C 5.3,32.3 -1.3,24.2 -1.3,24.2 C -1.3,24.2 -3.3,29.6 -3.3,38.5 z M -20.1,-22.5 C -20.2,-6.2 -1.2,11.7 -1.2,11.7 C -0.2,9.2 2.8,-3.5 2.8,-3.5 C -5,-3.9 -9.5,-9.8 -10.8,-12.7 C -12.1,-15.7 -12.8,-19.1 -12.2,-22.7 C -11.3,-27.9 -5.4,-33.5 -2.6,-34.6 C -1.5,-35 -0.9,-32.9 -1.3,-32.3 C -3,-31.3 -5.6,-29.9 -7.1,-25.1 C -9.6,-17.2 -3,-11.9 4.6,-12.1 C 5,-15.7 8.5,-35.3 8.6,-42.5 C -6.4,-43.9 -20,-36.2 -20.1,-22.5 z M 11.4,-42.1 C 11.2,-33.8 8.7,-19.1 7.6,-12.2 C 14.1,-12.6 20.2,-20.6 20.7,-26 C 21.3,-33.1 20.1,-38.4 11.4,-42.1 z"
   id="path20" />
		</g>
	</symbol>
	<symbol
   id="half_note"
   viewBox="-13.5 -39.5 27 79.1"
   transform="translate(0.8224623,-2.8457269)">
		<g
   id="g23">
			<g
   id="g25">
				<path
   d="M 12,39.5 L 13.5,39.5 L 13.5,-26.5 L 12,-26.5 L 12,39.5 z"
   id="path27" />
				<path
   d="M -12.2,-36.2 C -15.4,-32.1 -12.6,-25.6 -5.8,-21.9 C 0.9,-18.1 9,-18.5 12.2,-22.6 C 15.4,-26.7 12.6,-33.2 5.8,-36.9 C -0.9,-40.7 -9,-40.4 -12.2,-36.2 z"
   id="path29" />
				<path
   d="M 10.6,-23.3 C 9.5,-21.3 3.9,-22.4 -1.9,-25.8 C -2,-25.8 -2,-25.9 -2.1,-25.9 C -2.2,-25.9 -2.3,-26 -2.3,-26 C -8,-29.4 -11.7,-33.7 -10.5,-35.6 C -9.4,-37.6 -3.8,-36.5 2,-33.1 C 2.1,-33.1 2.1,-33 2.2,-33 L 2.3,-32.9 C 8,-29.6 11.7,-25.3 10.6,-23.3 z"
   id="path31"
   style="fill:#ffffff" />
			</g>
		</g>
	</symbol>
	<symbol
   id="quarter_note"
   viewBox="-13.5 -39.5 27 79"
   transform="translate(0.8224623,-2.8457269)">
		<g
   id="g34">
			<g
   id="g36">
				<path
   d="M 12,39.5 L 13.5,39.5 L 13.5,-26.5 L 12,-26.5 L 12,39.5 z"
   id="path38" />
				<g
   id="g40">
					<path
   d="M -12.2,-36.2 C -15.4,-32.1 -12.6,-25.6 -5.8,-21.9 C 0.9,-18.1 9,-18.5 12.2,-22.6 C 15.4,-26.7 12.6,-33.2 5.8,-36.9 C -0.9,-40.6 -9,-40.3 -12.2,-36.2 z"
   id="path42" />
				</g>
			</g>
		</g>
	</symbol>
	<symbol
   id="quarter_rest"
   viewBox="-9.6 -28 19.3 55.9"
   transform="translate(0.8224623,-2.8457269)">
		<g
   id="g45">
			<path
   d="M -5.6,26.6 C -4.1,25 7.4,10.9 7.4,10.9 C 7.4,10.9 1.1,4.8 1.1,-1.6 C 1.1,-9.1 9.7,-15.9 9.7,-15.9 L 8.8,-17 C 5.5,-15.1 -0.1,-14.9 -2.6,-17.8 C -5.7,-21.4 1.3,-26.9 1.3,-26.9 L 0.4,-28 C -2,-26.2 -12.1,-16.6 -7.8,-11.9 C -5.2,-9 -2,-8.1 2.5,-10.5 L -9.6,2 C -2.6,10.6 -1.4,13.1 -1.4,15.4 C -1.4,20.2 -4.8,23.6 -6.5,25.8 C -7.1,26.7 -8.2,27.4 -7.5,28 C -6.9,28.6 -6.5,27.7 -5.6,26.6 z"
   id="path47" />
		</g>
	</symbol>
	<g
   id="Background"
   transform="matrix(1.0037683,0,0,1.259993,0,-15.482797)">
		
	</g>
	<path
   d="M 396.34623,26.279913 L 12.007624,26.279913 L 12.007624,25.703405 L 396.34623,25.703405 L 396.34623,26.279913 z"
   id="line_1" /><path
   d="M 396.34623,19.938326 L 12.007624,19.938326 L 12.007624,19.265734 L 396.34623,19.265734 L 396.34623,19.938326 z"
   id="line_2" /><path
   d="M 396.34623,13.500655 L 12.007624,13.500655 L 12.007624,12.828062 L 396.34623,12.828062 L 396.34623,13.500655 z"
   id="line_3" /><path
   d="M 396.34623,7.0629835 L 12.007624,7.0629835 L 12.007624,6.4864756 L 396.34623,6.4864756 L 396.34623,7.0629835 z"
   id="line_4" /><path
   d="M 396.34623,0.72139656 L 12.007624,0.72139656 L 12.007624,0.048804011 L 396.34623,0.048804011 L 396.34623,0.72139656 z"
   id="line_5" /><g
   id="g58"
   transform="matrix(0.9608465,0,0,0.9608465,12.007624,-55.968547)">
			<path
   id="path60"
   d="M 46.9,84.8 L 46.9,84.4 L 47.8,84.4 L 47.8,81.7 L 43.5,81.7 L 43.5,80.8 L 49.2,72.9 L 50.7,72.9 L 50.7,80.2 L 51.9,80.2 L 51.9,81.6 L 50.7,81.6 L 50.7,84.3 L 51.6,84.3 L 51.6,84.7 L 46.9,84.7 L 46.9,84.8 z M 47.8,80.3 L 47.8,75.5 L 44.4,80.3 L 47.8,80.3 z" />
		</g><g
   id="g62"
   transform="matrix(0.9608465,0,0,0.9608465,12.007624,-55.968547)">
			<path
   id="path64"
   d="M 46,65 L 46,64.6 L 46.3,64.6 C 46.7,64.6 47.1,64.6 47.4,64.5 C 47.7,64.4 47.9,64.4 48.1,64.2 C 48.3,64.1 48.4,63.9 48.5,63.6 C 48.6,63.3 48.6,62.7 48.6,61.9 L 48.6,61.4 C 48.6,60.7 48.5,60.2 48.3,59.9 C 48.1,59.6 47.8,59.5 47.3,59.5 C 46.9,59.5 46.6,59.5 46.4,59.6 C 46.2,59.7 46.1,59.8 46.1,60 C 46.1,60.1 46.2,60.2 46.4,60.3 C 46.4,60.3 46.4,60.3 46.4,60.3 C 46.7,60.5 46.8,60.6 46.9,60.8 C 47,61 47,61.2 47,61.4 C 47,61.8 46.9,62.1 46.7,62.3 C 46.5,62.5 46.2,62.6 45.8,62.6 C 45.4,62.6 45.1,62.5 44.8,62.2 C 44.5,61.9 44.4,61.6 44.4,61.2 C 44.4,60.6 44.7,60.1 45.3,59.7 C 45.9,59.3 46.6,59 47.4,59 C 48.7,59 49.7,59.3 50.5,59.8 C 51.2,60.3 51.6,61.1 51.6,62.1 C 51.6,62.9 51.3,63.5 50.8,63.9 C 50.3,64.4 49.5,64.7 48.4,64.8 C 49.6,65 50.5,65.3 51.1,65.8 C 51.7,66.3 52,67 52,68 C 52,69 51.6,69.8 50.7,70.4 C 49.9,71 48.8,71.3 47.4,71.3 C 46.4,71.3 45.6,71.1 45,70.6 C 44.4,70.2 44.1,69.6 44.1,69 C 44.1,68.6 44.2,68.2 44.5,68 C 44.8,67.8 45.1,67.6 45.5,67.6 C 45.9,67.6 46.2,67.7 46.4,68 C 46.6,68.3 46.7,68.6 46.7,69 C 46.7,69.2 46.7,69.4 46.6,69.6 C 46.5,69.8 46.4,69.9 46.2,70 C 46.1,70 46.1,70.1 46,70.1 C 45.8,70.2 45.7,70.3 45.7,70.4 C 45.7,70.6 45.8,70.7 46.1,70.8 C 46.4,70.9 46.7,71 47.1,71 C 47.4,71 47.6,70.9 47.8,70.8 C 48,70.7 48.2,70.5 48.3,70.3 C 48.4,70.1 48.5,69.8 48.6,69.5 C 48.7,69.2 48.7,68.7 48.7,68 L 48.7,67.2 C 48.7,66.3 48.5,65.7 48.2,65.4 C 47.9,65.1 47.3,64.9 46.3,64.9 L 46,64.9 L 46,65 z" />
		</g><path
   id="path66"
   d="M 95.793439,25.895575 L 95.120846,25.895575 L 95.120846,0.33705796 L 95.793439,0.33705796 L 95.793439,25.895575 z" /><path
   id="path68"
   d="M 181.11661,25.895575 L 180.44402,25.895575 L 180.44402,0.33705796 L 181.11661,0.33705796 L 181.11661,25.895575 z" /><path
   id="path70"
   d="M 266.3437,25.895575 L 265.6711,25.895575 L 265.6711,0.33705796 L 266.3437,0.33705796 L 266.3437,25.895575 z" /><path
   id="path72"
   d="M 351.4747,25.895575 L 350.8021,25.895575 L 350.8021,0.33705796 L 351.4747,0.33705796 L 351.4747,25.895575 z" /><use
   id="use74"
   transform="matrix(0.3202501,0,0,-0.3202501,77.722197,18.834621)"
   y="-39.5"
   x="-13.5"
   height="79"
   width="27"
   xlink:href="#quarter_note" /><use
   id="use78"
   transform="matrix(0.3202501,0,0,-0.3202501,109.11017,18.834621)"
   y="-39.5"
   x="-13.5"
   height="79"
   width="27"
   xlink:href="#quarter_note" /><use
   id="use80"
   transform="matrix(0.3202501,0,0,-0.3202501,134.09218,12.429619)"
   y="-39.5"
   x="-13.5"
   height="79"
   width="27"
   xlink:href="#quarter_note" /><use
   id="use82"
   transform="matrix(0.3202501,0,0,-0.3202501,159.07419,6.0236548)"
   y="-39.5"
   x="-13.5"
   height="79"
   width="27"
   xlink:href="#quarter_note" /><path
   id="path84"
   d="M 162.18793,22.820866 C 162.09185,22.628697 161.8036,22.724781 161.70751,22.820866 C 156.90328,30.699807 132.40169,48.379383 109.72572,35.215786 C 109.62963,35.119701 109.34138,35.407955 109.43746,35.50404 C 132.40169,49.916737 156.99936,32.81367 162.18793,22.820866 z" /><use
   id="use86"
   transform="matrix(0.3202501,0,0,-0.3202501,37.719466,-0.5193255)"
   y="-26.299999"
   x="-10"
   height="52.599998"
   width="20"
   xlink:href="#Sharp" /><use
   id="use88"
   transform="matrix(0.3202501,0,0,-0.3202501,46.366605,8.6087162)"
   y="-26.299999"
   x="-10"
   height="52.599998"
   width="20"
   xlink:href="#Sharp" /><use
   id="use90"
   transform="matrix(0.3202501,0,0,-0.3202501,198.14845,6.0236548)"
   y="-39.5"
   x="-13.5"
   height="79.099998"
   width="27"
   xlink:href="#half_note" /><use
   id="use92"
   transform="matrix(-0.3202501,0,0,0.3202501,242.87418,4.6419196)"
   y="-39.5"
   x="-13.5"
   height="79"
   width="27"
   xlink:href="#quarter_note" /><use
   id="use94"
   transform="matrix(-0.3202501,0,0,0.3202501,242.87418,11.047883)"
   y="-39.5"
   x="-13.5"
   height="79"
   width="27"
   xlink:href="#quarter_note" /><path
   id="path96"
   d="M 249.04846,-5.716275 L 236.2692,-5.716275 L 236.2692,-6.3888675 L 249.04846,-6.3888675 L 249.04846,-5.716275 z" /><path
   d="M 243.57163,-12.442201 C 243.57163,-11.865693 243.18729,-11.481354 242.61079,-11.481354 C 242.03428,-11.481354 241.64994,-11.865693 241.64994,-12.442201 C 241.64994,-13.018708 242.03428,-13.403047 242.61079,-13.403047 C 243.18729,-13.403047 243.57163,-13.018708 243.57163,-12.442201 z"
   id="Stacatto" /><use
   id="use99"
   transform="matrix(-0.3202501,0,0,0.3202501,281.30804,4.6419196)"
   y="-39.5"
   x="-13.5"
   height="79"
   width="27"
   xlink:href="#quarter_note" /><use
   id="use101"
   transform="matrix(-0.3202501,0,0,0.3202501,281.30804,11.047883)"
   y="-39.5"
   x="-13.5"
   height="79"
   width="27"
   xlink:href="#quarter_note" /><path
   id="path103"
   d="M 287.48232,-5.716275 L 274.70306,-5.716275 L 274.70306,-6.3888675 L 287.48232,-6.3888675 L 287.48232,-5.716275 z" /><path
   d="M 282.00549,-12.442201 C 282.00549,-11.865693 281.62115,-11.481354 281.04465,-11.481354 C 280.46814,-11.481354 280.0838,-11.865693 280.0838,-12.442201 C 280.0838,-13.018708 280.46814,-13.403047 281.04465,-13.403047 C 281.62115,-13.403047 282.00549,-13.018708 282.00549,-12.442201 z"
   id="Stacatto_1_" /><use
   id="use106"
   transform="matrix(-0.3202501,0,0,0.3202501,332.55287,11.047883)"
   y="-39.5"
   x="-13.5"
   height="79"
   width="27"
   xlink:href="#quarter_note" /><use
   id="use108"
   transform="matrix(-0.3202501,0,0,0.3202501,332.55287,17.453846)"
   y="-39.5"
   x="-13.5"
   height="79"
   width="27"
   xlink:href="#quarter_note" /><g
   id="decrescendo"
   transform="matrix(0.9608465,0,0,0.9608465,12.007624,-66.051787)">
			<path
   id="path111"
   d="M 370.7,107.7 L 233.4,103.4 L 233.4,102.7 L 370.7,107 L 370.7,107.7 z" />
			<path
   id="path113"
   d="M 233.3,112 L 370.6,107.7 L 370.6,107 L 233.3,111.3 L 233.3,112 z" />
		</g><path
   d="M 333.21861,-6.0045289 C 333.21861,-5.428021 332.83427,-5.0436824 332.25777,-5.0436824 C 331.68126,-5.0436824 331.29692,-5.428021 331.29692,-6.0045289 C 331.29692,-6.5810368 331.68126,-6.9653754 332.25777,-6.9653754 C 332.83427,-6.9653754 333.21861,-6.5810368 333.21861,-6.0045289 z"
   id="Stacatto_2_" /><use
   id="use116"
   transform="matrix(-0.3202501,0,0,0.3202501,364.58173,11.047883)"
   y="-39.5"
   x="-13.5"
   height="79"
   width="27"
   xlink:href="#quarter_note" /><use
   id="use118"
   transform="matrix(-0.3202501,0,0,0.3202501,364.58173,17.453846)"
   y="-39.5"
   x="-13.5"
   height="79"
   width="27"
   xlink:href="#quarter_note" /><path
   d="M 365.31089,-6.0045289 C 365.31089,-5.428021 364.92655,-5.0436824 364.35004,-5.0436824 C 363.77353,-5.0436824 363.38919,-5.428021 363.38919,-6.0045289 C 363.38919,-6.5810368 363.77353,-6.9653754 364.35004,-6.9653754 C 364.83046,-6.9653754 365.31089,-6.5810368 365.31089,-6.0045289 z"
   id="Stacatto_3_" /><g
   id="mezzoforte"
   transform="matrix(0.9608465,0,0,0.9608465,12.007624,-55.968547)">
			<path
   d="M 71.9,108.5 C 71.9,108.5 71.7,108.3 71.7,108.3 L 71.7,108.3 L 71.7,108.3 C 71.6,108.2 71.4,108.3 71.3,108.4 C 71,108.9 70.4,109.6 70.2,109.6 C 70.2,109.6 70.2,109.6 70.2,109.6 C 70.2,109.6 70.2,109.6 70.2,109.5 C 70.2,109.3 70.4,108.9 70.6,108.3 L 70.9,107.5 C 71.3,106.2 71.8,104.8 71.8,104.2 C 71.8,103.8 71.4,103 70.6,103 C 69,103 67.9,104.8 67,106.3 C 67,106.3 67,106.3 67,106.3 C 67.3,105.3 67.7,104.4 67.7,104 C 67.7,103.5 67.1,102.9 66.4,102.9 C 65,102.9 63.9,104.6 63.1,105.9 C 63.5,105 63.8,104.1 63.8,103.8 C 63.8,103.2 63.4,102.9 62.7,102.9 C 61.2,102.9 59.9,104.5 59.7,105 C 59.6,105.1 59.6,105.3 59.8,105.4 C 59.8,105.4 60,105.6 60,105.6 C 60.1,105.7 60.2,105.7 60.2,105.7 C 60.3,105.7 60.4,105.7 60.4,105.6 C 60.6,105.3 61.3,104.6 61.4,104.6 C 61.4,104.6 61.4,104.6 61.4,104.6 C 61.4,104.6 61.4,104.6 61.4,104.7 C 61.4,104.9 61.2,105.6 60.9,106.3 L 60.6,107.3 C 60.6,107.3 59.5,110.7 59.5,110.7 C 59.4,110.9 59.5,111 59.5,111 C 59.6,111.1 59.7,111.1 59.8,111.1 L 61.2,111.1 C 61.3,111.1 61.5,111.1 61.6,110.9 C 61.6,110.9 62.2,109.3 62.2,109.3 C 62.4,108.7 62.7,108.2 62.9,107.8 C 63.9,106.2 65,104.9 65.2,104.9 C 65.3,104.9 65.3,104.9 65.3,105.1 C 65.3,105.4 64.7,107.1 64.5,107.7 L 63.5,110.7 C 63.5,110.8 63.5,110.9 63.5,111 C 63.6,111.1 63.7,111.1 63.8,111.1 L 65.3,111.1 C 65.4,111.1 65.6,111.1 65.7,110.9 C 65.7,110.9 66.2,109.3 66.2,109.3 C 66.3,108.9 66.5,108.4 66.8,108.1 C 68,106.3 69,105 69.2,104.9 C 69.2,104.9 69.3,104.9 69.3,105.1 C 69.3,105.4 69.2,105.9 68.6,107.4 C 67.9,109.3 67.6,110.2 67.7,110.6 C 67.7,111 68,111.4 68.7,111.4 C 70.6,111.4 71.9,109.4 72,109.1 C 72,108.8 72.1,108.6 71.9,108.5 z"
   id="mezzo" />
			<path
   d="M 79.1,98.3 C 78,98.3 76.7,99.1 76.3,99.7 C 75.3,100.9 75,101.8 74.7,102.7 C 74.6,103 74.5,103.3 74.4,103.6 L 73.1,103.6 C 72.9,103.6 72.8,103.7 72.7,103.9 C 72.7,103.9 72.6,104.4 72.6,104.4 C 72.6,104.5 72.6,104.6 72.7,104.7 C 72.8,104.8 72.8,104.8 72.9,104.8 L 74.1,104.8 L 72.8,110.8 C 72.4,112.8 71.7,115.4 70.7,115.4 C 70.5,115.4 70.5,115.3 70.5,115.2 C 70.4,114.5 70,114 69.4,114 C 68.8,114 68.4,114.5 68.4,115.1 C 68.4,115.9 69.1,116.4 70.2,116.4 C 72.9,116.4 74.5,112.3 74.9,111 C 75.3,109.6 75.8,107.7 76.2,106.1 L 76.5,104.7 L 78.2,104.7 C 78.5,104.7 78.5,104.5 78.6,104.4 C 78.6,104.4 78.7,104 78.7,104 C 78.7,103.9 78.7,103.8 78.6,103.7 C 78.6,103.7 78.5,103.6 78.4,103.6 L 76.8,103.6 L 76.9,103.2 C 77.3,101.5 77.8,99.4 78.7,99.4 C 79,99.4 79.1,99.6 79.1,99.8 C 79.2,100.3 79.4,100.9 80.3,100.9 C 80.9,100.9 81.3,100.3 81.3,99.8 C 81.3,99.1 80.7,98.3 79.1,98.3 z"
   id="forte" />
		</g><use
   id="use132"
   transform="matrix(0.3202501,0,0,-0.3202501,22.953946,10.987388)"
   y="-76.300003"
   x="-25.9"
   height="152.60001"
   width="51.799999"
   xlink:href="#Treble_clef" /><use
   id="use134"
   transform="matrix(0.3202501,0,0,-0.3202501,301.59943,11.467811)"
   y="-28"
   x="-9.6000004"
   height="55.900002"
   width="19.299999"
   xlink:href="#quarter_rest" /><use
   id="use136"
   transform="matrix(0.3202501,0,0,-0.3202501,381.99009,11.467811)"
   y="-28"
   x="-9.6000004"
   height="55.900002"
   width="19.299999"
   xlink:href="#quarter_rest" />
	
<g
   transform="matrix(0.3792505,0,0,0.3792505,-32.382571,-168.66834)"
   id="g5786"><path
     sodipodi:nodetypes="ccccc"
     id="rect3954"
     d="M 120.5,598.36218 C 161.61144,566.46788 247.81843,562.10131 289.5,598.36218 C 323.83553,639.08467 281.72249,720.02665 259.5,773.36218 C 221.08297,780.21435 181.17193,777.50178 146.5,773.36218 C 123.71809,732.87503 106.58944,643.05041 120.5,598.36218 z"
     style="fill:#5184d6;fill-opacity:1;fill-rule:nonzero;stroke:#3465a4;stroke-width:2;stroke-linecap:round;stroke-linejoin:round;stroke-miterlimit:4;stroke-dasharray:none;stroke-dashoffset:0;stroke-opacity:1" /><path
     style="fill:#729fcf;fill-opacity:1;fill-rule:nonzero;stroke:none;stroke-width:2;stroke-linecap:round;stroke-linejoin:round;stroke-miterlimit:4;stroke-dasharray:none;stroke-dashoffset:0;stroke-opacity:1"
     d="M 128.5,600.47309 C 169.61144,568.57879 234.81843,560.60131 273.5,592.86218 C 307.83553,633.58467 285.72249,686.02665 266,740.36218 C 227.58297,747.21435 192.17193,754.00178 160,743.86218 C 131.30619,706.19883 113.33665,647.6669 128.5,600.47309 z"
     id="path4534"
     sodipodi:nodetypes="ccccc" /><path
     sodipodi:type="arc"
     style="fill:none;fill-opacity:1;fill-rule:nonzero;stroke:url(#linearGradient4572);stroke-width:8;stroke-linecap:round;stroke-linejoin:round;stroke-miterlimit:4;stroke-dasharray:none;stroke-dashoffset:0;stroke-opacity:1"
     id="path4472"
     sodipodi:cx="221"
     sodipodi:cy="662.36218"
     sodipodi:rx="56.5"
     sodipodi:ry="56.5"
     d="M 277.5,662.36218 A 56.5,56.5 0 1 1 164.5,662.36218 A 56.5,56.5 0 1 1 277.5,662.36218 z"
     transform="matrix(1.04132,0,0,1.04132,-25.1322,-37.8703)" /><path
     sodipodi:nodetypes="cccccc"
     id="path4536"
     d="M 123.5,599.875 C 115.61811,624.40628 120.08231,661.875 122.4375,690.875 C 125.1157,655.97983 118.97026,621.60373 128.8554,601.23407 C 163.97158,575.61517 215.56194,568.42605 236.70803,582.55362 C 243.20078,583.65985 243.0923,581.39197 241.5,580.375 C 204.96873,562.42829 156.45901,578.63566 123.5,599.875 z"
     style="fill:#eeeeec;fill-opacity:1;fill-rule:nonzero;stroke:none;stroke-width:2;stroke-linecap:round;stroke-linejoin:round;stroke-miterlimit:4;stroke-dasharray:none;stroke-dashoffset:0;stroke-opacity:1" /><g
     id="g4589"><path
       sodipodi:type="arc"
       style="fill:url(#linearGradient4568);fill-opacity:1;fill-rule:nonzero;stroke:#2e3436;stroke-width:8;stroke-linecap:round;stroke-linejoin:round;stroke-miterlimit:4;stroke-dasharray:none;stroke-dashoffset:0;stroke-opacity:1"
       id="path4466"
       sodipodi:cx="221"
       sodipodi:cy="662.36218"
       sodipodi:rx="56.5"
       sodipodi:ry="56.5"
       d="M 277.5,662.36218 A 56.5,56.5 0 1 1 164.5,662.36218 A 56.5,56.5 0 1 1 277.5,662.36218 z"
       transform="translate(-16,-10.5)" /><path
       transform="matrix(0.842829,0,0,0.842829,18.7348,94.6042)"
       d="M 277.5,662.36218 A 56.5,56.5 0 1 1 164.5,662.36218 A 56.5,56.5 0 1 1 277.5,662.36218 z"
       sodipodi:ry="56.5"
       sodipodi:rx="56.5"
       sodipodi:cy="662.36218"
       sodipodi:cx="221"
       id="path4468"
       style="fill:#383638;fill-opacity:1;fill-rule:nonzero;stroke:none;stroke-width:8;stroke-linecap:round;stroke-linejoin:round;stroke-miterlimit:4;stroke-dasharray:none;stroke-dashoffset:0;stroke-opacity:1"
       sodipodi:type="arc" /><path
       style="fill:#4c4d4a;fill-opacity:1;fill-rule:evenodd;stroke:none;stroke-width:1px;stroke-linecap:butt;stroke-linejoin:miter;stroke-opacity:1"
       d="M 193.75,668.61218 C 184.27129,664.57393 186.39611,650.06889 173.93457,653.87813 C 160.09872,660.03865 162.85991,674.38767 171.81679,684.37975 C 187.10434,698.23494 208.85612,702.93235 226.83938,692.54672 C 237.4424,686.91497 254.19427,671.0188 239.06813,660.85899 C 227.50983,653.49833 218.51648,666.61691 209.46436,670.82741 C 204.18363,671.57451 198.61158,670.81605 193.75,668.61218 z"
       id="path4578"
       sodipodi:nodetypes="ccccccc" /><path
       transform="matrix(0.303006,0,0,0.303006,137.889,458.734)"
       d="M 277.5,662.36218 A 56.5,56.5 0 1 1 164.5,662.36218 A 56.5,56.5 0 1 1 277.5,662.36218 z"
       sodipodi:ry="56.5"
       sodipodi:rx="56.5"
       sodipodi:cy="662.36218"
       sodipodi:cx="221"
       id="path4581"
       style="fill:#383638;fill-opacity:1;fill-rule:nonzero;stroke:none;stroke-width:8;stroke-linecap:round;stroke-linejoin:round;stroke-miterlimit:4;stroke-dasharray:none;stroke-dashoffset:0;stroke-opacity:1"
       sodipodi:type="arc" /><path
       sodipodi:type="arc"
       style="fill:#5c5d5f;fill-opacity:1;fill-rule:nonzero;stroke:none;stroke-width:8;stroke-linecap:round;stroke-linejoin:round;stroke-miterlimit:4;stroke-dasharray:none;stroke-dashoffset:0;stroke-opacity:1"
       id="path4470"
       sodipodi:cx="221"
       sodipodi:cy="662.36218"
       sodipodi:rx="56.5"
       sodipodi:ry="56.5"
       d="M 277.5,662.36218 A 56.5,56.5 0 1 1 164.5,662.36218 A 56.5,56.5 0 1 1 277.5,662.36218 z"
       transform="matrix(0.303006,0,0,0.303006,138.243,452.37)" /><path
       sodipodi:nodetypes="ccccccc"
       id="path4585"
       d="M 200.4269,657.77182 C 196.60936,656.14542 197.46513,650.30354 192.44626,651.8377 C 186.87389,654.31884 187.98596,660.09789 191.59333,664.12219 C 197.75037,669.70235 206.51087,671.59422 213.7536,667.41142 C 218.02395,665.14325 224.77075,658.74108 218.67871,654.64923 C 214.02362,651.68474 210.40156,656.96823 206.75584,658.664 C 204.62903,658.9649 202.38489,658.65943 200.4269,657.77182 z"
       style="fill:#424643;fill-opacity:1;fill-rule:evenodd;stroke:none;stroke-width:1px;stroke-linecap:butt;stroke-linejoin:miter;stroke-opacity:1" /><path
       sodipodi:type="arc"
       style="opacity:1;fill:#abadaf;fill-opacity:1;fill-rule:nonzero;stroke:none;stroke-width:1.06298995;stroke-linecap:round;stroke-linejoin:round;stroke-miterlimit:4;stroke-dasharray:none;stroke-dashoffset:0;stroke-opacity:1"
       id="path4587"
       sodipodi:cx="206.375"
       sodipodi:cy="641.48718"
       sodipodi:rx="7.375"
       sodipodi:ry="2.875"
       d="M 213.75,641.48718 A 7.375,2.875 0 1 1 199,641.48718 A 7.375,2.875 0 1 1 213.75,641.48718 z"
       transform="translate(-0.25,-0.75)" /></g><path
     transform="translate(-1.06066,-3.18198)"
     d="M 228.04194,744.41718 A 20.682873,21.213203 0 1 1 186.6762,744.41718 A 20.682873,21.213203 0 1 1 228.04194,744.41718 z"
     sodipodi:ry="21.213203"
     sodipodi:rx="20.682873"
     sodipodi:cy="744.41718"
     sodipodi:cx="207.35907"
     id="path4616"
     style="opacity:1;fill:#5184d6;fill-opacity:1;fill-rule:nonzero;stroke:none;stroke-width:1.06298995;stroke-linecap:round;stroke-linejoin:round;stroke-miterlimit:4;stroke-dasharray:none;stroke-dashoffset:0;stroke-opacity:1"
     sodipodi:type="arc" /><g
     transform="matrix(0.310425,0,0,0.310425,142.777,538.603)"
     id="g4598"><path
       transform="translate(-16,-10.5)"
       d="M 277.5,662.36218 A 56.5,56.5 0 1 1 164.5,662.36218 A 56.5,56.5 0 1 1 277.5,662.36218 z"
       sodipodi:ry="56.5"
       sodipodi:rx="56.5"
       sodipodi:cy="662.36218"
       sodipodi:cx="221"
       id="path4600"
       style="fill:url(#linearGradient4614);fill-opacity:1;fill-rule:nonzero;stroke:#2e3436;stroke-width:8;stroke-linecap:round;stroke-linejoin:round;stroke-miterlimit:4;stroke-dasharray:none;stroke-dashoffset:0;stroke-opacity:1"
       sodipodi:type="arc" /><path
       sodipodi:type="arc"
       style="fill:#383638;fill-opacity:1;fill-rule:nonzero;stroke:none;stroke-width:8;stroke-linecap:round;stroke-linejoin:round;stroke-miterlimit:4;stroke-dasharray:none;stroke-dashoffset:0;stroke-opacity:1"
       id="path4602"
       sodipodi:cx="221"
       sodipodi:cy="662.36218"
       sodipodi:rx="56.5"
       sodipodi:ry="56.5"
       d="M 277.5,662.36218 A 56.5,56.5 0 1 1 164.5,662.36218 A 56.5,56.5 0 1 1 277.5,662.36218 z"
       transform="matrix(0.842829,0,0,0.842829,18.7348,94.6042)" /><path
       sodipodi:nodetypes="ccccccc"
       id="path4604"
       d="M 193.75,668.61218 C 184.27129,664.57393 186.39611,650.06889 173.93457,653.87813 C 160.09872,660.03865 162.85991,674.38767 171.81679,684.37975 C 187.10434,698.23494 208.85612,702.93235 226.83938,692.54672 C 237.4424,686.91497 254.19427,671.0188 239.06813,660.85899 C 227.50983,653.49833 218.51648,666.61691 209.46436,670.82741 C 204.18363,671.57451 198.61158,670.81605 193.75,668.61218 z"
       style="fill:#4c4d4a;fill-opacity:1;fill-rule:evenodd;stroke:none;stroke-width:1px;stroke-linecap:butt;stroke-linejoin:miter;stroke-opacity:1" /><path
       sodipodi:type="arc"
       style="fill:#383638;fill-opacity:1;fill-rule:nonzero;stroke:none;stroke-width:8;stroke-linecap:round;stroke-linejoin:round;stroke-miterlimit:4;stroke-dasharray:none;stroke-dashoffset:0;stroke-opacity:1"
       id="path4606"
       sodipodi:cx="221"
       sodipodi:cy="662.36218"
       sodipodi:rx="56.5"
       sodipodi:ry="56.5"
       d="M 277.5,662.36218 A 56.5,56.5 0 1 1 164.5,662.36218 A 56.5,56.5 0 1 1 277.5,662.36218 z"
       transform="matrix(0.303006,0,0,0.303006,137.889,458.734)" /><path
       transform="matrix(0.303006,0,0,0.303006,138.243,452.37)"
       d="M 277.5,662.36218 A 56.5,56.5 0 1 1 164.5,662.36218 A 56.5,56.5 0 1 1 277.5,662.36218 z"
       sodipodi:ry="56.5"
       sodipodi:rx="56.5"
       sodipodi:cy="662.36218"
       sodipodi:cx="221"
       id="path4608"
       style="fill:#5c5d5f;fill-opacity:1;fill-rule:nonzero;stroke:none;stroke-width:8;stroke-linecap:round;stroke-linejoin:round;stroke-miterlimit:4;stroke-dasharray:none;stroke-dashoffset:0;stroke-opacity:1"
       sodipodi:type="arc" /><path
       style="fill:#424643;fill-opacity:1;fill-rule:evenodd;stroke:none;stroke-width:1px;stroke-linecap:butt;stroke-linejoin:miter;stroke-opacity:1"
       d="M 200.4269,657.77182 C 196.60936,656.14542 197.46513,650.30354 192.44626,651.8377 C 186.87389,654.31884 187.98596,660.09789 191.59333,664.12219 C 197.75037,669.70235 206.51087,671.59422 213.7536,667.41142 C 218.02395,665.14325 224.77075,658.74108 218.67871,654.64923 C 214.02362,651.68474 210.40156,656.96823 206.75584,658.664 C 204.62903,658.9649 202.38489,658.65943 200.4269,657.77182 z"
       id="path4610"
       sodipodi:nodetypes="ccccccc" /><path
       transform="translate(-0.25,-0.75)"
       d="M 213.75,641.48718 A 7.375,2.875 0 1 1 199,641.48718 A 7.375,2.875 0 1 1 213.75,641.48718 z"
       sodipodi:ry="2.875"
       sodipodi:rx="7.375"
       sodipodi:cy="641.48718"
       sodipodi:cx="206.375"
       id="path4612"
       style="opacity:1;fill:#abadaf;fill-opacity:1;fill-rule:nonzero;stroke:none;stroke-width:1.06298995;stroke-linecap:round;stroke-linejoin:round;stroke-miterlimit:4;stroke-dasharray:none;stroke-dashoffset:0;stroke-opacity:1"
       sodipodi:type="arc" /></g></g><g
   style="overflow:visible"
   transform="matrix(0.3792505,0,0,0.3792505,280.93181,-168.91036)"
   id="g5840"><path
     sodipodi:nodetypes="ccccc"
     id="path5842"
     d="M 120.5,598.36218 C 161.61144,566.46788 247.81843,562.10131 289.5,598.36218 C 323.83553,639.08467 281.72249,720.02665 259.5,773.36218 C 221.08297,780.21435 181.17193,777.50178 146.5,773.36218 C 123.71809,732.87503 106.58944,643.05041 120.5,598.36218 z"
     style="fill:#5184d6;fill-opacity:1;fill-rule:nonzero;stroke:#3465a4;stroke-width:2;stroke-linecap:round;stroke-linejoin:round;stroke-miterlimit:4;stroke-dasharray:none;stroke-dashoffset:0;stroke-opacity:1" /><path
     style="fill:#729fcf;fill-opacity:1;fill-rule:nonzero;stroke:none;stroke-width:2;stroke-linecap:round;stroke-linejoin:round;stroke-miterlimit:4;stroke-dasharray:none;stroke-dashoffset:0;stroke-opacity:1"
     d="M 128.5,600.47309 C 169.61144,568.57879 234.81843,560.60131 273.5,592.86218 C 307.83553,633.58467 285.72249,686.02665 266,740.36218 C 227.58297,747.21435 192.17193,754.00178 160,743.86218 C 131.30619,706.19883 113.33665,647.6669 128.5,600.47309 z"
     id="path5844"
     sodipodi:nodetypes="ccccc" /><path
     sodipodi:type="arc"
     style="fill:none;fill-opacity:1;fill-rule:nonzero;stroke:url(#linearGradient5884);stroke-width:8;stroke-linecap:round;stroke-linejoin:round;stroke-miterlimit:4;stroke-dasharray:none;stroke-dashoffset:0;stroke-opacity:1"
     id="path5846"
     sodipodi:cx="221"
     sodipodi:cy="662.36218"
     sodipodi:rx="56.5"
     sodipodi:ry="56.5"
     d="M 277.5,662.36218 A 56.5,56.5 0 1 1 164.5,662.36218 A 56.5,56.5 0 1 1 277.5,662.36218 z"
     transform="matrix(1.04132,0,0,1.04132,-25.1322,-37.8703)" /><path
     sodipodi:nodetypes="cccccc"
     id="path5848"
     d="M 123.5,599.875 C 115.61811,624.40628 120.08231,661.875 122.4375,690.875 C 125.1157,655.97983 118.97026,621.60373 128.8554,601.23407 C 163.97158,575.61517 215.56194,568.42605 236.70803,582.55362 C 243.20078,583.65985 243.0923,581.39197 241.5,580.375 C 204.96873,562.42829 156.45901,578.63566 123.5,599.875 z"
     style="fill:#eeeeec;fill-opacity:1;fill-rule:nonzero;stroke:none;stroke-width:2;stroke-linecap:round;stroke-linejoin:round;stroke-miterlimit:4;stroke-dasharray:none;stroke-dashoffset:0;stroke-opacity:1" /><g
     id="g5850"><path
       sodipodi:type="arc"
       style="fill:url(#linearGradient5886);fill-opacity:1;fill-rule:nonzero;stroke:#2e3436;stroke-width:8;stroke-linecap:round;stroke-linejoin:round;stroke-miterlimit:4;stroke-dasharray:none;stroke-dashoffset:0;stroke-opacity:1"
       id="path5852"
       sodipodi:cx="221"
       sodipodi:cy="662.36218"
       sodipodi:rx="56.5"
       sodipodi:ry="56.5"
       d="M 277.5,662.36218 A 56.5,56.5 0 1 1 164.5,662.36218 A 56.5,56.5 0 1 1 277.5,662.36218 z"
       transform="translate(-16,-10.5)" /><path
       transform="matrix(0.842829,0,0,0.842829,18.7348,94.6042)"
       d="M 277.5,662.36218 A 56.5,56.5 0 1 1 164.5,662.36218 A 56.5,56.5 0 1 1 277.5,662.36218 z"
       sodipodi:ry="56.5"
       sodipodi:rx="56.5"
       sodipodi:cy="662.36218"
       sodipodi:cx="221"
       id="path5854"
       style="fill:#383638;fill-opacity:1;fill-rule:nonzero;stroke:none;stroke-width:8;stroke-linecap:round;stroke-linejoin:round;stroke-miterlimit:4;stroke-dasharray:none;stroke-dashoffset:0;stroke-opacity:1"
       sodipodi:type="arc" /><path
       style="fill:#4c4d4a;fill-opacity:1;fill-rule:evenodd;stroke:none;stroke-width:1px;stroke-linecap:butt;stroke-linejoin:miter;stroke-opacity:1"
       d="M 193.75,668.61218 C 184.27129,664.57393 186.39611,650.06889 173.93457,653.87813 C 160.09872,660.03865 162.85991,674.38767 171.81679,684.37975 C 187.10434,698.23494 208.85612,702.93235 226.83938,692.54672 C 237.4424,686.91497 254.19427,671.0188 239.06813,660.85899 C 227.50983,653.49833 218.51648,666.61691 209.46436,670.82741 C 204.18363,671.57451 198.61158,670.81605 193.75,668.61218 z"
       id="path5856"
       sodipodi:nodetypes="ccccccc" /><path
       transform="matrix(0.303006,0,0,0.303006,137.889,458.734)"
       d="M 277.5,662.36218 A 56.5,56.5 0 1 1 164.5,662.36218 A 56.5,56.5 0 1 1 277.5,662.36218 z"
       sodipodi:ry="56.5"
       sodipodi:rx="56.5"
       sodipodi:cy="662.36218"
       sodipodi:cx="221"
       id="path5858"
       style="fill:#383638;fill-opacity:1;fill-rule:nonzero;stroke:none;stroke-width:8;stroke-linecap:round;stroke-linejoin:round;stroke-miterlimit:4;stroke-dasharray:none;stroke-dashoffset:0;stroke-opacity:1"
       sodipodi:type="arc" /><path
       sodipodi:type="arc"
       style="fill:#5c5d5f;fill-opacity:1;fill-rule:nonzero;stroke:none;stroke-width:8;stroke-linecap:round;stroke-linejoin:round;stroke-miterlimit:4;stroke-dasharray:none;stroke-dashoffset:0;stroke-opacity:1"
       id="path5860"
       sodipodi:cx="221"
       sodipodi:cy="662.36218"
       sodipodi:rx="56.5"
       sodipodi:ry="56.5"
       d="M 277.5,662.36218 A 56.5,56.5 0 1 1 164.5,662.36218 A 56.5,56.5 0 1 1 277.5,662.36218 z"
       transform="matrix(0.303006,0,0,0.303006,138.243,452.37)" /><path
       sodipodi:nodetypes="ccccccc"
       id="path5862"
       d="M 200.4269,657.77182 C 196.60936,656.14542 197.46513,650.30354 192.44626,651.8377 C 186.87389,654.31884 187.98596,660.09789 191.59333,664.12219 C 197.75037,669.70235 206.51087,671.59422 213.7536,667.41142 C 218.02395,665.14325 224.77075,658.74108 218.67871,654.64923 C 214.02362,651.68474 210.40156,656.96823 206.75584,658.664 C 204.62903,658.9649 202.38489,658.65943 200.4269,657.77182 z"
       style="fill:#424643;fill-opacity:1;fill-rule:evenodd;stroke:none;stroke-width:1px;stroke-linecap:butt;stroke-linejoin:miter;stroke-opacity:1" /><path
       sodipodi:type="arc"
       style="opacity:1;fill:#abadaf;fill-opacity:1;fill-rule:nonzero;stroke:none;stroke-width:1.06298995;stroke-linecap:round;stroke-linejoin:round;stroke-miterlimit:4;stroke-dasharray:none;stroke-dashoffset:0;stroke-opacity:1"
       id="path5864"
       sodipodi:cx="206.375"
       sodipodi:cy="641.48718"
       sodipodi:rx="7.375"
       sodipodi:ry="2.875"
       d="M 213.75,641.48718 A 7.375,2.875 0 1 1 199,641.48718 A 7.375,2.875 0 1 1 213.75,641.48718 z"
       transform="translate(-0.25,-0.75)" /></g><path
     transform="translate(-1.06066,-3.18198)"
     d="M 228.04194,744.41718 A 20.682873,21.213203 0 1 1 186.6762,744.41718 A 20.682873,21.213203 0 1 1 228.04194,744.41718 z"
     sodipodi:ry="21.213203"
     sodipodi:rx="20.682873"
     sodipodi:cy="744.41718"
     sodipodi:cx="207.35907"
     id="path5866"
     style="opacity:1;fill:#5184d6;fill-opacity:1;fill-rule:nonzero;stroke:none;stroke-width:1.06298995;stroke-linecap:round;stroke-linejoin:round;stroke-miterlimit:4;stroke-dasharray:none;stroke-dashoffset:0;stroke-opacity:1"
     sodipodi:type="arc" /><g
     transform="matrix(0.310425,0,0,0.310425,142.777,538.603)"
     id="g5868"><path
       transform="translate(-16,-10.5)"
       d="M 277.5,662.36218 A 56.5,56.5 0 1 1 164.5,662.36218 A 56.5,56.5 0 1 1 277.5,662.36218 z"
       sodipodi:ry="56.5"
       sodipodi:rx="56.5"
       sodipodi:cy="662.36218"
       sodipodi:cx="221"
       id="path5870"
       style="fill:url(#linearGradient5888);fill-opacity:1;fill-rule:nonzero;stroke:#2e3436;stroke-width:8;stroke-linecap:round;stroke-linejoin:round;stroke-miterlimit:4;stroke-dasharray:none;stroke-dashoffset:0;stroke-opacity:1"
       sodipodi:type="arc" /><path
       sodipodi:type="arc"
       style="fill:#383638;fill-opacity:1;fill-rule:nonzero;stroke:none;stroke-width:8;stroke-linecap:round;stroke-linejoin:round;stroke-miterlimit:4;stroke-dasharray:none;stroke-dashoffset:0;stroke-opacity:1"
       id="path5872"
       sodipodi:cx="221"
       sodipodi:cy="662.36218"
       sodipodi:rx="56.5"
       sodipodi:ry="56.5"
       d="M 277.5,662.36218 A 56.5,56.5 0 1 1 164.5,662.36218 A 56.5,56.5 0 1 1 277.5,662.36218 z"
       transform="matrix(0.842829,0,0,0.842829,18.7348,94.6042)" /><path
       sodipodi:nodetypes="ccccccc"
       id="path5874"
       d="M 193.75,668.61218 C 184.27129,664.57393 186.39611,650.06889 173.93457,653.87813 C 160.09872,660.03865 162.85991,674.38767 171.81679,684.37975 C 187.10434,698.23494 208.85612,702.93235 226.83938,692.54672 C 237.4424,686.91497 254.19427,671.0188 239.06813,660.85899 C 227.50983,653.49833 218.51648,666.61691 209.46436,670.82741 C 204.18363,671.57451 198.61158,670.81605 193.75,668.61218 z"
       style="fill:#4c4d4a;fill-opacity:1;fill-rule:evenodd;stroke:none;stroke-width:1px;stroke-linecap:butt;stroke-linejoin:miter;stroke-opacity:1" /><path
       sodipodi:type="arc"
       style="fill:#383638;fill-opacity:1;fill-rule:nonzero;stroke:none;stroke-width:8;stroke-linecap:round;stroke-linejoin:round;stroke-miterlimit:4;stroke-dasharray:none;stroke-dashoffset:0;stroke-opacity:1"
       id="path5876"
       sodipodi:cx="221"
       sodipodi:cy="662.36218"
       sodipodi:rx="56.5"
       sodipodi:ry="56.5"
       d="M 277.5,662.36218 A 56.5,56.5 0 1 1 164.5,662.36218 A 56.5,56.5 0 1 1 277.5,662.36218 z"
       transform="matrix(0.303006,0,0,0.303006,137.889,458.734)" /><path
       transform="matrix(0.303006,0,0,0.303006,138.243,452.37)"
       d="M 277.5,662.36218 A 56.5,56.5 0 1 1 164.5,662.36218 A 56.5,56.5 0 1 1 277.5,662.36218 z"
       sodipodi:ry="56.5"
       sodipodi:rx="56.5"
       sodipodi:cy="662.36218"
       sodipodi:cx="221"
       id="path5878"
       style="fill:#5c5d5f;fill-opacity:1;fill-rule:nonzero;stroke:none;stroke-width:8;stroke-linecap:round;stroke-linejoin:round;stroke-miterlimit:4;stroke-dasharray:none;stroke-dashoffset:0;stroke-opacity:1"
       sodipodi:type="arc" /><path
       style="fill:#424643;fill-opacity:1;fill-rule:evenodd;stroke:none;stroke-width:1px;stroke-linecap:butt;stroke-linejoin:miter;stroke-opacity:1"
       d="M 200.4269,657.77182 C 196.60936,656.14542 197.46513,650.30354 192.44626,651.8377 C 186.87389,654.31884 187.98596,660.09789 191.59333,664.12219 C 197.75037,669.70235 206.51087,671.59422 213.7536,667.41142 C 218.02395,665.14325 224.77075,658.74108 218.67871,654.64923 C 214.02362,651.68474 210.40156,656.96823 206.75584,658.664 C 204.62903,658.9649 202.38489,658.65943 200.4269,657.77182 z"
       id="path5880"
       sodipodi:nodetypes="ccccccc" /><path
       transform="translate(-0.25,-0.75)"
       d="M 213.75,641.48718 A 7.375,2.875 0 1 1 199,641.48718 A 7.375,2.875 0 1 1 213.75,641.48718 z"
       sodipodi:ry="2.875"
       sodipodi:rx="7.375"
       sodipodi:cy="641.48718"
       sodipodi:cx="206.375"
       id="path5882"
       style="opacity:1;fill:#abadaf;fill-opacity:1;fill-rule:nonzero;stroke:none;stroke-width:1.06298995;stroke-linecap:round;stroke-linejoin:round;stroke-miterlimit:4;stroke-dasharray:none;stroke-dashoffset:0;stroke-opacity:1"
       sodipodi:type="arc" /></g></g></svg>