<?xml version="1.0" encoding="UTF-8" standalone="no"?>
<!-- Created with Inkscape (http://www.inkscape.org/) -->
<svg xmlns:dc="http://purl.org/dc/elements/1.1/" xmlns:cc="http://web.resource.org/cc/" xmlns:rdf="http://www.w3.org/1999/02/22-rdf-syntax-ns#" xmlns:svg="http://www.w3.org/2000/svg" xmlns="http://www.w3.org/2000/svg" xmlns:xlink="http://www.w3.org/1999/xlink" xmlns:sodipodi="http://sodipodi.sourceforge.net/DTD/sodipodi-0.dtd" xmlns:inkscape="http://www.inkscape.org/namespaces/inkscape" height="500" width="500" id="svg7931" sodipodi:version="0.32" inkscape:version="0.45.1" version="1.0" sodipodi:docbase="D:\Documents and Settings\Joanna\My Documents\My Pictures\graph_vector" sodipodi:docname="papapishu_violin.svg" inkscape:output_extension="org.inkscape.output.svg.inkscape">
  <defs id="defs7933">
    <linearGradient inkscape:collect="always" id="linearGradient11085">
      <stop style="stop-color: rgb(232, 148, 58); stop-opacity: 1;" offset="0" id="stop11087"/>
      <stop style="stop-color: rgb(175, 65, 42); stop-opacity: 1;" offset="1" id="stop11089"/>
    </linearGradient>
    <radialGradient inkscape:collect="always" xlink:href="#linearGradient11085" id="radialGradient11091" cx="1049.4054" cy="260.33261" fx="1049.4054" fy="260.33261" r="151.54769" gradientTransform="matrix(-0.48145, -0.48145, 0.6544, -0.6544, 716.802, 973.825)" gradientUnits="userSpaceOnUse"/>
    <filter inkscape:collect="always" id="filter15977">
      <feGaussianBlur inkscape:collect="always" stdDeviation="4.4636422" id="feGaussianBlur15979"/>
    </filter>
  </defs>
  <sodipodi:namedview id="base" pagecolor="#ffffff" bordercolor="#666666" borderopacity="1.0" inkscape:pageopacity="0.0" inkscape:pageshadow="2" inkscape:cx="378.13495" inkscape:cy="114.43367" inkscape:zoom="0.785" inkscape:document-units="px" inkscape:current-layer="layer4" width="500px" height="500px" inkscape:window-width="1280" inkscape:window-height="964" inkscape:window-x="-4" inkscape:window-y="-4"/>
  <metadata id="metadata7936">
    <rdf:RDF>
      <cc:Work rdf:about="">
        <dc:format>image/svg+xml</dc:format>
        <dc:type rdf:resource="http://purl.org/dc/dcmitype/StillImage"/>
      </cc:Work>
    </rdf:RDF>
  </metadata>
  <g inkscape:groupmode="layer" inkscape:label="Warstwa 1" id="layer1" style="opacity: 1;"/>
  <g inkscape:groupmode="layer" id="layer2"/>
  <g inkscape:groupmode="layer" id="layer3" inkscape:label="wyzej" style="opacity: 0;" sodipodi:insensitive="true">
    <rect style="opacity: 1; fill: rgb(255, 127, 42); fill-opacity: 1; stroke: rgb(255, 0, 0); stroke-width: 1; stroke-linejoin: round; stroke-miterlimit: 4; stroke-dasharray: none; stroke-opacity: 1;" id="rect8022" width="501.2739" height="501.2739" x="0.63694245" y="2.547771"/>
  </g>
  <g inkscape:groupmode="layer" id="layer4" inkscape:label="najwyzej" style="opacity: 1;">
    <g id="g13936" style="opacity: 0.646789; fill: rgb(63, 63, 63); fill-opacity: 1; stroke: none; filter: url(#filter15977);" transform="translate(-389.134, 51.3441)">
      <path style="opacity: 1; fill: rgb(63, 63, 63); fill-opacity: 1; fill-rule: evenodd; stroke: none; stroke-width: 1px; stroke-linecap: butt; stroke-linejoin: miter; stroke-opacity: 1;" d="M 544.61195,129.99255 C 518.44929,149.76445 501.58482,171.46011 524.22978,201.33013 C 539.3413,222.67988 562.64927,223.66225 561.17246,239.54669 C 574.62347,229.60791 589.54871,232.93715 606.39539,253.55943 C 623.15219,287.73869 611.513,296.90417 598.11513,302.60402 C 617.08465,306.08727 615.35186,327.86275 629.96226,356.74415 C 654.20958,385.26337 682.99687,396.0179 703.84762,392.41293 C 738.49375,388.12329 754.10988,378.12075 776.45908,362.47663 C 803.43702,342.04303 827.23609,321.09987 824.86673,290.50211 C 823.0104,266.52975 809.62156,249.71705 789.83488,235.72504 C 771.07786,222.50614 753.43192,225.13144 748.43361,205.78873 C 737.08276,215.11384 722.4774,218.25538 694.29348,195.59765 C 664.27765,166.88336 685.15211,169.00447 688.56099,161.20274 C 670.31483,160.28278 674.72905,140.40888 659.89857,124.26007 C 636.91936,101.8793 607.50437,99.725253 572.63743,114.70593 L 572.63743,114.70593 L 572.63743,114.70593" id="path13861" sodipodi:nodetypes="ccccccccscccccccc"/>
      <path sodipodi:nodetypes="ccccccccccccccc" id="path13863" d="M 547.81119,132.985 C 524.18691,151.90042 506.20801,173.83039 528.93419,201.88285 C 544.16862,221.94254 564.20616,219.49038 563.58877,234.52213 C 575.74571,225.01136 593.11597,232.49217 609.94553,251.84939 C 624.16333,281.47822 618.1299,296.61198 605.81735,302.11425 C 623.81046,305.24802 625.14903,346.87121 634.54534,356.22219 C 658.39318,382.34698 687.55627,390.99942 706.97331,387.41517 C 739.31961,383.06734 754.78174,372.20415 777.57075,357.22383 C 801.92901,337.67587 823.63604,317.51588 820.27941,284.95063 C 817.01928,264.67953 801.9892,249.05231 782.71867,235.98902 C 764.45313,223.64805 751.82154,228.82676 746.18706,210.57963 C 735.97372,219.49245 719.2178,220.03816 691.6368,198.85183 C 662.04082,171.95423 677.2992,168.68846 681.39784,162.5568 C 665.48259,159.92982 672.48823,141.73808 657.77007,126.5937 C 635.09298,105.62541 607.00841,103.46332 574.97304,117.92178" style="opacity: 1; fill: rgb(63, 63, 63); fill-opacity: 1; fill-rule: evenodd; stroke: none; stroke-width: 0.942792px; stroke-linecap: butt; stroke-linejoin: miter; stroke-opacity: 1;"/>
      <path style="opacity: 1; fill: rgb(63, 63, 63); fill-opacity: 1; fill-rule: evenodd; stroke: none; stroke-width: 1px; stroke-linecap: butt; stroke-linejoin: miter; stroke-opacity: 1;" d="M 617.22341,203.8779 L 480.91768,61.202746 C 472.22835,51.833984 465.41158,48.075657 456.71386,52.285549 C 472.84974,41.245207 486.43785,40.395954 497.47819,49.737778 L 572.02397,115.89716 L 650.34443,185.40656 C 638.28724,184.44569 627.59793,193.06007 617.22341,203.8779 z " id="path13865" sodipodi:nodetypes="ccccccc"/>
      <path style="opacity: 1; fill: rgb(63, 63, 63); fill-opacity: 1; fill-rule: evenodd; stroke: none; stroke-width: 1px; stroke-linecap: butt; stroke-linejoin: miter; stroke-opacity: 1;" d="M 477.09603,66.298288 L 465.63106,71.393833 C 467.03515,78.072123 466.40953,79.487453 459.26163,81.584913 C 453.88778,80.801653 451.21877,77.313553 450.98138,71.393833 C 455.2989,62.77967 459.34885,65.90012 463.08329,66.298288 L 474.54826,61.202746 C 476.34908,62.66337 478.56537,64.020123 477.09603,66.298288 z " id="path13867" sodipodi:nodetypes="ccccccc"/>
      <path style="opacity: 1; fill: rgb(63, 63, 63); fill-opacity: 1; fill-rule: evenodd; stroke: none; stroke-width: 1px; stroke-linecap: butt; stroke-linejoin: miter; stroke-opacity: 1;" d="M 490.92127,45.10965 L 496.5511,41.731751 C 494.78803,36.505941 497.6524,33.979477 503.0817,32.949215 C 509.22707,33.259382 511.18742,37.754575 510.73827,44.659263 C 508.05829,49.804279 504.33452,51.296065 499.25342,48.037162 L 496.77629,48.937935 L 497.22668,49.388322" id="path13869" sodipodi:nodetypes="ccccccc"/>
      <path style="opacity: 1; fill: rgb(63, 63, 63); fill-opacity: 1; fill-rule: evenodd; stroke: none; stroke-width: 1px; stroke-linecap: butt; stroke-linejoin: miter; stroke-opacity: 1;" d="M 484.84105,42.857717 C 483.56852,38.357421 488.38412,33.414644 496.10071,36.327113" id="path13871" sodipodi:nodetypes="cc"/>
      <path id="path13873" style="opacity: 1; fill: rgb(63, 63, 63); fill-opacity: 1; fill-rule: evenodd; stroke: none; stroke-width: 1px; stroke-linecap: butt; stroke-linejoin: miter; stroke-opacity: 1;" d="M 468.40194,45.10965 L 463.44769,50.063901 C 479.76406,52.697855 488.25957,67.902393 497.45187,78.888633 C 483.09016,88.489563 478.43464,60.802662 468.17675,73.033613 L 457.93046,59.634613 C 455.7494,56.208068 451.57402,51.269432 449.9361,46.686003 C 445.99631,49.622987 442.7673,46.518369 440.0276,39.254626 C 441.45382,37.119704 442.88004,36.000867 444.30627,37.45308 C 443.98816,30.997295 439.39408,18.94985 446.10781,21.689553 C 446.971,20.338328 446.7357,17.668914 450.38649,19.662813 C 454.40412,14.532685 460.39099,23.187266 465.47443,25.517838 C 471.09752,24.455476 472.90689,28.688136 471.32946,35.426341 C 473.47119,42.325883 470.95233,43.399673 468.40194,44.43407 L 468.62714,45.560036 L 468.40194,45.560036" sodipodi:nodetypes="ccccccccccccccc"/>
      <path style="opacity: 1; fill: rgb(63, 63, 63); fill-opacity: 1; fill-rule: evenodd; stroke: none; stroke-width: 1px; stroke-linecap: butt; stroke-linejoin: miter; stroke-opacity: 1;" d="M 626.93798,230.89407 C 617.56857,229.90547 619.46653,237.52886 623.78528,246.4324 C 633.77138,256.85765 649.53157,271.4818 647.20538,286.742 C 647.57478,295.76314 641.15755,299.30806 630.31589,296.6505 C 627.2789,294.5748 624.26214,291.35125 629.6403,287.64277 C 634.80442,286.24685 634.48193,289.75294 634.36937,293.0474 C 641.52611,296.69821 644.1059,291.63337 642.47632,284.49006 C 640.46393,275.94802 633.86041,269.24492 627.83876,262.42113 C 611.99949,240.40236 616.03342,233.51102 619.50661,229.54291 C 622.95957,227.91711 626.41254,225.97322 629.8655,228.41695 C 632.12618,230.74613 633.56975,232.53325 632.11743,234.27197 C 628.98781,236.90693 626.25188,234.70069 626.93798,230.89407 z " id="path13875" sodipodi:nodetypes="cccccccccccc"/>
      <path style="opacity: 1; fill: rgb(63, 63, 63); fill-opacity: 1; fill-rule: evenodd; stroke: none; stroke-width: 1px; stroke-linecap: butt; stroke-linejoin: miter; stroke-opacity: 1;" d="M 732.32842,229.54291 C 735.68008,237.07944 719.7196,231.25379 716.3397,228.64214 L 685.93861,205.22204 C 673.15076,196.37382 671.87412,198.52118 665.89642,199.8174 C 664.44794,201.86814 661.52332,203.24791 666.3468,208.14955 C 670.86217,210.26286 671.09313,208.09176 671.52625,206.12282 L 667.92316,203.64569 C 670.6734,197.81316 677.34714,202.83399 680.98436,205.89762 C 691.99066,215.33686 703.19234,225.94834 713.63738,232.02004 C 722.7254,237.12149 728.33795,235.85124 733.90478,234.49716 C 737.40158,233.04683 736.75884,229.82241 736.15671,226.6154 C 733.35979,223.71873 730.24015,221.95155 726.2482,223.2375 C 722.84693,225.93407 726.49697,228.72292 732.32842,229.54291 z " id="path13877" sodipodi:nodetypes="ccccccccccccc"/>
      <path style="opacity: 1; fill: rgb(63, 63, 63); fill-opacity: 1; fill-rule: evenodd; stroke: none; stroke-width: 1px; stroke-linecap: butt; stroke-linejoin: miter; stroke-opacity: 1;" d="M 647.65576,249.13472 L 644.95344,234.72236 C 658.06321,216.33583 672.08623,210.73483 686.389,209.05033 L 683.2363,228.41695 L 647.65576,249.13472 z " id="path13879" sodipodi:nodetypes="ccccc"/>
      <path style="opacity: 1; fill: rgb(63, 63, 63); fill-opacity: 1; fill-rule: evenodd; stroke: none; stroke-width: 1px; stroke-linecap: butt; stroke-linejoin: miter; stroke-opacity: 1;" d="M 683.2363,275.25714 C 690.87965,267.29238 699.38545,259.8451 712.9618,255.44014 C 719.86773,266.23265 726.77365,276.65691 733.67958,293.2726 C 748.11063,318.90726 775.46091,339.87163 784.57326,352.72361 L 762.9547,366.6856 C 748.61527,347.6574 753.87784,338.16486 721.51915,306.33381 C 708.02246,296.95591 693.36387,289.1272 683.2363,275.25714 z " id="path13881" sodipodi:nodetypes="ccccccc"/>
      <path style="opacity: 1; fill: rgb(63, 63, 63); fill-opacity: 1; fill-rule: evenodd; stroke: none; stroke-width: 1px; stroke-linecap: butt; stroke-linejoin: miter; stroke-opacity: 1;" d="M 686.83939,278.40985 C 696.14738,268.16002 705.45536,262.42454 714.76335,258.14245" id="path13883" sodipodi:nodetypes="cc"/>
      <path style="opacity: 1; fill: rgb(63, 63, 63); fill-opacity: 1; fill-rule: evenodd; stroke: none; stroke-width: 1px; stroke-linecap: butt; stroke-linejoin: miter; stroke-opacity: 1;" d="M 479.00686,59.291918 L 498.11513,49.100835" id="path13885"/>
      <path style="opacity: 1; fill: rgb(63, 63, 63); fill-opacity: 1; fill-rule: evenodd; stroke: none; stroke-width: 1px; stroke-linecap: butt; stroke-linejoin: miter; stroke-opacity: 1;" d="M 688.56099,270.75688 L 651.61832,226.80784 L 482.82851,57.38109 L 482.82851,57.38109" id="path13887"/>
      <path style="opacity: 1; fill: rgb(63, 63, 63); fill-opacity: 1; fill-rule: evenodd; stroke: none; stroke-width: 1px; stroke-linecap: butt; stroke-linejoin: miter; stroke-opacity: 1;" d="M 694.29348,265.66134 L 659.89857,218.52758 L 487.28711,54.833319" id="path13889"/>
      <path style="opacity: 1; fill: rgb(63, 63, 63); fill-opacity: 1; fill-rule: evenodd; stroke: none; stroke-width: 1px; stroke-linecap: butt; stroke-linejoin: miter; stroke-opacity: 1;" d="M 702.57373,259.29192 L 670.08966,212.15816 L 491.74571,51.648606 L 491.74571,51.648606 L 493.01959,51.648606" id="path13891"/>
      <path style="opacity: 1; fill: rgb(63, 63, 63); fill-opacity: 1; fill-rule: evenodd; stroke: none; stroke-width: 1px; stroke-linecap: butt; stroke-linejoin: miter; stroke-opacity: 1;" d="M 710.21705,255.47026 L 679.6438,210.24733 L 496.84125,49.737778 L 496.84125,49.737778" id="path13893"/>
      <g transform="translate(382.829, -32.4278)" id="g13895" style="opacity: 1; fill: rgb(63, 63, 63); fill-opacity: 1; stroke: none;">
        <path id="path13897" style="fill: rgb(63, 63, 63); fill-opacity: 1; fill-rule: evenodd; stroke: none; stroke-width: 1px; stroke-linecap: butt; stroke-linejoin: miter; stroke-opacity: 1;" d="M 134.3949,224.84076 C 128.91775,268.7898 185.6781,274.52229 179.61783,293.63057 L 183.43949,294.90446 C 207.73957,272.389 229.12277,310.46282 229.14113,323.45305 C 239.16346,309.54179 215.17981,247.57988 177.90266,272.10444 C 179.43082,254.40763 154.87855,256.56899 134.66556,225.71463" sodipodi:nodetypes="cccccc"/>
      </g>
      <path id="path13899" style="opacity: 1; fill: rgb(63, 63, 63); fill-opacity: 1; fill-rule: evenodd; stroke: none; stroke-width: 1px; stroke-linecap: butt; stroke-linejoin: miter; stroke-opacity: 1;" d="M 596.76209,301.82994 C 623.13009,304.06431 616.80554,336.86869 631.44185,358.12825 C 669.53858,398.78521 703.01086,394.82943 737.28267,385.15144 C 784.49293,363.69433 815.19831,333.28683 824.33112,304.17913 C 820.19495,324.40897 826.28579,338.12356 780.28074,377.76325 C 735.17258,411.79282 716.64596,410.38033 696.20431,411.52121 C 662.49966,408.92013 643.88653,391.22752 628.68838,370.11994 C 616.37557,353.55745 620.461,328.55973 603.21068,326.1709 C 599.05729,324.57597 600.80036,321.18778 601.93679,319.16453 L 600.6629,307.69956 C 597.31729,307.15915 598.07666,304.15576 597.47819,301.96707" sodipodi:nodetypes="ccccccccccc"/>
      <path id="path13901" style="opacity: 1; fill: rgb(63, 63, 63); fill-opacity: 1; fill-rule: evenodd; stroke: none; stroke-width: 1px; stroke-linecap: butt; stroke-linejoin: miter; stroke-opacity: 1;" d="M 689.31651,161.08417 C 690.20145,163.57576 690.84438,165.90601 688.19055,166.03842 L 688.19055,180.0004 C 690.01651,184.10099 690.52387,187.27857 684.81265,186.41841 C 664.92982,164.4521 687.07705,168.75257 689.09132,160.40859" sodipodi:nodetypes="ccccc"/>
      <path sodipodi:nodetypes="ccccccc" id="path13903" d="M 485.96498,48.75954 L 497.15632,43.088203 C 495.41481,36.489857 495.96774,35.044574 502.99986,32.586738 C 508.40656,33.096017 511.24931,36.444039 511.78709,42.344058 C 507.91271,51.16641 503.70949,48.25571 499.95964,48.047749 L 488.76831,53.719085 C 486.89562,52.351825 484.61326,51.109405 485.96498,48.75954 z " style="opacity: 1; fill: rgb(63, 63, 63); fill-opacity: 1; fill-rule: evenodd; stroke: none; stroke-width: 1px; stroke-linecap: butt; stroke-linejoin: miter; stroke-opacity: 1;"/>
      <path style="opacity: 1; fill: rgb(63, 63, 63); fill-opacity: 1; fill-rule: evenodd; stroke: none; stroke-width: 1px; stroke-linecap: butt; stroke-linejoin: miter; stroke-opacity: 1;" d="M 474.25494,47.408381 L 485.44628,41.737044 C 483.70477,35.138698 484.2577,33.693415 491.28982,31.235579 C 496.69652,31.744858 499.53927,35.09288 500.07705,40.992899 C 496.20267,49.815251 491.99945,46.904551 488.2496,46.69659 L 477.05827,52.367926 C 475.18558,51.000666 472.90322,49.758246 474.25494,47.408381 z " id="path13905" sodipodi:nodetypes="ccccccc"/>
      <path style="opacity: 1; fill: rgb(63, 63, 63); fill-opacity: 1; fill-rule: evenodd; stroke: none; stroke-width: 1px; stroke-linecap: butt; stroke-linejoin: miter; stroke-opacity: 1;" d="M 476.64564,66.748675 L 465.18067,71.844213 C 466.58476,78.522503 465.95914,79.937833 458.81125,82.035293 C 453.43739,81.252033 450.76838,77.763933 450.53099,71.844213 C 454.84851,63.230055 458.89846,66.350505 462.6329,66.748675 L 474.09787,61.653135 C 475.89869,63.113755 478.11499,64.470505 476.64564,66.748675 z " id="path13907" sodipodi:nodetypes="ccccccc"/>
      <path sodipodi:nodetypes="ccccccc" id="path13909" d="M 467.18753,59.542492 L 455.72256,64.638032 C 457.12665,71.316323 456.50102,72.731653 449.35313,74.829113 C 443.97928,74.045853 441.31027,70.557753 441.07288,64.638032 C 445.3904,56.023872 449.44034,59.144322 453.17479,59.542492 L 464.63976,54.446952 C 466.44057,55.907572 468.65687,57.264322 467.18753,59.542492 z " style="opacity: 1; fill: rgb(63, 63, 63); fill-opacity: 1; fill-rule: evenodd; stroke: none; stroke-width: 1px; stroke-linecap: butt; stroke-linejoin: miter; stroke-opacity: 1;"/>
    </g>
    <path style="opacity: 1; fill: rgb(168, 65, 46); fill-rule: evenodd; stroke: rgb(0, 0, 0); stroke-width: 1px; stroke-linecap: butt; stroke-linejoin: miter; stroke-opacity: 1; fill-opacity: 1;" d="M 161.78344,162.42038 C 135.62078,182.19228 118.75631,203.88794 141.40127,233.75796 C 156.51279,255.10771 179.82076,256.09008 178.34395,271.97452 C 191.79496,262.03574 206.7202,265.36498 223.56688,285.98726 C 240.32368,320.16652 228.68449,329.332 215.28662,335.03185 C 234.25614,338.5151 232.52335,360.29058 247.13375,389.17198 C 271.38107,417.6912 300.16836,428.44573 321.01911,424.84076 C 355.66524,420.55112 371.28137,410.54858 393.63057,394.90446 C 420.60851,374.47086 444.40758,353.5277 442.03822,322.92994 C 440.18189,298.95758 426.79305,282.14488 407.00637,268.15287 C 388.24935,254.93397 370.60341,257.55927 365.6051,238.21656 C 354.25425,247.54167 339.64889,250.68321 311.46497,228.02548 C 281.44914,199.31119 302.3236,201.4323 305.73248,193.63057 C 287.48632,192.71061 291.90054,172.83671 277.07006,156.6879 C 254.09085,134.30713 224.67586,132.15308 189.80892,147.13376 L 189.80892,147.13376 L 189.80892,147.13376" id="path8016" sodipodi:nodetypes="ccccccccscccccccc"/>
    <path sodipodi:nodetypes="ccccccccccccccc" id="path8030" d="M 164.98268,165.41283 C 141.3584,184.32825 123.3795,206.25822 146.10568,234.31068 C 161.34011,254.37037 181.37765,251.91821 180.76026,266.94996 C 192.9172,257.43919 210.28746,264.92 227.11702,284.27722 C 241.33482,313.90605 235.30139,329.03981 222.98884,334.54208 C 240.98195,337.67585 242.32052,379.29904 251.71683,388.65002 C 275.56467,414.77481 304.72776,423.42725 324.1448,419.843 C 356.4911,415.49517 371.95323,404.63198 394.74224,389.65166 C 419.1005,370.1037 440.80753,349.94371 437.4509,317.37846 C 434.19077,297.10736 419.16069,281.48014 399.89016,268.41685 C 381.62462,256.07588 368.99303,261.25459 363.35855,243.00746 C 353.14521,251.92028 336.38929,252.46599 308.80829,231.27966 C 279.21231,204.38206 294.47069,201.11629 298.56933,194.98463 C 282.65408,192.35765 289.65972,174.16591 274.94156,159.02153 C 252.26447,138.05324 224.1799,135.89115 192.14453,150.34961" style="opacity: 1; fill: url(#radialGradient11091) rgb(0, 0, 0); fill-rule: evenodd; stroke: rgb(0, 0, 0); stroke-width: 0.942792px; stroke-linecap: butt; stroke-linejoin: miter; stroke-opacity: 1; fill-opacity: 1;"/>
    <path style="fill: rgb(0, 0, 0); fill-rule: evenodd; stroke: rgb(0, 0, 0); stroke-width: 1px; stroke-linecap: butt; stroke-linejoin: miter; stroke-opacity: 1; fill-opacity: 1;" d="M 234.3949,236.30573 L 98.089172,93.630573 C 89.399837,84.261811 82.583071,80.503484 73.88535,84.713376 C 90.021231,73.673034 103.60934,72.823781 114.64968,82.165605 L 189.19546,148.32499 L 267.51592,217.83439 C 255.45873,216.87352 244.76942,225.4879 234.3949,236.30573 z " id="path8050" sodipodi:nodetypes="ccccccc"/>
    <path style="fill: none; fill-rule: evenodd; stroke: rgb(0, 0, 0); stroke-width: 1px; stroke-linecap: butt; stroke-linejoin: miter; stroke-opacity: 1;" d="M 94.267516,98.726115 L 82.802548,103.82166 C 84.206639,110.49995 83.581013,111.91528 76.433121,114.01274 C 71.059266,113.22948 68.390259,109.74138 68.152866,103.82166 C 72.470388,95.207497 76.520333,98.327947 80.254777,98.726115 L 91.719745,93.630573 C 93.520563,95.091197 95.736862,96.44795 94.267516,98.726115 z " id="path8052" sodipodi:nodetypes="ccccccc"/>
    <path style="fill: none; fill-rule: evenodd; stroke: rgb(0, 0, 0); stroke-width: 1px; stroke-linecap: butt; stroke-linejoin: miter; stroke-opacity: 1;" d="M 108.09276,77.537477 L 113.72259,74.159578 C 111.95952,68.933768 114.82389,66.407304 120.25319,65.377042 C 126.39856,65.687209 128.35891,70.182402 127.90976,77.08709 C 125.22978,82.232106 121.50601,83.723892 116.42491,80.464989 L 113.94778,81.365762 L 114.39817,81.816149" id="path8120" sodipodi:nodetypes="ccccccc"/>
    <path style="fill: none; fill-rule: evenodd; stroke: rgb(0, 0, 0); stroke-width: 1px; stroke-linecap: butt; stroke-linejoin: miter; stroke-opacity: 1;" d="M 102.01254,75.285544 C 100.74001,70.785248 105.55561,65.842471 113.2722,68.75494" id="path8122" sodipodi:nodetypes="cc"/>
    <path id="path8124" style="fill: rgb(184, 78, 44); fill-rule: evenodd; stroke: rgb(0, 0, 0); stroke-width: 1px; stroke-linecap: butt; stroke-linejoin: miter; stroke-opacity: 1; fill-opacity: 1;" d="M 85.573432,77.537477 L 80.619181,82.491728 C 96.935543,85.125682 105.43106,100.33022 114.62336,111.31646 C 100.26165,120.91739 95.606129,93.230489 85.348239,105.46144 L 75.101947,92.06244 C 72.920891,88.635895 68.745505,83.697259 67.107586,79.11383 C 63.167798,82.050814 59.938786,78.946196 57.199084,71.682453 C 58.625308,69.547531 60.051531,68.428694 61.477755,69.880907 C 61.159648,63.425122 56.565564,51.377677 63.279301,54.11738 C 64.142487,52.766155 63.907183,50.096741 67.557973,52.09064 C 71.575603,46.960512 77.562476,55.615093 82.64592,57.945665 C 88.269008,56.883303 90.07838,61.115963 88.500944,67.854168 C 90.64268,74.75371 88.123814,75.8275 85.573432,76.861897 L 85.798625,77.987863 L 85.573432,77.987863" sodipodi:nodetypes="ccccccccccccccc"/>
    <path style="fill: rgb(0, 0, 0); fill-rule: evenodd; stroke: rgb(0, 0, 0); stroke-width: 1px; stroke-linecap: butt; stroke-linejoin: miter; stroke-opacity: 1; fill-opacity: 1;" d="M 244.10947,263.3219 C 234.74006,262.3333 236.63802,269.95669 240.95677,278.86023 C 250.94287,289.28548 266.70306,303.90963 264.37687,319.16983 C 264.74627,328.19097 258.32904,331.73589 247.48738,329.07833 C 244.45039,327.00263 241.43363,323.77908 246.81179,320.0706 C 251.97591,318.67468 251.65342,322.18077 251.54086,325.47523 C 258.6976,329.12604 261.27739,324.0612 259.64781,316.91789 C 257.63542,308.37585 251.0319,301.67275 245.01025,294.84896 C 229.17098,272.83019 233.20491,265.93885 236.6781,261.97074 C 240.13106,260.34494 243.58403,258.40105 247.03699,260.84478 C 249.29767,263.17396 250.74124,264.96108 249.28892,266.6998 C 246.1593,269.33476 243.42337,267.12852 244.10947,263.3219 z " id="path8130" sodipodi:nodetypes="cccccccccccc"/>
    <path style="fill: rgb(0, 0, 0); fill-rule: evenodd; stroke: rgb(0, 0, 0); stroke-width: 1px; stroke-linecap: butt; stroke-linejoin: miter; stroke-opacity: 1; fill-opacity: 1;" d="M 349.49991,261.97074 C 352.85157,269.50727 336.89109,263.68162 333.51119,261.06997 L 303.1101,237.64987 C 290.32225,228.80165 289.04561,230.94901 283.06791,232.24523 C 281.61943,234.29597 278.69481,235.67574 283.51829,240.57738 C 288.03366,242.69069 288.26462,240.51959 288.69774,238.55065 L 285.09465,236.07352 C 287.84489,230.24099 294.51863,235.26182 298.15585,238.32545 C 309.16215,247.76469 320.36383,258.37617 330.80887,264.44787 C 339.89689,269.54932 345.50944,268.27907 351.07627,266.92499 C 354.57307,265.47466 353.93033,262.25024 353.3282,259.04323 C 350.53128,256.14656 347.41164,254.37938 343.41969,255.66533 C 340.01842,258.3619 343.66846,261.15075 349.49991,261.97074 z " id="path8132" sodipodi:nodetypes="ccccccccccccc"/>
    <path style="fill: rgb(213, 178, 155); fill-rule: evenodd; stroke: rgb(0, 0, 0); stroke-width: 1px; stroke-linecap: butt; stroke-linejoin: miter; stroke-opacity: 1; fill-opacity: 1;" d="M 264.82725,281.56255 L 262.12493,267.15019 C 275.2347,248.76366 289.25772,243.16266 303.56049,241.47816 L 300.40779,260.84478 L 264.82725,281.56255 z " id="path8134" sodipodi:nodetypes="ccccc"/>
    <path style="fill: rgb(0, 0, 0); fill-rule: evenodd; stroke: rgb(0, 0, 0); stroke-width: 1px; stroke-linecap: butt; stroke-linejoin: miter; stroke-opacity: 1; fill-opacity: 1;" d="M 300.40779,307.68497 C 308.05114,299.72021 316.55694,292.27293 330.13329,287.86797 C 337.03922,298.66048 343.94514,309.08474 350.85107,325.70043 C 365.28212,351.33509 392.6324,372.29946 401.74475,385.15144 L 380.12619,399.11343 C 365.78676,380.08523 371.04933,370.59269 338.69064,338.76164 C 325.19395,329.38374 310.53536,321.55503 300.40779,307.68497 z " id="path8136" sodipodi:nodetypes="ccccccc"/>
    <path style="fill: none; fill-rule: evenodd; stroke: rgb(0, 0, 0); stroke-width: 1px; stroke-linecap: butt; stroke-linejoin: miter; stroke-opacity: 1;" d="M 304.01088,310.83768 C 313.31887,300.58785 322.62685,294.85237 331.93484,290.57028" id="path8138" sodipodi:nodetypes="cc"/>
    <path style="fill: none; fill-rule: evenodd; stroke: rgb(0, 0, 0); stroke-width: 1px; stroke-linecap: butt; stroke-linejoin: miter; stroke-opacity: 1;" d="M 96.178344,91.719745 L 115.28662,81.528662" id="path8140"/>
    <path style="fill: none; fill-rule: evenodd; stroke: rgb(133, 133, 133); stroke-width: 1px; stroke-linecap: butt; stroke-linejoin: miter; stroke-opacity: 1;" d="M 305.73248,303.18471 L 268.78981,259.23567 L 100,89.808917 L 100,89.808917" id="path8142"/>
    <path style="fill: none; fill-rule: evenodd; stroke: rgb(133, 133, 133); stroke-width: 1px; stroke-linecap: butt; stroke-linejoin: miter; stroke-opacity: 1;" d="M 311.46497,298.08917 L 277.07006,250.95541 L 104.4586,87.261146" id="path8144"/>
    <path style="fill: none; fill-rule: evenodd; stroke: rgb(133, 133, 133); stroke-width: 1px; stroke-linecap: butt; stroke-linejoin: miter; stroke-opacity: 1;" d="M 319.74522,291.71975 L 287.26115,244.58599 L 108.9172,84.076433 L 108.9172,84.076433 L 110.19108,84.076433" id="path8146"/>
    <path style="fill: none; fill-rule: evenodd; stroke: rgb(133, 133, 133); stroke-width: 1px; stroke-linecap: butt; stroke-linejoin: miter; stroke-opacity: 1;" d="M 327.38854,287.89809 L 296.81529,242.67516 L 114.01274,82.165605 L 114.01274,82.165605" id="path8148"/>
    <g id="g15943">
      <path id="path8150" style="fill: rgb(175, 65, 42); fill-opacity: 1; fill-rule: evenodd; stroke: rgb(0, 0, 0); stroke-width: 1px; stroke-linecap: butt; stroke-linejoin: miter; stroke-opacity: 1;" d="M 134.3949,224.84076 C 128.91775,268.7898 185.6781,274.52229 179.61783,293.63057 L 183.43949,294.90446 C 207.73957,272.389 229.12277,310.46282 229.14113,323.45305 C 239.16346,309.54179 215.17981,247.57988 177.90266,272.10444 C 179.43082,254.40763 154.87855,256.56899 134.66556,225.71463" sodipodi:nodetypes="cccccc"/>
    </g>
    <path id="path8152" style="fill: rgb(175, 65, 42); fill-rule: evenodd; stroke: rgb(0, 0, 0); stroke-width: 1px; stroke-linecap: butt; stroke-linejoin: miter; stroke-opacity: 1; fill-opacity: 1;" d="M 213.93358,334.25777 C 240.30158,336.49214 233.97703,369.29652 248.61334,390.55608 C 286.71007,431.21304 320.18235,427.25726 354.45416,417.57927 C 401.66442,396.12216 432.3698,365.71466 441.50261,336.60696 C 437.36644,356.8368 443.45728,370.55139 397.45223,410.19108 C 352.34407,444.22065 333.81745,442.80816 313.3758,443.94904 C 279.67115,441.34796 261.05802,423.65535 245.85987,402.54777 C 233.54706,385.98528 237.63249,360.98756 220.38217,358.59873 C 216.22878,357.0038 217.97185,353.61561 219.10828,351.59236 L 217.83439,340.12739 C 214.48878,339.58698 215.24815,336.58359 214.64968,334.3949" sodipodi:nodetypes="ccccccccccc"/>
    <path id="path8128" style="fill: rgb(175, 65, 42); fill-rule: evenodd; stroke: rgb(0, 0, 0); stroke-width: 1px; stroke-linecap: butt; stroke-linejoin: miter; stroke-opacity: 1; fill-opacity: 1;" d="M 306.488,193.512 C 307.37294,196.00359 308.01587,198.33384 305.36204,198.46625 L 305.36204,212.42823 C 307.188,216.52882 307.69536,219.7064 301.98414,218.84624 C 282.10131,196.87993 304.24854,201.1804 306.26281,192.83642" sodipodi:nodetypes="ccccc"/>
    <path sodipodi:nodetypes="ccccccc" id="path16989" d="M 103.13647,81.187367 L 114.32781,75.51603 C 112.5863,68.917684 113.13923,67.472401 120.17135,65.014565 C 125.57805,65.523844 128.4208,68.871866 128.95858,74.771885 C 125.0842,83.594237 120.88098,80.683537 117.13113,80.475576 L 105.9398,86.146912 C 104.06711,84.779652 101.78475,83.537232 103.13647,81.187367 z " style="opacity: 1; fill: rgb(0, 0, 0); fill-opacity: 1; fill-rule: evenodd; stroke: rgb(0, 0, 0); stroke-width: 1px; stroke-linecap: butt; stroke-linejoin: miter; stroke-opacity: 1;"/>
    <path style="opacity: 1; fill: rgb(0, 0, 0); fill-opacity: 1; fill-rule: evenodd; stroke: rgb(0, 0, 0); stroke-width: 1px; stroke-linecap: butt; stroke-linejoin: miter; stroke-opacity: 1;" d="M 91.426426,79.836208 L 102.61777,74.164871 C 100.87626,67.566525 101.42919,66.121242 108.46131,63.663406 C 113.86801,64.172685 116.71076,67.520707 117.24854,73.420726 C 113.37416,82.243078 109.17094,79.332378 105.42109,79.124417 L 94.229756,84.795753 C 92.357066,83.428493 90.074706,82.186073 91.426426,79.836208 z " id="path16987" sodipodi:nodetypes="ccccccc"/>
    <path style="fill: none; fill-rule: evenodd; stroke: rgb(0, 0, 0); stroke-width: 1px; stroke-linecap: butt; stroke-linejoin: miter; stroke-opacity: 1;" d="M 177.07006,271.33758 L 180.89172,294.90446 L 180.89172,294.90446" id="path16007"/>
  </g>
  <g inkscape:groupmode="layer" id="layer5" inkscape:label="najnaj">
    <path style="opacity: 1; fill: rgb(0, 0, 0); fill-opacity: 1; fill-rule: evenodd; stroke: rgb(0, 0, 0); stroke-width: 1px; stroke-linecap: butt; stroke-linejoin: miter; stroke-opacity: 1;" d="M 93.817129,99.176502 L 82.352161,104.27204 C 83.756252,110.95033 83.130626,112.36566 75.982734,114.46312 C 70.608879,113.67986 67.939872,110.19176 67.702479,104.27204 C 72.020001,95.657882 76.069946,98.778332 79.80439,99.176502 L 91.269358,94.080962 C 93.070176,95.541582 95.286475,96.898332 93.817129,99.176502 z " id="path8093" sodipodi:nodetypes="ccccccc"/>
    <path sodipodi:nodetypes="ccccccc" id="path8054" d="M 84.359014,91.970319 L 72.894046,97.065859 C 74.298137,103.74415 73.672511,105.15948 66.524619,107.25694 C 61.150764,106.47368 58.481757,102.98558 58.244364,97.065859 C 62.561886,88.451699 66.611831,91.572149 70.346275,91.970319 L 81.811243,86.874779 C 83.612061,88.335399 85.82836,89.692149 84.359014,91.970319 z " style="opacity: 1; fill: rgb(0, 0, 0); fill-opacity: 1; fill-rule: evenodd; stroke: rgb(0, 0, 0); stroke-width: 1px; stroke-linecap: butt; stroke-linejoin: miter; stroke-opacity: 1;"/>
  </g>
</svg>