<?xml version="1.0" encoding="UTF-8" standalone="no"?>
<!-- Created with Inkscape (http://www.inkscape.org/) -->
<svg xmlns:dc="http://purl.org/dc/elements/1.1/" xmlns:cc="http://creativecommons.org/ns#" xmlns:rdf="http://www.w3.org/1999/02/22-rdf-syntax-ns#" xmlns:svg="http://www.w3.org/2000/svg" xmlns="http://www.w3.org/2000/svg" xmlns:sodipodi="http://sodipodi.sourceforge.net/DTD/sodipodi-0.dtd" xmlns:inkscape="http://www.inkscape.org/namespaces/inkscape" height="925.54553" width="351.55106" id="svg2" sodipodi:version="0.32" inkscape:version="0.46dev+devel" sodipodi:docname="papapishu_harp_01.svg" inkscape:output_extension="org.inkscape.output.svg.inkscape" version="1.0">
  <defs id="defs4"/>
  <sodipodi:namedview id="base" pagecolor="#ffffff" bordercolor="#666666" borderopacity="1.0" inkscape:pageopacity="0.0" inkscape:pageshadow="2" inkscape:cx="357.5488" inkscape:cy="471.78811" inkscape:zoom="0.50647962" inkscape:document-units="px" inkscape:current-layer="layer3" showgrid="false" borderlayer="true" inkscape:window-width="1280" inkscape:window-height="744" inkscape:window-x="-4" inkscape:window-y="-4"/>
  <metadata id="metadata7">
    <rdf:RDF>
      <cc:Work rdf:about="">
        <dc:format>image/svg+xml</dc:format>
        <dc:type rdf:resource="http://purl.org/dc/dcmitype/StillImage"/>
      </cc:Work>
    </rdf:RDF>
  </metadata>
  <g inkscape:groupmode="layer" id="layer3" inkscape:label="naj" transform="translate(-221.529, -93.8098)">
    <path style="opacity: 1; fill: rgb(152, 68, 23); fill-opacity: 1; fill-rule: evenodd; stroke: rgb(0, 0, 0); stroke-width: 1px; stroke-linecap: butt; stroke-linejoin: miter; stroke-opacity: 1;" d="M 513.77249,297.06078 L 276.43194,898.78888 C 306.2139,930.43559 369.12532,935.57495 431.40136,945.55894 L 555.65612,294.26854 L 534.7143,269.13836 L 513.77249,297.06078 z" id="path3171" sodipodi:nodetypes="cccccc"/>
    <g id="g3178" style="fill: rgb(152, 68, 23); fill-opacity: 1;">
      <path sodipodi:nodetypes="csssssccssscc" id="path2571" d="M 357.36877,906.25561 C 247.95226,686.48917 236.92957,154.00422 236.92957,154.00422 C 244.0773,96.09059 270.64391,91.404771 311.71774,96.746242 C 363.33254,103.45852 423.53163,179.94896 442.26853,225.08309 C 460.7842,269.68431 504.04955,267.7748 517.29623,250.75046 C 543.57001,216.98398 568.36842,235.24845 570.60539,270.49459 C 571.8835,290.63276 572.02135,276.33705 572.5798,296.16197 C 545.21583,296.44119 572.87753,297.15334 546.91243,298.13638 C 540.91987,278.27704 523.5736,288.44056 517.29623,298.13638 C 477.96567,358.88507 435.34581,316.987 410.67792,272.46901 C 385.52266,227.07147 309.38888,168.68858 284.31549,223.10868 C 252.70659,291.71367 303.27147,669.87501 367.24084,872.69059 C 366.40687,883.15341 367.84352,906.9232 357.36877,906.25561 z" style="fill: rgb(152, 68, 23); fill-opacity: 1; fill-rule: evenodd; stroke: rgb(0, 0, 0); stroke-width: 1px; stroke-linecap: butt; stroke-linejoin: miter; stroke-opacity: 1;"/>
      <path sodipodi:nodetypes="csccccc" id="path2575" d="M 274.78125,94.3125 C 248.61007,94.512523 230.0396,105.77979 222.96875,156.78125 C 219.75432,179.96666 217.71601,652.09897 343.40625,909.0625 C 352.92668,909.66927 356.06811,913.10061 357.1875,905.875 C 247.94424,685.87937 236.9375,154 236.9375,154 C 242.69186,107.37604 261.04309,95.26253 289.40625,95.09375 C 284.30862,94.591875 279.42252,94.277027 274.78125,94.3125 z" style="fill: rgb(152, 68, 23); fill-opacity: 1; fill-rule: evenodd; stroke: rgb(0, 0, 0); stroke-width: 1px; stroke-linecap: butt; stroke-linejoin: miter; stroke-opacity: 1;"/>
    </g>
    <path style="fill: rgb(195, 124, 76); fill-opacity: 1; fill-rule: evenodd; stroke: rgb(0, 0, 0); stroke-width: 1px; stroke-linecap: butt; stroke-linejoin: miter; stroke-opacity: 1;" d="M 305.75048,200.72844 C 350.18543,217.59994 369.51281,247.03237 388.54772,273.51382 C 407.58264,299.99526 426.3251,323.52571 469.59022,328.59327 C 418.12345,308.21593 424.97809,283.4928 395.22096,250.03026 C 370.71356,222.47116 340.11738,198.72402 305.75048,200.72844 z" id="path2585" sodipodi:nodetypes="cscsc"/>
    <path style="fill: rgb(195, 124, 76); fill-opacity: 1; fill-rule: evenodd; stroke: rgb(0, 0, 0); stroke-width: 1px; stroke-linecap: butt; stroke-linejoin: miter; stroke-opacity: 1;" d="M 475.09001,258.46299 C 504.29402,244.30664 512.77454,226.95428 543.26041,232.02139 C 505.76573,245.93676 523.13468,269.61857 475.09001,258.46299 z" id="path2587" sodipodi:nodetypes="ccc"/>
    <path style="opacity: 1; fill: rgb(232, 147, 69); fill-opacity: 1; fill-rule: evenodd; stroke: rgb(0, 0, 0); stroke-width: 1px; stroke-linecap: butt; stroke-linejoin: miter; stroke-opacity: 1;" d="M 536.11042,299.85302 L 358.80307,907.16561 L 420.23239,933.69191 L 545.1356,307.99021 L 536.11042,299.85302 z" id="path2589" sodipodi:nodetypes="ccccc"/>
    <path style="opacity: 1; fill: rgb(152, 68, 23); fill-opacity: 1; fill-rule: evenodd; stroke: rgb(0, 0, 0); stroke-width: 1px; stroke-linecap: butt; stroke-linejoin: miter; stroke-opacity: 1;" d="M 552.86387,295.66466 L 430.82307,945.67871 L 491.43455,902.97725 L 571.01345,294.26854 L 552.86387,295.66466 z" id="path3173" sodipodi:nodetypes="ccccc"/>
    <path style="opacity: 1; fill: rgb(228, 143, 64); fill-opacity: 1; fill-rule: evenodd; stroke: rgb(0, 0, 0); stroke-width: 1px; stroke-linecap: butt; stroke-linejoin: miter; stroke-opacity: 1;" d="M 527.72309,301.26208 L 519.34809,305.44958 L 339.94184,769.66833 C 345.5322,793.30492 351.37214,815.99719 357.34809,837.35583 L 527.72309,301.26208 z M 313.75434,837.38708 L 295.97309,883.41833 L 336.47309,902.98083 L 338.12934,897.76208 C 329.3643,878.6218 321.25356,858.40374 313.75434,837.38708 z" id="path3194"/>
    <path style="fill: none; fill-rule: evenodd; stroke: rgb(0, 0, 0); stroke-width: 1px; stroke-linecap: butt; stroke-linejoin: miter; stroke-opacity: 1;" d="M 285.50673,123.24373 L 367.46894,840.93456" id="path3201" sodipodi:nodetypes="cc"/>
    <path sodipodi:nodetypes="cc" id="path3203" d="M 293.18539,119.75343 L 372.76427,822.7003" style="fill: none; fill-rule: evenodd; stroke: rgb(0, 0, 0); stroke-width: 1px; stroke-linecap: butt; stroke-linejoin: miter; stroke-opacity: 1;"/>
    <path style="fill: none; fill-rule: evenodd; stroke: rgb(0, 0, 0); stroke-width: 1px; stroke-linecap: butt; stroke-linejoin: miter; stroke-opacity: 1;" d="M 300.86405,117.65924 L 379.82956,801.18019" id="path3205" sodipodi:nodetypes="cc"/>
    <path sodipodi:nodetypes="cc" id="path3207" d="M 308.54271,118.35731 L 385.32935,785.00503" style="fill: none; fill-rule: evenodd; stroke: rgb(0, 0, 0); stroke-width: 1px; stroke-linecap: butt; stroke-linejoin: miter; stroke-opacity: 1;"/>
    <g id="g3231">
      <path style="fill: none; fill-rule: evenodd; stroke: rgb(0, 0, 0); stroke-width: 1px; stroke-linecap: butt; stroke-linejoin: miter; stroke-opacity: 1;" d="M 317.32836,120.3668 L 391.32276,764.67659" id="path3217" sodipodi:nodetypes="cc"/>
      <path sodipodi:nodetypes="cc" id="path3219" d="M 325.70508,122.2916 L 396.90724,744.96152" style="fill: none; fill-rule: evenodd; stroke: rgb(0, 0, 0); stroke-width: 1px; stroke-linecap: butt; stroke-linejoin: miter; stroke-opacity: 1;"/>
      <path style="fill: none; fill-rule: evenodd; stroke: rgb(0, 0, 0); stroke-width: 1px; stroke-linecap: butt; stroke-linejoin: miter; stroke-opacity: 1;" d="M 333.87736,126.36019 L 402.98533,727.39023" id="path3221" sodipodi:nodetypes="cc"/>
      <path sodipodi:nodetypes="cc" id="path3223" d="M 342.04962,130.22433 L 408.0762,707.84454" style="fill: none; fill-rule: evenodd; stroke: rgb(0, 0, 0); stroke-width: 1px; stroke-linecap: butt; stroke-linejoin: miter; stroke-opacity: 1;"/>
    </g>
    <g id="g3237" transform="translate(22.2121, -75.5213)">
      <path sodipodi:nodetypes="cc" id="path3239" d="M 329.58375,212.26771 L 391.32276,764.67659" style="fill: none; fill-rule: evenodd; stroke: rgb(0, 0, 0); stroke-width: 1px; stroke-linecap: butt; stroke-linejoin: miter; stroke-opacity: 1;"/>
      <path style="fill: none; fill-rule: evenodd; stroke: rgb(0, 0, 0); stroke-width: 1px; stroke-linecap: butt; stroke-linejoin: miter; stroke-opacity: 1;" d="M 338.36939,223.8456 L 396.90724,744.96152" id="path3241" sodipodi:nodetypes="cc"/>
      <path sodipodi:nodetypes="cc" id="path3243" d="M 347.15504,234.60564 L 402.98533,727.39023" style="fill: none; fill-rule: evenodd; stroke: rgb(0, 0, 0); stroke-width: 1px; stroke-linecap: butt; stroke-linejoin: miter; stroke-opacity: 1;"/>
      <path style="fill: none; fill-rule: evenodd; stroke: rgb(0, 0, 0); stroke-width: 1px; stroke-linecap: butt; stroke-linejoin: miter; stroke-opacity: 1;" d="M 355.94067,242.55893 L 408.0762,707.84454" id="path3245" sodipodi:nodetypes="cc"/>
    </g>
    <path sodipodi:nodetypes="cc" id="path3249" d="M 386.34812,177.22188 L 435.74705,614.12759" style="fill: none; fill-rule: evenodd; stroke: rgb(0, 0, 0); stroke-width: 1px; stroke-linecap: butt; stroke-linejoin: miter; stroke-opacity: 1;"/>
    <path style="fill: none; fill-rule: evenodd; stroke: rgb(0, 0, 0); stroke-width: 1px; stroke-linecap: butt; stroke-linejoin: miter; stroke-opacity: 1;" d="M 394.64015,187.31895 L 441.33153,594.41252" id="path3251" sodipodi:nodetypes="cc"/>
    <path sodipodi:nodetypes="cc" id="path3253" d="M 403.4258,195.11738 L 447.40962,576.84123" style="fill: none; fill-rule: evenodd; stroke: rgb(0, 0, 0); stroke-width: 1px; stroke-linecap: butt; stroke-linejoin: miter; stroke-opacity: 1;"/>
    <path style="fill: none; fill-rule: evenodd; stroke: rgb(0, 0, 0); stroke-width: 1px; stroke-linecap: butt; stroke-linejoin: miter; stroke-opacity: 1;" d="M 413.8967,206.54041 L 453.89661,551.71106" id="path3255" sodipodi:nodetypes="cc"/>
    <path style="fill: none; fill-rule: evenodd; stroke: rgb(0, 0, 0); stroke-width: 1px; stroke-linecap: butt; stroke-linejoin: miter; stroke-opacity: 1;" d="M 423.649,220.20998 L 459.95416,533.52391" id="path3261" sodipodi:nodetypes="cc"/>
    <path sodipodi:nodetypes="cc" id="path3263" d="M 433.42184,236.51944 L 465.04503,513.97822" style="fill: none; fill-rule: evenodd; stroke: rgb(0, 0, 0); stroke-width: 1px; stroke-linecap: butt; stroke-linejoin: miter; stroke-opacity: 1;"/>
    <path sodipodi:nodetypes="cc" id="path3265" d="M 442.49664,247.43434 L 471.12313,499.31895" style="fill: none; fill-rule: evenodd; stroke: rgb(0, 0, 0); stroke-width: 1px; stroke-linecap: butt; stroke-linejoin: miter; stroke-opacity: 1;"/>
    <path style="fill: none; fill-rule: evenodd; stroke: rgb(0, 0, 0); stroke-width: 1px; stroke-linecap: butt; stroke-linejoin: miter; stroke-opacity: 1;" d="M 451.57142,261.64962 L 476.214,479.77326" id="path3267" sodipodi:nodetypes="cc"/>
    <path style="fill: none; fill-rule: evenodd; stroke: rgb(0, 0, 0); stroke-width: 1px; stroke-linecap: butt; stroke-linejoin: miter; stroke-opacity: 1;" d="M 459.94815,268.37616 L 481.59404,463.01981" id="path3269" sodipodi:nodetypes="cc"/>
    <path sodipodi:nodetypes="cc" id="path3271" d="M 469.02293,274.91277 L 486.68491,443.47412" style="fill: none; fill-rule: evenodd; stroke: rgb(0, 0, 0); stroke-width: 1px; stroke-linecap: butt; stroke-linejoin: miter; stroke-opacity: 1;"/>
    <path sodipodi:nodetypes="cc" id="path3273" d="M 476.70161,278.149 L 492.06495,429.51291" style="fill: none; fill-rule: evenodd; stroke: rgb(0, 0, 0); stroke-width: 1px; stroke-linecap: butt; stroke-linejoin: miter; stroke-opacity: 1;"/>
    <path style="fill: none; fill-rule: evenodd; stroke: rgb(0, 0, 0); stroke-width: 1px; stroke-linecap: butt; stroke-linejoin: miter; stroke-opacity: 1;" d="M 483.68221,283.2895 L 497.15582,409.96722" id="path3275" sodipodi:nodetypes="cc"/>
    <path style="opacity: 1; fill: rgb(152, 68, 23); fill-opacity: 1; fill-rule: evenodd; stroke: rgb(0, 0, 0); stroke-width: 1px; stroke-linecap: butt; stroke-linejoin: miter; stroke-opacity: 1;" d="M 431.40136,944.86087 C 417.72359,971.2733 428.19414,971.65171 411.85566,1003.4979 L 409.06342,1018.8553 L 430.00523,1002.1018 C 427.23857,1003.6266 431.55053,953.43388 462.11602,937.88027 C 483.24078,927.13069 499.96067,947.20495 497.01904,956.02984 L 523.54533,940.67252 C 515.22123,929.95577 506.00427,939.70599 497.01904,915.54234 L 491.43455,901.58113 L 431.40136,944.86087 z" id="path3281" sodipodi:nodetypes="ccccsccccc"/>
    <path style="fill: rgb(152, 68, 23); fill-opacity: 1; fill-rule: evenodd; stroke: rgb(0, 0, 0); stroke-width: 1px; stroke-linecap: butt; stroke-linejoin: miter; stroke-opacity: 1;" d="M 408.36536,1018.8553 L 387.42355,1011.8747 C 386.50366,1003.387 387.18565,997.09646 393.70609,992.32898 C 406.44983,977.95694 396.98107,965.41307 409.76148,942.76669 L 431.40136,945.55893 C 421.78498,960.77802 425.76618,978.94994 416.04403,995.81929 C 409.34357,1002.1177 409.88349,1010.8295 408.36536,1018.8553 z" id="path3284" sodipodi:nodetypes="ccccccc"/>
    <path sodipodi:nodetypes="cccccccc" id="path3286" d="M 244.22575,945.69832 L 233.24378,940.88211 C 235.70394,932.70685 238.7832,927.17927 246.64596,925.32939 C 263.98265,917.0591 261.54631,895.53456 282.14096,879.65824 L 276.55336,899.47037 L 280.7386,901.13292 C 265.95202,911.40192 277.89496,916.42567 262.36792,928.17327 C 253.74283,931.36293 248.75124,933.31398 244.22575,945.69832 z" style="fill: rgb(152, 68, 23); fill-opacity: 1; fill-rule: evenodd; stroke: rgb(0, 0, 0); stroke-width: 1px; stroke-linecap: butt; stroke-linejoin: miter; stroke-opacity: 1;"/>
    <path style="fill: rgb(152, 68, 23); fill-opacity: 1; fill-rule: evenodd; stroke: rgb(0, 0, 0); stroke-width: 1px; stroke-linecap: butt; stroke-linejoin: miter; stroke-opacity: 1;" d="M 244.32116,945.55893 L 277.13,942.76669 C 278.21417,928.64899 286.34462,920.16832 296.67569,913.44815 C 289.3427,910.54292 282.85994,906.78747 279.22418,900.18501 C 267.63077,913.73932 273.78279,925.74044 256.88624,930.2016 C 249.10236,932.62407 244.66084,937.55331 244.32116,945.55893 z" id="path3288" sodipodi:nodetypes="cccccc"/>
    <path sodipodi:nodetypes="cccsscc" id="path3310" d="M 359.88597,146.40801 L 360.09043,150.75848 L 365.67491,150.88552 C 365.67491,150.88552 369.78214,154.54791 371.753,153.83987 C 378.58755,151.38453 374.17359,140.73687 371.753,141.27478 C 369.06691,141.87169 365.55935,141.48853 365.47045,146.85927 L 359.88597,146.40801 z" style="fill: rgb(195, 124, 76); fill-opacity: 1; fill-rule: evenodd; stroke: rgb(0, 0, 0); stroke-width: 1px; stroke-linecap: butt; stroke-linejoin: miter; stroke-opacity: 1;"/>
    <path style="fill: rgb(195, 124, 76); fill-opacity: 1; fill-rule: evenodd; stroke: rgb(0, 0, 0); stroke-width: 1px; stroke-linecap: butt; stroke-linejoin: miter; stroke-opacity: 1;" d="M 420.59917,220.2017 L 420.80363,224.55217 L 426.38811,224.67921 C 426.38811,224.67921 430.49534,228.3416 432.4662,227.63356 C 439.30075,225.17822 434.88679,214.53056 432.4662,215.06847 C 429.78011,215.66538 426.27255,215.28222 426.18365,220.65296 L 420.59917,220.2017 z" id="path3312" sodipodi:nodetypes="cccsscc"/>
    <path sodipodi:nodetypes="cccsscc" id="path3314" d="M 483.03998,279.9277 L 483.24444,284.27817 L 488.82892,284.40521 C 488.82892,284.40521 492.93615,288.0676 494.90701,287.35956 C 501.74156,284.90422 497.3276,274.25656 494.90701,274.79447 C 492.22092,275.39138 488.71336,275.00822 488.62446,280.37896 L 483.03998,279.9277 z" style="fill: rgb(195, 124, 76); fill-opacity: 1; fill-rule: evenodd; stroke: rgb(0, 0, 0); stroke-width: 1px; stroke-linecap: butt; stroke-linejoin: miter; stroke-opacity: 1;"/>
    <path style="fill: rgb(195, 124, 76); fill-opacity: 1; fill-rule: evenodd; stroke: rgb(0, 0, 0); stroke-width: 1px; stroke-linecap: butt; stroke-linejoin: miter; stroke-opacity: 1;" d="M 475.63593,276.22568 L 475.84039,280.57615 L 481.42487,280.70319 C 481.42487,280.70319 485.5321,284.36558 487.50296,283.65754 C 494.33751,281.2022 489.92355,270.55454 487.50296,271.09245 C 484.81687,271.68936 481.30931,271.3062 481.22041,276.67694 L 475.63593,276.22568 z" id="path3316" sodipodi:nodetypes="cccsscc"/>
    <path sodipodi:nodetypes="cccsscc" id="path3318" d="M 468.23188,273.01726 L 468.43634,277.36773 L 474.02082,277.49477 C 474.02082,277.49477 478.12805,281.15716 480.09891,280.44912 C 486.93346,277.99378 482.5195,267.34612 480.09891,267.88403 C 477.41282,268.48094 473.90526,268.09778 473.81636,273.46852 L 468.23188,273.01726 z" style="fill: rgb(195, 124, 76); fill-opacity: 1; fill-rule: evenodd; stroke: rgb(0, 0, 0); stroke-width: 1px; stroke-linecap: butt; stroke-linejoin: miter; stroke-opacity: 1;"/>
    <path style="fill: rgb(195, 124, 76); fill-opacity: 1; fill-rule: evenodd; stroke: rgb(0, 0, 0); stroke-width: 1px; stroke-linecap: butt; stroke-linejoin: miter; stroke-opacity: 1;" d="M 459.84062,269.06843 L 460.04508,273.4189 L 465.62956,273.54594 C 465.62956,273.54594 469.73679,277.20833 471.70765,276.50029 C 478.5422,274.04495 474.12824,263.39729 471.70765,263.9352 C 469.02156,264.53211 465.514,264.14895 465.4251,269.51969 L 459.84062,269.06843 z" id="path3320" sodipodi:nodetypes="cccsscc"/>
    <path sodipodi:nodetypes="cccsscc" id="path3322" d="M 451.20256,260.18357 L 451.40702,264.53404 L 456.9915,264.66108 C 456.9915,264.66108 461.09873,268.32347 463.06959,267.61543 C 469.90414,265.16009 465.49018,254.51243 463.06959,255.05034 C 460.3835,255.64725 456.87594,255.26409 456.78704,260.63483 L 451.20256,260.18357 z" style="fill: rgb(195, 124, 76); fill-opacity: 1; fill-rule: evenodd; stroke: rgb(0, 0, 0); stroke-width: 1px; stroke-linecap: butt; stroke-linejoin: miter; stroke-opacity: 1;"/>
    <path style="fill: rgb(195, 124, 76); fill-opacity: 1; fill-rule: evenodd; stroke: rgb(0, 0, 0); stroke-width: 1px; stroke-linecap: butt; stroke-linejoin: miter; stroke-opacity: 1;" d="M 441.8241,246.11588 L 442.02856,250.46635 L 447.61304,250.59339 C 447.61304,250.59339 451.72027,254.25578 453.69113,253.54774 C 460.52568,251.0924 456.11172,240.44474 453.69113,240.98265 C 451.00504,241.57956 447.49748,241.1964 447.40858,246.56714 L 441.8241,246.11588 z" id="path3324" sodipodi:nodetypes="cccsscc"/>
    <path sodipodi:nodetypes="cccsscc" id="path3326" d="M 432.44564,235.25661 L 432.6501,239.60708 L 438.23458,239.73412 C 438.23458,239.73412 442.34181,243.39651 444.31267,242.68847 C 451.14722,240.23313 446.73326,229.58547 444.31267,230.12338 C 441.62658,230.72029 438.11902,230.33713 438.03012,235.70787 L 432.44564,235.25661 z" style="fill: rgb(195, 124, 76); fill-opacity: 1; fill-rule: evenodd; stroke: rgb(0, 0, 0); stroke-width: 1px; stroke-linecap: butt; stroke-linejoin: miter; stroke-opacity: 1;"/>
    <path style="fill: rgb(195, 124, 76); fill-opacity: 1; fill-rule: evenodd; stroke: rgb(0, 0, 0); stroke-width: 1px; stroke-linecap: butt; stroke-linejoin: miter; stroke-opacity: 1;" d="M 412.94831,205.39361 L 413.15277,209.74408 L 418.73725,209.87112 C 418.73725,209.87112 422.84448,213.53351 424.81534,212.82547 C 431.64989,210.37013 427.23593,199.72247 424.81534,200.26038 C 422.12925,200.85729 418.62169,200.47413 418.53279,205.84487 L 412.94831,205.39361 z" id="path3328" sodipodi:nodetypes="cccsscc"/>
    <path sodipodi:nodetypes="cccsscc" id="path3330" d="M 403.07624,194.28754 L 403.2807,198.63801 L 408.86518,198.76505 C 408.86518,198.76505 412.97241,202.42744 414.94327,201.7194 C 421.77782,199.26406 417.36386,188.6164 414.94327,189.15431 C 412.25718,189.75122 408.74962,189.36806 408.66072,194.7388 L 403.07624,194.28754 z" style="fill: rgb(195, 124, 76); fill-opacity: 1; fill-rule: evenodd; stroke: rgb(0, 0, 0); stroke-width: 1px; stroke-linecap: butt; stroke-linejoin: miter; stroke-opacity: 1;"/>
    <path style="fill: rgb(195, 124, 76); fill-opacity: 1; fill-rule: evenodd; stroke: rgb(0, 0, 0); stroke-width: 1px; stroke-linecap: butt; stroke-linejoin: miter; stroke-opacity: 1;" d="M 394.68498,185.89628 L 394.88944,190.24675 L 400.47392,190.37379 C 400.47392,190.37379 404.58115,194.03618 406.55201,193.32814 C 413.38656,190.8728 408.9726,180.22514 406.55201,180.76305 C 403.86592,181.35996 400.35836,180.9768 400.26946,186.34754 L 394.68498,185.89628 z" id="path3332" sodipodi:nodetypes="cccsscc"/>
    <path sodipodi:nodetypes="cccsscc" id="path3334" d="M 385.80012,172.81579 L 386.00458,177.16626 L 391.58906,177.2933 C 391.58906,177.2933 395.69629,180.95569 397.66715,180.24765 C 404.5017,177.79231 400.08774,167.14465 397.66715,167.68256 C 394.98106,168.27947 391.4735,167.89631 391.3846,173.26705 L 385.80012,172.81579 z" style="fill: rgb(195, 124, 76); fill-opacity: 1; fill-rule: evenodd; stroke: rgb(0, 0, 0); stroke-width: 1px; stroke-linecap: butt; stroke-linejoin: miter; stroke-opacity: 1;"/>
    <path style="fill: rgb(195, 124, 76); fill-opacity: 1; fill-rule: evenodd; stroke: rgb(0, 0, 0); stroke-width: 1px; stroke-linecap: butt; stroke-linejoin: miter; stroke-opacity: 1;" d="M 376.91526,165.16494 L 377.11972,169.51541 L 382.7042,169.64245 C 382.7042,169.64245 386.81143,173.30484 388.78229,172.5968 C 395.61684,170.14146 391.20288,159.4938 388.78229,160.03171 C 386.0962,160.62862 382.58864,160.24546 382.49974,165.6162 L 376.91526,165.16494 z" id="path3336" sodipodi:nodetypes="cccsscc"/>
    <path sodipodi:nodetypes="cccsscc" id="path3338" d="M 368.524,157.26729 L 368.72846,161.61776 L 374.31294,161.7448 C 374.31294,161.7448 378.42017,165.40719 380.39103,164.69915 C 387.22558,162.24381 382.81162,151.59615 380.39103,152.13406 C 377.70494,152.73097 374.19738,152.34781 374.10848,157.71855 L 368.524,157.26729 z" style="fill: rgb(195, 124, 76); fill-opacity: 1; fill-rule: evenodd; stroke: rgb(0, 0, 0); stroke-width: 1px; stroke-linecap: butt; stroke-linejoin: miter; stroke-opacity: 1;"/>
    <path style="fill: rgb(195, 124, 76); fill-opacity: 1; fill-rule: evenodd; stroke: rgb(0, 0, 0); stroke-width: 1px; stroke-linecap: butt; stroke-linejoin: miter; stroke-opacity: 1;" d="M 350.75428,135.30194 L 350.95874,139.65241 L 356.54322,139.77945 C 356.54322,139.77945 360.65045,143.44184 362.62131,142.7338 C 369.45586,140.27846 365.0419,129.6308 362.62131,130.16871 C 359.93522,130.76562 356.42766,130.38246 356.33876,135.7532 L 350.75428,135.30194 z" id="path3340" sodipodi:nodetypes="cccsscc"/>
    <path sodipodi:nodetypes="cccsscc" id="path3342" d="M 341.37582,127.65109 L 341.58028,132.00156 L 347.16476,132.1286 C 347.16476,132.1286 351.27199,135.79099 353.24285,135.08295 C 360.0774,132.62761 355.66344,121.97995 353.24285,122.51786 C 350.55676,123.11477 347.0492,122.73161 346.9603,128.10235 L 341.37582,127.65109 z" style="fill: rgb(195, 124, 76); fill-opacity: 1; fill-rule: evenodd; stroke: rgb(0, 0, 0); stroke-width: 1px; stroke-linecap: butt; stroke-linejoin: miter; stroke-opacity: 1;"/>
    <path style="fill: rgb(195, 124, 76); fill-opacity: 1; fill-rule: evenodd; stroke: rgb(0, 0, 0); stroke-width: 1px; stroke-linecap: butt; stroke-linejoin: miter; stroke-opacity: 1;" d="M 333.72497,123.20866 L 333.92943,127.55913 L 339.51391,127.68617 C 339.51391,127.68617 343.62114,131.34856 345.592,130.64052 C 352.42655,128.18518 348.01259,117.53752 345.592,118.07543 C 342.90591,118.67234 339.39835,118.28918 339.30945,123.65992 L 333.72497,123.20866 z" id="path3346" sodipodi:nodetypes="cccsscc"/>
    <path sodipodi:nodetypes="cccsscc" id="path3348" d="M 325.33371,119.01303 L 325.53817,123.3635 L 331.12265,123.49054 C 331.12265,123.49054 335.22988,127.15293 337.20074,126.44489 C 344.03529,123.98955 339.62133,113.34189 337.20074,113.8798 C 334.51465,114.47671 331.00709,114.09355 330.91819,119.46429 L 325.33371,119.01303 z" style="fill: rgb(195, 124, 76); fill-opacity: 1; fill-rule: evenodd; stroke: rgb(0, 0, 0); stroke-width: 1px; stroke-linecap: butt; stroke-linejoin: miter; stroke-opacity: 1;"/>
    <path style="fill: rgb(195, 124, 76); fill-opacity: 1; fill-rule: evenodd; stroke: rgb(0, 0, 0); stroke-width: 1px; stroke-linecap: butt; stroke-linejoin: miter; stroke-opacity: 1;" d="M 316.44885,117.28542 L 316.65331,121.63589 L 322.23779,121.76293 C 322.23779,121.76293 326.34502,125.42532 328.31588,124.71728 C 335.15043,122.26194 330.73647,111.61428 328.31588,112.15219 C 325.62979,112.7491 322.12223,112.36594 322.03333,117.73668 L 316.44885,117.28542 z" id="path3350" sodipodi:nodetypes="cccsscc"/>
    <path sodipodi:nodetypes="cccsscc" id="path3352" d="M 308.05759,115.06421 L 308.26205,119.41468 L 313.84653,119.54172 C 313.84653,119.54172 317.95376,123.20411 319.92462,122.49607 C 326.75917,120.04073 322.34521,109.39307 319.92462,109.93098 C 317.23853,110.52789 313.73097,110.14473 313.64207,115.51547 L 308.05759,115.06421 z" style="fill: rgb(195, 124, 76); fill-opacity: 1; fill-rule: evenodd; stroke: rgb(0, 0, 0); stroke-width: 1px; stroke-linecap: butt; stroke-linejoin: miter; stroke-opacity: 1;"/>
    <path style="fill: rgb(195, 124, 76); fill-opacity: 1; fill-rule: evenodd; stroke: rgb(0, 0, 0); stroke-width: 1px; stroke-linecap: butt; stroke-linejoin: miter; stroke-opacity: 1;" d="M 300.40674,115.31101 L 300.6112,119.66148 L 306.19568,119.78852 C 306.19568,119.78852 310.30291,123.45091 312.27377,122.74287 C 319.10832,120.28753 314.69436,109.63987 312.27377,110.17778 C 309.58768,110.77469 306.08012,110.39153 305.99122,115.76227 L 300.40674,115.31101 z" id="path3354" sodipodi:nodetypes="cccsscc"/>
    <path sodipodi:nodetypes="cccsscc" id="path3356" d="M 292.26229,116.54502 L 292.46675,120.89549 L 298.05123,121.02253 C 298.05123,121.02253 302.15846,124.68492 304.12932,123.97688 C 310.96387,121.52154 306.54991,110.87388 304.12932,111.41179 C 301.44323,112.0087 297.93567,111.62554 297.84677,116.99628 L 292.26229,116.54502 z" style="fill: rgb(195, 124, 76); fill-opacity: 1; fill-rule: evenodd; stroke: rgb(0, 0, 0); stroke-width: 1px; stroke-linecap: butt; stroke-linejoin: miter; stroke-opacity: 1;"/>
    <path style="fill: rgb(195, 124, 76); fill-opacity: 1; fill-rule: evenodd; stroke: rgb(0, 0, 0); stroke-width: 1px; stroke-linecap: butt; stroke-linejoin: miter; stroke-opacity: 1;" d="M 284.36467,119.25983 L 284.56913,123.6103 L 290.15361,123.73734 C 290.15361,123.73734 294.26084,127.39973 296.2317,126.69169 C 303.06625,124.23635 298.65229,113.58869 296.2317,114.1266 C 293.54561,114.72351 290.03805,114.34035 289.94915,119.71109 L 284.36467,119.25983 z" id="path3290" sodipodi:nodetypes="cccsscc"/>
    <path sodipodi:nodetypes="ccsc" id="path3364" d="M 481.6617,297.4098 C 486.10399,304.73944 484.26539,311.37101 485.152,318.35162 C 486.13786,319.53466 501.32272,317.00716 494.22679,309.62586 C 489.69808,304.91502 491.93591,292.29841 481.6617,297.4098 z" style="fill: rgb(160, 137, 44); fill-rule: evenodd; stroke: rgb(0, 0, 0); stroke-width: 1px; stroke-linecap: butt; stroke-linejoin: miter; stroke-opacity: 1;"/>
    <path style="fill: rgb(160, 137, 44); fill-rule: evenodd; stroke: rgb(0, 0, 0); stroke-width: 1px; stroke-linecap: butt; stroke-linejoin: miter; stroke-opacity: 1;" d="M 474.6811,296.71174 C 479.12339,304.04138 477.28479,310.67295 478.1714,317.65356 C 479.15726,318.8366 494.34212,316.3091 487.24619,308.9278 C 482.71748,304.21696 484.95531,291.60035 474.6811,296.71174 z" id="path3366" sodipodi:nodetypes="ccsc"/>
    <path sodipodi:nodetypes="ccsc" id="path3368" d="M 467.7005,294.96659 C 472.14279,302.29623 470.30419,308.9278 471.1908,315.90841 C 472.17666,317.09145 487.36152,314.56395 480.26559,307.18265 C 475.73688,302.47181 477.97471,289.8552 467.7005,294.96659 z" style="fill: rgb(160, 137, 44); fill-rule: evenodd; stroke: rgb(0, 0, 0); stroke-width: 1px; stroke-linecap: butt; stroke-linejoin: miter; stroke-opacity: 1;"/>
    <path style="fill: rgb(160, 137, 44); fill-rule: evenodd; stroke: rgb(0, 0, 0); stroke-width: 1px; stroke-linecap: butt; stroke-linejoin: miter; stroke-opacity: 1;" d="M 458.97474,290.4292 C 463.41703,297.75884 461.57843,304.39041 462.46504,311.37102 C 463.4509,312.55406 478.63576,310.02656 471.53983,302.64526 C 467.01112,297.93442 469.24895,285.31781 458.97474,290.4292 z" id="path3370" sodipodi:nodetypes="ccsc"/>
    <path sodipodi:nodetypes="ccsc" id="path3372" d="M 449.55092,285.54278 C 453.99321,292.87242 452.15461,299.50399 453.04122,306.4846 C 454.02708,307.66764 469.21194,305.14014 462.11601,297.75884 C 457.5873,293.048 459.82513,280.43139 449.55092,285.54278 z" style="fill: rgb(160, 137, 44); fill-rule: evenodd; stroke: rgb(0, 0, 0); stroke-width: 1px; stroke-linecap: butt; stroke-linejoin: miter; stroke-opacity: 1;"/>
    <path style="fill: rgb(160, 137, 44); fill-rule: evenodd; stroke: rgb(0, 0, 0); stroke-width: 1px; stroke-linecap: butt; stroke-linejoin: miter; stroke-opacity: 1;" d="M 441.17419,277.51508 C 445.61648,284.84472 443.77788,291.47629 444.66449,298.4569 C 445.65035,299.63994 460.83521,297.11244 453.73928,289.73114 C 449.21057,285.0203 451.4484,272.40369 441.17419,277.51508 z" id="path3374" sodipodi:nodetypes="ccsc"/>
    <path style="fill: rgb(160, 137, 44); fill-rule: evenodd; stroke: rgb(0, 0, 0); stroke-width: 1px; stroke-linecap: butt; stroke-linejoin: miter; stroke-opacity: 1;" d="M 432.79747,270.88351 C 437.23976,278.21315 435.40116,284.84472 436.28777,291.82533 C 437.27363,293.00837 452.45849,290.48087 445.36256,283.09957 C 440.83385,278.38873 443.07168,265.77212 432.79747,270.88351 z" id="path3362" sodipodi:nodetypes="ccsc"/>
    <path sodipodi:nodetypes="ccsc" id="path3376" d="M 424.42074,259.01648 C 428.86303,266.34612 427.02443,272.97769 427.91104,279.9583 C 428.8969,281.14134 444.08176,278.61384 436.98583,271.23254 C 432.45712,266.5217 434.69495,253.90509 424.42074,259.01648 z" style="fill: rgb(160, 137, 44); fill-rule: evenodd; stroke: rgb(0, 0, 0); stroke-width: 1px; stroke-linecap: butt; stroke-linejoin: miter; stroke-opacity: 1;"/>
    <path style="fill: rgb(160, 137, 44); fill-rule: evenodd; stroke: rgb(0, 0, 0); stroke-width: 1px; stroke-linecap: butt; stroke-linejoin: miter; stroke-opacity: 1;" d="M 416.39304,246.10236 C 420.83533,253.432 418.99673,260.06357 419.88334,267.04418 C 420.8692,268.22722 436.05406,265.69972 428.95813,258.31842 C 424.42942,253.60758 426.66725,240.99097 416.39304,246.10236 z" id="path3378" sodipodi:nodetypes="ccsc"/>
    <path sodipodi:nodetypes="ccsc" id="path3380" d="M 404.87504,232.83921 C 409.31733,240.16885 407.47873,246.80042 408.36534,253.78103 C 409.3512,254.96407 424.53606,252.43657 417.44013,245.05527 C 412.91142,240.34443 415.14925,227.72782 404.87504,232.83921 z" style="fill: rgb(160, 137, 44); fill-rule: evenodd; stroke: rgb(0, 0, 0); stroke-width: 1px; stroke-linecap: butt; stroke-linejoin: miter; stroke-opacity: 1;"/>
    <path style="fill: rgb(160, 137, 44); fill-rule: evenodd; stroke: rgb(0, 0, 0); stroke-width: 1px; stroke-linecap: butt; stroke-linejoin: miter; stroke-opacity: 1;" d="M 395.80025,222.71733 C 400.24254,230.04697 398.40394,236.67854 399.29055,243.65915 C 400.27641,244.84219 415.46127,242.31469 408.36534,234.93339 C 403.83663,230.22255 406.07446,217.60594 395.80025,222.71733 z" id="path3382" sodipodi:nodetypes="ccsc"/>
    <path sodipodi:nodetypes="ccsc" id="path3384" d="M 386.72546,213.99157 C 391.16775,221.32121 389.32915,227.95278 390.21576,234.93339 C 391.20162,236.11643 406.38648,233.58893 399.29055,226.20763 C 394.76184,221.49679 396.99967,208.88018 386.72546,213.99157 z" style="fill: rgb(160, 137, 44); fill-rule: evenodd; stroke: rgb(0, 0, 0); stroke-width: 1px; stroke-linecap: butt; stroke-linejoin: miter; stroke-opacity: 1;"/>
    <path sodipodi:nodetypes="ccsc" id="path3360" d="M 377.99973,201.4265 C 382.44202,208.75614 380.60342,215.38771 381.49003,222.36832 C 382.47589,223.55136 397.66075,221.02386 390.56482,213.64256 C 386.03611,208.93172 388.27394,196.31511 377.99973,201.4265 z" style="fill: rgb(160, 137, 44); fill-rule: evenodd; stroke: rgb(0, 0, 0); stroke-width: 1px; stroke-linecap: butt; stroke-linejoin: miter; stroke-opacity: 1;"/>
    <path style="fill: rgb(160, 137, 44); fill-rule: evenodd; stroke: rgb(0, 0, 0); stroke-width: 1px; stroke-linecap: butt; stroke-linejoin: miter; stroke-opacity: 1;" d="M 368.57591,189.9085 C 373.0182,197.23814 371.1796,203.86971 372.06621,210.85032 C 373.05207,212.03336 388.23693,209.50586 381.141,202.12456 C 376.61229,197.41372 378.85012,184.79711 368.57591,189.9085 z" id="path3386" sodipodi:nodetypes="ccsc"/>
    <path sodipodi:nodetypes="ccsc" id="path3388" d="M 360.54821,182.9279 C 364.9905,190.25754 363.1519,196.88911 364.03851,203.86972 C 365.02437,205.05276 380.20923,202.52526 373.1133,195.14396 C 368.58459,190.43312 370.82242,177.81651 360.54821,182.9279 z" style="fill: rgb(160, 137, 44); fill-rule: evenodd; stroke: rgb(0, 0, 0); stroke-width: 1px; stroke-linecap: butt; stroke-linejoin: miter; stroke-opacity: 1;"/>
    <path style="fill: rgb(160, 137, 44); fill-rule: evenodd; stroke: rgb(0, 0, 0); stroke-width: 1px; stroke-linecap: butt; stroke-linejoin: miter; stroke-opacity: 1;" d="M 352.17148,176.99439 C 356.61377,184.32403 354.77517,190.9556 355.66178,197.93621 C 356.64764,199.11925 371.8325,196.59175 364.73657,189.21045 C 360.20786,184.49961 362.44569,171.883 352.17148,176.99439 z" id="path3390" sodipodi:nodetypes="ccsc"/>
    <path sodipodi:nodetypes="ccsc" id="path3392" d="M 343.09669,172.457 C 347.53898,179.78664 345.70038,186.41821 346.58699,193.39882 C 347.57285,194.58186 362.75771,192.05436 355.66178,184.67306 C 351.13307,179.96222 353.3709,167.34561 343.09669,172.457 z" style="fill: rgb(160, 137, 44); fill-rule: evenodd; stroke: rgb(0, 0, 0); stroke-width: 1px; stroke-linecap: butt; stroke-linejoin: miter; stroke-opacity: 1;"/>
    <path style="fill: rgb(160, 137, 44); fill-rule: evenodd; stroke: rgb(0, 0, 0); stroke-width: 1px; stroke-linecap: butt; stroke-linejoin: miter; stroke-opacity: 1;" d="M 335.41803,168.9667 C 339.86032,176.29634 338.02172,182.92791 338.90833,189.90852 C 339.89419,191.09156 355.07905,188.56406 347.98312,181.18276 C 343.45441,176.47192 345.69224,163.85531 335.41803,168.9667 z" id="path3394" sodipodi:nodetypes="ccsc"/>
    <path sodipodi:nodetypes="ccsc" id="path3396" d="M 335.41803,168.9667 C 339.86032,176.29634 338.02172,182.92791 338.90833,189.90852 C 339.89419,191.09156 355.07905,188.56406 347.98312,181.18276 C 343.45441,176.47192 345.69224,163.85531 335.41803,168.9667 z" style="fill: rgb(160, 137, 44); fill-rule: evenodd; stroke: rgb(0, 0, 0); stroke-width: 1px; stroke-linecap: butt; stroke-linejoin: miter; stroke-opacity: 1;"/>
    <path style="fill: rgb(160, 137, 44); fill-rule: evenodd; stroke: rgb(0, 0, 0); stroke-width: 1px; stroke-linecap: butt; stroke-linejoin: miter; stroke-opacity: 1;" d="M 327.0413,164.77834 C 331.48359,172.10798 329.64499,178.73955 330.5316,185.72016 C 331.51746,186.9032 346.70232,184.3757 339.60639,176.9944 C 335.07768,172.28356 337.31551,159.66695 327.0413,164.77834 z" id="path3398" sodipodi:nodetypes="ccsc"/>
    <path sodipodi:nodetypes="ccsc" id="path3400" d="M 318.31554,163.73125 C 322.75783,171.06089 320.91923,177.69246 321.80584,184.67307 C 322.7917,185.85611 337.97656,183.32861 330.88063,175.94731 C 326.35192,171.23647 328.58975,158.61986 318.31554,163.73125 z" style="fill: rgb(160, 137, 44); fill-rule: evenodd; stroke: rgb(0, 0, 0); stroke-width: 1px; stroke-linecap: butt; stroke-linejoin: miter; stroke-opacity: 1;"/>
    <path style="fill: rgb(160, 137, 44); fill-rule: evenodd; stroke: rgb(0, 0, 0); stroke-width: 1px; stroke-linecap: butt; stroke-linejoin: miter; stroke-opacity: 1;" d="M 309.93881,166.52349 C 314.3811,173.85313 312.5425,180.4847 313.42911,187.46531 C 314.41497,188.64835 329.59983,186.12085 322.5039,178.73955 C 317.97519,174.02871 320.21302,161.4121 309.93881,166.52349 z" id="path3402" sodipodi:nodetypes="ccsc"/>
    <path sodipodi:nodetypes="ccsc" id="path3404" d="M 301.91111,169.66476 C 306.3534,176.9944 304.5148,183.62597 305.40141,190.60658 C 306.38727,191.78962 321.57213,189.26212 314.4762,181.88082 C 309.94749,177.16998 312.18532,164.55337 301.91111,169.66476 z" style="fill: rgb(160, 137, 44); fill-rule: evenodd; stroke: rgb(0, 0, 0); stroke-width: 1px; stroke-linecap: butt; stroke-linejoin: miter; stroke-opacity: 1;"/>
    <path sodipodi:nodetypes="ccsc" id="path3408" d="M 293.88341,175.24924 C 298.3257,182.57888 296.4871,189.21045 297.37371,196.19106 C 298.35957,197.3741 313.54443,194.8466 306.4485,187.4653 C 301.91979,182.75446 304.15762,170.13785 293.88341,175.24924 z" style="fill: rgb(160, 137, 44); fill-rule: evenodd; stroke: rgb(0, 0, 0); stroke-width: 1px; stroke-linecap: butt; stroke-linejoin: miter; stroke-opacity: 1;"/>
    <path style="fill: rgb(170, 136, 0); fill-rule: evenodd; stroke: rgb(0, 0, 0); stroke-width: 1px; stroke-linecap: butt; stroke-linejoin: miter; stroke-opacity: 1;" d="M 285.15769,179.43759 C 289.59998,186.76723 287.76138,193.3988 288.64799,200.37941 C 289.63385,201.56245 304.81871,199.03495 297.72278,191.65365 C 293.19407,186.94281 295.4319,174.3262 285.15769,179.43759 z" id="path3358" sodipodi:nodetypes="ccsc"/>
    <path sodipodi:type="arc" style="opacity: 1; fill: none; fill-opacity: 1; stroke: rgb(136, 132, 136); stroke-width: 2; stroke-miterlimit: 4; stroke-dasharray: none; stroke-opacity: 1;" id="path3410" sodipodi:cx="366.99405" sodipodi:cy="838.13837" sodipodi:rx="3.7020245" sodipodi:ry="3.9488263" d="M 370.69607,838.13837 A 3.7020245,3.9488263 0 1 1 363.29202,838.13837 A 3.7020245,3.9488263 0 1 1 370.69607,838.13837 z" transform="translate(0, 0.493603)"/>
    <path transform="translate(6.41684, -16.7825)" d="M 370.69607,838.13837 A 3.7020245,3.9488263 0 1 1 363.29202,838.13837 A 3.7020245,3.9488263 0 1 1 370.69607,838.13837 z" sodipodi:ry="3.9488263" sodipodi:rx="3.7020245" sodipodi:cy="838.13837" sodipodi:cx="366.99405" id="path3412" style="opacity: 1; fill: none; fill-opacity: 1; stroke: rgb(136, 132, 136); stroke-width: 2; stroke-miterlimit: 4; stroke-dasharray: none; stroke-opacity: 1;" sodipodi:type="arc"/>
    <path sodipodi:type="arc" style="opacity: 1; fill: none; fill-opacity: 1; stroke: rgb(136, 132, 136); stroke-width: 2; stroke-miterlimit: 4; stroke-dasharray: none; stroke-opacity: 1;" id="path3414" sodipodi:cx="366.99405" sodipodi:cy="838.13837" sodipodi:rx="3.7020245" sodipodi:ry="3.9488263" d="M 370.69607,838.13837 A 3.7020245,3.9488263 0 1 1 363.29202,838.13837 A 3.7020245,3.9488263 0 1 1 370.69607,838.13837 z" transform="translate(12.3401, -37.0202)"/>
    <path transform="translate(18.2633, -55.2836)" d="M 370.69607,838.13837 A 3.7020245,3.9488263 0 1 1 363.29202,838.13837 A 3.7020245,3.9488263 0 1 1 370.69607,838.13837 z" sodipodi:ry="3.9488263" sodipodi:rx="3.7020245" sodipodi:cy="838.13837" sodipodi:cx="366.99405" id="path3416" style="opacity: 1; fill: none; fill-opacity: 1; stroke: rgb(136, 132, 136); stroke-width: 2; stroke-miterlimit: 4; stroke-dasharray: none; stroke-opacity: 1;" sodipodi:type="arc"/>
    <path sodipodi:type="arc" style="opacity: 1; fill: none; fill-opacity: 1; stroke: rgb(136, 132, 136); stroke-width: 2; stroke-miterlimit: 4; stroke-dasharray: none; stroke-opacity: 1;" id="path3418" sodipodi:cx="366.99405" sodipodi:cy="838.13837" sodipodi:rx="3.7020245" sodipodi:ry="3.9488263" d="M 370.69607,838.13837 A 3.7020245,3.9488263 0 1 1 363.29202,838.13837 A 3.7020245,3.9488263 0 1 1 370.69607,838.13837 z" transform="translate(24.1866, -73.0533)"/>
    <path transform="translate(30.1098, -92.7974)" d="M 370.69607,838.13837 A 3.7020245,3.9488263 0 1 1 363.29202,838.13837 A 3.7020245,3.9488263 0 1 1 370.69607,838.13837 z" sodipodi:ry="3.9488263" sodipodi:rx="3.7020245" sodipodi:cy="838.13837" sodipodi:cx="366.99405" id="path3420" style="opacity: 1; fill: none; fill-opacity: 1; stroke: rgb(136, 132, 136); stroke-width: 2; stroke-miterlimit: 4; stroke-dasharray: none; stroke-opacity: 1;" sodipodi:type="arc"/>
    <path sodipodi:type="arc" style="opacity: 1; fill: none; fill-opacity: 1; stroke: rgb(136, 132, 136); stroke-width: 2; stroke-miterlimit: 4; stroke-dasharray: none; stroke-opacity: 1;" id="path3422" sodipodi:cx="366.99405" sodipodi:cy="838.13837" sodipodi:rx="3.7020245" sodipodi:ry="3.9488263" d="M 370.69607,838.13837 A 3.7020245,3.9488263 0 1 1 363.29202,838.13837 A 3.7020245,3.9488263 0 1 1 370.69607,838.13837 z" transform="translate(35.0458, -111.554)"/>
    <path transform="translate(40.9691, -129.818)" d="M 370.69607,838.13837 A 3.7020245,3.9488263 0 1 1 363.29202,838.13837 A 3.7020245,3.9488263 0 1 1 370.69607,838.13837 z" sodipodi:ry="3.9488263" sodipodi:rx="3.7020245" sodipodi:cy="838.13837" sodipodi:cx="366.99405" id="path3424" style="opacity: 1; fill: none; fill-opacity: 1; stroke: rgb(136, 132, 136); stroke-width: 2; stroke-miterlimit: 4; stroke-dasharray: none; stroke-opacity: 1;" sodipodi:type="arc"/>
    <path sodipodi:type="arc" style="opacity: 1; fill: none; fill-opacity: 1; stroke: rgb(136, 132, 136); stroke-width: 2; stroke-miterlimit: 4; stroke-dasharray: none; stroke-opacity: 1;" id="path3426" sodipodi:cx="366.99405" sodipodi:cy="838.13837" sodipodi:rx="3.7020245" sodipodi:ry="3.9488263" d="M 370.69607,838.13837 A 3.7020245,3.9488263 0 1 1 363.29202,838.13837 A 3.7020245,3.9488263 0 1 1 370.69607,838.13837 z" transform="translate(46.3987, -148.081)"/>
    <path transform="translate(51.3347, -167.825)" d="M 370.69607,838.13837 A 3.7020245,3.9488263 0 1 1 363.29202,838.13837 A 3.7020245,3.9488263 0 1 1 370.69607,838.13837 z" sodipodi:ry="3.9488263" sodipodi:rx="3.7020245" sodipodi:cy="838.13837" sodipodi:cx="366.99405" id="path3428" style="opacity: 1; fill: none; fill-opacity: 1; stroke: rgb(136, 132, 136); stroke-width: 2; stroke-miterlimit: 4; stroke-dasharray: none; stroke-opacity: 1;" sodipodi:type="arc"/>
    <path sodipodi:type="arc" style="opacity: 1; fill: none; fill-opacity: 1; stroke: rgb(136, 132, 136); stroke-width: 2; stroke-miterlimit: 4; stroke-dasharray: none; stroke-opacity: 1;" id="path3430" sodipodi:cx="366.99405" sodipodi:cy="838.13837" sodipodi:rx="3.7020245" sodipodi:ry="3.9488263" d="M 370.69607,838.13837 A 3.7020245,3.9488263 0 1 1 363.29202,838.13837 A 3.7020245,3.9488263 0 1 1 370.69607,838.13837 z" transform="matrix(0.467312, 0.884093, -0.884093, 0.467312, 995.224, -65.5594)"/>
    <path transform="matrix(0.467312, 0.884093, -0.884093, 0.467312, 1000.16, -84.3164)" d="M 370.69607,838.13837 A 3.7020245,3.9488263 0 1 1 363.29202,838.13837 A 3.7020245,3.9488263 0 1 1 370.69607,838.13837 z" sodipodi:ry="3.9488263" sodipodi:rx="3.7020245" sodipodi:cy="838.13837" sodipodi:cx="366.99405" id="path3432" style="opacity: 1; fill: none; fill-opacity: 1; stroke: rgb(136, 132, 136); stroke-width: 2; stroke-miterlimit: 4; stroke-dasharray: none; stroke-opacity: 1;" sodipodi:type="arc"/>
    <path sodipodi:type="arc" style="opacity: 1; fill: none; fill-opacity: 1; stroke: rgb(136, 132, 136); stroke-width: 2; stroke-miterlimit: 4; stroke-dasharray: none; stroke-opacity: 1;" id="path3434" sodipodi:cx="366.99405" sodipodi:cy="838.13837" sodipodi:rx="3.7020245" sodipodi:ry="3.9488263" d="M 370.69607,838.13837 A 3.7020245,3.9488263 0 1 1 363.29202,838.13837 A 3.7020245,3.9488263 0 1 1 370.69607,838.13837 z" transform="matrix(0.467312, 0.884093, -0.884093, 0.467312, 1005.59, -101.592)"/>
    <path transform="matrix(0.467312, 0.884093, -0.884093, 0.467312, 1011.02, -119.362)" d="M 370.69607,838.13837 A 3.7020245,3.9488263 0 1 1 363.29202,838.13837 A 3.7020245,3.9488263 0 1 1 370.69607,838.13837 z" sodipodi:ry="3.9488263" sodipodi:rx="3.7020245" sodipodi:cy="838.13837" sodipodi:cx="366.99405" id="path3436" style="opacity: 1; fill: none; fill-opacity: 1; stroke: rgb(136, 132, 136); stroke-width: 2; stroke-miterlimit: 4; stroke-dasharray: none; stroke-opacity: 1;" sodipodi:type="arc"/>
    <path sodipodi:type="arc" style="opacity: 1; fill: none; fill-opacity: 1; stroke: rgb(136, 132, 136); stroke-width: 2; stroke-miterlimit: 4; stroke-dasharray: none; stroke-opacity: 1;" id="path3438" sodipodi:cx="366.99405" sodipodi:cy="838.13837" sodipodi:rx="3.7020245" sodipodi:ry="3.9488263" d="M 370.69607,838.13837 A 3.7020245,3.9488263 0 1 1 363.29202,838.13837 A 3.7020245,3.9488263 0 1 1 370.69607,838.13837 z" transform="matrix(0.467312, 0.884093, -0.884093, 0.467312, 1017.44, -137.626)"/>
    <path transform="matrix(0.420383, 0.792021, -0.79531, 0.418645, 966.664, -85.2583)" d="M 370.69607,838.13837 A 3.7020245,3.9488263 0 1 1 363.29202,838.13837 A 3.7020245,3.9488263 0 1 1 370.69607,838.13837 z" sodipodi:ry="3.9488263" sodipodi:rx="3.7020245" sodipodi:cy="838.13837" sodipodi:cx="366.99405" id="path3440" style="opacity: 1; fill: none; fill-opacity: 1; stroke: rgb(136, 132, 136); stroke-width: 2; stroke-miterlimit: 4; stroke-dasharray: none; stroke-opacity: 1;" sodipodi:type="arc"/>
    <path sodipodi:type="arc" style="opacity: 1; fill: none; fill-opacity: 1; stroke: rgb(136, 132, 136); stroke-width: 2; stroke-miterlimit: 4; stroke-dasharray: none; stroke-opacity: 1;" id="path3442" sodipodi:cx="366.99405" sodipodi:cy="838.13837" sodipodi:rx="3.7020245" sodipodi:ry="3.9488263" d="M 370.69607,838.13837 A 3.7020245,3.9488263 0 1 1 363.29202,838.13837 A 3.7020245,3.9488263 0 1 1 370.69607,838.13837 z" transform="matrix(0.420383, 0.792021, -0.79531, 0.418645, 972.093, -104.015)"/>
    <path transform="matrix(0.420383, 0.792021, -0.79531, 0.418645, 977.523, -124.253)" d="M 370.69607,838.13837 A 3.7020245,3.9488263 0 1 1 363.29202,838.13837 A 3.7020245,3.9488263 0 1 1 370.69607,838.13837 z" sodipodi:ry="3.9488263" sodipodi:rx="3.7020245" sodipodi:cy="838.13837" sodipodi:cx="366.99405" id="path3444" style="opacity: 1; fill: none; fill-opacity: 1; stroke: rgb(136, 132, 136); stroke-width: 2; stroke-miterlimit: 4; stroke-dasharray: none; stroke-opacity: 1;" sodipodi:type="arc"/>
    <path sodipodi:type="arc" style="opacity: 1; fill: none; fill-opacity: 1; stroke: rgb(136, 132, 136); stroke-width: 2; stroke-miterlimit: 4; stroke-dasharray: none; stroke-opacity: 1;" id="path3446" sodipodi:cx="366.99405" sodipodi:cy="838.13837" sodipodi:rx="3.7020245" sodipodi:ry="3.9488263" d="M 370.69607,838.13837 A 3.7020245,3.9488263 0 1 1 363.29202,838.13837 A 3.7020245,3.9488263 0 1 1 370.69607,838.13837 z" transform="matrix(0.420383, 0.792021, -0.79531, 0.418645, 983.446, -140.542)"/>
    <path transform="matrix(0.420383, 0.792021, -0.79531, 0.418645, 988.876, -160.286)" d="M 370.69607,838.13837 A 3.7020245,3.9488263 0 1 1 363.29202,838.13837 A 3.7020245,3.9488263 0 1 1 370.69607,838.13837 z" sodipodi:ry="3.9488263" sodipodi:rx="3.7020245" sodipodi:cy="838.13837" sodipodi:cx="366.99405" id="path3448" style="opacity: 1; fill: none; fill-opacity: 1; stroke: rgb(136, 132, 136); stroke-width: 2; stroke-miterlimit: 4; stroke-dasharray: none; stroke-opacity: 1;" sodipodi:type="arc"/>
    <path sodipodi:type="arc" style="opacity: 1; fill: none; fill-opacity: 1; stroke: rgb(136, 132, 136); stroke-width: 2; stroke-miterlimit: 4; stroke-dasharray: none; stroke-opacity: 1;" id="path3450" sodipodi:cx="366.99405" sodipodi:cy="838.13837" sodipodi:rx="3.7020245" sodipodi:ry="3.9488263" d="M 370.69607,838.13837 A 3.7020245,3.9488263 0 1 1 363.29202,838.13837 A 3.7020245,3.9488263 0 1 1 370.69607,838.13837 z" transform="matrix(0.420383, 0.792021, -0.79531, 0.418645, 993.812, -177.562)"/>
    <path transform="matrix(0.420383, 0.792021, -0.79531, 0.418645, 999.241, -194.838)" d="M 370.69607,838.13837 A 3.7020245,3.9488263 0 1 1 363.29202,838.13837 A 3.7020245,3.9488263 0 1 1 370.69607,838.13837 z" sodipodi:ry="3.9488263" sodipodi:rx="3.7020245" sodipodi:cy="838.13837" sodipodi:cx="366.99405" id="path3452" style="opacity: 1; fill: none; fill-opacity: 1; stroke: rgb(136, 132, 136); stroke-width: 2; stroke-miterlimit: 4; stroke-dasharray: none; stroke-opacity: 1;" sodipodi:type="arc"/>
    <path sodipodi:type="arc" style="opacity: 1; fill: none; fill-opacity: 1; stroke: rgb(136, 132, 136); stroke-width: 2; stroke-miterlimit: 4; stroke-dasharray: none; stroke-opacity: 1;" id="path3454" sodipodi:cx="366.99405" sodipodi:cy="838.13837" sodipodi:rx="3.7020245" sodipodi:ry="3.9488263" d="M 370.69607,838.13837 A 3.7020245,3.9488263 0 1 1 363.29202,838.13837 A 3.7020245,3.9488263 0 1 1 370.69607,838.13837 z" transform="matrix(0.420383, 0.792021, -0.79531, 0.418645, 1004.67, -211.127)"/>
    <path transform="matrix(0.420383, 0.792021, -0.79531, 0.418645, 1009.61, -228.897)" d="M 370.69607,838.13837 A 3.7020245,3.9488263 0 1 1 363.29202,838.13837 A 3.7020245,3.9488263 0 1 1 370.69607,838.13837 z" sodipodi:ry="3.9488263" sodipodi:rx="3.7020245" sodipodi:cy="838.13837" sodipodi:cx="366.99405" id="path3456" style="opacity: 1; fill: none; fill-opacity: 1; stroke: rgb(136, 132, 136); stroke-width: 2; stroke-miterlimit: 4; stroke-dasharray: none; stroke-opacity: 1;" sodipodi:type="arc"/>
  </g>
</svg>