<?xml version="1.0" encoding="UTF-8" standalone="no"?>
<!-- Created with Inkscape (http://www.inkscape.org/) -->
<svg xmlns:dc="http://purl.org/dc/elements/1.1/" xmlns:cc="http://web.resource.org/cc/" xmlns:rdf="http://www.w3.org/1999/02/22-rdf-syntax-ns#" xmlns:svg="http://www.w3.org/2000/svg" xmlns="http://www.w3.org/2000/svg" xmlns:xlink="http://www.w3.org/1999/xlink" xmlns:sodipodi="http://sodipodi.sourceforge.net/DTD/sodipodi-0.dtd" xmlns:inkscape="http://www.inkscape.org/namespaces/inkscape" width="183.93745" height="428.89288" id="svg41391" sodipodi:version="0.32" inkscape:version="0.45.1" sodipodi:docbase="/Users/johnolsen/Desktop" sodipodi:docname="TheresaKnott_Saxaphone.svg" inkscape:output_extension="org.inkscape.output.svg.inkscape" version="1.0">
  <defs id="defs41393">
    <linearGradient id="linearGradient52391">
      <stop style="stop-color: rgb(113, 71, 0); stop-opacity: 1;" offset="0" id="stop52393"/>
      <stop style="stop-color: rgb(255, 255, 255); stop-opacity: 1;" offset="1" id="stop52395"/>
    </linearGradient>
    <linearGradient id="linearGradient52383">
      <stop style="stop-color: rgb(0, 0, 0); stop-opacity: 1;" offset="0" id="stop52385"/>
      <stop style="stop-color: rgb(0, 0, 0); stop-opacity: 0;" offset="1" id="stop52387"/>
    </linearGradient>
    <linearGradient id="linearGradient48843">
      <stop style="stop-color: rgb(255, 255, 255); stop-opacity: 1;" offset="0" id="stop48845"/>
      <stop id="stop56022" offset="0.5" style="stop-color: rgb(255, 255, 255); stop-opacity: 1;"/>
      <stop style="stop-color: rgb(216, 213, 213); stop-opacity: 1;" offset="0.75" id="stop56024"/>
      <stop style="stop-color: rgb(124, 121, 126); stop-opacity: 1;" offset="1" id="stop48847"/>
    </linearGradient>
    <linearGradient inkscape:collect="always" id="linearGradient46148">
      <stop style="stop-color: rgb(255, 254, 221); stop-opacity: 1;" offset="0" id="stop46150"/>
      <stop style="stop-color: rgb(255, 254, 221); stop-opacity: 0;" offset="1" id="stop46152"/>
    </linearGradient>
    <linearGradient inkscape:collect="always" xlink:href="#linearGradient46148" id="linearGradient46154" x1="2659.1775" y1="759.33783" x2="2680.323" y2="770.82483" gradientUnits="userSpaceOnUse" spreadMethod="reflect"/>
    <radialGradient inkscape:collect="always" xlink:href="#linearGradient48843" id="radialGradient48861" gradientUnits="userSpaceOnUse" gradientTransform="matrix(0.799848, 0.136063, -0.292543, 1.24776, 695.045, -1218.94)" cx="3028.5266" cy="1466.2667" fx="3028.5266" fy="1466.2667" r="132.50549"/>
    <linearGradient inkscape:collect="always" xlink:href="#linearGradient52383" id="linearGradient52389" x1="3306.2893" y1="633.97693" x2="3306.2947" y2="628.83057" gradientUnits="userSpaceOnUse" spreadMethod="reflect" gradientTransform="translate(-0.58018, 0.58018)"/>
    <linearGradient inkscape:collect="always" xlink:href="#linearGradient52391" id="linearGradient52397" x1="3306.2893" y1="633.97693" x2="3306.2947" y2="628.83057" gradientUnits="userSpaceOnUse" spreadMethod="reflect" gradientTransform="translate(-0.58018, 0.58018)"/>
    <linearGradient inkscape:collect="always" xlink:href="#linearGradient52391" id="linearGradient52404" gradientUnits="userSpaceOnUse" gradientTransform="translate(-0.58018, 0.58018)" spreadMethod="reflect" x1="3306.2893" y1="633.97693" x2="3306.2947" y2="628.83057"/>
    <linearGradient inkscape:collect="always" xlink:href="#linearGradient52391" id="linearGradient53282" gradientUnits="userSpaceOnUse" gradientTransform="matrix(0.790432, 0, 0, 1, -158.238, -29.7341)" spreadMethod="reflect" x1="3306.2893" y1="633.97693" x2="3306.2947" y2="628.83057"/>
    <linearGradient inkscape:collect="always" xlink:href="#linearGradient52391" id="linearGradient53299" gradientUnits="userSpaceOnUse" gradientTransform="matrix(0.790432, 0, 0, 1, -158.238, -29.7341)" spreadMethod="reflect" x1="3306.2893" y1="633.97693" x2="3306.2947" y2="628.83057"/>
    <linearGradient inkscape:collect="always" xlink:href="#linearGradient52391" id="linearGradient53309" gradientUnits="userSpaceOnUse" gradientTransform="matrix(0.790432, 0, 0, 1, -158.238, -29.7341)" spreadMethod="reflect" x1="3306.2893" y1="633.97693" x2="3306.2947" y2="628.83057"/>
    <linearGradient inkscape:collect="always" xlink:href="#linearGradient52391" id="linearGradient53319" gradientUnits="userSpaceOnUse" gradientTransform="matrix(0.790432, 0, 0, 1, -158.238, -29.7341)" spreadMethod="reflect" x1="3306.2893" y1="633.97693" x2="3306.2947" y2="628.83057"/>
    <linearGradient inkscape:collect="always" xlink:href="#linearGradient52391" id="linearGradient53322" gradientUnits="userSpaceOnUse" gradientTransform="matrix(-1.21599, 0, 0, 1, 6381.41, 100.374)" spreadMethod="reflect" x1="3306.2893" y1="633.97693" x2="3306.2947" y2="628.83057"/>
    <linearGradient inkscape:collect="always" xlink:href="#linearGradient52391" id="linearGradient53327" gradientUnits="userSpaceOnUse" gradientTransform="matrix(-1.51388, 0, 0, 1, 7344.13, 228.266)" spreadMethod="reflect" x1="3306.2893" y1="633.97693" x2="3306.2947" y2="628.83057"/>
    <linearGradient inkscape:collect="always" xlink:href="#linearGradient52391" id="linearGradient53339" gradientUnits="userSpaceOnUse" gradientTransform="matrix(0.790432, 0, 0, 1, -158.238, -29.7341)" spreadMethod="reflect" x1="3306.2893" y1="633.97693" x2="3306.2947" y2="628.83057"/>
    <linearGradient inkscape:collect="always" xlink:href="#linearGradient52391" id="linearGradient53349" gradientUnits="userSpaceOnUse" gradientTransform="matrix(0.790432, 0, 0, 1, -158.238, -29.7341)" spreadMethod="reflect" x1="3306.2893" y1="633.97693" x2="3306.2947" y2="628.83057"/>
    <linearGradient inkscape:collect="always" xlink:href="#linearGradient52391" id="linearGradient53359" gradientUnits="userSpaceOnUse" gradientTransform="matrix(0.790432, 0, 0, 1, -158.238, -29.7341)" spreadMethod="reflect" x1="3306.2893" y1="633.97693" x2="3306.2947" y2="628.83057"/>
    <linearGradient inkscape:collect="always" xlink:href="#linearGradient52391" id="linearGradient53369" gradientUnits="userSpaceOnUse" gradientTransform="matrix(0.790432, 0, 0, 1, -158.238, -29.7341)" spreadMethod="reflect" x1="3306.2893" y1="633.97693" x2="3306.2947" y2="628.83057"/>
    <linearGradient inkscape:collect="always" xlink:href="#linearGradient52391" id="linearGradient53371" gradientUnits="userSpaceOnUse" gradientTransform="matrix(0.790432, 0, 0, 1, -158.238, -29.7341)" spreadMethod="reflect" x1="3306.2893" y1="633.97693" x2="3306.2947" y2="628.83057"/>
    <linearGradient inkscape:collect="always" xlink:href="#linearGradient52391" id="linearGradient55133" x1="2220.6755" y1="714.09113" x2="2230.2859" y2="714.09113" gradientUnits="userSpaceOnUse" spreadMethod="reflect" gradientTransform="matrix(1.47809, -2.91997e-07, -2.55438e-08, 1.39842, -912.003, -588.221)"/>
    <linearGradient inkscape:collect="always" xlink:href="#linearGradient52391" id="linearGradient55137" gradientUnits="userSpaceOnUse" gradientTransform="matrix(1.47765, -3.22177e-07, 2.31626e-07, 1.32434, -919.246, -607.463)" spreadMethod="reflect" x1="2220.6755" y1="714.09113" x2="2230.2859" y2="714.09113"/>
    <radialGradient inkscape:collect="always" xlink:href="#linearGradient48843" id="radialGradient55147" cx="2846.3669" cy="162.63686" fx="2846.3669" fy="162.63686" r="68.332405" gradientUnits="userSpaceOnUse" gradientTransform="matrix(1.19544, 1.93977, -1.19315, 0.867383, -362.24, -5499.73)"/>
    <radialGradient inkscape:collect="always" xlink:href="#linearGradient48843" id="radialGradient56032" gradientUnits="userSpaceOnUse" gradientTransform="matrix(1.19544, 1.93977, -1.19315, 0.867383, -362.24, -5499.73)" cx="2846.3669" cy="162.63686" fx="2846.3669" fy="162.63686" r="68.332405"/>
    <radialGradient inkscape:collect="always" xlink:href="#linearGradient48843" id="radialGradient56036" gradientUnits="userSpaceOnUse" gradientTransform="matrix(1.19544, 1.93977, -1.19315, 0.867383, -362.24, -5499.73)" cx="2846.3669" cy="162.63686" fx="2846.3669" fy="162.63686" r="68.332405"/>
    <radialGradient inkscape:collect="always" xlink:href="#linearGradient48843" id="radialGradient56040" gradientUnits="userSpaceOnUse" gradientTransform="matrix(1.19544, 1.93977, -1.19315, 0.867383, -362.24, -5499.73)" cx="2846.3669" cy="162.63686" fx="2846.3669" fy="162.63686" r="68.332405"/>
    <linearGradient inkscape:collect="always" xlink:href="#linearGradient52391" id="linearGradient56943" gradientUnits="userSpaceOnUse" gradientTransform="matrix(1.21599, 0, 0, 1, -1299.06, -93.6112)" spreadMethod="reflect" x1="3306.2893" y1="633.97693" x2="3306.2947" y2="628.83057"/>
    <linearGradient inkscape:collect="always" xlink:href="#linearGradient52391" id="linearGradient56952" gradientUnits="userSpaceOnUse" gradientTransform="matrix(1.21599, 0, 0, 1, -1299.06, -93.6112)" spreadMethod="reflect" x1="3306.2893" y1="633.97693" x2="3306.2947" y2="628.83057"/>
    <linearGradient inkscape:collect="always" xlink:href="#linearGradient52391" id="linearGradient56962" gradientUnits="userSpaceOnUse" gradientTransform="matrix(1.21599, 0, 0, 1, -1299.06, -93.6112)" spreadMethod="reflect" x1="3306.2893" y1="633.97693" x2="3306.2947" y2="628.83057"/>
    <linearGradient inkscape:collect="always" xlink:href="#linearGradient52391" id="linearGradient56972" gradientUnits="userSpaceOnUse" gradientTransform="matrix(1.21599, 0, 0, 1, -1299.06, -93.6112)" spreadMethod="reflect" x1="3306.2893" y1="633.97693" x2="3306.2947" y2="628.83057"/>
    <linearGradient inkscape:collect="always" xlink:href="#linearGradient52391" id="linearGradient56982" gradientUnits="userSpaceOnUse" gradientTransform="matrix(1.21599, 0, 0, 1, -1299.06, -93.6112)" spreadMethod="reflect" x1="3306.2893" y1="633.97693" x2="3306.2947" y2="628.83057"/>
    <linearGradient inkscape:collect="always" xlink:href="#linearGradient52391" id="linearGradient59734" gradientUnits="userSpaceOnUse" gradientTransform="matrix(1.47809, -2.91997e-07, -2.55438e-08, 1.39842, -912.003, -588.221)" spreadMethod="reflect" x1="2220.6755" y1="714.09113" x2="2230.2859" y2="714.09113"/>
    <linearGradient inkscape:collect="always" xlink:href="#linearGradient52391" id="linearGradient59736" gradientUnits="userSpaceOnUse" gradientTransform="matrix(1.47765, -3.22177e-07, 2.31626e-07, 1.32434, -919.246, -607.463)" spreadMethod="reflect" x1="2220.6755" y1="714.09113" x2="2230.2859" y2="714.09113"/>
    <radialGradient inkscape:collect="always" xlink:href="#linearGradient48843" id="radialGradient59738" gradientUnits="userSpaceOnUse" gradientTransform="matrix(0.799848, 0.136063, -0.292543, 1.24776, 695.045, -1218.94)" cx="3028.5266" cy="1466.2667" fx="3028.5266" fy="1466.2667" r="132.50549"/>
    <linearGradient inkscape:collect="always" xlink:href="#linearGradient46148" id="linearGradient59740" gradientUnits="userSpaceOnUse" spreadMethod="reflect" x1="2659.1775" y1="759.33783" x2="2680.323" y2="770.82483"/>
    <linearGradient inkscape:collect="always" xlink:href="#linearGradient52391" id="linearGradient59742" gradientUnits="userSpaceOnUse" gradientTransform="matrix(0.790432, 0, 0, 1, -158.238, -29.7341)" spreadMethod="reflect" x1="3306.2893" y1="633.97693" x2="3306.2947" y2="628.83057"/>
    <linearGradient inkscape:collect="always" xlink:href="#linearGradient52391" id="linearGradient59744" gradientUnits="userSpaceOnUse" gradientTransform="matrix(0.790432, 0, 0, 1, -158.238, -29.7341)" spreadMethod="reflect" x1="3306.2893" y1="633.97693" x2="3306.2947" y2="628.83057"/>
    <linearGradient inkscape:collect="always" xlink:href="#linearGradient52391" id="linearGradient59746" gradientUnits="userSpaceOnUse" gradientTransform="matrix(0.790432, 0, 0, 1, -158.238, -29.7341)" spreadMethod="reflect" x1="3306.2893" y1="633.97693" x2="3306.2947" y2="628.83057"/>
    <linearGradient inkscape:collect="always" xlink:href="#linearGradient52391" id="linearGradient59748" gradientUnits="userSpaceOnUse" gradientTransform="matrix(0.790432, 0, 0, 1, -158.238, -29.7341)" spreadMethod="reflect" x1="3306.2893" y1="633.97693" x2="3306.2947" y2="628.83057"/>
    <linearGradient inkscape:collect="always" xlink:href="#linearGradient52391" id="linearGradient59750" gradientUnits="userSpaceOnUse" gradientTransform="matrix(0.790432, 0, 0, 1, -158.238, -29.7341)" spreadMethod="reflect" x1="3306.2893" y1="633.97693" x2="3306.2947" y2="628.83057"/>
    <linearGradient inkscape:collect="always" xlink:href="#linearGradient52391" id="linearGradient59752" gradientUnits="userSpaceOnUse" gradientTransform="matrix(0.790432, 0, 0, 1, -158.238, -29.7341)" spreadMethod="reflect" x1="3306.2893" y1="633.97693" x2="3306.2947" y2="628.83057"/>
    <linearGradient inkscape:collect="always" xlink:href="#linearGradient52391" id="linearGradient59754" gradientUnits="userSpaceOnUse" gradientTransform="matrix(-1.51388, 0, 0, 1, 7344.13, 228.266)" spreadMethod="reflect" x1="3306.2893" y1="633.97693" x2="3306.2947" y2="628.83057"/>
    <linearGradient inkscape:collect="always" xlink:href="#linearGradient52391" id="linearGradient59756" gradientUnits="userSpaceOnUse" gradientTransform="matrix(-1.21599, 0, 0, 1, 6381.41, 100.374)" spreadMethod="reflect" x1="3306.2893" y1="633.97693" x2="3306.2947" y2="628.83057"/>
    <radialGradient inkscape:collect="always" xlink:href="#linearGradient48843" id="radialGradient59758" gradientUnits="userSpaceOnUse" gradientTransform="matrix(1.19544, 1.93977, -1.19315, 0.867383, -362.24, -5499.73)" cx="2846.3669" cy="162.63686" fx="2846.3669" fy="162.63686" r="68.332405"/>
    <radialGradient inkscape:collect="always" xlink:href="#linearGradient48843" id="radialGradient59760" gradientUnits="userSpaceOnUse" gradientTransform="matrix(1.19544, 1.93977, -1.19315, 0.867383, -362.24, -5499.73)" cx="2846.3669" cy="162.63686" fx="2846.3669" fy="162.63686" r="68.332405"/>
    <radialGradient inkscape:collect="always" xlink:href="#linearGradient48843" id="radialGradient59762" gradientUnits="userSpaceOnUse" gradientTransform="matrix(1.19544, 1.93977, -1.19315, 0.867383, -362.24, -5499.73)" cx="2846.3669" cy="162.63686" fx="2846.3669" fy="162.63686" r="68.332405"/>
    <radialGradient inkscape:collect="always" xlink:href="#linearGradient48843" id="radialGradient59764" gradientUnits="userSpaceOnUse" gradientTransform="matrix(1.19544, 1.93977, -1.19315, 0.867383, -362.24, -5499.73)" cx="2846.3669" cy="162.63686" fx="2846.3669" fy="162.63686" r="68.332405"/>
    <linearGradient inkscape:collect="always" xlink:href="#linearGradient52391" id="linearGradient59766" gradientUnits="userSpaceOnUse" gradientTransform="matrix(1.21599, 0, 0, 1, -1299.06, -93.6112)" spreadMethod="reflect" x1="3306.2893" y1="633.97693" x2="3306.2947" y2="628.83057"/>
    <linearGradient inkscape:collect="always" xlink:href="#linearGradient52391" id="linearGradient59768" gradientUnits="userSpaceOnUse" gradientTransform="matrix(1.21599, 0, 0, 1, -1299.06, -93.6112)" spreadMethod="reflect" x1="3306.2893" y1="633.97693" x2="3306.2947" y2="628.83057"/>
    <linearGradient inkscape:collect="always" xlink:href="#linearGradient52391" id="linearGradient59770" gradientUnits="userSpaceOnUse" gradientTransform="matrix(1.21599, 0, 0, 1, -1299.06, -93.6112)" spreadMethod="reflect" x1="3306.2893" y1="633.97693" x2="3306.2947" y2="628.83057"/>
    <linearGradient inkscape:collect="always" xlink:href="#linearGradient52391" id="linearGradient59772" gradientUnits="userSpaceOnUse" gradientTransform="matrix(1.21599, 0, 0, 1, -1299.06, -93.6112)" spreadMethod="reflect" x1="3306.2893" y1="633.97693" x2="3306.2947" y2="628.83057"/>
  </defs>
  <sodipodi:namedview id="base" pagecolor="#ffffff" bordercolor="#666666" borderopacity="1.0" inkscape:pageopacity="0.0" inkscape:pageshadow="2" inkscape:zoom="0.49497475" inkscape:cx="358.13362" inkscape:cy="827.72761" inkscape:document-units="px" inkscape:current-layer="layer1" inkscape:window-width="906" inkscape:window-height="860" inkscape:window-x="140" inkscape:window-y="34"/>
  <metadata id="metadata41396">
    <rdf:RDF>
      <cc:Work rdf:about="">
        <dc:format>image/svg+xml</dc:format>
        <dc:type rdf:resource="http://purl.org/dc/dcmitype/StillImage"/>
      </cc:Work>
    </rdf:RDF>
  </metadata>
  <g inkscape:label="Layer 1" inkscape:groupmode="layer" id="layer1" transform="translate(-98.1384, -44.4044)">
    <g id="g59642" transform="matrix(0.238576, 0, 0, 0.224667, -402.591, 118.009)">
      <path id="path58767" d="M 2472.0969,-13.484406 L 2475.0462,-49.344513 C 2475.0462,-49.344513 2488.1458,-48.06878 2490.1973,-40.246093 C 2492.2486,-32.423409 2503.3713,7.6349734 2502.2813,17.610734 C 2501.1914,27.586494 2499.6524,59.403662 2500.785,65.292611 C 2501.9176,71.181555 2501.1481,87.090144 2502.4943,96.934296 C 2503.8405,106.77846 2518.1795,115.92075 2512.057,123.1933 C 2505.9345,130.46586 2503.0603,137.56296 2503.37,158.37168 C 2503.6796,179.18041 2511.8961,195.59525 2512.4303,205.48328 C 2512.9644,215.3713 2506.8845,238.50858 2505.8481,249.47314 C 2504.8115,260.43771 2513.0814,277.84135 2513.0814,277.84135 L 2492.1177,296.82423 C 2492.1177,296.82423 2481.5941,177.3984 2479.2222,163.64291 C 2476.8503,149.88741 2470.366,-15.374284 2472.0969,-13.484406 z " style="fill: rgb(143, 102, 0); fill-opacity: 1; fill-rule: evenodd; stroke: rgb(0, 0, 0); stroke-width: 0.721576px; stroke-linecap: butt; stroke-linejoin: miter; stroke-opacity: 1;"/>
      <rect transform="matrix(0.997141, 0.075565, -0.0844805, 0.996425, 0, 0)" ry="8.695673" y="-243.53697" x="2371.0444" height="1307.8292" width="18.382128" id="rect54252" style="opacity: 1; fill: url(#linearGradient59734) rgb(0, 0, 0); fill-opacity: 1; stroke: rgb(0, 0, 0); stroke-width: 1.35719; stroke-miterlimit: 4; stroke-dasharray: none; stroke-opacity: 1;"/>
      <rect transform="matrix(0.995837, 0.0911471, -0.108768, 0.994067, 0, 0)" ry="8.2350225" y="-281.03906" x="2362.8311" height="1238.5475" width="18.37669" id="rect55135" style="opacity: 1; fill: url(#linearGradient59736) rgb(0, 0, 0); fill-opacity: 1; stroke: rgb(0, 0, 0); stroke-width: 1.32056; stroke-miterlimit: 4; stroke-dasharray: none; stroke-opacity: 1;"/>
      <path id="rect47966" d="M 2645.5742,929.961 C 2599.3394,930.45688 2556.3667,961.54886 2549.118,1000.606 C 2538.5385,1046.4556 2527.4117,1092.2131 2516.8976,1138.0749 C 2513.5262,1152.9764 2509.4481,1168.3767 2513.63,1183.4507 C 2521.0331,1216.6421 2553.0001,1245.2456 2592.1812,1251.7174 C 2629.6239,1258.7831 2671.3861,1246.5875 2694.4426,1220.3087 C 2707.881,1205.8188 2714.2189,1187.493 2717.0988,1169.3633 C 2728.2317,1120.2987 2741.0225,1071.4804 2750.8632,1022.2194 C 2754.7437,983.34871 2723.2986,944.50429 2679.1602,933.82087 C 2668.2888,930.95544 2656.9468,929.71118 2645.5742,929.961 z M 2641.5167,961.69768 C 2681.1356,961.14481 2717.5123,990.02067 2719.321,1023.8087 C 2722.0599,1054.5696 2697.028,1085.2967 2661.7749,1092.8322 C 2657.6519,1093.745 2653.4711,1094.4446 2649.2172,1094.7748 C 2678.9534,1108.289 2696.2402,1139.098 2688.4007,1167.3302 C 2681.6115,1195.3124 2652.2071,1218.1415 2618.445,1219.9051 C 2587.9298,1222.1358 2556.6404,1208.0677 2542.808,1184.6779 C 2527.131,1159.6078 2532.417,1126.0406 2556.7525,1106.2534 C 2569.289,1095.7154 2586.1128,1088.6429 2603.7845,1087.0802 C 2572.6885,1073.1049 2556.1946,1039.9685 2565.6984,1011.0442 C 2574.2906,983.19262 2605.8075,961.84334 2639.7693,961.74813 C 2640.3522,961.75094 2640.9339,961.69676 2641.5167,961.69768 z " style="opacity: 0.825843; fill: url(#radialGradient59738) rgb(0, 0, 0); fill-opacity: 1; stroke: rgb(0, 0, 0); stroke-width: 1.386; stroke-miterlimit: 4; stroke-dasharray: none; stroke-opacity: 1;"/>
      <path transform="matrix(0.250605, 0.0680844, 0, 0.299571, 2217.61, 453.305)" sodipodi:open="true" sodipodi:end="6.280412" sodipodi:start="0" d="M 1892.5514,1972.2477 A 165.881,173.42104 0 1 1 1892.5508,1971.7667" sodipodi:ry="173.42104" sodipodi:rx="165.881" sodipodi:cy="1972.2477" sodipodi:cx="1726.6704" id="path50611" style="opacity: 1; fill: rgb(207, 177, 1); fill-opacity: 1; stroke: rgb(0, 0, 0); stroke-width: 2.77834; stroke-miterlimit: 4; stroke-dasharray: none; stroke-opacity: 1;" sodipodi:type="arc"/>
      <path transform="matrix(0.250605, 0.0680844, 0, 0.299571, 2242.12, 336.434)" sodipodi:open="true" sodipodi:end="6.280412" sodipodi:start="0" d="M 1892.5514,1972.2477 A 165.881,173.42104 0 1 1 1892.5508,1971.7667" sodipodi:ry="173.42104" sodipodi:rx="165.881" sodipodi:cy="1972.2477" sodipodi:cx="1726.6704" id="path48863" style="opacity: 1; fill: rgb(207, 177, 1); fill-opacity: 1; stroke: rgb(0, 0, 0); stroke-width: 2.77834; stroke-miterlimit: 4; stroke-dasharray: none; stroke-opacity: 1;" sodipodi:type="arc"/>
      <path sodipodi:nodetypes="csssccssccssccscsc" id="path42555" d="M 2757.1429,838.07647 C 2757.1429,838.07647 2665.7143,1040.9336 2660,1280.9336 C 2654.2857,1520.9336 2580,1566.6479 2548.5714,1578.0765 C 2517.1428,1589.5051 2425.7143,1566.6479 2365.7143,1498.0765 C 2305.7143,1429.505 2300,1309.505 2308.5714,1189.505 C 2317.1429,1069.505 2397.1429,-101.92353 2397.1429,-101.92353 C 2397.1429,-101.92353 2394.0148,-124.06663 2385.7143,-167.63781 C 2372.8502,-235.16372 2280,-244.78067 2197.1429,-261.92353 C 2114.2857,-279.06639 2117.1429,-296.20925 2117.1429,-296.20925 L 2125.7143,-321.92353 C 2125.7143,-321.92353 2345.7143,-273.3521 2362.8571,-276.20925 C 2380,-279.06639 2430.8386,-250.78901 2445.7143,-210.49496 C 2518.9086,-12.232837 2481.7658,623.79075 2481.7658,623.79075 L 2456.9273,1327.3084 C 2456.9273,1327.3084 2440,1360.9336 2454.2857,1355.2193 C 2468.5714,1349.505 2471.4286,1160.9336 2482.8571,1055.2193 C 2494.2857,949.50504 2505.7143,743.79075 2534.2857,729.50504 C 2562.8571,715.21933 2760,835.21933 2757.1429,838.07647 z " style="fill: rgb(217, 195, 94); fill-opacity: 1; fill-rule: evenodd; stroke: rgb(0, 0, 0); stroke-width: 1px; stroke-linecap: butt; stroke-linejoin: miter; stroke-opacity: 1;"/>
      <path sodipodi:nodetypes="ccscssssz" id="path46171" d="M 2612.4682,789.80256 C 2554.3969,763.25569 2546.8283,816.05853 2527.1364,967.03031 C 2507.4444,1118.0021 2528.1911,1427.0548 2507.4444,1465.8936 C 2463.2473,1548.6328 2401.4445,1528.7395 2401.4445,1528.7395 C 2401.4445,1528.7395 2471.1173,1592.9609 2550.5313,1575.5964 C 2615.5872,1561.3715 2625.5962,1459.3296 2625.5962,1380.5617 C 2625.5962,1301.7938 2664.8158,965.32462 2671.5441,927.64637 C 2679.7491,881.69843 2680.5507,839.38097 2664.9802,822.62252 C 2636.9667,792.4718 2669.9031,816.05852 2612.4682,789.80256 z " style="opacity: 0.825843; fill: rgb(67, 44, 5); fill-opacity: 0.944134; fill-rule: evenodd; stroke: none; stroke-width: 1px; stroke-linecap: butt; stroke-linejoin: miter; stroke-opacity: 1;"/>
      <path transform="matrix(0.957717, 0.399146, -0.0899189, 0.8174, 1250.94, -780.009)" sodipodi:open="true" sodipodi:end="6.280412" sodipodi:start="0" d="M 1788.5714,1058.0764 A 198.57143,128.57143 0 1 1 1788.5707,1057.7198" sodipodi:ry="128.57143" sodipodi:rx="198.57143" sodipodi:cy="1058.0764" sodipodi:cx="1590" id="path41680" style="opacity: 1; fill: rgb(220, 187, 5); fill-opacity: 1; stroke: rgb(0, 7, 0); stroke-width: 1.6; stroke-miterlimit: 4; stroke-dasharray: none; stroke-opacity: 1;" sodipodi:type="arc"/>
      <path sodipodi:nodetypes="csscsssc" id="path45213" d="M 2595.9559,661.91352 C 2595.9559,661.91352 2595.9559,619.70285 2620.5788,619.70285 C 2645.2017,619.70285 2824.597,683.01885 2821.0794,732.26463 C 2817.5619,781.5104 2782.3863,799.09818 2782.3863,799.09818 C 2782.3863,799.09818 2849.2199,806.13329 2828.1145,820.20351 C 2807.0092,834.27374 2733.1405,851.86151 2648.7192,802.61574 C 2564.2979,753.36996 2497.4643,661.91352 2522.0872,658.39596 C 2546.7101,654.87841 2592.4383,665.43107 2595.9559,661.91352 z " style="fill: rgb(91, 68, 0); fill-opacity: 1; fill-rule: evenodd; stroke: none; stroke-width: 1px; stroke-linecap: butt; stroke-linejoin: miter; stroke-opacity: 1;"/>
      <path sodipodi:nodetypes="ccccccccc" id="path46133" d="M 2704.75,712.71875 C 2692.4533,720.18868 2677.4021,723.70276 2667.6169,734.86727 C 2662.4837,741.69791 2656.8841,748.28242 2653.0062,755.96778 C 2648.6845,764.00949 2646.1197,772.91688 2645.2409,781.98816 C 2644.0382,788.7704 2638.6636,790.68763 2639.593,797.63951 C 2644.6822,796.47666 2655.0963,807.20387 2660.1375,805.83616 C 2665.874,803.06498 2645.4322,776.57435 2688.5135,735.67662 C 2691.897,730.70957 2696.681,726.87432 2699.6548,721.59955 C 2701.4934,718.7223 2703.1517,715.73462 2704.75,712.71875 z " style="fill: url(#linearGradient59740) rgb(0, 0, 0); fill-opacity: 1; fill-rule: nonzero; stroke: none; stroke-width: 1px; stroke-linecap: butt; stroke-linejoin: miter; stroke-opacity: 1;"/>
      <path transform="matrix(0.928505, 0.371321, -0.371321, 0.928505, 485.627, -1224.58)" sodipodi:open="true" sodipodi:end="6.280412" sodipodi:start="0" d="M 2807.7469,957.18433 A 22.973967,9.8459864 0 1 1 2807.7468,957.15702" sodipodi:ry="9.8459864" sodipodi:rx="22.973967" sodipodi:cy="957.18433" sodipodi:cx="2784.7729" id="path46156" style="opacity: 1; fill: rgb(255, 254, 255); fill-opacity: 1; stroke: none; stroke-width: 1.6; stroke-miterlimit: 4; stroke-dasharray: none; stroke-opacity: 1;" sodipodi:type="arc"/>
      <path transform="matrix(0.435761, 0.103259, -0.174266, 0.258205, 1554.29, 136.126)" sodipodi:open="true" sodipodi:end="6.280412" sodipodi:start="0" d="M 2807.7469,957.18433 A 22.973967,9.8459864 0 1 1 2807.7468,957.15702" sodipodi:ry="9.8459864" sodipodi:rx="22.973967" sodipodi:cy="957.18433" sodipodi:cx="2784.7729" id="path46158" style="opacity: 1; fill: rgb(255, 254, 255); fill-opacity: 1; stroke: none; stroke-width: 1.6; stroke-miterlimit: 4; stroke-dasharray: none; stroke-opacity: 1;" sodipodi:type="arc"/>
      <path transform="matrix(0.357747, 0.364006, -0.355599, 0.00597673, 2118.24, -266.517)" sodipodi:open="true" sodipodi:end="6.280412" sodipodi:start="0" d="M 2807.7469,957.18433 A 22.973967,9.8459864 0 1 1 2807.7468,957.15702" sodipodi:ry="9.8459864" sodipodi:rx="22.973967" sodipodi:cy="957.18433" sodipodi:cx="2784.7729" id="path46160" style="opacity: 1; fill: rgb(255, 254, 255); fill-opacity: 1; stroke: none; stroke-width: 1.6; stroke-miterlimit: 4; stroke-dasharray: none; stroke-opacity: 1;" sodipodi:type="arc"/>
      <path sodipodi:nodetypes="csccssc" id="path46162" d="M 2523.8438,714.34375 C 2537.4844,734.1596 2526.7274,720.49645 2537.4195,733.5827 C 2555.3592,755.53945 2653.4166,844.39665 2762.593,844.92503 C 2767.8311,845.59601 2783.8344,845.74506 2782.0938,842.71875 C 2758.3043,843.47296 2732.2249,837.31593 2705.6685,831.38994 C 2673.0102,824.10231 2650.1643,818.26607 2576.5655,762.67519 C 2560.1217,750.25473 2526.4668,714.07564 2523.8438,714.34375 z " style="fill: rgb(255, 255, 255); fill-opacity: 0.854749; fill-rule: nonzero; stroke: none; stroke-width: 1px; stroke-linecap: butt; stroke-linejoin: miter; stroke-opacity: 1;"/>
      <path id="path46173" d="M 2591.1352,857.08347 C 2591.1352,857.08347 2574.7253,873.49344 2566.5203,903.0314 C 2558.3153,932.56936 2564.8793,990.00427 2564.8793,990.00427 C 2564.8793,990.00427 2569.8023,937.49235 2574.7253,921.08237 C 2579.6483,904.6724 2600.9812,884.98043 2599.3402,875.13444 C 2597.6992,865.28845 2592.7762,858.72446 2591.1352,857.08347 z " style="fill: rgb(255, 255, 248); fill-opacity: 1; fill-rule: evenodd; stroke: none; stroke-width: 1px; stroke-linecap: butt; stroke-linejoin: miter; stroke-opacity: 1;"/>
      <path id="path46177" d="M 2576.3663,1287.0248 C 2567.4449,1286.6799 2559.0012,1286.4862 2561.5973,1296.8708 C 2563.5436,1304.6559 2582.8803,1297.7163 2584.5713,1296.8708 C 2591.7921,1293.2604 2580.479,1286.2023 2576.3663,1287.0248 z " style="fill: rgb(255, 255, 253); fill-opacity: 1; fill-rule: evenodd; stroke: none; stroke-width: 1px; stroke-linecap: butt; stroke-linejoin: miter; stroke-opacity: 1;"/>
      <path id="path46179" d="M 2576.3663,1313.2808 C 2565.2285,1309.499 2562.7091,1312.805 2564.8793,1321.4858 C 2567.2185,1330.8423 2576.6278,1325.4575 2581.2893,1323.1268 C 2588.1332,1319.7048 2578.8502,1313.7776 2576.3663,1313.2808 z " style="fill: rgb(255, 255, 253); fill-opacity: 1; fill-rule: evenodd; stroke: none; stroke-width: 1px; stroke-linecap: butt; stroke-linejoin: miter; stroke-opacity: 1;"/>
      <path id="path46181" d="M 2568.195,1390.4077 C 2564.6265,1395.2614 2562.4821,1403.8879 2560.9943,1413.3817 C 2559.7492,1421.3266 2557.9083,1423.8408 2557.9083,1433.0737 C 2557.9083,1441.2786 2557.9083,1449.4836 2557.9083,1457.6886 C 2557.9083,1467.3333 2554.1934,1467.5346 2564.0803,1467.5346 C 2568.0236,1467.5346 2570.4345,1459.8085 2571.281,1454.4066 C 2572.2344,1448.323 2572.168,1438.9009 2573.3384,1431.4327 C 2574.7186,1422.6257 2572.3097,1416.3394 2572.3097,1408.4587 C 2572.3097,1405.1405 2568.9857,1396.7145 2568.195,1390.4077 z " style="fill: rgb(255, 255, 253); fill-opacity: 1; fill-rule: evenodd; stroke: none; stroke-width: 1px; stroke-linecap: butt; stroke-linejoin: miter; stroke-opacity: 1;"/>
      <path sodipodi:nodetypes="ccsscssc" id="path46183" d="M 2458.2145,1298.5118 L 2497.5984,1344.4597 C 2497.5984,1344.4597 2491.0344,1373.9977 2481.1884,1403.5357 C 2471.3424,1433.0736 2454.9325,1475.7396 2418.8305,1479.0216 C 2382.7286,1482.3036 2356.4726,1482.3036 2356.4726,1482.3036 C 2356.4726,1482.3036 2389.2926,1449.4836 2405.7025,1439.6376 C 2422.1125,1429.7916 2454.9325,1410.0997 2458.2145,1370.7157 C 2461.4965,1331.3318 2461.4965,1308.3578 2458.2145,1298.5118 z " style="fill: rgb(94, 65, 18); fill-opacity: 0.782123; fill-rule: evenodd; stroke: none; stroke-width: 1px; stroke-linecap: butt; stroke-linejoin: miter; stroke-opacity: 1;"/>
      <path sodipodi:nodetypes="ccscscscc" id="path46187" d="M 2454.9816,1357.5847 L 2405.7541,1396.9717 C 2405.7541,1396.9717 2356.5239,1393.6927 2356.5227,1374.0007 C 2356.5215,1354.3087 2402.4247,622.42099 2402.4247,622.42099 C 2402.4247,622.42099 2458.1682,-122.59455 2415.5004,-221.05341 C 2402.0646,-252.0575 2383.7877,-259.88715 2356.4213,-276.60854 C 2396.2926,-279.3732 2432.9699,-235.79115 2439.8706,-220.07855 C 2534.2367,-5.210076 2461.5306,1118.0002 2461.5306,1118.0002 L 2454.9816,1357.5847 z " style="fill: rgb(104, 80, 20); fill-opacity: 1; fill-rule: evenodd; stroke: none; stroke-width: 1px; stroke-linecap: butt; stroke-linejoin: miter; stroke-opacity: 1;"/>
      <path id="path47068" d="M 2439.5838,506.95868 C 2420.9488,510.76183 2421.9693,548.03536 2424.6448,571.18085 C 2432.4197,804.91911 2416.3247,1039.9422 2394.3797,1271.8029 C 2383.6027,1289.1808 2404.4797,1310.6635 2404.8028,1280.8939 C 2411.5769,1220.2337 2413.9568,1158.6542 2419.1825,1097.6614 C 2432.5294,901.15303 2440.8664,703.71197 2440.9693,506.45908 L 2439.5838,506.95868 L 2439.5838,506.95868 z " style="fill: rgb(255, 248, 255); fill-opacity: 1; fill-rule: nonzero; stroke: none; stroke-width: 1px; stroke-linecap: butt; stroke-linejoin: miter; stroke-opacity: 1;"/>
      <path id="path47956" d="M 2442.9856,-140.07301 C 2424.4993,-136.28126 2426.8593,-104.71933 2430.3652,-85.182791 C 2446.5388,112.69679 2438.904,312.39326 2425.3094,509.58767 C 2415.1642,524.64581 2436.8,542.21794 2436.0526,516.97537 C 2440.6414,465.35319 2440.8058,413.0858 2443.8352,361.22893 C 2450.1083,194.26134 2451.3413,26.655956 2444.3522,-140.53872 L 2442.9856,-140.07301 L 2442.9856,-140.07301 z " style="fill: rgb(255, 248, 255); fill-opacity: 1; fill-rule: nonzero; stroke: none; stroke-width: 1px; stroke-linecap: butt; stroke-linejoin: miter; stroke-opacity: 1;"/>
      <path sodipodi:nodetypes="ccsccsc" id="path47958" d="M 2117.8609,-327.61788 L 2208.3415,-306.0473 C 2208.3415,-306.0473 2185.5649,-313.16294 2183.1168,-290.16921 C 2180.7919,-268.33294 2197.0314,-258.59201 2197.0314,-258.59201 L 2110.3209,-280.16259 C 2110.3209,-280.16259 2097.1258,-296.985 2099.0108,-308.84881 C 2100.8958,-320.71264 2117.8609,-327.61788 2117.8609,-327.61788 z " style="fill: rgb(0, 0, 0); fill-opacity: 1; fill-rule: evenodd; stroke: none; stroke-width: 1px; stroke-linecap: butt; stroke-linejoin: miter; stroke-opacity: 1;"/>
      <g transform="matrix(0.810271, 0, 0, 0.775675, 476.426, -0.774552)" id="g53286">
        <path sodipodi:type="arc" style="fill: rgb(207, 177, 1); fill-opacity: 1; stroke: none; stroke-width: 0.944; stroke-miterlimit: 4; stroke-dasharray: none; stroke-opacity: 1;" id="path51486" sodipodi:cx="3991.6404" sodipodi:cy="591.69904" sodipodi:rx="41.77298" sodipodi:ry="49.895504" d="M 4033.4134,591.69904 A 41.77298,49.895504 0 1 1 4033.4132,591.56066" sodipodi:start="0" sodipodi:end="6.280412" sodipodi:open="true" transform="translate(-1569.87, 9.13793)"/>
        <path style="fill: rgb(255, 255, 255); fill-opacity: 0.960894; fill-rule: nonzero; stroke: none; stroke-width: 1px; stroke-linecap: butt; stroke-linejoin: miter; stroke-opacity: 1;" d="M 2403.3918,571.34192 C 2401.3274,572.41537 2399.1337,574.42777 2398.578,577.59885 C 2398.1941,579.95582 2399.849,581.289 2400.4757,583.15354 C 2403.9352,591.39567 2404.2399,601.33196 2403.7042,610.63093 C 2403.4819,614.55034 2403.9373,628.89208 2403.551,632.78517 C 2402.2807,634.80475 2410.4036,618.69441 2410.518,613.03651 C 2410.5264,609.25919 2411.7256,599.69787 2411.5035,595.9203 C 2411.222,588.49414 2410.2752,580.61201 2406.828,574.68432 C 2406.0675,573.3978 2405.1896,572.24627 2404.217,571.27942 C 2403.9434,571.24737 2403.6532,571.18105 2403.3918,571.34192 z " id="path51488" sodipodi:nodetypes="cccccccccc"/>
        <path style="fill: url(#linearGradient59742) rgb(0, 0, 0); fill-opacity: 1; stroke: none; stroke-width: 0.251439; stroke-miterlimit: 4; stroke-opacity: 1;" d="M 2406.8331,594.07583 C 2406.8331,594.07583 2484.871,594.39669 2484.871,599.09644 C 2484.871,604.0244 2406.8331,604.11705 2406.8331,604.11705 C 2402.8006,604.11705 2399.5543,601.87786 2399.5543,599.09644 C 2399.5543,596.31502 2402.8006,594.07583 2406.8331,594.07583 z " id="rect51507" sodipodi:nodetypes="czcsc"/>
      </g>
      <g transform="matrix(0.857703, 0, 0, 0.775675, 363.451, -72.0669)" id="g53291">
        <path sodipodi:type="arc" style="fill: rgb(207, 177, 1); fill-opacity: 1; stroke: none; stroke-width: 0.944; stroke-miterlimit: 4; stroke-dasharray: none; stroke-opacity: 1;" id="path53293" sodipodi:cx="3991.6404" sodipodi:cy="591.69904" sodipodi:rx="41.77298" sodipodi:ry="49.895504" d="M 4033.4134,591.69904 A 41.77298,49.895504 0 1 1 4033.4132,591.56066" sodipodi:start="0" sodipodi:end="6.280412" sodipodi:open="true" transform="translate(-1569.87, 9.13793)"/>
        <path style="fill: rgb(255, 255, 255); fill-opacity: 0.960894; fill-rule: nonzero; stroke: none; stroke-width: 1px; stroke-linecap: butt; stroke-linejoin: miter; stroke-opacity: 1;" d="M 2403.3918,571.34192 C 2401.3274,572.41537 2399.1337,574.42777 2398.578,577.59885 C 2398.1941,579.95582 2399.849,581.289 2400.4757,583.15354 C 2403.9352,591.39567 2404.2399,601.33196 2403.7042,610.63093 C 2403.4819,614.55034 2403.9373,628.89208 2403.551,632.78517 C 2402.2807,634.80475 2410.4036,618.69441 2410.518,613.03651 C 2410.5264,609.25919 2411.7256,599.69787 2411.5035,595.9203 C 2411.222,588.49414 2410.2752,580.61201 2406.828,574.68432 C 2406.0675,573.3978 2405.1896,572.24627 2404.217,571.27942 C 2403.9434,571.24737 2403.6532,571.18105 2403.3918,571.34192 z " id="path53295" sodipodi:nodetypes="cccccccccc"/>
        <path style="fill: url(#linearGradient59744) rgb(0, 0, 0); fill-opacity: 1; stroke: none; stroke-width: 0.251439; stroke-miterlimit: 4; stroke-opacity: 1;" d="M 2406.8331,594.07583 C 2406.8331,594.07583 2484.871,594.39669 2484.871,599.09644 C 2484.871,604.0244 2406.8331,604.11705 2406.8331,604.11705 C 2402.8006,604.11705 2399.5543,601.87786 2399.5543,599.09644 C 2399.5543,596.31502 2402.8006,594.07583 2406.8331,594.07583 z " id="path53297" sodipodi:nodetypes="czcsc"/>
      </g>
      <path transform="matrix(-1, 0, 0, 1, 6415.97, 139.246)" sodipodi:open="true" sodipodi:end="6.280412" sodipodi:start="0" d="M 4033.4134,591.69904 A 41.77298,49.895504 0 1 1 4033.4132,591.56066" sodipodi:ry="49.895504" sodipodi:rx="41.77298" sodipodi:cy="591.69904" sodipodi:cx="3991.6404" id="path53303" style="fill: rgb(207, 177, 1); fill-opacity: 1; stroke: none; stroke-width: 0.944; stroke-miterlimit: 4; stroke-dasharray: none; stroke-opacity: 1;" sodipodi:type="arc"/>
      <path sodipodi:nodetypes="cccccccccc" id="path53305" d="M 2409.437,701.45012 C 2407.3726,702.52357 2405.1789,704.53597 2404.6232,707.70705 C 2404.2393,710.06402 2405.8942,711.3972 2406.5209,713.26174 C 2409.9804,721.50387 2410.2851,731.44016 2409.7494,740.73913 C 2409.5271,744.65854 2409.9825,759.00028 2409.5962,762.89337 C 2408.3259,764.91295 2416.4488,748.80261 2416.5632,743.14471 C 2416.5716,739.36739 2417.7708,729.80607 2417.5487,726.0285 C 2417.2672,718.60234 2416.3204,710.72021 2412.8732,704.79252 C 2412.1127,703.506 2411.2348,702.35447 2410.2622,701.38762 C 2409.9886,701.35557 2409.6984,701.28925 2409.437,701.45012 z " style="fill: rgb(255, 255, 255); fill-opacity: 0.960894; fill-rule: nonzero; stroke: none; stroke-width: 1px; stroke-linecap: butt; stroke-linejoin: miter; stroke-opacity: 1;"/>
      <path transform="matrix(-1, 0, 0, 1, 6414.74, 267.138)" sodipodi:open="true" sodipodi:end="6.280412" sodipodi:start="0" d="M 4033.4134,591.69904 A 41.77298,49.895504 0 1 1 4033.4132,591.56066" sodipodi:ry="49.895504" sodipodi:rx="41.77298" sodipodi:cy="591.69904" sodipodi:cx="3991.6404" id="path53313" style="fill: rgb(207, 177, 1); fill-opacity: 1; stroke: none; stroke-width: 0.944; stroke-miterlimit: 4; stroke-dasharray: none; stroke-opacity: 1;" sodipodi:type="arc"/>
      <path sodipodi:nodetypes="cccccccccc" id="path53315" d="M 2414.204,829.34192 C 2412.1396,830.41537 2409.9459,832.42777 2409.3902,835.59885 C 2409.0063,837.95582 2410.6612,839.289 2411.2879,841.15354 C 2414.7474,849.39567 2415.0521,859.33196 2414.5164,868.63093 C 2414.2941,872.55034 2414.7495,886.89208 2414.3632,890.78517 C 2413.0929,892.80475 2421.2158,876.69441 2421.3302,871.03651 C 2421.3386,867.25919 2422.5378,857.69787 2422.3157,853.9203 C 2422.0342,846.49414 2421.0874,838.61201 2417.6402,832.68432 C 2416.8797,831.3978 2416.0018,830.24627 2415.0292,829.27942 C 2414.7556,829.24737 2414.4654,829.18105 2414.204,829.34192 z " style="fill: rgb(255, 255, 255); fill-opacity: 0.960894; fill-rule: nonzero; stroke: none; stroke-width: 1px; stroke-linecap: butt; stroke-linejoin: miter; stroke-opacity: 1;"/>
      <g transform="matrix(0.952568, 0, 0, 1.01897, 107.074, 695.373)" id="g53331">
        <path sodipodi:type="arc" style="fill: rgb(207, 177, 1); fill-opacity: 1; stroke: none; stroke-width: 0.944; stroke-miterlimit: 4; stroke-dasharray: none; stroke-opacity: 1;" id="path53333" sodipodi:cx="3991.6404" sodipodi:cy="591.69904" sodipodi:rx="41.77298" sodipodi:ry="49.895504" d="M 4033.4134,591.69904 A 41.77298,49.895504 0 1 1 4033.4132,591.56066" sodipodi:start="0" sodipodi:end="6.280412" sodipodi:open="true" transform="translate(-1569.87, 9.13793)"/>
        <path style="fill: rgb(255, 255, 255); fill-opacity: 0.960894; fill-rule: nonzero; stroke: none; stroke-width: 1px; stroke-linecap: butt; stroke-linejoin: miter; stroke-opacity: 1;" d="M 2403.3918,571.34192 C 2401.3274,572.41537 2399.1337,574.42777 2398.578,577.59885 C 2398.1941,579.95582 2399.849,581.289 2400.4757,583.15354 C 2403.9352,591.39567 2404.2399,601.33196 2403.7042,610.63093 C 2403.4819,614.55034 2403.9373,628.89208 2403.551,632.78517 C 2402.2807,634.80475 2410.4036,618.69441 2410.518,613.03651 C 2410.5264,609.25919 2411.7256,599.69787 2411.5035,595.9203 C 2411.222,588.49414 2410.2752,580.61201 2406.828,574.68432 C 2406.0675,573.3978 2405.1896,572.24627 2404.217,571.27942 C 2403.9434,571.24737 2403.6532,571.18105 2403.3918,571.34192 z " id="path53335" sodipodi:nodetypes="cccccccccc"/>
        <path style="fill: url(#linearGradient59746) rgb(0, 0, 0); fill-opacity: 1; stroke: none; stroke-width: 0.251439; stroke-miterlimit: 4; stroke-opacity: 1;" d="M 2406.8331,594.07583 C 2406.8331,594.07583 2484.871,594.39669 2484.871,599.09644 C 2484.871,604.0244 2406.8331,604.11705 2406.8331,604.11705 C 2402.8006,604.11705 2399.5543,601.87786 2399.5543,599.09644 C 2399.5543,596.31502 2402.8006,594.07583 2406.8331,594.07583 z " id="path53337" sodipodi:nodetypes="czcsc"/>
      </g>
      <g transform="matrix(0.952568, 0, 0, 1.01897, 107.074, 594.61)" id="g53341">
        <path sodipodi:type="arc" style="fill: rgb(207, 177, 1); fill-opacity: 1; stroke: none; stroke-width: 0.944; stroke-miterlimit: 4; stroke-dasharray: none; stroke-opacity: 1;" id="path53343" sodipodi:cx="3991.6404" sodipodi:cy="591.69904" sodipodi:rx="41.77298" sodipodi:ry="49.895504" d="M 4033.4134,591.69904 A 41.77298,49.895504 0 1 1 4033.4132,591.56066" sodipodi:start="0" sodipodi:end="6.280412" sodipodi:open="true" transform="translate(-1569.87, 9.13793)"/>
        <path style="fill: rgb(255, 255, 255); fill-opacity: 0.960894; fill-rule: nonzero; stroke: none; stroke-width: 1px; stroke-linecap: butt; stroke-linejoin: miter; stroke-opacity: 1;" d="M 2403.3918,571.34192 C 2401.3274,572.41537 2399.1337,574.42777 2398.578,577.59885 C 2398.1941,579.95582 2399.849,581.289 2400.4757,583.15354 C 2403.9352,591.39567 2404.2399,601.33196 2403.7042,610.63093 C 2403.4819,614.55034 2403.9373,628.89208 2403.551,632.78517 C 2402.2807,634.80475 2410.4036,618.69441 2410.518,613.03651 C 2410.5264,609.25919 2411.7256,599.69787 2411.5035,595.9203 C 2411.222,588.49414 2410.2752,580.61201 2406.828,574.68432 C 2406.0675,573.3978 2405.1896,572.24627 2404.217,571.27942 C 2403.9434,571.24737 2403.6532,571.18105 2403.3918,571.34192 z " id="path53345" sodipodi:nodetypes="cccccccccc"/>
        <path style="fill: url(#linearGradient59748) rgb(0, 0, 0); fill-opacity: 1; stroke: none; stroke-width: 0.251439; stroke-miterlimit: 4; stroke-opacity: 1;" d="M 2406.8331,594.07583 C 2406.8331,594.07583 2484.871,594.39669 2484.871,599.09644 C 2484.871,604.0244 2406.8331,604.11705 2406.8331,604.11705 C 2402.8006,604.11705 2399.5543,601.87786 2399.5543,599.09644 C 2399.5543,596.31502 2402.8006,594.07583 2406.8331,594.07583 z " id="path53347" sodipodi:nodetypes="czcsc"/>
      </g>
      <g transform="matrix(0.952568, 0, 0, 1.01897, 107.074, 490.647)" id="g53351">
        <path sodipodi:type="arc" style="fill: rgb(207, 177, 1); fill-opacity: 1; stroke: none; stroke-width: 0.944; stroke-miterlimit: 4; stroke-dasharray: none; stroke-opacity: 1;" id="path53353" sodipodi:cx="3991.6404" sodipodi:cy="591.69904" sodipodi:rx="41.77298" sodipodi:ry="49.895504" d="M 4033.4134,591.69904 A 41.77298,49.895504 0 1 1 4033.4132,591.56066" sodipodi:start="0" sodipodi:end="6.280412" sodipodi:open="true" transform="translate(-1569.87, 9.13793)"/>
        <path style="fill: rgb(255, 255, 255); fill-opacity: 0.960894; fill-rule: nonzero; stroke: none; stroke-width: 1px; stroke-linecap: butt; stroke-linejoin: miter; stroke-opacity: 1;" d="M 2403.3918,571.34192 C 2401.3274,572.41537 2399.1337,574.42777 2398.578,577.59885 C 2398.1941,579.95582 2399.849,581.289 2400.4757,583.15354 C 2403.9352,591.39567 2404.2399,601.33196 2403.7042,610.63093 C 2403.4819,614.55034 2403.9373,628.89208 2403.551,632.78517 C 2402.2807,634.80475 2410.4036,618.69441 2410.518,613.03651 C 2410.5264,609.25919 2411.7256,599.69787 2411.5035,595.9203 C 2411.222,588.49414 2410.2752,580.61201 2406.828,574.68432 C 2406.0675,573.3978 2405.1896,572.24627 2404.217,571.27942 C 2403.9434,571.24737 2403.6532,571.18105 2403.3918,571.34192 z " id="path53355" sodipodi:nodetypes="cccccccccc"/>
        <path style="fill: url(#linearGradient59750) rgb(0, 0, 0); fill-opacity: 1; stroke: none; stroke-width: 0.251439; stroke-miterlimit: 4; stroke-opacity: 1;" d="M 2406.8331,594.07583 C 2406.8331,594.07583 2484.871,594.39669 2484.871,599.09644 C 2484.871,604.0244 2406.8331,604.11705 2406.8331,604.11705 C 2402.8006,604.11705 2399.5543,601.87786 2399.5543,599.09644 C 2399.5543,596.31502 2402.8006,594.07583 2406.8331,594.07583 z " id="path53357" sodipodi:nodetypes="czcsc"/>
      </g>
      <g transform="matrix(0.952568, 0, 0, 1.01897, 107.074, 389.884)" id="g53361">
        <path sodipodi:type="arc" style="fill: rgb(207, 177, 1); fill-opacity: 1; stroke: none; stroke-width: 0.944; stroke-miterlimit: 4; stroke-dasharray: none; stroke-opacity: 1;" id="path53363" sodipodi:cx="3991.6404" sodipodi:cy="591.69904" sodipodi:rx="41.77298" sodipodi:ry="49.895504" d="M 4033.4134,591.69904 A 41.77298,49.895504 0 1 1 4033.4132,591.56066" sodipodi:start="0" sodipodi:end="6.280412" sodipodi:open="true" transform="translate(-1569.87, 9.13793)"/>
        <path style="fill: rgb(255, 255, 255); fill-opacity: 0.960894; fill-rule: nonzero; stroke: none; stroke-width: 1px; stroke-linecap: butt; stroke-linejoin: miter; stroke-opacity: 1;" d="M 2403.3918,571.34192 C 2401.3274,572.41537 2399.1337,574.42777 2398.578,577.59885 C 2398.1941,579.95582 2399.849,581.289 2400.4757,583.15354 C 2403.9352,591.39567 2404.2399,601.33196 2403.7042,610.63093 C 2403.4819,614.55034 2403.9373,628.89208 2403.551,632.78517 C 2402.2807,634.80475 2410.4036,618.69441 2410.518,613.03651 C 2410.5264,609.25919 2411.7256,599.69787 2411.5035,595.9203 C 2411.222,588.49414 2410.2752,580.61201 2406.828,574.68432 C 2406.0675,573.3978 2405.1896,572.24627 2404.217,571.27942 C 2403.9434,571.24737 2403.6532,571.18105 2403.3918,571.34192 z " id="path53365" sodipodi:nodetypes="cccccccccc"/>
        <path style="fill: url(#linearGradient59752) rgb(0, 0, 0); fill-opacity: 1; stroke: none; stroke-width: 0.251439; stroke-miterlimit: 4; stroke-opacity: 1;" d="M 2406.8331,594.07583 C 2406.8331,594.07583 2484.871,594.39669 2484.871,599.09644 C 2484.871,604.0244 2406.8331,604.11705 2406.8331,604.11705 C 2402.8006,604.11705 2399.5543,601.87786 2399.5543,599.09644 C 2399.5543,596.31502 2402.8006,594.07583 2406.8331,594.07583 z " id="path53367" sodipodi:nodetypes="czcsc"/>
      </g>
      <path transform="matrix(0.455403, 0, 0, 0.57208, 983.657, 746.919)" sodipodi:open="true" sodipodi:end="6.280412" sodipodi:start="0" d="M 3143.9311,940.43427 A 36.065666,37.309311 0 1 1 3143.931,940.3308" sodipodi:ry="37.309311" sodipodi:rx="36.065666" sodipodi:cy="940.43427" sodipodi:cx="3107.8655" id="path53373" style="opacity: 1; fill: rgb(144, 117, 7); fill-opacity: 0.960894; stroke: rgb(0, 0, 0); stroke-width: 0.944; stroke-miterlimit: 4; stroke-dasharray: none; stroke-opacity: 1;" sodipodi:type="arc"/>
      <path transform="matrix(0.455403, 0, 0, 0.57208, 984.901, 574.054)" sodipodi:open="true" sodipodi:end="6.280412" sodipodi:start="0" d="M 3143.9311,940.43427 A 36.065666,37.309311 0 1 1 3143.931,940.3308" sodipodi:ry="37.309311" sodipodi:rx="36.065666" sodipodi:cy="940.43427" sodipodi:cx="3107.8655" id="path54248" style="opacity: 1; fill: rgb(144, 117, 7); fill-opacity: 0.960894; stroke: rgb(0, 0, 0); stroke-width: 0.944; stroke-miterlimit: 4; stroke-dasharray: none; stroke-opacity: 1;" sodipodi:type="arc"/>
      <path transform="matrix(0.455403, 0, 0, 0.57208, 967.49, 499.435)" sodipodi:open="true" sodipodi:end="6.280412" sodipodi:start="0" d="M 3143.9311,940.43427 A 36.065666,37.309311 0 1 1 3143.931,940.3308" sodipodi:ry="37.309311" sodipodi:rx="36.065666" sodipodi:cy="940.43427" sodipodi:cx="3107.8655" id="path54250" style="opacity: 1; fill: rgb(144, 117, 7); fill-opacity: 0.960894; stroke: rgb(0, 0, 0); stroke-width: 0.944; stroke-miterlimit: 4; stroke-dasharray: none; stroke-opacity: 1;" sodipodi:type="arc"/>
      <path sodipodi:nodetypes="czcsc" id="path53317" d="M 2431.369,852.07583 C 2431.369,852.07583 2281.9067,852.39669 2281.9067,857.09644 C 2281.9067,862.0244 2431.369,862.11705 2431.369,862.11705 C 2439.0922,862.11705 2445.3097,859.87786 2445.3097,857.09644 C 2445.3097,854.31502 2439.0922,852.07583 2431.369,852.07583 z " style="fill: url(#linearGradient59754) rgb(0, 0, 0); fill-opacity: 1; stroke: none; stroke-width: 0.251439; stroke-miterlimit: 4; stroke-opacity: 1;"/>
      <path sodipodi:nodetypes="czcsc" id="path53307" d="M 2435.3451,724.18403 C 2435.3451,724.18403 2315.2929,724.50489 2315.2929,729.20464 C 2315.2929,734.1326 2435.3451,734.22525 2435.3451,734.22525 C 2441.5486,734.22525 2446.5427,731.98606 2446.5427,729.20464 C 2446.5427,726.42322 2441.5486,724.18403 2435.3451,724.18403 z " style="fill: url(#linearGradient59756) rgb(0, 0, 0); fill-opacity: 1; stroke: none; stroke-width: 0.251439; stroke-miterlimit: 4; stroke-opacity: 1;"/>
      <path transform="matrix(0.446494, 0, 0, 0.44967, 1164.55, 117.033)" sodipodi:open="true" sodipodi:end="6.280412" sodipodi:start="0" d="M 2914.2273,185.25699 A 67.860405,67.860405 0 1 1 2914.2271,185.06879" sodipodi:ry="67.860405" sodipodi:rx="67.860405" sodipodi:cy="185.25699" sodipodi:cx="2846.3669" id="path55139" style="opacity: 1; fill: url(#radialGradient59758) rgb(0, 0, 0); fill-opacity: 1; stroke: rgb(0, 0, 0); stroke-width: 0.944; stroke-miterlimit: 4; stroke-dasharray: none; stroke-opacity: 1;" sodipodi:type="arc"/>
      <path transform="matrix(0.2361, -0.378964, 0.38166, 0.237779, 1692.7, 1144.48)" sodipodi:open="true" sodipodi:end="6.280412" sodipodi:start="0" d="M 2914.2273,185.25699 A 67.860405,67.860405 0 1 1 2914.2271,185.06879" sodipodi:ry="67.860405" sodipodi:rx="67.860405" sodipodi:cy="185.25699" sodipodi:cx="2846.3669" id="path56030" style="opacity: 1; fill: url(#radialGradient59760) rgb(0, 0, 0); fill-opacity: 1; stroke: rgb(0, 0, 0); stroke-width: 0.944; stroke-miterlimit: 4; stroke-dasharray: none; stroke-opacity: 1;" sodipodi:type="arc"/>
      <path transform="matrix(0.446494, 0, 0, 0.44967, 1145.7, 60.4822)" sodipodi:open="true" sodipodi:end="6.280412" sodipodi:start="0" d="M 2914.2273,185.25699 A 67.860405,67.860405 0 1 1 2914.2271,185.06879" sodipodi:ry="67.860405" sodipodi:rx="67.860405" sodipodi:cy="185.25699" sodipodi:cx="2846.3669" id="path56034" style="opacity: 1; fill: url(#radialGradient59762) rgb(0, 0, 0); fill-opacity: 1; stroke: rgb(0, 0, 0); stroke-width: 0.944; stroke-miterlimit: 4; stroke-dasharray: none; stroke-opacity: 1;" sodipodi:type="arc"/>
      <path transform="matrix(0.336153, 0, 0, 0.311737, 1486.16, 246.261)" sodipodi:open="true" sodipodi:end="6.280412" sodipodi:start="0" d="M 2914.2273,185.25699 A 67.860405,67.860405 0 1 1 2914.2271,185.06879" sodipodi:ry="67.860405" sodipodi:rx="67.860405" sodipodi:cy="185.25699" sodipodi:cx="2846.3669" id="path56038" style="opacity: 1; fill: url(#radialGradient59764) rgb(0, 0, 0); fill-opacity: 1; stroke: rgb(0, 0, 0); stroke-width: 0.944; stroke-miterlimit: 4; stroke-dasharray: none; stroke-opacity: 1;" sodipodi:type="arc"/>
      <path sodipodi:nodetypes="ccccccccccczzcccccccc" id="path56042" d="M 2234.0197,-297.17206 C 2249.3963,-287.73823 2284.3762,-314.6897 2402.5733,-271.29262 C 2417.0512,-266.75043 2431.4992,-256.53939 2434.2226,-240.71489 C 2441.2833,-212.97952 2426.1609,-183.75296 2404.1913,-167.37114 C 2394.2962,-158.17135 2387.6983,-145.31106 2386.7539,-131.77739 C 2397.5581,-137.55892 2405.6844,-147.19813 2412.6601,-156.99614 C 2418.1135,-160.10249 2424.7125,-156.13693 2429.9395,-154.19452 C 2438.2358,-148.76776 2448.601,-148.92668 2456.7226,-143.18364 C 2463.3362,-139.4971 2471.5497,-133.2858 2479.2761,-136.79266 C 2491.4526,-147.65881 2505.0462,-160.60863 2506.1408,-178.1323 C 2510.025,-196.12405 2512.5513,-218.27918 2498.5715,-232.6647 C 2484.0302,-248.60693 2445.4524,-285.38938 2429.8789,-291.77739 C 2414.3054,-298.1654 2360.4558,-323.17532 2285.8192,-317.04005 C 2212.9294,-311.04837 2234.0197,-297.17206 2234.0197,-297.17206 z M 2459.1913,-234.15239 C 2471.9956,-217.30853 2488.8806,-199.84679 2488.3163,-177.18364 C 2489.4988,-168.59581 2478.8855,-162.52378 2471.8163,-166.99614 C 2462.1644,-171.34082 2453.4947,-179.21609 2442.2851,-178.74614 C 2436.0672,-179.04029 2427.5883,-183.8307 2429.4726,-190.93364 C 2440.789,-204.84066 2450.1477,-220.36891 2457.1601,-236.77739 C 2457.8372,-235.90239 2458.5143,-235.02739 2459.1913,-234.15239 z " style="fill: rgb(94, 97, 107); fill-opacity: 1; fill-rule: nonzero; stroke: none; stroke-width: 1px; stroke-linecap: butt; stroke-linejoin: miter; stroke-opacity: 1;"/>
      <g transform="matrix(0.569261, 0, 0, 0.543087, 916.342, -37.7099)" id="g56947">
        <path sodipodi:type="arc" style="fill: rgb(207, 177, 1); fill-opacity: 1; stroke: none; stroke-width: 0.944; stroke-miterlimit: 4; stroke-dasharray: none; stroke-opacity: 1;" id="path56938" sodipodi:cx="3991.6404" sodipodi:cy="591.69904" sodipodi:rx="41.77298" sodipodi:ry="49.895504" d="M 4033.4134,591.69904 A 41.77298,49.895504 0 1 1 4033.4132,591.56066" sodipodi:start="0" sodipodi:end="6.280412" sodipodi:open="true" transform="translate(-1341.6, -55.0396)"/>
        <path style="fill: url(#linearGradient59766) rgb(0, 0, 0); fill-opacity: 1; stroke: none; stroke-width: 0.251439; stroke-miterlimit: 4; stroke-opacity: 1;" d="M 2647.0013,530.19871 C 2647.0013,530.19871 2767.0535,530.51957 2767.0535,535.21932 C 2767.0535,540.14728 2647.0013,540.23993 2647.0013,540.23993 C 2640.7978,540.23993 2635.8037,538.00074 2635.8037,535.21932 C 2635.8037,532.4379 2640.7978,530.19871 2647.0013,530.19871 z " id="path56941" sodipodi:nodetypes="czcsc"/>
        <path style="fill: rgb(255, 255, 255); fill-opacity: 0.960894; fill-rule: nonzero; stroke: none; stroke-width: 1px; stroke-linecap: butt; stroke-linejoin: miter; stroke-opacity: 1;" d="M 2630.2055,504.46249 C 2632.2699,505.53594 2634.4636,507.54834 2635.0193,510.71942 C 2635.4032,513.07639 2633.7483,514.40957 2633.1216,516.27411 C 2629.6621,524.51624 2629.3574,534.45253 2629.8931,543.7515 C 2630.1154,547.67091 2629.66,562.01265 2630.0463,565.90574 C 2631.3166,567.92532 2623.1937,551.81498 2623.0793,546.15708 C 2623.0709,542.37976 2621.8717,532.81844 2622.0938,529.04087 C 2622.3753,521.61471 2623.3221,513.73258 2626.7693,507.80489 C 2627.5298,506.51837 2628.4077,505.36684 2629.3803,504.39999 C 2629.6539,504.36794 2629.9441,504.30162 2630.2055,504.46249 z " id="path56945" sodipodi:nodetypes="cccccccccc"/>
      </g>
      <g transform="matrix(0.569261, 0, 0, 0.543087, 954.342, -133.71)" id="g56954">
        <path sodipodi:type="arc" style="fill: rgb(207, 177, 1); fill-opacity: 1; stroke: none; stroke-width: 0.944; stroke-miterlimit: 4; stroke-dasharray: none; stroke-opacity: 1;" id="path56956" sodipodi:cx="3991.6404" sodipodi:cy="591.69904" sodipodi:rx="41.77298" sodipodi:ry="49.895504" d="M 4033.4134,591.69904 A 41.77298,49.895504 0 1 1 4033.4132,591.56066" sodipodi:start="0" sodipodi:end="6.280412" sodipodi:open="true" transform="translate(-1341.6, -55.0396)"/>
        <path style="fill: url(#linearGradient59768) rgb(0, 0, 0); fill-opacity: 1; stroke: none; stroke-width: 0.251439; stroke-miterlimit: 4; stroke-opacity: 1;" d="M 2647.0013,530.19871 C 2647.0013,530.19871 2767.0535,530.51957 2767.0535,535.21932 C 2767.0535,540.14728 2647.0013,540.23993 2647.0013,540.23993 C 2640.7978,540.23993 2635.8037,538.00074 2635.8037,535.21932 C 2635.8037,532.4379 2640.7978,530.19871 2647.0013,530.19871 z " id="path56958" sodipodi:nodetypes="czcsc"/>
        <path style="fill: rgb(255, 255, 255); fill-opacity: 0.960894; fill-rule: nonzero; stroke: none; stroke-width: 1px; stroke-linecap: butt; stroke-linejoin: miter; stroke-opacity: 1;" d="M 2630.2055,504.46249 C 2632.2699,505.53594 2634.4636,507.54834 2635.0193,510.71942 C 2635.4032,513.07639 2633.7483,514.40957 2633.1216,516.27411 C 2629.6621,524.51624 2629.3574,534.45253 2629.8931,543.7515 C 2630.1154,547.67091 2629.66,562.01265 2630.0463,565.90574 C 2631.3166,567.92532 2623.1937,551.81498 2623.0793,546.15708 C 2623.0709,542.37976 2621.8717,532.81844 2622.0938,529.04087 C 2622.3753,521.61471 2623.3221,513.73258 2626.7693,507.80489 C 2627.5298,506.51837 2628.4077,505.36684 2629.3803,504.39999 C 2629.6539,504.36794 2629.9441,504.30162 2630.2055,504.46249 z " id="path56960" sodipodi:nodetypes="cccccccccc"/>
      </g>
      <g transform="matrix(0.569261, 0, 0, 0.543087, 952.342, -225.71)" id="g56964">
        <path sodipodi:type="arc" style="fill: rgb(207, 177, 1); fill-opacity: 1; stroke: none; stroke-width: 0.944; stroke-miterlimit: 4; stroke-dasharray: none; stroke-opacity: 1;" id="path56966" sodipodi:cx="3991.6404" sodipodi:cy="591.69904" sodipodi:rx="41.77298" sodipodi:ry="49.895504" d="M 4033.4134,591.69904 A 41.77298,49.895504 0 1 1 4033.4132,591.56066" sodipodi:start="0" sodipodi:end="6.280412" sodipodi:open="true" transform="translate(-1341.6, -55.0396)"/>
        <path style="fill: url(#linearGradient59770) rgb(0, 0, 0); fill-opacity: 1; stroke: none; stroke-width: 0.251439; stroke-miterlimit: 4; stroke-opacity: 1;" d="M 2647.0013,530.19871 C 2647.0013,530.19871 2767.0535,530.51957 2767.0535,535.21932 C 2767.0535,540.14728 2647.0013,540.23993 2647.0013,540.23993 C 2640.7978,540.23993 2635.8037,538.00074 2635.8037,535.21932 C 2635.8037,532.4379 2640.7978,530.19871 2647.0013,530.19871 z " id="path56968" sodipodi:nodetypes="czcsc"/>
        <path style="fill: rgb(255, 255, 255); fill-opacity: 0.960894; fill-rule: nonzero; stroke: none; stroke-width: 1px; stroke-linecap: butt; stroke-linejoin: miter; stroke-opacity: 1;" d="M 2630.2055,504.46249 C 2632.2699,505.53594 2634.4636,507.54834 2635.0193,510.71942 C 2635.4032,513.07639 2633.7483,514.40957 2633.1216,516.27411 C 2629.6621,524.51624 2629.3574,534.45253 2629.8931,543.7515 C 2630.1154,547.67091 2629.66,562.01265 2630.0463,565.90574 C 2631.3166,567.92532 2623.1937,551.81498 2623.0793,546.15708 C 2623.0709,542.37976 2621.8717,532.81844 2622.0938,529.04087 C 2622.3753,521.61471 2623.3221,513.73258 2626.7693,507.80489 C 2627.5298,506.51837 2628.4077,505.36684 2629.3803,504.39999 C 2629.6539,504.36794 2629.9441,504.30162 2630.2055,504.46249 z " id="path56970" sodipodi:nodetypes="cccccccccc"/>
      </g>
      <g transform="matrix(0.569261, 0, 0, 0.543087, 948.808, -307.892)" id="g56974">
        <path sodipodi:type="arc" style="fill: rgb(207, 177, 1); fill-opacity: 1; stroke: none; stroke-width: 0.944; stroke-miterlimit: 4; stroke-dasharray: none; stroke-opacity: 1;" id="path56976" sodipodi:cx="3991.6404" sodipodi:cy="591.69904" sodipodi:rx="41.77298" sodipodi:ry="49.895504" d="M 4033.4134,591.69904 A 41.77298,49.895504 0 1 1 4033.4132,591.56066" sodipodi:start="0" sodipodi:end="6.280412" sodipodi:open="true" transform="translate(-1341.6, -55.0396)"/>
        <path style="fill: url(#linearGradient59772) rgb(0, 0, 0); fill-opacity: 1; stroke: none; stroke-width: 0.251439; stroke-miterlimit: 4; stroke-opacity: 1;" d="M 2647.0013,530.19871 C 2647.0013,530.19871 2767.0535,530.51957 2767.0535,535.21932 C 2767.0535,540.14728 2647.0013,540.23993 2647.0013,540.23993 C 2640.7978,540.23993 2635.8037,538.00074 2635.8037,535.21932 C 2635.8037,532.4379 2640.7978,530.19871 2647.0013,530.19871 z " id="path56978" sodipodi:nodetypes="czcsc"/>
        <path style="fill: rgb(255, 255, 255); fill-opacity: 0.960894; fill-rule: nonzero; stroke: none; stroke-width: 1px; stroke-linecap: butt; stroke-linejoin: miter; stroke-opacity: 1;" d="M 2630.2055,504.46249 C 2632.2699,505.53594 2634.4636,507.54834 2635.0193,510.71942 C 2635.4032,513.07639 2633.7483,514.40957 2633.1216,516.27411 C 2629.6621,524.51624 2629.3574,534.45253 2629.8931,543.7515 C 2630.1154,547.67091 2629.66,562.01265 2630.0463,565.90574 C 2631.3166,567.92532 2623.1937,551.81498 2623.0793,546.15708 C 2623.0709,542.37976 2621.8717,532.81844 2622.0938,529.04087 C 2622.3753,521.61471 2623.3221,513.73258 2626.7693,507.80489 C 2627.5298,506.51837 2628.4077,505.36684 2629.3803,504.39999 C 2629.6539,504.36794 2629.9441,504.30162 2630.2055,504.46249 z " id="path56980" sodipodi:nodetypes="cccccccccc"/>
      </g>
      <g id="g58746">
        <path style="fill: rgb(188, 164, 0); fill-opacity: 1; fill-rule: evenodd; stroke: rgb(170, 164, 135); stroke-width: 1px; stroke-linecap: butt; stroke-linejoin: miter; stroke-opacity: 1;" d="M 2497.64,-35.289338 C 2511.7776,-37.174349 2516.9613,-36.703096 2522.1451,-27.749293 C 2531.3808,-11.796753 2540.0527,7.1234164 2537.2252,26.916035 C 2534.3977,46.708654 2512.72,54.248699 2512.72,54.248699 L 2514.6051,-4.1866516 C 2514.6051,-4.1866516 2514.8895,-11.058095 2503.295,-9.8416846 C 2493.5508,-8.8193963 2491.9849,2.4108884 2491.9849,2.4108884 C 2491.9849,2.4108884 2490.0999,-27.749293 2497.64,-35.289338 z " id="path56986" sodipodi:nodetypes="cssccscc"/>
        <path style="fill: rgb(255, 255, 255); fill-opacity: 1; fill-rule: nonzero; stroke: none; stroke-width: 1px; stroke-linecap: butt; stroke-linejoin: miter; stroke-opacity: 1;" d="M 2521.1798,-2.3888009 C 2519.6768,-2.3809747 2518.0768,-1.5537331 2517.4006,0.14938839 C 2516.4336,2.5559907 2516.6629,5.3278261 2516.7868,7.9130461 C 2516.9006,10.14838 2517.1948,12.407721 2516.9112,14.64068 C 2517.247,16.95517 2516.8767,19.306019 2516.8401,21.633933 C 2516.8354,23.033971 2516.7031,24.563152 2517.3014,25.825648 C 2517.8431,26.763229 2518.8887,26.206647 2519.5142,25.701193 C 2521.0804,24.579406 2522.3504,22.763966 2522.7082,20.574234 C 2523.3741,16.65081 2522.2707,12.720497 2522.304,8.7840658 C 2522.3074,7.4333327 2522.4427,6.067276 2522.8356,4.7955115 C 2522.851,2.8126156 2523.1062,0.71401986 2522.4363,-1.1623663 C 2522.2018,-1.7771053 2521.7465,-2.2810399 2521.1798,-2.3888009 z " id="path58734"/>
        <path style="fill: rgb(255, 255, 255); fill-opacity: 1; fill-rule: nonzero; stroke: none; stroke-width: 1px; stroke-linecap: butt; stroke-linejoin: miter; stroke-opacity: 1;" d="M 2510.6578,-33.491487 C 2509.8346,-33.484945 2508.9583,-32.793436 2508.5879,-31.369758 C 2508.0583,-29.358025 2508.1839,-27.040985 2508.2517,-24.879942 C 2508.3141,-23.011376 2508.4752,-21.122742 2508.3199,-19.256162 C 2508.5038,-17.321428 2508.301,-15.3563 2508.2809,-13.410345 C 2508.2784,-12.240022 2508.2059,-10.961746 2508.5336,-9.9063971 C 2508.8303,-9.1226522 2509.403,-9.5879115 2509.7455,-10.010432 C 2510.6034,-10.948159 2511.2989,-12.465725 2511.4949,-14.296171 C 2511.8596,-17.575849 2511.2553,-20.861286 2511.2735,-24.151838 C 2511.2754,-25.280946 2511.3495,-26.422862 2511.5647,-27.485959 C 2511.5731,-29.143507 2511.7129,-30.89777 2511.346,-32.466283 C 2511.2175,-32.980157 2510.9682,-33.401407 2510.6578,-33.491487 z " id="path58744"/>
      </g>
      <g transform="matrix(0.638991, 0, 0, 0.711375, 909.115, 83.639)" id="g58751">
        <path style="fill: rgb(188, 164, 0); fill-opacity: 1; fill-rule: evenodd; stroke: rgb(170, 164, 135); stroke-width: 1px; stroke-linecap: butt; stroke-linejoin: miter; stroke-opacity: 1;" d="M 2497.64,-35.289338 C 2511.7776,-37.174349 2516.9613,-36.703096 2522.1451,-27.749293 C 2531.3808,-11.796753 2540.0527,7.1234164 2537.2252,26.916035 C 2534.3977,46.708654 2512.72,54.248699 2512.72,54.248699 L 2514.6051,-4.1866516 C 2514.6051,-4.1866516 2514.8895,-11.058095 2503.295,-9.8416846 C 2493.5508,-8.8193963 2491.9849,2.4108884 2491.9849,2.4108884 C 2491.9849,2.4108884 2490.0999,-27.749293 2497.64,-35.289338 z " id="path58753" sodipodi:nodetypes="cssccscc"/>
        <path style="fill: rgb(255, 255, 255); fill-opacity: 1; fill-rule: nonzero; stroke: none; stroke-width: 1px; stroke-linecap: butt; stroke-linejoin: miter; stroke-opacity: 1;" d="M 2521.1798,-2.3888009 C 2519.6768,-2.3809747 2518.0768,-1.5537331 2517.4006,0.14938839 C 2516.4336,2.5559907 2516.6629,5.3278261 2516.7868,7.9130461 C 2516.9006,10.14838 2517.1948,12.407721 2516.9112,14.64068 C 2517.247,16.95517 2516.8767,19.306019 2516.8401,21.633933 C 2516.8354,23.033971 2516.7031,24.563152 2517.3014,25.825648 C 2517.8431,26.763229 2518.8887,26.206647 2519.5142,25.701193 C 2521.0804,24.579406 2522.3504,22.763966 2522.7082,20.574234 C 2523.3741,16.65081 2522.2707,12.720497 2522.304,8.7840658 C 2522.3074,7.4333327 2522.4427,6.067276 2522.8356,4.7955115 C 2522.851,2.8126156 2523.1062,0.71401986 2522.4363,-1.1623663 C 2522.2018,-1.7771053 2521.7465,-2.2810399 2521.1798,-2.3888009 z " id="path58755"/>
        <path style="fill: rgb(255, 255, 255); fill-opacity: 1; fill-rule: nonzero; stroke: none; stroke-width: 1px; stroke-linecap: butt; stroke-linejoin: miter; stroke-opacity: 1;" d="M 2510.6578,-33.491487 C 2509.8346,-33.484945 2508.9583,-32.793436 2508.5879,-31.369758 C 2508.0583,-29.358025 2508.1839,-27.040985 2508.2517,-24.879942 C 2508.3141,-23.011376 2508.4752,-21.122742 2508.3199,-19.256162 C 2508.5038,-17.321428 2508.301,-15.3563 2508.2809,-13.410345 C 2508.2784,-12.240022 2508.2059,-10.961746 2508.5336,-9.9063971 C 2508.8303,-9.1226522 2509.403,-9.5879115 2509.7455,-10.010432 C 2510.6034,-10.948159 2511.2989,-12.465725 2511.4949,-14.296171 C 2511.8596,-17.575849 2511.2553,-20.861286 2511.2735,-24.151838 C 2511.2754,-25.280946 2511.3495,-26.422862 2511.5647,-27.485959 C 2511.5731,-29.143507 2511.7129,-30.89777 2511.346,-32.466283 C 2511.2175,-32.980157 2510.9682,-33.401407 2510.6578,-33.491487 z " id="path58757"/>
      </g>
      <g transform="translate(8.89158, 179.954)" id="g58759">
        <path style="fill: rgb(188, 164, 0); fill-opacity: 1; fill-rule: evenodd; stroke: rgb(170, 164, 135); stroke-width: 1px; stroke-linecap: butt; stroke-linejoin: miter; stroke-opacity: 1;" d="M 2497.64,-35.289338 C 2511.7776,-37.174349 2516.9613,-36.703096 2522.1451,-27.749293 C 2531.3808,-11.796753 2540.0527,7.1234164 2537.2252,26.916035 C 2534.3977,46.708654 2512.72,54.248699 2512.72,54.248699 L 2514.6051,-4.1866516 C 2514.6051,-4.1866516 2514.8895,-11.058095 2503.295,-9.8416846 C 2493.5508,-8.8193963 2491.9849,2.4108884 2491.9849,2.4108884 C 2491.9849,2.4108884 2490.0999,-27.749293 2497.64,-35.289338 z " id="path58761" sodipodi:nodetypes="cssccscc"/>
        <path style="fill: rgb(255, 255, 255); fill-opacity: 1; fill-rule: nonzero; stroke: none; stroke-width: 1px; stroke-linecap: butt; stroke-linejoin: miter; stroke-opacity: 1;" d="M 2521.1798,-2.3888009 C 2519.6768,-2.3809747 2518.0768,-1.5537331 2517.4006,0.14938839 C 2516.4336,2.5559907 2516.6629,5.3278261 2516.7868,7.9130461 C 2516.9006,10.14838 2517.1948,12.407721 2516.9112,14.64068 C 2517.247,16.95517 2516.8767,19.306019 2516.8401,21.633933 C 2516.8354,23.033971 2516.7031,24.563152 2517.3014,25.825648 C 2517.8431,26.763229 2518.8887,26.206647 2519.5142,25.701193 C 2521.0804,24.579406 2522.3504,22.763966 2522.7082,20.574234 C 2523.3741,16.65081 2522.2707,12.720497 2522.304,8.7840658 C 2522.3074,7.4333327 2522.4427,6.067276 2522.8356,4.7955115 C 2522.851,2.8126156 2523.1062,0.71401986 2522.4363,-1.1623663 C 2522.2018,-1.7771053 2521.7465,-2.2810399 2521.1798,-2.3888009 z " id="path58763"/>
        <path style="fill: rgb(255, 255, 255); fill-opacity: 1; fill-rule: nonzero; stroke: none; stroke-width: 1px; stroke-linecap: butt; stroke-linejoin: miter; stroke-opacity: 1;" d="M 2510.6578,-33.491487 C 2509.8346,-33.484945 2508.9583,-32.793436 2508.5879,-31.369758 C 2508.0583,-29.358025 2508.1839,-27.040985 2508.2517,-24.879942 C 2508.3141,-23.011376 2508.4752,-21.122742 2508.3199,-19.256162 C 2508.5038,-17.321428 2508.301,-15.3563 2508.2809,-13.410345 C 2508.2784,-12.240022 2508.2059,-10.961746 2508.5336,-9.9063971 C 2508.8303,-9.1226522 2509.403,-9.5879115 2509.7455,-10.010432 C 2510.6034,-10.948159 2511.2989,-12.465725 2511.4949,-14.296171 C 2511.8596,-17.575849 2511.2553,-20.861286 2511.2735,-24.151838 C 2511.2754,-25.280946 2511.3495,-26.422862 2511.5647,-27.485959 C 2511.5731,-29.143507 2511.7129,-30.89777 2511.346,-32.466283 C 2511.2175,-32.980157 2510.9682,-33.401407 2510.6578,-33.491487 z " id="path58765"/>
      </g>
    </g>
  </g>
</svg>