<?xml version="1.0" encoding="UTF-8" standalone="no"?>
<!-- Created with Inkscape (http://www.inkscape.org/) -->
<svg xmlns:dc="http://purl.org/dc/elements/1.1/" xmlns:cc="http://web.resource.org/cc/" xmlns:rdf="http://www.w3.org/1999/02/22-rdf-syntax-ns#" xmlns:svg="http://www.w3.org/2000/svg" xmlns="http://www.w3.org/2000/svg" xmlns:xlink="http://www.w3.org/1999/xlink" xmlns:sodipodi="http://sodipodi.sourceforge.net/DTD/sodipodi-0.dtd" xmlns:inkscape="http://www.inkscape.org/namespaces/inkscape" width="507.23859" height="182.35657" id="svg32408" sodipodi:version="0.32" inkscape:version="0.45.1" sodipodi:docbase="/Users/johnolsen/Desktop" sodipodi:docname="TheresaKnott_Flying_V_guitar.svg" inkscape:output_extension="org.inkscape.output.svg.inkscape" version="1.0">
  <defs id="defs32410">
    <linearGradient id="linearGradient36005">
      <stop style="stop-color: rgb(243, 247, 248); stop-opacity: 1;" offset="0" id="stop36007"/>
      <stop style="stop-color: rgb(0, 0, 0); stop-opacity: 1;" offset="1" id="stop36009"/>
    </linearGradient>
    <linearGradient id="linearGradient35121">
      <stop style="stop-color: rgb(182, 0, 0); stop-opacity: 1;" offset="0" id="stop35123"/>
      <stop style="stop-color: rgb(253, 131, 0); stop-opacity: 1;" offset="1" id="stop35125"/>
    </linearGradient>
    <linearGradient id="linearGradient35105">
      <stop style="stop-color: rgb(218, 220, 215); stop-opacity: 1;" offset="0" id="stop35107"/>
      <stop style="stop-color: rgb(255, 255, 255); stop-opacity: 1;" offset="1" id="stop35109"/>
    </linearGradient>
    <linearGradient inkscape:collect="always" xlink:href="#linearGradient35105" id="linearGradient35111" x1="131.82999" y1="527.58795" x2="355.06354" y2="527.58795" gradientUnits="userSpaceOnUse" gradientTransform="matrix(0.726012, 0, 0, 0.695071, -20.8807, -207.433)"/>
    <linearGradient inkscape:collect="always" xlink:href="#linearGradient35121" id="linearGradient35127" x1="60.39645" y1="520.96814" x2="427.74591" y2="520.96814" gradientUnits="userSpaceOnUse" gradientTransform="matrix(0.726012, 0, 0, 0.695071, -20.8807, -207.433)"/>
    <linearGradient inkscape:collect="always" xlink:href="#linearGradient36005" id="linearGradient36011" x1="215.38579" y1="493.50888" x2="226.33798" y2="491.21222" gradientUnits="userSpaceOnUse" spreadMethod="reflect" gradientTransform="matrix(0.726012, 0, 0, 0.695071, -20.8807, -207.433)"/>
    <linearGradient inkscape:collect="always" xlink:href="#linearGradient35121" id="linearGradient36894" x1="666.28571" y1="462.14789" x2="736.57141" y2="412.18359" gradientUnits="userSpaceOnUse" gradientTransform="matrix(0.726012, 0, 0, 0.695071, -20.8807, -207.433)"/>
  </defs>
  <sodipodi:namedview id="base" pagecolor="#ffffff" bordercolor="#666666" borderopacity="1.0" inkscape:pageopacity="0.0" inkscape:pageshadow="2" inkscape:zoom="1.8669715" inkscape:cx="253.61929" inkscape:cy="91.178284" inkscape:document-units="px" inkscape:current-layer="layer3" inkscape:window-width="1015" inkscape:window-height="673" inkscape:window-x="3" inkscape:window-y="46"/>
  <metadata id="metadata32413">
    <rdf:RDF>
      <cc:Work rdf:about="">
        <dc:format>image/svg+xml</dc:format>
        <dc:type rdf:resource="http://purl.org/dc/dcmitype/StillImage"/>
      </cc:Work>
    </rdf:RDF>
  </metadata>
  <g inkscape:groupmode="layer" id="layer3" inkscape:label="colour" transform="translate(-22.9679, -63.4858)">
    <path style="fill: url(#linearGradient35127) rgb(0, 0, 0); fill-opacity: 1; fill-rule: evenodd; stroke: none; stroke-width: 1px; stroke-linecap: butt; stroke-linejoin: miter; stroke-opacity: 1;" d="M 43.239072,244.11025 C 43.239072,244.11025 36.932605,236.93991 36.932605,233.48222 C 36.932605,230.02454 108.23406,153.19697 108.23406,153.19697 C 108.23406,153.19697 114.55436,147.14601 114.55436,142.82391 C 114.55436,131.48051 87.467359,116.89127 73.020953,109.9759 C 58.574549,103.06053 26.973048,81.449996 25.167253,77.127886 C 23.361451,72.805776 20.822265,70.861696 26.239665,66.539586 C 31.657065,62.217476 45.03105,65.890416 82.049959,72.805776 C 119.06887,79.721146 235.11149,95.762646 241.8633,97.009576 C 285.58613,108.02838 282.29943,90.907986 289.31193,113.32767 C 293.31788,126.13511 262.53946,130.58363 246.3778,147.14601 C 235.7433,153.37558 88.370259,227.53719 83.855749,230.13045 C 79.341249,232.72371 53.662119,247.74346 43.239072,244.11025 z " id="path32470" sodipodi:nodetypes="cscssssscscsc"/>
    <path style="fill: rgb(58, 60, 51); fill-opacity: 1; fill-rule: evenodd; stroke: rgb(0, 0, 0); stroke-width: 0.710373px; stroke-linecap: butt; stroke-linejoin: miter; stroke-opacity: 1;" d="M 133.86311,118.9057 L 444.08406,85.203536 L 446.28421,101.35249 L 138.26341,151.90572 L 133.86311,118.9057 z " id="path33353" sodipodi:nodetypes="ccccc"/>
    <path style="fill: url(#linearGradient35111) rgb(0, 0, 0); fill-opacity: 1; fill-rule: evenodd; stroke: rgb(0, 0, 0); stroke-width: 0.710373px; stroke-linecap: butt; stroke-linejoin: miter; stroke-opacity: 1;" d="M 115.51884,93.619566 L 146.32897,116.10079 L 150.73042,154.00391 L 102.33718,164.53859 L 75.202481,224.92292 L 236.53596,144.18602 L 227.73306,98.550236 L 115.51884,93.619566 z M 223.33161,107.67305 L 227.73306,135.75828 L 212.328,139.27708 L 206.47452,110.47506 L 223.33161,107.67305 z M 177.1391,113.99386 L 180.79185,113.99386 L 185.942,143.49095 L 177.86511,144.8811 L 168.33621,144.8811 L 164.66077,132.23948 L 164.66077,116.10079 L 177.1391,113.99386 z " id="path34230"/>
    <path style="fill: url(#linearGradient36011) rgb(0, 0, 0); fill-opacity: 1; fill-rule: evenodd; stroke: rgb(0, 0, 0); stroke-width: 0.710373px; stroke-linecap: butt; stroke-linejoin: miter; stroke-opacity: 1;" d="M 136.13291,121.48967 L 138.91191,118.29699 L 137.52241,114.83825 L 135.85501,112.7098 L 133.07601,113.50797 L 131.6865,120.95755 L 135.57711,155.27889 L 138.07821,158.47157 L 140.85721,158.47157 L 143.08041,157.14129 L 142.52461,151.82015 L 140.85721,146.49901 L 139.18981,147.03113 L 136.13291,121.48967 z " id="path35130"/>
    <path style="fill: url(#linearGradient36894) rgb(0, 0, 0); fill-opacity: 1; fill-rule: evenodd; stroke: rgb(0, 0, 0); stroke-width: 0.710373px; stroke-linecap: butt; stroke-linejoin: miter; stroke-opacity: 1;" d="M 442.72984,84.152726 L 457.50937,79.436166 L 459.84299,70.996016 L 465.54736,70.003056 L 527.77696,83.656236 L 529.85128,90.358716 L 526.99909,95.075276 L 470.21458,113.44503 L 465.02878,112.20382 L 458.54653,105.25311 L 450.24925,102.026 L 444.80416,100.28832 L 442.72984,84.152726 z " id="path36013"/>
    <path style="fill: rgb(255, 255, 255); fill-opacity: 1; fill-rule: evenodd; stroke: rgb(0, 0, 0); stroke-width: 0.710373px; stroke-linecap: butt; stroke-linejoin: miter; stroke-opacity: 1;" d="M 444.28559,86.138636 L 458.54653,81.422086 L 474.62251,83.159766 L 487.06843,89.117526 L 485.51269,94.082316 L 471.51104,100.78479 L 461.9173,102.026 L 449.21209,100.04007 L 446.3599,100.53656 L 444.28559,86.138636 z " id="path36896"/>
    <path style="opacity: 0.808989; fill: rgb(255, 255, 255); fill-opacity: 1; fill-rule: nonzero; stroke: none; stroke-width: 1px; stroke-linecap: butt; stroke-linejoin: miter; stroke-opacity: 1;" id="path37775" d="M 260.87012,132.6428 C 254.6611,137.73089 250.03473,141.52929 249.18073,142.35939 C 248.52312,143.21907 233.24161,151.5733 232.18049,152.34369 C 231.16733,153.08166 230.17204,153.83345 229.15988,154.5718 C 226.91461,156.30511 111.5912,213.37716 104.31635,218.46904 C 101.78668,220.69695 56.622803,241.74372 51.230082,242.91818 C 40.081782,243.81573 36.935635,236.9625 39.8962,232.49297 C 41.776721,230.12611 42.2351,227.28213 51.559737,217.92329 L 57.14477,213.71202 C 56.258658,215.1904 46.967728,226.5928 45.201937,228.97181 C 44.412777,229.91477 42.863154,232.72078 42.435168,233.8837 C 42.380954,234.97865 42.350968,241.22582 54.697942,240.40004 C 57.447255,239.77799 67.590848,235.30218 60.827342,238.93464 C 60.301942,239.21682 62.75584,237.55285 62.291302,237.92007 C 64.622287,236.47741 83.327089,227.50829 85.065469,226.61491 C 95.125489,221.44489 222.95474,155.72681 224.36586,155.10031 C 221.81129,156.55312 230.21525,152.43235 231.30861,151.68171 C 232.45941,150.79927 239.95563,147.79098 249.08815,140.08913 C 251.96128,137.66608 260.87012,132.6428 260.87012,132.6428 z " sodipodi:nodetypes="ccscccccccccscsccsc"/>
    <g id="g40463" transform="matrix(0.72577, -0.0179268, 0.0187248, 0.69484, -29.3674, -198.205)">
      <g transform="matrix(0.999998, -0.00182791, 0.00182791, 0.999998, -0.837916, 0.78917)" id="g40455">
        <path style="opacity: 0.696629; fill: none; fill-opacity: 0.75; fill-rule: evenodd; stroke: rgb(255, 255, 255); stroke-width: 1px; stroke-linecap: butt; stroke-linejoin: miter; stroke-opacity: 1;" d="M 213.14219,473.54477 L 645.48748,424.0473" id="path39523"/>
        <g id="g40408">
          <path id="path40398" d="M 217.14219,477.54477 L 649.48748,428.0473" style="opacity: 0.696629; fill: none; fill-opacity: 0.75; fill-rule: evenodd; stroke: rgb(255, 255, 255); stroke-width: 1px; stroke-linecap: butt; stroke-linejoin: miter; stroke-opacity: 1;"/>
          <path id="path40402" d="M 215.14219,485.54477 L 647.48748,436.0473" style="opacity: 0.696629; fill: none; fill-opacity: 0.75; fill-rule: evenodd; stroke: rgb(255, 255, 255); stroke-width: 1px; stroke-linecap: butt; stroke-linejoin: miter; stroke-opacity: 1;"/>
          <path id="path40404" d="M 213.14219,489.54477 L 645.48748,440.0473" style="opacity: 0.696629; fill: none; fill-opacity: 0.75; fill-rule: evenodd; stroke: rgb(255, 255, 255); stroke-width: 1px; stroke-linecap: butt; stroke-linejoin: miter; stroke-opacity: 1;"/>
          <path id="path40406" d="M 213.14219,493.54477 L 645.48748,444.0473" style="opacity: 0.696629; fill: none; fill-opacity: 0.75; fill-rule: evenodd; stroke: rgb(255, 255, 255); stroke-width: 1px; stroke-linecap: butt; stroke-linejoin: miter; stroke-opacity: 1;"/>
        </g>
      </g>
      <path id="path40400" d="M 215.14219,481.54477 L 647.48748,432.0473" style="opacity: 0.696629; fill: none; fill-opacity: 0.75; fill-rule: evenodd; stroke: rgb(255, 255, 255); stroke-width: 1px; stroke-linecap: butt; stroke-linejoin: miter; stroke-opacity: 1;"/>
    </g>
    <path style="opacity: 0.713483; fill: none; fill-opacity: 0.75; fill-rule: evenodd; stroke: rgb(218, 237, 223); stroke-width: 1.6; stroke-linecap: butt; stroke-linejoin: miter; stroke-miterlimit: 4; stroke-dasharray: none; stroke-opacity: 1;" d="M 408.93246,88.178902 C 411.75998,106.08651 411.75998,106.08651 411.75998,106.08651" id="path40473"/>
    <path style="opacity: 0.713483; fill: none; fill-opacity: 0.75; fill-rule: evenodd; stroke: rgb(218, 237, 223); stroke-width: 1.6; stroke-linecap: butt; stroke-linejoin: miter; stroke-miterlimit: 4; stroke-dasharray: none; stroke-opacity: 1;" d="M 384.93246,90.178902 C 387.75998,108.08651 387.75998,108.08651 387.75998,108.08651" id="path41350"/>
    <g id="g41360">
      <path id="path41354" d="M 246.93246,106.62777 C 249.75998,133.42335 249.75998,133.42335 249.75998,133.42335" style="opacity: 0.713483; fill: none; fill-opacity: 0.75; fill-rule: evenodd; stroke: rgb(218, 237, 223); stroke-width: 1.95719; stroke-linecap: butt; stroke-linejoin: miter; stroke-miterlimit: 4; stroke-dasharray: none; stroke-opacity: 1;"/>
      <path id="path41356" d="M 240.93246,106.88328 C 243.75998,135.11306 243.75998,135.11306 243.75998,135.11306" style="opacity: 0.713483; fill: none; fill-opacity: 0.75; fill-rule: evenodd; stroke: rgb(218, 237, 223); stroke-width: 2.00888; stroke-linecap: butt; stroke-linejoin: miter; stroke-miterlimit: 4; stroke-dasharray: none; stroke-opacity: 1;"/>
      <path id="path41358" d="M 252.93246,105.45934 C 255.75998,132.537 255.75998,132.537 255.75998,132.537" style="opacity: 0.713483; fill: none; fill-opacity: 0.75; fill-rule: evenodd; stroke: rgb(218, 237, 223); stroke-width: 1.96746; stroke-linecap: butt; stroke-linejoin: miter; stroke-miterlimit: 4; stroke-dasharray: none; stroke-opacity: 1;"/>
    </g>
    <g id="g41365" transform="matrix(1.299, 0, 0, 0.943818, -51.7536, 3.65138)">
      <path id="path41367" d="M 246.93246,106.62777 C 249.75998,133.42335 249.75998,133.42335 249.75998,133.42335" style="opacity: 0.713483; fill: none; fill-opacity: 0.75; fill-rule: evenodd; stroke: rgb(218, 237, 223); stroke-width: 1.95719; stroke-linecap: butt; stroke-linejoin: miter; stroke-miterlimit: 4; stroke-dasharray: none; stroke-opacity: 1;"/>
      <path id="path41369" d="M 240.93246,106.88328 C 243.75998,135.11306 243.75998,135.11306 243.75998,135.11306" style="opacity: 0.713483; fill: none; fill-opacity: 0.75; fill-rule: evenodd; stroke: rgb(218, 237, 223); stroke-width: 2.00888; stroke-linecap: butt; stroke-linejoin: miter; stroke-miterlimit: 4; stroke-dasharray: none; stroke-opacity: 1;"/>
      <path id="path41371" d="M 252.93246,105.45934 C 255.75998,132.537 255.75998,132.537 255.75998,132.537" style="opacity: 0.713483; fill: none; fill-opacity: 0.75; fill-rule: evenodd; stroke: rgb(218, 237, 223); stroke-width: 1.96746; stroke-linecap: butt; stroke-linejoin: miter; stroke-miterlimit: 4; stroke-dasharray: none; stroke-opacity: 1;"/>
    </g>
    <path style="opacity: 0.713483; fill: none; fill-opacity: 0.75; fill-rule: evenodd; stroke: rgb(218, 237, 223); stroke-width: 1.65755; stroke-linecap: butt; stroke-linejoin: miter; stroke-miterlimit: 4; stroke-dasharray: none; stroke-opacity: 1;" d="M 290.93246,104.80891 C 293.75998,124.02792 293.75998,124.02792 293.75998,124.02792" id="path41381"/>
    <path style="opacity: 0.713483; fill: none; fill-opacity: 0.75; fill-rule: evenodd; stroke: rgb(218, 237, 223); stroke-width: 1.65755; stroke-linecap: butt; stroke-linejoin: miter; stroke-miterlimit: 4; stroke-dasharray: none; stroke-opacity: 1;" d="M 304.93246,102.80891 C 307.75998,122.02792 307.75998,122.02792 307.75998,122.02792" id="path41383"/>
    <path style="opacity: 0.713483; fill: none; fill-opacity: 0.75; fill-rule: evenodd; stroke: rgb(218, 237, 223); stroke-width: 1.69943; stroke-linecap: butt; stroke-linejoin: miter; stroke-miterlimit: 4; stroke-dasharray: none; stroke-opacity: 1;" d="M 318.93246,100.28142 C 321.75998,120.48399 321.75998,120.48399 321.75998,120.48399" id="path41385"/>
    <path style="opacity: 0.713483; fill: none; fill-opacity: 0.75; fill-rule: evenodd; stroke: rgb(218, 237, 223); stroke-width: 1.6; stroke-linecap: butt; stroke-linejoin: miter; stroke-miterlimit: 4; stroke-dasharray: none; stroke-opacity: 1;" d="M 336.93246,98.178902 C 339.75998,116.08651 339.75998,116.08651 339.75998,116.08651" id="path41387"/>
    <path style="opacity: 0.713483; fill: none; fill-opacity: 0.75; fill-rule: evenodd; stroke: rgb(218, 237, 223); stroke-width: 1.6; stroke-linecap: butt; stroke-linejoin: miter; stroke-miterlimit: 4; stroke-dasharray: none; stroke-opacity: 1;" d="M 358.93246,94.178902 C 361.75998,112.08651 361.75998,112.08651 361.75998,112.08651" id="path41389"/>
  </g>
  <g inkscape:label="Layer 1" inkscape:groupmode="layer" id="layer1" sodipodi:insensitive="true" transform="translate(-22.9679, -63.4858)">
    <path style="fill: rgb(0, 0, 0);" d="M 44.181915,245.13718 C 35.258123,242.70094 32.57979,234.75109 38.202333,227.38853 C 39.516072,225.66823 54.609049,209.45972 71.742272,191.36962 C 109.6428,151.3524 110.09484,150.84929 111.13438,147.52749 C 112.9899,141.59824 111.35852,135.52531 106.95788,131.98023 C 105.68549,130.95521 99.023209,126.78222 92.152829,122.70691 C 85.282439,118.63161 69.576607,109.20244 57.250978,101.75321 C 41.771671,92.397986 30.763264,85.379846 29.428208,84.568476 C 25.055094,81.910756 23.392641,79.887726 23.452606,77.296816 C 23.48413,75.934756 23.099731,61.931816 24.131223,71.225376 C 25.160127,80.495616 36.455111,86.173126 80.750239,112.52072 C 110.02288,129.93266 110.60777,130.33244 112.78425,134.41688 C 114.74414,138.09486 115.3152,143.80756 114.12857,147.86513 C 112.98855,151.76337 110.32616,155.05916 98.286569,167.47608 C 86.087999,180.05697 43.993217,224.86581 40.930726,228.52995 C 39.480085,230.26557 38.371704,232.49878 38.139967,234.15288 C 37.808285,236.52037 38.072887,237.24274 40.069039,239.41935 C 41.621564,241.11222 43.259785,242.09317 45.049605,242.40167 C 46.516502,242.6545 48.13544,243.1799 48.647244,243.56922 C 50.625224,245.07384 49.574914,245.5639 112.69476,213.6851 C 131.26252,204.30743 155.60207,192.0148 166.78266,186.36815 C 177.96324,180.7215 197.23886,171.01728 209.61736,164.80321 C 221.99587,158.58914 236.14454,151.48366 241.05886,149.01325 C 248.14164,145.45276 250.34774,143.98509 251.70037,141.93369 C 254.23689,138.08683 259.72065,133.78076 264.06472,132.22471 C 266.17678,131.46816 269.65524,130.02106 271.79464,129.00892 C 275.27065,127.36443 281.86452,125.41836 285.84862,124.86113 C 286.64724,124.74943 291.87452,123.97581 297.46481,123.14198 C 303.05511,122.30814 319.02737,119.95725 321.42321,119.60141 C 323.81905,119.24557 349.91114,115.24379 351.39529,115.08772 C 352.87944,114.93166 366.28043,113.05651 368.39656,112.66862 C 370.51268,112.28073 388.88787,109.55902 391.48337,109.19749 C 398.74666,108.18578 431.27556,103.33904 436.64677,102.52988 C 446.54951,101.03806 445.81797,101.52678 445.07176,96.901526 C 444.716,94.696396 444.28927,92.266636 444.12348,91.502056 C 443.9577,90.737476 443.62402,89.180616 443.38199,88.042356 C 443.13995,86.904106 442.84913,85.883956 442.73571,85.775366 C 442.62229,85.666786 439.94683,85.947426 436.79025,86.399016 C 433.63368,86.850606 430.31593,87.245196 429.41749,87.275856 C 428.51905,87.306536 414.988,89.287236 413.98974,89.422556 C 412.99147,89.557876 387.85675,92.637426 385.67527,92.856676 C 384.44358,92.980466 367.50678,95.064556 365.32349,95.400566 C 363.1402,95.736576 302.08388,101.44586 301.16088,102.65432 C 300.22009,103.88611 281.13103,104.14132 280.33355,104.08011 C 261.10449,102.62142 237.44826,97.715046 213.54044,94.001566 C 199.61372,91.838396 121.37079,80.018476 65.140979,71.001256 C 48.370102,68.311826 34.221831,65.962716 33.700378,65.781026 C 31.425882,64.988536 25.261778,69.188446 23.915624,72.447876 C 23.692488,72.988156 23.48413,72.155396 23.452606,70.597296 C 23.393311,67.666626 24.726059,65.870266 28.248142,64.133586 C 30.894264,62.828836 33.938413,63.168156 64.985873,68.228626 C 86.919329,71.803596 213.15952,92.006186 240.85987,96.374266 C 242.07099,96.565246 249.08878,96.891306 251.21313,98.419486 C 253.33747,99.947656 291.05239,100.80752 296.3758,100.13885 C 299.3706,99.762666 303.12771,99.307616 304.72493,99.127626 C 309.52702,98.586456 318.03252,97.544646 326.76354,96.428176 C 331.29795,95.848346 343.95816,94.389246 345.49372,94.263696 C 347.02928,94.138156 404.82384,87.151336 411.8117,86.359726 C 418.79957,85.568116 435.71481,83.359616 438.75296,83.104176 L 444.27687,82.639736 L 445.02023,84.681266 C 445.42908,85.804106 446.36393,90.097866 447.09769,94.222956 C 448.71096,103.29261 448.87535,103.07221 439.59613,104.28004 C 433.25766,105.10509 415.90788,107.68649 403.46256,109.6562 C 399.8688,110.22498 391.53782,111.47431 384.94926,112.4325 C 366.75165,115.07902 350.95312,117.42774 346.10762,118.20698 C 343.71178,118.59228 320.18899,122.06243 317.79315,122.43287 C 315.39731,122.80331 308.04644,123.89903 301.45788,124.86782 C 284.73451,127.32684 279.8149,128.44007 274.11356,131.05542 C 271.38379,132.30763 267.84353,133.74005 266.2463,134.23858 C 261.85575,135.60895 257.47809,138.77603 254.32342,142.86437 C 251.56952,146.4333 250.62816,146.97405 221.8402,161.52371 C 181.19436,182.06644 77.271993,234.16331 62.236931,241.53374 C 53.338739,245.89578 49.654184,246.63114 44.181915,245.13718 z M 75.442159,223.16089 C 75.179699,222.20001 78.702209,214.08174 85.922439,199.00716 C 101.36122,166.77369 102.61829,164.2765 104.01467,163.06665 C 104.81732,162.37122 110.16095,161.2432 118.962,159.91132 C 135.48146,157.4114 136.42858,157.22208 135.44197,156.61725 C 134.63551,156.12286 134.56747,155.63453 132.71271,137.02924 C 130.41446,113.97545 130.42155,114.45472 132.36,113.15483 C 133.30171,112.52334 134.65291,112.00667 135.36268,112.00667 C 137.25655,112.00667 139.75699,114.67553 139.32948,116.24067 C 139.1304,116.96952 139.79144,117.59815 139.59366,117.93634 C 136.77302,122.75947 137.07213,121.18071 138.05601,130.90775 C 139.80281,148.17721 139.58322,147.22697 140.71875,145.74022 C 141.7069,144.44645 141.73524,144.45066 141.73524,145.8913 C 141.73524,146.70639 142.09335,147.58516 142.53104,147.84414 C 142.96872,148.10312 143.18655,149.23009 143.01509,150.34851 C 142.84364,151.46694 142.97558,152.5431 143.30832,152.73998 C 143.64105,152.93685 143.91328,153.73894 143.91328,154.5224 C 143.91328,155.72473 144.22463,155.87499 145.90981,155.48594 C 148.61526,154.86135 149.81007,153.17284 149.3552,150.6169 C 148.75742,147.25801 146.70789,130.65745 146.5835,128.16708 C 146.52145,126.92464 146.25255,125.9081 145.98596,125.9081 C 145.71937,125.9081 145.67084,125.2872 145.87812,124.52834 C 146.54981,122.06922 145.3653,120.05442 145.3653,119.65413 C 145.3653,118.47078 139.45473,112.68502 137.05382,111.51816 C 135.83519,110.92589 132.71455,108.97499 130.11905,107.18281 C 127.52356,105.39064 122.70465,102.09557 119.41038,99.860436 C 114.41425,96.470626 113.42078,95.482676 113.42078,93.904146 C 113.42078,91.400786 114.18726,91.271726 125.03697,91.948086 C 130.0283,92.259246 143.42322,92.989696 154.80346,93.571316 C 220.77456,96.942926 229.5542,97.588396 230.76084,99.155566 L 232.53506,108.33 C 232.53506,108.33 232.81891,110.25445 233.07788,112.37816 C 233.25576,113.83688 234.23946,122.45325 235.17129,128.09618 C 235.69854,131.28906 236.33397,136.44509 236.58337,139.55402 L 237.03683,145.20662 L 221.65083,152.76038 C 213.18854,156.91494 191.50065,167.76932 173.45553,176.88121 C 116.19141,205.79676 78.167391,224.60825 76.983969,224.60825 C 76.353413,224.60825 75.6596,223.95694 75.442159,223.16089 z M 82.347569,219.75129 C 88.144709,216.62252 118.35594,201.67089 118.88078,201.67089 C 119.13255,201.67089 121.51913,200.46256 124.18429,198.98571 C 126.84945,197.50886 136.0542,192.84726 144.63929,188.62659 C 169.84114,176.23668 193.96156,164.30403 199.8162,161.32993 C 202.811,159.80861 212.04852,155.20431 220.34402,151.09816 C 233.46165,144.60512 235.37514,143.4513 235.03065,142.24228 C 234.32578,139.76844 232.59065,130.56368 231.82058,125.21303 C 231.08252,120.08478 230.90857,118.57967 229.93273,108.87885 C 229.66354,106.20282 229.35264,103.14063 229.24182,102.07398 C 229.13102,101.00732 228.91735,100.03978 228.76702,99.923886 C 228.61668,99.807986 221.30616,99.333186 212.52141,98.868786 C 171.85033,96.718706 158.64965,95.987156 135.20114,94.583886 C 116.97975,93.493426 116.32938,93.467066 115.97674,93.804676 C 115.53781,94.224896 117.33469,95.528066 127.215,101.95518 C 139.28679,109.80784 145.18038,114.48565 146.70471,117.42439 C 147.58275,119.11717 150.87501,143.94183 151.23851,146.01906 C 153.16545,157.03074 152.20187,157.80336 133.38611,160.33362 C 116.75907,162.56955 106.49465,164.33143 105.67861,165.08959 C 105.21384,165.5214 103.21761,169.31531 101.24256,173.52049 C 99.267499,177.72568 96.493629,183.51215 95.078399,186.37932 C 93.663169,189.24649 90.154949,196.59687 87.282359,202.7135 C 84.409759,208.83013 81.626879,214.49034 81.098189,215.29176 C 79.906309,217.09844 77.816487,221.82796 78.210036,221.82796 C 78.369411,221.82796 80.231299,220.89346 82.347569,219.75129 z M 105.07164,200.43263 C 102.70483,199.94122 101.76147,198.81636 102.09625,196.8848 C 102.26947,195.8854 102.43806,194.87222 102.4709,194.63329 C 102.58342,193.8145 107.00475,193.34162 108.30737,194.00905 C 111.2611,195.52247 108.43586,201.13112 105.07164,200.43263 z M 106.16066,196.41683 C 106.16066,196.24825 105.83395,196.11032 105.43464,196.11032 C 105.03534,196.11032 104.70863,196.44156 104.70863,196.84641 C 104.70863,197.25126 105.03534,197.38919 105.43464,197.15292 C 105.83395,196.91666 106.16066,196.58541 106.16066,196.41683 z M 118.55555,191.49862 C 115.20359,187.41889 118.08486,181.22068 123.73277,180.36136 C 126.0556,180.00794 126.72271,180.24049 128.63335,182.06971 C 131.31187,184.63408 131.8071,189.04889 129.48154,189.63112 C 128.7316,189.81888 127.75849,190.72794 127.31907,191.65126 C 126.64861,193.06005 126.00069,193.33003 123.2902,193.33003 C 120.66559,193.33003 119.77827,192.9868 118.55555,191.49862 z M 126.18633,189.49768 C 128.62856,187.29252 128.81079,186.88672 128.06374,185.31701 C 127.6087,184.36086 126.44068,183.23146 125.46813,182.80722 C 123.99858,182.16618 123.32223,182.29332 121.46437,183.55986 C 118.40229,185.64734 118.2819,189.31843 121.22541,190.84726 C 122.3235,191.41759 123.28035,191.89675 123.35175,191.91206 C 123.42315,191.92736 124.6987,190.84089 126.18633,189.49768 z M 121.08594,190.01077 C 120.3689,189.32429 120.65516,188.36726 121.43884,188.83096 C 121.8557,189.07762 123.02308,188.76108 124.03301,188.12755 C 125.80086,187.01858 125.84108,187.02606 125.11309,188.32835 C 124.35386,189.68654 121.84295,190.73552 121.08594,190.01077 z M 119.95488,186.76733 C 119.95488,185.59992 123.37464,183.166 124.07407,183.83562 C 124.62831,184.36624 123.05286,186.23104 121.28511,187.13679 C 120.26809,187.65789 119.95488,187.57091 119.95488,186.76733 z M 137.2338,182.17664 C 135.32316,180.34743 135.08025,179.70875 135.4494,177.48491 C 136.37901,171.88471 143.35721,169.10204 147.21333,172.79383 C 149.57219,175.05216 149.78328,180.05655 147.54334,180.61735 C 146.74473,180.81729 146.09132,181.23484 146.09132,181.54523 C 146.09132,182.8067 143.67598,184.2941 141.62754,184.2941 C 140.1637,184.2941 138.71755,183.59717 137.2338,182.17664 z M 144.59914,179.94991 C 147.1338,177.36079 147.24158,176.84246 145.68714,174.71776 C 144.23255,172.72954 141.24958,172.71447 139.05949,174.68426 C 136.88229,176.64246 136.85072,179.69048 138.99274,181.12687 C 141.29167,182.66848 142.10486,182.49776 144.59914,179.94991 z M 139.11795,180.00555 C 138.76705,179.46197 138.98584,179.33669 139.77786,179.62766 C 140.42954,179.86707 141.15583,179.76384 141.39183,179.39825 C 141.62784,179.03265 142.16837,178.73353 142.593,178.73353 C 143.07985,178.73353 143.03119,179.11868 142.46126,179.77614 C 141.38022,181.0232 139.84298,181.12868 139.11795,180.00555 z M 138.10518,177.45112 C 138.10518,176.56639 140.62473,174.5631 141.73746,174.5631 C 142.36179,174.5631 142.09898,175.19024 141.00923,176.30078 C 139.28434,178.05859 138.10518,178.52568 138.10518,177.45112 z M 122.85893,175.05381 C 120.00327,173.67096 118.88016,170.77252 119.91662,167.46054 C 120.62714,165.19015 121.33209,164.47816 123.97967,163.35692 C 126.93439,162.1056 127.35168,162.08378 129.35554,163.07586 C 131.93831,164.35454 133.0231,166.07719 133.0231,168.89999 C 133.0231,171.55813 132.36879,173.17296 131.29174,173.17296 C 130.82425,173.17296 129.88229,173.79852 129.19849,174.5631 C 127.77811,176.15128 125.49085,176.32833 122.85893,175.05381 z M 129.21154,171.11748 C 131.03866,169.46876 131.17731,168.81042 130.10241,166.88755 C 128.9795,164.8788 126.75367,163.9525 125.09358,164.80309 C 120.88459,166.95968 120.01292,171.03917 123.39827,172.73733 C 125.53699,173.81016 126.53599,173.53179 129.21154,171.11748 z M 123.34294,172.0145 C 122.47068,171.17942 122.83594,170.42786 123.92042,170.82627 C 124.52372,171.04792 125.73483,170.43846 126.72622,169.41432 C 127.68559,168.42326 128.67809,167.61239 128.93178,167.61239 C 129.9899,167.61239 129.26466,169.18282 127.472,170.7734 C 125.54277,172.48515 124.2427,172.87592 123.34294,172.0145 z M 122.54604,169.08015 C 122.04553,168.30483 124.56048,165.52717 125.76298,165.52717 C 126.97851,165.52717 126.58072,166.59249 124.75056,168.23857 C 123.68472,169.1972 122.83179,169.5228 122.54604,169.08015 z M 167.1614,145.75727 C 166.78333,144.80523 166.11888,140.65345 165.68486,136.5311 C 165.25084,132.40875 164.61863,127.14048 164.27996,124.82384 C 163.64104,120.45338 163.94623,117.1199 165.11522,115.70047 C 165.48853,115.24718 166.83319,114.66303 168.10335,114.40236 C 169.3735,114.14168 170.73942,113.74164 171.13873,113.51335 C 172.69152,112.62565 182.34742,112.85551 183.16588,113.79966 C 183.60977,114.31173 184.80378,121.15183 185.81923,128.99988 C 187.87346,144.87631 187.84926,145.03252 183.22648,145.73721 C 181.7692,145.95936 180.08683,146.37792 179.48787,146.66735 C 178.88891,146.95677 176.02509,147.25988 173.12383,147.34092 C 168.10705,147.48104 167.81517,147.40352 167.1614,145.75727 z M 175.1318,143.40193 C 173.40841,144.08937 173.39009,144.15327 174.76879,144.66733 C 175.74384,145.03088 176.69779,144.82073 177.67284,144.02759 C 181.39539,140.99952 181.65088,143.35793 183.11793,143.16963 C 185.01373,142.92631 185.08548,142.61822 184.22441,138.41938 C 183.32372,134.02731 183.00833,131.84839 182.94166,129.55722 C 182.90128,128.16958 182.39192,125.60513 182.39192,125.23484 C 182.39192,124.86455 182.30251,123.55163 182.08849,123.2201 C 181.8738,122.88754 180.31873,116.21331 180.78756,115.7433 C 181.45794,115.07124 168.48424,114.87284 166.97892,117.39419 C 166.55182,118.10956 167.05188,124.0029 167.08516,124.64768 C 167.12568,125.43278 167.14566,126.95146 167.14566,127.37716 L 167.6903,128.74895 L 168.23081,133.75794 C 168.52809,136.51288 168.88801,139.95795 169.03062,141.41364 C 169.39843,145.16803 169.88894,145.59207 172.01339,143.99219 C 173.0376,143.22088 176.78848,142.74109 175.1318,143.40193 z M 210.43649,139.28822 C 209.93031,137.61389 208.68162,128.97279 207.7999,121.0426 C 207.39609,117.41085 206.89533,113.65137 206.68709,112.68821 C 206.05807,109.77889 207.73122,108.5153 213.64139,107.43623 C 219.67076,106.33541 225.66937,106.14005 226.24122,107.0259 C 227.36125,108.7609 230.65606,136.97472 229.8309,137.76471 C 228.86237,138.69196 218.60178,140.5046 214.3215,140.5046 C 211.59582,140.5046 210.72147,140.23084 210.43649,139.28822 z M 222.70466,136.87073 C 227.01384,136.08812 227.40383,135.87138 227.39475,134.26421 C 227.37154,130.16246 226.63207,128.22102 226.38535,127.39006 C 225.98358,126.03682 225.10067,120.07547 224.90664,117.40592 C 224.72465,114.90195 223.72274,109.55485 223.72274,109.22599 C 223.72274,108.89472 209.94875,109.32713 210.09612,110.64135 C 210.19256,111.5015 210.75543,120.10425 211.03002,122.78028 C 211.30462,125.4563 211.71176,128.74051 211.93477,130.07853 C 212.41237,132.94392 212.66419,134.83318 212.79176,136.50794 C 212.90552,138.00136 215.87981,138.11022 222.70466,136.87073 z M 141.73524,157.18631 C 142.3342,156.81573 142.49756,156.50772 142.09825,156.50185 C 141.69894,156.49598 141.34713,154.84908 141.31643,152.84208 C 141.28339,150.6814 140.94849,149.25262 140.49536,149.33917 C 140.07447,149.41957 139.21073,148.93591 138.57594,148.26437 C 137.70066,147.33842 137.23086,144.28985 136.63166,135.64799 C 136.19709,129.38051 135.67635,123.99671 135.47447,123.68398 C 134.79379,122.62954 135.99028,120.42202 137.4894,119.9665 C 138.5721,119.6375 138.75972,119.306 138.17826,118.74932 C 137.73877,118.32855 137.37917,117.10849 137.37917,116.03808 C 137.37917,114.45224 137.05956,114.09188 135.65303,114.09188 C 132.69337,114.09188 132.25337,115.36773 132.99626,121.7956 C 133.36814,125.01319 134.21993,133.43225 134.88915,140.5046 C 135.83963,150.54944 136.40072,153.77118 137.45312,155.22675 C 138.71453,156.97138 138.72039,157.11014 137.54525,157.4051 C 136.85495,157.57836 137.27027,157.75162 138.46819,157.79012 C 139.66611,157.8286 141.13628,157.5569 141.73524,157.18631 z M 466.396,114.86589 C 465.93848,114.59517 464.46502,112.89363 463.12165,111.08467 C 460.21936,107.1765 456.77213,104.59741 453.64938,103.99786 C 449.23344,103.15003 445.55377,102.40374 445.79913,100.83688 C 446.11974,98.789536 451.99668,99.091586 456.91788,100.68218 C 461.61041,102.19885 465.38372,101.84003 472.57489,99.193276 C 479.47835,96.652426 481.69518,95.513896 484.47924,93.079416 L 486.90214,90.960756 L 484.50175,89.042216 C 481.64787,86.761226 473.85643,84.000346 466.13468,82.533886 C 460.54649,81.472606 451.32106,84.253826 444.95488,85.574956 C 438.94466,86.822206 454.57841,80.631656 453.55739,81.023696 C 449.57789,82.551716 434.70531,87.756016 452.67664,79.249796 C 455.45376,77.935326 456.61279,75.022476 457.50008,72.735126 C 458.7901,69.409566 458.97671,69.250556 461.82939,69.046036 C 464.09431,68.883646 464.81058,68.541306 464.81058,67.621136 C 464.81058,65.809196 466.28478,64.741806 468.7873,64.741806 C 472.00075,64.741806 474.46643,66.584466 474.04919,68.674126 C 473.66581,70.594166 475.20234,71.692516 478.27175,71.692516 C 479.76549,71.692516 480.10785,71.432226 479.75897,70.561806 C 479.06958,68.841836 480.67666,67.522086 483.46051,67.522086 C 487.29438,67.522086 488.76897,68.581736 488.76897,71.336766 C 488.76897,73.479766 489.0289,73.781106 491.42338,74.414066 C 494.59782,75.253226 495.30308,74.940566 495.30308,72.694106 C 495.30308,71.760936 495.54811,70.975896 495.84759,70.949556 C 496.14707,70.923216 497.36911,70.780136 498.56324,70.631616 C 501.80401,70.228526 504.23546,72.026016 503.85006,74.539986 C 503.49638,76.847086 503.65726,76.911726 514.9054,78.981726 C 524.50916,80.749106 528.59021,82.014236 529.40825,83.477616 C 530.6679,85.730996 530.33685,93.658206 528.92671,95.008246 C 527.07726,96.778886 523.75487,97.971826 499.29615,105.64749 C 486.91764,109.53212 475.3196,113.18075 473.52272,113.75557 C 469.06298,115.18221 467.37505,115.44519 466.396,114.86589 z M 486.03226,106.47284 C 527.02289,93.599046 529.46625,92.619246 529.38547,89.087766 C 529.31174,85.864236 526.02161,84.285386 514.72314,82.051686 C 509.03344,80.926846 503.14647,79.543376 501.64099,78.977336 C 500.13551,78.411286 497.59324,77.948166 495.9915,77.948166 C 494.38976,77.948166 491.21099,77.361106 488.92757,76.643586 C 486.64415,75.926066 482.61935,75.160226 479.98354,74.941726 C 477.34774,74.723226 473.91734,74.085806 472.36042,73.525216 C 470.8035,72.964636 467.69462,72.325116 465.4518,72.104066 L 461.37395,71.702136 L 460.00671,74.995666 C 459.25473,76.807106 458.54071,78.496136 458.41999,78.749076 C 458.29927,79.001996 459.5061,78.891676 461.10184,78.503896 C 463.46833,77.928816 464.04413,77.460246 464.22537,75.962056 C 464.40408,74.484846 464.9779,73.999836 467.15661,73.484536 C 469.38355,72.957826 470.12646,73.069766 471.33118,74.113566 C 473.14332,75.683636 473.25407,79.014196 471.52619,79.977696 C 470.42958,80.589206 470.51653,80.689066 472.16145,80.707306 C 476.0593,80.750546 478.71172,79.854626 479.3354,78.284166 C 480.52191,75.296386 487.41438,75.883866 487.88886,79.013216 C 488.18153,80.943456 486.59366,82.693326 484.18664,83.093146 C 481.66028,83.512796 480.05683,82.970596 480.05683,81.696686 C 480.05683,80.604386 478.74099,80.447066 477.2362,81.359456 C 476.42044,81.854066 476.48897,82.096336 477.59921,82.642796 C 478.35194,83.013296 479.9285,83.537006 481.10267,83.806596 C 483.68966,84.400576 488.53242,87.955826 489.1043,89.680896 C 489.73718,91.589936 487.57363,95.851716 485.69576,96.395056 C 484.79054,96.656966 483.23313,97.593596 482.23486,98.476456 C 481.2366,99.359306 479.1783,100.30028 477.66086,100.56749 C 475.01933,101.03264 474.96525,101.0958 476.39034,102.05144 C 479.49635,104.13426 477.42375,109.22638 473.46999,109.22638 C 471.87278,109.22638 471.19333,108.69551 470.13396,106.61986 C 469.40228,105.18628 468.55861,104.09154 468.25913,104.18711 C 467.95965,104.28269 466.21938,104.36088 464.39186,104.36088 L 461.06911,104.36088 L 463.29704,106.15567 C 464.5224,107.1428 466.08808,108.8631 466.77633,109.97856 C 467.46458,111.09402 468.11423,112.00667 468.21999,112.00667 C 468.32577,112.00667 476.34128,109.51644 486.03226,106.47284 z M 484.53107,104.14967 C 481.50143,100.65474 482.87749,97.410166 487.3894,97.410166 C 490.35456,97.410166 491.56315,98.395846 491.41178,100.69072 C 491.18531,104.12428 486.5354,106.4618 484.53107,104.14967 z M 488.40597,100.89386 C 488.40597,100.38873 487.83423,99.895096 487.13545,99.796906 C 485.88102,99.620646 485.39516,100.89916 486.36406,101.82677 C 487.10738,102.5384 488.40597,101.94511 488.40597,100.89386 z M 498.33801,99.993906 C 497.05231,98.510736 495.98449,95.324946 496.77307,95.324946 C 497.1625,95.324946 497.48112,94.894876 497.48112,94.369226 C 497.48112,93.573246 500.36803,92.544666 502.60209,92.544666 C 504.02492,92.544666 505.34979,94.742356 505.00963,96.538276 C 504.31139,100.22477 500.3271,102.28847 498.33801,99.993906 z M 501.83836,95.441166 C 501.41206,95.305126 500.5472,95.383406 499.91644,95.615136 C 498.95811,95.967226 498.92593,96.216806 499.72069,97.133616 C 500.58112,98.126186 500.76431,98.109606 501.64262,96.959646 C 502.28292,96.121296 502.34956,95.604306 501.83836,95.441166 z M 495.45248,85.893926 C 494.55834,85.294336 494.01487,84.512386 494.24477,84.156246 C 494.47466,83.800116 493.54798,81.951676 494.20034,80.998486 C 495.22953,79.494686 495.83718,79.293206 498.79332,79.475616 C 502.03922,79.675906 502.21079,79.790636 502.4245,81.903836 C 502.57832,83.424856 502.17907,84.571556 501.15398,85.552966 C 499.36584,87.264906 497.64997,87.367516 495.45248,85.893926 z M 499.326,82.767416 C 499.99153,81.736456 499.36564,81.308256 497.9522,81.827526 C 497.29839,82.067726 496.9442,82.544266 497.16513,82.886486 C 497.70852,83.728246 498.74252,83.671266 499.326,82.767416 z M 473.88032,103.9236 C 473.16668,103.42402 472.22254,103.22168 471.78224,103.47396 C 471.34193,103.72625 471.43006,103.40345 471.97809,102.75663 C 472.5679,102.06049 472.65945,101.5806 472.20244,101.5806 C 470.58544,101.5806 470.58615,103.06198 472.20407,104.96206 C 473.60428,106.60646 473.99385,106.76085 474.53178,105.88447 C 474.97927,105.15545 474.77904,104.55276 473.88032,103.9236 z M 459.37715,103.68387 C 458.91343,102.96554 451.68119,100.71239 451.22895,101.14536 C 451.08239,101.28568 452.85316,102.02238 455.16398,102.78246 C 457.47481,103.54256 459.46645,104.20865 459.58984,104.26267 C 459.71323,104.31669 459.61752,104.05622 459.37715,103.68387 z M 484.76719,79.324796 C 484.57153,79.021716 483.75148,78.938976 482.94485,79.140916 C 481.78604,79.431036 481.65404,79.710886 482.31589,80.474376 C 482.94615,81.201436 483.39731,81.246956 484.13823,80.658256 C 484.67981,80.227936 484.96285,79.627886 484.76719,79.324796 z M 467.42511,79.669126 C 466.2676,79.091216 465.13359,78.797366 464.90509,79.016136 C 464.30205,79.593466 466.38162,80.706096 468.07763,80.713526 C 469.23802,80.718606 469.10696,80.508836 467.42511,79.669126 z M 469.89266,76.790166 C 469.89266,76.094606 469.48666,75.863376 468.74426,76.136116 C 468.11265,76.368166 467.41923,76.558016 467.20335,76.558016 C 466.98746,76.558016 467.21455,77.023746 467.70799,77.592976 C 468.74158,78.785296 469.89266,78.362296 469.89266,76.790166 z M 501.69974,74.686506 C 501.98284,72.791596 499.90233,71.637646 497.66262,72.447326 C 496.76418,72.772126 496.02909,73.342996 496.02909,73.715916 C 496.02909,74.717456 499.12562,76.620446 500.38516,76.392956 C 500.98412,76.284786 501.57569,75.516876 501.69974,74.686506 z M 486.22793,71.634596 C 486.22793,70.233296 485.86853,69.954836 484.05984,69.954836 C 481.28985,69.954836 480.61618,72.094096 483.08848,73.039436 C 485.43928,73.938326 486.22793,73.585416 486.22793,71.634596 z M 471.32837,69.636486 C 471.93918,68.543826 471.81145,68.133246 470.68049,67.553766 C 467.84436,66.100596 465.49986,68.708066 468.25913,70.246696 C 470.06339,71.252796 470.47004,71.171946 471.32837,69.636486 z M 458.39301,94.944706 C 457.23607,92.513726 457.33715,90.104076 458.63948,89.069306 C 459.93707,88.038296 460.04773,88.598776 458.89537,90.365366 C 458.24405,91.363846 458.32326,92.143486 459.25837,93.938076 C 460.63723,96.584276 460.66487,96.715096 459.84503,96.715096 C 459.50982,96.715096 458.85641,95.918416 458.39301,94.944706 z M 461.90653,94.641586 C 461.90653,93.773936 468.05445,90.785806 471.16378,90.142196 C 472.9713,89.768056 473.62696,89.910756 473.964,90.751626 C 474.20604,91.355506 474.94086,91.854376 475.59693,91.860236 C 476.57803,91.868986 476.608,91.981046 475.76572,92.491516 C 475.14841,92.865636 474.27406,92.832586 473.56442,92.408286 C 472.69819,91.890366 471.20039,92.182656 467.89475,93.514686 C 463.01524,95.480926 461.90653,95.689566 461.90653,94.641586 z M 462.38186,91.472446 C 462.99194,89.950376 467.86095,87.728636 471.68679,87.226596 C 474.74479,86.825316 474.98295,86.914246 475.70248,88.726126 C 476.66415,91.147696 476.01054,91.887266 474.60573,89.967096 C 473.6746,88.694366 473.20817,88.598676 470.81087,89.188556 C 469.30759,89.558456 467.35252,90.030356 466.46628,90.237236 C 465.58003,90.444126 464.47824,91.047926 464.01784,91.579026 C 462.89391,92.875576 461.84681,92.807356 462.38186,91.472446 z " id="path32461" sodipodi:nodetypes="csssssssszsssssssssssssssssssssssssssssssssssssssssssssssscccssssssssssssccssssssssssssssssssssssssssssscsscccssccsssssssssssssssssssssssccsssccsssccsssssccsssssccsssccssccsssssccsssccssssccssccssssssccsssccssssccssccssssssssssccsssssssssssccssscssssssccssssssssccsssssssssssssssccssssscccsssssssssssssssssssssssccssssssscccsssssssssssssssssssssscccssccssccssccssssccsssccsssssccssccsssssccsssccsssccssccsssccsssccssccssccssssccssssssccssssssc"/>
  </g>
</svg>