<?xml version="1.0" encoding="UTF-8" standalone="no"?>
<!-- Generator: Adobe Illustrator 10.0, SVG Export Plug-In . SVG Version: 3.0.0 Build 76)  -->
<svg
   xmlns:dc="http://purl.org/dc/elements/1.1/"
   xmlns:cc="http://creativecommons.org/ns#"
   xmlns:rdf="http://www.w3.org/1999/02/22-rdf-syntax-ns#"
   xmlns:svg="http://www.w3.org/2000/svg"
   xmlns="http://www.w3.org/2000/svg"
   xmlns:xlink="http://www.w3.org/1999/xlink"
   xmlns:sodipodi="http://sodipodi.sourceforge.net/DTD/sodipodi-0.dtd"
   xmlns:inkscape="http://www.inkscape.org/namespaces/inkscape"
   width="180"
   height="89.831589"
   viewBox="0 0 400 120"
   overflow="visible"
   enable-background="new 0 0 400 120"
   xml:space="preserve"
   id="svg2"
   sodipodi:version="0.32"
   inkscape:version="0.46"
   sodipodi:docname="thumbnail_music.svg"
   inkscape:output_extension="org.inkscape.output.svg.inkscape"
   version="1.0"
   style="overflow:visible"><metadata
   id="metadata190"><rdf:RDF><cc:Work
       rdf:about=""><dc:format>image/svg+xml</dc:format><dc:type
         rdf:resource="http://purl.org/dc/dcmitype/StillImage" /></cc:Work></rdf:RDF></metadata><defs
   id="defs188"><linearGradient
   id="linearGradient4526"><stop
     style="stop-color: rgb(94, 95, 97); stop-opacity: 1;"
     offset="0"
     id="stop4528" /><stop
     style="stop-color: rgb(240, 237, 235); stop-opacity: 1;"
     offset="1"
     id="stop4530" /></linearGradient><linearGradient
   xlink:href="#linearGradient167"
   id="linearGradient1439"
   gradientUnits="userSpaceOnUse"
   x1="288.82358"
   y1="398.85422"
   x2="288.37628"
   y2="482.55939"
   gradientTransform="scale(1.221941,0.81837)" /><linearGradient
   xlink:href="#linearGradient162"
   id="linearGradient1437"
   gradientUnits="userSpaceOnUse"
   x1="284.68652"
   y1="410.46326"
   x2="285.45923"
   y2="485.69934"
   gradientTransform="scale(1.218684,0.820557)" /><linearGradient
   xlink:href="#linearGradient167"
   id="linearGradient1435"
   gradientUnits="userSpaceOnUse"
   x1="316.93988"
   y1="474.01779"
   x2="371.60889"
   y2="582.63507"
   gradientTransform="scale(1.065499,0.938527)" /><linearGradient
   xlink:href="#linearGradient167"
   id="linearGradient1433"
   gradientUnits="userSpaceOnUse"
   x1="223.10072"
   y1="570.41809"
   x2="230.53499"
   y2="710.97723"
   gradientTransform="scale(0.999504,1.000496)" /><linearGradient
   xlink:href="#linearGradient167"
   id="linearGradient1431"
   gradientUnits="userSpaceOnUse"
   gradientTransform="scale(1.007724,0.992335)"
   x1="117.88966"
   y1="587.23602"
   x2="182.24524"
   y2="704.73077" /><linearGradient
   xlink:href="#linearGradient162"
   id="linearGradient1429"
   gradientUnits="userSpaceOnUse"
   x1="218.11714"
   y1="630.30475"
   x2="203.12654"
   y2="737.8537"
   gradientTransform="scale(1.009851,0.990245)" /><linearGradient
   xlink:href="#linearGradient153"
   id="linearGradient1427"
   gradientUnits="userSpaceOnUse"
   x1="381.56607"
   y1="655.73102"
   x2="279.64313"
   y2="386.66583"
   gradientTransform="scale(1.065499,0.938527)" /><linearGradient
   id="linearGradient162"><stop
     style="stop-color:#ffa63f;stop-opacity:1;"
     offset="0"
     id="stop163" /><stop
     style="stop-color:#ffff00;stop-opacity:1;"
     offset="1"
     id="stop164" /></linearGradient><linearGradient
   xlink:href="#linearGradient162"
   id="linearGradient1425"
   gradientUnits="userSpaceOnUse"
   x1="236.25362"
   y1="657.11133"
   x2="212.5099"
   y2="737.41229"
   gradientTransform="scale(1.011514,0.988617)" /><linearGradient
   xlink:href="#linearGradient167"
   id="linearGradient1423"
   gradientUnits="userSpaceOnUse"
   x1="867.34546"
   y1="234.73897"
   x2="867.33453"
   y2="314.83911"
   gradientTransform="scale(0.572667,1.746214)" /><linearGradient
   xlink:href="#linearGradient167"
   id="linearGradient1421"
   gradientUnits="userSpaceOnUse"
   x1="411.2215"
   y1="242.94365"
   x2="411.2215"
   y2="331.44858"
   gradientTransform="scale(0.571707,1.749147)" /><linearGradient
   xlink:href="#linearGradient167"
   id="linearGradient1419"
   gradientUnits="userSpaceOnUse"
   x1="322.48257"
   y1="435.26761"
   x2="323.2514"
   y2="488.48251"
   gradientTransform="scale(1.077001,0.928504)" /><linearGradient
   xlink:href="#linearGradient138"
   id="linearGradient1417"
   gradientUnits="userSpaceOnUse"
   x1="320.75104"
   y1="498.17776"
   x2="321.32224"
   y2="614.50439"
   gradientTransform="scale(1.074798,0.930408)" /><linearGradient
   xlink:href="#linearGradient153"
   id="linearGradient1415"
   gradientUnits="userSpaceOnUse"
   x1="375.17325"
   y1="419.78485"
   x2="377.48541"
   y2="324.03815"
   gradientTransform="scale(0.649784,1.538974)" /><linearGradient
   xlink:href="#linearGradient153"
   id="linearGradient1413"
   gradientUnits="userSpaceOnUse"
   spreadMethod="reflect"
   x1="437.57941"
   y1="528.87177"
   x2="437.57941"
   y2="394.10361"
   gradientTransform="scale(0.812855,1.230232)" /><linearGradient
   xlink:href="#linearGradient167"
   id="linearGradient1411"
   gradientUnits="userSpaceOnUse"
   x1="389.63535"
   y1="242.28218"
   x2="387.06866"
   y2="281.32513"
   gradientTransform="scale(0.816497,1.224744)" /><linearGradient
   id="linearGradient167"><stop
     style="stop-color:#ffffff;stop-opacity:0.65;"
     offset="0"
     id="stop168" /><stop
     style="stop-color:#ffffff;stop-opacity:0;"
     offset="1"
     id="stop169" /></linearGradient><linearGradient
   xlink:href="#linearGradient167"
   id="linearGradient1409"
   gradientUnits="userSpaceOnUse"
   gradientTransform="scale(0.816497,1.224744)"
   x1="379.09573"
   y1="240.92712"
   x2="376.79556"
   y2="281.01636" /><linearGradient
   xlink:href="#linearGradient153"
   id="linearGradient1407"
   gradientUnits="userSpaceOnUse"
   x1="381.38742"
   y1="277.495"
   x2="380.5517"
   y2="245.68338"
   gradientTransform="scale(0.816497,1.224744)" /><linearGradient
   xlink:href="#linearGradient153"
   id="linearGradient1405"
   gradientUnits="userSpaceOnUse"
   gradientTransform="scale(0.816497,1.224744)"
   x1="378.93771"
   y1="278.60202"
   x2="380.27319"
   y2="243.91606" /><linearGradient
   id="linearGradient138"><stop
     style="stop-color:#ffffff;stop-opacity:0.8;"
     offset="0"
     id="stop139" /><stop
     style="stop-color:#ffffff;stop-opacity:0;"
     offset="1"
     id="stop140" /></linearGradient><linearGradient
   xlink:href="#linearGradient138"
   id="linearGradient1403"
   gradientUnits="userSpaceOnUse"
   x1="303.01761"
   y1="237.93179"
   x2="297.0856"
   y2="330.09561"
   gradientTransform="scale(1.116071,0.896001)" /><linearGradient
   id="linearGradient153"><stop
     style="stop-color:#ffeed7;stop-opacity:1;"
     offset="0"
     id="stop154" /><stop
     style="stop-color:#bdbfc2;stop-opacity:1;"
     offset="1"
     id="stop155" /></linearGradient><linearGradient
   xlink:href="#linearGradient153"
   id="linearGradient1401"
   gradientUnits="userSpaceOnUse"
   x1="400.57785"
   y1="369.53015"
   x2="400.84448"
   y2="304.07886"
   gradientTransform="scale(0.575262,1.738339)" /><linearGradient
   id="linearGradient172"><stop
     style="stop-color:#3f2600;stop-opacity:0.6;"
     offset="0"
     id="stop173" /><stop
     style="stop-color:#3f2600;stop-opacity:0;"
     offset="1"
     id="stop174" /></linearGradient><radialGradient
   xlink:href="#linearGradient172"
   id="radialGradient1399"
   gradientTransform="scale(1.045233,0.956725)"
   cx="446.77762"
   cy="1219.4125"
   fx="446.77762"
   fy="1219.4125"
   r="195.07191"
   gradientUnits="userSpaceOnUse" /><inkscape:perspective
   sodipodi:type="inkscape:persp3d"
   inkscape:vp_x="0 : 60 : 1"
   inkscape:vp_y="0 : 1000 : 0"
   inkscape:vp_z="400 : 60 : 1"
   inkscape:persp3d-origin="200 : 40 : 1"
   id="perspective192" />
		
		
		
		
		
		
		
		
		
		
		
		
			
		
			
		
			
		
			
		
			
		
		
		
		
			
		
			
		
			
		
		
		
			
		
			
		
		
		
			
		
			
		
		
		
			
		
			
		
		
		
		
		
			
		
			
		
			
	</defs><sodipodi:namedview
   inkscape:window-height="992"
   inkscape:window-width="1920"
   inkscape:pageshadow="2"
   inkscape:pageopacity="0.0"
   guidetolerance="10.0"
   gridtolerance="10.0"
   objecttolerance="10.0"
   borderopacity="1.0"
   bordercolor="#666666"
   pagecolor="#ffffff"
   id="base"
   showgrid="false"
   inkscape:zoom="4.5425"
   inkscape:cx="78.776654"
   inkscape:cy="57.332297"
   inkscape:window-x="-5"
   inkscape:window-y="0"
   inkscape:current-layer="svg2" />
	<symbol
   id="Sharp"
   viewBox="-10 -26.3 20 52.6"
   transform="translate(-1.0273343,-2.355531)">
		<g
   id="g5">
			<g
   id="g7">
				<path
   d="M -5,-26.3 L -3.5,-26.3 L -3.5,23.7 L -5,23.7 L -5,-26.3 z"
   id="path9" />
				<path
   d="M 3.5,-23.7 L 5,-23.7 L 5,26.3 L 3.5,26.3 L 3.5,-23.7 z"
   id="path11" />
				<path
   d="M 10,-10.5 L -10,-16.5 L -10,-10.5 L 10,-4.5 L 10,-10.5 z"
   id="path13" />
				<path
   d="M 10,10.1 L -10,4.1 L -10,10.1 L 10,16.1 L 10,10.1 z"
   id="path15" />
			</g>
		</g>
	</symbol>
	<symbol
   id="Treble_clef"
   viewBox="-25.9 -76.3 51.8 152.6"
   transform="translate(-1.0273343,-2.355531)">
		<g
   id="g18">
			<path
   d="M 22,-12.5 C 17.6,-7.5 12.2,-2.9 5.3,-3.2 C 4.2,2.9 2.6,8.4 1.1,14.6 C 1.1,14.6 10.7,26.5 15.4,35 C 20.1,43.6 15.4,65.4 6.8,76.2 C 2.3,72.8 -1,68.6 -3.6,63.6 C -9.9,51.4 -3.5,21.7 -3.5,21.7 C -3.5,21.7 -21,1.1 -22.2,-1.8 C -24.3,-6.2 -27.3,-9.9 -25.3,-21.4 C -23.3,-33 -16.8,-38.6 -9,-43 C -3.5,-45.7 -0.1,-46.5 8.5,-45.6 C 9,-55.9 8.2,-69.9 -3.2,-73.8 C -8.7,-75.4 -15.7,-71.9 -16.1,-65.8 C -12.8,-67.5 -9.2,-65.8 -7.5,-62.9 C -6.6,-60.7 -6.5,-58.4 -7.1,-56.1 C -9.1,-51 -15.9,-49.9 -19.9,-53 C -24.8,-57.3 -23.7,-64.6 -20.2,-69.7 C -16.6,-74.1 -11.4,-76.9 -5.7,-76.3 C 12.9,-74.3 11.4,-48.4 11.4,-45.1 C 15.6,-43.3 21.1,-40.5 24.1,-32.8 C 27.3,-25.2 26.4,-17.5 22,-12.5 z M -3.3,38.5 C -3.3,50.5 2.1,57.9 10.1,63.9 C 16.3,55.5 11.6,43.9 8.4,38.1 C 5.3,32.3 -1.3,24.2 -1.3,24.2 C -1.3,24.2 -3.3,29.6 -3.3,38.5 z M -20.1,-22.5 C -20.2,-6.2 -1.2,11.7 -1.2,11.7 C -0.2,9.2 2.8,-3.5 2.8,-3.5 C -5,-3.9 -9.5,-9.8 -10.8,-12.7 C -12.1,-15.7 -12.8,-19.1 -12.2,-22.7 C -11.3,-27.9 -5.4,-33.5 -2.6,-34.6 C -1.5,-35 -0.9,-32.9 -1.3,-32.3 C -3,-31.3 -5.6,-29.9 -7.1,-25.1 C -9.6,-17.2 -3,-11.9 4.6,-12.1 C 5,-15.7 8.5,-35.3 8.6,-42.5 C -6.4,-43.9 -20,-36.2 -20.1,-22.5 z M 11.4,-42.1 C 11.2,-33.8 8.7,-19.1 7.6,-12.2 C 14.1,-12.6 20.2,-20.6 20.7,-26 C 21.3,-33.1 20.1,-38.4 11.4,-42.1 z"
   id="path20" />
		</g>
	</symbol>
	<symbol
   id="half_note"
   viewBox="-13.5 -39.5 27 79.1"
   transform="translate(-1.0273343,-2.355531)">
		<g
   id="g23">
			<g
   id="g25">
				<path
   d="M 12,39.5 L 13.5,39.5 L 13.5,-26.5 L 12,-26.5 L 12,39.5 z"
   id="path27" />
				<path
   d="M -12.2,-36.2 C -15.4,-32.1 -12.6,-25.6 -5.8,-21.9 C 0.9,-18.1 9,-18.5 12.2,-22.6 C 15.4,-26.7 12.6,-33.2 5.8,-36.9 C -0.9,-40.7 -9,-40.4 -12.2,-36.2 z"
   id="path29" />
				<path
   d="M 10.6,-23.3 C 9.5,-21.3 3.9,-22.4 -1.9,-25.8 C -2,-25.8 -2,-25.9 -2.1,-25.9 C -2.2,-25.9 -2.3,-26 -2.3,-26 C -8,-29.4 -11.7,-33.7 -10.5,-35.6 C -9.4,-37.6 -3.8,-36.5 2,-33.1 C 2.1,-33.1 2.1,-33 2.2,-33 L 2.3,-32.9 C 8,-29.6 11.7,-25.3 10.6,-23.3 z"
   id="path31"
   style="fill:#ffffff" />
			</g>
		</g>
	</symbol>
	<symbol
   id="quarter_note"
   viewBox="-13.5 -39.5 27 79"
   transform="translate(-1.0273343,-2.355531)">
		<g
   id="g34">
			<g
   id="g36">
				<path
   d="M 12,39.5 L 13.5,39.5 L 13.5,-26.5 L 12,-26.5 L 12,39.5 z"
   id="path38" />
				<g
   id="g40">
					<path
   d="M -12.2,-36.2 C -15.4,-32.1 -12.6,-25.6 -5.8,-21.9 C 0.9,-18.1 9,-18.5 12.2,-22.6 C 15.4,-26.7 12.6,-33.2 5.8,-36.9 C -0.9,-40.6 -9,-40.3 -12.2,-36.2 z"
   id="path42" />
				</g>
			</g>
		</g>
	</symbol>
	<symbol
   id="quarter_rest"
   viewBox="-9.6 -28 19.3 55.9"
   transform="translate(-1.0273343,-2.355531)">
		<g
   id="g45">
			<path
   d="M -5.6,26.6 C -4.1,25 7.4,10.9 7.4,10.9 C 7.4,10.9 1.1,4.8 1.1,-1.6 C 1.1,-9.1 9.7,-15.9 9.7,-15.9 L 8.8,-17 C 5.5,-15.1 -0.1,-14.9 -2.6,-17.8 C -5.7,-21.4 1.3,-26.9 1.3,-26.9 L 0.4,-28 C -2,-26.2 -12.1,-16.6 -7.8,-11.9 C -5.2,-9 -2,-8.1 2.5,-10.5 L -9.6,2 C -2.6,10.6 -1.4,13.1 -1.4,15.4 C -1.4,20.2 -4.8,23.6 -6.5,25.8 C -7.1,26.7 -8.2,27.4 -7.5,28 C -6.9,28.6 -6.5,27.7 -5.6,26.6 z"
   id="path47" />
		</g>
	</symbol>
	
	<g
   id="g2561"
   transform="matrix(3.1768513,0,0,3.1768513,-0.2231973,17.299393)"><g
     transform="matrix(0.3128693,0,0,0.4799954,1.3032778e-6,-15.732519)"
     id="Background">
		<path
   style="fill:#ffffff"
   id="path50"
   d="M 400,120 L 0,120 L 0,0 L 400,0 L 400,120 z" />
	</g><path
     id="line_1"
     d="M 118.13682,26.770109 L 10.157827,26.770109 L 10.157827,26.193601 L 118.13682,26.193601 L 118.13682,26.770109 z" /><path
     id="line_2"
     d="M 118.13682,20.428522 L 10.157827,20.428522 L 10.157827,19.75593 L 118.13682,19.75593 L 118.13682,20.428522 z" /><path
     id="line_3"
     d="M 118.13682,13.990851 L 10.157827,13.990851 L 10.157827,13.318258 L 118.13682,13.318258 L 118.13682,13.990851 z" /><path
     id="line_4"
     d="M 118.13682,7.5531794 L 10.157827,7.5531794 L 10.157827,6.9766715 L 118.13682,6.9766715 L 118.13682,7.5531794 z" /><path
     id="line_5"
     d="M 118.13682,1.2115925 L 10.157827,1.2115925 L 10.157827,0.53899995 L 118.13682,0.53899995 L 118.13682,1.2115925 z" /><g
     transform="matrix(0.9608465,0,0,0.9608465,10.157827,-55.478351)"
     id="g58">
			<path
   d="M 46.9,84.8 L 46.9,84.4 L 47.8,84.4 L 47.8,81.7 L 43.5,81.7 L 43.5,80.8 L 49.2,72.9 L 50.7,72.9 L 50.7,80.2 L 51.9,80.2 L 51.9,81.6 L 50.7,81.6 L 50.7,84.3 L 51.6,84.3 L 51.6,84.7 L 46.9,84.7 L 46.9,84.8 z M 47.8,80.3 L 47.8,75.5 L 44.4,80.3 L 47.8,80.3 z"
   id="path60" />
		</g><g
     transform="matrix(0.9608465,0,0,0.9608465,10.157827,-55.478351)"
     id="g62">
			<path
   d="M 46,65 L 46,64.6 L 46.3,64.6 C 46.7,64.6 47.1,64.6 47.4,64.5 C 47.7,64.4 47.9,64.4 48.1,64.2 C 48.3,64.1 48.4,63.9 48.5,63.6 C 48.6,63.3 48.6,62.7 48.6,61.9 L 48.6,61.4 C 48.6,60.7 48.5,60.2 48.3,59.9 C 48.1,59.6 47.8,59.5 47.3,59.5 C 46.9,59.5 46.6,59.5 46.4,59.6 C 46.2,59.7 46.1,59.8 46.1,60 C 46.1,60.1 46.2,60.2 46.4,60.3 C 46.4,60.3 46.4,60.3 46.4,60.3 C 46.7,60.5 46.8,60.6 46.9,60.8 C 47,61 47,61.2 47,61.4 C 47,61.8 46.9,62.1 46.7,62.3 C 46.5,62.5 46.2,62.6 45.8,62.6 C 45.4,62.6 45.1,62.5 44.8,62.2 C 44.5,61.9 44.4,61.6 44.4,61.2 C 44.4,60.6 44.7,60.1 45.3,59.7 C 45.9,59.3 46.6,59 47.4,59 C 48.7,59 49.7,59.3 50.5,59.8 C 51.2,60.3 51.6,61.1 51.6,62.1 C 51.6,62.9 51.3,63.5 50.8,63.9 C 50.3,64.4 49.5,64.7 48.4,64.8 C 49.6,65 50.5,65.3 51.1,65.8 C 51.7,66.3 52,67 52,68 C 52,69 51.6,69.8 50.7,70.4 C 49.9,71 48.8,71.3 47.4,71.3 C 46.4,71.3 45.6,71.1 45,70.6 C 44.4,70.2 44.1,69.6 44.1,69 C 44.1,68.6 44.2,68.2 44.5,68 C 44.8,67.8 45.1,67.6 45.5,67.6 C 45.9,67.6 46.2,67.7 46.4,68 C 46.6,68.3 46.7,68.6 46.7,69 C 46.7,69.2 46.7,69.4 46.6,69.6 C 46.5,69.8 46.4,69.9 46.2,70 C 46.1,70 46.1,70.1 46,70.1 C 45.8,70.2 45.7,70.3 45.7,70.4 C 45.7,70.6 45.8,70.7 46.1,70.8 C 46.4,70.9 46.7,71 47.1,71 C 47.4,71 47.6,70.9 47.8,70.8 C 48,70.7 48.2,70.5 48.3,70.3 C 48.4,70.1 48.5,69.8 48.6,69.5 C 48.7,69.2 48.7,68.7 48.7,68 L 48.7,67.2 C 48.7,66.3 48.5,65.7 48.2,65.4 C 47.9,65.1 47.3,64.9 46.3,64.9 L 46,64.9 L 46,65 z"
   id="path64" />
		</g><path
     d="M 93.943642,26.385771 L 93.271049,26.385771 L 93.271049,0.8272539 L 93.943642,0.8272539 L 93.943642,26.385771 z"
     id="path66" /><use
     xlink:href="#quarter_note"
     width="27"
     height="79"
     x="-13.5"
     y="-39.5"
     transform="matrix(0.3202501,0,0,-0.3202501,76.464798,19.481802)"
     id="use74" /><use
     xlink:href="#quarter_note"
     width="27"
     height="79"
     x="-13.5"
     y="-39.5"
     transform="matrix(0.3202501,0,0,-0.3202501,107.85277,19.481802)"
     id="use78" /><use
     xlink:href="#Sharp"
     width="20"
     height="52.599998"
     x="-10"
     y="-26.299999"
     transform="matrix(0.3202501,0,0,-0.3202501,36.462067,0.1278557)"
     id="use86" /><use
     xlink:href="#Sharp"
     width="20"
     height="52.599998"
     x="-10"
     y="-26.299999"
     transform="matrix(0.3202501,0,0,-0.3202501,45.109206,9.2558974)"
     id="use88" /><use
     xlink:href="#Treble_clef"
     width="51.799999"
     height="152.60001"
     x="-25.9"
     y="-76.300003"
     transform="matrix(0.3202501,0,0,-0.3202501,21.696547,11.634569)"
     id="use132" /></g>
	
</svg>