<?xml version="1.0" encoding="UTF-8" standalone="yes"?>
<!DOCTYPE svg PUBLIC "-//W3C//DTD SVG 1.1//EN" "http://www.w3.org/Graphics/SVG/1.1/DTD/svg11.dtd">
<!-- Drawn by Thomas Rosenau for Wikipedia and for everyone. This file is in the public domain. Please note: The usage of coats of arms is governed by legal restrictions, independent of the images' copyright status. -->
<svg version="1.1" xmlns:xlink="http://www.w3.org/1999/xlink" xmlns="http://www.w3.org/2000/svg" viewBox="-200 0 400 500" width="640" height="800">
  <path fill="gold" stroke="#000" stroke-width="4" d="M -198,2 V 336 C -198,461 -30,446 0,496 C 30,446 198,461 198,336 V 2z"/>
  <g fill="#000">
    <path d="M -13,50 C -11,60 -15,84 -20,92 S -38,115 -39,130 C -44,205 -16,314 0,392 C 16,314 44,205 39,130 S 24,35 24,35"/>
    <g fill="#d00" stroke="#000" stroke-width="2">
      <path d="M -9,61 Q -37,59 -56,50 Q -48,60 -20,66"/>
      <path d="M -15,20 C -45,5 -63,22 -43,49 C -41,44 -22,37 -13,61 Q -20,65 -46,62 C -37,69 -10,70 -5,67 S -14,39 -14,39"/>
    </g>
    <path d="M 22,41 C 27,40 35,37 41,31 C 30,31 10,25 2,21 S -20,8 -20,25 S -2,55 -5,69"/>
    <path fill="#f0f8ff" d="M -3,30 C -3,30 -13,25 -15,23 S -20,34 -11,38 Q -9,33 -3,30z"/>
    <path d="M -10,24 Q -17,26 -13,35 Q -12,28 -3,26"/>
    <g id="lhs">
      <path d=" M 44,160 V 278 L 178,388 V 95 Q 178,61 164,49 V 110"/>
      <line id="gap" stroke="gold" stroke-width="6" x1="69" y1="125" x2="69" y2="375"/>
      <use xlink:href="#gap" x="28"/>
      <use xlink:href="#gap" x="56"/>
      <use xlink:href="#gap" x="84"/>
      <path d="M 18,182 C 108,182 146,153 165,131 V 50 Q 180,46 181,28 C 153,51 109,-3 83,53 C 97,81 125,78 135,62 C 155,79 139,143 18,142"/>
      <g fill="#d00" stroke="#000" stroke-width="2">
        <path d="M 51,378 C 44,387 50,395 56,398 Q 53,389 59,381"/>
        <path  d="M 86,412 Q 87,418 80,427 C 92,424 97,420 93,413"/>
        <path d="M 126,397 Q 129,404 127,413 C 136,405 139,394 132,392"/>
        <path d="M 125,361 Q 130,362 135,371 C 136,360 134,354 124,352"/>
        <path d="M 37,328 L 84,371 C 84,371 66,375 59,375 S 46,377 48,379 S 54,381 56,384 S 61,391 65,387 S 83,379 83,379 C 83,379 83,402 82,405 S 78,414 80,414 S 82,413 90,414 S 97,417 95,405 S 94,380 94,380 C 94,380 112,392 118,400 S 123,402 126,399 S 133,395 136,394 S 128,390 125,388 S 99,373 99,373 C 99,373 112,369 120,368 S 128,367 127,363 S 127,355 127,353 S 126,349 121,353 S 93,367 93,367 L 54,315"/>
      </g>
      <path d="M 0,458 L 21,433 Q 57,455 74,421 Q 20,430 23,323 L 50,365 V 326 L 83,330 L -4,237"/>
    </g>
    <use xlink:href="#lhs" transform="scale(-1 1)"/>
  </g>
</svg>
