<?xml version="1.0" encoding="UTF-8" standalone="no"?>
<!-- Created with Inkscape (http://www.inkscape.org/) -->
<svg
   xmlns:svg="http://www.w3.org/2000/svg"
   xmlns="http://www.w3.org/2000/svg"
   xmlns:xlink="http://www.w3.org/1999/xlink"
   xmlns:inkscape="http://www.inkscape.org/namespaces/inkscape"
   version="1.0"
   width="795.15466"
   height="633.38519"
   id="svg2">
  <defs
     id="defs4">
    <linearGradient
       id="linearGradient4078">
      <stop
         id="stop4080"
         style="stop-color:#f81313;stop-opacity:0.99444401"
         offset="0" />
      <stop
         id="stop4082"
         style="stop-color:#32231a;stop-opacity:1"
         offset="1" />
    </linearGradient>
    <linearGradient
       id="linearGradient4607">
      <stop
         id="stop4609"
         style="stop-color:#ffffff;stop-opacity:0"
         offset="0" />
      <stop
         id="stop4611"
         style="stop-color:#32231a;stop-opacity:1"
         offset="1" />
    </linearGradient>
    <linearGradient
       id="linearGradient4593">
      <stop
         id="stop4595"
         style="stop-color:#3b2a20;stop-opacity:1"
         offset="0" />
      <stop
         id="stop4597"
         style="stop-color:#583e2f;stop-opacity:1"
         offset="1" />
    </linearGradient>
    <linearGradient
       id="linearGradient4560">
      <stop
         id="stop4562"
         style="stop-color:#f8fdac;stop-opacity:1"
         offset="0" />
      <stop
         id="stop4564"
         style="stop-color:#acf5fd;stop-opacity:0"
         offset="1" />
    </linearGradient>
    <inkscape:path-effect
       id="path-effect2832" />
    <radialGradient
       cx="356.98611"
       cy="-546.73804"
       r="423.25388"
       fx="356.98611"
       fy="-546.73804"
       id="radialGradient4566"
       xlink:href="#linearGradient4560"
       gradientUnits="userSpaceOnUse"
       gradientTransform="matrix(-0.846645,0.96345,-1.5573,-1.3685,199.071,-1083.35)" />
    <radialGradient
       cx="79.281128"
       cy="-41.36924"
       r="265.57953"
       fx="79.281128"
       fy="-41.36924"
       id="radialGradient4613"
       xlink:href="#linearGradient4607"
       gradientUnits="userSpaceOnUse"
       gradientTransform="matrix(-0.127245,0.487244,-1.66188,-0.434003,235.984,157.982)" />
    <radialGradient
       cx="260.03247"
       cy="867.63892"
       r="265.57254"
       fx="260.03247"
       fy="867.63892"
       id="radialGradient4615"
       xlink:href="#linearGradient4593"
       gradientUnits="userSpaceOnUse"
       gradientTransform="matrix(0.887143,0.117423,-3.70922e-2,0.280235,59.2121,148.644)" />
    <radialGradient
       cx="79.281128"
       cy="-41.36924"
       r="265.57953"
       fx="79.281128"
       fy="-41.36924"
       id="radialGradient3432"
       xlink:href="#linearGradient4607"
       gradientUnits="userSpaceOnUse"
       gradientTransform="matrix(-0.127245,0.487244,-1.66188,-0.434003,235.984,157.982)" />
    <radialGradient
       cx="79.281128"
       cy="-41.36924"
       r="265.57953"
       fx="79.281128"
       fy="-41.36924"
       id="radialGradient3440"
       xlink:href="#linearGradient4607"
       gradientUnits="userSpaceOnUse"
       gradientTransform="matrix(-0.127245,0.487244,-1.66188,-0.434003,235.984,157.982)" />
    <radialGradient
       cx="79.281128"
       cy="-41.36924"
       r="265.57953"
       fx="79.281128"
       fy="-41.36924"
       id="radialGradient3448"
       xlink:href="#linearGradient4607"
       gradientUnits="userSpaceOnUse"
       gradientTransform="matrix(-0.127245,0.487244,-1.66188,-0.434003,235.984,157.982)" />
    <radialGradient
       cx="79.281128"
       cy="-41.36924"
       r="265.57953"
       fx="79.281128"
       fy="-41.36924"
       id="radialGradient3456"
       xlink:href="#linearGradient4607"
       gradientUnits="userSpaceOnUse"
       gradientTransform="matrix(-0.127245,0.487244,-1.66188,-0.434003,235.984,157.982)" />
    <radialGradient
       cx="79.281128"
       cy="-41.36924"
       r="265.57953"
       fx="79.281128"
       fy="-41.36924"
       id="radialGradient3464"
       xlink:href="#linearGradient4607"
       gradientUnits="userSpaceOnUse"
       gradientTransform="matrix(-0.127245,0.487244,-1.66188,-0.434003,235.984,157.982)" />
    <radialGradient
       cx="79.281128"
       cy="-41.36924"
       r="265.57953"
       fx="79.281128"
       fy="-41.36924"
       id="radialGradient3472"
       xlink:href="#linearGradient4607"
       gradientUnits="userSpaceOnUse"
       gradientTransform="matrix(-0.127245,0.487244,-1.66188,-0.434003,235.984,157.982)" />
    <radialGradient
       cx="79.281128"
       cy="-41.36924"
       r="265.57953"
       fx="79.281128"
       fy="-41.36924"
       id="radialGradient3480"
       xlink:href="#linearGradient4607"
       gradientUnits="userSpaceOnUse"
       gradientTransform="matrix(-0.127245,0.487244,-1.66188,-0.434003,235.984,157.982)" />
    <radialGradient
       cx="79.281128"
       cy="-41.36924"
       r="265.57953"
       fx="79.281128"
       fy="-41.36924"
       id="radialGradient3488"
       xlink:href="#linearGradient4607"
       gradientUnits="userSpaceOnUse"
       gradientTransform="matrix(-0.127245,0.487244,-1.66188,-0.434003,235.984,157.982)" />
    <radialGradient
       cx="79.281128"
       cy="-41.36924"
       r="265.57953"
       fx="79.281128"
       fy="-41.36924"
       id="radialGradient3496"
       xlink:href="#linearGradient4607"
       gradientUnits="userSpaceOnUse"
       gradientTransform="matrix(-0.127245,0.487244,-1.66188,-0.434003,235.984,157.982)" />
    <radialGradient
       cx="276.90552"
       cy="268.02246"
       r="265.89709"
       fx="276.90552"
       fy="268.02246"
       id="radialGradient4858"
       xlink:href="#linearGradient4078"
       gradientUnits="userSpaceOnUse"
       gradientTransform="matrix(1.19595,0.132567,-2.5196e-2,0.227305,-55.4154,231.373)" />
    <filter
       height="1.1791934"
       y="-0.089596689"
       width="1.206778"
       x="-0.10338902"
       id="filter4562">
      <feGaussianBlur
         id="feGaussianBlur4564"
         stdDeviation="0.02409549"
         inkscape:collect="always" />
    </filter>
    <filter
       height="1.2457753"
       y="-0.12288768"
       width="1.4270766"
       x="-0.21353829"
       id="filter4625">
      <feGaussianBlur
         id="feGaussianBlur4627"
         stdDeviation="0.01560095"
         inkscape:collect="always" />
    </filter>
    <filter
       id="filter4633">
      <feGaussianBlur
         id="feGaussianBlur4635"
         stdDeviation="0.074760997"
         inkscape:collect="always" />
    </filter>
    <filter
       height="1.4135332"
       y="-0.20676661"
       width="1.4771667"
       x="-0.23858337"
       id="filter4641">
      <feGaussianBlur
         id="feGaussianBlur4643"
         stdDeviation="0.094853236"
         inkscape:collect="always" />
    </filter>
    <clipPath
       id="clipPath2871">
      <rect
         width="795.15466"
         height="633.38519"
         x="-45.240135"
         y="-7.6220918"
         id="rect2873"
         style="opacity:0.25;fill:none;stroke:#000000;stroke-width:2.8401401;marker:none;stroke-opacity:1;visibility:visible;display:inline;overflow:visible" />
    </clipPath>
    <radialGradient
       cx="79.281128"
       cy="-41.36924"
       r="265.57953"
       fx="79.281128"
       fy="-41.36924"
       id="radialGradient2471"
       xlink:href="#linearGradient4607"
       gradientUnits="userSpaceOnUse"
       gradientTransform="matrix(-0.127245,0.487244,-1.66188,-0.434003,235.984,157.982)" />
    <radialGradient
       cx="260.03247"
       cy="867.63892"
       r="265.57254"
       fx="260.03247"
       fy="867.63892"
       id="radialGradient2474"
       xlink:href="#linearGradient4593"
       gradientUnits="userSpaceOnUse"
       gradientTransform="matrix(0.887143,0.117423,-3.70922e-2,0.280235,59.2121,148.644)" />
    <radialGradient
       cx="356.98611"
       cy="-546.73804"
       r="423.25388"
       fx="356.98611"
       fy="-546.73804"
       id="radialGradient2502"
       xlink:href="#linearGradient4560"
       gradientUnits="userSpaceOnUse"
       gradientTransform="matrix(-0.846645,0.96345,-1.5573,-1.3685,199.071,-1083.35)" />
  </defs>
  <g
     transform="translate(45.2401,7.62209)"
     id="layer2"
     style="display:inline" />
  <g
     transform="translate(45.2401,7.62209)"
     id="layer3"
     style="display:inline" />
  <g
     transform="translate(45.2401,7.62209)"
     id="layer5"
     style="display:inline" />
  <g
     transform="translate(45.2401,7.62209)"
     id="layer4"
     style="display:inline">
    <rect
       width="846.50775"
       height="367.69553"
       rx="0.66861981"
       ry="0.61042315"
       x="-46.467018"
       y="-9.3757935"
       id="rect2817"
       style="fill:#acf5fd;fill-opacity:1;stroke:none;stroke-width:2.74000001;marker:none;visibility:visible;display:inline;overflow:visible" />
    <rect
       width="846.50775"
       height="367.69553"
       rx="0.66861981"
       ry="0.61042315"
       x="-46.467018"
       y="-9.3757935"
       id="rect3786"
       style="opacity:0.5;fill:url(#radialGradient2502);fill-opacity:1;stroke:none;stroke-width:2.74000001;marker:none;visibility:visible;display:inline;overflow:visible" />
    <g
       transform="matrix(1.5693,0,0,1.5693,-637.52,-16.3058)"
       id="g4645"
       style="display:inline">
      <g
         transform="matrix(0.197048,0,0,0.197048,381.85,-54.5553)"
         id="g2848"
         style="fill:#faf2e4;fill-opacity:1;display:inline">
        <path
           d="M 600.66071,546.77232 C 574.04527,555.63648 564.23896,564.95009 562.3125,575.53125 C 562.16525,578.66243 562.00736,580.74493 561.84375,582.53125 C 561.88155,582.25275 561.91785,581.97427 561.96875,581.6875 C 561.97375,581.6567 561.99435,581.6246 561.99995,581.5938 C 562.06095,581.26085 562.14012,580.90668 562.2187,580.56255 C 562.2637,580.36441 562.32406,580.17066 562.37495,579.9688 C 562.41795,579.79893 562.45275,579.61007 562.49995,579.43755 C 562.60601,579.04999 562.71639,578.651 562.8437,578.25005 C 562.8902,578.1207 562.95267,578.03044 563.0312,577.93755 C 563.113,577.83546 563.19768,577.75122 563.31245,577.68755 C 563.41964,577.62815 563.55501,577.59135 563.68745,577.56255 C 564.06852,577.47925 564.52715,577.50315 565.06245,577.62505 C 565.08565,577.63005 565.10155,577.65075 565.12495,577.65625 C 565.50905,577.74685 565.91745,577.86733 566.3437,578.03125 C 566.75901,578.1903 567.1661,578.38904 567.5937,578.59375 C 567.6027,578.59775 567.6162,578.58975 567.6249,578.59375 C 567.76318,578.66015 567.89354,578.74298 568.03115,578.8125 C 569.16171,579.38363 570.26397,580.02947 571.0624,580.5625 C 571.1586,580.6254 571.25996,580.67238 571.3749,580.6875 C 571.60497,580.7179 571.86186,580.6635 572.15615,580.53125 C 572.3033,580.46515 572.46448,580.38098 572.6249,580.28125 C 574.54614,579.08072 577.37044,575.62054 579.46865,573.96875 C 578.8457,574.9698 578.1835,575.99148 577.4999,577.03125 C 576.13294,579.11103 574.68407,581.24424 573.40615,583.3125 C 573.08654,583.82944 572.7967,584.33623 572.4999,584.84375 C 571.90657,585.85906 571.36683,586.8557 570.90615,587.8125 C 571.22516,587.45278 573.00927,586.53984 577.71865,585 C 583.90416,582.9775 594.2622,581.53774 608.21865,582.71875 L 605.96865,578 L 614.65615,578.34375 L 608.84365,574.40625 L 615.96865,570.21875 L 613.1249,569.40625 L 617.15615,567.09375 L 612.15615,566.5625 L 616.8749,562 L 610.96865,561.46875 L 615.28115,557.71875 L 609.46865,557.62505 L 612.84365,554.87505 L 607.6874,554.87505 L 607.84365,551.9063 L 604.5624,552 L 604.4687,548.15625 L 600.66066,546.77232 L 600.66071,546.77232 z M 561.71875,583.84375 C 561.70875,583.93565 561.69735,584.0662 561.68755,584.15625 L 561.71875,584.15625 C 561.71971,584.13595 561.71775,584.11415 561.71875,584.09375 C 561.72275,584.00845 561.71275,583.92988 561.71875,583.84375 z M 561.74995,586.21875 C 561.78425,586.57052 561.84485,586.91543 561.9062,587.25 C 561.8459,586.91356 561.78299,586.57256 561.74995,586.21875 z M 561.93745,587.46875 C 562.00665,587.81013 562.08988,588.14548 562.18745,588.46875 C 562.09145,588.14642 562.00525,587.80905 561.93745,587.46875 z M 570.8437,587.90625 C 570.40246,588.82996 570.04555,589.72007 569.7812,590.5625 C 570.04419,589.72342 570.40525,588.82599 570.8437,587.90625 z M 569.7812,590.5625 C 569.50812,591.43275 569.34241,592.24382 569.31245,593 C 569.34225,592.24365 569.50836,591.43299 569.7812,590.5625 z M 569.37495,594.09375 C 569.43115,594.43812 569.52201,594.75533 569.6562,595.0625 C 569.52198,594.7553 569.43116,594.43818 569.37495,594.09375 z M 569.6562,595.0625 C 569.79039,595.36967 569.96832,595.671 570.18745,595.9375 C 569.96832,595.671 569.79042,595.3697 569.6562,595.0625 z"
           id="path2832"
           style="fill:#ffffff;fill-opacity:1;stroke-width:1px" />
        <path
           d="M 570.17857,595.93361 C 562.66736,593.26758 559.89433,587.58635 562.85714,578.25504 C 563.60055,576.18542 568.66733,578.97149 571.07143,580.57647 C 572.61057,581.58301 576.66667,576.1717 579.46429,573.96932 C 574.48071,581.97771 566.67251,591.66957 570.17857,595.93361 L 570.17857,595.93361 z"
           id="path2826"
           style="fill:#ecb45b;fill-opacity:1;stroke-width:1px" />
      </g>
      <path
         d="M 528.04067,28.641897 C 527.65901,28.578017 519.05327,37.32131 519.45063,36.462224 C 520.83907,34.97303 524.01964,30.216058 522.72655,30.249068 C 522.20735,30.277958 517.25184,37.348823 514.31508,40.199973 C 513.86282,40.639031 514.66581,41.566668 514.31508,42.090398 C 513.97571,42.597166 512.85508,42.222727 512.6217,42.786219 C 511.54577,45.384027 505.12715,51.166336 504.81368,51.099172 L 500.2077,53.186643 L 500.95894,53.457584 L 500.97744,54.214988 L 501.62401,54.196478 L 501.59321,54.781461 L 502.60924,54.781461 L 501.94421,55.32335 L 503.08954,55.34179 L 502.23978,56.080719 L 503.40359,56.185402 L 502.47377,57.084432 L 503.45901,57.189115 L 502.66466,57.644783 L 503.22502,57.804885 L 501.82105,58.630028 L 503.41503,59.458676 C 502.63149,59.22843 501.92094,59.217036 501.25454,59.338161 L 501.6979,60.26798 C 498.94781,60.035266 496.90679,60.31895 495.68795,60.717498 C 494.75997,61.020917 494.40842,61.200806 494.34556,61.271693 C 494.43636,61.083159 494.54268,60.886772 494.6596,60.686711 C 494.48415,60.986722 494.32676,61.277793 494.21624,61.54879 C 494.21624,61.55089 494.21624,61.55299 494.21624,61.55509 C 494.03376,62.004433 493.96759,62.399044 494.09925,62.700423 C 494.11245,62.730713 494.12485,62.757633 494.14235,62.786633 C 494.14235,62.788733 494.14035,62.791533 494.14235,62.792933 C 494.15915,62.820493 494.18335,62.847973 494.20395,62.872983 C 493.27891,62.544652 492.71979,61.984182 492.57217,61.161136 C 492.56007,61.095226 492.54817,61.027243 492.54137,60.957926 C 492.52927,60.828738 492.52857,60.692615 492.53537,60.551515 L 492.52937,60.551515 C 492.53137,60.533775 492.53337,60.508045 492.53537,60.489955 C 492.54137,60.406145 492.54797,60.319307 492.55997,60.231326 C 492.59217,59.879338 492.62337,59.468993 492.65237,58.851996 C 492.73047,58.423119 492.87709,58.00497 493.10188,57.595817 C 493.09988,57.596217 493.09788,57.595424 493.09588,57.595817 C 490.99978,57.908828 489.00209,58.558211 487.37535,59.763346 C 484.5116,61.884858 476.13812,76.352547 476.99341,77.491457 C 477.04931,77.565907 477.06451,77.91497 477.07341,78.365856 C 477.07941,78.632681 477.73801,77.612428 477.65224,77.897869 C 477.60554,78.053224 477.10229,79.532532 477.12884,79.683611 C 477.24996,80.373199 477.22824,80.925921 477.45519,80.84127 C 477.9805,80.645381 479.20969,77.932688 479.53036,77.349837 C 479.90431,76.670087 478.60693,80.30147 479.27173,80.31787 C 480.24394,80.34185 482.40191,75.837007 482.56611,74.504963 C 482.59361,74.282205 482.68319,74.318104 482.65851,74.695846 C 482.56281,76.158887 481.6691,80.978311 482.12278,80.736594 C 485.34362,79.020491 484.25779,75.125136 485.01077,74.264809 C 485.45462,73.757684 484.81106,81.65056 485.3248,81.32774 C 485.93748,80.942749 486.22388,80.380708 486.53788,79.923778 C 486.58678,79.852698 486.00683,79.22091 486.05758,79.154048 C 486.11668,79.076178 486.83442,79.614526 486.87655,79.535828 C 486.98855,79.326624 487.06503,79.08837 487.08592,78.876958 C 487.09712,78.762655 486.2876,78.117184 486.3162,78.008708 C 486.3444,77.901732 487.26174,78.552406 487.28297,78.445921 C 487.54859,77.113127 487.41723,75.708885 487.66475,74.899062 C 488.12877,73.380889 488.31025,79.80815 488.69924,80.003815 C 489.08248,80.196584 489.60799,79.985095 490.11552,78.636797 C 490.13952,78.573127 489.47614,78.089909 489.49975,78.021027 C 489.52525,77.946597 490.23669,78.285973 490.2633,78.205754 C 490.42812,77.709272 490.5922,77.038447 490.74361,76.235278 C 490.97841,74.989841 491.19475,77.870264 491.96284,77.596154 C 492.29534,77.477483 492.98556,76.586418 493.56385,75.601047 C 493.75789,75.270416 494.35496,75.583867 494.65993,75.385511 C 495.15273,75.064837 495.26818,74.273497 495.50355,74.172453 C 495.80046,74.044962 496.37896,74.238223 496.71047,74.080073 C 497.0971,73.895605 497.23442,73.35366 497.45555,73.07021 C 497.6391,72.834951 498.55881,73.13871 498.97035,72.922427 C 499.4142,72.689138 499.34363,71.933719 499.45065,71.672411 C 499.62466,71.247573 500.08823,71.398813 500.479,71.216736 C 501.04744,70.951867 501.57902,70.453674 501.79059,70.379282 C 502.46642,70.141659 502.75376,70.348362 502.86204,70.194555 C 502.94724,70.073605 502.87544,69.610421 503.38546,69.424831 C 503.80617,69.271713 503.95843,68.96021 504.27217,68.889112 C 504.62957,68.808112 505.06684,69.048191 505.43597,68.938402 C 505.63485,68.879222 505.76837,68.560731 505.95939,68.390363 C 506.12944,68.238682 506.37067,68.290393 506.59979,68.211786 C 506.82141,68.135756 506.87101,67.697256 507.04315,67.552908 C 507.13245,67.478058 507.37474,67.6907 507.43725,67.632958 C 507.67784,67.410699 507.83351,67.201635 508.07765,67.091083 C 508.24985,67.013093 508.5353,67.019673 508.62568,66.937137 C 508.80936,66.769434 508.59198,66.497252 508.71188,66.438362 C 508.95719,66.317896 509.20446,66.292949 509.4816,66.18589 C 509.59611,66.14165 509.84573,66.26436 509.95574,66.22284 C 510.27397,66.102724 509.94294,65.891248 510.20822,65.754852 C 510.41094,65.650632 510.77453,65.684812 511.12571,65.619382 C 511.48045,65.553262 511.81331,65.338982 512.03091,65.237602 C 512.31625,65.104655 511.70014,64.708179 511.98171,64.529461 C 512.47506,64.21624 513.01056,64.533661 513.40414,64.369359 C 513.68105,64.253731 512.49143,63.603296 512.87457,63.341021 C 513.10136,63.185778 513.87733,63.372571 514.34011,63.310241 C 514.76408,63.253171 514.87752,62.941839 515.03595,62.928461 C 515.47103,62.891721 519.15055,63.11506 519.28479,63.008511 C 520.50467,62.040171 519.28679,61.919285 519.44489,61.789283 C 520.15244,61.210226 521.58786,61.039802 521.1752,60.188268 L 523.13336,60.003534 L 520.44244,58.77815 L 521.78483,58.63036 L 521.53235,58.11311 L 522.12967,57.115553 C 522.12967,57.115553 523.80809,57.184543 524.37107,56.672197 C 524.62722,56.439076 524.39887,55.894347 524.66665,55.674647 C 524.93714,55.452688 525.44295,55.798085 525.71346,55.576127 C 525.98121,55.35642 525.70746,54.747955 526.00903,54.57857 C 526.2933,54.41919 526.68,55.002209 526.95733,54.831036 C 527.23138,54.661874 526.89803,54.077769 527.15437,53.882742 C 527.36598,53.721721 527.75082,54.109629 527.94871,53.932032 C 528.22056,53.688029 527.70302,53.042769 528.00421,52.835955 C 528.17715,52.717172 528.42244,53.14851 528.6015,53.039165 C 528.78771,52.925465 528.5345,52.534661 528.7,52.3926 C 528.87626,52.241395 529.206,52.526373 529.39584,52.3926 C 529.5974,52.250552 529.41804,51.799638 529.64215,51.696778 C 529.85212,51.600398 530.10159,52.0786 530.2887,51.943088 C 530.55772,51.748257 529.99237,51.167559 530.2395,50.945531 C 530.47683,50.732267 530.94523,51.306753 531.18779,51.099477 C 531.40218,50.916285 531.01271,50.470756 531.18779,50.249709 C 531.36766,50.022619 531.85155,50.279789 532.03141,50.052656 C 532.19618,49.844616 531.8544,49.45607 532.03141,49.258315 C 532.13157,49.14639 532.3702,49.304385 532.48091,49.202925 C 532.7303,48.974299 532.48072,48.486399 532.67796,48.211531 C 532.96825,47.807019 533.98593,47.964121 533.97108,47.466446 C 533.96208,47.16985 533.21728,47.36013 533.17675,47.066191 C 533.10935,46.577646 534.15058,46.54643 534.27283,46.068641 C 534.39894,45.575685 533.46889,45.034897 533.77404,44.627728 C 533.98319,44.348674 534.49853,44.810092 534.82085,44.677018 C 535.29836,44.479832 535.87325,44.04815 535.86152,43.531678 C 535.85352,43.156447 534.99444,43.105543 535.06717,42.73733 C 535.16017,42.266335 536.65614,41.677412 535.21495,41.240998 C 534.6334,41.064902 537.12365,40.132574 536.56351,40.052551 C 536.16555,39.820194 534.56853,40.221193 534.87012,39.849356 C 535.88214,39.384909 538.94246,38.922145 537.90589,38.457699 C 536.21399,38.457699 533.17955,38.542629 532.82575,38.457699 C 532.22647,38.345086 531.05346,37.660722 530.05476,37.5402 C 528.29424,37.327756 526.77201,37.656816 527.70252,37.312366 C 531.47705,35.857086 535.19211,34.403132 534.51914,33.131261 C 534.28875,32.760679 524.69927,36.879289 525.4611,36.216289 C 527.85556,34.313412 531.82404,33.539861 532.03756,30.37875 C 532.07796,29.684331 521.83903,36.643357 522.72706,35.871453 C 526.89391,32.587598 528.48286,30.250046 528.05351,28.654584 C 528.05151,28.648984 528.04751,28.643294 528.04131,28.642244 L 528.04129,28.642258 L 528.04067,28.641897 z M 496.03275,58.543869 C 495.96395,58.598069 495.89257,58.664461 495.81724,58.734759 C 495.89244,58.664459 495.96385,58.598124 496.03275,58.543869 z M 495.81724,58.734759 C 495.74244,58.804529 495.66144,58.878145 495.58325,58.956443 C 495.66185,58.877493 495.74202,58.805064 495.81724,58.734759 z M 495.10909,59.430587 C 495.03909,59.498177 494.97155,59.558793 494.90589,59.615314 C 494.97049,59.559854 495.04024,59.496762 495.10909,59.430587 z M 494.59184,59.836998 C 494.53384,59.863078 494.48323,59.873738 494.43791,59.867778 C 494.48181,59.873378 494.53611,59.861478 494.59184,59.836998 z"
         id="path2844"
         style="fill:#231911;fill-opacity:1;stroke-width:1px;display:inline" />
      <path
         d="M 521.59353,58.014306 L 521.53193,58.112826 L 521.78438,58.630084 L 520.44199,58.777867 L 523.13294,60.003258 L 521.17477,60.187992 C 521.53902,60.939653 520.46555,61.1645 519.72155,61.604273 L 524.2167,62.269299 L 524.71546,63.137542 C 525.24601,63.324281 526.06981,63.354417 526.7352,63.599373 C 529.55694,64.638172 532.90852,66.189202 533.05921,66.074787 L 533.39788,65.828478 C 533.47868,65.741088 533.93298,65.812138 534.19838,65.803798 C 534.77303,65.845448 533.86139,65.306734 534.01982,65.280391 C 534.32778,65.229211 534.89421,65.101821 534.89421,65.101821 C 535.50128,64.916329 533.13673,64.075958 533.25009,64.085795 C 533.5174,64.109005 534.52301,63.92544 534.51858,63.882586 C 534.48748,63.581628 532.91895,63.092746 532.75132,62.965086 C 532.50968,62.781082 533.27241,62.639855 533.50256,62.44168 C 533.71139,62.261833 532.03089,62.08925 531.00868,61.6227 C 530.47986,61.57811 532.44905,61.387764 532.08012,61.099294 C 529.04699,60.466597 525.95649,60.496726 522.98515,59.184237 C 522.62343,59.043852 522.11641,58.546121 521.5935,58.014266 L 521.59353,58.014306 z"
         id="path2862"
         style="fill:#f2f2f2;fill-opacity:1;stroke-width:1px;display:inline" />
      <path
         d="M 519.72157,61.604272 C 519.62267,61.662682 519.52744,61.721092 519.44447,61.788999 C 519.28561,61.919007 520.50427,62.039887 519.28437,63.008234 C 519.24197,63.041884 518.80435,63.034104 518.26835,63.020504 C 518.71965,63.061944 520.3995,64.158608 521.10091,64.208951 C 522.35744,64.299141 524.36161,64.008778 524.39529,63.784064 C 524.41419,63.41508 524.64374,63.02591 524.45079,62.681831 L 524.45079,62.675531 L 524.2168,62.269105 L 519.72165,61.604071 L 519.72157,61.604272 z"
         id="path2869"
         style="fill:#ca903e;fill-opacity:1;stroke-width:1px;display:inline" />
      <path
         d="M 496.04702,56.849614 C 496.03592,56.847514 496.01382,56.848912 495.98542,56.855914 C 495.63931,56.950254 493.99978,58.173493 493.94105,58.653975 C 493.93065,58.739365 493.96585,58.896541 494.05806,58.894129 C 494.08816,58.879689 494.05406,58.778634 494.06406,58.721707 C 494.08466,58.609354 494.2114,58.433356 494.39041,58.235251 C 494.39241,58.232451 494.40041,58.226151 494.40261,58.222981 C 494.5312,58.059471 494.97779,57.533835 495.15385,57.508684 C 495.52175,57.195835 495.86876,56.942402 495.9913,56.905233 C 496.0408,56.889883 496.08,56.854963 496.0468,56.849843 L 496.04702,56.849614 z"
         id="path3651"
         style="fill:#000000;fill-opacity:1;stroke:none;display:inline;filter:url(#filter4633)" />
      <path
         d="M 495.30651,58.121618 C 495.26251,58.32461 495.13829,58.464918 494.98629,58.565001 C 494.76345,58.711719 494.10563,58.428535 494.25582,58.235149 C 494.37353,58.083594 495.10838,57.367862 495.28795,57.34222 C 495.50632,57.31102 495.30655,57.901041 495.30655,58.121618 L 495.30651,58.121618 z"
         id="path3655"
         style="fill:#000000;fill-opacity:1;fill-rule:nonzero;stroke:none;stroke-width:6;marker:none;visibility:visible;display:inline;overflow:visible;filter:url(#filter4641)" />
      <path
         d="M 495.11312,58.094117 C 495.08732,58.213118 495.01452,58.295371 494.92539,58.354044 C 494.79476,58.440054 494.48698,58.274044 494.57503,58.160673 C 494.64403,58.071823 494.91911,57.748417 495.02438,57.733385 C 495.1524,57.715095 495.11308,57.964807 495.11308,58.094117 L 495.11312,58.094117 z"
         id="path4528"
         style="fill:#f4f613;fill-opacity:1;fill-rule:nonzero;stroke:none;stroke-width:6;marker:none;visibility:visible;display:inline;overflow:visible;filter:url(#filter4562)" />
      <path
         d="M 494.82421,57.984375 C 494.96871,57.987575 495.02202,58.245038 494.85941,58.289062 C 494.79421,58.267842 494.74647,58.023437 494.82421,57.984375 z"
         id="path4566"
         style="fill:#000000;fill-opacity:1;fill-rule:nonzero;stroke:none;stroke-width:6;marker:none;visibility:visible;display:inline;overflow:visible;filter:url(#filter4625)" />
    </g>
    <rect
       width="846.50775"
       height="307.08636"
       rx="0.66861981"
       ry="0.50980395"
       x="-46.467018"
       y="358.31973"
       id="rect2814"
       style="fill:#ecd36f;fill-opacity:1;stroke:none;stroke-width:2.74000001;marker:none;visibility:visible;display:inline;overflow:visible" />
    <path
       d="M 307.52901,371.21372 C 319.86642,358.34224 330.5543,343.41587 344.11594,332.04201 C 350.97042,327.38497 359.33792,325.02658 367.2061,327.66597 C 375.07378,324.43183 381.01782,332.62914 388.84567,332.54134 C 398.56089,334.78745 408.23432,340.16524 418.4182,337.04246 C 436.91685,331.56748 455.52708,340.37539 474.22144,339.7666 C 485.51476,340.63904 496.98911,342.26841 507.91859,338.00296 C 519.94169,333.66985 532.74553,332.68219 544.63573,328.05051 C 555.32859,327.26873 566.01874,326.79738 576.03596,322.28679 C 585.33573,321.2198 594.39824,322.33379 603.22522,325.61282 C 614.88874,326.99267 626.78469,327.37401 637.37939,333.3457 C 643.08015,337.1439 649.20123,336.56351 655.43587,334.80031 C 666.54994,332.19828 678.26308,332.15046 689.43386,332.98677 C 697.14395,336.95712 705.66309,339.70086 710.57366,347.72059 C 713.754,354.51854 719.96539,354.06092 726.14156,353.58484 C 733.95361,353.7729 741.8567,351.62523 749.2399,355.36437 C 755.77433,353.232 758.67196,345.77627 765.63374,344.64064 C 772.39045,337.62333 782.7644,339.05858 790.80099,334.31947 C 796.36071,329.29206 802.498,325.40331 809.68019,323.56328 C 810.17844,333.12164 811.74869,342.36336 816.45679,350.67817 C 818.24286,358.89336 815.5729,367.99419 815.05219,376.47952 C 816.66276,386.2886 806.68002,381.93446 800.91689,382.7353 C 759.57153,381.95814 718.17434,382.60162 676.86308,380.89 C 637.36829,378.34175 597.87468,374.64041 558.37917,372.81523 C 516.92329,375.49468 475.46415,378.9846 434.01032,381.1584 C 391.84989,377.8435 349.68944,374.5286 307.52901,371.2137"
       id="path3670"
       style="fill:#716567;fill-opacity:1;stroke-width:1px;display:inline" />
    <path
       d="M 801.30354,402.14285 C 792.05955,402.14485 782.27922,402.66212 772.24345,401.70383 C 693.61022,394.19532 698.71109,395.07977 755.19403,401.11065 C 755.85314,401.18105 753.86551,401.12415 753.19957,401.12875 C 709.3227,401.42731 660.61916,395.28695 616.21691,391.10038 C 615.15742,391.00048 612.56125,391.07748 613.27479,390.48815 C 620.90755,384.18472 614.33407,387.07877 609.49935,388.82797 C 606.84493,389.78834 604.65047,386.14422 601.48082,385.87598 C 599.15327,385.67899 597.13337,387.18167 594.82569,386.99162 C 562.9576,384.36708 534.17196,383.25177 508.88033,383.28318 C 488.45545,383.30858 468.78539,381.28906 450.4144,380.46986 C 418.4998,379.04673 390.50576,378.00286 369.28572,374.28574 L 486.18699,333.57146 C 487.67043,333.05481 495.12867,336.62811 500.26596,337.88848 C 509.92154,340.25737 525.27874,338.81463 542.46441,342.9431 C 578.6153,351.62753 624.89975,366.00472 657.56267,359.28575 C 668.90806,356.95192 678.57076,351.6735 687.13441,353.1809 C 704.78027,356.28699 703.43004,350.66034 709.39227,349.78231 C 726.46217,345.18926 771.70836,366.67087 804.28571,376.4286 L 801.30354,402.14288 L 801.30354,402.14285 z"
       id="path3128"
       style="fill:#775b50;fill-opacity:1;stroke-width:1px" />
    <path
       d="M 91.923882,382.56339 C 81.822356,366.40095 73.236059,360.59258 73.236059,360.59258 C 45.484372,362.59182 -10.423857,322.25755 -19.192898,324.98469 C -32.860671,326.69331 -51.576177,309.8966 -58.588848,345.18775 L -81.822356,421.95934 C -74.844528,392.97609 -57.416676,381.11927 -35.1004,377.27402 C -32.98285,376.90915 -24.002754,373.90164 -21.801926,373.67325 C -19.954491,373.48154 -24.89792,376.04995 -22.997963,375.94431 C -7.7044725,375.094 9.1994693,376.88304 26.248062,378.90914 C 28.873686,379.22118 7.5116176,371.20508 10.138749,371.51959 C 12.916798,371.85216 39.68382,380.51497 42.451237,380.83012 C 59.7947,382.80516 76.805032,384.23424 91.923882,382.56339 L 91.923882,382.56339 z"
       id="path3666"
       style="fill:#4e372a;fill-opacity:1;stroke:none" />
    <path
       d="M 586.07143,400.35714 C 588.07814,401.7411 594.9998,401.72362 593.93385,402.50718 C 587.65332,407.12385 535.07233,405.45304 492.705,403.94227 C 483.70917,403.62149 474.2092,400.65525 466.78572,400.71428 C 459.84473,400.76948 452.89166,401.93734 445.93394,401.20789 C 437.59304,400.33343 429.13507,397.50503 419.19757,397.16364 C 413.83,396.97925 396.75052,397.77394 391.2123,397.52819 C 355.78829,395.95635 325.86234,394.91359 289.41126,391.07162 C 271.98857,389.23525 253.24268,393.56937 237.62302,393.29856 C 218.98923,392.97549 203.78584,391.40246 190.146,391.11568 C 178.78169,390.87675 166.52414,395.70492 160.10724,395.50494 C 153.9891,395.31427 150.42558,395.14415 150,395 C 143.44009,392.33177 128.01759,388.71028 130.32028,386.99531 C 141.57043,376.99585 160.46853,378.94438 120.70657,383.47472 C 103.08765,385.12323 82.140286,368.3011 62.857143,360.71429 C 62.857143,360.71429 105.5449,355.33985 126.42857,350.35714 C 152.47161,344.14344 202.997,326.08937 202.997,326.08937 C 205.54124,325.01037 227.59659,328.1221 230.96757,326.67798 C 235.47053,322.15746 245.87179,324.37403 247.48313,318.70862 C 252.25,314.03548 258.45923,312.48046 264.02382,309.11987 C 265.60042,308.16773 266.92529,309.8918 268.07551,310.13203 C 269.60542,310.45156 282.46625,312.00602 292.5798,316.36507 C 299.80548,319.47942 302.12801,325.3999 307.90336,325.71684 C 316.78118,326.20404 313.96048,334.20031 319.94136,332.74961 L 323.60503,331.86097 L 355.35714,344.28571 L 387.5,372.5 C 387.5,372.5 407.60921,383.85271 439.0554,388.47673 C 443.16968,389.08171 448.47885,381.39409 454.28261,381.41966 C 463.3753,381.45976 473.68195,381.14643 482.50952,381.60077 C 490.66994,382.02078 496.31639,394.34677 499.82143,396.96429 C 505.93815,401.53217 510.94689,381.03171 515.66775,371.67375 C 517.56308,367.91673 522.85714,370 522.85714,370 C 568.05697,383.1351 568.18248,390.6359 586.07143,400.35714 L 586.07143,400.35714 z"
       id="path3124"
       style="fill:#7b5741;fill-opacity:1;stroke-width:1px" />
    <path
       d="M 581.27321,400.35714 C 583.27992,401.7411 594.9998,401.72362 593.93385,402.50718 C 587.65332,407.12385 535.07233,405.45304 492.705,403.94227 C 483.70917,403.62149 474.2092,400.65525 466.78572,400.71428 C 459.84473,400.76948 452.89166,401.93734 445.93394,401.20789 C 437.59304,400.33343 429.13507,397.50503 419.19757,397.16364 C 413.83,396.97925 396.75052,397.77394 391.2123,397.52819 C 355.78829,395.95635 325.86234,394.91359 289.41126,391.07162 C 271.98857,389.23525 253.24268,393.56937 237.62302,393.29856 C 218.98923,392.97549 203.78584,391.40246 190.146,391.11568 C 178.78169,390.87675 166.52414,395.70492 160.10724,395.50494 C 153.9891,395.31427 150.42558,395.14415 150,395 C 143.44009,392.33177 128.01759,388.71028 130.32028,386.99531 C 141.57043,376.99585 160.46853,378.94438 120.70657,383.47472 C 103.08765,385.12323 82.140286,368.3011 62.857143,360.71429 C 62.857143,360.71429 106.27205,357.75104 126.42857,350.35714 C 221.16198,315.60663 158.55029,370.53608 158.55029,370.53608 C 161.09453,369.45708 216.73745,340.49647 220.10843,339.05235 C 197.31889,427.7383 241.86648,344.38505 248.74582,320.72893 C 253.51269,316.05579 241.0341,373.34215 246.59869,369.98156 C 248.17529,369.02942 259.51851,354.51449 259.99429,355.58889 C 263.26881,362.98338 258.38944,435.07415 292.5798,316.36507 C 293.64146,312.67897 308.42526,408.30274 311.43889,351.72827 C 311.91184,342.84968 309.98584,345.19468 314.8906,348.91205 L 342.04031,369.48915 L 355.35714,356.91262 L 387.5,372.5 C 387.5,372.5 404.95756,388.3984 436.40375,393.02242 C 440.51803,393.6274 448.47885,396.16757 454.28261,396.19314 C 463.3753,396.23324 458.02459,384.42943 466.85216,384.88377 C 475.01258,385.30378 495.0537,396.87215 498.55874,399.48967 C 504.67546,404.05755 514.48242,393.40608 519.20328,384.04812 C 521.09861,380.2911 536.4942,380.6066 536.4942,380.6066 C 540.02185,381.63174 545.62818,380.49349 545.96402,383.39906 C 547.14932,393.65401 548.61329,398.55617 552.34534,385.35054 C 566.4719,388.89485 571.22652,394.52405 581.27321,400.35714 L 581.27321,400.35714 z"
       id="path4568"
       style="fill:url(#radialGradient2474);fill-opacity:1;stroke-width:1px" />
    <path
       d="M 265.27679,308.84375 C 264.91289,308.81225 264.54599,308.88695 264.15179,309.125 C 258.58719,312.48559 252.38739,314.04561 247.62049,318.71875 C 246.00909,324.38416 235.59229,322.16698 231.08929,326.6875 C 227.71829,328.13162 205.66489,325.01475 203.12049,326.09375 C 203.12049,326.09375 184.19129,332.83409 163.55809,339.5 C 200.87429,333.52407 158.68309,370.53125 158.68309,370.53125 C 161.22739,369.45225 216.87459,340.50662 220.24549,339.0625 C 197.45589,427.74845 241.99109,344.37487 248.87049,320.71875 C 253.63739,316.04561 241.14969,373.32934 246.71429,369.96875 C 248.29089,369.01661 259.64469,354.51935 260.12049,355.59375 C 263.39499,362.98824 258.52389,435.08408 292.71429,316.375 C 282.60069,312.01595 269.74419,310.44453 268.21429,310.125 C 267.35159,309.94483 266.36839,308.93822 265.27679,308.84375 z M 292.90179,316.46875 C 294.96669,320.40455 308.66919,405.95101 311.55809,351.71875 C 312.03099,342.84016 310.12199,345.18888 315.02679,348.90625 L 342.18309,369.5 L 355.49549,356.90625 L 387.62049,372.5 L 355.49549,344.28125 L 323.74549,331.875 L 320.05809,332.75 C 314.07709,334.2007 316.90459,326.20595 308.02679,325.71875 C 302.30509,325.40475 299.97099,319.60507 292.90179,316.46875 z M 387.62049,372.5 C 387.62049,372.5 405.08059,388.40723 436.52679,393.03125 C 440.64109,393.63623 448.59799,396.16193 454.40179,396.1875 C 463.49449,396.2276 458.16789,384.42066 466.99549,384.875 C 475.15589,385.29501 495.17809,396.88248 498.68309,399.5 C 504.79979,404.06788 514.61849,393.42046 519.33929,384.0625 C 521.23469,380.30548 536.62049,380.59375 536.62049,380.59375 C 540.14809,381.61889 545.75339,380.50065 546.08929,383.40625 C 547.27459,393.6612 548.73219,398.54938 552.46429,385.34375 C 566.59089,388.88806 571.35509,394.51066 581.40179,400.34375 C 583.34579,401.68446 594.40039,401.72484 594.12049,402.4375 C 594.68179,401.72484 588.15829,401.68446 586.21429,400.34375 C 568.32529,390.62251 568.19539,383.1351 522.99549,370 C 522.99549,370 517.70329,367.93048 515.80809,371.6875 C 511.08709,381.04546 506.08099,401.53663 499.96429,396.96875 C 496.45919,394.35123 490.81219,382.01376 482.65179,381.59375 C 473.82419,381.13941 463.49449,381.44635 454.40179,381.40625 C 448.59799,381.38065 443.29719,389.07373 439.18309,388.46875 C 407.73689,383.84473 387.62049,372.5 387.62049,372.5 z M 126.55809,350.34375 C 105.67437,355.32646 62.995535,360.71875 62.995535,360.71875 C 62.995535,360.71875 106.40152,357.73765 126.55809,350.34375 z"
       id="path4578"
       style="opacity:0.5;fill:url(#radialGradient2471);fill-opacity:1;stroke:none" />
    <g
       id="g3424">
      <path
         d="M 264.78125,309.375 C 259.2831,312.72285 252.50534,314.43276 248,319.15625 C 245.91263,323.90196 239.67824,323.26176 235.5,324.8125 C 232.8187,325.31406 231.2304,328.11498 228.28125,327.5625 C 219.9375,327.77485 211.59384,325.97027 203.28125,326.5625 C 191.70097,330.65114 180.08043,334.62442 168.40625,338.4375 C 172.37345,338.13823 178.5607,338.18355 179.4375,343.09375 C 179.32208,349.95708 173.82351,355.18446 169.76937,360.2128 C 167.28672,363.0823 164.13345,366.05099 161.6875,368.5 C 181.49373,358.44453 201.13467,348.06311 221,338.125 C 218.17617,350.25757 214.45835,362.42215 214.34375,374.96875 C 214.07256,376.8514 215.50511,379.75337 217.53125,377.84375 C 224.68161,371.38792 228.89473,362.31741 233.69097,353.96227 C 239.37889,343.09409 244.64125,331.95871 248.5625,320.34375 C 250.56603,318.8747 250.66092,322.66533 250.46875,323.84375 C 249.63941,338.64515 245.79757,353.21591 245.84375,368.0625 C 245.74435,369.31339 246.52452,370.3248 247.34375,368.6875 C 251.67792,364.31153 255.12805,358.87456 259.84375,355.03125 C 261.62328,355.61859 260.98097,358.54581 261.48153,360.08806 C 262.50481,367.59027 261.92834,375.65817 264.9375,382.625 C 266.49074,385.00818 268.77135,381.69108 269.59375,380.34375 C 276.93855,367.26485 280.97927,352.51143 285.67634,338.26792 C 287.9101,331.08718 290.01881,323.87329 292.125,316.65625 C 284.19366,313.23573 275.62795,312.06109 267.28125,310.3125 C 266.52209,309.85096 265.73662,309.21103 264.78125,309.375 z M 293.875,317.96875 C 297.91952,334.13396 299.94351,350.97453 305.95833,366.57953 C 306.36126,367.46675 307.68802,370.40581 308.65625,368.4375 C 311.05891,361.14572 311.05582,353.0867 311.09375,345.40625 C 312.63029,344.42222 313.51004,347.76967 314.90625,348.15625 C 323.97803,355.06705 333.07488,361.94538 342.15625,368.84375 C 346.57592,364.66997 350.97186,360.47012 355.40625,356.3125 C 365.11081,361.0285 374.82355,365.72789 384.53125,370.4375 C 374.5753,361.85305 364.85874,352.87498 354.75306,344.53672 C 344.40829,340.49323 334.06352,336.44974 323.71875,332.40625 C 320.87976,333.31548 316.58594,334.5466 315.15625,330.9375 C 313.7644,327.67531 310.40381,326.02332 306.90625,326.09375 C 301.55989,324.94463 298.58597,319.58962 293.71875,317.40625 L 293.85257,317.88801 L 293.87497,317.96871 L 293.875,317.96875 z M 107.90625,354.5625 C 102.25507,355.57567 96.578422,356.42904 90.90625,357.3125 C 97.227228,356.47594 103.53569,355.50747 109.78125,354.21875 C 109.15625,354.33333 108.53125,354.44792 107.90625,354.5625 z M 519.28125,369.96875 C 515.21906,370.37969 515.11861,375.70163 513.40805,378.52674 C 510.5551,384.93478 508.97862,392.46001 503.8125,397.40625 C 500.81047,399.62352 498.05059,396.0626 496.53125,393.84375 C 492.43966,388.33677 487.74855,381.15887 479.93821,381.99354 C 470.92595,381.816 461.86559,381.68205 452.875,382.09375 C 447.6823,383.1267 444.47954,388.92298 439.125,388.96875 C 422.97028,386.64387 406.31854,381.82255 391.96875,375.25 C 405.96716,385.18159 422.54629,390.62274 439.32065,393.05745 C 445.1136,394.01261 451.11919,396.63776 457,395.21875 C 461.41858,393.09443 459.62221,385.3245 465.125,384.46875 C 472.33686,384.17909 478.90113,388.22997 485.25735,391.16578 C 490.61796,393.68293 495.57111,397.06252 500.65625,399.9375 C 506.3711,400.73332 510.64209,395.4104 513.9375,391.59375 C 516.42929,388.95543 517.58506,385.17828 519.96875,382.65625 C 525.18183,379.94591 531.47987,380.1072 537.2364,380.20956 C 540.16645,381.22884 544.99946,379.6137 546.53125,383.03125 C 547.23269,386.21785 546.90987,390.26715 548.78125,392.8125 C 550.77059,390.68196 551.19446,387.44063 552.125,384.71875 C 561.9828,386.80535 570.37863,392.37465 578.54812,398.01641 C 580.59089,399.72606 583.84416,400.96215 585.96875,400.78125 C 574.79142,394.56659 565.31984,385.85923 553.41916,381.16955 C 542.82464,376.58833 531.74006,372.85735 520.625,369.96875 C 520.17928,369.94185 519.72512,369.89635 519.28125,369.96875 z"
         id="path3426"
         style="opacity:0.04545498;fill:url(#radialGradient3432);fill-opacity:1;stroke:none" />
      <path
         d="M 264.75,309.28125 C 259.18759,312.67927 252.5412,314.31765 247.90625,319.09375 C 246.12029,323.42745 240.46655,323.23624 236.6875,324.34375 C 234.48288,324.76235 232.54766,326.0054 230.8125,327.21875 C 221.70949,328.16774 212.5806,325.86578 203.46875,326.40625 C 191.56047,330.58242 179.62288,334.67906 167.625,338.59375 C 171.50353,338.35841 176.97482,337.90874 179.03125,341.9375 C 180.33628,346.62772 176.73197,350.95324 174.28125,354.625 C 170.30607,359.81352 165.77323,364.49978 161,368.96875 C 180.97447,358.81439 200.83368,348.33247 220.84375,338.3125 C 218.0185,349.98895 214.7453,361.66356 214.21875,373.75 C 214.31235,375.38352 214.15415,378.98742 216.53125,378.5 C 221.14468,375.76481 223.69478,370.76121 226.65625,366.4375 C 235.06241,352.65798 242.18293,338.14504 247.75,322.96875 C 247.98084,321.9518 248.65443,319.03354 250.03125,320.46875 C 251.01036,325.06724 249.66753,329.88761 249.30154,334.52514 C 248.07958,345.65548 245.63588,356.73274 245.73711,367.95941 C 245.66951,368.91658 246.2289,370.55989 247.15784,369.02966 C 251.58043,364.57924 255.10152,359.06543 259.875,355.125 C 261.32541,355.53588 260.80082,357.95905 261.28125,359.125 C 262.34256,366.7887 261.83045,374.90034 264.59375,382.15625 C 265.04672,384.10369 267.41623,383.82482 268.1875,382.34375 C 273.28122,375.66029 275.68648,367.37326 278.75383,359.58685 C 283.76439,345.43197 288.02818,331.03015 292.25,316.625 C 284.42225,313.25906 276.0009,311.87104 267.71875,310.40625 C 266.76483,309.99459 265.88175,309.05734 264.75,309.28125 L 264.75,309.28125 z M 293.78125,318 C 297.77747,333.97929 299.78954,350.51569 305.61434,366.02212 C 306.22134,366.98195 306.79429,369.55651 308.28125,369.125 C 310.38252,365.75414 310.2344,361.18768 310.77954,357.20978 C 311.22504,353.29161 311.13541,349.18051 311.3125,345.34375 C 312.6301,344.94948 313.20705,347.48796 314.46875,347.9375 C 323.65801,354.99855 332.93384,361.94977 342.15625,368.96875 C 346.58647,364.79515 350.9917,360.59379 355.4375,356.4375 C 365.34257,361.18338 375.20506,366.02847 385.09375,370.8125 C 375.0183,362.07494 365.13271,353.02236 354.93988,344.47956 C 344.52242,340.41346 334.10496,336.34735 323.6875,332.28125 C 321.09467,332.87608 317.32875,334.57006 315.625,331.5 C 314.19872,328.32605 311.23094,325.87205 307.60069,326.10151 C 301.81665,325.33194 298.64551,319.37512 293.5625,317.21875 C 293.6354,317.47917 293.70833,317.73958 293.78125,318 L 293.78125,318 z M 115.5625,353.09375 C 116.47193,352.9344 116.89898,352.76529 115.5625,353.09375 z M 115.5625,353.09375 C 104.63814,355.11906 93.655129,356.85266 82.65625,358.4375 C 93.697222,357.15226 104.72055,355.5784 115.5625,353.09375 z M 519.25,369.875 C 515.57912,370.14785 515.2603,374.65722 513.80125,377.29371 C 510.89407,383.88541 509.17694,391.3814 504.34375,396.84375 C 502.56674,398.86936 499.491,397.92932 498.25,395.8125 C 493.80042,390.65139 490.39489,383.55778 483.34375,382.0625 C 473.22782,381.60419 463.05703,381.64296 452.9506,381.98 C 447.91799,382.95119 444.74858,388.31576 439.5625,388.90628 C 422.89764,386.539 406.24604,381.75467 391.09375,374.75003 C 405.04607,384.84639 421.76269,390.61952 438.73451,393.02301 C 444.54999,394.14369 450.43591,396.34286 456.46875,395.53128 C 461.48918,394.11702 459.51242,385.78603 464.78125,384.68753 C 469.86504,383.8557 474.71815,386.59788 479.35137,388.39778 C 486.60143,391.67776 493.70025,395.77673 500.34375,399.93753 C 505.38644,401.07653 509.55562,396.62763 512.75,393.21878 C 515.54072,390.17102 517.40429,386.49901 519.59375,383.09378 C 524.1383,380.09461 530.08539,380.46007 535.3875,380.18753 C 538.40217,380.56052 541.62269,380.57525 544.59375,381.31253 C 547.5618,382.19559 546.38442,386.1571 547.21875,388.46878 C 547.62829,389.88161 547.53132,392.14223 548.84375,392.90628 C 550.81563,390.77991 551.25962,387.54701 552.1875,384.84378 C 561.02499,386.81557 568.88026,391.34518 576.17503,396.57505 C 579.32467,398.67428 582.42564,401.11229 586.375,401.00003 C 586.446,400.75895 583.68931,399.49745 582.84375,398.87503 C 573.48893,393.14035 565.07815,385.96198 554.91384,381.73987 C 543.91775,376.79352 532.38601,372.98672 520.75934,369.88792 C 520.25948,369.84582 519.74944,369.80672 519.25,369.87502 L 519.25,369.875 z M 391.0625,374.71875 C 391.1013,374.57768 390.62769,374.60794 391.0625,374.71875 z"
         id="path3434"
         style="opacity:0.04545498;fill:url(#radialGradient3440);fill-opacity:1;stroke:none" />
      <path
         d="M 265.28125,309.15625 C 263.20609,309.57484 261.5205,311.20427 259.48853,311.9121 C 255.37759,313.93436 250.89095,315.66448 247.8125,319.0625 C 246.33903,322.9469 241.41463,323.02916 237.9375,323.96875 C 235.32604,324.44237 232.91194,325.42601 230.90289,327.06362 C 225.2815,327.8988 219.44586,326.85482 213.75836,326.61989 C 210.18109,326.49005 206.40272,325.75486 202.9358,326.47471 C 190.94426,330.71099 178.90484,334.81002 166.8125,338.75 C 170.56453,338.48969 175.23401,337.98822 178.125,340.71875 C 180.60202,343.64088 178.51767,347.71174 176.875,350.5625 C 172.50786,357.65556 166.51567,363.59061 160.5,369.3125 C 180.60207,359.11935 200.52144,348.56614 220.6875,338.5 C 217.89638,350.00229 214.67976,361.5248 214.125,373.3625 C 214.25185,375.13835 213.89178,377.64195 215.65625,378.625 C 218.07615,378.634 219.54035,376.15509 221.12665,374.53295 C 228.21443,365.42383 233.54749,354.90516 238.65695,344.55777 C 242.42919,336.7312 246.00391,328.7528 248.6875,320.5 C 249.68536,319.41021 250.42804,321.18545 250.28125,322.09375 C 250.05163,331.91284 248.07023,341.59325 246.94133,351.33246 C 246.3481,357.17647 245.14245,363.18331 245.78125,369 C 245.98786,370.74282 247.41601,368.967 247.91587,368.38 C 251.89426,364.19076 255.31633,359.29679 259.5625,355.4375 C 260.77872,354.59148 260.6755,357.05341 260.96875,357.65625 C 262.1827,365.42888 261.73751,373.63864 264.08017,381.24729 C 264.42425,382.61375 265.78099,384.52895 267.3125,383.3125 C 270.65704,380.34739 272.31114,375.6167 274.21875,371.5625 C 281.58056,353.69987 286.9007,335.07859 292.34375,316.5625 C 284.53026,313.21538 276.08619,311.71257 267.75,310.3125 C 266.958,309.9466 266.07751,309.20689 265.28125,309.15625 L 265.28125,309.15625 z M 293.6875,318 C 297.37947,333.45602 299.68311,349.30151 304.84375,364.375 C 305.63325,366.08436 306.13331,368.46413 307.875,369.34375 C 309.43458,368.8345 309.41741,366.41945 309.90895,364.99533 C 310.96157,358.60904 311.43065,352.01594 311.28125,345.5 C 312.25479,344.80683 312.74705,346.84183 313.56822,347.24871 C 320.95721,353.2213 328.88975,358.9219 336.48959,364.79445 C 338.37848,366.22755 340.26736,367.66065 342.15625,369.09375 C 346.58185,364.90472 351.01914,360.72773 355.4375,356.53125 C 365.54984,361.44205 375.66704,366.34299 385.78125,371.25 C 375.64648,362.34306 365.50652,353.44166 355.375,344.53125 C 344.82292,340.41667 334.27083,336.30208 323.71875,332.1875 C 321.27855,332.58729 318.09362,334.31383 316.15625,332.0625 C 314.57324,329.58985 313.06252,326.734 309.83083,326.25367 C 307.01401,326.09716 304.09105,325.37801 301.93068,323.35292 C 299.20816,321.06799 296.62715,318.51467 293.4375,317.0625 C 293.5208,317.375 293.60417,317.6875 293.6875,318 z M 117.90625,352.5 C 104.54729,355.10874 90.957859,357.10788 77.625,359.0625 C 91.955479,357.52816 106.2462,355.74395 120.21875,352.03125 C 119.44792,352.1875 118.67708,352.34375 117.90625,352.5 z M 519.25,369.78125 C 516.14525,369.81415 515.39014,373.46533 514.3125,375.78125 C 511.28297,382.57684 509.48707,390.15321 504.89444,396.09922 C 503.76075,397.79939 501.02486,398.68046 499.4375,396.90625 C 494.59317,392.04139 491.49937,384.50399 484.4375,382.1875 C 479.7911,381.4777 474.87378,381.77845 470.11875,381.65625 C 464.37689,381.7573 458.51118,381.52669 452.84375,381.875 C 448.00496,382.96938 444.8348,387.81037 439.96875,388.8125 C 423.70914,386.60544 407.59336,382.07214 392.58172,375.30784 C 390.3352,374.16813 389.73352,373.97892 392.11401,375.58757 C 405.74164,385.14132 421.90154,390.71279 438.3125,393.0625 C 444.23891,394.19474 450.20116,396.33292 456.21875,395.71875 C 460.30878,394.76601 460.09656,389.66158 462.03125,386.6875 C 464.2846,383.4212 468.73588,384.64489 471.97293,385.6236 C 481.38594,388.85398 490.15109,393.68968 498.51568,399.01026 C 501.78863,401.83646 506.39874,399.3551 509.08758,396.99287 C 513.53271,393.27598 516.70159,388.34553 519.46875,383.34375 C 522.67028,380.82004 527.16309,380.83348 531.08559,380.41018 C 533.88027,380.21142 536.7259,380.19512 539.41043,380.73733 C 541.67248,381.07188 545.0252,380.50111 546.25,382.84375 C 547.07762,386.19351 546.63905,390.07098 548.625,393.03125 C 550.04539,392.60671 550.32624,390.40431 550.9759,389.09248 C 551.75068,387.96181 551.50057,385.07397 552.821,385.14024 C 560.96547,386.98194 568.28915,391.13841 575.03087,395.94766 C 578.36533,397.95978 581.53569,401.01819 585.61045,401.0038 C 588.44884,401.46015 586.45491,400.9399 585.01446,400.00927 C 575.39327,394.61049 567.02685,387.0412 556.94782,382.57783 C 545.50582,377.11509 533.33762,373.31292 521.1875,369.8125 C 520.60681,369.8045 519.88472,369.68498 519.25,369.7813 L 519.25,369.78125 z"
         id="path3442"
         style="opacity:0.04545498;fill:url(#radialGradient3448);fill-opacity:1;stroke:none" />
      <path
         d="M 264.78125,309.0625 C 260.11297,311.80151 254.8173,313.59626 250.4025,316.65125 C 249.25043,317.5452 247.85941,318.38799 247.375,319.78125 C 245.57642,322.78482 241.61114,322.92664 238.51526,323.74131 C 235.88018,324.29772 233.0834,324.99199 231.15625,326.875 C 227.38334,327.68439 223.46283,327.05517 219.64159,326.9099 C 214.24484,326.67473 208.83895,325.78935 203.4375,326.18749 C 190.92211,330.62544 178.34755,334.8952 165.71875,338.99999 C 169.43943,338.65741 173.56365,338.1121 176.9725,339.93249 C 179.35459,341.11954 179.58935,344.34341 178.63058,346.63425 C 176.5598,352.18884 172.46808,356.68606 168.57374,361.07636 C 165.83844,364.1399 162.87866,366.9466 159.875,369.74999 C 179.89603,359.57679 199.75791,349.08991 219.83649,339.03077 C 221.27261,338.05058 219.85259,340.52392 219.88829,341.25533 C 217.46071,351.2461 214.89416,361.28399 214.06252,371.56249 C 214.05062,373.8441 213.63827,376.57827 215.12502,378.46874 C 216.45394,379.3547 217.81036,378.01365 218.8011,377.20581 C 223.49048,372.48287 226.88097,366.56769 230.14887,361.00473 C 236.5307,349.64832 242.31169,337.91977 246.96877,325.74999 C 247.597,324.04178 248.19712,322.25322 248.75002,320.56249 C 249.44474,319.72179 250.24678,320.78609 250.09377,321.59374 C 250.32452,327.27001 249.18742,332.90203 248.55932,338.52756 C 247.38022,347.75852 245.74241,356.96541 245.43752,366.28124 C 245.56338,367.44002 245.29068,369.16189 246.21877,369.90624 C 247.54968,369.37077 248.33409,367.87124 249.38145,366.88049 C 252.74394,363.20205 255.73363,359.12271 259.34377,355.71874 C 259.7945,355.08118 260.56084,355.33174 260.5203,356.13074 C 261.73658,362.16052 261.65019,368.3676 262.53099,374.45076 C 262.99928,377.41161 263.28794,380.60963 264.96877,383.15624 C 265.94366,384.44867 267.60196,383.51613 268.34377,382.49999 C 271.53439,378.59759 273.34486,373.7678 275.3378,369.12929 C 281.60251,353.35539 286.42565,337.05778 291.21752,320.78999 C 291.6346,319.35999 292.05169,317.92999 292.46877,316.49999 C 284.61589,313.14973 276.15224,311.61729 267.78127,310.21874 C 266.8539,309.77625 265.94106,308.88541 264.78127,309.06249 L 264.78125,309.0625 z M 293.3125,317 C 295.50527,325.65591 297.03718,334.46893 299.02785,343.17456 C 300.93606,351.12271 302.53303,359.23704 305.73708,366.78666 C 306.28462,367.76643 306.76924,369.27005 308.03125,369.46875 C 309.4275,368.73715 309.53958,366.60427 309.98604,365.09405 C 311.03685,359.13101 311.45203,353.05044 311.4375,347 C 311.5029,346.5733 311.03465,345.16224 311.875,345.46875 C 314.5509,348.8933 318.50777,351.06743 321.84923,353.82583 C 328.62865,358.96722 335.40808,364.10861 342.1875,369.25 C 346.61376,365.05123 351.04662,360.85925 355.46875,356.65625 C 365.759,361.65912 376.05232,366.65577 386.34375,371.65625 C 376.01749,362.5883 365.71799,353.48061 355.375,344.4375 C 344.82292,340.3125 334.27083,336.1875 323.71875,332.0625 C 321.50665,332.36489 319.01475,333.88673 316.89609,332.57656 C 315.08717,331.02858 314.45072,328.31875 312.28125,327.09375 C 310.47017,325.88259 308.0624,326.08003 305.96875,325.5625 C 301.6932,324.05388 298.97684,320.00404 295.07934,317.80196 C 294.62943,317.58787 293.5693,316.89121 293.3125,317 z M 122.4375,351.46875 C 105.47508,355.00695 88.305854,357.42202 71.15625,359.84375 C 87.651967,358.21787 104.21318,356.32993 120.28125,352.125 C 120.67642,352.00423 123.3515,351.27326 122.4375,351.46875 z M 519.25,369.65625 C 517.27011,369.70865 516.01779,371.2707 515.38361,373.04527 C 512.26938,379.70574 510.32982,386.96109 506.67857,393.34008 C 505.51469,395.31361 503.79171,398.25919 501.03125,397.71875 C 498.51132,396.76293 497.2686,394.03848 495.5845,392.05382 C 492.45323,387.97118 489.15828,383.29416 483.9008,381.94738 C 477.7726,381.38428 471.58054,381.56891 465.42503,381.5451 C 461.33486,381.638 457.22392,381.44408 453.14679,381.72226 C 448.39676,382.66836 445.32502,386.95324 440.84375,388.53125 C 438.59313,388.9759 436.32136,388.06986 434.08253,387.8418 C 418.60399,385.05523 403.34254,380.53766 389.21875,373.5625 C 396.66657,379.40501 405.15238,383.69381 414.00183,387.07879 C 421.73993,389.96942 429.79628,391.89751 437.96256,393.09031 C 443.78685,394.20984 449.5668,396.21101 455.5625,395.9375 C 458.12859,395.71666 459.68305,393.54377 460.31486,391.21706 C 461.11407,388.74182 461.91398,385.4278 464.84375,384.875 C 468.29939,384.20015 471.74928,385.66821 474.96875,386.78125 C 483.18517,390.08388 491.05954,394.28225 498.45943,399.0953 C 500.56507,401.00122 503.89161,400.59275 506.19198,399.1157 C 511.18734,396.17257 514.92014,391.24917 517.92634,386.28311 C 518.74205,384.8704 519.27542,383.01723 521,382.40627 C 525.7181,380.50936 530.95207,380.5143 535.96875,380.40627 C 537.92939,380.59099 539.88398,381.01219 541.875,381.03127 C 543.57714,381.17441 546.19112,381.39823 546.30481,383.57363 C 546.80232,386.65517 546.83231,389.97324 548.2725,392.78777 C 548.80759,393.79936 549.77894,392.35324 549.96016,391.78781 C 551.0293,389.66945 551.65196,387.3576 552.34375,385.09377 C 558.58129,386.65124 564.59101,389.10414 569.92234,392.68687 C 574.07163,395.25087 577.94902,398.33161 582.25,400.50002 C 584.44526,401.11154 586.74009,401.24409 589,401.46877 C 585.84778,400.95412 583.37955,398.80113 580.65634,397.27564 C 573.84101,392.95661 567.56403,387.768 560.35535,384.1908 C 548.06306,377.76253 534.72164,373.6648 521.46013,369.7733 C 520.73661,369.63142 519.98398,369.58089 519.25,369.65627 L 519.25,369.65625 z"
         id="path3450"
         style="opacity:0.04545498;fill:url(#radialGradient3456);fill-opacity:1;stroke:none" />
      <path
         d="M 264.75,308.96875 C 263.49767,309.59026 262.28691,310.34657 261,310.9375 C 257.10827,312.8912 253.00108,314.50523 249.53125,317.1875 C 248.94037,317.59011 248.24998,318.21775 247.6875,318.78125 C 247.2057,320.67714 245.40371,321.82955 243.63013,322.4023 C 240.24701,323.51673 236.56814,323.68155 233.33228,325.24083 C 232.51199,325.69698 231.75317,326.11781 231.125,326.78125 C 229.16095,327.3384 227.07577,327.12765 225.05689,327.12859 C 219.1274,326.89284 213.22224,326.2509 207.29426,326.0027 C 205.62636,325.9924 203.86675,325.75723 202.30741,326.48662 C 193.27409,329.64629 184.24268,332.81294 175.14693,335.79 C 171.65377,336.95463 168.15443,338.10056 164.65625,339.25 C 167.77153,338.82383 170.97325,338.49432 174.09375,339.03125 C 175.88114,339.32401 177.75335,340.08981 178.625,341.75 C 179.59854,343.89714 178.7612,346.31724 177.84806,348.33514 C 175.81075,352.62546 172.70092,356.24114 169.5905,359.78274 C 166.35626,363.44524 162.85362,366.86006 159.25,370.15625 C 171.84122,363.83269 184.31807,357.28247 196.86128,350.86381 C 204.70178,346.85245 212.49644,342.74899 220.40625,338.875 C 218.33146,346.88534 216.43408,354.95197 215.00181,363.10296 C 214.39791,367.1343 213.71125,371.20976 213.97255,375.29795 C 214.12411,376.53664 214.24637,378.1314 215.46875,378.78125 C 216.40378,379.1174 217.40563,378.44296 218.03125,377.9375 C 219.38189,377.02385 220.51102,375.5692 221.59678,374.26875 C 222.67601,372.86279 223.88468,371.28614 224.88439,369.72029 C 229.60947,362.5937 233.67885,355.06304 237.48537,347.41637 C 240.98837,340.34923 244.29394,333.17076 247.0625,325.78125 C 247.67364,324.09085 248.29252,322.33614 248.8125,320.65625 C 249.11365,320.17514 249.83555,320.32871 249.875,320.90625 C 250.22944,322.58614 250.03927,324.34288 249.9249,326.04646 C 249.5012,331.24972 248.72025,336.41506 248.04684,341.59001 C 247.00655,349.21601 245.83881,356.83938 245.38709,364.52902 C 245.35529,366.24679 245.19689,368.05332 245.81254,369.6875 C 246.1739,370.34386 246.85904,369.84142 247.20396,369.42108 C 250.9951,365.43709 254.37235,361.07901 258.11021,357.04608 C 258.72039,356.50012 259.23853,355.78182 259.96879,355.4375 C 260.463,355.5093 260.38796,356.32656 260.56512,356.73036 C 261.40693,361.19637 261.4778,365.76465 261.97316,370.27643 C 262.40781,374.14486 262.67689,378.10964 264.07601,381.77694 C 264.51171,382.69968 265.10158,383.97589 266.31254,383.90625 C 267.22248,383.79723 267.83806,383.18564 268.43754,382.5625 C 269.84411,380.91486 270.93227,378.86603 272.00004,376.90625 C 275.04209,370.66495 277.46569,364.12993 279.76813,357.5812 C 284.49721,344.01238 288.58753,330.23354 292.59379,316.4375 C 284.8494,313.15595 276.53285,311.55412 268.26526,310.23246 C 267.03475,309.99959 266.10752,308.69894 264.75004,308.96875 L 264.75,308.96875 z M 293.21875,317.03125 C 294.59234,322.09505 295.50531,327.2692 296.62313,332.39282 C 298.3802,340.67083 300.1124,348.96261 302.35526,357.12552 C 303.40651,360.75903 304.40298,364.4669 306.14922,367.83321 C 306.6676,368.4718 307.0661,369.59199 308.03125,369.5625 C 308.84978,369.3204 309.07242,368.44958 309.40625,367.71875 C 310.73706,363.25867 310.99819,358.57429 311.32529,353.95666 C 311.54834,351.22312 311.59805,348.47415 311.49356,345.73904 C 311.55886,345.16234 312.10551,345.85783 312.24652,346.065 C 312.86585,346.92471 313.82824,347.83414 314.65625,348.46875 C 323.82194,355.45226 333.01231,362.4038 342.1875,369.375 C 346.60806,365.17224 351.08073,361.00816 355.46875,356.78125 C 365.99929,361.89728 376.53137,367.01018 387.0625,372.125 C 376.52149,362.86389 365.97526,353.60834 355.4375,344.34375 C 344.86387,340.22254 334.29595,336.07101 323.71875,331.96875 C 321.9487,332.30955 320.21261,333.02987 318.39608,333.00084 C 316.7355,332.92974 315.87174,331.39353 315.09294,330.12819 C 314.44616,329.04905 313.74804,327.97594 312.75,327.3125 C 311.19955,326.17689 309.25173,325.84151 307.37046,325.76282 C 304.80828,325.43693 302.68265,323.82209 300.83082,322.1531 C 299.32186,320.83466 297.83941,319.51885 296.21161,318.44716 C 295.22569,317.76577 294.20162,317.15139 293.09375,316.6875 C 293.13545,316.80208 293.17705,316.91667 293.21875,317.03125 L 293.21875,317.03125 z M 124.5625,350.90625 C 115.17454,352.97862 105.68949,354.58696 96.194191,356.07449 C 87.04816,357.508 77.88469,358.83169 68.709864,360.06609 C 67.962826,360.15869 67.215788,360.2512 66.46875,360.34375 C 73.666112,359.78206 80.844387,358.977 88.011474,358.1111 C 96.649383,357.00621 105.26899,355.69972 113.77374,353.80973 C 117.50693,352.99458 121.21449,352.04244 124.84375,350.84375 C 124.75005,350.86455 124.65625,350.88545 124.5625,350.90625 L 124.5625,350.90625 z M 519.21875,369.5625 C 517.88623,369.68068 516.61465,370.36414 516.0423,371.492 C 514.44006,374.5732 513.25535,377.86687 511.96404,381.09225 C 510.38174,385.20848 508.81044,389.36718 506.66797,393.22335 C 505.92916,394.54082 504.97083,395.92752 503.875,396.8125 C 502.91857,397.77911 501.2479,398.03117 500.10429,397.19453 C 499.33065,396.61701 498.65314,395.8998 498.10704,395.17159 C 496.64999,393.48113 495.40003,391.57353 494,389.8125 C 493.1684,388.65468 492.06171,387.43977 491.037,386.335 C 489.7729,385.02532 488.46569,383.93253 486.90625,383.03125 C 485.25979,382.06058 483.36652,381.58082 481.45707,381.64309 C 472.34494,381.26963 463.22231,381.50275 454.10671,381.51664 C 451.02639,381.69194 448.48871,383.66532 446.05747,385.36827 C 444.18305,386.68207 442.3014,388.25549 439.96875,388.59375 C 437.75854,388.45864 435.57863,387.9783 433.39289,387.62811 C 424.02888,385.92486 414.78711,383.53354 405.80205,380.38933 C 399.89315,378.31469 394.08441,375.93418 388.5,373.09375 C 388.80288,373.40672 389.35919,373.82876 389.73936,374.0871 C 394.13727,377.45463 398.92169,380.30821 403.86392,382.78667 C 409.68964,385.71676 415.8153,388.01058 422.07266,389.83117 C 427.18166,391.30921 432.41334,392.33594 437.66878,393.12328 C 443.25776,394.21806 448.7686,396.00247 454.50625,396.09375 C 456.36799,396.12185 458.29407,395.42988 459.24442,393.79278 C 460.76837,391.54185 460.7809,388.5498 462.5,386.40625 C 463.24303,385.48272 464.39802,384.92174 465.59806,384.82414 C 468.22058,384.58287 470.79056,385.45991 473.25507,386.25709 C 479.27029,388.42642 484.97191,391.36623 490.57008,394.42537 C 493.60452,396.09032 496.56984,397.88489 499.42855,399.83425 C 501.52565,401.0728 504.17885,400.39031 506.16453,399.25363 C 508.1023,398.0912 509.7979,396.7995 511.36997,395.16128 C 512.38909,394.08679 513.49991,392.90655 514.30952,391.76339 C 516.21313,389.26586 517.96034,386.60917 519.34375,383.8125 C 520.66862,382.19977 522.91148,381.79173 524.875,381.34375 C 528.79069,380.6569 532.78699,380.44952 536.75376,380.52216 C 539.25375,381.2303 541.92245,380.82069 544.40849,381.56325 C 545.42673,381.78477 546.22685,382.64065 546.22285,383.70416 C 546.57106,386.32716 546.83891,388.98729 547.59375,391.53125 C 547.84221,392.14571 548.04602,393.0777 548.71875,393.25 C 549.4246,393.1603 549.66096,392.44838 550.01347,391.91056 C 551.08963,389.79151 551.72132,387.4847 552.40625,385.21875 C 556.50965,386.28789 560.55827,387.63279 564.34375,389.5625 C 570.50803,392.65073 575.90285,397.11684 581.90625,400.5 C 585.08302,401.41531 588.42154,401.44512 591.6875,401.8125 C 589.52709,401.45893 587.22464,401.26648 585.37022,399.99914 C 579.54361,396.80913 574.25322,392.77072 568.76812,389.0499 C 565.56369,386.96711 562.2846,385.00757 558.87164,383.29244 C 551.84371,379.7341 544.44639,376.97321 536.98795,374.46764 C 531.8256,372.75445 526.62899,371.1217 521.39333,369.65992 C 520.67868,369.53693 519.94168,369.49138 519.21875,369.56252 L 519.21875,369.5625 z"
         id="path3458"
         style="opacity:0.04545498;fill:url(#radialGradient3464);fill-opacity:1;stroke:none" />
      <path
         d="M 264.71875,308.78125 C 263.6908,309.13724 262.82585,309.87034 261.82111,310.30819 C 257.65233,312.48131 253.16068,314.11449 249.40625,317 C 248.80775,317.58843 247.97431,318.10709 247.49614,318.78113 C 247.12615,320.05564 246.17838,320.92058 245.03434,321.58464 C 242.61525,322.78745 239.86025,323.07102 237.2577,323.72239 C 235.0199,324.25361 232.67067,324.94771 231.03125,326.625 C 228.92109,327.1515 226.71129,326.9532 224.55742,326.91803 C 218.47835,326.6646 212.42508,325.97831 206.34375,325.78125 C 204.92815,325.77725 203.46021,325.69705 202.15059,326.33235 C 193.17991,329.46918 184.21169,332.61458 175.17934,335.571 C 171.2793,336.8936 167.33364,338.11644 163.44988,339.46437 C 163.35618,339.76331 164.53841,339.39067 164.94738,339.38857 C 167.94943,339.01638 171.03093,338.68148 174.03125,339.21874 C 175.52199,339.46672 177.01728,340.02567 178.03125,341.18749 C 178.54787,341.90768 178.94884,342.96722 178.875,343.94999 C 178.69468,346.997 176.98346,349.64745 175.39833,352.15733 C 174.44333,353.58604 173.4466,354.91872 172.40197,356.21501 C 168.19187,361.40788 163.42651,366.12258 158.49484,370.62059 C 158.77027,370.70579 159.58151,370.18261 160.0488,369.98928 C 175.4197,362.18693 190.70596,354.21925 206.04624,346.35699 C 210.71716,343.96541 215.37362,341.54358 220.09375,339.24999 C 218.08291,347.16499 216.1829,355.12012 214.80065,363.17077 C 214.20717,367.18048 213.52302,371.2327 213.78505,375.29794 C 213.94101,376.60921 214.07421,378.28488 215.34375,378.96874 C 216.39566,379.33194 217.52509,378.62615 218.23712,378.06617 C 220.15752,376.48365 221.70339,374.46134 223.2275,372.49874 C 227.17363,366.99857 230.54106,361.10918 233.75,355.15624 C 238.54805,345.99328 243.07965,336.65489 246.82275,326.99984 C 247.57238,324.92888 248.36061,322.86836 248.96875,320.74999 C 249.27749,320.35651 249.68314,320.62316 249.71912,321.06361 C 250.11563,323.42002 249.71612,325.83379 249.54647,328.2016 C 248.75809,335.55804 247.65533,342.87744 246.66977,350.20948 C 246.02582,355.55035 245.25454,360.89508 245.15625,366.28124 C 245.22315,367.47552 245.13165,368.82775 245.71875,369.87499 C 246.08537,370.48531 246.83862,370.1301 247.1875,369.68749 C 250.04298,366.72644 252.63292,363.52069 255.33799,360.42338 C 256.80235,358.78823 258.22695,356.92208 259.9375,355.65624 C 260.25216,355.67994 260.26023,356.54424 260.39927,356.89046 C 261.22925,361.33739 261.29903,365.88486 261.79543,370.37593 C 262.22695,374.20084 262.49959,378.11067 263.84375,381.74999 C 264.29148,382.75114 264.86061,384.0045 266.09375,384.09374 C 267.58668,384.14084 268.48145,382.73045 269.35826,381.75333 C 272.02066,377.96994 273.7732,373.65805 275.54389,369.40839 C 278.91625,361.12332 281.71285,352.61928 284.46038,344.11111 C 287.38994,334.94474 290.1065,325.71214 292.78125,316.46874 C 293.73958,319.12194 294.17237,321.95005 294.8093,324.69884 C 297.07993,335.39753 299.18761,346.14125 302.03112,356.70704 C 303.13696,360.54222 304.17107,364.45871 306.01305,368.01284 C 306.47925,368.70646 306.95979,369.59477 307.81875,369.74999 C 308.85075,369.79619 309.23204,368.63808 309.57127,367.84305 C 310.62571,364.44304 310.9583,360.87146 311.27187,357.34073 C 311.54967,353.51438 311.88608,349.67369 311.67039,345.8385 C 311.8684,345.73281 312.26743,346.60579 312.61143,346.8126 C 314.78185,349.13936 317.50627,350.82566 319.98858,352.80674 C 327.39049,358.40916 334.77421,364.04086 342.1875,369.62499 C 346.62157,365.42354 351.06307,361.22975 355.5,357.03124 C 366.19507,362.22274 376.91288,367.38227 387.59375,372.59374 C 391.92389,376.33678 396.87963,379.35966 401.93319,382.04471 C 407.78584,385.05414 413.88607,387.5887 420.19753,389.46416 C 425.85027,391.25145 431.68226,392.42124 437.53931,393.2919 C 443.16849,394.40865 448.72469,396.18887 454.50625,396.28124 C 456.18638,396.30734 457.96379,395.78575 459.03125,394.43749 C 460.63109,392.4825 460.8355,389.75615 461.99259,387.55202 C 462.52507,386.56288 463.24392,385.76733 464.3125,385.31249 C 466.79454,384.46828 469.42594,385.32519 471.84793,385.99859 C 477.65845,387.90062 483.14746,390.66757 488.51606,393.55245 C 492.17553,395.53225 495.78963,397.61048 499.21875,399.96874 C 501.44109,401.27801 504.23734,400.6005 506.34823,399.39692 C 510.00481,397.2475 512.9071,394.00619 515.41964,390.64286 C 517.00881,388.49771 518.38542,386.181 519.59125,383.82624 C 520.29652,382.95906 521.37342,382.54402 522.44157,382.16127 C 526.56557,380.93071 530.91332,380.77056 535.1875,380.68749 C 536.17897,380.60259 537.13467,380.78139 538.09864,380.98518 C 540.42175,381.42163 542.96706,380.98418 545.125,382.09374 C 546.26268,382.71605 545.99516,384.17345 546.21875,385.24999 C 546.65421,387.80541 546.77856,390.50628 547.935,392.86124 C 548.14794,393.35865 548.70503,393.6057 549.1875,393.34374 C 550.38428,392.24069 550.83829,390.53379 551.41817,389.02912 C 551.82737,387.85489 552.19598,386.6662 552.53125,385.46874 C 557.1235,386.63289 561.63727,388.24339 565.77258,390.55061 C 571.27074,393.57203 576.2055,397.55384 581.68319,400.60721 C 584.15468,401.44868 586.81261,401.50437 589.39065,401.78906 C 590.9235,401.97645 592.52943,401.94284 594,402.40624 C 594.0871,403.0094 594.49008,401.94358 593.87523,402.02352 C 591.43176,401.39729 588.77209,401.47495 586.46875,400.37499 C 582.52792,398.18579 578.71892,395.76325 575.05431,393.13615 C 572.03282,391.05012 569.06816,388.87994 565.92079,386.98334 C 560.70033,383.77059 555.13421,381.14867 549.46875,378.81249 C 540.4142,375.19518 531.10393,372.25731 521.75,369.53124 C 519.86808,369.15498 517.48799,369.19954 516.24213,370.86822 C 515.53931,371.69826 515.21008,372.83303 514.69534,373.80741 C 512.42539,379.02713 510.62879,384.44032 508.26887,389.62122 C 507.29536,391.72789 506.23878,393.80559 504.78125,395.62499 C 504.438,396.06683 503.81904,396.70727 503.32517,396.97212 C 502.40694,397.69028 501.05319,397.70096 500.14609,396.95152 C 499.24949,396.41146 498.5726,395.35853 497.8125,394.56246 C 497.04036,393.42239 496.04658,392.17876 495.1875,390.99996 C 492.95573,388.12801 490.60982,385.17813 487.54656,383.14821 C 485.80503,382.10543 483.81743,381.38562 481.75687,381.46665 C 472.54508,381.07854 463.32226,381.31433 454.10671,381.3291 C 451.405,381.45704 449.05604,382.99839 446.8994,384.49071 C 444.81358,385.90321 442.86149,387.69544 440.375,388.34371 C 438.93748,388.53666 437.51147,388.03657 436.08427,387.90283 C 425.95437,386.19119 415.94771,383.71179 406.24277,380.332 C 399.9308,378.11268 393.68041,375.6177 387.78108,372.45968 C 386.79345,371.7328 385.76277,370.70626 384.7574,369.86365 C 375.02059,361.30825 365.24188,352.72619 355.53125,344.18746 C 344.93679,340.05584 334.34804,335.89388 323.75,331.78121 C 321.99774,332.10509 320.28558,332.7791 318.49511,332.82727 C 317.25171,332.75697 316.43218,331.91707 315.8445,330.88333 C 314.99353,329.52322 314.19436,328.11724 312.875,327.15621 C 311.33878,325.98991 309.30567,325.66352 307.40194,325.5741 C 305.27233,325.30739 303.46388,324.07929 301.84375,322.74996 C 300.76193,321.9261 299.62961,320.81962 298.49632,319.92364 C 296.6341,318.28593 294.44734,316.96368 292.16822,316.04265 C 284.53336,312.8936 276.37116,311.32864 268.25,310.03121 C 267.05755,309.7 266.07746,308.50754 264.71875,308.78121 L 264.71875,308.78125 z M 124.5,350.71875 C 111.98224,353.47554 99.306533,355.42679 86.640477,357.35466 C 78.76533,358.48111 70.894203,359.63795 63,360.625 C 62.562367,360.99123 63.961129,360.6823 64.295655,360.7063 C 72.254014,360.11789 80.189702,359.24964 88.110564,358.28514 C 96.867472,357.16156 105.60829,355.84671 114.22706,353.91205 C 118.40782,352.98029 122.56374,351.89798 126.59375,350.4375 C 126.93844,350.00548 125.60683,350.5171 125.26454,350.54232 C 125.00969,350.60112 124.75485,350.65994 124.5,350.71875 L 124.5,350.71875 z"
         id="path3466"
         style="opacity:0.04545498;fill:url(#radialGradient3472);fill-opacity:1;stroke:none" />
      <path
         d="M 264.71875,308.78125 C 263.6908,309.13724 262.82585,309.87034 261.82111,310.30819 C 257.65233,312.48131 253.16068,314.11449 249.40625,317 C 248.80775,317.58843 247.97431,318.10709 247.49614,318.78113 C 247.12615,320.05564 246.17838,320.92058 245.03434,321.58464 C 242.61525,322.78745 239.86025,323.07102 237.2577,323.72239 C 235.0199,324.25361 232.67067,324.94771 231.03125,326.625 C 228.92109,327.1515 226.71129,326.9532 224.55742,326.91803 C 218.47835,326.6646 212.42508,325.97831 206.34375,325.78125 C 204.92815,325.77725 203.46021,325.69705 202.15059,326.33235 C 193.17991,329.46918 184.21169,332.61458 175.17934,335.571 C 171.2793,336.8936 167.33363,338.11644 163.44988,339.46437 C 163.35618,339.76331 164.53841,339.39067 164.94738,339.38857 C 167.94943,339.01638 171.03093,338.68148 174.03125,339.21874 C 175.52199,339.46672 177.01728,340.02567 178.03125,341.18749 C 178.54787,341.90768 178.94884,342.96722 178.875,343.94999 C 178.69468,346.997 176.98346,349.64745 175.39833,352.15733 C 174.44333,353.58604 173.4466,354.91872 172.40197,356.21501 C 168.19187,361.40788 163.42651,366.12258 158.49484,370.62059 C 158.77027,370.70579 159.58151,370.18261 160.0488,369.98928 C 175.4197,362.18693 190.70596,354.21925 206.04624,346.35699 C 210.71716,343.96541 215.37362,341.54358 220.09375,339.24999 C 218.08291,347.16499 216.1829,355.12012 214.80065,363.17077 C 214.20717,367.18048 213.52302,371.2327 213.78505,375.29794 C 213.94101,376.60921 214.07421,378.28488 215.34375,378.96874 C 216.39566,379.33194 217.52509,378.62615 218.23712,378.06617 C 220.15752,376.48365 221.70339,374.46134 223.2275,372.49874 C 227.17363,366.99857 230.54106,361.10918 233.75,355.15624 C 238.54805,345.99328 243.07965,336.65489 246.82275,326.99984 C 247.57238,324.92888 248.36061,322.86836 248.96875,320.74999 C 249.27749,320.35651 249.68314,320.62316 249.71912,321.06361 C 250.11563,323.42002 249.71612,325.83379 249.54647,328.2016 C 248.75809,335.55804 247.65533,342.87744 246.66977,350.20948 C 246.02582,355.55035 245.25454,360.89508 245.15625,366.28124 C 245.22315,367.47552 245.13165,368.82775 245.71875,369.87499 C 246.08537,370.48531 246.83862,370.1301 247.1875,369.68749 C 250.04298,366.72644 252.63292,363.52069 255.33799,360.42338 C 256.80235,358.78823 258.22695,356.92208 259.9375,355.65624 C 260.25216,355.67994 260.26023,356.54424 260.39927,356.89046 C 261.22925,361.33739 261.29903,365.88486 261.79543,370.37593 C 262.22695,374.20084 262.49959,378.11067 263.84375,381.74999 C 264.29148,382.75114 264.86061,384.0045 266.09375,384.09374 C 267.58668,384.14084 268.48145,382.73045 269.35826,381.75333 C 272.02066,377.96994 273.7732,373.65805 275.54389,369.40839 C 278.91625,361.12332 281.71285,352.61928 284.46038,344.11111 C 287.38994,334.94474 290.1065,325.71214 292.78125,316.46874 C 293.73958,319.12194 294.17237,321.95005 294.8093,324.69884 C 297.07993,335.39753 299.18761,346.14125 302.03112,356.70704 C 303.13696,360.54222 304.17107,364.45871 306.01305,368.01284 C 306.47925,368.70646 306.95979,369.59477 307.81875,369.74999 C 308.85075,369.79619 309.23204,368.63808 309.57127,367.84305 C 310.62571,364.44304 310.9583,360.87146 311.27187,357.34073 C 311.54967,353.51438 311.88608,349.67369 311.67039,345.8385 C 311.8684,345.73281 312.26743,346.60579 312.61143,346.8126 C 314.78185,349.13936 317.50627,350.82566 319.98858,352.80674 C 327.39049,358.40916 334.77421,364.04086 342.1875,369.62499 C 346.62157,365.42354 351.06307,361.22975 355.5,357.03124 C 366.19507,362.22274 376.91288,367.38227 387.59375,372.59374 C 391.92389,376.33678 396.87963,379.35966 401.93319,382.04471 C 407.78584,385.05414 413.88607,387.5887 420.19753,389.46416 C 425.85027,391.25145 431.68226,392.42124 437.53931,393.2919 C 443.16849,394.40865 448.72469,396.18887 454.50625,396.28124 C 456.18638,396.30734 457.96379,395.78575 459.03125,394.43749 C 460.63109,392.4825 460.8355,389.75615 461.99259,387.55202 C 462.52507,386.56288 463.24392,385.76733 464.3125,385.31249 C 466.79454,384.46828 469.42594,385.32519 471.84793,385.99859 C 477.65845,387.90062 483.14746,390.66757 488.51606,393.55245 C 492.17553,395.53225 495.78963,397.61048 499.21875,399.96874 C 501.44109,401.27801 504.23734,400.6005 506.34823,399.39692 C 510.00481,397.2475 512.9071,394.00619 515.41964,390.64286 C 517.00881,388.49771 518.38542,386.181 519.59125,383.82624 C 520.29652,382.95906 521.37342,382.54402 522.44157,382.16127 C 526.56557,380.93071 530.91332,380.77056 535.1875,380.68749 C 536.17897,380.60259 537.13467,380.78139 538.09864,380.98518 C 540.42175,381.42163 542.96706,380.98418 545.125,382.09374 C 546.26268,382.71605 545.99516,384.17345 546.21875,385.24999 C 546.65421,387.80541 546.77856,390.50628 547.935,392.86124 C 548.14794,393.35865 548.70503,393.6057 549.1875,393.34374 C 550.38428,392.24069 550.83829,390.53379 551.41817,389.02912 C 551.82737,387.85489 552.19598,386.6662 552.53125,385.46874 C 557.1235,386.63289 561.63727,388.24339 565.77258,390.55061 C 571.27074,393.57203 576.2055,397.55384 581.68319,400.60721 C 584.15468,401.44868 586.81261,401.50437 589.39065,401.78906 C 590.9235,401.97645 592.52943,401.94284 594,402.40624 C 594.0871,403.0094 594.49008,401.94358 593.87523,402.02352 C 591.43176,401.39729 588.77209,401.47495 586.46875,400.37499 C 582.52792,398.18579 578.71892,395.76325 575.05431,393.13615 C 572.03282,391.05012 569.06816,388.87994 565.92079,386.98334 C 560.70033,383.77059 555.13421,381.14867 549.46875,378.81249 C 540.4142,375.19518 531.10393,372.25731 521.75,369.53124 C 519.86808,369.15498 517.48799,369.19954 516.24213,370.86822 C 515.53931,371.69826 515.21008,372.83303 514.69534,373.80741 C 512.42539,379.02713 510.62879,384.44032 508.26887,389.62122 C 507.29536,391.72789 506.23878,393.80559 504.78125,395.62499 C 504.438,396.06683 503.81904,396.70727 503.32517,396.97212 C 502.40694,397.69028 501.05319,397.70096 500.14609,396.95152 C 499.24949,396.41146 498.5726,395.35853 497.8125,394.56246 C 497.04036,393.42239 496.04658,392.17876 495.1875,390.99996 C 492.95573,388.12801 490.60982,385.17813 487.54656,383.14821 C 485.80503,382.10543 483.81743,381.38562 481.75687,381.46665 C 472.54508,381.07854 463.32226,381.31433 454.10671,381.3291 C 451.405,381.45704 449.05604,382.99839 446.8994,384.49071 C 444.81358,385.90321 442.86149,387.69544 440.375,388.34371 C 438.93748,388.53666 437.51147,388.03657 436.08427,387.90283 C 425.95437,386.19119 415.94771,383.71179 406.24277,380.332 C 399.9308,378.11268 393.68041,375.6177 387.78108,372.45968 C 386.79345,371.7328 385.76277,370.70626 384.7574,369.86365 C 375.02059,361.30825 365.24188,352.72619 355.53125,344.18746 C 344.93679,340.05584 334.34804,335.89388 323.75,331.78121 C 321.99774,332.10509 320.28558,332.7791 318.49511,332.82727 C 317.25171,332.75697 316.43218,331.91707 315.8445,330.88333 C 314.99353,329.52322 314.19436,328.11724 312.875,327.15621 C 311.33878,325.98991 309.30567,325.66352 307.40194,325.5741 C 305.27233,325.30739 303.46388,324.07929 301.84375,322.74996 C 300.76193,321.9261 299.62961,320.81962 298.49632,319.92364 C 296.6341,318.28593 294.44734,316.96368 292.16822,316.04265 C 284.53336,312.8936 276.37116,311.32864 268.25,310.03121 C 267.05755,309.7 266.07746,308.50754 264.71875,308.78121 L 264.71875,308.78125 z M 124.5,350.71875 C 111.98224,353.47554 99.306533,355.42679 86.640477,357.35466 C 78.76533,358.48111 70.894203,359.63795 63,360.625 C 62.562367,360.99123 63.961129,360.6823 64.295655,360.7063 C 72.254014,360.11789 80.189702,359.24964 88.110564,358.28514 C 96.867472,357.16156 105.60829,355.84671 114.22706,353.91205 C 118.40782,352.98029 122.56374,351.89798 126.59375,350.4375 C 126.93844,350.00548 125.60683,350.5171 125.26454,350.54232 C 125.00969,350.60112 124.75485,350.65994 124.5,350.71875 L 124.5,350.71875 z"
         id="path3474"
         style="opacity:0.04545498;fill:url(#radialGradient3480);fill-opacity:1;stroke:none" />
      <path
         d="M 264.6875,308.6875 C 261.34079,310.47153 257.86036,312.10269 254.4375,313.78125 C 251.93194,315.1013 249.37837,316.60139 247.4375,318.65625 C 246.56064,321.64327 242.95182,322.38948 240.2109,322.98038 C 237.0069,323.72188 233.39676,324.15233 230.96875,326.53125 C 227.07837,327.30615 223.05627,326.6531 219.125,326.50005 C 213.86963,326.26038 208.60565,325.41276 203.34375,325.81255 C 190.12078,330.4827 176.8389,334.98395 163.5,339.31255 C 162.70797,340.12916 165.38236,339.29205 166.07555,339.34225 C 169.73659,339.00358 173.84942,338.50825 177.125,340.46882 C 179.06148,341.77172 179.10171,344.55961 178.21875,346.62507 C 175.83211,352.72646 171.16025,357.61286 166.76814,362.42918 C 164.0326,365.34694 161.03424,368.02725 158.1875,370.84382 C 161.01232,369.89043 163.56562,368.20064 166.27786,366.94794 C 184.17916,357.80691 201.97267,348.45341 219.9375,339.43757 C 217.42905,349.76056 214.72508,360.11134 213.75,370.71882 C 213.6681,373.3664 213.17186,376.49582 214.79767,378.73524 C 216.26601,379.87887 218.0846,378.42392 219.19559,377.38013 C 224.05424,372.44825 227.44577,366.30075 230.91793,360.49611 C 237.29666,349.04159 243.12469,337.23556 247.67876,324.93286 C 248.26963,323.55901 248.55777,321.95852 249.21875,320.68757 C 249.91367,320.73697 249.69847,322.03384 249.78125,322.59382 C 249.64457,329.4578 248.39605,336.24254 247.55869,343.04449 C 246.53908,350.83021 245.23922,358.6181 245.07201,366.48109 C 245.19171,367.71369 244.9211,369.44912 246,370.25007 C 247.22808,370.48673 247.93344,368.87075 248.78827,368.16234 C 252.44239,364.17035 255.71295,359.77024 259.59375,356.03132 C 260.44255,355.49239 260.31562,357.64432 260.54982,358.31332 C 261.62588,365.89859 261.37329,373.71267 263.5,381.12507 C 263.9768,382.58818 264.94244,384.65977 266.84375,384.12507 C 269.38806,382.82883 270.58984,379.92188 272.00184,377.55522 C 277.12413,367.12922 280.64998,356.01163 284.28125,345.00007 C 287.2902,335.64451 290.04655,326.21077 292.8125,316.78132 C 294.7742,323.79907 295.92326,331.02217 297.54527,338.12549 C 299.68741,347.63927 301.55679,357.28906 305.09375,366.40632 C 305.77632,367.63679 306.32105,369.36585 307.71875,369.84382 C 309.33486,369.89232 309.64022,367.81083 310.03745,366.58151 C 311.37225,360.66292 311.6434,354.55302 311.83199,348.50649 C 312.0009,347.85621 311.31913,345.08173 312.25659,346.58799 C 315.10808,349.65791 318.82496,351.84654 322.07743,354.50078 C 328.78096,359.58366 335.48314,364.6683 342.1875,369.75007 C 346.65836,365.57937 351.07951,361.3497 355.53125,357.15632 C 366.19779,362.33365 376.86531,367.50901 387.53125,372.68757 C 395.51793,379.30889 404.88978,384.1562 414.62928,387.72557 C 422.2121,390.52396 430.11519,392.30442 438.09591,393.5059 C 443.89261,394.63545 449.65349,396.60631 455.625,396.31257 C 458.41276,396.13158 460.11341,393.65369 460.75473,391.15294 C 461.5149,388.82609 462.21103,385.84264 464.9375,385.25007 C 468.1726,384.59024 471.40828,385.99466 474.43573,387.00193 C 482.27149,390.10512 489.77502,394.14646 496.89394,398.50526 C 498.61785,399.78071 500.52624,401.17297 502.8125,400.71882 C 506.55374,400.15561 509.53744,397.43202 512.08279,394.83021 C 515.24702,391.54669 517.64916,387.60267 519.84375,383.68757 C 522.2574,381.66252 525.83329,381.50241 528.91806,381.07721 C 531.69219,380.92268 534.52757,380.55023 537.28125,380.93757 C 539.89756,381.61352 542.89117,380.91107 545.28125,382.31257 C 546.40996,383.481 545.90123,385.39165 546.3553,386.86466 C 546.81665,389.04519 546.80483,391.69439 548.28125,393.40632 C 549.57046,393.99591 550.19123,392.14674 550.67123,391.26357 C 551.44367,389.42749 552.05342,387.51426 552.59375,385.59382 C 559.73672,387.28358 566.3352,390.52871 572.29552,394.68761 C 575.49706,396.80722 578.61248,399.09462 582.00407,400.83879 C 585.88005,401.91971 590.00436,401.64023 593.90625,402.46882 C 594.12375,403.46415 594.77017,401.61847 593.64972,401.85781 C 590.67698,401.26516 587.4238,401.23587 584.91512,399.37701 C 577.9891,395.57754 571.78443,390.34804 564.9375,386.28132 C 552.88389,379.114 539.37033,374.7785 526.00614,370.68892 C 523.24388,369.94344 520.11904,368.40633 517.34375,369.81257 C 515.19505,371.06375 514.75238,373.84874 513.6925,375.96412 C 511.03756,382.17274 509.1059,388.87953 505.49342,394.51806 C 504.43305,395.99988 502.91271,397.98906 500.875,397.25007 C 498.31318,395.82033 496.98634,392.97105 495.12879,390.77848 C 492.05813,386.84109 488.64683,382.38592 483.4375,381.46882 C 473.50734,380.94787 463.5499,381.19017 453.61387,381.27344 C 448.46335,381.88106 445.23135,386.68738 440.52472,388.20483 C 438.26306,388.47091 435.99759,387.65342 433.75095,387.39833 C 417.91187,384.48367 402.27648,379.80823 387.91982,372.43479 C 377.08584,363.06218 366.36764,353.49233 355.5625,344.09382 C 344.9521,339.9723 334.30832,335.73987 323.71875,331.68757 C 321.64216,331.95288 319.43769,333.29664 317.38361,332.41063 C 315.31805,330.9588 314.79431,327.94466 312.46875,326.75007 C 310.01832,325.10513 306.79674,326.04221 304.34375,324.40632 C 300.43163,321.95703 297.43046,318.13059 293.11453,316.33586 C 285.1355,312.84923 276.46526,311.30727 267.9375,309.84382 C 266.96869,309.39227 265.94085,308.42431 264.6875,308.68757 L 264.6875,308.6875 z M 124.5,350.625 C 105.8967,354.64341 87.023602,357.23646 68.183328,359.85362 C 66.337351,360.19967 64.345951,360.12136 62.59375,360.75 C 64.329129,361.01972 66.175474,360.56119 67.952684,360.5183 C 84.907866,358.93894 101.91862,357.07398 118.48118,352.99427 C 121.27336,352.25342 124.13661,351.54129 126.77299,350.39672 C 127.34553,349.75543 124.66543,350.6634 124.5,350.625 z"
         id="path3482"
         style="opacity:0.04545498;fill:url(#radialGradient3488);fill-opacity:1;stroke:none" />
      <path
         d="M 264.6875,308.5625 C 259.00303,311.90411 252.10222,313.80822 247.34375,318.625 C 246.08709,322.2906 241.51837,322.44978 238.32384,323.29401 C 235.51833,323.76583 232.77204,324.76548 230.625,326.53125 C 223.65313,327.19615 216.49399,325.98455 209.46318,325.69021 C 206.28935,325.45473 203.1062,325.30796 200.20178,326.80955 C 187.94446,331.19331 175.5169,335.17758 163.22298,339.39079 C 162.92582,340.24105 166.06094,339.27285 167.14262,339.34899 C 170.71379,339.14047 175.24552,338.58903 177.84375,341.31248 C 179.95201,344.38731 177.51126,348.19277 175.90625,351.03123 C 171.12716,358.49197 164.47509,364.61831 158.13637,370.78974 C 159.05841,371.06004 161.20482,369.51001 162.56598,368.94659 C 181.6833,359.24182 200.63755,349.21513 219.8125,339.62498 C 217.16452,350.51826 214.22529,361.44591 213.51822,372.64345 C 213.56252,374.82338 213.22519,377.88557 215.3125,379.15623 C 217.8974,379.61252 219.56377,377.03377 221.1875,375.37498 C 227.90157,367.05829 232.81244,357.39578 237.68271,347.93098 C 242.04963,339.13869 246.17447,330.1 249.21875,320.81248 C 249.89458,320.86808 249.54118,322.60168 249.65625,323.18748 C 248.88451,337.5763 245.47946,351.71888 244.9375,366.13123 C 245.10949,367.52186 244.64802,369.83238 246.25,370.43748 C 248.39591,369.56502 249.51719,367.08321 251.20212,365.53468 C 254.11085,362.35984 256.75128,358.63309 259.9375,355.90623 C 261.41814,362.48029 261.07789,369.674 262.34263,376.40529 C 262.92204,379.04471 263.05994,382.46775 265.40625,384.12498 C 267.65612,384.9282 269.14043,382.30724 270.25,380.78123 C 275.66524,371.63568 278.79947,361.37773 282.28866,351.39379 C 286.10478,340.11629 289.46862,328.36102 292.84375,317.15623 C 296.70664,332.66572 298.94911,348.61093 304.00877,363.81317 C 304.93892,365.95704 305.48503,368.88617 307.71875,369.96873 C 309.90126,369.80147 309.94203,366.76433 310.47145,365.12031 C 311.55725,358.95362 312.0325,352.60852 311.90625,346.31248 C 315.54311,350.32262 320.44333,353.12106 324.64436,356.58846 C 330.50403,361.02563 336.35149,365.47938 342.21875,369.90623 C 346.65629,365.68723 351.11631,361.49134 355.5625,357.28123 C 366.23222,362.50845 377.04306,367.58569 387.625,372.90623 C 401.13074,383.8299 417.93638,390.27726 435,393.09373 C 441.92794,393.96343 448.64116,396.81128 455.65625,396.40623 C 459.26487,396.164 460.64338,392.42528 461.4375,389.40623 C 461.98529,386.80035 464.25238,384.75036 466.96875,385.18748 C 473.74221,385.99831 479.96984,389.51173 486.07441,392.46977 C 490.78027,394.85371 495.36461,397.6411 499.75,400.46873 C 504.06111,402.05412 508.18387,398.69275 511.15625,395.93748 C 514.81758,392.3977 517.54012,388.00419 520.03125,383.62498 C 523.68427,381.1632 528.33731,381.31892 532.58725,380.97856 C 536.16397,380.58212 539.71329,381.5588 543.21875,381.65623 C 544.88194,381.71963 546.17473,382.93071 545.92263,384.62912 C 546.52057,387.54143 546.37477,390.93471 548.15625,393.43748 C 549.84292,394.30569 550.59899,391.51308 551.15625,390.34373 C 551.72991,388.81309 552.22288,387.25423 552.6875,385.68748 C 560.65585,387.59733 567.85439,391.53549 574.46875,396.28123 C 577.90529,398.32543 581.03175,401.44535 585.25,401.56248 C 588.00788,402.04425 591.144,401.95991 593.8125,402.56248 C 594.03204,403.898 595.11476,401.39518 593.46875,401.71873 C 590.1551,401.22443 586.71282,400.85901 583.97548,398.72909 C 575.38737,393.68747 567.76559,387.07094 558.76142,382.7796 C 546.81981,376.88786 533.96668,372.88149 521.25,369.21873 C 518.67795,368.6534 515.85476,369.85758 515.09375,372.46873 C 511.51614,379.9047 509.62333,388.19856 504.96749,395.0769 C 503.97873,396.70647 501.49975,398.31366 499.8125,396.46873 C 495.12896,391.55207 491.92682,384.35389 485.12875,381.78134 C 481.1377,380.73915 476.88416,381.26974 472.78137,381.03617 C 466.27722,381.08937 459.72494,380.93857 453.25,381.21873 C 448.10655,382.00117 444.91587,386.98394 439.96875,388.21873 C 427.43208,386.60616 414.8384,383.30492 402.87697,378.91096 C 397.66778,376.8935 392.39887,374.82484 387.55584,372.05201 C 376.89912,362.70564 366.26389,353.32509 355.59375,344 C 344.95863,339.88525 334.32116,335.60611 323.6875,331.59375 C 321.3245,331.88725 318.19509,333.8432 316.4375,331.40625 C 314.90924,328.75676 312.95002,325.96622 309.625,325.625 C 306.82173,325.52367 304.05631,324.60262 301.96875,322.59375 C 298.47366,319.45291 294.66198,316.37097 290.03569,314.98761 C 282.92076,312.35755 275.40687,311.0311 267.96875,309.75 C 266.91156,309.20599 265.91317,308.33741 264.6875,308.5625 L 264.6875,308.5625 z M 124.46875,350.53125 C 105.22188,354.67678 85.795289,357.3345 66.397905,359.95724 C 65.496457,360.19539 61.52203,360.18798 63.03125,361.03125 C 82.434335,359.42438 101.84078,357.38262 120.72596,352.51133 C 122.88252,351.75331 125.32592,351.45199 127.21875,350.15625 C 126.28473,349.9046 125.3852,350.39685 124.46875,350.53125 L 124.46875,350.53125 z"
         id="path3490"
         style="opacity:0.04545498;fill:url(#radialGradient3496);fill-opacity:1;stroke:none" />
      <path
         d="M 264.6875,308.46875 C 258.91005,311.84558 252.01235,313.70212 247.25,318.59375 C 245.82929,322.54384 240.75422,322.39542 237.39055,323.36701 C 234.75304,323.75246 232.40343,325.21229 230.21875,326.5 C 221.23847,327.20705 212.23677,325.03227 203.28125,325.625 C 189.97152,330.41522 176.44504,334.72888 163.11608,339.36309 C 162.63131,340.56258 166.85397,339.1935 168.3125,339.34379 C 171.68202,339.24599 176.54361,338.82184 178.28125,342.25004 C 179.38738,346.67096 175.92009,350.69634 173.65625,354.12504 C 169.03027,360.27033 163.44149,365.47429 157.96441,370.86391 C 158.83481,371.35999 161.57254,369.3856 163.16322,368.73701 C 182.01543,359.17118 200.80288,349.20854 219.65625,339.81254 C 216.93515,351.39579 213.47945,363.02319 213.4375,375.03129 C 213.3525,377.03396 214.52693,380.34132 217.0625,379.12504 C 222.02716,376.06739 224.7747,370.56232 227.97975,365.85744 C 236.2653,351.78839 243.73641,337.11688 249.01912,321.61629 C 249.60334,319.62893 249.61102,323.29975 249.5625,323.81254 C 248.66014,338.46835 245.06229,352.88835 244.875,367.59379 C 244.76325,368.82415 245.51616,371.42914 247.125,370.15629 C 251.62248,365.81697 255.47304,359.99577 259.90625,356.15629 C 261.77385,364.75694 260.61808,374.18395 263.875,382.50004 C 264.47874,384.67515 267.32145,384.97909 268.5625,383.18754 C 274.10779,376.06561 276.65074,367.12399 279.87982,358.77794 C 284.64737,345.14501 288.79782,331.30768 292.8125,317.43754 C 296.72763,333.43613 299.01963,349.97444 304.5625,365.59379 C 305.37014,367.21167 306.10573,370.22558 308.34375,370.00004 C 310.68111,368.30291 310.46183,364.66961 311.09375,362.03129 C 311.68483,356.91405 312.15897,351.74839 312,346.59379 C 317.18959,351.68345 323.48782,355.51467 329.12361,360.09522 C 333.48772,363.40846 337.85908,366.71226 342.21875,370.03129 C 346.65277,365.80866 351.11689,361.617 355.5625,357.40629 C 366.29938,362.72746 377.30176,367.73642 387.87485,373.24992 C 402.39926,384.9124 420.64427,391.21052 438.93777,393.921 C 444.73882,394.89044 450.72151,397.35424 456.71875,396.28129 C 461.54725,395.00665 460.3201,388.58075 463.78125,385.90629 C 467.8877,384.18033 472.35255,386.57057 476.2749,387.96776 C 484.61603,391.3672 492.53402,396.0306 500.0625,400.68754 C 505.42182,402.09037 509.95702,397.38655 513.34375,393.75004 C 516.05822,390.70409 518.06239,387.15527 520.125,383.68754 C 524.47274,380.92922 530.00909,381.31042 535.01875,381.00004 C 538.0854,381.28168 541.34829,381.44688 544.34375,382.06254 C 546.70013,382.79176 545.51938,385.98881 546.28264,387.82124 C 546.80854,389.76152 546.6455,392.67747 548.59375,393.75004 C 550.8506,393.29696 551.11765,390.14143 551.96655,388.33811 C 551.98055,385.33224 553.96927,385.87408 556.04772,386.7765 C 565.66312,389.38881 573.22668,396.12366 581.75,400.96879 C 585.59754,402.11069 589.75047,401.9171 593.71875,402.59379 C 593.75895,404.42864 595.4773,401.33764 593.5,401.59379 C 589.8894,401.15399 586.35032,400.58692 583.41179,398.2664 C 574.09134,392.58176 565.73424,385.47903 555.6177,381.16411 C 544.43672,376.09985 532.66277,372.26997 520.85274,369.0783 C 517.88233,368.46492 515.26726,370.54402 514.53125,373.40629 C 511.08303,380.79663 509.28671,389.1388 504.3125,395.68754 C 503.02398,397.86752 499.99927,397.44791 498.875,395.31254 C 494.41307,390.04299 490.71119,382.70225 483.4375,381.25004 C 473.25783,380.79145 463.02757,380.83543 452.85609,381.16334 C 447.9016,382.14216 444.70894,387.02878 439.90625,388.09383 C 421.90923,385.63157 403.96566,380.3953 387.8125,372.15633 C 377.09104,362.74396 366.39118,353.29733 355.65625,343.90633 C 344.9862,339.80281 334.34295,335.44708 323.65625,331.50008 C 321.34484,331.88652 317.80747,333.75591 316.3125,331.06258 C 314.736,327.62654 311.44037,325.07165 307.53125,325.28133 C 301.94224,324.31703 298.84158,318.45582 293.75,316.43758 C 285.63247,312.64664 276.48027,311.19368 267.6875,309.50008 C 266.78349,308.95345 265.81473,308.2554 264.6875,308.46883 L 264.6875,308.46875 z M 124.4375,350.4375 C 104.18793,354.71864 83.505585,357.57179 62.9375,360.3125 C 61.390659,361.83909 66.645142,360.64705 67.952684,360.73705 C 87.291872,358.82042 106.888,356.99201 125.4753,351.14619 C 129.12766,349.87785 126.58312,349.71276 124.4375,350.4375 z"
         id="path3498"
         style="opacity:0.04545498;fill:url(#radialGradient4858);fill-opacity:1;stroke:none" />
    </g>
  </g>
</svg>
