<?xml version="1.0" encoding="UTF-8" standalone="no"?>
<!-- Created with Inkscape (http://www.inkscape.org/) -->
<svg xmlns:dc="http://purl.org/dc/elements/1.1/" xmlns:cc="http://web.resource.org/cc/" xmlns:rdf="http://www.w3.org/1999/02/22-rdf-syntax-ns#" xmlns:svg="http://www.w3.org/2000/svg" xmlns="http://www.w3.org/2000/svg" xmlns:xlink="http://www.w3.org/1999/xlink" xmlns:sodipodi="http://sodipodi.sourceforge.net/DTD/sodipodi-0.dtd" xmlns:inkscape="http://www.inkscape.org/namespaces/inkscape" width="2271.4375" height="1665.7122" id="svg2" sodipodi:version="0.32" inkscape:version="0.45.1" sodipodi:docbase="/Users/johnolsen/Desktop" sodipodi:docname="carlitos_Cartoon_Landscape.svg" inkscape:output_extension="org.inkscape.output.svg.inkscape" version="1.0">
  <defs id="defs4">
    <linearGradient id="linearGradient4641">
      <stop style="stop-color: rgb(252, 175, 62); stop-opacity: 1;" offset="0" id="stop4643"/>
      <stop style="stop-color: rgb(255, 206, 134); stop-opacity: 1;" offset="1" id="stop4645"/>
    </linearGradient>
    <linearGradient id="linearGradient4368">
      <stop id="stop4370" offset="0" style="stop-color: rgb(105, 208, 7); stop-opacity: 1;"/>
      <stop id="stop4372" offset="1" style="stop-color: rgb(78, 154, 6); stop-opacity: 0;"/>
    </linearGradient>
    <linearGradient id="linearGradient4336">
      <stop style="stop-color: rgb(69, 137, 5); stop-opacity: 1;" offset="0" id="stop4338"/>
      <stop style="stop-color: rgb(78, 154, 6); stop-opacity: 0;" offset="1" id="stop4340"/>
    </linearGradient>
    <linearGradient id="linearGradient4328">
      <stop style="stop-color: rgb(143, 89, 2); stop-opacity: 1;" offset="0" id="stop4330"/>
      <stop style="stop-color: rgb(114, 71, 1); stop-opacity: 1;" offset="1" id="stop4332"/>
    </linearGradient>
    <linearGradient id="linearGradient4238">
      <stop style="stop-color: rgb(85, 168, 0); stop-opacity: 1;" offset="0" id="stop4240"/>
      <stop style="stop-color: rgb(116, 228, 0); stop-opacity: 1;" offset="1" id="stop4242"/>
    </linearGradient>
    <linearGradient id="linearGradient4191">
      <stop style="stop-color: rgb(0, 121, 0); stop-opacity: 1;" offset="0" id="stop4193"/>
      <stop style="stop-color: rgb(0, 132, 0); stop-opacity: 0;" offset="1" id="stop4195"/>
    </linearGradient>
    <linearGradient id="linearGradient4180">
      <stop style="stop-color: rgb(0, 164, 0); stop-opacity: 1;" offset="0" id="stop4182"/>
      <stop style="stop-color: rgb(0, 164, 0); stop-opacity: 0;" offset="1" id="stop4184"/>
    </linearGradient>
    <linearGradient id="linearGradient4103">
      <stop style="stop-color: rgb(0, 172, 244); stop-opacity: 1;" offset="0" id="stop4105"/>
      <stop style="stop-color: rgb(166, 229, 255); stop-opacity: 1;" offset="1" id="stop4107"/>
    </linearGradient>
    <linearGradient inkscape:collect="always" xlink:href="#linearGradient4103" id="linearGradient4109" x1="345.71426" y1="-241.92688" x2="345.71426" y2="978.1759" gradientUnits="userSpaceOnUse" gradientTransform="translate(0, -153.543)"/>
    <linearGradient inkscape:collect="always" xlink:href="#linearGradient4191" id="linearGradient4200" gradientUnits="userSpaceOnUse" x1="-242.85715" y1="405.21933" x2="-248.57143" y2="994.63672"/>
    <clipPath clipPathUnits="userSpaceOnUse" id="clipPath4234">
      <path style="opacity: 1; fill: rgb(156, 240, 0); fill-opacity: 1; stroke: none; stroke-width: 3; stroke-linecap: round; stroke-linejoin: round; stroke-miterlimit: 4; stroke-dasharray: none; stroke-dashoffset: 0pt; stroke-opacity: 1;" d="M -1433.2321,-115.47321 C -1444.8877,-115.47321 -1454.2946,-109.72107 -1454.2946,-102.59821 L -1454.2946,727.43304 C -1380.613,717.5258 -1300.4421,712.37054 -1217.1384,712.37054 C -873.32127,712.37053 -732.83268,756.48802 -394.29464,948.08929 C -51.43751,1142.135 380.97336,1409.5133 -1285.7009,1412.3705 C -1345.8057,1412.4738 -1402.1848,1402.9724 -1454.2946,1386.4331 L -1454.2946,1537.4018 C -1454.2946,1544.5247 -1444.8877,1550.2458 -1433.2321,1550.2455 L 796.11166,1550.2455 C 807.76716,1550.2455 817.14286,1544.5246 817.14286,1537.4018 L 817.14286,897.40179 L 817.14286,829.99554 L 817.14286,-102.59821 C 817.14286,-109.72107 807.76706,-115.47321 796.11166,-115.47321 L -1433.2321,-115.47321 z " id="path4236"/>
    </clipPath>
    <clipPath clipPathUnits="userSpaceOnUse" id="clipPath4253">
      <path style="opacity: 1; fill: url(#linearGradient4257) rgb(0, 0, 0); fill-opacity: 1; stroke: none; stroke-width: 3; stroke-linecap: round; stroke-linejoin: round; stroke-miterlimit: 4; stroke-dasharray: none; stroke-dashoffset: 0pt; stroke-opacity: 1;" d="M -458.94643,-138.33036 C -470.60201,-138.33036 -480.00893,-132.57822 -480.00893,-125.45536 L -480.00893,704.57589 L -480.00893,874.54464 L -480.00893,1514.5446 C -480.00893,1521.6675 -470.60199,1527.3885 -458.94643,1527.3883 L 1770.3974,1527.3883 C 1782.0529,1527.3883 1791.4286,1521.6674 1791.4286,1514.5446 L 1791.4286,874.54464 L 1791.4286,807.13839 L 1791.4286,-125.45536 C 1791.4286,-132.57822 1782.0529,-138.33036 1770.3974,-138.33036 L -458.94643,-138.33036 z " id="path4255"/>
    </clipPath>
    <linearGradient inkscape:collect="always" xlink:href="#linearGradient4103" id="linearGradient4257" gradientUnits="userSpaceOnUse" gradientTransform="translate(251.429, -90.6861)" x1="345.71426" y1="-241.92688" x2="345.71426" y2="978.1759"/>
    <linearGradient inkscape:collect="always" xlink:href="#linearGradient4180" id="linearGradient4261" gradientUnits="userSpaceOnUse" x1="-242.85715" y1="605.08643" x2="-242.85715" y2="1096.6478"/>
    <linearGradient inkscape:collect="always" xlink:href="#linearGradient4238" id="linearGradient4263" gradientUnits="userSpaceOnUse" x1="404.28125" y1="543.41498" x2="428.5249" y2="1831.1267"/>
    <linearGradient inkscape:collect="always" xlink:href="#linearGradient4336" id="linearGradient4382" gradientUnits="userSpaceOnUse" x1="-664.67871" y1="1024.9598" x2="-734.84564" y2="762.32013"/>
    <linearGradient inkscape:collect="always" xlink:href="#linearGradient4368" id="linearGradient4384" gradientUnits="userSpaceOnUse" x1="-1133.0326" y1="223.79074" x2="-1071.7157" y2="463.79074"/>
    <linearGradient inkscape:collect="always" xlink:href="#linearGradient4368" id="linearGradient4386" gradientUnits="userSpaceOnUse" x1="-1521.5546" y1="326.64789" x2="-1141.5403" y2="806.80164"/>
    <linearGradient inkscape:collect="always" xlink:href="#linearGradient4336" id="linearGradient4388" gradientUnits="userSpaceOnUse" x1="-1381.4706" y1="990.43616" x2="-983.90717" y2="651.0249"/>
    <linearGradient inkscape:collect="always" xlink:href="#linearGradient4328" id="linearGradient4390" gradientUnits="userSpaceOnUse" x1="-2329.5454" y1="1589.9091" x2="-2157.5569" y2="1589.9091"/>
    <filter inkscape:collect="always" x="-0.19116105" width="1.3823221" y="-0.63012344" height="2.2602468" id="filter4635">
      <feGaussianBlur inkscape:collect="always" stdDeviation="40.507936" id="feGaussianBlur4637"/>
    </filter>
    <radialGradient inkscape:collect="always" xlink:href="#linearGradient4641" id="radialGradient4647" cx="-640" cy="-27.637817" fx="-640" fy="-27.637817" r="284.19949" gradientTransform="matrix(1.38966, 0.707173, -0.555426, 1.09147, 234.034, 455.119)" gradientUnits="userSpaceOnUse"/>
    <filter inkscape:collect="always" x="-0.24816327" width="1.4963264" y="-0.26434782" height="1.5286956" id="filter4962">
      <feGaussianBlur inkscape:collect="always" stdDeviation="57.904762" id="feGaussianBlur4964"/>
    </filter>
    <filter inkscape:collect="always" x="-0.13033217" width="1.2606643" y="-0.29791084" height="1.5958217" id="filter5183">
      <feGaussianBlur inkscape:collect="always" stdDeviation="24.825904" id="feGaussianBlur5185"/>
    </filter>
    <clipPath clipPathUnits="userSpaceOnUse" id="clipPath5381">
      <path style="opacity: 0.893333; fill: rgb(253, 253, 253); fill-opacity: 1; stroke: none; stroke-width: 5; stroke-linecap: round; stroke-linejoin: round; stroke-miterlimit: 4; stroke-dasharray: none; stroke-dashoffset: 0pt; stroke-opacity: 1;" d="M 66.775486,-44.781199 C 18.262986,-44.781199 -23.501514,-32.851269 -42.109054,-15.752199 C -46.377914,-16.047019 -50.718544,-16.209809 -55.128924,-16.209769 C -113.02051,-16.209769 -160.01339,10.306087 -160.01339,42.97548 C -160.01339,71.56698 -124.01781,95.440051 -76.227394,100.95537 C -61.379114,131.8748 5.0531863,155.21877 84.697386,155.2188 C 175.24579,155.2188 248.73999,125.05055 248.73999,87.875016 L 248.62229,86.792444 C 277.95599,77.560408 297.14289,62.290908 297.14289,45.017873 L 296.72129,40.63173 C 291.62069,14.122372 242.75389,-5.9889126 183.39549,-6.0089126 C 171.91539,-28.442309 123.98999,-44.781239 66.775486,-44.781199 z " id="path5383"/>
    </clipPath>
    <filter inkscape:collect="always" x="-0.095725909" width="1.1914518" y="-0.21880852" height="1.4376169" id="filter5445">
      <feGaussianBlur inkscape:collect="always" stdDeviation="18.234042" id="feGaussianBlur5447"/>
    </filter>
    <clipPath clipPathUnits="userSpaceOnUse" id="clipPath5495">
      <path id="path5497" d="M 1101.0612,-136.20977 C 1052.5487,-136.20977 1010.7842,-124.27984 992.17666,-107.18077 C 987.9078,-107.47559 983.56717,-107.63838 979.15679,-107.63834 C 921.2652,-107.63834 874.27232,-81.122484 874.27232,-48.453091 C 874.27232,-19.861591 910.2679,4.0114801 958.05832,9.5268016 C 972.9066,40.44623 1039.3389,63.790194 1118.9831,63.79023 C 1209.5315,63.79023 1283.0257,33.62198 1283.0257,-3.5535556 L 1282.908,-4.636127 C 1312.2417,-13.868163 1331.4286,-29.137663 1331.4286,-46.410698 L 1331.007,-50.796841 C 1325.9064,-77.306199 1277.0396,-97.417484 1217.6812,-97.437484 C 1206.2011,-119.87088 1158.2757,-136.20981 1101.0612,-136.20977 z " style="opacity: 0.893333; fill: rgb(253, 253, 253); fill-opacity: 1; stroke: none; stroke-width: 5; stroke-linecap: round; stroke-linejoin: round; stroke-miterlimit: 4; stroke-dasharray: none; stroke-dashoffset: 0pt; stroke-opacity: 1;"/>
    </clipPath>
    <filter inkscape:collect="always" x="-0.095832475" width="1.1916651" y="-0.21905209" height="1.4381042" id="filter5575">
      <feGaussianBlur inkscape:collect="always" stdDeviation="18.254341" id="feGaussianBlur5577"/>
    </filter>
    <clipPath clipPathUnits="userSpaceOnUse" id="clipPath5671">
      <rect style="opacity: 1; fill: url(#linearGradient5675) rgb(0, 0, 0); fill-opacity: 1; stroke: none; stroke-width: 3; stroke-linecap: round; stroke-linejoin: round; stroke-miterlimit: 4; stroke-dasharray: none; stroke-dashoffset: 0pt; stroke-opacity: 1; display: inline;" id="rect5673" width="3815.5286" height="1722.9872" x="-791.15668" y="-243.84096" rx="35.341087" ry="21.597332"/>
    </clipPath>
    <linearGradient inkscape:collect="always" xlink:href="#linearGradient4103" id="linearGradient5675" gradientUnits="userSpaceOnUse" gradientTransform="matrix(1.67979, 0, 0, 1.67979, 437.492, -163.819)" x1="345.71426" y1="-241.92688" x2="345.71426" y2="978.1759"/>
    <clipPath clipPathUnits="userSpaceOnUse" id="clipPath5677">
      <rect ry="20.374983" rx="33.340881" y="-231.60446" x="-782.60162" height="1625.4709" width="3599.5803" id="rect5679" style="opacity: 1; fill: url(#linearGradient5681) rgb(0, 0, 0); fill-opacity: 1; stroke: none; stroke-width: 3; stroke-linecap: round; stroke-linejoin: round; stroke-miterlimit: 4; stroke-dasharray: none; stroke-dashoffset: 0pt; stroke-opacity: 1; display: inline;"/>
    </clipPath>
    <linearGradient inkscape:collect="always" xlink:href="#linearGradient4103" id="linearGradient5681" gradientUnits="userSpaceOnUse" gradientTransform="matrix(1.58472, 0, 0, 1.58472, 376.509, -156.112)" x1="345.71426" y1="-241.92688" x2="345.71426" y2="978.1759"/>
  </defs>
  <sodipodi:namedview id="base" pagecolor="#ffffff" bordercolor="#666666" borderopacity="1.0" gridtolerance="10000" guidetolerance="10" objecttolerance="10" inkscape:pageopacity="0.0" inkscape:pageshadow="2" inkscape:zoom="0.175" inkscape:cx="1516.3052" inkscape:cy="-40.374307" inkscape:document-units="px" inkscape:current-layer="layer1" inkscape:window-width="1018" inkscape:window-height="715" inkscape:window-x="0" inkscape:window-y="0" showguides="true" inkscape:guide-bbox="true" borderlayer="true"/>
  <metadata id="metadata7">
    <rdf:RDF>
      <cc:Work rdf:about="">
        <dc:format>image/svg+xml</dc:format>
        <dc:type rdf:resource="http://purl.org/dc/dcmitype/StillImage"/>
        <dc:title>Summer Landscape</dc:title>
        <dc:creator>
          <cc:Agent>
            <dc:title>Carlos Asmat</dc:title>
          </cc:Agent>
        </dc:creator>
        <dc:subject>
          <rdf:Bag>
            <rdf:li>summer</rdf:li>
            <rdf:li>green</rdf:li>
            <rdf:li>landscape</rdf:li>
            <rdf:li>tree</rdf:li>
            <rdf:li>clouds</rdf:li>
          </rdf:Bag>
        </dc:subject>
        <dc:description>A simple summer landscape featuring green grass, a blue sky and white clouds.</dc:description>
      </cc:Work>
    </rdf:RDF>
  </metadata>
  <g inkscape:groupmode="layer" id="layer2" inkscape:label="background" style="display: inline;" transform="translate(731.438, 201.181)">
    <rect style="opacity: 1; fill: url(#linearGradient4109) rgb(0, 0, 0); fill-opacity: 1; stroke: none; stroke-width: 3; stroke-linecap: round; stroke-linejoin: round; stroke-miterlimit: 4; stroke-dasharray: none; stroke-dashoffset: 0pt; stroke-opacity: 1;" id="rect2160" width="2271.4285" height="1025.7142" x="-731.42859" y="-201.181" rx="21.03896" ry="12.857142"/>
    <path style="fill: url(#linearGradient4263) rgb(0, 0, 0); fill-opacity: 1; stroke: none; stroke-width: 3; stroke-linecap: round; stroke-linejoin: round; stroke-miterlimit: 4; stroke-dashoffset: 0pt; stroke-opacity: 1;" d="M 480,603.78125 C 264.82844,603.78125 100.77847,638.02202 -26.1875,690.1875 C -165.88025,641.26146 -296.41173,626.65624 -494.28125,626.65625 C -577.58416,626.65625 -657.75688,631.8113 -731.4375,641.71875 L -731.4375,1451.6875 C -731.4375,1458.8104 -722.03056,1464.5313 -710.375,1464.5312 L 1518.9688,1464.5312 C 1530.6243,1464.5312 1540,1458.8103 1540,1451.6875 L 1540,744.28125 C 1372.2567,745.2097 1205.8213,747.45509 1040.875,751 C 872.82748,687.1162 736.8416,603.78126 480,603.78125 z " id="path4202"/>
    <path transform="translate(722.857, -85.7143)" style="fill: url(#linearGradient4200) rgb(0, 0, 0); fill-opacity: 1; stroke: none; stroke-width: 3; stroke-linecap: round; stroke-linejoin: round; stroke-miterlimit: 4; stroke-dashoffset: 0pt; stroke-opacity: 1;" d="M 505.71426,890.93359 C 779.37024,942.3124 4429.1607,1318.7496 -240,1266.6479 C -4901.0794,1214.5462 -1027.9364,953.26413 -939.99997,885.2193 C -799.99997,776.88788 -586.67428,689.50502 -242.85715,689.50502 C 100.95998,689.50502 228.21701,838.83359 505.71426,890.93359 z " id="path4113" sodipodi:nodetypes="czszz" clip-path="url(#clipPath4234)"/>
    <path transform="translate(-251.429, -62.8571)" style="fill: url(#linearGradient4261) rgb(0, 0, 0); fill-opacity: 1; stroke: none; stroke-width: 3; stroke-linecap: round; stroke-linejoin: round; stroke-miterlimit: 4; stroke-dashoffset: 0pt; stroke-opacity: 1; display: inline;" d="M 579.99997,925.2193 C 922.85711,1119.265 1355.2457,1386.6479 -311.42858,1389.5051 C -655.2452,1390.0955 -876.94392,1076.8391 -877.14283,925.2193 C -877.33326,777.20419 -586.67428,689.50502 -242.85715,689.50502 C 100.95998,689.50502 241.46193,733.61804 579.99997,925.2193 z " id="path4111" sodipodi:nodetypes="csssz" clip-path="url(#clipPath4253)"/>
  </g>
  <g inkscape:label="Layer 1" inkscape:groupmode="layer" id="layer1" style="display: inline;" transform="translate(731.438, 201.181)">
    <path transform="matrix(-1.39999, 0, 0, 1, 175.983, 891.429)" style="opacity: 0.0311111; fill: rgb(0, 0, 0); fill-opacity: 1; stroke: none; stroke-width: 5; stroke-linecap: round; stroke-linejoin: round; stroke-miterlimit: 4; stroke-dasharray: none; stroke-dashoffset: 0pt; stroke-opacity: 1; filter: url(#filter5183);" d="M 66.775486,-44.781199 C 18.262986,-44.781199 -23.501514,-32.851269 -42.109054,-15.752199 C -46.377914,-16.047019 -50.718544,-16.209809 -55.128924,-16.209769 C -113.02051,-16.209769 -160.01339,10.306087 -160.01339,42.97548 C -160.01339,71.56698 -124.01781,95.440051 -76.227394,100.95537 C -61.379114,131.8748 5.0531863,155.21877 84.697386,155.2188 C 175.24579,155.2188 248.73999,125.05055 248.73999,87.875016 L 248.62229,86.792444 C 277.95599,77.560408 297.14289,62.290908 297.14289,45.017873 L 296.72129,40.63173 C 291.62069,14.122372 242.75389,-5.9889126 183.39549,-6.0089126 C 171.91539,-28.442309 123.98999,-44.781239 66.775486,-44.781199 z " id="path5189"/>
    <path transform="matrix(0.631026, 0, 0, 0.631026, -237.587, -55.0326)" sodipodi:open="true" sodipodi:end="6.1971643" sodipodi:start="0" d="M -360,-27.637817 A 280,262.85715 0 1 1 -361.03531,-50.221179" sodipodi:ry="262.85715" sodipodi:rx="280" sodipodi:cy="-27.637817" sodipodi:cx="-640" id="path4649" style="opacity: 0.288889; fill: rgb(245, 121, 0); fill-opacity: 1; stroke: none; stroke-width: 8.39896; stroke-linecap: round; stroke-linejoin: round; stroke-miterlimit: 4; stroke-dasharray: none; stroke-dashoffset: 0pt; stroke-opacity: 1; filter: url(#filter4962);" sodipodi:type="arc" clip-path="url(#clipPath5677)"/>
    <g id="g4374" transform="matrix(0.545965, 0, 0, 0.545965, 940.019, 86.9666)">
      <path id="path4314" d="M -2312.1875,385.40625 C -2407.0628,385.40625 -2490.5953,428.54949 -2539.125,493.8125 C -2691.4372,520.34488 -2806.4688,639.58385 -2806.4688,782.5625 C -2806.4688,859.39039 -2773.2372,929.35422 -2718.875,981.78125 C -2720.1048,992.36099 -2720.75,1003.1184 -2720.75,1014 C -2720.75,1178.0229 -2577.39,1311.125 -2400.75,1311.125 C -2313.6375,1311.125 -2234.6273,1278.7422 -2176.9062,1226.25 C -2137.6759,1244.105 -2094.5475,1254 -2049.3125,1254 C -1867.9411,1254 -1720.75,1095.2532 -1720.75,899.6875 C -1720.75,704.12179 -1867.9411,545.40627 -2049.3125,545.40625 C -2051.6151,545.40625 -2053.9274,545.44909 -2056.2188,545.5 C -2093.4861,452.28106 -2194.0513,385.40624 -2312.1875,385.40625 z " style="opacity: 1; fill: rgb(78, 154, 6); fill-opacity: 1; stroke: none; stroke-width: 3; stroke-linecap: round; stroke-linejoin: round; stroke-miterlimit: 4; stroke-dasharray: none; stroke-dashoffset: 0pt; stroke-opacity: 1;"/>
      <path transform="translate(-1212.18, 161.624)" d="M -508.57144 738.07648 A 328.57144 354.28571 0 1 1  -1165.7143,738.07648 A 328.57144 354.28571 0 1 1  -508.57144 738.07648 z" sodipodi:ry="354.28571" sodipodi:rx="328.57144" sodipodi:cy="738.07648" sodipodi:cx="-837.14288" id="path4305" style="opacity: 1; fill: url(#linearGradient4382) rgb(0, 0, 0); fill-opacity: 1; stroke: none; stroke-width: 3; stroke-linecap: round; stroke-linejoin: round; stroke-miterlimit: 4; stroke-dasharray: none; stroke-dashoffset: 0pt; stroke-opacity: 1;" sodipodi:type="arc"/>
      <path transform="translate(-1212.18, 161.624)" d="M -828.57144 463.79074 A 271.42856 240 0 1 1  -1371.4286,463.79074 A 271.42856 240 0 1 1  -828.57144 463.79074 z" sodipodi:ry="240" sodipodi:rx="271.42856" sodipodi:cy="463.79074" sodipodi:cx="-1100" id="path4301" style="opacity: 1; fill: url(#linearGradient4384) rgb(0, 0, 0); fill-opacity: 1; stroke: none; stroke-width: 3; stroke-linecap: round; stroke-linejoin: round; stroke-miterlimit: 4; stroke-dasharray: none; stroke-dashoffset: 0pt; stroke-opacity: 1;" sodipodi:type="arc"/>
      <path transform="translate(-1212.18, 161.624)" d="M -931.42862 620.93359 A 331.42856 294.28571 0 1 1  -1594.2857,620.93359 A 331.42856 294.28571 0 1 1  -931.42862 620.93359 z" sodipodi:ry="294.28571" sodipodi:rx="331.42856" sodipodi:cy="620.93359" sodipodi:cx="-1262.8572" id="path4303" style="opacity: 1; fill: url(#linearGradient4386) rgb(0, 0, 0); fill-opacity: 1; stroke: none; stroke-width: 3; stroke-linecap: round; stroke-linejoin: round; stroke-miterlimit: 4; stroke-dasharray: none; stroke-dashoffset: 0pt; stroke-opacity: 1;" sodipodi:type="arc"/>
      <path transform="translate(-1315.04, 173.053)" d="M -765.71423 840.93359 A 320 297.14285 0 1 1  -1405.7142,840.93359 A 320 297.14285 0 1 1  -765.71423 840.93359 z" sodipodi:ry="297.14285" sodipodi:rx="320" sodipodi:cy="840.93359" sodipodi:cx="-1085.7142" id="path4307" style="opacity: 0.311111; fill: url(#linearGradient4388) rgb(0, 0, 0); fill-opacity: 1; stroke: none; stroke-width: 3; stroke-linecap: round; stroke-linejoin: round; stroke-miterlimit: 4; stroke-dasharray: none; stroke-dashoffset: 0pt; stroke-opacity: 1;" sodipodi:type="arc"/>
      <path sodipodi:nodetypes="ccccc" id="rect4323" d="M -2416.285,1137.215 C -2248.5997,1416.0171 -2265.7723,1062.4637 -2177.889,1181.6617 C -2239.5084,1531.1745 -2127.3814,1662.4943 -2165.7672,2030.1899 C -2289.0058,2074.6366 -2275.8738,1983.7229 -2501.1378,2005.9462 C -2508.2089,1664.5146 -2418.3052,1379.6517 -2416.285,1137.215 z " style="fill: url(#linearGradient4390) rgb(0, 0, 0); fill-opacity: 1; stroke: none; stroke-width: 3; stroke-linecap: round; stroke-linejoin: round; stroke-miterlimit: 4; stroke-dashoffset: 0pt; stroke-opacity: 1;"/>
    </g>
    <path sodipodi:nodetypes="ccccccscccccszccczcczsc" id="path7786" d="M -553.80313,1101.6263 C -557.98653,1103.053 -559.0329,1106.3293 -562.54541,1111.2287 C -567.11629,1119.6366 -576.3747,1144.818 -575.33299,1148.9355 C -573.95237,1156.3529 -562.32119,1114.3232 -553.80313,1101.6263 z M -632.33952,1119.9612 C -622.41091,1150.2629 -621.47633,1152.5329 -613.73299,1152.0934 C -615.37744,1146.5021 -620.09841,1141.9483 -623.41123,1136.6353 C -626.94239,1130.9716 -628.86179,1120.3801 -632.33952,1119.9612 z M -597.44061,1121.066 C -608.74071,1140.8645 -609.94761,1147.995 -608.04428,1150.2246 C -604.56405,1152.3768 -605.32373,1146.7593 -597.44061,1121.066 z M -576.29988,1125.3117 C -579.08181,1124.552 -581.10842,1131.4094 -582.21419,1137.0183 C -585.03746,1151.3395 -585.06944,1149.2727 -583.16631,1150.4865 C -580.54246,1152.1598 -580.55894,1137.547 -576.29988,1125.3117 z M -557.58781,1123.9966 C -560.49962,1124.1364 -562.0142,1129.9378 -564.05605,1135.2926 C -566.10671,1145.5036 -572.07538,1151.8463 -567.86584,1152.2343 C -563.68064,1152.6199 -560.78514,1136.116 -557.58781,1123.9966 z M -588.79623,1127.9244 C -597.97882,1144.3429 -599.94284,1149.3788 -596.25449,1150.0568 C -593.87659,1150.4938 -593.68888,1146.4818 -590.97407,1139.7363 C -589.22538,1135.3912 -587.04516,1131.5839 -588.79623,1127.9244 z " style="opacity: 0.698; fill: rgb(30, 158, 0); fill-opacity: 1; stroke: none; stroke-width: 3; stroke-linecap: round; stroke-linejoin: round; stroke-miterlimit: 4; stroke-dasharray: none; stroke-dashoffset: 0pt; stroke-opacity: 1;"/>
    <g id="g7640" transform="translate(-21.4286, -365.714)">
      <path transform="matrix(1.75, 0, 0, 1.03636, 432.134, 492.033)" d="M -485.71429 1150.9336 A 17.142857 15.714286 0 1 1  -520,1150.9336 A 17.142857 15.714286 0 1 1  -485.71429 1150.9336 z" sodipodi:ry="15.714286" sodipodi:rx="17.142857" sodipodi:cy="1150.9336" sodipodi:cx="-502.85715" id="path4271" style="fill: rgb(173, 127, 168); fill-opacity: 1; stroke: none; stroke-width: 3; stroke-linecap: round; stroke-linejoin: round; stroke-miterlimit: 4; stroke-dasharray: none; stroke-dashoffset: 0pt; stroke-opacity: 1; display: inline;" sodipodi:type="arc"/>
      <path transform="matrix(0.153952, 0, 0, 0.095273, -814.707, 1439.07)" sodipodi:type="star" style="fill: rgb(206, 92, 0); fill-opacity: 1; stroke: none; stroke-width: 3; stroke-linecap: round; stroke-linejoin: round; stroke-miterlimit: 4; stroke-dasharray: none; stroke-dashoffset: 0pt; stroke-opacity: 1;" id="path5606" sodipodi:sides="6" sodipodi:cx="1725.3406" sodipodi:cy="830.1286" sodipodi:r1="112.86618" sodipodi:r2="87.586037" sodipodi:arg1="0.77274061" sodipodi:arg2="1.285516" inkscape:flatsided="false" inkscape:rounded="0.29" inkscape:randomized="0.041" d="M 1804.4073,906.05549 C 1793.2426,918.2071 1765.694,907.09197 1750.059,911.10682 C 1733.9068,915.25448 1716.4724,948.9533 1700.105,944.02625 C 1684.2616,939.25696 1674.1309,901.72319 1662.5601,889.92826 C 1650.6065,877.74318 1626.3336,880.18635 1621.128,863.84379 C 1616.089,848.0245 1637.6118,822.39297 1641.9362,806.3804 C 1646.4036,789.83816 1634.902,761.98757 1646.9428,750.18758 C 1658.5981,738.76542 1684.3223,754.63857 1699.7579,750.22144 C 1715.7041,745.65819 1732.7199,718.22536 1749.213,722.28525 C 1765.1779,726.21515 1775.707,754.36369 1787.4092,765.68235 C 1799.4986,777.37542 1832.0628,780.82456 1837.5974,796.75007 C 1842.9547,812.16566 1810.1842,830.21759 1806.8828,846.4043 C 1803.4723,863.12645 1815.9413,893.50193 1804.4073,906.05549 z "/>
      <path transform="matrix(0.190687, 0, 0, 0.0978986, -929.806, 1473.25)" sodipodi:type="star" style="fill: rgb(245, 121, 0); fill-opacity: 1; stroke: none; stroke-width: 3; stroke-linecap: round; stroke-linejoin: round; stroke-miterlimit: 4; stroke-dasharray: none; stroke-dashoffset: 0pt; stroke-opacity: 1;" id="path5604" sodipodi:sides="6" sodipodi:cx="1725.3406" sodipodi:cy="830.1286" sodipodi:r1="112.86618" sodipodi:r2="96.218704" sodipodi:arg1="0.77274061" sodipodi:arg2="1.2963394" inkscape:flatsided="false" inkscape:rounded="0.29" inkscape:randomized="0.041" d="M 1804.4073,906.05549 C 1793.1025,918.09508 1771.5149,920.28783 1755.4628,924.50843 C 1739.4106,928.72902 1715.9084,948.9709 1700.105,944.02625 C 1684.3016,939.0816 1669.9044,914.72418 1658.3953,903.12166 C 1646.8863,891.51914 1625.9992,879.7295 1621.128,863.84379 C 1616.2568,847.95808 1631.9165,823.49182 1635.738,807.81229 C 1639.5594,792.13276 1635.155,761.49186 1646.9428,750.18758 C 1658.7307,738.8833 1687.7864,745.83399 1703.1101,740.77832 C 1718.4337,735.72264 1733.2787,718.1793 1749.213,722.28525 C 1765.1472,726.3912 1779.4664,751.07858 1790.9226,763.18985 C 1802.3789,775.30111 1832.4032,781.26491 1837.5974,796.75007 C 1842.7916,812.23523 1826.6255,837.74355 1822.3359,853.20268 C 1818.0464,868.6618 1815.7121,894.0159 1804.4073,906.05549 z "/>
      <path d="M 1819.1901,912.60002 C 1808.1892,925.34982 1776.6465,906.3155 1761.4591,913.11503 C 1746.2716,919.91456 1715.0785,956.40624 1698.4354,952.18237 C 1681.7922,947.95851 1673.3968,914.43744 1659.4082,903.87652 C 1645.4196,893.3156 1620.6062,894.75448 1614.1004,878.98259 C 1607.5947,863.2107 1622.6861,826.30507 1626.5964,809.88324 C 1630.5066,793.4614 1619.1523,763.43007 1630.0245,749.83325 C 1640.8967,736.23643 1673.9027,738.98705 1690.0893,734.46557 C 1706.2759,729.9441 1724.4727,708.29109 1741.4155,711.09202 C 1758.3583,713.89294 1774.9111,741.08186 1788.9846,751.00768 C 1803.0581,760.93349 1829.9689,771.94313 1837.4484,787.57478 C 1844.9278,803.20643 1826.2294,821.15724 1824.3705,838.18479 C 1822.5116,855.21235 1830.191,899.85022 1819.1901,912.60002 z " inkscape:randomized="0.066" inkscape:rounded="0.29" inkscape:flatsided="false" sodipodi:arg2="1.2117437" sodipodi:arg1="0.68814496" sodipodi:r2="96.218704" sodipodi:r1="117.69902" sodipodi:cy="830.1286" sodipodi:cx="1725.3406" sodipodi:sides="6" id="path5600" style="fill: rgb(252, 201, 22); fill-opacity: 1; stroke: none; stroke-width: 3; stroke-linecap: round; stroke-linejoin: round; stroke-miterlimit: 4; stroke-dasharray: none; stroke-dashoffset: 0pt; stroke-opacity: 1;" sodipodi:type="star" transform="matrix(0.155633, 0, 0, 0.071967, -784.809, 1467.44)"/>
      <path d="M 1818.078,909.67573 C 1807.1172,922.61264 1776.1042,909.28717 1760.5847,915.80307 C 1745.0651,922.31897 1718.084,953.62097 1701.3238,949.93066 C 1684.5637,946.24035 1674.9424,914.7845 1661.2352,904.09389 C 1647.5281,893.40328 1620.822,892.0233 1614.4969,876.14318 C 1608.1719,860.26307 1624.5461,828.19897 1628.0453,811.58183 C 1631.5444,794.96469 1620.8123,765.39638 1631.6921,751.93327 C 1642.5718,738.47017 1674.4828,741.6683 1690.6352,736.57928 C 1706.7876,731.49025 1725.6971,709.39699 1742.6294,712.20086 C 1759.5617,715.00473 1774.2569,742.52685 1788.0244,752.82553 C 1801.7918,763.12422 1829.792,772.22081 1836.7232,788.02776 C 1843.6544,803.83471 1825.0327,824.11215 1822.8134,841.10331 C 1820.594,858.09446 1829.0389,896.73881 1818.078,909.67573 z " inkscape:randomized="0.041" inkscape:rounded="0.29" inkscape:flatsided="false" sodipodi:arg2="1.2117437" sodipodi:arg1="0.68814496" sodipodi:r2="96.218704" sodipodi:r1="117.69902" sodipodi:cy="830.1286" sodipodi:cx="1725.3406" sodipodi:sides="6" id="path5598" style="fill: rgb(173, 127, 168); fill-opacity: 1; stroke: none; stroke-width: 3; stroke-linecap: round; stroke-linejoin: round; stroke-miterlimit: 4; stroke-dasharray: none; stroke-dashoffset: 0pt; stroke-opacity: 1;" sodipodi:type="star" transform="matrix(0.175384, 0, 0, 0.10368, -869.202, 1451.48)"/>
      <path d="M 1804.4073,906.05549 C 1793.2426,918.2071 1765.694,907.09197 1750.059,911.10682 C 1733.9068,915.25448 1716.4724,948.9533 1700.105,944.02625 C 1684.2616,939.25696 1674.1309,901.72319 1662.5601,889.92826 C 1650.6065,877.74318 1626.3336,880.18635 1621.128,863.84379 C 1616.089,848.0245 1637.6118,822.39297 1641.9362,806.3804 C 1646.4036,789.83816 1634.902,761.98757 1646.9428,750.18758 C 1658.5981,738.76542 1684.3223,754.63857 1699.7579,750.22144 C 1715.7041,745.65819 1732.7199,718.22536 1749.213,722.28525 C 1765.1779,726.21515 1775.707,754.36369 1787.4092,765.68235 C 1799.4986,777.37542 1832.0628,780.82456 1837.5974,796.75007 C 1842.9547,812.16566 1810.1842,830.21759 1806.8828,846.4043 C 1803.4723,863.12645 1815.9413,893.50193 1804.4073,906.05549 z " inkscape:randomized="0.041" inkscape:rounded="0.29" inkscape:flatsided="false" sodipodi:arg2="1.285516" sodipodi:arg1="0.77274061" sodipodi:r2="87.586037" sodipodi:r1="112.86618" sodipodi:cy="830.1286" sodipodi:cx="1725.3406" sodipodi:sides="6" id="path5594" style="fill: rgb(206, 92, 0); fill-opacity: 1; stroke: none; stroke-width: 3; stroke-linecap: round; stroke-linejoin: round; stroke-miterlimit: 4; stroke-dasharray: none; stroke-dashoffset: 0pt; stroke-opacity: 1;" sodipodi:type="star" transform="matrix(0.245771, 0, 0, 0.140189, -999.917, 1454.5)"/>
      <path transform="matrix(0.207062, 0, 0, 0.10368, -901.016, 1475.76)" sodipodi:type="star" style="fill: rgb(52, 101, 164); fill-opacity: 1; stroke: none; stroke-width: 3; stroke-linecap: round; stroke-linejoin: round; stroke-miterlimit: 4; stroke-dasharray: none; stroke-dashoffset: 0pt; stroke-opacity: 1;" id="path5592" sodipodi:sides="6" sodipodi:cx="1725.3406" sodipodi:cy="830.1286" sodipodi:r1="117.69902" sodipodi:r2="96.218704" sodipodi:arg1="0.68814496" sodipodi:arg2="1.2117437" inkscape:flatsided="false" inkscape:rounded="0.29" inkscape:randomized="0.041" d="M 1818.078,909.67573 C 1807.1172,922.61264 1776.1042,909.28717 1760.5847,915.80307 C 1745.0651,922.31897 1718.084,953.62097 1701.3238,949.93066 C 1684.5637,946.24035 1674.9424,914.7845 1661.2352,904.09389 C 1647.5281,893.40328 1620.822,892.0233 1614.4969,876.14318 C 1608.1719,860.26307 1624.5461,828.19897 1628.0453,811.58183 C 1631.5444,794.96469 1620.8123,765.39638 1631.6921,751.93327 C 1642.5718,738.47017 1674.4828,741.6683 1690.6352,736.57928 C 1706.7876,731.49025 1725.6971,709.39699 1742.6294,712.20086 C 1759.5617,715.00473 1774.2569,742.52685 1788.0244,752.82553 C 1801.7918,763.12422 1829.792,772.22081 1836.7232,788.02776 C 1843.6544,803.83471 1825.0327,824.11215 1822.8134,841.10331 C 1820.594,858.09446 1829.0389,896.73881 1818.078,909.67573 z "/>
      <path transform="matrix(0.247001, 0, 0, 0.1163, -950.711, 1510.22)" sodipodi:type="star" style="fill: rgb(252, 175, 62); fill-opacity: 1; stroke: none; stroke-width: 3; stroke-linecap: round; stroke-linejoin: round; stroke-miterlimit: 4; stroke-dasharray: none; stroke-dashoffset: 0pt; stroke-opacity: 1;" id="path5590" sodipodi:sides="6" sodipodi:cx="1725.3406" sodipodi:cy="830.1286" sodipodi:r1="117.69902" sodipodi:r2="96.218704" sodipodi:arg1="0.68814496" sodipodi:arg2="1.2117437" inkscape:flatsided="false" inkscape:rounded="0.29" inkscape:randomized="0.066" d="M 1819.1901,912.60002 C 1808.1892,925.34982 1776.6465,906.3155 1761.4591,913.11503 C 1746.2716,919.91456 1715.0785,956.40624 1698.4354,952.18237 C 1681.7922,947.95851 1673.3968,914.43744 1659.4082,903.87652 C 1645.4196,893.3156 1620.6062,894.75448 1614.1004,878.98259 C 1607.5947,863.2107 1622.6861,826.30507 1626.5964,809.88324 C 1630.5066,793.4614 1619.1523,763.43007 1630.0245,749.83325 C 1640.8967,736.23643 1673.9027,738.98705 1690.0893,734.46557 C 1706.2759,729.9441 1724.4727,708.29109 1741.4155,711.09202 C 1758.3583,713.89294 1774.9111,741.08186 1788.9846,751.00768 C 1803.0581,760.93349 1829.9689,771.94313 1837.4484,787.57478 C 1844.9278,803.20643 1826.2294,821.15724 1824.3705,838.18479 C 1822.5116,855.21235 1830.191,899.85022 1819.1901,912.60002 z "/>
      <path transform="matrix(0.291681, 0, 0, 0.172271, -979.307, 1483.48)" sodipodi:type="star" style="fill: rgb(204, 0, 0); fill-opacity: 1; stroke: none; stroke-width: 3; stroke-linecap: round; stroke-linejoin: round; stroke-miterlimit: 4; stroke-dasharray: none; stroke-dashoffset: 0pt; stroke-opacity: 1;" id="path5586" sodipodi:sides="6" sodipodi:cx="1725.3406" sodipodi:cy="830.1286" sodipodi:r1="112.86618" sodipodi:r2="87.586037" sodipodi:arg1="0.77274061" sodipodi:arg2="1.285516" inkscape:flatsided="false" inkscape:rounded="0.29" inkscape:randomized="0.041" d="M 1804.4073,906.05549 C 1793.2426,918.2071 1765.694,907.09197 1750.059,911.10682 C 1733.9068,915.25448 1716.4724,948.9533 1700.105,944.02625 C 1684.2616,939.25696 1674.1309,901.72319 1662.5601,889.92826 C 1650.6065,877.74318 1626.3336,880.18635 1621.128,863.84379 C 1616.089,848.0245 1637.6118,822.39297 1641.9362,806.3804 C 1646.4036,789.83816 1634.902,761.98757 1646.9428,750.18758 C 1658.5981,738.76542 1684.3223,754.63857 1699.7579,750.22144 C 1715.7041,745.65819 1732.7199,718.22536 1749.213,722.28525 C 1765.1779,726.21515 1775.707,754.36369 1787.4092,765.68235 C 1799.4986,777.37542 1832.0628,780.82456 1837.5974,796.75007 C 1842.9547,812.16566 1810.1842,830.21759 1806.8828,846.4043 C 1803.4723,863.12645 1815.9413,893.50193 1804.4073,906.05549 z "/>
      <path d="M 1819.1901,912.60002 C 1808.1892,925.34982 1776.6465,906.3155 1761.4591,913.11503 C 1746.2716,919.91456 1715.0785,956.40624 1698.4354,952.18237 C 1681.7922,947.95851 1673.3968,914.43744 1659.4082,903.87652 C 1645.4196,893.3156 1620.6062,894.75448 1614.1004,878.98259 C 1607.5947,863.2107 1622.6861,826.30507 1626.5964,809.88324 C 1630.5066,793.4614 1619.1523,763.43007 1630.0245,749.83325 C 1640.8967,736.23643 1673.9027,738.98705 1690.0893,734.46557 C 1706.2759,729.9441 1724.4727,708.29109 1741.4155,711.09202 C 1758.3583,713.89294 1774.9111,741.08186 1788.9846,751.00768 C 1803.0581,760.93349 1829.9689,771.94313 1837.4484,787.57478 C 1844.9278,803.20643 1826.2294,821.15724 1824.3705,838.18479 C 1822.5116,855.21235 1830.191,899.85022 1819.1901,912.60002 z " inkscape:randomized="0.066" inkscape:rounded="0.29" inkscape:flatsided="false" sodipodi:arg2="1.2117437" sodipodi:arg1="0.68814496" sodipodi:r2="96.218704" sodipodi:r1="117.69902" sodipodi:cy="830.1286" sodipodi:cx="1725.3406" sodipodi:sides="6" id="path5582" style="fill: rgb(252, 175, 62); fill-opacity: 1; stroke: none; stroke-width: 3; stroke-linecap: round; stroke-linejoin: round; stroke-miterlimit: 4; stroke-dasharray: none; stroke-dashoffset: 0pt; stroke-opacity: 1;" sodipodi:type="star" transform="matrix(0.287959, 0, 0, 0.136989, -1023.18, 1551.22)"/>
      <path d="M 1818.078,909.67573 C 1807.1172,922.61264 1776.1042,909.28717 1760.5847,915.80307 C 1745.0651,922.31897 1718.084,953.62097 1701.3238,949.93066 C 1684.5637,946.24035 1674.9424,914.7845 1661.2352,904.09389 C 1647.5281,893.40328 1620.822,892.0233 1614.4969,876.14318 C 1608.1719,860.26307 1624.5461,828.19897 1628.0453,811.58183 C 1631.5444,794.96469 1620.8123,765.39638 1631.6921,751.93327 C 1642.5718,738.47017 1674.4828,741.6683 1690.6352,736.57928 C 1706.7876,731.49025 1725.6971,709.39699 1742.6294,712.20086 C 1759.5617,715.00473 1774.2569,742.52685 1788.0244,752.82553 C 1801.7918,763.12422 1829.792,772.22081 1836.7232,788.02776 C 1843.6544,803.83471 1825.0327,824.11215 1822.8134,841.10331 C 1820.594,858.09446 1829.0389,896.73881 1818.078,909.67573 z " inkscape:randomized="0.041" inkscape:rounded="0.29" inkscape:flatsided="false" sodipodi:arg2="1.2117437" sodipodi:arg1="0.68814496" sodipodi:r2="96.218704" sodipodi:r1="117.69902" sodipodi:cy="830.1286" sodipodi:cx="1725.3406" sodipodi:sides="6" id="path5576" style="fill: rgb(173, 127, 168); fill-opacity: 1; stroke: none; stroke-width: 3; stroke-linecap: round; stroke-linejoin: round; stroke-miterlimit: 4; stroke-dasharray: none; stroke-dashoffset: 0pt; stroke-opacity: 1;" sodipodi:type="star" transform="matrix(0.273669, 0, 0, 0.145649, -917.028, 1561.6)"/>
      <path transform="matrix(0.324768, 0, 0, 0.171526, -1043.47, 1544.4)" sodipodi:type="star" style="fill: rgb(245, 121, 0); fill-opacity: 1; stroke: none; stroke-width: 3; stroke-linecap: round; stroke-linejoin: round; stroke-miterlimit: 4; stroke-dasharray: none; stroke-dashoffset: 0pt; stroke-opacity: 1;" id="path5574" sodipodi:sides="6" sodipodi:cx="1725.3406" sodipodi:cy="830.1286" sodipodi:r1="112.86618" sodipodi:r2="96.218704" sodipodi:arg1="0.77274061" sodipodi:arg2="1.2963394" inkscape:flatsided="false" inkscape:rounded="0.29" inkscape:randomized="0.041" d="M 1804.4073,906.05549 C 1793.1025,918.09508 1771.5149,920.28783 1755.4628,924.50843 C 1739.4106,928.72902 1715.9084,948.9709 1700.105,944.02625 C 1684.3016,939.0816 1669.9044,914.72418 1658.3953,903.12166 C 1646.8863,891.51914 1625.9992,879.7295 1621.128,863.84379 C 1616.2568,847.95808 1631.9165,823.49182 1635.738,807.81229 C 1639.5594,792.13276 1635.155,761.49186 1646.9428,750.18758 C 1658.7307,738.8833 1687.7864,745.83399 1703.1101,740.77832 C 1718.4337,735.72264 1733.2787,718.1793 1749.213,722.28525 C 1765.1472,726.3912 1779.4664,751.07858 1790.9226,763.18985 C 1802.3789,775.30111 1832.4032,781.26491 1837.5974,796.75007 C 1842.7916,812.23523 1826.6255,837.74355 1822.3359,853.20268 C 1818.0464,868.6618 1815.7121,894.0159 1804.4073,906.05549 z "/>
      <path transform="matrix(0.24385, 0, 0, 0.113344, -919.693, 1483.03)" sodipodi:type="star" style="fill: rgb(252, 201, 22); fill-opacity: 1; stroke: none; stroke-width: 3; stroke-linecap: round; stroke-linejoin: round; stroke-miterlimit: 4; stroke-dasharray: none; stroke-dashoffset: 0pt; stroke-opacity: 1;" id="path5578" sodipodi:sides="6" sodipodi:cx="1725.3406" sodipodi:cy="830.1286" sodipodi:r1="117.69902" sodipodi:r2="96.218704" sodipodi:arg1="0.68814496" sodipodi:arg2="1.2117437" inkscape:flatsided="false" inkscape:rounded="0.29" inkscape:randomized="0.066" d="M 1819.1901,912.60002 C 1808.1892,925.34982 1776.6465,906.3155 1761.4591,913.11503 C 1746.2716,919.91456 1715.0785,956.40624 1698.4354,952.18237 C 1681.7922,947.95851 1673.3968,914.43744 1659.4082,903.87652 C 1645.4196,893.3156 1620.6062,894.75448 1614.1004,878.98259 C 1607.5947,863.2107 1622.6861,826.30507 1626.5964,809.88324 C 1630.5066,793.4614 1619.1523,763.43007 1630.0245,749.83325 C 1640.8967,736.23643 1673.9027,738.98705 1690.0893,734.46557 C 1706.2759,729.9441 1724.4727,708.29109 1741.4155,711.09202 C 1758.3583,713.89294 1774.9111,741.08186 1788.9846,751.00768 C 1803.0581,760.93349 1829.9689,771.94313 1837.4484,787.57478 C 1844.9278,803.20643 1826.2294,821.15724 1824.3705,838.18479 C 1822.5116,855.21235 1830.191,899.85022 1819.1901,912.60002 z "/>
      <path d="M 1804.4073,906.05549 C 1793.2426,918.2071 1765.694,907.09197 1750.059,911.10682 C 1733.9068,915.25448 1716.4724,948.9533 1700.105,944.02625 C 1684.2616,939.25696 1674.1309,901.72319 1662.5601,889.92826 C 1650.6065,877.74318 1626.3336,880.18635 1621.128,863.84379 C 1616.089,848.0245 1637.6118,822.39297 1641.9362,806.3804 C 1646.4036,789.83816 1634.902,761.98757 1646.9428,750.18758 C 1658.5981,738.76542 1684.3223,754.63857 1699.7579,750.22144 C 1715.7041,745.65819 1732.7199,718.22536 1749.213,722.28525 C 1765.1779,726.21515 1775.707,754.36369 1787.4092,765.68235 C 1799.4986,777.37542 1832.0628,780.82456 1837.5974,796.75007 C 1842.9547,812.16566 1810.1842,830.21759 1806.8828,846.4043 C 1803.4723,863.12645 1815.9413,893.50193 1804.4073,906.05549 z " inkscape:randomized="0.041" inkscape:rounded="0.29" inkscape:flatsided="false" sodipodi:arg2="1.285516" sodipodi:arg1="0.77274061" sodipodi:r2="87.586037" sodipodi:r1="112.86618" sodipodi:cy="830.1286" sodipodi:cx="1725.3406" sodipodi:sides="6" id="path5580" style="fill: rgb(206, 92, 0); fill-opacity: 1; stroke: none; stroke-width: 3; stroke-linecap: round; stroke-linejoin: round; stroke-miterlimit: 4; stroke-dasharray: none; stroke-dashoffset: 0pt; stroke-opacity: 1;" sodipodi:type="star" transform="matrix(0.196582, 0, 0, 0.0984813, -965.213, 1431.75)"/>
      <path transform="matrix(0.308077, 0, 0, 0.149813, -973.018, 1521.12)" sodipodi:type="star" style="fill: rgb(206, 92, 0); fill-opacity: 1; stroke: none; stroke-width: 3; stroke-linecap: round; stroke-linejoin: round; stroke-miterlimit: 4; stroke-dasharray: none; stroke-dashoffset: 0pt; stroke-opacity: 1;" id="path5584" sodipodi:sides="6" sodipodi:cx="1725.3406" sodipodi:cy="830.1286" sodipodi:r1="112.86618" sodipodi:r2="87.586037" sodipodi:arg1="0.77274061" sodipodi:arg2="1.285516" inkscape:flatsided="false" inkscape:rounded="0.29" inkscape:randomized="0.041" d="M 1804.4073,906.05549 C 1793.2426,918.2071 1765.694,907.09197 1750.059,911.10682 C 1733.9068,915.25448 1716.4724,948.9533 1700.105,944.02625 C 1684.2616,939.25696 1674.1309,901.72319 1662.5601,889.92826 C 1650.6065,877.74318 1626.3336,880.18635 1621.128,863.84379 C 1616.089,848.0245 1637.6118,822.39297 1641.9362,806.3804 C 1646.4036,789.83816 1634.902,761.98757 1646.9428,750.18758 C 1658.5981,738.76542 1684.3223,754.63857 1699.7579,750.22144 C 1715.7041,745.65819 1732.7199,718.22536 1749.213,722.28525 C 1765.1779,726.21515 1775.707,754.36369 1787.4092,765.68235 C 1799.4986,777.37542 1832.0628,780.82456 1837.5974,796.75007 C 1842.9547,812.16566 1810.1842,830.21759 1806.8828,846.4043 C 1803.4723,863.12645 1815.9413,893.50193 1804.4073,906.05549 z "/>
      <path d="M 1804.4073,906.05549 C 1793.2426,918.2071 1765.694,907.09197 1750.059,911.10682 C 1733.9068,915.25448 1716.4724,948.9533 1700.105,944.02625 C 1684.2616,939.25696 1674.1309,901.72319 1662.5601,889.92826 C 1650.6065,877.74318 1626.3336,880.18635 1621.128,863.84379 C 1616.089,848.0245 1637.6118,822.39297 1641.9362,806.3804 C 1646.4036,789.83816 1634.902,761.98757 1646.9428,750.18758 C 1658.5981,738.76542 1684.3223,754.63857 1699.7579,750.22144 C 1715.7041,745.65819 1732.7199,718.22536 1749.213,722.28525 C 1765.1779,726.21515 1775.707,754.36369 1787.4092,765.68235 C 1799.4986,777.37542 1832.0628,780.82456 1837.5974,796.75007 C 1842.9547,812.16566 1810.1842,830.21759 1806.8828,846.4043 C 1803.4723,863.12645 1815.9413,893.50193 1804.4073,906.05549 z " inkscape:randomized="0.041" inkscape:rounded="0.29" inkscape:flatsided="false" sodipodi:arg2="1.285516" sodipodi:arg1="0.77274061" sodipodi:r2="87.586037" sodipodi:r1="112.86618" sodipodi:cy="830.1286" sodipodi:cx="1725.3406" sodipodi:sides="6" id="path5588" style="fill: rgb(245, 121, 0); fill-opacity: 1; stroke: none; stroke-width: 3; stroke-linecap: round; stroke-linejoin: round; stroke-miterlimit: 4; stroke-dasharray: none; stroke-dashoffset: 0pt; stroke-opacity: 1;" sodipodi:type="star" transform="matrix(0.235933, 0, 0, 0.143397, -944.568, 1513.61)"/>
      <path transform="matrix(0.226093, 0, 0, 0.133658, -988.142, 1487.99)" sodipodi:type="star" style="fill: rgb(173, 127, 168); fill-opacity: 1; stroke: none; stroke-width: 3; stroke-linecap: round; stroke-linejoin: round; stroke-miterlimit: 4; stroke-dasharray: none; stroke-dashoffset: 0pt; stroke-opacity: 1;" id="path5596" sodipodi:sides="6" sodipodi:cx="1725.3406" sodipodi:cy="830.1286" sodipodi:r1="117.69902" sodipodi:r2="96.218704" sodipodi:arg1="0.68814496" sodipodi:arg2="1.2117437" inkscape:flatsided="false" inkscape:rounded="0.29" inkscape:randomized="0.041" d="M 1818.078,909.67573 C 1807.1172,922.61264 1776.1042,909.28717 1760.5847,915.80307 C 1745.0651,922.31897 1718.084,953.62097 1701.3238,949.93066 C 1684.5637,946.24035 1674.9424,914.7845 1661.2352,904.09389 C 1647.5281,893.40328 1620.822,892.0233 1614.4969,876.14318 C 1608.1719,860.26307 1624.5461,828.19897 1628.0453,811.58183 C 1631.5444,794.96469 1620.8123,765.39638 1631.6921,751.93327 C 1642.5718,738.47017 1674.4828,741.6683 1690.6352,736.57928 C 1706.7876,731.49025 1725.6971,709.39699 1742.6294,712.20086 C 1759.5617,715.00473 1774.2569,742.52685 1788.0244,752.82553 C 1801.7918,763.12422 1829.792,772.22081 1836.7232,788.02776 C 1843.6544,803.83471 1825.0327,824.11215 1822.8134,841.10331 C 1820.594,858.09446 1829.0389,896.73881 1818.078,909.67573 z "/>
      <path d="M 1804.4073,906.05549 C 1793.1025,918.09508 1771.5149,920.28783 1755.4628,924.50843 C 1739.4106,928.72902 1715.9084,948.9709 1700.105,944.02625 C 1684.3016,939.0816 1669.9044,914.72418 1658.3953,903.12166 C 1646.8863,891.51914 1625.9992,879.7295 1621.128,863.84379 C 1616.2568,847.95808 1631.9165,823.49182 1635.738,807.81229 C 1639.5594,792.13276 1635.155,761.49186 1646.9428,750.18758 C 1658.7307,738.8833 1687.7864,745.83399 1703.1101,740.77832 C 1718.4337,735.72264 1733.2787,718.1793 1749.213,722.28525 C 1765.1472,726.3912 1779.4664,751.07858 1790.9226,763.18985 C 1802.3789,775.30111 1832.4032,781.26491 1837.5974,796.75007 C 1842.7916,812.23523 1826.6255,837.74355 1822.3359,853.20268 C 1818.0464,868.6618 1815.7121,894.0159 1804.4073,906.05549 z " inkscape:randomized="0.041" inkscape:rounded="0.29" inkscape:flatsided="false" sodipodi:arg2="1.2963394" sodipodi:arg1="0.77274061" sodipodi:r2="96.218704" sodipodi:r1="112.86618" sodipodi:cy="830.1286" sodipodi:cx="1725.3406" sodipodi:sides="6" id="path5602" style="fill: rgb(245, 121, 0); fill-opacity: 1; stroke: none; stroke-width: 3; stroke-linecap: round; stroke-linejoin: round; stroke-miterlimit: 4; stroke-dasharray: none; stroke-dashoffset: 0pt; stroke-opacity: 1;" sodipodi:type="star" transform="matrix(0.190687, 0, 0, 0.0978986, -909.092, 1431.82)"/>
      <path d="M 1819.1901,912.60002 C 1808.1892,925.34982 1776.6465,906.3155 1761.4591,913.11503 C 1746.2716,919.91456 1715.0785,956.40624 1698.4354,952.18237 C 1681.7922,947.95851 1673.3968,914.43744 1659.4082,903.87652 C 1645.4196,893.3156 1620.6062,894.75448 1614.1004,878.98259 C 1607.5947,863.2107 1622.6861,826.30507 1626.5964,809.88324 C 1630.5066,793.4614 1619.1523,763.43007 1630.0245,749.83325 C 1640.8967,736.23643 1673.9027,738.98705 1690.0893,734.46557 C 1706.2759,729.9441 1724.4727,708.29109 1741.4155,711.09202 C 1758.3583,713.89294 1774.9111,741.08186 1788.9846,751.00768 C 1803.0581,760.93349 1829.9689,771.94313 1837.4484,787.57478 C 1844.9278,803.20643 1826.2294,821.15724 1824.3705,838.18479 C 1822.5116,855.21235 1830.191,899.85022 1819.1901,912.60002 z " inkscape:randomized="0.066" inkscape:rounded="0.29" inkscape:flatsided="false" sodipodi:arg2="1.2117437" sodipodi:arg1="0.68814496" sodipodi:r2="96.218704" sodipodi:r1="117.69902" sodipodi:cy="830.1286" sodipodi:cx="1725.3406" sodipodi:sides="6" id="path7636" style="fill: rgb(252, 175, 62); fill-opacity: 1; stroke: none; stroke-width: 3; stroke-linecap: round; stroke-linejoin: round; stroke-miterlimit: 4; stroke-dasharray: none; stroke-dashoffset: 0pt; stroke-opacity: 1;" sodipodi:type="star" transform="matrix(0.180166, 0, 0, 0.103761, -807.585, 1462.56)"/>
    </g>
    <path sodipodi:type="arc" style="opacity: 0.364445; fill: rgb(50, 50, 50); fill-opacity: 1; stroke: none; stroke-width: 3; stroke-linecap: round; stroke-linejoin: round; stroke-miterlimit: 4; stroke-dasharray: none; stroke-dashoffset: 0pt; stroke-opacity: 1; filter: url(#filter4635);" id="path4397" sodipodi:cx="-368.57144" sodipodi:cy="1192.3622" sodipodi:rx="254.28571" sodipodi:ry="77.14286" d="M -114.28574 1192.3622 A 254.28571 77.14286 0 1 1  -622.85715,1192.3622 A 254.28571 77.14286 0 1 1  -114.28574 1192.3622 z"/>
    <path sodipodi:type="arc" style="opacity: 1; fill: url(#radialGradient4647) rgb(0, 0, 0); fill-opacity: 1; stroke: rgb(252, 175, 62); stroke-width: 8.39896; stroke-linecap: round; stroke-linejoin: round; stroke-miterlimit: 4; stroke-dasharray: none; stroke-dashoffset: 0pt; stroke-opacity: 1;" id="path4639" sodipodi:cx="-640" sodipodi:cy="-27.637817" sodipodi:rx="280" sodipodi:ry="262.85715" d="M -360 -27.637817 A 280 262.85715 0 1 1  -920,-27.637817 A 280 262.85715 0 1 1  -360 -27.637817 z" transform="matrix(0.595312, 0, 0, 0.595312, -260.444, -56.0196)" clip-path="url(#clipPath5671)"/>
    <path style="opacity: 1; fill: rgb(253, 253, 253); fill-opacity: 1; stroke: none; stroke-width: 5; stroke-linecap: round; stroke-linejoin: round; stroke-miterlimit: 4; stroke-dasharray: none; stroke-dashoffset: 0pt; stroke-opacity: 1; filter: url(#filter5575);" d="M 1101.0612,-136.20977 C 1052.5487,-136.20977 1010.7842,-124.27984 992.17666,-107.18077 C 987.9078,-107.47559 983.56717,-107.63838 979.15679,-107.63834 C 921.2652,-107.63834 874.27232,-81.122484 874.27232,-48.453091 C 874.27232,-19.861591 910.2679,4.0114801 958.05832,9.5268016 C 972.9066,40.44623 1039.3389,63.790194 1118.9831,63.79023 C 1209.5315,63.79023 1283.0257,33.62198 1283.0257,-3.5535556 L 1282.908,-4.636127 C 1312.2417,-13.868163 1331.4286,-29.137663 1331.4286,-46.410698 L 1331.007,-50.796841 C 1325.9064,-77.306199 1277.0396,-97.417484 1217.6812,-97.437484 C 1206.2011,-119.87088 1158.2757,-136.20981 1101.0612,-136.20977 z " id="path4984" clip-path="url(#clipPath5495)"/>
    <path id="path5187" d="M 66.775486,-44.781199 C 18.262986,-44.781199 -23.501514,-32.851269 -42.109054,-15.752199 C -46.377914,-16.047019 -50.718544,-16.209809 -55.128924,-16.209769 C -113.02051,-16.209769 -160.01339,10.306087 -160.01339,42.97548 C -160.01339,71.56698 -124.01781,95.440051 -76.227394,100.95537 C -61.379114,131.8748 5.0531863,155.21877 84.697386,155.2188 C 175.24579,155.2188 248.73999,125.05055 248.73999,87.875016 L 248.62229,86.792444 C 277.95599,77.560408 297.14289,62.290908 297.14289,45.017873 L 296.72129,40.63173 C 291.62069,14.122372 242.75389,-5.9889126 183.39549,-6.0089126 C 171.91539,-28.442309 123.98999,-44.781239 66.775486,-44.781199 z " style="opacity: 1; fill: rgb(253, 253, 253); fill-opacity: 1; stroke: none; stroke-width: 5; stroke-linecap: round; stroke-linejoin: round; stroke-miterlimit: 4; stroke-dasharray: none; stroke-dashoffset: 0pt; stroke-opacity: 1; filter: url(#filter5445);" transform="matrix(-1.51249, 0, 0, 1.25714, 180.839, 22.9437)" clip-path="url(#clipPath5381)"/>
    <g transform="matrix(-0.210623, 0, 0, 0.556237, -341.333, 359.596)" id="g5828" style="opacity: 0.697778; fill: rgb(0, 152, 0); display: inline;">
      <path style="opacity: 1; fill: rgb(0, 152, 0); fill-opacity: 1; stroke: none; stroke-width: 5; stroke-linecap: round; stroke-linejoin: round; stroke-miterlimit: 4; stroke-dasharray: none; stroke-dashoffset: 0pt; stroke-opacity: 1;" d="M 54.72075,1729.9654 C 41.764795,1672.665 -10.697664,1625.8162 -56.034505,1590.1872 C 2.2500856,1596.151 42.585887,1660.1126 68.003489,1708.121 C 70.576179,1717.0972 65.558296,1730.3186 54.72075,1729.9654 z " id="path5830" sodipodi:nodetypes="cccc"/>
      <path style="opacity: 1; fill: rgb(0, 152, 0); fill-opacity: 1; stroke: none; stroke-width: 5; stroke-linecap: round; stroke-linejoin: round; stroke-miterlimit: 4; stroke-dasharray: none; stroke-dashoffset: 0pt; stroke-opacity: 1;" d="M 129.30136,1721.2886 C 146.22357,1691.2152 93.821359,1606.5193 103.04552,1570.6289 C 132.33532,1625.113 150.28646,1662.985 145.05996,1711.542 C 141.64328,1717.2167 134.56116,1718.1096 129.30136,1721.2886 z " id="path5832" sodipodi:nodetypes="cccc"/>
      <path style="opacity: 1; fill: rgb(0, 152, 0); fill-opacity: 1; stroke: none; stroke-width: 5; stroke-linecap: round; stroke-linejoin: round; stroke-miterlimit: 4; stroke-dasharray: none; stroke-dashoffset: 0pt; stroke-opacity: 1;" d="M 203.81356,1718.924 C 229.06279,1671.6731 259.07211,1624.0026 312.35187,1605.6055 C 282.82429,1626.0647 249.25616,1646.6294 236.19401,1682.0657 C 229.3489,1696.8958 221.49813,1714.9421 203.81356,1718.924 z " id="path5834" sodipodi:nodetypes="cccc"/>
      <path style="opacity: 1; fill: rgb(0, 152, 0); fill-opacity: 1; stroke: none; stroke-width: 5; stroke-linecap: round; stroke-linejoin: round; stroke-miterlimit: 4; stroke-dasharray: none; stroke-dashoffset: 0pt; stroke-opacity: 1;" d="M 312.58644,1727.8821 C 332.85066,1718.7223 353.22043,1666.8147 381.61701,1642.953 C 350.30976,1721.3669 339.0134,1729.3208 312.58644,1727.8821 z " id="path5836" sodipodi:nodetypes="ccc"/>
      <path style="opacity: 1; fill: rgb(0, 152, 0); fill-opacity: 1; stroke: none; stroke-width: 5; stroke-linecap: round; stroke-linejoin: round; stroke-miterlimit: 4; stroke-dasharray: none; stroke-dashoffset: 0pt; stroke-opacity: 1;" d="M 169.52784,1710.3525 C 182.20786,1695.2621 187.20999,1670.842 208.79803,1665.5281 C 197.08704,1681.3524 191.29105,1705.3079 169.52784,1710.3525 z " id="path5838"/>
      <path style="opacity: 1; fill: rgb(0, 152, 0); fill-opacity: 1; stroke: none; stroke-width: 5; stroke-linecap: round; stroke-linejoin: round; stroke-miterlimit: 4; stroke-dasharray: none; stroke-dashoffset: 0pt; stroke-opacity: 1;" d="M 90.730639,1685.0479 C 80.480559,1663.7248 69.643069,1642.387 54.565194,1624.001 C 96.582319,1642.9725 110.21472,1674.3029 90.730639,1685.0479 z " id="path5840" sodipodi:nodetypes="ccc"/>
      <path style="opacity: 1; fill: rgb(0, 152, 0); fill-opacity: 1; stroke: none; stroke-width: 5; stroke-linecap: round; stroke-linejoin: round; stroke-miterlimit: 4; stroke-dasharray: none; stroke-dashoffset: 0pt; stroke-opacity: 1;" d="M 284.11903,1681.6729 C 302.37251,1660.3573 323.96329,1640.9773 350.07886,1629.9484 C 327.08694,1641.8915 308.00148,1674.8165 284.11903,1681.6729 z " id="path5842" sodipodi:nodetypes="ccc"/>
    </g>
    <g style="opacity: 0.697778; fill: rgb(0, 140, 0); display: inline;" id="g5844" transform="matrix(-0.284483, 0, 0, 0.391411, 808.187, 580.556)">
      <path sodipodi:nodetypes="cccc" id="path5846" d="M 54.72075,1729.9654 C 41.764795,1672.665 -10.697664,1625.8162 -56.034505,1590.1872 C 2.2500856,1596.151 42.585887,1660.1126 68.003489,1708.121 C 70.576179,1717.0972 65.558296,1730.3186 54.72075,1729.9654 z " style="opacity: 1; fill: rgb(0, 140, 0); fill-opacity: 1; stroke: none; stroke-width: 5; stroke-linecap: round; stroke-linejoin: round; stroke-miterlimit: 4; stroke-dasharray: none; stroke-dashoffset: 0pt; stroke-opacity: 1;"/>
      <path sodipodi:nodetypes="cccc" id="path5848" d="M 129.30136,1721.2886 C 146.22357,1691.2152 93.821359,1606.5193 103.04552,1570.6289 C 132.33532,1625.113 150.28646,1662.985 145.05996,1711.542 C 141.64328,1717.2167 134.56116,1718.1096 129.30136,1721.2886 z " style="opacity: 1; fill: rgb(0, 140, 0); fill-opacity: 1; stroke: none; stroke-width: 5; stroke-linecap: round; stroke-linejoin: round; stroke-miterlimit: 4; stroke-dasharray: none; stroke-dashoffset: 0pt; stroke-opacity: 1;"/>
      <path sodipodi:nodetypes="cccc" id="path5850" d="M 203.81356,1718.924 C 229.06279,1671.6731 259.07211,1624.0026 312.35187,1605.6055 C 282.82429,1626.0647 249.25616,1646.6294 236.19401,1682.0657 C 229.3489,1696.8958 221.49813,1714.9421 203.81356,1718.924 z " style="opacity: 1; fill: rgb(0, 140, 0); fill-opacity: 1; stroke: none; stroke-width: 5; stroke-linecap: round; stroke-linejoin: round; stroke-miterlimit: 4; stroke-dasharray: none; stroke-dashoffset: 0pt; stroke-opacity: 1;"/>
      <path sodipodi:nodetypes="ccc" id="path5852" d="M 312.58644,1727.8821 C 332.85066,1718.7223 353.22043,1666.8147 381.61701,1642.953 C 350.30976,1721.3669 339.0134,1729.3208 312.58644,1727.8821 z " style="opacity: 1; fill: rgb(0, 140, 0); fill-opacity: 1; stroke: none; stroke-width: 5; stroke-linecap: round; stroke-linejoin: round; stroke-miterlimit: 4; stroke-dasharray: none; stroke-dashoffset: 0pt; stroke-opacity: 1;"/>
      <path id="path5854" d="M 169.52784,1710.3525 C 182.20786,1695.2621 187.20999,1670.842 208.79803,1665.5281 C 197.08704,1681.3524 191.29105,1705.3079 169.52784,1710.3525 z " style="opacity: 1; fill: rgb(0, 140, 0); fill-opacity: 1; stroke: none; stroke-width: 5; stroke-linecap: round; stroke-linejoin: round; stroke-miterlimit: 4; stroke-dasharray: none; stroke-dashoffset: 0pt; stroke-opacity: 1;"/>
      <path sodipodi:nodetypes="ccc" id="path5856" d="M 90.730639,1685.0479 C 80.480559,1663.7248 69.643069,1642.387 54.565194,1624.001 C 96.582319,1642.9725 110.21472,1674.3029 90.730639,1685.0479 z " style="opacity: 1; fill: rgb(0, 140, 0); fill-opacity: 1; stroke: none; stroke-width: 5; stroke-linecap: round; stroke-linejoin: round; stroke-miterlimit: 4; stroke-dasharray: none; stroke-dashoffset: 0pt; stroke-opacity: 1;"/>
      <path sodipodi:nodetypes="ccc" id="path5858" d="M 284.11903,1681.6729 C 302.37251,1660.3573 323.96329,1640.9773 350.07886,1629.9484 C 327.08694,1641.8915 308.00148,1674.8165 284.11903,1681.6729 z " style="opacity: 1; fill: rgb(0, 140, 0); fill-opacity: 1; stroke: none; stroke-width: 5; stroke-linecap: round; stroke-linejoin: round; stroke-miterlimit: 4; stroke-dasharray: none; stroke-dashoffset: 0pt; stroke-opacity: 1;"/>
    </g>
    <g transform="matrix(0.326029, 0, 0, 0.480164, 1333.72, 586.943)" id="g5860" style="opacity: 0.697778; fill: rgb(0, 140, 0); display: inline;">
      <path style="opacity: 1; fill: rgb(0, 140, 0); fill-opacity: 1; stroke: none; stroke-width: 5; stroke-linecap: round; stroke-linejoin: round; stroke-miterlimit: 4; stroke-dasharray: none; stroke-dashoffset: 0pt; stroke-opacity: 1;" d="M 54.72075,1729.9654 C 41.764795,1672.665 -10.697664,1625.8162 -56.034505,1590.1872 C 2.2500856,1596.151 42.585887,1660.1126 68.003489,1708.121 C 70.576179,1717.0972 65.558296,1730.3186 54.72075,1729.9654 z " id="path5862" sodipodi:nodetypes="cccc"/>
      <path style="opacity: 1; fill: rgb(0, 140, 0); fill-opacity: 1; stroke: none; stroke-width: 5; stroke-linecap: round; stroke-linejoin: round; stroke-miterlimit: 4; stroke-dasharray: none; stroke-dashoffset: 0pt; stroke-opacity: 1;" d="M 129.30136,1721.2886 C 146.22357,1691.2152 93.821359,1606.5193 103.04552,1570.6289 C 132.33532,1625.113 150.28646,1662.985 145.05996,1711.542 C 141.64328,1717.2167 134.56116,1718.1096 129.30136,1721.2886 z " id="path5864" sodipodi:nodetypes="cccc"/>
      <path style="opacity: 1; fill: rgb(0, 140, 0); fill-opacity: 1; stroke: none; stroke-width: 5; stroke-linecap: round; stroke-linejoin: round; stroke-miterlimit: 4; stroke-dasharray: none; stroke-dashoffset: 0pt; stroke-opacity: 1;" d="M 203.81356,1718.924 C 229.06279,1671.6731 259.07211,1624.0026 312.35187,1605.6055 C 282.82429,1626.0647 249.25616,1646.6294 236.19401,1682.0657 C 229.3489,1696.8958 221.49813,1714.9421 203.81356,1718.924 z " id="path5866" sodipodi:nodetypes="cccc"/>
      <path style="opacity: 1; fill: rgb(0, 140, 0); fill-opacity: 1; stroke: none; stroke-width: 5; stroke-linecap: round; stroke-linejoin: round; stroke-miterlimit: 4; stroke-dasharray: none; stroke-dashoffset: 0pt; stroke-opacity: 1;" d="M 312.58644,1727.8821 C 332.85066,1718.7223 353.22043,1666.8147 381.61701,1642.953 C 350.30976,1721.3669 339.0134,1729.3208 312.58644,1727.8821 z " id="path5868" sodipodi:nodetypes="ccc"/>
      <path style="opacity: 1; fill: rgb(0, 140, 0); fill-opacity: 1; stroke: none; stroke-width: 5; stroke-linecap: round; stroke-linejoin: round; stroke-miterlimit: 4; stroke-dasharray: none; stroke-dashoffset: 0pt; stroke-opacity: 1;" d="M 169.52784,1710.3525 C 182.20786,1695.2621 187.20999,1670.842 208.79803,1665.5281 C 197.08704,1681.3524 191.29105,1705.3079 169.52784,1710.3525 z " id="path5870"/>
      <path style="opacity: 1; fill: rgb(0, 140, 0); fill-opacity: 1; stroke: none; stroke-width: 5; stroke-linecap: round; stroke-linejoin: round; stroke-miterlimit: 4; stroke-dasharray: none; stroke-dashoffset: 0pt; stroke-opacity: 1;" d="M 90.730639,1685.0479 C 80.480559,1663.7248 69.643069,1642.387 54.565194,1624.001 C 96.582319,1642.9725 110.21472,1674.3029 90.730639,1685.0479 z " id="path5872" sodipodi:nodetypes="ccc"/>
      <path style="opacity: 1; fill: rgb(0, 140, 0); fill-opacity: 1; stroke: none; stroke-width: 5; stroke-linecap: round; stroke-linejoin: round; stroke-miterlimit: 4; stroke-dasharray: none; stroke-dashoffset: 0pt; stroke-opacity: 1;" d="M 284.11903,1681.6729 C 302.37251,1660.3573 323.96329,1640.9773 350.07886,1629.9484 C 327.08694,1641.8915 308.00148,1674.8165 284.11903,1681.6729 z " id="path5874" sodipodi:nodetypes="ccc"/>
    </g>
    <g transform="matrix(-0.192158, 0, 0, 0.213906, 1121.46, 743.183)" id="g5876" style="opacity: 0.697778; fill: rgb(0, 140, 0); display: inline;">
      <path style="opacity: 1; fill: rgb(0, 140, 0); fill-opacity: 1; stroke: none; stroke-width: 5; stroke-linecap: round; stroke-linejoin: round; stroke-miterlimit: 4; stroke-dasharray: none; stroke-dashoffset: 0pt; stroke-opacity: 1;" d="M 54.72075,1729.9654 C 41.764795,1672.665 -10.697664,1625.8162 -56.034505,1590.1872 C 2.2500856,1596.151 42.585887,1660.1126 68.003489,1708.121 C 70.576179,1717.0972 65.558296,1730.3186 54.72075,1729.9654 z " id="path5878" sodipodi:nodetypes="cccc"/>
      <path style="opacity: 1; fill: rgb(0, 140, 0); fill-opacity: 1; stroke: none; stroke-width: 5; stroke-linecap: round; stroke-linejoin: round; stroke-miterlimit: 4; stroke-dasharray: none; stroke-dashoffset: 0pt; stroke-opacity: 1;" d="M 129.30136,1721.2886 C 146.22357,1691.2152 93.821359,1606.5193 103.04552,1570.6289 C 132.33532,1625.113 150.28646,1662.985 145.05996,1711.542 C 141.64328,1717.2167 134.56116,1718.1096 129.30136,1721.2886 z " id="path5880" sodipodi:nodetypes="cccc"/>
      <path style="opacity: 1; fill: rgb(0, 140, 0); fill-opacity: 1; stroke: none; stroke-width: 5; stroke-linecap: round; stroke-linejoin: round; stroke-miterlimit: 4; stroke-dasharray: none; stroke-dashoffset: 0pt; stroke-opacity: 1;" d="M 203.81356,1718.924 C 229.06279,1671.6731 259.07211,1624.0026 312.35187,1605.6055 C 282.82429,1626.0647 249.25616,1646.6294 236.19401,1682.0657 C 229.3489,1696.8958 221.49813,1714.9421 203.81356,1718.924 z " id="path5882" sodipodi:nodetypes="cccc"/>
      <path style="opacity: 1; fill: rgb(0, 140, 0); fill-opacity: 1; stroke: none; stroke-width: 5; stroke-linecap: round; stroke-linejoin: round; stroke-miterlimit: 4; stroke-dasharray: none; stroke-dashoffset: 0pt; stroke-opacity: 1;" d="M 312.58644,1727.8821 C 332.85066,1718.7223 353.22043,1666.8147 381.61701,1642.953 C 350.30976,1721.3669 339.0134,1729.3208 312.58644,1727.8821 z " id="path5884" sodipodi:nodetypes="ccc"/>
      <path style="opacity: 1; fill: rgb(0, 140, 0); fill-opacity: 1; stroke: none; stroke-width: 5; stroke-linecap: round; stroke-linejoin: round; stroke-miterlimit: 4; stroke-dasharray: none; stroke-dashoffset: 0pt; stroke-opacity: 1;" d="M 169.52784,1710.3525 C 182.20786,1695.2621 187.20999,1670.842 208.79803,1665.5281 C 197.08704,1681.3524 191.29105,1705.3079 169.52784,1710.3525 z " id="path5886"/>
      <path style="opacity: 1; fill: rgb(0, 140, 0); fill-opacity: 1; stroke: none; stroke-width: 5; stroke-linecap: round; stroke-linejoin: round; stroke-miterlimit: 4; stroke-dasharray: none; stroke-dashoffset: 0pt; stroke-opacity: 1;" d="M 90.730639,1685.0479 C 80.480559,1663.7248 69.643069,1642.387 54.565194,1624.001 C 96.582319,1642.9725 110.21472,1674.3029 90.730639,1685.0479 z " id="path5888" sodipodi:nodetypes="ccc"/>
      <path style="opacity: 1; fill: rgb(0, 140, 0); fill-opacity: 1; stroke: none; stroke-width: 5; stroke-linecap: round; stroke-linejoin: round; stroke-miterlimit: 4; stroke-dasharray: none; stroke-dashoffset: 0pt; stroke-opacity: 1;" d="M 284.11903,1681.6729 C 302.37251,1660.3573 323.96329,1640.9773 350.07886,1629.9484 C 327.08694,1641.8915 308.00148,1674.8165 284.11903,1681.6729 z " id="path5890" sodipodi:nodetypes="ccc"/>
    </g>
    <g style="opacity: 0.697778; fill: rgb(0, 140, 0); display: inline;" id="g5892" transform="matrix(0.169077, 0, 0, 0.16319, 1217.85, 559.511)">
      <path sodipodi:nodetypes="cccc" id="path5894" d="M 54.72075,1729.9654 C 41.764795,1672.665 -10.697664,1625.8162 -56.034505,1590.1872 C 2.2500856,1596.151 42.585887,1660.1126 68.003489,1708.121 C 70.576179,1717.0972 65.558296,1730.3186 54.72075,1729.9654 z " style="opacity: 1; fill: rgb(0, 140, 0); fill-opacity: 1; stroke: none; stroke-width: 5; stroke-linecap: round; stroke-linejoin: round; stroke-miterlimit: 4; stroke-dasharray: none; stroke-dashoffset: 0pt; stroke-opacity: 1;"/>
      <path sodipodi:nodetypes="cccc" id="path5896" d="M 129.30136,1721.2886 C 146.22357,1691.2152 93.821359,1606.5193 103.04552,1570.6289 C 132.33532,1625.113 150.28646,1662.985 145.05996,1711.542 C 141.64328,1717.2167 134.56116,1718.1096 129.30136,1721.2886 z " style="opacity: 1; fill: rgb(0, 140, 0); fill-opacity: 1; stroke: none; stroke-width: 5; stroke-linecap: round; stroke-linejoin: round; stroke-miterlimit: 4; stroke-dasharray: none; stroke-dashoffset: 0pt; stroke-opacity: 1;"/>
      <path sodipodi:nodetypes="cccc" id="path5898" d="M 203.81356,1718.924 C 229.06279,1671.6731 259.07211,1624.0026 312.35187,1605.6055 C 282.82429,1626.0647 249.25616,1646.6294 236.19401,1682.0657 C 229.3489,1696.8958 221.49813,1714.9421 203.81356,1718.924 z " style="opacity: 1; fill: rgb(0, 140, 0); fill-opacity: 1; stroke: none; stroke-width: 5; stroke-linecap: round; stroke-linejoin: round; stroke-miterlimit: 4; stroke-dasharray: none; stroke-dashoffset: 0pt; stroke-opacity: 1;"/>
      <path sodipodi:nodetypes="ccc" id="path5900" d="M 312.58644,1727.8821 C 332.85066,1718.7223 353.22043,1666.8147 381.61701,1642.953 C 350.30976,1721.3669 339.0134,1729.3208 312.58644,1727.8821 z " style="opacity: 1; fill: rgb(0, 140, 0); fill-opacity: 1; stroke: none; stroke-width: 5; stroke-linecap: round; stroke-linejoin: round; stroke-miterlimit: 4; stroke-dasharray: none; stroke-dashoffset: 0pt; stroke-opacity: 1;"/>
      <path id="path5902" d="M 169.52784,1710.3525 C 182.20786,1695.2621 187.20999,1670.842 208.79803,1665.5281 C 197.08704,1681.3524 191.29105,1705.3079 169.52784,1710.3525 z " style="opacity: 1; fill: rgb(0, 140, 0); fill-opacity: 1; stroke: none; stroke-width: 5; stroke-linecap: round; stroke-linejoin: round; stroke-miterlimit: 4; stroke-dasharray: none; stroke-dashoffset: 0pt; stroke-opacity: 1;"/>
      <path sodipodi:nodetypes="ccc" id="path5904" d="M 90.730639,1685.0479 C 80.480559,1663.7248 69.643069,1642.387 54.565194,1624.001 C 96.582319,1642.9725 110.21472,1674.3029 90.730639,1685.0479 z " style="opacity: 1; fill: rgb(0, 140, 0); fill-opacity: 1; stroke: none; stroke-width: 5; stroke-linecap: round; stroke-linejoin: round; stroke-miterlimit: 4; stroke-dasharray: none; stroke-dashoffset: 0pt; stroke-opacity: 1;"/>
      <path sodipodi:nodetypes="ccc" id="path5906" d="M 284.11903,1681.6729 C 302.37251,1660.3573 323.96329,1640.9773 350.07886,1629.9484 C 327.08694,1641.8915 308.00148,1674.8165 284.11903,1681.6729 z " style="opacity: 1; fill: rgb(0, 140, 0); fill-opacity: 1; stroke: none; stroke-width: 5; stroke-linecap: round; stroke-linejoin: round; stroke-miterlimit: 4; stroke-dasharray: none; stroke-dashoffset: 0pt; stroke-opacity: 1;"/>
    </g>
    <g style="fill: rgb(0, 152, 0); display: inline;" id="g5811" transform="matrix(0.38604, 0, 0, 0.492842, -213.2, 373.302)">
      <path sodipodi:nodetypes="cccc" id="path5727" d="M 54.72075,1729.9654 C 41.764795,1672.665 -10.697664,1625.8162 -56.034505,1590.1872 C 2.2500856,1596.151 42.585887,1660.1126 68.003489,1708.121 C 70.576179,1717.0972 65.558296,1730.3186 54.72075,1729.9654 z " style="opacity: 1; fill: rgb(0, 152, 0); fill-opacity: 1; stroke: none; stroke-width: 5; stroke-linecap: round; stroke-linejoin: round; stroke-miterlimit: 4; stroke-dasharray: none; stroke-dashoffset: 0pt; stroke-opacity: 1;"/>
      <path sodipodi:nodetypes="cccc" id="path5729" d="M 129.30136,1721.2886 C 146.22357,1691.2152 93.821359,1606.5193 103.04552,1570.6289 C 132.33532,1625.113 150.28646,1662.985 145.05996,1711.542 C 141.64328,1717.2167 134.56116,1718.1096 129.30136,1721.2886 z " style="opacity: 1; fill: rgb(0, 152, 0); fill-opacity: 1; stroke: none; stroke-width: 5; stroke-linecap: round; stroke-linejoin: round; stroke-miterlimit: 4; stroke-dasharray: none; stroke-dashoffset: 0pt; stroke-opacity: 1;"/>
      <path sodipodi:nodetypes="cccc" id="path5731" d="M 203.81356,1718.924 C 229.06279,1671.6731 259.07211,1624.0026 312.35187,1605.6055 C 282.82429,1626.0647 249.25616,1646.6294 236.19401,1682.0657 C 229.3489,1696.8958 221.49813,1714.9421 203.81356,1718.924 z " style="opacity: 1; fill: rgb(0, 152, 0); fill-opacity: 1; stroke: none; stroke-width: 5; stroke-linecap: round; stroke-linejoin: round; stroke-miterlimit: 4; stroke-dasharray: none; stroke-dashoffset: 0pt; stroke-opacity: 1;"/>
      <path sodipodi:nodetypes="ccc" id="path5733" d="M 312.58644,1727.8821 C 332.85066,1718.7223 353.22043,1666.8147 381.61701,1642.953 C 350.30976,1721.3669 339.0134,1729.3208 312.58644,1727.8821 z " style="opacity: 1; fill: rgb(0, 152, 0); fill-opacity: 1; stroke: none; stroke-width: 5; stroke-linecap: round; stroke-linejoin: round; stroke-miterlimit: 4; stroke-dasharray: none; stroke-dashoffset: 0pt; stroke-opacity: 1;"/>
      <path id="path5735" d="M 169.52784,1710.3525 C 182.20786,1695.2621 187.20999,1670.842 208.79803,1665.5281 C 197.08704,1681.3524 191.29105,1705.3079 169.52784,1710.3525 z " style="opacity: 1; fill: rgb(0, 152, 0); fill-opacity: 1; stroke: none; stroke-width: 5; stroke-linecap: round; stroke-linejoin: round; stroke-miterlimit: 4; stroke-dasharray: none; stroke-dashoffset: 0pt; stroke-opacity: 1;"/>
      <path sodipodi:nodetypes="ccc" id="path5737" d="M 90.730639,1685.0479 C 80.480559,1663.7248 69.643069,1642.387 54.565194,1624.001 C 96.582319,1642.9725 110.21472,1674.3029 90.730639,1685.0479 z " style="opacity: 1; fill: rgb(0, 152, 0); fill-opacity: 1; stroke: none; stroke-width: 5; stroke-linecap: round; stroke-linejoin: round; stroke-miterlimit: 4; stroke-dasharray: none; stroke-dashoffset: 0pt; stroke-opacity: 1;"/>
      <path sodipodi:nodetypes="ccc" id="path5753" d="M 284.11903,1681.6729 C 302.37251,1660.3573 323.96329,1640.9773 350.07886,1629.9484 C 327.08694,1641.8915 308.00148,1674.8165 284.11903,1681.6729 z " style="opacity: 1; fill: rgb(0, 152, 0); fill-opacity: 1; stroke: none; stroke-width: 5; stroke-linecap: round; stroke-linejoin: round; stroke-miterlimit: 4; stroke-dasharray: none; stroke-dashoffset: 0pt; stroke-opacity: 1;"/>
    </g>
    <g id="g7741" transform="matrix(0.137234, 0.0203209, -0.00457729, 0.0689332, 874.477, 574.517)">
      <path d="M 1804.4073,906.05549 C 1793.2426,918.2071 1765.694,907.09197 1750.059,911.10682 C 1733.9068,915.25448 1716.4724,948.9533 1700.105,944.02625 C 1684.2616,939.25696 1674.1309,901.72319 1662.5601,889.92826 C 1650.6065,877.74318 1626.3336,880.18635 1621.128,863.84379 C 1616.089,848.0245 1637.6118,822.39297 1641.9362,806.3804 C 1646.4036,789.83816 1634.902,761.98757 1646.9428,750.18758 C 1658.5981,738.76542 1684.3223,754.63857 1699.7579,750.22144 C 1715.7041,745.65819 1732.7199,718.22536 1749.213,722.28525 C 1765.1779,726.21515 1775.707,754.36369 1787.4092,765.68235 C 1799.4986,777.37542 1832.0628,780.82456 1837.5974,796.75007 C 1842.9547,812.16566 1810.1842,830.21759 1806.8828,846.4043 C 1803.4723,863.12645 1815.9413,893.50193 1804.4073,906.05549 z " inkscape:randomized="0.041" inkscape:rounded="0.29" inkscape:flatsided="false" sodipodi:arg2="1.285516" sodipodi:arg1="0.77274061" sodipodi:r2="87.586037" sodipodi:r1="112.86618" sodipodi:cy="830.1286" sodipodi:cx="1725.3406" sodipodi:sides="6" id="path7685" style="fill: rgb(206, 92, 0); fill-opacity: 1; stroke: none; stroke-width: 3; stroke-linecap: round; stroke-linejoin: round; stroke-miterlimit: 4; stroke-dasharray: none; stroke-dashoffset: 0pt; stroke-opacity: 1;" sodipodi:type="star" transform="matrix(0.749782, 0, 0, 0.384739, -171.523, 2314.32)"/>
      <path transform="matrix(0.776722, 0, 0, 0.359168, -121.06, 2269.22)" sodipodi:type="star" style="fill: rgb(252, 201, 22); fill-opacity: 1; stroke: none; stroke-width: 3; stroke-linecap: round; stroke-linejoin: round; stroke-miterlimit: 4; stroke-dasharray: none; stroke-dashoffset: 0pt; stroke-opacity: 1;" id="path7689" sodipodi:sides="6" sodipodi:cx="1725.3406" sodipodi:cy="830.1286" sodipodi:r1="117.69902" sodipodi:r2="96.218704" sodipodi:arg1="0.68814496" sodipodi:arg2="1.2117437" inkscape:flatsided="false" inkscape:rounded="0.29" inkscape:randomized="0.066" d="M 1819.1901,912.60002 C 1808.1892,925.34982 1776.6465,906.3155 1761.4591,913.11503 C 1746.2716,919.91456 1715.0785,956.40624 1698.4354,952.18237 C 1681.7922,947.95851 1673.3968,914.43744 1659.4082,903.87652 C 1645.4196,893.3156 1620.6062,894.75448 1614.1004,878.98259 C 1607.5947,863.2107 1622.6861,826.30507 1626.5964,809.88324 C 1630.5066,793.4614 1619.1523,763.43007 1630.0245,749.83325 C 1640.8967,736.23643 1673.9027,738.98705 1690.0893,734.46557 C 1706.2759,729.9441 1724.4727,708.29109 1741.4155,711.09202 C 1758.3583,713.89294 1774.9111,741.08186 1788.9846,751.00768 C 1803.0581,760.93349 1829.9689,771.94313 1837.4484,787.57478 C 1844.9278,803.20643 1826.2294,821.15724 1824.3705,838.18479 C 1822.5116,855.21235 1830.191,899.85022 1819.1901,912.60002 z "/>
      <path transform="matrix(0.875293, 0, 0, 0.517442, -695.786, 2290.56)" sodipodi:type="star" style="fill: rgb(173, 127, 168); fill-opacity: 1; stroke: none; stroke-width: 3; stroke-linecap: round; stroke-linejoin: round; stroke-miterlimit: 4; stroke-dasharray: none; stroke-dashoffset: 0pt; stroke-opacity: 1;" id="path7691" sodipodi:sides="6" sodipodi:cx="1725.3406" sodipodi:cy="830.1286" sodipodi:r1="117.69902" sodipodi:r2="96.218704" sodipodi:arg1="0.68814496" sodipodi:arg2="1.2117437" inkscape:flatsided="false" inkscape:rounded="0.29" inkscape:randomized="0.041" d="M 1818.078,909.67573 C 1807.1172,922.61264 1776.1042,909.28717 1760.5847,915.80307 C 1745.0651,922.31897 1718.084,953.62097 1701.3238,949.93066 C 1684.5637,946.24035 1674.9424,914.7845 1661.2352,904.09389 C 1647.5281,893.40328 1620.822,892.0233 1614.4969,876.14318 C 1608.1719,860.26307 1624.5461,828.19897 1628.0453,811.58183 C 1631.5444,794.96469 1620.8123,765.39638 1631.6921,751.93327 C 1642.5718,738.47017 1674.4828,741.6683 1690.6352,736.57928 C 1706.7876,731.49025 1725.6971,709.39699 1742.6294,712.20086 C 1759.5617,715.00473 1774.2569,742.52685 1788.0244,752.82553 C 1801.7918,763.12422 1829.792,772.22081 1836.7232,788.02776 C 1843.6544,803.83471 1825.0327,824.11215 1822.8134,841.10331 C 1820.594,858.09446 1829.0389,896.73881 1818.078,909.67573 z "/>
      <path d="M 1804.4073,906.05549 C 1793.1025,918.09508 1771.5149,920.28783 1755.4628,924.50843 C 1739.4106,928.72902 1715.9084,948.9709 1700.105,944.02625 C 1684.3016,939.0816 1669.9044,914.72418 1658.3953,903.12166 C 1646.8863,891.51914 1625.9992,879.7295 1621.128,863.84379 C 1616.2568,847.95808 1631.9165,823.49182 1635.738,807.81229 C 1639.5594,792.13276 1635.155,761.49186 1646.9428,750.18758 C 1658.7307,738.8833 1687.7864,745.83399 1703.1101,740.77832 C 1718.4337,735.72264 1733.2787,718.1793 1749.213,722.28525 C 1765.1472,726.3912 1779.4664,751.07858 1790.9226,763.18985 C 1802.3789,775.30111 1832.4032,781.26491 1837.5974,796.75007 C 1842.7916,812.23523 1826.6255,837.74355 1822.3359,853.20268 C 1818.0464,868.6618 1815.7121,894.0159 1804.4073,906.05549 z " inkscape:randomized="0.041" inkscape:rounded="0.29" inkscape:flatsided="false" sodipodi:arg2="1.2963394" sodipodi:arg1="0.77274061" sodipodi:r2="96.218704" sodipodi:r1="112.86618" sodipodi:cy="830.1286" sodipodi:cx="1725.3406" sodipodi:sides="6" id="path7687" style="fill: rgb(245, 121, 0); fill-opacity: 1; stroke: none; stroke-width: 3; stroke-linecap: round; stroke-linejoin: round; stroke-miterlimit: 4; stroke-dasharray: none; stroke-dashoffset: 0pt; stroke-opacity: 1;" sodipodi:type="star" transform="matrix(0.951666, 0, 0, 0.488586, -622.468, 2374.95)"/>
      <path transform="matrix(1.22658, 0, 0, 0.699644, -1279.46, 2443.02)" sodipodi:type="star" style="fill: rgb(206, 92, 0); fill-opacity: 1; stroke: none; stroke-width: 3; stroke-linecap: round; stroke-linejoin: round; stroke-miterlimit: 4; stroke-dasharray: none; stroke-dashoffset: 0pt; stroke-opacity: 1;" id="path7693" sodipodi:sides="6" sodipodi:cx="1725.3406" sodipodi:cy="830.1286" sodipodi:r1="112.86618" sodipodi:r2="87.586037" sodipodi:arg1="0.77274061" sodipodi:arg2="1.285516" inkscape:flatsided="false" inkscape:rounded="0.29" inkscape:randomized="0.041" d="M 1804.4073,906.05549 C 1793.2426,918.2071 1765.694,907.09197 1750.059,911.10682 C 1733.9068,915.25448 1716.4724,948.9533 1700.105,944.02625 C 1684.2616,939.25696 1674.1309,901.72319 1662.5601,889.92826 C 1650.6065,877.74318 1626.3336,880.18635 1621.128,863.84379 C 1616.089,848.0245 1637.6118,822.39297 1641.9362,806.3804 C 1646.4036,789.83816 1634.902,761.98757 1646.9428,750.18758 C 1658.5981,738.76542 1684.3223,754.63857 1699.7579,750.22144 C 1715.7041,745.65819 1732.7199,718.22536 1749.213,722.28525 C 1765.1779,726.21515 1775.707,754.36369 1787.4092,765.68235 C 1799.4986,777.37542 1832.0628,780.82456 1837.5974,796.75007 C 1842.9547,812.16566 1810.1842,830.21759 1806.8828,846.4043 C 1803.4723,863.12645 1815.9413,893.50193 1804.4073,906.05549 z "/>
      <path d="M 1818.078,909.67573 C 1807.1172,922.61264 1776.1042,909.28717 1760.5847,915.80307 C 1745.0651,922.31897 1718.084,953.62097 1701.3238,949.93066 C 1684.5637,946.24035 1674.9424,914.7845 1661.2352,904.09389 C 1647.5281,893.40328 1620.822,892.0233 1614.4969,876.14318 C 1608.1719,860.26307 1624.5461,828.19897 1628.0453,811.58183 C 1631.5444,794.96469 1620.8123,765.39638 1631.6921,751.93327 C 1642.5718,738.47017 1674.4828,741.6683 1690.6352,736.57928 C 1706.7876,731.49025 1725.6971,709.39699 1742.6294,712.20086 C 1759.5617,715.00473 1774.2569,742.52685 1788.0244,752.82553 C 1801.7918,763.12422 1829.792,772.22081 1836.7232,788.02776 C 1843.6544,803.83471 1825.0327,824.11215 1822.8134,841.10331 C 1820.594,858.09446 1829.0389,896.73881 1818.078,909.67573 z " inkscape:randomized="0.041" inkscape:rounded="0.29" inkscape:flatsided="false" sodipodi:arg2="1.2117437" sodipodi:arg1="0.68814496" sodipodi:r2="96.218704" sodipodi:r1="117.69902" sodipodi:cy="830.1286" sodipodi:cx="1725.3406" sodipodi:sides="6" id="path7695" style="fill: rgb(52, 101, 164); fill-opacity: 1; stroke: none; stroke-width: 3; stroke-linecap: round; stroke-linejoin: round; stroke-miterlimit: 4; stroke-dasharray: none; stroke-dashoffset: 0pt; stroke-opacity: 1;" sodipodi:type="star" transform="matrix(1.03339, 0, 0, 0.517442, -737.38, 2484.5)"/>
      <path d="M 1819.1901,912.60002 C 1808.1892,925.34982 1776.6465,906.3155 1761.4591,913.11503 C 1746.2716,919.91456 1715.0785,956.40624 1698.4354,952.18237 C 1681.7922,947.95851 1673.3968,914.43744 1659.4082,903.87652 C 1645.4196,893.3156 1620.6062,894.75448 1614.1004,878.98259 C 1607.5947,863.2107 1622.6861,826.30507 1626.5964,809.88324 C 1630.5066,793.4614 1619.1523,763.43007 1630.0245,749.83325 C 1640.8967,736.23643 1673.9027,738.98705 1690.0893,734.46557 C 1706.2759,729.9441 1724.4727,708.29109 1741.4155,711.09202 C 1758.3583,713.89294 1774.9111,741.08186 1788.9846,751.00768 C 1803.0581,760.93349 1829.9689,771.94313 1837.4484,787.57478 C 1844.9278,803.20643 1826.2294,821.15724 1824.3705,838.18479 C 1822.5116,855.21235 1830.191,899.85022 1819.1901,912.60002 z " inkscape:randomized="0.066" inkscape:rounded="0.29" inkscape:flatsided="false" sodipodi:arg2="1.2117437" sodipodi:arg1="0.68814496" sodipodi:r2="96.218704" sodipodi:r1="117.69902" sodipodi:cy="830.1286" sodipodi:cx="1725.3406" sodipodi:sides="6" id="path7697" style="fill: rgb(252, 175, 62); fill-opacity: 1; stroke: none; stroke-width: 3; stroke-linecap: round; stroke-linejoin: round; stroke-miterlimit: 4; stroke-dasharray: none; stroke-dashoffset: 0pt; stroke-opacity: 1;" sodipodi:type="star" transform="matrix(1.23272, 0, 0, 0.580422, -908.625, 2523.09)"/>
      <path d="M 1804.4073,906.05549 C 1793.2426,918.2071 1765.694,907.09197 1750.059,911.10682 C 1733.9068,915.25448 1716.4724,948.9533 1700.105,944.02625 C 1684.2616,939.25696 1674.1309,901.72319 1662.5601,889.92826 C 1650.6065,877.74318 1626.3336,880.18635 1621.128,863.84379 C 1616.089,848.0245 1637.6118,822.39297 1641.9362,806.3804 C 1646.4036,789.83816 1634.902,761.98757 1646.9428,750.18758 C 1658.5981,738.76542 1684.3223,754.63857 1699.7579,750.22144 C 1715.7041,745.65819 1732.7199,718.22536 1749.213,722.28525 C 1765.1779,726.21515 1775.707,754.36369 1787.4092,765.68235 C 1799.4986,777.37542 1832.0628,780.82456 1837.5974,796.75007 C 1842.9547,812.16566 1810.1842,830.21759 1806.8828,846.4043 C 1803.4723,863.12645 1815.9413,893.50193 1804.4073,906.05549 z " inkscape:randomized="0.041" inkscape:rounded="0.29" inkscape:flatsided="false" sodipodi:arg2="1.285516" sodipodi:arg1="0.77274061" sodipodi:r2="87.586037" sodipodi:r1="112.86618" sodipodi:cy="830.1286" sodipodi:cx="1725.3406" sodipodi:sides="6" id="path7699" style="fill: rgb(204, 0, 0); fill-opacity: 1; stroke: none; stroke-width: 3; stroke-linecap: round; stroke-linejoin: round; stroke-miterlimit: 4; stroke-dasharray: none; stroke-dashoffset: 0pt; stroke-opacity: 1;" sodipodi:type="star" transform="matrix(1.4557, 0, 0, 0.859759, -1006.89, 2260.38)"/>
      <path transform="matrix(1.43713, 0, 0, 0.683673, -1229.91, 2707.55)" sodipodi:type="star" style="fill: rgb(252, 175, 62); fill-opacity: 1; stroke: none; stroke-width: 3; stroke-linecap: round; stroke-linejoin: round; stroke-miterlimit: 4; stroke-dasharray: none; stroke-dashoffset: 0pt; stroke-opacity: 1;" id="path7701" sodipodi:sides="6" sodipodi:cx="1725.3406" sodipodi:cy="830.1286" sodipodi:r1="117.69902" sodipodi:r2="96.218704" sodipodi:arg1="0.68814496" sodipodi:arg2="1.2117437" inkscape:flatsided="false" inkscape:rounded="0.29" inkscape:randomized="0.066" d="M 1819.1901,912.60002 C 1808.1892,925.34982 1776.6465,906.3155 1761.4591,913.11503 C 1746.2716,919.91456 1715.0785,956.40624 1698.4354,952.18237 C 1681.7922,947.95851 1673.3968,914.43744 1659.4082,903.87652 C 1645.4196,893.3156 1620.6062,894.75448 1614.1004,878.98259 C 1607.5947,863.2107 1622.6861,826.30507 1626.5964,809.88324 C 1630.5066,793.4614 1619.1523,763.43007 1630.0245,749.83325 C 1640.8967,736.23643 1673.9027,738.98705 1690.0893,734.46557 C 1706.2759,729.9441 1724.4727,708.29109 1741.4155,711.09202 C 1758.3583,713.89294 1774.9111,741.08186 1788.9846,751.00768 C 1803.0581,760.93349 1829.9689,771.94313 1837.4484,787.57478 C 1844.9278,803.20643 1826.2294,821.15724 1824.3705,838.18479 C 1822.5116,855.21235 1830.191,899.85022 1819.1901,912.60002 z "/>
      <path transform="matrix(1.36581, 0, 0, 0.726893, -562.733, 2577.51)" sodipodi:type="star" style="fill: rgb(173, 127, 168); fill-opacity: 1; stroke: none; stroke-width: 3; stroke-linecap: round; stroke-linejoin: round; stroke-miterlimit: 4; stroke-dasharray: none; stroke-dashoffset: 0pt; stroke-opacity: 1;" id="path7703" sodipodi:sides="6" sodipodi:cx="1725.3406" sodipodi:cy="830.1286" sodipodi:r1="117.69902" sodipodi:r2="96.218704" sodipodi:arg1="0.68814496" sodipodi:arg2="1.2117437" inkscape:flatsided="false" inkscape:rounded="0.29" inkscape:randomized="0.041" d="M 1818.078,909.67573 C 1807.1172,922.61264 1776.1042,909.28717 1760.5847,915.80307 C 1745.0651,922.31897 1718.084,953.62097 1701.3238,949.93066 C 1684.5637,946.24035 1674.9424,914.7845 1661.2352,904.09389 C 1647.5281,893.40328 1620.822,892.0233 1614.4969,876.14318 C 1608.1719,860.26307 1624.5461,828.19897 1628.0453,811.58183 C 1631.5444,794.96469 1620.8123,765.39638 1631.6921,751.93327 C 1642.5718,738.47017 1674.4828,741.6683 1690.6352,736.57928 C 1706.7876,731.49025 1725.6971,709.39699 1742.6294,712.20086 C 1759.5617,715.00473 1774.2569,742.52685 1788.0244,752.82553 C 1801.7918,763.12422 1829.792,772.22081 1836.7232,788.02776 C 1843.6544,803.83471 1825.0327,824.11215 1822.8134,841.10331 C 1820.594,858.09446 1829.0389,896.73881 1818.078,909.67573 z "/>
      <path d="M 1804.4073,906.05549 C 1793.1025,918.09508 1771.5149,920.28783 1755.4628,924.50843 C 1739.4106,928.72902 1715.9084,948.9709 1700.105,944.02625 C 1684.3016,939.0816 1669.9044,914.72418 1658.3953,903.12166 C 1646.8863,891.51914 1625.9992,879.7295 1621.128,863.84379 C 1616.2568,847.95808 1631.9165,823.49182 1635.738,807.81229 C 1639.5594,792.13276 1635.155,761.49186 1646.9428,750.18758 C 1658.7307,738.8833 1687.7864,745.83399 1703.1101,740.77832 C 1718.4337,735.72264 1733.2787,718.1793 1749.213,722.28525 C 1765.1472,726.3912 1779.4664,751.07858 1790.9226,763.18985 C 1802.3789,775.30111 1832.4032,781.26491 1837.5974,796.75007 C 1842.7916,812.23523 1826.6255,837.74355 1822.3359,853.20268 C 1818.0464,868.6618 1815.7121,894.0159 1804.4073,906.05549 z " inkscape:randomized="0.041" inkscape:rounded="0.29" inkscape:flatsided="false" sodipodi:arg2="1.2963394" sodipodi:arg1="0.77274061" sodipodi:r2="96.218704" sodipodi:r1="112.86618" sodipodi:cy="830.1286" sodipodi:cx="1725.3406" sodipodi:sides="6" id="path7705" style="fill: rgb(245, 121, 0); fill-opacity: 1; stroke: none; stroke-width: 3; stroke-linecap: round; stroke-linejoin: round; stroke-miterlimit: 4; stroke-dasharray: none; stroke-dashoffset: 0pt; stroke-opacity: 1;" sodipodi:type="star" transform="matrix(1.62083, 0, 0, 0.856041, -1201.87, 2592.66)"/>
      <path d="M 1819.1901,912.60002 C 1808.1892,925.34982 1776.6465,906.3155 1761.4591,913.11503 C 1746.2716,919.91456 1715.0785,956.40624 1698.4354,952.18237 C 1681.7922,947.95851 1673.3968,914.43744 1659.4082,903.87652 C 1645.4196,893.3156 1620.6062,894.75448 1614.1004,878.98259 C 1607.5947,863.2107 1622.6861,826.30507 1626.5964,809.88324 C 1630.5066,793.4614 1619.1523,763.43007 1630.0245,749.83325 C 1640.8967,736.23643 1673.9027,738.98705 1690.0893,734.46557 C 1706.2759,729.9441 1724.4727,708.29109 1741.4155,711.09202 C 1758.3583,713.89294 1774.9111,741.08186 1788.9846,751.00768 C 1803.0581,760.93349 1829.9689,771.94313 1837.4484,787.57478 C 1844.9278,803.20643 1826.2294,821.15724 1824.3705,838.18479 C 1822.5116,855.21235 1830.191,899.85022 1819.1901,912.60002 z " inkscape:randomized="0.066" inkscape:rounded="0.29" inkscape:flatsided="false" sodipodi:arg2="1.2117437" sodipodi:arg1="0.68814496" sodipodi:r2="96.218704" sodipodi:r1="117.69902" sodipodi:cy="830.1286" sodipodi:cx="1725.3406" sodipodi:sides="6" id="path7707" style="fill: rgb(252, 201, 22); fill-opacity: 1; stroke: none; stroke-width: 3; stroke-linecap: round; stroke-linejoin: round; stroke-miterlimit: 4; stroke-dasharray: none; stroke-dashoffset: 0pt; stroke-opacity: 1;" sodipodi:type="star" transform="matrix(1.21699, 0, 0, 0.548952, -850.794, 2257.89)"/>
      <path transform="matrix(0.981089, 0, 0, 0.491494, -928.471, 2123.41)" sodipodi:type="star" style="fill: rgb(206, 92, 0); fill-opacity: 1; stroke: none; stroke-width: 3; stroke-linecap: round; stroke-linejoin: round; stroke-miterlimit: 4; stroke-dasharray: none; stroke-dashoffset: 0pt; stroke-opacity: 1;" id="path7709" sodipodi:sides="6" sodipodi:cx="1725.3406" sodipodi:cy="830.1286" sodipodi:r1="112.86618" sodipodi:r2="87.586037" sodipodi:arg1="0.77274061" sodipodi:arg2="1.285516" inkscape:flatsided="false" inkscape:rounded="0.29" inkscape:randomized="0.041" d="M 1804.4073,906.05549 C 1793.2426,918.2071 1765.694,907.09197 1750.059,911.10682 C 1733.9068,915.25448 1716.4724,948.9533 1700.105,944.02625 C 1684.2616,939.25696 1674.1309,901.72319 1662.5601,889.92826 C 1650.6065,877.74318 1626.3336,880.18635 1621.128,863.84379 C 1616.089,848.0245 1637.6118,822.39297 1641.9362,806.3804 C 1646.4036,789.83816 1634.902,761.98757 1646.9428,750.18758 C 1658.5981,738.76542 1684.3223,754.63857 1699.7579,750.22144 C 1715.7041,745.65819 1732.7199,718.22536 1749.213,722.28525 C 1765.1779,726.21515 1775.707,754.36369 1787.4092,765.68235 C 1799.4986,777.37542 1832.0628,780.82456 1837.5974,796.75007 C 1842.9547,812.16566 1810.1842,830.21759 1806.8828,846.4043 C 1803.4723,863.12645 1815.9413,893.50193 1804.4073,906.05549 z "/>
      <path d="M 1804.4073,906.05549 C 1793.2426,918.2071 1765.694,907.09197 1750.059,911.10682 C 1733.9068,915.25448 1716.4724,948.9533 1700.105,944.02625 C 1684.2616,939.25696 1674.1309,901.72319 1662.5601,889.92826 C 1650.6065,877.74318 1626.3336,880.18635 1621.128,863.84379 C 1616.089,848.0245 1637.6118,822.39297 1641.9362,806.3804 C 1646.4036,789.83816 1634.902,761.98757 1646.9428,750.18758 C 1658.5981,738.76542 1684.3223,754.63857 1699.7579,750.22144 C 1715.7041,745.65819 1732.7199,718.22536 1749.213,722.28525 C 1765.1779,726.21515 1775.707,754.36369 1787.4092,765.68235 C 1799.4986,777.37542 1832.0628,780.82456 1837.5974,796.75007 C 1842.9547,812.16566 1810.1842,830.21759 1806.8828,846.4043 C 1803.4723,863.12645 1815.9413,893.50193 1804.4073,906.05549 z " inkscape:randomized="0.041" inkscape:rounded="0.29" inkscape:flatsided="false" sodipodi:arg2="1.285516" sodipodi:arg1="0.77274061" sodipodi:r2="87.586037" sodipodi:r1="112.86618" sodipodi:cy="830.1286" sodipodi:cx="1725.3406" sodipodi:sides="6" id="path7711" style="fill: rgb(206, 92, 0); fill-opacity: 1; stroke: none; stroke-width: 3; stroke-linecap: round; stroke-linejoin: round; stroke-miterlimit: 4; stroke-dasharray: none; stroke-dashoffset: 0pt; stroke-opacity: 1;" sodipodi:type="star" transform="matrix(1.53753, 0, 0, 0.638787, -1201.78, 2595.53)"/>
      <path transform="matrix(1.17748, 0, 0, 0.715656, -950.696, 2511.76)" sodipodi:type="star" style="fill: rgb(245, 121, 0); fill-opacity: 1; stroke: none; stroke-width: 3; stroke-linecap: round; stroke-linejoin: round; stroke-miterlimit: 4; stroke-dasharray: none; stroke-dashoffset: 0pt; stroke-opacity: 1;" id="path7713" sodipodi:sides="6" sodipodi:cx="1725.3406" sodipodi:cy="830.1286" sodipodi:r1="112.86618" sodipodi:r2="87.586037" sodipodi:arg1="0.77274061" sodipodi:arg2="1.285516" inkscape:flatsided="false" inkscape:rounded="0.29" inkscape:randomized="0.041" d="M 1804.4073,906.05549 C 1793.2426,918.2071 1765.694,907.09197 1750.059,911.10682 C 1733.9068,915.25448 1716.4724,948.9533 1700.105,944.02625 C 1684.2616,939.25696 1674.1309,901.72319 1662.5601,889.92826 C 1650.6065,877.74318 1626.3336,880.18635 1621.128,863.84379 C 1616.089,848.0245 1637.6118,822.39297 1641.9362,806.3804 C 1646.4036,789.83816 1634.902,761.98757 1646.9428,750.18758 C 1658.5981,738.76542 1684.3223,754.63857 1699.7579,750.22144 C 1715.7041,745.65819 1732.7199,718.22536 1749.213,722.28525 C 1765.1779,726.21515 1775.707,754.36369 1787.4092,765.68235 C 1799.4986,777.37542 1832.0628,780.82456 1837.5974,796.75007 C 1842.9547,812.16566 1810.1842,830.21759 1806.8828,846.4043 C 1803.4723,863.12645 1815.9413,893.50193 1804.4073,906.05549 z "/>
      <path d="M 1818.078,909.67573 C 1807.1172,922.61264 1776.1042,909.28717 1760.5847,915.80307 C 1745.0651,922.31897 1718.084,953.62097 1701.3238,949.93066 C 1684.5637,946.24035 1674.9424,914.7845 1661.2352,904.09389 C 1647.5281,893.40328 1620.822,892.0233 1614.4969,876.14318 C 1608.1719,860.26307 1624.5461,828.19897 1628.0453,811.58183 C 1631.5444,794.96469 1620.8123,765.39638 1631.6921,751.93327 C 1642.5718,738.47017 1674.4828,741.6683 1690.6352,736.57928 C 1706.7876,731.49025 1725.6971,709.39699 1742.6294,712.20086 C 1759.5617,715.00473 1774.2569,742.52685 1788.0244,752.82553 C 1801.7918,763.12422 1829.792,772.22081 1836.7232,788.02776 C 1843.6544,803.83471 1825.0327,824.11215 1822.8134,841.10331 C 1820.594,858.09446 1829.0389,896.73881 1818.078,909.67573 z " inkscape:randomized="0.041" inkscape:rounded="0.29" inkscape:flatsided="false" sodipodi:arg2="1.2117437" sodipodi:arg1="0.68814496" sodipodi:r2="96.218704" sodipodi:r1="117.69902" sodipodi:cy="830.1286" sodipodi:cx="1725.3406" sodipodi:sides="6" id="path7715" style="fill: rgb(173, 127, 168); fill-opacity: 1; stroke: none; stroke-width: 3; stroke-linecap: round; stroke-linejoin: round; stroke-miterlimit: 4; stroke-dasharray: none; stroke-dashoffset: 0pt; stroke-opacity: 1;" sodipodi:type="star" transform="matrix(1.25396, 0, 0, 0.650092, -845.474, 2319.21)"/>
      <path transform="matrix(0.951666, 0, 0, 0.488586, -761.525, 2216.68)" sodipodi:type="star" style="fill: rgb(245, 121, 0); fill-opacity: 1; stroke: none; stroke-width: 3; stroke-linecap: round; stroke-linejoin: round; stroke-miterlimit: 4; stroke-dasharray: none; stroke-dashoffset: 0pt; stroke-opacity: 1;" id="path7717" sodipodi:sides="6" sodipodi:cx="1725.3406" sodipodi:cy="830.1286" sodipodi:r1="112.86618" sodipodi:r2="96.218704" sodipodi:arg1="0.77274061" sodipodi:arg2="1.2963394" inkscape:flatsided="false" inkscape:rounded="0.29" inkscape:randomized="0.041" d="M 1804.4073,906.05549 C 1793.1025,918.09508 1771.5149,920.28783 1755.4628,924.50843 C 1739.4106,928.72902 1715.9084,948.9709 1700.105,944.02625 C 1684.3016,939.0816 1669.9044,914.72418 1658.3953,903.12166 C 1646.8863,891.51914 1625.9992,879.7295 1621.128,863.84379 C 1616.2568,847.95808 1631.9165,823.49182 1635.738,807.81229 C 1639.5594,792.13276 1635.155,761.49186 1646.9428,750.18758 C 1658.7307,738.8833 1687.7864,745.83399 1703.1101,740.77832 C 1718.4337,735.72264 1733.2787,718.1793 1749.213,722.28525 C 1765.1472,726.3912 1779.4664,751.07858 1790.9226,763.18985 C 1802.3789,775.30111 1832.4032,781.26491 1837.5974,796.75007 C 1842.7916,812.23523 1826.6255,837.74355 1822.3359,853.20268 C 1818.0464,868.6618 1815.7121,894.0159 1804.4073,906.05549 z "/>
      <path transform="matrix(0.899161, 0, 0, 0.517842, -711.519, 2410.52)" sodipodi:type="star" style="fill: rgb(252, 175, 62); fill-opacity: 1; stroke: none; stroke-width: 3; stroke-linecap: round; stroke-linejoin: round; stroke-miterlimit: 4; stroke-dasharray: none; stroke-dashoffset: 0pt; stroke-opacity: 1;" id="path7719" sodipodi:sides="6" sodipodi:cx="1725.3406" sodipodi:cy="830.1286" sodipodi:r1="117.69902" sodipodi:r2="96.218704" sodipodi:arg1="0.68814496" sodipodi:arg2="1.2117437" inkscape:flatsided="false" inkscape:rounded="0.29" inkscape:randomized="0.066" d="M 1819.1901,912.60002 C 1808.1892,925.34982 1776.6465,906.3155 1761.4591,913.11503 C 1746.2716,919.91456 1715.0785,956.40624 1698.4354,952.18237 C 1681.7922,947.95851 1673.3968,914.43744 1659.4082,903.87652 C 1645.4196,893.3156 1620.6062,894.75448 1614.1004,878.98259 C 1607.5947,863.2107 1622.6861,826.30507 1626.5964,809.88324 C 1630.5066,793.4614 1619.1523,763.43007 1630.0245,749.83325 C 1640.8967,736.23643 1673.9027,738.98705 1690.0893,734.46557 C 1706.2759,729.9441 1724.4727,708.29109 1741.4155,711.09202 C 1758.3583,713.89294 1774.9111,741.08186 1788.9846,751.00768 C 1803.0581,760.93349 1829.9689,771.94313 1837.4484,787.57478 C 1844.9278,803.20643 1826.2294,821.15724 1824.3705,838.18479 C 1822.5116,855.21235 1830.191,899.85022 1819.1901,912.60002 z "/>
    </g>
    <path style="opacity: 0.698; fill: rgb(30, 158, 0); fill-opacity: 1; stroke: none; stroke-width: 3; stroke-linecap: round; stroke-linejoin: round; stroke-miterlimit: 4; stroke-dasharray: none; stroke-dashoffset: 0pt; stroke-opacity: 1;" d="M 1454.6357,760.19467 C 1456.1586,760.51092 1456.5395,761.23708 1457.8183,762.32301 C 1459.4823,764.18667 1462.8527,769.76805 1462.4734,770.68067 C 1461.9708,772.32472 1457.7366,763.00894 1454.6357,760.19467 z M 1483.2262,764.2586 C 1479.6117,770.97488 1479.2716,771.47803 1476.4526,771.38061 C 1477.0513,770.14131 1478.7699,769.132 1479.9759,767.95434 C 1481.2614,766.69903 1481.9601,764.35143 1483.2262,764.2586 z M 1470.5215,764.50347 C 1474.6353,768.89175 1475.0746,770.47222 1474.3817,770.96639 C 1473.1147,771.44343 1473.3913,770.19834 1470.5215,764.50347 z M 1462.8254,765.44449 C 1463.8381,765.27613 1464.5759,766.79605 1464.9785,768.03927 C 1466.0063,771.21352 1466.0179,770.75542 1465.3251,771.02444 C 1464.3699,771.39533 1464.3759,768.15643 1462.8254,765.44449 z M 1456.0135,765.15301 C 1457.0735,765.18401 1457.6249,766.46987 1458.3682,767.65676 C 1459.1147,769.92 1461.2875,771.32585 1459.7551,771.41183 C 1458.2315,771.49733 1457.1774,767.83928 1456.0135,765.15301 z M 1467.3746,766.0236 C 1470.7174,769.66273 1471.4324,770.77893 1470.0897,770.92921 C 1469.2241,771.02608 1469.1558,770.13682 1468.1674,768.64168 C 1467.5308,767.67859 1466.7372,766.83473 1467.3746,766.0236 z " id="path7788" sodipodi:nodetypes="ccccccscccccszccczcczsc"/>
  </g>
</svg>