<?xml version="1.0" encoding="UTF-8"?>
<!-- Generator: Adobe Illustrator 12.0.1, SVG Export Plug-In . SVG Version: 6.00 Build 51448)  -->
<!DOCTYPE svg PUBLIC "-//W3C//DTD SVG 1.1//EN" "http://www.w3.org/Graphics/SVG/1.1/DTD/svg11.dtd" [
	<!ENTITY ns_svg "http://www.w3.org/2000/svg">
	<!ENTITY ns_xlink "http://www.w3.org/1999/xlink">
]>
<svg version="1.1" id="Layer_1" xmlns="http://www.w3.org/2000/svg" xmlns:xlink="http://www.w3.org/1999/xlink" width="616.012" height="338.713" viewBox="0 0 616.012 338.713" overflow="visible" enable-background="new 0 0 616.012 338.713" xml:space="preserve">
<path fill-rule="evenodd" clip-rule="evenodd" fill="#F1F7FC" d="M616.011,75.192c0,87.841,0,175.679,0,263.521  c-205.289,0-410.546,0-615.839,0c0-86.079,0-172.163,0-258.24c18.963-0.527,37.142-2.228,55.2-2.88  c16.284-0.588,30.228,0.576,48.96,0.48c58.104-0.296,115.079-1.637,175.2-1.44c19.068,0.063,38.188-1.757,57.12-1.92  c32.598-0.281,64.182,2.383,95.52,0.96c8.049-0.365,16.363,0.117,24.48,0C509.046,74.918,559.151,73.386,616.011,75.192z   M242.571,88.152c-3.764,0.948-6.942,2.278-8.64,4.32c-5.369,6.46-2.104,18.569-4.32,28.32c-1.033,4.545-6.463,7.585-9.12,12  c-4.878,8.108-4.492,16.54-8.64,26.4c-2.17,5.159-5.104,10.017-6.72,15.36c-6.168,20.387-6.414,41.464-3.36,63.359  c-15.401,0.41-30.938-1.147-45.6,0.48c-2.041,0.227-4.188,1.264-6.24,1.439c-6.37,0.549-14.546-0.028-21.12,0  c-1.09,0.005-4.241-1.278-4.32,0.961c2.32,3.011,5.774-0.729,8.16,2.399c24.224-4.424,47.425,5.221,70.56,1.92  c2.974,7.439,1.127,16.156,2.88,22.561c0.633,2.312,2.53,4.142,3.36,6.239c2.012,5.088,2.474,10.927,4.32,16.32  c1.757,5.134,4.399,9.793,5.28,15.36c-10.683,1.727-24.888,0.047-33.6,4.8c5.204,1.63,11.905,1,18.24,1.439  c3.914,0.272,14.706-2.023,17.28,2.4c-11.419,5.667-23.885-1.515-36-1.439c-5.11,0.031-10.424,1.544-15.84,1.439  c-6.041-0.117-12.176-1.961-18.72-2.4c-10.938-0.733-22.399,1.098-32.64,0.961c-6.449-0.087-12.334-2.729-18.72-3.36  c-9.369-0.926-18.344-0.276-24.96,0.479c-7.623,0.871-15.028-0.826-23.04-0.96c-11.153-0.186-21.897,1.712-32.16,0.48  c-2.29-0.275-7.186-2.614-8.16,1.92c2.257,0.957,2.93-0.504,6.24-0.48c3.656,0.026,7.436,1.44,11.52,1.44  c8.07,0,16.863-1.896,24.96-1.44c6.867,0.388,13.383,1.677,20.16,0.96c2.255-0.238,4.527-1.25,6.72-1.439  c12.63-1.095,24.284,3.184,34.08,3.84c11.872,0.796,24.08-1.474,36.48-0.479c9.247,0.74,17.546,3.483,26.4,2.88  c3.89-0.266,7.699-1.212,11.52-0.96c11.508,0.756,21.54,5.731,32.16,1.92c-0.714,8.394,6.481,8.879,9.6,13.439  c-8.526,1.594-17.917-1.268-27.36-0.96c-3.48,0.113-6.552,1.191-10.08,0.96c-6.811-0.445-13.693-2.198-20.64-2.399  c-6.139-0.179-11.719,0.308-17.28,0c-25.688-1.423-54.763,0.958-81.12-0.96c-2.639-0.192-5.461-1.384-8.16-1.44  c-12.09-0.254-23.111,1.985-35.52,1.44c-6.466-0.284-13.183,0.727-17.76,0c-2.152-0.342-4.562-2.811-6.72-1.44  c1.958,2.949,4.454,3.171,6.72,3.36c17.844,1.49,35.737-1.745,52.8-1.44c16.776,0.3,34.146,3.042,50.88,1.92  c10.369-0.695,21.671-0.012,32.64,0c7.954,0.009,16.395,0.136,24,0.48c7.003,0.317,13.741,2.103,20.64,2.399  c3.385,0.146,6.704-0.98,10.08-0.96c9.194,0.057,18.317,2.336,27.36,1.44c6.211-8.149,14.42,0.519,22.08,1.92  c2.049-0.923-0.516-3.812,1.44-4.32c1.92,0.268,3.037,1.868,4.8,0.96c1.778-4.28-1.374-7.505-1.44-9.6  c4.365,2.035,7.053,5.747,12,7.2c2.178-0.223,1.702-3.099,3.84-3.36c2.935,0.92,4.408,5.442,8.16,4.32  c6.705-2.006-1.832-11.908-3.84-13.44c5.249,2.208,10.303-0.204,15.84,0c8.755,0.324,17.625,2.223,26.4,2.4  c6.307,0.127,12.729-1.261,19.201-0.96c5.711,0.265,11.477,1.79,17.279,1.92c6.234,0.14,12.479-0.935,18.721-0.48  c7.314,0.532,14.713,2.573,22.08,2.4c28.535-0.67,58.125-2.105,87.84-1.44c7.098,0.159,15.277,0.006,22.08-0.96  c1.344-0.19,2.943-0.43,4.318-1.439c-0.311,1.911,0.264,2.937,1.92,2.88c4.525,0.945,11.881,0.723,14.4-1.92  c1.805,0.742,4.221,2.939,6.721,1.439c0.539-3.898-1.66-5.06-2.4-7.68c10.354-2.127,16.572-8.388,24.961-12.479  c-0.102,3.259-1.504,5.217-0.961,9.119c-2.941,2.178-8.295,1.945-8.16,7.2c4.846-1.234,8.793,2.045,12.961,1.92  c3.836-0.115,7.799-3.271,12.479-0.96c-0.613-4.613,0.799-7.201,2.4-9.6c1.18-7.603-2.582-12.411-2.4-19.2  c0.289-10.759,5.385-20.954,3.842-33.12c2.246,0.474,0.799,4.641,4.318,3.84c-0.543-9.71-5.041-19.588-5.76-30.72  c-6.469-12.882-6.502-27.766-12-39.84c-1.721-3.782-4.939-6.949-6.24-11.04c-0.881-2.774-0.322-4.64-0.959-7.2  c-2.078-8.351-6.957-15.241-11.041-20.16c-4.1-4.941-14.375-8.583-15.84-15.36c-1.033-4.783,1.822-10.215,0.961-13.92  c-1.025-4.408-9.182-10.087-15.361-10.08c-2.488,0.003-4.84,1.425-7.68,1.92c-6.543,1.141-16.283-0.395-18.719,4.8  c7.123,3.324,19.176,9.405,17.279,21.6c-1.004,6.459-11.58,13.483-14.4,21.12c-5.947,16.104-3.229,36.831-5.76,56.641  c-0.48,3.76-2.275,8.69-2.4,13.439c-0.277,10.551,2.318,25.214,6.24,33.12c4.883,9.845,6.596,20.24,10.561,28.8  c2.459,5.312,6.086,8.544,7.68,14.88c-9.715,1.2-19.143-2.146-28.801-2.88c-3.793-0.288-7.682,0.324-11.52,0  c-5.172-0.437-10.195-2.268-15.359-2.399c-17.703-0.454-36.215,3.188-53.76,1.439c-4.109-0.409-7.977-2.04-12-1.92  c-4.322,0.129-8.365,1.664-12.48,1.92c-8.035,0.499-16.152-0.608-24.48-0.96c-6.146-0.259-10.992-1.262-15.359-1.439  c-4.08-0.167-8.689,0.934-12.961,0.96c-13.949,0.085-26.523-1.541-39.839,0.479c2.191-17.97,4.273-36.047,5.76-54.72  c10.836,1.057,22.577-1.806,33.12-1.92c5.479-0.06,11.545,2.617,15.84-0.96c-14.812-3.051-34.765,3.029-48.48-0.48  c1.333-5.067,8.366-3.165,12.96-3.359c11.491-0.487,25.346,0.435,36.959,0.479c-0.113,0.886-1.555,4.34,0.48,4.32  c5.787,0.062,10.672,0.067,16.32,0c4.24-0.051,6.449,1.179,10.561,0.96c4.881-0.26,6.738-5.278,10.559-5.76  c3.582-0.452,5.773,2.37,9.121,3.359c4.951,1.465,17.6,3.089,18.24-3.84c-5.266-5.86-15.01-9.855-16.32-19.2  c-1.91-13.606,0.143-28.588-1.92-45.12c-1.621-12.989-8.098-28.571-11.52-41.28c-1.828-6.78-5.09-11.999-8.641-17.76  c-3.008-4.879-6.979-12.591-11.041-15.36c-4.969-3.389-11.91-0.867-18.719,0c-7.67,0.977-15.979-1.621-20.641,2.4  c2.182,4.75,18.045,6.44,18.24,12.96c0.08,2.653-4.24,6.661-4.801,8.16c-2.475,6.624-3.381,15.654-3.84,23.04  c-2.4,38.641,19.91,59.639,24,90.72c-18.854,1.844-40.849-2.24-59.52,0c1.557-15.429,2.183-32.771,1.44-50.399  c-0.695-16.49-0.109-37.282-7.2-48.48c-2.587-4.086-8.072-8.954-12.96-13.44c-4.117-3.78-11.5-9.248-12.48-13.92  c-1.31-6.246,0.73-13.904-0.96-19.2c-1.16-3.634-5.265-5.296-6.24-9.12c-0.721-2.826,0.315-4.127-0.48-7.68  C245.428,79.169,245.06,84.721,242.571,88.152z"/>
<path fill-rule="evenodd" clip-rule="evenodd" fill="#CFE0F3" d="M339.812,240.997c0,0-0.054-0.002-0.158-0.005  c-2.697-0.075-39.096-1.092-41.524-0.94c-2.521,0.157-9.534,1.182-9.534,1.182l-1.261,1.182v4.177l20.88-0.315l23.323-0.709  l4.57,0.078l2.6-0.314"/>
<path fill-rule="evenodd" clip-rule="evenodd" fill="#CFE0F3" d="M230.4,330.72c0,0-3.9-4.47-5.9-5.47s-1.75-0.25-2.5-3  s-1.2-4.97-1.2-4.97s-6.55,2.72-11.55,1.47s-16.72-3.529-20.61-3.39s-12.39,0.14-12.39,0.14l-15.75-2l-16.5-1.25L119,314  c0,0-12.5-2-15-2.25s-17.5-2.5-17.5-2.5l-15.25,2.25l-17.97-0.94l-19.03,0.94L22,310.25l-8.75-0.75L12,311.25c0,0-5.5,3.5-5.75,6.5  s0.25,9.25,2,9.5s16,2.5,17.5,2.25s24.75-1.5,29-1.75s11.5-0.5,11.5-0.5l31.75,2l30-0.75l45.75,0.75l18.75,3l12.75-1.25l16,1.75  L230.4,330.72z"/>
<g>
	<path fill-rule="evenodd" clip-rule="evenodd" fill="#CFE0F3" d="M615.84,60c-15.443,0.529-32.749-1.859-46.56-5.76   c-3.24,0.625-7.242,1.479-10.08,0c-5.129,2.692-11.116,3.409-16.8,3.84c-27.416,2.08-55.009-0.368-83.04-1.92   c-2.95-0.164-5.772-1.373-8.641-1.44c-3.697-0.087-10.249,0.105-14.88,0.48c-3.663,0.296-6.692,2.842-10.08,3.36   c-7.508,1.148-17.652-1.431-27.359-1.44c-7.77-0.007-15.821,1.771-23.04,1.44c-12.13-0.555-24.477-1.442-35.521-1.92   c-7.28-0.315-14.29,2.63-19.68-1.44c-5.168,0.756-9.425,6.555-14.88,7.2c-3.563,0.421-6.757-2.419-10.56-2.4   c-2.405,0.012-4.787,2.812-7.2,2.88c-3.385,0.096-6.66-2.589-9.6-2.4c-4.21,0.271-8.408,3.297-12.48,3.36   c-3.625,0.056-7.423-1.92-11.04-2.4c-5.576-0.74-10.86,0.928-16.8,0.96c-4.008,0.021-8.996-2.23-13.92-2.4   c-9.955-0.343-19.656,1.493-28.8,0c-4.191-0.685-8.8-3.935-12.96-3.84c-3.949,0.089-6.888,3.963-10.08,4.32   c-3.579,0.4-7.759-1.616-11.52-1.92c-9.609-0.778-21.094-1.884-30.24-1.44c-3.134,0.152-6.284,1.566-9.6,1.92   c-5.278,0.562-10.94-0.689-15.84,0c-9.637,1.355-17.185,5.206-27.84,5.28c-4.889,0.034-10.558-1.08-15.84-1.44   c-5.391-0.368-10.726,0.371-15.36,0c-4.8-0.384-9.348-3.03-13.92-3.84C20.593,57.077,10.461,59.086,0,60.48C0,40.32,0,20.16,0,0   c205.289,0,410.547,0,615.84,0C615.84,20,615.84,40,615.84,60z"/>
	<path fill-rule="evenodd" clip-rule="evenodd" d="M615.84,60c0,0.64,0,1.28,0,1.92c-18.998,1.213-34.459-3.587-49.439-4.8   c2.521,6.118,12.498,4.781,18.239,7.68c-9.803,2.554-18.841-6.396-26.88-7.2c2.384,4.176,8.003,5.117,12.96,6.72   c-4.162,3.373-8.187-1.659-12-3.36c-5.596-2.497-8.979-0.854-15.84-0.48c-4.192,0.229-8.817-1.056-12.479-0.96   c-3.006,0.079-5.733,1.215-8.641,1.44c-8.244,0.637-15.741-0.883-24.479-1.44c-12.069-0.77-24.51-0.312-36.96-0.96   c-5.185-0.27-10.062-2.451-15.84-0.48c1.621,2.219,5.744,1.936,7.199,4.32c-5.034,1.51-9.441-4.716-15.84-4.8   c-2.954-0.039-5.568,2.347-8.64,2.88c-12.929,2.241-29.179-3.823-42.72,0c2.253,2.227,2.766,6.194,6.239,7.2   c-5.138,3.082-6.166-5.895-10.08-7.2c-9.381-1.336-19.556,0.24-29.76-0.48c-7.982-0.563-19.006-3.467-24.96,0.96   c-1.888,1.403-2.184,4.132-3.84,5.28c-3,2.079-6.074,1.242-9.6,2.4c-1.186-2.915,4.801-2.464,7.199-3.36   c2.215-1.146,2.367-4.353,4.32-5.76c-9.188-3.282-17.346,6.111-26.4,7.68c-0.283,1.722,2.867,0.013,2.4,1.92   c-2.179,1.66-8.639,3.622-11.04,1.92c3.333-2.107,6.727-4.153,9.6-6.72c-2.565-3.822-7.105-1.481-9.6,0.96   c-4.322-1.111-6.85-3.252-11.04-2.88c-4.806,0.427-8.817,3.638-13.92,3.36c-7.055-0.384-11.738-3.804-19.68-2.88   c-3.211,0.374-6.431,1.706-11.04,0.96c-9.929-1.606-18.754-1.595-29.28-1.44c-5.686,0.084-11.859-2.469-15.84-1.92   c-6.925,0.955-6.33,13.09-13.92,11.04c0.141-2.739,3.602-2.158,4.8-3.84c0.444-4.196,3.462-5.818,5.76-8.16   c-2.795-2.812-5.575-0.208-8.16,0.96c-1.141,0.938,0.877,2.686-0.48,3.84c-1.027,1.853-3.236,2.524-3.84,4.8   c-4.009,0.583-7.955,5.426-11.04,3.84c3.667-4.173,11.342-4.338,12.96-10.56c-13.301-0.761-28.837-3.424-43.2-3.36   c-3.793,0.017-7.339,1.998-11.04,2.4c-5.428,0.589-10.778-0.595-16.32,0c-7.106,0.763-13.78,3.426-20.64,4.32   c-9.842,1.283-21.638-2-32.16-1.44c-11.732,0.624-20.719-4.046-34.56-3.84C10.46,60.567,5.882,62.844,0,62.88c0-0.8,0-1.6,0-2.4   c10.461-1.394,20.593-3.403,31.68-1.44c4.572,0.81,9.12,3.456,13.92,3.84c4.634,0.371,9.969-0.368,15.36,0   c5.282,0.36,10.951,1.474,15.84,1.44c10.656-0.074,18.204-3.924,27.84-5.28c4.899-0.689,10.562,0.562,15.84,0   c3.316-0.354,6.466-1.768,9.6-1.92c9.146-0.444,20.631,0.662,30.24,1.44c3.761,0.304,7.941,2.32,11.52,1.92   c3.192-0.356,6.131-4.23,10.08-4.32c4.16-0.095,8.769,3.155,12.96,3.84c9.144,1.493,18.846-0.343,28.8,0   c4.924,0.17,9.912,2.421,13.92,2.4c5.94-0.032,11.224-1.7,16.8-0.96c3.617,0.48,7.416,2.456,11.04,2.4   c4.072-0.062,8.27-3.089,12.48-3.36c2.94-0.189,6.215,2.496,9.6,2.4c2.413-0.068,4.795-2.868,7.2-2.88   c3.803-0.019,6.996,2.821,10.56,2.4c5.456-0.645,9.712-6.443,14.88-7.2c5.39,4.07,12.399,1.125,19.68,1.44   c11.044,0.478,23.391,1.365,35.521,1.92c7.219,0.331,15.271-1.447,23.04-1.44c9.707,0.009,19.852,2.588,27.359,1.44   c3.388-0.518,6.417-3.063,10.08-3.36c4.631-0.375,11.183-0.567,14.88-0.48c2.868,0.067,5.69,1.276,8.641,1.44   c28.031,1.552,55.624,4,83.04,1.92c5.684-0.431,11.671-1.147,16.8-3.84c2.838,1.479,6.84,0.625,10.08,0   C583.091,58.141,600.396,60.529,615.84,60z"/>
	<path fill-rule="evenodd" clip-rule="evenodd" fill="#FFFFFF" d="M615.84,61.92c0,3.68,0,7.36,0,11.04   c-71.792-1.734-140.844,0.903-211.68,1.44c-21.203,0.161-46.583-3.138-73.92-1.44c-33.432,2.077-67.01,0.441-97.44,0.96   c-38.604,0.659-78.931,2.326-119.52,2.4c-21.98,0.04-44.02-2.037-65.76-0.48C31.338,76.999,15.667,77.804,0,78.24   C0,73.12,0,68,0,62.88c5.882-0.036,10.46-2.312,16.32-2.4c13.841-0.207,22.828,4.464,34.56,3.84   c10.522-0.56,22.318,2.723,32.16,1.44c6.86-0.894,13.534-3.557,20.64-4.32c5.542-0.595,10.892,0.589,16.32,0   c3.701-0.402,7.247-2.383,11.04-2.4c14.363-0.064,29.899,2.599,43.2,3.36c-1.619,6.222-9.293,6.387-12.96,10.56   c3.085,1.586,7.031-3.256,11.04-3.84c0.604-2.276,2.813-2.947,3.84-4.8c1.357-1.154-0.661-2.902,0.48-3.84   c2.585-1.168,5.365-3.772,8.16-0.96c-2.298,2.342-5.315,3.964-5.76,8.16c-1.198,1.682-4.659,1.101-4.8,3.84   c7.59,2.05,6.995-10.085,13.92-11.04c3.981-0.549,10.154,2.004,15.84,1.92c10.525-0.155,19.351-0.166,29.28,1.44   c4.609,0.746,7.829-0.586,11.04-0.96c7.942-0.924,12.625,2.496,19.68,2.88c5.103,0.278,9.114-2.933,13.92-3.36   c4.19-0.372,6.718,1.769,11.04,2.88c2.495-2.441,7.035-4.782,9.6-0.96c-2.873,2.567-6.268,4.613-9.6,6.72   c2.401,1.702,8.861-0.26,11.04-1.92c0.467-1.907-2.683-0.198-2.4-1.92c9.054-1.569,17.211-10.962,26.4-7.68   c-1.953,1.407-2.105,4.614-4.32,5.76c-2.398,0.896-8.385,0.446-7.199,3.36c3.525-1.158,6.6-0.321,9.6-2.4   c1.656-1.148,1.952-3.877,3.84-5.28c5.954-4.427,16.978-1.523,24.96-0.96c10.204,0.72,20.379-0.856,29.76,0.48   c3.914,1.306,4.942,10.282,10.08,7.2c-3.474-1.006-3.986-4.974-6.239-7.2c13.541-3.823,29.791,2.241,42.72,0   c3.071-0.533,5.686-2.919,8.64-2.88c6.398,0.084,10.806,6.31,15.84,4.8c-1.455-2.384-5.578-2.101-7.199-4.32   c5.777-1.971,10.655,0.21,15.84,0.48c12.45,0.648,24.891,0.19,36.96,0.96c8.738,0.557,16.235,2.077,24.479,1.44   c2.907-0.225,5.635-1.361,8.641-1.44c3.662-0.096,8.287,1.188,12.479,0.96c6.86-0.374,10.244-2.017,15.84,0.48   c3.813,1.701,7.838,6.732,12,3.36c-4.957-1.603-10.576-2.543-12.96-6.72c8.039,0.803,17.077,9.754,26.88,7.2   c-5.741-2.898-15.718-1.562-18.239-7.68C581.381,58.333,596.842,63.133,615.84,61.92z"/>
	<path fill-rule="evenodd" clip-rule="evenodd" d="M615.84,72.96c0,0.64,0,1.28,0,1.92c-56.859-1.806-106.966-0.274-159.359,0.48   c-8.118,0.117-16.432-0.365-24.48,0c-31.339,1.423-62.923-1.241-95.52-0.96c-18.933,0.163-38.053,1.983-57.121,1.92   c-60.121-0.197-117.096,1.144-175.2,1.44c-18.732,0.096-32.676-1.068-48.96-0.48C37.142,77.933,18.963,79.633,0,80.16   c0-0.64,0-1.28,0-1.92c15.667-0.436,31.338-1.241,47.52-2.4c21.74-1.557,43.78,0.52,65.76,0.48   c40.589-0.074,80.916-1.741,119.52-2.4c30.431-0.519,64.008,1.117,97.44-0.96c27.337-1.698,52.717,1.601,73.92,1.44   C474.996,73.863,544.048,71.226,615.84,72.96z"/>
	<path fill-rule="evenodd" clip-rule="evenodd" d="M342.24,105.12c-0.058,1.383,0.262,3.142-0.48,3.84   c-1.698,0.258-2.104-0.776-2.88-1.44C338.706,105.159,340.456,104.191,342.24,105.12z"/>
	<path fill-rule="evenodd" clip-rule="evenodd" fill="#FFFFFF" d="M353.76,120c-12.748-5.682-13.063,19.525-10.56,29.76   c1.255,5.131,4.924,9.746,5.76,16.8c0.803,6.773,0.062,13.453,0.48,19.68c0.904,13.489,4.405,26.188,16.319,26.88   c-2.085,10.714-6.408,19.191-8.16,30.24c-3.487,0.992-8.707,0.252-12.96,0.479c5.586-0.947,6.457-5.157,4.801-11.52   c-2.545-9.776-8.082-20.343-12-30.721c-7.552-20.001-13.21-39.687-9.12-64.8c1.049-6.445,1.58-13.96,7.199-17.76   c3.501,0.58,10.059,1.559,13.44-1.44c1.563-1.386,1.469-6.835,4.32-7.2C358.148,109.777,357.929,117.893,353.76,120z"/>
	<path fill-rule="evenodd" clip-rule="evenodd" d="M359.04,112.32c0.408-0.088,0.453,0.188,0.479,0.48   c6.476,7.878,10.608,18.327,13.921,29.76c3.098,10.696,7.883,22.136,9.6,34.08c2.227,15.491-0.99,30.811,1.92,46.08   c1.854,9.729,11.04,12.318,15.36,19.681c-5.318,1.101-10.457,1.723-15.36,0c-3.411-1.199-5.364-3.94-8.64-3.841   c-6.124,0.188-8.441,10.635-16.32,5.28c-1.339-4.249,1.526-7.188,2.88-11.04c2.25-6.402,1.894-13.391,4.8-18.72   c1.287-2.359,4.056-3.598,4.32-6.24c0.249-2.486-2.037-4.955-2.88-7.68c-1.262-4.078-2.068-9.817-2.4-13.92   c-0.691-8.544,1.038-14.209,2.4-21.6c-3.176,0.634-2.825,4.91-3.36,7.2c-1.614,6.905-1,15.5,0.96,24.48   c1.139,5.214,4.372,10.906,0.96,14.399c-3.795-0.364-6.964-1.355-10.08-2.399c-9.533-11.255-3.062-31.007-7.199-45.6   c-2.581-9.103-7.25-15.015-6.24-28.32c0.354-4.678,1.276-9.476,4.32-13.44c2.287-0.047,3.417,1.062,5.279,1.44   C356.313,119.833,359.448,117.848,359.04,112.32z"/>
	<path fill-rule="evenodd" clip-rule="evenodd" fill="#FFFFFF" d="M231.84,115.68c3.992,11.55,13.423-2.474,23.04,0   c2.619,0.673,4.431,4.775,6.24,6.72c5.887,6.328,15.899,12.596,20.16,20.16c6.534,11.602,5.769,36.257,7.2,53.76   c0.56,6.848-0.161,13.478-0.48,20.64c-0.75,16.85-2.851,35.33-4.8,52.32c-2.106,18.35-1.839,36.131-8.64,47.04   c-7.222-1.175-10.367-8.523-7.68-16.801c-3.496,0.505-2.693,5.308-3.36,8.641c-3.246,3.635-8.126,5.634-9.6,11.04   c-1.983-0.257-3.777-0.703-5.76-0.96c0.19-2.934,4.025-11.25,0.96-15.84c-2.06,2.155-0.563,5.913-0.96,8.159   c-1.499,8.49-9.409,13.301-14.88,17.761c-2.74-1.65-7.438-3.106-9.12-6.24c-1.96-3.651-0.795-7.612-1.44-12.48   c-1.65-12.456-10.829-26.233-12-37.439c10.354-8.665,11.473-28.66,10.56-49.44c-0.491-11.167-3.333-23.398-1.92-32.64   c0.717-4.688,3.992-8.512,4.8-12.96c0.67-3.691,0.148-7.559,0.48-11.52c0.588-7.03,2.533-13.361,4.32-19.2   c2.54-8.301,8.56-13.164,8.16-23.04c-0.748-1.958-4.604-0.62-6.24-0.48C231.131,120.411,232.214,118.774,231.84,115.68z"/>
	<path fill-rule="evenodd" clip-rule="evenodd" d="M234.72,124.32c0.408-0.088,0.453,0.188,0.48,0.48   c-2.748,11.346-10.477,22.809-12.48,36.96c-0.811,5.724-0.164,11.47-1.44,16.8c-0.903,3.771-3.696,7.23-4.32,11.04   c-0.732,4.474,0.557,10.275,0.96,15.841c1,13.809,2.823,33.478,0.48,46.079c-1.1,5.919-3.402,14.716-8.64,17.28   c-3.463-4.588-1.907-11.654-2.88-17.76c-1.958-12.3-4.795-23.691-5.28-36c-0.67-17.015,3.235-34.234,8.16-47.04   c1.621-4.214,4.401-8.055,5.76-12.48c1.491-4.855,0.995-9.262,2.4-13.44c1.845-5.487,6.137-10.111,9.12-14.4   c3.042,0.001,3.803-2.277,6.24-2.88c0.558,0.078,0.854-0.106,0.96-0.48C234.4,124.32,234.56,124.32,234.72,124.32z"/>
	<path fill-rule="evenodd" clip-rule="evenodd" fill="#FFFFFF" d="M573.12,308.16c-5.776-0.97-11.705-5.876-15.84-10.08   c-9.62,3.82-15.125,11.755-27.36,12.96c-2.102-1.898-0.081-7.919-1.439-10.56c-3.857-0.479-6.956,3.475-8.641,6.72   c-3.52,0.479-5.125,2.875-7.68,4.319c-6.875-15.328-15.084-30.956-20.641-49.92c-4.567-15.59-3.939-37.509-2.88-56.64   c0.732-13.218,1.448-32.084,5.28-43.2c3.083-8.942,12.093-13.731,14.88-22.08c6.849,0.656,12.887-2.859,18.72-1.44   c2.764,0.672,3.831,4.133,5.761,5.76c2.737,2.31,5.645,2.971,8.16,5.28c4.796,4.403,10.366,12.851,12.479,19.68   c1.005,3.248,0.92,6.574,1.92,9.6c1.236,3.742,4.085,6.525,4.32,10.561c7.847,14.03,9.975,43.26,13.439,63.36   c0.345,1.999,1.264,3.851,1.44,5.76c1.031,11.134-4.398,22.975-3.36,35.04C572.12,298.396,573.99,302.685,573.12,308.16z    M519.36,165.12c2.024,2.837,3.008,6.963,6.239,7.68c-2.091-10.868-13.229-12.691-10.56-28.32c-0.613-0.026-0.665-0.615-1.44-0.48   C510.829,155.35,515.479,159.681,519.36,165.12z"/>
	<path fill-rule="evenodd" clip-rule="evenodd" d="M513.6,144c0.775-0.135,0.827,0.454,1.44,0.48   c-2.669,15.628,8.469,17.452,10.56,28.32c-3.231-0.717-4.215-4.843-6.239-7.68C515.479,159.681,510.829,155.35,513.6,144z"/>
	<path fill-rule="evenodd" clip-rule="evenodd" fill="#CFE0F3" d="M202.56,241.92c-11.805,3.039-24.608,0.291-36.96-0.96   c5.367-1.284,14.935-1.53,22.56-1.44C193.576,239.584,200.367,238.11,202.56,241.92z"/>
	<path fill-rule="evenodd" clip-rule="evenodd" fill="#CFE0F3" d="M510.72,315.36c-2.213,3.142-6.381,1.779-9.12,1.92   c-26.037,1.336-58.93,1.652-84.479,1.92c-7.494,0.078-14.995,1.191-22.08,0.96c-6.298-0.206-12.21-1.936-18.24-2.4   c-8.688-0.669-16.605,0.437-24.479,0c-4.423-0.245-8.886-1.272-13.44-1.439c-5.605-0.206-11.143,0.96-16.8,0.96   c-8.937,0-18.225-1.722-27.36-2.4c-4.984-0.37-10.019,1.084-14.88-0.96c-1.845-1.345,0.839-6.098,1.44-8.16   c11.384-3.272,25.899-1.519,38.88-1.439c4.883,0.029,9.954-1.168,14.399-0.96c2.438,0.113,4.738,1.204,7.2,1.439   c8.36,0.799,17.533,0.921,25.92,0.96c7.021,0.033,13.746-2.127,20.641-1.92c4.137,0.125,8.088,1.582,12.479,1.92   c17.208,1.326,35.72-2.515,52.32-1.439c4.257,0.275,8.703,1.532,12.96,1.92c4.105,0.373,8.046-0.272,12,0   c4.984,0.343,10.653,2.252,15.84,2.88C499.824,309.835,510.883,306.547,510.72,315.36z"/>
	<path fill-rule="evenodd" clip-rule="evenodd" fill="#CFE0F3" d="M219.84,308.16c-3.353,3.251-11.469,1.135-16.8,0.96   C206.902,307.528,215.929,306.57,219.84,308.16z"/>
	<path fill-rule="evenodd" clip-rule="evenodd" d="M249.6,77.28c0.795,3.553-0.241,4.854,0.48,7.68   c0.975,3.824,5.08,5.486,6.24,9.12c1.69,5.295-0.35,12.954,0.96,19.2c0.98,4.672,8.363,10.141,12.48,13.92   c4.888,4.486,10.373,9.354,12.96,13.44c7.09,11.198,6.505,31.99,7.2,48.48c0.743,17.628,0.117,34.971-1.44,50.399   c18.671-2.24,40.667,1.844,59.52,0c-4.091-31.081-26.4-52.079-24-90.72c0.459-7.386,1.364-16.416,3.84-23.04   c0.561-1.499,4.88-5.507,4.8-8.16c-0.195-6.52-16.059-8.209-18.239-12.96c4.661-4.021,12.97-1.423,20.64-2.4   c6.809-0.867,13.751-3.389,18.72,0c4.062,2.769,8.032,10.481,11.04,15.36c3.552,5.761,6.813,10.98,8.641,17.76   c3.423,12.708,9.898,28.291,11.52,41.28c2.063,16.532,0.011,31.514,1.92,45.12c1.312,9.345,11.056,13.34,16.32,19.2   c-0.64,6.929-13.289,5.305-18.24,3.84c-3.347-0.989-5.538-3.812-9.12-3.359c-3.821,0.481-5.678,5.5-10.56,5.76   c-4.11,0.219-6.32-1.011-10.561-0.96c-5.648,0.067-10.532,0.062-16.319,0c-2.036,0.02-0.595-3.435-0.48-4.32   c-11.613-0.045-25.469-0.967-36.96-0.479c-4.594,0.194-11.627-1.708-12.96,3.359c13.715,3.51,33.667-2.57,48.48,0.48   c-4.296,3.577-10.361,0.9-15.841,0.96c-10.542,0.114-22.284,2.977-33.12,1.92c-1.487,18.673-3.569,36.75-5.76,54.72   c13.316-2.021,25.89-0.395,39.84-0.479c4.271-0.026,8.881-1.127,12.96-0.96c4.367,0.178,9.214,1.181,15.36,1.439   c8.328,0.352,16.445,1.459,24.48,0.96c4.115-0.256,8.157-1.791,12.479-1.92c4.024-0.12,7.892,1.511,12,1.92   c17.545,1.748,36.057-1.894,53.76-1.439c5.164,0.132,10.188,1.963,15.36,2.399c3.838,0.324,7.727-0.288,11.52,0   c9.658,0.733,19.085,4.08,28.801,2.88c-1.595-6.336-5.221-9.568-7.681-14.88c-3.964-8.56-5.677-18.955-10.56-28.8   c-3.922-7.906-6.518-22.569-6.24-33.12c0.125-4.749,1.92-9.68,2.4-13.439c2.531-19.81-0.188-40.536,5.76-56.641   c2.82-7.636,13.396-14.661,14.4-21.12c1.896-12.195-10.156-18.276-17.28-21.6c2.437-5.195,12.176-3.66,18.72-4.8   c2.84-0.495,5.191-1.917,7.68-1.92c6.18-0.007,14.336,5.672,15.36,10.08c0.861,3.705-1.993,9.137-0.96,13.92   c1.465,6.778,11.739,10.419,15.84,15.36c4.083,4.919,8.963,11.809,11.04,20.16c0.637,2.561,0.078,4.426,0.96,7.2   c1.301,4.091,4.519,7.258,6.24,11.04c5.497,12.074,5.53,26.958,12,39.84c0.719,11.132,5.217,21.01,5.76,30.72   c-3.521,0.801-2.073-3.366-4.319-3.84c1.544,12.166-3.553,22.361-3.841,33.12c-0.182,6.789,3.58,11.598,2.4,19.2   c-1.602,2.398-3.014,4.986-2.4,9.6c-4.68-2.311-8.643,0.845-12.479,0.96c-4.167,0.125-8.114-3.154-12.96-1.92   c-0.136-5.255,5.218-5.022,8.16-7.2c-0.543-3.902,0.859-5.86,0.96-9.119c-8.388,4.092-14.607,10.353-24.96,12.479   c0.739,2.62,2.938,3.781,2.399,7.68c-2.5,1.5-4.916-0.697-6.72-1.439c-2.521,2.643-9.875,2.865-14.4,1.92   c-1.656,0.057-2.231-0.969-1.92-2.88c-1.376,1.01-2.975,1.249-4.319,1.439c-6.803,0.966-14.982,1.119-22.08,0.96   c-29.714-0.665-59.304,0.771-87.84,1.44c-7.366,0.173-14.766-1.868-22.08-2.4c-6.241-0.454-12.486,0.62-18.721,0.48   c-5.802-0.13-11.568-1.655-17.279-1.92c-6.473-0.301-12.895,1.087-19.2,0.96c-8.776-0.178-17.646-2.076-26.4-2.4   c-5.537-0.204-10.591,2.208-15.84,0c2.008,1.532,10.545,11.435,3.84,13.44c-3.751,1.122-5.225-3.4-8.16-4.32   c-2.138,0.262-1.662,3.138-3.84,3.36c-4.947-1.453-7.635-5.165-12-7.2c0.066,2.095,3.219,5.319,1.44,9.6   c-1.763,0.908-2.88-0.692-4.8-0.96c-1.956,0.509,0.609,3.397-1.44,4.32c-7.66-1.401-15.869-10.069-22.08-1.92   c-9.043,0.896-18.166-1.384-27.36-1.44c-3.376-0.021-6.695,1.106-10.08,0.96c-6.899-0.297-13.637-2.082-20.64-2.399   c-7.605-0.345-16.046-0.472-24-0.48c-10.969-0.012-22.271-0.695-32.64,0c-16.735,1.122-34.104-1.62-50.88-1.92   c-17.062-0.305-34.956,2.931-52.8,1.44c-2.266-0.189-4.762-0.411-6.72-3.36c2.159-1.37,4.568,1.099,6.72,1.44   c4.577,0.727,11.294-0.284,17.76,0c12.409,0.545,23.43-1.694,35.52-1.44c2.699,0.057,5.521,1.248,8.16,1.44   c26.357,1.918,55.432-0.463,81.12,0.96c5.561,0.308,11.141-0.179,17.28,0c6.947,0.201,13.83,1.954,20.64,2.399   c3.528,0.231,6.6-0.847,10.08-0.96c9.443-0.308,18.834,2.554,27.36,0.96c-3.119-4.561-10.314-5.046-9.6-13.439   c-10.62,3.812-20.651-1.164-32.16-1.92c-3.821-0.252-7.63,0.694-11.52,0.96c-8.854,0.604-17.153-2.14-26.4-2.88   c-12.4-0.994-24.608,1.275-36.48,0.479c-9.796-0.656-21.45-4.935-34.08-3.84c-2.193,0.189-4.465,1.201-6.72,1.439   c-6.777,0.717-13.293-0.572-20.16-0.96c-8.097-0.456-16.89,1.44-24.96,1.44c-4.084,0-7.864-1.414-11.52-1.44   c-3.31-0.023-3.983,1.438-6.24,0.48c0.974-4.534,5.87-2.195,8.16-1.92c10.263,1.231,21.007-0.666,32.16-0.48   c8.012,0.134,15.417,1.831,23.04,0.96c6.616-0.756,15.591-1.405,24.96-0.479c6.386,0.631,12.271,3.273,18.72,3.36   c10.241,0.137,21.702-1.694,32.64-0.961c6.543,0.439,12.679,2.283,18.72,2.4c5.416,0.104,10.73-1.408,15.84-1.439   c12.115-0.075,24.581,7.106,36,1.439c-2.574-4.424-13.366-2.128-17.28-2.4c-6.335-0.439-13.037,0.19-18.24-1.439   c8.712-4.753,22.917-3.073,33.6-4.8c-0.88-5.567-3.522-10.227-5.28-15.36c-1.846-5.394-2.308-11.232-4.32-16.32   c-0.83-2.098-2.727-3.927-3.36-6.239c-1.752-6.404,0.094-15.121-2.88-22.561c-23.135,3.301-46.336-6.344-70.56-1.92   c-2.386-3.128-5.84,0.611-8.16-2.399c0.08-2.239,3.23-0.956,4.32-0.961c6.573-0.028,14.75,0.549,21.12,0   c2.053-0.176,4.2-1.213,6.24-1.439c14.662-1.628,30.199-0.07,45.6-0.48c-3.054-21.896-2.809-42.973,3.36-63.359   c1.617-5.344,4.55-10.201,6.72-15.36c4.148-9.86,3.761-18.292,8.64-26.4c2.657-4.415,8.087-7.455,9.12-12   c2.216-9.751-1.049-21.86,4.32-28.32c1.698-2.042,4.876-3.372,8.64-4.32C244.889,84.409,245.256,78.856,249.6,77.28z M353.28,110.4   c-2.852,0.365-2.757,5.814-4.32,7.2c-3.382,2.999-9.939,2.02-13.44,1.44c-5.619,3.799-6.15,11.315-7.199,17.76   c-4.09,25.113,1.568,44.799,9.12,64.8c3.918,10.378,9.455,20.944,12,30.721c1.656,6.362,0.785,10.572-4.801,11.52   c4.253-0.228,9.473,0.513,12.96-0.479c1.752-11.049,6.075-19.526,8.16-30.24c-11.914-0.691-15.415-13.391-16.319-26.88   c-0.418-6.228,0.322-12.907-0.48-19.68c-0.836-7.055-4.505-11.669-5.76-16.8c-2.504-10.234-2.188-35.441,10.56-29.76   C357.929,117.893,358.148,109.777,353.28,110.4z M353.76,122.4c-1.862-0.377-2.992-1.487-5.279-1.44   c-3.044,3.964-3.966,8.762-4.32,13.44c-1.01,13.306,3.659,19.218,6.24,28.32c4.138,14.593-2.334,34.345,7.199,45.6   c3.116,1.044,6.285,2.035,10.08,2.399c3.412-3.493,0.179-9.186-0.96-14.399c-1.96-8.98-2.574-17.575-0.96-24.48   c0.535-2.29,0.185-6.565,3.36-7.2c-1.362,7.391-3.092,13.056-2.4,21.6c0.332,4.103,1.139,9.842,2.4,13.92   c0.843,2.725,3.129,5.193,2.88,7.68c-0.265,2.643-3.033,3.881-4.32,6.24c-2.906,5.329-2.55,12.317-4.8,18.72   c-1.354,3.852-4.219,6.791-2.88,11.04c7.879,5.354,10.196-5.092,16.32-5.28c3.275-0.1,5.229,2.642,8.64,3.841   c4.903,1.723,10.042,1.101,15.36,0c-4.32-7.362-13.506-9.951-15.36-19.681c-2.91-15.27,0.307-30.589-1.92-46.08   c-1.717-11.943-6.502-23.384-9.6-34.08c-3.312-11.433-7.445-21.882-13.921-29.76c-0.026-0.292-0.071-0.568-0.479-0.48   C359.448,117.848,356.313,119.833,353.76,122.4z M230.88,122.88c1.637-0.14,5.492-1.478,6.24,0.48   c0.399,9.876-5.62,14.739-8.16,23.04c-1.787,5.839-3.732,12.17-4.32,19.2c-0.332,3.961,0.19,7.829-0.48,11.52   c-0.809,4.448-4.083,8.271-4.8,12.96c-1.414,9.241,1.429,21.473,1.92,32.64c0.914,20.78-0.206,40.775-10.56,49.44   c1.171,11.206,10.35,24.983,12,37.439c0.645,4.868-0.52,8.829,1.44,12.48c1.682,3.134,6.379,4.59,9.12,6.24   c5.471-4.46,13.381-9.271,14.88-17.761c0.396-2.246-1.1-6.004,0.96-8.159c3.065,4.59-0.77,12.906-0.96,15.84   c1.983,0.257,3.777,0.703,5.76,0.96c1.474-5.406,6.354-7.405,9.6-11.04c0.667-3.333-0.136-8.136,3.36-8.641   c-2.687,8.277,0.458,15.626,7.68,16.801c6.801-10.909,6.534-28.69,8.64-47.04c1.949-16.99,4.05-35.471,4.8-52.32   c0.319-7.162,1.04-13.792,0.48-20.64c-1.432-17.503-0.666-42.159-7.2-53.76c-4.26-7.564-14.273-13.833-20.16-20.16   c-1.809-1.945-3.622-6.046-6.24-6.72c-9.617-2.474-19.048,11.55-23.04,0C232.214,118.774,231.131,120.411,230.88,122.88z    M234.24,124.32c-0.106,0.374-0.402,0.558-0.96,0.48c-2.437,0.604-3.198,2.882-6.24,2.88c-2.983,4.289-7.275,8.913-9.12,14.4   c-1.405,4.178-0.909,8.585-2.4,13.44c-1.359,4.425-4.14,8.266-5.76,12.48c-4.924,12.806-8.83,30.025-8.16,47.04   c0.484,12.309,3.321,23.7,5.28,36c0.973,6.105-0.583,13.172,2.88,17.76c5.238-2.564,7.54-11.361,8.64-17.28   c2.343-12.602,0.52-32.271-0.48-46.079c-0.403-5.565-1.692-11.367-0.96-15.841c0.624-3.81,3.417-7.269,4.32-11.04   c1.276-5.33,0.63-11.076,1.44-16.8c2.003-14.151,9.732-25.614,12.48-36.96c-0.027-0.292-0.072-0.568-0.48-0.48   C234.56,124.32,234.4,124.32,234.24,124.32z M571.68,293.28c-1.038-12.065,4.392-23.906,3.36-35.04   c-0.177-1.909-1.096-3.761-1.44-5.76c-3.465-20.101-5.593-49.33-13.439-63.36c-0.235-4.035-3.084-6.818-4.32-10.561   c-1-3.025-0.915-6.352-1.92-9.6c-2.113-6.83-7.684-15.277-12.479-19.68c-2.516-2.309-5.423-2.97-8.16-5.28   c-1.93-1.627-2.997-5.088-5.761-5.76c-5.833-1.419-11.871,2.096-18.72,1.44c-2.787,8.348-11.797,13.138-14.88,22.08   c-3.832,11.116-4.548,29.982-5.28,43.2c-1.06,19.131-1.688,41.05,2.88,56.64c5.557,18.964,13.766,34.592,20.641,49.92   c2.555-1.444,4.16-3.84,7.68-4.319c1.685-3.245,4.783-7.198,8.641-6.72c1.358,2.641-0.662,8.661,1.439,10.56   c12.235-1.205,17.74-9.14,27.36-12.96c4.135,4.204,10.063,9.11,15.84,10.08C573.99,302.685,572.12,298.396,571.68,293.28z    M188.16,239.52c-7.625-0.09-17.193,0.156-22.56,1.44c12.352,1.251,25.155,3.999,36.96,0.96   C200.367,238.11,193.576,239.584,188.16,239.52z M493.92,309.12c-5.187-0.628-10.855-2.537-15.84-2.88   c-3.954-0.272-7.895,0.373-12,0c-4.257-0.388-8.703-1.645-12.96-1.92c-16.601-1.075-35.112,2.766-52.32,1.439   c-4.392-0.338-8.343-1.795-12.479-1.92c-6.895-0.207-13.62,1.953-20.641,1.92c-8.387-0.039-17.56-0.161-25.92-0.96   c-2.462-0.235-4.762-1.326-7.2-1.439c-4.445-0.208-9.517,0.989-14.399,0.96c-12.981-0.079-27.496-1.833-38.88,1.439   c-0.601,2.062-3.285,6.815-1.44,8.16c4.861,2.044,9.896,0.59,14.88,0.96c9.135,0.679,18.423,2.4,27.36,2.4   c5.657,0,11.194-1.166,16.8-0.96c4.555,0.167,9.018,1.194,13.44,1.439c7.874,0.437,15.792-0.669,24.479,0   c6.03,0.465,11.942,2.194,18.24,2.4c7.085,0.231,14.586-0.882,22.08-0.96c25.55-0.268,58.442-0.584,84.479-1.92   c2.739-0.141,6.907,1.222,9.12-1.92C510.883,306.547,499.824,309.835,493.92,309.12z M203.04,309.12   c5.331,0.175,13.447,2.291,16.8-0.96C215.929,306.57,206.902,307.528,203.04,309.12z"/>
</g>
<path fill-rule="evenodd" clip-rule="evenodd" fill="#FDBF57" d="M246.757,81.768c0,0-3.156,5.383-3.156,6.497s0,6.126,0,6.126  L246.757,81.768z"/>
<path fill-rule="evenodd" clip-rule="evenodd" fill="#FDBF57" d="M317.55,105.569c0,0,5.713,1.105,8.293,1.843  s8.846,3.317,8.846,3.317l-8.661-2.396L317.55,105.569z"/>
<path fill-rule="evenodd" clip-rule="evenodd" fill="#FDBF57" d="M491.646,117.2c0,0,5.758-0.654,9.423,0.131  s8.769,4.842,9.03,5.235s-5.497-3.01-8.376-3.403S491.646,117.2,491.646,117.2z"/>
</svg>