<?xml version="1.0" encoding="UTF-8" standalone="no"?>
<!-- Generator: Adobe Illustrator 12.0.0, SVG Export Plug-In . SVG Version: 6.00 Build 51448)  -->
<svg
   xmlns:dc="http://purl.org/dc/elements/1.1/"
   xmlns:cc="http://web.resource.org/cc/"
   xmlns:rdf="http://www.w3.org/1999/02/22-rdf-syntax-ns#"
   xmlns:svg="http://www.w3.org/2000/svg"
   xmlns="http://www.w3.org/2000/svg"
   xmlns:sodipodi="http://sodipodi.sourceforge.net/DTD/sodipodi-0.dtd"
   xmlns:inkscape="http://www.inkscape.org/namespaces/inkscape"
   version="1.1"
   id="Ebene_1"
   width="510"
   height="340"
   viewBox="0 0 510 340"
   overflow="visible"
   enable-background="new 0 0 510 340"
   xml:space="preserve"
   sodipodi:version="0.32"
   inkscape:version="0.45pre1"
   sodipodi:docname="Abruzzo_bandiera.svg"
   inkscape:output_extension="org.inkscape.output.svg.inkscape"
   sodipodi:docbase="C:\Documents and Settings\Flanker\Desktop"
   sodipodi:modified="true"><metadata
   id="metadata10"><rdf:RDF><cc:Work
       rdf:about=""><dc:format>image/svg+xml</dc:format><dc:type
         rdf:resource="http://purl.org/dc/dcmitype/StillImage" /></cc:Work></rdf:RDF></metadata><defs
   id="defs8" /><sodipodi:namedview
   inkscape:window-height="1005"
   inkscape:window-width="1280"
   inkscape:pageshadow="2"
   inkscape:pageopacity="0.0"
   guidetolerance="10.0"
   gridtolerance="10.0"
   objecttolerance="10.0"
   borderopacity="1.0"
   bordercolor="#666666"
   pagecolor="#ffffff"
   id="base"
   inkscape:zoom="2.2294118"
   inkscape:cx="288.02688"
   inkscape:cy="196.10541"
   inkscape:window-x="-4"
   inkscape:window-y="-4"
   inkscape:current-layer="Ebene_1" />
<rect
   id="Rot"
   x="0"
   fill="#EC1E3D"
   width="510"
   height="340" />


<path
   id="Blau"
   d="M 193.5876,262.50917 C 201.66458,262.50917 232.34363,262.50917 240.42061,262.50917 C 248.49759,262.50917 255,269.71556 255,271.00138 C 255,269.71756 261.50241,262.50917 269.57939,262.50917 C 277.65436,262.50917 308.33542,262.50917 316.4124,262.50917 C 324.48838,262.50917 330.99179,256.04809 330.99179,248.02245 L 330.99179,68.998622 L 179.00821,68.998622 C 179.00821,68.998622 179.00821,239.99581 179.00821,248.02245 C 179.00821,256.05009 185.51062,262.50917 193.5876,262.50917 z "
   style="fill:#4976bb;stroke:#f5dd06;stroke-width:3;stroke-linecap:round;stroke-linejoin:miter;stroke-miterlimit:4;stroke-dasharray:none" /><polyline
   style="fill:#ffffff"
   id="Weiss"
   points="180.979,180.738 180.979,70.789 295.545,70.789 "
   transform="matrix(1.005475,0,0,0.9990838,-1.4122126,-0.1879308)" /><path
   style="fill:#108541"
   id="Gruen"
   d="M 329.45743,70.442298 L 329.53687,151.08535 L 218.90747,260.93161 C 218.90747,260.93161 195.89215,260.93161 192.63541,260.93161 C 187.50246,260.93161 180.63909,255.61848 180.63909,249.27031 C 180.63909,239.47029 180.55966,180.21463 180.55966,180.21463 L 295.7509,70.536212" />
</svg>