<?xml version="1.0" encoding="UTF-8" standalone="no"?>
<!-- Created with Inkscape (http://www.inkscape.org/) -->
<svg
   xmlns:dc="http://purl.org/dc/elements/1.1/"
   xmlns:cc="http://web.resource.org/cc/"
   xmlns:rdf="http://www.w3.org/1999/02/22-rdf-syntax-ns#"
   xmlns:svg="http://www.w3.org/2000/svg"
   xmlns="http://www.w3.org/2000/svg"
   xmlns:sodipodi="http://sodipodi.sourceforge.net/DTD/sodipodi-0.dtd"
   xmlns:inkscape="http://www.inkscape.org/namespaces/inkscape"
   id="svg2"
   sodipodi:version="0.32"
   inkscape:version="0.45pre1"
   width="600"
   height="400"
   version="1.0"
   sodipodi:docbase="C:\Documents and Settings\Flanker\Desktop"
   sodipodi:docname="Flag of Molise.svg"
   inkscape:output_extension="org.inkscape.output.svg.inkscape"
   sodipodi:modified="true">
  <metadata
     id="metadata7">
    <rdf:RDF>
      <cc:Work
         rdf:about="">
        <dc:format>image/svg+xml</dc:format>
        <dc:type
           rdf:resource="http://purl.org/dc/dcmitype/StillImage" />
      </cc:Work>
    </rdf:RDF>
  </metadata>
  <defs
     id="defs5" />
  <sodipodi:namedview
     inkscape:window-height="1003"
     inkscape:window-width="1280"
     inkscape:pageshadow="2"
     inkscape:pageopacity="0.0"
     guidetolerance="10.0"
     gridtolerance="10.0"
     objecttolerance="10.0"
     borderopacity="1.0"
     bordercolor="#666666"
     pagecolor="#ffffff"
     id="base"
     inkscape:showpageshadow="false"
     inkscape:zoom="1.410678"
     inkscape:cx="364.05833"
     inkscape:cy="165.98647"
     inkscape:window-x="-4"
     inkscape:window-y="-4"
     inkscape:current-layer="svg2" />
  <rect
     style="fill:#0000ff;fill-opacity:1;fill-rule:nonzero;stroke:none;stroke-width:3;stroke-linecap:round;stroke-linejoin:miter;stroke-miterlimit:4;stroke-dasharray:none;stroke-dashoffset:0;stroke-opacity:1"
     id="rect2161"
     width="600"
     height="400"
     x="0"
     y="0" />
  <g
     id="g6058"
     transform="matrix(1.8518519,0,0,1.8518519,0.2452222,0)">
    <path
       sodipodi:nodetypes="cscc"
       id="path2163"
       d="M 109.14883,46.71875 C 109.14883,101.85042 131.08599,155.59375 161.86758,155.59375 C 192.64917,155.59375 214.58633,101.85042 214.58633,46.71875 L 109.14883,46.71875 z "
       style="fill:#ff0042;fill-opacity:1;fill-rule:evenodd;stroke:#ffffff;stroke-width:0.648;stroke-linecap:butt;stroke-linejoin:miter;stroke-miterlimit:4;stroke-dasharray:none;stroke-opacity:1" />
    <path
       id="rect5076"
       d="M 200.34004,46.71875 L 127.84004,129.4375 C 131.21403,135.46249 134.96398,140.64481 139.05879,144.78125 L 214.21504,58.96875 C 214.45198,54.908378 214.59004,50.815946 214.59004,46.71875 L 200.34004,46.71875 z "
       style="fill:#ffffff;fill-opacity:1;fill-rule:nonzero;stroke:none;stroke-width:1.20000005;stroke-linecap:round;stroke-linejoin:miter;stroke-miterlimit:4;stroke-dasharray:none;stroke-dashoffset:0;stroke-opacity:1" />
    <path
       transform="translate(14.347732,13.862965)"
       d="M 133.08008,67.539181 L 125.01028,64.1818 L 121.6781,72.262035 L 118.34592,64.1818 L 110.27612,67.539181 L 113.6335,59.469385 L 105.55327,56.137203 L 113.6335,52.805022 L 110.27612,44.735225 L 118.34592,48.092606 L 121.6781,40.012371 L 125.01028,48.092606 L 133.08008,44.735225 L 129.7227,52.805022 L 137.80293,56.137203 L 129.7227,59.469384 L 133.08008,67.539181 z "
       inkscape:randomized="0"
       inkscape:rounded="-3.469447e-018"
       inkscape:flatsided="false"
       sodipodi:arg2="1.1780972"
       sodipodi:arg1="0.78539816"
       sodipodi:r2="8.7074089"
       sodipodi:r1="16.124832"
       sodipodi:cy="56.137203"
       sodipodi:cx="121.6781"
       sodipodi:sides="8"
       id="path6054"
       style="opacity:1;fill:#ffffff;fill-opacity:1;fill-rule:nonzero;stroke:none;stroke-width:1.20000005;stroke-linecap:round;stroke-linejoin:miter;stroke-miterlimit:4;stroke-dasharray:none;stroke-dashoffset:0;stroke-opacity:1"
       sodipodi:type="star" />
  </g>
  <path
     id="text6065"
     d="M 209.3406,248.4323 L 222.91303,243.10221 L 225.17814,248.87004 C 225.74773,250.32047 226.03972,251.42223 226.05407,252.1753 C 226.0684,252.92838 225.84146,253.62482 225.37322,254.26465 C 224.90494,254.90447 224.26962,255.38193 223.46727,255.69704 C 222.44886,256.09697 221.49036,256.12788 220.59175,255.78977 C 219.69312,255.45162 218.92351,254.7209 218.2829,253.59754 C 218.16994,254.3258 217.98246,254.96401 217.72042,255.51217 C 217.45836,256.06032 216.9281,256.86875 216.12962,257.93749 L 214.1326,260.63454 L 212.84551,257.35715 L 215.02081,254.2161 C 215.7999,253.09799 216.27588,252.3554 216.44875,251.9883 C 216.62159,251.62121 216.70197,251.27262 216.6899,250.94254 C 216.67781,250.61247 216.54816,250.13264 216.30094,249.5031 L 216.08279,248.9476 L 210.41681,251.17271 L 209.3406,248.4323 z M 218.24918,248.09682 L 219.04544,250.12436 C 219.5617,251.43901 219.93962,252.23808 220.1792,252.52158 C 220.41875,252.80506 220.71068,252.98606 221.05497,253.06458 C 221.39925,253.1431 221.77507,253.10236 222.18244,252.9424 C 222.63916,252.76303 222.96009,252.49628 223.14518,252.14221 C 223.33025,251.78812 223.37257,251.37434 223.27212,250.90088 C 223.21572,250.66656 222.96936,249.99391 222.53309,248.88293 L 221.69322,246.7443 L 218.24918,248.09682 z M 217.47788,267.09354 L 229.92055,259.49088 L 235.55773,268.7168 L 233.45283,270.00293 L 229.35072,263.2893 L 226.59227,264.97475 L 230.40916,271.22156 L 228.31275,272.50251 L 224.49586,266.25569 L 221.10934,268.32491 L 225.35668,275.27617 L 223.26025,276.55712 L 217.47788,267.09354 z M 236.67166,284.46469 L 238.47025,282.79112 L 242.79307,287.43688 L 238.54051,291.39382 C 237.68351,291.34888 236.69012,291.05271 235.56035,290.5053 C 234.43055,289.9579 233.45686,289.24488 232.63927,288.36621 C 231.60034,287.24967 230.92892,286.0584 230.62496,284.7924 C 230.32099,283.52638 230.41047,282.27921 230.8934,281.05091 C 231.37631,279.82262 232.12992,278.73193 233.15423,277.77882 C 234.2659,276.74443 235.4706,276.05823 236.76835,275.72021 C 238.06609,275.38223 239.36336,275.44769 240.6602,275.91666 C 241.65147,276.2714 242.6214,276.95849 243.56999,277.97793 C 244.80314,279.30321 245.48847,280.59704 245.62603,281.8594 C 245.76353,283.12177 245.44136,284.31597 244.65953,285.44203 L 242.26701,283.67384 C 242.65125,283.03551 242.80197,282.36766 242.7192,281.67029 C 242.63638,280.97291 242.30588,280.31353 241.72772,279.69216 C 240.8514,278.75038 239.85609,278.27938 238.74179,278.27914 C 237.62747,278.2789 236.48294,278.82534 235.30816,279.91845 C 234.04112,281.0974 233.35284,282.26317 233.24333,283.41577 C 233.13377,284.56838 233.5036,285.60099 234.35283,286.51364 C 234.7729,286.9651 235.28272,287.33534 235.88225,287.62438 C 236.48177,287.9134 237.05909,288.10308 237.61416,288.19345 L 238.96857,286.93319 L 236.67166,284.46469 z M 243.5047,297.98397 L 252.30872,286.36029 L 254.65566,288.1379 L 245.85164,299.76158 L 243.5047,297.98397 z M 255.50442,297.92682 C 256.17514,296.60156 256.93629,295.5896 257.78785,294.89092 C 258.41903,294.37801 259.12375,293.98779 259.90203,293.72023 C 260.68029,293.45269 261.43849,293.34593 262.17664,293.39993 C 263.16085,293.46703 264.18248,293.76856 265.24153,294.30454 C 267.15842,295.27475 268.39129,296.64564 268.94018,298.41723 C 269.48903,300.18882 269.22748,302.13366 268.15549,304.25171 C 267.09248,306.35203 265.68985,307.70634 263.94762,308.31467 C 262.20538,308.92299 260.37877,308.74355 258.46779,307.77636 C 256.53312,306.79719 255.29357,305.42851 254.74909,303.67027 C 254.2046,301.91204 254.45638,299.99756 255.50442,297.92682 L 255.50442,297.92682 z M 258.25607,299.20801 C 257.51046,300.68119 257.28548,301.97008 257.58109,303.07469 C 257.87668,304.1793 258.54809,304.9966 259.59529,305.52662 C 260.64248,306.05662 261.69272,306.11438 262.74603,305.6999 C 263.79931,305.28543 264.70773,304.32386 265.47131,302.81517 C 266.22588,301.32425 266.46196,300.04653 266.17951,298.98203 C 265.89703,297.91751 265.21446,297.11127 264.13177,296.56329 C 263.04907,296.01532 261.98851,295.94492 260.95009,296.35204 C 259.91164,296.75917 259.01364,297.71117 258.25607,299.20801 L 258.25607,299.20801 z M 272.43725,313.36716 L 275.84686,299.18988 L 278.63203,299.85969 L 282.15753,310.72282 L 284.43448,301.25517 L 287.09392,301.89477 L 283.68431,316.07205 L 280.81211,315.38129 L 277.32016,304.76153 L 275.09672,314.00675 L 272.43725,313.36716 z M 292.42012,317.13227 L 292.65266,302.5526 L 303.46309,302.72503 L 303.42375,305.19143 L 295.55711,305.06597 L 295.50555,308.29816 L 302.82522,308.4149 L 302.78605,310.87136 L 295.46638,310.75462 L 295.40309,314.72277 L 303.54822,314.85266 L 303.50903,317.30914 L 292.42012,317.13227 z M 317.23288,315.68686 L 313.24342,301.66169 L 317.48159,300.45614 L 322.74772,309.29923 L 322.5425,299.01656 L 326.79024,297.8083 L 330.77968,311.83345 L 328.14877,312.58182 L 325.00837,301.54154 L 325.36479,313.37373 L 322.6382,314.1493 L 316.72338,303.89821 L 319.86379,314.93849 L 317.23288,315.68686 z M 334.63979,302.45049 C 333.90655,301.15875 333.48435,299.96495 333.37316,298.86908 C 333.29488,298.05956 333.3595,297.2566 333.567,296.46021 C 333.77448,295.66384 334.10483,294.97308 334.55805,294.38793 C 335.15824,293.60504 335.97446,292.92062 337.0067,292.33467 C 338.87511,291.27412 340.69911,291.00506 342.47868,291.52749 C 344.25824,292.04993 345.73396,293.3434 346.90583,295.40788 C 348.06785,297.45506 348.42053,299.37266 347.96388,301.16064 C 347.5072,302.94862 346.34755,304.37125 344.4849,305.42854 C 342.59918,306.49893 340.77331,306.77479 339.00731,306.25606 C 337.24129,305.73738 335.78546,304.46884 334.63979,302.45049 L 334.63979,302.45049 z M 337.22896,300.86643 C 338.04401,302.30234 338.99346,303.2026 340.07726,303.56717 C 341.16105,303.93177 342.21331,303.82438 343.23401,303.24499 C 344.25472,302.6656 344.88366,301.82253 345.12083,300.71573 C 345.358,299.60897 345.05924,298.32032 344.22453,296.84979 C 343.39964,295.3966 342.46564,294.4933 341.42253,294.13992 C 340.3794,293.78656 339.3302,293.9094 338.27488,294.50842 C 337.21957,295.10745 336.57438,295.95212 336.33931,297.04245 C 336.10426,298.1328 336.40079,299.40745 337.22896,300.86643 L 337.22896,300.86643 z M 356.88446,296.83436 L 347.30829,285.99688 L 349.51455,284.0474 L 357.46396,293.04386 L 362.94979,288.19649 L 364.57655,290.03753 L 356.88446,296.83436 z M 369.71405,284.32756 L 358.56844,274.92564 L 360.46679,272.67523 L 371.6124,282.07716 L 369.71405,284.32756 z M 372.37503,273.51417 L 373.65813,270.93793 C 374.5647,271.30169 375.34892,271.37967 376.01076,271.1719 C 376.67261,270.96412 377.2409,270.48077 377.71566,269.72184 C 378.21855,268.91795 378.42742,268.20584 378.34227,267.58551 C 378.25713,266.96517 377.98689,266.5126 377.53153,266.22773 C 377.2392,266.04488 376.93681,265.97499 376.62437,266.01808 C 376.31192,266.06119 375.94616,266.24888 375.52711,266.58117 C 375.24305,266.81019 374.64644,267.36382 373.73726,268.24204 C 372.56861,269.37253 371.57376,270.05638 370.75268,270.2936 C 369.59772,270.62701 368.53114,270.48775 367.55298,269.87584 C 366.92337,269.48199 366.44616,268.93512 366.12135,268.23527 C 365.79655,267.53541 365.70092,266.75993 365.83446,265.90878 C 365.96802,265.05766 366.33194,264.15706 366.92626,263.20699 C 367.89689,261.65543 368.96759,260.7003 370.13837,260.3416 C 371.30918,259.98291 372.47466,260.13908 373.63485,260.81008 L 372.18305,263.37465 C 371.481,263.0841 370.88094,263.02745 370.38287,263.20471 C 369.88481,263.38199 369.41598,263.82199 368.97639,264.52467 C 368.52274,265.24988 368.31653,265.91086 368.35774,266.5076 C 368.38361,266.8914 368.55674,267.18353 368.87716,267.38397 C 369.1695,267.56684 369.49703,267.59966 369.85976,267.48241 C 370.32092,267.3329 371.07464,266.74067 372.12096,265.70575 C 373.16727,264.67084 374.02559,263.95828 374.69596,263.5681 C 375.36631,263.17793 376.06998,262.98458 376.80694,262.98803 C 377.54392,262.99151 378.30311,263.23764 379.08452,263.72645 C 379.79283,264.16956 380.33311,264.7813 380.70531,265.56164 C 381.07752,266.34199 381.18894,267.18603 381.03955,268.09373 C 380.89018,269.00145 380.47965,269.99217 379.80796,271.0659 C 378.83031,272.62871 377.71831,273.60297 376.47194,273.98871 C 375.22557,274.37443 373.85994,274.21625 372.37503,273.51417 L 372.37503,273.51417 z M 386.37039,258.69686 L 372.92344,253.05767 L 377.10476,243.08712 L 379.37955,244.04108 L 376.33685,251.29656 L 379.31792,252.54673 L 382.14907,245.79575 L 384.41468,246.74586 L 381.58353,253.49686 L 385.24339,255.03167 L 388.39379,247.51936 L 390.65942,248.46949 L 386.37039,258.69686 z "
     style="font-size:12px;font-style:normal;font-weight:normal;fill:#ffde00;fill-opacity:1;stroke:none;stroke-width:1px;stroke-linecap:butt;stroke-linejoin:miter;stroke-opacity:1;font-family:Bitstream Vera Sans" />
</svg>
