<?xml version="1.0" encoding="UTF-8" standalone="no"?>
<!-- Created with Inkscape (http://www.inkscape.org/) -->
<svg
   xmlns:dc="http://purl.org/dc/elements/1.1/"
   xmlns:cc="http://web.resource.org/cc/"
   xmlns:rdf="http://www.w3.org/1999/02/22-rdf-syntax-ns#"
   xmlns:svg="http://www.w3.org/2000/svg"
   xmlns="http://www.w3.org/2000/svg"
   xmlns:sodipodi="http://sodipodi.sourceforge.net/DTD/sodipodi-0.dtd"
   xmlns:inkscape="http://www.inkscape.org/namespaces/inkscape"
   id="svg2"
   sodipodi:version="0.32"
   inkscape:version="0.45pre1"
   width="600"
   height="400"
   version="1.0"
   sodipodi:docbase="C:\Documents and Settings\Flanker\Desktop"
   sodipodi:docname="Flag of Calabria.svg"
   inkscape:output_extension="org.inkscape.output.svg.inkscape"
   sodipodi:modified="true">
  <metadata
     id="metadata7">
    <rdf:RDF>
      <cc:Work
         rdf:about="">
        <dc:format>image/svg+xml</dc:format>
        <dc:type
           rdf:resource="http://purl.org/dc/dcmitype/StillImage" />
      </cc:Work>
    </rdf:RDF>
  </metadata>
  <defs
     id="defs5">
			
		</defs>
  <sodipodi:namedview
     inkscape:window-height="1003"
     inkscape:window-width="1280"
     inkscape:pageshadow="2"
     inkscape:pageopacity="0.0"
     guidetolerance="10.0"
     gridtolerance="10.0"
     objecttolerance="10.0"
     borderopacity="1.0"
     bordercolor="#666666"
     pagecolor="#ffffff"
     id="base"
     inkscape:zoom="1.2091526"
     inkscape:cx="424.24442"
     inkscape:cy="127.38596"
     inkscape:window-x="171"
     inkscape:window-y="6"
     inkscape:current-layer="svg2" />
  <rect
     style="opacity:1;fill:#000099;fill-opacity:1;fill-rule:nonzero;stroke:none;stroke-width:3;stroke-linecap:round;stroke-linejoin:miter;stroke-miterlimit:4;stroke-dasharray:none;stroke-dashoffset:0;stroke-opacity:1"
     id="rect2254"
     width="600"
     height="400"
     x="0"
     y="0" />
  <g
     id="g3199"
     transform="translate(124.5178,0)">
    <path
       d="M 72.929627,85.182807 L 72.929627,291.22537 C 72.929627,301.10752 82.233036,309.03187 93.829612,309.03187 L 154.58222,309.03187 C 166.1788,309.03187 175.48221,316.95761 175.48221,326.83694 C 175.48221,316.95619 184.78396,309.03187 196.3822,309.03187 L 257.1348,309.03187 C 268.73304,309.03187 278.03645,301.10611 278.03645,291.22537 L 278.03645,85.182807 L 72.929627,85.182807 z "
       style="fill:#ffffff;fill-opacity:1;stroke:#dfdf43;stroke-width:3.05423856;stroke-opacity:1"
       id="CoA_Nr._2_1_" />
    <g
       id="wave"
       transform="matrix(1.6545275,0,0,2.1937831,71.275099,28.431837)">
			<path
   id="path1950"
   style="fill:none;stroke:#0058ff;stroke-width:4.69999981"
   d="M 123.966,63.21 L 123.966,63.21 C 117.548,63.21 117.439,65.566 111.77,65.566 C 106.1,65.566 105.99,63.21 99.573,63.21 C 93.156,63.21 93.045,65.566 87.376,65.566 C 81.708,65.566 81.597,63.21 75.18,63.21 L 75.179,63.21 C 68.763,63.21 68.652,65.566 62.983,65.566 C 57.314,65.566 57.204,63.21 50.787,63.21 L 50.786,63.21 C 44.369,63.21 44.259,65.566 38.59,65.566 C 32.921,65.566 32.811,63.21 26.393,63.21 L 26.392,63.21 C 19.975,63.21 19.865,65.566 14.196,65.566 C 8.527,65.566 8.417,63.21 2,63.21" />

			<path
   id="path1952"
   style="fill:none;stroke:#0058ff;stroke-width:4.69999981"
   d="M 123.966,70.58 L 123.966,70.58 C 117.548,70.58 117.439,72.936 111.77,72.936 C 106.1,72.936 105.99,70.58 99.573,70.58 C 93.156,70.58 93.045,72.936 87.376,72.936 C 81.708,72.936 81.597,70.58 75.18,70.58 L 75.179,70.58 C 68.763,70.58 68.652,72.936 62.983,72.936 C 57.314,72.936 57.204,70.58 50.787,70.58 L 50.786,70.58 C 44.369,70.58 44.259,72.936 38.59,72.936 C 32.921,72.936 32.811,70.58 26.393,70.58 L 26.392,70.58 C 19.975,70.58 19.865,72.936 14.196,72.936 C 8.527,72.937 8.417,70.58 2,70.58" />

			<path
   id="path1954"
   style="fill:none;stroke:#0058ff;stroke-width:4.69999981"
   d="M 123.966,77.95 L 123.966,77.95 C 117.548,77.95 117.439,80.306 111.77,80.306 C 106.1,80.306 105.99,77.95 99.573,77.95 C 93.156,77.95 93.045,80.306 87.376,80.306 C 81.708,80.306 81.597,77.95 75.18,77.95 L 75.179,77.95 C 68.763,77.95 68.652,80.306 62.983,80.306 C 57.314,80.306 57.204,77.95 50.787,77.95 L 50.786,77.95 C 44.369,77.95 44.259,80.306 38.59,80.306 C 32.921,80.306 32.811,77.95 26.393,77.95 L 26.392,77.95 C 19.975,77.95 19.865,80.306 14.196,80.306 C 8.527,80.307 8.417,77.95 2,77.95" />

			<path
   id="path1956"
   style="fill:none;stroke:#0058ff;stroke-width:4.69999981"
   d="M 123.966,85.32 L 123.966,85.32 C 117.548,85.32 117.439,87.676 111.77,87.676 C 106.1,87.676 105.99,85.32 99.573,85.32 C 93.156,85.32 93.045,87.676 87.376,87.676 C 81.708,87.676 81.597,85.32 75.18,85.32 L 75.179,85.32 C 68.763,85.32 68.652,87.676 62.983,87.676 C 57.314,87.676 57.204,85.32 50.787,85.32 L 50.786,85.32 C 44.369,85.32 44.259,87.676 38.59,87.676 C 32.921,87.676 32.811,85.32 26.393,85.32 L 26.392,85.32 C 19.975,85.32 19.865,87.676 14.196,87.676 C 8.527,87.677 8.417,85.32 2,85.32" />

		</g>
  </g>
</svg>
