<?xml version="1.0" encoding="UTF-8" standalone="no"?>
<!-- Created with Inkscape (http://www.inkscape.org/) -->
<svg
   xmlns:dc="http://purl.org/dc/elements/1.1/"
   xmlns:cc="http://web.resource.org/cc/"
   xmlns:rdf="http://www.w3.org/1999/02/22-rdf-syntax-ns#"
   xmlns:svg="http://www.w3.org/2000/svg"
   xmlns="http://www.w3.org/2000/svg"
   xmlns:sodipodi="http://sodipodi.sourceforge.net/DTD/sodipodi-0.dtd"
   xmlns:inkscape="http://www.inkscape.org/namespaces/inkscape"
   id="svg2"
   sodipodi:version="0.32"
   inkscape:version="0.45pre1"
   width="600"
   height="400"
   version="1.0"
   sodipodi:docbase="C:\Documents and Settings\Flanker\Desktop"
   sodipodi:docname="Flag_of_Calabria.svg"
   inkscape:output_extension="org.inkscape.output.svg.inkscape"
   sodipodi:modified="true">
  <metadata
     id="metadata7">
    <rdf:RDF>
      <cc:Work
         rdf:about="">
        <dc:format>image/svg+xml</dc:format>
        <dc:type
           rdf:resource="http://purl.org/dc/dcmitype/StillImage" />
      </cc:Work>
    </rdf:RDF>
  </metadata>
  <defs
     id="defs5" />
  <sodipodi:namedview
     inkscape:window-height="1003"
     inkscape:window-width="1280"
     inkscape:pageshadow="2"
     inkscape:pageopacity="0.0"
     guidetolerance="10.0"
     gridtolerance="10.0"
     objecttolerance="10.0"
     borderopacity="1.0"
     bordercolor="#666666"
     pagecolor="#ffffff"
     id="base"
     inkscape:zoom="1.2091526"
     inkscape:cx="134.16722"
     inkscape:cy="174.74965"
     inkscape:window-x="210"
     inkscape:window-y="1"
     inkscape:current-layer="svg2" />
  <rect
     style="opacity:1;fill:#005aab;fill-opacity:1;fill-rule:nonzero;stroke:none;stroke-width:3;stroke-linecap:round;stroke-linejoin:miter;stroke-miterlimit:4;stroke-dasharray:none;stroke-dashoffset:0;stroke-opacity:1"
     id="rect2254"
     width="600"
     height="400"
     x="0"
     y="0" />
  <ellipse
     style="fill:#cecece"
     sodipodi:ry="107.75"
     sodipodi:rx="96.25"
     sodipodi:cy="107.75"
     sodipodi:cx="96.25"
     cx="96.25"
     cy="107.75"
     rx="96.25"
     ry="107.75"
     id="ellipse2163"
     transform="matrix(0.9172541,0,0,0.9172541,211.71429,101.16587)" />
  <path
     style="fill:#cea518"
     d="M 237.36068,259.66809 C 252.4461,279.49655 274.91166,292.07207 300,292.07207 C 325.09102,292.07207 347.55748,279.49476 362.6429,259.66362 L 237.3571,140.33593 C 252.44297,120.50524 274.90942,107.92748 300,107.92748 C 325.08833,107.92748 347.55389,120.50345 362.63932,140.3319 L 237.36068,259.66809 z "
     id="path2165" />
  <polygon
     style="fill:#4aad42"
     points="82.083008,90.488281 82.083008,88.946289 94.125,88.946289 94.125,53.071289 83.0625,49.258789 89.375,33.383789 83.833008,33.737793 96,1.5712891 108.16699,33.737793 102.625,33.383789 108.9375,49.258789 97.875,53.071289 97.875,88.946289 109.91699,88.946289 109.91699,90.488281 82.083008,90.488281 "
     id="polygon2167"
     transform="matrix(0.9172541,0,0,0.9172541,211.71429,101.16587)" />
  <polyline
     style="fill:none;stroke:#52ad42;stroke-width:1.09021032"
     points="106.75,57.3837891 96,61.0712891 85.25,57.3837891 "
     id="polyline2169"
     transform="matrix(0.9172541,0,0,0.9172541,211.71429,101.16587)" />
  <polyline
     style="fill:none;stroke:#52ad42;stroke-width:1.09021032"
     points="106.75,54.3837891 96,58.0712891 85.25,54.3837891 "
     id="polyline2171"
     transform="matrix(0.9172541,0,0,0.9172541,211.71429,101.16587)" />
  <rect
     style="fill:#1fc2ff"
     x="269.5976"
     y="236.52625"
     width="58.493313"
     height="6.5354357"
     id="rect2173" />
  <path
     style="fill:#1fc2ff"
     d="M 285.53488,257.90973 C 285.53488,257.90973 280.318,257.90973 277.16494,254.75667 C 274.01188,251.60361 274.06921,246.15741 274.06921,246.15741 L 323.61929,246.15741 C 323.61929,246.15741 323.67662,251.60361 320.52356,254.75667 C 317.3705,257.90973 312.15361,257.90973 312.15361,257.90973 L 285.53488,257.90973 z "
     id="path2175" />
  <path
     style="fill:#1fc2ff"
     d="M 284.23469,260.90962 L 313.45335,260.90962 L 313.45335,288.42724 C 313.45335,288.42724 313.30018,290.12828 311.29369,290.12828 L 305.33154,290.12828 C 305.33154,290.12828 299.54137,288.52308 295.98701,283.47819 C 292.43265,278.43329 284.8653,278.2613 284.23469,278.2613 L 284.23469,260.90962 z "
     id="path2177" />
  <line
     style="fill:none;stroke:#cea518;stroke-width:0.99999988"
     x1="289.22226"
     y1="265.99393"
     x2="289.22226"
     y2="282.50449"
     id="line2179" />
  <line
     style="fill:none;stroke:#cea518;stroke-width:0.99999988"
     x1="295.64304"
     y1="265.99393"
     x2="295.64304"
     y2="286.47986"
     id="line2181" />
  <line
     style="fill:none;stroke:#cea518;stroke-width:0.99999988"
     x1="302.06381"
     y1="265.99393"
     x2="302.06381"
     y2="290.14798"
     id="line2183" />
  <line
     style="fill:none;stroke:#cea518;stroke-width:0.99999988"
     x1="308.48459"
     y1="265.99393"
     x2="308.48459"
     y2="291.37158"
     id="line2185" />
  <polygon
     points="34.833008,84.738281 48.133301,84.738281 42.558594,111.40527 48.133301,138.73828 34.833008,138.73828 40.437988,111.40527 34.833008,84.738281 "
     id="polygon2187"
     transform="matrix(0.9172541,0,0,0.9172541,211.71429,101.16587)" />
  <circle
     sodipodi:ry="2.166748"
     sodipodi:rx="2.166748"
     sodipodi:cy="82.724121"
     sodipodi:cx="34.047119"
     cx="34.047119"
     cy="82.724121"
     r="2.166748"
     id="circle2189"
     transform="matrix(0.9172541,0,0,0.9172541,211.71429,101.16587)" />
  <circle
     sodipodi:ry="2.166748"
     sodipodi:rx="2.166748"
     sodipodi:cy="82.724121"
     sodipodi:cx="49.125244"
     cx="49.125244"
     cy="82.724121"
     r="2.166748"
     id="circle2191"
     transform="matrix(0.9172541,0,0,0.9172541,211.71429,101.16587)" />
  <circle
     sodipodi:ry="2.166748"
     sodipodi:rx="2.166748"
     sodipodi:cy="140.78027"
     sodipodi:cx="34.047119"
     cx="34.047119"
     cy="140.78027"
     r="2.166748"
     id="circle2193"
     transform="matrix(0.9172541,0,0,0.9172541,211.71429,101.16587)" />
  <circle
     sodipodi:ry="2.166748"
     sodipodi:rx="2.166748"
     sodipodi:cy="140.78027"
     sodipodi:cx="49.125244"
     cx="49.125244"
     cy="140.78027"
     r="2.166748"
     id="circle2195"
     transform="matrix(0.9172541,0,0,0.9172541,211.71429,101.16587)" />
  <polygon
     points="14.469727,118.49121 14.469727,105.19141 41.136719,110.76563 68.469238,105.19092 68.469238,118.49121 41.136719,112.88672 14.469727,118.49121 "
     id="polygon2197"
     transform="matrix(0.9172541,0,0,0.9172541,211.71429,101.16587)" />
  <circle
     sodipodi:ry="2.1669922"
     sodipodi:rx="2.1669922"
     sodipodi:cy="119.27734"
     sodipodi:cx="12.455566"
     cx="12.455566"
     cy="119.27734"
     r="2.1669922"
     id="circle2199"
     transform="matrix(0.9172541,0,0,0.9172541,211.71429,101.16587)" />
  <circle
     sodipodi:ry="2.1669922"
     sodipodi:rx="2.1669922"
     sodipodi:cy="104.19922"
     sodipodi:cx="12.455566"
     cx="12.455566"
     cy="104.19922"
     r="2.1669922"
     id="circle2201"
     transform="matrix(0.9172541,0,0,0.9172541,211.71429,101.16587)" />
  <circle
     sodipodi:ry="2.1669922"
     sodipodi:rx="2.1669922"
     sodipodi:cy="119.27734"
     sodipodi:cx="70.51123"
     cx="70.51123"
     cy="119.27734"
     r="2.1669922"
     id="circle2203"
     transform="matrix(0.9172541,0,0,0.9172541,211.71429,101.16587)" />
  <circle
     sodipodi:ry="2.166748"
     sodipodi:rx="2.166748"
     sodipodi:cy="104.19897"
     sodipodi:cx="70.51123"
     cx="70.51123"
     cy="104.19897"
     r="2.166748"
     id="circle2205"
     transform="matrix(0.9172541,0,0,0.9172541,211.71429,101.16587)" />
  <rect
     x="344.17151"
     y="174.72624"
     width="8.4846001"
     height="56.181812"
     id="rect2207" />
  <rect
     x="320.32291"
     y="198.57484"
     width="56.181812"
     height="8.4846001"
     id="rect2209" />
  <rect
     x="341.13312"
     y="178.39526"
     width="14.561409"
     height="6.6500921"
     id="rect2211" />
  <rect
     x="341.13312"
     y="220.58894"
     width="14.561409"
     height="6.6500921"
     id="rect2213" />
  <rect
     x="323.99191"
     y="195.53645"
     width="6.6500921"
     height="14.561409"
     id="rect2215" />
  <rect
     x="366.18561"
     y="195.53645"
     width="6.6500921"
     height="14.561409"
     id="rect2217" />
  <path
     style="font-size:28.42847443px;font-style:normal;font-weight:normal;fill:#ffffff;fill-opacity:1;stroke:none;stroke-width:1px;stroke-linecap:butt;stroke-linejoin:miter;stroke-opacity:1;font-family:Bitstream Vera Sans"
     d="M 184.03622,52.832153 L 203.90846,52.832153 C 205.18704,52.832193 206.58503,52.954723 208.10244,53.199742 C 209.61979,53.444833 210.99081,53.983953 212.21552,54.817112 C 213.44017,55.650333 214.39143,56.704072 215.06927,57.978332 C 215.74706,59.252652 216.08596,60.690312 216.086,62.291313 C 216.08596,64.888932 215.21174,66.992323 213.46331,68.601504 C 211.71484,70.210721 209.64674,71.260376 207.25902,71.750473 L 213.8908,79.935342 L 214.1681,80.302926 C 214.59939,80.85839 214.99222,81.270901 215.34656,81.540458 C 215.70083,81.810024 216.05515,82.001984 216.40949,82.116339 C 216.76376,82.230703 217.25672,82.287883 217.88836,82.287877 L 219.2748,82.287877 L 219.2748,87.017459 L 208.94585,87.017459 L 198.5938,72.289597 L 195.91335,72.289597 L 195.91335,79.10215 C 195.91335,80.278427 195.97496,81.025846 196.09821,81.344412 C 196.22144,81.66299 196.41786,81.899878 196.68745,82.055076 C 196.95702,82.210281 197.50003,82.287883 198.31651,82.287877 L 199.79538,82.287877 L 199.79538,87.017459 L 184.03622,87.017459 L 184.03622,82.287877 L 185.46887,82.287877 C 186.22371,82.287883 186.75903,82.202113 187.07484,82.030569 C 187.39062,81.859035 187.62555,81.601727 187.7796,81.258642 C 187.85663,81.062604 187.89513,80.449965 187.89513,79.420724 L 187.89513,60.183832 C 187.89513,59.432352 187.83737,58.897323 187.72184,58.578712 C 187.60629,58.260172 187.41759,58.051873 187.1557,57.953823 C 186.78598,57.774142 186.36235,57.684292 185.88481,57.684263 L 185.2378,57.708772 L 184.03622,57.708772 L 184.03622,52.832153 z M 195.91335,58.443933 L 195.91335,67.290456 L 200.69656,67.290456 C 202.57592,67.290475 203.98161,67.106684 204.91363,66.739082 C 205.84561,66.371512 206.54651,65.844642 207.0164,65.158473 C 207.48621,64.472332 207.72115,63.639142 207.72116,62.658902 C 207.72115,61.760382 207.50163,60.988462 207.06261,60.343122 C 206.62354,59.697832 205.99966,59.219972 205.19092,58.909543 C 204.38214,58.599162 203.06119,58.443962 201.22802,58.443933 L 195.91335,58.443933 z M 221.00784,52.832153 L 247.90469,52.832153 L 251.57874,63.639122 L 247.39632,65.231983 C 246.68767,63.467602 245.85967,62.046282 244.9123,60.968013 C 243.96488,59.889792 242.91734,59.175052 241.76971,58.823772 C 240.62203,58.472552 239.28566,58.296932 237.7606,58.296903 L 232.83876,58.296903 L 232.83876,66.824852 L 234.45625,66.824852 C 235.67322,66.824872 236.49353,66.730932 236.91718,66.543032 C 237.34079,66.355182 237.64504,66.061112 237.82992,65.660832 C 238.01476,65.260593 238.10718,64.464163 238.10721,63.271542 L 238.10721,61.972742 L 242.2203,61.972742 L 242.2203,76.431042 L 238.10721,76.431042 L 238.10721,74.960706 C 238.10718,73.964158 237.9955,73.237158 237.77215,72.779708 C 237.54875,72.322285 237.24452,72.011882 236.85942,71.848496 C 236.47427,71.685142 235.6193,71.603454 234.29452,71.60344 L 232.83876,71.60344 L 232.83876,79.44523 C 232.83874,80.278427 232.87724,80.784875 232.95428,80.964575 C 233.03129,81.144289 233.18149,81.283155 233.40487,81.381171 C 233.62824,81.479198 234.10964,81.528211 234.84908,81.528205 L 237.55263,81.528205 C 239.57065,81.528211 241.27288,81.221891 242.65934,80.609246 C 244.04575,79.996612 245.28199,79.00822 246.36806,77.64407 C 247.45406,76.279935 248.28977,74.658482 248.87518,72.779708 L 253.10381,74.323561 L 248.87518,87.017459 L 221.00784,87.017459 L 221.00784,82.287877 L 221.8166,82.287877 C 222.89493,82.287883 223.61895,82.206198 223.98867,82.042822 C 224.35838,81.879458 224.62026,81.593559 224.77433,81.185126 C 224.85133,80.940078 224.88985,80.245753 224.88985,79.10215 L 224.88985,60.477902 C 224.88985,59.465032 224.82438,58.803382 224.69344,58.492953 C 224.5625,58.182572 224.35838,57.949772 224.0811,57.794542 C 223.80381,57.639362 223.25694,57.561763 222.44049,57.561732 L 221.00784,57.561732 L 221.00784,52.832153 z M 274.0852,68.785297 L 289.82125,68.785297 L 289.82125,73.563887 L 288.64278,73.563887 C 287.87251,73.563899 287.34489,73.637417 287.05994,73.784438 C 286.77491,73.931484 286.56309,74.164288 286.42449,74.482847 C 286.2858,74.801432 286.21649,75.409987 286.21652,76.308514 L 286.21652,87.017459 L 281.47952,87.017459 L 280.25485,84.566898 C 278.80677,85.579797 277.3048,86.33947 275.74892,86.845918 C 274.19302,87.352368 272.57551,87.605593 270.8964,87.605593 C 267.95407,87.605593 265.27362,86.845918 262.85507,85.326572 C 260.43651,83.807228 258.52247,81.683413 257.11292,78.955118 C 255.70339,76.226839 254.99861,73.171811 254.99861,69.790026 C 254.99861,66.440952 255.69568,63.443102 257.08982,60.796472 C 258.48395,58.149902 260.43266,56.062843 262.93596,54.535292 C 265.43924,53.007813 268.15433,52.244052 271.08126,52.244023 C 272.49848,52.244052 273.91188,52.436013 275.32144,52.819902 C 276.73097,53.203852 277.93638,53.714393 278.93772,54.351502 L 279.79269,52.832153 L 283.02772,52.832153 L 285.93922,64.153742 L 281.68749,65.624072 C 280.23942,63.140862 279.0956,61.449982 278.25606,60.551423 C 277.41648,59.652902 276.45367,58.950412 275.36767,58.443933 C 274.2816,57.937512 273.22252,57.684292 272.19042,57.684263 C 270.72694,57.684292 269.35975,58.133562 268.08887,59.032072 C 266.81796,59.930633 265.8128,61.241682 265.07338,62.965222 C 264.33394,64.688802 263.96422,66.775863 263.96423,69.226397 C 263.96422,71.922027 264.3686,74.258225 265.17735,76.234997 C 265.98609,78.211789 267.04518,79.678039 268.3546,80.633752 C 269.664,81.589473 271.10435,82.067332 272.67567,82.067327 C 273.7848,82.067332 274.83618,81.830446 275.82981,81.356667 C 276.82339,80.882897 277.50505,80.351943 277.87479,79.763802 C 278.24449,79.175675 278.42934,78.38333 278.42937,77.386759 L 278.42937,76.136973 C 278.42934,75.271122 278.37544,74.72383 278.26762,74.495099 C 278.09814,74.16837 277.87093,73.931484 277.58596,73.784438 C 277.30095,73.637417 276.74252,73.563899 275.91068,73.563887 L 274.0852,73.563887 L 274.0852,68.785297 z M 291.80847,52.832153 L 307.52142,52.832153 L 307.52142,57.561732 L 306.08877,57.561732 C 305.25689,57.561763 304.70617,57.639362 304.43659,57.794542 C 304.167,57.949772 303.96673,58.194823 303.8358,58.529702 C 303.70484,58.864643 303.63937,59.505872 303.63939,60.453392 L 303.63939,79.371712 C 303.63937,80.400954 303.69329,81.062604 303.80114,81.356667 C 303.90896,81.650739 304.09382,81.86312 304.35572,81.99381 C 304.6792,82.189861 305.16446,82.287883 305.81148,82.287877 L 307.52142,82.287877 L 307.52142,87.017459 L 291.80847,87.017459 L 291.80847,82.287877 L 293.07937,82.287877 C 293.98826,82.287883 294.58134,82.218451 294.85864,82.07958 C 295.13592,81.94072 295.34002,81.720171 295.47098,81.41793 C 295.60191,81.115701 295.66738,80.515312 295.6674,79.616768 L 295.6674,60.624933 C 295.66738,59.563052 295.60191,58.864643 295.47098,58.529702 C 295.34002,58.194823 295.12051,57.937512 294.81243,57.757782 C 294.59676,57.627112 294.07299,57.561763 293.24112,57.561732 L 291.80847,57.561732 L 291.80847,52.832153 z M 328.2024,52.244023 C 333.31678,52.244052 337.45683,53.894103 340.62256,57.194153 C 343.78822,60.494262 345.37106,64.733733 345.3711,69.912554 C 345.37106,73.392361 344.64704,76.480064 343.19902,79.175669 C 341.75093,81.87129 339.75214,83.950178 337.20269,85.41234 C 334.65315,86.874508 331.57605,87.605593 327.97133,87.605593 C 323.21123,87.605593 319.3138,86.216943 316.27906,83.439642 C 312.61271,80.09055 310.77954,75.614199 310.77954,70.010576 C 310.77954,64.799072 312.38548,60.535102 315.5974,57.218652 C 318.80929,53.902263 323.01095,52.244052 328.2024,52.244023 L 328.2024,52.244023 z M 328.29483,57.684263 C 325.84545,57.684292 323.89673,58.656342 322.4487,60.600432 C 320.63091,63.051012 319.72202,66.212232 319.72204,70.084093 C 319.72202,73.95599 320.5693,77.019185 322.26384,79.273691 C 323.72729,81.20147 325.66059,82.165357 328.06375,82.165351 C 330.4823,82.165357 332.4156,81.20147 333.86369,79.273691 C 335.57359,76.970174 336.42856,73.890642 336.42859,70.035083 C 336.42856,67.32315 336.0627,65.044133 335.331,63.198022 C 334.59923,61.351962 333.60948,59.971482 332.36172,59.056573 C 331.11389,58.141733 329.75828,57.684292 328.29483,57.684263 L 328.29483,57.684263 z M 348.83719,52.832153 L 361.93901,52.832153 L 371.38987,72.779708 L 371.38987,60.575922 C 371.38985,59.530383 371.33593,58.876892 371.22811,58.615472 C 371.07405,58.223412 370.86609,57.949772 370.60422,57.794542 C 370.34232,57.639362 369.83396,57.561763 369.07914,57.561732 L 367.50786,57.561732 L 367.50786,52.832153 L 380.81764,52.832153 L 380.81764,57.561732 L 379.33877,57.561732 C 378.5993,57.561763 378.07169,57.651612 377.75592,57.831293 C 377.4401,58.011032 377.22058,58.256092 377.09736,58.566463 C 376.97409,58.876892 376.91247,59.546712 376.9125,60.575922 L 376.9125,87.017459 L 370.28072,87.017459 L 358.31116,61.825712 L 358.31116,79.44523 C 358.31116,80.458134 358.36892,81.103446 358.48447,81.381171 C 358.59999,81.658907 358.80796,81.879458 359.10836,82.042822 C 359.40875,82.206198 359.92866,82.287883 360.66811,82.287877 L 362.21629,82.287877 L 362.21629,87.017459 L 348.83719,87.017459 L 348.83719,82.287877 L 350.22362,82.287877 C 350.99386,82.287883 351.52147,82.218451 351.80648,82.07958 C 352.09145,81.94072 352.31867,81.699749 352.48814,81.356667 C 352.65758,81.013593 352.74231,80.498976 352.74231,79.812813 L 352.74231,60.208343 C 352.74231,59.456863 352.66529,58.905482 352.51124,58.554212 C 352.3572,58.202992 352.14923,57.949772 351.88735,57.794542 C 351.62546,57.639362 351.18643,57.561763 350.57024,57.561732 L 348.83719,57.561732 L 348.83719,52.832153 z M 383.86779,52.832153 L 410.76464,52.832153 L 414.43869,63.639122 L 410.25627,65.231983 C 409.54762,63.467602 408.71962,62.046282 407.77225,60.968013 C 406.82483,59.889792 405.77729,59.175052 404.62966,58.823772 C 403.48198,58.472552 402.14561,58.296932 400.62055,58.296903 L 395.69871,58.296903 L 395.69871,66.824852 L 397.31621,66.824852 C 398.53317,66.824872 399.35348,66.730932 399.77713,66.543032 C 400.20076,66.355182 400.50499,66.061112 400.68987,65.660832 C 400.87471,65.260593 400.96713,64.464163 400.96716,63.271542 L 400.96716,61.972742 L 405.08025,61.972742 L 405.08025,76.431042 L 400.96716,76.431042 L 400.96716,74.960706 C 400.96713,73.964158 400.85545,73.237158 400.6321,72.779708 C 400.40872,72.322285 400.10447,72.011882 399.71937,71.848496 C 399.33424,71.685142 398.47927,71.603454 397.15447,71.60344 L 395.69871,71.60344 L 395.69871,79.44523 C 395.69869,80.278427 395.73719,80.784875 395.81424,80.964575 C 395.89124,81.144289 396.04144,81.283155 396.26482,81.381171 C 396.48819,81.479198 396.96959,81.528211 397.70903,81.528205 L 400.41258,81.528205 C 402.4306,81.528211 404.13283,81.221891 405.51929,80.609246 C 406.9057,79.996612 408.14194,79.00822 409.22801,77.64407 C 410.31401,76.279935 411.14972,74.658482 411.73513,72.779708 L 415.96376,74.323561 L 411.73513,87.017459 L 383.86779,87.017459 L 383.86779,82.287877 L 384.67655,82.287877 C 385.75488,82.287883 386.4789,82.206198 386.84862,82.042822 C 387.21833,81.879458 387.48021,81.593559 387.63428,81.185126 C 387.71128,80.940078 387.7498,80.245753 387.7498,79.10215 L 387.7498,60.477902 C 387.7498,59.465032 387.68433,58.803382 387.55339,58.492953 C 387.42245,58.182572 387.21833,57.949772 386.94105,57.794542 C 386.66376,57.639362 386.11689,57.561763 385.30044,57.561732 L 383.86779,57.561732 L 383.86779,52.832153 z "
     id="text2256" />
  <path
     style="font-size:27.74912453px;font-style:normal;font-weight:normal;fill:#ffffff;fill-opacity:1;stroke:none;stroke-width:1px;stroke-linecap:butt;stroke-linejoin:miter;stroke-opacity:1;font-family:Bitstream Vera Sans"
     d="M 201.91838,312.98255 L 205.04468,312.98255 L 208.06087,325.25986 L 203.96589,326.58315 C 202.60086,323.65884 201.31659,321.58403 200.11308,320.35873 C 198.43983,318.67605 196.62716,317.83468 194.6751,317.83466 C 193.25138,317.83468 191.91941,318.27579 190.67919,319.15795 C 189.43893,320.04018 188.45554,321.33898 187.72903,323.05434 C 187.00248,324.76976 186.63922,326.77922 186.63924,329.08272 C 186.63922,332.5952 187.47217,335.61755 189.13806,338.14979 C 190.80393,340.68203 192.98718,341.94817 195.68784,341.94815 C 197.40507,341.94817 199.05627,341.40087 200.64145,340.30628 C 202.62288,338.95032 204.33279,337.12874 205.77121,334.84153 L 209.18369,337.65968 C 206.96738,341.02513 204.9419,343.36949 203.10725,344.69278 C 200.27449,346.73492 197.11887,347.75598 193.64035,347.75598 C 190.74888,347.75598 188.13265,346.98406 185.79162,345.44021 C 183.45056,343.89636 181.58286,341.73579 180.18852,338.95848 C 178.79417,336.18119 178.097,333.15066 178.097,329.8669 C 178.097,326.59951 178.77582,323.62208 180.13349,320.93461 C 181.49114,318.24719 183.34048,316.15197 185.68154,314.64894 C 188.02256,313.14596 190.63146,312.39444 193.50824,312.39441 C 196.42903,312.39444 198.99022,313.08061 201.19185,314.45288 L 201.91838,312.98255 z M 222.74558,312.98255 L 229.63662,312.98255 L 238.86136,339.37508 C 239.36036,340.78006 239.80436,341.64593 240.19334,341.97266 C 240.58225,342.29941 241.29777,342.45462 242.3399,342.43827 L 242.3399,347.16785 L 227.80929,347.16785 L 227.80929,342.43827 L 228.68994,342.41376 C 229.49716,342.41376 230.06224,342.29532 230.38517,342.05843 C 230.70805,341.82155 230.8695,341.53158 230.86952,341.18848 C 230.8695,340.89442 230.73007,340.28996 230.45122,339.37508 L 229.54856,336.26287 L 220.19173,336.26287 L 219.04689,339.71815 C 218.81205,340.45332 218.69462,340.93528 218.69464,341.16398 C 218.69462,341.42537 218.77902,341.66227 218.94782,341.87463 C 219.1166,342.08704 219.39181,342.24223 219.77342,342.34024 C 220.02292,342.40561 220.71277,342.43827 221.84293,342.43827 L 221.84293,347.16785 L 209.95426,347.16785 L 209.95426,342.43827 C 210.71748,342.43827 211.27522,342.36475 211.62748,342.21773 C 211.97973,342.07069 212.26961,341.85015 212.49711,341.55606 C 212.72461,341.262 212.9778,340.71472 213.25666,339.91419 L 222.74558,312.98255 z M 221.7989,331.38625 L 227.94139,331.38625 L 224.9472,321.9761 L 221.7989,331.38625 z M 244.21125,312.98255 L 259.22622,312.98255 L 259.22622,317.71213 L 257.90526,317.71213 C 257.17137,317.71215 256.70904,317.75301 256.51825,317.83466 C 256.16598,317.99805 255.90912,318.24719 255.74768,318.58207 C 255.58622,318.91701 255.5055,319.45205 255.50551,320.1872 L 255.50551,339.71815 C 255.5055,340.50233 255.53851,340.98427 255.60458,341.16398 C 255.67062,341.3437 255.80637,341.48665 256.01187,341.59283 C 256.21734,341.69902 256.61363,341.75212 257.20075,341.75212 C 259.1675,341.75212 260.74897,341.46621 261.94521,340.89442 C 263.1414,340.32263 264.22018,339.40367 265.18157,338.13753 C 266.14292,336.87143 266.96852,335.15196 267.65837,332.97911 L 271.70934,334.52296 L 267.65837,347.16785 L 244.21125,347.16785 L 244.21125,342.43827 L 245.68633,342.43827 C 246.2881,342.43827 246.7431,342.34842 247.05133,342.16871 C 247.35955,341.98901 247.58338,341.74803 247.72282,341.44579 C 247.86225,341.14356 247.93198,340.61669 247.93198,339.86519 L 247.93198,320.50577 C 247.93198,319.68895 247.86225,319.1008 247.72282,318.74136 C 247.58338,318.38197 247.38524,318.12059 247.12839,317.95718 C 246.87153,317.79384 246.44222,317.71215 245.84045,317.71213 L 244.21125,317.71213 L 244.21125,312.98255 z M 284.12641,312.98255 L 291.01743,312.98255 L 300.24217,339.37508 C 300.74117,340.78006 301.18516,341.64593 301.57414,341.97266 C 301.96306,342.29941 302.67859,342.45462 303.72072,342.43827 L 303.72072,347.16785 L 289.19011,347.16785 L 289.19011,342.43827 L 290.07074,342.41376 C 290.87798,342.41376 291.44307,342.29532 291.76598,342.05843 C 292.08886,341.82155 292.25032,341.53158 292.25034,341.18848 C 292.25032,340.89442 292.11087,340.28996 291.83203,339.37508 L 290.92938,336.26287 L 281.57254,336.26287 L 280.4277,339.71815 C 280.19286,340.45332 280.07544,340.93528 280.07544,341.16398 C 280.07544,341.42537 280.15984,341.66227 280.32863,341.87463 C 280.49741,342.08704 280.77261,342.24223 281.15423,342.34024 C 281.40375,342.40561 282.09357,342.43827 283.22376,342.43827 L 283.22376,347.16785 L 271.33507,347.16785 L 271.33507,342.43827 C 272.09829,342.43827 272.65603,342.36475 273.00828,342.21773 C 273.36054,342.07069 273.65042,341.85015 273.87792,341.55606 C 274.10542,341.262 274.3586,340.71472 274.63748,339.91419 L 284.12641,312.98255 z M 283.17972,331.38625 L 289.3222,331.38625 L 286.32802,321.9761 L 283.17972,331.38625 z M 305.52602,317.71213 L 305.52602,312.98255 L 322.98478,312.98255 C 325.65604,312.98259 327.75489,313.32975 329.28137,314.02404 C 330.8078,314.71839 331.98198,315.71495 332.80394,317.01372 C 333.62585,318.31254 334.03682,319.73796 334.03685,321.28995 C 334.03682,322.41722 333.82032,323.48731 333.38737,324.50018 C 332.95436,325.5131 332.33056,326.40755 331.516,327.18353 C 330.70138,327.95957 329.62627,328.6008 328.29065,329.10723 C 329.72901,329.51567 330.82981,329.96495 331.59305,330.45503 C 332.69384,331.14122 333.56713,332.10101 334.21297,333.33445 C 334.85874,334.56791 335.18164,335.9443 335.18167,337.46364 C 335.18164,339.27705 334.68995,340.94752 333.70659,342.47502 C 332.72318,344.00254 331.3325,345.16656 329.53456,345.96708 C 327.73655,346.76759 325.10563,347.16785 321.6418,347.16785 L 305.52602,347.16785 L 305.52602,342.43827 L 306.73691,342.43827 C 307.54417,342.43827 308.09089,342.36068 308.37711,342.20547 C 308.66332,342.05027 308.86513,341.82973 308.98254,341.54382 C 309.09996,341.25793 309.15868,340.61669 309.15868,339.62012 L 309.15868,320.55478 C 309.15868,319.54191 309.09996,318.89659 308.98254,318.61884 C 308.86513,318.34113 308.66332,318.12059 308.37711,317.95718 C 308.09089,317.79384 307.54417,317.71215 306.73691,317.71213 L 305.52602,317.71213 z M 316.77623,326.82821 L 320.1447,326.82821 C 321.90597,326.82823 323.20859,326.66486 324.05255,326.3381 C 324.89648,326.01137 325.53128,325.51719 325.95694,324.8555 C 326.38256,324.19388 326.59538,323.43012 326.59541,322.56424 C 326.59538,321.66572 326.39357,320.89788 325.98997,320.2607 C 325.58632,319.6236 325.00289,319.17024 324.23968,318.90064 C 323.47645,318.63112 322.11145,318.49633 320.1447,318.49631 L 316.77623,318.49631 L 316.77623,326.82821 z M 316.77623,331.85186 L 316.77623,339.25254 C 316.79091,340.29812 316.8276,340.91077 316.88632,341.09046 C 316.9597,341.31919 317.08078,341.47848 317.24959,341.56833 C 317.41837,341.65818 317.87702,341.70311 318.62559,341.70311 L 320.87123,341.70311 C 322.1775,341.70311 323.25995,341.56833 324.1186,341.29875 C 324.9772,341.0292 325.7074,340.46967 326.30919,339.62012 C 326.91095,338.7706 327.21183,337.74955 327.21186,336.55693 C 327.21183,335.54405 326.99902,334.68635 326.5734,333.98383 C 326.14773,333.28137 325.50927,332.75041 324.65799,332.39099 C 323.80669,332.03158 322.50774,331.85187 320.76115,331.85186 L 316.77623,331.85186 z M 337.91166,312.98255 L 356.84549,312.98255 C 358.0637,312.98259 359.39566,313.1051 360.84141,313.35013 C 362.28711,313.59522 363.5934,314.13435 364.76027,314.9675 C 365.92709,315.80072 366.83342,316.85447 367.47926,318.12873 C 368.12503,319.40304 368.44793,320.84071 368.44796,322.44171 C 368.44793,325.03931 367.61498,327.14271 365.94914,328.75189 C 364.28322,330.36111 362.31278,331.41077 360.03782,331.90087 L 366.35643,340.08573 L 366.62062,340.45332 C 367.03155,341.00878 367.40583,341.42129 367.74345,341.69084 C 368.081,341.96042 368.41857,342.15238 368.75618,342.26672 C 369.09374,342.3811 369.56341,342.43827 370.16521,342.43827 L 371.48617,342.43827 L 371.48617,347.16785 L 361.64499,347.16785 L 351.78179,332.43998 L 349.22792,332.43998 L 349.22792,339.25254 C 349.22792,340.42881 349.28663,341.17624 349.40406,341.49481 C 349.52146,341.81338 349.70859,342.05027 349.96547,342.20547 C 350.22231,342.36068 350.73969,342.43827 351.5176,342.43827 L 352.92663,342.43827 L 352.92663,347.16785 L 337.91166,347.16785 L 337.91166,342.43827 L 339.27667,342.43827 C 339.99586,342.43827 340.50589,342.35251 340.80679,342.18096 C 341.10766,342.00943 341.33149,341.75212 341.47827,341.40904 C 341.55165,341.21299 341.58835,340.60036 341.58835,339.57111 L 341.58835,320.33422 C 341.58835,319.58274 341.5333,319.04772 341.42323,318.72911 C 341.31315,318.41056 341.13335,318.20227 340.88384,318.10422 C 340.53158,317.92453 340.12794,317.83468 339.67295,317.83466 L 339.0565,317.85915 L 337.91166,317.85915 L 337.91166,312.98255 z M 349.22792,318.59434 L 349.22792,327.44085 L 353.78525,327.44085 C 355.57588,327.44086 356.91518,327.25707 357.8032,326.88947 C 358.69114,326.52191 359.35897,325.99504 359.80665,325.30887 C 360.25429,324.62274 360.47812,323.78954 360.47815,322.80929 C 360.47812,321.91077 360.26896,321.13886 359.85069,320.49351 C 359.43236,319.84823 358.83792,319.37038 358.06738,319.05993 C 357.2968,318.74955 356.03822,318.59435 354.29162,318.59434 L 349.22792,318.59434 z M 372.96127,312.98255 L 387.93219,312.98255 L 387.93219,317.71213 L 386.56719,317.71213 C 385.77459,317.71215 385.24989,317.78976 384.99304,317.94494 C 384.73618,318.10017 384.54537,318.34522 384.42063,318.6801 C 384.29586,319.01504 384.23348,319.65626 384.2335,320.60378 L 384.2335,339.5221 C 384.23348,340.55134 384.28484,341.21299 384.3876,341.50705 C 384.49032,341.80113 384.66646,342.01352 384.91599,342.14421 C 385.2242,342.34026 385.68654,342.43827 386.303,342.43827 L 387.93219,342.43827 L 387.93219,347.16785 L 372.96127,347.16785 L 372.96127,342.43827 L 374.17214,342.43827 C 375.0381,342.43827 375.60319,342.36884 375.86738,342.22997 C 376.13157,342.09111 376.32605,341.87056 376.45081,341.56833 C 376.57556,341.26609 376.63794,340.6657 376.63794,339.76716 L 376.63794,320.77533 C 376.63794,319.71345 376.57556,319.01504 376.45081,318.6801 C 376.32605,318.34522 376.11689,318.08791 375.82334,317.90817 C 375.61786,317.77751 375.11883,317.71215 374.32626,317.71213 L 372.96127,317.71213 L 372.96127,312.98255 z M 402.30868,312.98255 L 409.19972,312.98255 L 418.42445,339.37508 C 418.92345,340.78006 419.36745,341.64593 419.75643,341.97266 C 420.14534,342.29941 420.86086,342.45462 421.90299,342.43827 L 421.90299,347.16785 L 407.37238,347.16785 L 407.37238,342.43827 L 408.25303,342.41376 C 409.06027,342.41376 409.62534,342.29532 409.94827,342.05843 C 410.27114,341.82155 410.43259,341.53158 410.43261,341.18848 C 410.43259,340.89442 410.29316,340.28996 410.01432,339.37508 L 409.11165,336.26287 L 399.75483,336.26287 L 398.60999,339.71815 C 398.37514,340.45332 398.25771,340.93528 398.25773,341.16398 C 398.25771,341.42537 398.34211,341.66227 398.51092,341.87463 C 398.67969,342.08704 398.9549,342.24223 399.33652,342.34024 C 399.58602,342.40561 400.27586,342.43827 401.40603,342.43827 L 401.40603,347.16785 L 389.51735,347.16785 L 389.51735,342.43827 C 390.28057,342.43827 390.83831,342.36475 391.19057,342.21773 C 391.54283,342.07069 391.8327,341.85015 392.0602,341.55606 C 392.2877,341.262 392.54089,340.71472 392.81975,339.91419 L 402.30868,312.98255 z M 401.36199,331.38625 L 407.50448,331.38625 L 404.51029,321.9761 L 401.36199,331.38625 z "
     id="text2262" />
</svg>
