<?xml version="1.0" encoding="UTF-8" standalone="no"?>
<!-- Created with Inkscape (http://www.inkscape.org/) -->
<svg
   xmlns:dc="http://purl.org/dc/elements/1.1/"
   xmlns:cc="http://web.resource.org/cc/"
   xmlns:rdf="http://www.w3.org/1999/02/22-rdf-syntax-ns#"
   xmlns:svg="http://www.w3.org/2000/svg"
   xmlns="http://www.w3.org/2000/svg"
   xmlns:sodipodi="http://inkscape.sourceforge.net/DTD/sodipodi-0.dtd"
   xmlns:inkscape="http://www.inkscape.org/namespaces/inkscape"
   width="648.00000px"
   height="432.00000px"
   id="svg9566"
   sodipodi:version="0.32"
   inkscape:version="0.42"
   sodipodi:docbase="/home/angelo"
   sodipodi:docname="Flag of Tuscany.svg">
  <defs
     id="defs9568" />
  <sodipodi:namedview
     id="base"
     pagecolor="#ffffff"
     bordercolor="#666666"
     borderopacity="1.0"
     inkscape:pageopacity="0.0"
     inkscape:pageshadow="2"
     inkscape:zoom="0.35000000"
     inkscape:cx="375.00000"
     inkscape:cy="291.42857"
     inkscape:document-units="px"
     inkscape:current-layer="layer1"
     showgrid="false"
     showguides="false"
     inkscape:window-width="873"
     inkscape:window-height="513"
     inkscape:window-x="14"
     inkscape:window-y="53" />
  <metadata
     id="metadata9571">
    <rdf:RDF>
      <cc:Work
         rdf:about="">
        <dc:format>image/svg+xml</dc:format>
        <dc:type
           rdf:resource="http://purl.org/dc/dcmitype/StillImage" />
      </cc:Work>
    </rdf:RDF>
  </metadata>
  <g
     inkscape:label="Layer 1"
     inkscape:groupmode="layer"
     id="layer1">
    <g
       id="g11836">
      <rect
         y="-4.0185547e-05"
         x="-2.1484375e-06"
         height="432.00000"
         width="648.00000"
         id="rect5120"
         style="fill:#ffffff;fill-opacity:1.0000000;stroke:#000000;stroke-width:0.0000000;stroke-miterlimit:4.0000000;stroke-dasharray:none;stroke-opacity:1.0000000" />
      <path
         id="path3666"
         d="M -2.0000000e-06,349.37286 L -2.0000000e-06,327.37286 L 324.00000,327.37286 L 648.00000,327.37286 L 648.00000,349.37286 L 648.00000,371.37286 L 324.00000,371.37286 L -2.0000000e-06,371.37286 L -2.0000000e-06,349.37286 z M -2.0000000e-06,89.372860 L -2.0000000e-06,67.372860 L 324.00000,67.372860 L 648.00000,67.372860 L 648.00000,89.372860 L 648.00000,111.37286 L 324.00000,111.37286 L -2.0000000e-06,111.37286 L -2.0000000e-06,89.372860 z "
         style="fill:#ce1021;fill-opacity:1.0000000" />
      <g
         transform="matrix(2.000000,0.000000,0.000000,2.000000,-156.1053,-292.7801)"
         id="g9541">
        <path
           style="fill:#dedede;fill-opacity:1.0000000"
           d="M 240.36056,288.13672 C 239.01707,287.17422 236.10445,285.65608 233.88805,284.76308 C 231.21936,283.68785 229.75038,282.42175 229.53890,281.01459 C 229.35145,279.76742 227.48894,277.87554 225.02980,276.43439 C 222.72544,275.08394 219.29338,272.38326 217.40299,270.43288 C 215.51260,268.48249 213.25432,266.88672 212.38459,266.88672 C 211.51486,266.88672 209.90376,266.25668 208.80436,265.48663 C 207.15851,264.33383 206.49282,264.31515 205.03538,265.38086 C 204.06183,266.09273 202.36725,266.44033 201.26964,266.15330 C 199.50886,265.69284 199.35219,265.08740 199.93845,261.00907 C 200.30390,258.46678 201.29260,255.59922 202.13557,254.63672 C 204.56250,251.86563 209.05732,252.43381 212.23546,255.91343 L 214.99993,258.94014 L 216.92909,256.80702 C 217.99013,255.63380 220.65825,253.75502 222.85825,252.63195 L 226.85825,250.59000 L 224.35825,249.58858 C 210.02011,243.84522 203.79249,238.88672 210.91727,238.88672 C 213.61649,238.88672 213.82504,238.24468 212.36944,234.41614 C 211.13791,231.17698 213.07606,230.11298 217.14092,231.79670 C 218.65163,232.42245 223.42997,233.03620 227.75947,233.16058 L 235.63128,233.38672 L 236.85497,228.88672 C 238.56983,222.58050 241.19914,216.88672 242.39642,216.88672 C 242.95265,216.88672 243.82325,217.97958 244.33109,219.31529 C 245.33819,221.96417 249.63223,223.11197 252.47578,221.49237 C 254.94717,220.08475 257.35825,221.51078 257.35825,224.38009 C 257.35825,226.19341 256.62431,227.21527 254.83262,227.89646 C 250.98633,229.35882 250.85074,231.42074 254.25229,236.72159 C 255.96057,239.38371 257.35825,242.24017 257.35825,243.06928 C 257.35825,243.89839 258.25825,245.39123 259.35825,246.38672 C 261.22255,248.07389 261.48233,248.08440 263.18699,246.54171 C 265.86517,244.11799 266.89416,244.41271 273.49949,249.49540 C 278.00075,252.95904 279.30772,254.51187 278.75990,255.74540 C 278.35900,256.64813 277.93587,258.62422 277.81962,260.13672 C 277.70336,261.64922 277.55200,263.33672 277.48325,263.88672 C 277.41450,264.43672 276.46682,264.88672 275.37730,264.88672 C 274.03761,264.88672 273.18982,263.99652 272.75833,262.13672 C 271.88971,258.39275 269.59090,254.88672 268.00472,254.88672 C 267.28563,254.88672 265.26961,256.87473 263.52466,259.30452 C 260.82319,263.06625 259.59387,263.88492 255.24674,264.81722 C 252.43882,265.41941 249.05197,266.76908 247.72041,267.81649 C 246.38884,268.86390 243.50676,270.02373 241.31578,270.39390 C 237.10178,271.10585 235.35825,273.08096 235.35825,277.14272 C 235.35825,279.04449 236.39087,279.99689 240.43404,281.82418 C 245.94456,284.31462 247.26800,286.08561 245.34768,288.39945 C 243.77852,290.29017 243.33371,290.26674 240.36056,288.13672 z M 233.35825,279.03973 C 233.35825,278.57389 232.45825,277.15503 231.35825,275.88672 C 230.25825,274.61841 229.35825,273.05300 229.35825,272.40802 C 229.35825,271.76305 228.19049,270.14441 226.76324,268.81103 C 223.43202,265.69894 221.35825,261.68646 221.35825,258.35305 C 221.35825,254.70682 219.32853,255.63943 216.77849,260.45733 L 214.69873,264.38672 L 217.59896,268.01614 C 219.19408,270.01233 222.74895,272.87004 225.49866,274.36662 C 228.24837,275.86320 230.73981,277.71746 231.03518,278.48720 C 231.61745,280.00458 233.35825,280.41862 233.35825,279.03973 z M 249.77773,264.46306 C 252.48344,263.04607 255.73011,261.88672 256.99254,261.88672 C 258.27655,261.88672 259.76708,260.99133 260.37549,259.85451 C 261.37702,257.98312 261.24132,257.87636 258.66067,258.50542 C 257.11934,258.88113 255.48735,259.81535 255.03403,260.58146 C 254.55340,261.39373 253.42603,261.72562 252.32961,261.37763 C 251.29551,261.04942 249.32054,261.52055 247.94080,262.42459 C 245.82395,263.81160 244.63787,263.89795 240.34599,262.97751 C 233.86775,261.58818 234.12634,261.53562 235.59978,263.94220 C 236.66658,265.68462 236.58852,266.15089 235.08722,267.00366 C 234.11315,267.55695 233.54195,268.37493 233.81788,268.82139 C 234.56354,270.02791 244.15113,267.40972 249.77773,264.46306 z M 210.35825,259.08672 C 210.35825,257.77782 208.06827,255.88672 206.48328,255.88672 C 205.33792,255.88672 205.43848,256.32037 206.93328,257.82729 C 208.98208,259.89269 210.35825,260.39874 210.35825,259.08672 z M 241.60825,257.90037 C 243.77958,257.88343 244.00584,253.66906 241.92799,251.94460 C 240.78167,250.99324 240.26836,251.18617 239.34237,252.91639 C 238.55809,254.38183 237.55250,254.90927 236.21146,254.55858 C 234.99602,254.24074 234.01100,254.62807 233.65136,255.56527 C 232.91205,257.49187 235.23911,259.06731 237.85825,258.41338 C 238.95825,258.13874 240.64575,257.90788 241.60825,257.90037 z M 231.35825,248.88672 C 231.35825,248.33672 230.88169,247.88672 230.29923,247.88672 C 229.71677,247.88672 229.51833,248.33672 229.85825,248.88672 C 230.19817,249.43672 230.67473,249.88672 230.91727,249.88672 C 231.15981,249.88672 231.35825,249.43672 231.35825,248.88672 z M 249.35825,247.94574 C 249.35825,247.42820 248.90825,246.72664 248.35825,246.38672 C 247.80825,246.04680 247.35825,246.47024 247.35825,247.32770 C 247.35825,248.18516 247.80825,248.88672 248.35825,248.88672 C 248.90825,248.88672 249.35825,248.46328 249.35825,247.94574 z M 254.75858,242.48758 C 254.07174,240.69770 252.22965,240.77251 251.61541,242.61524 C 251.41310,243.22217 252.05997,243.89872 253.05291,244.11867 C 255.39146,244.63670 255.53178,244.50251 254.75858,242.48758 z M 229.85825,236.88672 C 229.51833,236.33672 228.59177,235.88672 227.79923,235.88672 C 227.00669,235.88672 226.35825,236.33672 226.35825,236.88672 C 226.35825,237.43672 227.28481,237.88672 228.41727,237.88672 C 229.54973,237.88672 230.19817,237.43672 229.85825,236.88672 z M 247.85825,228.88672 C 247.51833,228.33672 246.79022,227.88672 246.24022,227.88672 C 245.69022,227.88672 245.51833,228.33672 245.85825,228.88672 C 246.19817,229.43672 246.92628,229.88672 247.47628,229.88672 C 248.02628,229.88672 248.19817,229.43672 247.85825,228.88672 z "
           id="path8072"
           sodipodi:nodetypes="cssssssssssccccccssscccsssssssssssssssssssssssccsssscccssccssssssssssccssccsssssccsssccsssccssccsssccsssc" />
        <path
           style="fill:#949494;fill-opacity:1.0000000"
           d="M 242.04363,289.92363 C 241.32472,288.76041 235.83497,286.17580 233.02709,285.67858 C 231.47579,285.40388 231.06017,284.60342 231.17454,282.11065 C 231.25563,280.34307 230.94069,278.89687 230.47467,278.89687 C 228.92552,278.89687 220.63017,272.84337 218.54266,270.18954 C 217.25700,268.55509 215.08867,267.34525 212.75674,266.96124 C 209.66331,266.45183 209.00859,265.92485 208.91866,263.87197 C 208.72882,259.53874 208.54929,258.89687 207.52709,258.89687 C 206.97709,258.89687 206.52709,260.69687 206.52709,262.89687 C 206.52709,266.08932 206.16190,266.89687 204.71822,266.89687 C 203.72334,266.89687 202.03584,266.23618 200.96822,265.42867 C 199.23606,264.11853 199.21279,263.95705 200.75209,263.92867 C 202.09881,263.90384 202.35579,263.29035 201.92393,261.13109 C 201.28272,257.92504 204.61270,252.89687 207.37716,252.89687 C 210.40096,252.89687 213.42992,255.86198 214.11015,259.48795 L 214.77306,263.02154 L 216.64093,259.95006 C 220.31902,253.90194 228.01355,251.17115 232.08596,254.46862 C 233.92864,255.96065 233.86336,256.01286 230.79875,255.49795 C 228.35825,255.08791 226.92435,255.51126 224.92302,257.23273 C 222.28788,259.49938 222.28368,259.52585 224.01470,262.95339 C 225.67991,266.25062 231.20617,271.88961 232.77709,271.89452 C 233.18959,271.89581 233.52709,271.00544 233.52709,269.91592 C 233.52709,268.63049 234.41563,267.71197 236.05780,267.29981 C 238.58314,266.66599 238.57996,266.65808 234.55780,263.56676 C 230.64209,260.55725 229.54353,258.89687 231.46807,258.89687 C 231.98561,258.89687 232.66366,259.30883 232.97485,259.81234 C 233.71066,261.00292 246.58986,265.16743 247.30974,264.44755 C 247.61262,264.14468 247.22292,263.88686 246.44376,263.87463 C 245.66459,263.86240 243.90209,262.95496 242.52709,261.85808 L 240.02709,259.86376 L 242.84219,260.88032 C 244.39049,261.43942 246.64049,261.88256 247.84219,261.86507 C 249.97854,261.83397 249.98396,261.80064 248.08596,260.36507 C 247.01834,259.55756 246.56834,258.88998 247.08596,258.88156 C 247.60358,258.87314 247.35209,258.43003 246.52709,257.89687 C 245.21518,257.04905 245.22709,256.92558 246.62210,256.91218 C 247.49936,256.90376 248.99100,257.75201 249.93687,258.79718 C 251.66195,260.70338 255.55488,262.28346 255.49528,261.05325 C 255.41457,259.38761 252.18676,256.35429 248.77753,254.74028 L 245.02709,252.96473 L 248.74376,252.93080 C 251.68946,252.90391 253.19334,253.62979 255.99375,256.43020 C 257.93709,258.37354 259.52708,259.50711 259.52708,258.94926 C 259.52708,258.39140 260.63362,257.65725 261.98606,257.31781 C 264.67517,256.64289 267.17649,254.21295 266.19376,253.23020 C 265.85366,252.89012 264.95396,253.12763 264.19441,253.75800 C 262.65749,255.03353 257.58285,254.32600 253.65590,252.28868 C 252.30343,251.58701 249.92268,251.26775 248.36533,251.57922 C 246.03772,252.04474 244.59881,251.35007 240.28043,247.67605 C 235.73652,243.81014 234.21683,243.11680 229.02709,242.54190 C 219.22982,241.45659 210.42742,241.21571 211.77253,242.06972 C 212.46254,242.50781 215.95209,242.94878 219.52709,243.04966 L 226.02709,243.23309 L 220.02709,243.89687 L 214.02709,244.56065 L 222.02709,244.87896 C 229.26586,245.16697 229.59890,245.26383 225.52709,245.89687 C 221.13005,246.58048 221.17581,246.60088 227.52709,246.78859 C 231.91269,246.91821 235.16562,247.63208 237.52709,248.98313 L 241.02709,250.98556 L 237.02709,250.49801 L 233.02709,250.01046 L 236.27709,251.09832 C 238.06459,251.69665 239.52709,252.59148 239.52709,253.08684 C 239.52709,254.08436 232.60827,253.08655 231.02709,251.86100 C 230.47709,251.43470 227.55209,250.36438 224.52709,249.48252 C 218.39047,247.69353 208.52709,242.38834 208.52709,240.87664 C 208.52709,240.33777 210.31191,239.89687 212.49336,239.89687 L 216.45964,239.89687 L 214.39773,236.40219 C 212.62525,233.39807 212.54883,232.82576 213.85331,232.32518 C 214.68793,232.00491 216.35214,232.26806 217.55155,232.90996 C 218.75096,233.55187 223.03822,234.18741 227.07880,234.32228 C 231.24568,234.46137 235.09655,235.12459 235.97620,235.85463 C 237.32929,236.97760 237.52709,236.67550 237.52709,233.48607 C 237.52709,231.47544 238.65812,227.59840 240.04049,224.87042 C 241.42287,222.14244 242.51412,219.58115 242.46549,219.17866 C 242.41687,218.77618 242.86084,218.28562 243.45209,218.08854 C 244.04334,217.89145 244.52709,218.91926 244.52709,220.37255 C 244.52709,221.82585 244.17050,222.79452 243.73468,222.52517 C 243.29885,222.25581 242.87909,222.87401 242.80189,223.89894 C 242.66702,225.68938 242.73728,225.68668 244.59375,223.83021 C 245.81415,222.60981 247.72348,221.95916 249.77653,222.06405 C 251.56433,222.15539 253.83299,221.87493 254.81797,221.44082 C 256.08977,220.88029 256.52455,221.04939 256.31797,222.02419 C 256.15798,222.77916 256.73958,223.34687 257.61041,223.28576 C 258.48125,223.22465 259.19376,223.76735 259.19376,224.49177 C 259.19376,225.21619 258.81876,225.57713 258.36041,225.29386 C 257.90208,225.01060 257.52708,225.24127 257.52708,225.80647 C 257.52708,226.37167 256.85208,226.57508 256.02708,226.25850 C 255.20208,225.94191 254.52708,225.10288 254.52708,224.39397 C 254.52708,223.52429 253.23461,223.17104 250.55345,223.30794 C 245.53344,223.56424 244.73974,224.36938 247.02154,226.89074 C 248.95625,229.02857 251.51970,229.48705 253.07709,227.97380 C 253.59958,227.46611 255.37708,227.33807 257.02708,227.68926 L 260.02708,228.32780 L 256.53843,228.86233 C 251.84184,229.58195 251.72344,231.50169 255.98512,237.83451 C 257.93320,240.72935 259.53397,244.06513 259.54239,245.24736 C 259.55082,246.42959 259.97952,248.06397 260.49507,248.87931 C 261.27925,250.11950 261.91557,249.89885 264.38923,247.52895 C 267.64211,244.41249 267.20619,244.30407 275.29183,250.24068 C 280.50854,254.07086 281.78243,256.47792 279.13124,257.49528 C 278.12264,257.88231 277.88550,259.15018 278.27648,262.06519 C 278.75462,265.63000 278.59704,266.05717 276.92234,265.73599 C 275.82635,265.52579 274.57826,263.98907 273.96281,262.09204 C 272.85222,258.66883 270.11966,254.89687 268.75032,254.89687 C 268.31234,254.89687 266.32241,257.08233 264.32822,259.75344 C 261.22735,263.90695 260.08848,264.69236 256.46126,265.17887 C 254.12861,265.49175 250.87244,266.74409 249.22533,267.96185 C 247.57822,269.17961 244.31787,270.39156 241.98011,270.65506 C 238.37495,271.06141 237.64200,271.53365 237.15244,273.76551 C 236.83498,275.21276 236.31888,277.29687 236.00556,278.39687 C 235.55881,279.96531 236.14700,280.68267 238.73149,281.72139 C 240.54407,282.44988 243.06496,283.46429 244.33348,283.97564 C 245.60199,284.48700 246.36612,285.34831 246.03154,285.88967 C 245.67098,286.47307 246.12600,286.60428 247.14876,286.21181 C 248.49411,285.69555 248.72589,285.93643 248.20070,287.30505 C 247.83021,288.27052 247.52709,289.47364 247.52709,289.97866 C 247.52709,291.20640 242.80715,291.15904 242.04363,289.92363 z M 246.52709,288.89687 C 246.52709,288.34687 246.10365,287.89687 245.58611,287.89687 C 245.06857,287.89687 244.36701,288.34687 244.02709,288.89687 C 243.68717,289.44687 244.11061,289.89687 244.96807,289.89687 C 245.82553,289.89687 246.52709,289.44687 246.52709,288.89687 z M 242.52709,286.39687 C 241.84240,285.57187 240.54980,284.89410 239.65465,284.89071 C 238.75949,284.88732 236.73815,284.21232 235.16278,283.39071 C 231.61501,281.54042 231.45320,281.54075 232.16546,283.39687 C 232.48205,284.22187 233.54148,284.89687 234.51977,284.89687 C 235.49806,284.89687 237.58741,285.56910 239.16278,286.39071 C 242.82489,288.30063 244.10902,288.30298 242.52709,286.39687 z M 235.89680,274.64687 C 236.70004,271.64961 236.67411,270.89687 235.76764,270.89687 C 234.55055,270.89687 232.40195,274.88537 233.05223,275.93755 C 234.05352,277.55767 235.26392,277.00847 235.89680,274.64687 z M 205.85159,256.67516 C 208.04207,255.28193 210.71189,255.88756 211.23734,257.89687 C 211.52500,258.99687 212.11574,259.89687 212.55010,259.89687 C 214.32317,259.89687 212.07963,255.67725 209.85733,254.83233 C 205.29965,253.09950 202.14112,256.87131 203.39674,262.54734 C 203.98145,265.19054 204.05059,265.10817 204.35159,261.40985 C 204.53006,259.21698 205.20506,257.08637 205.85159,256.67516 z M 274.01018,254.86417 C 273.14763,253.19619 271.99136,252.10993 271.44070,252.45026 C 270.89002,252.79060 269.82424,252.55846 269.07230,251.93440 C 268.26333,251.26300 267.46984,251.18047 267.12883,251.73226 C 266.81184,252.24513 267.86444,253.20818 269.46793,253.87237 C 271.07142,254.53656 272.62658,255.71378 272.92384,256.48843 C 273.22110,257.26307 273.93999,257.89687 274.52139,257.89687 C 275.15175,257.89687 274.94540,256.67271 274.01018,254.86417 z M 279.44376,255.59860 C 279.21458,255.43456 276.71463,253.40956 273.88831,251.09860 C 271.06197,248.78765 268.42693,246.89687 268.03267,246.89687 C 267.63838,246.89687 265.97881,248.02187 264.34472,249.39687 C 261.64717,251.66670 261.56772,251.89687 263.48174,251.89687 C 264.64121,251.89687 265.84887,251.22187 266.16545,250.39687 C 267.06401,248.05528 268.68174,248.58120 273.93593,252.92301 C 276.61564,255.13739 279.04489,256.71239 279.33427,256.42301 C 279.62365,256.13364 279.67291,255.76265 279.44376,255.59860 z M 259.52708,250.95589 C 259.52708,249.62115 258.55460,249.17032 254.01946,248.40261 L 250.02709,247.72677 L 253.02708,249.80523 C 256.15945,251.97539 259.52708,252.57154 259.52708,250.95589 z M 246.54240,248.64687 C 246.58236,245.38478 248.05827,244.82018 252.47351,246.37797 C 254.84127,247.21336 257.17197,247.89687 257.65281,247.89687 C 259.54091,247.89687 258.36021,243.84987 255.02708,238.89687 C 253.10208,236.03633 251.52708,233.29111 251.52708,232.79638 C 251.52708,232.30165 250.60664,231.89687 249.48164,231.89687 C 248.35664,231.89687 246.33164,230.79232 244.98164,229.44232 C 242.88366,227.34435 242.52709,227.24596 242.52709,228.76507 C 242.52709,229.87385 244.23253,231.39410 247.06115,232.80678 C 251.27994,234.91375 255.44221,239.31508 254.29800,240.45929 C 254.02301,240.73429 253.05167,239.82024 252.13950,238.42808 C 251.22731,237.03591 249.99832,235.89687 249.40841,235.89687 C 248.81849,235.89687 247.09057,235.01017 245.56858,233.92642 C 242.99503,232.09388 241.52709,232.12899 241.52709,234.02307 C 241.52709,235.49720 247.00723,239.94335 250.02709,240.91930 C 252.86668,241.83699 252.81995,241.86459 249.15306,241.43559 C 247.02235,241.18631 244.43485,240.21838 243.40306,239.28463 C 242.27194,238.26098 241.52709,238.05132 241.52709,238.75658 C 241.52709,239.39991 242.98959,240.81797 244.77709,241.90783 C 246.56459,242.99769 247.33972,243.89108 246.49960,243.89313 C 243.50962,243.90045 240.52709,240.87774 240.52709,237.84017 C 240.52709,236.22135 240.07709,234.89687 239.52709,234.89687 C 238.97709,234.89687 238.52709,236.23275 238.52709,237.86549 C 238.52709,240.00064 238.13362,240.68311 237.12563,240.29631 C 236.35483,240.00053 235.51481,238.95789 235.25891,237.97935 C 234.72510,235.93807 229.88878,234.67453 225.76569,235.49915 C 224.24691,235.80290 221.09691,235.39429 218.76569,234.59112 C 216.43446,233.78794 214.53225,233.41567 214.53856,233.76384 C 214.55204,234.50727 221.13546,237.60792 224.02709,238.23272 C 225.32985,238.51421 224.97165,238.70531 222.99960,238.78087 C 221.33447,238.84467 218.85947,238.15676 217.49960,237.25219 L 215.02709,235.60751 L 217.04768,237.74500 C 218.76119,239.55764 220.42671,239.93243 228.00665,240.21107 L 236.94503,240.53965 L 240.98606,245.21539 C 245.11681,249.99494 246.51531,250.85863 246.54240,248.64687 z M 240.52709,232.89687 C 240.52709,232.34687 240.07709,231.89687 239.52709,231.89687 C 238.97709,231.89687 238.52709,232.34687 238.52709,232.89687 C 238.52709,233.44687 238.97709,233.89687 239.52709,233.89687 C 240.07709,233.89687 240.52709,233.44687 240.52709,232.89687 z M 241.37322,228.44557 C 241.58867,227.33417 241.29934,226.91959 240.60691,227.34754 C 239.99507,227.72568 239.72961,228.41554 240.01701,228.88056 C 240.30441,229.34558 240.07550,229.95573 239.50832,230.23646 C 238.94114,230.51718 239.05084,230.63083 239.75209,230.48900 C 240.45334,230.34718 241.18285,229.42763 241.37322,228.44557 z M 228.27709,263.81677 C 227.31459,263.25617 226.52709,261.94030 226.52709,260.89263 C 226.52709,259.17820 226.77700,259.23769 229.02709,261.48778 C 232.49342,264.95411 232.13590,266.06432 228.27709,263.81677 z M 248.02709,224.89687 C 248.36701,224.34687 248.84357,223.89687 249.08611,223.89687 C 249.32865,223.89687 249.52709,224.34687 249.52709,224.89687 C 249.52709,225.44687 249.05053,225.89687 248.46807,225.89687 C 247.88561,225.89687 247.68717,225.44687 248.02709,224.89687 z "
           id="path6616"
           sodipodi:nodetypes="cssssssssssssscccsssssssssssscccssssssscccsssssssssscccccsscccccsssscccsssssssssssssssssssssssscccssssssssssssssssssssssccsssccsssssccssccsssssccssssssccssssssscccccccsssssssssssssssssssssssssssssccccccccsssccssssccssccsssc" />
      </g>
    </g>
  </g>
</svg>
