<?xml version="1.0" encoding="UTF-8" ?>
<!DOCTYPE svg PUBLIC "-//W3C//DTD SVG 1.1//EN" "http://www.w3.org/Graphics/SVG/1.1/DTD/svg11.dtd">
<svg width="800pt" height="533pt" viewBox="0 0 800 533" version="1.1" xmlns="http://www.w3.org/2000/svg">
<path fill="#fcd927" stroke="#fcd927" stroke-width="0.09375" opacity="1.00" d=" M 0.0 0.0 L 0.6 0.0 C 3.8 2.6 7.2 5.0 10.8 7.3 C 93.9 62.5 176.9 118.1 260.0 173.2 C 258.3 175.1 256.3 176.8 255.0 179.0 C 254.1 181.0 254.5 183.3 254.4 185.4 C 255.7 186.1 257.1 186.8 258.4 187.6 C 258.0 194.3 263.2 199.1 267.9 203.2 C 270.0 204.9 272.3 206.4 275.0 207.0 C 276.7 206.8 278.3 205.9 279.8 205.3 C 279.9 206.3 280.1 207.3 280.2 208.3 C 283.8 209.1 287.3 210.1 290.8 211.1 C 290.7 210.0 290.5 208.9 290.4 207.8 C 292.4 213.3 296.5 217.6 301.3 220.8 C 304.0 221.6 307.0 221.4 309.8 221.0 C 313.5 218.7 316.2 215.2 319.8 212.7 C 325.5 217.8 332.8 220.9 338.5 226.2 C 326.5 226.9 314.2 228.3 302.5 225.1 C 303.6 228.8 305.3 232.7 309.2 234.3 C 309.2 235.0 309.1 236.3 309.1 237.0 C 298.8 236.2 289.1 230.9 278.7 231.9 C 282.0 232.8 285.5 233.2 288.7 234.5 C 283.4 234.6 278.2 235.8 272.9 235.4 C 269.4 235.2 265.9 235.8 262.7 237.3 C 266.2 237.7 270.3 236.0 273.4 238.1 C 272.4 239.6 271.3 241.0 270.3 242.6 C 266.0 242.0 261.6 242.1 257.7 244.2 C 259.4 244.4 261.0 244.6 262.6 244.8 C 262.0 246.5 261.6 248.2 260.6 249.7 C 258.6 251.0 256.3 251.9 254.2 253.0 C 254.9 254.4 256.6 255.9 255.5 257.5 C 253.8 261.1 251.6 264.6 248.1 266.6 C 249.9 268.0 251.7 269.4 253.4 270.9 C 256.5 269.9 259.8 269.1 263.0 268.2 C 264.6 269.4 266.3 270.7 267.9 271.9 C 269.0 270.9 270.0 269.9 271.2 269.1 C 273.8 269.5 276.1 270.9 278.5 271.9 C 279.5 270.8 280.5 269.6 281.7 268.7 C 283.7 268.0 286.0 268.1 288.1 267.8 C 287.4 269.3 286.7 270.7 286.0 272.2 C 289.1 269.9 291.8 267.2 294.7 264.7 C 297.2 262.4 300.7 261.6 303.0 259.1 C 306.1 256.0 307.8 251.9 310.0 248.2 C 312.5 246.5 315.5 245.5 318.2 244.0 C 317.0 248.8 314.4 253.0 313.2 257.8 C 320.2 255.3 325.6 249.1 333.3 248.8 C 332.6 251.8 331.3 254.5 329.8 257.2 C 330.5 258.4 331.3 259.6 332.0 260.8 C 331.4 260.9 330.0 261.2 329.3 261.3 C 329.4 263.0 329.4 264.7 329.4 266.3 C 325.7 267.3 321.9 268.6 319.1 271.3 C 309.2 277.3 299.6 284.1 291.5 292.5 C 289.5 294.5 288.9 297.3 287.6 299.6 C 287.6 298.4 287.6 297.2 287.6 296.0 C 285.3 298.1 282.9 300.3 282.3 303.5 C 276.0 307.3 272.1 313.8 266.7 318.7 C 263.4 323.0 258.9 326.2 255.5 330.5 C 252.8 333.9 250.9 337.9 249.7 342.1 C 250.6 347.5 252.9 352.6 256.1 356.9 C 262.6 361.9 271.0 363.1 278.9 364.3 C 284.8 366.3 291.3 366.3 296.5 370.1 C 296.8 369.1 297.1 368.1 297.3 367.1 C 301.9 373.8 310.7 373.3 317.6 376.1 C 323.0 377.3 328.2 379.6 333.7 380.5 C 337.8 381.2 342.0 381.5 345.9 382.9 C 353.6 385.6 361.8 386.7 368.8 391.0 C 369.8 390.2 370.8 389.3 371.9 388.5 C 371.6 389.7 371.3 390.9 371.0 392.1 C 374.1 395.7 377.3 399.5 379.1 404.0 C 380.7 407.8 384.0 410.9 385.0 415.0 C 386.5 420.2 386.5 425.6 386.7 431.0 C 386.8 433.9 390.0 435.7 392.6 434.7 C 399.0 432.2 397.5 423.8 402.4 419.9 C 401.7 419.0 401.1 418.2 400.4 417.3 C 401.6 417.3 402.8 417.4 404.0 417.4 C 407.8 410.2 405.9 401.9 404.4 394.4 C 403.6 394.4 402.8 394.4 401.9 394.4 C 401.9 388.8 402.7 383.1 405.0 377.8 C 405.6 372.8 404.4 366.2 399.5 363.6 C 394.1 362.9 388.3 363.9 383.1 361.8 C 374.5 358.6 365.0 357.9 357.1 352.8 C 353.2 350.1 348.6 348.3 345.2 344.7 C 343.2 342.2 340.4 340.3 337.1 340.0 C 335.5 336.7 331.6 335.8 328.4 334.7 C 319.9 332.1 311.0 333.3 302.4 334.2 C 306.9 330.2 313.3 331.0 318.7 329.5 C 323.1 328.2 327.8 328.7 332.1 327.0 C 335.2 326.0 337.8 324.1 340.6 322.5 C 343.2 321.4 346.0 320.9 348.4 319.4 C 353.1 316.6 358.5 315.3 362.9 311.9 C 366.9 308.8 371.3 306.5 375.9 304.4 C 378.0 307.5 381.0 309.8 384.0 311.9 C 385.1 315.1 384.2 318.6 384.9 321.8 C 385.7 323.6 387.8 325.1 387.3 327.4 C 386.8 333.7 386.2 340.2 387.8 346.4 C 388.6 345.2 389.3 343.9 390.1 342.6 C 390.3 343.9 390.6 345.1 390.9 346.3 L 391.2 347.0 C 390.4 347.1 388.9 347.4 388.1 347.5 C 388.3 347.9 388.6 348.8 388.8 349.2 C 390.2 349.8 391.6 350.4 392.9 351.0 C 393.5 354.3 396.8 354.4 399.3 353.3 C 401.2 352.8 403.1 353.1 404.0 355.0 C 410.0 362.8 415.8 371.0 418.6 380.6 C 418.9 380.6 419.6 380.7 419.9 380.7 C 422.0 376.6 422.0 371.9 422.7 367.5 C 424.4 368.2 426.1 369.3 426.4 371.3 C 427.2 374.8 429.7 377.3 432.6 379.3 C 432.3 387.5 440.1 392.3 445.2 397.5 C 446.1 397.4 447.1 397.2 448.1 397.1 C 448.8 398.3 449.2 400.3 450.9 400.1 C 454.5 400.1 457.8 401.4 461.2 402.4 C 460.4 401.2 459.6 400.0 458.9 398.9 C 460.3 398.2 461.8 397.6 463.3 397.0 C 464.7 398.8 466.1 401.5 468.8 401.4 C 471.9 399.5 475.2 397.8 479.0 397.5 C 481.2 398.9 483.4 400.6 485.8 401.8 C 484.2 399.8 482.7 397.6 483.5 394.9 C 485.5 395.8 487.5 396.7 489.5 397.3 C 487.1 394.1 482.7 393.0 481.4 389.0 C 483.3 389.4 485.3 390.0 487.2 390.5 C 485.1 389.3 482.8 388.4 480.6 387.3 C 478.1 385.2 477.5 381.7 476.1 378.9 C 473.9 376.2 471.1 374.1 469.0 371.3 C 470.4 371.4 471.9 371.6 473.3 371.7 C 467.7 367.4 461.8 363.6 455.3 360.7 C 453.4 359.8 451.1 360.1 449.0 360.0 C 444.1 360.2 439.0 359.9 434.2 358.6 C 430.5 357.7 427.6 355.3 424.3 353.6 C 428.6 350.7 433.8 349.6 438.4 347.1 C 433.8 344.5 428.6 343.7 423.6 342.5 C 420.3 341.8 418.5 338.9 417.1 336.1 C 418.8 336.3 420.4 336.5 422.1 336.7 C 418.7 333.7 415.1 330.4 414.1 325.8 C 413.9 323.1 415.2 320.5 416.0 317.9 C 416.5 315.8 418.9 315.3 420.6 314.3 C 423.6 317.0 426.7 319.8 430.3 321.6 C 433.0 322.9 436.2 323.2 438.4 325.4 C 439.0 325.1 439.7 324.8 440.3 324.5 C 440.5 328.6 445.0 329.4 448.0 331.0 C 459.2 336.0 470.1 342.7 482.6 343.8 C 494.3 345.7 505.9 348.7 517.7 350.1 C 523.4 350.6 528.6 353.0 533.7 355.3 C 545.9 364.2 558.8 372.2 571.3 380.7 C 637.9 425.1 704.6 469.5 771.2 513.9 C 780.6 520.3 790.3 526.2 799.4 533.0 L 0.0 533.0 L 0.0 0.0 Z" />
<path fill="#fa0002" stroke="#fa0002" stroke-width="0.09375" opacity="1.00" d=" M 0.6 0.0 L 800.0 0.0 L 800.0 533.0 L 799.4 533.0 C 790.3 526.2 780.6 520.3 771.2 513.9 C 704.6 469.5 637.9 425.1 571.3 380.7 C 558.8 372.2 545.9 364.2 533.7 355.3 C 542.4 355.2 547.7 347.3 551.2 340.4 C 552.4 335.1 551.8 329.0 548.6 324.5 C 545.6 320.1 545.7 314.6 544.3 309.7 C 542.8 304.5 541.7 299.2 539.6 294.2 C 537.7 290.5 539.2 286.1 536.8 282.6 C 537.4 281.4 538.0 280.3 538.5 279.2 C 535.2 273.0 533.7 266.2 531.7 259.5 C 530.7 255.2 529.1 251.0 528.4 246.6 C 528.1 246.7 527.4 246.8 527.1 246.9 C 525.3 239.2 524.5 231.2 521.3 223.9 C 521.3 219.2 523.1 214.7 526.1 211.1 C 529.9 206.6 531.9 200.4 537.3 197.4 C 542.1 194.7 546.3 191.1 550.8 187.9 C 550.0 185.1 548.7 182.5 547.2 180.0 C 544.7 181.3 542.3 182.5 539.9 183.8 C 540.6 182.9 541.4 182.0 542.1 181.1 C 538.5 181.1 535.0 181.0 531.4 181.0 C 531.4 181.5 531.5 182.6 531.6 183.1 C 524.7 181.6 518.4 185.7 514.0 190.7 C 513.0 189.8 512.0 189.0 511.0 188.1 C 511.6 189.5 512.2 190.8 512.8 192.2 C 508.5 197.0 502.7 199.9 497.2 203.0 C 493.9 204.3 490.2 204.6 487.3 206.6 C 488.0 210.6 486.1 214.9 488.6 218.4 C 491.2 222.4 492.3 227.2 494.7 231.4 C 498.3 237.3 498.6 244.5 499.4 251.3 C 500.6 262.9 497.7 274.4 496.4 286.0 C 496.0 288.0 497.8 289.4 499.0 290.8 C 498.6 291.6 498.1 292.3 497.7 293.1 C 499.7 296.5 501.6 300.1 503.5 303.6 C 505.3 306.9 508.3 309.3 511.1 311.9 C 510.7 312.4 510.0 313.5 509.6 314.1 C 506.5 311.6 503.6 308.9 501.2 305.9 C 496.6 300.1 490.2 296.2 485.0 291.0 C 482.7 288.4 479.6 287.0 476.5 285.6 C 474.0 284.4 474.0 281.3 473.6 279.0 C 472.5 270.0 467.6 262.0 466.1 253.0 C 464.9 246.4 460.2 240.7 454.1 237.8 C 456.3 232.1 462.4 230.1 467.0 226.9 C 469.3 224.9 471.3 222.6 473.1 220.1 C 474.5 217.0 474.5 213.4 476.5 210.5 C 480.6 204.6 481.2 196.7 479.6 189.8 C 476.1 196.0 470.2 200.1 465.5 205.2 C 465.6 206.3 465.7 207.3 465.8 208.4 C 463.5 204.6 463.1 199.7 464.8 195.7 C 467.8 192.1 471.3 188.8 474.9 185.8 C 477.4 183.9 478.8 180.9 479.3 177.8 C 478.7 173.3 477.7 168.8 477.0 164.3 C 478.2 163.7 479.5 163.1 480.8 162.6 C 480.6 159.3 480.4 156.1 480.0 152.8 C 479.8 153.6 479.4 155.2 479.2 155.9 L 478.0 156.1 C 476.1 149.4 477.1 142.3 474.5 135.9 C 474.5 139.5 474.8 143.1 474.3 146.7 C 471.7 145.2 469.3 143.5 466.7 141.9 L 466.0 142.1 C 465.6 142.2 464.7 142.4 464.3 142.5 C 464.3 142.0 464.4 141.1 464.4 140.6 C 466.2 140.5 467.9 140.4 469.7 140.3 C 469.1 136.3 468.3 132.3 466.4 128.7 C 466.5 131.5 466.8 134.3 467.2 137.0 C 466.1 136.7 465.0 136.4 463.8 136.1 C 463.7 136.8 463.5 138.1 463.4 138.8 C 462.2 138.1 461.0 137.5 459.7 136.9 C 458.1 138.7 457.0 140.9 457.5 143.4 C 456.8 143.3 455.4 143.2 454.6 143.2 C 454.9 139.3 455.3 135.4 455.7 131.5 C 455.4 131.4 454.7 131.3 454.4 131.3 C 453.7 135.8 453.8 140.4 454.0 145.0 C 454.5 148.6 450.9 150.5 448.2 151.9 C 447.0 159.8 445.6 167.9 446.2 176.0 C 446.6 180.8 449.7 184.8 452.2 188.8 C 455.3 193.5 454.5 199.3 455.0 204.6 C 453.5 205.2 451.9 205.8 450.5 206.7 C 449.9 208.7 449.7 210.7 449.5 212.7 C 449.1 212.1 448.6 211.5 448.2 210.9 C 447.4 212.9 446.9 215.0 445.7 216.7 C 444.2 218.1 442.2 218.6 440.4 219.3 C 437.8 215.4 434.0 212.2 432.4 207.7 C 432.7 204.1 434.1 200.7 434.0 197.1 C 433.9 190.1 434.2 183.1 433.4 176.2 C 431.4 168.6 429.9 160.9 429.3 153.1 C 428.1 137.8 419.4 124.7 415.5 110.1 C 414.9 107.3 412.6 105.4 410.9 103.2 C 409.3 101.2 407.7 98.5 404.9 98.3 C 399.7 97.9 394.4 97.8 389.4 99.2 C 384.8 103.0 380.7 107.5 377.6 112.6 C 375.7 117.4 369.6 117.7 366.9 121.9 C 364.0 126.3 359.3 129.1 355.2 132.2 C 352.3 134.4 350.7 137.7 348.0 140.0 C 344.9 142.5 341.7 145.0 338.9 147.9 C 336.3 150.7 334.4 154.0 331.5 156.5 C 329.4 158.5 326.9 159.9 324.9 161.9 C 322.3 164.6 321.5 168.4 319.4 171.4 C 317.4 173.1 314.9 174.1 313.0 175.8 C 310.9 177.7 309.0 180.1 306.5 181.5 C 302.9 182.7 299.0 183.1 295.5 184.5 C 296.3 184.9 298.0 185.6 298.9 185.9 C 298.6 186.1 297.9 186.5 297.6 186.7 C 290.0 182.6 281.1 184.2 273.0 182.0 C 269.6 179.6 266.2 177.3 262.7 175.0 C 261.8 174.4 260.9 173.8 260.0 173.2 C 176.9 118.1 93.9 62.5 10.8 7.3 C 7.2 5.0 3.8 2.6 0.6 0.0 Z" />
<path fill="#000000" stroke="#000000" stroke-width="0.09375" opacity="1.00" d=" M 389.4 99.2 C 394.4 97.8 399.7 97.9 404.9 98.3 C 407.7 98.5 409.3 101.2 410.9 103.2 C 412.6 105.4 414.9 107.3 415.5 110.1 C 419.4 124.7 428.1 137.8 429.3 153.1 C 429.9 160.9 431.4 168.6 433.4 176.2 C 434.2 183.1 433.9 190.1 434.0 197.1 C 434.1 200.7 432.7 204.1 432.4 207.7 C 434.0 212.2 437.8 215.4 440.4 219.3 C 442.2 218.6 444.2 218.1 445.7 216.7 C 446.9 215.0 447.4 212.9 448.2 210.9 C 448.6 211.5 449.1 212.1 449.5 212.7 C 449.7 210.7 449.9 208.7 450.5 206.7 C 451.9 205.8 453.5 205.2 455.0 204.6 C 454.5 199.3 455.3 193.5 452.2 188.8 C 449.7 184.8 446.6 180.8 446.2 176.0 C 445.6 167.9 447.0 159.8 448.2 151.9 C 450.9 150.5 454.5 148.6 454.0 145.0 C 453.8 140.4 453.7 135.8 454.4 131.3 C 454.7 131.3 455.4 131.4 455.7 131.5 C 455.3 135.4 454.9 139.3 454.6 143.2 C 455.4 143.2 456.8 143.3 457.5 143.4 C 457.0 140.9 458.1 138.7 459.7 136.9 C 461.0 137.5 462.2 138.1 463.4 138.8 C 463.5 138.1 463.7 136.8 463.8 136.1 C 465.0 136.4 466.1 136.7 467.2 137.0 C 466.8 134.3 466.5 131.5 466.4 128.7 C 468.3 132.3 469.1 136.3 469.7 140.3 C 467.9 140.4 466.2 140.5 464.4 140.6 C 464.4 141.1 464.3 142.0 464.3 142.5 C 464.0 145.9 463.8 149.3 464.9 152.6 C 466.0 150.8 467.3 149.1 467.8 147.0 C 467.4 145.3 466.6 143.7 466.0 142.1 L 466.7 141.9 C 469.3 143.5 471.7 145.2 474.3 146.7 C 474.8 143.1 474.5 139.5 474.5 135.9 C 477.1 142.3 476.1 149.4 478.0 156.1 C 477.1 156.2 475.3 156.3 474.4 156.4 C 475.4 158.8 476.5 161.1 477.6 163.3 C 478.2 160.9 478.6 158.4 479.2 155.9 C 479.4 155.2 479.8 153.6 480.0 152.8 C 480.4 156.1 480.6 159.3 480.8 162.6 C 479.5 163.1 478.2 163.7 477.0 164.3 C 477.7 168.8 478.7 173.3 479.3 177.8 C 478.8 180.9 477.4 183.9 474.9 185.8 C 471.3 188.8 467.8 192.1 464.8 195.7 C 463.1 199.7 463.5 204.6 465.8 208.4 C 465.7 207.3 465.6 206.3 465.5 205.2 C 470.2 200.1 476.1 196.0 479.6 189.8 C 481.2 196.7 480.6 204.6 476.5 210.5 C 474.5 213.4 474.5 217.0 473.1 220.1 C 471.3 222.6 469.3 224.9 467.0 226.9 C 462.4 230.1 456.3 232.1 454.1 237.8 C 460.2 240.7 464.9 246.4 466.1 253.0 C 467.6 262.0 472.5 270.0 473.6 279.0 C 474.0 281.3 474.0 284.4 476.5 285.6 C 479.6 287.0 482.7 288.4 485.0 291.0 C 490.2 296.2 496.6 300.1 501.2 305.9 C 503.6 308.9 506.5 311.6 509.6 314.1 C 510.0 313.5 510.7 312.4 511.1 311.9 C 508.3 309.3 505.3 306.9 503.5 303.6 C 501.6 300.1 499.7 296.5 497.7 293.1 C 498.1 292.3 498.6 291.6 499.0 290.8 C 497.8 289.4 496.0 288.0 496.4 286.0 C 497.7 274.4 500.6 262.9 499.4 251.3 C 498.6 244.5 498.3 237.3 494.7 231.4 C 492.3 227.2 491.2 222.4 488.6 218.4 C 486.1 214.9 488.0 210.6 487.3 206.6 C 490.2 204.6 493.9 204.3 497.2 203.0 C 502.7 199.9 508.5 197.0 512.8 192.2 C 512.2 190.8 511.6 189.5 511.0 188.1 C 512.0 189.0 513.0 189.8 514.0 190.7 C 518.4 185.7 524.7 181.6 531.6 183.1 C 531.5 182.6 531.4 181.5 531.4 181.0 C 535.0 181.0 538.5 181.1 542.1 181.1 C 541.4 182.0 540.6 182.9 539.9 183.8 C 542.3 182.5 544.7 181.3 547.2 180.0 C 548.7 182.5 550.0 185.1 550.8 187.9 C 546.3 191.1 542.1 194.7 537.3 197.4 C 531.9 200.4 529.9 206.6 526.1 211.1 C 523.1 214.7 521.3 219.2 521.3 223.9 C 524.5 231.2 525.3 239.2 527.1 246.9 C 527.4 246.8 528.1 246.7 528.4 246.6 C 529.1 251.0 530.7 255.2 531.7 259.5 C 533.7 266.2 535.2 273.0 538.5 279.2 C 538.0 280.3 537.4 281.4 536.8 282.6 C 539.2 286.1 537.7 290.5 539.6 294.2 C 541.7 299.2 542.8 304.5 544.3 309.7 C 545.7 314.6 545.6 320.1 548.6 324.5 C 551.8 329.0 552.4 335.1 551.2 340.4 C 547.7 347.3 542.4 355.2 533.7 355.3 C 528.6 353.0 523.4 350.6 517.7 350.1 C 505.9 348.7 494.3 345.7 482.6 343.8 C 470.1 342.7 459.2 336.0 448.0 331.0 C 445.0 329.4 440.5 328.6 440.3 324.5 C 439.7 324.8 439.0 325.1 438.4 325.4 C 436.2 323.2 433.0 322.9 430.3 321.6 C 426.7 319.8 423.6 317.0 420.6 314.3 C 418.9 315.3 416.5 315.8 416.0 317.9 C 415.2 320.5 413.9 323.1 414.1 325.8 C 415.1 330.4 418.7 333.7 422.1 336.7 C 420.4 336.5 418.8 336.3 417.1 336.1 C 418.5 338.9 420.3 341.8 423.6 342.5 C 428.6 343.7 433.8 344.5 438.4 347.1 C 433.8 349.6 428.6 350.7 424.3 353.6 C 427.6 355.3 430.5 357.7 434.2 358.6 C 439.0 359.9 444.1 360.2 449.0 360.0 C 451.1 360.1 453.4 359.8 455.3 360.7 C 461.8 363.6 467.7 367.4 473.3 371.7 C 471.9 371.6 470.4 371.4 469.0 371.3 C 471.1 374.1 473.9 376.2 476.1 378.9 C 477.5 381.7 478.1 385.2 480.6 387.3 C 482.8 388.4 485.1 389.3 487.2 390.5 C 485.3 390.0 483.3 389.4 481.4 389.0 C 482.7 393.0 487.1 394.1 489.5 397.3 C 487.5 396.7 485.5 395.8 483.5 394.9 C 482.7 397.6 484.2 399.8 485.8 401.8 C 483.4 400.6 481.2 398.9 479.0 397.5 C 475.2 397.8 471.9 399.5 468.8 401.4 C 466.1 401.5 464.7 398.8 463.3 397.0 C 461.8 397.6 460.3 398.2 458.9 398.9 C 459.6 400.0 460.4 401.2 461.2 402.4 C 457.8 401.4 454.5 400.1 450.9 400.1 C 449.2 400.3 448.8 398.3 448.1 397.1 C 447.1 397.2 446.1 397.4 445.2 397.5 C 440.1 392.3 432.3 387.5 432.6 379.3 C 429.7 377.3 427.2 374.8 426.4 371.3 C 426.1 369.3 424.4 368.2 422.7 367.5 C 422.0 371.9 422.0 376.6 419.9 380.7 C 419.6 380.7 418.9 380.6 418.6 380.6 C 415.8 371.0 410.0 362.8 404.0 355.0 C 403.1 353.1 401.2 352.8 399.3 353.3 C 397.9 353.6 396.6 353.4 395.5 352.8 C 395.3 352.2 394.9 351.2 394.8 350.6 C 396.9 349.8 399.1 349.0 401.2 348.0 C 397.8 347.3 394.3 347.1 390.9 346.3 C 390.6 345.1 390.3 343.9 390.1 342.6 C 389.3 343.9 388.6 345.2 387.8 346.4 C 386.2 340.2 386.8 333.7 387.3 327.4 C 387.8 325.1 385.7 323.6 384.9 321.8 C 384.2 318.6 385.1 315.1 384.0 311.9 C 381.0 309.8 378.0 307.5 375.9 304.4 C 371.3 306.5 366.9 308.8 362.9 311.9 C 358.5 315.3 353.1 316.6 348.4 319.4 C 346.0 320.9 343.2 321.4 340.6 322.5 C 337.8 324.1 335.2 326.0 332.1 327.0 C 327.8 328.7 323.1 328.2 318.7 329.5 C 313.3 331.0 306.9 330.2 302.4 334.2 C 311.0 333.3 319.9 332.1 328.4 334.7 C 331.6 335.8 335.5 336.7 337.1 340.0 C 340.4 340.3 343.2 342.2 345.2 344.7 C 348.6 348.3 353.2 350.1 357.1 352.8 C 365.0 357.9 374.5 358.6 383.1 361.8 C 388.3 363.9 394.1 362.9 399.5 363.6 C 404.4 366.2 405.6 372.8 405.0 377.8 C 402.7 383.1 401.9 388.8 401.9 394.4 C 402.8 394.4 403.6 394.4 404.4 394.4 C 405.9 401.9 407.8 410.2 404.0 417.4 C 402.8 417.4 401.6 417.3 400.4 417.3 C 401.1 418.2 401.7 419.0 402.4 419.9 C 397.5 423.8 399.0 432.2 392.6 434.7 C 390.0 435.7 386.8 433.9 386.7 431.0 C 386.5 425.6 386.5 420.2 385.0 415.0 C 384.0 410.9 380.7 407.8 379.1 404.0 C 377.3 399.5 374.1 395.7 371.0 392.1 C 371.3 390.9 371.6 389.7 371.9 388.5 C 370.8 389.3 369.8 390.2 368.8 391.0 C 361.8 386.7 353.6 385.6 345.9 382.9 C 342.0 381.5 337.8 381.2 333.7 380.5 C 328.2 379.6 323.0 377.3 317.6 376.1 C 310.7 373.3 301.9 373.8 297.3 367.1 C 297.1 368.1 296.8 369.1 296.5 370.1 C 291.3 366.3 284.8 366.3 278.9 364.3 C 271.0 363.1 262.6 361.9 256.1 356.9 C 252.9 352.6 250.6 347.5 249.7 342.1 C 250.9 337.9 252.8 333.9 255.5 330.5 C 258.9 326.2 263.4 323.0 266.7 318.7 C 272.1 313.8 276.0 307.3 282.3 303.5 C 282.9 300.3 285.3 298.1 287.6 296.0 C 287.6 297.2 287.6 298.4 287.6 299.6 C 288.9 297.3 289.5 294.5 291.5 292.5 C 299.6 284.1 309.2 277.3 319.1 271.3 C 321.9 268.6 325.7 267.3 329.4 266.3 C 329.4 264.7 329.4 263.0 329.3 261.3 C 330.0 261.2 331.4 260.9 332.0 260.8 C 331.3 259.6 330.5 258.4 329.8 257.2 C 331.3 254.5 332.6 251.8 333.3 248.8 C 325.6 249.1 320.2 255.3 313.2 257.8 C 314.4 253.0 317.0 248.8 318.2 244.0 C 315.5 245.5 312.5 246.5 310.0 248.2 C 307.8 251.9 306.1 256.0 303.0 259.1 C 300.7 261.6 297.2 262.4 294.7 264.7 C 291.8 267.2 289.1 269.9 286.0 272.2 C 286.7 270.7 287.4 269.3 288.1 267.8 C 286.0 268.1 283.7 268.0 281.7 268.7 C 280.5 269.6 279.5 270.8 278.5 271.9 C 276.1 270.9 273.8 269.5 271.2 269.1 C 270.0 269.9 269.0 270.9 267.9 271.9 C 266.3 270.7 264.6 269.4 263.0 268.2 C 259.8 269.1 256.5 269.9 253.4 270.9 C 251.7 269.4 249.9 268.0 248.1 266.6 C 251.6 264.6 253.8 261.1 255.5 257.5 C 256.6 255.9 254.9 254.4 254.2 253.0 C 256.3 251.9 258.6 251.0 260.6 249.7 C 261.6 248.2 262.0 246.5 262.6 244.8 C 261.0 244.6 259.4 244.4 257.7 244.2 C 261.6 242.1 266.0 242.0 270.3 242.6 C 271.3 241.0 272.4 239.6 273.4 238.1 C 270.3 236.0 266.2 237.7 262.7 237.3 C 265.9 235.8 269.4 235.2 272.9 235.4 C 278.2 235.8 283.4 234.6 288.7 234.5 C 285.5 233.2 282.0 232.8 278.7 231.9 C 289.1 230.9 298.8 236.2 309.1 237.0 C 309.1 236.3 309.2 235.0 309.2 234.3 C 305.3 232.7 303.6 228.8 302.5 225.1 C 314.2 228.3 326.5 226.9 338.5 226.2 C 344.3 226.3 350.1 228.0 355.9 228.3 C 361.3 223.5 364.9 217.1 369.9 211.8 C 371.2 212.6 372.6 213.4 374.0 214.1 C 377.6 206.8 373.8 198.7 376.1 191.1 C 377.9 184.8 378.6 178.2 380.9 172.0 C 383.7 164.9 387.6 158.0 388.3 150.3 C 386.4 151.6 384.5 153.2 383.7 155.5 C 381.2 162.2 377.5 168.4 372.4 173.4 C 365.0 179.4 355.6 181.6 346.9 185.0 C 336.2 190.7 327.5 199.7 320.2 209.3 C 319.2 208.7 318.2 208.1 317.2 207.5 C 318.0 209.2 318.8 211.0 319.8 212.7 C 316.2 215.2 313.5 218.7 309.8 221.0 C 307.0 221.4 304.0 221.6 301.3 220.8 C 296.5 217.6 292.4 213.3 290.4 207.8 C 290.5 208.9 290.7 210.0 290.8 211.1 C 287.3 210.1 283.8 209.1 280.2 208.3 C 280.1 207.3 279.9 206.3 279.8 205.3 C 278.3 205.9 276.7 206.8 275.0 207.0 C 272.3 206.4 270.0 204.9 267.9 203.2 C 263.2 199.1 258.0 194.3 258.4 187.6 C 257.1 186.8 255.7 186.1 254.4 185.4 C 254.5 183.3 254.1 181.0 255.0 179.0 C 256.3 176.8 258.3 175.1 260.0 173.2 C 260.9 173.8 261.8 174.4 262.7 175.0 C 263.6 177.7 265.4 179.9 267.7 181.4 C 269.5 181.8 271.3 181.8 273.0 182.0 C 281.1 184.2 290.0 182.6 297.6 186.7 C 297.9 186.5 298.6 186.1 298.9 185.9 C 298.0 185.6 296.3 184.9 295.5 184.5 C 299.0 183.1 302.9 182.7 306.5 181.5 C 309.0 180.1 310.9 177.7 313.0 175.8 C 314.9 174.1 317.4 173.1 319.4 171.4 C 321.5 168.4 322.3 164.6 324.9 161.9 C 326.9 159.9 329.4 158.5 331.5 156.5 C 334.4 154.0 336.3 150.7 338.9 147.9 C 341.7 145.0 344.9 142.5 348.0 140.0 C 350.7 137.7 352.3 134.4 355.2 132.2 C 359.3 129.1 364.0 126.3 366.9 121.9 C 369.6 117.7 375.7 117.4 377.6 112.6 C 380.7 107.5 384.8 103.0 389.4 99.2 Z" />
<path fill="#ffcb99" stroke="#ffcb99" stroke-width="0.09375" opacity="1.00" d=" M 372.0 123.0 C 379.5 116.3 386.5 109.1 393.0 101.5 C 396.6 101.8 400.5 101.4 404.0 102.9 C 406.6 104.0 406.9 107.1 407.8 109.5 C 408.7 109.7 409.5 109.8 410.4 110.0 C 410.5 114.7 411.4 120.0 415.2 123.2 C 414.1 123.6 413.0 124.1 411.9 124.5 C 413.1 125.0 414.2 125.5 415.4 126.1 C 414.9 127.0 414.5 127.9 414.1 128.8 C 415.1 129.2 416.0 129.7 417.0 130.1 C 416.4 130.9 415.8 131.7 415.1 132.4 C 415.9 133.0 417.3 134.0 418.1 134.6 C 416.0 134.7 413.9 134.6 411.8 134.5 C 414.2 135.7 416.8 136.5 419.0 138.0 C 420.4 139.7 421.2 141.9 422.2 143.8 C 421.4 143.9 419.7 144.2 418.9 144.4 C 419.9 145.4 421.0 146.4 422.0 147.4 C 421.0 148.2 420.0 148.9 419.0 149.7 C 420.2 149.9 421.5 150.1 422.8 150.3 C 423.4 152.7 423.9 155.1 424.5 157.5 C 422.4 157.1 420.2 156.7 418.0 156.3 C 421.6 158.1 425.0 160.5 427.1 164.1 C 426.8 165.0 426.4 166.0 426.0 167.0 C 427.1 168.4 428.2 169.8 429.2 171.2 C 427.8 171.1 426.3 170.9 424.8 170.7 C 427.5 173.5 429.0 177.1 429.4 180.9 C 428.5 180.9 426.7 181.0 425.7 181.0 C 427.3 182.4 428.8 183.7 429.8 185.6 C 427.5 185.2 425.2 184.5 422.9 184.0 C 425.0 185.7 427.4 186.9 429.5 188.4 C 429.2 190.7 429.5 193.1 430.4 195.3 C 429.4 196.7 428.7 198.2 427.7 199.6 C 429.0 202.0 429.2 204.6 429.2 207.2 C 423.7 208.0 416.7 208.6 412.8 203.7 C 409.5 204.4 406.3 205.5 402.9 206.3 C 398.8 207.0 395.0 204.8 391.1 204.1 C 387.5 205.0 384.3 206.9 381.0 208.6 C 381.5 198.9 381.7 189.0 384.4 179.6 C 385.1 177.5 384.9 175.3 384.5 173.2 C 387.0 169.6 388.0 165.2 390.6 161.7 C 391.7 157.7 393.3 153.9 394.4 150.0 C 395.2 147.0 392.5 144.9 390.9 142.8 C 388.6 143.6 386.4 144.4 384.1 145.2 C 382.0 151.7 379.1 157.8 375.5 163.6 C 373.6 165.3 371.7 167.0 371.7 169.8 C 368.6 171.1 365.6 172.9 363.2 175.2 C 360.9 177.5 357.4 176.7 354.6 177.6 C 351.2 179.6 347.7 182.4 343.4 181.7 C 340.2 185.2 335.9 187.3 332.5 190.5 C 329.3 193.4 324.1 194.9 323.7 199.9 C 322.7 200.1 321.6 200.3 320.5 200.5 C 317.2 205.5 314.2 210.8 310.9 215.9 C 307.0 215.6 303.0 215.5 299.1 214.7 C 300.1 213.0 301.0 211.2 301.3 209.2 C 300.2 209.9 299.1 210.5 298.0 211.1 C 297.5 209.7 297.1 208.4 296.7 207.0 C 295.8 207.3 294.9 207.6 294.1 207.9 C 294.9 206.9 295.8 206.0 296.6 205.0 C 293.0 204.9 289.1 205.0 286.2 202.4 C 285.5 203.3 284.7 204.2 283.9 205.2 C 279.3 201.4 273.1 199.6 267.2 200.4 C 268.2 199.7 269.2 199.0 270.2 198.3 C 268.0 196.5 266.3 194.1 264.4 192.0 C 264.9 190.9 265.6 190.0 266.2 189.0 C 263.7 186.5 261.0 184.2 258.1 182.3 C 258.8 179.9 259.9 177.6 260.8 175.2 C 261.1 175.4 261.7 175.8 262.0 176.0 C 261.9 177.6 261.7 179.1 261.6 180.7 C 267.9 183.3 273.9 187.4 280.9 187.7 C 288.5 187.9 296.4 189.6 303.7 186.7 C 308.1 185.2 311.2 181.4 315.2 179.1 C 318.6 177.3 320.6 173.8 322.6 170.6 C 324.4 167.4 328.4 166.5 330.2 163.3 C 332.3 159.8 335.9 157.5 338.2 154.2 C 339.8 152.1 341.6 150.1 344.1 149.0 C 344.6 147.7 344.6 145.9 346.2 145.2 C 349.5 143.3 351.6 140.0 354.5 137.5 C 356.3 136.8 358.1 136.5 359.9 135.8 C 360.7 134.5 361.0 132.9 361.5 131.5 C 365.7 129.7 370.8 127.9 372.0 123.0 Z" />
<path fill="#f1c63c" stroke="#f1c63c" stroke-width="0.09375" opacity="1.00" d=" M 464.3 142.5 C 464.7 142.4 465.6 142.2 466.0 142.1 C 466.6 143.7 467.4 145.3 467.8 147.0 C 467.3 149.1 466.0 150.8 464.9 152.6 C 463.8 149.3 464.0 145.9 464.3 142.5 Z" />
<path fill="#dcac34" stroke="#dcac34" stroke-width="0.09375" opacity="1.00" d=" M 458.1 145.2 C 460.5 144.2 459.6 148.3 457.7 148.0 C 456.1 147.8 456.8 145.5 458.1 145.2 Z" />
<path fill="#f1c63c" stroke="#f1c63c" stroke-width="0.09375" opacity="1.00" d=" M 452.6 151.6 C 453.3 150.6 454.4 149.6 455.8 150.1 C 458.3 151.2 460.1 153.3 462.0 155.2 C 463.7 154.6 465.4 154.0 467.2 153.4 C 470.1 156.2 473.0 159.2 473.6 163.5 C 474.4 163.5 475.2 163.6 476.0 163.6 C 475.9 166.9 475.5 170.2 474.1 173.2 C 472.7 172.3 471.4 171.3 470.0 170.4 C 468.5 173.8 467.6 177.7 469.2 181.2 C 470.1 179.5 470.3 177.3 471.8 175.8 C 473.1 175.4 474.5 175.3 475.8 175.0 C 475.5 177.6 475.2 180.1 474.8 182.6 C 470.2 184.6 467.8 189.0 464.7 192.6 C 461.1 196.6 461.5 202.3 460.1 207.2 C 459.1 212.6 455.9 217.2 451.9 221.0 C 449.9 224.1 446.7 227.5 448.0 231.4 C 452.5 226.4 457.0 221.4 462.5 217.5 C 464.5 216.0 465.9 214.0 467.4 212.1 C 467.1 211.6 466.5 210.7 466.2 210.2 C 467.3 210.3 468.5 210.3 469.6 210.4 C 471.0 207.4 472.9 204.5 476.2 203.4 C 475.2 205.7 474.1 207.9 473.1 210.1 C 471.6 214.3 468.2 217.4 466.5 221.5 C 462.9 223.9 459.7 226.7 456.3 229.3 C 452.9 232.0 448.9 233.4 444.9 235.1 C 444.6 229.9 445.9 224.9 448.3 220.4 C 447.0 220.3 445.7 220.2 444.5 220.1 C 446.3 219.3 448.3 219.0 450.0 217.9 C 451.4 216.4 451.7 214.3 452.3 212.4 C 453.7 211.4 455.3 210.6 455.9 209.0 C 458.5 203.2 458.6 196.7 460.0 190.6 C 456.3 189.5 454.4 185.7 451.9 183.0 C 452.4 182.0 453.0 181.0 453.5 180.0 C 449.8 178.7 448.5 174.7 448.9 171.0 C 448.7 168.9 450.9 167.8 451.5 166.0 C 451.2 164.2 450.6 162.4 450.4 160.5 C 452.0 158.4 454.1 156.8 456.5 155.9 C 456.5 154.3 456.6 152.7 456.6 151.1 C 455.2 151.3 453.9 151.4 452.6 151.6 Z" />
<path fill="#fa0002" stroke="#fa0002" stroke-width="0.09375" opacity="1.00" d=" M 383.7 155.5 C 384.5 153.2 386.4 151.6 388.3 150.3 C 387.6 158.0 383.7 164.9 380.9 172.0 C 378.6 178.2 377.9 184.8 376.1 191.1 C 373.8 198.7 377.6 206.8 374.0 214.1 C 372.6 213.4 371.2 212.6 369.9 211.8 C 364.9 217.1 361.3 223.5 355.9 228.3 C 350.1 228.0 344.3 226.3 338.5 226.2 C 332.8 220.9 325.5 217.8 319.8 212.7 C 318.8 211.0 318.0 209.2 317.2 207.5 C 318.2 208.1 319.2 208.7 320.2 209.3 C 327.5 199.7 336.2 190.7 346.9 185.0 C 355.6 181.6 365.0 179.4 372.4 173.4 C 377.5 168.4 381.2 162.2 383.7 155.5 Z" />
<path fill="#020200" stroke="#020200" stroke-width="0.09375" opacity="1.00" d=" M 466.0 159.7 C 466.3 158.1 466.1 156.2 468.0 155.5 C 467.9 156.9 467.9 158.3 467.8 159.7 C 467.4 159.7 466.5 159.7 466.0 159.7 Z" />
<path fill="#b20000" stroke="#b20000" stroke-width="0.09375" opacity="1.00" d=" M 474.4 156.4 C 475.3 156.3 477.1 156.2 478.0 156.1 L 479.2 155.9 C 478.6 158.4 478.2 160.9 477.6 163.3 C 476.5 161.1 475.4 158.8 474.4 156.4 Z" />
<path fill="#020200" stroke="#020200" stroke-width="0.09375" opacity="1.00" d=" M 413.9 160.4 C 417.1 160.5 420.9 160.1 423.2 162.7 C 420.0 162.3 416.9 161.5 413.9 160.4 Z" />
<path fill="#020100" stroke="#020100" stroke-width="0.09375" opacity="1.00" d=" M 453.1 168.8 C 453.9 165.9 455.0 163.0 457.1 160.8 C 456.6 163.5 455.4 166.1 455.3 168.9 C 454.7 168.9 453.6 168.8 453.1 168.8 Z" />
<path fill="#131005" stroke="#131005" stroke-width="0.09375" opacity="1.00" d=" M 458.8 166.2 C 458.3 163.4 460.1 160.9 463.1 160.8 C 463.6 163.7 461.6 165.7 458.8 166.2 Z" />
<path fill="#020100" stroke="#020100" stroke-width="0.09375" opacity="1.00" d=" M 465.2 161.8 C 467.3 163.8 469.3 166.0 470.4 168.8 C 469.3 168.1 468.2 167.4 467.1 166.6 C 466.4 168.2 465.7 169.8 465.0 171.3 C 464.5 168.2 464.8 165.0 465.2 161.8 Z" />
<path fill="#020100" stroke="#020100" stroke-width="0.09375" opacity="1.00" d=" M 481.9 173.9 C 480.9 171.4 481.2 168.7 482.9 166.6 C 483.5 169.1 483.4 171.7 481.9 173.9 Z" />
<path fill="#010100" stroke="#010100" stroke-width="0.09375" opacity="1.00" d=" M 453.8 175.6 C 455.7 174.3 457.9 173.5 460.1 173.1 C 461.9 173.2 463.4 174.5 465.0 175.3 C 463.7 175.4 462.4 175.6 461.2 175.8 C 459.3 177.4 459.7 180.0 459.4 182.1 C 457.8 179.7 456.2 177.3 453.8 175.6 Z" />
<path fill="#020200" stroke="#020200" stroke-width="0.09375" opacity="1.00" d=" M 418.9 173.9 C 421.7 174.1 424.1 175.4 426.2 177.0 C 423.5 176.8 420.5 176.4 418.9 173.9 Z" />
<path fill="#f5ca00" stroke="#f5ca00" stroke-width="0.09375" opacity="1.00" d=" M 262.7 175.0 C 266.2 177.3 269.6 179.6 273.0 182.0 C 271.3 181.8 269.5 181.8 267.7 181.4 C 265.4 179.9 263.6 177.7 262.7 175.0 Z" />
<path fill="#020100" stroke="#020100" stroke-width="0.09375" opacity="1.00" d=" M 463.1 188.5 C 463.1 184.7 462.8 180.5 465.2 177.3 C 465.8 180.7 464.6 183.9 464.0 187.2 C 466.3 186.1 468.3 184.4 470.3 182.9 C 469.4 186.2 466.5 188.4 463.1 188.5 Z" />
<path fill="#ffcb99" stroke="#ffcb99" stroke-width="0.09375" opacity="1.00" d=" M 519.4 189.9 C 522.3 189.4 524.6 187.3 527.1 185.8 C 527.7 186.5 528.3 187.2 528.9 187.9 C 531.9 184.6 536.3 187.3 540.0 187.1 C 542.7 186.6 545.3 185.7 548.0 185.3 C 542.8 193.0 530.5 193.8 528.2 203.8 C 527.7 203.3 526.7 202.4 526.1 201.9 C 526.2 203.7 526.8 205.5 526.2 207.3 C 524.4 208.2 522.6 206.5 520.9 206.0 C 521.7 207.2 522.6 208.4 523.4 209.7 C 522.4 210.9 521.2 212.0 520.4 213.4 C 519.9 215.5 520.3 218.0 518.7 219.7 C 517.7 221.4 515.5 221.1 513.9 221.5 C 515.6 223.3 517.5 225.0 519.8 226.2 C 519.0 229.5 519.1 232.9 519.2 236.3 C 517.7 235.8 516.2 235.4 514.7 235.1 C 516.4 236.4 518.2 237.6 520.1 238.7 C 521.0 243.3 523.5 247.4 525.6 251.5 C 524.8 251.5 523.3 251.5 522.6 251.5 C 524.1 253.3 525.7 255.1 527.1 257.1 C 525.3 256.8 523.5 256.4 521.8 256.1 C 524.1 258.1 526.8 259.9 528.6 262.5 C 529.6 264.9 529.6 267.5 530.4 270.0 C 529.8 270.0 528.5 269.9 527.9 269.9 C 531.1 273.1 531.7 277.7 534.1 281.5 C 531.9 280.3 529.8 279.1 527.5 278.1 C 529.5 282.0 533.4 284.4 535.5 288.2 C 533.5 287.7 531.6 286.9 529.6 286.2 C 531.9 289.0 534.3 291.8 536.2 294.9 C 534.4 294.1 532.6 293.2 530.7 292.4 C 532.7 294.6 534.9 296.7 536.7 299.0 C 536.0 300.1 535.3 301.2 534.7 302.3 C 535.6 302.6 537.4 303.0 538.3 303.2 C 537.9 304.4 537.4 305.5 537.0 306.7 C 537.9 307.7 539.3 308.5 539.2 310.0 C 539.2 313.4 540.8 316.3 541.6 319.5 C 540.3 318.8 539.0 318.1 537.8 317.4 C 540.4 320.0 543.0 322.6 545.3 325.5 C 544.6 325.8 543.3 326.5 542.6 326.8 C 544.2 329.2 545.7 331.6 547.2 334.1 C 545.2 332.8 543.3 331.2 540.9 330.8 C 543.5 333.6 546.9 336.2 547.4 340.3 C 545.9 339.3 544.5 338.2 543.1 337.1 C 543.8 338.8 544.5 340.5 545.2 342.3 C 544.1 341.9 543.0 341.5 541.8 341.1 C 542.6 342.3 543.3 343.5 544.0 344.7 C 541.2 346.7 538.4 349.1 535.0 350.0 C 526.8 348.2 518.5 347.2 510.5 344.7 C 503.7 342.6 496.3 343.9 489.5 341.4 C 485.2 340.0 480.4 340.8 476.5 338.5 C 475.0 337.7 473.4 337.1 471.9 336.4 C 472.5 335.3 473.1 334.1 473.8 332.9 C 471.7 334.2 469.5 335.5 467.3 336.7 C 466.1 334.9 465.2 332.4 462.8 332.2 C 459.6 331.8 456.4 331.3 453.2 330.8 C 453.5 329.3 453.8 327.9 454.1 326.5 C 451.7 327.5 449.7 330.0 446.9 329.3 C 448.7 327.2 450.6 325.1 452.2 322.9 C 449.4 324.0 447.1 325.9 444.8 327.6 C 444.3 326.2 443.9 324.7 443.5 323.3 C 446.1 322.4 449.0 321.6 450.5 319.0 C 446.3 320.0 442.1 322.7 437.8 321.3 C 437.2 320.3 436.9 319.2 436.8 318.1 C 435.5 318.5 434.2 319.0 432.9 319.4 C 432.9 314.8 438.0 314.1 440.0 310.8 C 435.8 311.7 432.7 315.0 428.4 315.9 C 428.7 315.0 429.3 313.2 429.6 312.4 C 428.6 312.4 426.5 312.5 425.5 312.6 C 427.0 309.9 429.7 308.1 431.5 305.7 C 428.1 307.2 425.3 311.0 421.2 309.6 C 422.2 308.3 423.3 307.1 424.4 305.9 C 422.3 306.2 420.3 306.8 418.2 307.0 C 420.5 305.0 424.1 304.6 425.7 301.8 C 428.6 297.4 432.8 294.2 436.8 291.0 C 435.7 290.9 433.5 290.7 432.4 290.6 C 433.5 289.3 434.7 288.0 436.0 286.7 C 435.4 286.3 434.8 285.8 434.2 285.4 C 438.3 285.1 438.7 280.4 441.7 278.4 C 444.3 280.9 447.5 282.3 450.9 283.1 C 450.7 283.6 450.2 284.6 450.0 285.1 C 454.6 285.5 458.5 288.2 463.1 289.0 C 466.1 292.0 470.7 294.5 474.7 291.7 C 475.0 292.9 475.2 294.0 475.4 295.1 C 476.2 294.4 477.0 293.6 477.8 292.9 C 477.9 293.4 478.2 294.3 478.3 294.8 C 478.7 294.2 479.1 293.6 479.6 293.1 C 483.9 295.4 486.7 299.6 490.8 302.2 C 496.5 305.9 501.9 310.9 503.4 317.9 C 504.2 317.3 505.0 316.8 505.8 316.3 C 507.1 317.5 508.4 318.7 509.7 319.9 C 511.4 318.2 513.1 316.4 514.8 314.7 C 514.0 311.9 513.3 308.9 511.3 306.6 C 508.8 303.7 507.0 300.0 503.7 297.8 C 504.0 295.3 503.1 293.0 502.1 290.7 C 498.9 277.2 504.4 263.6 503.1 250.0 C 502.5 240.2 498.7 231.1 494.6 222.4 C 492.9 218.2 490.5 213.9 491.0 209.2 C 493.6 205.9 498.4 207.7 501.8 205.9 C 507.4 203.7 514.2 199.9 514.2 193.1 C 515.2 193.7 516.1 194.3 517.0 194.8 C 517.9 193.2 518.6 191.6 519.4 189.9 Z" />
<path fill="#020200" stroke="#020200" stroke-width="0.09375" opacity="1.00" d=" M 311.6 201.4 C 312.5 198.1 314.7 195.3 317.6 193.7 C 317.6 194.4 317.5 195.7 317.5 196.4 C 316.9 196.6 315.8 197.1 315.2 197.3 C 315.1 199.5 314.2 201.3 311.6 201.4 Z" />
<path fill="#010101" stroke="#010101" stroke-width="0.09375" opacity="1.00" d=" M 309.4 201.6 C 311.3 200.7 312.1 203.3 313.4 204.3 C 310.4 204.5 307.5 204.3 304.6 203.6 C 305.8 202.2 307.7 202.0 309.4 201.6 Z" />
<path fill="#f1c63c" stroke="#f1c63c" stroke-width="0.09375" opacity="1.00" d=" M 385.3 211.2 C 387.1 210.5 388.9 209.6 390.9 209.4 C 394.7 209.9 398.5 212.3 399.6 216.1 C 401.1 214.6 402.1 212.7 402.2 210.5 C 406.4 211.7 410.8 209.3 415.0 211.1 C 415.6 213.4 412.6 213.8 411.3 215.0 C 413.0 216.2 414.9 216.9 417.0 217.2 C 416.2 216.5 415.4 215.7 414.5 215.0 C 420.7 208.9 431.7 215.6 430.8 223.7 C 430.4 225.1 430.4 227.7 428.3 226.7 C 427.4 224.0 427.6 221.1 426.9 218.3 C 425.0 217.1 423.1 215.9 421.0 215.3 C 418.7 216.1 417.5 218.7 415.6 220.1 C 416.5 221.6 417.4 223.2 418.3 224.7 C 420.8 223.6 423.1 221.7 426.0 222.1 C 425.9 224.3 424.3 225.7 422.8 227.1 C 424.9 228.5 425.9 230.8 427.0 233.0 C 419.0 234.9 410.6 235.1 402.5 233.9 C 405.6 230.1 410.8 231.7 414.7 233.1 C 414.6 232.6 414.3 231.5 414.2 230.9 C 415.4 230.9 416.6 230.9 417.8 230.8 C 417.8 230.4 417.8 229.6 417.8 229.1 C 414.9 229.1 412.1 229.2 409.2 229.3 C 408.2 226.2 405.5 224.3 403.5 221.9 C 406.7 222.7 409.5 224.4 412.6 225.6 C 411.6 224.1 410.5 222.7 409.4 221.4 C 409.9 221.1 410.9 220.5 411.4 220.1 C 410.0 218.3 408.6 216.6 407.1 214.9 C 404.1 219.3 401.5 223.9 398.1 228.1 C 397.1 229.6 395.3 230.0 393.7 230.5 C 394.6 227.3 395.2 224.0 397.5 221.5 C 398.5 220.5 398.6 219.1 398.9 217.9 C 396.2 219.9 393.7 221.9 390.9 223.7 C 391.6 223.9 393.2 224.1 394.0 224.2 C 390.4 225.5 387.6 228.2 385.7 231.6 C 387.8 231.7 389.9 231.7 392.0 232.0 C 394.7 232.3 397.2 233.9 400.0 233.4 C 402.4 236.0 404.5 238.9 406.2 242.0 C 409.9 239.5 414.4 238.5 418.9 238.7 C 419.0 239.3 419.3 240.6 419.5 241.2 C 420.2 240.2 421.0 239.2 421.8 238.2 C 421.7 237.5 421.4 236.1 421.2 235.5 C 422.1 236.6 423.0 237.9 423.9 239.1 C 426.6 236.8 428.5 233.9 429.5 230.4 C 432.1 227.1 432.5 222.8 434.7 219.2 C 435.7 220.2 436.7 221.3 437.7 222.4 C 435.9 226.6 435.7 231.7 438.3 235.7 C 440.0 233.4 439.4 230.7 438.3 228.4 C 440.2 229.2 441.2 231.1 441.9 233.0 C 441.4 233.9 440.8 234.8 440.3 235.7 C 441.8 237.9 443.7 239.6 445.4 241.7 C 444.0 242.6 442.6 243.4 441.2 244.2 C 441.4 243.2 441.5 242.2 441.7 241.2 C 438.9 238.3 435.9 235.7 433.0 232.9 C 430.9 235.4 428.9 238.0 427.1 240.6 C 429.6 243.0 431.1 247.0 435.0 247.3 C 433.0 244.1 430.1 241.0 430.9 236.9 C 432.5 238.7 433.5 241.2 435.9 242.0 C 439.6 243.5 442.6 246.5 446.8 246.3 C 446.1 248.1 445.4 250.0 444.9 251.9 C 443.7 251.9 442.5 251.9 441.3 252.0 C 440.6 255.1 439.8 258.3 438.3 261.3 C 436.4 262.6 433.8 262.0 431.9 261.0 C 429.7 260.1 429.7 257.2 428.9 255.3 C 431.8 256.3 434.5 257.8 437.5 258.7 C 435.0 256.5 432.3 253.4 428.6 254.1 C 428.2 254.9 427.6 256.4 427.2 257.2 C 426.0 253.0 424.9 248.5 421.7 245.3 C 418.7 245.0 415.2 244.8 414.3 241.3 C 412.5 241.6 410.8 241.9 409.0 242.1 C 412.2 244.0 415.7 245.7 417.6 248.9 C 410.9 247.0 404.1 244.1 399.8 238.2 C 398.6 236.1 396.0 235.6 393.9 234.6 C 394.2 235.7 394.6 236.9 394.9 238.1 C 393.6 238.0 392.3 238.0 391.0 238.0 C 391.4 236.7 391.8 235.3 392.1 234.0 C 386.7 235.8 380.9 235.6 375.4 236.9 C 376.0 235.8 376.5 234.7 377.1 233.6 C 380.0 234.1 382.6 232.6 384.2 230.2 C 382.2 230.9 380.2 231.9 378.3 232.7 C 379.9 230.3 382.5 228.1 381.8 224.8 C 379.1 225.6 378.1 228.4 376.3 230.3 C 373.5 231.8 370.5 233.1 367.3 232.0 C 368.9 230.4 370.3 228.5 371.8 226.9 C 374.5 225.8 377.5 224.9 378.6 221.8 C 374.9 220.3 370.9 222.2 369.5 225.8 C 368.4 225.5 367.3 225.1 366.2 224.8 C 366.8 226.1 367.4 227.3 368.0 228.5 C 366.5 227.6 362.9 225.9 364.9 223.9 C 367.6 221.4 371.0 219.7 374.1 217.8 C 376.0 217.7 377.8 217.9 379.7 218.0 C 381.2 215.5 382.4 212.4 385.3 211.2 Z" />
<path fill="#010000" stroke="#010000" stroke-width="0.09375" opacity="1.00" d=" M 382.8 219.0 C 384.7 216.1 387.3 213.1 391.1 213.1 C 394.0 212.8 396.2 215.1 397.9 217.1 C 396.0 217.7 394.2 218.2 392.4 218.7 C 392.8 218.0 393.5 216.6 393.8 215.9 C 390.7 218.4 386.5 218.4 382.8 219.0 Z" />
<path fill="#010101" stroke="#010101" stroke-width="0.09375" opacity="1.00" d=" M 499.5 222.0 C 499.8 219.3 500.9 216.5 503.1 214.8 C 502.9 217.6 500.9 220.1 501.4 223.0 C 502.1 224.5 503.1 225.9 503.9 227.4 C 501.9 226.3 499.5 224.6 499.5 222.0 Z" />
<path fill="#020100" stroke="#020100" stroke-width="0.09375" opacity="1.00" d=" M 381.0 223.3 C 381.5 222.1 382.1 221.0 382.7 219.8 C 384.7 221.1 387.0 222.0 389.1 223.2 C 389.6 225.4 388.0 226.9 386.3 228.0 C 384.9 226.0 383.0 224.5 381.0 223.3 Z" />
<path fill="#f1c63c" stroke="#f1c63c" stroke-width="0.09375" opacity="1.00" d=" M 360.9 228.1 C 361.7 228.1 363.4 228.2 364.2 228.2 C 363.7 231.2 362.8 234.3 363.7 237.3 C 367.4 238.5 371.3 239.6 374.4 242.0 C 375.9 237.5 381.5 238.3 385.3 238.4 C 385.4 239.2 385.4 240.0 385.5 240.8 C 386.9 241.5 388.2 242.3 389.4 243.3 C 385.6 244.6 381.2 244.6 377.5 246.4 C 377.3 246.8 376.9 247.6 376.6 248.0 C 379.9 247.3 383.2 246.2 386.6 245.8 C 386.4 246.3 385.9 247.2 385.7 247.6 C 381.8 248.2 377.5 249.6 374.0 247.2 C 374.0 247.8 374.0 249.2 373.9 249.9 C 373.1 250.4 372.2 250.9 371.4 251.5 C 371.4 254.0 371.3 256.5 371.1 259.0 C 367.8 257.3 364.8 255.2 361.4 253.6 C 362.5 255.3 362.9 257.4 364.4 258.7 C 366.6 259.6 369.1 259.9 371.4 260.5 C 369.2 261.7 366.8 262.6 364.5 263.6 C 361.8 257.8 357.9 252.7 353.8 247.9 C 354.4 246.8 355.1 245.8 355.8 244.8 C 355.1 244.4 353.8 243.6 353.1 243.2 C 353.6 239.6 355.4 236.5 358.1 234.1 C 359.0 235.1 360.0 236.1 360.9 237.1 C 360.8 234.1 360.8 231.1 360.9 228.1 Z" />
<path fill="#f1c63c" stroke="#f1c63c" stroke-width="0.09375" opacity="1.00" d=" M 305.5 228.3 C 309.5 228.6 312.8 232.0 317.0 231.5 C 325.9 231.3 334.9 230.8 343.8 231.5 C 346.6 231.8 349.7 231.9 351.8 234.0 C 350.1 236.2 347.0 236.3 344.5 235.4 C 340.1 233.8 335.4 234.0 330.7 234.1 C 331.8 235.0 332.9 235.8 333.9 236.6 C 329.4 239.5 323.7 237.2 319.2 240.2 C 315.1 242.5 309.0 241.8 306.6 246.5 C 305.0 248.5 304.9 251.0 304.4 253.4 C 303.1 249.6 302.2 245.6 300.7 241.9 C 296.8 242.5 292.9 242.8 289.2 244.1 C 287.2 244.7 286.7 246.9 285.8 248.5 C 282.8 248.5 279.8 248.5 276.8 248.3 C 278.2 246.5 279.6 244.8 281.0 242.9 C 276.8 242.7 275.2 246.6 273.3 249.5 C 273.7 249.8 274.7 250.5 275.2 250.9 C 275.0 253.2 274.9 255.6 274.7 257.9 C 277.2 256.1 279.8 257.5 282.1 258.9 C 284.4 256.8 287.1 254.8 290.5 254.8 C 290.4 258.2 287.0 259.5 284.9 261.4 C 288.1 260.9 291.0 259.0 294.4 259.0 C 292.4 262.2 289.2 264.2 285.9 265.7 C 285.6 265.0 285.0 263.6 284.7 262.9 C 281.8 264.4 279.0 266.0 276.1 267.7 C 275.2 266.6 274.2 265.6 273.3 264.5 C 276.3 263.1 280.2 262.7 282.4 259.8 C 279.7 259.9 277.6 261.7 275.1 262.3 C 272.9 261.4 270.5 261.0 268.0 261.3 C 269.2 262.2 270.5 263.1 271.7 264.0 C 270.7 265.4 269.6 266.8 268.5 268.1 C 266.2 266.7 264.5 264.2 265.2 261.4 C 266.9 259.4 268.8 257.6 270.1 255.3 C 265.8 254.2 263.6 259.0 259.4 258.4 C 259.7 255.4 261.5 253.0 263.1 250.6 C 264.9 251.6 266.7 252.7 268.5 253.8 C 267.6 252.0 266.5 250.3 265.4 248.7 C 267.6 246.6 270.2 245.1 273.2 244.3 C 276.2 243.7 276.7 240.0 279.1 238.6 C 281.2 238.5 283.3 238.8 285.5 239.1 C 284.8 241.2 283.4 242.9 282.0 244.5 C 287.1 244.9 288.7 239.6 292.2 237.1 C 294.1 237.4 295.4 239.3 296.9 240.3 C 298.3 239.7 299.6 239.0 301.0 238.4 C 302.5 239.5 303.8 241.7 306.0 241.2 C 310.6 240.4 315.0 238.8 319.4 237.4 C 315.7 233.0 308.2 234.0 305.5 228.3 Z" />
<path fill="#010000" stroke="#010000" stroke-width="0.09375" opacity="1.00" d=" M 318.2 234.1 C 321.6 234.2 325.2 234.0 328.6 235.1 C 326.2 236.9 323.2 237.2 320.3 237.9 C 319.6 236.6 318.9 235.4 318.2 234.1 Z" />
<path fill="#f1c63c" stroke="#f1c63c" stroke-width="0.09375" opacity="1.00" d=" M 336.0 237.1 C 338.5 235.5 341.6 235.8 344.4 235.8 C 342.0 238.9 339.2 241.9 335.6 243.6 C 329.6 245.3 324.6 249.1 318.7 250.9 C 323.6 245.3 329.9 241.2 336.0 237.1 Z" />
<path fill="#d3a231" stroke="#d3a231" stroke-width="0.09375" opacity="1.00" d=" M 406.4 236.4 C 407.2 235.5 409.6 234.9 409.9 236.6 C 409.6 238.4 405.0 238.8 406.4 236.4 Z" />
<path fill="#f1c53c" stroke="#f1c53c" stroke-width="0.09375" opacity="1.00" d=" M 388.7 247.2 C 390.8 243.5 393.3 240.1 396.7 237.6 C 397.3 238.7 397.9 239.9 398.5 241.0 C 394.5 241.8 391.9 244.9 388.7 247.2 Z" />
<path fill="#f1c63c" stroke="#f1c63c" stroke-width="0.09375" opacity="1.00" d=" M 338.2 249.2 C 340.8 244.9 344.9 241.2 350.0 240.6 C 350.8 244.8 351.0 249.5 354.0 252.9 C 348.4 254.6 343.3 257.4 338.2 260.1 C 336.0 261.1 339.0 263.3 338.4 265.0 C 335.9 271.8 332.2 278.0 330.0 284.9 C 329.5 286.7 328.3 288.0 327.2 289.4 C 325.9 288.9 324.6 288.4 323.3 288.0 C 324.2 289.7 325.3 291.4 326.9 292.7 C 326.5 292.8 325.7 292.9 325.4 293.0 C 324.3 291.5 323.2 290.2 322.0 288.8 C 324.6 285.4 327.0 281.7 328.9 277.8 C 329.9 273.5 331.7 269.4 333.3 265.3 C 334.3 259.7 335.8 254.2 338.2 249.2 Z" />
<path fill="#000000" stroke="#000000" stroke-width="0.09375" opacity="1.00" d=" M 358.3 241.2 C 358.9 241.2 360.1 241.2 360.7 241.2 C 362.5 244.3 364.7 247.2 365.2 250.9 C 362.7 248.7 359.8 247.1 356.4 247.9 C 357.0 245.7 357.7 243.4 358.3 241.2 Z" />
<path fill="#f1c63c" stroke="#f1c63c" stroke-width="0.09375" opacity="1.00" d=" M 447.6 242.3 C 451.8 239.2 456.7 242.2 459.6 245.5 C 461.1 248.2 463.2 250.8 463.2 254.0 C 463.8 260.0 467.1 265.8 466.2 271.9 C 466.5 271.7 467.3 271.4 467.7 271.3 C 467.5 272.7 466.9 274.2 467.2 275.7 C 468.2 277.8 470.2 279.6 470.4 282.0 C 470.8 284.5 470.4 286.9 470.0 289.4 C 464.8 287.9 463.9 281.9 463.3 277.4 C 461.8 272.4 460.2 267.5 457.9 262.8 C 457.2 260.6 457.9 258.1 456.7 256.1 C 454.3 256.0 451.8 256.3 449.4 256.7 C 448.8 256.0 448.1 255.2 447.4 254.5 C 449.5 250.8 450.5 245.9 447.6 242.3 Z" />
<path fill="#020200" stroke="#020200" stroke-width="0.09375" opacity="1.00" d=" M 364.0 241.9 C 366.6 243.2 369.3 244.2 372.3 244.4 C 371.1 247.3 369.2 249.9 367.0 252.2 C 367.2 250.5 367.5 248.8 367.8 247.1 C 366.4 245.4 365.1 243.7 364.0 241.9 Z" />
<path fill="#020200" stroke="#020200" stroke-width="0.09375" opacity="1.00" d=" M 374.7 244.2 C 376.7 242.9 379.0 242.2 381.4 242.1 C 379.5 243.8 377.1 244.2 374.7 244.2 Z" />
<path fill="#020200" stroke="#020200" stroke-width="0.09375" opacity="1.00" d=" M 423.1 241.8 C 426.8 244.1 429.7 247.8 430.9 252.2 C 428.9 252.0 428.6 249.8 427.7 248.4 C 426.4 246.0 424.5 244.1 423.1 241.8 Z" />
<path fill="#f1c63c" stroke="#f1c63c" stroke-width="0.09375" opacity="1.00" d=" M 288.6 251.0 C 290.3 246.9 294.3 243.7 299.0 244.6 C 299.1 246.4 299.3 248.2 299.5 250.0 C 295.9 250.6 292.3 251.9 288.6 251.0 Z" />
<path fill="#ffcb99" stroke="#ffcb99" stroke-width="0.09375" opacity="1.00" d=" M 378.7 252.7 C 385.5 249.2 393.9 249.6 400.1 244.7 C 402.5 246.6 405.0 248.5 408.1 248.7 C 415.7 249.4 422.1 254.8 425.8 261.3 C 426.5 267.6 425.8 274.2 424.3 280.4 C 420.2 289.1 413.8 296.4 408.4 304.4 C 405.7 305.8 403.2 308.1 399.9 308.0 C 396.3 308.1 392.9 306.5 389.6 305.1 C 388.4 307.8 384.8 307.9 383.5 305.2 C 385.1 305.1 386.8 305.1 388.4 305.1 C 385.8 300.5 382.2 296.8 379.0 292.7 C 378.2 292.8 376.6 292.9 375.8 293.0 C 376.7 291.9 377.5 290.9 378.4 289.8 C 377.0 288.4 375.5 287.1 374.0 285.8 C 373.5 280.0 373.5 274.2 373.6 268.5 C 374.7 268.0 375.8 267.6 377.0 267.4 C 376.9 270.5 378.5 273.1 380.7 275.1 C 380.2 273.6 379.7 272.1 379.3 270.6 C 382.3 269.8 383.2 272.7 384.6 274.6 C 386.7 275.8 389.1 276.4 391.1 277.7 C 392.4 276.9 393.6 276.0 394.8 275.0 C 393.6 275.1 391.3 275.3 390.1 275.3 C 390.9 273.5 393.4 271.5 392.0 269.3 C 390.2 266.8 386.8 266.5 384.0 266.9 C 381.9 267.0 378.5 268.2 378.2 265.0 C 379.3 265.2 380.4 265.3 381.5 265.5 C 382.9 264.0 384.7 262.4 386.9 262.8 C 389.4 264.1 391.8 265.8 394.6 266.2 C 393.2 260.6 386.6 260.7 382.0 261.7 C 378.2 261.9 376.0 265.3 373.6 267.8 C 373.5 264.5 373.5 261.2 373.5 257.9 C 375.3 256.2 377.0 254.4 378.7 252.7 Z" />
<path fill="#020200" stroke="#020200" stroke-width="0.09375" opacity="1.00" d=" M 434.1 252.1 C 434.9 249.5 435.8 246.9 436.9 244.5 C 437.7 246.1 439.0 247.8 438.9 249.7 C 437.8 251.3 435.8 251.5 434.1 252.1 Z" />
<path fill="#f1c63c" stroke="#f1c63c" stroke-width="0.09375" opacity="1.00" d=" M 277.8 254.6 C 278.5 250.6 283.4 250.4 286.3 248.7 C 285.8 250.9 286.4 253.9 284.4 255.5 C 282.2 256.0 279.9 255.0 277.8 254.6 Z" />
<path fill="#f0c63c" stroke="#f0c63c" stroke-width="0.09375" opacity="1.00" d=" M 293.9 256.8 C 293.6 253.8 295.7 251.9 298.0 250.5 C 299.9 252.3 299.5 254.7 298.8 256.9 C 297.1 256.9 295.5 256.8 293.9 256.8 Z" />
<path fill="#f1c63c" stroke="#f1c63c" stroke-width="0.09375" opacity="1.00" d=" M 349.6 259.2 C 350.8 257.2 352.7 255.7 354.8 254.7 C 355.9 256.7 357.0 258.7 358.2 260.8 C 355.6 259.1 352.5 259.0 349.6 259.2 Z" />
<path fill="#f1c53c" stroke="#f1c53c" stroke-width="0.09375" opacity="1.00" d=" M 450.7 258.9 C 452.4 258.6 454.2 258.5 455.9 258.9 C 455.3 259.1 454.0 259.6 453.4 259.8 C 455.7 263.8 456.0 268.6 458.3 272.7 C 459.6 275.3 460.6 278.2 461.9 280.8 C 461.2 281.4 460.4 282.0 459.7 282.7 C 455.4 275.3 453.3 267.0 450.7 258.9 Z" />
<path fill="#f1c63c" stroke="#f1c63c" stroke-width="0.09375" opacity="1.00" d=" M 254.8 261.4 C 258.0 260.8 261.1 259.9 264.2 259.1 C 263.5 262.8 260.5 265.3 256.9 266.2 C 256.2 264.6 255.5 263.0 254.8 261.4 Z" />
<path fill="#f1c63c" stroke="#f1c63c" stroke-width="0.09375" opacity="1.00" d=" M 342.5 261.4 C 343.1 261.2 344.5 260.7 345.2 260.5 C 345.0 263.6 345.4 267.0 343.7 269.8 C 341.9 273.2 340.6 276.9 339.7 280.7 C 338.0 281.1 336.2 281.5 334.5 282.1 C 336.3 279.9 336.1 277.1 336.4 274.5 C 339.4 270.6 341.5 266.2 342.5 261.4 Z" />
<path fill="#f1c63c" stroke="#f1c63c" stroke-width="0.09375" opacity="1.00" d=" M 346.7 266.8 C 347.2 264.6 347.0 261.2 350.0 260.8 C 351.6 263.1 349.7 265.8 349.2 268.2 C 347.3 272.6 346.6 278.4 342.2 281.2 C 343.7 276.4 346.2 271.9 346.7 266.8 Z" />
<path fill="#000000" stroke="#000000" stroke-width="0.09375" opacity="1.00" d=" M 401.0 267.0 C 404.2 264.9 407.2 261.8 411.2 261.5 C 413.6 261.4 416.0 261.1 418.3 261.7 C 420.9 264.7 422.2 268.9 420.6 272.7 C 419.3 276.4 414.4 277.8 410.9 276.1 C 410.1 274.7 409.7 273.2 409.1 271.7 C 408.0 271.9 404.0 271.9 405.8 273.8 C 407.0 275.2 408.3 276.6 409.3 278.2 C 407.0 277.6 404.9 276.4 402.7 275.6 C 405.0 279.1 405.5 283.3 404.9 287.4 C 402.5 284.0 401.9 280.0 401.6 276.0 C 401.8 274.4 400.6 272.2 402.0 271.0 C 407.7 268.2 414.3 268.9 420.5 268.4 C 418.8 265.9 415.6 265.7 412.9 265.5 C 410.7 265.5 408.2 264.7 406.6 266.6 C 405.1 267.6 404.1 269.7 402.2 269.9 C 401.9 269.2 401.3 267.7 401.0 267.0 Z" />
<path fill="#f1c63c" stroke="#f1c63c" stroke-width="0.09375" opacity="1.00" d=" M 349.9 277.5 C 350.5 272.1 351.5 266.3 354.9 261.7 C 354.8 267.3 353.3 273.0 349.9 277.5 Z" />
<path fill="#f1c53c" stroke="#f1c53c" stroke-width="0.09375" opacity="1.00" d=" M 441.0 261.4 C 444.5 264.9 445.8 269.9 446.3 274.6 C 442.6 271.3 442.2 266.0 441.0 261.4 Z" />
<path fill="#f1c63c" stroke="#f1c63c" stroke-width="0.09375" opacity="1.00" d=" M 447.0 261.8 C 450.2 267.1 451.3 273.5 454.8 278.5 C 454.5 279.3 454.2 280.0 454.0 280.8 C 452.7 280.4 451.4 280.0 450.1 279.7 C 450.1 273.5 446.7 267.9 447.0 261.8 Z" />
<path fill="#f1c63c" stroke="#f1c63c" stroke-width="0.09375" opacity="1.00" d=" M 355.9 276.1 C 356.5 271.5 356.8 265.6 360.9 262.6 C 361.1 264.6 362.2 266.8 360.7 268.5 C 358.9 270.9 357.3 273.5 355.9 276.1 Z" />
<path fill="#f1c63c" stroke="#f1c63c" stroke-width="0.09375" opacity="1.00" d=" M 360.8 273.6 C 361.4 270.0 363.3 264.3 368.0 265.7 C 365.8 269.5 363.0 272.8 360.2 276.0 C 359.7 275.2 359.3 274.4 358.9 273.6 C 359.3 273.6 360.3 273.6 360.8 273.6 Z" />
<path fill="#f1c53c" stroke="#f1c53c" stroke-width="0.09375" opacity="1.00" d=" M 437.3 264.7 C 438.3 266.0 439.2 267.3 440.1 268.6 C 438.7 269.6 437.4 270.6 436.0 271.5 C 436.5 272.3 437.1 273.2 437.7 274.0 C 438.8 273.5 439.9 273.2 441.0 272.8 C 441.1 273.4 441.3 274.5 441.4 275.1 C 439.5 274.8 437.6 274.7 435.7 274.2 C 434.5 272.7 433.7 271.0 432.8 269.4 C 431.5 270.1 430.3 270.8 429.0 271.4 C 430.3 269.1 432.1 267.1 434.0 265.3 C 434.8 266.8 435.5 268.5 437.0 269.6 C 437.1 268.0 437.2 266.3 437.3 264.7 Z" />
<path fill="#f1c63c" stroke="#f1c63c" stroke-width="0.09375" opacity="1.00" d=" M 366.2 270.8 C 368.6 272.7 370.5 275.2 371.3 278.2 C 368.2 277.0 367.0 273.8 366.2 270.8 Z" />
<path fill="#f4c392" stroke="#f4c392" stroke-width="0.09375" opacity="1.00" d=" M 416.4 272.5 C 417.6 270.8 419.9 272.8 418.0 274.1 C 416.8 275.9 414.6 273.7 416.4 272.5 Z" />
<path fill="#ffcb99" stroke="#ffcb99" stroke-width="0.09375" opacity="1.00" d=" M 317.5 276.6 C 320.7 275.3 323.6 273.4 326.9 272.6 C 324.2 277.3 323.4 282.9 320.2 287.3 C 317.9 290.7 322.1 294.0 325.4 293.0 C 325.7 292.9 326.5 292.8 326.9 292.7 C 331.0 289.4 336.0 287.6 340.9 286.1 C 343.3 285.8 344.6 283.6 346.7 282.8 C 349.3 281.8 352.0 281.5 354.7 281.4 C 357.4 281.5 359.3 279.3 361.7 278.5 C 362.0 281.8 361.6 285.3 362.7 288.4 C 366.1 292.8 368.3 298.0 369.9 303.3 C 366.9 303.0 365.4 300.4 364.1 298.0 C 364.3 300.3 364.4 302.6 364.2 304.9 C 363.2 304.7 362.3 304.5 361.3 304.3 C 361.6 305.6 361.9 306.8 362.2 308.0 C 359.2 307.2 356.3 307.1 354.0 309.4 C 353.2 306.7 353.7 303.2 350.9 301.5 C 351.0 305.2 352.3 308.8 352.1 312.5 C 349.9 309.5 350.3 305.0 346.9 302.7 C 347.0 305.9 348.1 308.9 349.2 311.9 C 347.5 313.3 345.9 314.7 344.1 316.0 C 342.8 313.7 341.7 311.3 340.5 309.0 C 340.5 312.4 341.3 316.2 339.0 319.1 C 338.3 316.6 337.7 314.1 336.7 311.8 C 336.5 314.4 336.4 317.1 336.1 319.8 C 335.5 319.0 334.9 318.1 334.3 317.2 C 334.2 319.7 332.7 321.3 330.1 320.3 C 330.8 321.5 331.5 322.7 332.2 323.9 C 329.4 323.1 326.4 322.9 323.5 322.9 C 323.7 319.3 323.2 315.7 321.2 312.8 C 321.3 316.7 322.3 320.6 321.4 324.5 C 319.4 324.4 317.4 324.2 315.5 324.0 C 314.9 321.5 314.4 319.1 313.5 316.8 C 313.1 320.1 314.4 324.1 311.5 326.5 C 311.4 324.8 311.2 323.0 311.0 321.3 C 309.5 322.1 309.1 323.8 308.5 325.3 C 307.8 323.8 307.1 322.3 306.3 320.8 C 306.5 323.8 305.8 326.8 303.8 329.1 C 302.6 327.7 301.5 326.3 300.5 324.9 C 300.1 329.0 296.3 331.3 294.9 334.9 C 295.8 336.5 296.9 338.0 297.8 339.6 C 304.5 339.1 311.7 339.4 317.8 336.2 C 322.2 341.5 330.0 340.0 335.6 343.4 C 340.1 347.5 345.0 351.1 350.7 353.3 C 353.0 355.4 355.0 357.6 357.3 359.7 C 358.2 359.2 359.2 358.7 360.1 358.2 C 362.8 361.1 366.9 361.4 370.4 362.5 C 372.8 364.5 376.3 363.5 378.7 365.4 C 381.8 367.5 385.7 366.7 389.1 366.2 C 391.7 366.6 394.2 367.3 396.7 368.0 C 398.2 369.0 399.0 370.7 400.1 372.1 C 399.1 374.5 398.3 377.0 396.7 379.0 C 397.5 380.5 398.2 382.2 397.8 383.9 C 396.4 383.4 395.1 382.8 393.8 382.2 C 394.1 383.8 394.5 385.3 395.0 386.8 C 395.4 386.3 396.4 385.5 396.9 385.1 C 398.0 386.9 396.8 389.0 396.9 391.0 C 397.2 392.4 398.7 393.2 399.6 394.2 C 399.5 397.5 399.5 400.9 398.3 404.0 C 399.0 404.0 400.5 404.0 401.3 404.0 C 401.3 406.9 401.3 409.8 401.3 412.7 C 400.8 412.7 399.9 412.5 399.4 412.4 C 398.4 417.5 395.6 422.0 393.8 426.9 C 393.2 428.6 391.7 429.8 390.4 431.1 C 390.6 425.4 391.2 419.7 390.1 414.1 C 389.0 410.8 387.0 407.9 385.2 404.9 C 383.0 401.0 382.2 395.7 377.7 393.7 C 377.7 393.1 377.9 391.9 377.9 391.3 C 377.1 391.5 376.2 391.6 375.4 391.7 C 374.7 390.4 374.1 389.0 373.5 387.7 C 368.7 386.9 364.9 383.7 360.2 382.7 C 357.4 382.2 355.6 378.6 352.4 379.6 C 351.7 378.8 351.1 377.5 349.7 377.6 C 344.2 376.9 338.3 377.1 333.1 374.9 C 331.8 374.4 331.1 373.1 330.1 372.1 C 329.2 373.3 328.4 374.5 327.6 375.7 C 325.8 374.2 323.9 372.9 322.3 371.2 C 321.8 371.8 321.4 372.4 321.0 373.0 C 319.6 372.0 318.3 370.9 316.8 370.2 C 315.1 369.8 313.5 370.8 311.9 371.2 C 309.6 368.9 306.9 367.0 303.9 365.8 C 302.3 365.8 301.2 367.2 299.9 367.9 C 300.3 366.8 300.7 365.7 301.1 364.6 C 294.8 365.7 289.6 361.1 283.6 360.7 C 280.3 360.4 277.1 360.3 274.0 359.2 C 269.6 357.5 264.4 358.4 260.4 355.6 C 255.9 350.3 254.0 342.4 256.6 335.8 C 256.9 331.9 262.0 330.9 262.4 327.1 C 266.1 325.5 269.3 322.8 271.7 319.6 C 272.9 318.2 272.7 316.2 273.7 314.7 C 275.9 313.1 279.4 313.3 280.6 310.5 C 282.2 306.1 286.9 304.2 289.5 300.5 C 292.7 294.8 299.9 292.8 302.5 286.6 C 305.9 286.1 308.2 283.6 308.4 280.2 C 312.1 282.2 315.1 279.0 317.5 276.6 Z" />
<path fill="#e8bb39" stroke="#e8bb39" stroke-width="0.09375" opacity="1.00" d=" M 427.3 278.1 C 428.7 276.1 430.8 274.9 433.3 274.8 C 433.5 278.4 430.0 278.4 427.3 278.1 Z" />
<path fill="#f0c63c" stroke="#f0c63c" stroke-width="0.09375" opacity="1.00" d=" M 364.9 275.6 C 367.3 277.8 370.1 279.6 372.1 282.1 C 372.3 284.6 369.7 285.3 368.1 286.5 C 370.6 288.3 374.4 288.9 375.6 292.0 C 374.9 293.0 374.2 293.8 373.5 294.7 C 378.1 295.8 381.3 299.6 384.6 302.8 C 382.1 303.1 379.5 303.3 376.9 303.0 C 378.0 302.1 379.1 301.2 380.2 300.2 C 377.2 298.8 373.3 298.6 371.0 295.9 C 371.2 294.9 371.5 293.9 371.7 293.0 C 369.8 290.9 367.7 288.9 365.5 287.0 C 366.0 285.6 366.5 284.2 366.9 282.8 C 365.6 280.6 364.8 278.2 364.9 275.6 Z" />
<path fill="#f1c53c" stroke="#f1c53c" stroke-width="0.09375" opacity="1.00" d=" M 424.9 284.9 C 427.4 282.0 430.9 280.2 434.5 279.0 C 433.0 281.3 431.4 283.6 430.1 286.0 C 428.4 285.6 426.6 285.2 424.9 284.9 Z" />
<path fill="#010101" stroke="#010101" stroke-width="0.09375" opacity="1.00" d=" M 390.9 282.8 C 392.4 284.4 393.6 286.4 395.4 287.8 C 397.6 289.2 400.0 287.7 402.3 287.3 C 400.2 289.2 397.4 290.7 394.7 289.3 C 391.8 288.5 390.9 285.4 390.9 282.8 Z" />
<path fill="#010101" stroke="#010101" stroke-width="0.09375" opacity="1.00" d=" M 443.9 283.8 C 446.1 284.0 447.8 285.4 449.0 287.2 C 446.8 287.0 444.8 285.9 443.9 283.8 Z" />
<path fill="#f1c63c" stroke="#f1c63c" stroke-width="0.09375" opacity="1.00" d=" M 422.5 289.0 C 425.1 287.9 428.0 287.5 430.8 287.1 C 429.5 289.2 427.9 291.1 426.1 292.8 C 424.7 291.7 422.1 291.3 422.5 289.0 Z" />
<path fill="#f1c63c" stroke="#f1c63c" stroke-width="0.09375" opacity="1.00" d=" M 420.3 293.2 C 422.2 292.7 426.2 293.1 425.8 295.8 C 423.5 296.7 419.3 298.1 418.2 295.0 C 418.7 294.5 419.7 293.6 420.3 293.2 Z" />
<path fill="#000000" stroke="#000000" stroke-width="0.09375" opacity="1.00" d=" M 390.7 295.3 C 394.6 295.1 398.6 295.1 402.4 295.5 C 399.7 299.9 394.2 297.2 390.7 295.3 Z" />
<path fill="#010101" stroke="#010101" stroke-width="0.09375" opacity="1.00" d=" M 391.0 298.9 C 393.4 299.6 395.7 300.7 397.9 301.8 C 400.0 300.8 402.2 299.9 404.4 299.1 C 403.0 303.1 398.1 303.0 394.7 302.3 C 392.8 302.0 392.0 300.3 391.0 298.9 Z" />
<path fill="#f1c63c" stroke="#f1c63c" stroke-width="0.09375" opacity="1.00" d=" M 417.2 304.2 C 416.0 302.7 412.4 300.6 415.0 298.7 C 417.4 298.8 419.8 299.3 422.2 299.7 C 420.6 301.3 418.9 302.8 417.2 304.2 Z" />
<path fill="#a58463" stroke="#a58463" stroke-width="0.09375" opacity="1.00" d=" M 484.1 300.1 C 484.6 300.1 485.6 300.0 486.1 300.0 C 486.0 301.3 486.0 302.6 486.0 303.9 C 485.5 303.9 484.6 303.9 484.1 303.8 C 484.1 302.6 484.1 301.4 484.1 300.1 Z" />
<path fill="#010101" stroke="#010101" stroke-width="0.09375" opacity="1.00" d=" M 426.5 305.3 C 427.7 303.3 429.8 302.1 432.2 301.8 C 430.7 303.6 428.8 304.8 426.5 305.3 Z" />
<path fill="#f1c63c" stroke="#f1c63c" stroke-width="0.09375" opacity="1.00" d=" M 410.7 304.5 C 412.2 304.4 413.8 304.4 415.3 304.5 C 414.6 305.5 413.9 307.2 412.3 306.7 C 411.7 306.0 411.2 305.3 410.7 304.5 Z" />
<path fill="#020200" stroke="#020200" stroke-width="0.09375" opacity="1.00" d=" M 346.1 314.3 C 343.4 313.3 344.6 310.2 345.9 308.6 C 346.1 310.5 346.2 312.4 346.1 314.3 Z" />
<path fill="#f1c63c" stroke="#f1c63c" stroke-width="0.09375" opacity="1.00" d=" M 388.0 310.8 C 390.3 309.8 392.8 308.7 395.2 309.6 C 394.1 311.2 393.0 312.6 391.9 314.2 C 393.4 313.6 394.8 312.8 396.2 312.0 C 399.0 314.7 401.9 317.3 404.3 320.4 C 402.3 320.7 400.1 321.0 398.5 319.5 C 395.2 316.3 390.8 314.5 388.0 310.8 Z" />
<path fill="#f1c63c" stroke="#f1c63c" stroke-width="0.09375" opacity="1.00" d=" M 397.7 310.2 C 400.8 309.8 404.0 309.5 407.1 309.5 C 409.5 312.5 410.6 316.5 410.2 320.3 C 408.8 320.0 406.5 320.8 406.0 319.1 C 405.4 317.9 405.1 316.6 404.7 315.3 C 402.2 313.9 399.8 312.2 397.7 310.2 Z" />
<path fill="#010101" stroke="#010101" stroke-width="0.09375" opacity="1.00" d=" M 438.8 316.2 C 440.4 314.4 442.3 312.9 444.4 311.9 C 443.1 313.9 441.2 315.5 438.8 316.2 Z" />
<path fill="#f1c63c" stroke="#f1c63c" stroke-width="0.09375" opacity="1.00" d=" M 385.5 319.4 C 386.9 318.2 388.4 317.0 390.0 315.9 C 392.2 318.1 392.6 322.7 389.2 324.0 C 387.5 322.8 388.3 320.7 388.2 318.9 C 387.5 319.1 386.2 319.3 385.5 319.4 Z" />
<path fill="#f0c63c" stroke="#f0c63c" stroke-width="0.09375" opacity="1.00" d=" M 401.2 324.5 C 402.6 323.3 403.7 321.4 405.7 321.1 C 408.6 324.2 411.0 327.7 411.0 332.0 C 409.2 332.2 407.4 332.3 405.6 332.5 C 405.8 331.0 405.9 329.6 405.9 328.2 C 404.8 326.5 402.8 325.7 401.2 324.5 Z" />
<path fill="#f1c63c" stroke="#f1c63c" stroke-width="0.09375" opacity="1.00" d=" M 395.6 322.7 C 396.7 322.5 397.8 322.4 398.9 322.2 C 398.7 326.1 398.2 330.0 397.9 333.9 C 399.8 335.4 402.3 336.5 403.1 338.9 C 404.1 341.5 406.8 342.7 407.7 345.3 C 411.1 352.1 417.5 358.0 417.9 365.9 C 417.4 366.0 416.6 366.1 416.2 366.2 C 412.8 359.8 408.6 353.8 403.8 348.4 C 400.3 342.8 396.7 336.9 396.0 330.2 C 395.0 327.7 394.0 325.2 395.6 322.7 Z" />
<path fill="#f1c63c" stroke="#f1c63c" stroke-width="0.09375" opacity="1.00" d=" M 389.9 327.9 C 391.5 329.0 393.4 330.1 393.9 332.1 C 393.7 333.3 393.4 334.5 392.9 335.7 C 391.1 333.5 389.9 330.8 389.9 327.9 Z" />
<path fill="#f1c63c" stroke="#f1c63c" stroke-width="0.09375" opacity="1.00" d=" M 401.2 330.8 C 403.6 332.2 405.3 334.4 406.2 337.1 C 402.9 336.8 401.6 333.7 401.2 330.8 Z" />
<path fill="#f1c63c" stroke="#f1c63c" stroke-width="0.09375" opacity="1.00" d=" M 408.1 332.6 C 411.3 333.4 411.6 337.2 413.6 339.3 C 416.4 341.7 419.5 343.8 422.8 345.2 C 424.0 345.6 424.7 346.7 425.3 347.7 C 421.4 348.2 417.5 346.9 413.7 346.2 C 411.3 341.9 408.7 337.6 408.1 332.6 Z" />
<path fill="#f1c63c" stroke="#f1c63c" stroke-width="0.09375" opacity="1.00" d=" M 390.8 340.4 C 393.7 340.7 396.9 340.7 398.9 343.0 C 396.3 345.2 392.6 342.8 390.8 340.4 Z" />
<path fill="#f5ca00" stroke="#f5ca00" stroke-width="0.09375" opacity="1.00" d=" M 390.9 346.3 C 394.3 347.1 397.8 347.3 401.2 348.0 C 399.1 349.0 396.9 349.8 394.8 350.6 C 394.9 351.2 395.3 352.2 395.5 352.8 C 396.6 353.4 397.9 353.6 399.3 353.3 C 396.8 354.4 393.5 354.3 392.9 351.0 C 392.3 349.7 391.7 348.4 391.2 347.0 L 390.9 346.3 Z" />
<path fill="#020200" stroke="#020200" stroke-width="0.09375" opacity="1.00" d=" M 388.1 347.5 C 388.9 347.4 390.4 347.1 391.2 347.0 C 391.7 348.4 392.3 349.7 392.9 351.0 C 391.6 350.4 390.2 349.8 388.8 349.2 C 388.6 348.8 388.3 347.9 388.1 347.5 Z" />
<path fill="#f1c63c" stroke="#f1c63c" stroke-width="0.09375" opacity="1.00" d=" M 413.9 350.4 C 417.9 352.6 420.7 356.3 424.7 358.4 C 428.0 359.9 430.5 363.0 434.2 363.9 C 436.3 364.8 438.5 363.8 440.6 363.4 C 443.9 365.8 448.2 365.4 451.9 366.6 C 451.7 368.0 451.4 369.4 451.2 370.9 C 452.4 370.8 453.6 370.8 454.8 370.8 C 456.0 372.0 457.1 373.2 458.4 374.4 C 458.7 373.6 459.5 372.1 459.9 371.4 C 462.8 372.8 465.6 374.6 468.1 376.7 C 466.3 376.8 464.5 376.9 462.7 377.0 C 465.6 380.5 467.5 385.0 466.4 389.6 C 464.2 388.9 462.1 388.1 460.0 387.4 C 460.6 388.9 461.4 390.4 461.9 392.0 C 461.4 393.0 460.4 393.6 459.6 394.3 C 459.3 393.6 458.6 392.2 458.3 391.5 C 456.4 392.3 454.4 393.9 452.2 393.1 C 451.4 392.2 450.8 391.2 450.1 390.2 C 451.9 390.4 453.7 390.7 455.5 391.0 C 455.4 389.9 455.2 388.9 455.1 387.8 C 458.4 386.5 460.8 383.4 464.5 383.2 C 463.0 382.6 461.5 382.0 460.0 381.4 C 459.8 380.1 459.5 378.7 459.3 377.3 C 455.4 376.8 451.6 374.9 447.6 375.6 C 447.6 374.1 447.7 372.6 447.8 371.1 C 444.8 370.1 442.0 368.5 440.7 365.5 C 436.7 367.4 435.7 372.5 431.8 374.3 C 430.5 368.7 426.6 364.4 423.1 360.2 C 422.2 360.8 421.3 361.4 420.4 362.0 C 419.9 357.4 416.1 354.3 413.9 350.4 Z" />
<path fill="#f1c63c" stroke="#f1c63c" stroke-width="0.09375" opacity="1.00" d=" M 452.8 365.7 C 456.1 365.1 458.5 367.6 459.5 370.4 C 456.4 370.5 454.0 368.5 452.8 365.7 Z" />
<path fill="#f1c63c" stroke="#f1c63c" stroke-width="0.09375" opacity="1.00" d=" M 437.7 369.0 C 441.5 369.9 445.1 371.9 447.3 375.2 C 448.7 376.7 446.5 378.1 445.1 378.0 C 441.4 376.4 438.2 373.2 437.7 369.0 Z" />
<path fill="#010101" stroke="#010101" stroke-width="0.09375" opacity="1.00" d=" M 374.4 370.9 C 378.0 370.5 381.5 370.5 385.1 370.5 C 386.5 372.4 387.9 374.4 388.2 376.7 C 387.5 376.7 386.0 376.7 385.3 376.6 C 384.5 375.3 383.7 374.0 382.9 372.7 C 380.0 372.6 376.8 373.0 374.4 370.9 Z" />
<path fill="#f1c63c" stroke="#f1c63c" stroke-width="0.09375" opacity="1.00" d=" M 434.5 374.6 C 438.4 374.4 441.2 377.4 442.2 380.8 C 443.4 384.6 446.5 387.2 448.3 390.6 C 447.0 390.8 445.6 390.9 444.3 391.0 C 443.3 388.5 441.2 386.9 439.0 385.5 C 439.9 384.9 440.8 384.3 441.8 383.7 C 437.4 382.9 434.7 378.7 434.5 374.6 Z" />
<path fill="#f1c63c" stroke="#f1c63c" stroke-width="0.09375" opacity="1.00" d=" M 443.9 382.0 C 446.4 380.9 448.8 379.6 451.2 378.3 C 454.7 378.7 457.4 381.6 458.3 384.9 C 455.1 385.6 452.4 383.7 449.7 382.1 C 451.0 384.2 452.5 386.2 453.5 388.4 C 449.2 388.9 445.7 385.6 443.9 382.0 Z" />
<path fill="#f1c63c" stroke="#f1c63c" stroke-width="0.09375" opacity="1.00" d=" M 470.1 382.3 C 474.5 384.0 473.8 389.6 476.3 393.1 C 473.1 395.0 468.9 394.9 465.5 393.6 C 464.0 393.2 463.4 392.1 463.7 390.5 C 465.9 390.2 468.0 391.3 470.0 392.0 C 469.3 390.7 468.7 389.5 468.1 388.2 C 469.6 386.6 469.7 384.3 470.1 382.3 Z" />
<path fill="#020100" stroke="#020100" stroke-width="0.09375" opacity="1.00" d=" M 472.0 401.3 C 474.4 401.3 476.9 401.6 478.1 404.1 C 475.8 403.8 473.7 402.8 472.0 401.3 Z" />
</svg>
